%TF.GenerationSoftware,KiCad,Pcbnew,5.1.6-c6e7f7d~86~ubuntu18.04.1*%
%TF.CreationDate,2020-05-25T18:51:15+02:00*%
%TF.ProjectId,power-supply-5V,706f7765-722d-4737-9570-706c792d3556,1.0*%
%TF.SameCoordinates,PX77e7cd0PY5125ed0*%
%TF.FileFunction,Other,Fab,Top*%
%FSLAX46Y46*%
G04 Gerber Fmt 4.6, Leading zero omitted, Abs format (unit mm)*
G04 Created by KiCad (PCBNEW 5.1.6-c6e7f7d~86~ubuntu18.04.1) date 2020-05-25 18:51:15*
%MOMM*%
%LPD*%
G01*
G04 APERTURE LIST*
%TA.AperFunction,Profile*%
%ADD10C,0.050000*%
%TD*%
%ADD11C,0.100000*%
%ADD12C,0.150000*%
%ADD13C,0.080000*%
%ADD14C,0.120000*%
G04 APERTURE END LIST*
D10*
X1666666Y0D02*
G75*
G03*
X1666666Y0I-1666666J0D01*
G01*
X-2500000Y0D02*
X2500000Y0D01*
X0Y2500000D02*
X0Y-2500000D01*
X0Y0D02*
X0Y20320000D01*
X53340000Y0D02*
X0Y0D01*
X53340000Y20320000D02*
X53340000Y0D01*
X0Y20320000D02*
X53340000Y20320000D01*
D11*
%TO.C,C1*%
X22260000Y6080000D02*
X23460000Y6080000D01*
X23460000Y6080000D02*
X23460000Y4080000D01*
X23460000Y4080000D02*
X22260000Y4080000D01*
X22260000Y4080000D02*
X22260000Y6080000D01*
%TO.C,C2*%
X10760000Y4080000D02*
X9560000Y4080000D01*
X9560000Y4080000D02*
X9560000Y6080000D01*
X9560000Y6080000D02*
X10760000Y6080000D01*
X10760000Y6080000D02*
X10760000Y4080000D01*
%TO.C,D1*%
X29758000Y4610000D02*
X26958000Y4610000D01*
X26958000Y4610000D02*
X26558000Y4210000D01*
X26558000Y4210000D02*
X26558000Y3010000D01*
X26558000Y3010000D02*
X29758000Y3010000D01*
X29758000Y3010000D02*
X29758000Y4610000D01*
%TO.C,D2*%
X41440000Y4750000D02*
X41440000Y7550000D01*
X41440000Y7550000D02*
X41040000Y7950000D01*
X41040000Y7950000D02*
X39840000Y7950000D01*
X39840000Y7950000D02*
X39840000Y4750000D01*
X39840000Y4750000D02*
X41440000Y4750000D01*
%TO.C,R1*%
X34760000Y7950000D02*
X36360000Y7950000D01*
X36360000Y7950000D02*
X36360000Y4750000D01*
X36360000Y4750000D02*
X34760000Y4750000D01*
X34760000Y4750000D02*
X34760000Y7950000D01*
%TO.C,U1*%
X14210000Y5770000D02*
X13160000Y6820000D01*
X14210000Y5770000D02*
X19860000Y5770000D01*
X13160000Y6820000D02*
X13160000Y9470000D01*
X19860000Y5770000D02*
X19860000Y9470000D01*
X13160000Y9470000D02*
X19860000Y9470000D01*
%TD*%
%TO.C,J3*%
D12*
X6334285Y2468572D02*
X7096190Y2468572D01*
X6715238Y2087620D02*
X6715238Y2849524D01*
X8048571Y3087620D02*
X7572380Y3087620D01*
X7524761Y2611429D01*
X7572380Y2659048D01*
X7667619Y2706667D01*
X7905714Y2706667D01*
X8000952Y2659048D01*
X8048571Y2611429D01*
X8096190Y2516191D01*
X8096190Y2278096D01*
X8048571Y2182858D01*
X8000952Y2135239D01*
X7905714Y2087620D01*
X7667619Y2087620D01*
X7572380Y2135239D01*
X7524761Y2182858D01*
X8381904Y3087620D02*
X8715238Y2087620D01*
X9048571Y3087620D01*
%TO.C,J2*%
X43799285Y2468572D02*
X44561190Y2468572D01*
X44180238Y2087620D02*
X44180238Y2849524D01*
X45513571Y3087620D02*
X45037380Y3087620D01*
X44989761Y2611429D01*
X45037380Y2659048D01*
X45132619Y2706667D01*
X45370714Y2706667D01*
X45465952Y2659048D01*
X45513571Y2611429D01*
X45561190Y2516191D01*
X45561190Y2278096D01*
X45513571Y2182858D01*
X45465952Y2135239D01*
X45370714Y2087620D01*
X45132619Y2087620D01*
X45037380Y2135239D01*
X44989761Y2182858D01*
X45846904Y3087620D02*
X46180238Y2087620D01*
X46513571Y3087620D01*
%TO.C,J1*%
X31202380Y12946191D02*
X32202380Y13279524D01*
X31202380Y13612858D01*
X32202380Y13946191D02*
X31535714Y13946191D01*
X31202380Y13946191D02*
X31250000Y13898572D01*
X31297619Y13946191D01*
X31250000Y13993810D01*
X31202380Y13946191D01*
X31297619Y13946191D01*
X31535714Y14422381D02*
X32202380Y14422381D01*
X31630952Y14422381D02*
X31583333Y14470000D01*
X31535714Y14565239D01*
X31535714Y14708096D01*
X31583333Y14803334D01*
X31678571Y14850953D01*
X32202380Y14850953D01*
%TO.C,C1*%
X20995714Y3865715D02*
X21662380Y3865715D01*
X20614761Y3627620D02*
X21329047Y3389524D01*
X21329047Y4008572D01*
X20662380Y4294286D02*
X20662380Y4960953D01*
X21662380Y4532381D01*
X20662380Y5532381D02*
X20662380Y5627620D01*
X20710000Y5722858D01*
X20757619Y5770477D01*
X20852857Y5818096D01*
X21043333Y5865715D01*
X21281428Y5865715D01*
X21471904Y5818096D01*
X21567142Y5770477D01*
X21614761Y5722858D01*
X21662380Y5627620D01*
X21662380Y5532381D01*
X21614761Y5437143D01*
X21567142Y5389524D01*
X21471904Y5341905D01*
X21281428Y5294286D01*
X21043333Y5294286D01*
X20852857Y5341905D01*
X20757619Y5389524D01*
X20710000Y5437143D01*
X20662380Y5532381D01*
X20995714Y6294286D02*
X21662380Y6294286D01*
X21090952Y6294286D02*
X21043333Y6341905D01*
X20995714Y6437143D01*
X20995714Y6580000D01*
X21043333Y6675239D01*
X21138571Y6722858D01*
X21662380Y6722858D01*
D13*
X23038571Y4996667D02*
X23062380Y4972858D01*
X23086190Y4901429D01*
X23086190Y4853810D01*
X23062380Y4782381D01*
X23014761Y4734762D01*
X22967142Y4710953D01*
X22871904Y4687143D01*
X22800476Y4687143D01*
X22705238Y4710953D01*
X22657619Y4734762D01*
X22610000Y4782381D01*
X22586190Y4853810D01*
X22586190Y4901429D01*
X22610000Y4972858D01*
X22633809Y4996667D01*
X23086190Y5472858D02*
X23086190Y5187143D01*
X23086190Y5330000D02*
X22586190Y5330000D01*
X22657619Y5282381D01*
X22705238Y5234762D01*
X22729047Y5187143D01*
%TO.C,C2*%
D12*
X11595714Y3865715D02*
X12262380Y3865715D01*
X11214761Y3627620D02*
X11929047Y3389524D01*
X11929047Y4008572D01*
X11262380Y4294286D02*
X11262380Y4960953D01*
X12262380Y4532381D01*
X11262380Y5532381D02*
X11262380Y5627620D01*
X11310000Y5722858D01*
X11357619Y5770477D01*
X11452857Y5818096D01*
X11643333Y5865715D01*
X11881428Y5865715D01*
X12071904Y5818096D01*
X12167142Y5770477D01*
X12214761Y5722858D01*
X12262380Y5627620D01*
X12262380Y5532381D01*
X12214761Y5437143D01*
X12167142Y5389524D01*
X12071904Y5341905D01*
X11881428Y5294286D01*
X11643333Y5294286D01*
X11452857Y5341905D01*
X11357619Y5389524D01*
X11310000Y5437143D01*
X11262380Y5532381D01*
X11595714Y6294286D02*
X12262380Y6294286D01*
X11690952Y6294286D02*
X11643333Y6341905D01*
X11595714Y6437143D01*
X11595714Y6580000D01*
X11643333Y6675239D01*
X11738571Y6722858D01*
X12262380Y6722858D01*
D13*
X10338571Y4996667D02*
X10362380Y4972858D01*
X10386190Y4901429D01*
X10386190Y4853810D01*
X10362380Y4782381D01*
X10314761Y4734762D01*
X10267142Y4710953D01*
X10171904Y4687143D01*
X10100476Y4687143D01*
X10005238Y4710953D01*
X9957619Y4734762D01*
X9910000Y4782381D01*
X9886190Y4853810D01*
X9886190Y4901429D01*
X9910000Y4972858D01*
X9933809Y4996667D01*
X9933809Y5187143D02*
X9910000Y5210953D01*
X9886190Y5258572D01*
X9886190Y5377620D01*
X9910000Y5425239D01*
X9933809Y5449048D01*
X9981428Y5472858D01*
X10029047Y5472858D01*
X10100476Y5449048D01*
X10386190Y5163334D01*
X10386190Y5472858D01*
%TO.C,D1*%
D12*
X27896095Y1537620D02*
X27896095Y2537620D01*
X28134190Y2537620D01*
X28277047Y2490000D01*
X28372285Y2394762D01*
X28419904Y2299524D01*
X28467523Y2109048D01*
X28467523Y1966191D01*
X28419904Y1775715D01*
X28372285Y1680477D01*
X28277047Y1585239D01*
X28134190Y1537620D01*
X27896095Y1537620D01*
D14*
X27567523Y3448096D02*
X27567523Y4248096D01*
X27758000Y4248096D01*
X27872285Y4210000D01*
X27948476Y4133810D01*
X27986571Y4057620D01*
X28024666Y3905239D01*
X28024666Y3790953D01*
X27986571Y3638572D01*
X27948476Y3562381D01*
X27872285Y3486191D01*
X27758000Y3448096D01*
X27567523Y3448096D01*
X28786571Y3448096D02*
X28329428Y3448096D01*
X28558000Y3448096D02*
X28558000Y4248096D01*
X28481809Y4133810D01*
X28405619Y4057620D01*
X28329428Y4019524D01*
%TO.C,D2*%
D12*
X39272380Y5778572D02*
X38796190Y5445239D01*
X39272380Y5207143D02*
X38272380Y5207143D01*
X38272380Y5588096D01*
X38320000Y5683334D01*
X38367619Y5730953D01*
X38462857Y5778572D01*
X38605714Y5778572D01*
X38700952Y5730953D01*
X38748571Y5683334D01*
X38796190Y5588096D01*
X38796190Y5207143D01*
X39224761Y6588096D02*
X39272380Y6492858D01*
X39272380Y6302381D01*
X39224761Y6207143D01*
X39129523Y6159524D01*
X38748571Y6159524D01*
X38653333Y6207143D01*
X38605714Y6302381D01*
X38605714Y6492858D01*
X38653333Y6588096D01*
X38748571Y6635715D01*
X38843809Y6635715D01*
X38939047Y6159524D01*
X39272380Y7492858D02*
X38272380Y7492858D01*
X39224761Y7492858D02*
X39272380Y7397620D01*
X39272380Y7207143D01*
X39224761Y7111905D01*
X39177142Y7064286D01*
X39081904Y7016667D01*
X38796190Y7016667D01*
X38700952Y7064286D01*
X38653333Y7111905D01*
X38605714Y7207143D01*
X38605714Y7397620D01*
X38653333Y7492858D01*
D14*
X41001904Y5759524D02*
X40201904Y5759524D01*
X40201904Y5950000D01*
X40240000Y6064286D01*
X40316190Y6140477D01*
X40392380Y6178572D01*
X40544761Y6216667D01*
X40659047Y6216667D01*
X40811428Y6178572D01*
X40887619Y6140477D01*
X40963809Y6064286D01*
X41001904Y5950000D01*
X41001904Y5759524D01*
X40278095Y6521429D02*
X40240000Y6559524D01*
X40201904Y6635715D01*
X40201904Y6826191D01*
X40240000Y6902381D01*
X40278095Y6940477D01*
X40354285Y6978572D01*
X40430476Y6978572D01*
X40544761Y6940477D01*
X41001904Y6483334D01*
X41001904Y6978572D01*
%TO.C,R1*%
D12*
X34192380Y6659524D02*
X33716190Y6326191D01*
X34192380Y6088096D02*
X33192380Y6088096D01*
X33192380Y6469048D01*
X33240000Y6564286D01*
X33287619Y6611905D01*
X33382857Y6659524D01*
X33525714Y6659524D01*
X33620952Y6611905D01*
X33668571Y6564286D01*
X33716190Y6469048D01*
X33716190Y6088096D01*
D14*
X35921904Y6216667D02*
X35540952Y5950000D01*
X35921904Y5759524D02*
X35121904Y5759524D01*
X35121904Y6064286D01*
X35160000Y6140477D01*
X35198095Y6178572D01*
X35274285Y6216667D01*
X35388571Y6216667D01*
X35464761Y6178572D01*
X35502857Y6140477D01*
X35540952Y6064286D01*
X35540952Y5759524D01*
X35921904Y6978572D02*
X35921904Y6521429D01*
X35921904Y6750000D02*
X35121904Y6750000D01*
X35236190Y6673810D01*
X35312380Y6597620D01*
X35350476Y6521429D01*
%TO.C,U1*%
D12*
X12533809Y2087620D02*
X12057619Y2087620D01*
X12057619Y3087620D01*
X12867142Y2087620D02*
X12867142Y3087620D01*
X13200476Y2373334D01*
X13533809Y3087620D01*
X13533809Y2087620D01*
X14533809Y2087620D02*
X13962380Y2087620D01*
X14248095Y2087620D02*
X14248095Y3087620D01*
X14152857Y2944762D01*
X14057619Y2849524D01*
X13962380Y2801905D01*
X15486190Y2087620D02*
X14914761Y2087620D01*
X15200476Y2087620D02*
X15200476Y3087620D01*
X15105238Y2944762D01*
X15010000Y2849524D01*
X14914761Y2801905D01*
X16438571Y2087620D02*
X15867142Y2087620D01*
X16152857Y2087620D02*
X16152857Y3087620D01*
X16057619Y2944762D01*
X15962380Y2849524D01*
X15867142Y2801905D01*
X16771904Y3087620D02*
X17438571Y3087620D01*
X17010000Y2087620D01*
X17819523Y2468572D02*
X18581428Y2468572D01*
X19533809Y3087620D02*
X19057619Y3087620D01*
X19010000Y2611429D01*
X19057619Y2659048D01*
X19152857Y2706667D01*
X19390952Y2706667D01*
X19486190Y2659048D01*
X19533809Y2611429D01*
X19581428Y2516191D01*
X19581428Y2278096D01*
X19533809Y2182858D01*
X19486190Y2135239D01*
X19390952Y2087620D01*
X19152857Y2087620D01*
X19057619Y2135239D01*
X19010000Y2182858D01*
X20010000Y2182858D02*
X20057619Y2135239D01*
X20010000Y2087620D01*
X19962380Y2135239D01*
X20010000Y2182858D01*
X20010000Y2087620D01*
X20676666Y3087620D02*
X20771904Y3087620D01*
X20867142Y3040000D01*
X20914761Y2992381D01*
X20962380Y2897143D01*
X21010000Y2706667D01*
X21010000Y2468572D01*
X20962380Y2278096D01*
X20914761Y2182858D01*
X20867142Y2135239D01*
X20771904Y2087620D01*
X20676666Y2087620D01*
X20581428Y2135239D01*
X20533809Y2182858D01*
X20486190Y2278096D01*
X20438571Y2468572D01*
X20438571Y2706667D01*
X20486190Y2897143D01*
X20533809Y2992381D01*
X20581428Y3040000D01*
X20676666Y3087620D01*
D14*
X15900476Y8058096D02*
X15900476Y7410477D01*
X15938571Y7334286D01*
X15976666Y7296191D01*
X16052857Y7258096D01*
X16205238Y7258096D01*
X16281428Y7296191D01*
X16319523Y7334286D01*
X16357619Y7410477D01*
X16357619Y8058096D01*
X17157619Y7258096D02*
X16700476Y7258096D01*
X16929047Y7258096D02*
X16929047Y8058096D01*
X16852857Y7943810D01*
X16776666Y7867620D01*
X16700476Y7829524D01*
%TD*%
M02*
