%TF.GenerationSoftware,KiCad,Pcbnew,5.1.5-1.fc31*%
%TF.CreationDate,2020-02-01T15:27:32+01:00*%
%TF.ProjectId,power-supply-5V,706f7765-722d-4737-9570-706c792d3556,1.0*%
%TF.SameCoordinates,Original*%
%TF.FileFunction,Other,Fab,Top*%
%FSLAX46Y46*%
G04 Gerber Fmt 4.6, Leading zero omitted, Abs format (unit mm)*
G04 Created by KiCad (PCBNEW 5.1.5-1.fc31) date 2020-02-01 15:27:32*
%MOMM*%
%LPD*%
G04 APERTURE LIST*
%TA.AperFunction,Profile*%
%ADD10C,0.050000*%
%TD*%
%ADD11C,0.100000*%
%ADD12C,0.150000*%
%ADD13C,0.080000*%
%ADD14C,0.120000*%
G04 APERTURE END LIST*
D10*
X127396666Y-85090000D02*
G75*
G03X127396666Y-85090000I-1666666J0D01*
G01*
X123230000Y-85090000D02*
X128230000Y-85090000D01*
X125730000Y-82590000D02*
X125730000Y-87590000D01*
X125730000Y-85090000D02*
X125730000Y-64770000D01*
X179070000Y-85090000D02*
X125730000Y-85090000D01*
X179070000Y-64770000D02*
X179070000Y-85090000D01*
X125730000Y-64770000D02*
X179070000Y-64770000D01*
D11*
%TO.C,C1*%
X147990000Y-81010000D02*
X147990000Y-79010000D01*
X149190000Y-81010000D02*
X147990000Y-81010000D01*
X149190000Y-79010000D02*
X149190000Y-81010000D01*
X147990000Y-79010000D02*
X149190000Y-79010000D01*
%TO.C,C2*%
X136490000Y-79010000D02*
X136490000Y-81010000D01*
X135290000Y-79010000D02*
X136490000Y-79010000D01*
X135290000Y-81010000D02*
X135290000Y-79010000D01*
X136490000Y-81010000D02*
X135290000Y-81010000D01*
%TO.C,D1*%
X155488000Y-82080000D02*
X155488000Y-80480000D01*
X152288000Y-82080000D02*
X155488000Y-82080000D01*
X152288000Y-80880000D02*
X152288000Y-82080000D01*
X152688000Y-80480000D02*
X152288000Y-80880000D01*
X155488000Y-80480000D02*
X152688000Y-80480000D01*
%TO.C,D2*%
X165570000Y-80340000D02*
X167170000Y-80340000D01*
X165570000Y-77140000D02*
X165570000Y-80340000D01*
X166770000Y-77140000D02*
X165570000Y-77140000D01*
X167170000Y-77540000D02*
X166770000Y-77140000D01*
X167170000Y-80340000D02*
X167170000Y-77540000D01*
%TO.C,R1*%
X160490000Y-80340000D02*
X160490000Y-77140000D01*
X162090000Y-80340000D02*
X160490000Y-80340000D01*
X162090000Y-77140000D02*
X162090000Y-80340000D01*
X160490000Y-77140000D02*
X162090000Y-77140000D01*
%TO.C,U1*%
X138890000Y-75620000D02*
X145590000Y-75620000D01*
X145590000Y-79320000D02*
X145590000Y-75620000D01*
X138890000Y-78270000D02*
X138890000Y-75620000D01*
X139940000Y-79320000D02*
X145590000Y-79320000D01*
X139940000Y-79320000D02*
X138890000Y-78270000D01*
%TD*%
%TO.C,J3*%
D12*
X132064285Y-82621428D02*
X132826190Y-82621428D01*
X132445238Y-83002380D02*
X132445238Y-82240476D01*
X133778571Y-82002380D02*
X133302380Y-82002380D01*
X133254761Y-82478571D01*
X133302380Y-82430952D01*
X133397619Y-82383333D01*
X133635714Y-82383333D01*
X133730952Y-82430952D01*
X133778571Y-82478571D01*
X133826190Y-82573809D01*
X133826190Y-82811904D01*
X133778571Y-82907142D01*
X133730952Y-82954761D01*
X133635714Y-83002380D01*
X133397619Y-83002380D01*
X133302380Y-82954761D01*
X133254761Y-82907142D01*
X134111904Y-82002380D02*
X134445238Y-83002380D01*
X134778571Y-82002380D01*
%TO.C,J2*%
X169529285Y-82621428D02*
X170291190Y-82621428D01*
X169910238Y-83002380D02*
X169910238Y-82240476D01*
X171243571Y-82002380D02*
X170767380Y-82002380D01*
X170719761Y-82478571D01*
X170767380Y-82430952D01*
X170862619Y-82383333D01*
X171100714Y-82383333D01*
X171195952Y-82430952D01*
X171243571Y-82478571D01*
X171291190Y-82573809D01*
X171291190Y-82811904D01*
X171243571Y-82907142D01*
X171195952Y-82954761D01*
X171100714Y-83002380D01*
X170862619Y-83002380D01*
X170767380Y-82954761D01*
X170719761Y-82907142D01*
X171576904Y-82002380D02*
X171910238Y-83002380D01*
X172243571Y-82002380D01*
%TO.C,J1*%
X156932380Y-72143809D02*
X157932380Y-71810476D01*
X156932380Y-71477142D01*
X157932380Y-71143809D02*
X157265714Y-71143809D01*
X156932380Y-71143809D02*
X156980000Y-71191428D01*
X157027619Y-71143809D01*
X156980000Y-71096190D01*
X156932380Y-71143809D01*
X157027619Y-71143809D01*
X157265714Y-70667619D02*
X157932380Y-70667619D01*
X157360952Y-70667619D02*
X157313333Y-70620000D01*
X157265714Y-70524761D01*
X157265714Y-70381904D01*
X157313333Y-70286666D01*
X157408571Y-70239047D01*
X157932380Y-70239047D01*
%TO.C,C1*%
X146725714Y-81224285D02*
X147392380Y-81224285D01*
X146344761Y-81462380D02*
X147059047Y-81700476D01*
X147059047Y-81081428D01*
X146392380Y-80795714D02*
X146392380Y-80129047D01*
X147392380Y-80557619D01*
X146392380Y-79557619D02*
X146392380Y-79462380D01*
X146440000Y-79367142D01*
X146487619Y-79319523D01*
X146582857Y-79271904D01*
X146773333Y-79224285D01*
X147011428Y-79224285D01*
X147201904Y-79271904D01*
X147297142Y-79319523D01*
X147344761Y-79367142D01*
X147392380Y-79462380D01*
X147392380Y-79557619D01*
X147344761Y-79652857D01*
X147297142Y-79700476D01*
X147201904Y-79748095D01*
X147011428Y-79795714D01*
X146773333Y-79795714D01*
X146582857Y-79748095D01*
X146487619Y-79700476D01*
X146440000Y-79652857D01*
X146392380Y-79557619D01*
X146725714Y-78795714D02*
X147392380Y-78795714D01*
X146820952Y-78795714D02*
X146773333Y-78748095D01*
X146725714Y-78652857D01*
X146725714Y-78510000D01*
X146773333Y-78414761D01*
X146868571Y-78367142D01*
X147392380Y-78367142D01*
D13*
X148768571Y-80093333D02*
X148792380Y-80117142D01*
X148816190Y-80188571D01*
X148816190Y-80236190D01*
X148792380Y-80307619D01*
X148744761Y-80355238D01*
X148697142Y-80379047D01*
X148601904Y-80402857D01*
X148530476Y-80402857D01*
X148435238Y-80379047D01*
X148387619Y-80355238D01*
X148340000Y-80307619D01*
X148316190Y-80236190D01*
X148316190Y-80188571D01*
X148340000Y-80117142D01*
X148363809Y-80093333D01*
X148816190Y-79617142D02*
X148816190Y-79902857D01*
X148816190Y-79760000D02*
X148316190Y-79760000D01*
X148387619Y-79807619D01*
X148435238Y-79855238D01*
X148459047Y-79902857D01*
%TO.C,C2*%
D12*
X137325714Y-81224285D02*
X137992380Y-81224285D01*
X136944761Y-81462380D02*
X137659047Y-81700476D01*
X137659047Y-81081428D01*
X136992380Y-80795714D02*
X136992380Y-80129047D01*
X137992380Y-80557619D01*
X136992380Y-79557619D02*
X136992380Y-79462380D01*
X137040000Y-79367142D01*
X137087619Y-79319523D01*
X137182857Y-79271904D01*
X137373333Y-79224285D01*
X137611428Y-79224285D01*
X137801904Y-79271904D01*
X137897142Y-79319523D01*
X137944761Y-79367142D01*
X137992380Y-79462380D01*
X137992380Y-79557619D01*
X137944761Y-79652857D01*
X137897142Y-79700476D01*
X137801904Y-79748095D01*
X137611428Y-79795714D01*
X137373333Y-79795714D01*
X137182857Y-79748095D01*
X137087619Y-79700476D01*
X137040000Y-79652857D01*
X136992380Y-79557619D01*
X137325714Y-78795714D02*
X137992380Y-78795714D01*
X137420952Y-78795714D02*
X137373333Y-78748095D01*
X137325714Y-78652857D01*
X137325714Y-78510000D01*
X137373333Y-78414761D01*
X137468571Y-78367142D01*
X137992380Y-78367142D01*
D13*
X136068571Y-80093333D02*
X136092380Y-80117142D01*
X136116190Y-80188571D01*
X136116190Y-80236190D01*
X136092380Y-80307619D01*
X136044761Y-80355238D01*
X135997142Y-80379047D01*
X135901904Y-80402857D01*
X135830476Y-80402857D01*
X135735238Y-80379047D01*
X135687619Y-80355238D01*
X135640000Y-80307619D01*
X135616190Y-80236190D01*
X135616190Y-80188571D01*
X135640000Y-80117142D01*
X135663809Y-80093333D01*
X135663809Y-79902857D02*
X135640000Y-79879047D01*
X135616190Y-79831428D01*
X135616190Y-79712380D01*
X135640000Y-79664761D01*
X135663809Y-79640952D01*
X135711428Y-79617142D01*
X135759047Y-79617142D01*
X135830476Y-79640952D01*
X136116190Y-79926666D01*
X136116190Y-79617142D01*
%TO.C,D1*%
D12*
X153626095Y-83552380D02*
X153626095Y-82552380D01*
X153864190Y-82552380D01*
X154007047Y-82600000D01*
X154102285Y-82695238D01*
X154149904Y-82790476D01*
X154197523Y-82980952D01*
X154197523Y-83123809D01*
X154149904Y-83314285D01*
X154102285Y-83409523D01*
X154007047Y-83504761D01*
X153864190Y-83552380D01*
X153626095Y-83552380D01*
D14*
X153297523Y-81641904D02*
X153297523Y-80841904D01*
X153488000Y-80841904D01*
X153602285Y-80880000D01*
X153678476Y-80956190D01*
X153716571Y-81032380D01*
X153754666Y-81184761D01*
X153754666Y-81299047D01*
X153716571Y-81451428D01*
X153678476Y-81527619D01*
X153602285Y-81603809D01*
X153488000Y-81641904D01*
X153297523Y-81641904D01*
X154516571Y-81641904D02*
X154059428Y-81641904D01*
X154288000Y-81641904D02*
X154288000Y-80841904D01*
X154211809Y-80956190D01*
X154135619Y-81032380D01*
X154059428Y-81070476D01*
%TO.C,D2*%
D12*
X165002380Y-79311428D02*
X164526190Y-79644761D01*
X165002380Y-79882857D02*
X164002380Y-79882857D01*
X164002380Y-79501904D01*
X164050000Y-79406666D01*
X164097619Y-79359047D01*
X164192857Y-79311428D01*
X164335714Y-79311428D01*
X164430952Y-79359047D01*
X164478571Y-79406666D01*
X164526190Y-79501904D01*
X164526190Y-79882857D01*
X164954761Y-78501904D02*
X165002380Y-78597142D01*
X165002380Y-78787619D01*
X164954761Y-78882857D01*
X164859523Y-78930476D01*
X164478571Y-78930476D01*
X164383333Y-78882857D01*
X164335714Y-78787619D01*
X164335714Y-78597142D01*
X164383333Y-78501904D01*
X164478571Y-78454285D01*
X164573809Y-78454285D01*
X164669047Y-78930476D01*
X165002380Y-77597142D02*
X164002380Y-77597142D01*
X164954761Y-77597142D02*
X165002380Y-77692380D01*
X165002380Y-77882857D01*
X164954761Y-77978095D01*
X164907142Y-78025714D01*
X164811904Y-78073333D01*
X164526190Y-78073333D01*
X164430952Y-78025714D01*
X164383333Y-77978095D01*
X164335714Y-77882857D01*
X164335714Y-77692380D01*
X164383333Y-77597142D01*
D14*
X166731904Y-79330476D02*
X165931904Y-79330476D01*
X165931904Y-79140000D01*
X165970000Y-79025714D01*
X166046190Y-78949523D01*
X166122380Y-78911428D01*
X166274761Y-78873333D01*
X166389047Y-78873333D01*
X166541428Y-78911428D01*
X166617619Y-78949523D01*
X166693809Y-79025714D01*
X166731904Y-79140000D01*
X166731904Y-79330476D01*
X166008095Y-78568571D02*
X165970000Y-78530476D01*
X165931904Y-78454285D01*
X165931904Y-78263809D01*
X165970000Y-78187619D01*
X166008095Y-78149523D01*
X166084285Y-78111428D01*
X166160476Y-78111428D01*
X166274761Y-78149523D01*
X166731904Y-78606666D01*
X166731904Y-78111428D01*
%TO.C,R1*%
D12*
X159922380Y-78430476D02*
X159446190Y-78763809D01*
X159922380Y-79001904D02*
X158922380Y-79001904D01*
X158922380Y-78620952D01*
X158970000Y-78525714D01*
X159017619Y-78478095D01*
X159112857Y-78430476D01*
X159255714Y-78430476D01*
X159350952Y-78478095D01*
X159398571Y-78525714D01*
X159446190Y-78620952D01*
X159446190Y-79001904D01*
D14*
X161651904Y-78873333D02*
X161270952Y-79140000D01*
X161651904Y-79330476D02*
X160851904Y-79330476D01*
X160851904Y-79025714D01*
X160890000Y-78949523D01*
X160928095Y-78911428D01*
X161004285Y-78873333D01*
X161118571Y-78873333D01*
X161194761Y-78911428D01*
X161232857Y-78949523D01*
X161270952Y-79025714D01*
X161270952Y-79330476D01*
X161651904Y-78111428D02*
X161651904Y-78568571D01*
X161651904Y-78340000D02*
X160851904Y-78340000D01*
X160966190Y-78416190D01*
X161042380Y-78492380D01*
X161080476Y-78568571D01*
%TO.C,U1*%
D12*
X138263809Y-83002380D02*
X137787619Y-83002380D01*
X137787619Y-82002380D01*
X138597142Y-83002380D02*
X138597142Y-82002380D01*
X138930476Y-82716666D01*
X139263809Y-82002380D01*
X139263809Y-83002380D01*
X140263809Y-83002380D02*
X139692380Y-83002380D01*
X139978095Y-83002380D02*
X139978095Y-82002380D01*
X139882857Y-82145238D01*
X139787619Y-82240476D01*
X139692380Y-82288095D01*
X141216190Y-83002380D02*
X140644761Y-83002380D01*
X140930476Y-83002380D02*
X140930476Y-82002380D01*
X140835238Y-82145238D01*
X140740000Y-82240476D01*
X140644761Y-82288095D01*
X142168571Y-83002380D02*
X141597142Y-83002380D01*
X141882857Y-83002380D02*
X141882857Y-82002380D01*
X141787619Y-82145238D01*
X141692380Y-82240476D01*
X141597142Y-82288095D01*
X142501904Y-82002380D02*
X143168571Y-82002380D01*
X142740000Y-83002380D01*
X143549523Y-82621428D02*
X144311428Y-82621428D01*
X145263809Y-82002380D02*
X144787619Y-82002380D01*
X144740000Y-82478571D01*
X144787619Y-82430952D01*
X144882857Y-82383333D01*
X145120952Y-82383333D01*
X145216190Y-82430952D01*
X145263809Y-82478571D01*
X145311428Y-82573809D01*
X145311428Y-82811904D01*
X145263809Y-82907142D01*
X145216190Y-82954761D01*
X145120952Y-83002380D01*
X144882857Y-83002380D01*
X144787619Y-82954761D01*
X144740000Y-82907142D01*
X145740000Y-82907142D02*
X145787619Y-82954761D01*
X145740000Y-83002380D01*
X145692380Y-82954761D01*
X145740000Y-82907142D01*
X145740000Y-83002380D01*
X146406666Y-82002380D02*
X146501904Y-82002380D01*
X146597142Y-82050000D01*
X146644761Y-82097619D01*
X146692380Y-82192857D01*
X146740000Y-82383333D01*
X146740000Y-82621428D01*
X146692380Y-82811904D01*
X146644761Y-82907142D01*
X146597142Y-82954761D01*
X146501904Y-83002380D01*
X146406666Y-83002380D01*
X146311428Y-82954761D01*
X146263809Y-82907142D01*
X146216190Y-82811904D01*
X146168571Y-82621428D01*
X146168571Y-82383333D01*
X146216190Y-82192857D01*
X146263809Y-82097619D01*
X146311428Y-82050000D01*
X146406666Y-82002380D01*
D14*
X141630476Y-77031904D02*
X141630476Y-77679523D01*
X141668571Y-77755714D01*
X141706666Y-77793809D01*
X141782857Y-77831904D01*
X141935238Y-77831904D01*
X142011428Y-77793809D01*
X142049523Y-77755714D01*
X142087619Y-77679523D01*
X142087619Y-77031904D01*
X142887619Y-77831904D02*
X142430476Y-77831904D01*
X142659047Y-77831904D02*
X142659047Y-77031904D01*
X142582857Y-77146190D01*
X142506666Y-77222380D01*
X142430476Y-77260476D01*
%TD*%
M02*
