%TF.GenerationSoftware,KiCad,Pcbnew,5.1.6-c6e7f7d~86~ubuntu18.04.1*%
%TF.CreationDate,2020-05-25T18:51:15+02:00*%
%TF.ProjectId,power-supply-5V,706f7765-722d-4737-9570-706c792d3556,1.0*%
%TF.SameCoordinates,PX77e7cd0PY5125ed0*%
%TF.FileFunction,Legend,Top*%
%TF.FilePolarity,Positive*%
%FSLAX46Y46*%
G04 Gerber Fmt 4.6, Leading zero omitted, Abs format (unit mm)*
G04 Created by KiCad (PCBNEW 5.1.6-c6e7f7d~86~ubuntu18.04.1) date 2020-05-25 18:51:15*
%MOMM*%
%LPD*%
G01*
G04 APERTURE LIST*
%TA.AperFunction,Profile*%
%ADD10C,0.050000*%
%TD*%
%ADD11C,0.150000*%
%ADD12C,0.120000*%
%ADD13C,0.200000*%
%ADD14C,1.626000*%
%ADD15R,1.626000X1.626000*%
%ADD16C,1.802000*%
%ADD17C,2.102000*%
%ADD18R,2.102000X2.102000*%
%ADD19R,1.602000X2.102000*%
%ADD20R,3.902000X2.102000*%
G04 APERTURE END LIST*
D10*
X1666666Y0D02*
G75*
G03*
X1666666Y0I-1666666J0D01*
G01*
X-2500000Y0D02*
X2500000Y0D01*
X0Y2500000D02*
X0Y-2500000D01*
D11*
X50871428Y9225596D02*
X50871428Y9987500D01*
X51252380Y9606548D02*
X50490476Y9606548D01*
X50252380Y10939881D02*
X50252380Y10463691D01*
X50728571Y10416072D01*
X50680952Y10463691D01*
X50633333Y10558929D01*
X50633333Y10797024D01*
X50680952Y10892262D01*
X50728571Y10939881D01*
X50823809Y10987500D01*
X51061904Y10987500D01*
X51157142Y10939881D01*
X51204761Y10892262D01*
X51252380Y10797024D01*
X51252380Y10558929D01*
X51204761Y10463691D01*
X51157142Y10416072D01*
X50252380Y11273215D02*
X51252380Y11606548D01*
X50252380Y11939881D01*
X47760000Y9749405D02*
X47712380Y9654167D01*
X47712380Y9511310D01*
X47760000Y9368453D01*
X47855238Y9273215D01*
X47950476Y9225596D01*
X48140952Y9177977D01*
X48283809Y9177977D01*
X48474285Y9225596D01*
X48569523Y9273215D01*
X48664761Y9368453D01*
X48712380Y9511310D01*
X48712380Y9606548D01*
X48664761Y9749405D01*
X48617142Y9797024D01*
X48283809Y9797024D01*
X48283809Y9606548D01*
X48712380Y10225596D02*
X47712380Y10225596D01*
X48712380Y10797024D01*
X47712380Y10797024D01*
X48712380Y11273215D02*
X47712380Y11273215D01*
X47712380Y11511310D01*
X47760000Y11654167D01*
X47855238Y11749405D01*
X47950476Y11797024D01*
X48140952Y11844643D01*
X48283809Y11844643D01*
X48474285Y11797024D01*
X48569523Y11749405D01*
X48664761Y11654167D01*
X48712380Y11511310D01*
X48712380Y11273215D01*
X5151428Y9225596D02*
X5151428Y9987500D01*
X5532380Y9606548D02*
X4770476Y9606548D01*
X4532380Y10939881D02*
X4532380Y10463691D01*
X5008571Y10416072D01*
X4960952Y10463691D01*
X4913333Y10558929D01*
X4913333Y10797024D01*
X4960952Y10892262D01*
X5008571Y10939881D01*
X5103809Y10987500D01*
X5341904Y10987500D01*
X5437142Y10939881D01*
X5484761Y10892262D01*
X5532380Y10797024D01*
X5532380Y10558929D01*
X5484761Y10463691D01*
X5437142Y10416072D01*
X4532380Y11273215D02*
X5532380Y11606548D01*
X4532380Y11939881D01*
X2040000Y9749405D02*
X1992380Y9654167D01*
X1992380Y9511310D01*
X2040000Y9368453D01*
X2135238Y9273215D01*
X2230476Y9225596D01*
X2420952Y9177977D01*
X2563809Y9177977D01*
X2754285Y9225596D01*
X2849523Y9273215D01*
X2944761Y9368453D01*
X2992380Y9511310D01*
X2992380Y9606548D01*
X2944761Y9749405D01*
X2897142Y9797024D01*
X2563809Y9797024D01*
X2563809Y9606548D01*
X2992380Y10225596D02*
X1992380Y10225596D01*
X2992380Y10797024D01*
X1992380Y10797024D01*
X2992380Y11273215D02*
X1992380Y11273215D01*
X1992380Y11511310D01*
X2040000Y11654167D01*
X2135238Y11749405D01*
X2230476Y11797024D01*
X2420952Y11844643D01*
X2563809Y11844643D01*
X2754285Y11797024D01*
X2849523Y11749405D01*
X2944761Y11654167D01*
X2992380Y11511310D01*
X2992380Y11273215D01*
X33355595Y16818572D02*
X34117500Y16818572D01*
X33736547Y16437620D02*
X33736547Y17199524D01*
X35069880Y17437620D02*
X34593690Y17437620D01*
X34546071Y16961429D01*
X34593690Y17009048D01*
X34688928Y17056667D01*
X34927023Y17056667D01*
X35022261Y17009048D01*
X35069880Y16961429D01*
X35117500Y16866191D01*
X35117500Y16628096D01*
X35069880Y16532858D01*
X35022261Y16485239D01*
X34927023Y16437620D01*
X34688928Y16437620D01*
X34593690Y16485239D01*
X34546071Y16532858D01*
X35403214Y17437620D02*
X35736547Y16437620D01*
X36069880Y17437620D01*
X37165119Y17104286D02*
X37165119Y16104286D01*
X37165119Y17056667D02*
X37260357Y17104286D01*
X37450833Y17104286D01*
X37546071Y17056667D01*
X37593690Y17009048D01*
X37641309Y16913810D01*
X37641309Y16628096D01*
X37593690Y16532858D01*
X37546071Y16485239D01*
X37450833Y16437620D01*
X37260357Y16437620D01*
X37165119Y16485239D01*
X38212738Y16437620D02*
X38117500Y16485239D01*
X38069880Y16532858D01*
X38022261Y16628096D01*
X38022261Y16913810D01*
X38069880Y17009048D01*
X38117500Y17056667D01*
X38212738Y17104286D01*
X38355595Y17104286D01*
X38450833Y17056667D01*
X38498452Y17009048D01*
X38546071Y16913810D01*
X38546071Y16628096D01*
X38498452Y16532858D01*
X38450833Y16485239D01*
X38355595Y16437620D01*
X38212738Y16437620D01*
X38879404Y17104286D02*
X39069880Y16437620D01*
X39260357Y16913810D01*
X39450833Y16437620D01*
X39641309Y17104286D01*
X40403214Y16485239D02*
X40307976Y16437620D01*
X40117500Y16437620D01*
X40022261Y16485239D01*
X39974642Y16580477D01*
X39974642Y16961429D01*
X40022261Y17056667D01*
X40117500Y17104286D01*
X40307976Y17104286D01*
X40403214Y17056667D01*
X40450833Y16961429D01*
X40450833Y16866191D01*
X39974642Y16770953D01*
X40879404Y16437620D02*
X40879404Y17104286D01*
X40879404Y16913810D02*
X40927023Y17009048D01*
X40974642Y17056667D01*
X41069880Y17104286D01*
X41165119Y17104286D01*
X42212738Y16485239D02*
X42307976Y16437620D01*
X42498452Y16437620D01*
X42593690Y16485239D01*
X42641309Y16580477D01*
X42641309Y16628096D01*
X42593690Y16723334D01*
X42498452Y16770953D01*
X42355595Y16770953D01*
X42260357Y16818572D01*
X42212738Y16913810D01*
X42212738Y16961429D01*
X42260357Y17056667D01*
X42355595Y17104286D01*
X42498452Y17104286D01*
X42593690Y17056667D01*
X43498452Y17104286D02*
X43498452Y16437620D01*
X43069880Y17104286D02*
X43069880Y16580477D01*
X43117500Y16485239D01*
X43212738Y16437620D01*
X43355595Y16437620D01*
X43450833Y16485239D01*
X43498452Y16532858D01*
X43974642Y17104286D02*
X43974642Y16104286D01*
X43974642Y17056667D02*
X44069880Y17104286D01*
X44260357Y17104286D01*
X44355595Y17056667D01*
X44403214Y17009048D01*
X44450833Y16913810D01*
X44450833Y16628096D01*
X44403214Y16532858D01*
X44355595Y16485239D01*
X44260357Y16437620D01*
X44069880Y16437620D01*
X43974642Y16485239D01*
X44879404Y17104286D02*
X44879404Y16104286D01*
X44879404Y17056667D02*
X44974642Y17104286D01*
X45165119Y17104286D01*
X45260357Y17056667D01*
X45307976Y17009048D01*
X45355595Y16913810D01*
X45355595Y16628096D01*
X45307976Y16532858D01*
X45260357Y16485239D01*
X45165119Y16437620D01*
X44974642Y16437620D01*
X44879404Y16485239D01*
X45927023Y16437620D02*
X45831785Y16485239D01*
X45784166Y16580477D01*
X45784166Y17437620D01*
X46212738Y17104286D02*
X46450833Y16437620D01*
X46688928Y17104286D02*
X46450833Y16437620D01*
X46355595Y16199524D01*
X46307976Y16151905D01*
X46212738Y16104286D01*
X33355595Y15168572D02*
X34117500Y15168572D01*
X33736547Y14787620D02*
X33736547Y15549524D01*
X34736547Y15359048D02*
X34641309Y15406667D01*
X34593690Y15454286D01*
X34546071Y15549524D01*
X34546071Y15597143D01*
X34593690Y15692381D01*
X34641309Y15740000D01*
X34736547Y15787620D01*
X34927023Y15787620D01*
X35022261Y15740000D01*
X35069880Y15692381D01*
X35117500Y15597143D01*
X35117500Y15549524D01*
X35069880Y15454286D01*
X35022261Y15406667D01*
X34927023Y15359048D01*
X34736547Y15359048D01*
X34641309Y15311429D01*
X34593690Y15263810D01*
X34546071Y15168572D01*
X34546071Y14978096D01*
X34593690Y14882858D01*
X34641309Y14835239D01*
X34736547Y14787620D01*
X34927023Y14787620D01*
X35022261Y14835239D01*
X35069880Y14882858D01*
X35117500Y14978096D01*
X35117500Y15168572D01*
X35069880Y15263810D01*
X35022261Y15311429D01*
X34927023Y15359048D01*
X36307976Y14882858D02*
X36355595Y14835239D01*
X36307976Y14787620D01*
X36260357Y14835239D01*
X36307976Y14882858D01*
X36307976Y14787620D01*
X36784166Y14882858D02*
X36831785Y14835239D01*
X36784166Y14787620D01*
X36736547Y14835239D01*
X36784166Y14882858D01*
X36784166Y14787620D01*
X37260357Y14882858D02*
X37307976Y14835239D01*
X37260357Y14787620D01*
X37212738Y14835239D01*
X37260357Y14882858D01*
X37260357Y14787620D01*
X39022261Y14787620D02*
X38450833Y14787620D01*
X38736547Y14787620D02*
X38736547Y15787620D01*
X38641309Y15644762D01*
X38546071Y15549524D01*
X38450833Y15501905D01*
X39403214Y15692381D02*
X39450833Y15740000D01*
X39546071Y15787620D01*
X39784166Y15787620D01*
X39879404Y15740000D01*
X39927023Y15692381D01*
X39974642Y15597143D01*
X39974642Y15501905D01*
X39927023Y15359048D01*
X39355595Y14787620D01*
X39974642Y14787620D01*
X40260357Y15787620D02*
X40593690Y14787620D01*
X40927023Y15787620D01*
X42022261Y14787620D02*
X42022261Y15787620D01*
X42260357Y15787620D01*
X42403214Y15740000D01*
X42498452Y15644762D01*
X42546071Y15549524D01*
X42593690Y15359048D01*
X42593690Y15216191D01*
X42546071Y15025715D01*
X42498452Y14930477D01*
X42403214Y14835239D01*
X42260357Y14787620D01*
X42022261Y14787620D01*
X43593690Y14882858D02*
X43546071Y14835239D01*
X43403214Y14787620D01*
X43307976Y14787620D01*
X43165119Y14835239D01*
X43069880Y14930477D01*
X43022261Y15025715D01*
X42974642Y15216191D01*
X42974642Y15359048D01*
X43022261Y15549524D01*
X43069880Y15644762D01*
X43165119Y15740000D01*
X43307976Y15787620D01*
X43403214Y15787620D01*
X43546071Y15740000D01*
X43593690Y15692381D01*
X44784166Y14787620D02*
X44784166Y15454286D01*
X44784166Y15787620D02*
X44736547Y15740000D01*
X44784166Y15692381D01*
X44831785Y15740000D01*
X44784166Y15787620D01*
X44784166Y15692381D01*
X45260357Y15454286D02*
X45260357Y14787620D01*
X45260357Y15359048D02*
X45307976Y15406667D01*
X45403214Y15454286D01*
X45546071Y15454286D01*
X45641309Y15406667D01*
X45688928Y15311429D01*
X45688928Y14787620D01*
X46165119Y15454286D02*
X46165119Y14454286D01*
X46165119Y15406667D02*
X46260357Y15454286D01*
X46450833Y15454286D01*
X46546071Y15406667D01*
X46593690Y15359048D01*
X46641309Y15263810D01*
X46641309Y14978096D01*
X46593690Y14882858D01*
X46546071Y14835239D01*
X46450833Y14787620D01*
X46260357Y14787620D01*
X46165119Y14835239D01*
X47498452Y15454286D02*
X47498452Y14787620D01*
X47069880Y15454286D02*
X47069880Y14930477D01*
X47117500Y14835239D01*
X47212738Y14787620D01*
X47355595Y14787620D01*
X47450833Y14835239D01*
X47498452Y14882858D01*
X47831785Y15454286D02*
X48212738Y15454286D01*
X47974642Y15787620D02*
X47974642Y14930477D01*
X48022261Y14835239D01*
X48117500Y14787620D01*
X48212738Y14787620D01*
X33212738Y13804286D02*
X33593690Y13804286D01*
X33355595Y13137620D02*
X33355595Y13994762D01*
X33403214Y14090000D01*
X33498452Y14137620D01*
X33593690Y14137620D01*
X34069880Y13137620D02*
X33974642Y13185239D01*
X33927023Y13232858D01*
X33879404Y13328096D01*
X33879404Y13613810D01*
X33927023Y13709048D01*
X33974642Y13756667D01*
X34069880Y13804286D01*
X34212738Y13804286D01*
X34307976Y13756667D01*
X34355595Y13709048D01*
X34403214Y13613810D01*
X34403214Y13328096D01*
X34355595Y13232858D01*
X34307976Y13185239D01*
X34212738Y13137620D01*
X34069880Y13137620D01*
X34831785Y13137620D02*
X34831785Y13804286D01*
X34831785Y13613810D02*
X34879404Y13709048D01*
X34927023Y13756667D01*
X35022261Y13804286D01*
X35117500Y13804286D01*
X36641309Y13185239D02*
X36546071Y13137620D01*
X36355595Y13137620D01*
X36260357Y13185239D01*
X36212738Y13232858D01*
X36165119Y13328096D01*
X36165119Y13613810D01*
X36212738Y13709048D01*
X36260357Y13756667D01*
X36355595Y13804286D01*
X36546071Y13804286D01*
X36641309Y13756667D01*
X37212738Y13137620D02*
X37117500Y13185239D01*
X37069880Y13232858D01*
X37022261Y13328096D01*
X37022261Y13613810D01*
X37069880Y13709048D01*
X37117500Y13756667D01*
X37212738Y13804286D01*
X37355595Y13804286D01*
X37450833Y13756667D01*
X37498452Y13709048D01*
X37546071Y13613810D01*
X37546071Y13328096D01*
X37498452Y13232858D01*
X37450833Y13185239D01*
X37355595Y13137620D01*
X37212738Y13137620D01*
X37974642Y13804286D02*
X37974642Y13137620D01*
X37974642Y13709048D02*
X38022261Y13756667D01*
X38117500Y13804286D01*
X38260357Y13804286D01*
X38355595Y13756667D01*
X38403214Y13661429D01*
X38403214Y13137620D01*
X38736547Y13804286D02*
X39117500Y13804286D01*
X38879404Y14137620D02*
X38879404Y13280477D01*
X38927023Y13185239D01*
X39022261Y13137620D01*
X39117500Y13137620D01*
X39879404Y13137620D02*
X39879404Y13661429D01*
X39831785Y13756667D01*
X39736547Y13804286D01*
X39546071Y13804286D01*
X39450833Y13756667D01*
X39879404Y13185239D02*
X39784166Y13137620D01*
X39546071Y13137620D01*
X39450833Y13185239D01*
X39403214Y13280477D01*
X39403214Y13375715D01*
X39450833Y13470953D01*
X39546071Y13518572D01*
X39784166Y13518572D01*
X39879404Y13566191D01*
X40784166Y13185239D02*
X40688928Y13137620D01*
X40498452Y13137620D01*
X40403214Y13185239D01*
X40355595Y13232858D01*
X40307976Y13328096D01*
X40307976Y13613810D01*
X40355595Y13709048D01*
X40403214Y13756667D01*
X40498452Y13804286D01*
X40688928Y13804286D01*
X40784166Y13756667D01*
X41069880Y13804286D02*
X41450833Y13804286D01*
X41212738Y14137620D02*
X41212738Y13280477D01*
X41260357Y13185239D01*
X41355595Y13137620D01*
X41450833Y13137620D01*
X42546071Y13804286D02*
X42546071Y12804286D01*
X42546071Y13756667D02*
X42641309Y13804286D01*
X42831785Y13804286D01*
X42927023Y13756667D01*
X42974642Y13709048D01*
X43022261Y13613810D01*
X43022261Y13328096D01*
X42974642Y13232858D01*
X42927023Y13185239D01*
X42831785Y13137620D01*
X42641309Y13137620D01*
X42546071Y13185239D01*
X43593690Y13137620D02*
X43498452Y13185239D01*
X43450833Y13280477D01*
X43450833Y14137620D01*
X44403214Y13137620D02*
X44403214Y13661429D01*
X44355595Y13756667D01*
X44260357Y13804286D01*
X44069880Y13804286D01*
X43974642Y13756667D01*
X44403214Y13185239D02*
X44307976Y13137620D01*
X44069880Y13137620D01*
X43974642Y13185239D01*
X43927023Y13280477D01*
X43927023Y13375715D01*
X43974642Y13470953D01*
X44069880Y13518572D01*
X44307976Y13518572D01*
X44403214Y13566191D01*
X44736547Y13804286D02*
X45117500Y13804286D01*
X44879404Y14137620D02*
X44879404Y13280477D01*
X44927023Y13185239D01*
X45022261Y13137620D01*
X45117500Y13137620D01*
X45831785Y13185239D02*
X45736547Y13137620D01*
X45546071Y13137620D01*
X45450833Y13185239D01*
X45403214Y13280477D01*
X45403214Y13661429D01*
X45450833Y13756667D01*
X45546071Y13804286D01*
X45736547Y13804286D01*
X45831785Y13756667D01*
X45879404Y13661429D01*
X45879404Y13566191D01*
X45403214Y13470953D01*
X46260357Y13185239D02*
X46355595Y13137620D01*
X46546071Y13137620D01*
X46641309Y13185239D01*
X46688928Y13280477D01*
X46688928Y13328096D01*
X46641309Y13423334D01*
X46546071Y13470953D01*
X46403214Y13470953D01*
X46307976Y13518572D01*
X46260357Y13613810D01*
X46260357Y13661429D01*
X46307976Y13756667D01*
X46403214Y13804286D01*
X46546071Y13804286D01*
X46641309Y13756667D01*
D10*
X0Y0D02*
X0Y20320000D01*
X53340000Y0D02*
X0Y0D01*
X53340000Y20320000D02*
X53340000Y0D01*
X0Y20320000D02*
X53340000Y20320000D01*
D12*
%TO.C,J3*%
X1270000Y8890000D02*
X6350000Y8890000D01*
X6350000Y8890000D02*
X6350000Y1270000D01*
X6350000Y1270000D02*
X1270000Y1270000D01*
X1270000Y1270000D02*
X1270000Y8890000D01*
%TO.C,J2*%
X46990000Y8890000D02*
X52070000Y8890000D01*
X52070000Y8890000D02*
X52070000Y1270000D01*
X52070000Y1270000D02*
X46990000Y1270000D01*
X46990000Y1270000D02*
X46990000Y8890000D01*
%TO.C,J1*%
X22860000Y20320000D02*
X30480000Y20320000D01*
X22860000Y12700000D02*
X30480000Y12700000D01*
X22860000Y20320000D02*
X22860000Y7620000D01*
X22860000Y7620000D02*
X30480000Y7620000D01*
X30480000Y7620000D02*
X30480000Y20320000D01*
X26670000Y7620000D02*
X26670000Y12700000D01*
%TO.C,C1*%
X23570000Y5341252D02*
X23570000Y4818748D01*
X22150000Y5341252D02*
X22150000Y4818748D01*
%TO.C,C2*%
X9450000Y4818748D02*
X9450000Y5341252D01*
X10870000Y4818748D02*
X10870000Y5341252D01*
%TO.C,D1*%
X29758000Y4945000D02*
X25698000Y4945000D01*
X25698000Y4945000D02*
X25698000Y2675000D01*
X25698000Y2675000D02*
X29758000Y2675000D01*
%TO.C,D2*%
X41775000Y4750000D02*
X41775000Y8810000D01*
X41775000Y8810000D02*
X39505000Y8810000D01*
X39505000Y8810000D02*
X39505000Y4750000D01*
%TO.C,R1*%
X36470000Y6952064D02*
X36470000Y5747936D01*
X34650000Y6952064D02*
X34650000Y5747936D01*
%TO.C,U1*%
X19920000Y9530000D02*
X18660000Y9530000D01*
X13100000Y9530000D02*
X14360000Y9530000D01*
X19920000Y5770000D02*
X19920000Y9530000D01*
X13100000Y3520000D02*
X13100000Y9530000D01*
%TD*%
%TO.C,J3*%
D11*
X3476666Y4357620D02*
X3476666Y3643334D01*
X3429047Y3500477D01*
X3333809Y3405239D01*
X3190952Y3357620D01*
X3095714Y3357620D01*
X3857619Y4357620D02*
X4476666Y4357620D01*
X4143333Y3976667D01*
X4286190Y3976667D01*
X4381428Y3929048D01*
X4429047Y3881429D01*
X4476666Y3786191D01*
X4476666Y3548096D01*
X4429047Y3452858D01*
X4381428Y3405239D01*
X4286190Y3357620D01*
X4000476Y3357620D01*
X3905238Y3405239D01*
X3857619Y3452858D01*
%TO.C,J2*%
X49196666Y4357620D02*
X49196666Y3643334D01*
X49149047Y3500477D01*
X49053809Y3405239D01*
X48910952Y3357620D01*
X48815714Y3357620D01*
X49625238Y4262381D02*
X49672857Y4310000D01*
X49768095Y4357620D01*
X50006190Y4357620D01*
X50101428Y4310000D01*
X50149047Y4262381D01*
X50196666Y4167143D01*
X50196666Y4071905D01*
X50149047Y3929048D01*
X49577619Y3357620D01*
X50196666Y3357620D01*
%TO.C,J1*%
X26122380Y16176667D02*
X26836666Y16176667D01*
X26979523Y16129048D01*
X27074761Y16033810D01*
X27122380Y15890953D01*
X27122380Y15795715D01*
X27122380Y17176667D02*
X27122380Y16605239D01*
X27122380Y16890953D02*
X26122380Y16890953D01*
X26265238Y16795715D01*
X26360476Y16700477D01*
X26408095Y16605239D01*
D13*
X23308571Y9141429D02*
X24808571Y9641429D01*
X23308571Y10141429D01*
X24808571Y10641429D02*
X23308571Y10641429D01*
X24808571Y11355715D02*
X23308571Y11355715D01*
X24808571Y12212858D01*
X23308571Y12212858D01*
X28460000Y9141429D02*
X28388571Y8998572D01*
X28388571Y8784286D01*
X28460000Y8570000D01*
X28602857Y8427143D01*
X28745714Y8355715D01*
X29031428Y8284286D01*
X29245714Y8284286D01*
X29531428Y8355715D01*
X29674285Y8427143D01*
X29817142Y8570000D01*
X29888571Y8784286D01*
X29888571Y8927143D01*
X29817142Y9141429D01*
X29745714Y9212858D01*
X29245714Y9212858D01*
X29245714Y8927143D01*
X29888571Y9855715D02*
X28388571Y9855715D01*
X29888571Y10712858D01*
X28388571Y10712858D01*
X29888571Y11427143D02*
X28388571Y11427143D01*
X28388571Y11784286D01*
X28460000Y11998572D01*
X28602857Y12141429D01*
X28745714Y12212858D01*
X29031428Y12284286D01*
X29245714Y12284286D01*
X29531428Y12212858D01*
X29674285Y12141429D01*
X29817142Y11998572D01*
X29888571Y11784286D01*
X29888571Y11427143D01*
%TO.C,C1*%
D11*
X24867142Y4913334D02*
X24914761Y4865715D01*
X24962380Y4722858D01*
X24962380Y4627620D01*
X24914761Y4484762D01*
X24819523Y4389524D01*
X24724285Y4341905D01*
X24533809Y4294286D01*
X24390952Y4294286D01*
X24200476Y4341905D01*
X24105238Y4389524D01*
X24010000Y4484762D01*
X23962380Y4627620D01*
X23962380Y4722858D01*
X24010000Y4865715D01*
X24057619Y4913334D01*
X24962380Y5865715D02*
X24962380Y5294286D01*
X24962380Y5580000D02*
X23962380Y5580000D01*
X24105238Y5484762D01*
X24200476Y5389524D01*
X24248095Y5294286D01*
%TO.C,C2*%
X8867142Y4913334D02*
X8914761Y4865715D01*
X8962380Y4722858D01*
X8962380Y4627620D01*
X8914761Y4484762D01*
X8819523Y4389524D01*
X8724285Y4341905D01*
X8533809Y4294286D01*
X8390952Y4294286D01*
X8200476Y4341905D01*
X8105238Y4389524D01*
X8010000Y4484762D01*
X7962380Y4627620D01*
X7962380Y4722858D01*
X8010000Y4865715D01*
X8057619Y4913334D01*
X8057619Y5294286D02*
X8010000Y5341905D01*
X7962380Y5437143D01*
X7962380Y5675239D01*
X8010000Y5770477D01*
X8057619Y5818096D01*
X8152857Y5865715D01*
X8248095Y5865715D01*
X8390952Y5818096D01*
X8962380Y5246667D01*
X8962380Y5865715D01*
%TO.C,D1*%
X27419904Y5177620D02*
X27419904Y6177620D01*
X27658000Y6177620D01*
X27800857Y6130000D01*
X27896095Y6034762D01*
X27943714Y5939524D01*
X27991333Y5749048D01*
X27991333Y5606191D01*
X27943714Y5415715D01*
X27896095Y5320477D01*
X27800857Y5225239D01*
X27658000Y5177620D01*
X27419904Y5177620D01*
X28943714Y5177620D02*
X28372285Y5177620D01*
X28658000Y5177620D02*
X28658000Y6177620D01*
X28562761Y6034762D01*
X28467523Y5939524D01*
X28372285Y5891905D01*
%TO.C,D2*%
X42912380Y5611905D02*
X41912380Y5611905D01*
X41912380Y5850000D01*
X41960000Y5992858D01*
X42055238Y6088096D01*
X42150476Y6135715D01*
X42340952Y6183334D01*
X42483809Y6183334D01*
X42674285Y6135715D01*
X42769523Y6088096D01*
X42864761Y5992858D01*
X42912380Y5850000D01*
X42912380Y5611905D01*
X42007619Y6564286D02*
X41960000Y6611905D01*
X41912380Y6707143D01*
X41912380Y6945239D01*
X41960000Y7040477D01*
X42007619Y7088096D01*
X42102857Y7135715D01*
X42198095Y7135715D01*
X42340952Y7088096D01*
X42912380Y6516667D01*
X42912380Y7135715D01*
%TO.C,R1*%
X37832380Y6183334D02*
X37356190Y5850000D01*
X37832380Y5611905D02*
X36832380Y5611905D01*
X36832380Y5992858D01*
X36880000Y6088096D01*
X36927619Y6135715D01*
X37022857Y6183334D01*
X37165714Y6183334D01*
X37260952Y6135715D01*
X37308571Y6088096D01*
X37356190Y5992858D01*
X37356190Y5611905D01*
X37832380Y7135715D02*
X37832380Y6564286D01*
X37832380Y6850000D02*
X36832380Y6850000D01*
X36975238Y6754762D01*
X37070476Y6659524D01*
X37118095Y6564286D01*
%TO.C,U1*%
X11462380Y6858096D02*
X12271904Y6858096D01*
X12367142Y6905715D01*
X12414761Y6953334D01*
X12462380Y7048572D01*
X12462380Y7239048D01*
X12414761Y7334286D01*
X12367142Y7381905D01*
X12271904Y7429524D01*
X11462380Y7429524D01*
X12462380Y8429524D02*
X12462380Y7858096D01*
X12462380Y8143810D02*
X11462380Y8143810D01*
X11605238Y8048572D01*
X11700476Y7953334D01*
X11748095Y7858096D01*
%TD*%
%LPC*%
D14*
%TO.C,J3*%
X5080000Y2540000D03*
X5080000Y7620000D03*
D15*
X5080000Y5080000D03*
D14*
X2540000Y2540000D03*
X2540000Y7620000D03*
D15*
X2540000Y5080000D03*
%TD*%
D14*
%TO.C,J2*%
X50800000Y2540000D03*
X50800000Y7620000D03*
D15*
X50800000Y5080000D03*
D14*
X48260000Y2540000D03*
X48260000Y7620000D03*
D15*
X48260000Y5080000D03*
%TD*%
D16*
%TO.C,J1*%
X29210000Y19050000D03*
X24130000Y19050000D03*
D17*
X24130000Y13970000D03*
D18*
X29210000Y13970000D03*
%TD*%
%TO.C,C1*%
G36*
G01*
X22381173Y4681000D02*
X23338827Y4681000D01*
G75*
G02*
X23611000Y4408827I0J-272173D01*
G01*
X23611000Y3701173D01*
G75*
G02*
X23338827Y3429000I-272173J0D01*
G01*
X22381173Y3429000D01*
G75*
G02*
X22109000Y3701173I0J272173D01*
G01*
X22109000Y4408827D01*
G75*
G02*
X22381173Y4681000I272173J0D01*
G01*
G37*
G36*
G01*
X22381173Y6731000D02*
X23338827Y6731000D01*
G75*
G02*
X23611000Y6458827I0J-272173D01*
G01*
X23611000Y5751173D01*
G75*
G02*
X23338827Y5479000I-272173J0D01*
G01*
X22381173Y5479000D01*
G75*
G02*
X22109000Y5751173I0J272173D01*
G01*
X22109000Y6458827D01*
G75*
G02*
X22381173Y6731000I272173J0D01*
G01*
G37*
%TD*%
%TO.C,C2*%
G36*
G01*
X10638827Y5479000D02*
X9681173Y5479000D01*
G75*
G02*
X9409000Y5751173I0J272173D01*
G01*
X9409000Y6458827D01*
G75*
G02*
X9681173Y6731000I272173J0D01*
G01*
X10638827Y6731000D01*
G75*
G02*
X10911000Y6458827I0J-272173D01*
G01*
X10911000Y5751173D01*
G75*
G02*
X10638827Y5479000I-272173J0D01*
G01*
G37*
G36*
G01*
X10638827Y3429000D02*
X9681173Y3429000D01*
G75*
G02*
X9409000Y3701173I0J272173D01*
G01*
X9409000Y4408827D01*
G75*
G02*
X9681173Y4681000I272173J0D01*
G01*
X10638827Y4681000D01*
G75*
G02*
X10911000Y4408827I0J-272173D01*
G01*
X10911000Y3701173D01*
G75*
G02*
X10638827Y3429000I-272173J0D01*
G01*
G37*
%TD*%
%TO.C,D1*%
G36*
G01*
X28882000Y3151895D02*
X28882000Y4468105D01*
G75*
G02*
X29149895Y4736000I267895J0D01*
G01*
X30141105Y4736000D01*
G75*
G02*
X30409000Y4468105I0J-267895D01*
G01*
X30409000Y3151895D01*
G75*
G02*
X30141105Y2884000I-267895J0D01*
G01*
X29149895Y2884000D01*
G75*
G02*
X28882000Y3151895I0J267895D01*
G01*
G37*
G36*
G01*
X25907000Y3151895D02*
X25907000Y4468105D01*
G75*
G02*
X26174895Y4736000I267895J0D01*
G01*
X27166105Y4736000D01*
G75*
G02*
X27434000Y4468105I0J-267895D01*
G01*
X27434000Y3151895D01*
G75*
G02*
X27166105Y2884000I-267895J0D01*
G01*
X26174895Y2884000D01*
G75*
G02*
X25907000Y3151895I0J267895D01*
G01*
G37*
%TD*%
%TO.C,D2*%
G36*
G01*
X39981895Y5626000D02*
X41298105Y5626000D01*
G75*
G02*
X41566000Y5358105I0J-267895D01*
G01*
X41566000Y4366895D01*
G75*
G02*
X41298105Y4099000I-267895J0D01*
G01*
X39981895Y4099000D01*
G75*
G02*
X39714000Y4366895I0J267895D01*
G01*
X39714000Y5358105D01*
G75*
G02*
X39981895Y5626000I267895J0D01*
G01*
G37*
G36*
G01*
X39981895Y8601000D02*
X41298105Y8601000D01*
G75*
G02*
X41566000Y8333105I0J-267895D01*
G01*
X41566000Y7341895D01*
G75*
G02*
X41298105Y7074000I-267895J0D01*
G01*
X39981895Y7074000D01*
G75*
G02*
X39714000Y7341895I0J267895D01*
G01*
X39714000Y8333105D01*
G75*
G02*
X39981895Y8601000I267895J0D01*
G01*
G37*
%TD*%
%TO.C,R1*%
G36*
G01*
X34901895Y5626000D02*
X36218105Y5626000D01*
G75*
G02*
X36486000Y5358105I0J-267895D01*
G01*
X36486000Y4366895D01*
G75*
G02*
X36218105Y4099000I-267895J0D01*
G01*
X34901895Y4099000D01*
G75*
G02*
X34634000Y4366895I0J267895D01*
G01*
X34634000Y5358105D01*
G75*
G02*
X34901895Y5626000I267895J0D01*
G01*
G37*
G36*
G01*
X34901895Y8601000D02*
X36218105Y8601000D01*
G75*
G02*
X36486000Y8333105I0J-267895D01*
G01*
X36486000Y7341895D01*
G75*
G02*
X36218105Y7074000I-267895J0D01*
G01*
X34901895Y7074000D01*
G75*
G02*
X34634000Y7341895I0J267895D01*
G01*
X34634000Y8333105D01*
G75*
G02*
X34901895Y8601000I267895J0D01*
G01*
G37*
%TD*%
D19*
%TO.C,U1*%
X14210000Y4470000D03*
X18810000Y4470000D03*
X16510000Y4470000D03*
D20*
X16510000Y10770000D03*
%TD*%
M02*
