%TF.GenerationSoftware,KiCad,Pcbnew,5.1.5-1.fc31*%
%TF.CreationDate,2020-02-01T15:27:32+01:00*%
%TF.ProjectId,power-supply-5V,706f7765-722d-4737-9570-706c792d3556,1.0*%
%TF.SameCoordinates,Original*%
%TF.FileFunction,Copper,L1,Top*%
%TF.FilePolarity,Positive*%
%FSLAX46Y46*%
G04 Gerber Fmt 4.6, Leading zero omitted, Abs format (unit mm)*
G04 Created by KiCad (PCBNEW 5.1.5-1.fc31) date 2020-02-01 15:27:32*
%MOMM*%
%LPD*%
G04 APERTURE LIST*
%TA.AperFunction,Profile*%
%ADD10C,0.050000*%
%TD*%
%TA.AperFunction,EtchedComponent*%
%ADD11C,0.010000*%
%TD*%
%TA.AperFunction,ComponentPad*%
%ADD12C,1.524000*%
%TD*%
%TA.AperFunction,ComponentPad*%
%ADD13R,1.524000X1.524000*%
%TD*%
%TA.AperFunction,WasherPad*%
%ADD14C,1.700000*%
%TD*%
%TA.AperFunction,ComponentPad*%
%ADD15C,2.000000*%
%TD*%
%TA.AperFunction,ComponentPad*%
%ADD16R,2.000000X2.000000*%
%TD*%
%TA.AperFunction,SMDPad,CuDef*%
%ADD17C,0.150000*%
%TD*%
%TA.AperFunction,SMDPad,CuDef*%
%ADD18R,1.500000X2.000000*%
%TD*%
%TA.AperFunction,SMDPad,CuDef*%
%ADD19R,3.800000X2.000000*%
%TD*%
%TA.AperFunction,Conductor*%
%ADD20C,0.500000*%
%TD*%
%TA.AperFunction,Conductor*%
%ADD21C,0.800000*%
%TD*%
%TA.AperFunction,Conductor*%
%ADD22C,0.254000*%
%TD*%
G04 APERTURE END LIST*
D10*
X127396666Y-85090000D02*
G75*
G03X127396666Y-85090000I-1666666J0D01*
G01*
X123230000Y-85090000D02*
X128230000Y-85090000D01*
X125730000Y-82590000D02*
X125730000Y-87590000D01*
X125730000Y-85090000D02*
X125730000Y-64770000D01*
X179070000Y-85090000D02*
X125730000Y-85090000D01*
X179070000Y-64770000D02*
X179070000Y-85090000D01*
X125730000Y-64770000D02*
X179070000Y-64770000D01*
D11*
%TO.C,G\002A\002A\002A*%
G36*
X137920108Y-66823176D02*
G01*
X138639020Y-66823206D01*
X139317872Y-66823261D01*
X139957800Y-66823346D01*
X140559943Y-66823463D01*
X141125436Y-66823618D01*
X141655416Y-66823813D01*
X142151019Y-66824053D01*
X142613384Y-66824342D01*
X143043646Y-66824684D01*
X143442942Y-66825083D01*
X143812409Y-66825543D01*
X144153184Y-66826067D01*
X144466403Y-66826660D01*
X144753204Y-66827325D01*
X145014722Y-66828067D01*
X145252095Y-66828890D01*
X145466459Y-66829797D01*
X145658951Y-66830793D01*
X145830709Y-66831882D01*
X145982868Y-66833066D01*
X146116565Y-66834352D01*
X146232938Y-66835741D01*
X146333123Y-66837239D01*
X146418256Y-66838849D01*
X146489474Y-66840576D01*
X146547915Y-66842423D01*
X146594715Y-66844394D01*
X146631010Y-66846493D01*
X146657938Y-66848724D01*
X146676635Y-66851092D01*
X146688238Y-66853599D01*
X146693883Y-66856251D01*
X146694071Y-66856428D01*
X146698735Y-66864092D01*
X146702946Y-66878652D01*
X146706728Y-66902152D01*
X146710103Y-66936638D01*
X146713094Y-66984155D01*
X146715724Y-67046746D01*
X146718015Y-67126457D01*
X146719990Y-67225333D01*
X146721671Y-67345417D01*
X146723082Y-67488755D01*
X146724244Y-67657391D01*
X146725180Y-67853371D01*
X146725914Y-68078738D01*
X146726467Y-68335537D01*
X146726863Y-68625813D01*
X146727123Y-68951611D01*
X146727271Y-69314976D01*
X146727330Y-69717951D01*
X146727333Y-69860583D01*
X146727300Y-70277136D01*
X146727184Y-70653401D01*
X146726963Y-70991422D01*
X146726615Y-71293243D01*
X146726116Y-71560910D01*
X146725445Y-71796467D01*
X146724578Y-72001958D01*
X146723493Y-72179430D01*
X146722167Y-72330925D01*
X146720578Y-72458489D01*
X146718703Y-72564166D01*
X146716520Y-72650001D01*
X146714005Y-72718040D01*
X146711136Y-72770325D01*
X146707890Y-72808903D01*
X146704246Y-72835818D01*
X146700179Y-72853114D01*
X146695668Y-72862836D01*
X146694071Y-72864738D01*
X146688774Y-72867399D01*
X146677593Y-72869916D01*
X146659392Y-72872292D01*
X146633035Y-72874532D01*
X146597383Y-72876640D01*
X146551301Y-72878619D01*
X146493653Y-72880474D01*
X146423300Y-72882208D01*
X146339106Y-72883826D01*
X146239935Y-72885331D01*
X146124650Y-72886728D01*
X145992115Y-72888019D01*
X145841191Y-72889211D01*
X145670743Y-72890305D01*
X145479634Y-72891307D01*
X145266727Y-72892220D01*
X145030886Y-72893048D01*
X144770973Y-72893795D01*
X144485852Y-72894466D01*
X144174386Y-72895063D01*
X143835438Y-72895592D01*
X143467872Y-72896055D01*
X143070551Y-72896458D01*
X142642338Y-72896803D01*
X142182097Y-72897096D01*
X141688690Y-72897339D01*
X141160980Y-72897537D01*
X140597832Y-72897694D01*
X139998109Y-72897814D01*
X139360673Y-72897900D01*
X138684388Y-72897957D01*
X137968116Y-72897989D01*
X137210723Y-72898000D01*
X137160000Y-72898000D01*
X136399892Y-72897991D01*
X135680980Y-72897960D01*
X135002128Y-72897905D01*
X134362199Y-72897820D01*
X133760057Y-72897703D01*
X133194564Y-72897549D01*
X132664584Y-72897353D01*
X132168980Y-72897113D01*
X131706616Y-72896824D01*
X131276354Y-72896482D01*
X130877057Y-72896083D01*
X130507590Y-72895624D01*
X130166816Y-72895100D01*
X129853596Y-72894507D01*
X129566796Y-72893841D01*
X129305278Y-72893099D01*
X129067905Y-72892276D01*
X128853541Y-72891369D01*
X128661048Y-72890373D01*
X128489291Y-72889285D01*
X128337132Y-72888100D01*
X128203434Y-72886815D01*
X128087062Y-72885425D01*
X127986877Y-72883927D01*
X127901744Y-72882317D01*
X127830525Y-72880590D01*
X127772084Y-72878744D01*
X127725285Y-72876773D01*
X127688989Y-72874673D01*
X127662062Y-72872442D01*
X127643365Y-72870075D01*
X127631762Y-72867567D01*
X127626116Y-72864916D01*
X127625928Y-72864738D01*
X127621265Y-72857074D01*
X127617054Y-72842515D01*
X127613272Y-72819014D01*
X127609896Y-72784528D01*
X127606905Y-72737011D01*
X127604276Y-72674420D01*
X127601985Y-72594709D01*
X127600010Y-72495834D01*
X127598328Y-72375749D01*
X127596918Y-72232411D01*
X127595756Y-72063775D01*
X127594819Y-71867796D01*
X127594086Y-71642429D01*
X127593532Y-71385629D01*
X127593168Y-71118100D01*
X127829274Y-71118100D01*
X127829332Y-71396409D01*
X127829543Y-71653158D01*
X127829902Y-71885840D01*
X127830404Y-72091946D01*
X127831046Y-72268971D01*
X127831823Y-72414405D01*
X127832732Y-72525742D01*
X127833767Y-72600475D01*
X127834925Y-72636094D01*
X127835277Y-72638732D01*
X127843409Y-72640927D01*
X127866753Y-72642997D01*
X127906311Y-72644942D01*
X127963083Y-72646765D01*
X128038071Y-72648470D01*
X128132275Y-72650057D01*
X128246697Y-72651529D01*
X128382338Y-72652889D01*
X128540200Y-72654138D01*
X128721282Y-72655279D01*
X128926587Y-72656315D01*
X129157115Y-72657247D01*
X129413868Y-72658078D01*
X129697846Y-72658810D01*
X130010052Y-72659445D01*
X130351485Y-72659986D01*
X130723147Y-72660434D01*
X131126040Y-72660793D01*
X131561164Y-72661065D01*
X132029521Y-72661251D01*
X132532111Y-72661353D01*
X133069937Y-72661376D01*
X133643998Y-72661319D01*
X134255296Y-72661187D01*
X134904832Y-72660980D01*
X135593608Y-72660702D01*
X136322624Y-72660354D01*
X137092881Y-72659939D01*
X137164636Y-72659899D01*
X146483917Y-72654583D01*
X146483917Y-67066583D01*
X127836083Y-67066583D01*
X127830640Y-69839417D01*
X127830050Y-70178889D01*
X127829628Y-70506833D01*
X127829371Y-70820739D01*
X127829274Y-71118100D01*
X127593168Y-71118100D01*
X127593137Y-71095353D01*
X127592876Y-70769555D01*
X127592728Y-70406191D01*
X127592670Y-70003215D01*
X127592667Y-69860583D01*
X127592700Y-69444030D01*
X127592816Y-69067765D01*
X127593037Y-68729745D01*
X127593385Y-68427923D01*
X127593884Y-68160256D01*
X127594555Y-67924699D01*
X127595422Y-67719208D01*
X127596507Y-67541737D01*
X127597832Y-67390242D01*
X127599421Y-67262678D01*
X127601296Y-67157000D01*
X127603480Y-67071165D01*
X127605995Y-67003127D01*
X127608864Y-66950841D01*
X127612109Y-66912263D01*
X127615754Y-66885348D01*
X127619821Y-66868052D01*
X127624332Y-66858330D01*
X127625928Y-66856428D01*
X127631226Y-66853767D01*
X127642406Y-66851251D01*
X127660607Y-66848874D01*
X127686965Y-66846634D01*
X127722616Y-66844526D01*
X127768698Y-66842547D01*
X127826347Y-66840692D01*
X127896700Y-66838958D01*
X127980893Y-66837340D01*
X128080064Y-66835835D01*
X128195349Y-66834439D01*
X128327885Y-66833147D01*
X128478809Y-66831956D01*
X128649256Y-66830861D01*
X128840365Y-66829860D01*
X129053272Y-66828947D01*
X129289114Y-66828118D01*
X129549027Y-66827371D01*
X129834148Y-66826701D01*
X130145614Y-66826103D01*
X130484561Y-66825575D01*
X130852127Y-66825111D01*
X131249449Y-66824708D01*
X131677662Y-66824363D01*
X132137903Y-66824071D01*
X132631310Y-66823827D01*
X133159019Y-66823629D01*
X133722167Y-66823472D01*
X134321891Y-66823352D01*
X134959327Y-66823266D01*
X135635612Y-66823209D01*
X136351883Y-66823177D01*
X137109277Y-66823167D01*
X137160000Y-66823166D01*
X137920108Y-66823176D01*
G37*
X137920108Y-66823176D02*
X138639020Y-66823206D01*
X139317872Y-66823261D01*
X139957800Y-66823346D01*
X140559943Y-66823463D01*
X141125436Y-66823618D01*
X141655416Y-66823813D01*
X142151019Y-66824053D01*
X142613384Y-66824342D01*
X143043646Y-66824684D01*
X143442942Y-66825083D01*
X143812409Y-66825543D01*
X144153184Y-66826067D01*
X144466403Y-66826660D01*
X144753204Y-66827325D01*
X145014722Y-66828067D01*
X145252095Y-66828890D01*
X145466459Y-66829797D01*
X145658951Y-66830793D01*
X145830709Y-66831882D01*
X145982868Y-66833066D01*
X146116565Y-66834352D01*
X146232938Y-66835741D01*
X146333123Y-66837239D01*
X146418256Y-66838849D01*
X146489474Y-66840576D01*
X146547915Y-66842423D01*
X146594715Y-66844394D01*
X146631010Y-66846493D01*
X146657938Y-66848724D01*
X146676635Y-66851092D01*
X146688238Y-66853599D01*
X146693883Y-66856251D01*
X146694071Y-66856428D01*
X146698735Y-66864092D01*
X146702946Y-66878652D01*
X146706728Y-66902152D01*
X146710103Y-66936638D01*
X146713094Y-66984155D01*
X146715724Y-67046746D01*
X146718015Y-67126457D01*
X146719990Y-67225333D01*
X146721671Y-67345417D01*
X146723082Y-67488755D01*
X146724244Y-67657391D01*
X146725180Y-67853371D01*
X146725914Y-68078738D01*
X146726467Y-68335537D01*
X146726863Y-68625813D01*
X146727123Y-68951611D01*
X146727271Y-69314976D01*
X146727330Y-69717951D01*
X146727333Y-69860583D01*
X146727300Y-70277136D01*
X146727184Y-70653401D01*
X146726963Y-70991422D01*
X146726615Y-71293243D01*
X146726116Y-71560910D01*
X146725445Y-71796467D01*
X146724578Y-72001958D01*
X146723493Y-72179430D01*
X146722167Y-72330925D01*
X146720578Y-72458489D01*
X146718703Y-72564166D01*
X146716520Y-72650001D01*
X146714005Y-72718040D01*
X146711136Y-72770325D01*
X146707890Y-72808903D01*
X146704246Y-72835818D01*
X146700179Y-72853114D01*
X146695668Y-72862836D01*
X146694071Y-72864738D01*
X146688774Y-72867399D01*
X146677593Y-72869916D01*
X146659392Y-72872292D01*
X146633035Y-72874532D01*
X146597383Y-72876640D01*
X146551301Y-72878619D01*
X146493653Y-72880474D01*
X146423300Y-72882208D01*
X146339106Y-72883826D01*
X146239935Y-72885331D01*
X146124650Y-72886728D01*
X145992115Y-72888019D01*
X145841191Y-72889211D01*
X145670743Y-72890305D01*
X145479634Y-72891307D01*
X145266727Y-72892220D01*
X145030886Y-72893048D01*
X144770973Y-72893795D01*
X144485852Y-72894466D01*
X144174386Y-72895063D01*
X143835438Y-72895592D01*
X143467872Y-72896055D01*
X143070551Y-72896458D01*
X142642338Y-72896803D01*
X142182097Y-72897096D01*
X141688690Y-72897339D01*
X141160980Y-72897537D01*
X140597832Y-72897694D01*
X139998109Y-72897814D01*
X139360673Y-72897900D01*
X138684388Y-72897957D01*
X137968116Y-72897989D01*
X137210723Y-72898000D01*
X137160000Y-72898000D01*
X136399892Y-72897991D01*
X135680980Y-72897960D01*
X135002128Y-72897905D01*
X134362199Y-72897820D01*
X133760057Y-72897703D01*
X133194564Y-72897549D01*
X132664584Y-72897353D01*
X132168980Y-72897113D01*
X131706616Y-72896824D01*
X131276354Y-72896482D01*
X130877057Y-72896083D01*
X130507590Y-72895624D01*
X130166816Y-72895100D01*
X129853596Y-72894507D01*
X129566796Y-72893841D01*
X129305278Y-72893099D01*
X129067905Y-72892276D01*
X128853541Y-72891369D01*
X128661048Y-72890373D01*
X128489291Y-72889285D01*
X128337132Y-72888100D01*
X128203434Y-72886815D01*
X128087062Y-72885425D01*
X127986877Y-72883927D01*
X127901744Y-72882317D01*
X127830525Y-72880590D01*
X127772084Y-72878744D01*
X127725285Y-72876773D01*
X127688989Y-72874673D01*
X127662062Y-72872442D01*
X127643365Y-72870075D01*
X127631762Y-72867567D01*
X127626116Y-72864916D01*
X127625928Y-72864738D01*
X127621265Y-72857074D01*
X127617054Y-72842515D01*
X127613272Y-72819014D01*
X127609896Y-72784528D01*
X127606905Y-72737011D01*
X127604276Y-72674420D01*
X127601985Y-72594709D01*
X127600010Y-72495834D01*
X127598328Y-72375749D01*
X127596918Y-72232411D01*
X127595756Y-72063775D01*
X127594819Y-71867796D01*
X127594086Y-71642429D01*
X127593532Y-71385629D01*
X127593168Y-71118100D01*
X127829274Y-71118100D01*
X127829332Y-71396409D01*
X127829543Y-71653158D01*
X127829902Y-71885840D01*
X127830404Y-72091946D01*
X127831046Y-72268971D01*
X127831823Y-72414405D01*
X127832732Y-72525742D01*
X127833767Y-72600475D01*
X127834925Y-72636094D01*
X127835277Y-72638732D01*
X127843409Y-72640927D01*
X127866753Y-72642997D01*
X127906311Y-72644942D01*
X127963083Y-72646765D01*
X128038071Y-72648470D01*
X128132275Y-72650057D01*
X128246697Y-72651529D01*
X128382338Y-72652889D01*
X128540200Y-72654138D01*
X128721282Y-72655279D01*
X128926587Y-72656315D01*
X129157115Y-72657247D01*
X129413868Y-72658078D01*
X129697846Y-72658810D01*
X130010052Y-72659445D01*
X130351485Y-72659986D01*
X130723147Y-72660434D01*
X131126040Y-72660793D01*
X131561164Y-72661065D01*
X132029521Y-72661251D01*
X132532111Y-72661353D01*
X133069937Y-72661376D01*
X133643998Y-72661319D01*
X134255296Y-72661187D01*
X134904832Y-72660980D01*
X135593608Y-72660702D01*
X136322624Y-72660354D01*
X137092881Y-72659939D01*
X137164636Y-72659899D01*
X146483917Y-72654583D01*
X146483917Y-67066583D01*
X127836083Y-67066583D01*
X127830640Y-69839417D01*
X127830050Y-70178889D01*
X127829628Y-70506833D01*
X127829371Y-70820739D01*
X127829274Y-71118100D01*
X127593168Y-71118100D01*
X127593137Y-71095353D01*
X127592876Y-70769555D01*
X127592728Y-70406191D01*
X127592670Y-70003215D01*
X127592667Y-69860583D01*
X127592700Y-69444030D01*
X127592816Y-69067765D01*
X127593037Y-68729745D01*
X127593385Y-68427923D01*
X127593884Y-68160256D01*
X127594555Y-67924699D01*
X127595422Y-67719208D01*
X127596507Y-67541737D01*
X127597832Y-67390242D01*
X127599421Y-67262678D01*
X127601296Y-67157000D01*
X127603480Y-67071165D01*
X127605995Y-67003127D01*
X127608864Y-66950841D01*
X127612109Y-66912263D01*
X127615754Y-66885348D01*
X127619821Y-66868052D01*
X127624332Y-66858330D01*
X127625928Y-66856428D01*
X127631226Y-66853767D01*
X127642406Y-66851251D01*
X127660607Y-66848874D01*
X127686965Y-66846634D01*
X127722616Y-66844526D01*
X127768698Y-66842547D01*
X127826347Y-66840692D01*
X127896700Y-66838958D01*
X127980893Y-66837340D01*
X128080064Y-66835835D01*
X128195349Y-66834439D01*
X128327885Y-66833147D01*
X128478809Y-66831956D01*
X128649256Y-66830861D01*
X128840365Y-66829860D01*
X129053272Y-66828947D01*
X129289114Y-66828118D01*
X129549027Y-66827371D01*
X129834148Y-66826701D01*
X130145614Y-66826103D01*
X130484561Y-66825575D01*
X130852127Y-66825111D01*
X131249449Y-66824708D01*
X131677662Y-66824363D01*
X132137903Y-66824071D01*
X132631310Y-66823827D01*
X133159019Y-66823629D01*
X133722167Y-66823472D01*
X134321891Y-66823352D01*
X134959327Y-66823266D01*
X135635612Y-66823209D01*
X136351883Y-66823177D01*
X137109277Y-66823167D01*
X137160000Y-66823166D01*
X137920108Y-66823176D01*
G36*
X128762731Y-70966773D02*
G01*
X128881143Y-70991839D01*
X128942042Y-71013254D01*
X129004736Y-71042130D01*
X129037874Y-71066377D01*
X129050876Y-71097884D01*
X129053164Y-71148538D01*
X129053167Y-71153482D01*
X129053167Y-71245251D01*
X128946736Y-71179091D01*
X128881270Y-71142671D01*
X128819066Y-71120716D01*
X128743166Y-71108507D01*
X128674349Y-71103323D01*
X128514671Y-71106989D01*
X128385821Y-71139084D01*
X128286593Y-71200770D01*
X128215784Y-71293214D01*
X128172191Y-71417579D01*
X128154607Y-71575030D01*
X128154113Y-71606480D01*
X128168436Y-71771573D01*
X128212042Y-71906755D01*
X128284086Y-72011190D01*
X128383728Y-72084044D01*
X128510123Y-72124482D01*
X128662430Y-72131668D01*
X128682750Y-72130228D01*
X128762671Y-72119903D01*
X128833915Y-72104433D01*
X128867958Y-72092720D01*
X128897138Y-72076945D01*
X128914465Y-72056350D01*
X128923022Y-72020713D01*
X128925891Y-71959816D01*
X128926167Y-71899769D01*
X128926167Y-71733833D01*
X128629833Y-71733833D01*
X128629833Y-71585667D01*
X129095500Y-71585667D01*
X129095500Y-72138224D01*
X128962416Y-72200502D01*
X128807874Y-72253231D01*
X128641042Y-72276391D01*
X128477267Y-72268588D01*
X128398191Y-72251769D01*
X128257072Y-72191568D01*
X128139503Y-72099393D01*
X128050649Y-71980622D01*
X127995674Y-71840632D01*
X127993211Y-71830104D01*
X127982123Y-71752484D01*
X127976353Y-71652453D01*
X127976965Y-71549717D01*
X127977486Y-71538751D01*
X127985296Y-71438613D01*
X127999011Y-71364375D01*
X128022729Y-71299641D01*
X128050849Y-71245126D01*
X128137063Y-71130962D01*
X128251642Y-71038161D01*
X128382290Y-70976301D01*
X128404253Y-70969810D01*
X128507300Y-70954386D01*
X128632455Y-70953831D01*
X128762731Y-70966773D01*
G37*
X128762731Y-70966773D02*
X128881143Y-70991839D01*
X128942042Y-71013254D01*
X129004736Y-71042130D01*
X129037874Y-71066377D01*
X129050876Y-71097884D01*
X129053164Y-71148538D01*
X129053167Y-71153482D01*
X129053167Y-71245251D01*
X128946736Y-71179091D01*
X128881270Y-71142671D01*
X128819066Y-71120716D01*
X128743166Y-71108507D01*
X128674349Y-71103323D01*
X128514671Y-71106989D01*
X128385821Y-71139084D01*
X128286593Y-71200770D01*
X128215784Y-71293214D01*
X128172191Y-71417579D01*
X128154607Y-71575030D01*
X128154113Y-71606480D01*
X128168436Y-71771573D01*
X128212042Y-71906755D01*
X128284086Y-72011190D01*
X128383728Y-72084044D01*
X128510123Y-72124482D01*
X128662430Y-72131668D01*
X128682750Y-72130228D01*
X128762671Y-72119903D01*
X128833915Y-72104433D01*
X128867958Y-72092720D01*
X128897138Y-72076945D01*
X128914465Y-72056350D01*
X128923022Y-72020713D01*
X128925891Y-71959816D01*
X128926167Y-71899769D01*
X128926167Y-71733833D01*
X128629833Y-71733833D01*
X128629833Y-71585667D01*
X129095500Y-71585667D01*
X129095500Y-72138224D01*
X128962416Y-72200502D01*
X128807874Y-72253231D01*
X128641042Y-72276391D01*
X128477267Y-72268588D01*
X128398191Y-72251769D01*
X128257072Y-72191568D01*
X128139503Y-72099393D01*
X128050649Y-71980622D01*
X127995674Y-71840632D01*
X127993211Y-71830104D01*
X127982123Y-71752484D01*
X127976353Y-71652453D01*
X127976965Y-71549717D01*
X127977486Y-71538751D01*
X127985296Y-71438613D01*
X127999011Y-71364375D01*
X128022729Y-71299641D01*
X128050849Y-71245126D01*
X128137063Y-71130962D01*
X128251642Y-71038161D01*
X128382290Y-70976301D01*
X128404253Y-70969810D01*
X128507300Y-70954386D01*
X128632455Y-70953831D01*
X128762731Y-70966773D01*
G36*
X131402789Y-71358125D02*
G01*
X131404144Y-71543316D01*
X131408592Y-71691417D01*
X131416907Y-71807607D01*
X131429861Y-71897063D01*
X131448226Y-71964966D01*
X131472775Y-72016495D01*
X131504280Y-72056828D01*
X131507487Y-72060090D01*
X131550150Y-72096726D01*
X131595607Y-72117370D01*
X131659655Y-72127718D01*
X131703655Y-72130814D01*
X131788833Y-72132008D01*
X131849119Y-72121981D01*
X131901143Y-72097746D01*
X131906649Y-72094352D01*
X131946064Y-72066447D01*
X131976742Y-72034509D01*
X131999759Y-71993141D01*
X132016194Y-71936943D01*
X132027123Y-71860518D01*
X132033626Y-71758468D01*
X132036779Y-71625395D01*
X132037662Y-71455900D01*
X132037667Y-71438180D01*
X132037667Y-70971833D01*
X132232187Y-70971833D01*
X132224039Y-71453375D01*
X132220321Y-71628003D01*
X132215098Y-71766108D01*
X132207372Y-71873496D01*
X132196146Y-71955975D01*
X132180423Y-72019351D01*
X132159205Y-72069432D01*
X132131495Y-72112024D01*
X132105651Y-72142769D01*
X132028123Y-72201676D01*
X131922210Y-72245456D01*
X131799975Y-72271468D01*
X131673483Y-72277067D01*
X131562777Y-72261683D01*
X131447143Y-72211872D01*
X131349152Y-72128166D01*
X131291423Y-72044815D01*
X131276213Y-72014006D01*
X131264518Y-71981837D01*
X131255771Y-71942254D01*
X131249404Y-71889203D01*
X131244849Y-71816627D01*
X131241540Y-71718473D01*
X131238909Y-71588684D01*
X131236997Y-71463958D01*
X131229923Y-70971833D01*
X131402667Y-70971833D01*
X131402789Y-71358125D01*
G37*
X131402789Y-71358125D02*
X131404144Y-71543316D01*
X131408592Y-71691417D01*
X131416907Y-71807607D01*
X131429861Y-71897063D01*
X131448226Y-71964966D01*
X131472775Y-72016495D01*
X131504280Y-72056828D01*
X131507487Y-72060090D01*
X131550150Y-72096726D01*
X131595607Y-72117370D01*
X131659655Y-72127718D01*
X131703655Y-72130814D01*
X131788833Y-72132008D01*
X131849119Y-72121981D01*
X131901143Y-72097746D01*
X131906649Y-72094352D01*
X131946064Y-72066447D01*
X131976742Y-72034509D01*
X131999759Y-71993141D01*
X132016194Y-71936943D01*
X132027123Y-71860518D01*
X132033626Y-71758468D01*
X132036779Y-71625395D01*
X132037662Y-71455900D01*
X132037667Y-71438180D01*
X132037667Y-70971833D01*
X132232187Y-70971833D01*
X132224039Y-71453375D01*
X132220321Y-71628003D01*
X132215098Y-71766108D01*
X132207372Y-71873496D01*
X132196146Y-71955975D01*
X132180423Y-72019351D01*
X132159205Y-72069432D01*
X132131495Y-72112024D01*
X132105651Y-72142769D01*
X132028123Y-72201676D01*
X131922210Y-72245456D01*
X131799975Y-72271468D01*
X131673483Y-72277067D01*
X131562777Y-72261683D01*
X131447143Y-72211872D01*
X131349152Y-72128166D01*
X131291423Y-72044815D01*
X131276213Y-72014006D01*
X131264518Y-71981837D01*
X131255771Y-71942254D01*
X131249404Y-71889203D01*
X131244849Y-71816627D01*
X131241540Y-71718473D01*
X131238909Y-71588684D01*
X131236997Y-71463958D01*
X131229923Y-70971833D01*
X131402667Y-70971833D01*
X131402789Y-71358125D01*
G36*
X134392569Y-70967574D02*
G01*
X134515195Y-71001191D01*
X134547602Y-71015474D01*
X134608130Y-71047961D01*
X134640109Y-71076594D01*
X134653806Y-71114424D01*
X134658212Y-71156083D01*
X134664674Y-71245083D01*
X134524382Y-71171958D01*
X134442263Y-71132115D01*
X134375581Y-71109974D01*
X134304027Y-71100556D01*
X134226199Y-71098833D01*
X134101070Y-71105516D01*
X134005534Y-71128276D01*
X133928593Y-71171179D01*
X133864115Y-71232685D01*
X133805354Y-71317549D01*
X133769621Y-71416614D01*
X133753770Y-71540286D01*
X133752285Y-71602752D01*
X133761688Y-71753860D01*
X133791685Y-71874100D01*
X133844509Y-71970748D01*
X133876987Y-72009181D01*
X133966571Y-72079517D01*
X134076068Y-72120409D01*
X134211228Y-72133586D01*
X134282135Y-72130921D01*
X134383791Y-72121376D01*
X134450454Y-72105134D01*
X134489463Y-72074968D01*
X134508156Y-72023652D01*
X134513871Y-71943960D01*
X134514167Y-71902422D01*
X134514167Y-71733833D01*
X134239000Y-71733833D01*
X134239000Y-71585667D01*
X134683500Y-71585667D01*
X134683500Y-71860345D01*
X134683114Y-71973048D01*
X134681161Y-72051018D01*
X134676452Y-72101853D01*
X134667795Y-72133152D01*
X134653999Y-72152513D01*
X134635528Y-72166456D01*
X134528188Y-72218336D01*
X134395007Y-72255046D01*
X134250470Y-72274298D01*
X134109063Y-72273804D01*
X134028284Y-72262363D01*
X133885645Y-72211918D01*
X133764926Y-72127277D01*
X133669932Y-72012503D01*
X133604465Y-71871660D01*
X133582750Y-71786307D01*
X133565358Y-71607538D01*
X133581090Y-71441694D01*
X133627791Y-71293188D01*
X133703303Y-71166434D01*
X133805472Y-71065845D01*
X133932141Y-70995836D01*
X133976147Y-70981003D01*
X134107613Y-70956549D01*
X134251565Y-70952383D01*
X134392569Y-70967574D01*
G37*
X134392569Y-70967574D02*
X134515195Y-71001191D01*
X134547602Y-71015474D01*
X134608130Y-71047961D01*
X134640109Y-71076594D01*
X134653806Y-71114424D01*
X134658212Y-71156083D01*
X134664674Y-71245083D01*
X134524382Y-71171958D01*
X134442263Y-71132115D01*
X134375581Y-71109974D01*
X134304027Y-71100556D01*
X134226199Y-71098833D01*
X134101070Y-71105516D01*
X134005534Y-71128276D01*
X133928593Y-71171179D01*
X133864115Y-71232685D01*
X133805354Y-71317549D01*
X133769621Y-71416614D01*
X133753770Y-71540286D01*
X133752285Y-71602752D01*
X133761688Y-71753860D01*
X133791685Y-71874100D01*
X133844509Y-71970748D01*
X133876987Y-72009181D01*
X133966571Y-72079517D01*
X134076068Y-72120409D01*
X134211228Y-72133586D01*
X134282135Y-72130921D01*
X134383791Y-72121376D01*
X134450454Y-72105134D01*
X134489463Y-72074968D01*
X134508156Y-72023652D01*
X134513871Y-71943960D01*
X134514167Y-71902422D01*
X134514167Y-71733833D01*
X134239000Y-71733833D01*
X134239000Y-71585667D01*
X134683500Y-71585667D01*
X134683500Y-71860345D01*
X134683114Y-71973048D01*
X134681161Y-72051018D01*
X134676452Y-72101853D01*
X134667795Y-72133152D01*
X134653999Y-72152513D01*
X134635528Y-72166456D01*
X134528188Y-72218336D01*
X134395007Y-72255046D01*
X134250470Y-72274298D01*
X134109063Y-72273804D01*
X134028284Y-72262363D01*
X133885645Y-72211918D01*
X133764926Y-72127277D01*
X133669932Y-72012503D01*
X133604465Y-71871660D01*
X133582750Y-71786307D01*
X133565358Y-71607538D01*
X133581090Y-71441694D01*
X133627791Y-71293188D01*
X133703303Y-71166434D01*
X133805472Y-71065845D01*
X133932141Y-70995836D01*
X133976147Y-70981003D01*
X134107613Y-70956549D01*
X134251565Y-70952383D01*
X134392569Y-70967574D01*
G36*
X139662142Y-70969574D02*
G01*
X139741901Y-70998292D01*
X139838260Y-71063265D01*
X139897883Y-71143582D01*
X139925397Y-71245568D01*
X139925862Y-71249873D01*
X139917843Y-71356168D01*
X139873988Y-71448206D01*
X139798827Y-71517085D01*
X139786313Y-71524240D01*
X139717147Y-71561334D01*
X139780135Y-71593907D01*
X139835868Y-71632328D01*
X139892024Y-71685011D01*
X139900714Y-71694921D01*
X139932062Y-71736625D01*
X139948313Y-71776472D01*
X139953076Y-71829535D01*
X139950441Y-71902530D01*
X139932560Y-72022613D01*
X139891096Y-72112851D01*
X139820965Y-72181475D01*
X139754409Y-72219944D01*
X139679150Y-72245703D01*
X139580731Y-72265412D01*
X139476067Y-72277006D01*
X139382076Y-72278422D01*
X139329583Y-72271763D01*
X139231863Y-72248139D01*
X139168003Y-72230313D01*
X139130811Y-72213746D01*
X139113095Y-72193897D01*
X139107663Y-72166229D01*
X139107333Y-72131485D01*
X139111957Y-72075574D01*
X139126728Y-72057368D01*
X139133792Y-72058889D01*
X139272111Y-72104917D01*
X139405687Y-72127370D01*
X139527969Y-72126874D01*
X139632410Y-72104056D01*
X139712461Y-72059544D01*
X139759379Y-71999008D01*
X139785950Y-71898735D01*
X139771075Y-71806503D01*
X139714934Y-71723389D01*
X139712700Y-71721133D01*
X139672066Y-71683306D01*
X139635752Y-71661751D01*
X139589701Y-71651917D01*
X139519852Y-71649250D01*
X139490450Y-71649167D01*
X139340167Y-71649167D01*
X139340167Y-71506688D01*
X139492541Y-71495786D01*
X139574948Y-71488143D01*
X139628351Y-71476474D01*
X139666074Y-71455918D01*
X139701437Y-71421611D01*
X139704208Y-71418524D01*
X139750323Y-71352568D01*
X139761395Y-71288703D01*
X139743243Y-71217642D01*
X139701141Y-71156486D01*
X139628840Y-71118692D01*
X139523944Y-71103416D01*
X139426340Y-71105928D01*
X139339564Y-71113744D01*
X139262191Y-71122915D01*
X139210106Y-71131542D01*
X139207875Y-71132063D01*
X139168786Y-71138035D01*
X139152799Y-71122970D01*
X139149669Y-71076503D01*
X139149667Y-71073186D01*
X139152225Y-71029958D01*
X139166899Y-71004957D01*
X139204184Y-70988637D01*
X139257115Y-70975469D01*
X139399973Y-70953352D01*
X139539033Y-70951578D01*
X139662142Y-70969574D01*
G37*
X139662142Y-70969574D02*
X139741901Y-70998292D01*
X139838260Y-71063265D01*
X139897883Y-71143582D01*
X139925397Y-71245568D01*
X139925862Y-71249873D01*
X139917843Y-71356168D01*
X139873988Y-71448206D01*
X139798827Y-71517085D01*
X139786313Y-71524240D01*
X139717147Y-71561334D01*
X139780135Y-71593907D01*
X139835868Y-71632328D01*
X139892024Y-71685011D01*
X139900714Y-71694921D01*
X139932062Y-71736625D01*
X139948313Y-71776472D01*
X139953076Y-71829535D01*
X139950441Y-71902530D01*
X139932560Y-72022613D01*
X139891096Y-72112851D01*
X139820965Y-72181475D01*
X139754409Y-72219944D01*
X139679150Y-72245703D01*
X139580731Y-72265412D01*
X139476067Y-72277006D01*
X139382076Y-72278422D01*
X139329583Y-72271763D01*
X139231863Y-72248139D01*
X139168003Y-72230313D01*
X139130811Y-72213746D01*
X139113095Y-72193897D01*
X139107663Y-72166229D01*
X139107333Y-72131485D01*
X139111957Y-72075574D01*
X139126728Y-72057368D01*
X139133792Y-72058889D01*
X139272111Y-72104917D01*
X139405687Y-72127370D01*
X139527969Y-72126874D01*
X139632410Y-72104056D01*
X139712461Y-72059544D01*
X139759379Y-71999008D01*
X139785950Y-71898735D01*
X139771075Y-71806503D01*
X139714934Y-71723389D01*
X139712700Y-71721133D01*
X139672066Y-71683306D01*
X139635752Y-71661751D01*
X139589701Y-71651917D01*
X139519852Y-71649250D01*
X139490450Y-71649167D01*
X139340167Y-71649167D01*
X139340167Y-71506688D01*
X139492541Y-71495786D01*
X139574948Y-71488143D01*
X139628351Y-71476474D01*
X139666074Y-71455918D01*
X139701437Y-71421611D01*
X139704208Y-71418524D01*
X139750323Y-71352568D01*
X139761395Y-71288703D01*
X139743243Y-71217642D01*
X139701141Y-71156486D01*
X139628840Y-71118692D01*
X139523944Y-71103416D01*
X139426340Y-71105928D01*
X139339564Y-71113744D01*
X139262191Y-71122915D01*
X139210106Y-71131542D01*
X139207875Y-71132063D01*
X139168786Y-71138035D01*
X139152799Y-71122970D01*
X139149669Y-71076503D01*
X139149667Y-71073186D01*
X139152225Y-71029958D01*
X139166899Y-71004957D01*
X139204184Y-70988637D01*
X139257115Y-70975469D01*
X139399973Y-70953352D01*
X139539033Y-70951578D01*
X139662142Y-70969574D01*
G36*
X143268370Y-70969752D02*
G01*
X143377967Y-71025801D01*
X143466171Y-71117003D01*
X143530782Y-71241546D01*
X143544939Y-71284136D01*
X143569031Y-71403160D01*
X143580756Y-71545332D01*
X143580189Y-71694794D01*
X143567400Y-71835691D01*
X143542462Y-71952166D01*
X143541880Y-71954011D01*
X143482751Y-72083032D01*
X143399495Y-72182302D01*
X143297049Y-72248904D01*
X143180348Y-72279919D01*
X143054331Y-72272428D01*
X143018750Y-72263245D01*
X142913245Y-72210496D01*
X142826561Y-72120944D01*
X142777004Y-72037034D01*
X142750420Y-71977631D01*
X142732492Y-71920902D01*
X142720999Y-71854982D01*
X142713721Y-71768008D01*
X142711566Y-71721389D01*
X142878502Y-71721389D01*
X142894815Y-71863952D01*
X142929288Y-71974639D01*
X142982677Y-72056973D01*
X142991748Y-72066482D01*
X143071413Y-72120441D01*
X143160576Y-72138504D01*
X143248247Y-72118698D01*
X143257322Y-72114125D01*
X143314984Y-72062154D01*
X143357623Y-71975083D01*
X143385791Y-71851240D01*
X143400043Y-71688955D01*
X143400309Y-71682229D01*
X143399465Y-71491468D01*
X143380731Y-71338303D01*
X143343767Y-71221808D01*
X143288238Y-71141056D01*
X143213803Y-71095121D01*
X143183212Y-71087096D01*
X143090328Y-71087732D01*
X143013586Y-71126982D01*
X142953458Y-71204136D01*
X142910420Y-71318479D01*
X142884946Y-71469301D01*
X142879594Y-71543427D01*
X142878502Y-71721389D01*
X142711566Y-71721389D01*
X142709475Y-71676164D01*
X142712709Y-71468696D01*
X142739554Y-71295858D01*
X142789918Y-71157805D01*
X142863712Y-71054690D01*
X142960843Y-70986666D01*
X143081221Y-70953887D01*
X143139583Y-70950667D01*
X143268370Y-70969752D01*
G37*
X143268370Y-70969752D02*
X143377967Y-71025801D01*
X143466171Y-71117003D01*
X143530782Y-71241546D01*
X143544939Y-71284136D01*
X143569031Y-71403160D01*
X143580756Y-71545332D01*
X143580189Y-71694794D01*
X143567400Y-71835691D01*
X143542462Y-71952166D01*
X143541880Y-71954011D01*
X143482751Y-72083032D01*
X143399495Y-72182302D01*
X143297049Y-72248904D01*
X143180348Y-72279919D01*
X143054331Y-72272428D01*
X143018750Y-72263245D01*
X142913245Y-72210496D01*
X142826561Y-72120944D01*
X142777004Y-72037034D01*
X142750420Y-71977631D01*
X142732492Y-71920902D01*
X142720999Y-71854982D01*
X142713721Y-71768008D01*
X142711566Y-71721389D01*
X142878502Y-71721389D01*
X142894815Y-71863952D01*
X142929288Y-71974639D01*
X142982677Y-72056973D01*
X142991748Y-72066482D01*
X143071413Y-72120441D01*
X143160576Y-72138504D01*
X143248247Y-72118698D01*
X143257322Y-72114125D01*
X143314984Y-72062154D01*
X143357623Y-71975083D01*
X143385791Y-71851240D01*
X143400043Y-71688955D01*
X143400309Y-71682229D01*
X143399465Y-71491468D01*
X143380731Y-71338303D01*
X143343767Y-71221808D01*
X143288238Y-71141056D01*
X143213803Y-71095121D01*
X143183212Y-71087096D01*
X143090328Y-71087732D01*
X143013586Y-71126982D01*
X142953458Y-71204136D01*
X142910420Y-71318479D01*
X142884946Y-71469301D01*
X142879594Y-71543427D01*
X142878502Y-71721389D01*
X142711566Y-71721389D01*
X142709475Y-71676164D01*
X142712709Y-71468696D01*
X142739554Y-71295858D01*
X142789918Y-71157805D01*
X142863712Y-71054690D01*
X142960843Y-70986666D01*
X143081221Y-70953887D01*
X143139583Y-70950667D01*
X143268370Y-70969752D01*
G36*
X146041201Y-70969753D02*
G01*
X146150830Y-71025852D01*
X146239183Y-71117221D01*
X146304140Y-71242120D01*
X146318231Y-71284136D01*
X146341590Y-71398656D01*
X146353498Y-71537845D01*
X146353953Y-71685651D01*
X146342953Y-71826026D01*
X146320496Y-71942920D01*
X146318316Y-71950403D01*
X146261628Y-72077639D01*
X146179443Y-72176934D01*
X146077330Y-72244978D01*
X145960863Y-72278463D01*
X145835612Y-72274080D01*
X145791584Y-72263245D01*
X145686988Y-72211152D01*
X145600675Y-72122609D01*
X145548598Y-72034947D01*
X145524827Y-71984260D01*
X145508398Y-71939483D01*
X145497959Y-71891140D01*
X145492161Y-71829759D01*
X145489653Y-71745864D01*
X145489085Y-71629982D01*
X145489083Y-71617417D01*
X145489142Y-71606833D01*
X145658456Y-71606833D01*
X145661123Y-71742124D01*
X145668700Y-71852207D01*
X145680608Y-71929983D01*
X145686327Y-71950099D01*
X145734640Y-72038519D01*
X145802659Y-72100366D01*
X145881981Y-72132949D01*
X145964202Y-72133577D01*
X146040920Y-72099562D01*
X146070589Y-72073118D01*
X146116778Y-72007909D01*
X146148823Y-71923053D01*
X146168221Y-71812052D01*
X146176469Y-71668409D01*
X146177000Y-71611408D01*
X146168431Y-71433464D01*
X146142405Y-71293169D01*
X146098441Y-71189390D01*
X146036056Y-71120998D01*
X145954771Y-71086859D01*
X145953936Y-71086701D01*
X145864544Y-71089736D01*
X145785468Y-71131960D01*
X145721050Y-71210654D01*
X145704187Y-71243211D01*
X145684288Y-71292098D01*
X145671036Y-71343165D01*
X145663160Y-71406508D01*
X145659390Y-71492225D01*
X145658456Y-71606833D01*
X145489142Y-71606833D01*
X145489772Y-71495360D01*
X145492588Y-71406326D01*
X145498657Y-71341017D01*
X145509105Y-71290133D01*
X145525059Y-71244377D01*
X145537742Y-71215514D01*
X145606531Y-71095610D01*
X145687049Y-71013914D01*
X145784394Y-70966821D01*
X145903666Y-70950726D01*
X145912417Y-70950667D01*
X146041201Y-70969753D01*
G37*
X146041201Y-70969753D02*
X146150830Y-71025852D01*
X146239183Y-71117221D01*
X146304140Y-71242120D01*
X146318231Y-71284136D01*
X146341590Y-71398656D01*
X146353498Y-71537845D01*
X146353953Y-71685651D01*
X146342953Y-71826026D01*
X146320496Y-71942920D01*
X146318316Y-71950403D01*
X146261628Y-72077639D01*
X146179443Y-72176934D01*
X146077330Y-72244978D01*
X145960863Y-72278463D01*
X145835612Y-72274080D01*
X145791584Y-72263245D01*
X145686988Y-72211152D01*
X145600675Y-72122609D01*
X145548598Y-72034947D01*
X145524827Y-71984260D01*
X145508398Y-71939483D01*
X145497959Y-71891140D01*
X145492161Y-71829759D01*
X145489653Y-71745864D01*
X145489085Y-71629982D01*
X145489083Y-71617417D01*
X145489142Y-71606833D01*
X145658456Y-71606833D01*
X145661123Y-71742124D01*
X145668700Y-71852207D01*
X145680608Y-71929983D01*
X145686327Y-71950099D01*
X145734640Y-72038519D01*
X145802659Y-72100366D01*
X145881981Y-72132949D01*
X145964202Y-72133577D01*
X146040920Y-72099562D01*
X146070589Y-72073118D01*
X146116778Y-72007909D01*
X146148823Y-71923053D01*
X146168221Y-71812052D01*
X146176469Y-71668409D01*
X146177000Y-71611408D01*
X146168431Y-71433464D01*
X146142405Y-71293169D01*
X146098441Y-71189390D01*
X146036056Y-71120998D01*
X145954771Y-71086859D01*
X145953936Y-71086701D01*
X145864544Y-71089736D01*
X145785468Y-71131960D01*
X145721050Y-71210654D01*
X145704187Y-71243211D01*
X145684288Y-71292098D01*
X145671036Y-71343165D01*
X145663160Y-71406508D01*
X145659390Y-71492225D01*
X145658456Y-71606833D01*
X145489142Y-71606833D01*
X145489772Y-71495360D01*
X145492588Y-71406326D01*
X145498657Y-71341017D01*
X145509105Y-71290133D01*
X145525059Y-71244377D01*
X145537742Y-71215514D01*
X145606531Y-71095610D01*
X145687049Y-71013914D01*
X145784394Y-70966821D01*
X145903666Y-70950726D01*
X145912417Y-70950667D01*
X146041201Y-70969753D01*
G36*
X130640667Y-72263000D02*
G01*
X130414187Y-72263000D01*
X130143703Y-71749708D01*
X130071955Y-71614079D01*
X130006014Y-71490427D01*
X129948619Y-71383805D01*
X129902504Y-71299266D01*
X129870408Y-71241863D01*
X129855066Y-71216646D01*
X129854776Y-71216308D01*
X129849535Y-71230684D01*
X129844939Y-71282681D01*
X129841157Y-71367586D01*
X129838357Y-71480691D01*
X129836710Y-71617284D01*
X129836333Y-71729600D01*
X129836333Y-72263000D01*
X129765778Y-72263000D01*
X129713477Y-72259127D01*
X129682067Y-72249722D01*
X129681111Y-72248889D01*
X129677558Y-72224935D01*
X129674333Y-72163992D01*
X129671553Y-72071405D01*
X129669335Y-71952515D01*
X129667795Y-71812669D01*
X129667051Y-71657209D01*
X129667000Y-71603305D01*
X129667000Y-70971833D01*
X129788708Y-70972154D01*
X129910417Y-70972475D01*
X130185583Y-71495114D01*
X130460750Y-72017754D01*
X130466411Y-71494793D01*
X130472073Y-70971833D01*
X130640667Y-70971833D01*
X130640667Y-72263000D01*
G37*
X130640667Y-72263000D02*
X130414187Y-72263000D01*
X130143703Y-71749708D01*
X130071955Y-71614079D01*
X130006014Y-71490427D01*
X129948619Y-71383805D01*
X129902504Y-71299266D01*
X129870408Y-71241863D01*
X129855066Y-71216646D01*
X129854776Y-71216308D01*
X129849535Y-71230684D01*
X129844939Y-71282681D01*
X129841157Y-71367586D01*
X129838357Y-71480691D01*
X129836710Y-71617284D01*
X129836333Y-71729600D01*
X129836333Y-72263000D01*
X129765778Y-72263000D01*
X129713477Y-72259127D01*
X129682067Y-72249722D01*
X129681111Y-72248889D01*
X129677558Y-72224935D01*
X129674333Y-72163992D01*
X129671553Y-72071405D01*
X129669335Y-71952515D01*
X129667795Y-71812669D01*
X129667051Y-71657209D01*
X129667000Y-71603305D01*
X129667000Y-70971833D01*
X129788708Y-70972154D01*
X129910417Y-70972475D01*
X130185583Y-71495114D01*
X130460750Y-72017754D01*
X130466411Y-71494793D01*
X130472073Y-70971833D01*
X130640667Y-70971833D01*
X130640667Y-72263000D01*
G36*
X135567208Y-70975095D02*
G01*
X135686491Y-70978715D01*
X135772151Y-70983488D01*
X135832899Y-70990773D01*
X135877445Y-71001931D01*
X135914499Y-71018321D01*
X135940124Y-71033313D01*
X136020611Y-71106301D01*
X136073221Y-71201615D01*
X136097947Y-71309865D01*
X136094784Y-71421662D01*
X136063725Y-71527619D01*
X136004764Y-71618346D01*
X135940541Y-71671801D01*
X135893200Y-71696762D01*
X135840636Y-71713125D01*
X135771160Y-71723269D01*
X135673081Y-71729573D01*
X135652291Y-71730451D01*
X135445500Y-71738757D01*
X135445500Y-72263000D01*
X135276167Y-72263000D01*
X135276167Y-71120000D01*
X135445500Y-71120000D01*
X135445500Y-71585667D01*
X135616461Y-71585667D01*
X135703008Y-71584598D01*
X135759307Y-71579256D01*
X135797429Y-71566430D01*
X135829446Y-71542915D01*
X135849295Y-71523795D01*
X135887921Y-71477843D01*
X135906246Y-71429457D01*
X135911148Y-71359632D01*
X135911167Y-71352833D01*
X135907012Y-71280574D01*
X135889962Y-71231214D01*
X135853141Y-71185750D01*
X135849295Y-71181872D01*
X135815408Y-71150936D01*
X135782204Y-71132495D01*
X135737611Y-71123340D01*
X135669556Y-71120263D01*
X135616461Y-71120000D01*
X135445500Y-71120000D01*
X135276167Y-71120000D01*
X135276167Y-70967774D01*
X135567208Y-70975095D01*
G37*
X135567208Y-70975095D02*
X135686491Y-70978715D01*
X135772151Y-70983488D01*
X135832899Y-70990773D01*
X135877445Y-71001931D01*
X135914499Y-71018321D01*
X135940124Y-71033313D01*
X136020611Y-71106301D01*
X136073221Y-71201615D01*
X136097947Y-71309865D01*
X136094784Y-71421662D01*
X136063725Y-71527619D01*
X136004764Y-71618346D01*
X135940541Y-71671801D01*
X135893200Y-71696762D01*
X135840636Y-71713125D01*
X135771160Y-71723269D01*
X135673081Y-71729573D01*
X135652291Y-71730451D01*
X135445500Y-71738757D01*
X135445500Y-72263000D01*
X135276167Y-72263000D01*
X135276167Y-71120000D01*
X135445500Y-71120000D01*
X135445500Y-71585667D01*
X135616461Y-71585667D01*
X135703008Y-71584598D01*
X135759307Y-71579256D01*
X135797429Y-71566430D01*
X135829446Y-71542915D01*
X135849295Y-71523795D01*
X135887921Y-71477843D01*
X135906246Y-71429457D01*
X135911148Y-71359632D01*
X135911167Y-71352833D01*
X135907012Y-71280574D01*
X135889962Y-71231214D01*
X135853141Y-71185750D01*
X135849295Y-71181872D01*
X135815408Y-71150936D01*
X135782204Y-71132495D01*
X135737611Y-71123340D01*
X135669556Y-71120263D01*
X135616461Y-71120000D01*
X135445500Y-71120000D01*
X135276167Y-71120000D01*
X135276167Y-70967774D01*
X135567208Y-70975095D01*
G36*
X136779000Y-72114833D02*
G01*
X137392833Y-72114833D01*
X137392833Y-72263000D01*
X137004778Y-72263000D01*
X136880676Y-72262264D01*
X136771449Y-72260221D01*
X136684039Y-72257113D01*
X136625389Y-72253183D01*
X136602611Y-72248889D01*
X136599058Y-72224935D01*
X136595833Y-72163992D01*
X136593053Y-72071405D01*
X136590835Y-71952515D01*
X136589295Y-71812669D01*
X136588551Y-71657209D01*
X136588500Y-71603305D01*
X136588500Y-70971833D01*
X136779000Y-70971833D01*
X136779000Y-72114833D01*
G37*
X136779000Y-72114833D02*
X137392833Y-72114833D01*
X137392833Y-72263000D01*
X137004778Y-72263000D01*
X136880676Y-72262264D01*
X136771449Y-72260221D01*
X136684039Y-72257113D01*
X136625389Y-72253183D01*
X136602611Y-72248889D01*
X136599058Y-72224935D01*
X136595833Y-72163992D01*
X136593053Y-72071405D01*
X136590835Y-71952515D01*
X136589295Y-71812669D01*
X136588551Y-71657209D01*
X136588500Y-71603305D01*
X136588500Y-70971833D01*
X136779000Y-70971833D01*
X136779000Y-72114833D01*
G36*
X138038700Y-71680917D02*
G01*
X138083297Y-71800900D01*
X138123547Y-71906005D01*
X138157049Y-71990220D01*
X138181402Y-72047532D01*
X138194207Y-72071928D01*
X138194990Y-72072377D01*
X138206828Y-72053678D01*
X138229384Y-72002972D01*
X138259326Y-71928185D01*
X138290570Y-71844835D01*
X138331989Y-71731676D01*
X138375956Y-71612493D01*
X138415952Y-71504921D01*
X138435297Y-71453375D01*
X138497206Y-71289333D01*
X138582284Y-71289333D01*
X138635872Y-71291980D01*
X138656246Y-71303059D01*
X138652725Y-71326375D01*
X138641094Y-71356744D01*
X138617044Y-71420216D01*
X138583040Y-71510261D01*
X138541546Y-71620350D01*
X138495028Y-71743956D01*
X138482917Y-71776167D01*
X138435528Y-71902128D01*
X138392549Y-72016205D01*
X138356444Y-72111867D01*
X138329677Y-72182585D01*
X138314714Y-72221832D01*
X138313108Y-72225958D01*
X138292201Y-72249768D01*
X138247269Y-72260958D01*
X138194238Y-72263000D01*
X138124302Y-72257705D01*
X138085195Y-72243098D01*
X138080452Y-72236542D01*
X138070533Y-72209808D01*
X138047986Y-72149433D01*
X138015054Y-72061409D01*
X137973980Y-71951730D01*
X137927007Y-71826389D01*
X137901200Y-71757561D01*
X137852687Y-71627868D01*
X137809581Y-71512000D01*
X137773976Y-71415637D01*
X137747965Y-71344456D01*
X137733640Y-71304135D01*
X137731500Y-71297186D01*
X137750260Y-71292197D01*
X137796938Y-71289493D01*
X137813335Y-71289333D01*
X137895169Y-71289333D01*
X138038700Y-71680917D01*
G37*
X138038700Y-71680917D02*
X138083297Y-71800900D01*
X138123547Y-71906005D01*
X138157049Y-71990220D01*
X138181402Y-72047532D01*
X138194207Y-72071928D01*
X138194990Y-72072377D01*
X138206828Y-72053678D01*
X138229384Y-72002972D01*
X138259326Y-71928185D01*
X138290570Y-71844835D01*
X138331989Y-71731676D01*
X138375956Y-71612493D01*
X138415952Y-71504921D01*
X138435297Y-71453375D01*
X138497206Y-71289333D01*
X138582284Y-71289333D01*
X138635872Y-71291980D01*
X138656246Y-71303059D01*
X138652725Y-71326375D01*
X138641094Y-71356744D01*
X138617044Y-71420216D01*
X138583040Y-71510261D01*
X138541546Y-71620350D01*
X138495028Y-71743956D01*
X138482917Y-71776167D01*
X138435528Y-71902128D01*
X138392549Y-72016205D01*
X138356444Y-72111867D01*
X138329677Y-72182585D01*
X138314714Y-72221832D01*
X138313108Y-72225958D01*
X138292201Y-72249768D01*
X138247269Y-72260958D01*
X138194238Y-72263000D01*
X138124302Y-72257705D01*
X138085195Y-72243098D01*
X138080452Y-72236542D01*
X138070533Y-72209808D01*
X138047986Y-72149433D01*
X138015054Y-72061409D01*
X137973980Y-71951730D01*
X137927007Y-71826389D01*
X137901200Y-71757561D01*
X137852687Y-71627868D01*
X137809581Y-71512000D01*
X137773976Y-71415637D01*
X137747965Y-71344456D01*
X137733640Y-71304135D01*
X137731500Y-71297186D01*
X137750260Y-71292197D01*
X137796938Y-71289493D01*
X137813335Y-71289333D01*
X137895169Y-71289333D01*
X138038700Y-71680917D01*
G36*
X141871899Y-70978894D02*
G01*
X141976306Y-71027470D01*
X142057149Y-71097101D01*
X142110473Y-71184774D01*
X142132325Y-71287473D01*
X142118749Y-71402185D01*
X142092545Y-71474225D01*
X142064682Y-71519280D01*
X142013125Y-71587639D01*
X141943649Y-71672214D01*
X141862030Y-71765919D01*
X141794993Y-71839350D01*
X141538133Y-72114833D01*
X142134167Y-72114833D01*
X142134167Y-72263000D01*
X141329833Y-72263000D01*
X141329833Y-72187084D01*
X141332313Y-72157682D01*
X141342349Y-72127459D01*
X141363838Y-72091249D01*
X141400678Y-72043889D01*
X141456765Y-71980216D01*
X141535996Y-71895064D01*
X141605366Y-71821959D01*
X141725585Y-71693425D01*
X141817365Y-71588976D01*
X141883477Y-71504098D01*
X141926695Y-71434277D01*
X141949791Y-71374999D01*
X141955538Y-71321749D01*
X141946708Y-71270014D01*
X141945948Y-71267436D01*
X141915577Y-71202019D01*
X141872980Y-71148064D01*
X141866219Y-71142302D01*
X141793137Y-71108957D01*
X141694712Y-71098515D01*
X141581078Y-71110782D01*
X141462368Y-71145560D01*
X141450418Y-71150346D01*
X141327585Y-71200854D01*
X141334001Y-71113440D01*
X141339593Y-71063611D01*
X141353967Y-71033640D01*
X141387442Y-71013127D01*
X141450337Y-70991671D01*
X141456833Y-70989639D01*
X141608208Y-70956964D01*
X141747881Y-70954387D01*
X141871899Y-70978894D01*
G37*
X141871899Y-70978894D02*
X141976306Y-71027470D01*
X142057149Y-71097101D01*
X142110473Y-71184774D01*
X142132325Y-71287473D01*
X142118749Y-71402185D01*
X142092545Y-71474225D01*
X142064682Y-71519280D01*
X142013125Y-71587639D01*
X141943649Y-71672214D01*
X141862030Y-71765919D01*
X141794993Y-71839350D01*
X141538133Y-72114833D01*
X142134167Y-72114833D01*
X142134167Y-72263000D01*
X141329833Y-72263000D01*
X141329833Y-72187084D01*
X141332313Y-72157682D01*
X141342349Y-72127459D01*
X141363838Y-72091249D01*
X141400678Y-72043889D01*
X141456765Y-71980216D01*
X141535996Y-71895064D01*
X141605366Y-71821959D01*
X141725585Y-71693425D01*
X141817365Y-71588976D01*
X141883477Y-71504098D01*
X141926695Y-71434277D01*
X141949791Y-71374999D01*
X141955538Y-71321749D01*
X141946708Y-71270014D01*
X141945948Y-71267436D01*
X141915577Y-71202019D01*
X141872980Y-71148064D01*
X141866219Y-71142302D01*
X141793137Y-71108957D01*
X141694712Y-71098515D01*
X141581078Y-71110782D01*
X141462368Y-71145560D01*
X141450418Y-71150346D01*
X141327585Y-71200854D01*
X141334001Y-71113440D01*
X141339593Y-71063611D01*
X141353967Y-71033640D01*
X141387442Y-71013127D01*
X141450337Y-70991671D01*
X141456833Y-70989639D01*
X141608208Y-70956964D01*
X141747881Y-70954387D01*
X141871899Y-70978894D01*
G36*
X144616242Y-70966964D02*
G01*
X144728961Y-71007512D01*
X144814659Y-71076954D01*
X144865600Y-71153580D01*
X144896926Y-71233663D01*
X144906261Y-71313304D01*
X144891677Y-71396839D01*
X144851246Y-71488609D01*
X144783040Y-71592952D01*
X144685131Y-71714205D01*
X144555591Y-71856707D01*
X144550940Y-71861627D01*
X144311296Y-72114833D01*
X144907000Y-72114833D01*
X144907000Y-72263000D01*
X144102667Y-72263000D01*
X144102667Y-72186972D01*
X144105122Y-72157523D01*
X144115100Y-72127364D01*
X144136516Y-72091319D01*
X144173289Y-72044214D01*
X144229334Y-71980873D01*
X144308569Y-71896121D01*
X144377604Y-71823713D01*
X144468376Y-71726442D01*
X144551594Y-71632734D01*
X144621537Y-71549379D01*
X144672488Y-71483171D01*
X144697329Y-71443961D01*
X144729561Y-71341570D01*
X144721305Y-71251352D01*
X144672586Y-71173477D01*
X144650656Y-71153026D01*
X144569760Y-71111276D01*
X144464709Y-71097651D01*
X144343032Y-71112196D01*
X144223251Y-71150346D01*
X144100419Y-71200854D01*
X144106834Y-71113440D01*
X144112426Y-71063611D01*
X144126800Y-71033640D01*
X144160275Y-71013127D01*
X144223170Y-70991671D01*
X144229667Y-70989639D01*
X144321091Y-70968559D01*
X144423658Y-70955585D01*
X144473083Y-70953570D01*
X144616242Y-70966964D01*
G37*
X144616242Y-70966964D02*
X144728961Y-71007512D01*
X144814659Y-71076954D01*
X144865600Y-71153580D01*
X144896926Y-71233663D01*
X144906261Y-71313304D01*
X144891677Y-71396839D01*
X144851246Y-71488609D01*
X144783040Y-71592952D01*
X144685131Y-71714205D01*
X144555591Y-71856707D01*
X144550940Y-71861627D01*
X144311296Y-72114833D01*
X144907000Y-72114833D01*
X144907000Y-72263000D01*
X144102667Y-72263000D01*
X144102667Y-72186972D01*
X144105122Y-72157523D01*
X144115100Y-72127364D01*
X144136516Y-72091319D01*
X144173289Y-72044214D01*
X144229334Y-71980873D01*
X144308569Y-71896121D01*
X144377604Y-71823713D01*
X144468376Y-71726442D01*
X144551594Y-71632734D01*
X144621537Y-71549379D01*
X144672488Y-71483171D01*
X144697329Y-71443961D01*
X144729561Y-71341570D01*
X144721305Y-71251352D01*
X144672586Y-71173477D01*
X144650656Y-71153026D01*
X144569760Y-71111276D01*
X144464709Y-71097651D01*
X144343032Y-71112196D01*
X144223251Y-71150346D01*
X144100419Y-71200854D01*
X144106834Y-71113440D01*
X144112426Y-71063611D01*
X144126800Y-71033640D01*
X144160275Y-71013127D01*
X144223170Y-70991671D01*
X144229667Y-70989639D01*
X144321091Y-70968559D01*
X144423658Y-70955585D01*
X144473083Y-70953570D01*
X144616242Y-70966964D01*
G36*
X134819999Y-67460314D02*
G01*
X135021096Y-67492866D01*
X135198128Y-67550064D01*
X135357686Y-67634167D01*
X135506357Y-67747432D01*
X135537152Y-67775452D01*
X135677852Y-67935423D01*
X135785137Y-68120934D01*
X135859076Y-68332180D01*
X135899735Y-68569359D01*
X135907183Y-68832669D01*
X135906385Y-68853929D01*
X135898831Y-68981104D01*
X135886537Y-69082146D01*
X135866740Y-69173209D01*
X135836677Y-69270447D01*
X135833587Y-69279435D01*
X135743655Y-69485288D01*
X135626574Y-69664664D01*
X135485464Y-69813676D01*
X135323444Y-69928438D01*
X135303938Y-69939091D01*
X135250958Y-69970225D01*
X135218027Y-69995407D01*
X135212667Y-70003708D01*
X135226127Y-70024384D01*
X135263138Y-70070260D01*
X135318641Y-70135328D01*
X135387578Y-70213585D01*
X135417714Y-70247161D01*
X135494786Y-70332649D01*
X135564891Y-70410537D01*
X135621573Y-70473640D01*
X135658373Y-70514776D01*
X135664820Y-70522042D01*
X135706879Y-70569667D01*
X135075083Y-70569583D01*
X134870045Y-70340072D01*
X134665007Y-70110560D01*
X134467878Y-70096917D01*
X134238291Y-70068048D01*
X134038389Y-70013892D01*
X133862186Y-69931962D01*
X133703695Y-69819769D01*
X133623488Y-69745845D01*
X133497659Y-69598798D01*
X133401716Y-69436865D01*
X133333294Y-69254170D01*
X133290024Y-69044835D01*
X133273244Y-68876333D01*
X133273767Y-68770500D01*
X133975059Y-68770500D01*
X133977075Y-68932761D01*
X133985036Y-69061195D01*
X134000746Y-69164102D01*
X134026007Y-69249785D01*
X134062622Y-69326545D01*
X134112301Y-69402556D01*
X134211191Y-69504641D01*
X134334105Y-69576809D01*
X134473634Y-69617502D01*
X134622367Y-69625158D01*
X134772895Y-69598218D01*
X134867737Y-69561632D01*
X134941423Y-69519161D01*
X135007938Y-69468650D01*
X135035161Y-69441460D01*
X135117273Y-69315342D01*
X135176947Y-69163235D01*
X135214301Y-68993344D01*
X135229454Y-68813876D01*
X135222524Y-68633037D01*
X135193631Y-68459031D01*
X135142893Y-68300065D01*
X135070428Y-68164344D01*
X135015729Y-68096603D01*
X134904884Y-68006641D01*
X134775291Y-67951202D01*
X134638706Y-67928603D01*
X134475404Y-67936098D01*
X134328776Y-67981660D01*
X134202147Y-68063187D01*
X134098842Y-68178572D01*
X134025717Y-68316668D01*
X134006220Y-68369633D01*
X133992491Y-68420333D01*
X133983518Y-68477818D01*
X133978293Y-68551138D01*
X133975803Y-68649344D01*
X133975059Y-68770500D01*
X133273767Y-68770500D01*
X133274474Y-68627732D01*
X133309625Y-68394818D01*
X133377135Y-68180816D01*
X133475443Y-67988951D01*
X133602988Y-67822446D01*
X133758209Y-67684525D01*
X133889814Y-67602845D01*
X134021156Y-67540399D01*
X134145922Y-67496590D01*
X134276380Y-67468734D01*
X134424798Y-67454150D01*
X134588250Y-67450148D01*
X134819999Y-67460314D01*
G37*
X134819999Y-67460314D02*
X135021096Y-67492866D01*
X135198128Y-67550064D01*
X135357686Y-67634167D01*
X135506357Y-67747432D01*
X135537152Y-67775452D01*
X135677852Y-67935423D01*
X135785137Y-68120934D01*
X135859076Y-68332180D01*
X135899735Y-68569359D01*
X135907183Y-68832669D01*
X135906385Y-68853929D01*
X135898831Y-68981104D01*
X135886537Y-69082146D01*
X135866740Y-69173209D01*
X135836677Y-69270447D01*
X135833587Y-69279435D01*
X135743655Y-69485288D01*
X135626574Y-69664664D01*
X135485464Y-69813676D01*
X135323444Y-69928438D01*
X135303938Y-69939091D01*
X135250958Y-69970225D01*
X135218027Y-69995407D01*
X135212667Y-70003708D01*
X135226127Y-70024384D01*
X135263138Y-70070260D01*
X135318641Y-70135328D01*
X135387578Y-70213585D01*
X135417714Y-70247161D01*
X135494786Y-70332649D01*
X135564891Y-70410537D01*
X135621573Y-70473640D01*
X135658373Y-70514776D01*
X135664820Y-70522042D01*
X135706879Y-70569667D01*
X135075083Y-70569583D01*
X134870045Y-70340072D01*
X134665007Y-70110560D01*
X134467878Y-70096917D01*
X134238291Y-70068048D01*
X134038389Y-70013892D01*
X133862186Y-69931962D01*
X133703695Y-69819769D01*
X133623488Y-69745845D01*
X133497659Y-69598798D01*
X133401716Y-69436865D01*
X133333294Y-69254170D01*
X133290024Y-69044835D01*
X133273244Y-68876333D01*
X133273767Y-68770500D01*
X133975059Y-68770500D01*
X133977075Y-68932761D01*
X133985036Y-69061195D01*
X134000746Y-69164102D01*
X134026007Y-69249785D01*
X134062622Y-69326545D01*
X134112301Y-69402556D01*
X134211191Y-69504641D01*
X134334105Y-69576809D01*
X134473634Y-69617502D01*
X134622367Y-69625158D01*
X134772895Y-69598218D01*
X134867737Y-69561632D01*
X134941423Y-69519161D01*
X135007938Y-69468650D01*
X135035161Y-69441460D01*
X135117273Y-69315342D01*
X135176947Y-69163235D01*
X135214301Y-68993344D01*
X135229454Y-68813876D01*
X135222524Y-68633037D01*
X135193631Y-68459031D01*
X135142893Y-68300065D01*
X135070428Y-68164344D01*
X135015729Y-68096603D01*
X134904884Y-68006641D01*
X134775291Y-67951202D01*
X134638706Y-67928603D01*
X134475404Y-67936098D01*
X134328776Y-67981660D01*
X134202147Y-68063187D01*
X134098842Y-68178572D01*
X134025717Y-68316668D01*
X134006220Y-68369633D01*
X133992491Y-68420333D01*
X133983518Y-68477818D01*
X133978293Y-68551138D01*
X133975803Y-68649344D01*
X133975059Y-68770500D01*
X133273767Y-68770500D01*
X133274474Y-68627732D01*
X133309625Y-68394818D01*
X133377135Y-68180816D01*
X133475443Y-67988951D01*
X133602988Y-67822446D01*
X133758209Y-67684525D01*
X133889814Y-67602845D01*
X134021156Y-67540399D01*
X134145922Y-67496590D01*
X134276380Y-67468734D01*
X134424798Y-67454150D01*
X134588250Y-67450148D01*
X134819999Y-67460314D01*
G36*
X142610150Y-67452875D02*
G01*
X142751443Y-67465047D01*
X142866043Y-67485360D01*
X142875000Y-67487699D01*
X143095075Y-67566143D01*
X143284771Y-67674056D01*
X143444041Y-67811379D01*
X143572837Y-67978050D01*
X143671114Y-68174010D01*
X143738825Y-68399197D01*
X143775922Y-68653552D01*
X143775965Y-68654083D01*
X143777691Y-68901842D01*
X143743008Y-69136222D01*
X143673481Y-69353835D01*
X143570673Y-69551290D01*
X143436147Y-69725197D01*
X143271466Y-69872166D01*
X143188312Y-69928380D01*
X143063805Y-70005230D01*
X143134754Y-70081073D01*
X143176572Y-70126319D01*
X143238486Y-70193986D01*
X143312257Y-70275043D01*
X143389647Y-70360458D01*
X143392208Y-70363292D01*
X143578713Y-70569667D01*
X142941690Y-70569667D01*
X142736230Y-70339777D01*
X142530771Y-70109888D01*
X142337760Y-70097504D01*
X142091814Y-70064423D01*
X141871034Y-69998904D01*
X141676690Y-69901860D01*
X141510056Y-69774201D01*
X141372404Y-69616837D01*
X141265006Y-69430679D01*
X141210745Y-69290725D01*
X141171177Y-69126700D01*
X141147613Y-68938166D01*
X141145109Y-68865403D01*
X141823382Y-68865403D01*
X141843611Y-69038199D01*
X141884430Y-69199239D01*
X141945732Y-69340763D01*
X142027413Y-69455013D01*
X142053609Y-69480777D01*
X142175547Y-69563549D01*
X142316610Y-69613344D01*
X142467855Y-69628878D01*
X142620341Y-69608864D01*
X142716250Y-69576024D01*
X142809908Y-69516858D01*
X142900556Y-69427052D01*
X142978421Y-69317755D01*
X143024909Y-69223865D01*
X143044662Y-69169937D01*
X143058466Y-69118093D01*
X143067383Y-69059010D01*
X143072477Y-68983365D01*
X143074810Y-68881838D01*
X143075392Y-68781083D01*
X143075045Y-68654015D01*
X143072643Y-68559672D01*
X143067102Y-68488457D01*
X143057338Y-68430773D01*
X143042267Y-68377023D01*
X143023999Y-68326000D01*
X142948134Y-68177380D01*
X142846757Y-68061781D01*
X142722239Y-67980742D01*
X142576951Y-67935802D01*
X142413264Y-67928499D01*
X142411793Y-67928603D01*
X142260173Y-67955595D01*
X142132899Y-68014614D01*
X142034771Y-68096603D01*
X141950470Y-68211811D01*
X141887286Y-68354054D01*
X141845113Y-68515572D01*
X141823847Y-68688608D01*
X141823382Y-68865403D01*
X141145109Y-68865403D01*
X141140795Y-68740101D01*
X141151463Y-68547484D01*
X141168214Y-68431833D01*
X141230100Y-68209072D01*
X141326314Y-68010244D01*
X141454942Y-67837403D01*
X141614070Y-67692600D01*
X141801785Y-67577891D01*
X142016173Y-67495329D01*
X142049500Y-67486111D01*
X142161838Y-67465461D01*
X142301774Y-67453055D01*
X142455736Y-67448869D01*
X142610150Y-67452875D01*
G37*
X142610150Y-67452875D02*
X142751443Y-67465047D01*
X142866043Y-67485360D01*
X142875000Y-67487699D01*
X143095075Y-67566143D01*
X143284771Y-67674056D01*
X143444041Y-67811379D01*
X143572837Y-67978050D01*
X143671114Y-68174010D01*
X143738825Y-68399197D01*
X143775922Y-68653552D01*
X143775965Y-68654083D01*
X143777691Y-68901842D01*
X143743008Y-69136222D01*
X143673481Y-69353835D01*
X143570673Y-69551290D01*
X143436147Y-69725197D01*
X143271466Y-69872166D01*
X143188312Y-69928380D01*
X143063805Y-70005230D01*
X143134754Y-70081073D01*
X143176572Y-70126319D01*
X143238486Y-70193986D01*
X143312257Y-70275043D01*
X143389647Y-70360458D01*
X143392208Y-70363292D01*
X143578713Y-70569667D01*
X142941690Y-70569667D01*
X142736230Y-70339777D01*
X142530771Y-70109888D01*
X142337760Y-70097504D01*
X142091814Y-70064423D01*
X141871034Y-69998904D01*
X141676690Y-69901860D01*
X141510056Y-69774201D01*
X141372404Y-69616837D01*
X141265006Y-69430679D01*
X141210745Y-69290725D01*
X141171177Y-69126700D01*
X141147613Y-68938166D01*
X141145109Y-68865403D01*
X141823382Y-68865403D01*
X141843611Y-69038199D01*
X141884430Y-69199239D01*
X141945732Y-69340763D01*
X142027413Y-69455013D01*
X142053609Y-69480777D01*
X142175547Y-69563549D01*
X142316610Y-69613344D01*
X142467855Y-69628878D01*
X142620341Y-69608864D01*
X142716250Y-69576024D01*
X142809908Y-69516858D01*
X142900556Y-69427052D01*
X142978421Y-69317755D01*
X143024909Y-69223865D01*
X143044662Y-69169937D01*
X143058466Y-69118093D01*
X143067383Y-69059010D01*
X143072477Y-68983365D01*
X143074810Y-68881838D01*
X143075392Y-68781083D01*
X143075045Y-68654015D01*
X143072643Y-68559672D01*
X143067102Y-68488457D01*
X143057338Y-68430773D01*
X143042267Y-68377023D01*
X143023999Y-68326000D01*
X142948134Y-68177380D01*
X142846757Y-68061781D01*
X142722239Y-67980742D01*
X142576951Y-67935802D01*
X142413264Y-67928499D01*
X142411793Y-67928603D01*
X142260173Y-67955595D01*
X142132899Y-68014614D01*
X142034771Y-68096603D01*
X141950470Y-68211811D01*
X141887286Y-68354054D01*
X141845113Y-68515572D01*
X141823847Y-68688608D01*
X141823382Y-68865403D01*
X141145109Y-68865403D01*
X141140795Y-68740101D01*
X141151463Y-68547484D01*
X141168214Y-68431833D01*
X141230100Y-68209072D01*
X141326314Y-68010244D01*
X141454942Y-67837403D01*
X141614070Y-67692600D01*
X141801785Y-67577891D01*
X142016173Y-67495329D01*
X142049500Y-67486111D01*
X142161838Y-67465461D01*
X142301774Y-67453055D01*
X142455736Y-67448869D01*
X142610150Y-67452875D01*
G36*
X132017643Y-67456774D02*
G01*
X132230177Y-67480303D01*
X132445337Y-67516862D01*
X132529792Y-67534929D01*
X132672667Y-67567393D01*
X132672667Y-68111376D01*
X132505932Y-68050525D01*
X132323401Y-67993330D01*
X132139858Y-67953147D01*
X131962928Y-67930571D01*
X131800240Y-67926200D01*
X131659423Y-67940628D01*
X131548103Y-67974453D01*
X131545872Y-67975501D01*
X131469931Y-68031050D01*
X131424132Y-68105115D01*
X131409522Y-68187889D01*
X131427148Y-68269563D01*
X131478057Y-68340331D01*
X131504683Y-68361214D01*
X131560416Y-68388915D01*
X131641225Y-68417543D01*
X131730397Y-68441245D01*
X131737516Y-68442779D01*
X131960670Y-68492185D01*
X132146034Y-68538554D01*
X132297902Y-68583429D01*
X132420569Y-68628350D01*
X132518330Y-68674862D01*
X132595479Y-68724505D01*
X132647167Y-68769423D01*
X132740652Y-68892342D01*
X132802158Y-69040209D01*
X132830607Y-69209038D01*
X132824920Y-69394842D01*
X132822132Y-69416376D01*
X132780287Y-69598327D01*
X132708830Y-69750790D01*
X132606640Y-69874923D01*
X132472599Y-69971887D01*
X132305586Y-70042839D01*
X132187302Y-70073788D01*
X132112455Y-70084490D01*
X132007524Y-70092783D01*
X131884703Y-70098395D01*
X131756187Y-70101053D01*
X131634171Y-70100485D01*
X131530851Y-70096417D01*
X131466167Y-70089901D01*
X131361998Y-70070766D01*
X131236349Y-70043717D01*
X131108067Y-70013111D01*
X130995997Y-69983305D01*
X130963458Y-69973674D01*
X130831167Y-69932966D01*
X130831167Y-69656385D01*
X130832102Y-69538949D01*
X130835237Y-69458874D01*
X130841061Y-69411223D01*
X130850065Y-69391058D01*
X130857625Y-69390257D01*
X130887900Y-69402602D01*
X130947025Y-69426991D01*
X131024766Y-69459196D01*
X131068240Y-69477249D01*
X131266042Y-69550316D01*
X131447728Y-69596577D01*
X131627196Y-69619080D01*
X131730750Y-69622435D01*
X131891610Y-69613463D01*
X132015999Y-69584775D01*
X132105360Y-69535485D01*
X132161137Y-69464706D01*
X132184774Y-69371552D01*
X132185833Y-69343137D01*
X132176609Y-69259410D01*
X132146517Y-69202092D01*
X132142886Y-69198050D01*
X132114497Y-69169859D01*
X132083319Y-69145868D01*
X132043908Y-69124180D01*
X131990816Y-69102897D01*
X131918598Y-69080120D01*
X131821808Y-69053951D01*
X131695001Y-69022492D01*
X131532729Y-68983844D01*
X131519083Y-68980628D01*
X131311322Y-68919381D01*
X131141762Y-68841663D01*
X131008956Y-68745831D01*
X130911452Y-68630242D01*
X130847803Y-68493252D01*
X130816557Y-68333217D01*
X130814208Y-68181416D01*
X130838732Y-68000520D01*
X130893875Y-67847204D01*
X130981463Y-67719102D01*
X131103325Y-67613851D01*
X131261289Y-67529085D01*
X131342792Y-67497637D01*
X131470311Y-67466706D01*
X131630260Y-67449741D01*
X131815188Y-67446509D01*
X132017643Y-67456774D01*
G37*
X132017643Y-67456774D02*
X132230177Y-67480303D01*
X132445337Y-67516862D01*
X132529792Y-67534929D01*
X132672667Y-67567393D01*
X132672667Y-68111376D01*
X132505932Y-68050525D01*
X132323401Y-67993330D01*
X132139858Y-67953147D01*
X131962928Y-67930571D01*
X131800240Y-67926200D01*
X131659423Y-67940628D01*
X131548103Y-67974453D01*
X131545872Y-67975501D01*
X131469931Y-68031050D01*
X131424132Y-68105115D01*
X131409522Y-68187889D01*
X131427148Y-68269563D01*
X131478057Y-68340331D01*
X131504683Y-68361214D01*
X131560416Y-68388915D01*
X131641225Y-68417543D01*
X131730397Y-68441245D01*
X131737516Y-68442779D01*
X131960670Y-68492185D01*
X132146034Y-68538554D01*
X132297902Y-68583429D01*
X132420569Y-68628350D01*
X132518330Y-68674862D01*
X132595479Y-68724505D01*
X132647167Y-68769423D01*
X132740652Y-68892342D01*
X132802158Y-69040209D01*
X132830607Y-69209038D01*
X132824920Y-69394842D01*
X132822132Y-69416376D01*
X132780287Y-69598327D01*
X132708830Y-69750790D01*
X132606640Y-69874923D01*
X132472599Y-69971887D01*
X132305586Y-70042839D01*
X132187302Y-70073788D01*
X132112455Y-70084490D01*
X132007524Y-70092783D01*
X131884703Y-70098395D01*
X131756187Y-70101053D01*
X131634171Y-70100485D01*
X131530851Y-70096417D01*
X131466167Y-70089901D01*
X131361998Y-70070766D01*
X131236349Y-70043717D01*
X131108067Y-70013111D01*
X130995997Y-69983305D01*
X130963458Y-69973674D01*
X130831167Y-69932966D01*
X130831167Y-69656385D01*
X130832102Y-69538949D01*
X130835237Y-69458874D01*
X130841061Y-69411223D01*
X130850065Y-69391058D01*
X130857625Y-69390257D01*
X130887900Y-69402602D01*
X130947025Y-69426991D01*
X131024766Y-69459196D01*
X131068240Y-69477249D01*
X131266042Y-69550316D01*
X131447728Y-69596577D01*
X131627196Y-69619080D01*
X131730750Y-69622435D01*
X131891610Y-69613463D01*
X132015999Y-69584775D01*
X132105360Y-69535485D01*
X132161137Y-69464706D01*
X132184774Y-69371552D01*
X132185833Y-69343137D01*
X132176609Y-69259410D01*
X132146517Y-69202092D01*
X132142886Y-69198050D01*
X132114497Y-69169859D01*
X132083319Y-69145868D01*
X132043908Y-69124180D01*
X131990816Y-69102897D01*
X131918598Y-69080120D01*
X131821808Y-69053951D01*
X131695001Y-69022492D01*
X131532729Y-68983844D01*
X131519083Y-68980628D01*
X131311322Y-68919381D01*
X131141762Y-68841663D01*
X131008956Y-68745831D01*
X130911452Y-68630242D01*
X130847803Y-68493252D01*
X130816557Y-68333217D01*
X130814208Y-68181416D01*
X130838732Y-68000520D01*
X130893875Y-67847204D01*
X130981463Y-67719102D01*
X131103325Y-67613851D01*
X131261289Y-67529085D01*
X131342792Y-67497637D01*
X131470311Y-67466706D01*
X131630260Y-67449741D01*
X131815188Y-67446509D01*
X132017643Y-67456774D01*
G36*
X128518708Y-68774381D02*
G01*
X128662394Y-68779909D01*
X128771043Y-68788929D01*
X128851923Y-68803452D01*
X128912303Y-68825487D01*
X128959455Y-68857046D01*
X129000646Y-68900138D01*
X129008408Y-68909808D01*
X129054066Y-68996447D01*
X129069467Y-69093020D01*
X129056063Y-69188186D01*
X129015305Y-69270604D01*
X128955255Y-69325208D01*
X128880908Y-69369074D01*
X128959542Y-69413745D01*
X129044791Y-69482336D01*
X129095361Y-69572834D01*
X129112530Y-69687890D01*
X129111295Y-69728576D01*
X129092434Y-69838981D01*
X129048325Y-69921484D01*
X128972701Y-69986020D01*
X128935550Y-70007297D01*
X128896921Y-70024769D01*
X128852786Y-70037396D01*
X128795072Y-70046193D01*
X128715704Y-70052171D01*
X128606610Y-70056343D01*
X128529292Y-70058275D01*
X128206500Y-70065466D01*
X128206500Y-69447833D01*
X128375833Y-69447833D01*
X128375833Y-69917353D01*
X128597650Y-69910135D01*
X128698349Y-69906120D01*
X128766350Y-69900453D01*
X128811284Y-69890963D01*
X128842784Y-69875476D01*
X128870481Y-69851820D01*
X128874685Y-69847651D01*
X128918531Y-69777712D01*
X128933701Y-69693785D01*
X128922328Y-69607866D01*
X128886542Y-69531956D01*
X128828474Y-69478051D01*
X128807265Y-69468055D01*
X128762241Y-69458857D01*
X128688272Y-69451847D01*
X128598733Y-69448143D01*
X128564955Y-69447833D01*
X128375833Y-69447833D01*
X128206500Y-69447833D01*
X128206500Y-68918667D01*
X128375833Y-68918667D01*
X128375833Y-69303633D01*
X128585328Y-69296358D01*
X128688432Y-69291254D01*
X128758385Y-69283321D01*
X128804352Y-69270841D01*
X128835502Y-69252097D01*
X128839328Y-69248761D01*
X128870691Y-69196427D01*
X128884842Y-69122335D01*
X128879380Y-69044385D01*
X128870685Y-69014865D01*
X128832537Y-68968628D01*
X128758525Y-68937658D01*
X128647098Y-68921479D01*
X128556801Y-68918667D01*
X128375833Y-68918667D01*
X128206500Y-68918667D01*
X128206500Y-68765886D01*
X128518708Y-68774381D01*
G37*
X128518708Y-68774381D02*
X128662394Y-68779909D01*
X128771043Y-68788929D01*
X128851923Y-68803452D01*
X128912303Y-68825487D01*
X128959455Y-68857046D01*
X129000646Y-68900138D01*
X129008408Y-68909808D01*
X129054066Y-68996447D01*
X129069467Y-69093020D01*
X129056063Y-69188186D01*
X129015305Y-69270604D01*
X128955255Y-69325208D01*
X128880908Y-69369074D01*
X128959542Y-69413745D01*
X129044791Y-69482336D01*
X129095361Y-69572834D01*
X129112530Y-69687890D01*
X129111295Y-69728576D01*
X129092434Y-69838981D01*
X129048325Y-69921484D01*
X128972701Y-69986020D01*
X128935550Y-70007297D01*
X128896921Y-70024769D01*
X128852786Y-70037396D01*
X128795072Y-70046193D01*
X128715704Y-70052171D01*
X128606610Y-70056343D01*
X128529292Y-70058275D01*
X128206500Y-70065466D01*
X128206500Y-69447833D01*
X128375833Y-69447833D01*
X128375833Y-69917353D01*
X128597650Y-69910135D01*
X128698349Y-69906120D01*
X128766350Y-69900453D01*
X128811284Y-69890963D01*
X128842784Y-69875476D01*
X128870481Y-69851820D01*
X128874685Y-69847651D01*
X128918531Y-69777712D01*
X128933701Y-69693785D01*
X128922328Y-69607866D01*
X128886542Y-69531956D01*
X128828474Y-69478051D01*
X128807265Y-69468055D01*
X128762241Y-69458857D01*
X128688272Y-69451847D01*
X128598733Y-69448143D01*
X128564955Y-69447833D01*
X128375833Y-69447833D01*
X128206500Y-69447833D01*
X128206500Y-68918667D01*
X128375833Y-68918667D01*
X128375833Y-69303633D01*
X128585328Y-69296358D01*
X128688432Y-69291254D01*
X128758385Y-69283321D01*
X128804352Y-69270841D01*
X128835502Y-69252097D01*
X128839328Y-69248761D01*
X128870691Y-69196427D01*
X128884842Y-69122335D01*
X128879380Y-69044385D01*
X128870685Y-69014865D01*
X128832537Y-68968628D01*
X128758525Y-68937658D01*
X128647098Y-68921479D01*
X128556801Y-68918667D01*
X128375833Y-68918667D01*
X128206500Y-68918667D01*
X128206500Y-68765886D01*
X128518708Y-68774381D01*
G36*
X130185864Y-68772922D02*
G01*
X130215232Y-68778972D01*
X130217333Y-68781382D01*
X130206130Y-68801570D01*
X130174952Y-68851250D01*
X130127443Y-68924782D01*
X130067248Y-69016527D01*
X129998013Y-69120847D01*
X129995083Y-69125237D01*
X129772833Y-69458210D01*
X129772833Y-70061667D01*
X129603500Y-70061667D01*
X129603500Y-69446472D01*
X129381250Y-69121226D01*
X129311146Y-69017918D01*
X129250126Y-68926630D01*
X129201934Y-68853074D01*
X129170311Y-68802962D01*
X129159000Y-68782022D01*
X129177775Y-68774872D01*
X129225015Y-68773347D01*
X129248958Y-68774574D01*
X129284238Y-68778029D01*
X129312896Y-68786136D01*
X129340290Y-68804275D01*
X129371783Y-68837827D01*
X129412734Y-68892171D01*
X129468503Y-68972688D01*
X129515707Y-69042299D01*
X129692497Y-69303515D01*
X129870493Y-69037007D01*
X130048489Y-68770500D01*
X130132911Y-68770500D01*
X130185864Y-68772922D01*
G37*
X130185864Y-68772922D02*
X130215232Y-68778972D01*
X130217333Y-68781382D01*
X130206130Y-68801570D01*
X130174952Y-68851250D01*
X130127443Y-68924782D01*
X130067248Y-69016527D01*
X129998013Y-69120847D01*
X129995083Y-69125237D01*
X129772833Y-69458210D01*
X129772833Y-70061667D01*
X129603500Y-70061667D01*
X129603500Y-69446472D01*
X129381250Y-69121226D01*
X129311146Y-69017918D01*
X129250126Y-68926630D01*
X129201934Y-68853074D01*
X129170311Y-68802962D01*
X129159000Y-68782022D01*
X129177775Y-68774872D01*
X129225015Y-68773347D01*
X129248958Y-68774574D01*
X129284238Y-68778029D01*
X129312896Y-68786136D01*
X129340290Y-68804275D01*
X129371783Y-68837827D01*
X129412734Y-68892171D01*
X129468503Y-68972688D01*
X129515707Y-69042299D01*
X129692497Y-69303515D01*
X129870493Y-69037007D01*
X130048489Y-68770500D01*
X130132911Y-68770500D01*
X130185864Y-68772922D01*
G36*
X138260667Y-67875290D02*
G01*
X137764539Y-68963187D01*
X137268412Y-70051083D01*
X136949623Y-70056926D01*
X136838911Y-70058066D01*
X136744901Y-70057339D01*
X136674890Y-70054936D01*
X136636176Y-70051048D01*
X136630833Y-70048556D01*
X136639341Y-70027105D01*
X136663780Y-69970769D01*
X136702520Y-69883184D01*
X136753933Y-69767984D01*
X136816390Y-69628806D01*
X136888262Y-69469285D01*
X136967919Y-69293054D01*
X137053734Y-69103751D01*
X137088003Y-69028299D01*
X137176098Y-68834357D01*
X137259016Y-68651654D01*
X137335082Y-68483893D01*
X137402619Y-68334779D01*
X137459952Y-68208016D01*
X137505404Y-68107305D01*
X137537300Y-68036352D01*
X137553965Y-67998860D01*
X137555934Y-67994211D01*
X137552319Y-67985922D01*
X137531774Y-67979367D01*
X137490360Y-67974364D01*
X137424138Y-67970731D01*
X137329170Y-67968285D01*
X137201517Y-67966844D01*
X137037240Y-67966225D01*
X136950598Y-67966167D01*
X136334500Y-67966167D01*
X136334500Y-67479333D01*
X138260667Y-67479333D01*
X138260667Y-67875290D01*
G37*
X138260667Y-67875290D02*
X137764539Y-68963187D01*
X137268412Y-70051083D01*
X136949623Y-70056926D01*
X136838911Y-70058066D01*
X136744901Y-70057339D01*
X136674890Y-70054936D01*
X136636176Y-70051048D01*
X136630833Y-70048556D01*
X136639341Y-70027105D01*
X136663780Y-69970769D01*
X136702520Y-69883184D01*
X136753933Y-69767984D01*
X136816390Y-69628806D01*
X136888262Y-69469285D01*
X136967919Y-69293054D01*
X137053734Y-69103751D01*
X137088003Y-69028299D01*
X137176098Y-68834357D01*
X137259016Y-68651654D01*
X137335082Y-68483893D01*
X137402619Y-68334779D01*
X137459952Y-68208016D01*
X137505404Y-68107305D01*
X137537300Y-68036352D01*
X137553965Y-67998860D01*
X137555934Y-67994211D01*
X137552319Y-67985922D01*
X137531774Y-67979367D01*
X137490360Y-67974364D01*
X137424138Y-67970731D01*
X137329170Y-67968285D01*
X137201517Y-67966844D01*
X137037240Y-67966225D01*
X136950598Y-67966167D01*
X136334500Y-67966167D01*
X136334500Y-67479333D01*
X138260667Y-67479333D01*
X138260667Y-67875290D01*
G36*
X140652500Y-67987333D02*
G01*
X139530667Y-67987333D01*
X139530667Y-68474167D01*
X140589000Y-68474167D01*
X140589000Y-68960260D01*
X140065125Y-68965922D01*
X139541250Y-68971583D01*
X139529472Y-69553667D01*
X140694833Y-69553667D01*
X140694833Y-70061667D01*
X138874500Y-70061667D01*
X138874500Y-67479333D01*
X140652500Y-67479333D01*
X140652500Y-67987333D01*
G37*
X140652500Y-67987333D02*
X139530667Y-67987333D01*
X139530667Y-68474167D01*
X140589000Y-68474167D01*
X140589000Y-68960260D01*
X140065125Y-68965922D01*
X139541250Y-68971583D01*
X139529472Y-69553667D01*
X140694833Y-69553667D01*
X140694833Y-70061667D01*
X138874500Y-70061667D01*
X138874500Y-67479333D01*
X140652500Y-67479333D01*
X140652500Y-67987333D01*
G36*
X146071167Y-67987333D02*
G01*
X144949333Y-67987333D01*
X144949333Y-68474167D01*
X146007667Y-68474167D01*
X146007667Y-68961000D01*
X144949333Y-68961000D01*
X144949333Y-69553667D01*
X146113500Y-69553667D01*
X146113500Y-70061667D01*
X144271672Y-70061667D01*
X144277128Y-68775792D01*
X144282583Y-67489917D01*
X145176875Y-67484395D01*
X146071167Y-67478874D01*
X146071167Y-67987333D01*
G37*
X146071167Y-67987333D02*
X144949333Y-67987333D01*
X144949333Y-68474167D01*
X146007667Y-68474167D01*
X146007667Y-68961000D01*
X144949333Y-68961000D01*
X144949333Y-69553667D01*
X146113500Y-69553667D01*
X146113500Y-70061667D01*
X144271672Y-70061667D01*
X144277128Y-68775792D01*
X144282583Y-67489917D01*
X145176875Y-67484395D01*
X146071167Y-67478874D01*
X146071167Y-67987333D01*
%TD*%
D12*
%TO.P,J3,2*%
%TO.N,Net-(C2-Pad1)*%
X130810000Y-82550000D03*
X130810000Y-77470000D03*
D13*
X130810000Y-80010000D03*
D12*
%TO.P,J3,1*%
%TO.N,GND*%
X128270000Y-82550000D03*
X128270000Y-77470000D03*
D13*
X128270000Y-80010000D03*
%TD*%
D12*
%TO.P,J2,2*%
%TO.N,Net-(C2-Pad1)*%
X176530000Y-82550000D03*
X176530000Y-77470000D03*
D13*
X176530000Y-80010000D03*
D12*
%TO.P,J2,1*%
%TO.N,GND*%
X173990000Y-82550000D03*
X173990000Y-77470000D03*
D13*
X173990000Y-80010000D03*
%TD*%
D14*
%TO.P,J1,*%
%TO.N,*%
X154940000Y-66040000D03*
X149860000Y-66040000D03*
D15*
%TO.P,J1,2*%
%TO.N,Net-(D1-Pad2)*%
X149860000Y-71120000D03*
D16*
%TO.P,J1,1*%
%TO.N,GND*%
X154940000Y-71120000D03*
%TD*%
%TA.AperFunction,SMDPad,CuDef*%
D17*
%TO.P,C1,2*%
%TO.N,GND*%
G36*
X149064505Y-80461204D02*
G01*
X149088773Y-80464804D01*
X149112572Y-80470765D01*
X149135671Y-80479030D01*
X149157850Y-80489520D01*
X149178893Y-80502132D01*
X149198599Y-80516747D01*
X149216777Y-80533223D01*
X149233253Y-80551401D01*
X149247868Y-80571107D01*
X149260480Y-80592150D01*
X149270970Y-80614329D01*
X149279235Y-80637428D01*
X149285196Y-80661227D01*
X149288796Y-80685495D01*
X149290000Y-80709999D01*
X149290000Y-81360001D01*
X149288796Y-81384505D01*
X149285196Y-81408773D01*
X149279235Y-81432572D01*
X149270970Y-81455671D01*
X149260480Y-81477850D01*
X149247868Y-81498893D01*
X149233253Y-81518599D01*
X149216777Y-81536777D01*
X149198599Y-81553253D01*
X149178893Y-81567868D01*
X149157850Y-81580480D01*
X149135671Y-81590970D01*
X149112572Y-81599235D01*
X149088773Y-81605196D01*
X149064505Y-81608796D01*
X149040001Y-81610000D01*
X148139999Y-81610000D01*
X148115495Y-81608796D01*
X148091227Y-81605196D01*
X148067428Y-81599235D01*
X148044329Y-81590970D01*
X148022150Y-81580480D01*
X148001107Y-81567868D01*
X147981401Y-81553253D01*
X147963223Y-81536777D01*
X147946747Y-81518599D01*
X147932132Y-81498893D01*
X147919520Y-81477850D01*
X147909030Y-81455671D01*
X147900765Y-81432572D01*
X147894804Y-81408773D01*
X147891204Y-81384505D01*
X147890000Y-81360001D01*
X147890000Y-80709999D01*
X147891204Y-80685495D01*
X147894804Y-80661227D01*
X147900765Y-80637428D01*
X147909030Y-80614329D01*
X147919520Y-80592150D01*
X147932132Y-80571107D01*
X147946747Y-80551401D01*
X147963223Y-80533223D01*
X147981401Y-80516747D01*
X148001107Y-80502132D01*
X148022150Y-80489520D01*
X148044329Y-80479030D01*
X148067428Y-80470765D01*
X148091227Y-80464804D01*
X148115495Y-80461204D01*
X148139999Y-80460000D01*
X149040001Y-80460000D01*
X149064505Y-80461204D01*
G37*
%TD.AperFunction*%
%TA.AperFunction,SMDPad,CuDef*%
%TO.P,C1,1*%
%TO.N,Net-(C1-Pad1)*%
G36*
X149064505Y-78411204D02*
G01*
X149088773Y-78414804D01*
X149112572Y-78420765D01*
X149135671Y-78429030D01*
X149157850Y-78439520D01*
X149178893Y-78452132D01*
X149198599Y-78466747D01*
X149216777Y-78483223D01*
X149233253Y-78501401D01*
X149247868Y-78521107D01*
X149260480Y-78542150D01*
X149270970Y-78564329D01*
X149279235Y-78587428D01*
X149285196Y-78611227D01*
X149288796Y-78635495D01*
X149290000Y-78659999D01*
X149290000Y-79310001D01*
X149288796Y-79334505D01*
X149285196Y-79358773D01*
X149279235Y-79382572D01*
X149270970Y-79405671D01*
X149260480Y-79427850D01*
X149247868Y-79448893D01*
X149233253Y-79468599D01*
X149216777Y-79486777D01*
X149198599Y-79503253D01*
X149178893Y-79517868D01*
X149157850Y-79530480D01*
X149135671Y-79540970D01*
X149112572Y-79549235D01*
X149088773Y-79555196D01*
X149064505Y-79558796D01*
X149040001Y-79560000D01*
X148139999Y-79560000D01*
X148115495Y-79558796D01*
X148091227Y-79555196D01*
X148067428Y-79549235D01*
X148044329Y-79540970D01*
X148022150Y-79530480D01*
X148001107Y-79517868D01*
X147981401Y-79503253D01*
X147963223Y-79486777D01*
X147946747Y-79468599D01*
X147932132Y-79448893D01*
X147919520Y-79427850D01*
X147909030Y-79405671D01*
X147900765Y-79382572D01*
X147894804Y-79358773D01*
X147891204Y-79334505D01*
X147890000Y-79310001D01*
X147890000Y-78659999D01*
X147891204Y-78635495D01*
X147894804Y-78611227D01*
X147900765Y-78587428D01*
X147909030Y-78564329D01*
X147919520Y-78542150D01*
X147932132Y-78521107D01*
X147946747Y-78501401D01*
X147963223Y-78483223D01*
X147981401Y-78466747D01*
X148001107Y-78452132D01*
X148022150Y-78439520D01*
X148044329Y-78429030D01*
X148067428Y-78420765D01*
X148091227Y-78414804D01*
X148115495Y-78411204D01*
X148139999Y-78410000D01*
X149040001Y-78410000D01*
X149064505Y-78411204D01*
G37*
%TD.AperFunction*%
%TD*%
%TA.AperFunction,SMDPad,CuDef*%
%TO.P,C2,2*%
%TO.N,GND*%
G36*
X136364505Y-78411204D02*
G01*
X136388773Y-78414804D01*
X136412572Y-78420765D01*
X136435671Y-78429030D01*
X136457850Y-78439520D01*
X136478893Y-78452132D01*
X136498599Y-78466747D01*
X136516777Y-78483223D01*
X136533253Y-78501401D01*
X136547868Y-78521107D01*
X136560480Y-78542150D01*
X136570970Y-78564329D01*
X136579235Y-78587428D01*
X136585196Y-78611227D01*
X136588796Y-78635495D01*
X136590000Y-78659999D01*
X136590000Y-79310001D01*
X136588796Y-79334505D01*
X136585196Y-79358773D01*
X136579235Y-79382572D01*
X136570970Y-79405671D01*
X136560480Y-79427850D01*
X136547868Y-79448893D01*
X136533253Y-79468599D01*
X136516777Y-79486777D01*
X136498599Y-79503253D01*
X136478893Y-79517868D01*
X136457850Y-79530480D01*
X136435671Y-79540970D01*
X136412572Y-79549235D01*
X136388773Y-79555196D01*
X136364505Y-79558796D01*
X136340001Y-79560000D01*
X135439999Y-79560000D01*
X135415495Y-79558796D01*
X135391227Y-79555196D01*
X135367428Y-79549235D01*
X135344329Y-79540970D01*
X135322150Y-79530480D01*
X135301107Y-79517868D01*
X135281401Y-79503253D01*
X135263223Y-79486777D01*
X135246747Y-79468599D01*
X135232132Y-79448893D01*
X135219520Y-79427850D01*
X135209030Y-79405671D01*
X135200765Y-79382572D01*
X135194804Y-79358773D01*
X135191204Y-79334505D01*
X135190000Y-79310001D01*
X135190000Y-78659999D01*
X135191204Y-78635495D01*
X135194804Y-78611227D01*
X135200765Y-78587428D01*
X135209030Y-78564329D01*
X135219520Y-78542150D01*
X135232132Y-78521107D01*
X135246747Y-78501401D01*
X135263223Y-78483223D01*
X135281401Y-78466747D01*
X135301107Y-78452132D01*
X135322150Y-78439520D01*
X135344329Y-78429030D01*
X135367428Y-78420765D01*
X135391227Y-78414804D01*
X135415495Y-78411204D01*
X135439999Y-78410000D01*
X136340001Y-78410000D01*
X136364505Y-78411204D01*
G37*
%TD.AperFunction*%
%TA.AperFunction,SMDPad,CuDef*%
%TO.P,C2,1*%
%TO.N,Net-(C2-Pad1)*%
G36*
X136364505Y-80461204D02*
G01*
X136388773Y-80464804D01*
X136412572Y-80470765D01*
X136435671Y-80479030D01*
X136457850Y-80489520D01*
X136478893Y-80502132D01*
X136498599Y-80516747D01*
X136516777Y-80533223D01*
X136533253Y-80551401D01*
X136547868Y-80571107D01*
X136560480Y-80592150D01*
X136570970Y-80614329D01*
X136579235Y-80637428D01*
X136585196Y-80661227D01*
X136588796Y-80685495D01*
X136590000Y-80709999D01*
X136590000Y-81360001D01*
X136588796Y-81384505D01*
X136585196Y-81408773D01*
X136579235Y-81432572D01*
X136570970Y-81455671D01*
X136560480Y-81477850D01*
X136547868Y-81498893D01*
X136533253Y-81518599D01*
X136516777Y-81536777D01*
X136498599Y-81553253D01*
X136478893Y-81567868D01*
X136457850Y-81580480D01*
X136435671Y-81590970D01*
X136412572Y-81599235D01*
X136388773Y-81605196D01*
X136364505Y-81608796D01*
X136340001Y-81610000D01*
X135439999Y-81610000D01*
X135415495Y-81608796D01*
X135391227Y-81605196D01*
X135367428Y-81599235D01*
X135344329Y-81590970D01*
X135322150Y-81580480D01*
X135301107Y-81567868D01*
X135281401Y-81553253D01*
X135263223Y-81536777D01*
X135246747Y-81518599D01*
X135232132Y-81498893D01*
X135219520Y-81477850D01*
X135209030Y-81455671D01*
X135200765Y-81432572D01*
X135194804Y-81408773D01*
X135191204Y-81384505D01*
X135190000Y-81360001D01*
X135190000Y-80709999D01*
X135191204Y-80685495D01*
X135194804Y-80661227D01*
X135200765Y-80637428D01*
X135209030Y-80614329D01*
X135219520Y-80592150D01*
X135232132Y-80571107D01*
X135246747Y-80551401D01*
X135263223Y-80533223D01*
X135281401Y-80516747D01*
X135301107Y-80502132D01*
X135322150Y-80489520D01*
X135344329Y-80479030D01*
X135367428Y-80470765D01*
X135391227Y-80464804D01*
X135415495Y-80461204D01*
X135439999Y-80460000D01*
X136340001Y-80460000D01*
X136364505Y-80461204D01*
G37*
%TD.AperFunction*%
%TD*%
%TA.AperFunction,SMDPad,CuDef*%
%TO.P,D1,2*%
%TO.N,Net-(D1-Pad2)*%
G36*
X155862504Y-80406204D02*
G01*
X155886773Y-80409804D01*
X155910571Y-80415765D01*
X155933671Y-80424030D01*
X155955849Y-80434520D01*
X155976893Y-80447133D01*
X155996598Y-80461747D01*
X156014777Y-80478223D01*
X156031253Y-80496402D01*
X156045867Y-80516107D01*
X156058480Y-80537151D01*
X156068970Y-80559329D01*
X156077235Y-80582429D01*
X156083196Y-80606227D01*
X156086796Y-80630496D01*
X156088000Y-80655000D01*
X156088000Y-81905000D01*
X156086796Y-81929504D01*
X156083196Y-81953773D01*
X156077235Y-81977571D01*
X156068970Y-82000671D01*
X156058480Y-82022849D01*
X156045867Y-82043893D01*
X156031253Y-82063598D01*
X156014777Y-82081777D01*
X155996598Y-82098253D01*
X155976893Y-82112867D01*
X155955849Y-82125480D01*
X155933671Y-82135970D01*
X155910571Y-82144235D01*
X155886773Y-82150196D01*
X155862504Y-82153796D01*
X155838000Y-82155000D01*
X154913000Y-82155000D01*
X154888496Y-82153796D01*
X154864227Y-82150196D01*
X154840429Y-82144235D01*
X154817329Y-82135970D01*
X154795151Y-82125480D01*
X154774107Y-82112867D01*
X154754402Y-82098253D01*
X154736223Y-82081777D01*
X154719747Y-82063598D01*
X154705133Y-82043893D01*
X154692520Y-82022849D01*
X154682030Y-82000671D01*
X154673765Y-81977571D01*
X154667804Y-81953773D01*
X154664204Y-81929504D01*
X154663000Y-81905000D01*
X154663000Y-80655000D01*
X154664204Y-80630496D01*
X154667804Y-80606227D01*
X154673765Y-80582429D01*
X154682030Y-80559329D01*
X154692520Y-80537151D01*
X154705133Y-80516107D01*
X154719747Y-80496402D01*
X154736223Y-80478223D01*
X154754402Y-80461747D01*
X154774107Y-80447133D01*
X154795151Y-80434520D01*
X154817329Y-80424030D01*
X154840429Y-80415765D01*
X154864227Y-80409804D01*
X154888496Y-80406204D01*
X154913000Y-80405000D01*
X155838000Y-80405000D01*
X155862504Y-80406204D01*
G37*
%TD.AperFunction*%
%TA.AperFunction,SMDPad,CuDef*%
%TO.P,D1,1*%
%TO.N,Net-(C1-Pad1)*%
G36*
X152887504Y-80406204D02*
G01*
X152911773Y-80409804D01*
X152935571Y-80415765D01*
X152958671Y-80424030D01*
X152980849Y-80434520D01*
X153001893Y-80447133D01*
X153021598Y-80461747D01*
X153039777Y-80478223D01*
X153056253Y-80496402D01*
X153070867Y-80516107D01*
X153083480Y-80537151D01*
X153093970Y-80559329D01*
X153102235Y-80582429D01*
X153108196Y-80606227D01*
X153111796Y-80630496D01*
X153113000Y-80655000D01*
X153113000Y-81905000D01*
X153111796Y-81929504D01*
X153108196Y-81953773D01*
X153102235Y-81977571D01*
X153093970Y-82000671D01*
X153083480Y-82022849D01*
X153070867Y-82043893D01*
X153056253Y-82063598D01*
X153039777Y-82081777D01*
X153021598Y-82098253D01*
X153001893Y-82112867D01*
X152980849Y-82125480D01*
X152958671Y-82135970D01*
X152935571Y-82144235D01*
X152911773Y-82150196D01*
X152887504Y-82153796D01*
X152863000Y-82155000D01*
X151938000Y-82155000D01*
X151913496Y-82153796D01*
X151889227Y-82150196D01*
X151865429Y-82144235D01*
X151842329Y-82135970D01*
X151820151Y-82125480D01*
X151799107Y-82112867D01*
X151779402Y-82098253D01*
X151761223Y-82081777D01*
X151744747Y-82063598D01*
X151730133Y-82043893D01*
X151717520Y-82022849D01*
X151707030Y-82000671D01*
X151698765Y-81977571D01*
X151692804Y-81953773D01*
X151689204Y-81929504D01*
X151688000Y-81905000D01*
X151688000Y-80655000D01*
X151689204Y-80630496D01*
X151692804Y-80606227D01*
X151698765Y-80582429D01*
X151707030Y-80559329D01*
X151717520Y-80537151D01*
X151730133Y-80516107D01*
X151744747Y-80496402D01*
X151761223Y-80478223D01*
X151779402Y-80461747D01*
X151799107Y-80447133D01*
X151820151Y-80434520D01*
X151842329Y-80424030D01*
X151865429Y-80415765D01*
X151889227Y-80409804D01*
X151913496Y-80406204D01*
X151938000Y-80405000D01*
X152863000Y-80405000D01*
X152887504Y-80406204D01*
G37*
%TD.AperFunction*%
%TD*%
%TA.AperFunction,SMDPad,CuDef*%
%TO.P,D2,2*%
%TO.N,Net-(C2-Pad1)*%
G36*
X167019504Y-79516204D02*
G01*
X167043773Y-79519804D01*
X167067571Y-79525765D01*
X167090671Y-79534030D01*
X167112849Y-79544520D01*
X167133893Y-79557133D01*
X167153598Y-79571747D01*
X167171777Y-79588223D01*
X167188253Y-79606402D01*
X167202867Y-79626107D01*
X167215480Y-79647151D01*
X167225970Y-79669329D01*
X167234235Y-79692429D01*
X167240196Y-79716227D01*
X167243796Y-79740496D01*
X167245000Y-79765000D01*
X167245000Y-80690000D01*
X167243796Y-80714504D01*
X167240196Y-80738773D01*
X167234235Y-80762571D01*
X167225970Y-80785671D01*
X167215480Y-80807849D01*
X167202867Y-80828893D01*
X167188253Y-80848598D01*
X167171777Y-80866777D01*
X167153598Y-80883253D01*
X167133893Y-80897867D01*
X167112849Y-80910480D01*
X167090671Y-80920970D01*
X167067571Y-80929235D01*
X167043773Y-80935196D01*
X167019504Y-80938796D01*
X166995000Y-80940000D01*
X165745000Y-80940000D01*
X165720496Y-80938796D01*
X165696227Y-80935196D01*
X165672429Y-80929235D01*
X165649329Y-80920970D01*
X165627151Y-80910480D01*
X165606107Y-80897867D01*
X165586402Y-80883253D01*
X165568223Y-80866777D01*
X165551747Y-80848598D01*
X165537133Y-80828893D01*
X165524520Y-80807849D01*
X165514030Y-80785671D01*
X165505765Y-80762571D01*
X165499804Y-80738773D01*
X165496204Y-80714504D01*
X165495000Y-80690000D01*
X165495000Y-79765000D01*
X165496204Y-79740496D01*
X165499804Y-79716227D01*
X165505765Y-79692429D01*
X165514030Y-79669329D01*
X165524520Y-79647151D01*
X165537133Y-79626107D01*
X165551747Y-79606402D01*
X165568223Y-79588223D01*
X165586402Y-79571747D01*
X165606107Y-79557133D01*
X165627151Y-79544520D01*
X165649329Y-79534030D01*
X165672429Y-79525765D01*
X165696227Y-79519804D01*
X165720496Y-79516204D01*
X165745000Y-79515000D01*
X166995000Y-79515000D01*
X167019504Y-79516204D01*
G37*
%TD.AperFunction*%
%TA.AperFunction,SMDPad,CuDef*%
%TO.P,D2,1*%
%TO.N,Net-(D2-Pad1)*%
G36*
X167019504Y-76541204D02*
G01*
X167043773Y-76544804D01*
X167067571Y-76550765D01*
X167090671Y-76559030D01*
X167112849Y-76569520D01*
X167133893Y-76582133D01*
X167153598Y-76596747D01*
X167171777Y-76613223D01*
X167188253Y-76631402D01*
X167202867Y-76651107D01*
X167215480Y-76672151D01*
X167225970Y-76694329D01*
X167234235Y-76717429D01*
X167240196Y-76741227D01*
X167243796Y-76765496D01*
X167245000Y-76790000D01*
X167245000Y-77715000D01*
X167243796Y-77739504D01*
X167240196Y-77763773D01*
X167234235Y-77787571D01*
X167225970Y-77810671D01*
X167215480Y-77832849D01*
X167202867Y-77853893D01*
X167188253Y-77873598D01*
X167171777Y-77891777D01*
X167153598Y-77908253D01*
X167133893Y-77922867D01*
X167112849Y-77935480D01*
X167090671Y-77945970D01*
X167067571Y-77954235D01*
X167043773Y-77960196D01*
X167019504Y-77963796D01*
X166995000Y-77965000D01*
X165745000Y-77965000D01*
X165720496Y-77963796D01*
X165696227Y-77960196D01*
X165672429Y-77954235D01*
X165649329Y-77945970D01*
X165627151Y-77935480D01*
X165606107Y-77922867D01*
X165586402Y-77908253D01*
X165568223Y-77891777D01*
X165551747Y-77873598D01*
X165537133Y-77853893D01*
X165524520Y-77832849D01*
X165514030Y-77810671D01*
X165505765Y-77787571D01*
X165499804Y-77763773D01*
X165496204Y-77739504D01*
X165495000Y-77715000D01*
X165495000Y-76790000D01*
X165496204Y-76765496D01*
X165499804Y-76741227D01*
X165505765Y-76717429D01*
X165514030Y-76694329D01*
X165524520Y-76672151D01*
X165537133Y-76651107D01*
X165551747Y-76631402D01*
X165568223Y-76613223D01*
X165586402Y-76596747D01*
X165606107Y-76582133D01*
X165627151Y-76569520D01*
X165649329Y-76559030D01*
X165672429Y-76550765D01*
X165696227Y-76544804D01*
X165720496Y-76541204D01*
X165745000Y-76540000D01*
X166995000Y-76540000D01*
X167019504Y-76541204D01*
G37*
%TD.AperFunction*%
%TD*%
%TA.AperFunction,SMDPad,CuDef*%
%TO.P,R1,2*%
%TO.N,GND*%
G36*
X161939504Y-79516204D02*
G01*
X161963773Y-79519804D01*
X161987571Y-79525765D01*
X162010671Y-79534030D01*
X162032849Y-79544520D01*
X162053893Y-79557133D01*
X162073598Y-79571747D01*
X162091777Y-79588223D01*
X162108253Y-79606402D01*
X162122867Y-79626107D01*
X162135480Y-79647151D01*
X162145970Y-79669329D01*
X162154235Y-79692429D01*
X162160196Y-79716227D01*
X162163796Y-79740496D01*
X162165000Y-79765000D01*
X162165000Y-80690000D01*
X162163796Y-80714504D01*
X162160196Y-80738773D01*
X162154235Y-80762571D01*
X162145970Y-80785671D01*
X162135480Y-80807849D01*
X162122867Y-80828893D01*
X162108253Y-80848598D01*
X162091777Y-80866777D01*
X162073598Y-80883253D01*
X162053893Y-80897867D01*
X162032849Y-80910480D01*
X162010671Y-80920970D01*
X161987571Y-80929235D01*
X161963773Y-80935196D01*
X161939504Y-80938796D01*
X161915000Y-80940000D01*
X160665000Y-80940000D01*
X160640496Y-80938796D01*
X160616227Y-80935196D01*
X160592429Y-80929235D01*
X160569329Y-80920970D01*
X160547151Y-80910480D01*
X160526107Y-80897867D01*
X160506402Y-80883253D01*
X160488223Y-80866777D01*
X160471747Y-80848598D01*
X160457133Y-80828893D01*
X160444520Y-80807849D01*
X160434030Y-80785671D01*
X160425765Y-80762571D01*
X160419804Y-80738773D01*
X160416204Y-80714504D01*
X160415000Y-80690000D01*
X160415000Y-79765000D01*
X160416204Y-79740496D01*
X160419804Y-79716227D01*
X160425765Y-79692429D01*
X160434030Y-79669329D01*
X160444520Y-79647151D01*
X160457133Y-79626107D01*
X160471747Y-79606402D01*
X160488223Y-79588223D01*
X160506402Y-79571747D01*
X160526107Y-79557133D01*
X160547151Y-79544520D01*
X160569329Y-79534030D01*
X160592429Y-79525765D01*
X160616227Y-79519804D01*
X160640496Y-79516204D01*
X160665000Y-79515000D01*
X161915000Y-79515000D01*
X161939504Y-79516204D01*
G37*
%TD.AperFunction*%
%TA.AperFunction,SMDPad,CuDef*%
%TO.P,R1,1*%
%TO.N,Net-(D2-Pad1)*%
G36*
X161939504Y-76541204D02*
G01*
X161963773Y-76544804D01*
X161987571Y-76550765D01*
X162010671Y-76559030D01*
X162032849Y-76569520D01*
X162053893Y-76582133D01*
X162073598Y-76596747D01*
X162091777Y-76613223D01*
X162108253Y-76631402D01*
X162122867Y-76651107D01*
X162135480Y-76672151D01*
X162145970Y-76694329D01*
X162154235Y-76717429D01*
X162160196Y-76741227D01*
X162163796Y-76765496D01*
X162165000Y-76790000D01*
X162165000Y-77715000D01*
X162163796Y-77739504D01*
X162160196Y-77763773D01*
X162154235Y-77787571D01*
X162145970Y-77810671D01*
X162135480Y-77832849D01*
X162122867Y-77853893D01*
X162108253Y-77873598D01*
X162091777Y-77891777D01*
X162073598Y-77908253D01*
X162053893Y-77922867D01*
X162032849Y-77935480D01*
X162010671Y-77945970D01*
X161987571Y-77954235D01*
X161963773Y-77960196D01*
X161939504Y-77963796D01*
X161915000Y-77965000D01*
X160665000Y-77965000D01*
X160640496Y-77963796D01*
X160616227Y-77960196D01*
X160592429Y-77954235D01*
X160569329Y-77945970D01*
X160547151Y-77935480D01*
X160526107Y-77922867D01*
X160506402Y-77908253D01*
X160488223Y-77891777D01*
X160471747Y-77873598D01*
X160457133Y-77853893D01*
X160444520Y-77832849D01*
X160434030Y-77810671D01*
X160425765Y-77787571D01*
X160419804Y-77763773D01*
X160416204Y-77739504D01*
X160415000Y-77715000D01*
X160415000Y-76790000D01*
X160416204Y-76765496D01*
X160419804Y-76741227D01*
X160425765Y-76717429D01*
X160434030Y-76694329D01*
X160444520Y-76672151D01*
X160457133Y-76651107D01*
X160471747Y-76631402D01*
X160488223Y-76613223D01*
X160506402Y-76596747D01*
X160526107Y-76582133D01*
X160547151Y-76569520D01*
X160569329Y-76559030D01*
X160592429Y-76550765D01*
X160616227Y-76544804D01*
X160640496Y-76541204D01*
X160665000Y-76540000D01*
X161915000Y-76540000D01*
X161939504Y-76541204D01*
G37*
%TD.AperFunction*%
%TD*%
D18*
%TO.P,U1,1*%
%TO.N,GND*%
X139940000Y-80620000D03*
%TO.P,U1,3*%
%TO.N,Net-(C1-Pad1)*%
X144540000Y-80620000D03*
%TO.P,U1,2*%
%TO.N,Net-(C2-Pad1)*%
X142240000Y-80620000D03*
D19*
%TO.P,U1,4*%
%TO.N,N/C*%
X142240000Y-74320000D03*
%TD*%
D20*
%TO.N,Net-(C1-Pad1)*%
X152400500Y-81280000D02*
X150105500Y-78985000D01*
X150105500Y-78985000D02*
X148590000Y-78985000D01*
X144540000Y-80620000D02*
X145790000Y-80620000D01*
X145790000Y-80620000D02*
X147425000Y-78985000D01*
X147425000Y-78985000D02*
X148590000Y-78985000D01*
D21*
%TO.N,GND*%
X173990000Y-78740000D02*
X162777500Y-78740000D01*
X162777500Y-78740000D02*
X161290000Y-80227500D01*
X173990000Y-78740000D02*
X173990000Y-80010000D01*
X173990000Y-77470000D02*
X173990000Y-78740000D01*
X161290000Y-80227500D02*
X154940000Y-73877500D01*
X154940000Y-73877500D02*
X154940000Y-71120000D01*
X148590000Y-81035000D02*
X150322700Y-82767700D01*
X150322700Y-82767700D02*
X158749800Y-82767700D01*
X158749800Y-82767700D02*
X161290000Y-80227500D01*
X128270000Y-81889600D02*
X128270000Y-81942400D01*
X128270000Y-81942400D02*
X130252800Y-83925200D01*
X130252800Y-83925200D02*
X135234800Y-83925200D01*
X135234800Y-83925200D02*
X138540000Y-80620000D01*
X128270000Y-81889600D02*
X128270000Y-82550000D01*
X128270000Y-80010000D02*
X128270000Y-81889600D01*
X139940000Y-81995000D02*
X140165400Y-82220400D01*
X140165400Y-82220400D02*
X147404600Y-82220400D01*
X147404600Y-82220400D02*
X148590000Y-81035000D01*
X139940000Y-81445000D02*
X139940000Y-81995000D01*
X139940000Y-80620000D02*
X138540000Y-80620000D01*
X138540000Y-80620000D02*
X136905000Y-78985000D01*
X136905000Y-78985000D02*
X135890000Y-78985000D01*
X139940000Y-81445000D02*
X139940000Y-80620000D01*
X128270000Y-77470000D02*
X128270000Y-80010000D01*
X173990000Y-80010000D02*
X173990000Y-82550000D01*
D20*
%TO.N,Net-(C2-Pad1)*%
X134730500Y-77942200D02*
X134730500Y-79875500D01*
X134730500Y-79875500D02*
X135890000Y-81035000D01*
X130810000Y-77889400D02*
X134677700Y-77889400D01*
X134677700Y-77889400D02*
X134730500Y-77942200D01*
X142118100Y-77995000D02*
X142065300Y-77942200D01*
X142065300Y-77942200D02*
X134730500Y-77942200D01*
D21*
X130810000Y-80010000D02*
X130810000Y-82550000D01*
D20*
X176530000Y-77470000D02*
X168729500Y-69669500D01*
X168729500Y-69669500D02*
X149238800Y-69669500D01*
X149238800Y-69669500D02*
X147171100Y-71737200D01*
X147171100Y-71737200D02*
X147171100Y-72942000D01*
X147171100Y-72942000D02*
X142118100Y-77995000D01*
X142118100Y-77995000D02*
X142118100Y-78998100D01*
X142118100Y-78998100D02*
X142240000Y-79120000D01*
D21*
X176530000Y-77470000D02*
X176530000Y-80010000D01*
D20*
X142240000Y-80620000D02*
X142240000Y-79120000D01*
D21*
X130810000Y-77889400D02*
X130810000Y-80010000D01*
X130810000Y-77470000D02*
X130810000Y-77889400D01*
D20*
X176530000Y-82550000D02*
X175287300Y-83792700D01*
X175287300Y-83792700D02*
X169935200Y-83792700D01*
X169935200Y-83792700D02*
X166370000Y-80227500D01*
D21*
X176530000Y-80010000D02*
X176530000Y-82550000D01*
D20*
%TO.N,Net-(D1-Pad2)*%
X155375500Y-81280000D02*
X155375500Y-76635500D01*
X155375500Y-76635500D02*
X149860000Y-71120000D01*
%TO.N,Net-(D2-Pad1)*%
X161290000Y-77252500D02*
X166370000Y-77252500D01*
%TD*%
D22*
%TO.N,GND*%
G36*
X153305000Y-70834250D02*
G01*
X153463750Y-70993000D01*
X154813000Y-70993000D01*
X154813000Y-70973000D01*
X155067000Y-70973000D01*
X155067000Y-70993000D01*
X156416250Y-70993000D01*
X156575000Y-70834250D01*
X156576203Y-70554500D01*
X168362922Y-70554500D01*
X173881421Y-76073000D01*
X173852408Y-76073000D01*
X173582510Y-76126686D01*
X173328273Y-76231995D01*
X173099465Y-76384880D01*
X172904880Y-76579465D01*
X172751995Y-76808273D01*
X172646686Y-77062510D01*
X172593000Y-77332408D01*
X172593000Y-77607592D01*
X172646686Y-77877490D01*
X172751995Y-78131727D01*
X172904880Y-78360535D01*
X173099465Y-78555120D01*
X173187465Y-78613920D01*
X173103518Y-78622188D01*
X172983820Y-78658498D01*
X172873506Y-78717463D01*
X172776815Y-78796815D01*
X172697463Y-78893506D01*
X172638498Y-79003820D01*
X172602188Y-79123518D01*
X172589928Y-79248000D01*
X172589928Y-80772000D01*
X172602188Y-80896482D01*
X172638498Y-81016180D01*
X172697463Y-81126494D01*
X172776815Y-81223185D01*
X172873506Y-81302537D01*
X172983820Y-81361502D01*
X173103518Y-81397812D01*
X173187465Y-81406080D01*
X173099465Y-81464880D01*
X172904880Y-81659465D01*
X172751995Y-81888273D01*
X172646686Y-82142510D01*
X172593000Y-82412408D01*
X172593000Y-82687592D01*
X172636782Y-82907700D01*
X170301779Y-82907700D01*
X167883072Y-80488994D01*
X167883072Y-79765000D01*
X167866008Y-79591746D01*
X167815472Y-79425150D01*
X167733405Y-79271614D01*
X167622962Y-79137038D01*
X167488386Y-79026595D01*
X167334850Y-78944528D01*
X167168254Y-78893992D01*
X166995000Y-78876928D01*
X165745000Y-78876928D01*
X165571746Y-78893992D01*
X165405150Y-78944528D01*
X165251614Y-79026595D01*
X165117038Y-79137038D01*
X165006595Y-79271614D01*
X164924528Y-79425150D01*
X164873992Y-79591746D01*
X164856928Y-79765000D01*
X164856928Y-80690000D01*
X164873992Y-80863254D01*
X164924528Y-81029850D01*
X165006595Y-81183386D01*
X165117038Y-81317962D01*
X165251614Y-81428405D01*
X165405150Y-81510472D01*
X165571746Y-81561008D01*
X165745000Y-81578072D01*
X166468994Y-81578072D01*
X168583921Y-83693000D01*
X131613912Y-83693000D01*
X131700535Y-83635120D01*
X131895120Y-83440535D01*
X132048005Y-83211727D01*
X132153314Y-82957490D01*
X132207000Y-82687592D01*
X132207000Y-82412408D01*
X132153314Y-82142510D01*
X132048005Y-81888273D01*
X131895120Y-81659465D01*
X131845000Y-81609345D01*
X131845000Y-81346097D01*
X131926494Y-81302537D01*
X132023185Y-81223185D01*
X132102537Y-81126494D01*
X132161502Y-81016180D01*
X132197812Y-80896482D01*
X132210072Y-80772000D01*
X132210072Y-79248000D01*
X132197812Y-79123518D01*
X132161502Y-79003820D01*
X132102537Y-78893506D01*
X132023185Y-78796815D01*
X131995872Y-78774400D01*
X133845500Y-78774400D01*
X133845501Y-79832021D01*
X133841219Y-79875500D01*
X133858305Y-80048990D01*
X133908912Y-80215813D01*
X133991090Y-80369559D01*
X134073968Y-80470546D01*
X134073971Y-80470549D01*
X134101684Y-80504317D01*
X134135451Y-80532029D01*
X134551928Y-80948506D01*
X134551928Y-81360001D01*
X134568992Y-81533255D01*
X134619528Y-81699851D01*
X134701595Y-81853387D01*
X134812038Y-81987962D01*
X134946613Y-82098405D01*
X135100149Y-82180472D01*
X135266745Y-82231008D01*
X135439999Y-82248072D01*
X136340001Y-82248072D01*
X136513255Y-82231008D01*
X136679851Y-82180472D01*
X136833387Y-82098405D01*
X136967962Y-81987962D01*
X137078405Y-81853387D01*
X137160472Y-81699851D01*
X137184694Y-81620000D01*
X138551928Y-81620000D01*
X138564188Y-81744482D01*
X138600498Y-81864180D01*
X138659463Y-81974494D01*
X138738815Y-82071185D01*
X138835506Y-82150537D01*
X138945820Y-82209502D01*
X139065518Y-82245812D01*
X139190000Y-82258072D01*
X139654250Y-82255000D01*
X139813000Y-82096250D01*
X139813000Y-80747000D01*
X138713750Y-80747000D01*
X138555000Y-80905750D01*
X138551928Y-81620000D01*
X137184694Y-81620000D01*
X137211008Y-81533255D01*
X137228072Y-81360001D01*
X137228072Y-80709999D01*
X137211008Y-80536745D01*
X137160472Y-80370149D01*
X137078405Y-80216613D01*
X136967962Y-80082038D01*
X136961406Y-80076658D01*
X137041185Y-80011185D01*
X137120537Y-79914494D01*
X137179502Y-79804180D01*
X137215812Y-79684482D01*
X137222162Y-79620000D01*
X138551928Y-79620000D01*
X138555000Y-80334250D01*
X138713750Y-80493000D01*
X139813000Y-80493000D01*
X139813000Y-79143750D01*
X139654250Y-78985000D01*
X139190000Y-78981928D01*
X139065518Y-78994188D01*
X138945820Y-79030498D01*
X138835506Y-79089463D01*
X138738815Y-79168815D01*
X138659463Y-79265506D01*
X138600498Y-79375820D01*
X138564188Y-79495518D01*
X138551928Y-79620000D01*
X137222162Y-79620000D01*
X137228072Y-79560000D01*
X137225000Y-79270750D01*
X137066250Y-79112000D01*
X136017000Y-79112000D01*
X136017000Y-79132000D01*
X135763000Y-79132000D01*
X135763000Y-79112000D01*
X135743000Y-79112000D01*
X135743000Y-78858000D01*
X135763000Y-78858000D01*
X135763000Y-78838000D01*
X136017000Y-78838000D01*
X136017000Y-78858000D01*
X137066250Y-78858000D01*
X137097050Y-78827200D01*
X141233101Y-78827200D01*
X141233101Y-78954622D01*
X141228819Y-78998100D01*
X141232700Y-79037511D01*
X141135506Y-79089463D01*
X141090000Y-79126809D01*
X141044494Y-79089463D01*
X140934180Y-79030498D01*
X140814482Y-78994188D01*
X140690000Y-78981928D01*
X140225750Y-78985000D01*
X140067000Y-79143750D01*
X140067000Y-80493000D01*
X140087000Y-80493000D01*
X140087000Y-80747000D01*
X140067000Y-80747000D01*
X140067000Y-82096250D01*
X140225750Y-82255000D01*
X140690000Y-82258072D01*
X140814482Y-82245812D01*
X140934180Y-82209502D01*
X141044494Y-82150537D01*
X141090000Y-82113191D01*
X141135506Y-82150537D01*
X141245820Y-82209502D01*
X141365518Y-82245812D01*
X141490000Y-82258072D01*
X142990000Y-82258072D01*
X143114482Y-82245812D01*
X143234180Y-82209502D01*
X143344494Y-82150537D01*
X143390000Y-82113191D01*
X143435506Y-82150537D01*
X143545820Y-82209502D01*
X143665518Y-82245812D01*
X143790000Y-82258072D01*
X145290000Y-82258072D01*
X145414482Y-82245812D01*
X145534180Y-82209502D01*
X145644494Y-82150537D01*
X145741185Y-82071185D01*
X145820537Y-81974494D01*
X145879502Y-81864180D01*
X145915812Y-81744482D01*
X145928072Y-81620000D01*
X145928072Y-81610000D01*
X147251928Y-81610000D01*
X147264188Y-81734482D01*
X147300498Y-81854180D01*
X147359463Y-81964494D01*
X147438815Y-82061185D01*
X147535506Y-82140537D01*
X147645820Y-82199502D01*
X147765518Y-82235812D01*
X147890000Y-82248072D01*
X148304250Y-82245000D01*
X148463000Y-82086250D01*
X148463000Y-81162000D01*
X148717000Y-81162000D01*
X148717000Y-82086250D01*
X148875750Y-82245000D01*
X149290000Y-82248072D01*
X149414482Y-82235812D01*
X149534180Y-82199502D01*
X149644494Y-82140537D01*
X149741185Y-82061185D01*
X149820537Y-81964494D01*
X149879502Y-81854180D01*
X149915812Y-81734482D01*
X149928072Y-81610000D01*
X149925000Y-81320750D01*
X149766250Y-81162000D01*
X148717000Y-81162000D01*
X148463000Y-81162000D01*
X147413750Y-81162000D01*
X147255000Y-81320750D01*
X147251928Y-81610000D01*
X145928072Y-81610000D01*
X145928072Y-81495683D01*
X145963490Y-81492195D01*
X146130313Y-81441589D01*
X146284059Y-81359411D01*
X146418817Y-81248817D01*
X146446534Y-81215044D01*
X147257429Y-80404150D01*
X147251928Y-80460000D01*
X147255000Y-80749250D01*
X147413750Y-80908000D01*
X148463000Y-80908000D01*
X148463000Y-80888000D01*
X148717000Y-80888000D01*
X148717000Y-80908000D01*
X149766250Y-80908000D01*
X149925000Y-80749250D01*
X149928072Y-80460000D01*
X149915812Y-80335518D01*
X149879502Y-80215820D01*
X149820537Y-80105506D01*
X149741185Y-80008815D01*
X149661406Y-79943342D01*
X149667962Y-79937962D01*
X149723737Y-79870000D01*
X149738922Y-79870000D01*
X151049928Y-81181007D01*
X151049928Y-81905000D01*
X151066992Y-82078254D01*
X151117528Y-82244850D01*
X151199595Y-82398386D01*
X151310038Y-82532962D01*
X151444614Y-82643405D01*
X151598150Y-82725472D01*
X151764746Y-82776008D01*
X151938000Y-82793072D01*
X152863000Y-82793072D01*
X153036254Y-82776008D01*
X153202850Y-82725472D01*
X153356386Y-82643405D01*
X153490962Y-82532962D01*
X153601405Y-82398386D01*
X153683472Y-82244850D01*
X153734008Y-82078254D01*
X153751072Y-81905000D01*
X153751072Y-80655000D01*
X153734008Y-80481746D01*
X153683472Y-80315150D01*
X153601405Y-80161614D01*
X153490962Y-80027038D01*
X153356386Y-79916595D01*
X153202850Y-79834528D01*
X153036254Y-79783992D01*
X152863000Y-79766928D01*
X152139007Y-79766928D01*
X150762034Y-78389956D01*
X150734317Y-78356183D01*
X150599559Y-78245589D01*
X150445813Y-78163411D01*
X150278990Y-78112805D01*
X150148977Y-78100000D01*
X150148969Y-78100000D01*
X150105500Y-78095719D01*
X150062031Y-78100000D01*
X149723737Y-78100000D01*
X149667962Y-78032038D01*
X149533387Y-77921595D01*
X149379851Y-77839528D01*
X149213255Y-77788992D01*
X149040001Y-77771928D01*
X148139999Y-77771928D01*
X147966745Y-77788992D01*
X147800149Y-77839528D01*
X147646613Y-77921595D01*
X147512038Y-78032038D01*
X147457175Y-78098888D01*
X147424999Y-78095719D01*
X147381533Y-78100000D01*
X147381523Y-78100000D01*
X147251510Y-78112805D01*
X147084687Y-78163411D01*
X146930941Y-78245589D01*
X146930939Y-78245590D01*
X146930940Y-78245590D01*
X146829953Y-78328468D01*
X146829951Y-78328470D01*
X146796183Y-78356183D01*
X146768470Y-78389951D01*
X145845749Y-79312673D01*
X145820537Y-79265506D01*
X145741185Y-79168815D01*
X145644494Y-79089463D01*
X145534180Y-79030498D01*
X145414482Y-78994188D01*
X145290000Y-78981928D01*
X143790000Y-78981928D01*
X143665518Y-78994188D01*
X143545820Y-79030498D01*
X143435506Y-79089463D01*
X143390000Y-79126809D01*
X143344494Y-79089463D01*
X143234180Y-79030498D01*
X143116965Y-78994941D01*
X143112195Y-78946510D01*
X143061589Y-78779687D01*
X143003100Y-78670261D01*
X143003100Y-78361578D01*
X147766149Y-73598530D01*
X147799917Y-73570817D01*
X147827638Y-73537040D01*
X147889002Y-73462267D01*
X147910511Y-73436059D01*
X147992689Y-73282313D01*
X148043295Y-73115490D01*
X148056100Y-72985477D01*
X148056100Y-72985467D01*
X148060381Y-72942001D01*
X148056100Y-72898532D01*
X148056100Y-72103778D01*
X148368417Y-71791461D01*
X148411082Y-71894463D01*
X148590013Y-72162252D01*
X148817748Y-72389987D01*
X149085537Y-72568918D01*
X149383088Y-72692168D01*
X149698967Y-72755000D01*
X150021033Y-72755000D01*
X150206525Y-72718103D01*
X154490501Y-77002080D01*
X154490500Y-79878705D01*
X154419614Y-79916595D01*
X154285038Y-80027038D01*
X154174595Y-80161614D01*
X154092528Y-80315150D01*
X154041992Y-80481746D01*
X154024928Y-80655000D01*
X154024928Y-81905000D01*
X154041992Y-82078254D01*
X154092528Y-82244850D01*
X154174595Y-82398386D01*
X154285038Y-82532962D01*
X154419614Y-82643405D01*
X154573150Y-82725472D01*
X154739746Y-82776008D01*
X154913000Y-82793072D01*
X155838000Y-82793072D01*
X156011254Y-82776008D01*
X156177850Y-82725472D01*
X156331386Y-82643405D01*
X156465962Y-82532962D01*
X156576405Y-82398386D01*
X156658472Y-82244850D01*
X156709008Y-82078254D01*
X156726072Y-81905000D01*
X156726072Y-80940000D01*
X159776928Y-80940000D01*
X159789188Y-81064482D01*
X159825498Y-81184180D01*
X159884463Y-81294494D01*
X159963815Y-81391185D01*
X160060506Y-81470537D01*
X160170820Y-81529502D01*
X160290518Y-81565812D01*
X160415000Y-81578072D01*
X161004250Y-81575000D01*
X161163000Y-81416250D01*
X161163000Y-80354500D01*
X161417000Y-80354500D01*
X161417000Y-81416250D01*
X161575750Y-81575000D01*
X162165000Y-81578072D01*
X162289482Y-81565812D01*
X162409180Y-81529502D01*
X162519494Y-81470537D01*
X162616185Y-81391185D01*
X162695537Y-81294494D01*
X162754502Y-81184180D01*
X162790812Y-81064482D01*
X162803072Y-80940000D01*
X162800000Y-80513250D01*
X162641250Y-80354500D01*
X161417000Y-80354500D01*
X161163000Y-80354500D01*
X159938750Y-80354500D01*
X159780000Y-80513250D01*
X159776928Y-80940000D01*
X156726072Y-80940000D01*
X156726072Y-80655000D01*
X156709008Y-80481746D01*
X156658472Y-80315150D01*
X156576405Y-80161614D01*
X156465962Y-80027038D01*
X156331386Y-79916595D01*
X156260500Y-79878706D01*
X156260500Y-79515000D01*
X159776928Y-79515000D01*
X159780000Y-79941750D01*
X159938750Y-80100500D01*
X161163000Y-80100500D01*
X161163000Y-79038750D01*
X161417000Y-79038750D01*
X161417000Y-80100500D01*
X162641250Y-80100500D01*
X162800000Y-79941750D01*
X162803072Y-79515000D01*
X162790812Y-79390518D01*
X162754502Y-79270820D01*
X162695537Y-79160506D01*
X162616185Y-79063815D01*
X162519494Y-78984463D01*
X162409180Y-78925498D01*
X162289482Y-78889188D01*
X162165000Y-78876928D01*
X161575750Y-78880000D01*
X161417000Y-79038750D01*
X161163000Y-79038750D01*
X161004250Y-78880000D01*
X160415000Y-78876928D01*
X160290518Y-78889188D01*
X160170820Y-78925498D01*
X160060506Y-78984463D01*
X159963815Y-79063815D01*
X159884463Y-79160506D01*
X159825498Y-79270820D01*
X159789188Y-79390518D01*
X159776928Y-79515000D01*
X156260500Y-79515000D01*
X156260500Y-76790000D01*
X159776928Y-76790000D01*
X159776928Y-77715000D01*
X159793992Y-77888254D01*
X159844528Y-78054850D01*
X159926595Y-78208386D01*
X160037038Y-78342962D01*
X160171614Y-78453405D01*
X160325150Y-78535472D01*
X160491746Y-78586008D01*
X160665000Y-78603072D01*
X161915000Y-78603072D01*
X162088254Y-78586008D01*
X162254850Y-78535472D01*
X162408386Y-78453405D01*
X162542962Y-78342962D01*
X162653405Y-78208386D01*
X162691294Y-78137500D01*
X164968706Y-78137500D01*
X165006595Y-78208386D01*
X165117038Y-78342962D01*
X165251614Y-78453405D01*
X165405150Y-78535472D01*
X165571746Y-78586008D01*
X165745000Y-78603072D01*
X166995000Y-78603072D01*
X167168254Y-78586008D01*
X167334850Y-78535472D01*
X167488386Y-78453405D01*
X167622962Y-78342962D01*
X167733405Y-78208386D01*
X167815472Y-78054850D01*
X167866008Y-77888254D01*
X167883072Y-77715000D01*
X167883072Y-76790000D01*
X167866008Y-76616746D01*
X167815472Y-76450150D01*
X167733405Y-76296614D01*
X167622962Y-76162038D01*
X167488386Y-76051595D01*
X167334850Y-75969528D01*
X167168254Y-75918992D01*
X166995000Y-75901928D01*
X165745000Y-75901928D01*
X165571746Y-75918992D01*
X165405150Y-75969528D01*
X165251614Y-76051595D01*
X165117038Y-76162038D01*
X165006595Y-76296614D01*
X164968706Y-76367500D01*
X162691294Y-76367500D01*
X162653405Y-76296614D01*
X162542962Y-76162038D01*
X162408386Y-76051595D01*
X162254850Y-75969528D01*
X162088254Y-75918992D01*
X161915000Y-75901928D01*
X160665000Y-75901928D01*
X160491746Y-75918992D01*
X160325150Y-75969528D01*
X160171614Y-76051595D01*
X160037038Y-76162038D01*
X159926595Y-76296614D01*
X159844528Y-76450150D01*
X159793992Y-76616746D01*
X159776928Y-76790000D01*
X156260500Y-76790000D01*
X156260500Y-76678969D01*
X156264781Y-76635500D01*
X156260500Y-76592031D01*
X156260500Y-76592023D01*
X156247695Y-76462010D01*
X156197089Y-76295187D01*
X156114911Y-76141441D01*
X156102802Y-76126686D01*
X156032032Y-76040453D01*
X156032030Y-76040451D01*
X156004317Y-76006683D01*
X155970549Y-75978970D01*
X152111579Y-72120000D01*
X153301928Y-72120000D01*
X153314188Y-72244482D01*
X153350498Y-72364180D01*
X153409463Y-72474494D01*
X153488815Y-72571185D01*
X153585506Y-72650537D01*
X153695820Y-72709502D01*
X153815518Y-72745812D01*
X153940000Y-72758072D01*
X154654250Y-72755000D01*
X154813000Y-72596250D01*
X154813000Y-71247000D01*
X155067000Y-71247000D01*
X155067000Y-72596250D01*
X155225750Y-72755000D01*
X155940000Y-72758072D01*
X156064482Y-72745812D01*
X156184180Y-72709502D01*
X156294494Y-72650537D01*
X156391185Y-72571185D01*
X156470537Y-72474494D01*
X156529502Y-72364180D01*
X156565812Y-72244482D01*
X156578072Y-72120000D01*
X156575000Y-71405750D01*
X156416250Y-71247000D01*
X155067000Y-71247000D01*
X154813000Y-71247000D01*
X153463750Y-71247000D01*
X153305000Y-71405750D01*
X153301928Y-72120000D01*
X152111579Y-72120000D01*
X151458103Y-71466525D01*
X151495000Y-71281033D01*
X151495000Y-70958967D01*
X151432168Y-70643088D01*
X151395474Y-70554500D01*
X153303797Y-70554500D01*
X153305000Y-70834250D01*
G37*
X153305000Y-70834250D02*
X153463750Y-70993000D01*
X154813000Y-70993000D01*
X154813000Y-70973000D01*
X155067000Y-70973000D01*
X155067000Y-70993000D01*
X156416250Y-70993000D01*
X156575000Y-70834250D01*
X156576203Y-70554500D01*
X168362922Y-70554500D01*
X173881421Y-76073000D01*
X173852408Y-76073000D01*
X173582510Y-76126686D01*
X173328273Y-76231995D01*
X173099465Y-76384880D01*
X172904880Y-76579465D01*
X172751995Y-76808273D01*
X172646686Y-77062510D01*
X172593000Y-77332408D01*
X172593000Y-77607592D01*
X172646686Y-77877490D01*
X172751995Y-78131727D01*
X172904880Y-78360535D01*
X173099465Y-78555120D01*
X173187465Y-78613920D01*
X173103518Y-78622188D01*
X172983820Y-78658498D01*
X172873506Y-78717463D01*
X172776815Y-78796815D01*
X172697463Y-78893506D01*
X172638498Y-79003820D01*
X172602188Y-79123518D01*
X172589928Y-79248000D01*
X172589928Y-80772000D01*
X172602188Y-80896482D01*
X172638498Y-81016180D01*
X172697463Y-81126494D01*
X172776815Y-81223185D01*
X172873506Y-81302537D01*
X172983820Y-81361502D01*
X173103518Y-81397812D01*
X173187465Y-81406080D01*
X173099465Y-81464880D01*
X172904880Y-81659465D01*
X172751995Y-81888273D01*
X172646686Y-82142510D01*
X172593000Y-82412408D01*
X172593000Y-82687592D01*
X172636782Y-82907700D01*
X170301779Y-82907700D01*
X167883072Y-80488994D01*
X167883072Y-79765000D01*
X167866008Y-79591746D01*
X167815472Y-79425150D01*
X167733405Y-79271614D01*
X167622962Y-79137038D01*
X167488386Y-79026595D01*
X167334850Y-78944528D01*
X167168254Y-78893992D01*
X166995000Y-78876928D01*
X165745000Y-78876928D01*
X165571746Y-78893992D01*
X165405150Y-78944528D01*
X165251614Y-79026595D01*
X165117038Y-79137038D01*
X165006595Y-79271614D01*
X164924528Y-79425150D01*
X164873992Y-79591746D01*
X164856928Y-79765000D01*
X164856928Y-80690000D01*
X164873992Y-80863254D01*
X164924528Y-81029850D01*
X165006595Y-81183386D01*
X165117038Y-81317962D01*
X165251614Y-81428405D01*
X165405150Y-81510472D01*
X165571746Y-81561008D01*
X165745000Y-81578072D01*
X166468994Y-81578072D01*
X168583921Y-83693000D01*
X131613912Y-83693000D01*
X131700535Y-83635120D01*
X131895120Y-83440535D01*
X132048005Y-83211727D01*
X132153314Y-82957490D01*
X132207000Y-82687592D01*
X132207000Y-82412408D01*
X132153314Y-82142510D01*
X132048005Y-81888273D01*
X131895120Y-81659465D01*
X131845000Y-81609345D01*
X131845000Y-81346097D01*
X131926494Y-81302537D01*
X132023185Y-81223185D01*
X132102537Y-81126494D01*
X132161502Y-81016180D01*
X132197812Y-80896482D01*
X132210072Y-80772000D01*
X132210072Y-79248000D01*
X132197812Y-79123518D01*
X132161502Y-79003820D01*
X132102537Y-78893506D01*
X132023185Y-78796815D01*
X131995872Y-78774400D01*
X133845500Y-78774400D01*
X133845501Y-79832021D01*
X133841219Y-79875500D01*
X133858305Y-80048990D01*
X133908912Y-80215813D01*
X133991090Y-80369559D01*
X134073968Y-80470546D01*
X134073971Y-80470549D01*
X134101684Y-80504317D01*
X134135451Y-80532029D01*
X134551928Y-80948506D01*
X134551928Y-81360001D01*
X134568992Y-81533255D01*
X134619528Y-81699851D01*
X134701595Y-81853387D01*
X134812038Y-81987962D01*
X134946613Y-82098405D01*
X135100149Y-82180472D01*
X135266745Y-82231008D01*
X135439999Y-82248072D01*
X136340001Y-82248072D01*
X136513255Y-82231008D01*
X136679851Y-82180472D01*
X136833387Y-82098405D01*
X136967962Y-81987962D01*
X137078405Y-81853387D01*
X137160472Y-81699851D01*
X137184694Y-81620000D01*
X138551928Y-81620000D01*
X138564188Y-81744482D01*
X138600498Y-81864180D01*
X138659463Y-81974494D01*
X138738815Y-82071185D01*
X138835506Y-82150537D01*
X138945820Y-82209502D01*
X139065518Y-82245812D01*
X139190000Y-82258072D01*
X139654250Y-82255000D01*
X139813000Y-82096250D01*
X139813000Y-80747000D01*
X138713750Y-80747000D01*
X138555000Y-80905750D01*
X138551928Y-81620000D01*
X137184694Y-81620000D01*
X137211008Y-81533255D01*
X137228072Y-81360001D01*
X137228072Y-80709999D01*
X137211008Y-80536745D01*
X137160472Y-80370149D01*
X137078405Y-80216613D01*
X136967962Y-80082038D01*
X136961406Y-80076658D01*
X137041185Y-80011185D01*
X137120537Y-79914494D01*
X137179502Y-79804180D01*
X137215812Y-79684482D01*
X137222162Y-79620000D01*
X138551928Y-79620000D01*
X138555000Y-80334250D01*
X138713750Y-80493000D01*
X139813000Y-80493000D01*
X139813000Y-79143750D01*
X139654250Y-78985000D01*
X139190000Y-78981928D01*
X139065518Y-78994188D01*
X138945820Y-79030498D01*
X138835506Y-79089463D01*
X138738815Y-79168815D01*
X138659463Y-79265506D01*
X138600498Y-79375820D01*
X138564188Y-79495518D01*
X138551928Y-79620000D01*
X137222162Y-79620000D01*
X137228072Y-79560000D01*
X137225000Y-79270750D01*
X137066250Y-79112000D01*
X136017000Y-79112000D01*
X136017000Y-79132000D01*
X135763000Y-79132000D01*
X135763000Y-79112000D01*
X135743000Y-79112000D01*
X135743000Y-78858000D01*
X135763000Y-78858000D01*
X135763000Y-78838000D01*
X136017000Y-78838000D01*
X136017000Y-78858000D01*
X137066250Y-78858000D01*
X137097050Y-78827200D01*
X141233101Y-78827200D01*
X141233101Y-78954622D01*
X141228819Y-78998100D01*
X141232700Y-79037511D01*
X141135506Y-79089463D01*
X141090000Y-79126809D01*
X141044494Y-79089463D01*
X140934180Y-79030498D01*
X140814482Y-78994188D01*
X140690000Y-78981928D01*
X140225750Y-78985000D01*
X140067000Y-79143750D01*
X140067000Y-80493000D01*
X140087000Y-80493000D01*
X140087000Y-80747000D01*
X140067000Y-80747000D01*
X140067000Y-82096250D01*
X140225750Y-82255000D01*
X140690000Y-82258072D01*
X140814482Y-82245812D01*
X140934180Y-82209502D01*
X141044494Y-82150537D01*
X141090000Y-82113191D01*
X141135506Y-82150537D01*
X141245820Y-82209502D01*
X141365518Y-82245812D01*
X141490000Y-82258072D01*
X142990000Y-82258072D01*
X143114482Y-82245812D01*
X143234180Y-82209502D01*
X143344494Y-82150537D01*
X143390000Y-82113191D01*
X143435506Y-82150537D01*
X143545820Y-82209502D01*
X143665518Y-82245812D01*
X143790000Y-82258072D01*
X145290000Y-82258072D01*
X145414482Y-82245812D01*
X145534180Y-82209502D01*
X145644494Y-82150537D01*
X145741185Y-82071185D01*
X145820537Y-81974494D01*
X145879502Y-81864180D01*
X145915812Y-81744482D01*
X145928072Y-81620000D01*
X145928072Y-81610000D01*
X147251928Y-81610000D01*
X147264188Y-81734482D01*
X147300498Y-81854180D01*
X147359463Y-81964494D01*
X147438815Y-82061185D01*
X147535506Y-82140537D01*
X147645820Y-82199502D01*
X147765518Y-82235812D01*
X147890000Y-82248072D01*
X148304250Y-82245000D01*
X148463000Y-82086250D01*
X148463000Y-81162000D01*
X148717000Y-81162000D01*
X148717000Y-82086250D01*
X148875750Y-82245000D01*
X149290000Y-82248072D01*
X149414482Y-82235812D01*
X149534180Y-82199502D01*
X149644494Y-82140537D01*
X149741185Y-82061185D01*
X149820537Y-81964494D01*
X149879502Y-81854180D01*
X149915812Y-81734482D01*
X149928072Y-81610000D01*
X149925000Y-81320750D01*
X149766250Y-81162000D01*
X148717000Y-81162000D01*
X148463000Y-81162000D01*
X147413750Y-81162000D01*
X147255000Y-81320750D01*
X147251928Y-81610000D01*
X145928072Y-81610000D01*
X145928072Y-81495683D01*
X145963490Y-81492195D01*
X146130313Y-81441589D01*
X146284059Y-81359411D01*
X146418817Y-81248817D01*
X146446534Y-81215044D01*
X147257429Y-80404150D01*
X147251928Y-80460000D01*
X147255000Y-80749250D01*
X147413750Y-80908000D01*
X148463000Y-80908000D01*
X148463000Y-80888000D01*
X148717000Y-80888000D01*
X148717000Y-80908000D01*
X149766250Y-80908000D01*
X149925000Y-80749250D01*
X149928072Y-80460000D01*
X149915812Y-80335518D01*
X149879502Y-80215820D01*
X149820537Y-80105506D01*
X149741185Y-80008815D01*
X149661406Y-79943342D01*
X149667962Y-79937962D01*
X149723737Y-79870000D01*
X149738922Y-79870000D01*
X151049928Y-81181007D01*
X151049928Y-81905000D01*
X151066992Y-82078254D01*
X151117528Y-82244850D01*
X151199595Y-82398386D01*
X151310038Y-82532962D01*
X151444614Y-82643405D01*
X151598150Y-82725472D01*
X151764746Y-82776008D01*
X151938000Y-82793072D01*
X152863000Y-82793072D01*
X153036254Y-82776008D01*
X153202850Y-82725472D01*
X153356386Y-82643405D01*
X153490962Y-82532962D01*
X153601405Y-82398386D01*
X153683472Y-82244850D01*
X153734008Y-82078254D01*
X153751072Y-81905000D01*
X153751072Y-80655000D01*
X153734008Y-80481746D01*
X153683472Y-80315150D01*
X153601405Y-80161614D01*
X153490962Y-80027038D01*
X153356386Y-79916595D01*
X153202850Y-79834528D01*
X153036254Y-79783992D01*
X152863000Y-79766928D01*
X152139007Y-79766928D01*
X150762034Y-78389956D01*
X150734317Y-78356183D01*
X150599559Y-78245589D01*
X150445813Y-78163411D01*
X150278990Y-78112805D01*
X150148977Y-78100000D01*
X150148969Y-78100000D01*
X150105500Y-78095719D01*
X150062031Y-78100000D01*
X149723737Y-78100000D01*
X149667962Y-78032038D01*
X149533387Y-77921595D01*
X149379851Y-77839528D01*
X149213255Y-77788992D01*
X149040001Y-77771928D01*
X148139999Y-77771928D01*
X147966745Y-77788992D01*
X147800149Y-77839528D01*
X147646613Y-77921595D01*
X147512038Y-78032038D01*
X147457175Y-78098888D01*
X147424999Y-78095719D01*
X147381533Y-78100000D01*
X147381523Y-78100000D01*
X147251510Y-78112805D01*
X147084687Y-78163411D01*
X146930941Y-78245589D01*
X146930939Y-78245590D01*
X146930940Y-78245590D01*
X146829953Y-78328468D01*
X146829951Y-78328470D01*
X146796183Y-78356183D01*
X146768470Y-78389951D01*
X145845749Y-79312673D01*
X145820537Y-79265506D01*
X145741185Y-79168815D01*
X145644494Y-79089463D01*
X145534180Y-79030498D01*
X145414482Y-78994188D01*
X145290000Y-78981928D01*
X143790000Y-78981928D01*
X143665518Y-78994188D01*
X143545820Y-79030498D01*
X143435506Y-79089463D01*
X143390000Y-79126809D01*
X143344494Y-79089463D01*
X143234180Y-79030498D01*
X143116965Y-78994941D01*
X143112195Y-78946510D01*
X143061589Y-78779687D01*
X143003100Y-78670261D01*
X143003100Y-78361578D01*
X147766149Y-73598530D01*
X147799917Y-73570817D01*
X147827638Y-73537040D01*
X147889002Y-73462267D01*
X147910511Y-73436059D01*
X147992689Y-73282313D01*
X148043295Y-73115490D01*
X148056100Y-72985477D01*
X148056100Y-72985467D01*
X148060381Y-72942001D01*
X148056100Y-72898532D01*
X148056100Y-72103778D01*
X148368417Y-71791461D01*
X148411082Y-71894463D01*
X148590013Y-72162252D01*
X148817748Y-72389987D01*
X149085537Y-72568918D01*
X149383088Y-72692168D01*
X149698967Y-72755000D01*
X150021033Y-72755000D01*
X150206525Y-72718103D01*
X154490501Y-77002080D01*
X154490500Y-79878705D01*
X154419614Y-79916595D01*
X154285038Y-80027038D01*
X154174595Y-80161614D01*
X154092528Y-80315150D01*
X154041992Y-80481746D01*
X154024928Y-80655000D01*
X154024928Y-81905000D01*
X154041992Y-82078254D01*
X154092528Y-82244850D01*
X154174595Y-82398386D01*
X154285038Y-82532962D01*
X154419614Y-82643405D01*
X154573150Y-82725472D01*
X154739746Y-82776008D01*
X154913000Y-82793072D01*
X155838000Y-82793072D01*
X156011254Y-82776008D01*
X156177850Y-82725472D01*
X156331386Y-82643405D01*
X156465962Y-82532962D01*
X156576405Y-82398386D01*
X156658472Y-82244850D01*
X156709008Y-82078254D01*
X156726072Y-81905000D01*
X156726072Y-80940000D01*
X159776928Y-80940000D01*
X159789188Y-81064482D01*
X159825498Y-81184180D01*
X159884463Y-81294494D01*
X159963815Y-81391185D01*
X160060506Y-81470537D01*
X160170820Y-81529502D01*
X160290518Y-81565812D01*
X160415000Y-81578072D01*
X161004250Y-81575000D01*
X161163000Y-81416250D01*
X161163000Y-80354500D01*
X161417000Y-80354500D01*
X161417000Y-81416250D01*
X161575750Y-81575000D01*
X162165000Y-81578072D01*
X162289482Y-81565812D01*
X162409180Y-81529502D01*
X162519494Y-81470537D01*
X162616185Y-81391185D01*
X162695537Y-81294494D01*
X162754502Y-81184180D01*
X162790812Y-81064482D01*
X162803072Y-80940000D01*
X162800000Y-80513250D01*
X162641250Y-80354500D01*
X161417000Y-80354500D01*
X161163000Y-80354500D01*
X159938750Y-80354500D01*
X159780000Y-80513250D01*
X159776928Y-80940000D01*
X156726072Y-80940000D01*
X156726072Y-80655000D01*
X156709008Y-80481746D01*
X156658472Y-80315150D01*
X156576405Y-80161614D01*
X156465962Y-80027038D01*
X156331386Y-79916595D01*
X156260500Y-79878706D01*
X156260500Y-79515000D01*
X159776928Y-79515000D01*
X159780000Y-79941750D01*
X159938750Y-80100500D01*
X161163000Y-80100500D01*
X161163000Y-79038750D01*
X161417000Y-79038750D01*
X161417000Y-80100500D01*
X162641250Y-80100500D01*
X162800000Y-79941750D01*
X162803072Y-79515000D01*
X162790812Y-79390518D01*
X162754502Y-79270820D01*
X162695537Y-79160506D01*
X162616185Y-79063815D01*
X162519494Y-78984463D01*
X162409180Y-78925498D01*
X162289482Y-78889188D01*
X162165000Y-78876928D01*
X161575750Y-78880000D01*
X161417000Y-79038750D01*
X161163000Y-79038750D01*
X161004250Y-78880000D01*
X160415000Y-78876928D01*
X160290518Y-78889188D01*
X160170820Y-78925498D01*
X160060506Y-78984463D01*
X159963815Y-79063815D01*
X159884463Y-79160506D01*
X159825498Y-79270820D01*
X159789188Y-79390518D01*
X159776928Y-79515000D01*
X156260500Y-79515000D01*
X156260500Y-76790000D01*
X159776928Y-76790000D01*
X159776928Y-77715000D01*
X159793992Y-77888254D01*
X159844528Y-78054850D01*
X159926595Y-78208386D01*
X160037038Y-78342962D01*
X160171614Y-78453405D01*
X160325150Y-78535472D01*
X160491746Y-78586008D01*
X160665000Y-78603072D01*
X161915000Y-78603072D01*
X162088254Y-78586008D01*
X162254850Y-78535472D01*
X162408386Y-78453405D01*
X162542962Y-78342962D01*
X162653405Y-78208386D01*
X162691294Y-78137500D01*
X164968706Y-78137500D01*
X165006595Y-78208386D01*
X165117038Y-78342962D01*
X165251614Y-78453405D01*
X165405150Y-78535472D01*
X165571746Y-78586008D01*
X165745000Y-78603072D01*
X166995000Y-78603072D01*
X167168254Y-78586008D01*
X167334850Y-78535472D01*
X167488386Y-78453405D01*
X167622962Y-78342962D01*
X167733405Y-78208386D01*
X167815472Y-78054850D01*
X167866008Y-77888254D01*
X167883072Y-77715000D01*
X167883072Y-76790000D01*
X167866008Y-76616746D01*
X167815472Y-76450150D01*
X167733405Y-76296614D01*
X167622962Y-76162038D01*
X167488386Y-76051595D01*
X167334850Y-75969528D01*
X167168254Y-75918992D01*
X166995000Y-75901928D01*
X165745000Y-75901928D01*
X165571746Y-75918992D01*
X165405150Y-75969528D01*
X165251614Y-76051595D01*
X165117038Y-76162038D01*
X165006595Y-76296614D01*
X164968706Y-76367500D01*
X162691294Y-76367500D01*
X162653405Y-76296614D01*
X162542962Y-76162038D01*
X162408386Y-76051595D01*
X162254850Y-75969528D01*
X162088254Y-75918992D01*
X161915000Y-75901928D01*
X160665000Y-75901928D01*
X160491746Y-75918992D01*
X160325150Y-75969528D01*
X160171614Y-76051595D01*
X160037038Y-76162038D01*
X159926595Y-76296614D01*
X159844528Y-76450150D01*
X159793992Y-76616746D01*
X159776928Y-76790000D01*
X156260500Y-76790000D01*
X156260500Y-76678969D01*
X156264781Y-76635500D01*
X156260500Y-76592031D01*
X156260500Y-76592023D01*
X156247695Y-76462010D01*
X156197089Y-76295187D01*
X156114911Y-76141441D01*
X156102802Y-76126686D01*
X156032032Y-76040453D01*
X156032030Y-76040451D01*
X156004317Y-76006683D01*
X155970549Y-75978970D01*
X152111579Y-72120000D01*
X153301928Y-72120000D01*
X153314188Y-72244482D01*
X153350498Y-72364180D01*
X153409463Y-72474494D01*
X153488815Y-72571185D01*
X153585506Y-72650537D01*
X153695820Y-72709502D01*
X153815518Y-72745812D01*
X153940000Y-72758072D01*
X154654250Y-72755000D01*
X154813000Y-72596250D01*
X154813000Y-71247000D01*
X155067000Y-71247000D01*
X155067000Y-72596250D01*
X155225750Y-72755000D01*
X155940000Y-72758072D01*
X156064482Y-72745812D01*
X156184180Y-72709502D01*
X156294494Y-72650537D01*
X156391185Y-72571185D01*
X156470537Y-72474494D01*
X156529502Y-72364180D01*
X156565812Y-72244482D01*
X156578072Y-72120000D01*
X156575000Y-71405750D01*
X156416250Y-71247000D01*
X155067000Y-71247000D01*
X154813000Y-71247000D01*
X153463750Y-71247000D01*
X153305000Y-71405750D01*
X153301928Y-72120000D01*
X152111579Y-72120000D01*
X151458103Y-71466525D01*
X151495000Y-71281033D01*
X151495000Y-70958967D01*
X151432168Y-70643088D01*
X151395474Y-70554500D01*
X153303797Y-70554500D01*
X153305000Y-70834250D01*
%TD*%
M02*
