%TF.GenerationSoftware,KiCad,Pcbnew,5.1.5-1.fc31*%
%TF.CreationDate,2020-01-30T02:35:15+01:00*%
%TF.ProjectId,power-supply-5V,706f7765-722d-4737-9570-706c792d3556,1.0*%
%TF.SameCoordinates,PXa5ee070PY4c4db10*%
%TF.FileFunction,Soldermask,Top*%
%TF.FilePolarity,Negative*%
%FSLAX46Y46*%
G04 Gerber Fmt 4.6, Leading zero omitted, Abs format (unit mm)*
G04 Created by KiCad (PCBNEW 5.1.5-1.fc31) date 2020-01-30 02:35:15*
%MOMM*%
%LPD*%
G04 APERTURE LIST*
%ADD10C,0.150000*%
G04 APERTURE END LIST*
D10*
G36*
X90092Y3340525D02*
G01*
X223110Y3314066D01*
X244541Y3307564D01*
X369839Y3255665D01*
X389579Y3245114D01*
X502354Y3169759D01*
X519654Y3155562D01*
X615562Y3059654D01*
X629759Y3042354D01*
X705114Y2929579D01*
X715665Y2909839D01*
X767564Y2784541D01*
X774066Y2763110D01*
X800525Y2630092D01*
X802719Y2607816D01*
X802719Y2472184D01*
X800525Y2449908D01*
X774066Y2316890D01*
X767564Y2295459D01*
X715665Y2170161D01*
X705114Y2150421D01*
X629759Y2037646D01*
X615562Y2020346D01*
X519654Y1924438D01*
X497606Y1906344D01*
X497983Y1905885D01*
X488943Y1898548D01*
X473296Y1879690D01*
X461628Y1858142D01*
X454388Y1834732D01*
X451852Y1809683D01*
X451852Y800000D01*
X451851Y799638D01*
X451835Y797328D01*
X451125Y785380D01*
X447875Y756405D01*
X447544Y731903D01*
X451999Y707807D01*
X461069Y685044D01*
X474406Y664487D01*
X491497Y646927D01*
X502650Y638538D01*
X507118Y635552D01*
X524409Y621363D01*
X621357Y524415D01*
X635561Y507106D01*
X711723Y393121D01*
X722281Y373371D01*
X774743Y246718D01*
X781244Y225285D01*
X807989Y90829D01*
X810183Y68549D01*
X810183Y-68549D01*
X807989Y-90829D01*
X781244Y-225285D01*
X774743Y-246718D01*
X722281Y-373371D01*
X711723Y-393121D01*
X635561Y-507106D01*
X621357Y-524415D01*
X524409Y-621363D01*
X502364Y-639454D01*
X502386Y-639480D01*
X488467Y-650903D01*
X472921Y-669844D01*
X461369Y-691454D01*
X454255Y-714903D01*
X451852Y-739294D01*
X451852Y-1650000D01*
X451851Y-1650362D01*
X451835Y-1652672D01*
X451125Y-1664618D01*
X443470Y-1732867D01*
X438834Y-1754677D01*
X437630Y-1758472D01*
X432545Y-1782443D01*
X432235Y-1806945D01*
X436710Y-1831037D01*
X445800Y-1853793D01*
X459154Y-1874338D01*
X476261Y-1891883D01*
X487333Y-1900204D01*
X502353Y-1910240D01*
X519654Y-1924438D01*
X615562Y-2020346D01*
X629759Y-2037646D01*
X705114Y-2150421D01*
X715665Y-2170161D01*
X767564Y-2295459D01*
X774066Y-2316890D01*
X800525Y-2449908D01*
X802719Y-2472184D01*
X802719Y-2607816D01*
X800525Y-2630092D01*
X774066Y-2763110D01*
X767564Y-2784541D01*
X715665Y-2909839D01*
X705114Y-2929579D01*
X629759Y-3042354D01*
X615562Y-3059654D01*
X519654Y-3155562D01*
X502354Y-3169759D01*
X389579Y-3245114D01*
X369839Y-3255665D01*
X244541Y-3307564D01*
X223110Y-3314066D01*
X90092Y-3340525D01*
X67816Y-3342719D01*
X-67816Y-3342719D01*
X-90092Y-3340525D01*
X-223110Y-3314066D01*
X-244541Y-3307564D01*
X-369839Y-3255665D01*
X-389579Y-3245114D01*
X-502354Y-3169759D01*
X-519654Y-3155562D01*
X-615562Y-3059654D01*
X-629759Y-3042354D01*
X-705114Y-2929579D01*
X-715665Y-2909839D01*
X-767564Y-2784541D01*
X-774066Y-2763110D01*
X-800525Y-2630092D01*
X-802719Y-2607816D01*
X-802719Y-2521204D01*
X-315869Y-2521204D01*
X-315869Y-2558796D01*
X-313467Y-2583184D01*
X-306131Y-2620061D01*
X-299020Y-2643504D01*
X-284632Y-2678243D01*
X-273077Y-2699860D01*
X-252190Y-2731118D01*
X-236647Y-2750058D01*
X-210058Y-2776647D01*
X-191118Y-2792190D01*
X-159860Y-2813077D01*
X-138243Y-2824632D01*
X-103504Y-2839020D01*
X-80061Y-2846131D01*
X-43184Y-2853467D01*
X-18796Y-2855869D01*
X18796Y-2855869D01*
X43184Y-2853467D01*
X80061Y-2846131D01*
X103504Y-2839020D01*
X138243Y-2824632D01*
X159860Y-2813077D01*
X191118Y-2792190D01*
X210058Y-2776647D01*
X236647Y-2750058D01*
X252190Y-2731118D01*
X273077Y-2699860D01*
X284632Y-2678243D01*
X299020Y-2643504D01*
X306131Y-2620061D01*
X313467Y-2583184D01*
X315869Y-2558796D01*
X315869Y-2521204D01*
X313467Y-2496816D01*
X306131Y-2459939D01*
X299020Y-2436496D01*
X284632Y-2401757D01*
X273077Y-2380140D01*
X252190Y-2348882D01*
X236647Y-2329942D01*
X210058Y-2303353D01*
X191118Y-2287810D01*
X159860Y-2266923D01*
X138243Y-2255368D01*
X103504Y-2240980D01*
X80061Y-2233869D01*
X43184Y-2226533D01*
X18796Y-2224131D01*
X-18796Y-2224131D01*
X-43184Y-2226533D01*
X-80061Y-2233869D01*
X-103504Y-2240980D01*
X-138243Y-2255368D01*
X-159860Y-2266923D01*
X-191118Y-2287810D01*
X-210058Y-2303353D01*
X-236647Y-2329942D01*
X-252190Y-2348882D01*
X-273077Y-2380140D01*
X-284632Y-2401757D01*
X-299020Y-2436496D01*
X-306131Y-2459939D01*
X-313467Y-2496816D01*
X-315869Y-2521204D01*
X-802719Y-2521204D01*
X-802719Y-2472184D01*
X-800525Y-2449908D01*
X-774066Y-2316890D01*
X-767564Y-2295459D01*
X-715665Y-2170161D01*
X-705114Y-2150421D01*
X-629759Y-2037646D01*
X-615562Y-2020346D01*
X-519654Y-1924438D01*
X-502351Y-1910238D01*
X-487030Y-1900001D01*
X-468088Y-1884456D01*
X-452543Y-1865515D01*
X-440991Y-1843904D01*
X-433878Y-1820455D01*
X-431476Y-1796069D01*
X-436811Y-1759941D01*
X-440252Y-1748544D01*
X-444584Y-1726663D01*
X-451306Y-1658114D01*
X-451852Y-1646941D01*
X-451852Y-739294D01*
X-454254Y-714908D01*
X-461367Y-691459D01*
X-472918Y-669848D01*
X-488463Y-650906D01*
X-502387Y-639479D01*
X-502365Y-639452D01*
X-524415Y-621357D01*
X-621357Y-524415D01*
X-635561Y-507106D01*
X-711723Y-393121D01*
X-722281Y-373371D01*
X-774743Y-246718D01*
X-781244Y-225285D01*
X-807989Y-90829D01*
X-810183Y-68549D01*
X-810183Y68549D01*
X-807989Y90829D01*
X-781244Y225285D01*
X-774743Y246718D01*
X-722281Y373371D01*
X-711723Y393121D01*
X-635561Y507106D01*
X-621357Y524415D01*
X-524415Y621357D01*
X-507102Y635565D01*
X-502612Y638565D01*
X-483670Y654110D01*
X-468126Y673053D01*
X-456575Y694664D01*
X-449463Y718113D01*
X-447658Y754692D01*
X-451306Y791904D01*
X-451852Y803059D01*
X-451852Y1809683D01*
X-454254Y1834069D01*
X-461367Y1857518D01*
X-472918Y1879129D01*
X-488463Y1898071D01*
X-497972Y1905901D01*
X-497607Y1906346D01*
X-519657Y1924441D01*
X-615562Y2020346D01*
X-629759Y2037646D01*
X-705114Y2150421D01*
X-715665Y2170161D01*
X-767564Y2295459D01*
X-774066Y2316890D01*
X-800525Y2449908D01*
X-802719Y2472184D01*
X-802719Y2558796D01*
X-315869Y2558796D01*
X-315869Y2521204D01*
X-313467Y2496816D01*
X-306131Y2459939D01*
X-299020Y2436496D01*
X-284632Y2401757D01*
X-273077Y2380140D01*
X-252190Y2348882D01*
X-236647Y2329942D01*
X-210058Y2303353D01*
X-191120Y2287811D01*
X-181158Y2281154D01*
X-159548Y2269602D01*
X-136099Y2262488D01*
X-111713Y2260085D01*
X-88286Y2262299D01*
X-73567Y2265107D01*
X-7991Y2271074D01*
X14296Y2270919D01*
X79769Y2264037D01*
X86576Y2262640D01*
X110947Y2260089D01*
X135347Y2262342D01*
X158839Y2269312D01*
X181155Y2281153D01*
X191115Y2287808D01*
X210058Y2303353D01*
X236647Y2329942D01*
X252190Y2348882D01*
X273077Y2380140D01*
X284632Y2401757D01*
X299020Y2436496D01*
X306131Y2459939D01*
X313467Y2496816D01*
X315869Y2521204D01*
X315869Y2558796D01*
X313467Y2583184D01*
X306131Y2620061D01*
X299020Y2643504D01*
X284632Y2678243D01*
X273077Y2699860D01*
X252190Y2731118D01*
X236647Y2750058D01*
X210058Y2776647D01*
X191118Y2792190D01*
X159860Y2813077D01*
X138243Y2824632D01*
X103504Y2839020D01*
X80061Y2846131D01*
X43184Y2853467D01*
X18796Y2855869D01*
X-18796Y2855869D01*
X-43184Y2853467D01*
X-80061Y2846131D01*
X-103504Y2839020D01*
X-138243Y2824632D01*
X-159860Y2813077D01*
X-191118Y2792190D01*
X-210058Y2776647D01*
X-236647Y2750058D01*
X-252190Y2731118D01*
X-273077Y2699860D01*
X-284632Y2678243D01*
X-299020Y2643504D01*
X-306131Y2620061D01*
X-313467Y2583184D01*
X-315869Y2558796D01*
X-802719Y2558796D01*
X-802719Y2607816D01*
X-800525Y2630092D01*
X-774066Y2763110D01*
X-767564Y2784541D01*
X-715665Y2909839D01*
X-705114Y2929579D01*
X-629759Y3042354D01*
X-615562Y3059654D01*
X-519654Y3155562D01*
X-502354Y3169759D01*
X-389579Y3245114D01*
X-369839Y3255665D01*
X-244541Y3307564D01*
X-223110Y3314066D01*
X-90092Y3340525D01*
X-67816Y3342719D01*
X67816Y3342719D01*
X90092Y3340525D01*
G37*
G36*
X2630092Y3340525D02*
G01*
X2763110Y3314066D01*
X2784541Y3307564D01*
X2909839Y3255665D01*
X2929579Y3245114D01*
X3042354Y3169759D01*
X3059654Y3155562D01*
X3155562Y3059654D01*
X3169759Y3042354D01*
X3245114Y2929579D01*
X3255665Y2909839D01*
X3307564Y2784541D01*
X3314066Y2763110D01*
X3340525Y2630092D01*
X3342719Y2607816D01*
X3342719Y2472184D01*
X3340525Y2449908D01*
X3314066Y2316890D01*
X3307564Y2295459D01*
X3255665Y2170161D01*
X3245114Y2150421D01*
X3169759Y2037646D01*
X3155562Y2020346D01*
X3059654Y1924438D01*
X3037606Y1906344D01*
X3037983Y1905885D01*
X3028943Y1898548D01*
X3013296Y1879690D01*
X3001628Y1858142D01*
X2994388Y1834732D01*
X2991852Y1809683D01*
X2991852Y800000D01*
X2991851Y799638D01*
X2991835Y797328D01*
X2991125Y785380D01*
X2987875Y756405D01*
X2987544Y731903D01*
X2991999Y707807D01*
X3001069Y685044D01*
X3014406Y664487D01*
X3031497Y646927D01*
X3042650Y638538D01*
X3047118Y635552D01*
X3064409Y621363D01*
X3161357Y524415D01*
X3175561Y507106D01*
X3251723Y393121D01*
X3262281Y373371D01*
X3314743Y246718D01*
X3321244Y225285D01*
X3347989Y90829D01*
X3350183Y68549D01*
X3350183Y-68549D01*
X3347989Y-90829D01*
X3321244Y-225285D01*
X3314743Y-246718D01*
X3262281Y-373371D01*
X3251723Y-393121D01*
X3175561Y-507106D01*
X3161357Y-524415D01*
X3064409Y-621363D01*
X3042364Y-639454D01*
X3042386Y-639480D01*
X3028467Y-650903D01*
X3012921Y-669844D01*
X3001369Y-691454D01*
X2994255Y-714903D01*
X2991852Y-739294D01*
X2991852Y-1650000D01*
X2991851Y-1650362D01*
X2991835Y-1652672D01*
X2991125Y-1664618D01*
X2983470Y-1732867D01*
X2978834Y-1754677D01*
X2977630Y-1758472D01*
X2972545Y-1782443D01*
X2972235Y-1806945D01*
X2976710Y-1831037D01*
X2985800Y-1853793D01*
X2999154Y-1874338D01*
X3016261Y-1891883D01*
X3027333Y-1900204D01*
X3042353Y-1910240D01*
X3059654Y-1924438D01*
X3155562Y-2020346D01*
X3169759Y-2037646D01*
X3245114Y-2150421D01*
X3255665Y-2170161D01*
X3307564Y-2295459D01*
X3314066Y-2316890D01*
X3340525Y-2449908D01*
X3342719Y-2472184D01*
X3342719Y-2607816D01*
X3340525Y-2630092D01*
X3314066Y-2763110D01*
X3307564Y-2784541D01*
X3255665Y-2909839D01*
X3245114Y-2929579D01*
X3169759Y-3042354D01*
X3155562Y-3059654D01*
X3059654Y-3155562D01*
X3042354Y-3169759D01*
X2929579Y-3245114D01*
X2909839Y-3255665D01*
X2784541Y-3307564D01*
X2763110Y-3314066D01*
X2630092Y-3340525D01*
X2607816Y-3342719D01*
X2472184Y-3342719D01*
X2449908Y-3340525D01*
X2316890Y-3314066D01*
X2295459Y-3307564D01*
X2170161Y-3255665D01*
X2150421Y-3245114D01*
X2037646Y-3169759D01*
X2020346Y-3155562D01*
X1924438Y-3059654D01*
X1910241Y-3042354D01*
X1834886Y-2929579D01*
X1824335Y-2909839D01*
X1772436Y-2784541D01*
X1765934Y-2763110D01*
X1739475Y-2630092D01*
X1737281Y-2607816D01*
X1737281Y-2521204D01*
X2224131Y-2521204D01*
X2224131Y-2558796D01*
X2226533Y-2583184D01*
X2233869Y-2620061D01*
X2240980Y-2643504D01*
X2255368Y-2678243D01*
X2266923Y-2699860D01*
X2287810Y-2731118D01*
X2303353Y-2750058D01*
X2329942Y-2776647D01*
X2348882Y-2792190D01*
X2380140Y-2813077D01*
X2401757Y-2824632D01*
X2436496Y-2839020D01*
X2459939Y-2846131D01*
X2496816Y-2853467D01*
X2521204Y-2855869D01*
X2558796Y-2855869D01*
X2583184Y-2853467D01*
X2620061Y-2846131D01*
X2643504Y-2839020D01*
X2678243Y-2824632D01*
X2699860Y-2813077D01*
X2731118Y-2792190D01*
X2750058Y-2776647D01*
X2776647Y-2750058D01*
X2792190Y-2731118D01*
X2813077Y-2699860D01*
X2824632Y-2678243D01*
X2839020Y-2643504D01*
X2846131Y-2620061D01*
X2853467Y-2583184D01*
X2855869Y-2558796D01*
X2855869Y-2521204D01*
X2853467Y-2496816D01*
X2846131Y-2459939D01*
X2839020Y-2436496D01*
X2824632Y-2401757D01*
X2813077Y-2380140D01*
X2792190Y-2348882D01*
X2776647Y-2329942D01*
X2750058Y-2303353D01*
X2731118Y-2287810D01*
X2699860Y-2266923D01*
X2678243Y-2255368D01*
X2643504Y-2240980D01*
X2620061Y-2233869D01*
X2583184Y-2226533D01*
X2558796Y-2224131D01*
X2521204Y-2224131D01*
X2496816Y-2226533D01*
X2459939Y-2233869D01*
X2436496Y-2240980D01*
X2401757Y-2255368D01*
X2380140Y-2266923D01*
X2348882Y-2287810D01*
X2329942Y-2303353D01*
X2303353Y-2329942D01*
X2287810Y-2348882D01*
X2266923Y-2380140D01*
X2255368Y-2401757D01*
X2240980Y-2436496D01*
X2233869Y-2459939D01*
X2226533Y-2496816D01*
X2224131Y-2521204D01*
X1737281Y-2521204D01*
X1737281Y-2472184D01*
X1739475Y-2449908D01*
X1765934Y-2316890D01*
X1772436Y-2295459D01*
X1824335Y-2170161D01*
X1834886Y-2150421D01*
X1910241Y-2037646D01*
X1924438Y-2020346D01*
X2020346Y-1924438D01*
X2037649Y-1910238D01*
X2052970Y-1900001D01*
X2071912Y-1884456D01*
X2087457Y-1865515D01*
X2099009Y-1843904D01*
X2106122Y-1820455D01*
X2108524Y-1796069D01*
X2103189Y-1759941D01*
X2099748Y-1748544D01*
X2095416Y-1726663D01*
X2088694Y-1658114D01*
X2088148Y-1646941D01*
X2088148Y-739294D01*
X2085746Y-714908D01*
X2078633Y-691459D01*
X2067082Y-669848D01*
X2051537Y-650906D01*
X2037613Y-639479D01*
X2037635Y-639452D01*
X2015585Y-621357D01*
X1918643Y-524415D01*
X1904439Y-507106D01*
X1828277Y-393121D01*
X1817719Y-373371D01*
X1765257Y-246718D01*
X1758756Y-225285D01*
X1732011Y-90829D01*
X1729817Y-68549D01*
X1729817Y68549D01*
X1732011Y90829D01*
X1758756Y225285D01*
X1765257Y246718D01*
X1817719Y373371D01*
X1828277Y393121D01*
X1904439Y507106D01*
X1918643Y524415D01*
X2015585Y621357D01*
X2032898Y635565D01*
X2037388Y638565D01*
X2056330Y654110D01*
X2071874Y673053D01*
X2083425Y694664D01*
X2090537Y718113D01*
X2092342Y754692D01*
X2088694Y791904D01*
X2088148Y803059D01*
X2088148Y1809683D01*
X2085746Y1834069D01*
X2078633Y1857518D01*
X2067082Y1879129D01*
X2051537Y1898071D01*
X2042028Y1905901D01*
X2042393Y1906346D01*
X2020343Y1924441D01*
X1924438Y2020346D01*
X1910241Y2037646D01*
X1834886Y2150421D01*
X1824335Y2170161D01*
X1772436Y2295459D01*
X1765934Y2316890D01*
X1739475Y2449908D01*
X1737281Y2472184D01*
X1737281Y2558796D01*
X2224131Y2558796D01*
X2224131Y2521204D01*
X2226533Y2496816D01*
X2233869Y2459939D01*
X2240980Y2436496D01*
X2255368Y2401757D01*
X2266923Y2380140D01*
X2287810Y2348882D01*
X2303353Y2329942D01*
X2329942Y2303353D01*
X2348880Y2287811D01*
X2358842Y2281154D01*
X2380452Y2269602D01*
X2403901Y2262488D01*
X2428287Y2260085D01*
X2451714Y2262299D01*
X2466433Y2265107D01*
X2532009Y2271074D01*
X2554296Y2270919D01*
X2619769Y2264037D01*
X2626576Y2262640D01*
X2650947Y2260089D01*
X2675347Y2262342D01*
X2698839Y2269312D01*
X2721155Y2281153D01*
X2731115Y2287808D01*
X2750058Y2303353D01*
X2776647Y2329942D01*
X2792190Y2348882D01*
X2813077Y2380140D01*
X2824632Y2401757D01*
X2839020Y2436496D01*
X2846131Y2459939D01*
X2853467Y2496816D01*
X2855869Y2521204D01*
X2855869Y2558796D01*
X2853467Y2583184D01*
X2846131Y2620061D01*
X2839020Y2643504D01*
X2824632Y2678243D01*
X2813077Y2699860D01*
X2792190Y2731118D01*
X2776647Y2750058D01*
X2750058Y2776647D01*
X2731118Y2792190D01*
X2699860Y2813077D01*
X2678243Y2824632D01*
X2643504Y2839020D01*
X2620061Y2846131D01*
X2583184Y2853467D01*
X2558796Y2855869D01*
X2521204Y2855869D01*
X2496816Y2853467D01*
X2459939Y2846131D01*
X2436496Y2839020D01*
X2401757Y2824632D01*
X2380140Y2813077D01*
X2348882Y2792190D01*
X2329942Y2776647D01*
X2303353Y2750058D01*
X2287810Y2731118D01*
X2266923Y2699860D01*
X2255368Y2678243D01*
X2240980Y2643504D01*
X2233869Y2620061D01*
X2226533Y2583184D01*
X2224131Y2558796D01*
X1737281Y2558796D01*
X1737281Y2607816D01*
X1739475Y2630092D01*
X1765934Y2763110D01*
X1772436Y2784541D01*
X1824335Y2909839D01*
X1834886Y2929579D01*
X1910241Y3042354D01*
X1924438Y3059654D01*
X2020346Y3155562D01*
X2037646Y3169759D01*
X2150421Y3245114D01*
X2170161Y3255665D01*
X2295459Y3307564D01*
X2316890Y3314066D01*
X2449908Y3340525D01*
X2472184Y3342719D01*
X2607816Y3342719D01*
X2630092Y3340525D01*
G37*
G36*
X-45629908Y3340525D02*
G01*
X-45496890Y3314066D01*
X-45475459Y3307564D01*
X-45350161Y3255665D01*
X-45330421Y3245114D01*
X-45217646Y3169759D01*
X-45200346Y3155562D01*
X-45104438Y3059654D01*
X-45090241Y3042354D01*
X-45014886Y2929579D01*
X-45004335Y2909839D01*
X-44952436Y2784541D01*
X-44945934Y2763110D01*
X-44919475Y2630092D01*
X-44917281Y2607816D01*
X-44917281Y2472184D01*
X-44919475Y2449908D01*
X-44945934Y2316890D01*
X-44952436Y2295459D01*
X-45004335Y2170161D01*
X-45014886Y2150421D01*
X-45090241Y2037646D01*
X-45104438Y2020346D01*
X-45200346Y1924438D01*
X-45222394Y1906344D01*
X-45222017Y1905885D01*
X-45231057Y1898548D01*
X-45246704Y1879690D01*
X-45258372Y1858142D01*
X-45265612Y1834732D01*
X-45268148Y1809683D01*
X-45268148Y800000D01*
X-45268149Y799638D01*
X-45268165Y797328D01*
X-45268875Y785380D01*
X-45272125Y756405D01*
X-45272456Y731903D01*
X-45268001Y707807D01*
X-45258931Y685044D01*
X-45245594Y664487D01*
X-45228503Y646927D01*
X-45217350Y638538D01*
X-45212882Y635552D01*
X-45195591Y621363D01*
X-45098643Y524415D01*
X-45084439Y507106D01*
X-45008277Y393121D01*
X-44997719Y373371D01*
X-44945257Y246718D01*
X-44938756Y225285D01*
X-44912011Y90829D01*
X-44909817Y68549D01*
X-44909817Y-68549D01*
X-44912011Y-90829D01*
X-44938756Y-225285D01*
X-44945257Y-246718D01*
X-44997719Y-373371D01*
X-45008277Y-393121D01*
X-45084439Y-507106D01*
X-45098643Y-524415D01*
X-45195591Y-621363D01*
X-45217636Y-639454D01*
X-45217614Y-639480D01*
X-45231533Y-650903D01*
X-45247079Y-669844D01*
X-45258631Y-691454D01*
X-45265745Y-714903D01*
X-45268148Y-739294D01*
X-45268148Y-1650000D01*
X-45268149Y-1650362D01*
X-45268165Y-1652672D01*
X-45268875Y-1664618D01*
X-45276530Y-1732867D01*
X-45281166Y-1754677D01*
X-45282370Y-1758472D01*
X-45287455Y-1782443D01*
X-45287765Y-1806945D01*
X-45283290Y-1831037D01*
X-45274200Y-1853793D01*
X-45260846Y-1874338D01*
X-45243739Y-1891883D01*
X-45232667Y-1900204D01*
X-45217647Y-1910240D01*
X-45200346Y-1924438D01*
X-45104438Y-2020346D01*
X-45090241Y-2037646D01*
X-45014886Y-2150421D01*
X-45004335Y-2170161D01*
X-44952436Y-2295459D01*
X-44945934Y-2316890D01*
X-44919475Y-2449908D01*
X-44917281Y-2472184D01*
X-44917281Y-2607816D01*
X-44919475Y-2630092D01*
X-44945934Y-2763110D01*
X-44952436Y-2784541D01*
X-45004335Y-2909839D01*
X-45014886Y-2929579D01*
X-45090241Y-3042354D01*
X-45104438Y-3059654D01*
X-45200346Y-3155562D01*
X-45217646Y-3169759D01*
X-45330421Y-3245114D01*
X-45350161Y-3255665D01*
X-45475459Y-3307564D01*
X-45496890Y-3314066D01*
X-45629908Y-3340525D01*
X-45652184Y-3342719D01*
X-45787816Y-3342719D01*
X-45810092Y-3340525D01*
X-45943110Y-3314066D01*
X-45964541Y-3307564D01*
X-46089839Y-3255665D01*
X-46109579Y-3245114D01*
X-46222354Y-3169759D01*
X-46239654Y-3155562D01*
X-46335562Y-3059654D01*
X-46349759Y-3042354D01*
X-46425114Y-2929579D01*
X-46435665Y-2909839D01*
X-46487564Y-2784541D01*
X-46494066Y-2763110D01*
X-46520525Y-2630092D01*
X-46522719Y-2607816D01*
X-46522719Y-2521204D01*
X-46035869Y-2521204D01*
X-46035869Y-2558796D01*
X-46033467Y-2583184D01*
X-46026131Y-2620061D01*
X-46019020Y-2643504D01*
X-46004632Y-2678243D01*
X-45993077Y-2699860D01*
X-45972190Y-2731118D01*
X-45956647Y-2750058D01*
X-45930058Y-2776647D01*
X-45911118Y-2792190D01*
X-45879860Y-2813077D01*
X-45858243Y-2824632D01*
X-45823504Y-2839020D01*
X-45800061Y-2846131D01*
X-45763184Y-2853467D01*
X-45738796Y-2855869D01*
X-45701204Y-2855869D01*
X-45676816Y-2853467D01*
X-45639939Y-2846131D01*
X-45616496Y-2839020D01*
X-45581757Y-2824632D01*
X-45560140Y-2813077D01*
X-45528882Y-2792190D01*
X-45509942Y-2776647D01*
X-45483353Y-2750058D01*
X-45467810Y-2731118D01*
X-45446923Y-2699860D01*
X-45435368Y-2678243D01*
X-45420980Y-2643504D01*
X-45413869Y-2620061D01*
X-45406533Y-2583184D01*
X-45404131Y-2558796D01*
X-45404131Y-2521204D01*
X-45406533Y-2496816D01*
X-45413869Y-2459939D01*
X-45420980Y-2436496D01*
X-45435368Y-2401757D01*
X-45446923Y-2380140D01*
X-45467810Y-2348882D01*
X-45483353Y-2329942D01*
X-45509942Y-2303353D01*
X-45528882Y-2287810D01*
X-45560140Y-2266923D01*
X-45581757Y-2255368D01*
X-45616496Y-2240980D01*
X-45639939Y-2233869D01*
X-45676816Y-2226533D01*
X-45701204Y-2224131D01*
X-45738796Y-2224131D01*
X-45763184Y-2226533D01*
X-45800061Y-2233869D01*
X-45823504Y-2240980D01*
X-45858243Y-2255368D01*
X-45879860Y-2266923D01*
X-45911118Y-2287810D01*
X-45930058Y-2303353D01*
X-45956647Y-2329942D01*
X-45972190Y-2348882D01*
X-45993077Y-2380140D01*
X-46004632Y-2401757D01*
X-46019020Y-2436496D01*
X-46026131Y-2459939D01*
X-46033467Y-2496816D01*
X-46035869Y-2521204D01*
X-46522719Y-2521204D01*
X-46522719Y-2472184D01*
X-46520525Y-2449908D01*
X-46494066Y-2316890D01*
X-46487564Y-2295459D01*
X-46435665Y-2170161D01*
X-46425114Y-2150421D01*
X-46349759Y-2037646D01*
X-46335562Y-2020346D01*
X-46239654Y-1924438D01*
X-46222351Y-1910238D01*
X-46207030Y-1900001D01*
X-46188088Y-1884456D01*
X-46172543Y-1865515D01*
X-46160991Y-1843904D01*
X-46153878Y-1820455D01*
X-46151476Y-1796069D01*
X-46156811Y-1759941D01*
X-46160252Y-1748544D01*
X-46164584Y-1726663D01*
X-46171306Y-1658114D01*
X-46171852Y-1646941D01*
X-46171852Y-739294D01*
X-46174254Y-714908D01*
X-46181367Y-691459D01*
X-46192918Y-669848D01*
X-46208463Y-650906D01*
X-46222387Y-639479D01*
X-46222365Y-639452D01*
X-46244415Y-621357D01*
X-46341357Y-524415D01*
X-46355561Y-507106D01*
X-46431723Y-393121D01*
X-46442281Y-373371D01*
X-46494743Y-246718D01*
X-46501244Y-225285D01*
X-46527989Y-90829D01*
X-46530183Y-68549D01*
X-46530183Y68549D01*
X-46527989Y90829D01*
X-46501244Y225285D01*
X-46494743Y246718D01*
X-46442281Y373371D01*
X-46431723Y393121D01*
X-46355561Y507106D01*
X-46341357Y524415D01*
X-46244415Y621357D01*
X-46227102Y635565D01*
X-46222612Y638565D01*
X-46203670Y654110D01*
X-46188126Y673053D01*
X-46176575Y694664D01*
X-46169463Y718113D01*
X-46167658Y754692D01*
X-46171306Y791904D01*
X-46171852Y803059D01*
X-46171852Y1809683D01*
X-46174254Y1834069D01*
X-46181367Y1857518D01*
X-46192918Y1879129D01*
X-46208463Y1898071D01*
X-46217972Y1905901D01*
X-46217607Y1906346D01*
X-46239657Y1924441D01*
X-46335562Y2020346D01*
X-46349759Y2037646D01*
X-46425114Y2150421D01*
X-46435665Y2170161D01*
X-46487564Y2295459D01*
X-46494066Y2316890D01*
X-46520525Y2449908D01*
X-46522719Y2472184D01*
X-46522719Y2558796D01*
X-46035869Y2558796D01*
X-46035869Y2521204D01*
X-46033467Y2496816D01*
X-46026131Y2459939D01*
X-46019020Y2436496D01*
X-46004632Y2401757D01*
X-45993077Y2380140D01*
X-45972190Y2348882D01*
X-45956647Y2329942D01*
X-45930058Y2303353D01*
X-45911120Y2287811D01*
X-45901158Y2281154D01*
X-45879548Y2269602D01*
X-45856099Y2262488D01*
X-45831713Y2260085D01*
X-45808286Y2262299D01*
X-45793567Y2265107D01*
X-45727991Y2271074D01*
X-45705704Y2270919D01*
X-45640231Y2264037D01*
X-45633424Y2262640D01*
X-45609053Y2260089D01*
X-45584653Y2262342D01*
X-45561161Y2269312D01*
X-45538845Y2281153D01*
X-45528885Y2287808D01*
X-45509942Y2303353D01*
X-45483353Y2329942D01*
X-45467810Y2348882D01*
X-45446923Y2380140D01*
X-45435368Y2401757D01*
X-45420980Y2436496D01*
X-45413869Y2459939D01*
X-45406533Y2496816D01*
X-45404131Y2521204D01*
X-45404131Y2558796D01*
X-45406533Y2583184D01*
X-45413869Y2620061D01*
X-45420980Y2643504D01*
X-45435368Y2678243D01*
X-45446923Y2699860D01*
X-45467810Y2731118D01*
X-45483353Y2750058D01*
X-45509942Y2776647D01*
X-45528882Y2792190D01*
X-45560140Y2813077D01*
X-45581757Y2824632D01*
X-45616496Y2839020D01*
X-45639939Y2846131D01*
X-45676816Y2853467D01*
X-45701204Y2855869D01*
X-45738796Y2855869D01*
X-45763184Y2853467D01*
X-45800061Y2846131D01*
X-45823504Y2839020D01*
X-45858243Y2824632D01*
X-45879860Y2813077D01*
X-45911118Y2792190D01*
X-45930058Y2776647D01*
X-45956647Y2750058D01*
X-45972190Y2731118D01*
X-45993077Y2699860D01*
X-46004632Y2678243D01*
X-46019020Y2643504D01*
X-46026131Y2620061D01*
X-46033467Y2583184D01*
X-46035869Y2558796D01*
X-46522719Y2558796D01*
X-46522719Y2607816D01*
X-46520525Y2630092D01*
X-46494066Y2763110D01*
X-46487564Y2784541D01*
X-46435665Y2909839D01*
X-46425114Y2929579D01*
X-46349759Y3042354D01*
X-46335562Y3059654D01*
X-46239654Y3155562D01*
X-46222354Y3169759D01*
X-46109579Y3245114D01*
X-46089839Y3255665D01*
X-45964541Y3307564D01*
X-45943110Y3314066D01*
X-45810092Y3340525D01*
X-45787816Y3342719D01*
X-45652184Y3342719D01*
X-45629908Y3340525D01*
G37*
G36*
X-43089908Y3340525D02*
G01*
X-42956890Y3314066D01*
X-42935459Y3307564D01*
X-42810161Y3255665D01*
X-42790421Y3245114D01*
X-42677646Y3169759D01*
X-42660346Y3155562D01*
X-42564438Y3059654D01*
X-42550241Y3042354D01*
X-42474886Y2929579D01*
X-42464335Y2909839D01*
X-42412436Y2784541D01*
X-42405934Y2763110D01*
X-42379475Y2630092D01*
X-42377281Y2607816D01*
X-42377281Y2472184D01*
X-42379475Y2449908D01*
X-42405934Y2316890D01*
X-42412436Y2295459D01*
X-42464335Y2170161D01*
X-42474886Y2150421D01*
X-42550241Y2037646D01*
X-42564438Y2020346D01*
X-42660346Y1924438D01*
X-42682394Y1906344D01*
X-42682017Y1905885D01*
X-42691057Y1898548D01*
X-42706704Y1879690D01*
X-42718372Y1858142D01*
X-42725612Y1834732D01*
X-42728148Y1809683D01*
X-42728148Y800000D01*
X-42728149Y799638D01*
X-42728165Y797328D01*
X-42728875Y785380D01*
X-42732125Y756405D01*
X-42732456Y731903D01*
X-42728001Y707807D01*
X-42718931Y685044D01*
X-42705594Y664487D01*
X-42688503Y646927D01*
X-42677350Y638538D01*
X-42672882Y635552D01*
X-42655591Y621363D01*
X-42558643Y524415D01*
X-42544439Y507106D01*
X-42468277Y393121D01*
X-42457719Y373371D01*
X-42405257Y246718D01*
X-42398756Y225285D01*
X-42372011Y90829D01*
X-42369817Y68549D01*
X-42369817Y-68549D01*
X-42372011Y-90829D01*
X-42398756Y-225285D01*
X-42405257Y-246718D01*
X-42457719Y-373371D01*
X-42468277Y-393121D01*
X-42544439Y-507106D01*
X-42558643Y-524415D01*
X-42655591Y-621363D01*
X-42677636Y-639454D01*
X-42677614Y-639480D01*
X-42691533Y-650903D01*
X-42707079Y-669844D01*
X-42718631Y-691454D01*
X-42725745Y-714903D01*
X-42728148Y-739294D01*
X-42728148Y-1650000D01*
X-42728149Y-1650362D01*
X-42728165Y-1652672D01*
X-42728875Y-1664618D01*
X-42736530Y-1732867D01*
X-42741166Y-1754677D01*
X-42742370Y-1758472D01*
X-42747455Y-1782443D01*
X-42747765Y-1806945D01*
X-42743290Y-1831037D01*
X-42734200Y-1853793D01*
X-42720846Y-1874338D01*
X-42703739Y-1891883D01*
X-42692667Y-1900204D01*
X-42677647Y-1910240D01*
X-42660346Y-1924438D01*
X-42564438Y-2020346D01*
X-42550241Y-2037646D01*
X-42474886Y-2150421D01*
X-42464335Y-2170161D01*
X-42412436Y-2295459D01*
X-42405934Y-2316890D01*
X-42379475Y-2449908D01*
X-42377281Y-2472184D01*
X-42377281Y-2607816D01*
X-42379475Y-2630092D01*
X-42405934Y-2763110D01*
X-42412436Y-2784541D01*
X-42464335Y-2909839D01*
X-42474886Y-2929579D01*
X-42550241Y-3042354D01*
X-42564438Y-3059654D01*
X-42660346Y-3155562D01*
X-42677646Y-3169759D01*
X-42790421Y-3245114D01*
X-42810161Y-3255665D01*
X-42935459Y-3307564D01*
X-42956890Y-3314066D01*
X-43089908Y-3340525D01*
X-43112184Y-3342719D01*
X-43247816Y-3342719D01*
X-43270092Y-3340525D01*
X-43403110Y-3314066D01*
X-43424541Y-3307564D01*
X-43549839Y-3255665D01*
X-43569579Y-3245114D01*
X-43682354Y-3169759D01*
X-43699654Y-3155562D01*
X-43795562Y-3059654D01*
X-43809759Y-3042354D01*
X-43885114Y-2929579D01*
X-43895665Y-2909839D01*
X-43947564Y-2784541D01*
X-43954066Y-2763110D01*
X-43980525Y-2630092D01*
X-43982719Y-2607816D01*
X-43982719Y-2521204D01*
X-43495869Y-2521204D01*
X-43495869Y-2558796D01*
X-43493467Y-2583184D01*
X-43486131Y-2620061D01*
X-43479020Y-2643504D01*
X-43464632Y-2678243D01*
X-43453077Y-2699860D01*
X-43432190Y-2731118D01*
X-43416647Y-2750058D01*
X-43390058Y-2776647D01*
X-43371118Y-2792190D01*
X-43339860Y-2813077D01*
X-43318243Y-2824632D01*
X-43283504Y-2839020D01*
X-43260061Y-2846131D01*
X-43223184Y-2853467D01*
X-43198796Y-2855869D01*
X-43161204Y-2855869D01*
X-43136816Y-2853467D01*
X-43099939Y-2846131D01*
X-43076496Y-2839020D01*
X-43041757Y-2824632D01*
X-43020140Y-2813077D01*
X-42988882Y-2792190D01*
X-42969942Y-2776647D01*
X-42943353Y-2750058D01*
X-42927810Y-2731118D01*
X-42906923Y-2699860D01*
X-42895368Y-2678243D01*
X-42880980Y-2643504D01*
X-42873869Y-2620061D01*
X-42866533Y-2583184D01*
X-42864131Y-2558796D01*
X-42864131Y-2521204D01*
X-42866533Y-2496816D01*
X-42873869Y-2459939D01*
X-42880980Y-2436496D01*
X-42895368Y-2401757D01*
X-42906923Y-2380140D01*
X-42927810Y-2348882D01*
X-42943353Y-2329942D01*
X-42969942Y-2303353D01*
X-42988882Y-2287810D01*
X-43020140Y-2266923D01*
X-43041757Y-2255368D01*
X-43076496Y-2240980D01*
X-43099939Y-2233869D01*
X-43136816Y-2226533D01*
X-43161204Y-2224131D01*
X-43198796Y-2224131D01*
X-43223184Y-2226533D01*
X-43260061Y-2233869D01*
X-43283504Y-2240980D01*
X-43318243Y-2255368D01*
X-43339860Y-2266923D01*
X-43371118Y-2287810D01*
X-43390058Y-2303353D01*
X-43416647Y-2329942D01*
X-43432190Y-2348882D01*
X-43453077Y-2380140D01*
X-43464632Y-2401757D01*
X-43479020Y-2436496D01*
X-43486131Y-2459939D01*
X-43493467Y-2496816D01*
X-43495869Y-2521204D01*
X-43982719Y-2521204D01*
X-43982719Y-2472184D01*
X-43980525Y-2449908D01*
X-43954066Y-2316890D01*
X-43947564Y-2295459D01*
X-43895665Y-2170161D01*
X-43885114Y-2150421D01*
X-43809759Y-2037646D01*
X-43795562Y-2020346D01*
X-43699654Y-1924438D01*
X-43682351Y-1910238D01*
X-43667030Y-1900001D01*
X-43648088Y-1884456D01*
X-43632543Y-1865515D01*
X-43620991Y-1843904D01*
X-43613878Y-1820455D01*
X-43611476Y-1796069D01*
X-43616811Y-1759941D01*
X-43620252Y-1748544D01*
X-43624584Y-1726663D01*
X-43631306Y-1658114D01*
X-43631852Y-1646941D01*
X-43631852Y-739294D01*
X-43634254Y-714908D01*
X-43641367Y-691459D01*
X-43652918Y-669848D01*
X-43668463Y-650906D01*
X-43682387Y-639479D01*
X-43682365Y-639452D01*
X-43704415Y-621357D01*
X-43801357Y-524415D01*
X-43815561Y-507106D01*
X-43891723Y-393121D01*
X-43902281Y-373371D01*
X-43954743Y-246718D01*
X-43961244Y-225285D01*
X-43987989Y-90829D01*
X-43990183Y-68549D01*
X-43990183Y68549D01*
X-43987989Y90829D01*
X-43961244Y225285D01*
X-43954743Y246718D01*
X-43902281Y373371D01*
X-43891723Y393121D01*
X-43815561Y507106D01*
X-43801357Y524415D01*
X-43704415Y621357D01*
X-43687102Y635565D01*
X-43682612Y638565D01*
X-43663670Y654110D01*
X-43648126Y673053D01*
X-43636575Y694664D01*
X-43629463Y718113D01*
X-43627658Y754692D01*
X-43631306Y791904D01*
X-43631852Y803059D01*
X-43631852Y1809683D01*
X-43634254Y1834069D01*
X-43641367Y1857518D01*
X-43652918Y1879129D01*
X-43668463Y1898071D01*
X-43677972Y1905901D01*
X-43677607Y1906346D01*
X-43699657Y1924441D01*
X-43795562Y2020346D01*
X-43809759Y2037646D01*
X-43885114Y2150421D01*
X-43895665Y2170161D01*
X-43947564Y2295459D01*
X-43954066Y2316890D01*
X-43980525Y2449908D01*
X-43982719Y2472184D01*
X-43982719Y2558796D01*
X-43495869Y2558796D01*
X-43495869Y2521204D01*
X-43493467Y2496816D01*
X-43486131Y2459939D01*
X-43479020Y2436496D01*
X-43464632Y2401757D01*
X-43453077Y2380140D01*
X-43432190Y2348882D01*
X-43416647Y2329942D01*
X-43390058Y2303353D01*
X-43371120Y2287811D01*
X-43361158Y2281154D01*
X-43339548Y2269602D01*
X-43316099Y2262488D01*
X-43291713Y2260085D01*
X-43268286Y2262299D01*
X-43253567Y2265107D01*
X-43187991Y2271074D01*
X-43165704Y2270919D01*
X-43100231Y2264037D01*
X-43093424Y2262640D01*
X-43069053Y2260089D01*
X-43044653Y2262342D01*
X-43021161Y2269312D01*
X-42998845Y2281153D01*
X-42988885Y2287808D01*
X-42969942Y2303353D01*
X-42943353Y2329942D01*
X-42927810Y2348882D01*
X-42906923Y2380140D01*
X-42895368Y2401757D01*
X-42880980Y2436496D01*
X-42873869Y2459939D01*
X-42866533Y2496816D01*
X-42864131Y2521204D01*
X-42864131Y2558796D01*
X-42866533Y2583184D01*
X-42873869Y2620061D01*
X-42880980Y2643504D01*
X-42895368Y2678243D01*
X-42906923Y2699860D01*
X-42927810Y2731118D01*
X-42943353Y2750058D01*
X-42969942Y2776647D01*
X-42988882Y2792190D01*
X-43020140Y2813077D01*
X-43041757Y2824632D01*
X-43076496Y2839020D01*
X-43099939Y2846131D01*
X-43136816Y2853467D01*
X-43161204Y2855869D01*
X-43198796Y2855869D01*
X-43223184Y2853467D01*
X-43260061Y2846131D01*
X-43283504Y2839020D01*
X-43318243Y2824632D01*
X-43339860Y2813077D01*
X-43371118Y2792190D01*
X-43390058Y2776647D01*
X-43416647Y2750058D01*
X-43432190Y2731118D01*
X-43453077Y2699860D01*
X-43464632Y2678243D01*
X-43479020Y2643504D01*
X-43486131Y2620061D01*
X-43493467Y2583184D01*
X-43495869Y2558796D01*
X-43982719Y2558796D01*
X-43982719Y2607816D01*
X-43980525Y2630092D01*
X-43954066Y2763110D01*
X-43947564Y2784541D01*
X-43895665Y2909839D01*
X-43885114Y2929579D01*
X-43809759Y3042354D01*
X-43795562Y3059654D01*
X-43699654Y3155562D01*
X-43682354Y3169759D01*
X-43569579Y3245114D01*
X-43549839Y3255665D01*
X-43424541Y3307564D01*
X-43403110Y3314066D01*
X-43270092Y3340525D01*
X-43247816Y3342719D01*
X-43112184Y3342719D01*
X-43089908Y3340525D01*
G37*
G36*
X-18001438Y-348181D02*
G01*
X-17966519Y-358774D01*
X-17934337Y-375976D01*
X-17906127Y-399127D01*
X-17882976Y-427337D01*
X-17865774Y-459519D01*
X-17855181Y-494438D01*
X-17851000Y-536895D01*
X-17851000Y-2003105D01*
X-17855181Y-2045562D01*
X-17865774Y-2080481D01*
X-17882976Y-2112663D01*
X-17906127Y-2140873D01*
X-17934337Y-2164024D01*
X-17966519Y-2181226D01*
X-18001438Y-2191819D01*
X-18043895Y-2196000D01*
X-19185105Y-2196000D01*
X-19227562Y-2191819D01*
X-19262481Y-2181226D01*
X-19294663Y-2164024D01*
X-19322873Y-2140873D01*
X-19346024Y-2112663D01*
X-19363226Y-2080481D01*
X-19373819Y-2045562D01*
X-19378000Y-2003105D01*
X-19378000Y-536895D01*
X-19373819Y-494438D01*
X-19363226Y-459519D01*
X-19346024Y-427337D01*
X-19322873Y-399127D01*
X-19294663Y-375976D01*
X-19262481Y-358774D01*
X-19227562Y-348181D01*
X-19185105Y-344000D01*
X-18043895Y-344000D01*
X-18001438Y-348181D01*
G37*
G36*
X-20976438Y-348181D02*
G01*
X-20941519Y-358774D01*
X-20909337Y-375976D01*
X-20881127Y-399127D01*
X-20857976Y-427337D01*
X-20840774Y-459519D01*
X-20830181Y-494438D01*
X-20826000Y-536895D01*
X-20826000Y-2003105D01*
X-20830181Y-2045562D01*
X-20840774Y-2080481D01*
X-20857976Y-2112663D01*
X-20881127Y-2140873D01*
X-20909337Y-2164024D01*
X-20941519Y-2181226D01*
X-20976438Y-2191819D01*
X-21018895Y-2196000D01*
X-22160105Y-2196000D01*
X-22202562Y-2191819D01*
X-22237481Y-2181226D01*
X-22269663Y-2164024D01*
X-22297873Y-2140873D01*
X-22321024Y-2112663D01*
X-22338226Y-2080481D01*
X-22348819Y-2045562D01*
X-22353000Y-2003105D01*
X-22353000Y-536895D01*
X-22348819Y-494438D01*
X-22338226Y-459519D01*
X-22321024Y-427337D01*
X-22297873Y-399127D01*
X-22269663Y-375976D01*
X-22237481Y-358774D01*
X-22202562Y-348181D01*
X-22160105Y-344000D01*
X-21018895Y-344000D01*
X-20976438Y-348181D01*
G37*
G36*
X-28649000Y-1661000D02*
G01*
X-30251000Y-1661000D01*
X-30251000Y441000D01*
X-28649000Y441000D01*
X-28649000Y-1661000D01*
G37*
G36*
X-30949000Y-1661000D02*
G01*
X-32551000Y-1661000D01*
X-32551000Y441000D01*
X-30949000Y441000D01*
X-30949000Y-1661000D01*
G37*
G36*
X-33249000Y-1661000D02*
G01*
X-34851000Y-1661000D01*
X-34851000Y441000D01*
X-33249000Y441000D01*
X-33249000Y-1661000D01*
G37*
G36*
X-37511326Y-403465D02*
G01*
X-37473633Y-414899D01*
X-37438897Y-433466D01*
X-37408452Y-458452D01*
X-37383466Y-488897D01*
X-37364899Y-523633D01*
X-37353465Y-561326D01*
X-37349000Y-606661D01*
X-37349000Y-1443339D01*
X-37353465Y-1488674D01*
X-37364899Y-1526367D01*
X-37383466Y-1561103D01*
X-37408452Y-1591548D01*
X-37438897Y-1616534D01*
X-37473633Y-1635101D01*
X-37511326Y-1646535D01*
X-37556661Y-1651000D01*
X-38643339Y-1651000D01*
X-38688674Y-1646535D01*
X-38726367Y-1635101D01*
X-38761103Y-1616534D01*
X-38791548Y-1591548D01*
X-38816534Y-1561103D01*
X-38835101Y-1526367D01*
X-38846535Y-1488674D01*
X-38851000Y-1443339D01*
X-38851000Y-606661D01*
X-38846535Y-561326D01*
X-38835101Y-523633D01*
X-38816534Y-488897D01*
X-38791548Y-458452D01*
X-38761103Y-433466D01*
X-38726367Y-414899D01*
X-38688674Y-403465D01*
X-38643339Y-399000D01*
X-37556661Y-399000D01*
X-37511326Y-403465D01*
G37*
G36*
X-24811326Y-403465D02*
G01*
X-24773633Y-414899D01*
X-24738897Y-433466D01*
X-24708452Y-458452D01*
X-24683466Y-488897D01*
X-24664899Y-523633D01*
X-24653465Y-561326D01*
X-24649000Y-606661D01*
X-24649000Y-1443339D01*
X-24653465Y-1488674D01*
X-24664899Y-1526367D01*
X-24683466Y-1561103D01*
X-24708452Y-1591548D01*
X-24738897Y-1616534D01*
X-24773633Y-1635101D01*
X-24811326Y-1646535D01*
X-24856661Y-1651000D01*
X-25943339Y-1651000D01*
X-25988674Y-1646535D01*
X-26026367Y-1635101D01*
X-26061103Y-1616534D01*
X-26091548Y-1591548D01*
X-26116534Y-1561103D01*
X-26135101Y-1526367D01*
X-26146535Y-1488674D01*
X-26151000Y-1443339D01*
X-26151000Y-606661D01*
X-26146535Y-561326D01*
X-26135101Y-523633D01*
X-26116534Y-488897D01*
X-26091548Y-458452D01*
X-26061103Y-433466D01*
X-26026367Y-414899D01*
X-25988674Y-403465D01*
X-25943339Y-399000D01*
X-24856661Y-399000D01*
X-24811326Y-403465D01*
G37*
G36*
X-24811326Y1646535D02*
G01*
X-24773633Y1635101D01*
X-24738897Y1616534D01*
X-24708452Y1591548D01*
X-24683466Y1561103D01*
X-24664899Y1526367D01*
X-24653465Y1488674D01*
X-24649000Y1443339D01*
X-24649000Y606661D01*
X-24653465Y561326D01*
X-24664899Y523633D01*
X-24683466Y488897D01*
X-24708452Y458452D01*
X-24738897Y433466D01*
X-24773633Y414899D01*
X-24811326Y403465D01*
X-24856661Y399000D01*
X-25943339Y399000D01*
X-25988674Y403465D01*
X-26026367Y414899D01*
X-26061103Y433466D01*
X-26091548Y458452D01*
X-26116534Y488897D01*
X-26135101Y523633D01*
X-26146535Y561326D01*
X-26151000Y606661D01*
X-26151000Y1443339D01*
X-26146535Y1488674D01*
X-26135101Y1526367D01*
X-26116534Y1561103D01*
X-26091548Y1591548D01*
X-26061103Y1616534D01*
X-26026367Y1635101D01*
X-25988674Y1646535D01*
X-25943339Y1651000D01*
X-24856661Y1651000D01*
X-24811326Y1646535D01*
G37*
G36*
X-37511326Y1646535D02*
G01*
X-37473633Y1635101D01*
X-37438897Y1616534D01*
X-37408452Y1591548D01*
X-37383466Y1561103D01*
X-37364899Y1526367D01*
X-37353465Y1488674D01*
X-37349000Y1443339D01*
X-37349000Y606661D01*
X-37353465Y561326D01*
X-37364899Y523633D01*
X-37383466Y488897D01*
X-37408452Y458452D01*
X-37438897Y433466D01*
X-37473633Y414899D01*
X-37511326Y403465D01*
X-37556661Y399000D01*
X-38643339Y399000D01*
X-38688674Y403465D01*
X-38726367Y414899D01*
X-38761103Y433466D01*
X-38791548Y458452D01*
X-38816534Y488897D01*
X-38835101Y523633D01*
X-38846535Y561326D01*
X-38851000Y606661D01*
X-38851000Y1443339D01*
X-38846535Y1488674D01*
X-38835101Y1526367D01*
X-38816534Y1561103D01*
X-38791548Y1591548D01*
X-38761103Y1616534D01*
X-38726367Y1635101D01*
X-38688674Y1646535D01*
X-38643339Y1651000D01*
X-37556661Y1651000D01*
X-37511326Y1646535D01*
G37*
G36*
X-11869438Y4731819D02*
G01*
X-11834519Y4721226D01*
X-11802337Y4704024D01*
X-11774127Y4680873D01*
X-11750976Y4652663D01*
X-11733774Y4620481D01*
X-11723181Y4585562D01*
X-11719000Y4543105D01*
X-11719000Y3076895D01*
X-11723181Y3034438D01*
X-11733774Y2999519D01*
X-11750976Y2967337D01*
X-11774127Y2939127D01*
X-11802337Y2915976D01*
X-11834519Y2898774D01*
X-11869438Y2888181D01*
X-11911895Y2884000D01*
X-13053105Y2884000D01*
X-13095562Y2888181D01*
X-13130481Y2898774D01*
X-13162663Y2915976D01*
X-13190873Y2939127D01*
X-13214024Y2967337D01*
X-13231226Y2999519D01*
X-13241819Y3034438D01*
X-13246000Y3076895D01*
X-13246000Y4543105D01*
X-13241819Y4585562D01*
X-13231226Y4620481D01*
X-13214024Y4652663D01*
X-13190873Y4680873D01*
X-13162663Y4704024D01*
X-13130481Y4721226D01*
X-13095562Y4731819D01*
X-13053105Y4736000D01*
X-11911895Y4736000D01*
X-11869438Y4731819D01*
G37*
G36*
X-5519438Y4731819D02*
G01*
X-5484519Y4721226D01*
X-5452337Y4704024D01*
X-5424127Y4680873D01*
X-5400976Y4652663D01*
X-5383774Y4620481D01*
X-5373181Y4585562D01*
X-5369000Y4543105D01*
X-5369000Y3076895D01*
X-5373181Y3034438D01*
X-5383774Y2999519D01*
X-5400976Y2967337D01*
X-5424127Y2939127D01*
X-5452337Y2915976D01*
X-5484519Y2898774D01*
X-5519438Y2888181D01*
X-5561895Y2884000D01*
X-6703105Y2884000D01*
X-6745562Y2888181D01*
X-6780481Y2898774D01*
X-6812663Y2915976D01*
X-6840873Y2939127D01*
X-6864024Y2967337D01*
X-6881226Y2999519D01*
X-6891819Y3034438D01*
X-6896000Y3076895D01*
X-6896000Y4543105D01*
X-6891819Y4585562D01*
X-6881226Y4620481D01*
X-6864024Y4652663D01*
X-6840873Y4680873D01*
X-6812663Y4704024D01*
X-6780481Y4721226D01*
X-6745562Y4731819D01*
X-6703105Y4736000D01*
X-5561895Y4736000D01*
X-5519438Y4731819D01*
G37*
G36*
X-8494438Y4731819D02*
G01*
X-8459519Y4721226D01*
X-8427337Y4704024D01*
X-8399127Y4680873D01*
X-8375976Y4652663D01*
X-8358774Y4620481D01*
X-8348181Y4585562D01*
X-8344000Y4543105D01*
X-8344000Y3076895D01*
X-8348181Y3034438D01*
X-8358774Y2999519D01*
X-8375976Y2967337D01*
X-8399127Y2939127D01*
X-8427337Y2915976D01*
X-8459519Y2898774D01*
X-8494438Y2888181D01*
X-8536895Y2884000D01*
X-9678105Y2884000D01*
X-9720562Y2888181D01*
X-9755481Y2898774D01*
X-9787663Y2915976D01*
X-9815873Y2939127D01*
X-9839024Y2967337D01*
X-9856226Y2999519D01*
X-9866819Y3034438D01*
X-9871000Y3076895D01*
X-9871000Y4543105D01*
X-9866819Y4585562D01*
X-9856226Y4620481D01*
X-9839024Y4652663D01*
X-9815873Y4680873D01*
X-9787663Y4704024D01*
X-9755481Y4721226D01*
X-9720562Y4731819D01*
X-9678105Y4736000D01*
X-8536895Y4736000D01*
X-8494438Y4731819D01*
G37*
G36*
X-14844438Y4731819D02*
G01*
X-14809519Y4721226D01*
X-14777337Y4704024D01*
X-14749127Y4680873D01*
X-14725976Y4652663D01*
X-14708774Y4620481D01*
X-14698181Y4585562D01*
X-14694000Y4543105D01*
X-14694000Y3076895D01*
X-14698181Y3034438D01*
X-14708774Y2999519D01*
X-14725976Y2967337D01*
X-14749127Y2939127D01*
X-14777337Y2915976D01*
X-14809519Y2898774D01*
X-14844438Y2888181D01*
X-14886895Y2884000D01*
X-16028105Y2884000D01*
X-16070562Y2888181D01*
X-16105481Y2898774D01*
X-16137663Y2915976D01*
X-16165873Y2939127D01*
X-16189024Y2967337D01*
X-16206226Y2999519D01*
X-16216819Y3034438D01*
X-16221000Y3076895D01*
X-16221000Y4543105D01*
X-16216819Y4585562D01*
X-16206226Y4620481D01*
X-16189024Y4652663D01*
X-16165873Y4680873D01*
X-16137663Y4704024D01*
X-16105481Y4721226D01*
X-16070562Y4731819D01*
X-16028105Y4736000D01*
X-14886895Y4736000D01*
X-14844438Y4731819D01*
G37*
G36*
X-29799000Y4639000D02*
G01*
X-33701000Y4639000D01*
X-33701000Y6741000D01*
X-29799000Y6741000D01*
X-29799000Y4639000D01*
G37*
G36*
X-17999000Y7839000D02*
G01*
X-20101000Y7839000D01*
X-20101000Y9941000D01*
X-17999000Y9941000D01*
X-17999000Y7839000D01*
G37*
G36*
X-23823436Y9900611D02*
G01*
X-23632167Y9821385D01*
X-23632165Y9821384D01*
X-23460027Y9706365D01*
X-23313635Y9559973D01*
X-23198615Y9387833D01*
X-23119389Y9196564D01*
X-23079000Y8993516D01*
X-23079000Y8786484D01*
X-23119389Y8583436D01*
X-23198615Y8392167D01*
X-23198616Y8392165D01*
X-23313635Y8220027D01*
X-23460027Y8073635D01*
X-23632165Y7958616D01*
X-23632166Y7958615D01*
X-23632167Y7958615D01*
X-23823436Y7879389D01*
X-24026484Y7839000D01*
X-24233516Y7839000D01*
X-24436564Y7879389D01*
X-24627833Y7958615D01*
X-24627834Y7958615D01*
X-24627835Y7958616D01*
X-24799973Y8073635D01*
X-24946365Y8220027D01*
X-25061384Y8392165D01*
X-25061385Y8392167D01*
X-25140611Y8583436D01*
X-25181000Y8786484D01*
X-25181000Y8993516D01*
X-25140611Y9196564D01*
X-25061385Y9387833D01*
X-24946365Y9559973D01*
X-24799973Y9706365D01*
X-24627835Y9821384D01*
X-24627833Y9821385D01*
X-24436564Y9900611D01*
X-24233516Y9941000D01*
X-24026484Y9941000D01*
X-23823436Y9900611D01*
G37*
G36*
X-23892858Y14751758D02*
G01*
X-23744899Y14690471D01*
X-23611745Y14601501D01*
X-23498499Y14488255D01*
X-23409529Y14355101D01*
X-23348242Y14207142D01*
X-23317000Y14050075D01*
X-23317000Y13889925D01*
X-23348242Y13732858D01*
X-23409529Y13584899D01*
X-23498499Y13451745D01*
X-23611745Y13338499D01*
X-23744899Y13249529D01*
X-23892858Y13188242D01*
X-24049925Y13157000D01*
X-24210075Y13157000D01*
X-24367142Y13188242D01*
X-24515101Y13249529D01*
X-24648255Y13338499D01*
X-24761501Y13451745D01*
X-24850471Y13584899D01*
X-24911758Y13732858D01*
X-24943000Y13889925D01*
X-24943000Y14050075D01*
X-24911758Y14207142D01*
X-24850471Y14355101D01*
X-24761501Y14488255D01*
X-24648255Y14601501D01*
X-24515101Y14690471D01*
X-24367142Y14751758D01*
X-24210075Y14783000D01*
X-24049925Y14783000D01*
X-23892858Y14751758D01*
G37*
G36*
X-18812858Y14751758D02*
G01*
X-18664899Y14690471D01*
X-18531745Y14601501D01*
X-18418499Y14488255D01*
X-18329529Y14355101D01*
X-18268242Y14207142D01*
X-18237000Y14050075D01*
X-18237000Y13889925D01*
X-18268242Y13732858D01*
X-18329529Y13584899D01*
X-18418499Y13451745D01*
X-18531745Y13338499D01*
X-18664899Y13249529D01*
X-18812858Y13188242D01*
X-18969925Y13157000D01*
X-19130075Y13157000D01*
X-19287142Y13188242D01*
X-19435101Y13249529D01*
X-19568255Y13338499D01*
X-19681501Y13451745D01*
X-19770471Y13584899D01*
X-19831758Y13732858D01*
X-19863000Y13889925D01*
X-19863000Y14050075D01*
X-19831758Y14207142D01*
X-19770471Y14355101D01*
X-19681501Y14488255D01*
X-19568255Y14601501D01*
X-19435101Y14690471D01*
X-19287142Y14751758D01*
X-19130075Y14783000D01*
X-18969925Y14783000D01*
X-18812858Y14751758D01*
G37*
M02*
