%TF.GenerationSoftware,KiCad,Pcbnew,5.1.6-c6e7f7d~86~ubuntu18.04.1*%
%TF.CreationDate,2020-05-25T18:51:15+02:00*%
%TF.ProjectId,power-supply-5V,706f7765-722d-4737-9570-706c792d3556,1.0*%
%TF.SameCoordinates,PX77e7cd0PY5125ed0*%
%TF.FileFunction,Copper,L1,Top*%
%TF.FilePolarity,Positive*%
%FSLAX46Y46*%
G04 Gerber Fmt 4.6, Leading zero omitted, Abs format (unit mm)*
G04 Created by KiCad (PCBNEW 5.1.6-c6e7f7d~86~ubuntu18.04.1) date 2020-05-25 18:51:15*
%MOMM*%
%LPD*%
G01*
G04 APERTURE LIST*
%TA.AperFunction,Profile*%
%ADD10C,0.050000*%
%TD*%
%TA.AperFunction,EtchedComponent*%
%ADD11C,0.010000*%
%TD*%
%TA.AperFunction,ComponentPad*%
%ADD12C,1.524000*%
%TD*%
%TA.AperFunction,ComponentPad*%
%ADD13R,1.524000X1.524000*%
%TD*%
%TA.AperFunction,WasherPad*%
%ADD14C,1.700000*%
%TD*%
%TA.AperFunction,ComponentPad*%
%ADD15C,2.000000*%
%TD*%
%TA.AperFunction,ComponentPad*%
%ADD16R,2.000000X2.000000*%
%TD*%
%TA.AperFunction,SMDPad,CuDef*%
%ADD17R,1.500000X2.000000*%
%TD*%
%TA.AperFunction,SMDPad,CuDef*%
%ADD18R,3.800000X2.000000*%
%TD*%
%TA.AperFunction,Conductor*%
%ADD19C,0.500000*%
%TD*%
%TA.AperFunction,Conductor*%
%ADD20C,0.800000*%
%TD*%
%TA.AperFunction,Conductor*%
%ADD21C,0.254000*%
%TD*%
G04 APERTURE END LIST*
D10*
X1666666Y0D02*
G75*
G03*
X1666666Y0I-1666666J0D01*
G01*
X-2500000Y0D02*
X2500000Y0D01*
X0Y2500000D02*
X0Y-2500000D01*
X0Y0D02*
X0Y20320000D01*
X53340000Y0D02*
X0Y0D01*
X53340000Y20320000D02*
X53340000Y0D01*
X0Y20320000D02*
X53340000Y20320000D01*
D11*
%TO.C,G\u002A\u002A\u002A*%
G36*
X20341167Y17102667D02*
G01*
X19219333Y17102667D01*
X19219333Y16615833D01*
X20277667Y16615833D01*
X20277667Y16129000D01*
X19219333Y16129000D01*
X19219333Y15536333D01*
X20383500Y15536333D01*
X20383500Y15028333D01*
X18541672Y15028333D01*
X18547128Y16314208D01*
X18552583Y17600083D01*
X19446875Y17605605D01*
X20341167Y17611126D01*
X20341167Y17102667D01*
G37*
X20341167Y17102667D02*
X19219333Y17102667D01*
X19219333Y16615833D01*
X20277667Y16615833D01*
X20277667Y16129000D01*
X19219333Y16129000D01*
X19219333Y15536333D01*
X20383500Y15536333D01*
X20383500Y15028333D01*
X18541672Y15028333D01*
X18547128Y16314208D01*
X18552583Y17600083D01*
X19446875Y17605605D01*
X20341167Y17611126D01*
X20341167Y17102667D01*
G36*
X14922500Y17102667D02*
G01*
X13800667Y17102667D01*
X13800667Y16615833D01*
X14859000Y16615833D01*
X14859000Y16129740D01*
X14335125Y16124078D01*
X13811250Y16118417D01*
X13799472Y15536333D01*
X14964833Y15536333D01*
X14964833Y15028333D01*
X13144500Y15028333D01*
X13144500Y17610667D01*
X14922500Y17610667D01*
X14922500Y17102667D01*
G37*
X14922500Y17102667D02*
X13800667Y17102667D01*
X13800667Y16615833D01*
X14859000Y16615833D01*
X14859000Y16129740D01*
X14335125Y16124078D01*
X13811250Y16118417D01*
X13799472Y15536333D01*
X14964833Y15536333D01*
X14964833Y15028333D01*
X13144500Y15028333D01*
X13144500Y17610667D01*
X14922500Y17610667D01*
X14922500Y17102667D01*
G36*
X12530667Y17214710D02*
G01*
X12034539Y16126813D01*
X11538412Y15038917D01*
X11219623Y15033074D01*
X11108911Y15031934D01*
X11014901Y15032661D01*
X10944890Y15035064D01*
X10906176Y15038952D01*
X10900833Y15041444D01*
X10909341Y15062895D01*
X10933780Y15119231D01*
X10972520Y15206816D01*
X11023933Y15322016D01*
X11086390Y15461194D01*
X11158262Y15620715D01*
X11237919Y15796946D01*
X11323734Y15986249D01*
X11358003Y16061701D01*
X11446098Y16255643D01*
X11529016Y16438346D01*
X11605082Y16606107D01*
X11672619Y16755221D01*
X11729952Y16881984D01*
X11775404Y16982695D01*
X11807300Y17053648D01*
X11823965Y17091140D01*
X11825934Y17095789D01*
X11822319Y17104078D01*
X11801774Y17110633D01*
X11760360Y17115636D01*
X11694138Y17119269D01*
X11599170Y17121715D01*
X11471517Y17123156D01*
X11307240Y17123775D01*
X11220598Y17123833D01*
X10604500Y17123833D01*
X10604500Y17610667D01*
X12530667Y17610667D01*
X12530667Y17214710D01*
G37*
X12530667Y17214710D02*
X12034539Y16126813D01*
X11538412Y15038917D01*
X11219623Y15033074D01*
X11108911Y15031934D01*
X11014901Y15032661D01*
X10944890Y15035064D01*
X10906176Y15038952D01*
X10900833Y15041444D01*
X10909341Y15062895D01*
X10933780Y15119231D01*
X10972520Y15206816D01*
X11023933Y15322016D01*
X11086390Y15461194D01*
X11158262Y15620715D01*
X11237919Y15796946D01*
X11323734Y15986249D01*
X11358003Y16061701D01*
X11446098Y16255643D01*
X11529016Y16438346D01*
X11605082Y16606107D01*
X11672619Y16755221D01*
X11729952Y16881984D01*
X11775404Y16982695D01*
X11807300Y17053648D01*
X11823965Y17091140D01*
X11825934Y17095789D01*
X11822319Y17104078D01*
X11801774Y17110633D01*
X11760360Y17115636D01*
X11694138Y17119269D01*
X11599170Y17121715D01*
X11471517Y17123156D01*
X11307240Y17123775D01*
X11220598Y17123833D01*
X10604500Y17123833D01*
X10604500Y17610667D01*
X12530667Y17610667D01*
X12530667Y17214710D01*
G36*
X4455864Y16317078D02*
G01*
X4485232Y16311028D01*
X4487333Y16308618D01*
X4476130Y16288430D01*
X4444952Y16238750D01*
X4397443Y16165218D01*
X4337248Y16073473D01*
X4268013Y15969153D01*
X4265083Y15964763D01*
X4042833Y15631790D01*
X4042833Y15028333D01*
X3873500Y15028333D01*
X3873500Y15643528D01*
X3651250Y15968774D01*
X3581146Y16072082D01*
X3520126Y16163370D01*
X3471934Y16236926D01*
X3440311Y16287038D01*
X3429000Y16307978D01*
X3447775Y16315128D01*
X3495015Y16316653D01*
X3518958Y16315426D01*
X3554238Y16311971D01*
X3582896Y16303864D01*
X3610290Y16285725D01*
X3641783Y16252173D01*
X3682734Y16197829D01*
X3738503Y16117312D01*
X3785707Y16047701D01*
X3962497Y15786485D01*
X4140493Y16052993D01*
X4318489Y16319500D01*
X4402911Y16319500D01*
X4455864Y16317078D01*
G37*
X4455864Y16317078D02*
X4485232Y16311028D01*
X4487333Y16308618D01*
X4476130Y16288430D01*
X4444952Y16238750D01*
X4397443Y16165218D01*
X4337248Y16073473D01*
X4268013Y15969153D01*
X4265083Y15964763D01*
X4042833Y15631790D01*
X4042833Y15028333D01*
X3873500Y15028333D01*
X3873500Y15643528D01*
X3651250Y15968774D01*
X3581146Y16072082D01*
X3520126Y16163370D01*
X3471934Y16236926D01*
X3440311Y16287038D01*
X3429000Y16307978D01*
X3447775Y16315128D01*
X3495015Y16316653D01*
X3518958Y16315426D01*
X3554238Y16311971D01*
X3582896Y16303864D01*
X3610290Y16285725D01*
X3641783Y16252173D01*
X3682734Y16197829D01*
X3738503Y16117312D01*
X3785707Y16047701D01*
X3962497Y15786485D01*
X4140493Y16052993D01*
X4318489Y16319500D01*
X4402911Y16319500D01*
X4455864Y16317078D01*
G36*
X2788708Y16315619D02*
G01*
X2932394Y16310091D01*
X3041043Y16301071D01*
X3121923Y16286548D01*
X3182303Y16264513D01*
X3229455Y16232954D01*
X3270646Y16189862D01*
X3278408Y16180192D01*
X3324066Y16093553D01*
X3339467Y15996980D01*
X3326063Y15901814D01*
X3285305Y15819396D01*
X3225255Y15764792D01*
X3150908Y15720926D01*
X3229542Y15676255D01*
X3314791Y15607664D01*
X3365361Y15517166D01*
X3382530Y15402110D01*
X3381295Y15361424D01*
X3362434Y15251019D01*
X3318325Y15168516D01*
X3242701Y15103980D01*
X3205550Y15082703D01*
X3166921Y15065231D01*
X3122786Y15052604D01*
X3065072Y15043807D01*
X2985704Y15037829D01*
X2876610Y15033657D01*
X2799292Y15031725D01*
X2476500Y15024534D01*
X2476500Y15642167D01*
X2645833Y15642167D01*
X2645833Y15172647D01*
X2867650Y15179865D01*
X2968349Y15183880D01*
X3036350Y15189547D01*
X3081284Y15199037D01*
X3112784Y15214524D01*
X3140481Y15238180D01*
X3144685Y15242349D01*
X3188531Y15312288D01*
X3203701Y15396215D01*
X3192328Y15482134D01*
X3156542Y15558044D01*
X3098474Y15611949D01*
X3077265Y15621945D01*
X3032241Y15631143D01*
X2958272Y15638153D01*
X2868733Y15641857D01*
X2834955Y15642167D01*
X2645833Y15642167D01*
X2476500Y15642167D01*
X2476500Y16171333D01*
X2645833Y16171333D01*
X2645833Y15786367D01*
X2855328Y15793642D01*
X2958432Y15798746D01*
X3028385Y15806679D01*
X3074352Y15819159D01*
X3105502Y15837903D01*
X3109328Y15841239D01*
X3140691Y15893573D01*
X3154842Y15967665D01*
X3149380Y16045615D01*
X3140685Y16075135D01*
X3102537Y16121372D01*
X3028525Y16152342D01*
X2917098Y16168521D01*
X2826801Y16171333D01*
X2645833Y16171333D01*
X2476500Y16171333D01*
X2476500Y16324114D01*
X2788708Y16315619D01*
G37*
X2788708Y16315619D02*
X2932394Y16310091D01*
X3041043Y16301071D01*
X3121923Y16286548D01*
X3182303Y16264513D01*
X3229455Y16232954D01*
X3270646Y16189862D01*
X3278408Y16180192D01*
X3324066Y16093553D01*
X3339467Y15996980D01*
X3326063Y15901814D01*
X3285305Y15819396D01*
X3225255Y15764792D01*
X3150908Y15720926D01*
X3229542Y15676255D01*
X3314791Y15607664D01*
X3365361Y15517166D01*
X3382530Y15402110D01*
X3381295Y15361424D01*
X3362434Y15251019D01*
X3318325Y15168516D01*
X3242701Y15103980D01*
X3205550Y15082703D01*
X3166921Y15065231D01*
X3122786Y15052604D01*
X3065072Y15043807D01*
X2985704Y15037829D01*
X2876610Y15033657D01*
X2799292Y15031725D01*
X2476500Y15024534D01*
X2476500Y15642167D01*
X2645833Y15642167D01*
X2645833Y15172647D01*
X2867650Y15179865D01*
X2968349Y15183880D01*
X3036350Y15189547D01*
X3081284Y15199037D01*
X3112784Y15214524D01*
X3140481Y15238180D01*
X3144685Y15242349D01*
X3188531Y15312288D01*
X3203701Y15396215D01*
X3192328Y15482134D01*
X3156542Y15558044D01*
X3098474Y15611949D01*
X3077265Y15621945D01*
X3032241Y15631143D01*
X2958272Y15638153D01*
X2868733Y15641857D01*
X2834955Y15642167D01*
X2645833Y15642167D01*
X2476500Y15642167D01*
X2476500Y16171333D01*
X2645833Y16171333D01*
X2645833Y15786367D01*
X2855328Y15793642D01*
X2958432Y15798746D01*
X3028385Y15806679D01*
X3074352Y15819159D01*
X3105502Y15837903D01*
X3109328Y15841239D01*
X3140691Y15893573D01*
X3154842Y15967665D01*
X3149380Y16045615D01*
X3140685Y16075135D01*
X3102537Y16121372D01*
X3028525Y16152342D01*
X2917098Y16168521D01*
X2826801Y16171333D01*
X2645833Y16171333D01*
X2476500Y16171333D01*
X2476500Y16324114D01*
X2788708Y16315619D01*
G36*
X6287643Y17633226D02*
G01*
X6500177Y17609697D01*
X6715337Y17573138D01*
X6799792Y17555071D01*
X6942667Y17522607D01*
X6942667Y16978624D01*
X6775932Y17039475D01*
X6593401Y17096670D01*
X6409858Y17136853D01*
X6232928Y17159429D01*
X6070240Y17163800D01*
X5929423Y17149372D01*
X5818103Y17115547D01*
X5815872Y17114499D01*
X5739931Y17058950D01*
X5694132Y16984885D01*
X5679522Y16902111D01*
X5697148Y16820437D01*
X5748057Y16749669D01*
X5774683Y16728786D01*
X5830416Y16701085D01*
X5911225Y16672457D01*
X6000397Y16648755D01*
X6007516Y16647221D01*
X6230670Y16597815D01*
X6416034Y16551446D01*
X6567902Y16506571D01*
X6690569Y16461650D01*
X6788330Y16415138D01*
X6865479Y16365495D01*
X6917167Y16320577D01*
X7010652Y16197658D01*
X7072158Y16049791D01*
X7100607Y15880962D01*
X7094920Y15695158D01*
X7092132Y15673624D01*
X7050287Y15491673D01*
X6978830Y15339210D01*
X6876640Y15215077D01*
X6742599Y15118113D01*
X6575586Y15047161D01*
X6457302Y15016212D01*
X6382455Y15005510D01*
X6277524Y14997217D01*
X6154703Y14991605D01*
X6026187Y14988947D01*
X5904171Y14989515D01*
X5800851Y14993583D01*
X5736167Y15000099D01*
X5631998Y15019234D01*
X5506349Y15046283D01*
X5378067Y15076889D01*
X5265997Y15106695D01*
X5233458Y15116326D01*
X5101167Y15157034D01*
X5101167Y15433615D01*
X5102102Y15551051D01*
X5105237Y15631126D01*
X5111061Y15678777D01*
X5120065Y15698942D01*
X5127625Y15699743D01*
X5157900Y15687398D01*
X5217025Y15663009D01*
X5294766Y15630804D01*
X5338240Y15612751D01*
X5536042Y15539684D01*
X5717728Y15493423D01*
X5897196Y15470920D01*
X6000750Y15467565D01*
X6161610Y15476537D01*
X6285999Y15505225D01*
X6375360Y15554515D01*
X6431137Y15625294D01*
X6454774Y15718448D01*
X6455833Y15746863D01*
X6446609Y15830590D01*
X6416517Y15887908D01*
X6412886Y15891950D01*
X6384497Y15920141D01*
X6353319Y15944132D01*
X6313908Y15965820D01*
X6260816Y15987103D01*
X6188598Y16009880D01*
X6091808Y16036049D01*
X5965001Y16067508D01*
X5802729Y16106156D01*
X5789083Y16109372D01*
X5581322Y16170619D01*
X5411762Y16248337D01*
X5278956Y16344169D01*
X5181452Y16459758D01*
X5117803Y16596748D01*
X5086557Y16756783D01*
X5084208Y16908584D01*
X5108732Y17089480D01*
X5163875Y17242796D01*
X5251463Y17370898D01*
X5373325Y17476149D01*
X5531289Y17560915D01*
X5612792Y17592363D01*
X5740311Y17623294D01*
X5900260Y17640259D01*
X6085188Y17643491D01*
X6287643Y17633226D01*
G37*
X6287643Y17633226D02*
X6500177Y17609697D01*
X6715337Y17573138D01*
X6799792Y17555071D01*
X6942667Y17522607D01*
X6942667Y16978624D01*
X6775932Y17039475D01*
X6593401Y17096670D01*
X6409858Y17136853D01*
X6232928Y17159429D01*
X6070240Y17163800D01*
X5929423Y17149372D01*
X5818103Y17115547D01*
X5815872Y17114499D01*
X5739931Y17058950D01*
X5694132Y16984885D01*
X5679522Y16902111D01*
X5697148Y16820437D01*
X5748057Y16749669D01*
X5774683Y16728786D01*
X5830416Y16701085D01*
X5911225Y16672457D01*
X6000397Y16648755D01*
X6007516Y16647221D01*
X6230670Y16597815D01*
X6416034Y16551446D01*
X6567902Y16506571D01*
X6690569Y16461650D01*
X6788330Y16415138D01*
X6865479Y16365495D01*
X6917167Y16320577D01*
X7010652Y16197658D01*
X7072158Y16049791D01*
X7100607Y15880962D01*
X7094920Y15695158D01*
X7092132Y15673624D01*
X7050287Y15491673D01*
X6978830Y15339210D01*
X6876640Y15215077D01*
X6742599Y15118113D01*
X6575586Y15047161D01*
X6457302Y15016212D01*
X6382455Y15005510D01*
X6277524Y14997217D01*
X6154703Y14991605D01*
X6026187Y14988947D01*
X5904171Y14989515D01*
X5800851Y14993583D01*
X5736167Y15000099D01*
X5631998Y15019234D01*
X5506349Y15046283D01*
X5378067Y15076889D01*
X5265997Y15106695D01*
X5233458Y15116326D01*
X5101167Y15157034D01*
X5101167Y15433615D01*
X5102102Y15551051D01*
X5105237Y15631126D01*
X5111061Y15678777D01*
X5120065Y15698942D01*
X5127625Y15699743D01*
X5157900Y15687398D01*
X5217025Y15663009D01*
X5294766Y15630804D01*
X5338240Y15612751D01*
X5536042Y15539684D01*
X5717728Y15493423D01*
X5897196Y15470920D01*
X6000750Y15467565D01*
X6161610Y15476537D01*
X6285999Y15505225D01*
X6375360Y15554515D01*
X6431137Y15625294D01*
X6454774Y15718448D01*
X6455833Y15746863D01*
X6446609Y15830590D01*
X6416517Y15887908D01*
X6412886Y15891950D01*
X6384497Y15920141D01*
X6353319Y15944132D01*
X6313908Y15965820D01*
X6260816Y15987103D01*
X6188598Y16009880D01*
X6091808Y16036049D01*
X5965001Y16067508D01*
X5802729Y16106156D01*
X5789083Y16109372D01*
X5581322Y16170619D01*
X5411762Y16248337D01*
X5278956Y16344169D01*
X5181452Y16459758D01*
X5117803Y16596748D01*
X5086557Y16756783D01*
X5084208Y16908584D01*
X5108732Y17089480D01*
X5163875Y17242796D01*
X5251463Y17370898D01*
X5373325Y17476149D01*
X5531289Y17560915D01*
X5612792Y17592363D01*
X5740311Y17623294D01*
X5900260Y17640259D01*
X6085188Y17643491D01*
X6287643Y17633226D01*
G36*
X16880150Y17637125D02*
G01*
X17021443Y17624953D01*
X17136043Y17604640D01*
X17145000Y17602301D01*
X17365075Y17523857D01*
X17554771Y17415944D01*
X17714041Y17278621D01*
X17842837Y17111950D01*
X17941114Y16915990D01*
X18008825Y16690803D01*
X18045922Y16436448D01*
X18045965Y16435917D01*
X18047691Y16188158D01*
X18013008Y15953778D01*
X17943481Y15736165D01*
X17840673Y15538710D01*
X17706147Y15364803D01*
X17541466Y15217834D01*
X17458312Y15161620D01*
X17333805Y15084770D01*
X17404754Y15008927D01*
X17446572Y14963681D01*
X17508486Y14896014D01*
X17582257Y14814957D01*
X17659647Y14729542D01*
X17662208Y14726708D01*
X17848713Y14520333D01*
X17211690Y14520333D01*
X17006230Y14750223D01*
X16800771Y14980112D01*
X16607760Y14992496D01*
X16361814Y15025577D01*
X16141034Y15091096D01*
X15946690Y15188140D01*
X15780056Y15315799D01*
X15642404Y15473163D01*
X15535006Y15659321D01*
X15480745Y15799275D01*
X15441177Y15963300D01*
X15417613Y16151834D01*
X15415109Y16224597D01*
X16093382Y16224597D01*
X16113611Y16051801D01*
X16154430Y15890761D01*
X16215732Y15749237D01*
X16297413Y15634987D01*
X16323609Y15609223D01*
X16445547Y15526451D01*
X16586610Y15476656D01*
X16737855Y15461122D01*
X16890341Y15481136D01*
X16986250Y15513976D01*
X17079908Y15573142D01*
X17170556Y15662948D01*
X17248421Y15772245D01*
X17294909Y15866135D01*
X17314662Y15920063D01*
X17328466Y15971907D01*
X17337383Y16030990D01*
X17342477Y16106635D01*
X17344810Y16208162D01*
X17345392Y16308917D01*
X17345045Y16435985D01*
X17342643Y16530328D01*
X17337102Y16601543D01*
X17327338Y16659227D01*
X17312267Y16712977D01*
X17293999Y16764000D01*
X17218134Y16912620D01*
X17116757Y17028219D01*
X16992239Y17109258D01*
X16846951Y17154198D01*
X16683264Y17161501D01*
X16681793Y17161397D01*
X16530173Y17134405D01*
X16402899Y17075386D01*
X16304771Y16993397D01*
X16220470Y16878189D01*
X16157286Y16735946D01*
X16115113Y16574428D01*
X16093847Y16401392D01*
X16093382Y16224597D01*
X15415109Y16224597D01*
X15410795Y16349899D01*
X15421463Y16542516D01*
X15438214Y16658167D01*
X15500100Y16880928D01*
X15596314Y17079756D01*
X15724942Y17252597D01*
X15884070Y17397400D01*
X16071785Y17512109D01*
X16286173Y17594671D01*
X16319500Y17603889D01*
X16431838Y17624539D01*
X16571774Y17636945D01*
X16725736Y17641131D01*
X16880150Y17637125D01*
G37*
X16880150Y17637125D02*
X17021443Y17624953D01*
X17136043Y17604640D01*
X17145000Y17602301D01*
X17365075Y17523857D01*
X17554771Y17415944D01*
X17714041Y17278621D01*
X17842837Y17111950D01*
X17941114Y16915990D01*
X18008825Y16690803D01*
X18045922Y16436448D01*
X18045965Y16435917D01*
X18047691Y16188158D01*
X18013008Y15953778D01*
X17943481Y15736165D01*
X17840673Y15538710D01*
X17706147Y15364803D01*
X17541466Y15217834D01*
X17458312Y15161620D01*
X17333805Y15084770D01*
X17404754Y15008927D01*
X17446572Y14963681D01*
X17508486Y14896014D01*
X17582257Y14814957D01*
X17659647Y14729542D01*
X17662208Y14726708D01*
X17848713Y14520333D01*
X17211690Y14520333D01*
X17006230Y14750223D01*
X16800771Y14980112D01*
X16607760Y14992496D01*
X16361814Y15025577D01*
X16141034Y15091096D01*
X15946690Y15188140D01*
X15780056Y15315799D01*
X15642404Y15473163D01*
X15535006Y15659321D01*
X15480745Y15799275D01*
X15441177Y15963300D01*
X15417613Y16151834D01*
X15415109Y16224597D01*
X16093382Y16224597D01*
X16113611Y16051801D01*
X16154430Y15890761D01*
X16215732Y15749237D01*
X16297413Y15634987D01*
X16323609Y15609223D01*
X16445547Y15526451D01*
X16586610Y15476656D01*
X16737855Y15461122D01*
X16890341Y15481136D01*
X16986250Y15513976D01*
X17079908Y15573142D01*
X17170556Y15662948D01*
X17248421Y15772245D01*
X17294909Y15866135D01*
X17314662Y15920063D01*
X17328466Y15971907D01*
X17337383Y16030990D01*
X17342477Y16106635D01*
X17344810Y16208162D01*
X17345392Y16308917D01*
X17345045Y16435985D01*
X17342643Y16530328D01*
X17337102Y16601543D01*
X17327338Y16659227D01*
X17312267Y16712977D01*
X17293999Y16764000D01*
X17218134Y16912620D01*
X17116757Y17028219D01*
X16992239Y17109258D01*
X16846951Y17154198D01*
X16683264Y17161501D01*
X16681793Y17161397D01*
X16530173Y17134405D01*
X16402899Y17075386D01*
X16304771Y16993397D01*
X16220470Y16878189D01*
X16157286Y16735946D01*
X16115113Y16574428D01*
X16093847Y16401392D01*
X16093382Y16224597D01*
X15415109Y16224597D01*
X15410795Y16349899D01*
X15421463Y16542516D01*
X15438214Y16658167D01*
X15500100Y16880928D01*
X15596314Y17079756D01*
X15724942Y17252597D01*
X15884070Y17397400D01*
X16071785Y17512109D01*
X16286173Y17594671D01*
X16319500Y17603889D01*
X16431838Y17624539D01*
X16571774Y17636945D01*
X16725736Y17641131D01*
X16880150Y17637125D01*
G36*
X9089999Y17629686D02*
G01*
X9291096Y17597134D01*
X9468128Y17539936D01*
X9627686Y17455833D01*
X9776357Y17342568D01*
X9807152Y17314548D01*
X9947852Y17154577D01*
X10055137Y16969066D01*
X10129076Y16757820D01*
X10169735Y16520641D01*
X10177183Y16257331D01*
X10176385Y16236071D01*
X10168831Y16108896D01*
X10156537Y16007854D01*
X10136740Y15916791D01*
X10106677Y15819553D01*
X10103587Y15810565D01*
X10013655Y15604712D01*
X9896574Y15425336D01*
X9755464Y15276324D01*
X9593444Y15161562D01*
X9573938Y15150909D01*
X9520958Y15119775D01*
X9488027Y15094593D01*
X9482667Y15086292D01*
X9496127Y15065616D01*
X9533138Y15019740D01*
X9588641Y14954672D01*
X9657578Y14876415D01*
X9687714Y14842839D01*
X9764786Y14757351D01*
X9834891Y14679463D01*
X9891573Y14616360D01*
X9928373Y14575224D01*
X9934820Y14567958D01*
X9976879Y14520333D01*
X9345083Y14520417D01*
X9140045Y14749928D01*
X8935007Y14979440D01*
X8737878Y14993083D01*
X8508291Y15021952D01*
X8308389Y15076108D01*
X8132186Y15158038D01*
X7973695Y15270231D01*
X7893488Y15344155D01*
X7767659Y15491202D01*
X7671716Y15653135D01*
X7603294Y15835830D01*
X7560024Y16045165D01*
X7543244Y16213667D01*
X7543767Y16319500D01*
X8245059Y16319500D01*
X8247075Y16157239D01*
X8255036Y16028805D01*
X8270746Y15925898D01*
X8296007Y15840215D01*
X8332622Y15763455D01*
X8382301Y15687444D01*
X8481191Y15585359D01*
X8604105Y15513191D01*
X8743634Y15472498D01*
X8892367Y15464842D01*
X9042895Y15491782D01*
X9137737Y15528368D01*
X9211423Y15570839D01*
X9277938Y15621350D01*
X9305161Y15648540D01*
X9387273Y15774658D01*
X9446947Y15926765D01*
X9484301Y16096656D01*
X9499454Y16276124D01*
X9492524Y16456963D01*
X9463631Y16630969D01*
X9412893Y16789935D01*
X9340428Y16925656D01*
X9285729Y16993397D01*
X9174884Y17083359D01*
X9045291Y17138798D01*
X8908706Y17161397D01*
X8745404Y17153902D01*
X8598776Y17108340D01*
X8472147Y17026813D01*
X8368842Y16911428D01*
X8295717Y16773332D01*
X8276220Y16720367D01*
X8262491Y16669667D01*
X8253518Y16612182D01*
X8248293Y16538862D01*
X8245803Y16440656D01*
X8245059Y16319500D01*
X7543767Y16319500D01*
X7544474Y16462268D01*
X7579625Y16695182D01*
X7647135Y16909184D01*
X7745443Y17101049D01*
X7872988Y17267554D01*
X8028209Y17405475D01*
X8159814Y17487155D01*
X8291156Y17549601D01*
X8415922Y17593410D01*
X8546380Y17621266D01*
X8694798Y17635850D01*
X8858250Y17639852D01*
X9089999Y17629686D01*
G37*
X9089999Y17629686D02*
X9291096Y17597134D01*
X9468128Y17539936D01*
X9627686Y17455833D01*
X9776357Y17342568D01*
X9807152Y17314548D01*
X9947852Y17154577D01*
X10055137Y16969066D01*
X10129076Y16757820D01*
X10169735Y16520641D01*
X10177183Y16257331D01*
X10176385Y16236071D01*
X10168831Y16108896D01*
X10156537Y16007854D01*
X10136740Y15916791D01*
X10106677Y15819553D01*
X10103587Y15810565D01*
X10013655Y15604712D01*
X9896574Y15425336D01*
X9755464Y15276324D01*
X9593444Y15161562D01*
X9573938Y15150909D01*
X9520958Y15119775D01*
X9488027Y15094593D01*
X9482667Y15086292D01*
X9496127Y15065616D01*
X9533138Y15019740D01*
X9588641Y14954672D01*
X9657578Y14876415D01*
X9687714Y14842839D01*
X9764786Y14757351D01*
X9834891Y14679463D01*
X9891573Y14616360D01*
X9928373Y14575224D01*
X9934820Y14567958D01*
X9976879Y14520333D01*
X9345083Y14520417D01*
X9140045Y14749928D01*
X8935007Y14979440D01*
X8737878Y14993083D01*
X8508291Y15021952D01*
X8308389Y15076108D01*
X8132186Y15158038D01*
X7973695Y15270231D01*
X7893488Y15344155D01*
X7767659Y15491202D01*
X7671716Y15653135D01*
X7603294Y15835830D01*
X7560024Y16045165D01*
X7543244Y16213667D01*
X7543767Y16319500D01*
X8245059Y16319500D01*
X8247075Y16157239D01*
X8255036Y16028805D01*
X8270746Y15925898D01*
X8296007Y15840215D01*
X8332622Y15763455D01*
X8382301Y15687444D01*
X8481191Y15585359D01*
X8604105Y15513191D01*
X8743634Y15472498D01*
X8892367Y15464842D01*
X9042895Y15491782D01*
X9137737Y15528368D01*
X9211423Y15570839D01*
X9277938Y15621350D01*
X9305161Y15648540D01*
X9387273Y15774658D01*
X9446947Y15926765D01*
X9484301Y16096656D01*
X9499454Y16276124D01*
X9492524Y16456963D01*
X9463631Y16630969D01*
X9412893Y16789935D01*
X9340428Y16925656D01*
X9285729Y16993397D01*
X9174884Y17083359D01*
X9045291Y17138798D01*
X8908706Y17161397D01*
X8745404Y17153902D01*
X8598776Y17108340D01*
X8472147Y17026813D01*
X8368842Y16911428D01*
X8295717Y16773332D01*
X8276220Y16720367D01*
X8262491Y16669667D01*
X8253518Y16612182D01*
X8248293Y16538862D01*
X8245803Y16440656D01*
X8245059Y16319500D01*
X7543767Y16319500D01*
X7544474Y16462268D01*
X7579625Y16695182D01*
X7647135Y16909184D01*
X7745443Y17101049D01*
X7872988Y17267554D01*
X8028209Y17405475D01*
X8159814Y17487155D01*
X8291156Y17549601D01*
X8415922Y17593410D01*
X8546380Y17621266D01*
X8694798Y17635850D01*
X8858250Y17639852D01*
X9089999Y17629686D01*
G36*
X18886242Y14123036D02*
G01*
X18998961Y14082488D01*
X19084659Y14013046D01*
X19135600Y13936420D01*
X19166926Y13856337D01*
X19176261Y13776696D01*
X19161677Y13693161D01*
X19121246Y13601391D01*
X19053040Y13497048D01*
X18955131Y13375795D01*
X18825591Y13233293D01*
X18820940Y13228373D01*
X18581296Y12975167D01*
X19177000Y12975167D01*
X19177000Y12827000D01*
X18372667Y12827000D01*
X18372667Y12903028D01*
X18375122Y12932477D01*
X18385100Y12962636D01*
X18406516Y12998681D01*
X18443289Y13045786D01*
X18499334Y13109127D01*
X18578569Y13193879D01*
X18647604Y13266287D01*
X18738376Y13363558D01*
X18821594Y13457266D01*
X18891537Y13540621D01*
X18942488Y13606829D01*
X18967329Y13646039D01*
X18999561Y13748430D01*
X18991305Y13838648D01*
X18942586Y13916523D01*
X18920656Y13936974D01*
X18839760Y13978724D01*
X18734709Y13992349D01*
X18613032Y13977804D01*
X18493251Y13939654D01*
X18370419Y13889146D01*
X18376834Y13976560D01*
X18382426Y14026389D01*
X18396800Y14056360D01*
X18430275Y14076873D01*
X18493170Y14098329D01*
X18499667Y14100361D01*
X18591091Y14121441D01*
X18693658Y14134415D01*
X18743083Y14136430D01*
X18886242Y14123036D01*
G37*
X18886242Y14123036D02*
X18998961Y14082488D01*
X19084659Y14013046D01*
X19135600Y13936420D01*
X19166926Y13856337D01*
X19176261Y13776696D01*
X19161677Y13693161D01*
X19121246Y13601391D01*
X19053040Y13497048D01*
X18955131Y13375795D01*
X18825591Y13233293D01*
X18820940Y13228373D01*
X18581296Y12975167D01*
X19177000Y12975167D01*
X19177000Y12827000D01*
X18372667Y12827000D01*
X18372667Y12903028D01*
X18375122Y12932477D01*
X18385100Y12962636D01*
X18406516Y12998681D01*
X18443289Y13045786D01*
X18499334Y13109127D01*
X18578569Y13193879D01*
X18647604Y13266287D01*
X18738376Y13363558D01*
X18821594Y13457266D01*
X18891537Y13540621D01*
X18942488Y13606829D01*
X18967329Y13646039D01*
X18999561Y13748430D01*
X18991305Y13838648D01*
X18942586Y13916523D01*
X18920656Y13936974D01*
X18839760Y13978724D01*
X18734709Y13992349D01*
X18613032Y13977804D01*
X18493251Y13939654D01*
X18370419Y13889146D01*
X18376834Y13976560D01*
X18382426Y14026389D01*
X18396800Y14056360D01*
X18430275Y14076873D01*
X18493170Y14098329D01*
X18499667Y14100361D01*
X18591091Y14121441D01*
X18693658Y14134415D01*
X18743083Y14136430D01*
X18886242Y14123036D01*
G36*
X16141899Y14111106D02*
G01*
X16246306Y14062530D01*
X16327149Y13992899D01*
X16380473Y13905226D01*
X16402325Y13802527D01*
X16388749Y13687815D01*
X16362545Y13615775D01*
X16334682Y13570720D01*
X16283125Y13502361D01*
X16213649Y13417786D01*
X16132030Y13324081D01*
X16064993Y13250650D01*
X15808133Y12975167D01*
X16404167Y12975167D01*
X16404167Y12827000D01*
X15599833Y12827000D01*
X15599833Y12902916D01*
X15602313Y12932318D01*
X15612349Y12962541D01*
X15633838Y12998751D01*
X15670678Y13046111D01*
X15726765Y13109784D01*
X15805996Y13194936D01*
X15875366Y13268041D01*
X15995585Y13396575D01*
X16087365Y13501024D01*
X16153477Y13585902D01*
X16196695Y13655723D01*
X16219791Y13715001D01*
X16225538Y13768251D01*
X16216708Y13819986D01*
X16215948Y13822564D01*
X16185577Y13887981D01*
X16142980Y13941936D01*
X16136219Y13947698D01*
X16063137Y13981043D01*
X15964712Y13991485D01*
X15851078Y13979218D01*
X15732368Y13944440D01*
X15720418Y13939654D01*
X15597585Y13889146D01*
X15604001Y13976560D01*
X15609593Y14026389D01*
X15623967Y14056360D01*
X15657442Y14076873D01*
X15720337Y14098329D01*
X15726833Y14100361D01*
X15878208Y14133036D01*
X16017881Y14135613D01*
X16141899Y14111106D01*
G37*
X16141899Y14111106D02*
X16246306Y14062530D01*
X16327149Y13992899D01*
X16380473Y13905226D01*
X16402325Y13802527D01*
X16388749Y13687815D01*
X16362545Y13615775D01*
X16334682Y13570720D01*
X16283125Y13502361D01*
X16213649Y13417786D01*
X16132030Y13324081D01*
X16064993Y13250650D01*
X15808133Y12975167D01*
X16404167Y12975167D01*
X16404167Y12827000D01*
X15599833Y12827000D01*
X15599833Y12902916D01*
X15602313Y12932318D01*
X15612349Y12962541D01*
X15633838Y12998751D01*
X15670678Y13046111D01*
X15726765Y13109784D01*
X15805996Y13194936D01*
X15875366Y13268041D01*
X15995585Y13396575D01*
X16087365Y13501024D01*
X16153477Y13585902D01*
X16196695Y13655723D01*
X16219791Y13715001D01*
X16225538Y13768251D01*
X16216708Y13819986D01*
X16215948Y13822564D01*
X16185577Y13887981D01*
X16142980Y13941936D01*
X16136219Y13947698D01*
X16063137Y13981043D01*
X15964712Y13991485D01*
X15851078Y13979218D01*
X15732368Y13944440D01*
X15720418Y13939654D01*
X15597585Y13889146D01*
X15604001Y13976560D01*
X15609593Y14026389D01*
X15623967Y14056360D01*
X15657442Y14076873D01*
X15720337Y14098329D01*
X15726833Y14100361D01*
X15878208Y14133036D01*
X16017881Y14135613D01*
X16141899Y14111106D01*
G36*
X12308700Y13409083D02*
G01*
X12353297Y13289100D01*
X12393547Y13183995D01*
X12427049Y13099780D01*
X12451402Y13042468D01*
X12464207Y13018072D01*
X12464990Y13017623D01*
X12476828Y13036322D01*
X12499384Y13087028D01*
X12529326Y13161815D01*
X12560570Y13245165D01*
X12601989Y13358324D01*
X12645956Y13477507D01*
X12685952Y13585079D01*
X12705297Y13636625D01*
X12767206Y13800667D01*
X12852284Y13800667D01*
X12905872Y13798020D01*
X12926246Y13786941D01*
X12922725Y13763625D01*
X12911094Y13733256D01*
X12887044Y13669784D01*
X12853040Y13579739D01*
X12811546Y13469650D01*
X12765028Y13346044D01*
X12752917Y13313833D01*
X12705528Y13187872D01*
X12662549Y13073795D01*
X12626444Y12978133D01*
X12599677Y12907415D01*
X12584714Y12868168D01*
X12583108Y12864042D01*
X12562201Y12840232D01*
X12517269Y12829042D01*
X12464238Y12827000D01*
X12394302Y12832295D01*
X12355195Y12846902D01*
X12350452Y12853458D01*
X12340533Y12880192D01*
X12317986Y12940567D01*
X12285054Y13028591D01*
X12243980Y13138270D01*
X12197007Y13263611D01*
X12171200Y13332439D01*
X12122687Y13462132D01*
X12079581Y13578000D01*
X12043976Y13674363D01*
X12017965Y13745544D01*
X12003640Y13785865D01*
X12001500Y13792814D01*
X12020260Y13797803D01*
X12066938Y13800507D01*
X12083335Y13800667D01*
X12165169Y13800667D01*
X12308700Y13409083D01*
G37*
X12308700Y13409083D02*
X12353297Y13289100D01*
X12393547Y13183995D01*
X12427049Y13099780D01*
X12451402Y13042468D01*
X12464207Y13018072D01*
X12464990Y13017623D01*
X12476828Y13036322D01*
X12499384Y13087028D01*
X12529326Y13161815D01*
X12560570Y13245165D01*
X12601989Y13358324D01*
X12645956Y13477507D01*
X12685952Y13585079D01*
X12705297Y13636625D01*
X12767206Y13800667D01*
X12852284Y13800667D01*
X12905872Y13798020D01*
X12926246Y13786941D01*
X12922725Y13763625D01*
X12911094Y13733256D01*
X12887044Y13669784D01*
X12853040Y13579739D01*
X12811546Y13469650D01*
X12765028Y13346044D01*
X12752917Y13313833D01*
X12705528Y13187872D01*
X12662549Y13073795D01*
X12626444Y12978133D01*
X12599677Y12907415D01*
X12584714Y12868168D01*
X12583108Y12864042D01*
X12562201Y12840232D01*
X12517269Y12829042D01*
X12464238Y12827000D01*
X12394302Y12832295D01*
X12355195Y12846902D01*
X12350452Y12853458D01*
X12340533Y12880192D01*
X12317986Y12940567D01*
X12285054Y13028591D01*
X12243980Y13138270D01*
X12197007Y13263611D01*
X12171200Y13332439D01*
X12122687Y13462132D01*
X12079581Y13578000D01*
X12043976Y13674363D01*
X12017965Y13745544D01*
X12003640Y13785865D01*
X12001500Y13792814D01*
X12020260Y13797803D01*
X12066938Y13800507D01*
X12083335Y13800667D01*
X12165169Y13800667D01*
X12308700Y13409083D01*
G36*
X11049000Y12975167D02*
G01*
X11662833Y12975167D01*
X11662833Y12827000D01*
X11274778Y12827000D01*
X11150676Y12827736D01*
X11041449Y12829779D01*
X10954039Y12832887D01*
X10895389Y12836817D01*
X10872611Y12841111D01*
X10869058Y12865065D01*
X10865833Y12926008D01*
X10863053Y13018595D01*
X10860835Y13137485D01*
X10859295Y13277331D01*
X10858551Y13432791D01*
X10858500Y13486695D01*
X10858500Y14118167D01*
X11049000Y14118167D01*
X11049000Y12975167D01*
G37*
X11049000Y12975167D02*
X11662833Y12975167D01*
X11662833Y12827000D01*
X11274778Y12827000D01*
X11150676Y12827736D01*
X11041449Y12829779D01*
X10954039Y12832887D01*
X10895389Y12836817D01*
X10872611Y12841111D01*
X10869058Y12865065D01*
X10865833Y12926008D01*
X10863053Y13018595D01*
X10860835Y13137485D01*
X10859295Y13277331D01*
X10858551Y13432791D01*
X10858500Y13486695D01*
X10858500Y14118167D01*
X11049000Y14118167D01*
X11049000Y12975167D01*
G36*
X9837208Y14114905D02*
G01*
X9956491Y14111285D01*
X10042151Y14106512D01*
X10102899Y14099227D01*
X10147445Y14088069D01*
X10184499Y14071679D01*
X10210124Y14056687D01*
X10290611Y13983699D01*
X10343221Y13888385D01*
X10367947Y13780135D01*
X10364784Y13668338D01*
X10333725Y13562381D01*
X10274764Y13471654D01*
X10210541Y13418199D01*
X10163200Y13393238D01*
X10110636Y13376875D01*
X10041160Y13366731D01*
X9943081Y13360427D01*
X9922291Y13359549D01*
X9715500Y13351243D01*
X9715500Y12827000D01*
X9546167Y12827000D01*
X9546167Y13970000D01*
X9715500Y13970000D01*
X9715500Y13504333D01*
X9886461Y13504333D01*
X9973008Y13505402D01*
X10029307Y13510744D01*
X10067429Y13523570D01*
X10099446Y13547085D01*
X10119295Y13566205D01*
X10157921Y13612157D01*
X10176246Y13660543D01*
X10181148Y13730368D01*
X10181167Y13737167D01*
X10177012Y13809426D01*
X10159962Y13858786D01*
X10123141Y13904250D01*
X10119295Y13908128D01*
X10085408Y13939064D01*
X10052204Y13957505D01*
X10007611Y13966660D01*
X9939556Y13969737D01*
X9886461Y13970000D01*
X9715500Y13970000D01*
X9546167Y13970000D01*
X9546167Y14122226D01*
X9837208Y14114905D01*
G37*
X9837208Y14114905D02*
X9956491Y14111285D01*
X10042151Y14106512D01*
X10102899Y14099227D01*
X10147445Y14088069D01*
X10184499Y14071679D01*
X10210124Y14056687D01*
X10290611Y13983699D01*
X10343221Y13888385D01*
X10367947Y13780135D01*
X10364784Y13668338D01*
X10333725Y13562381D01*
X10274764Y13471654D01*
X10210541Y13418199D01*
X10163200Y13393238D01*
X10110636Y13376875D01*
X10041160Y13366731D01*
X9943081Y13360427D01*
X9922291Y13359549D01*
X9715500Y13351243D01*
X9715500Y12827000D01*
X9546167Y12827000D01*
X9546167Y13970000D01*
X9715500Y13970000D01*
X9715500Y13504333D01*
X9886461Y13504333D01*
X9973008Y13505402D01*
X10029307Y13510744D01*
X10067429Y13523570D01*
X10099446Y13547085D01*
X10119295Y13566205D01*
X10157921Y13612157D01*
X10176246Y13660543D01*
X10181148Y13730368D01*
X10181167Y13737167D01*
X10177012Y13809426D01*
X10159962Y13858786D01*
X10123141Y13904250D01*
X10119295Y13908128D01*
X10085408Y13939064D01*
X10052204Y13957505D01*
X10007611Y13966660D01*
X9939556Y13969737D01*
X9886461Y13970000D01*
X9715500Y13970000D01*
X9546167Y13970000D01*
X9546167Y14122226D01*
X9837208Y14114905D01*
G36*
X4910667Y12827000D02*
G01*
X4684187Y12827000D01*
X4413703Y13340292D01*
X4341955Y13475921D01*
X4276014Y13599573D01*
X4218619Y13706195D01*
X4172504Y13790734D01*
X4140408Y13848137D01*
X4125066Y13873354D01*
X4124776Y13873692D01*
X4119535Y13859316D01*
X4114939Y13807319D01*
X4111157Y13722414D01*
X4108357Y13609309D01*
X4106710Y13472716D01*
X4106333Y13360400D01*
X4106333Y12827000D01*
X4035778Y12827000D01*
X3983477Y12830873D01*
X3952067Y12840278D01*
X3951111Y12841111D01*
X3947558Y12865065D01*
X3944333Y12926008D01*
X3941553Y13018595D01*
X3939335Y13137485D01*
X3937795Y13277331D01*
X3937051Y13432791D01*
X3937000Y13486695D01*
X3937000Y14118167D01*
X4058708Y14117846D01*
X4180417Y14117525D01*
X4455583Y13594886D01*
X4730750Y13072246D01*
X4736411Y13595207D01*
X4742073Y14118167D01*
X4910667Y14118167D01*
X4910667Y12827000D01*
G37*
X4910667Y12827000D02*
X4684187Y12827000D01*
X4413703Y13340292D01*
X4341955Y13475921D01*
X4276014Y13599573D01*
X4218619Y13706195D01*
X4172504Y13790734D01*
X4140408Y13848137D01*
X4125066Y13873354D01*
X4124776Y13873692D01*
X4119535Y13859316D01*
X4114939Y13807319D01*
X4111157Y13722414D01*
X4108357Y13609309D01*
X4106710Y13472716D01*
X4106333Y13360400D01*
X4106333Y12827000D01*
X4035778Y12827000D01*
X3983477Y12830873D01*
X3952067Y12840278D01*
X3951111Y12841111D01*
X3947558Y12865065D01*
X3944333Y12926008D01*
X3941553Y13018595D01*
X3939335Y13137485D01*
X3937795Y13277331D01*
X3937051Y13432791D01*
X3937000Y13486695D01*
X3937000Y14118167D01*
X4058708Y14117846D01*
X4180417Y14117525D01*
X4455583Y13594886D01*
X4730750Y13072246D01*
X4736411Y13595207D01*
X4742073Y14118167D01*
X4910667Y14118167D01*
X4910667Y12827000D01*
G36*
X20311201Y14120247D02*
G01*
X20420830Y14064148D01*
X20509183Y13972779D01*
X20574140Y13847880D01*
X20588231Y13805864D01*
X20611590Y13691344D01*
X20623498Y13552155D01*
X20623953Y13404349D01*
X20612953Y13263974D01*
X20590496Y13147080D01*
X20588316Y13139597D01*
X20531628Y13012361D01*
X20449443Y12913066D01*
X20347330Y12845022D01*
X20230863Y12811537D01*
X20105612Y12815920D01*
X20061584Y12826755D01*
X19956988Y12878848D01*
X19870675Y12967391D01*
X19818598Y13055053D01*
X19794827Y13105740D01*
X19778398Y13150517D01*
X19767959Y13198860D01*
X19762161Y13260241D01*
X19759653Y13344136D01*
X19759085Y13460018D01*
X19759083Y13472583D01*
X19759142Y13483167D01*
X19928456Y13483167D01*
X19931123Y13347876D01*
X19938700Y13237793D01*
X19950608Y13160017D01*
X19956327Y13139901D01*
X20004640Y13051481D01*
X20072659Y12989634D01*
X20151981Y12957051D01*
X20234202Y12956423D01*
X20310920Y12990438D01*
X20340589Y13016882D01*
X20386778Y13082091D01*
X20418823Y13166947D01*
X20438221Y13277948D01*
X20446469Y13421591D01*
X20447000Y13478592D01*
X20438431Y13656536D01*
X20412405Y13796831D01*
X20368441Y13900610D01*
X20306056Y13969002D01*
X20224771Y14003141D01*
X20223936Y14003299D01*
X20134544Y14000264D01*
X20055468Y13958040D01*
X19991050Y13879346D01*
X19974187Y13846789D01*
X19954288Y13797902D01*
X19941036Y13746835D01*
X19933160Y13683492D01*
X19929390Y13597775D01*
X19928456Y13483167D01*
X19759142Y13483167D01*
X19759772Y13594640D01*
X19762588Y13683674D01*
X19768657Y13748983D01*
X19779105Y13799867D01*
X19795059Y13845623D01*
X19807742Y13874486D01*
X19876531Y13994390D01*
X19957049Y14076086D01*
X20054394Y14123179D01*
X20173666Y14139274D01*
X20182417Y14139333D01*
X20311201Y14120247D01*
G37*
X20311201Y14120247D02*
X20420830Y14064148D01*
X20509183Y13972779D01*
X20574140Y13847880D01*
X20588231Y13805864D01*
X20611590Y13691344D01*
X20623498Y13552155D01*
X20623953Y13404349D01*
X20612953Y13263974D01*
X20590496Y13147080D01*
X20588316Y13139597D01*
X20531628Y13012361D01*
X20449443Y12913066D01*
X20347330Y12845022D01*
X20230863Y12811537D01*
X20105612Y12815920D01*
X20061584Y12826755D01*
X19956988Y12878848D01*
X19870675Y12967391D01*
X19818598Y13055053D01*
X19794827Y13105740D01*
X19778398Y13150517D01*
X19767959Y13198860D01*
X19762161Y13260241D01*
X19759653Y13344136D01*
X19759085Y13460018D01*
X19759083Y13472583D01*
X19759142Y13483167D01*
X19928456Y13483167D01*
X19931123Y13347876D01*
X19938700Y13237793D01*
X19950608Y13160017D01*
X19956327Y13139901D01*
X20004640Y13051481D01*
X20072659Y12989634D01*
X20151981Y12957051D01*
X20234202Y12956423D01*
X20310920Y12990438D01*
X20340589Y13016882D01*
X20386778Y13082091D01*
X20418823Y13166947D01*
X20438221Y13277948D01*
X20446469Y13421591D01*
X20447000Y13478592D01*
X20438431Y13656536D01*
X20412405Y13796831D01*
X20368441Y13900610D01*
X20306056Y13969002D01*
X20224771Y14003141D01*
X20223936Y14003299D01*
X20134544Y14000264D01*
X20055468Y13958040D01*
X19991050Y13879346D01*
X19974187Y13846789D01*
X19954288Y13797902D01*
X19941036Y13746835D01*
X19933160Y13683492D01*
X19929390Y13597775D01*
X19928456Y13483167D01*
X19759142Y13483167D01*
X19759772Y13594640D01*
X19762588Y13683674D01*
X19768657Y13748983D01*
X19779105Y13799867D01*
X19795059Y13845623D01*
X19807742Y13874486D01*
X19876531Y13994390D01*
X19957049Y14076086D01*
X20054394Y14123179D01*
X20173666Y14139274D01*
X20182417Y14139333D01*
X20311201Y14120247D01*
G36*
X17538370Y14120248D02*
G01*
X17647967Y14064199D01*
X17736171Y13972997D01*
X17800782Y13848454D01*
X17814939Y13805864D01*
X17839031Y13686840D01*
X17850756Y13544668D01*
X17850189Y13395206D01*
X17837400Y13254309D01*
X17812462Y13137834D01*
X17811880Y13135989D01*
X17752751Y13006968D01*
X17669495Y12907698D01*
X17567049Y12841096D01*
X17450348Y12810081D01*
X17324331Y12817572D01*
X17288750Y12826755D01*
X17183245Y12879504D01*
X17096561Y12969056D01*
X17047004Y13052966D01*
X17020420Y13112369D01*
X17002492Y13169098D01*
X16990999Y13235018D01*
X16983721Y13321992D01*
X16981566Y13368611D01*
X17148502Y13368611D01*
X17164815Y13226048D01*
X17199288Y13115361D01*
X17252677Y13033027D01*
X17261748Y13023518D01*
X17341413Y12969559D01*
X17430576Y12951496D01*
X17518247Y12971302D01*
X17527322Y12975875D01*
X17584984Y13027846D01*
X17627623Y13114917D01*
X17655791Y13238760D01*
X17670043Y13401045D01*
X17670309Y13407771D01*
X17669465Y13598532D01*
X17650731Y13751697D01*
X17613767Y13868192D01*
X17558238Y13948944D01*
X17483803Y13994879D01*
X17453212Y14002904D01*
X17360328Y14002268D01*
X17283586Y13963018D01*
X17223458Y13885864D01*
X17180420Y13771521D01*
X17154946Y13620699D01*
X17149594Y13546573D01*
X17148502Y13368611D01*
X16981566Y13368611D01*
X16979475Y13413836D01*
X16982709Y13621304D01*
X17009554Y13794142D01*
X17059918Y13932195D01*
X17133712Y14035310D01*
X17230843Y14103334D01*
X17351221Y14136113D01*
X17409583Y14139333D01*
X17538370Y14120248D01*
G37*
X17538370Y14120248D02*
X17647967Y14064199D01*
X17736171Y13972997D01*
X17800782Y13848454D01*
X17814939Y13805864D01*
X17839031Y13686840D01*
X17850756Y13544668D01*
X17850189Y13395206D01*
X17837400Y13254309D01*
X17812462Y13137834D01*
X17811880Y13135989D01*
X17752751Y13006968D01*
X17669495Y12907698D01*
X17567049Y12841096D01*
X17450348Y12810081D01*
X17324331Y12817572D01*
X17288750Y12826755D01*
X17183245Y12879504D01*
X17096561Y12969056D01*
X17047004Y13052966D01*
X17020420Y13112369D01*
X17002492Y13169098D01*
X16990999Y13235018D01*
X16983721Y13321992D01*
X16981566Y13368611D01*
X17148502Y13368611D01*
X17164815Y13226048D01*
X17199288Y13115361D01*
X17252677Y13033027D01*
X17261748Y13023518D01*
X17341413Y12969559D01*
X17430576Y12951496D01*
X17518247Y12971302D01*
X17527322Y12975875D01*
X17584984Y13027846D01*
X17627623Y13114917D01*
X17655791Y13238760D01*
X17670043Y13401045D01*
X17670309Y13407771D01*
X17669465Y13598532D01*
X17650731Y13751697D01*
X17613767Y13868192D01*
X17558238Y13948944D01*
X17483803Y13994879D01*
X17453212Y14002904D01*
X17360328Y14002268D01*
X17283586Y13963018D01*
X17223458Y13885864D01*
X17180420Y13771521D01*
X17154946Y13620699D01*
X17149594Y13546573D01*
X17148502Y13368611D01*
X16981566Y13368611D01*
X16979475Y13413836D01*
X16982709Y13621304D01*
X17009554Y13794142D01*
X17059918Y13932195D01*
X17133712Y14035310D01*
X17230843Y14103334D01*
X17351221Y14136113D01*
X17409583Y14139333D01*
X17538370Y14120248D01*
G36*
X13932142Y14120426D02*
G01*
X14011901Y14091708D01*
X14108260Y14026735D01*
X14167883Y13946418D01*
X14195397Y13844432D01*
X14195862Y13840127D01*
X14187843Y13733832D01*
X14143988Y13641794D01*
X14068827Y13572915D01*
X14056313Y13565760D01*
X13987147Y13528666D01*
X14050135Y13496093D01*
X14105868Y13457672D01*
X14162024Y13404989D01*
X14170714Y13395079D01*
X14202062Y13353375D01*
X14218313Y13313528D01*
X14223076Y13260465D01*
X14220441Y13187470D01*
X14202560Y13067387D01*
X14161096Y12977149D01*
X14090965Y12908525D01*
X14024409Y12870056D01*
X13949150Y12844297D01*
X13850731Y12824588D01*
X13746067Y12812994D01*
X13652076Y12811578D01*
X13599583Y12818237D01*
X13501863Y12841861D01*
X13438003Y12859687D01*
X13400811Y12876254D01*
X13383095Y12896103D01*
X13377663Y12923771D01*
X13377333Y12958515D01*
X13381957Y13014426D01*
X13396728Y13032632D01*
X13403792Y13031111D01*
X13542111Y12985083D01*
X13675687Y12962630D01*
X13797969Y12963126D01*
X13902410Y12985944D01*
X13982461Y13030456D01*
X14029379Y13090992D01*
X14055950Y13191265D01*
X14041075Y13283497D01*
X13984934Y13366611D01*
X13982700Y13368867D01*
X13942066Y13406694D01*
X13905752Y13428249D01*
X13859701Y13438083D01*
X13789852Y13440750D01*
X13760450Y13440833D01*
X13610167Y13440833D01*
X13610167Y13583312D01*
X13762541Y13594214D01*
X13844948Y13601857D01*
X13898351Y13613526D01*
X13936074Y13634082D01*
X13971437Y13668389D01*
X13974208Y13671476D01*
X14020323Y13737432D01*
X14031395Y13801297D01*
X14013243Y13872358D01*
X13971141Y13933514D01*
X13898840Y13971308D01*
X13793944Y13986584D01*
X13696340Y13984072D01*
X13609564Y13976256D01*
X13532191Y13967085D01*
X13480106Y13958458D01*
X13477875Y13957937D01*
X13438786Y13951965D01*
X13422799Y13967030D01*
X13419669Y14013497D01*
X13419667Y14016814D01*
X13422225Y14060042D01*
X13436899Y14085043D01*
X13474184Y14101363D01*
X13527115Y14114531D01*
X13669973Y14136648D01*
X13809033Y14138422D01*
X13932142Y14120426D01*
G37*
X13932142Y14120426D02*
X14011901Y14091708D01*
X14108260Y14026735D01*
X14167883Y13946418D01*
X14195397Y13844432D01*
X14195862Y13840127D01*
X14187843Y13733832D01*
X14143988Y13641794D01*
X14068827Y13572915D01*
X14056313Y13565760D01*
X13987147Y13528666D01*
X14050135Y13496093D01*
X14105868Y13457672D01*
X14162024Y13404989D01*
X14170714Y13395079D01*
X14202062Y13353375D01*
X14218313Y13313528D01*
X14223076Y13260465D01*
X14220441Y13187470D01*
X14202560Y13067387D01*
X14161096Y12977149D01*
X14090965Y12908525D01*
X14024409Y12870056D01*
X13949150Y12844297D01*
X13850731Y12824588D01*
X13746067Y12812994D01*
X13652076Y12811578D01*
X13599583Y12818237D01*
X13501863Y12841861D01*
X13438003Y12859687D01*
X13400811Y12876254D01*
X13383095Y12896103D01*
X13377663Y12923771D01*
X13377333Y12958515D01*
X13381957Y13014426D01*
X13396728Y13032632D01*
X13403792Y13031111D01*
X13542111Y12985083D01*
X13675687Y12962630D01*
X13797969Y12963126D01*
X13902410Y12985944D01*
X13982461Y13030456D01*
X14029379Y13090992D01*
X14055950Y13191265D01*
X14041075Y13283497D01*
X13984934Y13366611D01*
X13982700Y13368867D01*
X13942066Y13406694D01*
X13905752Y13428249D01*
X13859701Y13438083D01*
X13789852Y13440750D01*
X13760450Y13440833D01*
X13610167Y13440833D01*
X13610167Y13583312D01*
X13762541Y13594214D01*
X13844948Y13601857D01*
X13898351Y13613526D01*
X13936074Y13634082D01*
X13971437Y13668389D01*
X13974208Y13671476D01*
X14020323Y13737432D01*
X14031395Y13801297D01*
X14013243Y13872358D01*
X13971141Y13933514D01*
X13898840Y13971308D01*
X13793944Y13986584D01*
X13696340Y13984072D01*
X13609564Y13976256D01*
X13532191Y13967085D01*
X13480106Y13958458D01*
X13477875Y13957937D01*
X13438786Y13951965D01*
X13422799Y13967030D01*
X13419669Y14013497D01*
X13419667Y14016814D01*
X13422225Y14060042D01*
X13436899Y14085043D01*
X13474184Y14101363D01*
X13527115Y14114531D01*
X13669973Y14136648D01*
X13809033Y14138422D01*
X13932142Y14120426D01*
G36*
X8662569Y14122426D02*
G01*
X8785195Y14088809D01*
X8817602Y14074526D01*
X8878130Y14042039D01*
X8910109Y14013406D01*
X8923806Y13975576D01*
X8928212Y13933917D01*
X8934674Y13844917D01*
X8794382Y13918042D01*
X8712263Y13957885D01*
X8645581Y13980026D01*
X8574027Y13989444D01*
X8496199Y13991167D01*
X8371070Y13984484D01*
X8275534Y13961724D01*
X8198593Y13918821D01*
X8134115Y13857315D01*
X8075354Y13772451D01*
X8039621Y13673386D01*
X8023770Y13549714D01*
X8022285Y13487248D01*
X8031688Y13336140D01*
X8061685Y13215900D01*
X8114509Y13119252D01*
X8146987Y13080819D01*
X8236571Y13010483D01*
X8346068Y12969591D01*
X8481228Y12956414D01*
X8552135Y12959079D01*
X8653791Y12968624D01*
X8720454Y12984866D01*
X8759463Y13015032D01*
X8778156Y13066348D01*
X8783871Y13146040D01*
X8784167Y13187578D01*
X8784167Y13356167D01*
X8509000Y13356167D01*
X8509000Y13504333D01*
X8953500Y13504333D01*
X8953500Y13229655D01*
X8953114Y13116952D01*
X8951161Y13038982D01*
X8946452Y12988147D01*
X8937795Y12956848D01*
X8923999Y12937487D01*
X8905528Y12923544D01*
X8798188Y12871664D01*
X8665007Y12834954D01*
X8520470Y12815702D01*
X8379063Y12816196D01*
X8298284Y12827637D01*
X8155645Y12878082D01*
X8034926Y12962723D01*
X7939932Y13077497D01*
X7874465Y13218340D01*
X7852750Y13303693D01*
X7835358Y13482462D01*
X7851090Y13648306D01*
X7897791Y13796812D01*
X7973303Y13923566D01*
X8075472Y14024155D01*
X8202141Y14094164D01*
X8246147Y14108997D01*
X8377613Y14133451D01*
X8521565Y14137617D01*
X8662569Y14122426D01*
G37*
X8662569Y14122426D02*
X8785195Y14088809D01*
X8817602Y14074526D01*
X8878130Y14042039D01*
X8910109Y14013406D01*
X8923806Y13975576D01*
X8928212Y13933917D01*
X8934674Y13844917D01*
X8794382Y13918042D01*
X8712263Y13957885D01*
X8645581Y13980026D01*
X8574027Y13989444D01*
X8496199Y13991167D01*
X8371070Y13984484D01*
X8275534Y13961724D01*
X8198593Y13918821D01*
X8134115Y13857315D01*
X8075354Y13772451D01*
X8039621Y13673386D01*
X8023770Y13549714D01*
X8022285Y13487248D01*
X8031688Y13336140D01*
X8061685Y13215900D01*
X8114509Y13119252D01*
X8146987Y13080819D01*
X8236571Y13010483D01*
X8346068Y12969591D01*
X8481228Y12956414D01*
X8552135Y12959079D01*
X8653791Y12968624D01*
X8720454Y12984866D01*
X8759463Y13015032D01*
X8778156Y13066348D01*
X8783871Y13146040D01*
X8784167Y13187578D01*
X8784167Y13356167D01*
X8509000Y13356167D01*
X8509000Y13504333D01*
X8953500Y13504333D01*
X8953500Y13229655D01*
X8953114Y13116952D01*
X8951161Y13038982D01*
X8946452Y12988147D01*
X8937795Y12956848D01*
X8923999Y12937487D01*
X8905528Y12923544D01*
X8798188Y12871664D01*
X8665007Y12834954D01*
X8520470Y12815702D01*
X8379063Y12816196D01*
X8298284Y12827637D01*
X8155645Y12878082D01*
X8034926Y12962723D01*
X7939932Y13077497D01*
X7874465Y13218340D01*
X7852750Y13303693D01*
X7835358Y13482462D01*
X7851090Y13648306D01*
X7897791Y13796812D01*
X7973303Y13923566D01*
X8075472Y14024155D01*
X8202141Y14094164D01*
X8246147Y14108997D01*
X8377613Y14133451D01*
X8521565Y14137617D01*
X8662569Y14122426D01*
G36*
X5672789Y13731875D02*
G01*
X5674144Y13546684D01*
X5678592Y13398583D01*
X5686907Y13282393D01*
X5699861Y13192937D01*
X5718226Y13125034D01*
X5742775Y13073505D01*
X5774280Y13033172D01*
X5777487Y13029910D01*
X5820150Y12993274D01*
X5865607Y12972630D01*
X5929655Y12962282D01*
X5973655Y12959186D01*
X6058833Y12957992D01*
X6119119Y12968019D01*
X6171143Y12992254D01*
X6176649Y12995648D01*
X6216064Y13023553D01*
X6246742Y13055491D01*
X6269759Y13096859D01*
X6286194Y13153057D01*
X6297123Y13229482D01*
X6303626Y13331532D01*
X6306779Y13464605D01*
X6307662Y13634100D01*
X6307667Y13651820D01*
X6307667Y14118167D01*
X6502187Y14118167D01*
X6494039Y13636625D01*
X6490321Y13461997D01*
X6485098Y13323892D01*
X6477372Y13216504D01*
X6466146Y13134025D01*
X6450423Y13070649D01*
X6429205Y13020568D01*
X6401495Y12977976D01*
X6375651Y12947231D01*
X6298123Y12888324D01*
X6192210Y12844544D01*
X6069975Y12818532D01*
X5943483Y12812933D01*
X5832777Y12828317D01*
X5717143Y12878128D01*
X5619152Y12961834D01*
X5561423Y13045185D01*
X5546213Y13075994D01*
X5534518Y13108163D01*
X5525771Y13147746D01*
X5519404Y13200797D01*
X5514849Y13273373D01*
X5511540Y13371527D01*
X5508909Y13501316D01*
X5506997Y13626042D01*
X5499923Y14118167D01*
X5672667Y14118167D01*
X5672789Y13731875D01*
G37*
X5672789Y13731875D02*
X5674144Y13546684D01*
X5678592Y13398583D01*
X5686907Y13282393D01*
X5699861Y13192937D01*
X5718226Y13125034D01*
X5742775Y13073505D01*
X5774280Y13033172D01*
X5777487Y13029910D01*
X5820150Y12993274D01*
X5865607Y12972630D01*
X5929655Y12962282D01*
X5973655Y12959186D01*
X6058833Y12957992D01*
X6119119Y12968019D01*
X6171143Y12992254D01*
X6176649Y12995648D01*
X6216064Y13023553D01*
X6246742Y13055491D01*
X6269759Y13096859D01*
X6286194Y13153057D01*
X6297123Y13229482D01*
X6303626Y13331532D01*
X6306779Y13464605D01*
X6307662Y13634100D01*
X6307667Y13651820D01*
X6307667Y14118167D01*
X6502187Y14118167D01*
X6494039Y13636625D01*
X6490321Y13461997D01*
X6485098Y13323892D01*
X6477372Y13216504D01*
X6466146Y13134025D01*
X6450423Y13070649D01*
X6429205Y13020568D01*
X6401495Y12977976D01*
X6375651Y12947231D01*
X6298123Y12888324D01*
X6192210Y12844544D01*
X6069975Y12818532D01*
X5943483Y12812933D01*
X5832777Y12828317D01*
X5717143Y12878128D01*
X5619152Y12961834D01*
X5561423Y13045185D01*
X5546213Y13075994D01*
X5534518Y13108163D01*
X5525771Y13147746D01*
X5519404Y13200797D01*
X5514849Y13273373D01*
X5511540Y13371527D01*
X5508909Y13501316D01*
X5506997Y13626042D01*
X5499923Y14118167D01*
X5672667Y14118167D01*
X5672789Y13731875D01*
G36*
X3032731Y14123227D02*
G01*
X3151143Y14098161D01*
X3212042Y14076746D01*
X3274736Y14047870D01*
X3307874Y14023623D01*
X3320876Y13992116D01*
X3323164Y13941462D01*
X3323167Y13936518D01*
X3323167Y13844749D01*
X3216736Y13910909D01*
X3151270Y13947329D01*
X3089066Y13969284D01*
X3013166Y13981493D01*
X2944349Y13986677D01*
X2784671Y13983011D01*
X2655821Y13950916D01*
X2556593Y13889230D01*
X2485784Y13796786D01*
X2442191Y13672421D01*
X2424607Y13514970D01*
X2424113Y13483520D01*
X2438436Y13318427D01*
X2482042Y13183245D01*
X2554086Y13078810D01*
X2653728Y13005956D01*
X2780123Y12965518D01*
X2932430Y12958332D01*
X2952750Y12959772D01*
X3032671Y12970097D01*
X3103915Y12985567D01*
X3137958Y12997280D01*
X3167138Y13013055D01*
X3184465Y13033650D01*
X3193022Y13069287D01*
X3195891Y13130184D01*
X3196167Y13190231D01*
X3196167Y13356167D01*
X2899833Y13356167D01*
X2899833Y13504333D01*
X3365500Y13504333D01*
X3365500Y12951776D01*
X3232416Y12889498D01*
X3077874Y12836769D01*
X2911042Y12813609D01*
X2747267Y12821412D01*
X2668191Y12838231D01*
X2527072Y12898432D01*
X2409503Y12990607D01*
X2320649Y13109378D01*
X2265674Y13249368D01*
X2263211Y13259896D01*
X2252123Y13337516D01*
X2246353Y13437547D01*
X2246965Y13540283D01*
X2247486Y13551249D01*
X2255296Y13651387D01*
X2269011Y13725625D01*
X2292729Y13790359D01*
X2320849Y13844874D01*
X2407063Y13959038D01*
X2521642Y14051839D01*
X2652290Y14113699D01*
X2674253Y14120190D01*
X2777300Y14135614D01*
X2902455Y14136169D01*
X3032731Y14123227D01*
G37*
X3032731Y14123227D02*
X3151143Y14098161D01*
X3212042Y14076746D01*
X3274736Y14047870D01*
X3307874Y14023623D01*
X3320876Y13992116D01*
X3323164Y13941462D01*
X3323167Y13936518D01*
X3323167Y13844749D01*
X3216736Y13910909D01*
X3151270Y13947329D01*
X3089066Y13969284D01*
X3013166Y13981493D01*
X2944349Y13986677D01*
X2784671Y13983011D01*
X2655821Y13950916D01*
X2556593Y13889230D01*
X2485784Y13796786D01*
X2442191Y13672421D01*
X2424607Y13514970D01*
X2424113Y13483520D01*
X2438436Y13318427D01*
X2482042Y13183245D01*
X2554086Y13078810D01*
X2653728Y13005956D01*
X2780123Y12965518D01*
X2932430Y12958332D01*
X2952750Y12959772D01*
X3032671Y12970097D01*
X3103915Y12985567D01*
X3137958Y12997280D01*
X3167138Y13013055D01*
X3184465Y13033650D01*
X3193022Y13069287D01*
X3195891Y13130184D01*
X3196167Y13190231D01*
X3196167Y13356167D01*
X2899833Y13356167D01*
X2899833Y13504333D01*
X3365500Y13504333D01*
X3365500Y12951776D01*
X3232416Y12889498D01*
X3077874Y12836769D01*
X2911042Y12813609D01*
X2747267Y12821412D01*
X2668191Y12838231D01*
X2527072Y12898432D01*
X2409503Y12990607D01*
X2320649Y13109378D01*
X2265674Y13249368D01*
X2263211Y13259896D01*
X2252123Y13337516D01*
X2246353Y13437547D01*
X2246965Y13540283D01*
X2247486Y13551249D01*
X2255296Y13651387D01*
X2269011Y13725625D01*
X2292729Y13790359D01*
X2320849Y13844874D01*
X2407063Y13959038D01*
X2521642Y14051839D01*
X2652290Y14113699D01*
X2674253Y14120190D01*
X2777300Y14135614D01*
X2902455Y14136169D01*
X3032731Y14123227D01*
G36*
X12190108Y18266824D02*
G01*
X12909020Y18266794D01*
X13587872Y18266739D01*
X14227800Y18266654D01*
X14829943Y18266537D01*
X15395436Y18266382D01*
X15925416Y18266187D01*
X16421019Y18265947D01*
X16883384Y18265658D01*
X17313646Y18265316D01*
X17712942Y18264917D01*
X18082409Y18264457D01*
X18423184Y18263933D01*
X18736403Y18263340D01*
X19023204Y18262675D01*
X19284722Y18261933D01*
X19522095Y18261110D01*
X19736459Y18260203D01*
X19928951Y18259207D01*
X20100709Y18258118D01*
X20252868Y18256934D01*
X20386565Y18255648D01*
X20502938Y18254259D01*
X20603123Y18252761D01*
X20688256Y18251151D01*
X20759474Y18249424D01*
X20817915Y18247577D01*
X20864715Y18245606D01*
X20901010Y18243507D01*
X20927938Y18241276D01*
X20946635Y18238908D01*
X20958238Y18236401D01*
X20963883Y18233749D01*
X20964071Y18233572D01*
X20968735Y18225908D01*
X20972946Y18211348D01*
X20976728Y18187848D01*
X20980103Y18153362D01*
X20983094Y18105845D01*
X20985724Y18043254D01*
X20988015Y17963543D01*
X20989990Y17864667D01*
X20991671Y17744583D01*
X20993082Y17601245D01*
X20994244Y17432609D01*
X20995180Y17236629D01*
X20995914Y17011262D01*
X20996467Y16754463D01*
X20996863Y16464187D01*
X20997123Y16138389D01*
X20997271Y15775024D01*
X20997330Y15372049D01*
X20997333Y15229417D01*
X20997300Y14812864D01*
X20997184Y14436599D01*
X20996963Y14098578D01*
X20996615Y13796757D01*
X20996116Y13529090D01*
X20995445Y13293533D01*
X20994578Y13088042D01*
X20993493Y12910570D01*
X20992167Y12759075D01*
X20990578Y12631511D01*
X20988703Y12525834D01*
X20986520Y12439999D01*
X20984005Y12371960D01*
X20981136Y12319675D01*
X20977890Y12281097D01*
X20974246Y12254182D01*
X20970179Y12236886D01*
X20965668Y12227164D01*
X20964071Y12225262D01*
X20958774Y12222601D01*
X20947593Y12220084D01*
X20929392Y12217708D01*
X20903035Y12215468D01*
X20867383Y12213360D01*
X20821301Y12211381D01*
X20763653Y12209526D01*
X20693300Y12207792D01*
X20609106Y12206174D01*
X20509935Y12204669D01*
X20394650Y12203272D01*
X20262115Y12201981D01*
X20111191Y12200789D01*
X19940743Y12199695D01*
X19749634Y12198693D01*
X19536727Y12197780D01*
X19300886Y12196952D01*
X19040973Y12196205D01*
X18755852Y12195534D01*
X18444386Y12194937D01*
X18105438Y12194408D01*
X17737872Y12193945D01*
X17340551Y12193542D01*
X16912338Y12193197D01*
X16452097Y12192904D01*
X15958690Y12192661D01*
X15430980Y12192463D01*
X14867832Y12192306D01*
X14268109Y12192186D01*
X13630673Y12192100D01*
X12954388Y12192043D01*
X12238116Y12192011D01*
X11480723Y12192000D01*
X11430000Y12192000D01*
X10669892Y12192009D01*
X9950980Y12192040D01*
X9272128Y12192095D01*
X8632199Y12192180D01*
X8030057Y12192297D01*
X7464564Y12192451D01*
X6934584Y12192647D01*
X6438980Y12192887D01*
X5976616Y12193176D01*
X5546354Y12193518D01*
X5147057Y12193917D01*
X4777590Y12194376D01*
X4436816Y12194900D01*
X4123596Y12195493D01*
X3836796Y12196159D01*
X3575278Y12196901D01*
X3337905Y12197724D01*
X3123541Y12198631D01*
X2931048Y12199627D01*
X2759291Y12200715D01*
X2607132Y12201900D01*
X2473434Y12203185D01*
X2357062Y12204575D01*
X2256877Y12206073D01*
X2171744Y12207683D01*
X2100525Y12209410D01*
X2042084Y12211256D01*
X1995285Y12213227D01*
X1958989Y12215327D01*
X1932062Y12217558D01*
X1913365Y12219925D01*
X1901762Y12222433D01*
X1896116Y12225084D01*
X1895928Y12225262D01*
X1891265Y12232926D01*
X1887054Y12247485D01*
X1883272Y12270986D01*
X1879896Y12305472D01*
X1876905Y12352989D01*
X1874276Y12415580D01*
X1871985Y12495291D01*
X1870010Y12594166D01*
X1868328Y12714251D01*
X1866918Y12857589D01*
X1865756Y13026225D01*
X1864819Y13222204D01*
X1864086Y13447571D01*
X1863532Y13704371D01*
X1863168Y13971900D01*
X2099274Y13971900D01*
X2099332Y13693591D01*
X2099543Y13436842D01*
X2099902Y13204160D01*
X2100404Y12998054D01*
X2101046Y12821029D01*
X2101823Y12675595D01*
X2102732Y12564258D01*
X2103767Y12489525D01*
X2104925Y12453906D01*
X2105277Y12451268D01*
X2113409Y12449073D01*
X2136753Y12447003D01*
X2176311Y12445058D01*
X2233083Y12443235D01*
X2308071Y12441530D01*
X2402275Y12439943D01*
X2516697Y12438471D01*
X2652338Y12437111D01*
X2810200Y12435862D01*
X2991282Y12434721D01*
X3196587Y12433685D01*
X3427115Y12432753D01*
X3683868Y12431922D01*
X3967846Y12431190D01*
X4280052Y12430555D01*
X4621485Y12430014D01*
X4993147Y12429566D01*
X5396040Y12429207D01*
X5831164Y12428935D01*
X6299521Y12428749D01*
X6802111Y12428647D01*
X7339937Y12428624D01*
X7913998Y12428681D01*
X8525296Y12428813D01*
X9174832Y12429020D01*
X9863608Y12429298D01*
X10592624Y12429646D01*
X11362881Y12430061D01*
X11434636Y12430101D01*
X20753917Y12435417D01*
X20753917Y18023417D01*
X2106083Y18023417D01*
X2100640Y15250583D01*
X2100050Y14911111D01*
X2099628Y14583167D01*
X2099371Y14269261D01*
X2099274Y13971900D01*
X1863168Y13971900D01*
X1863137Y13994647D01*
X1862876Y14320445D01*
X1862728Y14683809D01*
X1862670Y15086785D01*
X1862667Y15229417D01*
X1862700Y15645970D01*
X1862816Y16022235D01*
X1863037Y16360255D01*
X1863385Y16662077D01*
X1863884Y16929744D01*
X1864555Y17165301D01*
X1865422Y17370792D01*
X1866507Y17548263D01*
X1867832Y17699758D01*
X1869421Y17827322D01*
X1871296Y17933000D01*
X1873480Y18018835D01*
X1875995Y18086873D01*
X1878864Y18139159D01*
X1882109Y18177737D01*
X1885754Y18204652D01*
X1889821Y18221948D01*
X1894332Y18231670D01*
X1895928Y18233572D01*
X1901226Y18236233D01*
X1912406Y18238749D01*
X1930607Y18241126D01*
X1956965Y18243366D01*
X1992616Y18245474D01*
X2038698Y18247453D01*
X2096347Y18249308D01*
X2166700Y18251042D01*
X2250893Y18252660D01*
X2350064Y18254165D01*
X2465349Y18255561D01*
X2597885Y18256853D01*
X2748809Y18258044D01*
X2919256Y18259139D01*
X3110365Y18260140D01*
X3323272Y18261053D01*
X3559114Y18261882D01*
X3819027Y18262629D01*
X4104148Y18263299D01*
X4415614Y18263897D01*
X4754561Y18264425D01*
X5122127Y18264889D01*
X5519449Y18265292D01*
X5947662Y18265637D01*
X6407903Y18265929D01*
X6901310Y18266173D01*
X7429019Y18266371D01*
X7992167Y18266528D01*
X8591891Y18266648D01*
X9229327Y18266734D01*
X9905612Y18266791D01*
X10621883Y18266823D01*
X11379277Y18266833D01*
X11430000Y18266834D01*
X12190108Y18266824D01*
G37*
X12190108Y18266824D02*
X12909020Y18266794D01*
X13587872Y18266739D01*
X14227800Y18266654D01*
X14829943Y18266537D01*
X15395436Y18266382D01*
X15925416Y18266187D01*
X16421019Y18265947D01*
X16883384Y18265658D01*
X17313646Y18265316D01*
X17712942Y18264917D01*
X18082409Y18264457D01*
X18423184Y18263933D01*
X18736403Y18263340D01*
X19023204Y18262675D01*
X19284722Y18261933D01*
X19522095Y18261110D01*
X19736459Y18260203D01*
X19928951Y18259207D01*
X20100709Y18258118D01*
X20252868Y18256934D01*
X20386565Y18255648D01*
X20502938Y18254259D01*
X20603123Y18252761D01*
X20688256Y18251151D01*
X20759474Y18249424D01*
X20817915Y18247577D01*
X20864715Y18245606D01*
X20901010Y18243507D01*
X20927938Y18241276D01*
X20946635Y18238908D01*
X20958238Y18236401D01*
X20963883Y18233749D01*
X20964071Y18233572D01*
X20968735Y18225908D01*
X20972946Y18211348D01*
X20976728Y18187848D01*
X20980103Y18153362D01*
X20983094Y18105845D01*
X20985724Y18043254D01*
X20988015Y17963543D01*
X20989990Y17864667D01*
X20991671Y17744583D01*
X20993082Y17601245D01*
X20994244Y17432609D01*
X20995180Y17236629D01*
X20995914Y17011262D01*
X20996467Y16754463D01*
X20996863Y16464187D01*
X20997123Y16138389D01*
X20997271Y15775024D01*
X20997330Y15372049D01*
X20997333Y15229417D01*
X20997300Y14812864D01*
X20997184Y14436599D01*
X20996963Y14098578D01*
X20996615Y13796757D01*
X20996116Y13529090D01*
X20995445Y13293533D01*
X20994578Y13088042D01*
X20993493Y12910570D01*
X20992167Y12759075D01*
X20990578Y12631511D01*
X20988703Y12525834D01*
X20986520Y12439999D01*
X20984005Y12371960D01*
X20981136Y12319675D01*
X20977890Y12281097D01*
X20974246Y12254182D01*
X20970179Y12236886D01*
X20965668Y12227164D01*
X20964071Y12225262D01*
X20958774Y12222601D01*
X20947593Y12220084D01*
X20929392Y12217708D01*
X20903035Y12215468D01*
X20867383Y12213360D01*
X20821301Y12211381D01*
X20763653Y12209526D01*
X20693300Y12207792D01*
X20609106Y12206174D01*
X20509935Y12204669D01*
X20394650Y12203272D01*
X20262115Y12201981D01*
X20111191Y12200789D01*
X19940743Y12199695D01*
X19749634Y12198693D01*
X19536727Y12197780D01*
X19300886Y12196952D01*
X19040973Y12196205D01*
X18755852Y12195534D01*
X18444386Y12194937D01*
X18105438Y12194408D01*
X17737872Y12193945D01*
X17340551Y12193542D01*
X16912338Y12193197D01*
X16452097Y12192904D01*
X15958690Y12192661D01*
X15430980Y12192463D01*
X14867832Y12192306D01*
X14268109Y12192186D01*
X13630673Y12192100D01*
X12954388Y12192043D01*
X12238116Y12192011D01*
X11480723Y12192000D01*
X11430000Y12192000D01*
X10669892Y12192009D01*
X9950980Y12192040D01*
X9272128Y12192095D01*
X8632199Y12192180D01*
X8030057Y12192297D01*
X7464564Y12192451D01*
X6934584Y12192647D01*
X6438980Y12192887D01*
X5976616Y12193176D01*
X5546354Y12193518D01*
X5147057Y12193917D01*
X4777590Y12194376D01*
X4436816Y12194900D01*
X4123596Y12195493D01*
X3836796Y12196159D01*
X3575278Y12196901D01*
X3337905Y12197724D01*
X3123541Y12198631D01*
X2931048Y12199627D01*
X2759291Y12200715D01*
X2607132Y12201900D01*
X2473434Y12203185D01*
X2357062Y12204575D01*
X2256877Y12206073D01*
X2171744Y12207683D01*
X2100525Y12209410D01*
X2042084Y12211256D01*
X1995285Y12213227D01*
X1958989Y12215327D01*
X1932062Y12217558D01*
X1913365Y12219925D01*
X1901762Y12222433D01*
X1896116Y12225084D01*
X1895928Y12225262D01*
X1891265Y12232926D01*
X1887054Y12247485D01*
X1883272Y12270986D01*
X1879896Y12305472D01*
X1876905Y12352989D01*
X1874276Y12415580D01*
X1871985Y12495291D01*
X1870010Y12594166D01*
X1868328Y12714251D01*
X1866918Y12857589D01*
X1865756Y13026225D01*
X1864819Y13222204D01*
X1864086Y13447571D01*
X1863532Y13704371D01*
X1863168Y13971900D01*
X2099274Y13971900D01*
X2099332Y13693591D01*
X2099543Y13436842D01*
X2099902Y13204160D01*
X2100404Y12998054D01*
X2101046Y12821029D01*
X2101823Y12675595D01*
X2102732Y12564258D01*
X2103767Y12489525D01*
X2104925Y12453906D01*
X2105277Y12451268D01*
X2113409Y12449073D01*
X2136753Y12447003D01*
X2176311Y12445058D01*
X2233083Y12443235D01*
X2308071Y12441530D01*
X2402275Y12439943D01*
X2516697Y12438471D01*
X2652338Y12437111D01*
X2810200Y12435862D01*
X2991282Y12434721D01*
X3196587Y12433685D01*
X3427115Y12432753D01*
X3683868Y12431922D01*
X3967846Y12431190D01*
X4280052Y12430555D01*
X4621485Y12430014D01*
X4993147Y12429566D01*
X5396040Y12429207D01*
X5831164Y12428935D01*
X6299521Y12428749D01*
X6802111Y12428647D01*
X7339937Y12428624D01*
X7913998Y12428681D01*
X8525296Y12428813D01*
X9174832Y12429020D01*
X9863608Y12429298D01*
X10592624Y12429646D01*
X11362881Y12430061D01*
X11434636Y12430101D01*
X20753917Y12435417D01*
X20753917Y18023417D01*
X2106083Y18023417D01*
X2100640Y15250583D01*
X2100050Y14911111D01*
X2099628Y14583167D01*
X2099371Y14269261D01*
X2099274Y13971900D01*
X1863168Y13971900D01*
X1863137Y13994647D01*
X1862876Y14320445D01*
X1862728Y14683809D01*
X1862670Y15086785D01*
X1862667Y15229417D01*
X1862700Y15645970D01*
X1862816Y16022235D01*
X1863037Y16360255D01*
X1863385Y16662077D01*
X1863884Y16929744D01*
X1864555Y17165301D01*
X1865422Y17370792D01*
X1866507Y17548263D01*
X1867832Y17699758D01*
X1869421Y17827322D01*
X1871296Y17933000D01*
X1873480Y18018835D01*
X1875995Y18086873D01*
X1878864Y18139159D01*
X1882109Y18177737D01*
X1885754Y18204652D01*
X1889821Y18221948D01*
X1894332Y18231670D01*
X1895928Y18233572D01*
X1901226Y18236233D01*
X1912406Y18238749D01*
X1930607Y18241126D01*
X1956965Y18243366D01*
X1992616Y18245474D01*
X2038698Y18247453D01*
X2096347Y18249308D01*
X2166700Y18251042D01*
X2250893Y18252660D01*
X2350064Y18254165D01*
X2465349Y18255561D01*
X2597885Y18256853D01*
X2748809Y18258044D01*
X2919256Y18259139D01*
X3110365Y18260140D01*
X3323272Y18261053D01*
X3559114Y18261882D01*
X3819027Y18262629D01*
X4104148Y18263299D01*
X4415614Y18263897D01*
X4754561Y18264425D01*
X5122127Y18264889D01*
X5519449Y18265292D01*
X5947662Y18265637D01*
X6407903Y18265929D01*
X6901310Y18266173D01*
X7429019Y18266371D01*
X7992167Y18266528D01*
X8591891Y18266648D01*
X9229327Y18266734D01*
X9905612Y18266791D01*
X10621883Y18266823D01*
X11379277Y18266833D01*
X11430000Y18266834D01*
X12190108Y18266824D01*
%TD*%
D12*
%TO.P,J3,2*%
%TO.N,Net-(C2-Pad1)*%
X5080000Y2540000D03*
X5080000Y7620000D03*
D13*
X5080000Y5080000D03*
D12*
%TO.P,J3,1*%
%TO.N,GND*%
X2540000Y2540000D03*
X2540000Y7620000D03*
D13*
X2540000Y5080000D03*
%TD*%
D12*
%TO.P,J2,2*%
%TO.N,Net-(C2-Pad1)*%
X50800000Y2540000D03*
X50800000Y7620000D03*
D13*
X50800000Y5080000D03*
D12*
%TO.P,J2,1*%
%TO.N,GND*%
X48260000Y2540000D03*
X48260000Y7620000D03*
D13*
X48260000Y5080000D03*
%TD*%
D14*
%TO.P,J1,*%
%TO.N,*%
X29210000Y19050000D03*
X24130000Y19050000D03*
D15*
%TO.P,J1,2*%
%TO.N,Net-(D1-Pad2)*%
X24130000Y13970000D03*
D16*
%TO.P,J1,1*%
%TO.N,GND*%
X29210000Y13970000D03*
%TD*%
%TO.P,C1,2*%
%TO.N,GND*%
%TA.AperFunction,SMDPad,CuDef*%
G36*
G01*
X22409999Y4630000D02*
X23310001Y4630000D01*
G75*
G02*
X23560000Y4380001I0J-249999D01*
G01*
X23560000Y3729999D01*
G75*
G02*
X23310001Y3480000I-249999J0D01*
G01*
X22409999Y3480000D01*
G75*
G02*
X22160000Y3729999I0J249999D01*
G01*
X22160000Y4380001D01*
G75*
G02*
X22409999Y4630000I249999J0D01*
G01*
G37*
%TD.AperFunction*%
%TO.P,C1,1*%
%TO.N,Net-(C1-Pad1)*%
%TA.AperFunction,SMDPad,CuDef*%
G36*
G01*
X22409999Y6680000D02*
X23310001Y6680000D01*
G75*
G02*
X23560000Y6430001I0J-249999D01*
G01*
X23560000Y5779999D01*
G75*
G02*
X23310001Y5530000I-249999J0D01*
G01*
X22409999Y5530000D01*
G75*
G02*
X22160000Y5779999I0J249999D01*
G01*
X22160000Y6430001D01*
G75*
G02*
X22409999Y6680000I249999J0D01*
G01*
G37*
%TD.AperFunction*%
%TD*%
%TO.P,C2,2*%
%TO.N,GND*%
%TA.AperFunction,SMDPad,CuDef*%
G36*
G01*
X10610001Y5530000D02*
X9709999Y5530000D01*
G75*
G02*
X9460000Y5779999I0J249999D01*
G01*
X9460000Y6430001D01*
G75*
G02*
X9709999Y6680000I249999J0D01*
G01*
X10610001Y6680000D01*
G75*
G02*
X10860000Y6430001I0J-249999D01*
G01*
X10860000Y5779999D01*
G75*
G02*
X10610001Y5530000I-249999J0D01*
G01*
G37*
%TD.AperFunction*%
%TO.P,C2,1*%
%TO.N,Net-(C2-Pad1)*%
%TA.AperFunction,SMDPad,CuDef*%
G36*
G01*
X10610001Y3480000D02*
X9709999Y3480000D01*
G75*
G02*
X9460000Y3729999I0J249999D01*
G01*
X9460000Y4380001D01*
G75*
G02*
X9709999Y4630000I249999J0D01*
G01*
X10610001Y4630000D01*
G75*
G02*
X10860000Y4380001I0J-249999D01*
G01*
X10860000Y3729999D01*
G75*
G02*
X10610001Y3480000I-249999J0D01*
G01*
G37*
%TD.AperFunction*%
%TD*%
%TO.P,D1,2*%
%TO.N,Net-(D1-Pad2)*%
%TA.AperFunction,SMDPad,CuDef*%
G36*
G01*
X28933000Y3185000D02*
X28933000Y4435000D01*
G75*
G02*
X29183000Y4685000I250000J0D01*
G01*
X30108000Y4685000D01*
G75*
G02*
X30358000Y4435000I0J-250000D01*
G01*
X30358000Y3185000D01*
G75*
G02*
X30108000Y2935000I-250000J0D01*
G01*
X29183000Y2935000D01*
G75*
G02*
X28933000Y3185000I0J250000D01*
G01*
G37*
%TD.AperFunction*%
%TO.P,D1,1*%
%TO.N,Net-(C1-Pad1)*%
%TA.AperFunction,SMDPad,CuDef*%
G36*
G01*
X25958000Y3185000D02*
X25958000Y4435000D01*
G75*
G02*
X26208000Y4685000I250000J0D01*
G01*
X27133000Y4685000D01*
G75*
G02*
X27383000Y4435000I0J-250000D01*
G01*
X27383000Y3185000D01*
G75*
G02*
X27133000Y2935000I-250000J0D01*
G01*
X26208000Y2935000D01*
G75*
G02*
X25958000Y3185000I0J250000D01*
G01*
G37*
%TD.AperFunction*%
%TD*%
%TO.P,D2,2*%
%TO.N,Net-(C2-Pad1)*%
%TA.AperFunction,SMDPad,CuDef*%
G36*
G01*
X40015000Y5575000D02*
X41265000Y5575000D01*
G75*
G02*
X41515000Y5325000I0J-250000D01*
G01*
X41515000Y4400000D01*
G75*
G02*
X41265000Y4150000I-250000J0D01*
G01*
X40015000Y4150000D01*
G75*
G02*
X39765000Y4400000I0J250000D01*
G01*
X39765000Y5325000D01*
G75*
G02*
X40015000Y5575000I250000J0D01*
G01*
G37*
%TD.AperFunction*%
%TO.P,D2,1*%
%TO.N,Net-(D2-Pad1)*%
%TA.AperFunction,SMDPad,CuDef*%
G36*
G01*
X40015000Y8550000D02*
X41265000Y8550000D01*
G75*
G02*
X41515000Y8300000I0J-250000D01*
G01*
X41515000Y7375000D01*
G75*
G02*
X41265000Y7125000I-250000J0D01*
G01*
X40015000Y7125000D01*
G75*
G02*
X39765000Y7375000I0J250000D01*
G01*
X39765000Y8300000D01*
G75*
G02*
X40015000Y8550000I250000J0D01*
G01*
G37*
%TD.AperFunction*%
%TD*%
%TO.P,R1,2*%
%TO.N,GND*%
%TA.AperFunction,SMDPad,CuDef*%
G36*
G01*
X34935000Y5575000D02*
X36185000Y5575000D01*
G75*
G02*
X36435000Y5325000I0J-250000D01*
G01*
X36435000Y4400000D01*
G75*
G02*
X36185000Y4150000I-250000J0D01*
G01*
X34935000Y4150000D01*
G75*
G02*
X34685000Y4400000I0J250000D01*
G01*
X34685000Y5325000D01*
G75*
G02*
X34935000Y5575000I250000J0D01*
G01*
G37*
%TD.AperFunction*%
%TO.P,R1,1*%
%TO.N,Net-(D2-Pad1)*%
%TA.AperFunction,SMDPad,CuDef*%
G36*
G01*
X34935000Y8550000D02*
X36185000Y8550000D01*
G75*
G02*
X36435000Y8300000I0J-250000D01*
G01*
X36435000Y7375000D01*
G75*
G02*
X36185000Y7125000I-250000J0D01*
G01*
X34935000Y7125000D01*
G75*
G02*
X34685000Y7375000I0J250000D01*
G01*
X34685000Y8300000D01*
G75*
G02*
X34935000Y8550000I250000J0D01*
G01*
G37*
%TD.AperFunction*%
%TD*%
D17*
%TO.P,U1,1*%
%TO.N,GND*%
X14210000Y4470000D03*
%TO.P,U1,3*%
%TO.N,Net-(C1-Pad1)*%
X18810000Y4470000D03*
%TO.P,U1,2*%
%TO.N,Net-(C2-Pad1)*%
X16510000Y4470000D03*
D18*
%TO.P,U1,4*%
%TO.N,N/C*%
X16510000Y10770000D03*
%TD*%
D19*
%TO.N,Net-(C1-Pad1)*%
X26670500Y3810000D02*
X24375500Y6105000D01*
X24375500Y6105000D02*
X22860000Y6105000D01*
X18810000Y4470000D02*
X20060000Y4470000D01*
X20060000Y4470000D02*
X21695000Y6105000D01*
X21695000Y6105000D02*
X22860000Y6105000D01*
D20*
%TO.N,GND*%
X48260000Y6350000D02*
X37047500Y6350000D01*
X37047500Y6350000D02*
X35560000Y4862500D01*
X48260000Y6350000D02*
X48260000Y5080000D01*
X48260000Y7620000D02*
X48260000Y6350000D01*
X35560000Y4862500D02*
X29210000Y11212500D01*
X29210000Y11212500D02*
X29210000Y13970000D01*
X22860000Y4055000D02*
X24592700Y2322300D01*
X24592700Y2322300D02*
X33019800Y2322300D01*
X33019800Y2322300D02*
X35560000Y4862500D01*
X2540000Y3200400D02*
X2540000Y3147600D01*
X2540000Y3147600D02*
X4522800Y1164800D01*
X4522800Y1164800D02*
X9504800Y1164800D01*
X9504800Y1164800D02*
X12810000Y4470000D01*
X2540000Y3200400D02*
X2540000Y2540000D01*
X2540000Y5080000D02*
X2540000Y3200400D01*
X14210000Y3095000D02*
X14435400Y2869600D01*
X14435400Y2869600D02*
X21674600Y2869600D01*
X21674600Y2869600D02*
X22860000Y4055000D01*
X14210000Y3645000D02*
X14210000Y3095000D01*
X14210000Y4470000D02*
X12810000Y4470000D01*
X12810000Y4470000D02*
X11175000Y6105000D01*
X11175000Y6105000D02*
X10160000Y6105000D01*
X14210000Y3645000D02*
X14210000Y4470000D01*
X2540000Y7620000D02*
X2540000Y5080000D01*
X48260000Y5080000D02*
X48260000Y2540000D01*
D19*
%TO.N,Net-(C2-Pad1)*%
X9000500Y7147800D02*
X9000500Y5214500D01*
X9000500Y5214500D02*
X10160000Y4055000D01*
X5080000Y7200600D02*
X8947700Y7200600D01*
X8947700Y7200600D02*
X9000500Y7147800D01*
X16388100Y7095000D02*
X16335300Y7147800D01*
X16335300Y7147800D02*
X9000500Y7147800D01*
D20*
X5080000Y5080000D02*
X5080000Y2540000D01*
D19*
X50800000Y7620000D02*
X42999500Y15420500D01*
X42999500Y15420500D02*
X23508800Y15420500D01*
X23508800Y15420500D02*
X21441100Y13352800D01*
X21441100Y13352800D02*
X21441100Y12148000D01*
X21441100Y12148000D02*
X16388100Y7095000D01*
X16388100Y7095000D02*
X16388100Y6091900D01*
X16388100Y6091900D02*
X16510000Y5970000D01*
D20*
X50800000Y7620000D02*
X50800000Y5080000D01*
D19*
X16510000Y4470000D02*
X16510000Y5970000D01*
D20*
X5080000Y7200600D02*
X5080000Y5080000D01*
X5080000Y7620000D02*
X5080000Y7200600D01*
D19*
X50800000Y2540000D02*
X49557300Y1297300D01*
X49557300Y1297300D02*
X44205200Y1297300D01*
X44205200Y1297300D02*
X40640000Y4862500D01*
D20*
X50800000Y5080000D02*
X50800000Y2540000D01*
D19*
%TO.N,Net-(D1-Pad2)*%
X29645500Y3810000D02*
X29645500Y8454500D01*
X29645500Y8454500D02*
X24130000Y13970000D01*
%TO.N,Net-(D2-Pad1)*%
X35560000Y7837500D02*
X40640000Y7837500D01*
%TD*%
D21*
%TO.N,GND*%
G36*
X27575000Y14255750D02*
G01*
X27733750Y14097000D01*
X29083000Y14097000D01*
X29083000Y14117000D01*
X29337000Y14117000D01*
X29337000Y14097000D01*
X30686250Y14097000D01*
X30845000Y14255750D01*
X30846203Y14535500D01*
X42632922Y14535500D01*
X48151421Y9017000D01*
X48122408Y9017000D01*
X47852510Y8963314D01*
X47598273Y8858005D01*
X47369465Y8705120D01*
X47174880Y8510535D01*
X47021995Y8281727D01*
X46916686Y8027490D01*
X46863000Y7757592D01*
X46863000Y7482408D01*
X46916686Y7212510D01*
X47021995Y6958273D01*
X47174880Y6729465D01*
X47369465Y6534880D01*
X47457465Y6476080D01*
X47373518Y6467812D01*
X47253820Y6431502D01*
X47143506Y6372537D01*
X47046815Y6293185D01*
X46967463Y6196494D01*
X46908498Y6086180D01*
X46872188Y5966482D01*
X46859928Y5842000D01*
X46859928Y4318000D01*
X46872188Y4193518D01*
X46908498Y4073820D01*
X46967463Y3963506D01*
X47046815Y3866815D01*
X47143506Y3787463D01*
X47253820Y3728498D01*
X47373518Y3692188D01*
X47457465Y3683920D01*
X47369465Y3625120D01*
X47174880Y3430535D01*
X47021995Y3201727D01*
X46916686Y2947490D01*
X46863000Y2677592D01*
X46863000Y2402408D01*
X46906782Y2182300D01*
X44571779Y2182300D01*
X42153072Y4601006D01*
X42153072Y5325000D01*
X42136008Y5498254D01*
X42085472Y5664850D01*
X42003405Y5818386D01*
X41892962Y5952962D01*
X41758386Y6063405D01*
X41604850Y6145472D01*
X41438254Y6196008D01*
X41265000Y6213072D01*
X40015000Y6213072D01*
X39841746Y6196008D01*
X39675150Y6145472D01*
X39521614Y6063405D01*
X39387038Y5952962D01*
X39276595Y5818386D01*
X39194528Y5664850D01*
X39143992Y5498254D01*
X39126928Y5325000D01*
X39126928Y4400000D01*
X39143992Y4226746D01*
X39194528Y4060150D01*
X39276595Y3906614D01*
X39387038Y3772038D01*
X39521614Y3661595D01*
X39675150Y3579528D01*
X39841746Y3528992D01*
X40015000Y3511928D01*
X40738994Y3511928D01*
X42853921Y1397000D01*
X5883912Y1397000D01*
X5970535Y1454880D01*
X6165120Y1649465D01*
X6318005Y1878273D01*
X6423314Y2132510D01*
X6477000Y2402408D01*
X6477000Y2677592D01*
X6423314Y2947490D01*
X6318005Y3201727D01*
X6165120Y3430535D01*
X6115000Y3480655D01*
X6115000Y3743903D01*
X6196494Y3787463D01*
X6293185Y3866815D01*
X6372537Y3963506D01*
X6431502Y4073820D01*
X6467812Y4193518D01*
X6480072Y4318000D01*
X6480072Y5842000D01*
X6467812Y5966482D01*
X6431502Y6086180D01*
X6372537Y6196494D01*
X6293185Y6293185D01*
X6265872Y6315600D01*
X8115500Y6315600D01*
X8115501Y5257979D01*
X8111219Y5214500D01*
X8128305Y5041010D01*
X8178912Y4874187D01*
X8261090Y4720441D01*
X8343968Y4619454D01*
X8343971Y4619451D01*
X8371684Y4585683D01*
X8405451Y4557971D01*
X8821928Y4141494D01*
X8821928Y3729999D01*
X8838992Y3556745D01*
X8889528Y3390149D01*
X8971595Y3236613D01*
X9082038Y3102038D01*
X9216613Y2991595D01*
X9370149Y2909528D01*
X9536745Y2858992D01*
X9709999Y2841928D01*
X10610001Y2841928D01*
X10783255Y2858992D01*
X10949851Y2909528D01*
X11103387Y2991595D01*
X11237962Y3102038D01*
X11348405Y3236613D01*
X11430472Y3390149D01*
X11454694Y3470000D01*
X12821928Y3470000D01*
X12834188Y3345518D01*
X12870498Y3225820D01*
X12929463Y3115506D01*
X13008815Y3018815D01*
X13105506Y2939463D01*
X13215820Y2880498D01*
X13335518Y2844188D01*
X13460000Y2831928D01*
X13924250Y2835000D01*
X14083000Y2993750D01*
X14083000Y4343000D01*
X12983750Y4343000D01*
X12825000Y4184250D01*
X12821928Y3470000D01*
X11454694Y3470000D01*
X11481008Y3556745D01*
X11498072Y3729999D01*
X11498072Y4380001D01*
X11481008Y4553255D01*
X11430472Y4719851D01*
X11348405Y4873387D01*
X11237962Y5007962D01*
X11231406Y5013342D01*
X11311185Y5078815D01*
X11390537Y5175506D01*
X11449502Y5285820D01*
X11485812Y5405518D01*
X11492162Y5470000D01*
X12821928Y5470000D01*
X12825000Y4755750D01*
X12983750Y4597000D01*
X14083000Y4597000D01*
X14083000Y5946250D01*
X13924250Y6105000D01*
X13460000Y6108072D01*
X13335518Y6095812D01*
X13215820Y6059502D01*
X13105506Y6000537D01*
X13008815Y5921185D01*
X12929463Y5824494D01*
X12870498Y5714180D01*
X12834188Y5594482D01*
X12821928Y5470000D01*
X11492162Y5470000D01*
X11498072Y5530000D01*
X11495000Y5819250D01*
X11336250Y5978000D01*
X10287000Y5978000D01*
X10287000Y5958000D01*
X10033000Y5958000D01*
X10033000Y5978000D01*
X10013000Y5978000D01*
X10013000Y6232000D01*
X10033000Y6232000D01*
X10033000Y6252000D01*
X10287000Y6252000D01*
X10287000Y6232000D01*
X11336250Y6232000D01*
X11367050Y6262800D01*
X15503101Y6262800D01*
X15503101Y6135378D01*
X15498819Y6091900D01*
X15502700Y6052489D01*
X15405506Y6000537D01*
X15360000Y5963191D01*
X15314494Y6000537D01*
X15204180Y6059502D01*
X15084482Y6095812D01*
X14960000Y6108072D01*
X14495750Y6105000D01*
X14337000Y5946250D01*
X14337000Y4597000D01*
X14357000Y4597000D01*
X14357000Y4343000D01*
X14337000Y4343000D01*
X14337000Y2993750D01*
X14495750Y2835000D01*
X14960000Y2831928D01*
X15084482Y2844188D01*
X15204180Y2880498D01*
X15314494Y2939463D01*
X15360000Y2976809D01*
X15405506Y2939463D01*
X15515820Y2880498D01*
X15635518Y2844188D01*
X15760000Y2831928D01*
X17260000Y2831928D01*
X17384482Y2844188D01*
X17504180Y2880498D01*
X17614494Y2939463D01*
X17660000Y2976809D01*
X17705506Y2939463D01*
X17815820Y2880498D01*
X17935518Y2844188D01*
X18060000Y2831928D01*
X19560000Y2831928D01*
X19684482Y2844188D01*
X19804180Y2880498D01*
X19914494Y2939463D01*
X20011185Y3018815D01*
X20090537Y3115506D01*
X20149502Y3225820D01*
X20185812Y3345518D01*
X20198072Y3470000D01*
X20198072Y3480000D01*
X21521928Y3480000D01*
X21534188Y3355518D01*
X21570498Y3235820D01*
X21629463Y3125506D01*
X21708815Y3028815D01*
X21805506Y2949463D01*
X21915820Y2890498D01*
X22035518Y2854188D01*
X22160000Y2841928D01*
X22574250Y2845000D01*
X22733000Y3003750D01*
X22733000Y3928000D01*
X22987000Y3928000D01*
X22987000Y3003750D01*
X23145750Y2845000D01*
X23560000Y2841928D01*
X23684482Y2854188D01*
X23804180Y2890498D01*
X23914494Y2949463D01*
X24011185Y3028815D01*
X24090537Y3125506D01*
X24149502Y3235820D01*
X24185812Y3355518D01*
X24198072Y3480000D01*
X24195000Y3769250D01*
X24036250Y3928000D01*
X22987000Y3928000D01*
X22733000Y3928000D01*
X21683750Y3928000D01*
X21525000Y3769250D01*
X21521928Y3480000D01*
X20198072Y3480000D01*
X20198072Y3594317D01*
X20233490Y3597805D01*
X20400313Y3648411D01*
X20554059Y3730589D01*
X20688817Y3841183D01*
X20716534Y3874956D01*
X21527429Y4685850D01*
X21521928Y4630000D01*
X21525000Y4340750D01*
X21683750Y4182000D01*
X22733000Y4182000D01*
X22733000Y4202000D01*
X22987000Y4202000D01*
X22987000Y4182000D01*
X24036250Y4182000D01*
X24195000Y4340750D01*
X24198072Y4630000D01*
X24185812Y4754482D01*
X24149502Y4874180D01*
X24090537Y4984494D01*
X24011185Y5081185D01*
X23931406Y5146658D01*
X23937962Y5152038D01*
X23993737Y5220000D01*
X24008922Y5220000D01*
X25319928Y3908993D01*
X25319928Y3185000D01*
X25336992Y3011746D01*
X25387528Y2845150D01*
X25469595Y2691614D01*
X25580038Y2557038D01*
X25714614Y2446595D01*
X25868150Y2364528D01*
X26034746Y2313992D01*
X26208000Y2296928D01*
X27133000Y2296928D01*
X27306254Y2313992D01*
X27472850Y2364528D01*
X27626386Y2446595D01*
X27760962Y2557038D01*
X27871405Y2691614D01*
X27953472Y2845150D01*
X28004008Y3011746D01*
X28021072Y3185000D01*
X28021072Y4435000D01*
X28004008Y4608254D01*
X27953472Y4774850D01*
X27871405Y4928386D01*
X27760962Y5062962D01*
X27626386Y5173405D01*
X27472850Y5255472D01*
X27306254Y5306008D01*
X27133000Y5323072D01*
X26409007Y5323072D01*
X25032034Y6700044D01*
X25004317Y6733817D01*
X24869559Y6844411D01*
X24715813Y6926589D01*
X24548990Y6977195D01*
X24418977Y6990000D01*
X24418969Y6990000D01*
X24375500Y6994281D01*
X24332031Y6990000D01*
X23993737Y6990000D01*
X23937962Y7057962D01*
X23803387Y7168405D01*
X23649851Y7250472D01*
X23483255Y7301008D01*
X23310001Y7318072D01*
X22409999Y7318072D01*
X22236745Y7301008D01*
X22070149Y7250472D01*
X21916613Y7168405D01*
X21782038Y7057962D01*
X21727175Y6991112D01*
X21694999Y6994281D01*
X21651533Y6990000D01*
X21651523Y6990000D01*
X21521510Y6977195D01*
X21354687Y6926589D01*
X21200941Y6844411D01*
X21200939Y6844410D01*
X21200940Y6844410D01*
X21099953Y6761532D01*
X21099951Y6761530D01*
X21066183Y6733817D01*
X21038470Y6700049D01*
X20115749Y5777327D01*
X20090537Y5824494D01*
X20011185Y5921185D01*
X19914494Y6000537D01*
X19804180Y6059502D01*
X19684482Y6095812D01*
X19560000Y6108072D01*
X18060000Y6108072D01*
X17935518Y6095812D01*
X17815820Y6059502D01*
X17705506Y6000537D01*
X17660000Y5963191D01*
X17614494Y6000537D01*
X17504180Y6059502D01*
X17386965Y6095059D01*
X17382195Y6143490D01*
X17331589Y6310313D01*
X17273100Y6419739D01*
X17273100Y6728422D01*
X22036149Y11491470D01*
X22069917Y11519183D01*
X22097638Y11552960D01*
X22159002Y11627733D01*
X22180511Y11653941D01*
X22262689Y11807687D01*
X22313295Y11974510D01*
X22326100Y12104523D01*
X22326100Y12104533D01*
X22330381Y12147999D01*
X22326100Y12191468D01*
X22326100Y12986222D01*
X22638417Y13298539D01*
X22681082Y13195537D01*
X22860013Y12927748D01*
X23087748Y12700013D01*
X23355537Y12521082D01*
X23653088Y12397832D01*
X23968967Y12335000D01*
X24291033Y12335000D01*
X24476525Y12371897D01*
X28760501Y8087920D01*
X28760500Y5211295D01*
X28689614Y5173405D01*
X28555038Y5062962D01*
X28444595Y4928386D01*
X28362528Y4774850D01*
X28311992Y4608254D01*
X28294928Y4435000D01*
X28294928Y3185000D01*
X28311992Y3011746D01*
X28362528Y2845150D01*
X28444595Y2691614D01*
X28555038Y2557038D01*
X28689614Y2446595D01*
X28843150Y2364528D01*
X29009746Y2313992D01*
X29183000Y2296928D01*
X30108000Y2296928D01*
X30281254Y2313992D01*
X30447850Y2364528D01*
X30601386Y2446595D01*
X30735962Y2557038D01*
X30846405Y2691614D01*
X30928472Y2845150D01*
X30979008Y3011746D01*
X30996072Y3185000D01*
X30996072Y4150000D01*
X34046928Y4150000D01*
X34059188Y4025518D01*
X34095498Y3905820D01*
X34154463Y3795506D01*
X34233815Y3698815D01*
X34330506Y3619463D01*
X34440820Y3560498D01*
X34560518Y3524188D01*
X34685000Y3511928D01*
X35274250Y3515000D01*
X35433000Y3673750D01*
X35433000Y4735500D01*
X35687000Y4735500D01*
X35687000Y3673750D01*
X35845750Y3515000D01*
X36435000Y3511928D01*
X36559482Y3524188D01*
X36679180Y3560498D01*
X36789494Y3619463D01*
X36886185Y3698815D01*
X36965537Y3795506D01*
X37024502Y3905820D01*
X37060812Y4025518D01*
X37073072Y4150000D01*
X37070000Y4576750D01*
X36911250Y4735500D01*
X35687000Y4735500D01*
X35433000Y4735500D01*
X34208750Y4735500D01*
X34050000Y4576750D01*
X34046928Y4150000D01*
X30996072Y4150000D01*
X30996072Y4435000D01*
X30979008Y4608254D01*
X30928472Y4774850D01*
X30846405Y4928386D01*
X30735962Y5062962D01*
X30601386Y5173405D01*
X30530500Y5211294D01*
X30530500Y5575000D01*
X34046928Y5575000D01*
X34050000Y5148250D01*
X34208750Y4989500D01*
X35433000Y4989500D01*
X35433000Y6051250D01*
X35687000Y6051250D01*
X35687000Y4989500D01*
X36911250Y4989500D01*
X37070000Y5148250D01*
X37073072Y5575000D01*
X37060812Y5699482D01*
X37024502Y5819180D01*
X36965537Y5929494D01*
X36886185Y6026185D01*
X36789494Y6105537D01*
X36679180Y6164502D01*
X36559482Y6200812D01*
X36435000Y6213072D01*
X35845750Y6210000D01*
X35687000Y6051250D01*
X35433000Y6051250D01*
X35274250Y6210000D01*
X34685000Y6213072D01*
X34560518Y6200812D01*
X34440820Y6164502D01*
X34330506Y6105537D01*
X34233815Y6026185D01*
X34154463Y5929494D01*
X34095498Y5819180D01*
X34059188Y5699482D01*
X34046928Y5575000D01*
X30530500Y5575000D01*
X30530500Y8300000D01*
X34046928Y8300000D01*
X34046928Y7375000D01*
X34063992Y7201746D01*
X34114528Y7035150D01*
X34196595Y6881614D01*
X34307038Y6747038D01*
X34441614Y6636595D01*
X34595150Y6554528D01*
X34761746Y6503992D01*
X34935000Y6486928D01*
X36185000Y6486928D01*
X36358254Y6503992D01*
X36524850Y6554528D01*
X36678386Y6636595D01*
X36812962Y6747038D01*
X36923405Y6881614D01*
X36961294Y6952500D01*
X39238706Y6952500D01*
X39276595Y6881614D01*
X39387038Y6747038D01*
X39521614Y6636595D01*
X39675150Y6554528D01*
X39841746Y6503992D01*
X40015000Y6486928D01*
X41265000Y6486928D01*
X41438254Y6503992D01*
X41604850Y6554528D01*
X41758386Y6636595D01*
X41892962Y6747038D01*
X42003405Y6881614D01*
X42085472Y7035150D01*
X42136008Y7201746D01*
X42153072Y7375000D01*
X42153072Y8300000D01*
X42136008Y8473254D01*
X42085472Y8639850D01*
X42003405Y8793386D01*
X41892962Y8927962D01*
X41758386Y9038405D01*
X41604850Y9120472D01*
X41438254Y9171008D01*
X41265000Y9188072D01*
X40015000Y9188072D01*
X39841746Y9171008D01*
X39675150Y9120472D01*
X39521614Y9038405D01*
X39387038Y8927962D01*
X39276595Y8793386D01*
X39238706Y8722500D01*
X36961294Y8722500D01*
X36923405Y8793386D01*
X36812962Y8927962D01*
X36678386Y9038405D01*
X36524850Y9120472D01*
X36358254Y9171008D01*
X36185000Y9188072D01*
X34935000Y9188072D01*
X34761746Y9171008D01*
X34595150Y9120472D01*
X34441614Y9038405D01*
X34307038Y8927962D01*
X34196595Y8793386D01*
X34114528Y8639850D01*
X34063992Y8473254D01*
X34046928Y8300000D01*
X30530500Y8300000D01*
X30530500Y8411031D01*
X30534781Y8454500D01*
X30530500Y8497969D01*
X30530500Y8497977D01*
X30517695Y8627990D01*
X30467089Y8794813D01*
X30384911Y8948559D01*
X30372802Y8963314D01*
X30302032Y9049547D01*
X30302030Y9049549D01*
X30274317Y9083317D01*
X30240549Y9111030D01*
X26381579Y12970000D01*
X27571928Y12970000D01*
X27584188Y12845518D01*
X27620498Y12725820D01*
X27679463Y12615506D01*
X27758815Y12518815D01*
X27855506Y12439463D01*
X27965820Y12380498D01*
X28085518Y12344188D01*
X28210000Y12331928D01*
X28924250Y12335000D01*
X29083000Y12493750D01*
X29083000Y13843000D01*
X29337000Y13843000D01*
X29337000Y12493750D01*
X29495750Y12335000D01*
X30210000Y12331928D01*
X30334482Y12344188D01*
X30454180Y12380498D01*
X30564494Y12439463D01*
X30661185Y12518815D01*
X30740537Y12615506D01*
X30799502Y12725820D01*
X30835812Y12845518D01*
X30848072Y12970000D01*
X30845000Y13684250D01*
X30686250Y13843000D01*
X29337000Y13843000D01*
X29083000Y13843000D01*
X27733750Y13843000D01*
X27575000Y13684250D01*
X27571928Y12970000D01*
X26381579Y12970000D01*
X25728103Y13623475D01*
X25765000Y13808967D01*
X25765000Y14131033D01*
X25702168Y14446912D01*
X25665474Y14535500D01*
X27573797Y14535500D01*
X27575000Y14255750D01*
G37*
X27575000Y14255750D02*
X27733750Y14097000D01*
X29083000Y14097000D01*
X29083000Y14117000D01*
X29337000Y14117000D01*
X29337000Y14097000D01*
X30686250Y14097000D01*
X30845000Y14255750D01*
X30846203Y14535500D01*
X42632922Y14535500D01*
X48151421Y9017000D01*
X48122408Y9017000D01*
X47852510Y8963314D01*
X47598273Y8858005D01*
X47369465Y8705120D01*
X47174880Y8510535D01*
X47021995Y8281727D01*
X46916686Y8027490D01*
X46863000Y7757592D01*
X46863000Y7482408D01*
X46916686Y7212510D01*
X47021995Y6958273D01*
X47174880Y6729465D01*
X47369465Y6534880D01*
X47457465Y6476080D01*
X47373518Y6467812D01*
X47253820Y6431502D01*
X47143506Y6372537D01*
X47046815Y6293185D01*
X46967463Y6196494D01*
X46908498Y6086180D01*
X46872188Y5966482D01*
X46859928Y5842000D01*
X46859928Y4318000D01*
X46872188Y4193518D01*
X46908498Y4073820D01*
X46967463Y3963506D01*
X47046815Y3866815D01*
X47143506Y3787463D01*
X47253820Y3728498D01*
X47373518Y3692188D01*
X47457465Y3683920D01*
X47369465Y3625120D01*
X47174880Y3430535D01*
X47021995Y3201727D01*
X46916686Y2947490D01*
X46863000Y2677592D01*
X46863000Y2402408D01*
X46906782Y2182300D01*
X44571779Y2182300D01*
X42153072Y4601006D01*
X42153072Y5325000D01*
X42136008Y5498254D01*
X42085472Y5664850D01*
X42003405Y5818386D01*
X41892962Y5952962D01*
X41758386Y6063405D01*
X41604850Y6145472D01*
X41438254Y6196008D01*
X41265000Y6213072D01*
X40015000Y6213072D01*
X39841746Y6196008D01*
X39675150Y6145472D01*
X39521614Y6063405D01*
X39387038Y5952962D01*
X39276595Y5818386D01*
X39194528Y5664850D01*
X39143992Y5498254D01*
X39126928Y5325000D01*
X39126928Y4400000D01*
X39143992Y4226746D01*
X39194528Y4060150D01*
X39276595Y3906614D01*
X39387038Y3772038D01*
X39521614Y3661595D01*
X39675150Y3579528D01*
X39841746Y3528992D01*
X40015000Y3511928D01*
X40738994Y3511928D01*
X42853921Y1397000D01*
X5883912Y1397000D01*
X5970535Y1454880D01*
X6165120Y1649465D01*
X6318005Y1878273D01*
X6423314Y2132510D01*
X6477000Y2402408D01*
X6477000Y2677592D01*
X6423314Y2947490D01*
X6318005Y3201727D01*
X6165120Y3430535D01*
X6115000Y3480655D01*
X6115000Y3743903D01*
X6196494Y3787463D01*
X6293185Y3866815D01*
X6372537Y3963506D01*
X6431502Y4073820D01*
X6467812Y4193518D01*
X6480072Y4318000D01*
X6480072Y5842000D01*
X6467812Y5966482D01*
X6431502Y6086180D01*
X6372537Y6196494D01*
X6293185Y6293185D01*
X6265872Y6315600D01*
X8115500Y6315600D01*
X8115501Y5257979D01*
X8111219Y5214500D01*
X8128305Y5041010D01*
X8178912Y4874187D01*
X8261090Y4720441D01*
X8343968Y4619454D01*
X8343971Y4619451D01*
X8371684Y4585683D01*
X8405451Y4557971D01*
X8821928Y4141494D01*
X8821928Y3729999D01*
X8838992Y3556745D01*
X8889528Y3390149D01*
X8971595Y3236613D01*
X9082038Y3102038D01*
X9216613Y2991595D01*
X9370149Y2909528D01*
X9536745Y2858992D01*
X9709999Y2841928D01*
X10610001Y2841928D01*
X10783255Y2858992D01*
X10949851Y2909528D01*
X11103387Y2991595D01*
X11237962Y3102038D01*
X11348405Y3236613D01*
X11430472Y3390149D01*
X11454694Y3470000D01*
X12821928Y3470000D01*
X12834188Y3345518D01*
X12870498Y3225820D01*
X12929463Y3115506D01*
X13008815Y3018815D01*
X13105506Y2939463D01*
X13215820Y2880498D01*
X13335518Y2844188D01*
X13460000Y2831928D01*
X13924250Y2835000D01*
X14083000Y2993750D01*
X14083000Y4343000D01*
X12983750Y4343000D01*
X12825000Y4184250D01*
X12821928Y3470000D01*
X11454694Y3470000D01*
X11481008Y3556745D01*
X11498072Y3729999D01*
X11498072Y4380001D01*
X11481008Y4553255D01*
X11430472Y4719851D01*
X11348405Y4873387D01*
X11237962Y5007962D01*
X11231406Y5013342D01*
X11311185Y5078815D01*
X11390537Y5175506D01*
X11449502Y5285820D01*
X11485812Y5405518D01*
X11492162Y5470000D01*
X12821928Y5470000D01*
X12825000Y4755750D01*
X12983750Y4597000D01*
X14083000Y4597000D01*
X14083000Y5946250D01*
X13924250Y6105000D01*
X13460000Y6108072D01*
X13335518Y6095812D01*
X13215820Y6059502D01*
X13105506Y6000537D01*
X13008815Y5921185D01*
X12929463Y5824494D01*
X12870498Y5714180D01*
X12834188Y5594482D01*
X12821928Y5470000D01*
X11492162Y5470000D01*
X11498072Y5530000D01*
X11495000Y5819250D01*
X11336250Y5978000D01*
X10287000Y5978000D01*
X10287000Y5958000D01*
X10033000Y5958000D01*
X10033000Y5978000D01*
X10013000Y5978000D01*
X10013000Y6232000D01*
X10033000Y6232000D01*
X10033000Y6252000D01*
X10287000Y6252000D01*
X10287000Y6232000D01*
X11336250Y6232000D01*
X11367050Y6262800D01*
X15503101Y6262800D01*
X15503101Y6135378D01*
X15498819Y6091900D01*
X15502700Y6052489D01*
X15405506Y6000537D01*
X15360000Y5963191D01*
X15314494Y6000537D01*
X15204180Y6059502D01*
X15084482Y6095812D01*
X14960000Y6108072D01*
X14495750Y6105000D01*
X14337000Y5946250D01*
X14337000Y4597000D01*
X14357000Y4597000D01*
X14357000Y4343000D01*
X14337000Y4343000D01*
X14337000Y2993750D01*
X14495750Y2835000D01*
X14960000Y2831928D01*
X15084482Y2844188D01*
X15204180Y2880498D01*
X15314494Y2939463D01*
X15360000Y2976809D01*
X15405506Y2939463D01*
X15515820Y2880498D01*
X15635518Y2844188D01*
X15760000Y2831928D01*
X17260000Y2831928D01*
X17384482Y2844188D01*
X17504180Y2880498D01*
X17614494Y2939463D01*
X17660000Y2976809D01*
X17705506Y2939463D01*
X17815820Y2880498D01*
X17935518Y2844188D01*
X18060000Y2831928D01*
X19560000Y2831928D01*
X19684482Y2844188D01*
X19804180Y2880498D01*
X19914494Y2939463D01*
X20011185Y3018815D01*
X20090537Y3115506D01*
X20149502Y3225820D01*
X20185812Y3345518D01*
X20198072Y3470000D01*
X20198072Y3480000D01*
X21521928Y3480000D01*
X21534188Y3355518D01*
X21570498Y3235820D01*
X21629463Y3125506D01*
X21708815Y3028815D01*
X21805506Y2949463D01*
X21915820Y2890498D01*
X22035518Y2854188D01*
X22160000Y2841928D01*
X22574250Y2845000D01*
X22733000Y3003750D01*
X22733000Y3928000D01*
X22987000Y3928000D01*
X22987000Y3003750D01*
X23145750Y2845000D01*
X23560000Y2841928D01*
X23684482Y2854188D01*
X23804180Y2890498D01*
X23914494Y2949463D01*
X24011185Y3028815D01*
X24090537Y3125506D01*
X24149502Y3235820D01*
X24185812Y3355518D01*
X24198072Y3480000D01*
X24195000Y3769250D01*
X24036250Y3928000D01*
X22987000Y3928000D01*
X22733000Y3928000D01*
X21683750Y3928000D01*
X21525000Y3769250D01*
X21521928Y3480000D01*
X20198072Y3480000D01*
X20198072Y3594317D01*
X20233490Y3597805D01*
X20400313Y3648411D01*
X20554059Y3730589D01*
X20688817Y3841183D01*
X20716534Y3874956D01*
X21527429Y4685850D01*
X21521928Y4630000D01*
X21525000Y4340750D01*
X21683750Y4182000D01*
X22733000Y4182000D01*
X22733000Y4202000D01*
X22987000Y4202000D01*
X22987000Y4182000D01*
X24036250Y4182000D01*
X24195000Y4340750D01*
X24198072Y4630000D01*
X24185812Y4754482D01*
X24149502Y4874180D01*
X24090537Y4984494D01*
X24011185Y5081185D01*
X23931406Y5146658D01*
X23937962Y5152038D01*
X23993737Y5220000D01*
X24008922Y5220000D01*
X25319928Y3908993D01*
X25319928Y3185000D01*
X25336992Y3011746D01*
X25387528Y2845150D01*
X25469595Y2691614D01*
X25580038Y2557038D01*
X25714614Y2446595D01*
X25868150Y2364528D01*
X26034746Y2313992D01*
X26208000Y2296928D01*
X27133000Y2296928D01*
X27306254Y2313992D01*
X27472850Y2364528D01*
X27626386Y2446595D01*
X27760962Y2557038D01*
X27871405Y2691614D01*
X27953472Y2845150D01*
X28004008Y3011746D01*
X28021072Y3185000D01*
X28021072Y4435000D01*
X28004008Y4608254D01*
X27953472Y4774850D01*
X27871405Y4928386D01*
X27760962Y5062962D01*
X27626386Y5173405D01*
X27472850Y5255472D01*
X27306254Y5306008D01*
X27133000Y5323072D01*
X26409007Y5323072D01*
X25032034Y6700044D01*
X25004317Y6733817D01*
X24869559Y6844411D01*
X24715813Y6926589D01*
X24548990Y6977195D01*
X24418977Y6990000D01*
X24418969Y6990000D01*
X24375500Y6994281D01*
X24332031Y6990000D01*
X23993737Y6990000D01*
X23937962Y7057962D01*
X23803387Y7168405D01*
X23649851Y7250472D01*
X23483255Y7301008D01*
X23310001Y7318072D01*
X22409999Y7318072D01*
X22236745Y7301008D01*
X22070149Y7250472D01*
X21916613Y7168405D01*
X21782038Y7057962D01*
X21727175Y6991112D01*
X21694999Y6994281D01*
X21651533Y6990000D01*
X21651523Y6990000D01*
X21521510Y6977195D01*
X21354687Y6926589D01*
X21200941Y6844411D01*
X21200939Y6844410D01*
X21200940Y6844410D01*
X21099953Y6761532D01*
X21099951Y6761530D01*
X21066183Y6733817D01*
X21038470Y6700049D01*
X20115749Y5777327D01*
X20090537Y5824494D01*
X20011185Y5921185D01*
X19914494Y6000537D01*
X19804180Y6059502D01*
X19684482Y6095812D01*
X19560000Y6108072D01*
X18060000Y6108072D01*
X17935518Y6095812D01*
X17815820Y6059502D01*
X17705506Y6000537D01*
X17660000Y5963191D01*
X17614494Y6000537D01*
X17504180Y6059502D01*
X17386965Y6095059D01*
X17382195Y6143490D01*
X17331589Y6310313D01*
X17273100Y6419739D01*
X17273100Y6728422D01*
X22036149Y11491470D01*
X22069917Y11519183D01*
X22097638Y11552960D01*
X22159002Y11627733D01*
X22180511Y11653941D01*
X22262689Y11807687D01*
X22313295Y11974510D01*
X22326100Y12104523D01*
X22326100Y12104533D01*
X22330381Y12147999D01*
X22326100Y12191468D01*
X22326100Y12986222D01*
X22638417Y13298539D01*
X22681082Y13195537D01*
X22860013Y12927748D01*
X23087748Y12700013D01*
X23355537Y12521082D01*
X23653088Y12397832D01*
X23968967Y12335000D01*
X24291033Y12335000D01*
X24476525Y12371897D01*
X28760501Y8087920D01*
X28760500Y5211295D01*
X28689614Y5173405D01*
X28555038Y5062962D01*
X28444595Y4928386D01*
X28362528Y4774850D01*
X28311992Y4608254D01*
X28294928Y4435000D01*
X28294928Y3185000D01*
X28311992Y3011746D01*
X28362528Y2845150D01*
X28444595Y2691614D01*
X28555038Y2557038D01*
X28689614Y2446595D01*
X28843150Y2364528D01*
X29009746Y2313992D01*
X29183000Y2296928D01*
X30108000Y2296928D01*
X30281254Y2313992D01*
X30447850Y2364528D01*
X30601386Y2446595D01*
X30735962Y2557038D01*
X30846405Y2691614D01*
X30928472Y2845150D01*
X30979008Y3011746D01*
X30996072Y3185000D01*
X30996072Y4150000D01*
X34046928Y4150000D01*
X34059188Y4025518D01*
X34095498Y3905820D01*
X34154463Y3795506D01*
X34233815Y3698815D01*
X34330506Y3619463D01*
X34440820Y3560498D01*
X34560518Y3524188D01*
X34685000Y3511928D01*
X35274250Y3515000D01*
X35433000Y3673750D01*
X35433000Y4735500D01*
X35687000Y4735500D01*
X35687000Y3673750D01*
X35845750Y3515000D01*
X36435000Y3511928D01*
X36559482Y3524188D01*
X36679180Y3560498D01*
X36789494Y3619463D01*
X36886185Y3698815D01*
X36965537Y3795506D01*
X37024502Y3905820D01*
X37060812Y4025518D01*
X37073072Y4150000D01*
X37070000Y4576750D01*
X36911250Y4735500D01*
X35687000Y4735500D01*
X35433000Y4735500D01*
X34208750Y4735500D01*
X34050000Y4576750D01*
X34046928Y4150000D01*
X30996072Y4150000D01*
X30996072Y4435000D01*
X30979008Y4608254D01*
X30928472Y4774850D01*
X30846405Y4928386D01*
X30735962Y5062962D01*
X30601386Y5173405D01*
X30530500Y5211294D01*
X30530500Y5575000D01*
X34046928Y5575000D01*
X34050000Y5148250D01*
X34208750Y4989500D01*
X35433000Y4989500D01*
X35433000Y6051250D01*
X35687000Y6051250D01*
X35687000Y4989500D01*
X36911250Y4989500D01*
X37070000Y5148250D01*
X37073072Y5575000D01*
X37060812Y5699482D01*
X37024502Y5819180D01*
X36965537Y5929494D01*
X36886185Y6026185D01*
X36789494Y6105537D01*
X36679180Y6164502D01*
X36559482Y6200812D01*
X36435000Y6213072D01*
X35845750Y6210000D01*
X35687000Y6051250D01*
X35433000Y6051250D01*
X35274250Y6210000D01*
X34685000Y6213072D01*
X34560518Y6200812D01*
X34440820Y6164502D01*
X34330506Y6105537D01*
X34233815Y6026185D01*
X34154463Y5929494D01*
X34095498Y5819180D01*
X34059188Y5699482D01*
X34046928Y5575000D01*
X30530500Y5575000D01*
X30530500Y8300000D01*
X34046928Y8300000D01*
X34046928Y7375000D01*
X34063992Y7201746D01*
X34114528Y7035150D01*
X34196595Y6881614D01*
X34307038Y6747038D01*
X34441614Y6636595D01*
X34595150Y6554528D01*
X34761746Y6503992D01*
X34935000Y6486928D01*
X36185000Y6486928D01*
X36358254Y6503992D01*
X36524850Y6554528D01*
X36678386Y6636595D01*
X36812962Y6747038D01*
X36923405Y6881614D01*
X36961294Y6952500D01*
X39238706Y6952500D01*
X39276595Y6881614D01*
X39387038Y6747038D01*
X39521614Y6636595D01*
X39675150Y6554528D01*
X39841746Y6503992D01*
X40015000Y6486928D01*
X41265000Y6486928D01*
X41438254Y6503992D01*
X41604850Y6554528D01*
X41758386Y6636595D01*
X41892962Y6747038D01*
X42003405Y6881614D01*
X42085472Y7035150D01*
X42136008Y7201746D01*
X42153072Y7375000D01*
X42153072Y8300000D01*
X42136008Y8473254D01*
X42085472Y8639850D01*
X42003405Y8793386D01*
X41892962Y8927962D01*
X41758386Y9038405D01*
X41604850Y9120472D01*
X41438254Y9171008D01*
X41265000Y9188072D01*
X40015000Y9188072D01*
X39841746Y9171008D01*
X39675150Y9120472D01*
X39521614Y9038405D01*
X39387038Y8927962D01*
X39276595Y8793386D01*
X39238706Y8722500D01*
X36961294Y8722500D01*
X36923405Y8793386D01*
X36812962Y8927962D01*
X36678386Y9038405D01*
X36524850Y9120472D01*
X36358254Y9171008D01*
X36185000Y9188072D01*
X34935000Y9188072D01*
X34761746Y9171008D01*
X34595150Y9120472D01*
X34441614Y9038405D01*
X34307038Y8927962D01*
X34196595Y8793386D01*
X34114528Y8639850D01*
X34063992Y8473254D01*
X34046928Y8300000D01*
X30530500Y8300000D01*
X30530500Y8411031D01*
X30534781Y8454500D01*
X30530500Y8497969D01*
X30530500Y8497977D01*
X30517695Y8627990D01*
X30467089Y8794813D01*
X30384911Y8948559D01*
X30372802Y8963314D01*
X30302032Y9049547D01*
X30302030Y9049549D01*
X30274317Y9083317D01*
X30240549Y9111030D01*
X26381579Y12970000D01*
X27571928Y12970000D01*
X27584188Y12845518D01*
X27620498Y12725820D01*
X27679463Y12615506D01*
X27758815Y12518815D01*
X27855506Y12439463D01*
X27965820Y12380498D01*
X28085518Y12344188D01*
X28210000Y12331928D01*
X28924250Y12335000D01*
X29083000Y12493750D01*
X29083000Y13843000D01*
X29337000Y13843000D01*
X29337000Y12493750D01*
X29495750Y12335000D01*
X30210000Y12331928D01*
X30334482Y12344188D01*
X30454180Y12380498D01*
X30564494Y12439463D01*
X30661185Y12518815D01*
X30740537Y12615506D01*
X30799502Y12725820D01*
X30835812Y12845518D01*
X30848072Y12970000D01*
X30845000Y13684250D01*
X30686250Y13843000D01*
X29337000Y13843000D01*
X29083000Y13843000D01*
X27733750Y13843000D01*
X27575000Y13684250D01*
X27571928Y12970000D01*
X26381579Y12970000D01*
X25728103Y13623475D01*
X25765000Y13808967D01*
X25765000Y14131033D01*
X25702168Y14446912D01*
X25665474Y14535500D01*
X27573797Y14535500D01*
X27575000Y14255750D01*
%TD*%
M02*
