G04 #@! TF.GenerationSoftware,KiCad,Pcbnew,5.1.4-3.fc30*
G04 #@! TF.CreationDate,2019-09-19T02:18:24+02:00*
G04 #@! TF.ProjectId,avr_dev_board_atmega16,6176725f-6465-4765-9f62-6f6172645f61,1_0*
G04 #@! TF.SameCoordinates,Original*
G04 #@! TF.FileFunction,Copper,L1,Top*
G04 #@! TF.FilePolarity,Positive*
%FSLAX46Y46*%
G04 Gerber Fmt 4.6, Leading zero omitted, Abs format (unit mm)*
G04 Created by KiCad (PCBNEW 5.1.4-3.fc30) date 2019-09-19 02:18:24*
%MOMM*%
%LPD*%
G04 APERTURE LIST*
%ADD10O,1.905000X2.000000*%
%ADD11R,1.905000X2.000000*%
%ADD12O,1.600000X1.600000*%
%ADD13C,1.600000*%
%ADD14O,2.000000X3.500000*%
%ADD15O,3.300000X2.000000*%
%ADD16R,4.000000X2.000000*%
%ADD17C,1.800000*%
%ADD18R,1.800000X1.800000*%
%ADD19O,2.200000X2.200000*%
%ADD20R,2.200000X2.200000*%
%ADD21R,1.600000X1.600000*%
%ADD22C,1.700000*%
%ADD23O,1.727200X1.727200*%
%ADD24R,1.727200X1.727200*%
%ADD25O,1.700000X1.700000*%
%ADD26R,1.700000X1.700000*%
%ADD27C,2.000000*%
%ADD28C,0.400000*%
%ADD29C,1.000000*%
%ADD30C,0.500000*%
%ADD31C,0.600000*%
G04 APERTURE END LIST*
D10*
X135603000Y-97216000D03*
X133063000Y-97216000D03*
D11*
X130523000Y-97216000D03*
D12*
X134948000Y-122075000D03*
D13*
X134948000Y-114455000D03*
D12*
X137472000Y-71737200D03*
D13*
X129852000Y-71737200D03*
D12*
X45593000Y-99936300D03*
D13*
X53213000Y-99936300D03*
D14*
X127765000Y-52436000D03*
X136765000Y-52436000D03*
D15*
X132265000Y-53436000D03*
D16*
X132265000Y-59436000D03*
D17*
X128908000Y-122075000D03*
D18*
X126368000Y-122075000D03*
D19*
X118052000Y-74386400D03*
D20*
X118052000Y-64226400D03*
D17*
X135082000Y-64368700D03*
D18*
X135082000Y-66908700D03*
D13*
X127939000Y-104325000D03*
X132939000Y-104325000D03*
X119343000Y-104325000D03*
X116843000Y-104325000D03*
X125964000Y-62980600D03*
X125964000Y-67980600D03*
X117920000Y-53592700D03*
D21*
X117920000Y-58592700D03*
D22*
X118616000Y-86164600D03*
X118616000Y-91164600D03*
D13*
X121116000Y-81094600D03*
X116116000Y-81094600D03*
X121116000Y-96334600D03*
X116116000Y-96334600D03*
D23*
X55194200Y-78994000D03*
X52654200Y-78994000D03*
X55194200Y-76454000D03*
X52654200Y-76454000D03*
X55194200Y-73914000D03*
X52654200Y-73914000D03*
X55194200Y-71374000D03*
X52654200Y-71374000D03*
X55194200Y-68834000D03*
D24*
X52654200Y-68834000D03*
D25*
X119469000Y-122075000D03*
D26*
X116929000Y-122075000D03*
D25*
X109208900Y-122075000D03*
X106668900Y-122075000D03*
X104128900Y-122075000D03*
X101588900Y-122075000D03*
X99048900Y-122075000D03*
X96508900Y-122075000D03*
X93968900Y-122075000D03*
D26*
X91428900Y-122075000D03*
D25*
X91529000Y-50955400D03*
X94069000Y-50955400D03*
X96609000Y-50955400D03*
X99149000Y-50955400D03*
X101689000Y-50955400D03*
X104229000Y-50955400D03*
X106769000Y-50955400D03*
D26*
X109309000Y-50955400D03*
D25*
X81254600Y-50905400D03*
X78714600Y-50905400D03*
X76174600Y-50905400D03*
X73634600Y-50905400D03*
X71094600Y-50905400D03*
X68554600Y-50905400D03*
X66014600Y-50905400D03*
D26*
X63474600Y-50905400D03*
D25*
X73634600Y-122025000D03*
X71094600Y-122025000D03*
X68554600Y-122025000D03*
X66014600Y-122025000D03*
D26*
X63474600Y-122025000D03*
D27*
X50296200Y-121029000D03*
X45796200Y-121029000D03*
X50296200Y-114529000D03*
X45796200Y-114529000D03*
D13*
X53350800Y-106680000D03*
D21*
X50850800Y-106680000D03*
D13*
X83794600Y-72437000D03*
X83794600Y-77437000D03*
X86334600Y-104936800D03*
X86334600Y-99936800D03*
X88874600Y-77437000D03*
X88874600Y-72437000D03*
D19*
X45796200Y-106680000D03*
D20*
X45796200Y-96520000D03*
D12*
X63474600Y-81094600D03*
X111734600Y-96334600D03*
X66014600Y-81094600D03*
X109194600Y-96334600D03*
X68554600Y-81094600D03*
X106654600Y-96334600D03*
X71094600Y-81094600D03*
X104114600Y-96334600D03*
X73634600Y-81094600D03*
X101574600Y-96334600D03*
X76174600Y-81094600D03*
X99034600Y-96334600D03*
X78714600Y-81094600D03*
X96494600Y-96334600D03*
X81254600Y-81094600D03*
X93954600Y-96334600D03*
X83794600Y-81094600D03*
X91414600Y-96334600D03*
X86334600Y-81094600D03*
X88874600Y-96334600D03*
X88874600Y-81094600D03*
X86334600Y-96334600D03*
X91414600Y-81094600D03*
X83794600Y-96334600D03*
X93954600Y-81094600D03*
X81254600Y-96334600D03*
X96494600Y-81094600D03*
X78714600Y-96334600D03*
X99034600Y-81094600D03*
X76174600Y-96334600D03*
X101574600Y-81094600D03*
X73634600Y-96334600D03*
X104114600Y-81094600D03*
X71094600Y-96334600D03*
X106654600Y-81094600D03*
X68554600Y-96334600D03*
X109194600Y-81094600D03*
X66014600Y-96334600D03*
X111734600Y-81094600D03*
D21*
X63474600Y-96334600D03*
D28*
X51378200Y-97534900D02*
X49194700Y-97534900D01*
X49194700Y-97534900D02*
X46793300Y-99936300D01*
X82594300Y-96334600D02*
X82594300Y-96709800D01*
X82594300Y-96709800D02*
X81769200Y-97534900D01*
X81769200Y-97534900D02*
X51378200Y-97534900D01*
X51378200Y-97534900D02*
X51378200Y-75930200D01*
X51378200Y-75930200D02*
X52130500Y-75177900D01*
X52130500Y-75177900D02*
X52654200Y-75177900D01*
X52654200Y-73914000D02*
X52654200Y-75177900D01*
X50850800Y-106680000D02*
X45796200Y-106680000D01*
X45593000Y-99936300D02*
X46793300Y-99936300D01*
X83794600Y-96334600D02*
X82594300Y-96334600D01*
D29*
X86334600Y-81094600D02*
X86334600Y-82594900D01*
X88874600Y-83751000D02*
X118459600Y-83751000D01*
X118459600Y-83751000D02*
X118459700Y-83750900D01*
X86334600Y-82594900D02*
X87718500Y-82594900D01*
X87718500Y-82594900D02*
X88874600Y-83751000D01*
X88874600Y-94834300D02*
X88874600Y-83751000D01*
X118459700Y-83750900D02*
X121116000Y-81094600D01*
X121116000Y-96334600D02*
X121116000Y-86407300D01*
X121116000Y-86407300D02*
X118459700Y-83750900D01*
X88874600Y-96334600D02*
X88874600Y-94834300D01*
X119469000Y-121299800D02*
X119469000Y-104451000D01*
X119469000Y-104451000D02*
X119343000Y-104325000D01*
X119469000Y-121299800D02*
X123992500Y-121299800D01*
X123992500Y-121299800D02*
X124767700Y-122075000D01*
X126368000Y-122075000D02*
X124767700Y-122075000D01*
X119469000Y-122075000D02*
X119469000Y-121299800D01*
X125964000Y-62980600D02*
X133693900Y-62980600D01*
X133693900Y-62980600D02*
X135082000Y-64368700D01*
X55194200Y-73914000D02*
X55194200Y-76454000D01*
X55194200Y-71374000D02*
X56758100Y-71374000D01*
X83794600Y-72437000D02*
X57821100Y-72437000D01*
X57821100Y-72437000D02*
X56758100Y-71374000D01*
D30*
X114865600Y-95084200D02*
X116116000Y-96334600D01*
X95204900Y-96334600D02*
X95204900Y-95787600D01*
X95204900Y-95787600D02*
X95908300Y-95084200D01*
X95908300Y-95084200D02*
X114865600Y-95084200D01*
X114865600Y-95084200D02*
X114865600Y-94915000D01*
X114865600Y-94915000D02*
X118616000Y-91164600D01*
X93954600Y-96334600D02*
X95204900Y-96334600D01*
D31*
X132939000Y-104325000D02*
X132939000Y-112446000D01*
X132939000Y-112446000D02*
X134948000Y-114455000D01*
X132939000Y-102996600D02*
X132939000Y-104325000D01*
X133063000Y-97216000D02*
X133063000Y-98716300D01*
X132939000Y-102996600D02*
X132939000Y-98840300D01*
X132939000Y-98840300D02*
X133063000Y-98716300D01*
X116843000Y-104325000D02*
X118171400Y-102996600D01*
X118171400Y-102996600D02*
X132939000Y-102996600D01*
X86334600Y-99936800D02*
X112454800Y-99936800D01*
X112454800Y-99936800D02*
X116843000Y-104325000D01*
X45796200Y-96520000D02*
X45796200Y-73214700D01*
X45796200Y-73214700D02*
X51592500Y-67418400D01*
X51592500Y-67418400D02*
X53778600Y-67418400D01*
X53778600Y-67418400D02*
X55194200Y-68834000D01*
X53213000Y-99936300D02*
X53213500Y-99936800D01*
X53213500Y-99936800D02*
X86334600Y-99936800D01*
D30*
X118052000Y-74386400D02*
X127202800Y-74386400D01*
X127202800Y-74386400D02*
X129852000Y-71737200D01*
D28*
X52654200Y-76454000D02*
X53918100Y-76454000D01*
X81254600Y-96334600D02*
X80054300Y-96334600D01*
X80054300Y-96334600D02*
X80054300Y-95959500D01*
X80054300Y-95959500D02*
X66436700Y-82341900D01*
X66436700Y-82341900D02*
X62989200Y-82341900D01*
X62989200Y-82341900D02*
X58371300Y-77724000D01*
X58371300Y-77724000D02*
X54664400Y-77724000D01*
X54664400Y-77724000D02*
X53918100Y-76977700D01*
X53918100Y-76977700D02*
X53918100Y-76454000D01*
X52654200Y-78994000D02*
X53918100Y-78994000D01*
X78714600Y-96334600D02*
X77514300Y-96334600D01*
X77514300Y-96334600D02*
X77514300Y-95959400D01*
X77514300Y-95959400D02*
X76689200Y-95134300D01*
X76689200Y-95134300D02*
X69534700Y-95134300D01*
X69534700Y-95134300D02*
X53918100Y-79517700D01*
X53918100Y-79517700D02*
X53918100Y-78994000D01*
D30*
X118052000Y-64226400D02*
X119602300Y-64226400D01*
X125964000Y-67980600D02*
X123356500Y-67980600D01*
X123356500Y-67980600D02*
X119602300Y-64226400D01*
X91414600Y-96334600D02*
X92664900Y-96334600D01*
X92664900Y-96334600D02*
X92664900Y-95787600D01*
X92664900Y-95787600D02*
X102287900Y-86164600D01*
X102287900Y-86164600D02*
X118616000Y-86164600D01*
D31*
X128908000Y-122075000D02*
X134948000Y-122075000D01*
M02*
