%TF.GenerationSoftware,KiCad,Pcbnew,5.1.6-c6e7f7d~86~ubuntu18.04.1*%
%TF.CreationDate,2020-05-25T18:46:55+02:00*%
%TF.ProjectId,avr_dev_board_atmega16,6176725f-6465-4765-9f62-6f6172645f61,1_0*%
%TF.SameCoordinates,PX2652348PY7832370*%
%TF.FileFunction,Copper,L1,Top*%
%TF.FilePolarity,Positive*%
%FSLAX46Y46*%
G04 Gerber Fmt 4.6, Leading zero omitted, Abs format (unit mm)*
G04 Created by KiCad (PCBNEW 5.1.6-c6e7f7d~86~ubuntu18.04.1) date 2020-05-25 18:46:55*
%MOMM*%
%LPD*%
G01*
G04 APERTURE LIST*
%TA.AperFunction,ComponentPad*%
%ADD10O,1.905000X2.000000*%
%TD*%
%TA.AperFunction,ComponentPad*%
%ADD11R,1.905000X2.000000*%
%TD*%
%TA.AperFunction,ComponentPad*%
%ADD12O,1.600000X1.600000*%
%TD*%
%TA.AperFunction,ComponentPad*%
%ADD13C,1.600000*%
%TD*%
%TA.AperFunction,ComponentPad*%
%ADD14O,2.000000X3.500000*%
%TD*%
%TA.AperFunction,ComponentPad*%
%ADD15O,3.300000X2.000000*%
%TD*%
%TA.AperFunction,ComponentPad*%
%ADD16R,4.000000X2.000000*%
%TD*%
%TA.AperFunction,ComponentPad*%
%ADD17C,1.800000*%
%TD*%
%TA.AperFunction,ComponentPad*%
%ADD18R,1.800000X1.800000*%
%TD*%
%TA.AperFunction,ComponentPad*%
%ADD19O,2.200000X2.200000*%
%TD*%
%TA.AperFunction,ComponentPad*%
%ADD20R,2.200000X2.200000*%
%TD*%
%TA.AperFunction,ComponentPad*%
%ADD21R,1.600000X1.600000*%
%TD*%
%TA.AperFunction,ComponentPad*%
%ADD22C,1.700000*%
%TD*%
%TA.AperFunction,ComponentPad*%
%ADD23O,1.727200X1.727200*%
%TD*%
%TA.AperFunction,ComponentPad*%
%ADD24R,1.727200X1.727200*%
%TD*%
%TA.AperFunction,ComponentPad*%
%ADD25O,1.700000X1.700000*%
%TD*%
%TA.AperFunction,ComponentPad*%
%ADD26R,1.700000X1.700000*%
%TD*%
%TA.AperFunction,ComponentPad*%
%ADD27C,2.000000*%
%TD*%
%TA.AperFunction,Conductor*%
%ADD28C,0.400000*%
%TD*%
%TA.AperFunction,Conductor*%
%ADD29C,1.000000*%
%TD*%
%TA.AperFunction,Conductor*%
%ADD30C,0.500000*%
%TD*%
%TA.AperFunction,Conductor*%
%ADD31C,0.600000*%
%TD*%
G04 APERTURE END LIST*
D10*
%TO.P,U2,3*%
%TO.N,Net-(C7-Pad1)*%
X95420400Y28818800D03*
%TO.P,U2,2*%
%TO.N,+5V*%
X92880400Y28818800D03*
D11*
%TO.P,U2,1*%
%TO.N,GND*%
X90340400Y28818800D03*
%TD*%
D12*
%TO.P,R3,2*%
%TO.N,Net-(D4-Pad2)*%
X94765400Y3959800D03*
D13*
%TO.P,R3,1*%
%TO.N,+5V*%
X94765400Y11579800D03*
%TD*%
D12*
%TO.P,R2,2*%
%TO.N,Net-(D2-Pad1)*%
X97289400Y54297600D03*
D13*
%TO.P,R2,1*%
%TO.N,Net-(D3-Pad2)*%
X89669400Y54297600D03*
%TD*%
D12*
%TO.P,R1,2*%
%TO.N,/RESET*%
X10807900Y25654000D03*
D13*
%TO.P,R1,1*%
%TO.N,+5V*%
X10807900Y33274000D03*
%TD*%
D14*
%TO.P,J2,MP*%
%TO.N,N/C*%
X87582400Y73598800D03*
X96582400Y73598800D03*
D15*
%TO.P,J2,2*%
%TO.N,GND*%
X92082400Y72598800D03*
D16*
%TO.P,J2,1*%
%TO.N,Net-(D3-Pad2)*%
X92082400Y66598800D03*
%TD*%
D17*
%TO.P,D4,2*%
%TO.N,Net-(D4-Pad2)*%
X88725400Y3959800D03*
D18*
%TO.P,D4,1*%
%TO.N,GND*%
X86185400Y3959800D03*
%TD*%
D19*
%TO.P,D3,2*%
%TO.N,Net-(D3-Pad2)*%
X77869400Y51648400D03*
D20*
%TO.P,D3,1*%
%TO.N,Net-(C7-Pad1)*%
X77869400Y61808400D03*
%TD*%
D17*
%TO.P,D2,2*%
%TO.N,GND*%
X94899400Y61666100D03*
D18*
%TO.P,D2,1*%
%TO.N,Net-(D2-Pad1)*%
X94899400Y59126100D03*
%TD*%
D13*
%TO.P,C10,2*%
%TO.N,GND*%
X87756400Y21709800D03*
%TO.P,C10,1*%
%TO.N,+5V*%
X92756400Y21709800D03*
%TD*%
%TO.P,C9,2*%
%TO.N,GND*%
X79160400Y21709800D03*
%TO.P,C9,1*%
%TO.N,+5V*%
X76660400Y21709800D03*
%TD*%
%TO.P,C8,2*%
%TO.N,GND*%
X85781400Y63054200D03*
%TO.P,C8,1*%
%TO.N,Net-(C7-Pad1)*%
X85781400Y58054200D03*
%TD*%
%TO.P,C7,2*%
%TO.N,GND*%
X77737400Y72442100D03*
D21*
%TO.P,C7,1*%
%TO.N,Net-(C7-Pad1)*%
X77737400Y67442100D03*
%TD*%
D22*
%TO.P,Y1,2*%
%TO.N,Net-(C3-Pad1)*%
X78433400Y39870200D03*
%TO.P,Y1,1*%
%TO.N,Net-(C2-Pad1)*%
X78433400Y34870200D03*
%TD*%
D13*
%TO.P,C3,2*%
%TO.N,GND*%
X80933400Y44940200D03*
%TO.P,C3,1*%
%TO.N,Net-(C3-Pad1)*%
X75933400Y44940200D03*
%TD*%
%TO.P,C2,2*%
%TO.N,GND*%
X80933400Y29700200D03*
%TO.P,C2,1*%
%TO.N,Net-(C2-Pad1)*%
X75933400Y29700200D03*
%TD*%
D23*
%TO.P,J1,10*%
%TO.N,GND*%
X15011600Y47040800D03*
%TO.P,J1,9*%
%TO.N,/MISO*%
X12471600Y47040800D03*
%TO.P,J1,8*%
%TO.N,GND*%
X15011600Y49580800D03*
%TO.P,J1,7*%
%TO.N,/SCK*%
X12471600Y49580800D03*
%TO.P,J1,6*%
%TO.N,GND*%
X15011600Y52120800D03*
%TO.P,J1,5*%
%TO.N,/RESET*%
X12471600Y52120800D03*
%TO.P,J1,4*%
%TO.N,GND*%
X15011600Y54660800D03*
%TO.P,J1,3*%
%TO.N,Net-(J1-Pad3)*%
X12471600Y54660800D03*
%TO.P,J1,2*%
%TO.N,+5V*%
X15011600Y57200800D03*
D24*
%TO.P,J1,1*%
%TO.N,/MOSI*%
X12471600Y57200800D03*
%TD*%
D25*
%TO.P,J6,2*%
%TO.N,GND*%
X79286400Y3959800D03*
D26*
%TO.P,J6,1*%
%TO.N,+5V*%
X76746400Y3959800D03*
%TD*%
D25*
%TO.P,J7,8*%
%TO.N,/PD7*%
X69026300Y3959800D03*
%TO.P,J7,7*%
%TO.N,/PD6*%
X66486300Y3959800D03*
%TO.P,J7,6*%
%TO.N,/PD5*%
X63946300Y3959800D03*
%TO.P,J7,5*%
%TO.N,/PD4*%
X61406300Y3959800D03*
%TO.P,J7,4*%
%TO.N,/PD3*%
X58866300Y3959800D03*
%TO.P,J7,3*%
%TO.N,/PD2*%
X56326300Y3959800D03*
%TO.P,J7,2*%
%TO.N,/PD1*%
X53786300Y3959800D03*
D26*
%TO.P,J7,1*%
%TO.N,/PD0*%
X51246300Y3959800D03*
%TD*%
D25*
%TO.P,J4,8*%
%TO.N,/PC7*%
X51346400Y75079400D03*
%TO.P,J4,7*%
%TO.N,/PC6*%
X53886400Y75079400D03*
%TO.P,J4,6*%
%TO.N,/PC5*%
X56426400Y75079400D03*
%TO.P,J4,5*%
%TO.N,/PC4*%
X58966400Y75079400D03*
%TO.P,J4,4*%
%TO.N,/PC3*%
X61506400Y75079400D03*
%TO.P,J4,3*%
%TO.N,/PC2*%
X64046400Y75079400D03*
%TO.P,J4,2*%
%TO.N,/PC1*%
X66586400Y75079400D03*
D26*
%TO.P,J4,1*%
%TO.N,/PC0*%
X69126400Y75079400D03*
%TD*%
D25*
%TO.P,J3,8*%
%TO.N,/PA7*%
X41072000Y75129400D03*
%TO.P,J3,7*%
%TO.N,/PA6*%
X38532000Y75129400D03*
%TO.P,J3,6*%
%TO.N,/PA5*%
X35992000Y75129400D03*
%TO.P,J3,5*%
%TO.N,/PA4*%
X33452000Y75129400D03*
%TO.P,J3,4*%
%TO.N,/PA3*%
X30912000Y75129400D03*
%TO.P,J3,3*%
%TO.N,/PA2*%
X28372000Y75129400D03*
%TO.P,J3,2*%
%TO.N,/PA1*%
X25832000Y75129400D03*
D26*
%TO.P,J3,1*%
%TO.N,/PA0*%
X23292000Y75129400D03*
%TD*%
D25*
%TO.P,J5,5*%
%TO.N,/PB4*%
X33452000Y4009800D03*
%TO.P,J5,4*%
%TO.N,/PB3*%
X30912000Y4009800D03*
%TO.P,J5,3*%
%TO.N,/PB2*%
X28372000Y4009800D03*
%TO.P,J5,2*%
%TO.N,/PB1*%
X25832000Y4009800D03*
D26*
%TO.P,J5,1*%
%TO.N,/PB0*%
X23292000Y4009800D03*
%TD*%
D27*
%TO.P,SW1,1*%
%TO.N,GND*%
X10113600Y5005800D03*
%TO.P,SW1,2*%
%TO.N,/RESET*%
X5613600Y5005800D03*
%TO.P,SW1,1*%
%TO.N,GND*%
X10113600Y11505800D03*
%TO.P,SW1,2*%
%TO.N,/RESET*%
X5613600Y11505800D03*
%TD*%
D13*
%TO.P,C1,2*%
%TO.N,GND*%
X13168200Y19354800D03*
D21*
%TO.P,C1,1*%
%TO.N,/RESET*%
X10668200Y19354800D03*
%TD*%
D13*
%TO.P,C4,2*%
%TO.N,GND*%
X43612000Y53597800D03*
%TO.P,C4,1*%
%TO.N,Net-(C4-Pad1)*%
X43612000Y48597800D03*
%TD*%
%TO.P,C5,2*%
%TO.N,GND*%
X46152000Y21098000D03*
%TO.P,C5,1*%
%TO.N,+5V*%
X46152000Y26098000D03*
%TD*%
%TO.P,C6,2*%
%TO.N,+5V*%
X48692000Y48597800D03*
%TO.P,C6,1*%
%TO.N,GND*%
X48692000Y53597800D03*
%TD*%
D19*
%TO.P,D1,2*%
%TO.N,/RESET*%
X3822900Y23114000D03*
D20*
%TO.P,D1,1*%
%TO.N,+5V*%
X3822900Y33274000D03*
%TD*%
D12*
%TO.P,U1,40*%
%TO.N,/PA0*%
X23292000Y44940200D03*
%TO.P,U1,20*%
%TO.N,/PD6*%
X71552000Y29700200D03*
%TO.P,U1,39*%
%TO.N,/PA1*%
X25832000Y44940200D03*
%TO.P,U1,19*%
%TO.N,/PD5*%
X69012000Y29700200D03*
%TO.P,U1,38*%
%TO.N,/PA2*%
X28372000Y44940200D03*
%TO.P,U1,18*%
%TO.N,/PD4*%
X66472000Y29700200D03*
%TO.P,U1,37*%
%TO.N,/PA3*%
X30912000Y44940200D03*
%TO.P,U1,17*%
%TO.N,/PD3*%
X63932000Y29700200D03*
%TO.P,U1,36*%
%TO.N,/PA4*%
X33452000Y44940200D03*
%TO.P,U1,16*%
%TO.N,/PD2*%
X61392000Y29700200D03*
%TO.P,U1,35*%
%TO.N,/PA5*%
X35992000Y44940200D03*
%TO.P,U1,15*%
%TO.N,/PD1*%
X58852000Y29700200D03*
%TO.P,U1,34*%
%TO.N,/PA6*%
X38532000Y44940200D03*
%TO.P,U1,14*%
%TO.N,/PD0*%
X56312000Y29700200D03*
%TO.P,U1,33*%
%TO.N,/PA7*%
X41072000Y44940200D03*
%TO.P,U1,13*%
%TO.N,Net-(C2-Pad1)*%
X53772000Y29700200D03*
%TO.P,U1,32*%
%TO.N,Net-(C4-Pad1)*%
X43612000Y44940200D03*
%TO.P,U1,12*%
%TO.N,Net-(C3-Pad1)*%
X51232000Y29700200D03*
%TO.P,U1,31*%
%TO.N,GND*%
X46152000Y44940200D03*
%TO.P,U1,11*%
X48692000Y29700200D03*
%TO.P,U1,30*%
%TO.N,+5V*%
X48692000Y44940200D03*
%TO.P,U1,10*%
X46152000Y29700200D03*
%TO.P,U1,29*%
%TO.N,/PC7*%
X51232000Y44940200D03*
%TO.P,U1,9*%
%TO.N,/RESET*%
X43612000Y29700200D03*
%TO.P,U1,28*%
%TO.N,/PC6*%
X53772000Y44940200D03*
%TO.P,U1,8*%
%TO.N,/SCK*%
X41072000Y29700200D03*
%TO.P,U1,27*%
%TO.N,/PC5*%
X56312000Y44940200D03*
%TO.P,U1,7*%
%TO.N,/MISO*%
X38532000Y29700200D03*
%TO.P,U1,26*%
%TO.N,/PC4*%
X58852000Y44940200D03*
%TO.P,U1,6*%
%TO.N,/MOSI*%
X35992000Y29700200D03*
%TO.P,U1,25*%
%TO.N,/PC3*%
X61392000Y44940200D03*
%TO.P,U1,5*%
%TO.N,/PB4*%
X33452000Y29700200D03*
%TO.P,U1,24*%
%TO.N,/PC2*%
X63932000Y44940200D03*
%TO.P,U1,4*%
%TO.N,/PB3*%
X30912000Y29700200D03*
%TO.P,U1,23*%
%TO.N,/PC1*%
X66472000Y44940200D03*
%TO.P,U1,3*%
%TO.N,/PB2*%
X28372000Y29700200D03*
%TO.P,U1,22*%
%TO.N,/PC0*%
X69012000Y44940200D03*
%TO.P,U1,2*%
%TO.N,/PB1*%
X25832000Y29700200D03*
%TO.P,U1,21*%
%TO.N,/PD7*%
X71552000Y44940200D03*
D21*
%TO.P,U1,1*%
%TO.N,/PB0*%
X23292000Y29700200D03*
%TD*%
D28*
%TO.N,/RESET*%
X10668200Y19354800D02*
X10668200Y18154500D01*
X10668200Y18154500D02*
X5613600Y13099900D01*
X5613600Y13099900D02*
X5613600Y11505800D01*
X42411700Y29700200D02*
X42411700Y29325100D01*
X42411700Y29325100D02*
X38740600Y25654000D01*
X38740600Y25654000D02*
X10807900Y25654000D01*
X43612000Y29700200D02*
X42411700Y29700200D01*
D29*
%TO.N,GND*%
X79286400Y3959800D02*
X86185400Y3959800D01*
X85781400Y63054200D02*
X93511300Y63054200D01*
X93511300Y63054200D02*
X94899400Y61666100D01*
X80933400Y29700200D02*
X80933400Y44940200D01*
X76051700Y24818500D02*
X80933400Y29700200D01*
X46152000Y44940200D02*
X44323200Y46769000D01*
X44323200Y46769000D02*
X30634800Y46769000D01*
X30634800Y46769000D02*
X27823000Y49580800D01*
X27823000Y49580800D02*
X15011600Y49580800D01*
X48692000Y31200500D02*
X46152000Y33740500D01*
X46152000Y33740500D02*
X46152000Y44940200D01*
X48692000Y29700200D02*
X48692000Y31200500D01*
X76051700Y24818500D02*
X72785600Y28084600D01*
X72785600Y28084600D02*
X50307600Y28084600D01*
X50307600Y28084600D02*
X48692000Y29700200D01*
X76051700Y24818500D02*
X79160400Y21709800D01*
D30*
%TO.N,Net-(C2-Pad1)*%
X74683000Y30950600D02*
X75933400Y29700200D01*
X55022300Y29700200D02*
X55022300Y30247200D01*
X55022300Y30247200D02*
X55725700Y30950600D01*
X55725700Y30950600D02*
X74683000Y30950600D01*
X74683000Y30950600D02*
X74683000Y31119800D01*
X74683000Y31119800D02*
X78433400Y34870200D01*
X53772000Y29700200D02*
X55022300Y29700200D01*
D31*
%TO.N,+5V*%
X91456000Y20409400D02*
X92756400Y21709800D01*
X77960800Y20409400D02*
X91456000Y20409400D01*
X91456000Y20409400D02*
X91456000Y14889200D01*
X91456000Y14889200D02*
X94765400Y11579800D01*
X76746400Y3959800D02*
X76746400Y5310100D01*
X77960800Y20409400D02*
X77960800Y6524500D01*
X77960800Y6524500D02*
X76746400Y5310100D01*
X76660400Y21709800D02*
X77960800Y20409400D01*
X46152000Y26098000D02*
X72272200Y26098000D01*
X72272200Y26098000D02*
X76660400Y21709800D01*
X92756400Y21709800D02*
X92880400Y21833800D01*
X92880400Y21833800D02*
X92880400Y28818800D01*
X48692000Y48597800D02*
X45601500Y48597800D01*
X45601500Y48597800D02*
X36998500Y57200800D01*
X36998500Y57200800D02*
X15011600Y57200800D01*
D30*
%TO.N,Net-(D3-Pad2)*%
X77869400Y51648400D02*
X87020200Y51648400D01*
X87020200Y51648400D02*
X89669400Y54297600D01*
%TO.N,/MOSI*%
X35992000Y29700200D02*
X34741700Y29700200D01*
X34741700Y29700200D02*
X34741700Y29153200D01*
X34741700Y29153200D02*
X34009400Y28420900D01*
X34009400Y28420900D02*
X27865200Y28420900D01*
X27865200Y28420900D02*
X27102000Y29184100D01*
X27102000Y29184100D02*
X27102000Y30210000D01*
X27102000Y30210000D02*
X11099300Y46212700D01*
X11099300Y46212700D02*
X11099300Y55828500D01*
X11099300Y55828500D02*
X12471600Y57200800D01*
D28*
%TO.N,/SCK*%
X12471600Y49580800D02*
X13735500Y49580800D01*
X41072000Y29700200D02*
X39871700Y29700200D01*
X39871700Y29700200D02*
X39871700Y30075300D01*
X39871700Y30075300D02*
X26254100Y43692900D01*
X26254100Y43692900D02*
X22806600Y43692900D01*
X22806600Y43692900D02*
X18188700Y48310800D01*
X18188700Y48310800D02*
X14481800Y48310800D01*
X14481800Y48310800D02*
X13735500Y49057100D01*
X13735500Y49057100D02*
X13735500Y49580800D01*
%TO.N,/MISO*%
X12471600Y47040800D02*
X13735500Y47040800D01*
X38532000Y29700200D02*
X37331700Y29700200D01*
X37331700Y29700200D02*
X37331700Y30075400D01*
X37331700Y30075400D02*
X36506600Y30900500D01*
X36506600Y30900500D02*
X29352100Y30900500D01*
X29352100Y30900500D02*
X13735500Y46517100D01*
X13735500Y46517100D02*
X13735500Y47040800D01*
D30*
%TO.N,Net-(C7-Pad1)*%
X77869400Y61808400D02*
X79419700Y61808400D01*
X85781400Y58054200D02*
X83173900Y58054200D01*
X83173900Y58054200D02*
X79419700Y61808400D01*
%TO.N,Net-(C3-Pad1)*%
X75933400Y40105400D02*
X78198200Y40105400D01*
X78198200Y40105400D02*
X78433400Y39870200D01*
X52482300Y29700200D02*
X52482300Y30247200D01*
X52482300Y30247200D02*
X62340500Y40105400D01*
X62340500Y40105400D02*
X75933400Y40105400D01*
X75933400Y40105400D02*
X75933400Y44940200D01*
X51232000Y29700200D02*
X52482300Y29700200D01*
D31*
%TO.N,Net-(D4-Pad2)*%
X88725400Y3959800D02*
X94765400Y3959800D01*
%TD*%
M02*
