G04 #@! TF.GenerationSoftware,KiCad,Pcbnew,5.1.4-3.fc30*
G04 #@! TF.CreationDate,2019-09-19T02:18:24+02:00*
G04 #@! TF.ProjectId,avr_dev_board_atmega16,6176725f-6465-4765-9f62-6f6172645f61,1_0*
G04 #@! TF.SameCoordinates,Original*
G04 #@! TF.FileFunction,Soldermask,Bot*
G04 #@! TF.FilePolarity,Negative*
%FSLAX46Y46*%
G04 Gerber Fmt 4.6, Leading zero omitted, Abs format (unit mm)*
G04 Created by KiCad (PCBNEW 5.1.4-3.fc30) date 2019-09-19 02:18:24*
%MOMM*%
%LPD*%
G04 APERTURE LIST*
%ADD10C,0.100000*%
G04 APERTURE END LIST*
D10*
G36*
X129185395Y-121160546D02*
G01*
X129358466Y-121232234D01*
X129418311Y-121272221D01*
X129514227Y-121336310D01*
X129646690Y-121468773D01*
X129682261Y-121522009D01*
X129750766Y-121624534D01*
X129822454Y-121797605D01*
X129859000Y-121981333D01*
X129859000Y-122168667D01*
X129822454Y-122352395D01*
X129750766Y-122525466D01*
X129750765Y-122525467D01*
X129646690Y-122681227D01*
X129514227Y-122813690D01*
X129493141Y-122827779D01*
X129358466Y-122917766D01*
X129185395Y-122989454D01*
X129001667Y-123026000D01*
X128814333Y-123026000D01*
X128630605Y-122989454D01*
X128457534Y-122917766D01*
X128322859Y-122827779D01*
X128301773Y-122813690D01*
X128169310Y-122681227D01*
X128065235Y-122525467D01*
X128065234Y-122525466D01*
X127993546Y-122352395D01*
X127957000Y-122168667D01*
X127957000Y-121981333D01*
X127993546Y-121797605D01*
X128065234Y-121624534D01*
X128133739Y-121522009D01*
X128169310Y-121468773D01*
X128301773Y-121336310D01*
X128397689Y-121272221D01*
X128457534Y-121232234D01*
X128630605Y-121160546D01*
X128814333Y-121124000D01*
X129001667Y-121124000D01*
X129185395Y-121160546D01*
X129185395Y-121160546D01*
G37*
G36*
X127319000Y-123026000D02*
G01*
X125417000Y-123026000D01*
X125417000Y-121124000D01*
X127319000Y-121124000D01*
X127319000Y-123026000D01*
X127319000Y-123026000D01*
G37*
G36*
X117830000Y-122976000D02*
G01*
X116028000Y-122976000D01*
X116028000Y-121174000D01*
X117830000Y-121174000D01*
X117830000Y-122976000D01*
X117830000Y-122976000D01*
G37*
G36*
X119579442Y-121180518D02*
G01*
X119645627Y-121187037D01*
X119815466Y-121238557D01*
X119971991Y-121322222D01*
X119988248Y-121335564D01*
X120109186Y-121434814D01*
X120192448Y-121536271D01*
X120221778Y-121572009D01*
X120305443Y-121728534D01*
X120356963Y-121898373D01*
X120374359Y-122075000D01*
X120356963Y-122251627D01*
X120305443Y-122421466D01*
X120221778Y-122577991D01*
X120192448Y-122613729D01*
X120109186Y-122715186D01*
X120007729Y-122798448D01*
X119971991Y-122827778D01*
X119815466Y-122911443D01*
X119645627Y-122962963D01*
X119579442Y-122969482D01*
X119513260Y-122976000D01*
X119424740Y-122976000D01*
X119358558Y-122969482D01*
X119292373Y-122962963D01*
X119122534Y-122911443D01*
X118966009Y-122827778D01*
X118930271Y-122798448D01*
X118828814Y-122715186D01*
X118745552Y-122613729D01*
X118716222Y-122577991D01*
X118632557Y-122421466D01*
X118581037Y-122251627D01*
X118563641Y-122075000D01*
X118581037Y-121898373D01*
X118632557Y-121728534D01*
X118716222Y-121572009D01*
X118745552Y-121536271D01*
X118828814Y-121434814D01*
X118949752Y-121335564D01*
X118966009Y-121322222D01*
X119122534Y-121238557D01*
X119292373Y-121187037D01*
X119358558Y-121180518D01*
X119424740Y-121174000D01*
X119513260Y-121174000D01*
X119579442Y-121180518D01*
X119579442Y-121180518D01*
G37*
G36*
X106779342Y-121180518D02*
G01*
X106845527Y-121187037D01*
X107015366Y-121238557D01*
X107171891Y-121322222D01*
X107188148Y-121335564D01*
X107309086Y-121434814D01*
X107392348Y-121536271D01*
X107421678Y-121572009D01*
X107505343Y-121728534D01*
X107556863Y-121898373D01*
X107574259Y-122075000D01*
X107556863Y-122251627D01*
X107505343Y-122421466D01*
X107421678Y-122577991D01*
X107392348Y-122613729D01*
X107309086Y-122715186D01*
X107207629Y-122798448D01*
X107171891Y-122827778D01*
X107015366Y-122911443D01*
X106845527Y-122962963D01*
X106779342Y-122969482D01*
X106713160Y-122976000D01*
X106624640Y-122976000D01*
X106558458Y-122969482D01*
X106492273Y-122962963D01*
X106322434Y-122911443D01*
X106165909Y-122827778D01*
X106130171Y-122798448D01*
X106028714Y-122715186D01*
X105945452Y-122613729D01*
X105916122Y-122577991D01*
X105832457Y-122421466D01*
X105780937Y-122251627D01*
X105763541Y-122075000D01*
X105780937Y-121898373D01*
X105832457Y-121728534D01*
X105916122Y-121572009D01*
X105945452Y-121536271D01*
X106028714Y-121434814D01*
X106149652Y-121335564D01*
X106165909Y-121322222D01*
X106322434Y-121238557D01*
X106492273Y-121187037D01*
X106558458Y-121180518D01*
X106624640Y-121174000D01*
X106713160Y-121174000D01*
X106779342Y-121180518D01*
X106779342Y-121180518D01*
G37*
G36*
X104239342Y-121180518D02*
G01*
X104305527Y-121187037D01*
X104475366Y-121238557D01*
X104631891Y-121322222D01*
X104648148Y-121335564D01*
X104769086Y-121434814D01*
X104852348Y-121536271D01*
X104881678Y-121572009D01*
X104965343Y-121728534D01*
X105016863Y-121898373D01*
X105034259Y-122075000D01*
X105016863Y-122251627D01*
X104965343Y-122421466D01*
X104881678Y-122577991D01*
X104852348Y-122613729D01*
X104769086Y-122715186D01*
X104667629Y-122798448D01*
X104631891Y-122827778D01*
X104475366Y-122911443D01*
X104305527Y-122962963D01*
X104239342Y-122969482D01*
X104173160Y-122976000D01*
X104084640Y-122976000D01*
X104018458Y-122969482D01*
X103952273Y-122962963D01*
X103782434Y-122911443D01*
X103625909Y-122827778D01*
X103590171Y-122798448D01*
X103488714Y-122715186D01*
X103405452Y-122613729D01*
X103376122Y-122577991D01*
X103292457Y-122421466D01*
X103240937Y-122251627D01*
X103223541Y-122075000D01*
X103240937Y-121898373D01*
X103292457Y-121728534D01*
X103376122Y-121572009D01*
X103405452Y-121536271D01*
X103488714Y-121434814D01*
X103609652Y-121335564D01*
X103625909Y-121322222D01*
X103782434Y-121238557D01*
X103952273Y-121187037D01*
X104018458Y-121180518D01*
X104084640Y-121174000D01*
X104173160Y-121174000D01*
X104239342Y-121180518D01*
X104239342Y-121180518D01*
G37*
G36*
X101699342Y-121180518D02*
G01*
X101765527Y-121187037D01*
X101935366Y-121238557D01*
X102091891Y-121322222D01*
X102108148Y-121335564D01*
X102229086Y-121434814D01*
X102312348Y-121536271D01*
X102341678Y-121572009D01*
X102425343Y-121728534D01*
X102476863Y-121898373D01*
X102494259Y-122075000D01*
X102476863Y-122251627D01*
X102425343Y-122421466D01*
X102341678Y-122577991D01*
X102312348Y-122613729D01*
X102229086Y-122715186D01*
X102127629Y-122798448D01*
X102091891Y-122827778D01*
X101935366Y-122911443D01*
X101765527Y-122962963D01*
X101699342Y-122969482D01*
X101633160Y-122976000D01*
X101544640Y-122976000D01*
X101478458Y-122969482D01*
X101412273Y-122962963D01*
X101242434Y-122911443D01*
X101085909Y-122827778D01*
X101050171Y-122798448D01*
X100948714Y-122715186D01*
X100865452Y-122613729D01*
X100836122Y-122577991D01*
X100752457Y-122421466D01*
X100700937Y-122251627D01*
X100683541Y-122075000D01*
X100700937Y-121898373D01*
X100752457Y-121728534D01*
X100836122Y-121572009D01*
X100865452Y-121536271D01*
X100948714Y-121434814D01*
X101069652Y-121335564D01*
X101085909Y-121322222D01*
X101242434Y-121238557D01*
X101412273Y-121187037D01*
X101478458Y-121180518D01*
X101544640Y-121174000D01*
X101633160Y-121174000D01*
X101699342Y-121180518D01*
X101699342Y-121180518D01*
G37*
G36*
X99159342Y-121180518D02*
G01*
X99225527Y-121187037D01*
X99395366Y-121238557D01*
X99551891Y-121322222D01*
X99568148Y-121335564D01*
X99689086Y-121434814D01*
X99772348Y-121536271D01*
X99801678Y-121572009D01*
X99885343Y-121728534D01*
X99936863Y-121898373D01*
X99954259Y-122075000D01*
X99936863Y-122251627D01*
X99885343Y-122421466D01*
X99801678Y-122577991D01*
X99772348Y-122613729D01*
X99689086Y-122715186D01*
X99587629Y-122798448D01*
X99551891Y-122827778D01*
X99395366Y-122911443D01*
X99225527Y-122962963D01*
X99159342Y-122969482D01*
X99093160Y-122976000D01*
X99004640Y-122976000D01*
X98938458Y-122969482D01*
X98872273Y-122962963D01*
X98702434Y-122911443D01*
X98545909Y-122827778D01*
X98510171Y-122798448D01*
X98408714Y-122715186D01*
X98325452Y-122613729D01*
X98296122Y-122577991D01*
X98212457Y-122421466D01*
X98160937Y-122251627D01*
X98143541Y-122075000D01*
X98160937Y-121898373D01*
X98212457Y-121728534D01*
X98296122Y-121572009D01*
X98325452Y-121536271D01*
X98408714Y-121434814D01*
X98529652Y-121335564D01*
X98545909Y-121322222D01*
X98702434Y-121238557D01*
X98872273Y-121187037D01*
X98938458Y-121180518D01*
X99004640Y-121174000D01*
X99093160Y-121174000D01*
X99159342Y-121180518D01*
X99159342Y-121180518D01*
G37*
G36*
X96619342Y-121180518D02*
G01*
X96685527Y-121187037D01*
X96855366Y-121238557D01*
X97011891Y-121322222D01*
X97028148Y-121335564D01*
X97149086Y-121434814D01*
X97232348Y-121536271D01*
X97261678Y-121572009D01*
X97345343Y-121728534D01*
X97396863Y-121898373D01*
X97414259Y-122075000D01*
X97396863Y-122251627D01*
X97345343Y-122421466D01*
X97261678Y-122577991D01*
X97232348Y-122613729D01*
X97149086Y-122715186D01*
X97047629Y-122798448D01*
X97011891Y-122827778D01*
X96855366Y-122911443D01*
X96685527Y-122962963D01*
X96619342Y-122969482D01*
X96553160Y-122976000D01*
X96464640Y-122976000D01*
X96398458Y-122969482D01*
X96332273Y-122962963D01*
X96162434Y-122911443D01*
X96005909Y-122827778D01*
X95970171Y-122798448D01*
X95868714Y-122715186D01*
X95785452Y-122613729D01*
X95756122Y-122577991D01*
X95672457Y-122421466D01*
X95620937Y-122251627D01*
X95603541Y-122075000D01*
X95620937Y-121898373D01*
X95672457Y-121728534D01*
X95756122Y-121572009D01*
X95785452Y-121536271D01*
X95868714Y-121434814D01*
X95989652Y-121335564D01*
X96005909Y-121322222D01*
X96162434Y-121238557D01*
X96332273Y-121187037D01*
X96398458Y-121180518D01*
X96464640Y-121174000D01*
X96553160Y-121174000D01*
X96619342Y-121180518D01*
X96619342Y-121180518D01*
G37*
G36*
X109319342Y-121180518D02*
G01*
X109385527Y-121187037D01*
X109555366Y-121238557D01*
X109711891Y-121322222D01*
X109728148Y-121335564D01*
X109849086Y-121434814D01*
X109932348Y-121536271D01*
X109961678Y-121572009D01*
X110045343Y-121728534D01*
X110096863Y-121898373D01*
X110114259Y-122075000D01*
X110096863Y-122251627D01*
X110045343Y-122421466D01*
X109961678Y-122577991D01*
X109932348Y-122613729D01*
X109849086Y-122715186D01*
X109747629Y-122798448D01*
X109711891Y-122827778D01*
X109555366Y-122911443D01*
X109385527Y-122962963D01*
X109319342Y-122969482D01*
X109253160Y-122976000D01*
X109164640Y-122976000D01*
X109098458Y-122969482D01*
X109032273Y-122962963D01*
X108862434Y-122911443D01*
X108705909Y-122827778D01*
X108670171Y-122798448D01*
X108568714Y-122715186D01*
X108485452Y-122613729D01*
X108456122Y-122577991D01*
X108372457Y-122421466D01*
X108320937Y-122251627D01*
X108303541Y-122075000D01*
X108320937Y-121898373D01*
X108372457Y-121728534D01*
X108456122Y-121572009D01*
X108485452Y-121536271D01*
X108568714Y-121434814D01*
X108689652Y-121335564D01*
X108705909Y-121322222D01*
X108862434Y-121238557D01*
X109032273Y-121187037D01*
X109098458Y-121180518D01*
X109164640Y-121174000D01*
X109253160Y-121174000D01*
X109319342Y-121180518D01*
X109319342Y-121180518D01*
G37*
G36*
X94079342Y-121180518D02*
G01*
X94145527Y-121187037D01*
X94315366Y-121238557D01*
X94471891Y-121322222D01*
X94488148Y-121335564D01*
X94609086Y-121434814D01*
X94692348Y-121536271D01*
X94721678Y-121572009D01*
X94805343Y-121728534D01*
X94856863Y-121898373D01*
X94874259Y-122075000D01*
X94856863Y-122251627D01*
X94805343Y-122421466D01*
X94721678Y-122577991D01*
X94692348Y-122613729D01*
X94609086Y-122715186D01*
X94507629Y-122798448D01*
X94471891Y-122827778D01*
X94315366Y-122911443D01*
X94145527Y-122962963D01*
X94079342Y-122969482D01*
X94013160Y-122976000D01*
X93924640Y-122976000D01*
X93858458Y-122969482D01*
X93792273Y-122962963D01*
X93622434Y-122911443D01*
X93465909Y-122827778D01*
X93430171Y-122798448D01*
X93328714Y-122715186D01*
X93245452Y-122613729D01*
X93216122Y-122577991D01*
X93132457Y-122421466D01*
X93080937Y-122251627D01*
X93063541Y-122075000D01*
X93080937Y-121898373D01*
X93132457Y-121728534D01*
X93216122Y-121572009D01*
X93245452Y-121536271D01*
X93328714Y-121434814D01*
X93449652Y-121335564D01*
X93465909Y-121322222D01*
X93622434Y-121238557D01*
X93792273Y-121187037D01*
X93858458Y-121180518D01*
X93924640Y-121174000D01*
X94013160Y-121174000D01*
X94079342Y-121180518D01*
X94079342Y-121180518D01*
G37*
G36*
X92329900Y-122976000D02*
G01*
X90527900Y-122976000D01*
X90527900Y-121174000D01*
X92329900Y-121174000D01*
X92329900Y-122976000D01*
X92329900Y-122976000D01*
G37*
G36*
X73745043Y-121130519D02*
G01*
X73811227Y-121137037D01*
X73981066Y-121188557D01*
X74137591Y-121272222D01*
X74173329Y-121301552D01*
X74274786Y-121384814D01*
X74343688Y-121468773D01*
X74387378Y-121522009D01*
X74471043Y-121678534D01*
X74522563Y-121848373D01*
X74539959Y-122025000D01*
X74522563Y-122201627D01*
X74471043Y-122371466D01*
X74387378Y-122527991D01*
X74358048Y-122563729D01*
X74274786Y-122665186D01*
X74173329Y-122748448D01*
X74137591Y-122777778D01*
X73981066Y-122861443D01*
X73811227Y-122912963D01*
X73745043Y-122919481D01*
X73678860Y-122926000D01*
X73590340Y-122926000D01*
X73524157Y-122919481D01*
X73457973Y-122912963D01*
X73288134Y-122861443D01*
X73131609Y-122777778D01*
X73095871Y-122748448D01*
X72994414Y-122665186D01*
X72911152Y-122563729D01*
X72881822Y-122527991D01*
X72798157Y-122371466D01*
X72746637Y-122201627D01*
X72729241Y-122025000D01*
X72746637Y-121848373D01*
X72798157Y-121678534D01*
X72881822Y-121522009D01*
X72925512Y-121468773D01*
X72994414Y-121384814D01*
X73095871Y-121301552D01*
X73131609Y-121272222D01*
X73288134Y-121188557D01*
X73457973Y-121137037D01*
X73524157Y-121130519D01*
X73590340Y-121124000D01*
X73678860Y-121124000D01*
X73745043Y-121130519D01*
X73745043Y-121130519D01*
G37*
G36*
X66125043Y-121130519D02*
G01*
X66191227Y-121137037D01*
X66361066Y-121188557D01*
X66517591Y-121272222D01*
X66553329Y-121301552D01*
X66654786Y-121384814D01*
X66723688Y-121468773D01*
X66767378Y-121522009D01*
X66851043Y-121678534D01*
X66902563Y-121848373D01*
X66919959Y-122025000D01*
X66902563Y-122201627D01*
X66851043Y-122371466D01*
X66767378Y-122527991D01*
X66738048Y-122563729D01*
X66654786Y-122665186D01*
X66553329Y-122748448D01*
X66517591Y-122777778D01*
X66361066Y-122861443D01*
X66191227Y-122912963D01*
X66125043Y-122919481D01*
X66058860Y-122926000D01*
X65970340Y-122926000D01*
X65904157Y-122919481D01*
X65837973Y-122912963D01*
X65668134Y-122861443D01*
X65511609Y-122777778D01*
X65475871Y-122748448D01*
X65374414Y-122665186D01*
X65291152Y-122563729D01*
X65261822Y-122527991D01*
X65178157Y-122371466D01*
X65126637Y-122201627D01*
X65109241Y-122025000D01*
X65126637Y-121848373D01*
X65178157Y-121678534D01*
X65261822Y-121522009D01*
X65305512Y-121468773D01*
X65374414Y-121384814D01*
X65475871Y-121301552D01*
X65511609Y-121272222D01*
X65668134Y-121188557D01*
X65837973Y-121137037D01*
X65904157Y-121130519D01*
X65970340Y-121124000D01*
X66058860Y-121124000D01*
X66125043Y-121130519D01*
X66125043Y-121130519D01*
G37*
G36*
X68665043Y-121130519D02*
G01*
X68731227Y-121137037D01*
X68901066Y-121188557D01*
X69057591Y-121272222D01*
X69093329Y-121301552D01*
X69194786Y-121384814D01*
X69263688Y-121468773D01*
X69307378Y-121522009D01*
X69391043Y-121678534D01*
X69442563Y-121848373D01*
X69459959Y-122025000D01*
X69442563Y-122201627D01*
X69391043Y-122371466D01*
X69307378Y-122527991D01*
X69278048Y-122563729D01*
X69194786Y-122665186D01*
X69093329Y-122748448D01*
X69057591Y-122777778D01*
X68901066Y-122861443D01*
X68731227Y-122912963D01*
X68665043Y-122919481D01*
X68598860Y-122926000D01*
X68510340Y-122926000D01*
X68444157Y-122919481D01*
X68377973Y-122912963D01*
X68208134Y-122861443D01*
X68051609Y-122777778D01*
X68015871Y-122748448D01*
X67914414Y-122665186D01*
X67831152Y-122563729D01*
X67801822Y-122527991D01*
X67718157Y-122371466D01*
X67666637Y-122201627D01*
X67649241Y-122025000D01*
X67666637Y-121848373D01*
X67718157Y-121678534D01*
X67801822Y-121522009D01*
X67845512Y-121468773D01*
X67914414Y-121384814D01*
X68015871Y-121301552D01*
X68051609Y-121272222D01*
X68208134Y-121188557D01*
X68377973Y-121137037D01*
X68444157Y-121130519D01*
X68510340Y-121124000D01*
X68598860Y-121124000D01*
X68665043Y-121130519D01*
X68665043Y-121130519D01*
G37*
G36*
X71205043Y-121130519D02*
G01*
X71271227Y-121137037D01*
X71441066Y-121188557D01*
X71597591Y-121272222D01*
X71633329Y-121301552D01*
X71734786Y-121384814D01*
X71803688Y-121468773D01*
X71847378Y-121522009D01*
X71931043Y-121678534D01*
X71982563Y-121848373D01*
X71999959Y-122025000D01*
X71982563Y-122201627D01*
X71931043Y-122371466D01*
X71847378Y-122527991D01*
X71818048Y-122563729D01*
X71734786Y-122665186D01*
X71633329Y-122748448D01*
X71597591Y-122777778D01*
X71441066Y-122861443D01*
X71271227Y-122912963D01*
X71205043Y-122919481D01*
X71138860Y-122926000D01*
X71050340Y-122926000D01*
X70984157Y-122919481D01*
X70917973Y-122912963D01*
X70748134Y-122861443D01*
X70591609Y-122777778D01*
X70555871Y-122748448D01*
X70454414Y-122665186D01*
X70371152Y-122563729D01*
X70341822Y-122527991D01*
X70258157Y-122371466D01*
X70206637Y-122201627D01*
X70189241Y-122025000D01*
X70206637Y-121848373D01*
X70258157Y-121678534D01*
X70341822Y-121522009D01*
X70385512Y-121468773D01*
X70454414Y-121384814D01*
X70555871Y-121301552D01*
X70591609Y-121272222D01*
X70748134Y-121188557D01*
X70917973Y-121137037D01*
X70984157Y-121130519D01*
X71050340Y-121124000D01*
X71138860Y-121124000D01*
X71205043Y-121130519D01*
X71205043Y-121130519D01*
G37*
G36*
X135114823Y-121236313D02*
G01*
X135275242Y-121284976D01*
X135344922Y-121322221D01*
X135423078Y-121363996D01*
X135552659Y-121470341D01*
X135659004Y-121599922D01*
X135659005Y-121599924D01*
X135738024Y-121747758D01*
X135786687Y-121908177D01*
X135803117Y-122075000D01*
X135786687Y-122241823D01*
X135738024Y-122402242D01*
X135727747Y-122421468D01*
X135659004Y-122550078D01*
X135552659Y-122679659D01*
X135423078Y-122786004D01*
X135423076Y-122786005D01*
X135275242Y-122865024D01*
X135114823Y-122913687D01*
X134989804Y-122926000D01*
X134906196Y-122926000D01*
X134781177Y-122913687D01*
X134620758Y-122865024D01*
X134472924Y-122786005D01*
X134472922Y-122786004D01*
X134343341Y-122679659D01*
X134236996Y-122550078D01*
X134168253Y-122421468D01*
X134157976Y-122402242D01*
X134109313Y-122241823D01*
X134092883Y-122075000D01*
X134109313Y-121908177D01*
X134157976Y-121747758D01*
X134236995Y-121599924D01*
X134236996Y-121599922D01*
X134343341Y-121470341D01*
X134472922Y-121363996D01*
X134551078Y-121322221D01*
X134620758Y-121284976D01*
X134781177Y-121236313D01*
X134906196Y-121224000D01*
X134989804Y-121224000D01*
X135114823Y-121236313D01*
X135114823Y-121236313D01*
G37*
G36*
X64375600Y-122926000D02*
G01*
X62573600Y-122926000D01*
X62573600Y-121124000D01*
X64375600Y-121124000D01*
X64375600Y-122926000D01*
X64375600Y-122926000D01*
G37*
G36*
X46102764Y-120018389D02*
G01*
X46294033Y-120097615D01*
X46294035Y-120097616D01*
X46466173Y-120212635D01*
X46612565Y-120359027D01*
X46727585Y-120531167D01*
X46806811Y-120722436D01*
X46847200Y-120925484D01*
X46847200Y-121132516D01*
X46806811Y-121335564D01*
X46729583Y-121522009D01*
X46727584Y-121526835D01*
X46612565Y-121698973D01*
X46466173Y-121845365D01*
X46294035Y-121960384D01*
X46294034Y-121960385D01*
X46294033Y-121960385D01*
X46102764Y-122039611D01*
X45899716Y-122080000D01*
X45692684Y-122080000D01*
X45489636Y-122039611D01*
X45298367Y-121960385D01*
X45298366Y-121960385D01*
X45298365Y-121960384D01*
X45126227Y-121845365D01*
X44979835Y-121698973D01*
X44864816Y-121526835D01*
X44862817Y-121522009D01*
X44785589Y-121335564D01*
X44745200Y-121132516D01*
X44745200Y-120925484D01*
X44785589Y-120722436D01*
X44864815Y-120531167D01*
X44979835Y-120359027D01*
X45126227Y-120212635D01*
X45298365Y-120097616D01*
X45298367Y-120097615D01*
X45489636Y-120018389D01*
X45692684Y-119978000D01*
X45899716Y-119978000D01*
X46102764Y-120018389D01*
X46102764Y-120018389D01*
G37*
G36*
X50602764Y-120018389D02*
G01*
X50794033Y-120097615D01*
X50794035Y-120097616D01*
X50966173Y-120212635D01*
X51112565Y-120359027D01*
X51227585Y-120531167D01*
X51306811Y-120722436D01*
X51347200Y-120925484D01*
X51347200Y-121132516D01*
X51306811Y-121335564D01*
X51229583Y-121522009D01*
X51227584Y-121526835D01*
X51112565Y-121698973D01*
X50966173Y-121845365D01*
X50794035Y-121960384D01*
X50794034Y-121960385D01*
X50794033Y-121960385D01*
X50602764Y-122039611D01*
X50399716Y-122080000D01*
X50192684Y-122080000D01*
X49989636Y-122039611D01*
X49798367Y-121960385D01*
X49798366Y-121960385D01*
X49798365Y-121960384D01*
X49626227Y-121845365D01*
X49479835Y-121698973D01*
X49364816Y-121526835D01*
X49362817Y-121522009D01*
X49285589Y-121335564D01*
X49245200Y-121132516D01*
X49245200Y-120925484D01*
X49285589Y-120722436D01*
X49364815Y-120531167D01*
X49479835Y-120359027D01*
X49626227Y-120212635D01*
X49798365Y-120097616D01*
X49798367Y-120097615D01*
X49989636Y-120018389D01*
X50192684Y-119978000D01*
X50399716Y-119978000D01*
X50602764Y-120018389D01*
X50602764Y-120018389D01*
G37*
G36*
X46102764Y-113518389D02*
G01*
X46294033Y-113597615D01*
X46294035Y-113597616D01*
X46448540Y-113700853D01*
X46466173Y-113712635D01*
X46612565Y-113859027D01*
X46727585Y-114031167D01*
X46806811Y-114222436D01*
X46847200Y-114425484D01*
X46847200Y-114632516D01*
X46806811Y-114835564D01*
X46797476Y-114858100D01*
X46727584Y-115026835D01*
X46612565Y-115198973D01*
X46466173Y-115345365D01*
X46294035Y-115460384D01*
X46294034Y-115460385D01*
X46294033Y-115460385D01*
X46102764Y-115539611D01*
X45899716Y-115580000D01*
X45692684Y-115580000D01*
X45489636Y-115539611D01*
X45298367Y-115460385D01*
X45298366Y-115460385D01*
X45298365Y-115460384D01*
X45126227Y-115345365D01*
X44979835Y-115198973D01*
X44864816Y-115026835D01*
X44794924Y-114858100D01*
X44785589Y-114835564D01*
X44745200Y-114632516D01*
X44745200Y-114425484D01*
X44785589Y-114222436D01*
X44864815Y-114031167D01*
X44979835Y-113859027D01*
X45126227Y-113712635D01*
X45143860Y-113700853D01*
X45298365Y-113597616D01*
X45298367Y-113597615D01*
X45489636Y-113518389D01*
X45692684Y-113478000D01*
X45899716Y-113478000D01*
X46102764Y-113518389D01*
X46102764Y-113518389D01*
G37*
G36*
X50602764Y-113518389D02*
G01*
X50794033Y-113597615D01*
X50794035Y-113597616D01*
X50948540Y-113700853D01*
X50966173Y-113712635D01*
X51112565Y-113859027D01*
X51227585Y-114031167D01*
X51306811Y-114222436D01*
X51347200Y-114425484D01*
X51347200Y-114632516D01*
X51306811Y-114835564D01*
X51297476Y-114858100D01*
X51227584Y-115026835D01*
X51112565Y-115198973D01*
X50966173Y-115345365D01*
X50794035Y-115460384D01*
X50794034Y-115460385D01*
X50794033Y-115460385D01*
X50602764Y-115539611D01*
X50399716Y-115580000D01*
X50192684Y-115580000D01*
X49989636Y-115539611D01*
X49798367Y-115460385D01*
X49798366Y-115460385D01*
X49798365Y-115460384D01*
X49626227Y-115345365D01*
X49479835Y-115198973D01*
X49364816Y-115026835D01*
X49294924Y-114858100D01*
X49285589Y-114835564D01*
X49245200Y-114632516D01*
X49245200Y-114425484D01*
X49285589Y-114222436D01*
X49364815Y-114031167D01*
X49479835Y-113859027D01*
X49626227Y-113712635D01*
X49643860Y-113700853D01*
X49798365Y-113597616D01*
X49798367Y-113597615D01*
X49989636Y-113518389D01*
X50192684Y-113478000D01*
X50399716Y-113478000D01*
X50602764Y-113518389D01*
X50602764Y-113518389D01*
G37*
G36*
X135196228Y-113636703D02*
G01*
X135351100Y-113700853D01*
X135490481Y-113793985D01*
X135609015Y-113912519D01*
X135702147Y-114051900D01*
X135766297Y-114206772D01*
X135799000Y-114371184D01*
X135799000Y-114538816D01*
X135766297Y-114703228D01*
X135702147Y-114858100D01*
X135609015Y-114997481D01*
X135490481Y-115116015D01*
X135351100Y-115209147D01*
X135196228Y-115273297D01*
X135031816Y-115306000D01*
X134864184Y-115306000D01*
X134699772Y-115273297D01*
X134544900Y-115209147D01*
X134405519Y-115116015D01*
X134286985Y-114997481D01*
X134193853Y-114858100D01*
X134129703Y-114703228D01*
X134097000Y-114538816D01*
X134097000Y-114371184D01*
X134129703Y-114206772D01*
X134193853Y-114051900D01*
X134286985Y-113912519D01*
X134405519Y-113793985D01*
X134544900Y-113700853D01*
X134699772Y-113636703D01*
X134864184Y-113604000D01*
X135031816Y-113604000D01*
X135196228Y-113636703D01*
X135196228Y-113636703D01*
G37*
G36*
X45965471Y-105540103D02*
G01*
X46021835Y-105545654D01*
X46238800Y-105611470D01*
X46238802Y-105611471D01*
X46438755Y-105718347D01*
X46614018Y-105862182D01*
X46757853Y-106037445D01*
X46864729Y-106237398D01*
X46930546Y-106454366D01*
X46952769Y-106680000D01*
X46930546Y-106905634D01*
X46864729Y-107122602D01*
X46757853Y-107322555D01*
X46614018Y-107497818D01*
X46438755Y-107641653D01*
X46238802Y-107748529D01*
X46238800Y-107748530D01*
X46021835Y-107814346D01*
X45965471Y-107819897D01*
X45852745Y-107831000D01*
X45739655Y-107831000D01*
X45626929Y-107819897D01*
X45570565Y-107814346D01*
X45353600Y-107748530D01*
X45353598Y-107748529D01*
X45153645Y-107641653D01*
X44978382Y-107497818D01*
X44834547Y-107322555D01*
X44727671Y-107122602D01*
X44661854Y-106905634D01*
X44639631Y-106680000D01*
X44661854Y-106454366D01*
X44727671Y-106237398D01*
X44834547Y-106037445D01*
X44978382Y-105862182D01*
X45153645Y-105718347D01*
X45353598Y-105611471D01*
X45353600Y-105611470D01*
X45570565Y-105545654D01*
X45626929Y-105540103D01*
X45739655Y-105529000D01*
X45852745Y-105529000D01*
X45965471Y-105540103D01*
X45965471Y-105540103D01*
G37*
G36*
X51701800Y-107531000D02*
G01*
X49999800Y-107531000D01*
X49999800Y-105829000D01*
X51701800Y-105829000D01*
X51701800Y-107531000D01*
X51701800Y-107531000D01*
G37*
G36*
X53599028Y-105861703D02*
G01*
X53753900Y-105925853D01*
X53893281Y-106018985D01*
X54011815Y-106137519D01*
X54104947Y-106276900D01*
X54169097Y-106431772D01*
X54201800Y-106596184D01*
X54201800Y-106763816D01*
X54169097Y-106928228D01*
X54104947Y-107083100D01*
X54011815Y-107222481D01*
X53893281Y-107341015D01*
X53753900Y-107434147D01*
X53599028Y-107498297D01*
X53434616Y-107531000D01*
X53266984Y-107531000D01*
X53102572Y-107498297D01*
X52947700Y-107434147D01*
X52808319Y-107341015D01*
X52689785Y-107222481D01*
X52596653Y-107083100D01*
X52532503Y-106928228D01*
X52499800Y-106763816D01*
X52499800Y-106596184D01*
X52532503Y-106431772D01*
X52596653Y-106276900D01*
X52689785Y-106137519D01*
X52808319Y-106018985D01*
X52947700Y-105925853D01*
X53102572Y-105861703D01*
X53266984Y-105829000D01*
X53434616Y-105829000D01*
X53599028Y-105861703D01*
X53599028Y-105861703D01*
G37*
G36*
X86582828Y-104118503D02*
G01*
X86737700Y-104182653D01*
X86877081Y-104275785D01*
X86995615Y-104394319D01*
X87088747Y-104533700D01*
X87152897Y-104688572D01*
X87185600Y-104852984D01*
X87185600Y-105020616D01*
X87152897Y-105185028D01*
X87088747Y-105339900D01*
X86995615Y-105479281D01*
X86877081Y-105597815D01*
X86737700Y-105690947D01*
X86582828Y-105755097D01*
X86418416Y-105787800D01*
X86250784Y-105787800D01*
X86086372Y-105755097D01*
X85931500Y-105690947D01*
X85792119Y-105597815D01*
X85673585Y-105479281D01*
X85580453Y-105339900D01*
X85516303Y-105185028D01*
X85483600Y-105020616D01*
X85483600Y-104852984D01*
X85516303Y-104688572D01*
X85580453Y-104533700D01*
X85673585Y-104394319D01*
X85792119Y-104275785D01*
X85931500Y-104182653D01*
X86086372Y-104118503D01*
X86250784Y-104085800D01*
X86418416Y-104085800D01*
X86582828Y-104118503D01*
X86582828Y-104118503D01*
G37*
G36*
X128187228Y-103506703D02*
G01*
X128342100Y-103570853D01*
X128481481Y-103663985D01*
X128600015Y-103782519D01*
X128693147Y-103921900D01*
X128757297Y-104076772D01*
X128790000Y-104241184D01*
X128790000Y-104408816D01*
X128757297Y-104573228D01*
X128693147Y-104728100D01*
X128600015Y-104867481D01*
X128481481Y-104986015D01*
X128342100Y-105079147D01*
X128187228Y-105143297D01*
X128022816Y-105176000D01*
X127855184Y-105176000D01*
X127690772Y-105143297D01*
X127535900Y-105079147D01*
X127396519Y-104986015D01*
X127277985Y-104867481D01*
X127184853Y-104728100D01*
X127120703Y-104573228D01*
X127088000Y-104408816D01*
X127088000Y-104241184D01*
X127120703Y-104076772D01*
X127184853Y-103921900D01*
X127277985Y-103782519D01*
X127396519Y-103663985D01*
X127535900Y-103570853D01*
X127690772Y-103506703D01*
X127855184Y-103474000D01*
X128022816Y-103474000D01*
X128187228Y-103506703D01*
X128187228Y-103506703D01*
G37*
G36*
X117091228Y-103506703D02*
G01*
X117246100Y-103570853D01*
X117385481Y-103663985D01*
X117504015Y-103782519D01*
X117597147Y-103921900D01*
X117661297Y-104076772D01*
X117694000Y-104241184D01*
X117694000Y-104408816D01*
X117661297Y-104573228D01*
X117597147Y-104728100D01*
X117504015Y-104867481D01*
X117385481Y-104986015D01*
X117246100Y-105079147D01*
X117091228Y-105143297D01*
X116926816Y-105176000D01*
X116759184Y-105176000D01*
X116594772Y-105143297D01*
X116439900Y-105079147D01*
X116300519Y-104986015D01*
X116181985Y-104867481D01*
X116088853Y-104728100D01*
X116024703Y-104573228D01*
X115992000Y-104408816D01*
X115992000Y-104241184D01*
X116024703Y-104076772D01*
X116088853Y-103921900D01*
X116181985Y-103782519D01*
X116300519Y-103663985D01*
X116439900Y-103570853D01*
X116594772Y-103506703D01*
X116759184Y-103474000D01*
X116926816Y-103474000D01*
X117091228Y-103506703D01*
X117091228Y-103506703D01*
G37*
G36*
X133187228Y-103506703D02*
G01*
X133342100Y-103570853D01*
X133481481Y-103663985D01*
X133600015Y-103782519D01*
X133693147Y-103921900D01*
X133757297Y-104076772D01*
X133790000Y-104241184D01*
X133790000Y-104408816D01*
X133757297Y-104573228D01*
X133693147Y-104728100D01*
X133600015Y-104867481D01*
X133481481Y-104986015D01*
X133342100Y-105079147D01*
X133187228Y-105143297D01*
X133022816Y-105176000D01*
X132855184Y-105176000D01*
X132690772Y-105143297D01*
X132535900Y-105079147D01*
X132396519Y-104986015D01*
X132277985Y-104867481D01*
X132184853Y-104728100D01*
X132120703Y-104573228D01*
X132088000Y-104408816D01*
X132088000Y-104241184D01*
X132120703Y-104076772D01*
X132184853Y-103921900D01*
X132277985Y-103782519D01*
X132396519Y-103663985D01*
X132535900Y-103570853D01*
X132690772Y-103506703D01*
X132855184Y-103474000D01*
X133022816Y-103474000D01*
X133187228Y-103506703D01*
X133187228Y-103506703D01*
G37*
G36*
X119591228Y-103506703D02*
G01*
X119746100Y-103570853D01*
X119885481Y-103663985D01*
X120004015Y-103782519D01*
X120097147Y-103921900D01*
X120161297Y-104076772D01*
X120194000Y-104241184D01*
X120194000Y-104408816D01*
X120161297Y-104573228D01*
X120097147Y-104728100D01*
X120004015Y-104867481D01*
X119885481Y-104986015D01*
X119746100Y-105079147D01*
X119591228Y-105143297D01*
X119426816Y-105176000D01*
X119259184Y-105176000D01*
X119094772Y-105143297D01*
X118939900Y-105079147D01*
X118800519Y-104986015D01*
X118681985Y-104867481D01*
X118588853Y-104728100D01*
X118524703Y-104573228D01*
X118492000Y-104408816D01*
X118492000Y-104241184D01*
X118524703Y-104076772D01*
X118588853Y-103921900D01*
X118681985Y-103782519D01*
X118800519Y-103663985D01*
X118939900Y-103570853D01*
X119094772Y-103506703D01*
X119259184Y-103474000D01*
X119426816Y-103474000D01*
X119591228Y-103506703D01*
X119591228Y-103506703D01*
G37*
G36*
X86582828Y-99118503D02*
G01*
X86737700Y-99182653D01*
X86877081Y-99275785D01*
X86995615Y-99394319D01*
X87088747Y-99533700D01*
X87152897Y-99688572D01*
X87185600Y-99852984D01*
X87185600Y-100020616D01*
X87152897Y-100185028D01*
X87088747Y-100339900D01*
X86995615Y-100479281D01*
X86877081Y-100597815D01*
X86737700Y-100690947D01*
X86582828Y-100755097D01*
X86418416Y-100787800D01*
X86250784Y-100787800D01*
X86086372Y-100755097D01*
X85931500Y-100690947D01*
X85792119Y-100597815D01*
X85673585Y-100479281D01*
X85580453Y-100339900D01*
X85516303Y-100185028D01*
X85483600Y-100020616D01*
X85483600Y-99852984D01*
X85516303Y-99688572D01*
X85580453Y-99533700D01*
X85673585Y-99394319D01*
X85792119Y-99275785D01*
X85931500Y-99182653D01*
X86086372Y-99118503D01*
X86250784Y-99085800D01*
X86418416Y-99085800D01*
X86582828Y-99118503D01*
X86582828Y-99118503D01*
G37*
G36*
X53461228Y-99118003D02*
G01*
X53616100Y-99182153D01*
X53755481Y-99275285D01*
X53874015Y-99393819D01*
X53967147Y-99533200D01*
X54031297Y-99688072D01*
X54064000Y-99852484D01*
X54064000Y-100020116D01*
X54031297Y-100184528D01*
X53967147Y-100339400D01*
X53874015Y-100478781D01*
X53755481Y-100597315D01*
X53616100Y-100690447D01*
X53461228Y-100754597D01*
X53296816Y-100787300D01*
X53129184Y-100787300D01*
X52964772Y-100754597D01*
X52809900Y-100690447D01*
X52670519Y-100597315D01*
X52551985Y-100478781D01*
X52458853Y-100339400D01*
X52394703Y-100184528D01*
X52362000Y-100020116D01*
X52362000Y-99852484D01*
X52394703Y-99688072D01*
X52458853Y-99533200D01*
X52551985Y-99393819D01*
X52670519Y-99275285D01*
X52809900Y-99182153D01*
X52964772Y-99118003D01*
X53129184Y-99085300D01*
X53296816Y-99085300D01*
X53461228Y-99118003D01*
X53461228Y-99118003D01*
G37*
G36*
X45759823Y-99097613D02*
G01*
X45920242Y-99146276D01*
X46052906Y-99217186D01*
X46068078Y-99225296D01*
X46197659Y-99331641D01*
X46304004Y-99461222D01*
X46304005Y-99461224D01*
X46383024Y-99609058D01*
X46431687Y-99769477D01*
X46448117Y-99936300D01*
X46431687Y-100103123D01*
X46383024Y-100263542D01*
X46342477Y-100339400D01*
X46304004Y-100411378D01*
X46197659Y-100540959D01*
X46068078Y-100647304D01*
X46068076Y-100647305D01*
X45920242Y-100726324D01*
X45759823Y-100774987D01*
X45634804Y-100787300D01*
X45551196Y-100787300D01*
X45426177Y-100774987D01*
X45265758Y-100726324D01*
X45117924Y-100647305D01*
X45117922Y-100647304D01*
X44988341Y-100540959D01*
X44881996Y-100411378D01*
X44843523Y-100339400D01*
X44802976Y-100263542D01*
X44754313Y-100103123D01*
X44737883Y-99936300D01*
X44754313Y-99769477D01*
X44802976Y-99609058D01*
X44881995Y-99461224D01*
X44881996Y-99461222D01*
X44988341Y-99331641D01*
X45117922Y-99225296D01*
X45133094Y-99217186D01*
X45265758Y-99146276D01*
X45426177Y-99097613D01*
X45551196Y-99085300D01*
X45634804Y-99085300D01*
X45759823Y-99097613D01*
X45759823Y-99097613D01*
G37*
G36*
X133259719Y-96179520D02*
G01*
X133448880Y-96236901D01*
X133448883Y-96236902D01*
X133541333Y-96286318D01*
X133623212Y-96330083D01*
X133776015Y-96455485D01*
X133901417Y-96608288D01*
X133994599Y-96782619D01*
X134051980Y-96971780D01*
X134066500Y-97119206D01*
X134066500Y-97312793D01*
X134051980Y-97460219D01*
X133994599Y-97649380D01*
X133994598Y-97649383D01*
X133983043Y-97671000D01*
X133901417Y-97823712D01*
X133776015Y-97976515D01*
X133623212Y-98101917D01*
X133448881Y-98195099D01*
X133259720Y-98252480D01*
X133063000Y-98271855D01*
X132866281Y-98252480D01*
X132677120Y-98195099D01*
X132502788Y-98101917D01*
X132349985Y-97976515D01*
X132224583Y-97823712D01*
X132131401Y-97649381D01*
X132074020Y-97460220D01*
X132059500Y-97312794D01*
X132059500Y-97119207D01*
X132074020Y-96971781D01*
X132131401Y-96782620D01*
X132131402Y-96782617D01*
X132195960Y-96661839D01*
X132224583Y-96608288D01*
X132349985Y-96455485D01*
X132502788Y-96330083D01*
X132677119Y-96236901D01*
X132866280Y-96179520D01*
X133063000Y-96160145D01*
X133259719Y-96179520D01*
X133259719Y-96179520D01*
G37*
G36*
X135799719Y-96179520D02*
G01*
X135988880Y-96236901D01*
X135988883Y-96236902D01*
X136081333Y-96286318D01*
X136163212Y-96330083D01*
X136316015Y-96455485D01*
X136441417Y-96608288D01*
X136534599Y-96782619D01*
X136591980Y-96971780D01*
X136606500Y-97119206D01*
X136606500Y-97312793D01*
X136591980Y-97460219D01*
X136534599Y-97649380D01*
X136534598Y-97649383D01*
X136523043Y-97671000D01*
X136441417Y-97823712D01*
X136316015Y-97976515D01*
X136163212Y-98101917D01*
X135988881Y-98195099D01*
X135799720Y-98252480D01*
X135603000Y-98271855D01*
X135406281Y-98252480D01*
X135217120Y-98195099D01*
X135042788Y-98101917D01*
X134889985Y-97976515D01*
X134764583Y-97823712D01*
X134671401Y-97649381D01*
X134614020Y-97460220D01*
X134599500Y-97312794D01*
X134599500Y-97119207D01*
X134614020Y-96971781D01*
X134671401Y-96782620D01*
X134671402Y-96782617D01*
X134735960Y-96661839D01*
X134764583Y-96608288D01*
X134889985Y-96455485D01*
X135042788Y-96330083D01*
X135217119Y-96236901D01*
X135406280Y-96179520D01*
X135603000Y-96160145D01*
X135799719Y-96179520D01*
X135799719Y-96179520D01*
G37*
G36*
X131526500Y-98267000D02*
G01*
X129519500Y-98267000D01*
X129519500Y-96165000D01*
X131526500Y-96165000D01*
X131526500Y-98267000D01*
X131526500Y-98267000D01*
G37*
G36*
X46947200Y-97671000D02*
G01*
X44645200Y-97671000D01*
X44645200Y-95369000D01*
X46947200Y-95369000D01*
X46947200Y-97671000D01*
X46947200Y-97671000D01*
G37*
G36*
X96661423Y-95495913D02*
G01*
X96821842Y-95544576D01*
X96888961Y-95580452D01*
X96969678Y-95623596D01*
X97099259Y-95729941D01*
X97205604Y-95859522D01*
X97205605Y-95859524D01*
X97284624Y-96007358D01*
X97333287Y-96167777D01*
X97349717Y-96334600D01*
X97333287Y-96501423D01*
X97284624Y-96661842D01*
X97244077Y-96737700D01*
X97205604Y-96809678D01*
X97099259Y-96939259D01*
X96969678Y-97045604D01*
X96969676Y-97045605D01*
X96821842Y-97124624D01*
X96661423Y-97173287D01*
X96536404Y-97185600D01*
X96452796Y-97185600D01*
X96327777Y-97173287D01*
X96167358Y-97124624D01*
X96019524Y-97045605D01*
X96019522Y-97045604D01*
X95889941Y-96939259D01*
X95783596Y-96809678D01*
X95745123Y-96737700D01*
X95704576Y-96661842D01*
X95655913Y-96501423D01*
X95639483Y-96334600D01*
X95655913Y-96167777D01*
X95704576Y-96007358D01*
X95783595Y-95859524D01*
X95783596Y-95859522D01*
X95889941Y-95729941D01*
X96019522Y-95623596D01*
X96100239Y-95580452D01*
X96167358Y-95544576D01*
X96327777Y-95495913D01*
X96452796Y-95483600D01*
X96536404Y-95483600D01*
X96661423Y-95495913D01*
X96661423Y-95495913D01*
G37*
G36*
X66181423Y-95495913D02*
G01*
X66341842Y-95544576D01*
X66408961Y-95580452D01*
X66489678Y-95623596D01*
X66619259Y-95729941D01*
X66725604Y-95859522D01*
X66725605Y-95859524D01*
X66804624Y-96007358D01*
X66853287Y-96167777D01*
X66869717Y-96334600D01*
X66853287Y-96501423D01*
X66804624Y-96661842D01*
X66764077Y-96737700D01*
X66725604Y-96809678D01*
X66619259Y-96939259D01*
X66489678Y-97045604D01*
X66489676Y-97045605D01*
X66341842Y-97124624D01*
X66181423Y-97173287D01*
X66056404Y-97185600D01*
X65972796Y-97185600D01*
X65847777Y-97173287D01*
X65687358Y-97124624D01*
X65539524Y-97045605D01*
X65539522Y-97045604D01*
X65409941Y-96939259D01*
X65303596Y-96809678D01*
X65265123Y-96737700D01*
X65224576Y-96661842D01*
X65175913Y-96501423D01*
X65159483Y-96334600D01*
X65175913Y-96167777D01*
X65224576Y-96007358D01*
X65303595Y-95859524D01*
X65303596Y-95859522D01*
X65409941Y-95729941D01*
X65539522Y-95623596D01*
X65620239Y-95580452D01*
X65687358Y-95544576D01*
X65847777Y-95495913D01*
X65972796Y-95483600D01*
X66056404Y-95483600D01*
X66181423Y-95495913D01*
X66181423Y-95495913D01*
G37*
G36*
X68721423Y-95495913D02*
G01*
X68881842Y-95544576D01*
X68948961Y-95580452D01*
X69029678Y-95623596D01*
X69159259Y-95729941D01*
X69265604Y-95859522D01*
X69265605Y-95859524D01*
X69344624Y-96007358D01*
X69393287Y-96167777D01*
X69409717Y-96334600D01*
X69393287Y-96501423D01*
X69344624Y-96661842D01*
X69304077Y-96737700D01*
X69265604Y-96809678D01*
X69159259Y-96939259D01*
X69029678Y-97045604D01*
X69029676Y-97045605D01*
X68881842Y-97124624D01*
X68721423Y-97173287D01*
X68596404Y-97185600D01*
X68512796Y-97185600D01*
X68387777Y-97173287D01*
X68227358Y-97124624D01*
X68079524Y-97045605D01*
X68079522Y-97045604D01*
X67949941Y-96939259D01*
X67843596Y-96809678D01*
X67805123Y-96737700D01*
X67764576Y-96661842D01*
X67715913Y-96501423D01*
X67699483Y-96334600D01*
X67715913Y-96167777D01*
X67764576Y-96007358D01*
X67843595Y-95859524D01*
X67843596Y-95859522D01*
X67949941Y-95729941D01*
X68079522Y-95623596D01*
X68160239Y-95580452D01*
X68227358Y-95544576D01*
X68387777Y-95495913D01*
X68512796Y-95483600D01*
X68596404Y-95483600D01*
X68721423Y-95495913D01*
X68721423Y-95495913D01*
G37*
G36*
X71261423Y-95495913D02*
G01*
X71421842Y-95544576D01*
X71488961Y-95580452D01*
X71569678Y-95623596D01*
X71699259Y-95729941D01*
X71805604Y-95859522D01*
X71805605Y-95859524D01*
X71884624Y-96007358D01*
X71933287Y-96167777D01*
X71949717Y-96334600D01*
X71933287Y-96501423D01*
X71884624Y-96661842D01*
X71844077Y-96737700D01*
X71805604Y-96809678D01*
X71699259Y-96939259D01*
X71569678Y-97045604D01*
X71569676Y-97045605D01*
X71421842Y-97124624D01*
X71261423Y-97173287D01*
X71136404Y-97185600D01*
X71052796Y-97185600D01*
X70927777Y-97173287D01*
X70767358Y-97124624D01*
X70619524Y-97045605D01*
X70619522Y-97045604D01*
X70489941Y-96939259D01*
X70383596Y-96809678D01*
X70345123Y-96737700D01*
X70304576Y-96661842D01*
X70255913Y-96501423D01*
X70239483Y-96334600D01*
X70255913Y-96167777D01*
X70304576Y-96007358D01*
X70383595Y-95859524D01*
X70383596Y-95859522D01*
X70489941Y-95729941D01*
X70619522Y-95623596D01*
X70700239Y-95580452D01*
X70767358Y-95544576D01*
X70927777Y-95495913D01*
X71052796Y-95483600D01*
X71136404Y-95483600D01*
X71261423Y-95495913D01*
X71261423Y-95495913D01*
G37*
G36*
X73801423Y-95495913D02*
G01*
X73961842Y-95544576D01*
X74028961Y-95580452D01*
X74109678Y-95623596D01*
X74239259Y-95729941D01*
X74345604Y-95859522D01*
X74345605Y-95859524D01*
X74424624Y-96007358D01*
X74473287Y-96167777D01*
X74489717Y-96334600D01*
X74473287Y-96501423D01*
X74424624Y-96661842D01*
X74384077Y-96737700D01*
X74345604Y-96809678D01*
X74239259Y-96939259D01*
X74109678Y-97045604D01*
X74109676Y-97045605D01*
X73961842Y-97124624D01*
X73801423Y-97173287D01*
X73676404Y-97185600D01*
X73592796Y-97185600D01*
X73467777Y-97173287D01*
X73307358Y-97124624D01*
X73159524Y-97045605D01*
X73159522Y-97045604D01*
X73029941Y-96939259D01*
X72923596Y-96809678D01*
X72885123Y-96737700D01*
X72844576Y-96661842D01*
X72795913Y-96501423D01*
X72779483Y-96334600D01*
X72795913Y-96167777D01*
X72844576Y-96007358D01*
X72923595Y-95859524D01*
X72923596Y-95859522D01*
X73029941Y-95729941D01*
X73159522Y-95623596D01*
X73240239Y-95580452D01*
X73307358Y-95544576D01*
X73467777Y-95495913D01*
X73592796Y-95483600D01*
X73676404Y-95483600D01*
X73801423Y-95495913D01*
X73801423Y-95495913D01*
G37*
G36*
X76341423Y-95495913D02*
G01*
X76501842Y-95544576D01*
X76568961Y-95580452D01*
X76649678Y-95623596D01*
X76779259Y-95729941D01*
X76885604Y-95859522D01*
X76885605Y-95859524D01*
X76964624Y-96007358D01*
X77013287Y-96167777D01*
X77029717Y-96334600D01*
X77013287Y-96501423D01*
X76964624Y-96661842D01*
X76924077Y-96737700D01*
X76885604Y-96809678D01*
X76779259Y-96939259D01*
X76649678Y-97045604D01*
X76649676Y-97045605D01*
X76501842Y-97124624D01*
X76341423Y-97173287D01*
X76216404Y-97185600D01*
X76132796Y-97185600D01*
X76007777Y-97173287D01*
X75847358Y-97124624D01*
X75699524Y-97045605D01*
X75699522Y-97045604D01*
X75569941Y-96939259D01*
X75463596Y-96809678D01*
X75425123Y-96737700D01*
X75384576Y-96661842D01*
X75335913Y-96501423D01*
X75319483Y-96334600D01*
X75335913Y-96167777D01*
X75384576Y-96007358D01*
X75463595Y-95859524D01*
X75463596Y-95859522D01*
X75569941Y-95729941D01*
X75699522Y-95623596D01*
X75780239Y-95580452D01*
X75847358Y-95544576D01*
X76007777Y-95495913D01*
X76132796Y-95483600D01*
X76216404Y-95483600D01*
X76341423Y-95495913D01*
X76341423Y-95495913D01*
G37*
G36*
X78881423Y-95495913D02*
G01*
X79041842Y-95544576D01*
X79108961Y-95580452D01*
X79189678Y-95623596D01*
X79319259Y-95729941D01*
X79425604Y-95859522D01*
X79425605Y-95859524D01*
X79504624Y-96007358D01*
X79553287Y-96167777D01*
X79569717Y-96334600D01*
X79553287Y-96501423D01*
X79504624Y-96661842D01*
X79464077Y-96737700D01*
X79425604Y-96809678D01*
X79319259Y-96939259D01*
X79189678Y-97045604D01*
X79189676Y-97045605D01*
X79041842Y-97124624D01*
X78881423Y-97173287D01*
X78756404Y-97185600D01*
X78672796Y-97185600D01*
X78547777Y-97173287D01*
X78387358Y-97124624D01*
X78239524Y-97045605D01*
X78239522Y-97045604D01*
X78109941Y-96939259D01*
X78003596Y-96809678D01*
X77965123Y-96737700D01*
X77924576Y-96661842D01*
X77875913Y-96501423D01*
X77859483Y-96334600D01*
X77875913Y-96167777D01*
X77924576Y-96007358D01*
X78003595Y-95859524D01*
X78003596Y-95859522D01*
X78109941Y-95729941D01*
X78239522Y-95623596D01*
X78320239Y-95580452D01*
X78387358Y-95544576D01*
X78547777Y-95495913D01*
X78672796Y-95483600D01*
X78756404Y-95483600D01*
X78881423Y-95495913D01*
X78881423Y-95495913D01*
G37*
G36*
X81421423Y-95495913D02*
G01*
X81581842Y-95544576D01*
X81648961Y-95580452D01*
X81729678Y-95623596D01*
X81859259Y-95729941D01*
X81965604Y-95859522D01*
X81965605Y-95859524D01*
X82044624Y-96007358D01*
X82093287Y-96167777D01*
X82109717Y-96334600D01*
X82093287Y-96501423D01*
X82044624Y-96661842D01*
X82004077Y-96737700D01*
X81965604Y-96809678D01*
X81859259Y-96939259D01*
X81729678Y-97045604D01*
X81729676Y-97045605D01*
X81581842Y-97124624D01*
X81421423Y-97173287D01*
X81296404Y-97185600D01*
X81212796Y-97185600D01*
X81087777Y-97173287D01*
X80927358Y-97124624D01*
X80779524Y-97045605D01*
X80779522Y-97045604D01*
X80649941Y-96939259D01*
X80543596Y-96809678D01*
X80505123Y-96737700D01*
X80464576Y-96661842D01*
X80415913Y-96501423D01*
X80399483Y-96334600D01*
X80415913Y-96167777D01*
X80464576Y-96007358D01*
X80543595Y-95859524D01*
X80543596Y-95859522D01*
X80649941Y-95729941D01*
X80779522Y-95623596D01*
X80860239Y-95580452D01*
X80927358Y-95544576D01*
X81087777Y-95495913D01*
X81212796Y-95483600D01*
X81296404Y-95483600D01*
X81421423Y-95495913D01*
X81421423Y-95495913D01*
G37*
G36*
X83961423Y-95495913D02*
G01*
X84121842Y-95544576D01*
X84188961Y-95580452D01*
X84269678Y-95623596D01*
X84399259Y-95729941D01*
X84505604Y-95859522D01*
X84505605Y-95859524D01*
X84584624Y-96007358D01*
X84633287Y-96167777D01*
X84649717Y-96334600D01*
X84633287Y-96501423D01*
X84584624Y-96661842D01*
X84544077Y-96737700D01*
X84505604Y-96809678D01*
X84399259Y-96939259D01*
X84269678Y-97045604D01*
X84269676Y-97045605D01*
X84121842Y-97124624D01*
X83961423Y-97173287D01*
X83836404Y-97185600D01*
X83752796Y-97185600D01*
X83627777Y-97173287D01*
X83467358Y-97124624D01*
X83319524Y-97045605D01*
X83319522Y-97045604D01*
X83189941Y-96939259D01*
X83083596Y-96809678D01*
X83045123Y-96737700D01*
X83004576Y-96661842D01*
X82955913Y-96501423D01*
X82939483Y-96334600D01*
X82955913Y-96167777D01*
X83004576Y-96007358D01*
X83083595Y-95859524D01*
X83083596Y-95859522D01*
X83189941Y-95729941D01*
X83319522Y-95623596D01*
X83400239Y-95580452D01*
X83467358Y-95544576D01*
X83627777Y-95495913D01*
X83752796Y-95483600D01*
X83836404Y-95483600D01*
X83961423Y-95495913D01*
X83961423Y-95495913D01*
G37*
G36*
X86501423Y-95495913D02*
G01*
X86661842Y-95544576D01*
X86728961Y-95580452D01*
X86809678Y-95623596D01*
X86939259Y-95729941D01*
X87045604Y-95859522D01*
X87045605Y-95859524D01*
X87124624Y-96007358D01*
X87173287Y-96167777D01*
X87189717Y-96334600D01*
X87173287Y-96501423D01*
X87124624Y-96661842D01*
X87084077Y-96737700D01*
X87045604Y-96809678D01*
X86939259Y-96939259D01*
X86809678Y-97045604D01*
X86809676Y-97045605D01*
X86661842Y-97124624D01*
X86501423Y-97173287D01*
X86376404Y-97185600D01*
X86292796Y-97185600D01*
X86167777Y-97173287D01*
X86007358Y-97124624D01*
X85859524Y-97045605D01*
X85859522Y-97045604D01*
X85729941Y-96939259D01*
X85623596Y-96809678D01*
X85585123Y-96737700D01*
X85544576Y-96661842D01*
X85495913Y-96501423D01*
X85479483Y-96334600D01*
X85495913Y-96167777D01*
X85544576Y-96007358D01*
X85623595Y-95859524D01*
X85623596Y-95859522D01*
X85729941Y-95729941D01*
X85859522Y-95623596D01*
X85940239Y-95580452D01*
X86007358Y-95544576D01*
X86167777Y-95495913D01*
X86292796Y-95483600D01*
X86376404Y-95483600D01*
X86501423Y-95495913D01*
X86501423Y-95495913D01*
G37*
G36*
X89041423Y-95495913D02*
G01*
X89201842Y-95544576D01*
X89268961Y-95580452D01*
X89349678Y-95623596D01*
X89479259Y-95729941D01*
X89585604Y-95859522D01*
X89585605Y-95859524D01*
X89664624Y-96007358D01*
X89713287Y-96167777D01*
X89729717Y-96334600D01*
X89713287Y-96501423D01*
X89664624Y-96661842D01*
X89624077Y-96737700D01*
X89585604Y-96809678D01*
X89479259Y-96939259D01*
X89349678Y-97045604D01*
X89349676Y-97045605D01*
X89201842Y-97124624D01*
X89041423Y-97173287D01*
X88916404Y-97185600D01*
X88832796Y-97185600D01*
X88707777Y-97173287D01*
X88547358Y-97124624D01*
X88399524Y-97045605D01*
X88399522Y-97045604D01*
X88269941Y-96939259D01*
X88163596Y-96809678D01*
X88125123Y-96737700D01*
X88084576Y-96661842D01*
X88035913Y-96501423D01*
X88019483Y-96334600D01*
X88035913Y-96167777D01*
X88084576Y-96007358D01*
X88163595Y-95859524D01*
X88163596Y-95859522D01*
X88269941Y-95729941D01*
X88399522Y-95623596D01*
X88480239Y-95580452D01*
X88547358Y-95544576D01*
X88707777Y-95495913D01*
X88832796Y-95483600D01*
X88916404Y-95483600D01*
X89041423Y-95495913D01*
X89041423Y-95495913D01*
G37*
G36*
X94121423Y-95495913D02*
G01*
X94281842Y-95544576D01*
X94348961Y-95580452D01*
X94429678Y-95623596D01*
X94559259Y-95729941D01*
X94665604Y-95859522D01*
X94665605Y-95859524D01*
X94744624Y-96007358D01*
X94793287Y-96167777D01*
X94809717Y-96334600D01*
X94793287Y-96501423D01*
X94744624Y-96661842D01*
X94704077Y-96737700D01*
X94665604Y-96809678D01*
X94559259Y-96939259D01*
X94429678Y-97045604D01*
X94429676Y-97045605D01*
X94281842Y-97124624D01*
X94121423Y-97173287D01*
X93996404Y-97185600D01*
X93912796Y-97185600D01*
X93787777Y-97173287D01*
X93627358Y-97124624D01*
X93479524Y-97045605D01*
X93479522Y-97045604D01*
X93349941Y-96939259D01*
X93243596Y-96809678D01*
X93205123Y-96737700D01*
X93164576Y-96661842D01*
X93115913Y-96501423D01*
X93099483Y-96334600D01*
X93115913Y-96167777D01*
X93164576Y-96007358D01*
X93243595Y-95859524D01*
X93243596Y-95859522D01*
X93349941Y-95729941D01*
X93479522Y-95623596D01*
X93560239Y-95580452D01*
X93627358Y-95544576D01*
X93787777Y-95495913D01*
X93912796Y-95483600D01*
X93996404Y-95483600D01*
X94121423Y-95495913D01*
X94121423Y-95495913D01*
G37*
G36*
X64325600Y-97185600D02*
G01*
X62623600Y-97185600D01*
X62623600Y-95483600D01*
X64325600Y-95483600D01*
X64325600Y-97185600D01*
X64325600Y-97185600D01*
G37*
G36*
X121364228Y-95516303D02*
G01*
X121519100Y-95580453D01*
X121658481Y-95673585D01*
X121777015Y-95792119D01*
X121870147Y-95931500D01*
X121934297Y-96086372D01*
X121967000Y-96250784D01*
X121967000Y-96418416D01*
X121934297Y-96582828D01*
X121870147Y-96737700D01*
X121777015Y-96877081D01*
X121658481Y-96995615D01*
X121519100Y-97088747D01*
X121364228Y-97152897D01*
X121199816Y-97185600D01*
X121032184Y-97185600D01*
X120867772Y-97152897D01*
X120712900Y-97088747D01*
X120573519Y-96995615D01*
X120454985Y-96877081D01*
X120361853Y-96737700D01*
X120297703Y-96582828D01*
X120265000Y-96418416D01*
X120265000Y-96250784D01*
X120297703Y-96086372D01*
X120361853Y-95931500D01*
X120454985Y-95792119D01*
X120573519Y-95673585D01*
X120712900Y-95580453D01*
X120867772Y-95516303D01*
X121032184Y-95483600D01*
X121199816Y-95483600D01*
X121364228Y-95516303D01*
X121364228Y-95516303D01*
G37*
G36*
X116364228Y-95516303D02*
G01*
X116519100Y-95580453D01*
X116658481Y-95673585D01*
X116777015Y-95792119D01*
X116870147Y-95931500D01*
X116934297Y-96086372D01*
X116967000Y-96250784D01*
X116967000Y-96418416D01*
X116934297Y-96582828D01*
X116870147Y-96737700D01*
X116777015Y-96877081D01*
X116658481Y-96995615D01*
X116519100Y-97088747D01*
X116364228Y-97152897D01*
X116199816Y-97185600D01*
X116032184Y-97185600D01*
X115867772Y-97152897D01*
X115712900Y-97088747D01*
X115573519Y-96995615D01*
X115454985Y-96877081D01*
X115361853Y-96737700D01*
X115297703Y-96582828D01*
X115265000Y-96418416D01*
X115265000Y-96250784D01*
X115297703Y-96086372D01*
X115361853Y-95931500D01*
X115454985Y-95792119D01*
X115573519Y-95673585D01*
X115712900Y-95580453D01*
X115867772Y-95516303D01*
X116032184Y-95483600D01*
X116199816Y-95483600D01*
X116364228Y-95516303D01*
X116364228Y-95516303D01*
G37*
G36*
X111901423Y-95495913D02*
G01*
X112061842Y-95544576D01*
X112128961Y-95580452D01*
X112209678Y-95623596D01*
X112339259Y-95729941D01*
X112445604Y-95859522D01*
X112445605Y-95859524D01*
X112524624Y-96007358D01*
X112573287Y-96167777D01*
X112589717Y-96334600D01*
X112573287Y-96501423D01*
X112524624Y-96661842D01*
X112484077Y-96737700D01*
X112445604Y-96809678D01*
X112339259Y-96939259D01*
X112209678Y-97045604D01*
X112209676Y-97045605D01*
X112061842Y-97124624D01*
X111901423Y-97173287D01*
X111776404Y-97185600D01*
X111692796Y-97185600D01*
X111567777Y-97173287D01*
X111407358Y-97124624D01*
X111259524Y-97045605D01*
X111259522Y-97045604D01*
X111129941Y-96939259D01*
X111023596Y-96809678D01*
X110985123Y-96737700D01*
X110944576Y-96661842D01*
X110895913Y-96501423D01*
X110879483Y-96334600D01*
X110895913Y-96167777D01*
X110944576Y-96007358D01*
X111023595Y-95859524D01*
X111023596Y-95859522D01*
X111129941Y-95729941D01*
X111259522Y-95623596D01*
X111340239Y-95580452D01*
X111407358Y-95544576D01*
X111567777Y-95495913D01*
X111692796Y-95483600D01*
X111776404Y-95483600D01*
X111901423Y-95495913D01*
X111901423Y-95495913D01*
G37*
G36*
X109361423Y-95495913D02*
G01*
X109521842Y-95544576D01*
X109588961Y-95580452D01*
X109669678Y-95623596D01*
X109799259Y-95729941D01*
X109905604Y-95859522D01*
X109905605Y-95859524D01*
X109984624Y-96007358D01*
X110033287Y-96167777D01*
X110049717Y-96334600D01*
X110033287Y-96501423D01*
X109984624Y-96661842D01*
X109944077Y-96737700D01*
X109905604Y-96809678D01*
X109799259Y-96939259D01*
X109669678Y-97045604D01*
X109669676Y-97045605D01*
X109521842Y-97124624D01*
X109361423Y-97173287D01*
X109236404Y-97185600D01*
X109152796Y-97185600D01*
X109027777Y-97173287D01*
X108867358Y-97124624D01*
X108719524Y-97045605D01*
X108719522Y-97045604D01*
X108589941Y-96939259D01*
X108483596Y-96809678D01*
X108445123Y-96737700D01*
X108404576Y-96661842D01*
X108355913Y-96501423D01*
X108339483Y-96334600D01*
X108355913Y-96167777D01*
X108404576Y-96007358D01*
X108483595Y-95859524D01*
X108483596Y-95859522D01*
X108589941Y-95729941D01*
X108719522Y-95623596D01*
X108800239Y-95580452D01*
X108867358Y-95544576D01*
X109027777Y-95495913D01*
X109152796Y-95483600D01*
X109236404Y-95483600D01*
X109361423Y-95495913D01*
X109361423Y-95495913D01*
G37*
G36*
X106821423Y-95495913D02*
G01*
X106981842Y-95544576D01*
X107048961Y-95580452D01*
X107129678Y-95623596D01*
X107259259Y-95729941D01*
X107365604Y-95859522D01*
X107365605Y-95859524D01*
X107444624Y-96007358D01*
X107493287Y-96167777D01*
X107509717Y-96334600D01*
X107493287Y-96501423D01*
X107444624Y-96661842D01*
X107404077Y-96737700D01*
X107365604Y-96809678D01*
X107259259Y-96939259D01*
X107129678Y-97045604D01*
X107129676Y-97045605D01*
X106981842Y-97124624D01*
X106821423Y-97173287D01*
X106696404Y-97185600D01*
X106612796Y-97185600D01*
X106487777Y-97173287D01*
X106327358Y-97124624D01*
X106179524Y-97045605D01*
X106179522Y-97045604D01*
X106049941Y-96939259D01*
X105943596Y-96809678D01*
X105905123Y-96737700D01*
X105864576Y-96661842D01*
X105815913Y-96501423D01*
X105799483Y-96334600D01*
X105815913Y-96167777D01*
X105864576Y-96007358D01*
X105943595Y-95859524D01*
X105943596Y-95859522D01*
X106049941Y-95729941D01*
X106179522Y-95623596D01*
X106260239Y-95580452D01*
X106327358Y-95544576D01*
X106487777Y-95495913D01*
X106612796Y-95483600D01*
X106696404Y-95483600D01*
X106821423Y-95495913D01*
X106821423Y-95495913D01*
G37*
G36*
X104281423Y-95495913D02*
G01*
X104441842Y-95544576D01*
X104508961Y-95580452D01*
X104589678Y-95623596D01*
X104719259Y-95729941D01*
X104825604Y-95859522D01*
X104825605Y-95859524D01*
X104904624Y-96007358D01*
X104953287Y-96167777D01*
X104969717Y-96334600D01*
X104953287Y-96501423D01*
X104904624Y-96661842D01*
X104864077Y-96737700D01*
X104825604Y-96809678D01*
X104719259Y-96939259D01*
X104589678Y-97045604D01*
X104589676Y-97045605D01*
X104441842Y-97124624D01*
X104281423Y-97173287D01*
X104156404Y-97185600D01*
X104072796Y-97185600D01*
X103947777Y-97173287D01*
X103787358Y-97124624D01*
X103639524Y-97045605D01*
X103639522Y-97045604D01*
X103509941Y-96939259D01*
X103403596Y-96809678D01*
X103365123Y-96737700D01*
X103324576Y-96661842D01*
X103275913Y-96501423D01*
X103259483Y-96334600D01*
X103275913Y-96167777D01*
X103324576Y-96007358D01*
X103403595Y-95859524D01*
X103403596Y-95859522D01*
X103509941Y-95729941D01*
X103639522Y-95623596D01*
X103720239Y-95580452D01*
X103787358Y-95544576D01*
X103947777Y-95495913D01*
X104072796Y-95483600D01*
X104156404Y-95483600D01*
X104281423Y-95495913D01*
X104281423Y-95495913D01*
G37*
G36*
X101741423Y-95495913D02*
G01*
X101901842Y-95544576D01*
X101968961Y-95580452D01*
X102049678Y-95623596D01*
X102179259Y-95729941D01*
X102285604Y-95859522D01*
X102285605Y-95859524D01*
X102364624Y-96007358D01*
X102413287Y-96167777D01*
X102429717Y-96334600D01*
X102413287Y-96501423D01*
X102364624Y-96661842D01*
X102324077Y-96737700D01*
X102285604Y-96809678D01*
X102179259Y-96939259D01*
X102049678Y-97045604D01*
X102049676Y-97045605D01*
X101901842Y-97124624D01*
X101741423Y-97173287D01*
X101616404Y-97185600D01*
X101532796Y-97185600D01*
X101407777Y-97173287D01*
X101247358Y-97124624D01*
X101099524Y-97045605D01*
X101099522Y-97045604D01*
X100969941Y-96939259D01*
X100863596Y-96809678D01*
X100825123Y-96737700D01*
X100784576Y-96661842D01*
X100735913Y-96501423D01*
X100719483Y-96334600D01*
X100735913Y-96167777D01*
X100784576Y-96007358D01*
X100863595Y-95859524D01*
X100863596Y-95859522D01*
X100969941Y-95729941D01*
X101099522Y-95623596D01*
X101180239Y-95580452D01*
X101247358Y-95544576D01*
X101407777Y-95495913D01*
X101532796Y-95483600D01*
X101616404Y-95483600D01*
X101741423Y-95495913D01*
X101741423Y-95495913D01*
G37*
G36*
X99201423Y-95495913D02*
G01*
X99361842Y-95544576D01*
X99428961Y-95580452D01*
X99509678Y-95623596D01*
X99639259Y-95729941D01*
X99745604Y-95859522D01*
X99745605Y-95859524D01*
X99824624Y-96007358D01*
X99873287Y-96167777D01*
X99889717Y-96334600D01*
X99873287Y-96501423D01*
X99824624Y-96661842D01*
X99784077Y-96737700D01*
X99745604Y-96809678D01*
X99639259Y-96939259D01*
X99509678Y-97045604D01*
X99509676Y-97045605D01*
X99361842Y-97124624D01*
X99201423Y-97173287D01*
X99076404Y-97185600D01*
X98992796Y-97185600D01*
X98867777Y-97173287D01*
X98707358Y-97124624D01*
X98559524Y-97045605D01*
X98559522Y-97045604D01*
X98429941Y-96939259D01*
X98323596Y-96809678D01*
X98285123Y-96737700D01*
X98244576Y-96661842D01*
X98195913Y-96501423D01*
X98179483Y-96334600D01*
X98195913Y-96167777D01*
X98244576Y-96007358D01*
X98323595Y-95859524D01*
X98323596Y-95859522D01*
X98429941Y-95729941D01*
X98559522Y-95623596D01*
X98640239Y-95580452D01*
X98707358Y-95544576D01*
X98867777Y-95495913D01*
X98992796Y-95483600D01*
X99076404Y-95483600D01*
X99201423Y-95495913D01*
X99201423Y-95495913D01*
G37*
G36*
X91581423Y-95495913D02*
G01*
X91741842Y-95544576D01*
X91808961Y-95580452D01*
X91889678Y-95623596D01*
X92019259Y-95729941D01*
X92125604Y-95859522D01*
X92125605Y-95859524D01*
X92204624Y-96007358D01*
X92253287Y-96167777D01*
X92269717Y-96334600D01*
X92253287Y-96501423D01*
X92204624Y-96661842D01*
X92164077Y-96737700D01*
X92125604Y-96809678D01*
X92019259Y-96939259D01*
X91889678Y-97045604D01*
X91889676Y-97045605D01*
X91741842Y-97124624D01*
X91581423Y-97173287D01*
X91456404Y-97185600D01*
X91372796Y-97185600D01*
X91247777Y-97173287D01*
X91087358Y-97124624D01*
X90939524Y-97045605D01*
X90939522Y-97045604D01*
X90809941Y-96939259D01*
X90703596Y-96809678D01*
X90665123Y-96737700D01*
X90624576Y-96661842D01*
X90575913Y-96501423D01*
X90559483Y-96334600D01*
X90575913Y-96167777D01*
X90624576Y-96007358D01*
X90703595Y-95859524D01*
X90703596Y-95859522D01*
X90809941Y-95729941D01*
X90939522Y-95623596D01*
X91020239Y-95580452D01*
X91087358Y-95544576D01*
X91247777Y-95495913D01*
X91372796Y-95483600D01*
X91456404Y-95483600D01*
X91581423Y-95495913D01*
X91581423Y-95495913D01*
G37*
G36*
X118729512Y-90268527D02*
G01*
X118878812Y-90298224D01*
X119042784Y-90366144D01*
X119190354Y-90464747D01*
X119315853Y-90590246D01*
X119414456Y-90737816D01*
X119482376Y-90901788D01*
X119517000Y-91075859D01*
X119517000Y-91253341D01*
X119482376Y-91427412D01*
X119414456Y-91591384D01*
X119315853Y-91738954D01*
X119190354Y-91864453D01*
X119042784Y-91963056D01*
X118878812Y-92030976D01*
X118729512Y-92060673D01*
X118704742Y-92065600D01*
X118527258Y-92065600D01*
X118502488Y-92060673D01*
X118353188Y-92030976D01*
X118189216Y-91963056D01*
X118041646Y-91864453D01*
X117916147Y-91738954D01*
X117817544Y-91591384D01*
X117749624Y-91427412D01*
X117715000Y-91253341D01*
X117715000Y-91075859D01*
X117749624Y-90901788D01*
X117817544Y-90737816D01*
X117916147Y-90590246D01*
X118041646Y-90464747D01*
X118189216Y-90366144D01*
X118353188Y-90298224D01*
X118502488Y-90268527D01*
X118527258Y-90263600D01*
X118704742Y-90263600D01*
X118729512Y-90268527D01*
X118729512Y-90268527D01*
G37*
G36*
X118729512Y-85268527D02*
G01*
X118878812Y-85298224D01*
X119042784Y-85366144D01*
X119190354Y-85464747D01*
X119315853Y-85590246D01*
X119414456Y-85737816D01*
X119482376Y-85901788D01*
X119517000Y-86075859D01*
X119517000Y-86253341D01*
X119482376Y-86427412D01*
X119414456Y-86591384D01*
X119315853Y-86738954D01*
X119190354Y-86864453D01*
X119042784Y-86963056D01*
X118878812Y-87030976D01*
X118729512Y-87060673D01*
X118704742Y-87065600D01*
X118527258Y-87065600D01*
X118502488Y-87060673D01*
X118353188Y-87030976D01*
X118189216Y-86963056D01*
X118041646Y-86864453D01*
X117916147Y-86738954D01*
X117817544Y-86591384D01*
X117749624Y-86427412D01*
X117715000Y-86253341D01*
X117715000Y-86075859D01*
X117749624Y-85901788D01*
X117817544Y-85737816D01*
X117916147Y-85590246D01*
X118041646Y-85464747D01*
X118189216Y-85366144D01*
X118353188Y-85298224D01*
X118502488Y-85268527D01*
X118527258Y-85263600D01*
X118704742Y-85263600D01*
X118729512Y-85268527D01*
X118729512Y-85268527D01*
G37*
G36*
X133239669Y-78763686D02*
G01*
X133416058Y-78781059D01*
X133755548Y-78884042D01*
X133755550Y-78884043D01*
X134068422Y-79051277D01*
X134342661Y-79276339D01*
X134567723Y-79550578D01*
X134724063Y-79843069D01*
X134734958Y-79863452D01*
X134837941Y-80202942D01*
X134872714Y-80556000D01*
X134837941Y-80909058D01*
X134756232Y-81178416D01*
X134734957Y-81248550D01*
X134567723Y-81561422D01*
X134342661Y-81835661D01*
X134068422Y-82060723D01*
X133755550Y-82227957D01*
X133755548Y-82227958D01*
X133416058Y-82330941D01*
X133239669Y-82348314D01*
X133151476Y-82357000D01*
X132974524Y-82357000D01*
X132886331Y-82348314D01*
X132709942Y-82330941D01*
X132370452Y-82227958D01*
X132370450Y-82227957D01*
X132057578Y-82060723D01*
X131783339Y-81835661D01*
X131558277Y-81561422D01*
X131391043Y-81248550D01*
X131369768Y-81178416D01*
X131288059Y-80909058D01*
X131253286Y-80556000D01*
X131288059Y-80202942D01*
X131391042Y-79863452D01*
X131401937Y-79843069D01*
X131558277Y-79550578D01*
X131783339Y-79276339D01*
X132057578Y-79051277D01*
X132370450Y-78884043D01*
X132370452Y-78884042D01*
X132709942Y-78781059D01*
X132886331Y-78763686D01*
X132974524Y-78755000D01*
X133151476Y-78755000D01*
X133239669Y-78763686D01*
X133239669Y-78763686D01*
G37*
G36*
X83961423Y-80255913D02*
G01*
X84121842Y-80304576D01*
X84188961Y-80340452D01*
X84269678Y-80383596D01*
X84399259Y-80489941D01*
X84505604Y-80619522D01*
X84505605Y-80619524D01*
X84584624Y-80767358D01*
X84633287Y-80927777D01*
X84649717Y-81094600D01*
X84633287Y-81261423D01*
X84584624Y-81421842D01*
X84544077Y-81497700D01*
X84505604Y-81569678D01*
X84399259Y-81699259D01*
X84269678Y-81805604D01*
X84269676Y-81805605D01*
X84121842Y-81884624D01*
X83961423Y-81933287D01*
X83836404Y-81945600D01*
X83752796Y-81945600D01*
X83627777Y-81933287D01*
X83467358Y-81884624D01*
X83319524Y-81805605D01*
X83319522Y-81805604D01*
X83189941Y-81699259D01*
X83083596Y-81569678D01*
X83045123Y-81497700D01*
X83004576Y-81421842D01*
X82955913Y-81261423D01*
X82939483Y-81094600D01*
X82955913Y-80927777D01*
X83004576Y-80767358D01*
X83083595Y-80619524D01*
X83083596Y-80619522D01*
X83189941Y-80489941D01*
X83319522Y-80383596D01*
X83400239Y-80340452D01*
X83467358Y-80304576D01*
X83627777Y-80255913D01*
X83752796Y-80243600D01*
X83836404Y-80243600D01*
X83961423Y-80255913D01*
X83961423Y-80255913D01*
G37*
G36*
X81421423Y-80255913D02*
G01*
X81581842Y-80304576D01*
X81648961Y-80340452D01*
X81729678Y-80383596D01*
X81859259Y-80489941D01*
X81965604Y-80619522D01*
X81965605Y-80619524D01*
X82044624Y-80767358D01*
X82093287Y-80927777D01*
X82109717Y-81094600D01*
X82093287Y-81261423D01*
X82044624Y-81421842D01*
X82004077Y-81497700D01*
X81965604Y-81569678D01*
X81859259Y-81699259D01*
X81729678Y-81805604D01*
X81729676Y-81805605D01*
X81581842Y-81884624D01*
X81421423Y-81933287D01*
X81296404Y-81945600D01*
X81212796Y-81945600D01*
X81087777Y-81933287D01*
X80927358Y-81884624D01*
X80779524Y-81805605D01*
X80779522Y-81805604D01*
X80649941Y-81699259D01*
X80543596Y-81569678D01*
X80505123Y-81497700D01*
X80464576Y-81421842D01*
X80415913Y-81261423D01*
X80399483Y-81094600D01*
X80415913Y-80927777D01*
X80464576Y-80767358D01*
X80543595Y-80619524D01*
X80543596Y-80619522D01*
X80649941Y-80489941D01*
X80779522Y-80383596D01*
X80860239Y-80340452D01*
X80927358Y-80304576D01*
X81087777Y-80255913D01*
X81212796Y-80243600D01*
X81296404Y-80243600D01*
X81421423Y-80255913D01*
X81421423Y-80255913D01*
G37*
G36*
X121364228Y-80276303D02*
G01*
X121519100Y-80340453D01*
X121658481Y-80433585D01*
X121777015Y-80552119D01*
X121870147Y-80691500D01*
X121934297Y-80846372D01*
X121967000Y-81010784D01*
X121967000Y-81178416D01*
X121934297Y-81342828D01*
X121870147Y-81497700D01*
X121777015Y-81637081D01*
X121658481Y-81755615D01*
X121519100Y-81848747D01*
X121364228Y-81912897D01*
X121199816Y-81945600D01*
X121032184Y-81945600D01*
X120867772Y-81912897D01*
X120712900Y-81848747D01*
X120573519Y-81755615D01*
X120454985Y-81637081D01*
X120361853Y-81497700D01*
X120297703Y-81342828D01*
X120265000Y-81178416D01*
X120265000Y-81010784D01*
X120297703Y-80846372D01*
X120361853Y-80691500D01*
X120454985Y-80552119D01*
X120573519Y-80433585D01*
X120712900Y-80340453D01*
X120867772Y-80276303D01*
X121032184Y-80243600D01*
X121199816Y-80243600D01*
X121364228Y-80276303D01*
X121364228Y-80276303D01*
G37*
G36*
X86501423Y-80255913D02*
G01*
X86661842Y-80304576D01*
X86728961Y-80340452D01*
X86809678Y-80383596D01*
X86939259Y-80489941D01*
X87045604Y-80619522D01*
X87045605Y-80619524D01*
X87124624Y-80767358D01*
X87173287Y-80927777D01*
X87189717Y-81094600D01*
X87173287Y-81261423D01*
X87124624Y-81421842D01*
X87084077Y-81497700D01*
X87045604Y-81569678D01*
X86939259Y-81699259D01*
X86809678Y-81805604D01*
X86809676Y-81805605D01*
X86661842Y-81884624D01*
X86501423Y-81933287D01*
X86376404Y-81945600D01*
X86292796Y-81945600D01*
X86167777Y-81933287D01*
X86007358Y-81884624D01*
X85859524Y-81805605D01*
X85859522Y-81805604D01*
X85729941Y-81699259D01*
X85623596Y-81569678D01*
X85585123Y-81497700D01*
X85544576Y-81421842D01*
X85495913Y-81261423D01*
X85479483Y-81094600D01*
X85495913Y-80927777D01*
X85544576Y-80767358D01*
X85623595Y-80619524D01*
X85623596Y-80619522D01*
X85729941Y-80489941D01*
X85859522Y-80383596D01*
X85940239Y-80340452D01*
X86007358Y-80304576D01*
X86167777Y-80255913D01*
X86292796Y-80243600D01*
X86376404Y-80243600D01*
X86501423Y-80255913D01*
X86501423Y-80255913D01*
G37*
G36*
X89041423Y-80255913D02*
G01*
X89201842Y-80304576D01*
X89268961Y-80340452D01*
X89349678Y-80383596D01*
X89479259Y-80489941D01*
X89585604Y-80619522D01*
X89585605Y-80619524D01*
X89664624Y-80767358D01*
X89713287Y-80927777D01*
X89729717Y-81094600D01*
X89713287Y-81261423D01*
X89664624Y-81421842D01*
X89624077Y-81497700D01*
X89585604Y-81569678D01*
X89479259Y-81699259D01*
X89349678Y-81805604D01*
X89349676Y-81805605D01*
X89201842Y-81884624D01*
X89041423Y-81933287D01*
X88916404Y-81945600D01*
X88832796Y-81945600D01*
X88707777Y-81933287D01*
X88547358Y-81884624D01*
X88399524Y-81805605D01*
X88399522Y-81805604D01*
X88269941Y-81699259D01*
X88163596Y-81569678D01*
X88125123Y-81497700D01*
X88084576Y-81421842D01*
X88035913Y-81261423D01*
X88019483Y-81094600D01*
X88035913Y-80927777D01*
X88084576Y-80767358D01*
X88163595Y-80619524D01*
X88163596Y-80619522D01*
X88269941Y-80489941D01*
X88399522Y-80383596D01*
X88480239Y-80340452D01*
X88547358Y-80304576D01*
X88707777Y-80255913D01*
X88832796Y-80243600D01*
X88916404Y-80243600D01*
X89041423Y-80255913D01*
X89041423Y-80255913D01*
G37*
G36*
X78881423Y-80255913D02*
G01*
X79041842Y-80304576D01*
X79108961Y-80340452D01*
X79189678Y-80383596D01*
X79319259Y-80489941D01*
X79425604Y-80619522D01*
X79425605Y-80619524D01*
X79504624Y-80767358D01*
X79553287Y-80927777D01*
X79569717Y-81094600D01*
X79553287Y-81261423D01*
X79504624Y-81421842D01*
X79464077Y-81497700D01*
X79425604Y-81569678D01*
X79319259Y-81699259D01*
X79189678Y-81805604D01*
X79189676Y-81805605D01*
X79041842Y-81884624D01*
X78881423Y-81933287D01*
X78756404Y-81945600D01*
X78672796Y-81945600D01*
X78547777Y-81933287D01*
X78387358Y-81884624D01*
X78239524Y-81805605D01*
X78239522Y-81805604D01*
X78109941Y-81699259D01*
X78003596Y-81569678D01*
X77965123Y-81497700D01*
X77924576Y-81421842D01*
X77875913Y-81261423D01*
X77859483Y-81094600D01*
X77875913Y-80927777D01*
X77924576Y-80767358D01*
X78003595Y-80619524D01*
X78003596Y-80619522D01*
X78109941Y-80489941D01*
X78239522Y-80383596D01*
X78320239Y-80340452D01*
X78387358Y-80304576D01*
X78547777Y-80255913D01*
X78672796Y-80243600D01*
X78756404Y-80243600D01*
X78881423Y-80255913D01*
X78881423Y-80255913D01*
G37*
G36*
X91581423Y-80255913D02*
G01*
X91741842Y-80304576D01*
X91808961Y-80340452D01*
X91889678Y-80383596D01*
X92019259Y-80489941D01*
X92125604Y-80619522D01*
X92125605Y-80619524D01*
X92204624Y-80767358D01*
X92253287Y-80927777D01*
X92269717Y-81094600D01*
X92253287Y-81261423D01*
X92204624Y-81421842D01*
X92164077Y-81497700D01*
X92125604Y-81569678D01*
X92019259Y-81699259D01*
X91889678Y-81805604D01*
X91889676Y-81805605D01*
X91741842Y-81884624D01*
X91581423Y-81933287D01*
X91456404Y-81945600D01*
X91372796Y-81945600D01*
X91247777Y-81933287D01*
X91087358Y-81884624D01*
X90939524Y-81805605D01*
X90939522Y-81805604D01*
X90809941Y-81699259D01*
X90703596Y-81569678D01*
X90665123Y-81497700D01*
X90624576Y-81421842D01*
X90575913Y-81261423D01*
X90559483Y-81094600D01*
X90575913Y-80927777D01*
X90624576Y-80767358D01*
X90703595Y-80619524D01*
X90703596Y-80619522D01*
X90809941Y-80489941D01*
X90939522Y-80383596D01*
X91020239Y-80340452D01*
X91087358Y-80304576D01*
X91247777Y-80255913D01*
X91372796Y-80243600D01*
X91456404Y-80243600D01*
X91581423Y-80255913D01*
X91581423Y-80255913D01*
G37*
G36*
X94121423Y-80255913D02*
G01*
X94281842Y-80304576D01*
X94348961Y-80340452D01*
X94429678Y-80383596D01*
X94559259Y-80489941D01*
X94665604Y-80619522D01*
X94665605Y-80619524D01*
X94744624Y-80767358D01*
X94793287Y-80927777D01*
X94809717Y-81094600D01*
X94793287Y-81261423D01*
X94744624Y-81421842D01*
X94704077Y-81497700D01*
X94665604Y-81569678D01*
X94559259Y-81699259D01*
X94429678Y-81805604D01*
X94429676Y-81805605D01*
X94281842Y-81884624D01*
X94121423Y-81933287D01*
X93996404Y-81945600D01*
X93912796Y-81945600D01*
X93787777Y-81933287D01*
X93627358Y-81884624D01*
X93479524Y-81805605D01*
X93479522Y-81805604D01*
X93349941Y-81699259D01*
X93243596Y-81569678D01*
X93205123Y-81497700D01*
X93164576Y-81421842D01*
X93115913Y-81261423D01*
X93099483Y-81094600D01*
X93115913Y-80927777D01*
X93164576Y-80767358D01*
X93243595Y-80619524D01*
X93243596Y-80619522D01*
X93349941Y-80489941D01*
X93479522Y-80383596D01*
X93560239Y-80340452D01*
X93627358Y-80304576D01*
X93787777Y-80255913D01*
X93912796Y-80243600D01*
X93996404Y-80243600D01*
X94121423Y-80255913D01*
X94121423Y-80255913D01*
G37*
G36*
X76341423Y-80255913D02*
G01*
X76501842Y-80304576D01*
X76568961Y-80340452D01*
X76649678Y-80383596D01*
X76779259Y-80489941D01*
X76885604Y-80619522D01*
X76885605Y-80619524D01*
X76964624Y-80767358D01*
X77013287Y-80927777D01*
X77029717Y-81094600D01*
X77013287Y-81261423D01*
X76964624Y-81421842D01*
X76924077Y-81497700D01*
X76885604Y-81569678D01*
X76779259Y-81699259D01*
X76649678Y-81805604D01*
X76649676Y-81805605D01*
X76501842Y-81884624D01*
X76341423Y-81933287D01*
X76216404Y-81945600D01*
X76132796Y-81945600D01*
X76007777Y-81933287D01*
X75847358Y-81884624D01*
X75699524Y-81805605D01*
X75699522Y-81805604D01*
X75569941Y-81699259D01*
X75463596Y-81569678D01*
X75425123Y-81497700D01*
X75384576Y-81421842D01*
X75335913Y-81261423D01*
X75319483Y-81094600D01*
X75335913Y-80927777D01*
X75384576Y-80767358D01*
X75463595Y-80619524D01*
X75463596Y-80619522D01*
X75569941Y-80489941D01*
X75699522Y-80383596D01*
X75780239Y-80340452D01*
X75847358Y-80304576D01*
X76007777Y-80255913D01*
X76132796Y-80243600D01*
X76216404Y-80243600D01*
X76341423Y-80255913D01*
X76341423Y-80255913D01*
G37*
G36*
X63641423Y-80255913D02*
G01*
X63801842Y-80304576D01*
X63868961Y-80340452D01*
X63949678Y-80383596D01*
X64079259Y-80489941D01*
X64185604Y-80619522D01*
X64185605Y-80619524D01*
X64264624Y-80767358D01*
X64313287Y-80927777D01*
X64329717Y-81094600D01*
X64313287Y-81261423D01*
X64264624Y-81421842D01*
X64224077Y-81497700D01*
X64185604Y-81569678D01*
X64079259Y-81699259D01*
X63949678Y-81805604D01*
X63949676Y-81805605D01*
X63801842Y-81884624D01*
X63641423Y-81933287D01*
X63516404Y-81945600D01*
X63432796Y-81945600D01*
X63307777Y-81933287D01*
X63147358Y-81884624D01*
X62999524Y-81805605D01*
X62999522Y-81805604D01*
X62869941Y-81699259D01*
X62763596Y-81569678D01*
X62725123Y-81497700D01*
X62684576Y-81421842D01*
X62635913Y-81261423D01*
X62619483Y-81094600D01*
X62635913Y-80927777D01*
X62684576Y-80767358D01*
X62763595Y-80619524D01*
X62763596Y-80619522D01*
X62869941Y-80489941D01*
X62999522Y-80383596D01*
X63080239Y-80340452D01*
X63147358Y-80304576D01*
X63307777Y-80255913D01*
X63432796Y-80243600D01*
X63516404Y-80243600D01*
X63641423Y-80255913D01*
X63641423Y-80255913D01*
G37*
G36*
X99201423Y-80255913D02*
G01*
X99361842Y-80304576D01*
X99428961Y-80340452D01*
X99509678Y-80383596D01*
X99639259Y-80489941D01*
X99745604Y-80619522D01*
X99745605Y-80619524D01*
X99824624Y-80767358D01*
X99873287Y-80927777D01*
X99889717Y-81094600D01*
X99873287Y-81261423D01*
X99824624Y-81421842D01*
X99784077Y-81497700D01*
X99745604Y-81569678D01*
X99639259Y-81699259D01*
X99509678Y-81805604D01*
X99509676Y-81805605D01*
X99361842Y-81884624D01*
X99201423Y-81933287D01*
X99076404Y-81945600D01*
X98992796Y-81945600D01*
X98867777Y-81933287D01*
X98707358Y-81884624D01*
X98559524Y-81805605D01*
X98559522Y-81805604D01*
X98429941Y-81699259D01*
X98323596Y-81569678D01*
X98285123Y-81497700D01*
X98244576Y-81421842D01*
X98195913Y-81261423D01*
X98179483Y-81094600D01*
X98195913Y-80927777D01*
X98244576Y-80767358D01*
X98323595Y-80619524D01*
X98323596Y-80619522D01*
X98429941Y-80489941D01*
X98559522Y-80383596D01*
X98640239Y-80340452D01*
X98707358Y-80304576D01*
X98867777Y-80255913D01*
X98992796Y-80243600D01*
X99076404Y-80243600D01*
X99201423Y-80255913D01*
X99201423Y-80255913D01*
G37*
G36*
X104281423Y-80255913D02*
G01*
X104441842Y-80304576D01*
X104508961Y-80340452D01*
X104589678Y-80383596D01*
X104719259Y-80489941D01*
X104825604Y-80619522D01*
X104825605Y-80619524D01*
X104904624Y-80767358D01*
X104953287Y-80927777D01*
X104969717Y-81094600D01*
X104953287Y-81261423D01*
X104904624Y-81421842D01*
X104864077Y-81497700D01*
X104825604Y-81569678D01*
X104719259Y-81699259D01*
X104589678Y-81805604D01*
X104589676Y-81805605D01*
X104441842Y-81884624D01*
X104281423Y-81933287D01*
X104156404Y-81945600D01*
X104072796Y-81945600D01*
X103947777Y-81933287D01*
X103787358Y-81884624D01*
X103639524Y-81805605D01*
X103639522Y-81805604D01*
X103509941Y-81699259D01*
X103403596Y-81569678D01*
X103365123Y-81497700D01*
X103324576Y-81421842D01*
X103275913Y-81261423D01*
X103259483Y-81094600D01*
X103275913Y-80927777D01*
X103324576Y-80767358D01*
X103403595Y-80619524D01*
X103403596Y-80619522D01*
X103509941Y-80489941D01*
X103639522Y-80383596D01*
X103720239Y-80340452D01*
X103787358Y-80304576D01*
X103947777Y-80255913D01*
X104072796Y-80243600D01*
X104156404Y-80243600D01*
X104281423Y-80255913D01*
X104281423Y-80255913D01*
G37*
G36*
X101741423Y-80255913D02*
G01*
X101901842Y-80304576D01*
X101968961Y-80340452D01*
X102049678Y-80383596D01*
X102179259Y-80489941D01*
X102285604Y-80619522D01*
X102285605Y-80619524D01*
X102364624Y-80767358D01*
X102413287Y-80927777D01*
X102429717Y-81094600D01*
X102413287Y-81261423D01*
X102364624Y-81421842D01*
X102324077Y-81497700D01*
X102285604Y-81569678D01*
X102179259Y-81699259D01*
X102049678Y-81805604D01*
X102049676Y-81805605D01*
X101901842Y-81884624D01*
X101741423Y-81933287D01*
X101616404Y-81945600D01*
X101532796Y-81945600D01*
X101407777Y-81933287D01*
X101247358Y-81884624D01*
X101099524Y-81805605D01*
X101099522Y-81805604D01*
X100969941Y-81699259D01*
X100863596Y-81569678D01*
X100825123Y-81497700D01*
X100784576Y-81421842D01*
X100735913Y-81261423D01*
X100719483Y-81094600D01*
X100735913Y-80927777D01*
X100784576Y-80767358D01*
X100863595Y-80619524D01*
X100863596Y-80619522D01*
X100969941Y-80489941D01*
X101099522Y-80383596D01*
X101180239Y-80340452D01*
X101247358Y-80304576D01*
X101407777Y-80255913D01*
X101532796Y-80243600D01*
X101616404Y-80243600D01*
X101741423Y-80255913D01*
X101741423Y-80255913D01*
G37*
G36*
X111901423Y-80255913D02*
G01*
X112061842Y-80304576D01*
X112128961Y-80340452D01*
X112209678Y-80383596D01*
X112339259Y-80489941D01*
X112445604Y-80619522D01*
X112445605Y-80619524D01*
X112524624Y-80767358D01*
X112573287Y-80927777D01*
X112589717Y-81094600D01*
X112573287Y-81261423D01*
X112524624Y-81421842D01*
X112484077Y-81497700D01*
X112445604Y-81569678D01*
X112339259Y-81699259D01*
X112209678Y-81805604D01*
X112209676Y-81805605D01*
X112061842Y-81884624D01*
X111901423Y-81933287D01*
X111776404Y-81945600D01*
X111692796Y-81945600D01*
X111567777Y-81933287D01*
X111407358Y-81884624D01*
X111259524Y-81805605D01*
X111259522Y-81805604D01*
X111129941Y-81699259D01*
X111023596Y-81569678D01*
X110985123Y-81497700D01*
X110944576Y-81421842D01*
X110895913Y-81261423D01*
X110879483Y-81094600D01*
X110895913Y-80927777D01*
X110944576Y-80767358D01*
X111023595Y-80619524D01*
X111023596Y-80619522D01*
X111129941Y-80489941D01*
X111259522Y-80383596D01*
X111340239Y-80340452D01*
X111407358Y-80304576D01*
X111567777Y-80255913D01*
X111692796Y-80243600D01*
X111776404Y-80243600D01*
X111901423Y-80255913D01*
X111901423Y-80255913D01*
G37*
G36*
X96661423Y-80255913D02*
G01*
X96821842Y-80304576D01*
X96888961Y-80340452D01*
X96969678Y-80383596D01*
X97099259Y-80489941D01*
X97205604Y-80619522D01*
X97205605Y-80619524D01*
X97284624Y-80767358D01*
X97333287Y-80927777D01*
X97349717Y-81094600D01*
X97333287Y-81261423D01*
X97284624Y-81421842D01*
X97244077Y-81497700D01*
X97205604Y-81569678D01*
X97099259Y-81699259D01*
X96969678Y-81805604D01*
X96969676Y-81805605D01*
X96821842Y-81884624D01*
X96661423Y-81933287D01*
X96536404Y-81945600D01*
X96452796Y-81945600D01*
X96327777Y-81933287D01*
X96167358Y-81884624D01*
X96019524Y-81805605D01*
X96019522Y-81805604D01*
X95889941Y-81699259D01*
X95783596Y-81569678D01*
X95745123Y-81497700D01*
X95704576Y-81421842D01*
X95655913Y-81261423D01*
X95639483Y-81094600D01*
X95655913Y-80927777D01*
X95704576Y-80767358D01*
X95783595Y-80619524D01*
X95783596Y-80619522D01*
X95889941Y-80489941D01*
X96019522Y-80383596D01*
X96100239Y-80340452D01*
X96167358Y-80304576D01*
X96327777Y-80255913D01*
X96452796Y-80243600D01*
X96536404Y-80243600D01*
X96661423Y-80255913D01*
X96661423Y-80255913D01*
G37*
G36*
X116364228Y-80276303D02*
G01*
X116519100Y-80340453D01*
X116658481Y-80433585D01*
X116777015Y-80552119D01*
X116870147Y-80691500D01*
X116934297Y-80846372D01*
X116967000Y-81010784D01*
X116967000Y-81178416D01*
X116934297Y-81342828D01*
X116870147Y-81497700D01*
X116777015Y-81637081D01*
X116658481Y-81755615D01*
X116519100Y-81848747D01*
X116364228Y-81912897D01*
X116199816Y-81945600D01*
X116032184Y-81945600D01*
X115867772Y-81912897D01*
X115712900Y-81848747D01*
X115573519Y-81755615D01*
X115454985Y-81637081D01*
X115361853Y-81497700D01*
X115297703Y-81342828D01*
X115265000Y-81178416D01*
X115265000Y-81010784D01*
X115297703Y-80846372D01*
X115361853Y-80691500D01*
X115454985Y-80552119D01*
X115573519Y-80433585D01*
X115712900Y-80340453D01*
X115867772Y-80276303D01*
X116032184Y-80243600D01*
X116199816Y-80243600D01*
X116364228Y-80276303D01*
X116364228Y-80276303D01*
G37*
G36*
X71261423Y-80255913D02*
G01*
X71421842Y-80304576D01*
X71488961Y-80340452D01*
X71569678Y-80383596D01*
X71699259Y-80489941D01*
X71805604Y-80619522D01*
X71805605Y-80619524D01*
X71884624Y-80767358D01*
X71933287Y-80927777D01*
X71949717Y-81094600D01*
X71933287Y-81261423D01*
X71884624Y-81421842D01*
X71844077Y-81497700D01*
X71805604Y-81569678D01*
X71699259Y-81699259D01*
X71569678Y-81805604D01*
X71569676Y-81805605D01*
X71421842Y-81884624D01*
X71261423Y-81933287D01*
X71136404Y-81945600D01*
X71052796Y-81945600D01*
X70927777Y-81933287D01*
X70767358Y-81884624D01*
X70619524Y-81805605D01*
X70619522Y-81805604D01*
X70489941Y-81699259D01*
X70383596Y-81569678D01*
X70345123Y-81497700D01*
X70304576Y-81421842D01*
X70255913Y-81261423D01*
X70239483Y-81094600D01*
X70255913Y-80927777D01*
X70304576Y-80767358D01*
X70383595Y-80619524D01*
X70383596Y-80619522D01*
X70489941Y-80489941D01*
X70619522Y-80383596D01*
X70700239Y-80340452D01*
X70767358Y-80304576D01*
X70927777Y-80255913D01*
X71052796Y-80243600D01*
X71136404Y-80243600D01*
X71261423Y-80255913D01*
X71261423Y-80255913D01*
G37*
G36*
X68721423Y-80255913D02*
G01*
X68881842Y-80304576D01*
X68948961Y-80340452D01*
X69029678Y-80383596D01*
X69159259Y-80489941D01*
X69265604Y-80619522D01*
X69265605Y-80619524D01*
X69344624Y-80767358D01*
X69393287Y-80927777D01*
X69409717Y-81094600D01*
X69393287Y-81261423D01*
X69344624Y-81421842D01*
X69304077Y-81497700D01*
X69265604Y-81569678D01*
X69159259Y-81699259D01*
X69029678Y-81805604D01*
X69029676Y-81805605D01*
X68881842Y-81884624D01*
X68721423Y-81933287D01*
X68596404Y-81945600D01*
X68512796Y-81945600D01*
X68387777Y-81933287D01*
X68227358Y-81884624D01*
X68079524Y-81805605D01*
X68079522Y-81805604D01*
X67949941Y-81699259D01*
X67843596Y-81569678D01*
X67805123Y-81497700D01*
X67764576Y-81421842D01*
X67715913Y-81261423D01*
X67699483Y-81094600D01*
X67715913Y-80927777D01*
X67764576Y-80767358D01*
X67843595Y-80619524D01*
X67843596Y-80619522D01*
X67949941Y-80489941D01*
X68079522Y-80383596D01*
X68160239Y-80340452D01*
X68227358Y-80304576D01*
X68387777Y-80255913D01*
X68512796Y-80243600D01*
X68596404Y-80243600D01*
X68721423Y-80255913D01*
X68721423Y-80255913D01*
G37*
G36*
X66181423Y-80255913D02*
G01*
X66341842Y-80304576D01*
X66408961Y-80340452D01*
X66489678Y-80383596D01*
X66619259Y-80489941D01*
X66725604Y-80619522D01*
X66725605Y-80619524D01*
X66804624Y-80767358D01*
X66853287Y-80927777D01*
X66869717Y-81094600D01*
X66853287Y-81261423D01*
X66804624Y-81421842D01*
X66764077Y-81497700D01*
X66725604Y-81569678D01*
X66619259Y-81699259D01*
X66489678Y-81805604D01*
X66489676Y-81805605D01*
X66341842Y-81884624D01*
X66181423Y-81933287D01*
X66056404Y-81945600D01*
X65972796Y-81945600D01*
X65847777Y-81933287D01*
X65687358Y-81884624D01*
X65539524Y-81805605D01*
X65539522Y-81805604D01*
X65409941Y-81699259D01*
X65303596Y-81569678D01*
X65265123Y-81497700D01*
X65224576Y-81421842D01*
X65175913Y-81261423D01*
X65159483Y-81094600D01*
X65175913Y-80927777D01*
X65224576Y-80767358D01*
X65303595Y-80619524D01*
X65303596Y-80619522D01*
X65409941Y-80489941D01*
X65539522Y-80383596D01*
X65620239Y-80340452D01*
X65687358Y-80304576D01*
X65847777Y-80255913D01*
X65972796Y-80243600D01*
X66056404Y-80243600D01*
X66181423Y-80255913D01*
X66181423Y-80255913D01*
G37*
G36*
X106821423Y-80255913D02*
G01*
X106981842Y-80304576D01*
X107048961Y-80340452D01*
X107129678Y-80383596D01*
X107259259Y-80489941D01*
X107365604Y-80619522D01*
X107365605Y-80619524D01*
X107444624Y-80767358D01*
X107493287Y-80927777D01*
X107509717Y-81094600D01*
X107493287Y-81261423D01*
X107444624Y-81421842D01*
X107404077Y-81497700D01*
X107365604Y-81569678D01*
X107259259Y-81699259D01*
X107129678Y-81805604D01*
X107129676Y-81805605D01*
X106981842Y-81884624D01*
X106821423Y-81933287D01*
X106696404Y-81945600D01*
X106612796Y-81945600D01*
X106487777Y-81933287D01*
X106327358Y-81884624D01*
X106179524Y-81805605D01*
X106179522Y-81805604D01*
X106049941Y-81699259D01*
X105943596Y-81569678D01*
X105905123Y-81497700D01*
X105864576Y-81421842D01*
X105815913Y-81261423D01*
X105799483Y-81094600D01*
X105815913Y-80927777D01*
X105864576Y-80767358D01*
X105943595Y-80619524D01*
X105943596Y-80619522D01*
X106049941Y-80489941D01*
X106179522Y-80383596D01*
X106260239Y-80340452D01*
X106327358Y-80304576D01*
X106487777Y-80255913D01*
X106612796Y-80243600D01*
X106696404Y-80243600D01*
X106821423Y-80255913D01*
X106821423Y-80255913D01*
G37*
G36*
X73801423Y-80255913D02*
G01*
X73961842Y-80304576D01*
X74028961Y-80340452D01*
X74109678Y-80383596D01*
X74239259Y-80489941D01*
X74345604Y-80619522D01*
X74345605Y-80619524D01*
X74424624Y-80767358D01*
X74473287Y-80927777D01*
X74489717Y-81094600D01*
X74473287Y-81261423D01*
X74424624Y-81421842D01*
X74384077Y-81497700D01*
X74345604Y-81569678D01*
X74239259Y-81699259D01*
X74109678Y-81805604D01*
X74109676Y-81805605D01*
X73961842Y-81884624D01*
X73801423Y-81933287D01*
X73676404Y-81945600D01*
X73592796Y-81945600D01*
X73467777Y-81933287D01*
X73307358Y-81884624D01*
X73159524Y-81805605D01*
X73159522Y-81805604D01*
X73029941Y-81699259D01*
X72923596Y-81569678D01*
X72885123Y-81497700D01*
X72844576Y-81421842D01*
X72795913Y-81261423D01*
X72779483Y-81094600D01*
X72795913Y-80927777D01*
X72844576Y-80767358D01*
X72923595Y-80619524D01*
X72923596Y-80619522D01*
X73029941Y-80489941D01*
X73159522Y-80383596D01*
X73240239Y-80340452D01*
X73307358Y-80304576D01*
X73467777Y-80255913D01*
X73592796Y-80243600D01*
X73676404Y-80243600D01*
X73801423Y-80255913D01*
X73801423Y-80255913D01*
G37*
G36*
X109361423Y-80255913D02*
G01*
X109521842Y-80304576D01*
X109588961Y-80340452D01*
X109669678Y-80383596D01*
X109799259Y-80489941D01*
X109905604Y-80619522D01*
X109905605Y-80619524D01*
X109984624Y-80767358D01*
X110033287Y-80927777D01*
X110049717Y-81094600D01*
X110033287Y-81261423D01*
X109984624Y-81421842D01*
X109944077Y-81497700D01*
X109905604Y-81569678D01*
X109799259Y-81699259D01*
X109669678Y-81805604D01*
X109669676Y-81805605D01*
X109521842Y-81884624D01*
X109361423Y-81933287D01*
X109236404Y-81945600D01*
X109152796Y-81945600D01*
X109027777Y-81933287D01*
X108867358Y-81884624D01*
X108719524Y-81805605D01*
X108719522Y-81805604D01*
X108589941Y-81699259D01*
X108483596Y-81569678D01*
X108445123Y-81497700D01*
X108404576Y-81421842D01*
X108355913Y-81261423D01*
X108339483Y-81094600D01*
X108355913Y-80927777D01*
X108404576Y-80767358D01*
X108483595Y-80619524D01*
X108483596Y-80619522D01*
X108589941Y-80489941D01*
X108719522Y-80383596D01*
X108800239Y-80340452D01*
X108867358Y-80304576D01*
X109027777Y-80255913D01*
X109152796Y-80243600D01*
X109236404Y-80243600D01*
X109361423Y-80255913D01*
X109361423Y-80255913D01*
G37*
G36*
X52833494Y-78092633D02*
G01*
X53005895Y-78144931D01*
X53164783Y-78229858D01*
X53304049Y-78344151D01*
X53418342Y-78483417D01*
X53503269Y-78642305D01*
X53555567Y-78814706D01*
X53573225Y-78994000D01*
X53555567Y-79173294D01*
X53503269Y-79345695D01*
X53418342Y-79504583D01*
X53304049Y-79643849D01*
X53164783Y-79758142D01*
X53005895Y-79843069D01*
X52833494Y-79895367D01*
X52699131Y-79908600D01*
X52609269Y-79908600D01*
X52474906Y-79895367D01*
X52302505Y-79843069D01*
X52143617Y-79758142D01*
X52004351Y-79643849D01*
X51890058Y-79504583D01*
X51805131Y-79345695D01*
X51752833Y-79173294D01*
X51735175Y-78994000D01*
X51752833Y-78814706D01*
X51805131Y-78642305D01*
X51890058Y-78483417D01*
X52004351Y-78344151D01*
X52143617Y-78229858D01*
X52302505Y-78144931D01*
X52474906Y-78092633D01*
X52609269Y-78079400D01*
X52699131Y-78079400D01*
X52833494Y-78092633D01*
X52833494Y-78092633D01*
G37*
G36*
X55373494Y-78092633D02*
G01*
X55545895Y-78144931D01*
X55704783Y-78229858D01*
X55844049Y-78344151D01*
X55958342Y-78483417D01*
X56043269Y-78642305D01*
X56095567Y-78814706D01*
X56113225Y-78994000D01*
X56095567Y-79173294D01*
X56043269Y-79345695D01*
X55958342Y-79504583D01*
X55844049Y-79643849D01*
X55704783Y-79758142D01*
X55545895Y-79843069D01*
X55373494Y-79895367D01*
X55239131Y-79908600D01*
X55149269Y-79908600D01*
X55014906Y-79895367D01*
X54842505Y-79843069D01*
X54683617Y-79758142D01*
X54544351Y-79643849D01*
X54430058Y-79504583D01*
X54345131Y-79345695D01*
X54292833Y-79173294D01*
X54275175Y-78994000D01*
X54292833Y-78814706D01*
X54345131Y-78642305D01*
X54430058Y-78483417D01*
X54544351Y-78344151D01*
X54683617Y-78229858D01*
X54842505Y-78144931D01*
X55014906Y-78092633D01*
X55149269Y-78079400D01*
X55239131Y-78079400D01*
X55373494Y-78092633D01*
X55373494Y-78092633D01*
G37*
G36*
X84042828Y-76618703D02*
G01*
X84197700Y-76682853D01*
X84337081Y-76775985D01*
X84455615Y-76894519D01*
X84548747Y-77033900D01*
X84612897Y-77188772D01*
X84645600Y-77353184D01*
X84645600Y-77520816D01*
X84612897Y-77685228D01*
X84548747Y-77840100D01*
X84455615Y-77979481D01*
X84337081Y-78098015D01*
X84197700Y-78191147D01*
X84042828Y-78255297D01*
X83878416Y-78288000D01*
X83710784Y-78288000D01*
X83546372Y-78255297D01*
X83391500Y-78191147D01*
X83252119Y-78098015D01*
X83133585Y-77979481D01*
X83040453Y-77840100D01*
X82976303Y-77685228D01*
X82943600Y-77520816D01*
X82943600Y-77353184D01*
X82976303Y-77188772D01*
X83040453Y-77033900D01*
X83133585Y-76894519D01*
X83252119Y-76775985D01*
X83391500Y-76682853D01*
X83546372Y-76618703D01*
X83710784Y-76586000D01*
X83878416Y-76586000D01*
X84042828Y-76618703D01*
X84042828Y-76618703D01*
G37*
G36*
X89122828Y-76618703D02*
G01*
X89277700Y-76682853D01*
X89417081Y-76775985D01*
X89535615Y-76894519D01*
X89628747Y-77033900D01*
X89692897Y-77188772D01*
X89725600Y-77353184D01*
X89725600Y-77520816D01*
X89692897Y-77685228D01*
X89628747Y-77840100D01*
X89535615Y-77979481D01*
X89417081Y-78098015D01*
X89277700Y-78191147D01*
X89122828Y-78255297D01*
X88958416Y-78288000D01*
X88790784Y-78288000D01*
X88626372Y-78255297D01*
X88471500Y-78191147D01*
X88332119Y-78098015D01*
X88213585Y-77979481D01*
X88120453Y-77840100D01*
X88056303Y-77685228D01*
X88023600Y-77520816D01*
X88023600Y-77353184D01*
X88056303Y-77188772D01*
X88120453Y-77033900D01*
X88213585Y-76894519D01*
X88332119Y-76775985D01*
X88471500Y-76682853D01*
X88626372Y-76618703D01*
X88790784Y-76586000D01*
X88958416Y-76586000D01*
X89122828Y-76618703D01*
X89122828Y-76618703D01*
G37*
G36*
X52833494Y-75552633D02*
G01*
X53005895Y-75604931D01*
X53164783Y-75689858D01*
X53304049Y-75804151D01*
X53418342Y-75943417D01*
X53503269Y-76102305D01*
X53555567Y-76274706D01*
X53573225Y-76454000D01*
X53555567Y-76633294D01*
X53503269Y-76805695D01*
X53418342Y-76964583D01*
X53304049Y-77103849D01*
X53164783Y-77218142D01*
X53005895Y-77303069D01*
X52833494Y-77355367D01*
X52699131Y-77368600D01*
X52609269Y-77368600D01*
X52474906Y-77355367D01*
X52302505Y-77303069D01*
X52143617Y-77218142D01*
X52004351Y-77103849D01*
X51890058Y-76964583D01*
X51805131Y-76805695D01*
X51752833Y-76633294D01*
X51735175Y-76454000D01*
X51752833Y-76274706D01*
X51805131Y-76102305D01*
X51890058Y-75943417D01*
X52004351Y-75804151D01*
X52143617Y-75689858D01*
X52302505Y-75604931D01*
X52474906Y-75552633D01*
X52609269Y-75539400D01*
X52699131Y-75539400D01*
X52833494Y-75552633D01*
X52833494Y-75552633D01*
G37*
G36*
X55373494Y-75552633D02*
G01*
X55545895Y-75604931D01*
X55704783Y-75689858D01*
X55844049Y-75804151D01*
X55958342Y-75943417D01*
X56043269Y-76102305D01*
X56095567Y-76274706D01*
X56113225Y-76454000D01*
X56095567Y-76633294D01*
X56043269Y-76805695D01*
X55958342Y-76964583D01*
X55844049Y-77103849D01*
X55704783Y-77218142D01*
X55545895Y-77303069D01*
X55373494Y-77355367D01*
X55239131Y-77368600D01*
X55149269Y-77368600D01*
X55014906Y-77355367D01*
X54842505Y-77303069D01*
X54683617Y-77218142D01*
X54544351Y-77103849D01*
X54430058Y-76964583D01*
X54345131Y-76805695D01*
X54292833Y-76633294D01*
X54275175Y-76454000D01*
X54292833Y-76274706D01*
X54345131Y-76102305D01*
X54430058Y-75943417D01*
X54544351Y-75804151D01*
X54683617Y-75689858D01*
X54842505Y-75604931D01*
X55014906Y-75552633D01*
X55149269Y-75539400D01*
X55239131Y-75539400D01*
X55373494Y-75552633D01*
X55373494Y-75552633D01*
G37*
G36*
X118221271Y-73246503D02*
G01*
X118277635Y-73252054D01*
X118494600Y-73317870D01*
X118494602Y-73317871D01*
X118694555Y-73424747D01*
X118869818Y-73568582D01*
X119013653Y-73743845D01*
X119104602Y-73914000D01*
X119120530Y-73943800D01*
X119186346Y-74160765D01*
X119208569Y-74386400D01*
X119186346Y-74612035D01*
X119124666Y-74815367D01*
X119120529Y-74829002D01*
X119013653Y-75028955D01*
X118869818Y-75204218D01*
X118694555Y-75348053D01*
X118494602Y-75454929D01*
X118494600Y-75454930D01*
X118277635Y-75520746D01*
X118221271Y-75526297D01*
X118108545Y-75537400D01*
X117995455Y-75537400D01*
X117882729Y-75526297D01*
X117826365Y-75520746D01*
X117609400Y-75454930D01*
X117609398Y-75454929D01*
X117409445Y-75348053D01*
X117234182Y-75204218D01*
X117090347Y-75028955D01*
X116983471Y-74829002D01*
X116979335Y-74815367D01*
X116917654Y-74612035D01*
X116895431Y-74386400D01*
X116917654Y-74160765D01*
X116983470Y-73943800D01*
X116999398Y-73914000D01*
X117090347Y-73743845D01*
X117234182Y-73568582D01*
X117409445Y-73424747D01*
X117609398Y-73317871D01*
X117609400Y-73317870D01*
X117826365Y-73252054D01*
X117882729Y-73246503D01*
X117995455Y-73235400D01*
X118108545Y-73235400D01*
X118221271Y-73246503D01*
X118221271Y-73246503D01*
G37*
G36*
X55373494Y-73012633D02*
G01*
X55545895Y-73064931D01*
X55704783Y-73149858D01*
X55844049Y-73264151D01*
X55958342Y-73403417D01*
X56043269Y-73562305D01*
X56095567Y-73734706D01*
X56113225Y-73914000D01*
X56095567Y-74093294D01*
X56043269Y-74265695D01*
X55958342Y-74424583D01*
X55844049Y-74563849D01*
X55704783Y-74678142D01*
X55545895Y-74763069D01*
X55373494Y-74815367D01*
X55239131Y-74828600D01*
X55149269Y-74828600D01*
X55014906Y-74815367D01*
X54842505Y-74763069D01*
X54683617Y-74678142D01*
X54544351Y-74563849D01*
X54430058Y-74424583D01*
X54345131Y-74265695D01*
X54292833Y-74093294D01*
X54275175Y-73914000D01*
X54292833Y-73734706D01*
X54345131Y-73562305D01*
X54430058Y-73403417D01*
X54544351Y-73264151D01*
X54683617Y-73149858D01*
X54842505Y-73064931D01*
X55014906Y-73012633D01*
X55149269Y-72999400D01*
X55239131Y-72999400D01*
X55373494Y-73012633D01*
X55373494Y-73012633D01*
G37*
G36*
X52833494Y-73012633D02*
G01*
X53005895Y-73064931D01*
X53164783Y-73149858D01*
X53304049Y-73264151D01*
X53418342Y-73403417D01*
X53503269Y-73562305D01*
X53555567Y-73734706D01*
X53573225Y-73914000D01*
X53555567Y-74093294D01*
X53503269Y-74265695D01*
X53418342Y-74424583D01*
X53304049Y-74563849D01*
X53164783Y-74678142D01*
X53005895Y-74763069D01*
X52833494Y-74815367D01*
X52699131Y-74828600D01*
X52609269Y-74828600D01*
X52474906Y-74815367D01*
X52302505Y-74763069D01*
X52143617Y-74678142D01*
X52004351Y-74563849D01*
X51890058Y-74424583D01*
X51805131Y-74265695D01*
X51752833Y-74093294D01*
X51735175Y-73914000D01*
X51752833Y-73734706D01*
X51805131Y-73562305D01*
X51890058Y-73403417D01*
X52004351Y-73264151D01*
X52143617Y-73149858D01*
X52302505Y-73064931D01*
X52474906Y-73012633D01*
X52609269Y-72999400D01*
X52699131Y-72999400D01*
X52833494Y-73012633D01*
X52833494Y-73012633D01*
G37*
G36*
X89122828Y-71618703D02*
G01*
X89277700Y-71682853D01*
X89417081Y-71775985D01*
X89535615Y-71894519D01*
X89628747Y-72033900D01*
X89692897Y-72188772D01*
X89725600Y-72353184D01*
X89725600Y-72520816D01*
X89692897Y-72685228D01*
X89628747Y-72840100D01*
X89535615Y-72979481D01*
X89417081Y-73098015D01*
X89277700Y-73191147D01*
X89122828Y-73255297D01*
X88958416Y-73288000D01*
X88790784Y-73288000D01*
X88626372Y-73255297D01*
X88471500Y-73191147D01*
X88332119Y-73098015D01*
X88213585Y-72979481D01*
X88120453Y-72840100D01*
X88056303Y-72685228D01*
X88023600Y-72520816D01*
X88023600Y-72353184D01*
X88056303Y-72188772D01*
X88120453Y-72033900D01*
X88213585Y-71894519D01*
X88332119Y-71775985D01*
X88471500Y-71682853D01*
X88626372Y-71618703D01*
X88790784Y-71586000D01*
X88958416Y-71586000D01*
X89122828Y-71618703D01*
X89122828Y-71618703D01*
G37*
G36*
X84042828Y-71618703D02*
G01*
X84197700Y-71682853D01*
X84337081Y-71775985D01*
X84455615Y-71894519D01*
X84548747Y-72033900D01*
X84612897Y-72188772D01*
X84645600Y-72353184D01*
X84645600Y-72520816D01*
X84612897Y-72685228D01*
X84548747Y-72840100D01*
X84455615Y-72979481D01*
X84337081Y-73098015D01*
X84197700Y-73191147D01*
X84042828Y-73255297D01*
X83878416Y-73288000D01*
X83710784Y-73288000D01*
X83546372Y-73255297D01*
X83391500Y-73191147D01*
X83252119Y-73098015D01*
X83133585Y-72979481D01*
X83040453Y-72840100D01*
X82976303Y-72685228D01*
X82943600Y-72520816D01*
X82943600Y-72353184D01*
X82976303Y-72188772D01*
X83040453Y-72033900D01*
X83133585Y-71894519D01*
X83252119Y-71775985D01*
X83391500Y-71682853D01*
X83546372Y-71618703D01*
X83710784Y-71586000D01*
X83878416Y-71586000D01*
X84042828Y-71618703D01*
X84042828Y-71618703D01*
G37*
G36*
X137638823Y-70898513D02*
G01*
X137799242Y-70947176D01*
X137866361Y-70983052D01*
X137947078Y-71026196D01*
X138076659Y-71132541D01*
X138183004Y-71262122D01*
X138183005Y-71262124D01*
X138262024Y-71409958D01*
X138310687Y-71570377D01*
X138327117Y-71737200D01*
X138310687Y-71904023D01*
X138262024Y-72064442D01*
X138221477Y-72140300D01*
X138183004Y-72212278D01*
X138076659Y-72341859D01*
X137947078Y-72448204D01*
X137947076Y-72448205D01*
X137799242Y-72527224D01*
X137638823Y-72575887D01*
X137513804Y-72588200D01*
X137430196Y-72588200D01*
X137305177Y-72575887D01*
X137144758Y-72527224D01*
X136996924Y-72448205D01*
X136996922Y-72448204D01*
X136867341Y-72341859D01*
X136760996Y-72212278D01*
X136722523Y-72140300D01*
X136681976Y-72064442D01*
X136633313Y-71904023D01*
X136616883Y-71737200D01*
X136633313Y-71570377D01*
X136681976Y-71409958D01*
X136760995Y-71262124D01*
X136760996Y-71262122D01*
X136867341Y-71132541D01*
X136996922Y-71026196D01*
X137077639Y-70983052D01*
X137144758Y-70947176D01*
X137305177Y-70898513D01*
X137430196Y-70886200D01*
X137513804Y-70886200D01*
X137638823Y-70898513D01*
X137638823Y-70898513D01*
G37*
G36*
X130100228Y-70918903D02*
G01*
X130255100Y-70983053D01*
X130394481Y-71076185D01*
X130513015Y-71194719D01*
X130606147Y-71334100D01*
X130670297Y-71488972D01*
X130703000Y-71653384D01*
X130703000Y-71821016D01*
X130670297Y-71985428D01*
X130606147Y-72140300D01*
X130513015Y-72279681D01*
X130394481Y-72398215D01*
X130255100Y-72491347D01*
X130100228Y-72555497D01*
X129935816Y-72588200D01*
X129768184Y-72588200D01*
X129603772Y-72555497D01*
X129448900Y-72491347D01*
X129309519Y-72398215D01*
X129190985Y-72279681D01*
X129097853Y-72140300D01*
X129033703Y-71985428D01*
X129001000Y-71821016D01*
X129001000Y-71653384D01*
X129033703Y-71488972D01*
X129097853Y-71334100D01*
X129190985Y-71194719D01*
X129309519Y-71076185D01*
X129448900Y-70983053D01*
X129603772Y-70918903D01*
X129768184Y-70886200D01*
X129935816Y-70886200D01*
X130100228Y-70918903D01*
X130100228Y-70918903D01*
G37*
G36*
X55373494Y-70472633D02*
G01*
X55545895Y-70524931D01*
X55704783Y-70609858D01*
X55844049Y-70724151D01*
X55958342Y-70863417D01*
X56043269Y-71022305D01*
X56095567Y-71194706D01*
X56113225Y-71374000D01*
X56095567Y-71553294D01*
X56043269Y-71725695D01*
X55958342Y-71884583D01*
X55844049Y-72023849D01*
X55704783Y-72138142D01*
X55545895Y-72223069D01*
X55373494Y-72275367D01*
X55239131Y-72288600D01*
X55149269Y-72288600D01*
X55014906Y-72275367D01*
X54842505Y-72223069D01*
X54683617Y-72138142D01*
X54544351Y-72023849D01*
X54430058Y-71884583D01*
X54345131Y-71725695D01*
X54292833Y-71553294D01*
X54275175Y-71374000D01*
X54292833Y-71194706D01*
X54345131Y-71022305D01*
X54430058Y-70863417D01*
X54544351Y-70724151D01*
X54683617Y-70609858D01*
X54842505Y-70524931D01*
X55014906Y-70472633D01*
X55149269Y-70459400D01*
X55239131Y-70459400D01*
X55373494Y-70472633D01*
X55373494Y-70472633D01*
G37*
G36*
X52833494Y-70472633D02*
G01*
X53005895Y-70524931D01*
X53164783Y-70609858D01*
X53304049Y-70724151D01*
X53418342Y-70863417D01*
X53503269Y-71022305D01*
X53555567Y-71194706D01*
X53573225Y-71374000D01*
X53555567Y-71553294D01*
X53503269Y-71725695D01*
X53418342Y-71884583D01*
X53304049Y-72023849D01*
X53164783Y-72138142D01*
X53005895Y-72223069D01*
X52833494Y-72275367D01*
X52699131Y-72288600D01*
X52609269Y-72288600D01*
X52474906Y-72275367D01*
X52302505Y-72223069D01*
X52143617Y-72138142D01*
X52004351Y-72023849D01*
X51890058Y-71884583D01*
X51805131Y-71725695D01*
X51752833Y-71553294D01*
X51735175Y-71374000D01*
X51752833Y-71194706D01*
X51805131Y-71022305D01*
X51890058Y-70863417D01*
X52004351Y-70724151D01*
X52143617Y-70609858D01*
X52302505Y-70524931D01*
X52474906Y-70472633D01*
X52609269Y-70459400D01*
X52699131Y-70459400D01*
X52833494Y-70472633D01*
X52833494Y-70472633D01*
G37*
G36*
X55373494Y-67932633D02*
G01*
X55545895Y-67984931D01*
X55704783Y-68069858D01*
X55844049Y-68184151D01*
X55958342Y-68323417D01*
X56043269Y-68482305D01*
X56095567Y-68654706D01*
X56113225Y-68834000D01*
X56095567Y-69013294D01*
X56043269Y-69185695D01*
X55958342Y-69344583D01*
X55844049Y-69483849D01*
X55704783Y-69598142D01*
X55545895Y-69683069D01*
X55373494Y-69735367D01*
X55239131Y-69748600D01*
X55149269Y-69748600D01*
X55014906Y-69735367D01*
X54842505Y-69683069D01*
X54683617Y-69598142D01*
X54544351Y-69483849D01*
X54430058Y-69344583D01*
X54345131Y-69185695D01*
X54292833Y-69013294D01*
X54275175Y-68834000D01*
X54292833Y-68654706D01*
X54345131Y-68482305D01*
X54430058Y-68323417D01*
X54544351Y-68184151D01*
X54683617Y-68069858D01*
X54842505Y-67984931D01*
X55014906Y-67932633D01*
X55149269Y-67919400D01*
X55239131Y-67919400D01*
X55373494Y-67932633D01*
X55373494Y-67932633D01*
G37*
G36*
X53568800Y-69748600D02*
G01*
X51739600Y-69748600D01*
X51739600Y-67919400D01*
X53568800Y-67919400D01*
X53568800Y-69748600D01*
X53568800Y-69748600D01*
G37*
G36*
X126212228Y-67162303D02*
G01*
X126367100Y-67226453D01*
X126506481Y-67319585D01*
X126625015Y-67438119D01*
X126718147Y-67577500D01*
X126782297Y-67732372D01*
X126815000Y-67896784D01*
X126815000Y-68064416D01*
X126782297Y-68228828D01*
X126718147Y-68383700D01*
X126625015Y-68523081D01*
X126506481Y-68641615D01*
X126367100Y-68734747D01*
X126212228Y-68798897D01*
X126047816Y-68831600D01*
X125880184Y-68831600D01*
X125715772Y-68798897D01*
X125560900Y-68734747D01*
X125421519Y-68641615D01*
X125302985Y-68523081D01*
X125209853Y-68383700D01*
X125145703Y-68228828D01*
X125113000Y-68064416D01*
X125113000Y-67896784D01*
X125145703Y-67732372D01*
X125209853Y-67577500D01*
X125302985Y-67438119D01*
X125421519Y-67319585D01*
X125560900Y-67226453D01*
X125715772Y-67162303D01*
X125880184Y-67129600D01*
X126047816Y-67129600D01*
X126212228Y-67162303D01*
X126212228Y-67162303D01*
G37*
G36*
X136033000Y-67859700D02*
G01*
X134131000Y-67859700D01*
X134131000Y-65957700D01*
X136033000Y-65957700D01*
X136033000Y-67859700D01*
X136033000Y-67859700D01*
G37*
G36*
X119203000Y-65377400D02*
G01*
X116901000Y-65377400D01*
X116901000Y-63075400D01*
X119203000Y-63075400D01*
X119203000Y-65377400D01*
X119203000Y-65377400D01*
G37*
G36*
X135359395Y-63454246D02*
G01*
X135532466Y-63525934D01*
X135532467Y-63525935D01*
X135688227Y-63630010D01*
X135820690Y-63762473D01*
X135866879Y-63831600D01*
X135924766Y-63918234D01*
X135996454Y-64091305D01*
X136033000Y-64275033D01*
X136033000Y-64462367D01*
X135996454Y-64646095D01*
X135924766Y-64819166D01*
X135924765Y-64819167D01*
X135820690Y-64974927D01*
X135688227Y-65107390D01*
X135609818Y-65159781D01*
X135532466Y-65211466D01*
X135359395Y-65283154D01*
X135175667Y-65319700D01*
X134988333Y-65319700D01*
X134804605Y-65283154D01*
X134631534Y-65211466D01*
X134554182Y-65159781D01*
X134475773Y-65107390D01*
X134343310Y-64974927D01*
X134239235Y-64819167D01*
X134239234Y-64819166D01*
X134167546Y-64646095D01*
X134131000Y-64462367D01*
X134131000Y-64275033D01*
X134167546Y-64091305D01*
X134239234Y-63918234D01*
X134297121Y-63831600D01*
X134343310Y-63762473D01*
X134475773Y-63630010D01*
X134631533Y-63525935D01*
X134631534Y-63525934D01*
X134804605Y-63454246D01*
X134988333Y-63417700D01*
X135175667Y-63417700D01*
X135359395Y-63454246D01*
X135359395Y-63454246D01*
G37*
G36*
X126212228Y-62162303D02*
G01*
X126367100Y-62226453D01*
X126506481Y-62319585D01*
X126625015Y-62438119D01*
X126718147Y-62577500D01*
X126782297Y-62732372D01*
X126815000Y-62896784D01*
X126815000Y-63064416D01*
X126782297Y-63228828D01*
X126718147Y-63383700D01*
X126625015Y-63523081D01*
X126506481Y-63641615D01*
X126367100Y-63734747D01*
X126212228Y-63798897D01*
X126047816Y-63831600D01*
X125880184Y-63831600D01*
X125715772Y-63798897D01*
X125560900Y-63734747D01*
X125421519Y-63641615D01*
X125302985Y-63523081D01*
X125209853Y-63383700D01*
X125145703Y-63228828D01*
X125113000Y-63064416D01*
X125113000Y-62896784D01*
X125145703Y-62732372D01*
X125209853Y-62577500D01*
X125302985Y-62438119D01*
X125421519Y-62319585D01*
X125560900Y-62226453D01*
X125715772Y-62162303D01*
X125880184Y-62129600D01*
X126047816Y-62129600D01*
X126212228Y-62162303D01*
X126212228Y-62162303D01*
G37*
G36*
X134316000Y-60487000D02*
G01*
X130214000Y-60487000D01*
X130214000Y-58385000D01*
X134316000Y-58385000D01*
X134316000Y-60487000D01*
X134316000Y-60487000D01*
G37*
G36*
X118771000Y-59443700D02*
G01*
X117069000Y-59443700D01*
X117069000Y-57741700D01*
X118771000Y-57741700D01*
X118771000Y-59443700D01*
X118771000Y-59443700D01*
G37*
G36*
X133018097Y-52390069D02*
G01*
X133121032Y-52400207D01*
X133319146Y-52460305D01*
X133319149Y-52460306D01*
X133415975Y-52512061D01*
X133501729Y-52557897D01*
X133661765Y-52689235D01*
X133793103Y-52849271D01*
X133837154Y-52931685D01*
X133890694Y-53031851D01*
X133890695Y-53031854D01*
X133950793Y-53229968D01*
X133971085Y-53436000D01*
X133950793Y-53642032D01*
X133911146Y-53772728D01*
X133890694Y-53840149D01*
X133841189Y-53932765D01*
X133793103Y-54022729D01*
X133661765Y-54182765D01*
X133501729Y-54314103D01*
X133440469Y-54346847D01*
X133319149Y-54411694D01*
X133319146Y-54411695D01*
X133121032Y-54471793D01*
X133018097Y-54481931D01*
X132966631Y-54487000D01*
X131563369Y-54487000D01*
X131511903Y-54481931D01*
X131408968Y-54471793D01*
X131210854Y-54411695D01*
X131210851Y-54411694D01*
X131089531Y-54346847D01*
X131028271Y-54314103D01*
X130868235Y-54182765D01*
X130736897Y-54022729D01*
X130688811Y-53932765D01*
X130639306Y-53840149D01*
X130618854Y-53772728D01*
X130579207Y-53642032D01*
X130558915Y-53436000D01*
X130579207Y-53229968D01*
X130639305Y-53031854D01*
X130639306Y-53031851D01*
X130692846Y-52931685D01*
X130736897Y-52849271D01*
X130868235Y-52689235D01*
X131028271Y-52557897D01*
X131114025Y-52512061D01*
X131210851Y-52460306D01*
X131210854Y-52460305D01*
X131408968Y-52400207D01*
X131511903Y-52390069D01*
X131563369Y-52385000D01*
X132966631Y-52385000D01*
X133018097Y-52390069D01*
X133018097Y-52390069D01*
G37*
G36*
X118168228Y-52774403D02*
G01*
X118323100Y-52838553D01*
X118462481Y-52931685D01*
X118581015Y-53050219D01*
X118674147Y-53189600D01*
X118738297Y-53344472D01*
X118771000Y-53508884D01*
X118771000Y-53676516D01*
X118738297Y-53840928D01*
X118674147Y-53995800D01*
X118581015Y-54135181D01*
X118462481Y-54253715D01*
X118323100Y-54346847D01*
X118168228Y-54410997D01*
X118003816Y-54443700D01*
X117836184Y-54443700D01*
X117671772Y-54410997D01*
X117516900Y-54346847D01*
X117377519Y-54253715D01*
X117258985Y-54135181D01*
X117165853Y-53995800D01*
X117101703Y-53840928D01*
X117069000Y-53676516D01*
X117069000Y-53508884D01*
X117101703Y-53344472D01*
X117165853Y-53189600D01*
X117258985Y-53050219D01*
X117377519Y-52931685D01*
X117516900Y-52838553D01*
X117671772Y-52774403D01*
X117836184Y-52741700D01*
X118003816Y-52741700D01*
X118168228Y-52774403D01*
X118168228Y-52774403D01*
G37*
G36*
X127971032Y-50650207D02*
G01*
X128169146Y-50710305D01*
X128169149Y-50710306D01*
X128265975Y-50762061D01*
X128351729Y-50807897D01*
X128511765Y-50939235D01*
X128643103Y-51099271D01*
X128660610Y-51132025D01*
X128740694Y-51281851D01*
X128740695Y-51281854D01*
X128800793Y-51479968D01*
X128816000Y-51634370D01*
X128816000Y-53237630D01*
X128800793Y-53392032D01*
X128740695Y-53590145D01*
X128740694Y-53590149D01*
X128712963Y-53642030D01*
X128643103Y-53772729D01*
X128511765Y-53932765D01*
X128351729Y-54064103D01*
X128235030Y-54126479D01*
X128169148Y-54161694D01*
X128169145Y-54161695D01*
X127971031Y-54221793D01*
X127765000Y-54242085D01*
X127558968Y-54221793D01*
X127360854Y-54161695D01*
X127360851Y-54161694D01*
X127264025Y-54109939D01*
X127178271Y-54064103D01*
X127018235Y-53932765D01*
X126886897Y-53772729D01*
X126789307Y-53590149D01*
X126789306Y-53590148D01*
X126764655Y-53508885D01*
X126729207Y-53392031D01*
X126714000Y-53237629D01*
X126714000Y-51634370D01*
X126717820Y-51595585D01*
X126729207Y-51479967D01*
X126789305Y-51281854D01*
X126869391Y-51132025D01*
X126886898Y-51099271D01*
X127018236Y-50939235D01*
X127178272Y-50807897D01*
X127264026Y-50762061D01*
X127360852Y-50710306D01*
X127360855Y-50710305D01*
X127558969Y-50650207D01*
X127765000Y-50629915D01*
X127971032Y-50650207D01*
X127971032Y-50650207D01*
G37*
G36*
X136971032Y-50650207D02*
G01*
X137169146Y-50710305D01*
X137169149Y-50710306D01*
X137265975Y-50762061D01*
X137351729Y-50807897D01*
X137511765Y-50939235D01*
X137643103Y-51099271D01*
X137660610Y-51132025D01*
X137740694Y-51281851D01*
X137740695Y-51281854D01*
X137800793Y-51479968D01*
X137816000Y-51634370D01*
X137816000Y-53237630D01*
X137800793Y-53392032D01*
X137740695Y-53590145D01*
X137740694Y-53590149D01*
X137712963Y-53642030D01*
X137643103Y-53772729D01*
X137511765Y-53932765D01*
X137351729Y-54064103D01*
X137235030Y-54126479D01*
X137169148Y-54161694D01*
X137169145Y-54161695D01*
X136971031Y-54221793D01*
X136765000Y-54242085D01*
X136558968Y-54221793D01*
X136360854Y-54161695D01*
X136360851Y-54161694D01*
X136264025Y-54109939D01*
X136178271Y-54064103D01*
X136018235Y-53932765D01*
X135886897Y-53772729D01*
X135789307Y-53590149D01*
X135789306Y-53590148D01*
X135764655Y-53508885D01*
X135729207Y-53392031D01*
X135714000Y-53237629D01*
X135714000Y-51634370D01*
X135717820Y-51595585D01*
X135729207Y-51479967D01*
X135789305Y-51281854D01*
X135869391Y-51132025D01*
X135886898Y-51099271D01*
X136018236Y-50939235D01*
X136178272Y-50807897D01*
X136264026Y-50762061D01*
X136360852Y-50710306D01*
X136360855Y-50710305D01*
X136558969Y-50650207D01*
X136765000Y-50629915D01*
X136971032Y-50650207D01*
X136971032Y-50650207D01*
G37*
G36*
X96719443Y-50060919D02*
G01*
X96785627Y-50067437D01*
X96955466Y-50118957D01*
X97111991Y-50202622D01*
X97147729Y-50231952D01*
X97249186Y-50315214D01*
X97332448Y-50416671D01*
X97361778Y-50452409D01*
X97445443Y-50608934D01*
X97496963Y-50778773D01*
X97514359Y-50955400D01*
X97496963Y-51132027D01*
X97445443Y-51301866D01*
X97361778Y-51458391D01*
X97344071Y-51479967D01*
X97249186Y-51595586D01*
X97172916Y-51658178D01*
X97111991Y-51708178D01*
X96955466Y-51791843D01*
X96785627Y-51843363D01*
X96719443Y-51849881D01*
X96653260Y-51856400D01*
X96564740Y-51856400D01*
X96498558Y-51849882D01*
X96432373Y-51843363D01*
X96262534Y-51791843D01*
X96106009Y-51708178D01*
X96045084Y-51658178D01*
X95968814Y-51595586D01*
X95873929Y-51479967D01*
X95856222Y-51458391D01*
X95772557Y-51301866D01*
X95721037Y-51132027D01*
X95703641Y-50955400D01*
X95721037Y-50778773D01*
X95772557Y-50608934D01*
X95856222Y-50452409D01*
X95885552Y-50416671D01*
X95968814Y-50315214D01*
X96070271Y-50231952D01*
X96106009Y-50202622D01*
X96262534Y-50118957D01*
X96432373Y-50067437D01*
X96498557Y-50060919D01*
X96564740Y-50054400D01*
X96653260Y-50054400D01*
X96719443Y-50060919D01*
X96719443Y-50060919D01*
G37*
G36*
X110210000Y-51856400D02*
G01*
X108408000Y-51856400D01*
X108408000Y-50054400D01*
X110210000Y-50054400D01*
X110210000Y-51856400D01*
X110210000Y-51856400D01*
G37*
G36*
X106879443Y-50060919D02*
G01*
X106945627Y-50067437D01*
X107115466Y-50118957D01*
X107271991Y-50202622D01*
X107307729Y-50231952D01*
X107409186Y-50315214D01*
X107492448Y-50416671D01*
X107521778Y-50452409D01*
X107605443Y-50608934D01*
X107656963Y-50778773D01*
X107674359Y-50955400D01*
X107656963Y-51132027D01*
X107605443Y-51301866D01*
X107521778Y-51458391D01*
X107504071Y-51479967D01*
X107409186Y-51595586D01*
X107332916Y-51658178D01*
X107271991Y-51708178D01*
X107115466Y-51791843D01*
X106945627Y-51843363D01*
X106879443Y-51849881D01*
X106813260Y-51856400D01*
X106724740Y-51856400D01*
X106658558Y-51849882D01*
X106592373Y-51843363D01*
X106422534Y-51791843D01*
X106266009Y-51708178D01*
X106205084Y-51658178D01*
X106128814Y-51595586D01*
X106033929Y-51479967D01*
X106016222Y-51458391D01*
X105932557Y-51301866D01*
X105881037Y-51132027D01*
X105863641Y-50955400D01*
X105881037Y-50778773D01*
X105932557Y-50608934D01*
X106016222Y-50452409D01*
X106045552Y-50416671D01*
X106128814Y-50315214D01*
X106230271Y-50231952D01*
X106266009Y-50202622D01*
X106422534Y-50118957D01*
X106592373Y-50067437D01*
X106658557Y-50060919D01*
X106724740Y-50054400D01*
X106813260Y-50054400D01*
X106879443Y-50060919D01*
X106879443Y-50060919D01*
G37*
G36*
X104339443Y-50060919D02*
G01*
X104405627Y-50067437D01*
X104575466Y-50118957D01*
X104731991Y-50202622D01*
X104767729Y-50231952D01*
X104869186Y-50315214D01*
X104952448Y-50416671D01*
X104981778Y-50452409D01*
X105065443Y-50608934D01*
X105116963Y-50778773D01*
X105134359Y-50955400D01*
X105116963Y-51132027D01*
X105065443Y-51301866D01*
X104981778Y-51458391D01*
X104964071Y-51479967D01*
X104869186Y-51595586D01*
X104792916Y-51658178D01*
X104731991Y-51708178D01*
X104575466Y-51791843D01*
X104405627Y-51843363D01*
X104339443Y-51849881D01*
X104273260Y-51856400D01*
X104184740Y-51856400D01*
X104118558Y-51849882D01*
X104052373Y-51843363D01*
X103882534Y-51791843D01*
X103726009Y-51708178D01*
X103665084Y-51658178D01*
X103588814Y-51595586D01*
X103493929Y-51479967D01*
X103476222Y-51458391D01*
X103392557Y-51301866D01*
X103341037Y-51132027D01*
X103323641Y-50955400D01*
X103341037Y-50778773D01*
X103392557Y-50608934D01*
X103476222Y-50452409D01*
X103505552Y-50416671D01*
X103588814Y-50315214D01*
X103690271Y-50231952D01*
X103726009Y-50202622D01*
X103882534Y-50118957D01*
X104052373Y-50067437D01*
X104118557Y-50060919D01*
X104184740Y-50054400D01*
X104273260Y-50054400D01*
X104339443Y-50060919D01*
X104339443Y-50060919D01*
G37*
G36*
X101799443Y-50060919D02*
G01*
X101865627Y-50067437D01*
X102035466Y-50118957D01*
X102191991Y-50202622D01*
X102227729Y-50231952D01*
X102329186Y-50315214D01*
X102412448Y-50416671D01*
X102441778Y-50452409D01*
X102525443Y-50608934D01*
X102576963Y-50778773D01*
X102594359Y-50955400D01*
X102576963Y-51132027D01*
X102525443Y-51301866D01*
X102441778Y-51458391D01*
X102424071Y-51479967D01*
X102329186Y-51595586D01*
X102252916Y-51658178D01*
X102191991Y-51708178D01*
X102035466Y-51791843D01*
X101865627Y-51843363D01*
X101799443Y-51849881D01*
X101733260Y-51856400D01*
X101644740Y-51856400D01*
X101578558Y-51849882D01*
X101512373Y-51843363D01*
X101342534Y-51791843D01*
X101186009Y-51708178D01*
X101125084Y-51658178D01*
X101048814Y-51595586D01*
X100953929Y-51479967D01*
X100936222Y-51458391D01*
X100852557Y-51301866D01*
X100801037Y-51132027D01*
X100783641Y-50955400D01*
X100801037Y-50778773D01*
X100852557Y-50608934D01*
X100936222Y-50452409D01*
X100965552Y-50416671D01*
X101048814Y-50315214D01*
X101150271Y-50231952D01*
X101186009Y-50202622D01*
X101342534Y-50118957D01*
X101512373Y-50067437D01*
X101578557Y-50060919D01*
X101644740Y-50054400D01*
X101733260Y-50054400D01*
X101799443Y-50060919D01*
X101799443Y-50060919D01*
G37*
G36*
X94179443Y-50060919D02*
G01*
X94245627Y-50067437D01*
X94415466Y-50118957D01*
X94571991Y-50202622D01*
X94607729Y-50231952D01*
X94709186Y-50315214D01*
X94792448Y-50416671D01*
X94821778Y-50452409D01*
X94905443Y-50608934D01*
X94956963Y-50778773D01*
X94974359Y-50955400D01*
X94956963Y-51132027D01*
X94905443Y-51301866D01*
X94821778Y-51458391D01*
X94804071Y-51479967D01*
X94709186Y-51595586D01*
X94632916Y-51658178D01*
X94571991Y-51708178D01*
X94415466Y-51791843D01*
X94245627Y-51843363D01*
X94179443Y-51849881D01*
X94113260Y-51856400D01*
X94024740Y-51856400D01*
X93958558Y-51849882D01*
X93892373Y-51843363D01*
X93722534Y-51791843D01*
X93566009Y-51708178D01*
X93505084Y-51658178D01*
X93428814Y-51595586D01*
X93333929Y-51479967D01*
X93316222Y-51458391D01*
X93232557Y-51301866D01*
X93181037Y-51132027D01*
X93163641Y-50955400D01*
X93181037Y-50778773D01*
X93232557Y-50608934D01*
X93316222Y-50452409D01*
X93345552Y-50416671D01*
X93428814Y-50315214D01*
X93530271Y-50231952D01*
X93566009Y-50202622D01*
X93722534Y-50118957D01*
X93892373Y-50067437D01*
X93958557Y-50060919D01*
X94024740Y-50054400D01*
X94113260Y-50054400D01*
X94179443Y-50060919D01*
X94179443Y-50060919D01*
G37*
G36*
X91639443Y-50060919D02*
G01*
X91705627Y-50067437D01*
X91875466Y-50118957D01*
X92031991Y-50202622D01*
X92067729Y-50231952D01*
X92169186Y-50315214D01*
X92252448Y-50416671D01*
X92281778Y-50452409D01*
X92365443Y-50608934D01*
X92416963Y-50778773D01*
X92434359Y-50955400D01*
X92416963Y-51132027D01*
X92365443Y-51301866D01*
X92281778Y-51458391D01*
X92264071Y-51479967D01*
X92169186Y-51595586D01*
X92092916Y-51658178D01*
X92031991Y-51708178D01*
X91875466Y-51791843D01*
X91705627Y-51843363D01*
X91639443Y-51849881D01*
X91573260Y-51856400D01*
X91484740Y-51856400D01*
X91418558Y-51849882D01*
X91352373Y-51843363D01*
X91182534Y-51791843D01*
X91026009Y-51708178D01*
X90965084Y-51658178D01*
X90888814Y-51595586D01*
X90793929Y-51479967D01*
X90776222Y-51458391D01*
X90692557Y-51301866D01*
X90641037Y-51132027D01*
X90623641Y-50955400D01*
X90641037Y-50778773D01*
X90692557Y-50608934D01*
X90776222Y-50452409D01*
X90805552Y-50416671D01*
X90888814Y-50315214D01*
X90990271Y-50231952D01*
X91026009Y-50202622D01*
X91182534Y-50118957D01*
X91352373Y-50067437D01*
X91418557Y-50060919D01*
X91484740Y-50054400D01*
X91573260Y-50054400D01*
X91639443Y-50060919D01*
X91639443Y-50060919D01*
G37*
G36*
X99259443Y-50060919D02*
G01*
X99325627Y-50067437D01*
X99495466Y-50118957D01*
X99651991Y-50202622D01*
X99687729Y-50231952D01*
X99789186Y-50315214D01*
X99872448Y-50416671D01*
X99901778Y-50452409D01*
X99985443Y-50608934D01*
X100036963Y-50778773D01*
X100054359Y-50955400D01*
X100036963Y-51132027D01*
X99985443Y-51301866D01*
X99901778Y-51458391D01*
X99884071Y-51479967D01*
X99789186Y-51595586D01*
X99712916Y-51658178D01*
X99651991Y-51708178D01*
X99495466Y-51791843D01*
X99325627Y-51843363D01*
X99259443Y-51849881D01*
X99193260Y-51856400D01*
X99104740Y-51856400D01*
X99038558Y-51849882D01*
X98972373Y-51843363D01*
X98802534Y-51791843D01*
X98646009Y-51708178D01*
X98585084Y-51658178D01*
X98508814Y-51595586D01*
X98413929Y-51479967D01*
X98396222Y-51458391D01*
X98312557Y-51301866D01*
X98261037Y-51132027D01*
X98243641Y-50955400D01*
X98261037Y-50778773D01*
X98312557Y-50608934D01*
X98396222Y-50452409D01*
X98425552Y-50416671D01*
X98508814Y-50315214D01*
X98610271Y-50231952D01*
X98646009Y-50202622D01*
X98802534Y-50118957D01*
X98972373Y-50067437D01*
X99038557Y-50060919D01*
X99104740Y-50054400D01*
X99193260Y-50054400D01*
X99259443Y-50060919D01*
X99259443Y-50060919D01*
G37*
G36*
X66125042Y-50010918D02*
G01*
X66191227Y-50017437D01*
X66361066Y-50068957D01*
X66517591Y-50152622D01*
X66553329Y-50181952D01*
X66654786Y-50265214D01*
X66726159Y-50352184D01*
X66767378Y-50402409D01*
X66851043Y-50558934D01*
X66902563Y-50728773D01*
X66919959Y-50905400D01*
X66902563Y-51082027D01*
X66851043Y-51251866D01*
X66767378Y-51408391D01*
X66738048Y-51444129D01*
X66654786Y-51545586D01*
X66553329Y-51628848D01*
X66517591Y-51658178D01*
X66361066Y-51741843D01*
X66191227Y-51793363D01*
X66125042Y-51799882D01*
X66058860Y-51806400D01*
X65970340Y-51806400D01*
X65904158Y-51799882D01*
X65837973Y-51793363D01*
X65668134Y-51741843D01*
X65511609Y-51658178D01*
X65475871Y-51628848D01*
X65374414Y-51545586D01*
X65291152Y-51444129D01*
X65261822Y-51408391D01*
X65178157Y-51251866D01*
X65126637Y-51082027D01*
X65109241Y-50905400D01*
X65126637Y-50728773D01*
X65178157Y-50558934D01*
X65261822Y-50402409D01*
X65303041Y-50352184D01*
X65374414Y-50265214D01*
X65475871Y-50181952D01*
X65511609Y-50152622D01*
X65668134Y-50068957D01*
X65837973Y-50017437D01*
X65904158Y-50010918D01*
X65970340Y-50004400D01*
X66058860Y-50004400D01*
X66125042Y-50010918D01*
X66125042Y-50010918D01*
G37*
G36*
X81365042Y-50010918D02*
G01*
X81431227Y-50017437D01*
X81601066Y-50068957D01*
X81757591Y-50152622D01*
X81793329Y-50181952D01*
X81894786Y-50265214D01*
X81966159Y-50352184D01*
X82007378Y-50402409D01*
X82091043Y-50558934D01*
X82142563Y-50728773D01*
X82159959Y-50905400D01*
X82142563Y-51082027D01*
X82091043Y-51251866D01*
X82007378Y-51408391D01*
X81978048Y-51444129D01*
X81894786Y-51545586D01*
X81793329Y-51628848D01*
X81757591Y-51658178D01*
X81601066Y-51741843D01*
X81431227Y-51793363D01*
X81365042Y-51799882D01*
X81298860Y-51806400D01*
X81210340Y-51806400D01*
X81144158Y-51799882D01*
X81077973Y-51793363D01*
X80908134Y-51741843D01*
X80751609Y-51658178D01*
X80715871Y-51628848D01*
X80614414Y-51545586D01*
X80531152Y-51444129D01*
X80501822Y-51408391D01*
X80418157Y-51251866D01*
X80366637Y-51082027D01*
X80349241Y-50905400D01*
X80366637Y-50728773D01*
X80418157Y-50558934D01*
X80501822Y-50402409D01*
X80543041Y-50352184D01*
X80614414Y-50265214D01*
X80715871Y-50181952D01*
X80751609Y-50152622D01*
X80908134Y-50068957D01*
X81077973Y-50017437D01*
X81144158Y-50010918D01*
X81210340Y-50004400D01*
X81298860Y-50004400D01*
X81365042Y-50010918D01*
X81365042Y-50010918D01*
G37*
G36*
X78825042Y-50010918D02*
G01*
X78891227Y-50017437D01*
X79061066Y-50068957D01*
X79217591Y-50152622D01*
X79253329Y-50181952D01*
X79354786Y-50265214D01*
X79426159Y-50352184D01*
X79467378Y-50402409D01*
X79551043Y-50558934D01*
X79602563Y-50728773D01*
X79619959Y-50905400D01*
X79602563Y-51082027D01*
X79551043Y-51251866D01*
X79467378Y-51408391D01*
X79438048Y-51444129D01*
X79354786Y-51545586D01*
X79253329Y-51628848D01*
X79217591Y-51658178D01*
X79061066Y-51741843D01*
X78891227Y-51793363D01*
X78825042Y-51799882D01*
X78758860Y-51806400D01*
X78670340Y-51806400D01*
X78604158Y-51799882D01*
X78537973Y-51793363D01*
X78368134Y-51741843D01*
X78211609Y-51658178D01*
X78175871Y-51628848D01*
X78074414Y-51545586D01*
X77991152Y-51444129D01*
X77961822Y-51408391D01*
X77878157Y-51251866D01*
X77826637Y-51082027D01*
X77809241Y-50905400D01*
X77826637Y-50728773D01*
X77878157Y-50558934D01*
X77961822Y-50402409D01*
X78003041Y-50352184D01*
X78074414Y-50265214D01*
X78175871Y-50181952D01*
X78211609Y-50152622D01*
X78368134Y-50068957D01*
X78537973Y-50017437D01*
X78604158Y-50010918D01*
X78670340Y-50004400D01*
X78758860Y-50004400D01*
X78825042Y-50010918D01*
X78825042Y-50010918D01*
G37*
G36*
X64375600Y-51806400D02*
G01*
X62573600Y-51806400D01*
X62573600Y-50004400D01*
X64375600Y-50004400D01*
X64375600Y-51806400D01*
X64375600Y-51806400D01*
G37*
G36*
X76285042Y-50010918D02*
G01*
X76351227Y-50017437D01*
X76521066Y-50068957D01*
X76677591Y-50152622D01*
X76713329Y-50181952D01*
X76814786Y-50265214D01*
X76886159Y-50352184D01*
X76927378Y-50402409D01*
X77011043Y-50558934D01*
X77062563Y-50728773D01*
X77079959Y-50905400D01*
X77062563Y-51082027D01*
X77011043Y-51251866D01*
X76927378Y-51408391D01*
X76898048Y-51444129D01*
X76814786Y-51545586D01*
X76713329Y-51628848D01*
X76677591Y-51658178D01*
X76521066Y-51741843D01*
X76351227Y-51793363D01*
X76285042Y-51799882D01*
X76218860Y-51806400D01*
X76130340Y-51806400D01*
X76064158Y-51799882D01*
X75997973Y-51793363D01*
X75828134Y-51741843D01*
X75671609Y-51658178D01*
X75635871Y-51628848D01*
X75534414Y-51545586D01*
X75451152Y-51444129D01*
X75421822Y-51408391D01*
X75338157Y-51251866D01*
X75286637Y-51082027D01*
X75269241Y-50905400D01*
X75286637Y-50728773D01*
X75338157Y-50558934D01*
X75421822Y-50402409D01*
X75463041Y-50352184D01*
X75534414Y-50265214D01*
X75635871Y-50181952D01*
X75671609Y-50152622D01*
X75828134Y-50068957D01*
X75997973Y-50017437D01*
X76064158Y-50010918D01*
X76130340Y-50004400D01*
X76218860Y-50004400D01*
X76285042Y-50010918D01*
X76285042Y-50010918D01*
G37*
G36*
X68665042Y-50010918D02*
G01*
X68731227Y-50017437D01*
X68901066Y-50068957D01*
X69057591Y-50152622D01*
X69093329Y-50181952D01*
X69194786Y-50265214D01*
X69266159Y-50352184D01*
X69307378Y-50402409D01*
X69391043Y-50558934D01*
X69442563Y-50728773D01*
X69459959Y-50905400D01*
X69442563Y-51082027D01*
X69391043Y-51251866D01*
X69307378Y-51408391D01*
X69278048Y-51444129D01*
X69194786Y-51545586D01*
X69093329Y-51628848D01*
X69057591Y-51658178D01*
X68901066Y-51741843D01*
X68731227Y-51793363D01*
X68665042Y-51799882D01*
X68598860Y-51806400D01*
X68510340Y-51806400D01*
X68444158Y-51799882D01*
X68377973Y-51793363D01*
X68208134Y-51741843D01*
X68051609Y-51658178D01*
X68015871Y-51628848D01*
X67914414Y-51545586D01*
X67831152Y-51444129D01*
X67801822Y-51408391D01*
X67718157Y-51251866D01*
X67666637Y-51082027D01*
X67649241Y-50905400D01*
X67666637Y-50728773D01*
X67718157Y-50558934D01*
X67801822Y-50402409D01*
X67843041Y-50352184D01*
X67914414Y-50265214D01*
X68015871Y-50181952D01*
X68051609Y-50152622D01*
X68208134Y-50068957D01*
X68377973Y-50017437D01*
X68444158Y-50010918D01*
X68510340Y-50004400D01*
X68598860Y-50004400D01*
X68665042Y-50010918D01*
X68665042Y-50010918D01*
G37*
G36*
X73745042Y-50010918D02*
G01*
X73811227Y-50017437D01*
X73981066Y-50068957D01*
X74137591Y-50152622D01*
X74173329Y-50181952D01*
X74274786Y-50265214D01*
X74346159Y-50352184D01*
X74387378Y-50402409D01*
X74471043Y-50558934D01*
X74522563Y-50728773D01*
X74539959Y-50905400D01*
X74522563Y-51082027D01*
X74471043Y-51251866D01*
X74387378Y-51408391D01*
X74358048Y-51444129D01*
X74274786Y-51545586D01*
X74173329Y-51628848D01*
X74137591Y-51658178D01*
X73981066Y-51741843D01*
X73811227Y-51793363D01*
X73745042Y-51799882D01*
X73678860Y-51806400D01*
X73590340Y-51806400D01*
X73524158Y-51799882D01*
X73457973Y-51793363D01*
X73288134Y-51741843D01*
X73131609Y-51658178D01*
X73095871Y-51628848D01*
X72994414Y-51545586D01*
X72911152Y-51444129D01*
X72881822Y-51408391D01*
X72798157Y-51251866D01*
X72746637Y-51082027D01*
X72729241Y-50905400D01*
X72746637Y-50728773D01*
X72798157Y-50558934D01*
X72881822Y-50402409D01*
X72923041Y-50352184D01*
X72994414Y-50265214D01*
X73095871Y-50181952D01*
X73131609Y-50152622D01*
X73288134Y-50068957D01*
X73457973Y-50017437D01*
X73524158Y-50010918D01*
X73590340Y-50004400D01*
X73678860Y-50004400D01*
X73745042Y-50010918D01*
X73745042Y-50010918D01*
G37*
G36*
X71205042Y-50010918D02*
G01*
X71271227Y-50017437D01*
X71441066Y-50068957D01*
X71597591Y-50152622D01*
X71633329Y-50181952D01*
X71734786Y-50265214D01*
X71806159Y-50352184D01*
X71847378Y-50402409D01*
X71931043Y-50558934D01*
X71982563Y-50728773D01*
X71999959Y-50905400D01*
X71982563Y-51082027D01*
X71931043Y-51251866D01*
X71847378Y-51408391D01*
X71818048Y-51444129D01*
X71734786Y-51545586D01*
X71633329Y-51628848D01*
X71597591Y-51658178D01*
X71441066Y-51741843D01*
X71271227Y-51793363D01*
X71205042Y-51799882D01*
X71138860Y-51806400D01*
X71050340Y-51806400D01*
X70984158Y-51799882D01*
X70917973Y-51793363D01*
X70748134Y-51741843D01*
X70591609Y-51658178D01*
X70555871Y-51628848D01*
X70454414Y-51545586D01*
X70371152Y-51444129D01*
X70341822Y-51408391D01*
X70258157Y-51251866D01*
X70206637Y-51082027D01*
X70189241Y-50905400D01*
X70206637Y-50728773D01*
X70258157Y-50558934D01*
X70341822Y-50402409D01*
X70383041Y-50352184D01*
X70454414Y-50265214D01*
X70555871Y-50181952D01*
X70591609Y-50152622D01*
X70748134Y-50068957D01*
X70917973Y-50017437D01*
X70984158Y-50010918D01*
X71050340Y-50004400D01*
X71138860Y-50004400D01*
X71205042Y-50010918D01*
X71205042Y-50010918D01*
G37*
G36*
X132513228Y-49617703D02*
G01*
X132668100Y-49681853D01*
X132807481Y-49774985D01*
X132926015Y-49893519D01*
X133019147Y-50032900D01*
X133083297Y-50187772D01*
X133116000Y-50352184D01*
X133116000Y-50519816D01*
X133083297Y-50684228D01*
X133019147Y-50839100D01*
X132926015Y-50978481D01*
X132807481Y-51097015D01*
X132668100Y-51190147D01*
X132513228Y-51254297D01*
X132348816Y-51287000D01*
X132181184Y-51287000D01*
X132016772Y-51254297D01*
X131861900Y-51190147D01*
X131722519Y-51097015D01*
X131603985Y-50978481D01*
X131510853Y-50839100D01*
X131446703Y-50684228D01*
X131414000Y-50519816D01*
X131414000Y-50352184D01*
X131446703Y-50187772D01*
X131510853Y-50032900D01*
X131603985Y-49893519D01*
X131722519Y-49774985D01*
X131861900Y-49681853D01*
X132016772Y-49617703D01*
X132181184Y-49585000D01*
X132348816Y-49585000D01*
X132513228Y-49617703D01*
X132513228Y-49617703D01*
G37*
M02*
