G04 #@! TF.GenerationSoftware,KiCad,Pcbnew,5.1.4-3.fc30*
G04 #@! TF.CreationDate,2019-09-19T02:18:24+02:00*
G04 #@! TF.ProjectId,avr_dev_board_atmega16,6176725f-6465-4765-9f62-6f6172645f61,1_0*
G04 #@! TF.SameCoordinates,Original*
G04 #@! TF.FileFunction,Legend,Top*
G04 #@! TF.FilePolarity,Positive*
%FSLAX46Y46*%
G04 Gerber Fmt 4.6, Leading zero omitted, Abs format (unit mm)*
G04 Created by KiCad (PCBNEW 5.1.4-3.fc30) date 2019-09-19 02:18:24*
%MOMM*%
%LPD*%
G04 APERTURE LIST*
%ADD10C,0.300000*%
%ADD11C,0.120000*%
%ADD12C,0.150000*%
G04 APERTURE END LIST*
D10*
X68179755Y-65779973D02*
X69132136Y-65779973D01*
X67989279Y-66351401D02*
X68655945Y-64351401D01*
X69322612Y-66351401D01*
X69703564Y-65018068D02*
X70465469Y-65018068D01*
X69989279Y-64351401D02*
X69989279Y-66065687D01*
X70084517Y-66256163D01*
X70274993Y-66351401D01*
X70465469Y-66351401D01*
X71132136Y-66351401D02*
X71132136Y-65018068D01*
X71132136Y-65208544D02*
X71227374Y-65113306D01*
X71417850Y-65018068D01*
X71703564Y-65018068D01*
X71894040Y-65113306D01*
X71989279Y-65303782D01*
X71989279Y-66351401D01*
X71989279Y-65303782D02*
X72084517Y-65113306D01*
X72274993Y-65018068D01*
X72560707Y-65018068D01*
X72751183Y-65113306D01*
X72846421Y-65303782D01*
X72846421Y-66351401D01*
X74560707Y-66256163D02*
X74370231Y-66351401D01*
X73989279Y-66351401D01*
X73798802Y-66256163D01*
X73703564Y-66065687D01*
X73703564Y-65303782D01*
X73798802Y-65113306D01*
X73989279Y-65018068D01*
X74370231Y-65018068D01*
X74560707Y-65113306D01*
X74655945Y-65303782D01*
X74655945Y-65494259D01*
X73703564Y-65684735D01*
X76370231Y-65018068D02*
X76370231Y-66637116D01*
X76274993Y-66827592D01*
X76179755Y-66922830D01*
X75989279Y-67018068D01*
X75703564Y-67018068D01*
X75513088Y-66922830D01*
X76370231Y-66256163D02*
X76179755Y-66351401D01*
X75798802Y-66351401D01*
X75608326Y-66256163D01*
X75513088Y-66160925D01*
X75417850Y-65970449D01*
X75417850Y-65399020D01*
X75513088Y-65208544D01*
X75608326Y-65113306D01*
X75798802Y-65018068D01*
X76179755Y-65018068D01*
X76370231Y-65113306D01*
X78179755Y-66351401D02*
X78179755Y-65303782D01*
X78084517Y-65113306D01*
X77894040Y-65018068D01*
X77513088Y-65018068D01*
X77322612Y-65113306D01*
X78179755Y-66256163D02*
X77989279Y-66351401D01*
X77513088Y-66351401D01*
X77322612Y-66256163D01*
X77227374Y-66065687D01*
X77227374Y-65875211D01*
X77322612Y-65684735D01*
X77513088Y-65589497D01*
X77989279Y-65589497D01*
X78179755Y-65494259D01*
X80179755Y-66351401D02*
X79036898Y-66351401D01*
X79608326Y-66351401D02*
X79608326Y-64351401D01*
X79417850Y-64637116D01*
X79227374Y-64827592D01*
X79036898Y-64922830D01*
X81894040Y-64351401D02*
X81513088Y-64351401D01*
X81322612Y-64446640D01*
X81227374Y-64541878D01*
X81036898Y-64827592D01*
X80941660Y-65208544D01*
X80941660Y-65970449D01*
X81036898Y-66160925D01*
X81132136Y-66256163D01*
X81322612Y-66351401D01*
X81703564Y-66351401D01*
X81894040Y-66256163D01*
X81989279Y-66160925D01*
X82084517Y-65970449D01*
X82084517Y-65494259D01*
X81989279Y-65303782D01*
X81894040Y-65208544D01*
X81703564Y-65113306D01*
X81322612Y-65113306D01*
X81132136Y-65208544D01*
X81036898Y-65303782D01*
X80941660Y-65494259D01*
X82846421Y-65779973D02*
X83798802Y-65779973D01*
X82655945Y-66351401D02*
X83322612Y-64351401D01*
X83989279Y-66351401D01*
X86179755Y-66351401D02*
X86179755Y-64351401D01*
X86655945Y-64351401D01*
X86941660Y-64446640D01*
X87132136Y-64637116D01*
X87227374Y-64827592D01*
X87322612Y-65208544D01*
X87322612Y-65494259D01*
X87227374Y-65875211D01*
X87132136Y-66065687D01*
X86941660Y-66256163D01*
X86655945Y-66351401D01*
X86179755Y-66351401D01*
X88941660Y-66256163D02*
X88751183Y-66351401D01*
X88370231Y-66351401D01*
X88179755Y-66256163D01*
X88084517Y-66065687D01*
X88084517Y-65303782D01*
X88179755Y-65113306D01*
X88370231Y-65018068D01*
X88751183Y-65018068D01*
X88941660Y-65113306D01*
X89036898Y-65303782D01*
X89036898Y-65494259D01*
X88084517Y-65684735D01*
X89703564Y-65018068D02*
X90179755Y-66351401D01*
X90655945Y-65018068D01*
X93608326Y-65303782D02*
X93894040Y-65399020D01*
X93989279Y-65494259D01*
X94084517Y-65684735D01*
X94084517Y-65970449D01*
X93989279Y-66160925D01*
X93894040Y-66256163D01*
X93703564Y-66351401D01*
X92941659Y-66351401D01*
X92941659Y-64351401D01*
X93608326Y-64351401D01*
X93798802Y-64446640D01*
X93894040Y-64541878D01*
X93989279Y-64732354D01*
X93989279Y-64922830D01*
X93894040Y-65113306D01*
X93798802Y-65208544D01*
X93608326Y-65303782D01*
X92941659Y-65303782D01*
X95227374Y-66351401D02*
X95036898Y-66256163D01*
X94941659Y-66160925D01*
X94846421Y-65970449D01*
X94846421Y-65399020D01*
X94941659Y-65208544D01*
X95036898Y-65113306D01*
X95227374Y-65018068D01*
X95513088Y-65018068D01*
X95703564Y-65113306D01*
X95798802Y-65208544D01*
X95894040Y-65399020D01*
X95894040Y-65970449D01*
X95798802Y-66160925D01*
X95703564Y-66256163D01*
X95513088Y-66351401D01*
X95227374Y-66351401D01*
X97608326Y-66351401D02*
X97608326Y-65303782D01*
X97513088Y-65113306D01*
X97322612Y-65018068D01*
X96941659Y-65018068D01*
X96751183Y-65113306D01*
X97608326Y-66256163D02*
X97417850Y-66351401D01*
X96941659Y-66351401D01*
X96751183Y-66256163D01*
X96655945Y-66065687D01*
X96655945Y-65875211D01*
X96751183Y-65684735D01*
X96941659Y-65589497D01*
X97417850Y-65589497D01*
X97608326Y-65494259D01*
X98560707Y-66351401D02*
X98560707Y-65018068D01*
X98560707Y-65399020D02*
X98655945Y-65208544D01*
X98751183Y-65113306D01*
X98941659Y-65018068D01*
X99132136Y-65018068D01*
X100655945Y-66351401D02*
X100655945Y-64351401D01*
X100655945Y-66256163D02*
X100465469Y-66351401D01*
X100084517Y-66351401D01*
X99894040Y-66256163D01*
X99798802Y-66160925D01*
X99703564Y-65970449D01*
X99703564Y-65399020D01*
X99798802Y-65208544D01*
X99894040Y-65113306D01*
X100084517Y-65018068D01*
X100465469Y-65018068D01*
X100655945Y-65113306D01*
X102941659Y-65018068D02*
X103417850Y-66351401D01*
X103894040Y-65018068D01*
X104560707Y-64541878D02*
X104655945Y-64446640D01*
X104846421Y-64351401D01*
X105322612Y-64351401D01*
X105513088Y-64446640D01*
X105608326Y-64541878D01*
X105703564Y-64732354D01*
X105703564Y-64922830D01*
X105608326Y-65208544D01*
X104465469Y-66351401D01*
X105703564Y-66351401D01*
X79179755Y-69651401D02*
X79179755Y-67651401D01*
X79179755Y-68413306D02*
X79370231Y-68318068D01*
X79751183Y-68318068D01*
X79941660Y-68413306D01*
X80036898Y-68508544D01*
X80132136Y-68699020D01*
X80132136Y-69270449D01*
X80036898Y-69460925D01*
X79941660Y-69556163D01*
X79751183Y-69651401D01*
X79370231Y-69651401D01*
X79179755Y-69556163D01*
X80798802Y-68318068D02*
X81274993Y-69651401D01*
X81751183Y-68318068D02*
X81274993Y-69651401D01*
X81084517Y-70127592D01*
X80989279Y-70222830D01*
X80798802Y-70318068D01*
X83941660Y-69556163D02*
X84227374Y-69651401D01*
X84703564Y-69651401D01*
X84894040Y-69556163D01*
X84989279Y-69460925D01*
X85084517Y-69270449D01*
X85084517Y-69079973D01*
X84989279Y-68889497D01*
X84894040Y-68794259D01*
X84703564Y-68699020D01*
X84322612Y-68603782D01*
X84132136Y-68508544D01*
X84036898Y-68413306D01*
X83941660Y-68222830D01*
X83941660Y-68032354D01*
X84036898Y-67841878D01*
X84132136Y-67746640D01*
X84322612Y-67651401D01*
X84798802Y-67651401D01*
X85084517Y-67746640D01*
X87274993Y-69841878D02*
X87084517Y-69746640D01*
X86894040Y-69556163D01*
X86608326Y-69270449D01*
X86417850Y-69175211D01*
X86227374Y-69175211D01*
X86322612Y-69651401D02*
X86132136Y-69556163D01*
X85941660Y-69365687D01*
X85846421Y-68984735D01*
X85846421Y-68318068D01*
X85941660Y-67937116D01*
X86132136Y-67746640D01*
X86322612Y-67651401D01*
X86703564Y-67651401D01*
X86894040Y-67746640D01*
X87084517Y-67937116D01*
X87179755Y-68318068D01*
X87179755Y-68984735D01*
X87084517Y-69365687D01*
X86894040Y-69556163D01*
X86703564Y-69651401D01*
X86322612Y-69651401D01*
X87846421Y-67651401D02*
X89179755Y-67651401D01*
X88322612Y-69651401D01*
X89941660Y-68603782D02*
X90608326Y-68603782D01*
X90894040Y-69651401D02*
X89941660Y-69651401D01*
X89941660Y-67651401D01*
X90894040Y-67651401D01*
X93084517Y-69841878D02*
X92894040Y-69746640D01*
X92703564Y-69556163D01*
X92417850Y-69270449D01*
X92227374Y-69175211D01*
X92036898Y-69175211D01*
X92132136Y-69651401D02*
X91941660Y-69556163D01*
X91751183Y-69365687D01*
X91655945Y-68984735D01*
X91655945Y-68318068D01*
X91751183Y-67937116D01*
X91941660Y-67746640D01*
X92132136Y-67651401D01*
X92513088Y-67651401D01*
X92703564Y-67746640D01*
X92894040Y-67937116D01*
X92989279Y-68318068D01*
X92989279Y-68984735D01*
X92894040Y-69365687D01*
X92703564Y-69556163D01*
X92513088Y-69651401D01*
X92132136Y-69651401D01*
X93846421Y-68603782D02*
X94513088Y-68603782D01*
X94798802Y-69651401D02*
X93846421Y-69651401D01*
X93846421Y-67651401D01*
X94798802Y-67651401D01*
D11*
X135603000Y-93526000D02*
X135603000Y-96066000D01*
X133063000Y-93526000D02*
X133063000Y-96066000D01*
X130523000Y-93526000D02*
X130523000Y-96066000D01*
X138183000Y-77636000D02*
X138183000Y-93526000D01*
X127943000Y-77636000D02*
X127943000Y-93526000D01*
X127943000Y-77636000D02*
X138183000Y-77636000D01*
X127943000Y-93526000D02*
X138183000Y-93526000D01*
X133578000Y-121535000D02*
X133908000Y-121535000D01*
X133578000Y-114995000D02*
X133578000Y-121535000D01*
X133908000Y-114995000D02*
X133578000Y-114995000D01*
X136318000Y-121535000D02*
X135988000Y-121535000D01*
X136318000Y-114995000D02*
X136318000Y-121535000D01*
X135988000Y-114995000D02*
X136318000Y-114995000D01*
X136932000Y-73107200D02*
X136932000Y-72777200D01*
X130392000Y-73107200D02*
X136932000Y-73107200D01*
X130392000Y-72777200D02*
X130392000Y-73107200D01*
X136932000Y-70367200D02*
X136932000Y-70697200D01*
X130392000Y-70367200D02*
X136932000Y-70367200D01*
X130392000Y-70697200D02*
X130392000Y-70367200D01*
X46133000Y-98566300D02*
X46133000Y-98896300D01*
X52673000Y-98566300D02*
X46133000Y-98566300D01*
X52673000Y-98896300D02*
X52673000Y-98566300D01*
X46133000Y-101306300D02*
X46133000Y-100976300D01*
X52673000Y-101306300D02*
X46133000Y-101306300D01*
X52673000Y-100976300D02*
X52673000Y-101306300D01*
X133265000Y-60736000D02*
X131265000Y-60736000D01*
X137375000Y-47326000D02*
X137375000Y-50386000D01*
X127155000Y-47326000D02*
X137375000Y-47326000D01*
X127155000Y-50386000D02*
X127155000Y-47326000D01*
X127155000Y-60546000D02*
X127155000Y-54486000D01*
X129965000Y-60546000D02*
X127155000Y-60546000D01*
X137375000Y-60546000D02*
X134565000Y-60546000D01*
X137375000Y-54486000D02*
X137375000Y-60546000D01*
X126078000Y-123155000D02*
X126078000Y-123311000D01*
X126078000Y-120839000D02*
X126078000Y-120995000D01*
X128679130Y-123154837D02*
G75*
G02X126597039Y-123155000I-1041130J1079837D01*
G01*
X128679130Y-120995163D02*
G75*
G03X126597039Y-120995000I-1041130J-1079837D01*
G01*
X129310335Y-123153608D02*
G75*
G02X126078000Y-123310516I-1672335J1078608D01*
G01*
X129310335Y-120996392D02*
G75*
G03X126078000Y-120839484I-1672335J-1078608D01*
G01*
X119522000Y-67366400D02*
X116582000Y-67366400D01*
X119522000Y-67606400D02*
X116582000Y-67606400D01*
X119522000Y-67486400D02*
X116582000Y-67486400D01*
X118052000Y-73046400D02*
X118052000Y-72026400D01*
X118052000Y-65566400D02*
X118052000Y-66586400D01*
X119522000Y-72026400D02*
X119522000Y-66586400D01*
X116582000Y-72026400D02*
X119522000Y-72026400D01*
X116582000Y-66586400D02*
X116582000Y-72026400D01*
X119522000Y-66586400D02*
X116582000Y-66586400D01*
X136162000Y-67198700D02*
X136318000Y-67198700D01*
X133846000Y-67198700D02*
X134002000Y-67198700D01*
X136161837Y-64597570D02*
G75*
G02X136162000Y-66679661I-1079837J-1041130D01*
G01*
X134002163Y-64597570D02*
G75*
G03X134002000Y-66679661I1079837J-1041130D01*
G01*
X136160608Y-63966365D02*
G75*
G02X136317516Y-67198700I-1078608J-1672335D01*
G01*
X134003392Y-63966365D02*
G75*
G03X133846484Y-67198700I1078608J-1672335D01*
G01*
X127969000Y-103270000D02*
X127969000Y-102955000D01*
X127969000Y-105695000D02*
X127969000Y-105380000D01*
X132909000Y-103270000D02*
X132909000Y-102955000D01*
X132909000Y-105695000D02*
X132909000Y-105380000D01*
X132909000Y-102955000D02*
X127969000Y-102955000D01*
X132909000Y-105695000D02*
X127969000Y-105695000D01*
X121363000Y-104325000D02*
G75*
G03X121363000Y-104325000I-3270000J0D01*
G01*
X127019000Y-63010600D02*
X127334000Y-63010600D01*
X124594000Y-63010600D02*
X124909000Y-63010600D01*
X127019000Y-67950600D02*
X127334000Y-67950600D01*
X124594000Y-67950600D02*
X124909000Y-67950600D01*
X127334000Y-67950600D02*
X127334000Y-63010600D01*
X124594000Y-67950600D02*
X124594000Y-63010600D01*
X115205000Y-60102398D02*
X116005000Y-60102398D01*
X115605000Y-60502398D02*
X115605000Y-59702398D01*
X117387000Y-52011700D02*
X118453000Y-52011700D01*
X117152000Y-52051700D02*
X118688000Y-52051700D01*
X116972000Y-52091700D02*
X118868000Y-52091700D01*
X116822000Y-52131700D02*
X119018000Y-52131700D01*
X116691000Y-52171700D02*
X119149000Y-52171700D01*
X116574000Y-52211700D02*
X119266000Y-52211700D01*
X116467000Y-52251700D02*
X119373000Y-52251700D01*
X116368000Y-52291700D02*
X119472000Y-52291700D01*
X116275000Y-52331700D02*
X119565000Y-52331700D01*
X116189000Y-52371700D02*
X119651000Y-52371700D01*
X116107000Y-52411700D02*
X119733000Y-52411700D01*
X116030000Y-52451700D02*
X119810000Y-52451700D01*
X115956000Y-52491700D02*
X119884000Y-52491700D01*
X115886000Y-52531700D02*
X119954000Y-52531700D01*
X118960000Y-52571700D02*
X120022000Y-52571700D01*
X115818000Y-52571700D02*
X116880000Y-52571700D01*
X118960000Y-52611700D02*
X120086000Y-52611700D01*
X115754000Y-52611700D02*
X116880000Y-52611700D01*
X118960000Y-52651700D02*
X120148000Y-52651700D01*
X115692000Y-52651700D02*
X116880000Y-52651700D01*
X118960000Y-52691700D02*
X120207000Y-52691700D01*
X115633000Y-52691700D02*
X116880000Y-52691700D01*
X118960000Y-52731700D02*
X120265000Y-52731700D01*
X115575000Y-52731700D02*
X116880000Y-52731700D01*
X118960000Y-52771700D02*
X120320000Y-52771700D01*
X115520000Y-52771700D02*
X116880000Y-52771700D01*
X118960000Y-52811700D02*
X120374000Y-52811700D01*
X115466000Y-52811700D02*
X116880000Y-52811700D01*
X118960000Y-52851700D02*
X120425000Y-52851700D01*
X115415000Y-52851700D02*
X116880000Y-52851700D01*
X118960000Y-52891700D02*
X120476000Y-52891700D01*
X115364000Y-52891700D02*
X116880000Y-52891700D01*
X118960000Y-52931700D02*
X120524000Y-52931700D01*
X115316000Y-52931700D02*
X116880000Y-52931700D01*
X118960000Y-52971700D02*
X120571000Y-52971700D01*
X115269000Y-52971700D02*
X116880000Y-52971700D01*
X118960000Y-53011700D02*
X120617000Y-53011700D01*
X115223000Y-53011700D02*
X116880000Y-53011700D01*
X118960000Y-53051700D02*
X120661000Y-53051700D01*
X115179000Y-53051700D02*
X116880000Y-53051700D01*
X118960000Y-53091700D02*
X120704000Y-53091700D01*
X115136000Y-53091700D02*
X116880000Y-53091700D01*
X118960000Y-53131700D02*
X120746000Y-53131700D01*
X115094000Y-53131700D02*
X116880000Y-53131700D01*
X118960000Y-53171700D02*
X120787000Y-53171700D01*
X115053000Y-53171700D02*
X116880000Y-53171700D01*
X118960000Y-53211700D02*
X120827000Y-53211700D01*
X115013000Y-53211700D02*
X116880000Y-53211700D01*
X118960000Y-53251700D02*
X120865000Y-53251700D01*
X114975000Y-53251700D02*
X116880000Y-53251700D01*
X118960000Y-53291700D02*
X120903000Y-53291700D01*
X114937000Y-53291700D02*
X116880000Y-53291700D01*
X118960000Y-53331700D02*
X120939000Y-53331700D01*
X114901000Y-53331700D02*
X116880000Y-53331700D01*
X118960000Y-53371700D02*
X120975000Y-53371700D01*
X114865000Y-53371700D02*
X116880000Y-53371700D01*
X118960000Y-53411700D02*
X121010000Y-53411700D01*
X114830000Y-53411700D02*
X116880000Y-53411700D01*
X118960000Y-53451700D02*
X121044000Y-53451700D01*
X114796000Y-53451700D02*
X116880000Y-53451700D01*
X118960000Y-53491700D02*
X121076000Y-53491700D01*
X114764000Y-53491700D02*
X116880000Y-53491700D01*
X118960000Y-53531700D02*
X121109000Y-53531700D01*
X114731000Y-53531700D02*
X116880000Y-53531700D01*
X118960000Y-53571700D02*
X121140000Y-53571700D01*
X114700000Y-53571700D02*
X116880000Y-53571700D01*
X118960000Y-53611700D02*
X121170000Y-53611700D01*
X114670000Y-53611700D02*
X116880000Y-53611700D01*
X118960000Y-53651700D02*
X121200000Y-53651700D01*
X114640000Y-53651700D02*
X116880000Y-53651700D01*
X118960000Y-53691700D02*
X121229000Y-53691700D01*
X114611000Y-53691700D02*
X116880000Y-53691700D01*
X118960000Y-53731700D02*
X121258000Y-53731700D01*
X114582000Y-53731700D02*
X116880000Y-53731700D01*
X118960000Y-53771700D02*
X121285000Y-53771700D01*
X114555000Y-53771700D02*
X116880000Y-53771700D01*
X118960000Y-53811700D02*
X121312000Y-53811700D01*
X114528000Y-53811700D02*
X116880000Y-53811700D01*
X118960000Y-53851700D02*
X121338000Y-53851700D01*
X114502000Y-53851700D02*
X116880000Y-53851700D01*
X118960000Y-53891700D02*
X121364000Y-53891700D01*
X114476000Y-53891700D02*
X116880000Y-53891700D01*
X118960000Y-53931700D02*
X121389000Y-53931700D01*
X114451000Y-53931700D02*
X116880000Y-53931700D01*
X118960000Y-53971700D02*
X121413000Y-53971700D01*
X114427000Y-53971700D02*
X116880000Y-53971700D01*
X118960000Y-54011700D02*
X121437000Y-54011700D01*
X114403000Y-54011700D02*
X116880000Y-54011700D01*
X118960000Y-54051700D02*
X121460000Y-54051700D01*
X114380000Y-54051700D02*
X116880000Y-54051700D01*
X118960000Y-54091700D02*
X121482000Y-54091700D01*
X114358000Y-54091700D02*
X116880000Y-54091700D01*
X118960000Y-54131700D02*
X121504000Y-54131700D01*
X114336000Y-54131700D02*
X116880000Y-54131700D01*
X118960000Y-54171700D02*
X121526000Y-54171700D01*
X114314000Y-54171700D02*
X116880000Y-54171700D01*
X118960000Y-54211700D02*
X121547000Y-54211700D01*
X114293000Y-54211700D02*
X116880000Y-54211700D01*
X118960000Y-54251700D02*
X121567000Y-54251700D01*
X114273000Y-54251700D02*
X116880000Y-54251700D01*
X118960000Y-54291700D02*
X121586000Y-54291700D01*
X114254000Y-54291700D02*
X116880000Y-54291700D01*
X118960000Y-54331700D02*
X121606000Y-54331700D01*
X114234000Y-54331700D02*
X116880000Y-54331700D01*
X118960000Y-54371700D02*
X121624000Y-54371700D01*
X114216000Y-54371700D02*
X116880000Y-54371700D01*
X118960000Y-54411700D02*
X121642000Y-54411700D01*
X114198000Y-54411700D02*
X116880000Y-54411700D01*
X118960000Y-54451700D02*
X121660000Y-54451700D01*
X114180000Y-54451700D02*
X116880000Y-54451700D01*
X118960000Y-54491700D02*
X121677000Y-54491700D01*
X114163000Y-54491700D02*
X116880000Y-54491700D01*
X118960000Y-54531700D02*
X121694000Y-54531700D01*
X114146000Y-54531700D02*
X116880000Y-54531700D01*
X118960000Y-54571700D02*
X121710000Y-54571700D01*
X114130000Y-54571700D02*
X116880000Y-54571700D01*
X118960000Y-54611700D02*
X121725000Y-54611700D01*
X114115000Y-54611700D02*
X116880000Y-54611700D01*
X114099000Y-54651700D02*
X121741000Y-54651700D01*
X114085000Y-54691700D02*
X121755000Y-54691700D01*
X114070000Y-54731700D02*
X121770000Y-54731700D01*
X114057000Y-54771700D02*
X121783000Y-54771700D01*
X114043000Y-54811700D02*
X121797000Y-54811700D01*
X114031000Y-54851700D02*
X121809000Y-54851700D01*
X114018000Y-54891700D02*
X121822000Y-54891700D01*
X114006000Y-54931700D02*
X121834000Y-54931700D01*
X113995000Y-54971700D02*
X121845000Y-54971700D01*
X113984000Y-55011700D02*
X121856000Y-55011700D01*
X113973000Y-55051700D02*
X121867000Y-55051700D01*
X113963000Y-55091700D02*
X121877000Y-55091700D01*
X113953000Y-55131700D02*
X121887000Y-55131700D01*
X113944000Y-55171700D02*
X121896000Y-55171700D01*
X113935000Y-55211700D02*
X121905000Y-55211700D01*
X113926000Y-55251700D02*
X121914000Y-55251700D01*
X113918000Y-55291700D02*
X121922000Y-55291700D01*
X113910000Y-55331700D02*
X121930000Y-55331700D01*
X113903000Y-55371700D02*
X121937000Y-55371700D01*
X113896000Y-55412700D02*
X121944000Y-55412700D01*
X113890000Y-55452700D02*
X121950000Y-55452700D01*
X113883000Y-55492700D02*
X121957000Y-55492700D01*
X113878000Y-55532700D02*
X121962000Y-55532700D01*
X113872000Y-55572700D02*
X121968000Y-55572700D01*
X113868000Y-55612700D02*
X121972000Y-55612700D01*
X113863000Y-55652700D02*
X121977000Y-55652700D01*
X113859000Y-55692700D02*
X121981000Y-55692700D01*
X113855000Y-55732700D02*
X121985000Y-55732700D01*
X113852000Y-55772700D02*
X121988000Y-55772700D01*
X113849000Y-55812700D02*
X121991000Y-55812700D01*
X113846000Y-55852700D02*
X121994000Y-55852700D01*
X113844000Y-55892700D02*
X121996000Y-55892700D01*
X113843000Y-55932700D02*
X121997000Y-55932700D01*
X113841000Y-55972700D02*
X121999000Y-55972700D01*
X113840000Y-56012700D02*
X122000000Y-56012700D01*
X113840000Y-56052700D02*
X122000000Y-56052700D01*
X113840000Y-56092700D02*
X122000000Y-56092700D01*
X122040000Y-56092700D02*
G75*
G03X122040000Y-56092700I-4120000J0D01*
G01*
X119664961Y-85826810D02*
G75*
G02X120316000Y-87164600I-1048961J-1337790D01*
G01*
X119664961Y-91502390D02*
G75*
G03X120316000Y-90164600I-1048961J1337790D01*
G01*
X117567039Y-85826810D02*
G75*
G03X116916000Y-87164600I1048961J-1337790D01*
G01*
X117567039Y-91502390D02*
G75*
G02X116916000Y-90164600I1048961J1337790D01*
G01*
X120316000Y-90164600D02*
X120316000Y-87164600D01*
X116916000Y-90164600D02*
X116916000Y-87164600D01*
X121086000Y-82149600D02*
X121086000Y-82464600D01*
X121086000Y-79724600D02*
X121086000Y-80039600D01*
X116146000Y-82149600D02*
X116146000Y-82464600D01*
X116146000Y-79724600D02*
X116146000Y-80039600D01*
X116146000Y-82464600D02*
X121086000Y-82464600D01*
X116146000Y-79724600D02*
X121086000Y-79724600D01*
X121086000Y-97389600D02*
X121086000Y-97704600D01*
X121086000Y-94964600D02*
X121086000Y-95279600D01*
X116146000Y-97389600D02*
X116146000Y-97704600D01*
X116146000Y-94964600D02*
X116146000Y-95279600D01*
X116146000Y-97704600D02*
X121086000Y-97704600D01*
X116146000Y-94964600D02*
X121086000Y-94964600D01*
X48999200Y-63234000D02*
X51539200Y-63234000D01*
X48999200Y-63234000D02*
X48999200Y-65774000D01*
X49249200Y-63484000D02*
X58599200Y-63484000D01*
X49249200Y-84344000D02*
X49249200Y-63484000D01*
X58599200Y-84344000D02*
X49249200Y-84344000D01*
X58599200Y-63484000D02*
X58599200Y-84344000D01*
X115599000Y-122075000D02*
X115599000Y-120745000D01*
X115599000Y-120745000D02*
X116929000Y-120745000D01*
X118199000Y-120745000D02*
X120799000Y-120745000D01*
X120799000Y-123405000D02*
X120799000Y-120745000D01*
X118199000Y-123405000D02*
X120799000Y-123405000D01*
X118199000Y-123405000D02*
X118199000Y-120745000D01*
X90098900Y-122075000D02*
X90098900Y-120745000D01*
X90098900Y-120745000D02*
X91428900Y-120745000D01*
X92698900Y-120745000D02*
X110538900Y-120745000D01*
X110538900Y-123405000D02*
X110538900Y-120745000D01*
X92698900Y-123405000D02*
X110538900Y-123405000D01*
X92698900Y-123405000D02*
X92698900Y-120745000D01*
X110639000Y-50955400D02*
X110639000Y-52285400D01*
X110639000Y-52285400D02*
X109309000Y-52285400D01*
X108039000Y-52285400D02*
X90199000Y-52285400D01*
X90199000Y-49625400D02*
X90199000Y-52285400D01*
X108039000Y-49625400D02*
X90199000Y-49625400D01*
X108039000Y-49625400D02*
X108039000Y-52285400D01*
X62144600Y-50905400D02*
X62144600Y-49575400D01*
X62144600Y-49575400D02*
X63474600Y-49575400D01*
X64744600Y-49575400D02*
X82584600Y-49575400D01*
X82584600Y-52235400D02*
X82584600Y-49575400D01*
X64744600Y-52235400D02*
X82584600Y-52235400D01*
X64744600Y-52235400D02*
X64744600Y-49575400D01*
X62144600Y-122025000D02*
X62144600Y-120695000D01*
X62144600Y-120695000D02*
X63474600Y-120695000D01*
X64744600Y-120695000D02*
X74964600Y-120695000D01*
X74964600Y-123355000D02*
X74964600Y-120695000D01*
X64744600Y-123355000D02*
X74964600Y-123355000D01*
X64744600Y-123355000D02*
X64744600Y-120695000D01*
X47296200Y-121279000D02*
X48796200Y-121279000D01*
X51296200Y-120029000D02*
X51296200Y-115529000D01*
X48796200Y-114279000D02*
X47296200Y-114279000D01*
X44796200Y-115529000D02*
X44796200Y-120029000D01*
X49546025Y-104955000D02*
X49546025Y-105455000D01*
X49296025Y-105205000D02*
X49796025Y-105205000D01*
X54701800Y-106396000D02*
X54701800Y-106964000D01*
X54661800Y-106162000D02*
X54661800Y-107198000D01*
X54621800Y-106003000D02*
X54621800Y-107357000D01*
X54581800Y-105875000D02*
X54581800Y-107485000D01*
X54541800Y-105765000D02*
X54541800Y-107595000D01*
X54501800Y-105669000D02*
X54501800Y-107691000D01*
X54461800Y-105582000D02*
X54461800Y-107778000D01*
X54421800Y-105502000D02*
X54421800Y-107858000D01*
X54381800Y-107720000D02*
X54381800Y-107931000D01*
X54381800Y-105429000D02*
X54381800Y-105640000D01*
X54341800Y-107720000D02*
X54341800Y-107999000D01*
X54341800Y-105361000D02*
X54341800Y-105640000D01*
X54301800Y-107720000D02*
X54301800Y-108063000D01*
X54301800Y-105297000D02*
X54301800Y-105640000D01*
X54261800Y-107720000D02*
X54261800Y-108123000D01*
X54261800Y-105237000D02*
X54261800Y-105640000D01*
X54221800Y-107720000D02*
X54221800Y-108180000D01*
X54221800Y-105180000D02*
X54221800Y-105640000D01*
X54181800Y-107720000D02*
X54181800Y-108234000D01*
X54181800Y-105126000D02*
X54181800Y-105640000D01*
X54141800Y-107720000D02*
X54141800Y-108285000D01*
X54141800Y-105075000D02*
X54141800Y-105640000D01*
X54101800Y-107720000D02*
X54101800Y-108333000D01*
X54101800Y-105027000D02*
X54101800Y-105640000D01*
X54061800Y-107720000D02*
X54061800Y-108379000D01*
X54061800Y-104981000D02*
X54061800Y-105640000D01*
X54021800Y-107720000D02*
X54021800Y-108423000D01*
X54021800Y-104937000D02*
X54021800Y-105640000D01*
X53981800Y-107720000D02*
X53981800Y-108465000D01*
X53981800Y-104895000D02*
X53981800Y-105640000D01*
X53941800Y-107720000D02*
X53941800Y-108506000D01*
X53941800Y-104854000D02*
X53941800Y-105640000D01*
X53901800Y-107720000D02*
X53901800Y-108544000D01*
X53901800Y-104816000D02*
X53901800Y-105640000D01*
X53861800Y-107720000D02*
X53861800Y-108581000D01*
X53861800Y-104779000D02*
X53861800Y-105640000D01*
X53821800Y-107720000D02*
X53821800Y-108617000D01*
X53821800Y-104743000D02*
X53821800Y-105640000D01*
X53781800Y-107720000D02*
X53781800Y-108651000D01*
X53781800Y-104709000D02*
X53781800Y-105640000D01*
X53741800Y-107720000D02*
X53741800Y-108684000D01*
X53741800Y-104676000D02*
X53741800Y-105640000D01*
X53701800Y-107720000D02*
X53701800Y-108715000D01*
X53701800Y-104645000D02*
X53701800Y-105640000D01*
X53661800Y-107720000D02*
X53661800Y-108745000D01*
X53661800Y-104615000D02*
X53661800Y-105640000D01*
X53621800Y-107720000D02*
X53621800Y-108775000D01*
X53621800Y-104585000D02*
X53621800Y-105640000D01*
X53581800Y-107720000D02*
X53581800Y-108802000D01*
X53581800Y-104558000D02*
X53581800Y-105640000D01*
X53541800Y-107720000D02*
X53541800Y-108829000D01*
X53541800Y-104531000D02*
X53541800Y-105640000D01*
X53501800Y-107720000D02*
X53501800Y-108855000D01*
X53501800Y-104505000D02*
X53501800Y-105640000D01*
X53461800Y-107720000D02*
X53461800Y-108880000D01*
X53461800Y-104480000D02*
X53461800Y-105640000D01*
X53421800Y-107720000D02*
X53421800Y-108904000D01*
X53421800Y-104456000D02*
X53421800Y-105640000D01*
X53381800Y-107720000D02*
X53381800Y-108927000D01*
X53381800Y-104433000D02*
X53381800Y-105640000D01*
X53341800Y-107720000D02*
X53341800Y-108948000D01*
X53341800Y-104412000D02*
X53341800Y-105640000D01*
X53301800Y-107720000D02*
X53301800Y-108970000D01*
X53301800Y-104390000D02*
X53301800Y-105640000D01*
X53261800Y-107720000D02*
X53261800Y-108990000D01*
X53261800Y-104370000D02*
X53261800Y-105640000D01*
X53221800Y-107720000D02*
X53221800Y-109009000D01*
X53221800Y-104351000D02*
X53221800Y-105640000D01*
X53181800Y-107720000D02*
X53181800Y-109028000D01*
X53181800Y-104332000D02*
X53181800Y-105640000D01*
X53141800Y-107720000D02*
X53141800Y-109045000D01*
X53141800Y-104315000D02*
X53141800Y-105640000D01*
X53101800Y-107720000D02*
X53101800Y-109062000D01*
X53101800Y-104298000D02*
X53101800Y-105640000D01*
X53061800Y-107720000D02*
X53061800Y-109078000D01*
X53061800Y-104282000D02*
X53061800Y-105640000D01*
X53021800Y-107720000D02*
X53021800Y-109094000D01*
X53021800Y-104266000D02*
X53021800Y-105640000D01*
X52981800Y-107720000D02*
X52981800Y-109108000D01*
X52981800Y-104252000D02*
X52981800Y-105640000D01*
X52941800Y-107720000D02*
X52941800Y-109122000D01*
X52941800Y-104238000D02*
X52941800Y-105640000D01*
X52901800Y-107720000D02*
X52901800Y-109135000D01*
X52901800Y-104225000D02*
X52901800Y-105640000D01*
X52861800Y-107720000D02*
X52861800Y-109148000D01*
X52861800Y-104212000D02*
X52861800Y-105640000D01*
X52821800Y-107720000D02*
X52821800Y-109160000D01*
X52821800Y-104200000D02*
X52821800Y-105640000D01*
X52780800Y-107720000D02*
X52780800Y-109171000D01*
X52780800Y-104189000D02*
X52780800Y-105640000D01*
X52740800Y-107720000D02*
X52740800Y-109181000D01*
X52740800Y-104179000D02*
X52740800Y-105640000D01*
X52700800Y-107720000D02*
X52700800Y-109191000D01*
X52700800Y-104169000D02*
X52700800Y-105640000D01*
X52660800Y-107720000D02*
X52660800Y-109200000D01*
X52660800Y-104160000D02*
X52660800Y-105640000D01*
X52620800Y-107720000D02*
X52620800Y-109208000D01*
X52620800Y-104152000D02*
X52620800Y-105640000D01*
X52580800Y-107720000D02*
X52580800Y-109216000D01*
X52580800Y-104144000D02*
X52580800Y-105640000D01*
X52540800Y-107720000D02*
X52540800Y-109223000D01*
X52540800Y-104137000D02*
X52540800Y-105640000D01*
X52500800Y-107720000D02*
X52500800Y-109230000D01*
X52500800Y-104130000D02*
X52500800Y-105640000D01*
X52460800Y-107720000D02*
X52460800Y-109236000D01*
X52460800Y-104124000D02*
X52460800Y-105640000D01*
X52420800Y-107720000D02*
X52420800Y-109241000D01*
X52420800Y-104119000D02*
X52420800Y-105640000D01*
X52380800Y-107720000D02*
X52380800Y-109245000D01*
X52380800Y-104115000D02*
X52380800Y-105640000D01*
X52340800Y-107720000D02*
X52340800Y-109249000D01*
X52340800Y-104111000D02*
X52340800Y-105640000D01*
X52300800Y-104107000D02*
X52300800Y-109253000D01*
X52260800Y-104104000D02*
X52260800Y-109256000D01*
X52220800Y-104102000D02*
X52220800Y-109258000D01*
X52180800Y-104101000D02*
X52180800Y-109259000D01*
X52140800Y-104100000D02*
X52140800Y-109260000D01*
X52100800Y-104100000D02*
X52100800Y-109260000D01*
X54720800Y-106680000D02*
G75*
G03X54720800Y-106680000I-2620000J0D01*
G01*
X84849600Y-72667000D02*
X84864600Y-72667000D01*
X82724600Y-72667000D02*
X82739600Y-72667000D01*
X84849600Y-77207000D02*
X84864600Y-77207000D01*
X82724600Y-77207000D02*
X82739600Y-77207000D01*
X84864600Y-77207000D02*
X84864600Y-72667000D01*
X82724600Y-77207000D02*
X82724600Y-72667000D01*
X85279600Y-104706800D02*
X85264600Y-104706800D01*
X87404600Y-104706800D02*
X87389600Y-104706800D01*
X85279600Y-100166800D02*
X85264600Y-100166800D01*
X87404600Y-100166800D02*
X87389600Y-100166800D01*
X85264600Y-100166800D02*
X85264600Y-104706800D01*
X87404600Y-100166800D02*
X87404600Y-104706800D01*
X87819600Y-77207000D02*
X87804600Y-77207000D01*
X89944600Y-77207000D02*
X89929600Y-77207000D01*
X87819600Y-72667000D02*
X87804600Y-72667000D01*
X89944600Y-72667000D02*
X89929600Y-72667000D01*
X87804600Y-72667000D02*
X87804600Y-77207000D01*
X89944600Y-72667000D02*
X89944600Y-77207000D01*
X47266200Y-99660000D02*
X44326200Y-99660000D01*
X47266200Y-99900000D02*
X44326200Y-99900000D01*
X47266200Y-99780000D02*
X44326200Y-99780000D01*
X45796200Y-105340000D02*
X45796200Y-104320000D01*
X45796200Y-97860000D02*
X45796200Y-98880000D01*
X47266200Y-104320000D02*
X47266200Y-98880000D01*
X44326200Y-104320000D02*
X47266200Y-104320000D01*
X44326200Y-98880000D02*
X44326200Y-104320000D01*
X47266200Y-98880000D02*
X44326200Y-98880000D01*
X62144600Y-82254600D02*
X62144600Y-87714600D01*
X113064600Y-82254600D02*
X62144600Y-82254600D01*
X113064600Y-95174600D02*
X113064600Y-82254600D01*
X62144600Y-95174600D02*
X113064600Y-95174600D01*
X62144600Y-89714600D02*
X62144600Y-95174600D01*
X62144600Y-87714600D02*
G75*
G02X62144600Y-89714600I0J-1000000D01*
G01*
D12*
X132301095Y-76088380D02*
X132301095Y-76897904D01*
X132348714Y-76993142D01*
X132396333Y-77040761D01*
X132491571Y-77088380D01*
X132682047Y-77088380D01*
X132777285Y-77040761D01*
X132824904Y-76993142D01*
X132872523Y-76897904D01*
X132872523Y-76088380D01*
X133301095Y-76183619D02*
X133348714Y-76136000D01*
X133443952Y-76088380D01*
X133682047Y-76088380D01*
X133777285Y-76136000D01*
X133824904Y-76183619D01*
X133872523Y-76278857D01*
X133872523Y-76374095D01*
X133824904Y-76516952D01*
X133253476Y-77088380D01*
X133872523Y-77088380D01*
X137770380Y-118431666D02*
X137294190Y-118765000D01*
X137770380Y-119003095D02*
X136770380Y-119003095D01*
X136770380Y-118622142D01*
X136818000Y-118526904D01*
X136865619Y-118479285D01*
X136960857Y-118431666D01*
X137103714Y-118431666D01*
X137198952Y-118479285D01*
X137246571Y-118526904D01*
X137294190Y-118622142D01*
X137294190Y-119003095D01*
X136770380Y-118098333D02*
X136770380Y-117479285D01*
X137151333Y-117812619D01*
X137151333Y-117669761D01*
X137198952Y-117574523D01*
X137246571Y-117526904D01*
X137341809Y-117479285D01*
X137579904Y-117479285D01*
X137675142Y-117526904D01*
X137722761Y-117574523D01*
X137770380Y-117669761D01*
X137770380Y-117955476D01*
X137722761Y-118050714D01*
X137675142Y-118098333D01*
X133495333Y-69819580D02*
X133162000Y-69343390D01*
X132923904Y-69819580D02*
X132923904Y-68819580D01*
X133304857Y-68819580D01*
X133400095Y-68867200D01*
X133447714Y-68914819D01*
X133495333Y-69010057D01*
X133495333Y-69152914D01*
X133447714Y-69248152D01*
X133400095Y-69295771D01*
X133304857Y-69343390D01*
X132923904Y-69343390D01*
X133876285Y-68914819D02*
X133923904Y-68867200D01*
X134019142Y-68819580D01*
X134257238Y-68819580D01*
X134352476Y-68867200D01*
X134400095Y-68914819D01*
X134447714Y-69010057D01*
X134447714Y-69105295D01*
X134400095Y-69248152D01*
X133828666Y-69819580D01*
X134447714Y-69819580D01*
X49236333Y-102758680D02*
X48903000Y-102282490D01*
X48664904Y-102758680D02*
X48664904Y-101758680D01*
X49045857Y-101758680D01*
X49141095Y-101806300D01*
X49188714Y-101853919D01*
X49236333Y-101949157D01*
X49236333Y-102092014D01*
X49188714Y-102187252D01*
X49141095Y-102234871D01*
X49045857Y-102282490D01*
X48664904Y-102282490D01*
X50188714Y-102758680D02*
X49617285Y-102758680D01*
X49903000Y-102758680D02*
X49903000Y-101758680D01*
X49807761Y-101901538D01*
X49712523Y-101996776D01*
X49617285Y-102044395D01*
X131931666Y-61188380D02*
X131931666Y-61902666D01*
X131884047Y-62045523D01*
X131788809Y-62140761D01*
X131645952Y-62188380D01*
X131550714Y-62188380D01*
X132360238Y-61283619D02*
X132407857Y-61236000D01*
X132503095Y-61188380D01*
X132741190Y-61188380D01*
X132836428Y-61236000D01*
X132884047Y-61283619D01*
X132931666Y-61378857D01*
X132931666Y-61474095D01*
X132884047Y-61616952D01*
X132312619Y-62188380D01*
X132931666Y-62188380D01*
X126899904Y-119567380D02*
X126899904Y-118567380D01*
X127138000Y-118567380D01*
X127280857Y-118615000D01*
X127376095Y-118710238D01*
X127423714Y-118805476D01*
X127471333Y-118995952D01*
X127471333Y-119138809D01*
X127423714Y-119329285D01*
X127376095Y-119424523D01*
X127280857Y-119519761D01*
X127138000Y-119567380D01*
X126899904Y-119567380D01*
X128328476Y-118900714D02*
X128328476Y-119567380D01*
X128090380Y-118519761D02*
X127852285Y-119234047D01*
X128471333Y-119234047D01*
X120974380Y-70044495D02*
X119974380Y-70044495D01*
X119974380Y-69806400D01*
X120022000Y-69663542D01*
X120117238Y-69568304D01*
X120212476Y-69520685D01*
X120402952Y-69473066D01*
X120545809Y-69473066D01*
X120736285Y-69520685D01*
X120831523Y-69568304D01*
X120926761Y-69663542D01*
X120974380Y-69806400D01*
X120974380Y-70044495D01*
X119974380Y-69139733D02*
X119974380Y-68520685D01*
X120355333Y-68854019D01*
X120355333Y-68711161D01*
X120402952Y-68615923D01*
X120450571Y-68568304D01*
X120545809Y-68520685D01*
X120783904Y-68520685D01*
X120879142Y-68568304D01*
X120926761Y-68615923D01*
X120974380Y-68711161D01*
X120974380Y-68996876D01*
X120926761Y-69092114D01*
X120879142Y-69139733D01*
X120604380Y-64488304D02*
X119604380Y-64488304D01*
X120604380Y-63916876D02*
X120032952Y-64345447D01*
X119604380Y-63916876D02*
X120175809Y-64488304D01*
X132574380Y-66376795D02*
X131574380Y-66376795D01*
X131574380Y-66138700D01*
X131622000Y-65995842D01*
X131717238Y-65900604D01*
X131812476Y-65852985D01*
X132002952Y-65805366D01*
X132145809Y-65805366D01*
X132336285Y-65852985D01*
X132431523Y-65900604D01*
X132526761Y-65995842D01*
X132574380Y-66138700D01*
X132574380Y-66376795D01*
X131669619Y-65424414D02*
X131622000Y-65376795D01*
X131574380Y-65281557D01*
X131574380Y-65043461D01*
X131622000Y-64948223D01*
X131669619Y-64900604D01*
X131764857Y-64852985D01*
X131860095Y-64852985D01*
X132002952Y-64900604D01*
X132574380Y-65472033D01*
X132574380Y-64852985D01*
X129796142Y-107182142D02*
X129748523Y-107229761D01*
X129605666Y-107277380D01*
X129510428Y-107277380D01*
X129367571Y-107229761D01*
X129272333Y-107134523D01*
X129224714Y-107039285D01*
X129177095Y-106848809D01*
X129177095Y-106705952D01*
X129224714Y-106515476D01*
X129272333Y-106420238D01*
X129367571Y-106325000D01*
X129510428Y-106277380D01*
X129605666Y-106277380D01*
X129748523Y-106325000D01*
X129796142Y-106372619D01*
X130748523Y-107277380D02*
X130177095Y-107277380D01*
X130462809Y-107277380D02*
X130462809Y-106277380D01*
X130367571Y-106420238D01*
X130272333Y-106515476D01*
X130177095Y-106563095D01*
X131367571Y-106277380D02*
X131462809Y-106277380D01*
X131558047Y-106325000D01*
X131605666Y-106372619D01*
X131653285Y-106467857D01*
X131700904Y-106658333D01*
X131700904Y-106896428D01*
X131653285Y-107086904D01*
X131605666Y-107182142D01*
X131558047Y-107229761D01*
X131462809Y-107277380D01*
X131367571Y-107277380D01*
X131272333Y-107229761D01*
X131224714Y-107182142D01*
X131177095Y-107086904D01*
X131129476Y-106896428D01*
X131129476Y-106658333D01*
X131177095Y-106467857D01*
X131224714Y-106372619D01*
X131272333Y-106325000D01*
X131367571Y-106277380D01*
X117926333Y-100282142D02*
X117878714Y-100329761D01*
X117735857Y-100377380D01*
X117640619Y-100377380D01*
X117497761Y-100329761D01*
X117402523Y-100234523D01*
X117354904Y-100139285D01*
X117307285Y-99948809D01*
X117307285Y-99805952D01*
X117354904Y-99615476D01*
X117402523Y-99520238D01*
X117497761Y-99425000D01*
X117640619Y-99377380D01*
X117735857Y-99377380D01*
X117878714Y-99425000D01*
X117926333Y-99472619D01*
X118402523Y-100377380D02*
X118593000Y-100377380D01*
X118688238Y-100329761D01*
X118735857Y-100282142D01*
X118831095Y-100139285D01*
X118878714Y-99948809D01*
X118878714Y-99567857D01*
X118831095Y-99472619D01*
X118783476Y-99425000D01*
X118688238Y-99377380D01*
X118497761Y-99377380D01*
X118402523Y-99425000D01*
X118354904Y-99472619D01*
X118307285Y-99567857D01*
X118307285Y-99805952D01*
X118354904Y-99901190D01*
X118402523Y-99948809D01*
X118497761Y-99996428D01*
X118688238Y-99996428D01*
X118783476Y-99948809D01*
X118831095Y-99901190D01*
X118878714Y-99805952D01*
X123821142Y-65647266D02*
X123868761Y-65694885D01*
X123916380Y-65837742D01*
X123916380Y-65932980D01*
X123868761Y-66075838D01*
X123773523Y-66171076D01*
X123678285Y-66218695D01*
X123487809Y-66266314D01*
X123344952Y-66266314D01*
X123154476Y-66218695D01*
X123059238Y-66171076D01*
X122964000Y-66075838D01*
X122916380Y-65932980D01*
X122916380Y-65837742D01*
X122964000Y-65694885D01*
X123011619Y-65647266D01*
X123344952Y-65075838D02*
X123297333Y-65171076D01*
X123249714Y-65218695D01*
X123154476Y-65266314D01*
X123106857Y-65266314D01*
X123011619Y-65218695D01*
X122964000Y-65171076D01*
X122916380Y-65075838D01*
X122916380Y-64885361D01*
X122964000Y-64790123D01*
X123011619Y-64742504D01*
X123106857Y-64694885D01*
X123154476Y-64694885D01*
X123249714Y-64742504D01*
X123297333Y-64790123D01*
X123344952Y-64885361D01*
X123344952Y-65075838D01*
X123392571Y-65171076D01*
X123440190Y-65218695D01*
X123535428Y-65266314D01*
X123725904Y-65266314D01*
X123821142Y-65218695D01*
X123868761Y-65171076D01*
X123916380Y-65075838D01*
X123916380Y-64885361D01*
X123868761Y-64790123D01*
X123821142Y-64742504D01*
X123725904Y-64694885D01*
X123535428Y-64694885D01*
X123440190Y-64742504D01*
X123392571Y-64790123D01*
X123344952Y-64885361D01*
X113027142Y-56259366D02*
X113074761Y-56306985D01*
X113122380Y-56449842D01*
X113122380Y-56545080D01*
X113074761Y-56687938D01*
X112979523Y-56783176D01*
X112884285Y-56830795D01*
X112693809Y-56878414D01*
X112550952Y-56878414D01*
X112360476Y-56830795D01*
X112265238Y-56783176D01*
X112170000Y-56687938D01*
X112122380Y-56545080D01*
X112122380Y-56449842D01*
X112170000Y-56306985D01*
X112217619Y-56259366D01*
X112122380Y-55926033D02*
X112122380Y-55259366D01*
X113122380Y-55687938D01*
X115892190Y-89140790D02*
X116368380Y-89140790D01*
X115368380Y-89474123D02*
X115892190Y-89140790D01*
X115368380Y-88807457D01*
X116368380Y-87950314D02*
X116368380Y-88521742D01*
X116368380Y-88236028D02*
X115368380Y-88236028D01*
X115511238Y-88331266D01*
X115606476Y-88426504D01*
X115654095Y-88521742D01*
X118449333Y-78951742D02*
X118401714Y-78999361D01*
X118258857Y-79046980D01*
X118163619Y-79046980D01*
X118020761Y-78999361D01*
X117925523Y-78904123D01*
X117877904Y-78808885D01*
X117830285Y-78618409D01*
X117830285Y-78475552D01*
X117877904Y-78285076D01*
X117925523Y-78189838D01*
X118020761Y-78094600D01*
X118163619Y-78046980D01*
X118258857Y-78046980D01*
X118401714Y-78094600D01*
X118449333Y-78142219D01*
X118782666Y-78046980D02*
X119401714Y-78046980D01*
X119068380Y-78427933D01*
X119211238Y-78427933D01*
X119306476Y-78475552D01*
X119354095Y-78523171D01*
X119401714Y-78618409D01*
X119401714Y-78856504D01*
X119354095Y-78951742D01*
X119306476Y-78999361D01*
X119211238Y-79046980D01*
X118925523Y-79046980D01*
X118830285Y-78999361D01*
X118782666Y-78951742D01*
X118449333Y-94191742D02*
X118401714Y-94239361D01*
X118258857Y-94286980D01*
X118163619Y-94286980D01*
X118020761Y-94239361D01*
X117925523Y-94144123D01*
X117877904Y-94048885D01*
X117830285Y-93858409D01*
X117830285Y-93715552D01*
X117877904Y-93525076D01*
X117925523Y-93429838D01*
X118020761Y-93334600D01*
X118163619Y-93286980D01*
X118258857Y-93286980D01*
X118401714Y-93334600D01*
X118449333Y-93382219D01*
X118830285Y-93382219D02*
X118877904Y-93334600D01*
X118973142Y-93286980D01*
X119211238Y-93286980D01*
X119306476Y-93334600D01*
X119354095Y-93382219D01*
X119401714Y-93477457D01*
X119401714Y-93572695D01*
X119354095Y-93715552D01*
X118782666Y-94286980D01*
X119401714Y-94286980D01*
X53590866Y-61682380D02*
X53590866Y-62396666D01*
X53543247Y-62539523D01*
X53448009Y-62634761D01*
X53305152Y-62682380D01*
X53209914Y-62682380D01*
X54590866Y-62682380D02*
X54019438Y-62682380D01*
X54305152Y-62682380D02*
X54305152Y-61682380D01*
X54209914Y-61825238D01*
X54114676Y-61920476D01*
X54019438Y-61968095D01*
X41366223Y-79446380D02*
X41366223Y-78446380D01*
X41699557Y-79160666D01*
X42032890Y-78446380D01*
X42032890Y-79446380D01*
X42509080Y-79446380D02*
X42509080Y-78446380D01*
X42937652Y-79398761D02*
X43080509Y-79446380D01*
X43318604Y-79446380D01*
X43413842Y-79398761D01*
X43461461Y-79351142D01*
X43509080Y-79255904D01*
X43509080Y-79160666D01*
X43461461Y-79065428D01*
X43413842Y-79017809D01*
X43318604Y-78970190D01*
X43128128Y-78922571D01*
X43032890Y-78874952D01*
X42985271Y-78827333D01*
X42937652Y-78732095D01*
X42937652Y-78636857D01*
X42985271Y-78541619D01*
X43032890Y-78494000D01*
X43128128Y-78446380D01*
X43366223Y-78446380D01*
X43509080Y-78494000D01*
X44128128Y-78446380D02*
X44318604Y-78446380D01*
X44413842Y-78494000D01*
X44509080Y-78589238D01*
X44556700Y-78779714D01*
X44556700Y-79113047D01*
X44509080Y-79303523D01*
X44413842Y-79398761D01*
X44318604Y-79446380D01*
X44128128Y-79446380D01*
X44032890Y-79398761D01*
X43937652Y-79303523D01*
X43890033Y-79113047D01*
X43890033Y-78779714D01*
X43937652Y-78589238D01*
X44032890Y-78494000D01*
X44128128Y-78446380D01*
X46270985Y-78494000D02*
X46175747Y-78446380D01*
X46032890Y-78446380D01*
X45890033Y-78494000D01*
X45794795Y-78589238D01*
X45747176Y-78684476D01*
X45699557Y-78874952D01*
X45699557Y-79017809D01*
X45747176Y-79208285D01*
X45794795Y-79303523D01*
X45890033Y-79398761D01*
X46032890Y-79446380D01*
X46128128Y-79446380D01*
X46270985Y-79398761D01*
X46318604Y-79351142D01*
X46318604Y-79017809D01*
X46128128Y-79017809D01*
X46747176Y-79446380D02*
X46747176Y-78446380D01*
X47318604Y-79446380D01*
X47318604Y-78446380D01*
X47794795Y-79446380D02*
X47794795Y-78446380D01*
X48032890Y-78446380D01*
X48175747Y-78494000D01*
X48270985Y-78589238D01*
X48318604Y-78684476D01*
X48366223Y-78874952D01*
X48366223Y-79017809D01*
X48318604Y-79208285D01*
X48270985Y-79303523D01*
X48175747Y-79398761D01*
X48032890Y-79446380D01*
X47794795Y-79446380D01*
X41985271Y-76858761D02*
X42128128Y-76906380D01*
X42366223Y-76906380D01*
X42461461Y-76858761D01*
X42509080Y-76811142D01*
X42556700Y-76715904D01*
X42556700Y-76620666D01*
X42509080Y-76525428D01*
X42461461Y-76477809D01*
X42366223Y-76430190D01*
X42175747Y-76382571D01*
X42080509Y-76334952D01*
X42032890Y-76287333D01*
X41985271Y-76192095D01*
X41985271Y-76096857D01*
X42032890Y-76001619D01*
X42080509Y-75954000D01*
X42175747Y-75906380D01*
X42413842Y-75906380D01*
X42556700Y-75954000D01*
X43556700Y-76811142D02*
X43509080Y-76858761D01*
X43366223Y-76906380D01*
X43270985Y-76906380D01*
X43128128Y-76858761D01*
X43032890Y-76763523D01*
X42985271Y-76668285D01*
X42937652Y-76477809D01*
X42937652Y-76334952D01*
X42985271Y-76144476D01*
X43032890Y-76049238D01*
X43128128Y-75954000D01*
X43270985Y-75906380D01*
X43366223Y-75906380D01*
X43509080Y-75954000D01*
X43556700Y-76001619D01*
X43985271Y-76906380D02*
X43985271Y-75906380D01*
X44556700Y-76906380D02*
X44128128Y-76334952D01*
X44556700Y-75906380D02*
X43985271Y-76477809D01*
X46270985Y-75954000D02*
X46175747Y-75906380D01*
X46032890Y-75906380D01*
X45890033Y-75954000D01*
X45794795Y-76049238D01*
X45747176Y-76144476D01*
X45699557Y-76334952D01*
X45699557Y-76477809D01*
X45747176Y-76668285D01*
X45794795Y-76763523D01*
X45890033Y-76858761D01*
X46032890Y-76906380D01*
X46128128Y-76906380D01*
X46270985Y-76858761D01*
X46318604Y-76811142D01*
X46318604Y-76477809D01*
X46128128Y-76477809D01*
X46747176Y-76906380D02*
X46747176Y-75906380D01*
X47318604Y-76906380D01*
X47318604Y-75906380D01*
X47794795Y-76906380D02*
X47794795Y-75906380D01*
X48032890Y-75906380D01*
X48175747Y-75954000D01*
X48270985Y-76049238D01*
X48318604Y-76144476D01*
X48366223Y-76334952D01*
X48366223Y-76477809D01*
X48318604Y-76668285D01*
X48270985Y-76763523D01*
X48175747Y-76858761D01*
X48032890Y-76906380D01*
X47794795Y-76906380D01*
X42032890Y-72999000D02*
X43032890Y-72999000D01*
X42842414Y-74366380D02*
X42509080Y-73890190D01*
X42270985Y-74366380D02*
X42270985Y-73366380D01*
X42651938Y-73366380D01*
X42747176Y-73414000D01*
X42794795Y-73461619D01*
X42842414Y-73556857D01*
X42842414Y-73699714D01*
X42794795Y-73794952D01*
X42747176Y-73842571D01*
X42651938Y-73890190D01*
X42270985Y-73890190D01*
X43032890Y-72999000D02*
X43985271Y-72999000D01*
X43223366Y-74318761D02*
X43366223Y-74366380D01*
X43604319Y-74366380D01*
X43699557Y-74318761D01*
X43747176Y-74271142D01*
X43794795Y-74175904D01*
X43794795Y-74080666D01*
X43747176Y-73985428D01*
X43699557Y-73937809D01*
X43604319Y-73890190D01*
X43413842Y-73842571D01*
X43318604Y-73794952D01*
X43270985Y-73747333D01*
X43223366Y-73652095D01*
X43223366Y-73556857D01*
X43270985Y-73461619D01*
X43318604Y-73414000D01*
X43413842Y-73366380D01*
X43651938Y-73366380D01*
X43794795Y-73414000D01*
X43985271Y-72999000D02*
X44747176Y-72999000D01*
X44080509Y-73366380D02*
X44651938Y-73366380D01*
X44366223Y-74366380D02*
X44366223Y-73366380D01*
X46270985Y-73414000D02*
X46175747Y-73366380D01*
X46032890Y-73366380D01*
X45890033Y-73414000D01*
X45794795Y-73509238D01*
X45747176Y-73604476D01*
X45699557Y-73794952D01*
X45699557Y-73937809D01*
X45747176Y-74128285D01*
X45794795Y-74223523D01*
X45890033Y-74318761D01*
X46032890Y-74366380D01*
X46128128Y-74366380D01*
X46270985Y-74318761D01*
X46318604Y-74271142D01*
X46318604Y-73937809D01*
X46128128Y-73937809D01*
X46747176Y-74366380D02*
X46747176Y-73366380D01*
X47318604Y-74366380D01*
X47318604Y-73366380D01*
X47794795Y-74366380D02*
X47794795Y-73366380D01*
X48032890Y-73366380D01*
X48175747Y-73414000D01*
X48270985Y-73509238D01*
X48318604Y-73604476D01*
X48366223Y-73794952D01*
X48366223Y-73937809D01*
X48318604Y-74128285D01*
X48270985Y-74223523D01*
X48175747Y-74318761D01*
X48032890Y-74366380D01*
X47794795Y-74366380D01*
X42937652Y-71826380D02*
X42937652Y-70826380D01*
X43509080Y-71826380D01*
X43509080Y-70826380D01*
X44556700Y-71731142D02*
X44509080Y-71778761D01*
X44366223Y-71826380D01*
X44270985Y-71826380D01*
X44128128Y-71778761D01*
X44032890Y-71683523D01*
X43985271Y-71588285D01*
X43937652Y-71397809D01*
X43937652Y-71254952D01*
X43985271Y-71064476D01*
X44032890Y-70969238D01*
X44128128Y-70874000D01*
X44270985Y-70826380D01*
X44366223Y-70826380D01*
X44509080Y-70874000D01*
X44556700Y-70921619D01*
X46270985Y-70874000D02*
X46175747Y-70826380D01*
X46032890Y-70826380D01*
X45890033Y-70874000D01*
X45794795Y-70969238D01*
X45747176Y-71064476D01*
X45699557Y-71254952D01*
X45699557Y-71397809D01*
X45747176Y-71588285D01*
X45794795Y-71683523D01*
X45890033Y-71778761D01*
X46032890Y-71826380D01*
X46128128Y-71826380D01*
X46270985Y-71778761D01*
X46318604Y-71731142D01*
X46318604Y-71397809D01*
X46128128Y-71397809D01*
X46747176Y-71826380D02*
X46747176Y-70826380D01*
X47318604Y-71826380D01*
X47318604Y-70826380D01*
X47794795Y-71826380D02*
X47794795Y-70826380D01*
X48032890Y-70826380D01*
X48175747Y-70874000D01*
X48270985Y-70969238D01*
X48318604Y-71064476D01*
X48366223Y-71254952D01*
X48366223Y-71397809D01*
X48318604Y-71588285D01*
X48270985Y-71683523D01*
X48175747Y-71778761D01*
X48032890Y-71826380D01*
X47794795Y-71826380D01*
X41556700Y-69286380D02*
X41556700Y-68286380D01*
X41890033Y-69000666D01*
X42223366Y-68286380D01*
X42223366Y-69286380D01*
X42890033Y-68286380D02*
X43080509Y-68286380D01*
X43175747Y-68334000D01*
X43270985Y-68429238D01*
X43318604Y-68619714D01*
X43318604Y-68953047D01*
X43270985Y-69143523D01*
X43175747Y-69238761D01*
X43080509Y-69286380D01*
X42890033Y-69286380D01*
X42794795Y-69238761D01*
X42699557Y-69143523D01*
X42651938Y-68953047D01*
X42651938Y-68619714D01*
X42699557Y-68429238D01*
X42794795Y-68334000D01*
X42890033Y-68286380D01*
X43699557Y-69238761D02*
X43842414Y-69286380D01*
X44080509Y-69286380D01*
X44175747Y-69238761D01*
X44223366Y-69191142D01*
X44270985Y-69095904D01*
X44270985Y-69000666D01*
X44223366Y-68905428D01*
X44175747Y-68857809D01*
X44080509Y-68810190D01*
X43890033Y-68762571D01*
X43794795Y-68714952D01*
X43747176Y-68667333D01*
X43699557Y-68572095D01*
X43699557Y-68476857D01*
X43747176Y-68381619D01*
X43794795Y-68334000D01*
X43890033Y-68286380D01*
X44128128Y-68286380D01*
X44270985Y-68334000D01*
X44699557Y-69286380D02*
X44699557Y-68286380D01*
X45794795Y-68286380D02*
X46128128Y-69286380D01*
X46461461Y-68286380D01*
X47366223Y-69191142D02*
X47318604Y-69238761D01*
X47175747Y-69286380D01*
X47080509Y-69286380D01*
X46937652Y-69238761D01*
X46842414Y-69143523D01*
X46794795Y-69048285D01*
X46747176Y-68857809D01*
X46747176Y-68714952D01*
X46794795Y-68524476D01*
X46842414Y-68429238D01*
X46937652Y-68334000D01*
X47080509Y-68286380D01*
X47175747Y-68286380D01*
X47318604Y-68334000D01*
X47366223Y-68381619D01*
X48366223Y-69191142D02*
X48318604Y-69238761D01*
X48175747Y-69286380D01*
X48080509Y-69286380D01*
X47937652Y-69238761D01*
X47842414Y-69143523D01*
X47794795Y-69048285D01*
X47747176Y-68857809D01*
X47747176Y-68714952D01*
X47794795Y-68524476D01*
X47842414Y-68429238D01*
X47937652Y-68334000D01*
X48080509Y-68286380D01*
X48175747Y-68286380D01*
X48318604Y-68334000D01*
X48366223Y-68381619D01*
X113611380Y-122408333D02*
X114325666Y-122408333D01*
X114468523Y-122455952D01*
X114563761Y-122551190D01*
X114611380Y-122694047D01*
X114611380Y-122789285D01*
X113611380Y-121503571D02*
X113611380Y-121694047D01*
X113659000Y-121789285D01*
X113706619Y-121836904D01*
X113849476Y-121932142D01*
X114039952Y-121979761D01*
X114420904Y-121979761D01*
X114516142Y-121932142D01*
X114563761Y-121884523D01*
X114611380Y-121789285D01*
X114611380Y-121598809D01*
X114563761Y-121503571D01*
X114516142Y-121455952D01*
X114420904Y-121408333D01*
X114182809Y-121408333D01*
X114087571Y-121455952D01*
X114039952Y-121503571D01*
X113992333Y-121598809D01*
X113992333Y-121789285D01*
X114039952Y-121884523D01*
X114087571Y-121932142D01*
X114182809Y-121979761D01*
X119571857Y-118501309D02*
X119571857Y-116977500D01*
X117046857Y-118501309D02*
X117046857Y-116977500D01*
X117808761Y-117739404D02*
X116284952Y-117739404D01*
X88111280Y-122408333D02*
X88825566Y-122408333D01*
X88968423Y-122455952D01*
X89063661Y-122551190D01*
X89111280Y-122694047D01*
X89111280Y-122789285D01*
X88111280Y-122027380D02*
X88111280Y-121360714D01*
X89111280Y-121789285D01*
X109631280Y-118764404D02*
X108631280Y-118764404D01*
X108631280Y-118383452D01*
X108678900Y-118288214D01*
X108726519Y-118240595D01*
X108821757Y-118192976D01*
X108964614Y-118192976D01*
X109059852Y-118240595D01*
X109107471Y-118288214D01*
X109155090Y-118383452D01*
X109155090Y-118764404D01*
X109631280Y-117764404D02*
X108631280Y-117764404D01*
X108631280Y-117526309D01*
X108678900Y-117383452D01*
X108774138Y-117288214D01*
X108869376Y-117240595D01*
X109059852Y-117192976D01*
X109202709Y-117192976D01*
X109393185Y-117240595D01*
X109488423Y-117288214D01*
X109583661Y-117383452D01*
X109631280Y-117526309D01*
X109631280Y-117764404D01*
X108631280Y-116859642D02*
X108631280Y-116192976D01*
X109631280Y-116621547D01*
X110012233Y-114764404D02*
X109964614Y-114812023D01*
X109821757Y-114907261D01*
X109726519Y-114954880D01*
X109583661Y-115002500D01*
X109345566Y-115050119D01*
X109155090Y-115050119D01*
X108916995Y-115002500D01*
X108774138Y-114954880D01*
X108678900Y-114907261D01*
X108536042Y-114812023D01*
X108488423Y-114764404D01*
X108631280Y-114192976D02*
X108631280Y-114002500D01*
X108678900Y-113907261D01*
X108774138Y-113812023D01*
X108964614Y-113764404D01*
X109297947Y-113764404D01*
X109488423Y-113812023D01*
X109583661Y-113907261D01*
X109631280Y-114002500D01*
X109631280Y-114192976D01*
X109583661Y-114288214D01*
X109488423Y-114383452D01*
X109297947Y-114431071D01*
X108964614Y-114431071D01*
X108774138Y-114383452D01*
X108678900Y-114288214D01*
X108631280Y-114192976D01*
X109536042Y-112764404D02*
X109583661Y-112812023D01*
X109631280Y-112954880D01*
X109631280Y-113050119D01*
X109583661Y-113192976D01*
X109488423Y-113288214D01*
X109393185Y-113335833D01*
X109202709Y-113383452D01*
X109059852Y-113383452D01*
X108869376Y-113335833D01*
X108774138Y-113288214D01*
X108678900Y-113192976D01*
X108631280Y-113050119D01*
X108631280Y-112954880D01*
X108678900Y-112812023D01*
X108726519Y-112764404D01*
X108726519Y-112383452D02*
X108678900Y-112335833D01*
X108631280Y-112240595D01*
X108631280Y-112002500D01*
X108678900Y-111907261D01*
X108726519Y-111859642D01*
X108821757Y-111812023D01*
X108916995Y-111812023D01*
X109059852Y-111859642D01*
X109631280Y-112431071D01*
X109631280Y-111812023D01*
X110012233Y-111478690D02*
X109964614Y-111431071D01*
X109821757Y-111335833D01*
X109726519Y-111288214D01*
X109583661Y-111240595D01*
X109345566Y-111192976D01*
X109155090Y-111192976D01*
X108916995Y-111240595D01*
X108774138Y-111288214D01*
X108678900Y-111335833D01*
X108536042Y-111431071D01*
X108488423Y-111478690D01*
X107031280Y-118764404D02*
X106031280Y-118764404D01*
X106031280Y-118383452D01*
X106078900Y-118288214D01*
X106126519Y-118240595D01*
X106221757Y-118192976D01*
X106364614Y-118192976D01*
X106459852Y-118240595D01*
X106507471Y-118288214D01*
X106555090Y-118383452D01*
X106555090Y-118764404D01*
X107031280Y-117764404D02*
X106031280Y-117764404D01*
X106031280Y-117526309D01*
X106078900Y-117383452D01*
X106174138Y-117288214D01*
X106269376Y-117240595D01*
X106459852Y-117192976D01*
X106602709Y-117192976D01*
X106793185Y-117240595D01*
X106888423Y-117288214D01*
X106983661Y-117383452D01*
X107031280Y-117526309D01*
X107031280Y-117764404D01*
X106031280Y-116335833D02*
X106031280Y-116526309D01*
X106078900Y-116621547D01*
X106126519Y-116669166D01*
X106269376Y-116764404D01*
X106459852Y-116812023D01*
X106840804Y-116812023D01*
X106936042Y-116764404D01*
X106983661Y-116716785D01*
X107031280Y-116621547D01*
X107031280Y-116431071D01*
X106983661Y-116335833D01*
X106936042Y-116288214D01*
X106840804Y-116240595D01*
X106602709Y-116240595D01*
X106507471Y-116288214D01*
X106459852Y-116335833D01*
X106412233Y-116431071D01*
X106412233Y-116621547D01*
X106459852Y-116716785D01*
X106507471Y-116764404D01*
X106602709Y-116812023D01*
X107412233Y-114764404D02*
X107364614Y-114812023D01*
X107221757Y-114907261D01*
X107126519Y-114954880D01*
X106983661Y-115002500D01*
X106745566Y-115050119D01*
X106555090Y-115050119D01*
X106316995Y-115002500D01*
X106174138Y-114954880D01*
X106078900Y-114907261D01*
X105936042Y-114812023D01*
X105888423Y-114764404D01*
X107031280Y-114383452D02*
X106031280Y-114383452D01*
X106936042Y-113335833D02*
X106983661Y-113383452D01*
X107031280Y-113526309D01*
X107031280Y-113621547D01*
X106983661Y-113764404D01*
X106888423Y-113859642D01*
X106793185Y-113907261D01*
X106602709Y-113954880D01*
X106459852Y-113954880D01*
X106269376Y-113907261D01*
X106174138Y-113859642D01*
X106078900Y-113764404D01*
X106031280Y-113621547D01*
X106031280Y-113526309D01*
X106078900Y-113383452D01*
X106126519Y-113335833D01*
X107031280Y-112907261D02*
X106031280Y-112907261D01*
X106031280Y-112526309D01*
X106078900Y-112431071D01*
X106126519Y-112383452D01*
X106221757Y-112335833D01*
X106364614Y-112335833D01*
X106459852Y-112383452D01*
X106507471Y-112431071D01*
X106555090Y-112526309D01*
X106555090Y-112907261D01*
X107031280Y-111383452D02*
X107031280Y-111954880D01*
X107031280Y-111669166D02*
X106031280Y-111669166D01*
X106174138Y-111764404D01*
X106269376Y-111859642D01*
X106316995Y-111954880D01*
X107412233Y-111050119D02*
X107364614Y-111002500D01*
X107221757Y-110907261D01*
X107126519Y-110859642D01*
X106983661Y-110812023D01*
X106745566Y-110764404D01*
X106555090Y-110764404D01*
X106316995Y-110812023D01*
X106174138Y-110859642D01*
X106078900Y-110907261D01*
X105936042Y-111002500D01*
X105888423Y-111050119D01*
X104581280Y-118739404D02*
X103581280Y-118739404D01*
X103581280Y-118358452D01*
X103628900Y-118263214D01*
X103676519Y-118215595D01*
X103771757Y-118167976D01*
X103914614Y-118167976D01*
X104009852Y-118215595D01*
X104057471Y-118263214D01*
X104105090Y-118358452D01*
X104105090Y-118739404D01*
X104581280Y-117739404D02*
X103581280Y-117739404D01*
X103581280Y-117501309D01*
X103628900Y-117358452D01*
X103724138Y-117263214D01*
X103819376Y-117215595D01*
X104009852Y-117167976D01*
X104152709Y-117167976D01*
X104343185Y-117215595D01*
X104438423Y-117263214D01*
X104533661Y-117358452D01*
X104581280Y-117501309D01*
X104581280Y-117739404D01*
X103581280Y-116263214D02*
X103581280Y-116739404D01*
X104057471Y-116787023D01*
X104009852Y-116739404D01*
X103962233Y-116644166D01*
X103962233Y-116406071D01*
X104009852Y-116310833D01*
X104057471Y-116263214D01*
X104152709Y-116215595D01*
X104390804Y-116215595D01*
X104486042Y-116263214D01*
X104533661Y-116310833D01*
X104581280Y-116406071D01*
X104581280Y-116644166D01*
X104533661Y-116739404D01*
X104486042Y-116787023D01*
X104962233Y-114739404D02*
X104914614Y-114787023D01*
X104771757Y-114882261D01*
X104676519Y-114929880D01*
X104533661Y-114977500D01*
X104295566Y-115025119D01*
X104105090Y-115025119D01*
X103866995Y-114977500D01*
X103724138Y-114929880D01*
X103628900Y-114882261D01*
X103486042Y-114787023D01*
X103438423Y-114739404D01*
X103581280Y-114167976D02*
X103581280Y-113977500D01*
X103628900Y-113882261D01*
X103724138Y-113787023D01*
X103914614Y-113739404D01*
X104247947Y-113739404D01*
X104438423Y-113787023D01*
X104533661Y-113882261D01*
X104581280Y-113977500D01*
X104581280Y-114167976D01*
X104533661Y-114263214D01*
X104438423Y-114358452D01*
X104247947Y-114406071D01*
X103914614Y-114406071D01*
X103724138Y-114358452D01*
X103628900Y-114263214D01*
X103581280Y-114167976D01*
X104486042Y-112739404D02*
X104533661Y-112787023D01*
X104581280Y-112929880D01*
X104581280Y-113025119D01*
X104533661Y-113167976D01*
X104438423Y-113263214D01*
X104343185Y-113310833D01*
X104152709Y-113358452D01*
X104009852Y-113358452D01*
X103819376Y-113310833D01*
X103724138Y-113263214D01*
X103628900Y-113167976D01*
X103581280Y-113025119D01*
X103581280Y-112929880D01*
X103628900Y-112787023D01*
X103676519Y-112739404D01*
X104581280Y-111787023D02*
X104581280Y-112358452D01*
X104581280Y-112072738D02*
X103581280Y-112072738D01*
X103724138Y-112167976D01*
X103819376Y-112263214D01*
X103866995Y-112358452D01*
X104295566Y-111406071D02*
X104295566Y-110929880D01*
X104581280Y-111501309D02*
X103581280Y-111167976D01*
X104581280Y-110834642D01*
X104962233Y-110596547D02*
X104914614Y-110548928D01*
X104771757Y-110453690D01*
X104676519Y-110406071D01*
X104533661Y-110358452D01*
X104295566Y-110310833D01*
X104105090Y-110310833D01*
X103866995Y-110358452D01*
X103724138Y-110406071D01*
X103628900Y-110453690D01*
X103486042Y-110548928D01*
X103438423Y-110596547D01*
X102041280Y-118739404D02*
X101041280Y-118739404D01*
X101041280Y-118358452D01*
X101088900Y-118263214D01*
X101136519Y-118215595D01*
X101231757Y-118167976D01*
X101374614Y-118167976D01*
X101469852Y-118215595D01*
X101517471Y-118263214D01*
X101565090Y-118358452D01*
X101565090Y-118739404D01*
X102041280Y-117739404D02*
X101041280Y-117739404D01*
X101041280Y-117501309D01*
X101088900Y-117358452D01*
X101184138Y-117263214D01*
X101279376Y-117215595D01*
X101469852Y-117167976D01*
X101612709Y-117167976D01*
X101803185Y-117215595D01*
X101898423Y-117263214D01*
X101993661Y-117358452D01*
X102041280Y-117501309D01*
X102041280Y-117739404D01*
X101374614Y-116310833D02*
X102041280Y-116310833D01*
X100993661Y-116548928D02*
X101707947Y-116787023D01*
X101707947Y-116167976D01*
X102422233Y-114739404D02*
X102374614Y-114787023D01*
X102231757Y-114882261D01*
X102136519Y-114929880D01*
X101993661Y-114977500D01*
X101755566Y-115025119D01*
X101565090Y-115025119D01*
X101326995Y-114977500D01*
X101184138Y-114929880D01*
X101088900Y-114882261D01*
X100946042Y-114787023D01*
X100898423Y-114739404D01*
X101041280Y-114167976D02*
X101041280Y-113977500D01*
X101088900Y-113882261D01*
X101184138Y-113787023D01*
X101374614Y-113739404D01*
X101707947Y-113739404D01*
X101898423Y-113787023D01*
X101993661Y-113882261D01*
X102041280Y-113977500D01*
X102041280Y-114167976D01*
X101993661Y-114263214D01*
X101898423Y-114358452D01*
X101707947Y-114406071D01*
X101374614Y-114406071D01*
X101184138Y-114358452D01*
X101088900Y-114263214D01*
X101041280Y-114167976D01*
X101946042Y-112739404D02*
X101993661Y-112787023D01*
X102041280Y-112929880D01*
X102041280Y-113025119D01*
X101993661Y-113167976D01*
X101898423Y-113263214D01*
X101803185Y-113310833D01*
X101612709Y-113358452D01*
X101469852Y-113358452D01*
X101279376Y-113310833D01*
X101184138Y-113263214D01*
X101088900Y-113167976D01*
X101041280Y-113025119D01*
X101041280Y-112929880D01*
X101088900Y-112787023D01*
X101136519Y-112739404D01*
X102041280Y-111787023D02*
X102041280Y-112358452D01*
X102041280Y-112072738D02*
X101041280Y-112072738D01*
X101184138Y-112167976D01*
X101279376Y-112263214D01*
X101326995Y-112358452D01*
X101517471Y-111025119D02*
X101565090Y-110882261D01*
X101612709Y-110834642D01*
X101707947Y-110787023D01*
X101850804Y-110787023D01*
X101946042Y-110834642D01*
X101993661Y-110882261D01*
X102041280Y-110977500D01*
X102041280Y-111358452D01*
X101041280Y-111358452D01*
X101041280Y-111025119D01*
X101088900Y-110929880D01*
X101136519Y-110882261D01*
X101231757Y-110834642D01*
X101326995Y-110834642D01*
X101422233Y-110882261D01*
X101469852Y-110929880D01*
X101517471Y-111025119D01*
X101517471Y-111358452D01*
X102422233Y-110453690D02*
X102374614Y-110406071D01*
X102231757Y-110310833D01*
X102136519Y-110263214D01*
X101993661Y-110215595D01*
X101755566Y-110167976D01*
X101565090Y-110167976D01*
X101326995Y-110215595D01*
X101184138Y-110263214D01*
X101088900Y-110310833D01*
X100946042Y-110406071D01*
X100898423Y-110453690D01*
X99381280Y-118814404D02*
X98381280Y-118814404D01*
X98381280Y-118433452D01*
X98428900Y-118338214D01*
X98476519Y-118290595D01*
X98571757Y-118242976D01*
X98714614Y-118242976D01*
X98809852Y-118290595D01*
X98857471Y-118338214D01*
X98905090Y-118433452D01*
X98905090Y-118814404D01*
X99381280Y-117814404D02*
X98381280Y-117814404D01*
X98381280Y-117576309D01*
X98428900Y-117433452D01*
X98524138Y-117338214D01*
X98619376Y-117290595D01*
X98809852Y-117242976D01*
X98952709Y-117242976D01*
X99143185Y-117290595D01*
X99238423Y-117338214D01*
X99333661Y-117433452D01*
X99381280Y-117576309D01*
X99381280Y-117814404D01*
X98381280Y-116909642D02*
X98381280Y-116290595D01*
X98762233Y-116623928D01*
X98762233Y-116481071D01*
X98809852Y-116385833D01*
X98857471Y-116338214D01*
X98952709Y-116290595D01*
X99190804Y-116290595D01*
X99286042Y-116338214D01*
X99333661Y-116385833D01*
X99381280Y-116481071D01*
X99381280Y-116766785D01*
X99333661Y-116862023D01*
X99286042Y-116909642D01*
X99762233Y-114814404D02*
X99714614Y-114862023D01*
X99571757Y-114957261D01*
X99476519Y-115004880D01*
X99333661Y-115052500D01*
X99095566Y-115100119D01*
X98905090Y-115100119D01*
X98666995Y-115052500D01*
X98524138Y-115004880D01*
X98428900Y-114957261D01*
X98286042Y-114862023D01*
X98238423Y-114814404D01*
X99381280Y-114433452D02*
X98381280Y-114433452D01*
X99381280Y-113957261D02*
X98381280Y-113957261D01*
X99381280Y-113385833D01*
X98381280Y-113385833D01*
X98381280Y-113052500D02*
X98381280Y-112481071D01*
X99381280Y-112766785D02*
X98381280Y-112766785D01*
X99381280Y-111623928D02*
X99381280Y-112195357D01*
X99381280Y-111909642D02*
X98381280Y-111909642D01*
X98524138Y-112004880D01*
X98619376Y-112100119D01*
X98666995Y-112195357D01*
X99762233Y-111290595D02*
X99714614Y-111242976D01*
X99571757Y-111147738D01*
X99476519Y-111100119D01*
X99333661Y-111052500D01*
X99095566Y-111004880D01*
X98905090Y-111004880D01*
X98666995Y-111052500D01*
X98524138Y-111100119D01*
X98428900Y-111147738D01*
X98286042Y-111242976D01*
X98238423Y-111290595D01*
X96931280Y-118814404D02*
X95931280Y-118814404D01*
X95931280Y-118433452D01*
X95978900Y-118338214D01*
X96026519Y-118290595D01*
X96121757Y-118242976D01*
X96264614Y-118242976D01*
X96359852Y-118290595D01*
X96407471Y-118338214D01*
X96455090Y-118433452D01*
X96455090Y-118814404D01*
X96931280Y-117814404D02*
X95931280Y-117814404D01*
X95931280Y-117576309D01*
X95978900Y-117433452D01*
X96074138Y-117338214D01*
X96169376Y-117290595D01*
X96359852Y-117242976D01*
X96502709Y-117242976D01*
X96693185Y-117290595D01*
X96788423Y-117338214D01*
X96883661Y-117433452D01*
X96931280Y-117576309D01*
X96931280Y-117814404D01*
X96026519Y-116862023D02*
X95978900Y-116814404D01*
X95931280Y-116719166D01*
X95931280Y-116481071D01*
X95978900Y-116385833D01*
X96026519Y-116338214D01*
X96121757Y-116290595D01*
X96216995Y-116290595D01*
X96359852Y-116338214D01*
X96931280Y-116909642D01*
X96931280Y-116290595D01*
X97312233Y-114814404D02*
X97264614Y-114862023D01*
X97121757Y-114957261D01*
X97026519Y-115004880D01*
X96883661Y-115052500D01*
X96645566Y-115100119D01*
X96455090Y-115100119D01*
X96216995Y-115052500D01*
X96074138Y-115004880D01*
X95978900Y-114957261D01*
X95836042Y-114862023D01*
X95788423Y-114814404D01*
X96931280Y-114433452D02*
X95931280Y-114433452D01*
X96931280Y-113957261D02*
X95931280Y-113957261D01*
X96931280Y-113385833D01*
X95931280Y-113385833D01*
X95931280Y-113052500D02*
X95931280Y-112481071D01*
X96931280Y-112766785D02*
X95931280Y-112766785D01*
X95931280Y-111957261D02*
X95931280Y-111862023D01*
X95978900Y-111766785D01*
X96026519Y-111719166D01*
X96121757Y-111671547D01*
X96312233Y-111623928D01*
X96550328Y-111623928D01*
X96740804Y-111671547D01*
X96836042Y-111719166D01*
X96883661Y-111766785D01*
X96931280Y-111862023D01*
X96931280Y-111957261D01*
X96883661Y-112052500D01*
X96836042Y-112100119D01*
X96740804Y-112147738D01*
X96550328Y-112195357D01*
X96312233Y-112195357D01*
X96121757Y-112147738D01*
X96026519Y-112100119D01*
X95978900Y-112052500D01*
X95931280Y-111957261D01*
X97312233Y-111290595D02*
X97264614Y-111242976D01*
X97121757Y-111147738D01*
X97026519Y-111100119D01*
X96883661Y-111052500D01*
X96645566Y-111004880D01*
X96455090Y-111004880D01*
X96216995Y-111052500D01*
X96074138Y-111100119D01*
X95978900Y-111147738D01*
X95836042Y-111242976D01*
X95788423Y-111290595D01*
X94421280Y-118739404D02*
X93421280Y-118739404D01*
X93421280Y-118358452D01*
X93468900Y-118263214D01*
X93516519Y-118215595D01*
X93611757Y-118167976D01*
X93754614Y-118167976D01*
X93849852Y-118215595D01*
X93897471Y-118263214D01*
X93945090Y-118358452D01*
X93945090Y-118739404D01*
X94421280Y-117739404D02*
X93421280Y-117739404D01*
X93421280Y-117501309D01*
X93468900Y-117358452D01*
X93564138Y-117263214D01*
X93659376Y-117215595D01*
X93849852Y-117167976D01*
X93992709Y-117167976D01*
X94183185Y-117215595D01*
X94278423Y-117263214D01*
X94373661Y-117358452D01*
X94421280Y-117501309D01*
X94421280Y-117739404D01*
X94421280Y-116215595D02*
X94421280Y-116787023D01*
X94421280Y-116501309D02*
X93421280Y-116501309D01*
X93564138Y-116596547D01*
X93659376Y-116691785D01*
X93706995Y-116787023D01*
X94802233Y-114739404D02*
X94754614Y-114787023D01*
X94611757Y-114882261D01*
X94516519Y-114929880D01*
X94373661Y-114977500D01*
X94135566Y-115025119D01*
X93945090Y-115025119D01*
X93706995Y-114977500D01*
X93564138Y-114929880D01*
X93468900Y-114882261D01*
X93326042Y-114787023D01*
X93278423Y-114739404D01*
X93421280Y-114501309D02*
X93421280Y-113929880D01*
X94421280Y-114215595D02*
X93421280Y-114215595D01*
X93421280Y-113691785D02*
X94421280Y-113025119D01*
X93421280Y-113025119D02*
X94421280Y-113691785D01*
X94421280Y-112644166D02*
X93421280Y-112644166D01*
X93421280Y-112406071D01*
X93468900Y-112263214D01*
X93564138Y-112167976D01*
X93659376Y-112120357D01*
X93849852Y-112072738D01*
X93992709Y-112072738D01*
X94183185Y-112120357D01*
X94278423Y-112167976D01*
X94373661Y-112263214D01*
X94421280Y-112406071D01*
X94421280Y-112644166D01*
X94802233Y-111739404D02*
X94754614Y-111691785D01*
X94611757Y-111596547D01*
X94516519Y-111548928D01*
X94373661Y-111501309D01*
X94135566Y-111453690D01*
X93945090Y-111453690D01*
X93706995Y-111501309D01*
X93564138Y-111548928D01*
X93468900Y-111596547D01*
X93326042Y-111691785D01*
X93278423Y-111739404D01*
X91856280Y-118739404D02*
X90856280Y-118739404D01*
X90856280Y-118358452D01*
X90903900Y-118263214D01*
X90951519Y-118215595D01*
X91046757Y-118167976D01*
X91189614Y-118167976D01*
X91284852Y-118215595D01*
X91332471Y-118263214D01*
X91380090Y-118358452D01*
X91380090Y-118739404D01*
X91856280Y-117739404D02*
X90856280Y-117739404D01*
X90856280Y-117501309D01*
X90903900Y-117358452D01*
X90999138Y-117263214D01*
X91094376Y-117215595D01*
X91284852Y-117167976D01*
X91427709Y-117167976D01*
X91618185Y-117215595D01*
X91713423Y-117263214D01*
X91808661Y-117358452D01*
X91856280Y-117501309D01*
X91856280Y-117739404D01*
X90856280Y-116548928D02*
X90856280Y-116453690D01*
X90903900Y-116358452D01*
X90951519Y-116310833D01*
X91046757Y-116263214D01*
X91237233Y-116215595D01*
X91475328Y-116215595D01*
X91665804Y-116263214D01*
X91761042Y-116310833D01*
X91808661Y-116358452D01*
X91856280Y-116453690D01*
X91856280Y-116548928D01*
X91808661Y-116644166D01*
X91761042Y-116691785D01*
X91665804Y-116739404D01*
X91475328Y-116787023D01*
X91237233Y-116787023D01*
X91046757Y-116739404D01*
X90951519Y-116691785D01*
X90903900Y-116644166D01*
X90856280Y-116548928D01*
X92237233Y-114739404D02*
X92189614Y-114787023D01*
X92046757Y-114882261D01*
X91951519Y-114929880D01*
X91808661Y-114977500D01*
X91570566Y-115025119D01*
X91380090Y-115025119D01*
X91141995Y-114977500D01*
X90999138Y-114929880D01*
X90903900Y-114882261D01*
X90761042Y-114787023D01*
X90713423Y-114739404D01*
X91856280Y-113787023D02*
X91380090Y-114120357D01*
X91856280Y-114358452D02*
X90856280Y-114358452D01*
X90856280Y-113977500D01*
X90903900Y-113882261D01*
X90951519Y-113834642D01*
X91046757Y-113787023D01*
X91189614Y-113787023D01*
X91284852Y-113834642D01*
X91332471Y-113882261D01*
X91380090Y-113977500D01*
X91380090Y-114358452D01*
X90856280Y-113453690D02*
X91856280Y-112787023D01*
X90856280Y-112787023D02*
X91856280Y-113453690D01*
X91856280Y-112406071D02*
X90856280Y-112406071D01*
X90856280Y-112167976D01*
X90903900Y-112025119D01*
X90999138Y-111929880D01*
X91094376Y-111882261D01*
X91284852Y-111834642D01*
X91427709Y-111834642D01*
X91618185Y-111882261D01*
X91713423Y-111929880D01*
X91808661Y-112025119D01*
X91856280Y-112167976D01*
X91856280Y-112406071D01*
X92237233Y-111501309D02*
X92189614Y-111453690D01*
X92046757Y-111358452D01*
X91951519Y-111310833D01*
X91808661Y-111263214D01*
X91570566Y-111215595D01*
X91380090Y-111215595D01*
X91141995Y-111263214D01*
X90999138Y-111310833D01*
X90903900Y-111358452D01*
X90761042Y-111453690D01*
X90713423Y-111501309D01*
X111531380Y-51288733D02*
X112245666Y-51288733D01*
X112388523Y-51336352D01*
X112483761Y-51431590D01*
X112531380Y-51574447D01*
X112531380Y-51669685D01*
X111864714Y-50383971D02*
X112531380Y-50383971D01*
X111483761Y-50622066D02*
X112198047Y-50860161D01*
X112198047Y-50241114D01*
X92362333Y-63290995D02*
X92314714Y-63338614D01*
X92171857Y-63433852D01*
X92076619Y-63481471D01*
X91933761Y-63529090D01*
X91695666Y-63576709D01*
X91505190Y-63576709D01*
X91267095Y-63529090D01*
X91124238Y-63481471D01*
X91029000Y-63433852D01*
X90886142Y-63338614D01*
X90838523Y-63290995D01*
X90981380Y-63052900D02*
X90981380Y-62481471D01*
X91981380Y-62767185D02*
X90981380Y-62767185D01*
X90981380Y-61957661D02*
X90981380Y-61767185D01*
X91029000Y-61671947D01*
X91124238Y-61576709D01*
X91314714Y-61529090D01*
X91648047Y-61529090D01*
X91838523Y-61576709D01*
X91933761Y-61671947D01*
X91981380Y-61767185D01*
X91981380Y-61957661D01*
X91933761Y-62052900D01*
X91838523Y-62148138D01*
X91648047Y-62195757D01*
X91314714Y-62195757D01*
X91124238Y-62148138D01*
X91029000Y-62052900D01*
X90981380Y-61957661D01*
X91933761Y-61148138D02*
X91981380Y-61005280D01*
X91981380Y-60767185D01*
X91933761Y-60671947D01*
X91886142Y-60624328D01*
X91790904Y-60576709D01*
X91695666Y-60576709D01*
X91600428Y-60624328D01*
X91552809Y-60671947D01*
X91505190Y-60767185D01*
X91457571Y-60957661D01*
X91409952Y-61052900D01*
X91362333Y-61100519D01*
X91267095Y-61148138D01*
X91171857Y-61148138D01*
X91076619Y-61100519D01*
X91029000Y-61052900D01*
X90981380Y-60957661D01*
X90981380Y-60719566D01*
X91029000Y-60576709D01*
X91886142Y-59576709D02*
X91933761Y-59624328D01*
X91981380Y-59767185D01*
X91981380Y-59862423D01*
X91933761Y-60005280D01*
X91838523Y-60100519D01*
X91743285Y-60148138D01*
X91552809Y-60195757D01*
X91409952Y-60195757D01*
X91219476Y-60148138D01*
X91124238Y-60100519D01*
X91029000Y-60005280D01*
X90981380Y-59862423D01*
X90981380Y-59767185D01*
X91029000Y-59624328D01*
X91076619Y-59576709D01*
X91076619Y-59195757D02*
X91029000Y-59148138D01*
X90981380Y-59052900D01*
X90981380Y-58814804D01*
X91029000Y-58719566D01*
X91076619Y-58671947D01*
X91171857Y-58624328D01*
X91267095Y-58624328D01*
X91409952Y-58671947D01*
X91981380Y-59243376D01*
X91981380Y-58624328D01*
X92362333Y-58290995D02*
X92314714Y-58243376D01*
X92171857Y-58148138D01*
X92076619Y-58100519D01*
X91933761Y-58052900D01*
X91695666Y-58005280D01*
X91505190Y-58005280D01*
X91267095Y-58052900D01*
X91124238Y-58100519D01*
X91029000Y-58148138D01*
X90886142Y-58243376D01*
X90838523Y-58290995D01*
X91981380Y-56767185D02*
X90981380Y-56767185D01*
X90981380Y-56386233D01*
X91029000Y-56290995D01*
X91076619Y-56243376D01*
X91171857Y-56195757D01*
X91314714Y-56195757D01*
X91409952Y-56243376D01*
X91457571Y-56290995D01*
X91505190Y-56386233D01*
X91505190Y-56767185D01*
X91886142Y-55195757D02*
X91933761Y-55243376D01*
X91981380Y-55386233D01*
X91981380Y-55481471D01*
X91933761Y-55624328D01*
X91838523Y-55719566D01*
X91743285Y-55767185D01*
X91552809Y-55814804D01*
X91409952Y-55814804D01*
X91219476Y-55767185D01*
X91124238Y-55719566D01*
X91029000Y-55624328D01*
X90981380Y-55481471D01*
X90981380Y-55386233D01*
X91029000Y-55243376D01*
X91076619Y-55195757D01*
X90981380Y-54862423D02*
X90981380Y-54195757D01*
X91981380Y-54624328D01*
X94902333Y-63290995D02*
X94854714Y-63338614D01*
X94711857Y-63433852D01*
X94616619Y-63481471D01*
X94473761Y-63529090D01*
X94235666Y-63576709D01*
X94045190Y-63576709D01*
X93807095Y-63529090D01*
X93664238Y-63481471D01*
X93569000Y-63433852D01*
X93426142Y-63338614D01*
X93378523Y-63290995D01*
X93521380Y-63052900D02*
X93521380Y-62481471D01*
X94521380Y-62767185D02*
X93521380Y-62767185D01*
X93521380Y-61957661D02*
X93521380Y-61767185D01*
X93569000Y-61671947D01*
X93664238Y-61576709D01*
X93854714Y-61529090D01*
X94188047Y-61529090D01*
X94378523Y-61576709D01*
X94473761Y-61671947D01*
X94521380Y-61767185D01*
X94521380Y-61957661D01*
X94473761Y-62052900D01*
X94378523Y-62148138D01*
X94188047Y-62195757D01*
X93854714Y-62195757D01*
X93664238Y-62148138D01*
X93569000Y-62052900D01*
X93521380Y-61957661D01*
X94473761Y-61148138D02*
X94521380Y-61005280D01*
X94521380Y-60767185D01*
X94473761Y-60671947D01*
X94426142Y-60624328D01*
X94330904Y-60576709D01*
X94235666Y-60576709D01*
X94140428Y-60624328D01*
X94092809Y-60671947D01*
X94045190Y-60767185D01*
X93997571Y-60957661D01*
X93949952Y-61052900D01*
X93902333Y-61100519D01*
X93807095Y-61148138D01*
X93711857Y-61148138D01*
X93616619Y-61100519D01*
X93569000Y-61052900D01*
X93521380Y-60957661D01*
X93521380Y-60719566D01*
X93569000Y-60576709D01*
X94426142Y-59576709D02*
X94473761Y-59624328D01*
X94521380Y-59767185D01*
X94521380Y-59862423D01*
X94473761Y-60005280D01*
X94378523Y-60100519D01*
X94283285Y-60148138D01*
X94092809Y-60195757D01*
X93949952Y-60195757D01*
X93759476Y-60148138D01*
X93664238Y-60100519D01*
X93569000Y-60005280D01*
X93521380Y-59862423D01*
X93521380Y-59767185D01*
X93569000Y-59624328D01*
X93616619Y-59576709D01*
X94521380Y-58624328D02*
X94521380Y-59195757D01*
X94521380Y-58910042D02*
X93521380Y-58910042D01*
X93664238Y-59005280D01*
X93759476Y-59100519D01*
X93807095Y-59195757D01*
X94902333Y-58290995D02*
X94854714Y-58243376D01*
X94711857Y-58148138D01*
X94616619Y-58100519D01*
X94473761Y-58052900D01*
X94235666Y-58005280D01*
X94045190Y-58005280D01*
X93807095Y-58052900D01*
X93664238Y-58100519D01*
X93569000Y-58148138D01*
X93426142Y-58243376D01*
X93378523Y-58290995D01*
X94521380Y-56767185D02*
X93521380Y-56767185D01*
X93521380Y-56386233D01*
X93569000Y-56290995D01*
X93616619Y-56243376D01*
X93711857Y-56195757D01*
X93854714Y-56195757D01*
X93949952Y-56243376D01*
X93997571Y-56290995D01*
X94045190Y-56386233D01*
X94045190Y-56767185D01*
X94426142Y-55195757D02*
X94473761Y-55243376D01*
X94521380Y-55386233D01*
X94521380Y-55481471D01*
X94473761Y-55624328D01*
X94378523Y-55719566D01*
X94283285Y-55767185D01*
X94092809Y-55814804D01*
X93949952Y-55814804D01*
X93759476Y-55767185D01*
X93664238Y-55719566D01*
X93569000Y-55624328D01*
X93521380Y-55481471D01*
X93521380Y-55386233D01*
X93569000Y-55243376D01*
X93616619Y-55195757D01*
X93521380Y-54338614D02*
X93521380Y-54529090D01*
X93569000Y-54624328D01*
X93616619Y-54671947D01*
X93759476Y-54767185D01*
X93949952Y-54814804D01*
X94330904Y-54814804D01*
X94426142Y-54767185D01*
X94473761Y-54719566D01*
X94521380Y-54624328D01*
X94521380Y-54433852D01*
X94473761Y-54338614D01*
X94426142Y-54290995D01*
X94330904Y-54243376D01*
X94092809Y-54243376D01*
X93997571Y-54290995D01*
X93949952Y-54338614D01*
X93902333Y-54433852D01*
X93902333Y-54624328D01*
X93949952Y-54719566D01*
X93997571Y-54767185D01*
X94092809Y-54814804D01*
X97442333Y-60814804D02*
X97394714Y-60862423D01*
X97251857Y-60957661D01*
X97156619Y-61005280D01*
X97013761Y-61052900D01*
X96775666Y-61100519D01*
X96585190Y-61100519D01*
X96347095Y-61052900D01*
X96204238Y-61005280D01*
X96109000Y-60957661D01*
X95966142Y-60862423D01*
X95918523Y-60814804D01*
X96061380Y-60576709D02*
X96061380Y-60005280D01*
X97061380Y-60290995D02*
X96061380Y-60290995D01*
X97061380Y-59671947D02*
X96061380Y-59671947D01*
X96061380Y-59433852D01*
X96109000Y-59290995D01*
X96204238Y-59195757D01*
X96299476Y-59148138D01*
X96489952Y-59100519D01*
X96632809Y-59100519D01*
X96823285Y-59148138D01*
X96918523Y-59195757D01*
X97013761Y-59290995D01*
X97061380Y-59433852D01*
X97061380Y-59671947D01*
X97061380Y-58671947D02*
X96061380Y-58671947D01*
X97442333Y-58290995D02*
X97394714Y-58243376D01*
X97251857Y-58148138D01*
X97156619Y-58100519D01*
X97013761Y-58052900D01*
X96775666Y-58005280D01*
X96585190Y-58005280D01*
X96347095Y-58052900D01*
X96204238Y-58100519D01*
X96109000Y-58148138D01*
X95966142Y-58243376D01*
X95918523Y-58290995D01*
X97061380Y-56767185D02*
X96061380Y-56767185D01*
X96061380Y-56386233D01*
X96109000Y-56290995D01*
X96156619Y-56243376D01*
X96251857Y-56195757D01*
X96394714Y-56195757D01*
X96489952Y-56243376D01*
X96537571Y-56290995D01*
X96585190Y-56386233D01*
X96585190Y-56767185D01*
X96966142Y-55195757D02*
X97013761Y-55243376D01*
X97061380Y-55386233D01*
X97061380Y-55481471D01*
X97013761Y-55624328D01*
X96918523Y-55719566D01*
X96823285Y-55767185D01*
X96632809Y-55814804D01*
X96489952Y-55814804D01*
X96299476Y-55767185D01*
X96204238Y-55719566D01*
X96109000Y-55624328D01*
X96061380Y-55481471D01*
X96061380Y-55386233D01*
X96109000Y-55243376D01*
X96156619Y-55195757D01*
X96061380Y-54290995D02*
X96061380Y-54767185D01*
X96537571Y-54814804D01*
X96489952Y-54767185D01*
X96442333Y-54671947D01*
X96442333Y-54433852D01*
X96489952Y-54338614D01*
X96537571Y-54290995D01*
X96632809Y-54243376D01*
X96870904Y-54243376D01*
X96966142Y-54290995D01*
X97013761Y-54338614D01*
X97061380Y-54433852D01*
X97061380Y-54671947D01*
X97013761Y-54767185D01*
X96966142Y-54814804D01*
X100017333Y-61386233D02*
X99969714Y-61433852D01*
X99826857Y-61529090D01*
X99731619Y-61576709D01*
X99588761Y-61624328D01*
X99350666Y-61671947D01*
X99160190Y-61671947D01*
X98922095Y-61624328D01*
X98779238Y-61576709D01*
X98684000Y-61529090D01*
X98541142Y-61433852D01*
X98493523Y-61386233D01*
X98636380Y-61148138D02*
X98636380Y-60576709D01*
X99636380Y-60862423D02*
X98636380Y-60862423D01*
X99636380Y-60243376D02*
X98636380Y-60243376D01*
X98636380Y-60005280D01*
X98684000Y-59862423D01*
X98779238Y-59767185D01*
X98874476Y-59719566D01*
X99064952Y-59671947D01*
X99207809Y-59671947D01*
X99398285Y-59719566D01*
X99493523Y-59767185D01*
X99588761Y-59862423D01*
X99636380Y-60005280D01*
X99636380Y-60243376D01*
X98636380Y-59052900D02*
X98636380Y-58862423D01*
X98684000Y-58767185D01*
X98779238Y-58671947D01*
X98969714Y-58624328D01*
X99303047Y-58624328D01*
X99493523Y-58671947D01*
X99588761Y-58767185D01*
X99636380Y-58862423D01*
X99636380Y-59052900D01*
X99588761Y-59148138D01*
X99493523Y-59243376D01*
X99303047Y-59290995D01*
X98969714Y-59290995D01*
X98779238Y-59243376D01*
X98684000Y-59148138D01*
X98636380Y-59052900D01*
X100017333Y-58290995D02*
X99969714Y-58243376D01*
X99826857Y-58148138D01*
X99731619Y-58100519D01*
X99588761Y-58052900D01*
X99350666Y-58005280D01*
X99160190Y-58005280D01*
X98922095Y-58052900D01*
X98779238Y-58100519D01*
X98684000Y-58148138D01*
X98541142Y-58243376D01*
X98493523Y-58290995D01*
X99636380Y-56767185D02*
X98636380Y-56767185D01*
X98636380Y-56386233D01*
X98684000Y-56290995D01*
X98731619Y-56243376D01*
X98826857Y-56195757D01*
X98969714Y-56195757D01*
X99064952Y-56243376D01*
X99112571Y-56290995D01*
X99160190Y-56386233D01*
X99160190Y-56767185D01*
X99541142Y-55195757D02*
X99588761Y-55243376D01*
X99636380Y-55386233D01*
X99636380Y-55481471D01*
X99588761Y-55624328D01*
X99493523Y-55719566D01*
X99398285Y-55767185D01*
X99207809Y-55814804D01*
X99064952Y-55814804D01*
X98874476Y-55767185D01*
X98779238Y-55719566D01*
X98684000Y-55624328D01*
X98636380Y-55481471D01*
X98636380Y-55386233D01*
X98684000Y-55243376D01*
X98731619Y-55195757D01*
X98969714Y-54338614D02*
X99636380Y-54338614D01*
X98588761Y-54576709D02*
X99303047Y-54814804D01*
X99303047Y-54195757D01*
X102522333Y-61433852D02*
X102474714Y-61481471D01*
X102331857Y-61576709D01*
X102236619Y-61624328D01*
X102093761Y-61671947D01*
X101855666Y-61719566D01*
X101665190Y-61719566D01*
X101427095Y-61671947D01*
X101284238Y-61624328D01*
X101189000Y-61576709D01*
X101046142Y-61481471D01*
X100998523Y-61433852D01*
X101141380Y-61195757D02*
X101141380Y-60624328D01*
X102141380Y-60910042D02*
X101141380Y-60910042D01*
X102141380Y-60290995D02*
X101141380Y-60290995D01*
X101855666Y-59957661D01*
X101141380Y-59624328D01*
X102141380Y-59624328D01*
X102093761Y-59195757D02*
X102141380Y-59052900D01*
X102141380Y-58814804D01*
X102093761Y-58719566D01*
X102046142Y-58671947D01*
X101950904Y-58624328D01*
X101855666Y-58624328D01*
X101760428Y-58671947D01*
X101712809Y-58719566D01*
X101665190Y-58814804D01*
X101617571Y-59005280D01*
X101569952Y-59100519D01*
X101522333Y-59148138D01*
X101427095Y-59195757D01*
X101331857Y-59195757D01*
X101236619Y-59148138D01*
X101189000Y-59100519D01*
X101141380Y-59005280D01*
X101141380Y-58767185D01*
X101189000Y-58624328D01*
X102522333Y-58290995D02*
X102474714Y-58243376D01*
X102331857Y-58148138D01*
X102236619Y-58100519D01*
X102093761Y-58052900D01*
X101855666Y-58005280D01*
X101665190Y-58005280D01*
X101427095Y-58052900D01*
X101284238Y-58100519D01*
X101189000Y-58148138D01*
X101046142Y-58243376D01*
X100998523Y-58290995D01*
X102141380Y-56767185D02*
X101141380Y-56767185D01*
X101141380Y-56386233D01*
X101189000Y-56290995D01*
X101236619Y-56243376D01*
X101331857Y-56195757D01*
X101474714Y-56195757D01*
X101569952Y-56243376D01*
X101617571Y-56290995D01*
X101665190Y-56386233D01*
X101665190Y-56767185D01*
X102046142Y-55195757D02*
X102093761Y-55243376D01*
X102141380Y-55386233D01*
X102141380Y-55481471D01*
X102093761Y-55624328D01*
X101998523Y-55719566D01*
X101903285Y-55767185D01*
X101712809Y-55814804D01*
X101569952Y-55814804D01*
X101379476Y-55767185D01*
X101284238Y-55719566D01*
X101189000Y-55624328D01*
X101141380Y-55481471D01*
X101141380Y-55386233D01*
X101189000Y-55243376D01*
X101236619Y-55195757D01*
X101141380Y-54862423D02*
X101141380Y-54243376D01*
X101522333Y-54576709D01*
X101522333Y-54433852D01*
X101569952Y-54338614D01*
X101617571Y-54290995D01*
X101712809Y-54243376D01*
X101950904Y-54243376D01*
X102046142Y-54290995D01*
X102093761Y-54338614D01*
X102141380Y-54433852D01*
X102141380Y-54719566D01*
X102093761Y-54814804D01*
X102046142Y-54862423D01*
X105062333Y-61338614D02*
X105014714Y-61386233D01*
X104871857Y-61481471D01*
X104776619Y-61529090D01*
X104633761Y-61576709D01*
X104395666Y-61624328D01*
X104205190Y-61624328D01*
X103967095Y-61576709D01*
X103824238Y-61529090D01*
X103729000Y-61481471D01*
X103586142Y-61386233D01*
X103538523Y-61338614D01*
X103681380Y-61100519D02*
X103681380Y-60529090D01*
X104681380Y-60814804D02*
X103681380Y-60814804D01*
X104586142Y-59624328D02*
X104633761Y-59671947D01*
X104681380Y-59814804D01*
X104681380Y-59910042D01*
X104633761Y-60052900D01*
X104538523Y-60148138D01*
X104443285Y-60195757D01*
X104252809Y-60243376D01*
X104109952Y-60243376D01*
X103919476Y-60195757D01*
X103824238Y-60148138D01*
X103729000Y-60052900D01*
X103681380Y-59910042D01*
X103681380Y-59814804D01*
X103729000Y-59671947D01*
X103776619Y-59624328D01*
X104681380Y-59195757D02*
X103681380Y-59195757D01*
X104681380Y-58624328D02*
X104109952Y-59052900D01*
X103681380Y-58624328D02*
X104252809Y-59195757D01*
X105062333Y-58290995D02*
X105014714Y-58243376D01*
X104871857Y-58148138D01*
X104776619Y-58100519D01*
X104633761Y-58052900D01*
X104395666Y-58005280D01*
X104205190Y-58005280D01*
X103967095Y-58052900D01*
X103824238Y-58100519D01*
X103729000Y-58148138D01*
X103586142Y-58243376D01*
X103538523Y-58290995D01*
X104681380Y-56767185D02*
X103681380Y-56767185D01*
X103681380Y-56386233D01*
X103729000Y-56290995D01*
X103776619Y-56243376D01*
X103871857Y-56195757D01*
X104014714Y-56195757D01*
X104109952Y-56243376D01*
X104157571Y-56290995D01*
X104205190Y-56386233D01*
X104205190Y-56767185D01*
X104586142Y-55195757D02*
X104633761Y-55243376D01*
X104681380Y-55386233D01*
X104681380Y-55481471D01*
X104633761Y-55624328D01*
X104538523Y-55719566D01*
X104443285Y-55767185D01*
X104252809Y-55814804D01*
X104109952Y-55814804D01*
X103919476Y-55767185D01*
X103824238Y-55719566D01*
X103729000Y-55624328D01*
X103681380Y-55481471D01*
X103681380Y-55386233D01*
X103729000Y-55243376D01*
X103776619Y-55195757D01*
X103776619Y-54814804D02*
X103729000Y-54767185D01*
X103681380Y-54671947D01*
X103681380Y-54433852D01*
X103729000Y-54338614D01*
X103776619Y-54290995D01*
X103871857Y-54243376D01*
X103967095Y-54243376D01*
X104109952Y-54290995D01*
X104681380Y-54862423D01*
X104681380Y-54243376D01*
X107602333Y-61386233D02*
X107554714Y-61433852D01*
X107411857Y-61529090D01*
X107316619Y-61576709D01*
X107173761Y-61624328D01*
X106935666Y-61671947D01*
X106745190Y-61671947D01*
X106507095Y-61624328D01*
X106364238Y-61576709D01*
X106269000Y-61529090D01*
X106126142Y-61433852D01*
X106078523Y-61386233D01*
X107173761Y-61052900D02*
X107221380Y-60910042D01*
X107221380Y-60671947D01*
X107173761Y-60576709D01*
X107126142Y-60529090D01*
X107030904Y-60481471D01*
X106935666Y-60481471D01*
X106840428Y-60529090D01*
X106792809Y-60576709D01*
X106745190Y-60671947D01*
X106697571Y-60862423D01*
X106649952Y-60957661D01*
X106602333Y-61005280D01*
X106507095Y-61052900D01*
X106411857Y-61052900D01*
X106316619Y-61005280D01*
X106269000Y-60957661D01*
X106221380Y-60862423D01*
X106221380Y-60624328D01*
X106269000Y-60481471D01*
X107221380Y-60052900D02*
X106221380Y-60052900D01*
X106221380Y-59814804D01*
X106269000Y-59671947D01*
X106364238Y-59576709D01*
X106459476Y-59529090D01*
X106649952Y-59481471D01*
X106792809Y-59481471D01*
X106983285Y-59529090D01*
X107078523Y-59576709D01*
X107173761Y-59671947D01*
X107221380Y-59814804D01*
X107221380Y-60052900D01*
X106935666Y-59100519D02*
X106935666Y-58624328D01*
X107221380Y-59195757D02*
X106221380Y-58862423D01*
X107221380Y-58529090D01*
X107602333Y-58290995D02*
X107554714Y-58243376D01*
X107411857Y-58148138D01*
X107316619Y-58100519D01*
X107173761Y-58052900D01*
X106935666Y-58005280D01*
X106745190Y-58005280D01*
X106507095Y-58052900D01*
X106364238Y-58100519D01*
X106269000Y-58148138D01*
X106126142Y-58243376D01*
X106078523Y-58290995D01*
X107221380Y-56767185D02*
X106221380Y-56767185D01*
X106221380Y-56386233D01*
X106269000Y-56290995D01*
X106316619Y-56243376D01*
X106411857Y-56195757D01*
X106554714Y-56195757D01*
X106649952Y-56243376D01*
X106697571Y-56290995D01*
X106745190Y-56386233D01*
X106745190Y-56767185D01*
X107126142Y-55195757D02*
X107173761Y-55243376D01*
X107221380Y-55386233D01*
X107221380Y-55481471D01*
X107173761Y-55624328D01*
X107078523Y-55719566D01*
X106983285Y-55767185D01*
X106792809Y-55814804D01*
X106649952Y-55814804D01*
X106459476Y-55767185D01*
X106364238Y-55719566D01*
X106269000Y-55624328D01*
X106221380Y-55481471D01*
X106221380Y-55386233D01*
X106269000Y-55243376D01*
X106316619Y-55195757D01*
X107221380Y-54243376D02*
X107221380Y-54814804D01*
X107221380Y-54529090D02*
X106221380Y-54529090D01*
X106364238Y-54624328D01*
X106459476Y-54719566D01*
X106507095Y-54814804D01*
X110142333Y-61338614D02*
X110094714Y-61386233D01*
X109951857Y-61481471D01*
X109856619Y-61529090D01*
X109713761Y-61576709D01*
X109475666Y-61624328D01*
X109285190Y-61624328D01*
X109047095Y-61576709D01*
X108904238Y-61529090D01*
X108809000Y-61481471D01*
X108666142Y-61386233D01*
X108618523Y-61338614D01*
X109713761Y-61005280D02*
X109761380Y-60862423D01*
X109761380Y-60624328D01*
X109713761Y-60529090D01*
X109666142Y-60481471D01*
X109570904Y-60433852D01*
X109475666Y-60433852D01*
X109380428Y-60481471D01*
X109332809Y-60529090D01*
X109285190Y-60624328D01*
X109237571Y-60814804D01*
X109189952Y-60910042D01*
X109142333Y-60957661D01*
X109047095Y-61005280D01*
X108951857Y-61005280D01*
X108856619Y-60957661D01*
X108809000Y-60910042D01*
X108761380Y-60814804D01*
X108761380Y-60576709D01*
X108809000Y-60433852D01*
X109666142Y-59433852D02*
X109713761Y-59481471D01*
X109761380Y-59624328D01*
X109761380Y-59719566D01*
X109713761Y-59862423D01*
X109618523Y-59957661D01*
X109523285Y-60005280D01*
X109332809Y-60052900D01*
X109189952Y-60052900D01*
X108999476Y-60005280D01*
X108904238Y-59957661D01*
X108809000Y-59862423D01*
X108761380Y-59719566D01*
X108761380Y-59624328D01*
X108809000Y-59481471D01*
X108856619Y-59433852D01*
X109761380Y-58529090D02*
X109761380Y-59005280D01*
X108761380Y-59005280D01*
X110142333Y-58290995D02*
X110094714Y-58243376D01*
X109951857Y-58148138D01*
X109856619Y-58100519D01*
X109713761Y-58052900D01*
X109475666Y-58005280D01*
X109285190Y-58005280D01*
X109047095Y-58052900D01*
X108904238Y-58100519D01*
X108809000Y-58148138D01*
X108666142Y-58243376D01*
X108618523Y-58290995D01*
X109761380Y-56767185D02*
X108761380Y-56767185D01*
X108761380Y-56386233D01*
X108809000Y-56290995D01*
X108856619Y-56243376D01*
X108951857Y-56195757D01*
X109094714Y-56195757D01*
X109189952Y-56243376D01*
X109237571Y-56290995D01*
X109285190Y-56386233D01*
X109285190Y-56767185D01*
X109666142Y-55195757D02*
X109713761Y-55243376D01*
X109761380Y-55386233D01*
X109761380Y-55481471D01*
X109713761Y-55624328D01*
X109618523Y-55719566D01*
X109523285Y-55767185D01*
X109332809Y-55814804D01*
X109189952Y-55814804D01*
X108999476Y-55767185D01*
X108904238Y-55719566D01*
X108809000Y-55624328D01*
X108761380Y-55481471D01*
X108761380Y-55386233D01*
X108809000Y-55243376D01*
X108856619Y-55195757D01*
X108761380Y-54576709D02*
X108761380Y-54481471D01*
X108809000Y-54386233D01*
X108856619Y-54338614D01*
X108951857Y-54290995D01*
X109142333Y-54243376D01*
X109380428Y-54243376D01*
X109570904Y-54290995D01*
X109666142Y-54338614D01*
X109713761Y-54386233D01*
X109761380Y-54481471D01*
X109761380Y-54576709D01*
X109713761Y-54671947D01*
X109666142Y-54719566D01*
X109570904Y-54767185D01*
X109380428Y-54814804D01*
X109142333Y-54814804D01*
X108951857Y-54767185D01*
X108856619Y-54719566D01*
X108809000Y-54671947D01*
X108761380Y-54576709D01*
X60156980Y-51238733D02*
X60871266Y-51238733D01*
X61014123Y-51286352D01*
X61109361Y-51381590D01*
X61156980Y-51524447D01*
X61156980Y-51619685D01*
X60156980Y-50857780D02*
X60156980Y-50238733D01*
X60537933Y-50572066D01*
X60537933Y-50429209D01*
X60585552Y-50333971D01*
X60633171Y-50286352D01*
X60728409Y-50238733D01*
X60966504Y-50238733D01*
X61061742Y-50286352D01*
X61109361Y-50333971D01*
X61156980Y-50429209D01*
X61156980Y-50714923D01*
X61109361Y-50810161D01*
X61061742Y-50857780D01*
X82087933Y-62193376D02*
X82040314Y-62240995D01*
X81897457Y-62336233D01*
X81802219Y-62383852D01*
X81659361Y-62431471D01*
X81421266Y-62479090D01*
X81230790Y-62479090D01*
X80992695Y-62431471D01*
X80849838Y-62383852D01*
X80754600Y-62336233D01*
X80611742Y-62240995D01*
X80564123Y-62193376D01*
X81421266Y-61860042D02*
X81421266Y-61383852D01*
X81706980Y-61955280D02*
X80706980Y-61621947D01*
X81706980Y-61288614D01*
X81706980Y-60955280D02*
X80706980Y-60955280D01*
X80706980Y-60717185D01*
X80754600Y-60574328D01*
X80849838Y-60479090D01*
X80945076Y-60431471D01*
X81135552Y-60383852D01*
X81278409Y-60383852D01*
X81468885Y-60431471D01*
X81564123Y-60479090D01*
X81659361Y-60574328D01*
X81706980Y-60717185D01*
X81706980Y-60955280D01*
X81611742Y-59383852D02*
X81659361Y-59431471D01*
X81706980Y-59574328D01*
X81706980Y-59669566D01*
X81659361Y-59812423D01*
X81564123Y-59907661D01*
X81468885Y-59955280D01*
X81278409Y-60002900D01*
X81135552Y-60002900D01*
X80945076Y-59955280D01*
X80849838Y-59907661D01*
X80754600Y-59812423D01*
X80706980Y-59669566D01*
X80706980Y-59574328D01*
X80754600Y-59431471D01*
X80802219Y-59383852D01*
X80706980Y-59050519D02*
X80706980Y-58383852D01*
X81706980Y-58812423D01*
X82087933Y-58098138D02*
X82040314Y-58050519D01*
X81897457Y-57955280D01*
X81802219Y-57907661D01*
X81659361Y-57860042D01*
X81421266Y-57812423D01*
X81230790Y-57812423D01*
X80992695Y-57860042D01*
X80849838Y-57907661D01*
X80754600Y-57955280D01*
X80611742Y-58050519D01*
X80564123Y-58098138D01*
X81706980Y-56574328D02*
X80706980Y-56574328D01*
X80706980Y-56193376D01*
X80754600Y-56098138D01*
X80802219Y-56050519D01*
X80897457Y-56002900D01*
X81040314Y-56002900D01*
X81135552Y-56050519D01*
X81183171Y-56098138D01*
X81230790Y-56193376D01*
X81230790Y-56574328D01*
X81421266Y-55621947D02*
X81421266Y-55145757D01*
X81706980Y-55717185D02*
X80706980Y-55383852D01*
X81706980Y-55050519D01*
X80706980Y-54812423D02*
X80706980Y-54145757D01*
X81706980Y-54574328D01*
X79547933Y-62193376D02*
X79500314Y-62240995D01*
X79357457Y-62336233D01*
X79262219Y-62383852D01*
X79119361Y-62431471D01*
X78881266Y-62479090D01*
X78690790Y-62479090D01*
X78452695Y-62431471D01*
X78309838Y-62383852D01*
X78214600Y-62336233D01*
X78071742Y-62240995D01*
X78024123Y-62193376D01*
X78881266Y-61860042D02*
X78881266Y-61383852D01*
X79166980Y-61955280D02*
X78166980Y-61621947D01*
X79166980Y-61288614D01*
X79166980Y-60955280D02*
X78166980Y-60955280D01*
X78166980Y-60717185D01*
X78214600Y-60574328D01*
X78309838Y-60479090D01*
X78405076Y-60431471D01*
X78595552Y-60383852D01*
X78738409Y-60383852D01*
X78928885Y-60431471D01*
X79024123Y-60479090D01*
X79119361Y-60574328D01*
X79166980Y-60717185D01*
X79166980Y-60955280D01*
X79071742Y-59383852D02*
X79119361Y-59431471D01*
X79166980Y-59574328D01*
X79166980Y-59669566D01*
X79119361Y-59812423D01*
X79024123Y-59907661D01*
X78928885Y-59955280D01*
X78738409Y-60002900D01*
X78595552Y-60002900D01*
X78405076Y-59955280D01*
X78309838Y-59907661D01*
X78214600Y-59812423D01*
X78166980Y-59669566D01*
X78166980Y-59574328D01*
X78214600Y-59431471D01*
X78262219Y-59383852D01*
X78166980Y-58526709D02*
X78166980Y-58717185D01*
X78214600Y-58812423D01*
X78262219Y-58860042D01*
X78405076Y-58955280D01*
X78595552Y-59002900D01*
X78976504Y-59002900D01*
X79071742Y-58955280D01*
X79119361Y-58907661D01*
X79166980Y-58812423D01*
X79166980Y-58621947D01*
X79119361Y-58526709D01*
X79071742Y-58479090D01*
X78976504Y-58431471D01*
X78738409Y-58431471D01*
X78643171Y-58479090D01*
X78595552Y-58526709D01*
X78547933Y-58621947D01*
X78547933Y-58812423D01*
X78595552Y-58907661D01*
X78643171Y-58955280D01*
X78738409Y-59002900D01*
X79547933Y-58098138D02*
X79500314Y-58050519D01*
X79357457Y-57955280D01*
X79262219Y-57907661D01*
X79119361Y-57860042D01*
X78881266Y-57812423D01*
X78690790Y-57812423D01*
X78452695Y-57860042D01*
X78309838Y-57907661D01*
X78214600Y-57955280D01*
X78071742Y-58050519D01*
X78024123Y-58098138D01*
X79166980Y-56574328D02*
X78166980Y-56574328D01*
X78166980Y-56193376D01*
X78214600Y-56098138D01*
X78262219Y-56050519D01*
X78357457Y-56002900D01*
X78500314Y-56002900D01*
X78595552Y-56050519D01*
X78643171Y-56098138D01*
X78690790Y-56193376D01*
X78690790Y-56574328D01*
X78881266Y-55621947D02*
X78881266Y-55145757D01*
X79166980Y-55717185D02*
X78166980Y-55383852D01*
X79166980Y-55050519D01*
X78166980Y-54288614D02*
X78166980Y-54479090D01*
X78214600Y-54574328D01*
X78262219Y-54621947D01*
X78405076Y-54717185D01*
X78595552Y-54764804D01*
X78976504Y-54764804D01*
X79071742Y-54717185D01*
X79119361Y-54669566D01*
X79166980Y-54574328D01*
X79166980Y-54383852D01*
X79119361Y-54288614D01*
X79071742Y-54240995D01*
X78976504Y-54193376D01*
X78738409Y-54193376D01*
X78643171Y-54240995D01*
X78595552Y-54288614D01*
X78547933Y-54383852D01*
X78547933Y-54574328D01*
X78595552Y-54669566D01*
X78643171Y-54717185D01*
X78738409Y-54764804D01*
X77007933Y-62193376D02*
X76960314Y-62240995D01*
X76817457Y-62336233D01*
X76722219Y-62383852D01*
X76579361Y-62431471D01*
X76341266Y-62479090D01*
X76150790Y-62479090D01*
X75912695Y-62431471D01*
X75769838Y-62383852D01*
X75674600Y-62336233D01*
X75531742Y-62240995D01*
X75484123Y-62193376D01*
X76341266Y-61860042D02*
X76341266Y-61383852D01*
X76626980Y-61955280D02*
X75626980Y-61621947D01*
X76626980Y-61288614D01*
X76626980Y-60955280D02*
X75626980Y-60955280D01*
X75626980Y-60717185D01*
X75674600Y-60574328D01*
X75769838Y-60479090D01*
X75865076Y-60431471D01*
X76055552Y-60383852D01*
X76198409Y-60383852D01*
X76388885Y-60431471D01*
X76484123Y-60479090D01*
X76579361Y-60574328D01*
X76626980Y-60717185D01*
X76626980Y-60955280D01*
X76531742Y-59383852D02*
X76579361Y-59431471D01*
X76626980Y-59574328D01*
X76626980Y-59669566D01*
X76579361Y-59812423D01*
X76484123Y-59907661D01*
X76388885Y-59955280D01*
X76198409Y-60002900D01*
X76055552Y-60002900D01*
X75865076Y-59955280D01*
X75769838Y-59907661D01*
X75674600Y-59812423D01*
X75626980Y-59669566D01*
X75626980Y-59574328D01*
X75674600Y-59431471D01*
X75722219Y-59383852D01*
X75626980Y-58479090D02*
X75626980Y-58955280D01*
X76103171Y-59002900D01*
X76055552Y-58955280D01*
X76007933Y-58860042D01*
X76007933Y-58621947D01*
X76055552Y-58526709D01*
X76103171Y-58479090D01*
X76198409Y-58431471D01*
X76436504Y-58431471D01*
X76531742Y-58479090D01*
X76579361Y-58526709D01*
X76626980Y-58621947D01*
X76626980Y-58860042D01*
X76579361Y-58955280D01*
X76531742Y-59002900D01*
X77007933Y-58098138D02*
X76960314Y-58050519D01*
X76817457Y-57955280D01*
X76722219Y-57907661D01*
X76579361Y-57860042D01*
X76341266Y-57812423D01*
X76150790Y-57812423D01*
X75912695Y-57860042D01*
X75769838Y-57907661D01*
X75674600Y-57955280D01*
X75531742Y-58050519D01*
X75484123Y-58098138D01*
X76626980Y-56574328D02*
X75626980Y-56574328D01*
X75626980Y-56193376D01*
X75674600Y-56098138D01*
X75722219Y-56050519D01*
X75817457Y-56002900D01*
X75960314Y-56002900D01*
X76055552Y-56050519D01*
X76103171Y-56098138D01*
X76150790Y-56193376D01*
X76150790Y-56574328D01*
X76341266Y-55621947D02*
X76341266Y-55145757D01*
X76626980Y-55717185D02*
X75626980Y-55383852D01*
X76626980Y-55050519D01*
X75626980Y-54240995D02*
X75626980Y-54717185D01*
X76103171Y-54764804D01*
X76055552Y-54717185D01*
X76007933Y-54621947D01*
X76007933Y-54383852D01*
X76055552Y-54288614D01*
X76103171Y-54240995D01*
X76198409Y-54193376D01*
X76436504Y-54193376D01*
X76531742Y-54240995D01*
X76579361Y-54288614D01*
X76626980Y-54383852D01*
X76626980Y-54621947D01*
X76579361Y-54717185D01*
X76531742Y-54764804D01*
X74467933Y-62193376D02*
X74420314Y-62240995D01*
X74277457Y-62336233D01*
X74182219Y-62383852D01*
X74039361Y-62431471D01*
X73801266Y-62479090D01*
X73610790Y-62479090D01*
X73372695Y-62431471D01*
X73229838Y-62383852D01*
X73134600Y-62336233D01*
X72991742Y-62240995D01*
X72944123Y-62193376D01*
X73801266Y-61860042D02*
X73801266Y-61383852D01*
X74086980Y-61955280D02*
X73086980Y-61621947D01*
X74086980Y-61288614D01*
X74086980Y-60955280D02*
X73086980Y-60955280D01*
X73086980Y-60717185D01*
X73134600Y-60574328D01*
X73229838Y-60479090D01*
X73325076Y-60431471D01*
X73515552Y-60383852D01*
X73658409Y-60383852D01*
X73848885Y-60431471D01*
X73944123Y-60479090D01*
X74039361Y-60574328D01*
X74086980Y-60717185D01*
X74086980Y-60955280D01*
X73991742Y-59383852D02*
X74039361Y-59431471D01*
X74086980Y-59574328D01*
X74086980Y-59669566D01*
X74039361Y-59812423D01*
X73944123Y-59907661D01*
X73848885Y-59955280D01*
X73658409Y-60002900D01*
X73515552Y-60002900D01*
X73325076Y-59955280D01*
X73229838Y-59907661D01*
X73134600Y-59812423D01*
X73086980Y-59669566D01*
X73086980Y-59574328D01*
X73134600Y-59431471D01*
X73182219Y-59383852D01*
X73420314Y-58526709D02*
X74086980Y-58526709D01*
X73039361Y-58764804D02*
X73753647Y-59002900D01*
X73753647Y-58383852D01*
X74467933Y-58098138D02*
X74420314Y-58050519D01*
X74277457Y-57955280D01*
X74182219Y-57907661D01*
X74039361Y-57860042D01*
X73801266Y-57812423D01*
X73610790Y-57812423D01*
X73372695Y-57860042D01*
X73229838Y-57907661D01*
X73134600Y-57955280D01*
X72991742Y-58050519D01*
X72944123Y-58098138D01*
X74086980Y-56574328D02*
X73086980Y-56574328D01*
X73086980Y-56193376D01*
X73134600Y-56098138D01*
X73182219Y-56050519D01*
X73277457Y-56002900D01*
X73420314Y-56002900D01*
X73515552Y-56050519D01*
X73563171Y-56098138D01*
X73610790Y-56193376D01*
X73610790Y-56574328D01*
X73801266Y-55621947D02*
X73801266Y-55145757D01*
X74086980Y-55717185D02*
X73086980Y-55383852D01*
X74086980Y-55050519D01*
X73420314Y-54288614D02*
X74086980Y-54288614D01*
X73039361Y-54526709D02*
X73753647Y-54764804D01*
X73753647Y-54145757D01*
X71927933Y-62193376D02*
X71880314Y-62240995D01*
X71737457Y-62336233D01*
X71642219Y-62383852D01*
X71499361Y-62431471D01*
X71261266Y-62479090D01*
X71070790Y-62479090D01*
X70832695Y-62431471D01*
X70689838Y-62383852D01*
X70594600Y-62336233D01*
X70451742Y-62240995D01*
X70404123Y-62193376D01*
X71261266Y-61860042D02*
X71261266Y-61383852D01*
X71546980Y-61955280D02*
X70546980Y-61621947D01*
X71546980Y-61288614D01*
X71546980Y-60955280D02*
X70546980Y-60955280D01*
X70546980Y-60717185D01*
X70594600Y-60574328D01*
X70689838Y-60479090D01*
X70785076Y-60431471D01*
X70975552Y-60383852D01*
X71118409Y-60383852D01*
X71308885Y-60431471D01*
X71404123Y-60479090D01*
X71499361Y-60574328D01*
X71546980Y-60717185D01*
X71546980Y-60955280D01*
X71451742Y-59383852D02*
X71499361Y-59431471D01*
X71546980Y-59574328D01*
X71546980Y-59669566D01*
X71499361Y-59812423D01*
X71404123Y-59907661D01*
X71308885Y-59955280D01*
X71118409Y-60002900D01*
X70975552Y-60002900D01*
X70785076Y-59955280D01*
X70689838Y-59907661D01*
X70594600Y-59812423D01*
X70546980Y-59669566D01*
X70546980Y-59574328D01*
X70594600Y-59431471D01*
X70642219Y-59383852D01*
X70546980Y-59050519D02*
X70546980Y-58431471D01*
X70927933Y-58764804D01*
X70927933Y-58621947D01*
X70975552Y-58526709D01*
X71023171Y-58479090D01*
X71118409Y-58431471D01*
X71356504Y-58431471D01*
X71451742Y-58479090D01*
X71499361Y-58526709D01*
X71546980Y-58621947D01*
X71546980Y-58907661D01*
X71499361Y-59002900D01*
X71451742Y-59050519D01*
X71927933Y-58098138D02*
X71880314Y-58050519D01*
X71737457Y-57955280D01*
X71642219Y-57907661D01*
X71499361Y-57860042D01*
X71261266Y-57812423D01*
X71070790Y-57812423D01*
X70832695Y-57860042D01*
X70689838Y-57907661D01*
X70594600Y-57955280D01*
X70451742Y-58050519D01*
X70404123Y-58098138D01*
X71546980Y-56574328D02*
X70546980Y-56574328D01*
X70546980Y-56193376D01*
X70594600Y-56098138D01*
X70642219Y-56050519D01*
X70737457Y-56002900D01*
X70880314Y-56002900D01*
X70975552Y-56050519D01*
X71023171Y-56098138D01*
X71070790Y-56193376D01*
X71070790Y-56574328D01*
X71261266Y-55621947D02*
X71261266Y-55145757D01*
X71546980Y-55717185D02*
X70546980Y-55383852D01*
X71546980Y-55050519D01*
X70546980Y-54812423D02*
X70546980Y-54193376D01*
X70927933Y-54526709D01*
X70927933Y-54383852D01*
X70975552Y-54288614D01*
X71023171Y-54240995D01*
X71118409Y-54193376D01*
X71356504Y-54193376D01*
X71451742Y-54240995D01*
X71499361Y-54288614D01*
X71546980Y-54383852D01*
X71546980Y-54669566D01*
X71499361Y-54764804D01*
X71451742Y-54812423D01*
X69387933Y-62193376D02*
X69340314Y-62240995D01*
X69197457Y-62336233D01*
X69102219Y-62383852D01*
X68959361Y-62431471D01*
X68721266Y-62479090D01*
X68530790Y-62479090D01*
X68292695Y-62431471D01*
X68149838Y-62383852D01*
X68054600Y-62336233D01*
X67911742Y-62240995D01*
X67864123Y-62193376D01*
X68721266Y-61860042D02*
X68721266Y-61383852D01*
X69006980Y-61955280D02*
X68006980Y-61621947D01*
X69006980Y-61288614D01*
X69006980Y-60955280D02*
X68006980Y-60955280D01*
X68006980Y-60717185D01*
X68054600Y-60574328D01*
X68149838Y-60479090D01*
X68245076Y-60431471D01*
X68435552Y-60383852D01*
X68578409Y-60383852D01*
X68768885Y-60431471D01*
X68864123Y-60479090D01*
X68959361Y-60574328D01*
X69006980Y-60717185D01*
X69006980Y-60955280D01*
X68911742Y-59383852D02*
X68959361Y-59431471D01*
X69006980Y-59574328D01*
X69006980Y-59669566D01*
X68959361Y-59812423D01*
X68864123Y-59907661D01*
X68768885Y-59955280D01*
X68578409Y-60002900D01*
X68435552Y-60002900D01*
X68245076Y-59955280D01*
X68149838Y-59907661D01*
X68054600Y-59812423D01*
X68006980Y-59669566D01*
X68006980Y-59574328D01*
X68054600Y-59431471D01*
X68102219Y-59383852D01*
X68102219Y-59002900D02*
X68054600Y-58955280D01*
X68006980Y-58860042D01*
X68006980Y-58621947D01*
X68054600Y-58526709D01*
X68102219Y-58479090D01*
X68197457Y-58431471D01*
X68292695Y-58431471D01*
X68435552Y-58479090D01*
X69006980Y-59050519D01*
X69006980Y-58431471D01*
X69387933Y-58098138D02*
X69340314Y-58050519D01*
X69197457Y-57955280D01*
X69102219Y-57907661D01*
X68959361Y-57860042D01*
X68721266Y-57812423D01*
X68530790Y-57812423D01*
X68292695Y-57860042D01*
X68149838Y-57907661D01*
X68054600Y-57955280D01*
X67911742Y-58050519D01*
X67864123Y-58098138D01*
X69006980Y-56574328D02*
X68006980Y-56574328D01*
X68006980Y-56193376D01*
X68054600Y-56098138D01*
X68102219Y-56050519D01*
X68197457Y-56002900D01*
X68340314Y-56002900D01*
X68435552Y-56050519D01*
X68483171Y-56098138D01*
X68530790Y-56193376D01*
X68530790Y-56574328D01*
X68721266Y-55621947D02*
X68721266Y-55145757D01*
X69006980Y-55717185D02*
X68006980Y-55383852D01*
X69006980Y-55050519D01*
X68102219Y-54764804D02*
X68054600Y-54717185D01*
X68006980Y-54621947D01*
X68006980Y-54383852D01*
X68054600Y-54288614D01*
X68102219Y-54240995D01*
X68197457Y-54193376D01*
X68292695Y-54193376D01*
X68435552Y-54240995D01*
X69006980Y-54812423D01*
X69006980Y-54193376D01*
X66847933Y-62193376D02*
X66800314Y-62240995D01*
X66657457Y-62336233D01*
X66562219Y-62383852D01*
X66419361Y-62431471D01*
X66181266Y-62479090D01*
X65990790Y-62479090D01*
X65752695Y-62431471D01*
X65609838Y-62383852D01*
X65514600Y-62336233D01*
X65371742Y-62240995D01*
X65324123Y-62193376D01*
X66181266Y-61860042D02*
X66181266Y-61383852D01*
X66466980Y-61955280D02*
X65466980Y-61621947D01*
X66466980Y-61288614D01*
X66466980Y-60955280D02*
X65466980Y-60955280D01*
X65466980Y-60717185D01*
X65514600Y-60574328D01*
X65609838Y-60479090D01*
X65705076Y-60431471D01*
X65895552Y-60383852D01*
X66038409Y-60383852D01*
X66228885Y-60431471D01*
X66324123Y-60479090D01*
X66419361Y-60574328D01*
X66466980Y-60717185D01*
X66466980Y-60955280D01*
X66371742Y-59383852D02*
X66419361Y-59431471D01*
X66466980Y-59574328D01*
X66466980Y-59669566D01*
X66419361Y-59812423D01*
X66324123Y-59907661D01*
X66228885Y-59955280D01*
X66038409Y-60002900D01*
X65895552Y-60002900D01*
X65705076Y-59955280D01*
X65609838Y-59907661D01*
X65514600Y-59812423D01*
X65466980Y-59669566D01*
X65466980Y-59574328D01*
X65514600Y-59431471D01*
X65562219Y-59383852D01*
X66466980Y-58431471D02*
X66466980Y-59002900D01*
X66466980Y-58717185D02*
X65466980Y-58717185D01*
X65609838Y-58812423D01*
X65705076Y-58907661D01*
X65752695Y-59002900D01*
X66847933Y-58098138D02*
X66800314Y-58050519D01*
X66657457Y-57955280D01*
X66562219Y-57907661D01*
X66419361Y-57860042D01*
X66181266Y-57812423D01*
X65990790Y-57812423D01*
X65752695Y-57860042D01*
X65609838Y-57907661D01*
X65514600Y-57955280D01*
X65371742Y-58050519D01*
X65324123Y-58098138D01*
X66466980Y-56574328D02*
X65466980Y-56574328D01*
X65466980Y-56193376D01*
X65514600Y-56098138D01*
X65562219Y-56050519D01*
X65657457Y-56002900D01*
X65800314Y-56002900D01*
X65895552Y-56050519D01*
X65943171Y-56098138D01*
X65990790Y-56193376D01*
X65990790Y-56574328D01*
X66181266Y-55621947D02*
X66181266Y-55145757D01*
X66466980Y-55717185D02*
X65466980Y-55383852D01*
X66466980Y-55050519D01*
X66466980Y-54193376D02*
X66466980Y-54764804D01*
X66466980Y-54479090D02*
X65466980Y-54479090D01*
X65609838Y-54574328D01*
X65705076Y-54669566D01*
X65752695Y-54764804D01*
X64307933Y-62193376D02*
X64260314Y-62240995D01*
X64117457Y-62336233D01*
X64022219Y-62383852D01*
X63879361Y-62431471D01*
X63641266Y-62479090D01*
X63450790Y-62479090D01*
X63212695Y-62431471D01*
X63069838Y-62383852D01*
X62974600Y-62336233D01*
X62831742Y-62240995D01*
X62784123Y-62193376D01*
X63641266Y-61860042D02*
X63641266Y-61383852D01*
X63926980Y-61955280D02*
X62926980Y-61621947D01*
X63926980Y-61288614D01*
X63926980Y-60955280D02*
X62926980Y-60955280D01*
X62926980Y-60717185D01*
X62974600Y-60574328D01*
X63069838Y-60479090D01*
X63165076Y-60431471D01*
X63355552Y-60383852D01*
X63498409Y-60383852D01*
X63688885Y-60431471D01*
X63784123Y-60479090D01*
X63879361Y-60574328D01*
X63926980Y-60717185D01*
X63926980Y-60955280D01*
X63831742Y-59383852D02*
X63879361Y-59431471D01*
X63926980Y-59574328D01*
X63926980Y-59669566D01*
X63879361Y-59812423D01*
X63784123Y-59907661D01*
X63688885Y-59955280D01*
X63498409Y-60002900D01*
X63355552Y-60002900D01*
X63165076Y-59955280D01*
X63069838Y-59907661D01*
X62974600Y-59812423D01*
X62926980Y-59669566D01*
X62926980Y-59574328D01*
X62974600Y-59431471D01*
X63022219Y-59383852D01*
X62926980Y-58764804D02*
X62926980Y-58669566D01*
X62974600Y-58574328D01*
X63022219Y-58526709D01*
X63117457Y-58479090D01*
X63307933Y-58431471D01*
X63546028Y-58431471D01*
X63736504Y-58479090D01*
X63831742Y-58526709D01*
X63879361Y-58574328D01*
X63926980Y-58669566D01*
X63926980Y-58764804D01*
X63879361Y-58860042D01*
X63831742Y-58907661D01*
X63736504Y-58955280D01*
X63546028Y-59002900D01*
X63307933Y-59002900D01*
X63117457Y-58955280D01*
X63022219Y-58907661D01*
X62974600Y-58860042D01*
X62926980Y-58764804D01*
X64307933Y-58098138D02*
X64260314Y-58050519D01*
X64117457Y-57955280D01*
X64022219Y-57907661D01*
X63879361Y-57860042D01*
X63641266Y-57812423D01*
X63450790Y-57812423D01*
X63212695Y-57860042D01*
X63069838Y-57907661D01*
X62974600Y-57955280D01*
X62831742Y-58050519D01*
X62784123Y-58098138D01*
X63926980Y-56574328D02*
X62926980Y-56574328D01*
X62926980Y-56193376D01*
X62974600Y-56098138D01*
X63022219Y-56050519D01*
X63117457Y-56002900D01*
X63260314Y-56002900D01*
X63355552Y-56050519D01*
X63403171Y-56098138D01*
X63450790Y-56193376D01*
X63450790Y-56574328D01*
X63641266Y-55621947D02*
X63641266Y-55145757D01*
X63926980Y-55717185D02*
X62926980Y-55383852D01*
X63926980Y-55050519D01*
X62926980Y-54526709D02*
X62926980Y-54431471D01*
X62974600Y-54336233D01*
X63022219Y-54288614D01*
X63117457Y-54240995D01*
X63307933Y-54193376D01*
X63546028Y-54193376D01*
X63736504Y-54240995D01*
X63831742Y-54288614D01*
X63879361Y-54336233D01*
X63926980Y-54431471D01*
X63926980Y-54526709D01*
X63879361Y-54621947D01*
X63831742Y-54669566D01*
X63736504Y-54717185D01*
X63546028Y-54764804D01*
X63307933Y-54764804D01*
X63117457Y-54717185D01*
X63022219Y-54669566D01*
X62974600Y-54621947D01*
X62926980Y-54526709D01*
X60156980Y-122358333D02*
X60871266Y-122358333D01*
X61014123Y-122405952D01*
X61109361Y-122501190D01*
X61156980Y-122644047D01*
X61156980Y-122739285D01*
X60156980Y-121405952D02*
X60156980Y-121882142D01*
X60633171Y-121929761D01*
X60585552Y-121882142D01*
X60537933Y-121786904D01*
X60537933Y-121548809D01*
X60585552Y-121453571D01*
X60633171Y-121405952D01*
X60728409Y-121358333D01*
X60966504Y-121358333D01*
X61061742Y-121405952D01*
X61109361Y-121453571D01*
X61156980Y-121548809D01*
X61156980Y-121786904D01*
X61109361Y-121882142D01*
X61061742Y-121929761D01*
X74086980Y-118689404D02*
X73086980Y-118689404D01*
X73086980Y-118308452D01*
X73134600Y-118213214D01*
X73182219Y-118165595D01*
X73277457Y-118117976D01*
X73420314Y-118117976D01*
X73515552Y-118165595D01*
X73563171Y-118213214D01*
X73610790Y-118308452D01*
X73610790Y-118689404D01*
X73563171Y-117356071D02*
X73610790Y-117213214D01*
X73658409Y-117165595D01*
X73753647Y-117117976D01*
X73896504Y-117117976D01*
X73991742Y-117165595D01*
X74039361Y-117213214D01*
X74086980Y-117308452D01*
X74086980Y-117689404D01*
X73086980Y-117689404D01*
X73086980Y-117356071D01*
X73134600Y-117260833D01*
X73182219Y-117213214D01*
X73277457Y-117165595D01*
X73372695Y-117165595D01*
X73467933Y-117213214D01*
X73515552Y-117260833D01*
X73563171Y-117356071D01*
X73563171Y-117689404D01*
X73420314Y-116260833D02*
X74086980Y-116260833D01*
X73039361Y-116498928D02*
X73753647Y-116737023D01*
X73753647Y-116117976D01*
X74467933Y-114689404D02*
X74420314Y-114737023D01*
X74277457Y-114832261D01*
X74182219Y-114879880D01*
X74039361Y-114927500D01*
X73801266Y-114975119D01*
X73610790Y-114975119D01*
X73372695Y-114927500D01*
X73229838Y-114879880D01*
X73134600Y-114832261D01*
X72991742Y-114737023D01*
X72944123Y-114689404D01*
X72719600Y-114546547D02*
X72719600Y-113594166D01*
X74039361Y-114356071D02*
X74086980Y-114213214D01*
X74086980Y-113975119D01*
X74039361Y-113879880D01*
X73991742Y-113832261D01*
X73896504Y-113784642D01*
X73801266Y-113784642D01*
X73706028Y-113832261D01*
X73658409Y-113879880D01*
X73610790Y-113975119D01*
X73563171Y-114165595D01*
X73515552Y-114260833D01*
X73467933Y-114308452D01*
X73372695Y-114356071D01*
X73277457Y-114356071D01*
X73182219Y-114308452D01*
X73134600Y-114260833D01*
X73086980Y-114165595D01*
X73086980Y-113927500D01*
X73134600Y-113784642D01*
X72719600Y-113594166D02*
X72719600Y-112641785D01*
X74039361Y-113403690D02*
X74086980Y-113260833D01*
X74086980Y-113022738D01*
X74039361Y-112927500D01*
X73991742Y-112879880D01*
X73896504Y-112832261D01*
X73801266Y-112832261D01*
X73706028Y-112879880D01*
X73658409Y-112927500D01*
X73610790Y-113022738D01*
X73563171Y-113213214D01*
X73515552Y-113308452D01*
X73467933Y-113356071D01*
X73372695Y-113403690D01*
X73277457Y-113403690D01*
X73182219Y-113356071D01*
X73134600Y-113308452D01*
X73086980Y-113213214D01*
X73086980Y-112975119D01*
X73134600Y-112832261D01*
X72719600Y-112641785D02*
X72719600Y-111975119D01*
X74467933Y-112498928D02*
X74420314Y-112451309D01*
X74277457Y-112356071D01*
X74182219Y-112308452D01*
X74039361Y-112260833D01*
X73801266Y-112213214D01*
X73610790Y-112213214D01*
X73372695Y-112260833D01*
X73229838Y-112308452D01*
X73134600Y-112356071D01*
X72991742Y-112451309D01*
X72944123Y-112498928D01*
X71546980Y-118689404D02*
X70546980Y-118689404D01*
X70546980Y-118308452D01*
X70594600Y-118213214D01*
X70642219Y-118165595D01*
X70737457Y-118117976D01*
X70880314Y-118117976D01*
X70975552Y-118165595D01*
X71023171Y-118213214D01*
X71070790Y-118308452D01*
X71070790Y-118689404D01*
X71023171Y-117356071D02*
X71070790Y-117213214D01*
X71118409Y-117165595D01*
X71213647Y-117117976D01*
X71356504Y-117117976D01*
X71451742Y-117165595D01*
X71499361Y-117213214D01*
X71546980Y-117308452D01*
X71546980Y-117689404D01*
X70546980Y-117689404D01*
X70546980Y-117356071D01*
X70594600Y-117260833D01*
X70642219Y-117213214D01*
X70737457Y-117165595D01*
X70832695Y-117165595D01*
X70927933Y-117213214D01*
X70975552Y-117260833D01*
X71023171Y-117356071D01*
X71023171Y-117689404D01*
X70546980Y-116784642D02*
X70546980Y-116165595D01*
X70927933Y-116498928D01*
X70927933Y-116356071D01*
X70975552Y-116260833D01*
X71023171Y-116213214D01*
X71118409Y-116165595D01*
X71356504Y-116165595D01*
X71451742Y-116213214D01*
X71499361Y-116260833D01*
X71546980Y-116356071D01*
X71546980Y-116641785D01*
X71499361Y-116737023D01*
X71451742Y-116784642D01*
X71927933Y-114689404D02*
X71880314Y-114737023D01*
X71737457Y-114832261D01*
X71642219Y-114879880D01*
X71499361Y-114927500D01*
X71261266Y-114975119D01*
X71070790Y-114975119D01*
X70832695Y-114927500D01*
X70689838Y-114879880D01*
X70594600Y-114832261D01*
X70451742Y-114737023D01*
X70404123Y-114689404D01*
X70546980Y-114117976D02*
X70546980Y-113927500D01*
X70594600Y-113832261D01*
X70689838Y-113737023D01*
X70880314Y-113689404D01*
X71213647Y-113689404D01*
X71404123Y-113737023D01*
X71499361Y-113832261D01*
X71546980Y-113927500D01*
X71546980Y-114117976D01*
X71499361Y-114213214D01*
X71404123Y-114308452D01*
X71213647Y-114356071D01*
X70880314Y-114356071D01*
X70689838Y-114308452D01*
X70594600Y-114213214D01*
X70546980Y-114117976D01*
X71451742Y-112689404D02*
X71499361Y-112737023D01*
X71546980Y-112879880D01*
X71546980Y-112975119D01*
X71499361Y-113117976D01*
X71404123Y-113213214D01*
X71308885Y-113260833D01*
X71118409Y-113308452D01*
X70975552Y-113308452D01*
X70785076Y-113260833D01*
X70689838Y-113213214D01*
X70594600Y-113117976D01*
X70546980Y-112975119D01*
X70546980Y-112879880D01*
X70594600Y-112737023D01*
X70642219Y-112689404D01*
X70546980Y-112070357D02*
X70546980Y-111975119D01*
X70594600Y-111879880D01*
X70642219Y-111832261D01*
X70737457Y-111784642D01*
X70927933Y-111737023D01*
X71166028Y-111737023D01*
X71356504Y-111784642D01*
X71451742Y-111832261D01*
X71499361Y-111879880D01*
X71546980Y-111975119D01*
X71546980Y-112070357D01*
X71499361Y-112165595D01*
X71451742Y-112213214D01*
X71356504Y-112260833D01*
X71166028Y-112308452D01*
X70927933Y-112308452D01*
X70737457Y-112260833D01*
X70642219Y-112213214D01*
X70594600Y-112165595D01*
X70546980Y-112070357D01*
X70499361Y-110594166D02*
X71785076Y-111451309D01*
X71261266Y-110308452D02*
X71261266Y-109832261D01*
X71546980Y-110403690D02*
X70546980Y-110070357D01*
X71546980Y-109737023D01*
X71546980Y-109403690D02*
X70546980Y-109403690D01*
X71546980Y-108927500D02*
X70546980Y-108927500D01*
X71546980Y-108356071D01*
X70546980Y-108356071D01*
X71546980Y-107356071D02*
X71546980Y-107927500D01*
X71546980Y-107641785D02*
X70546980Y-107641785D01*
X70689838Y-107737023D01*
X70785076Y-107832261D01*
X70832695Y-107927500D01*
X71927933Y-107022738D02*
X71880314Y-106975119D01*
X71737457Y-106879880D01*
X71642219Y-106832261D01*
X71499361Y-106784642D01*
X71261266Y-106737023D01*
X71070790Y-106737023D01*
X70832695Y-106784642D01*
X70689838Y-106832261D01*
X70594600Y-106879880D01*
X70451742Y-106975119D01*
X70404123Y-107022738D01*
X68976980Y-118689404D02*
X67976980Y-118689404D01*
X67976980Y-118308452D01*
X68024600Y-118213214D01*
X68072219Y-118165595D01*
X68167457Y-118117976D01*
X68310314Y-118117976D01*
X68405552Y-118165595D01*
X68453171Y-118213214D01*
X68500790Y-118308452D01*
X68500790Y-118689404D01*
X68453171Y-117356071D02*
X68500790Y-117213214D01*
X68548409Y-117165595D01*
X68643647Y-117117976D01*
X68786504Y-117117976D01*
X68881742Y-117165595D01*
X68929361Y-117213214D01*
X68976980Y-117308452D01*
X68976980Y-117689404D01*
X67976980Y-117689404D01*
X67976980Y-117356071D01*
X68024600Y-117260833D01*
X68072219Y-117213214D01*
X68167457Y-117165595D01*
X68262695Y-117165595D01*
X68357933Y-117213214D01*
X68405552Y-117260833D01*
X68453171Y-117356071D01*
X68453171Y-117689404D01*
X68072219Y-116737023D02*
X68024600Y-116689404D01*
X67976980Y-116594166D01*
X67976980Y-116356071D01*
X68024600Y-116260833D01*
X68072219Y-116213214D01*
X68167457Y-116165595D01*
X68262695Y-116165595D01*
X68405552Y-116213214D01*
X68976980Y-116784642D01*
X68976980Y-116165595D01*
X69357933Y-114689404D02*
X69310314Y-114737023D01*
X69167457Y-114832261D01*
X69072219Y-114879880D01*
X68929361Y-114927500D01*
X68691266Y-114975119D01*
X68500790Y-114975119D01*
X68262695Y-114927500D01*
X68119838Y-114879880D01*
X68024600Y-114832261D01*
X67881742Y-114737023D01*
X67834123Y-114689404D01*
X68976980Y-114308452D02*
X67976980Y-114308452D01*
X68976980Y-113832261D02*
X67976980Y-113832261D01*
X68976980Y-113260833D01*
X67976980Y-113260833D01*
X67976980Y-112927500D02*
X67976980Y-112356071D01*
X68976980Y-112641785D02*
X67976980Y-112641785D01*
X68072219Y-112070357D02*
X68024600Y-112022738D01*
X67976980Y-111927500D01*
X67976980Y-111689404D01*
X68024600Y-111594166D01*
X68072219Y-111546547D01*
X68167457Y-111498928D01*
X68262695Y-111498928D01*
X68405552Y-111546547D01*
X68976980Y-112117976D01*
X68976980Y-111498928D01*
X67929361Y-110356071D02*
X69215076Y-111213214D01*
X68691266Y-110070357D02*
X68691266Y-109594166D01*
X68976980Y-110165595D02*
X67976980Y-109832261D01*
X68976980Y-109498928D01*
X68976980Y-109165595D02*
X67976980Y-109165595D01*
X68976980Y-108689404D02*
X67976980Y-108689404D01*
X68976980Y-108117976D01*
X67976980Y-108117976D01*
X67976980Y-107451309D02*
X67976980Y-107356071D01*
X68024600Y-107260833D01*
X68072219Y-107213214D01*
X68167457Y-107165595D01*
X68357933Y-107117976D01*
X68596028Y-107117976D01*
X68786504Y-107165595D01*
X68881742Y-107213214D01*
X68929361Y-107260833D01*
X68976980Y-107356071D01*
X68976980Y-107451309D01*
X68929361Y-107546547D01*
X68881742Y-107594166D01*
X68786504Y-107641785D01*
X68596028Y-107689404D01*
X68357933Y-107689404D01*
X68167457Y-107641785D01*
X68072219Y-107594166D01*
X68024600Y-107546547D01*
X67976980Y-107451309D01*
X69357933Y-106784642D02*
X69310314Y-106737023D01*
X69167457Y-106641785D01*
X69072219Y-106594166D01*
X68929361Y-106546547D01*
X68691266Y-106498928D01*
X68500790Y-106498928D01*
X68262695Y-106546547D01*
X68119838Y-106594166D01*
X68024600Y-106641785D01*
X67881742Y-106737023D01*
X67834123Y-106784642D01*
X66466980Y-118689404D02*
X65466980Y-118689404D01*
X65466980Y-118308452D01*
X65514600Y-118213214D01*
X65562219Y-118165595D01*
X65657457Y-118117976D01*
X65800314Y-118117976D01*
X65895552Y-118165595D01*
X65943171Y-118213214D01*
X65990790Y-118308452D01*
X65990790Y-118689404D01*
X65943171Y-117356071D02*
X65990790Y-117213214D01*
X66038409Y-117165595D01*
X66133647Y-117117976D01*
X66276504Y-117117976D01*
X66371742Y-117165595D01*
X66419361Y-117213214D01*
X66466980Y-117308452D01*
X66466980Y-117689404D01*
X65466980Y-117689404D01*
X65466980Y-117356071D01*
X65514600Y-117260833D01*
X65562219Y-117213214D01*
X65657457Y-117165595D01*
X65752695Y-117165595D01*
X65847933Y-117213214D01*
X65895552Y-117260833D01*
X65943171Y-117356071D01*
X65943171Y-117689404D01*
X66466980Y-116165595D02*
X66466980Y-116737023D01*
X66466980Y-116451309D02*
X65466980Y-116451309D01*
X65609838Y-116546547D01*
X65705076Y-116641785D01*
X65752695Y-116737023D01*
X66847933Y-114689404D02*
X66800314Y-114737023D01*
X66657457Y-114832261D01*
X66562219Y-114879880D01*
X66419361Y-114927500D01*
X66181266Y-114975119D01*
X65990790Y-114975119D01*
X65752695Y-114927500D01*
X65609838Y-114879880D01*
X65514600Y-114832261D01*
X65371742Y-114737023D01*
X65324123Y-114689404D01*
X65466980Y-114451309D02*
X65466980Y-113879880D01*
X66466980Y-114165595D02*
X65466980Y-114165595D01*
X66466980Y-113022738D02*
X66466980Y-113594166D01*
X66466980Y-113308452D02*
X65466980Y-113308452D01*
X65609838Y-113403690D01*
X65705076Y-113498928D01*
X65752695Y-113594166D01*
X66847933Y-112689404D02*
X66800314Y-112641785D01*
X66657457Y-112546547D01*
X66562219Y-112498928D01*
X66419361Y-112451309D01*
X66181266Y-112403690D01*
X65990790Y-112403690D01*
X65752695Y-112451309D01*
X65609838Y-112498928D01*
X65514600Y-112546547D01*
X65371742Y-112641785D01*
X65324123Y-112689404D01*
X63926980Y-118689404D02*
X62926980Y-118689404D01*
X62926980Y-118308452D01*
X62974600Y-118213214D01*
X63022219Y-118165595D01*
X63117457Y-118117976D01*
X63260314Y-118117976D01*
X63355552Y-118165595D01*
X63403171Y-118213214D01*
X63450790Y-118308452D01*
X63450790Y-118689404D01*
X63403171Y-117356071D02*
X63450790Y-117213214D01*
X63498409Y-117165595D01*
X63593647Y-117117976D01*
X63736504Y-117117976D01*
X63831742Y-117165595D01*
X63879361Y-117213214D01*
X63926980Y-117308452D01*
X63926980Y-117689404D01*
X62926980Y-117689404D01*
X62926980Y-117356071D01*
X62974600Y-117260833D01*
X63022219Y-117213214D01*
X63117457Y-117165595D01*
X63212695Y-117165595D01*
X63307933Y-117213214D01*
X63355552Y-117260833D01*
X63403171Y-117356071D01*
X63403171Y-117689404D01*
X62926980Y-116498928D02*
X62926980Y-116403690D01*
X62974600Y-116308452D01*
X63022219Y-116260833D01*
X63117457Y-116213214D01*
X63307933Y-116165595D01*
X63546028Y-116165595D01*
X63736504Y-116213214D01*
X63831742Y-116260833D01*
X63879361Y-116308452D01*
X63926980Y-116403690D01*
X63926980Y-116498928D01*
X63879361Y-116594166D01*
X63831742Y-116641785D01*
X63736504Y-116689404D01*
X63546028Y-116737023D01*
X63307933Y-116737023D01*
X63117457Y-116689404D01*
X63022219Y-116641785D01*
X62974600Y-116594166D01*
X62926980Y-116498928D01*
X64307933Y-114689404D02*
X64260314Y-114737023D01*
X64117457Y-114832261D01*
X64022219Y-114879880D01*
X63879361Y-114927500D01*
X63641266Y-114975119D01*
X63450790Y-114975119D01*
X63212695Y-114927500D01*
X63069838Y-114879880D01*
X62974600Y-114832261D01*
X62831742Y-114737023D01*
X62784123Y-114689404D01*
X62926980Y-114403690D02*
X63926980Y-113737023D01*
X62926980Y-113737023D02*
X63926980Y-114403690D01*
X63831742Y-112784642D02*
X63879361Y-112832261D01*
X63926980Y-112975119D01*
X63926980Y-113070357D01*
X63879361Y-113213214D01*
X63784123Y-113308452D01*
X63688885Y-113356071D01*
X63498409Y-113403690D01*
X63355552Y-113403690D01*
X63165076Y-113356071D01*
X63069838Y-113308452D01*
X62974600Y-113213214D01*
X62926980Y-113070357D01*
X62926980Y-112975119D01*
X62974600Y-112832261D01*
X63022219Y-112784642D01*
X63926980Y-112356071D02*
X62926980Y-112356071D01*
X63926980Y-111784642D02*
X63355552Y-112213214D01*
X62926980Y-111784642D02*
X63498409Y-112356071D01*
X62879361Y-110641785D02*
X64165076Y-111498928D01*
X62926980Y-110451309D02*
X62926980Y-109879880D01*
X63926980Y-110165595D02*
X62926980Y-110165595D01*
X62926980Y-109356071D02*
X62926980Y-109260833D01*
X62974600Y-109165595D01*
X63022219Y-109117976D01*
X63117457Y-109070357D01*
X63307933Y-109022738D01*
X63546028Y-109022738D01*
X63736504Y-109070357D01*
X63831742Y-109117976D01*
X63879361Y-109165595D01*
X63926980Y-109260833D01*
X63926980Y-109356071D01*
X63879361Y-109451309D01*
X63831742Y-109498928D01*
X63736504Y-109546547D01*
X63546028Y-109594166D01*
X63307933Y-109594166D01*
X63117457Y-109546547D01*
X63022219Y-109498928D01*
X62974600Y-109451309D01*
X62926980Y-109356071D01*
X64307933Y-108689404D02*
X64260314Y-108641785D01*
X64117457Y-108546547D01*
X64022219Y-108498928D01*
X63879361Y-108451309D01*
X63641266Y-108403690D01*
X63450790Y-108403690D01*
X63212695Y-108451309D01*
X63069838Y-108498928D01*
X62974600Y-108546547D01*
X62831742Y-108641785D01*
X62784123Y-108689404D01*
X52700961Y-119112333D02*
X52748580Y-118969476D01*
X52748580Y-118731380D01*
X52700961Y-118636142D01*
X52653342Y-118588523D01*
X52558104Y-118540904D01*
X52462866Y-118540904D01*
X52367628Y-118588523D01*
X52320009Y-118636142D01*
X52272390Y-118731380D01*
X52224771Y-118921857D01*
X52177152Y-119017095D01*
X52129533Y-119064714D01*
X52034295Y-119112333D01*
X51939057Y-119112333D01*
X51843819Y-119064714D01*
X51796200Y-119017095D01*
X51748580Y-118921857D01*
X51748580Y-118683761D01*
X51796200Y-118540904D01*
X51748580Y-118207571D02*
X52748580Y-117969476D01*
X52034295Y-117779000D01*
X52748580Y-117588523D01*
X51748580Y-117350428D01*
X52748580Y-116445666D02*
X52748580Y-117017095D01*
X52748580Y-116731380D02*
X51748580Y-116731380D01*
X51891438Y-116826619D01*
X51986676Y-116921857D01*
X52034295Y-117017095D01*
X43723580Y-119781380D02*
X43247390Y-120114714D01*
X43723580Y-120352809D02*
X42723580Y-120352809D01*
X42723580Y-119971857D01*
X42771200Y-119876619D01*
X42818819Y-119829000D01*
X42914057Y-119781380D01*
X43056914Y-119781380D01*
X43152152Y-119829000D01*
X43199771Y-119876619D01*
X43247390Y-119971857D01*
X43247390Y-120352809D01*
X43199771Y-119352809D02*
X43199771Y-119019476D01*
X43723580Y-118876619D02*
X43723580Y-119352809D01*
X42723580Y-119352809D01*
X42723580Y-118876619D01*
X43675961Y-118495666D02*
X43723580Y-118352809D01*
X43723580Y-118114714D01*
X43675961Y-118019476D01*
X43628342Y-117971857D01*
X43533104Y-117924238D01*
X43437866Y-117924238D01*
X43342628Y-117971857D01*
X43295009Y-118019476D01*
X43247390Y-118114714D01*
X43199771Y-118305190D01*
X43152152Y-118400428D01*
X43104533Y-118448047D01*
X43009295Y-118495666D01*
X42914057Y-118495666D01*
X42818819Y-118448047D01*
X42771200Y-118400428D01*
X42723580Y-118305190D01*
X42723580Y-118067095D01*
X42771200Y-117924238D01*
X43199771Y-117495666D02*
X43199771Y-117162333D01*
X43723580Y-117019476D02*
X43723580Y-117495666D01*
X42723580Y-117495666D01*
X42723580Y-117019476D01*
X42723580Y-116733761D02*
X42723580Y-116162333D01*
X43723580Y-116448047D02*
X42723580Y-116448047D01*
X51934133Y-103287142D02*
X51886514Y-103334761D01*
X51743657Y-103382380D01*
X51648419Y-103382380D01*
X51505561Y-103334761D01*
X51410323Y-103239523D01*
X51362704Y-103144285D01*
X51315085Y-102953809D01*
X51315085Y-102810952D01*
X51362704Y-102620476D01*
X51410323Y-102525238D01*
X51505561Y-102430000D01*
X51648419Y-102382380D01*
X51743657Y-102382380D01*
X51886514Y-102430000D01*
X51934133Y-102477619D01*
X52886514Y-103382380D02*
X52315085Y-103382380D01*
X52600800Y-103382380D02*
X52600800Y-102382380D01*
X52505561Y-102525238D01*
X52410323Y-102620476D01*
X52315085Y-102668095D01*
X81951742Y-75103666D02*
X81999361Y-75151285D01*
X82046980Y-75294142D01*
X82046980Y-75389380D01*
X81999361Y-75532238D01*
X81904123Y-75627476D01*
X81808885Y-75675095D01*
X81618409Y-75722714D01*
X81475552Y-75722714D01*
X81285076Y-75675095D01*
X81189838Y-75627476D01*
X81094600Y-75532238D01*
X81046980Y-75389380D01*
X81046980Y-75294142D01*
X81094600Y-75151285D01*
X81142219Y-75103666D01*
X81380314Y-74246523D02*
X82046980Y-74246523D01*
X80999361Y-74484619D02*
X81713647Y-74722714D01*
X81713647Y-74103666D01*
X88891742Y-102603466D02*
X88939361Y-102651085D01*
X88986980Y-102793942D01*
X88986980Y-102889180D01*
X88939361Y-103032038D01*
X88844123Y-103127276D01*
X88748885Y-103174895D01*
X88558409Y-103222514D01*
X88415552Y-103222514D01*
X88225076Y-103174895D01*
X88129838Y-103127276D01*
X88034600Y-103032038D01*
X87986980Y-102889180D01*
X87986980Y-102793942D01*
X88034600Y-102651085D01*
X88082219Y-102603466D01*
X87986980Y-101698704D02*
X87986980Y-102174895D01*
X88463171Y-102222514D01*
X88415552Y-102174895D01*
X88367933Y-102079657D01*
X88367933Y-101841561D01*
X88415552Y-101746323D01*
X88463171Y-101698704D01*
X88558409Y-101651085D01*
X88796504Y-101651085D01*
X88891742Y-101698704D01*
X88939361Y-101746323D01*
X88986980Y-101841561D01*
X88986980Y-102079657D01*
X88939361Y-102174895D01*
X88891742Y-102222514D01*
X91431742Y-75103666D02*
X91479361Y-75151285D01*
X91526980Y-75294142D01*
X91526980Y-75389380D01*
X91479361Y-75532238D01*
X91384123Y-75627476D01*
X91288885Y-75675095D01*
X91098409Y-75722714D01*
X90955552Y-75722714D01*
X90765076Y-75675095D01*
X90669838Y-75627476D01*
X90574600Y-75532238D01*
X90526980Y-75389380D01*
X90526980Y-75294142D01*
X90574600Y-75151285D01*
X90622219Y-75103666D01*
X90526980Y-74246523D02*
X90526980Y-74437000D01*
X90574600Y-74532238D01*
X90622219Y-74579857D01*
X90765076Y-74675095D01*
X90955552Y-74722714D01*
X91336504Y-74722714D01*
X91431742Y-74675095D01*
X91479361Y-74627476D01*
X91526980Y-74532238D01*
X91526980Y-74341761D01*
X91479361Y-74246523D01*
X91431742Y-74198904D01*
X91336504Y-74151285D01*
X91098409Y-74151285D01*
X91003171Y-74198904D01*
X90955552Y-74246523D01*
X90907933Y-74341761D01*
X90907933Y-74532238D01*
X90955552Y-74627476D01*
X91003171Y-74675095D01*
X91098409Y-74722714D01*
X48718580Y-102338095D02*
X47718580Y-102338095D01*
X47718580Y-102100000D01*
X47766200Y-101957142D01*
X47861438Y-101861904D01*
X47956676Y-101814285D01*
X48147152Y-101766666D01*
X48290009Y-101766666D01*
X48480485Y-101814285D01*
X48575723Y-101861904D01*
X48670961Y-101957142D01*
X48718580Y-102100000D01*
X48718580Y-102338095D01*
X48718580Y-100814285D02*
X48718580Y-101385714D01*
X48718580Y-101100000D02*
X47718580Y-101100000D01*
X47861438Y-101195238D01*
X47956676Y-101290476D01*
X48004295Y-101385714D01*
X48348580Y-96781904D02*
X47348580Y-96781904D01*
X48348580Y-96210476D02*
X47777152Y-96639047D01*
X47348580Y-96210476D02*
X47920009Y-96781904D01*
X60596980Y-89476504D02*
X61406504Y-89476504D01*
X61501742Y-89428885D01*
X61549361Y-89381266D01*
X61596980Y-89286028D01*
X61596980Y-89095552D01*
X61549361Y-89000314D01*
X61501742Y-88952695D01*
X61406504Y-88905076D01*
X60596980Y-88905076D01*
X61596980Y-87905076D02*
X61596980Y-88476504D01*
X61596980Y-88190790D02*
X60596980Y-88190790D01*
X60739838Y-88286028D01*
X60835076Y-88381266D01*
X60882695Y-88476504D01*
M02*
