%TF.GenerationSoftware,KiCad,Pcbnew,5.1.6-c6e7f7d~86~ubuntu18.04.1*%
%TF.CreationDate,2020-05-25T18:46:56+02:00*%
%TF.ProjectId,avr_dev_board_atmega16,6176725f-6465-4765-9f62-6f6172645f61,1_0*%
%TF.SameCoordinates,PX2652348PY7832370*%
%TF.FileFunction,Other,User*%
%FSLAX46Y46*%
G04 Gerber Fmt 4.6, Leading zero omitted, Abs format (unit mm)*
G04 Created by KiCad (PCBNEW 5.1.6-c6e7f7d~86~ubuntu18.04.1) date 2020-05-25 18:46:56*
%MOMM*%
%LPD*%
G01*
G04 APERTURE LIST*
%ADD10C,0.050000*%
G04 APERTURE END LIST*
D10*
%TO.C,U2*%
X87630400Y48528800D02*
X87630400Y27568800D01*
X87630400Y27568800D02*
X98130400Y27568800D01*
X98130400Y27568800D02*
X98130400Y48528800D01*
X98130400Y48528800D02*
X87630400Y48528800D01*
%TO.C,R3*%
X96265400Y12629800D02*
X93265400Y12629800D01*
X93265400Y12629800D02*
X93265400Y2909800D01*
X93265400Y2909800D02*
X96265400Y2909800D01*
X96265400Y2909800D02*
X96265400Y12629800D01*
%TO.C,R2*%
X88619400Y55797600D02*
X88619400Y52797600D01*
X88619400Y52797600D02*
X98339400Y52797600D01*
X98339400Y52797600D02*
X98339400Y55797600D01*
X98339400Y55797600D02*
X88619400Y55797600D01*
%TO.C,R1*%
X12307900Y34324000D02*
X9307900Y34324000D01*
X9307900Y34324000D02*
X9307900Y24604000D01*
X9307900Y24604000D02*
X12307900Y24604000D01*
X12307900Y24604000D02*
X12307900Y34324000D01*
%TO.C,J2*%
X98082400Y65098800D02*
X98082400Y79098800D01*
X98082400Y79098800D02*
X86082400Y79098800D01*
X86082400Y79098800D02*
X86082400Y65098800D01*
X86082400Y65098800D02*
X98082400Y65098800D01*
%TO.C,D4*%
X85035400Y6209800D02*
X85035400Y1709800D01*
X85035400Y1709800D02*
X89885400Y1709800D01*
X89885400Y1709800D02*
X89885400Y6209800D01*
X89885400Y6209800D02*
X85035400Y6209800D01*
%TO.C,D3*%
X79469400Y63158400D02*
X76269400Y63158400D01*
X76269400Y63158400D02*
X76269400Y50298400D01*
X76269400Y50298400D02*
X79469400Y50298400D01*
X79469400Y50298400D02*
X79469400Y63158400D01*
%TO.C,D2*%
X92649400Y57976100D02*
X97149400Y57976100D01*
X97149400Y57976100D02*
X97149400Y62826100D01*
X97149400Y62826100D02*
X92649400Y62826100D01*
X92649400Y62826100D02*
X92649400Y57976100D01*
%TO.C,C10*%
X93806400Y20209800D02*
X93806400Y23209800D01*
X93806400Y23209800D02*
X86706400Y23209800D01*
X86706400Y23209800D02*
X86706400Y20209800D01*
X86706400Y20209800D02*
X93806400Y20209800D01*
%TO.C,C9*%
X81310400Y21709800D02*
G75*
G03*
X81310400Y21709800I-3400000J0D01*
G01*
%TO.C,C8*%
X84281400Y57004200D02*
X87281400Y57004200D01*
X87281400Y57004200D02*
X87281400Y64104200D01*
X87281400Y64104200D02*
X84281400Y64104200D01*
X84281400Y64104200D02*
X84281400Y57004200D01*
%TO.C,C7*%
X81987400Y69942100D02*
G75*
G03*
X81987400Y69942100I-4250000J0D01*
G01*
%TO.C,Y1*%
X76433400Y33770200D02*
X80433400Y33770200D01*
X80433400Y33770200D02*
X80433400Y40870200D01*
X80433400Y40870200D02*
X76433400Y40870200D01*
X76433400Y40870200D02*
X76433400Y33770200D01*
%TO.C,C3*%
X74883400Y46440200D02*
X74883400Y43440200D01*
X74883400Y43440200D02*
X81983400Y43440200D01*
X81983400Y43440200D02*
X81983400Y46440200D01*
X81983400Y46440200D02*
X74883400Y46440200D01*
%TO.C,C2*%
X74883400Y31200200D02*
X74883400Y28200200D01*
X74883400Y28200200D02*
X81983400Y28200200D01*
X81983400Y28200200D02*
X81983400Y31200200D01*
X81983400Y31200200D02*
X74883400Y31200200D01*
%TO.C,J1*%
X18421600Y62550800D02*
X18421600Y41690800D01*
X18421600Y41690800D02*
X9061600Y41690800D01*
X9061600Y41690800D02*
X9061600Y62550800D01*
X9061600Y62550800D02*
X18421600Y62550800D01*
%TO.C,J6*%
X74946400Y2159800D02*
X74946400Y10709800D01*
X74946400Y10709800D02*
X81046400Y10709800D01*
X81046400Y10709800D02*
X81046400Y2159800D01*
X81046400Y2159800D02*
X74946400Y2159800D01*
%TO.C,J7*%
X49446300Y2159800D02*
X49446300Y5709800D01*
X49446300Y5709800D02*
X70796300Y5709800D01*
X70796300Y5709800D02*
X70796300Y2159800D01*
X70796300Y2159800D02*
X49446300Y2159800D01*
%TO.C,J4*%
X70926400Y76879400D02*
X70926400Y73329400D01*
X70926400Y73329400D02*
X49576400Y73329400D01*
X49576400Y73329400D02*
X49576400Y76879400D01*
X49576400Y76879400D02*
X70926400Y76879400D01*
%TO.C,J3*%
X21492000Y73329400D02*
X21492000Y76879400D01*
X21492000Y76879400D02*
X42842000Y76879400D01*
X42842000Y76879400D02*
X42842000Y73329400D01*
X42842000Y73329400D02*
X21492000Y73329400D01*
%TO.C,J5*%
X21492000Y2209800D02*
X21492000Y5759800D01*
X21492000Y5759800D02*
X35192000Y5759800D01*
X35192000Y5759800D02*
X35192000Y2209800D01*
X35192000Y2209800D02*
X21492000Y2209800D01*
%TO.C,SW1*%
X4113600Y3755800D02*
X4113600Y3505800D01*
X4113600Y3505800D02*
X4363600Y3505800D01*
X11613600Y3755800D02*
X11613600Y3505800D01*
X11613600Y3505800D02*
X11363600Y3505800D01*
X11363600Y13005800D02*
X11613600Y13005800D01*
X11613600Y13005800D02*
X11613600Y12755800D01*
X4363600Y13005800D02*
X4113600Y13005800D01*
X4113600Y13005800D02*
X4113600Y12755800D01*
X11613600Y12755800D02*
X11613600Y3755800D01*
X4363600Y13005800D02*
X11363600Y13005800D01*
X4113600Y3755800D02*
X4113600Y12755800D01*
X11363600Y3505800D02*
X4363600Y3505800D01*
%TO.C,C1*%
X14668200Y19354800D02*
G75*
G03*
X14668200Y19354800I-2750000J0D01*
G01*
%TO.C,C4*%
X42412000Y47547800D02*
X44812000Y47547800D01*
X44812000Y47547800D02*
X44812000Y54647800D01*
X44812000Y54647800D02*
X42412000Y54647800D01*
X42412000Y54647800D02*
X42412000Y47547800D01*
%TO.C,C5*%
X47352000Y27148000D02*
X44952000Y27148000D01*
X44952000Y27148000D02*
X44952000Y20048000D01*
X44952000Y20048000D02*
X47352000Y20048000D01*
X47352000Y20048000D02*
X47352000Y27148000D01*
%TO.C,C6*%
X49892000Y54647800D02*
X47492000Y54647800D01*
X47492000Y54647800D02*
X47492000Y47547800D01*
X47492000Y47547800D02*
X49892000Y47547800D01*
X49892000Y47547800D02*
X49892000Y54647800D01*
%TO.C,D1*%
X5422900Y34624000D02*
X2222900Y34624000D01*
X2222900Y34624000D02*
X2222900Y21764000D01*
X2222900Y21764000D02*
X5422900Y21764000D01*
X5422900Y21764000D02*
X5422900Y34624000D01*
%TO.C,U1*%
X21742000Y28650200D02*
X73092000Y28650200D01*
X73092000Y28650200D02*
X73092000Y46000200D01*
X73092000Y46000200D02*
X21742000Y46000200D01*
X21742000Y46000200D02*
X21742000Y28650200D01*
%TD*%
M02*
