%TF.GenerationSoftware,KiCad,Pcbnew,5.1.4-3.fc30*%
%TF.CreationDate,2019-10-13T14:19:49+02:00*%
%TF.ProjectId,avr_dev_board_atmega16,6176725f-6465-4765-9f62-6f6172645f61,1_0*%
%TF.SameCoordinates,PX2652348PY7832370*%
%TF.FileFunction,Copper,L2,Bot*%
%TF.FilePolarity,Positive*%
%FSLAX46Y46*%
G04 Gerber Fmt 4.6, Leading zero omitted, Abs format (unit mm)*
G04 Created by KiCad (PCBNEW 5.1.4-3.fc30) date 2019-10-13 14:19:49*
%MOMM*%
%LPD*%
G04 APERTURE LIST*
%TA.AperFunction,ComponentPad*%
%ADD10O,1.905000X2.000000*%
%TD*%
%TA.AperFunction,ComponentPad*%
%ADD11R,1.905000X2.000000*%
%TD*%
%TA.AperFunction,ComponentPad*%
%ADD12O,1.600000X1.600000*%
%TD*%
%TA.AperFunction,ComponentPad*%
%ADD13C,1.600000*%
%TD*%
%TA.AperFunction,ComponentPad*%
%ADD14O,2.000000X3.500000*%
%TD*%
%TA.AperFunction,ComponentPad*%
%ADD15O,3.300000X2.000000*%
%TD*%
%TA.AperFunction,ComponentPad*%
%ADD16R,4.000000X2.000000*%
%TD*%
%TA.AperFunction,ComponentPad*%
%ADD17C,1.800000*%
%TD*%
%TA.AperFunction,ComponentPad*%
%ADD18R,1.800000X1.800000*%
%TD*%
%TA.AperFunction,ComponentPad*%
%ADD19O,2.200000X2.200000*%
%TD*%
%TA.AperFunction,ComponentPad*%
%ADD20R,2.200000X2.200000*%
%TD*%
%TA.AperFunction,ComponentPad*%
%ADD21R,1.600000X1.600000*%
%TD*%
%TA.AperFunction,ComponentPad*%
%ADD22C,1.700000*%
%TD*%
%TA.AperFunction,ComponentPad*%
%ADD23O,1.727200X1.727200*%
%TD*%
%TA.AperFunction,ComponentPad*%
%ADD24R,1.727200X1.727200*%
%TD*%
%TA.AperFunction,ComponentPad*%
%ADD25O,1.700000X1.700000*%
%TD*%
%TA.AperFunction,ComponentPad*%
%ADD26R,1.700000X1.700000*%
%TD*%
%TA.AperFunction,ComponentPad*%
%ADD27C,2.000000*%
%TD*%
%TA.AperFunction,Conductor*%
%ADD28C,0.400000*%
%TD*%
%TA.AperFunction,Conductor*%
%ADD29C,1.000000*%
%TD*%
%TA.AperFunction,Conductor*%
%ADD30C,0.600000*%
%TD*%
%TA.AperFunction,Conductor*%
%ADD31C,0.500000*%
%TD*%
G04 APERTURE END LIST*
D10*
%TO.P,U2,3*%
%TO.N,Net-(C7-Pad1)*%
X95420400Y28818800D03*
%TO.P,U2,2*%
%TO.N,+5V*%
X92880400Y28818800D03*
D11*
%TO.P,U2,1*%
%TO.N,GND*%
X90340400Y28818800D03*
%TD*%
D12*
%TO.P,R3,2*%
%TO.N,Net-(D4-Pad2)*%
X94765400Y3959800D03*
D13*
%TO.P,R3,1*%
%TO.N,+5V*%
X94765400Y11579800D03*
%TD*%
D12*
%TO.P,R2,2*%
%TO.N,Net-(D2-Pad1)*%
X97289400Y54297600D03*
D13*
%TO.P,R2,1*%
%TO.N,Net-(D3-Pad2)*%
X89669400Y54297600D03*
%TD*%
D12*
%TO.P,R1,2*%
%TO.N,/RESET*%
X10807900Y25654000D03*
D13*
%TO.P,R1,1*%
%TO.N,+5V*%
X10807900Y33274000D03*
%TD*%
D14*
%TO.P,J2,MP*%
%TO.N,N/C*%
X87582400Y73598800D03*
X96582400Y73598800D03*
D15*
%TO.P,J2,2*%
%TO.N,GND*%
X92082400Y72598800D03*
D16*
%TO.P,J2,1*%
%TO.N,Net-(D3-Pad2)*%
X92082400Y66598800D03*
%TD*%
D17*
%TO.P,D4,2*%
%TO.N,Net-(D4-Pad2)*%
X88725400Y3959800D03*
D18*
%TO.P,D4,1*%
%TO.N,GND*%
X86185400Y3959800D03*
%TD*%
D19*
%TO.P,D3,2*%
%TO.N,Net-(D3-Pad2)*%
X77869400Y51648400D03*
D20*
%TO.P,D3,1*%
%TO.N,Net-(C7-Pad1)*%
X77869400Y61808400D03*
%TD*%
D17*
%TO.P,D2,2*%
%TO.N,GND*%
X94899400Y61666100D03*
D18*
%TO.P,D2,1*%
%TO.N,Net-(D2-Pad1)*%
X94899400Y59126100D03*
%TD*%
D13*
%TO.P,C10,2*%
%TO.N,GND*%
X87756400Y21709800D03*
%TO.P,C10,1*%
%TO.N,+5V*%
X92756400Y21709800D03*
%TD*%
%TO.P,C9,2*%
%TO.N,GND*%
X79160400Y21709800D03*
%TO.P,C9,1*%
%TO.N,+5V*%
X76660400Y21709800D03*
%TD*%
%TO.P,C8,2*%
%TO.N,GND*%
X85781400Y63054200D03*
%TO.P,C8,1*%
%TO.N,Net-(C7-Pad1)*%
X85781400Y58054200D03*
%TD*%
%TO.P,C7,2*%
%TO.N,GND*%
X77737400Y72442100D03*
D21*
%TO.P,C7,1*%
%TO.N,Net-(C7-Pad1)*%
X77737400Y67442100D03*
%TD*%
D22*
%TO.P,Y1,2*%
%TO.N,Net-(C3-Pad1)*%
X78433400Y39870200D03*
%TO.P,Y1,1*%
%TO.N,Net-(C2-Pad1)*%
X78433400Y34870200D03*
%TD*%
D13*
%TO.P,C3,2*%
%TO.N,GND*%
X80933400Y44940200D03*
%TO.P,C3,1*%
%TO.N,Net-(C3-Pad1)*%
X75933400Y44940200D03*
%TD*%
%TO.P,C2,2*%
%TO.N,GND*%
X80933400Y29700200D03*
%TO.P,C2,1*%
%TO.N,Net-(C2-Pad1)*%
X75933400Y29700200D03*
%TD*%
D23*
%TO.P,J1,10*%
%TO.N,GND*%
X15011600Y47040800D03*
%TO.P,J1,9*%
%TO.N,/MISO*%
X12471600Y47040800D03*
%TO.P,J1,8*%
%TO.N,GND*%
X15011600Y49580800D03*
%TO.P,J1,7*%
%TO.N,/SCK*%
X12471600Y49580800D03*
%TO.P,J1,6*%
%TO.N,GND*%
X15011600Y52120800D03*
%TO.P,J1,5*%
%TO.N,/RESET*%
X12471600Y52120800D03*
%TO.P,J1,4*%
%TO.N,GND*%
X15011600Y54660800D03*
%TO.P,J1,3*%
%TO.N,Net-(J1-Pad3)*%
X12471600Y54660800D03*
%TO.P,J1,2*%
%TO.N,+5V*%
X15011600Y57200800D03*
D24*
%TO.P,J1,1*%
%TO.N,/MOSI*%
X12471600Y57200800D03*
%TD*%
D25*
%TO.P,J6,2*%
%TO.N,GND*%
X79286400Y3959800D03*
D26*
%TO.P,J6,1*%
%TO.N,+5V*%
X76746400Y3959800D03*
%TD*%
D25*
%TO.P,J7,8*%
%TO.N,/PD7*%
X69026300Y3959800D03*
%TO.P,J7,7*%
%TO.N,/PD6*%
X66486300Y3959800D03*
%TO.P,J7,6*%
%TO.N,/PD5*%
X63946300Y3959800D03*
%TO.P,J7,5*%
%TO.N,/PD4*%
X61406300Y3959800D03*
%TO.P,J7,4*%
%TO.N,/PD3*%
X58866300Y3959800D03*
%TO.P,J7,3*%
%TO.N,/PD2*%
X56326300Y3959800D03*
%TO.P,J7,2*%
%TO.N,/PD1*%
X53786300Y3959800D03*
D26*
%TO.P,J7,1*%
%TO.N,/PD0*%
X51246300Y3959800D03*
%TD*%
D25*
%TO.P,J4,8*%
%TO.N,/PC7*%
X51346400Y75079400D03*
%TO.P,J4,7*%
%TO.N,/PC6*%
X53886400Y75079400D03*
%TO.P,J4,6*%
%TO.N,/PC5*%
X56426400Y75079400D03*
%TO.P,J4,5*%
%TO.N,/PC4*%
X58966400Y75079400D03*
%TO.P,J4,4*%
%TO.N,/PC3*%
X61506400Y75079400D03*
%TO.P,J4,3*%
%TO.N,/PC2*%
X64046400Y75079400D03*
%TO.P,J4,2*%
%TO.N,/PC1*%
X66586400Y75079400D03*
D26*
%TO.P,J4,1*%
%TO.N,/PC0*%
X69126400Y75079400D03*
%TD*%
D25*
%TO.P,J3,8*%
%TO.N,/PA7*%
X41072000Y75129400D03*
%TO.P,J3,7*%
%TO.N,/PA6*%
X38532000Y75129400D03*
%TO.P,J3,6*%
%TO.N,/PA5*%
X35992000Y75129400D03*
%TO.P,J3,5*%
%TO.N,/PA4*%
X33452000Y75129400D03*
%TO.P,J3,4*%
%TO.N,/PA3*%
X30912000Y75129400D03*
%TO.P,J3,3*%
%TO.N,/PA2*%
X28372000Y75129400D03*
%TO.P,J3,2*%
%TO.N,/PA1*%
X25832000Y75129400D03*
D26*
%TO.P,J3,1*%
%TO.N,/PA0*%
X23292000Y75129400D03*
%TD*%
D25*
%TO.P,J5,5*%
%TO.N,/PB4*%
X33452000Y4009800D03*
%TO.P,J5,4*%
%TO.N,/PB3*%
X30912000Y4009800D03*
%TO.P,J5,3*%
%TO.N,/PB2*%
X28372000Y4009800D03*
%TO.P,J5,2*%
%TO.N,/PB1*%
X25832000Y4009800D03*
D26*
%TO.P,J5,1*%
%TO.N,/PB0*%
X23292000Y4009800D03*
%TD*%
D27*
%TO.P,SW1,1*%
%TO.N,GND*%
X10113600Y5005800D03*
%TO.P,SW1,2*%
%TO.N,/RESET*%
X5613600Y5005800D03*
%TO.P,SW1,1*%
%TO.N,GND*%
X10113600Y11505800D03*
%TO.P,SW1,2*%
%TO.N,/RESET*%
X5613600Y11505800D03*
%TD*%
D13*
%TO.P,C1,2*%
%TO.N,GND*%
X13168200Y19354800D03*
D21*
%TO.P,C1,1*%
%TO.N,/RESET*%
X10668200Y19354800D03*
%TD*%
D13*
%TO.P,C4,2*%
%TO.N,GND*%
X43612000Y53597800D03*
%TO.P,C4,1*%
%TO.N,Net-(C4-Pad1)*%
X43612000Y48597800D03*
%TD*%
%TO.P,C5,2*%
%TO.N,GND*%
X46152000Y21098000D03*
%TO.P,C5,1*%
%TO.N,+5V*%
X46152000Y26098000D03*
%TD*%
%TO.P,C6,2*%
%TO.N,+5V*%
X48692000Y48597800D03*
%TO.P,C6,1*%
%TO.N,GND*%
X48692000Y53597800D03*
%TD*%
D19*
%TO.P,D1,2*%
%TO.N,/RESET*%
X3822900Y23114000D03*
D20*
%TO.P,D1,1*%
%TO.N,+5V*%
X3822900Y33274000D03*
%TD*%
D12*
%TO.P,U1,40*%
%TO.N,/PA0*%
X23292000Y44940200D03*
%TO.P,U1,20*%
%TO.N,/PD6*%
X71552000Y29700200D03*
%TO.P,U1,39*%
%TO.N,/PA1*%
X25832000Y44940200D03*
%TO.P,U1,19*%
%TO.N,/PD5*%
X69012000Y29700200D03*
%TO.P,U1,38*%
%TO.N,/PA2*%
X28372000Y44940200D03*
%TO.P,U1,18*%
%TO.N,/PD4*%
X66472000Y29700200D03*
%TO.P,U1,37*%
%TO.N,/PA3*%
X30912000Y44940200D03*
%TO.P,U1,17*%
%TO.N,/PD3*%
X63932000Y29700200D03*
%TO.P,U1,36*%
%TO.N,/PA4*%
X33452000Y44940200D03*
%TO.P,U1,16*%
%TO.N,/PD2*%
X61392000Y29700200D03*
%TO.P,U1,35*%
%TO.N,/PA5*%
X35992000Y44940200D03*
%TO.P,U1,15*%
%TO.N,/PD1*%
X58852000Y29700200D03*
%TO.P,U1,34*%
%TO.N,/PA6*%
X38532000Y44940200D03*
%TO.P,U1,14*%
%TO.N,/PD0*%
X56312000Y29700200D03*
%TO.P,U1,33*%
%TO.N,/PA7*%
X41072000Y44940200D03*
%TO.P,U1,13*%
%TO.N,Net-(C2-Pad1)*%
X53772000Y29700200D03*
%TO.P,U1,32*%
%TO.N,Net-(C4-Pad1)*%
X43612000Y44940200D03*
%TO.P,U1,12*%
%TO.N,Net-(C3-Pad1)*%
X51232000Y29700200D03*
%TO.P,U1,31*%
%TO.N,GND*%
X46152000Y44940200D03*
%TO.P,U1,11*%
X48692000Y29700200D03*
%TO.P,U1,30*%
%TO.N,+5V*%
X48692000Y44940200D03*
%TO.P,U1,10*%
X46152000Y29700200D03*
%TO.P,U1,29*%
%TO.N,/PC7*%
X51232000Y44940200D03*
%TO.P,U1,9*%
%TO.N,/RESET*%
X43612000Y29700200D03*
%TO.P,U1,28*%
%TO.N,/PC6*%
X53772000Y44940200D03*
%TO.P,U1,8*%
%TO.N,/SCK*%
X41072000Y29700200D03*
%TO.P,U1,27*%
%TO.N,/PC5*%
X56312000Y44940200D03*
%TO.P,U1,7*%
%TO.N,/MISO*%
X38532000Y29700200D03*
%TO.P,U1,26*%
%TO.N,/PC4*%
X58852000Y44940200D03*
%TO.P,U1,6*%
%TO.N,/MOSI*%
X35992000Y29700200D03*
%TO.P,U1,25*%
%TO.N,/PC3*%
X61392000Y44940200D03*
%TO.P,U1,5*%
%TO.N,/PB4*%
X33452000Y29700200D03*
%TO.P,U1,24*%
%TO.N,/PC2*%
X63932000Y44940200D03*
%TO.P,U1,4*%
%TO.N,/PB3*%
X30912000Y29700200D03*
%TO.P,U1,23*%
%TO.N,/PC1*%
X66472000Y44940200D03*
%TO.P,U1,3*%
%TO.N,/PB2*%
X28372000Y29700200D03*
%TO.P,U1,22*%
%TO.N,/PC0*%
X69012000Y44940200D03*
%TO.P,U1,2*%
%TO.N,/PB1*%
X25832000Y29700200D03*
%TO.P,U1,21*%
%TO.N,/PD7*%
X71552000Y44940200D03*
D21*
%TO.P,U1,1*%
%TO.N,/PB0*%
X23292000Y29700200D03*
%TD*%
D28*
%TO.N,/RESET*%
X10668200Y23114000D02*
X10668200Y24314000D01*
X10668200Y24314000D02*
X10807900Y24453700D01*
X10668200Y19354800D02*
X10668200Y23114000D01*
X10668200Y23114000D02*
X5323200Y23114000D01*
X3822900Y23114000D02*
X5323200Y23114000D01*
X10807900Y25654000D02*
X10807900Y26854300D01*
X12471600Y52120800D02*
X12471600Y50856900D01*
X12471600Y50856900D02*
X11918600Y50856900D01*
X11918600Y50856900D02*
X11154600Y50092900D01*
X11154600Y50092900D02*
X11154600Y40761300D01*
X11154600Y40761300D02*
X12013800Y39902100D01*
X12013800Y39902100D02*
X12013800Y28060200D01*
X12013800Y28060200D02*
X10807900Y26854300D01*
X5613600Y11505800D02*
X5613600Y5005800D01*
X10807900Y25654000D02*
X10807900Y24453700D01*
D29*
%TO.N,GND*%
X13168200Y19354800D02*
X13168200Y14560400D01*
X13168200Y14560400D02*
X10113600Y11505800D01*
X15011600Y45476900D02*
X13168200Y43633500D01*
X13168200Y43633500D02*
X13168200Y19354800D01*
X83725200Y66454400D02*
X85781400Y64398100D01*
X85781400Y64398100D02*
X85781400Y63054200D01*
X77737400Y72442100D02*
X83725200Y66454400D01*
X89732100Y72598800D02*
X89732100Y72461300D01*
X89732100Y72461300D02*
X83725200Y66454400D01*
X92082400Y72598800D02*
X89732100Y72598800D01*
X80933400Y44940200D02*
X80933400Y58206200D01*
X80933400Y58206200D02*
X85781400Y63054200D01*
X79286400Y21583800D02*
X79160400Y21709800D01*
X79286400Y3959800D02*
X79286400Y21583800D01*
X79286400Y21583800D02*
X87630400Y21583800D01*
X87630400Y21583800D02*
X87756400Y21709800D01*
X46152000Y51057800D02*
X48692000Y53597800D01*
X46152000Y44940200D02*
X46152000Y51057800D01*
X46152000Y51057800D02*
X43612000Y53597800D01*
X10113600Y11505800D02*
X10113600Y5005800D01*
X87756400Y21709800D02*
X90340400Y24293800D01*
X90340400Y24293800D02*
X90340400Y28818800D01*
X15011600Y52120800D02*
X15011600Y49580800D01*
X15011600Y54660800D02*
X15011600Y52120800D01*
X15011600Y47040800D02*
X15011600Y49580800D01*
X15011600Y46258900D02*
X15011600Y47040800D01*
X15011600Y46258900D02*
X15011600Y45476900D01*
X48692000Y29700200D02*
X48692000Y23638000D01*
X48692000Y23638000D02*
X46152000Y21098000D01*
D30*
%TO.N,+5V*%
X10407700Y33674200D02*
X10807900Y33274000D01*
X15011600Y57200800D02*
X13647600Y58564800D01*
X13647600Y58564800D02*
X11377100Y58564800D01*
X11377100Y58564800D02*
X10407700Y57595400D01*
X10407700Y57595400D02*
X10407700Y33674200D01*
X10407700Y33674200D02*
X5823400Y33674200D01*
X5823400Y33674200D02*
X5423200Y33274000D01*
X3822900Y33274000D02*
X5423200Y33274000D01*
X48692000Y44940200D02*
X48692000Y43639900D01*
X48692000Y43639900D02*
X46152000Y41099900D01*
X46152000Y41099900D02*
X46152000Y29700200D01*
X48692000Y48597800D02*
X48692000Y44940200D01*
X46152000Y29700200D02*
X46152000Y26098000D01*
D31*
%TO.N,Net-(D3-Pad2)*%
X92082400Y66598800D02*
X89632100Y66598800D01*
X89632100Y66598800D02*
X89632100Y54334900D01*
X89632100Y54334900D02*
X89669400Y54297600D01*
%TO.N,/PA7*%
X41072000Y44940200D02*
X41072000Y75129400D01*
%TO.N,/PA6*%
X38532000Y44940200D02*
X38532000Y75129400D01*
%TO.N,/PA5*%
X35992000Y44940200D02*
X35992000Y75129400D01*
%TO.N,/PA4*%
X33452000Y44940200D02*
X33452000Y75129400D01*
%TO.N,/PA3*%
X30912000Y44940200D02*
X30912000Y75129400D01*
%TO.N,/PA2*%
X28372000Y44940200D02*
X28372000Y75129400D01*
%TO.N,/PA1*%
X25832000Y44940200D02*
X25832000Y75129400D01*
%TO.N,/PA0*%
X23292000Y44940200D02*
X23292000Y75129400D01*
%TO.N,/PC0*%
X69126400Y75079400D02*
X69126400Y73779100D01*
X69012000Y44940200D02*
X69012000Y73664700D01*
X69012000Y73664700D02*
X69126400Y73779100D01*
%TO.N,/PC1*%
X66472000Y44940200D02*
X66472000Y46190500D01*
X66472000Y46190500D02*
X66586400Y46304900D01*
X66586400Y46304900D02*
X66586400Y75079400D01*
%TO.N,/PC2*%
X63932000Y44940200D02*
X63932000Y46190500D01*
X63932000Y46190500D02*
X64046400Y46304900D01*
X64046400Y46304900D02*
X64046400Y75079400D01*
%TO.N,/PC3*%
X61392000Y44940200D02*
X61392000Y46190500D01*
X61392000Y46190500D02*
X61506400Y46304900D01*
X61506400Y46304900D02*
X61506400Y75079400D01*
%TO.N,/PC4*%
X58852000Y44940200D02*
X58852000Y46190500D01*
X58852000Y46190500D02*
X58966400Y46304900D01*
X58966400Y46304900D02*
X58966400Y75079400D01*
%TO.N,/PC5*%
X56312000Y44940200D02*
X56312000Y46190500D01*
X56312000Y46190500D02*
X56426400Y46304900D01*
X56426400Y46304900D02*
X56426400Y75079400D01*
%TO.N,/PC6*%
X53772000Y44940200D02*
X53772000Y46190500D01*
X53772000Y46190500D02*
X53886400Y46304900D01*
X53886400Y46304900D02*
X53886400Y75079400D01*
%TO.N,/PC7*%
X51346400Y75079400D02*
X51346400Y73779100D01*
X51232000Y44940200D02*
X51232000Y73664700D01*
X51232000Y73664700D02*
X51346400Y73779100D01*
%TO.N,/PB4*%
X33452000Y29700200D02*
X33452000Y4009800D01*
%TO.N,/PB3*%
X30912000Y29700200D02*
X30912000Y4009800D01*
%TO.N,/PB2*%
X28372000Y29700200D02*
X28372000Y4009800D01*
%TO.N,/PB1*%
X25832000Y29700200D02*
X25832000Y4009800D01*
%TO.N,/PB0*%
X23292000Y29700200D02*
X23292000Y4009800D01*
%TO.N,/PD0*%
X56312000Y29700200D02*
X56312000Y10325800D01*
X56312000Y10325800D02*
X51246300Y5260100D01*
X51246300Y3959800D02*
X51246300Y5260100D01*
%TO.N,/PD1*%
X58852000Y29700200D02*
X58852000Y10325800D01*
X58852000Y10325800D02*
X53786300Y5260100D01*
X53786300Y3959800D02*
X53786300Y5260100D01*
%TO.N,/PD2*%
X61392000Y29700200D02*
X61392000Y10325800D01*
X61392000Y10325800D02*
X56326300Y5260100D01*
X56326300Y3959800D02*
X56326300Y5260100D01*
%TO.N,/PD3*%
X63932000Y29700200D02*
X63932000Y10325800D01*
X63932000Y10325800D02*
X58866300Y5260100D01*
X58866300Y3959800D02*
X58866300Y5260100D01*
%TO.N,/PD4*%
X66472000Y29700200D02*
X66472000Y10325800D01*
X66472000Y10325800D02*
X61406300Y5260100D01*
X61406300Y3959800D02*
X61406300Y5260100D01*
%TO.N,/PD5*%
X63946300Y3959800D02*
X63946300Y5260100D01*
X69012000Y29700200D02*
X69012000Y10325800D01*
X69012000Y10325800D02*
X63946300Y5260100D01*
%TO.N,/PD6*%
X71552000Y29700200D02*
X71552000Y4584300D01*
X71552000Y4584300D02*
X69625600Y2657900D01*
X69625600Y2657900D02*
X67788200Y2657900D01*
X67788200Y2657900D02*
X66486300Y3959800D01*
%TO.N,/PD7*%
X69026300Y3959800D02*
X69026300Y5260100D01*
X71552000Y44940200D02*
X71552000Y43689900D01*
X71552000Y43689900D02*
X70301700Y42439600D01*
X70301700Y42439600D02*
X70301700Y6535500D01*
X70301700Y6535500D02*
X69026300Y5260100D01*
%TO.N,Net-(C7-Pad1)*%
X85781400Y58054200D02*
X85781400Y38457800D01*
X85781400Y38457800D02*
X95420400Y28818800D01*
X77737400Y67442100D02*
X77737400Y66191800D01*
X77737400Y66191800D02*
X77869400Y66059800D01*
X77869400Y66059800D02*
X77869400Y61808400D01*
%TO.N,Net-(C4-Pad1)*%
X43612000Y44940200D02*
X43612000Y48597800D01*
D30*
%TO.N,Net-(D2-Pad1)*%
X97289400Y54297600D02*
X97289400Y55597900D01*
X94899400Y59126100D02*
X94899400Y57725800D01*
X94899400Y57725800D02*
X97027300Y55597900D01*
X97027300Y55597900D02*
X97289400Y55597900D01*
%TD*%
M02*
