%TF.GenerationSoftware,KiCad,Pcbnew,5.1.4-3.fc30*%
%TF.CreationDate,2019-10-13T04:16:58+02:00*%
%TF.ProjectId,avr_dev_board_atmega16,6176725f-6465-4765-9f62-6f6172645f61,1_0*%
%TF.SameCoordinates,PX2652348PY7832370*%
%TF.FileFunction,Soldermask,Bot*%
%TF.FilePolarity,Negative*%
%FSLAX46Y46*%
G04 Gerber Fmt 4.6, Leading zero omitted, Abs format (unit mm)*
G04 Created by KiCad (PCBNEW 5.1.4-3.fc30) date 2019-10-13 04:16:58*
%MOMM*%
%LPD*%
G04 APERTURE LIST*
%ADD10C,0.150000*%
G04 APERTURE END LIST*
D10*
G36*
X89002795Y4874254D02*
G01*
X89175866Y4802566D01*
X89235711Y4762579D01*
X89331627Y4698490D01*
X89464090Y4566027D01*
X89499661Y4512791D01*
X89568166Y4410266D01*
X89639854Y4237195D01*
X89676400Y4053467D01*
X89676400Y3866133D01*
X89639854Y3682405D01*
X89568166Y3509334D01*
X89568165Y3509333D01*
X89464090Y3353573D01*
X89331627Y3221110D01*
X89310541Y3207021D01*
X89175866Y3117034D01*
X89002795Y3045346D01*
X88819067Y3008800D01*
X88631733Y3008800D01*
X88448005Y3045346D01*
X88274934Y3117034D01*
X88140259Y3207021D01*
X88119173Y3221110D01*
X87986710Y3353573D01*
X87882635Y3509333D01*
X87882634Y3509334D01*
X87810946Y3682405D01*
X87774400Y3866133D01*
X87774400Y4053467D01*
X87810946Y4237195D01*
X87882634Y4410266D01*
X87951139Y4512791D01*
X87986710Y4566027D01*
X88119173Y4698490D01*
X88215089Y4762579D01*
X88274934Y4802566D01*
X88448005Y4874254D01*
X88631733Y4910800D01*
X88819067Y4910800D01*
X89002795Y4874254D01*
X89002795Y4874254D01*
G37*
G36*
X87136400Y3008800D02*
G01*
X85234400Y3008800D01*
X85234400Y4910800D01*
X87136400Y4910800D01*
X87136400Y3008800D01*
X87136400Y3008800D01*
G37*
G36*
X52147300Y3058800D02*
G01*
X50345300Y3058800D01*
X50345300Y4860800D01*
X52147300Y4860800D01*
X52147300Y3058800D01*
X52147300Y3058800D01*
G37*
G36*
X69136742Y4854282D02*
G01*
X69202927Y4847763D01*
X69372766Y4796243D01*
X69529291Y4712578D01*
X69545548Y4699236D01*
X69666486Y4599986D01*
X69749748Y4498529D01*
X69779078Y4462791D01*
X69862743Y4306266D01*
X69914263Y4136427D01*
X69931659Y3959800D01*
X69914263Y3783173D01*
X69862743Y3613334D01*
X69779078Y3456809D01*
X69749748Y3421071D01*
X69666486Y3319614D01*
X69565029Y3236352D01*
X69529291Y3207022D01*
X69372766Y3123357D01*
X69202927Y3071837D01*
X69136742Y3065318D01*
X69070560Y3058800D01*
X68982040Y3058800D01*
X68915858Y3065318D01*
X68849673Y3071837D01*
X68679834Y3123357D01*
X68523309Y3207022D01*
X68487571Y3236352D01*
X68386114Y3319614D01*
X68302852Y3421071D01*
X68273522Y3456809D01*
X68189857Y3613334D01*
X68138337Y3783173D01*
X68120941Y3959800D01*
X68138337Y4136427D01*
X68189857Y4306266D01*
X68273522Y4462791D01*
X68302852Y4498529D01*
X68386114Y4599986D01*
X68507052Y4699236D01*
X68523309Y4712578D01*
X68679834Y4796243D01*
X68849673Y4847763D01*
X68915858Y4854282D01*
X68982040Y4860800D01*
X69070560Y4860800D01*
X69136742Y4854282D01*
X69136742Y4854282D01*
G37*
G36*
X53896742Y4854282D02*
G01*
X53962927Y4847763D01*
X54132766Y4796243D01*
X54289291Y4712578D01*
X54305548Y4699236D01*
X54426486Y4599986D01*
X54509748Y4498529D01*
X54539078Y4462791D01*
X54622743Y4306266D01*
X54674263Y4136427D01*
X54691659Y3959800D01*
X54674263Y3783173D01*
X54622743Y3613334D01*
X54539078Y3456809D01*
X54509748Y3421071D01*
X54426486Y3319614D01*
X54325029Y3236352D01*
X54289291Y3207022D01*
X54132766Y3123357D01*
X53962927Y3071837D01*
X53896742Y3065318D01*
X53830560Y3058800D01*
X53742040Y3058800D01*
X53675858Y3065318D01*
X53609673Y3071837D01*
X53439834Y3123357D01*
X53283309Y3207022D01*
X53247571Y3236352D01*
X53146114Y3319614D01*
X53062852Y3421071D01*
X53033522Y3456809D01*
X52949857Y3613334D01*
X52898337Y3783173D01*
X52880941Y3959800D01*
X52898337Y4136427D01*
X52949857Y4306266D01*
X53033522Y4462791D01*
X53062852Y4498529D01*
X53146114Y4599986D01*
X53267052Y4699236D01*
X53283309Y4712578D01*
X53439834Y4796243D01*
X53609673Y4847763D01*
X53675858Y4854282D01*
X53742040Y4860800D01*
X53830560Y4860800D01*
X53896742Y4854282D01*
X53896742Y4854282D01*
G37*
G36*
X56436742Y4854282D02*
G01*
X56502927Y4847763D01*
X56672766Y4796243D01*
X56829291Y4712578D01*
X56845548Y4699236D01*
X56966486Y4599986D01*
X57049748Y4498529D01*
X57079078Y4462791D01*
X57162743Y4306266D01*
X57214263Y4136427D01*
X57231659Y3959800D01*
X57214263Y3783173D01*
X57162743Y3613334D01*
X57079078Y3456809D01*
X57049748Y3421071D01*
X56966486Y3319614D01*
X56865029Y3236352D01*
X56829291Y3207022D01*
X56672766Y3123357D01*
X56502927Y3071837D01*
X56436742Y3065318D01*
X56370560Y3058800D01*
X56282040Y3058800D01*
X56215858Y3065318D01*
X56149673Y3071837D01*
X55979834Y3123357D01*
X55823309Y3207022D01*
X55787571Y3236352D01*
X55686114Y3319614D01*
X55602852Y3421071D01*
X55573522Y3456809D01*
X55489857Y3613334D01*
X55438337Y3783173D01*
X55420941Y3959800D01*
X55438337Y4136427D01*
X55489857Y4306266D01*
X55573522Y4462791D01*
X55602852Y4498529D01*
X55686114Y4599986D01*
X55807052Y4699236D01*
X55823309Y4712578D01*
X55979834Y4796243D01*
X56149673Y4847763D01*
X56215858Y4854282D01*
X56282040Y4860800D01*
X56370560Y4860800D01*
X56436742Y4854282D01*
X56436742Y4854282D01*
G37*
G36*
X58976742Y4854282D02*
G01*
X59042927Y4847763D01*
X59212766Y4796243D01*
X59369291Y4712578D01*
X59385548Y4699236D01*
X59506486Y4599986D01*
X59589748Y4498529D01*
X59619078Y4462791D01*
X59702743Y4306266D01*
X59754263Y4136427D01*
X59771659Y3959800D01*
X59754263Y3783173D01*
X59702743Y3613334D01*
X59619078Y3456809D01*
X59589748Y3421071D01*
X59506486Y3319614D01*
X59405029Y3236352D01*
X59369291Y3207022D01*
X59212766Y3123357D01*
X59042927Y3071837D01*
X58976742Y3065318D01*
X58910560Y3058800D01*
X58822040Y3058800D01*
X58755858Y3065318D01*
X58689673Y3071837D01*
X58519834Y3123357D01*
X58363309Y3207022D01*
X58327571Y3236352D01*
X58226114Y3319614D01*
X58142852Y3421071D01*
X58113522Y3456809D01*
X58029857Y3613334D01*
X57978337Y3783173D01*
X57960941Y3959800D01*
X57978337Y4136427D01*
X58029857Y4306266D01*
X58113522Y4462791D01*
X58142852Y4498529D01*
X58226114Y4599986D01*
X58347052Y4699236D01*
X58363309Y4712578D01*
X58519834Y4796243D01*
X58689673Y4847763D01*
X58755858Y4854282D01*
X58822040Y4860800D01*
X58910560Y4860800D01*
X58976742Y4854282D01*
X58976742Y4854282D01*
G37*
G36*
X61516742Y4854282D02*
G01*
X61582927Y4847763D01*
X61752766Y4796243D01*
X61909291Y4712578D01*
X61925548Y4699236D01*
X62046486Y4599986D01*
X62129748Y4498529D01*
X62159078Y4462791D01*
X62242743Y4306266D01*
X62294263Y4136427D01*
X62311659Y3959800D01*
X62294263Y3783173D01*
X62242743Y3613334D01*
X62159078Y3456809D01*
X62129748Y3421071D01*
X62046486Y3319614D01*
X61945029Y3236352D01*
X61909291Y3207022D01*
X61752766Y3123357D01*
X61582927Y3071837D01*
X61516742Y3065318D01*
X61450560Y3058800D01*
X61362040Y3058800D01*
X61295858Y3065318D01*
X61229673Y3071837D01*
X61059834Y3123357D01*
X60903309Y3207022D01*
X60867571Y3236352D01*
X60766114Y3319614D01*
X60682852Y3421071D01*
X60653522Y3456809D01*
X60569857Y3613334D01*
X60518337Y3783173D01*
X60500941Y3959800D01*
X60518337Y4136427D01*
X60569857Y4306266D01*
X60653522Y4462791D01*
X60682852Y4498529D01*
X60766114Y4599986D01*
X60887052Y4699236D01*
X60903309Y4712578D01*
X61059834Y4796243D01*
X61229673Y4847763D01*
X61295858Y4854282D01*
X61362040Y4860800D01*
X61450560Y4860800D01*
X61516742Y4854282D01*
X61516742Y4854282D01*
G37*
G36*
X64056742Y4854282D02*
G01*
X64122927Y4847763D01*
X64292766Y4796243D01*
X64449291Y4712578D01*
X64465548Y4699236D01*
X64586486Y4599986D01*
X64669748Y4498529D01*
X64699078Y4462791D01*
X64782743Y4306266D01*
X64834263Y4136427D01*
X64851659Y3959800D01*
X64834263Y3783173D01*
X64782743Y3613334D01*
X64699078Y3456809D01*
X64669748Y3421071D01*
X64586486Y3319614D01*
X64485029Y3236352D01*
X64449291Y3207022D01*
X64292766Y3123357D01*
X64122927Y3071837D01*
X64056742Y3065318D01*
X63990560Y3058800D01*
X63902040Y3058800D01*
X63835858Y3065318D01*
X63769673Y3071837D01*
X63599834Y3123357D01*
X63443309Y3207022D01*
X63407571Y3236352D01*
X63306114Y3319614D01*
X63222852Y3421071D01*
X63193522Y3456809D01*
X63109857Y3613334D01*
X63058337Y3783173D01*
X63040941Y3959800D01*
X63058337Y4136427D01*
X63109857Y4306266D01*
X63193522Y4462791D01*
X63222852Y4498529D01*
X63306114Y4599986D01*
X63427052Y4699236D01*
X63443309Y4712578D01*
X63599834Y4796243D01*
X63769673Y4847763D01*
X63835858Y4854282D01*
X63902040Y4860800D01*
X63990560Y4860800D01*
X64056742Y4854282D01*
X64056742Y4854282D01*
G37*
G36*
X77647400Y3058800D02*
G01*
X75845400Y3058800D01*
X75845400Y4860800D01*
X77647400Y4860800D01*
X77647400Y3058800D01*
X77647400Y3058800D01*
G37*
G36*
X79396842Y4854282D02*
G01*
X79463027Y4847763D01*
X79632866Y4796243D01*
X79789391Y4712578D01*
X79805648Y4699236D01*
X79926586Y4599986D01*
X80009848Y4498529D01*
X80039178Y4462791D01*
X80122843Y4306266D01*
X80174363Y4136427D01*
X80191759Y3959800D01*
X80174363Y3783173D01*
X80122843Y3613334D01*
X80039178Y3456809D01*
X80009848Y3421071D01*
X79926586Y3319614D01*
X79825129Y3236352D01*
X79789391Y3207022D01*
X79632866Y3123357D01*
X79463027Y3071837D01*
X79396842Y3065318D01*
X79330660Y3058800D01*
X79242140Y3058800D01*
X79175958Y3065318D01*
X79109773Y3071837D01*
X78939934Y3123357D01*
X78783409Y3207022D01*
X78747671Y3236352D01*
X78646214Y3319614D01*
X78562952Y3421071D01*
X78533622Y3456809D01*
X78449957Y3613334D01*
X78398437Y3783173D01*
X78381041Y3959800D01*
X78398437Y4136427D01*
X78449957Y4306266D01*
X78533622Y4462791D01*
X78562952Y4498529D01*
X78646214Y4599986D01*
X78767152Y4699236D01*
X78783409Y4712578D01*
X78939934Y4796243D01*
X79109773Y4847763D01*
X79175958Y4854282D01*
X79242140Y4860800D01*
X79330660Y4860800D01*
X79396842Y4854282D01*
X79396842Y4854282D01*
G37*
G36*
X66596742Y4854282D02*
G01*
X66662927Y4847763D01*
X66832766Y4796243D01*
X66989291Y4712578D01*
X67005548Y4699236D01*
X67126486Y4599986D01*
X67209748Y4498529D01*
X67239078Y4462791D01*
X67322743Y4306266D01*
X67374263Y4136427D01*
X67391659Y3959800D01*
X67374263Y3783173D01*
X67322743Y3613334D01*
X67239078Y3456809D01*
X67209748Y3421071D01*
X67126486Y3319614D01*
X67025029Y3236352D01*
X66989291Y3207022D01*
X66832766Y3123357D01*
X66662927Y3071837D01*
X66596742Y3065318D01*
X66530560Y3058800D01*
X66442040Y3058800D01*
X66375858Y3065318D01*
X66309673Y3071837D01*
X66139834Y3123357D01*
X65983309Y3207022D01*
X65947571Y3236352D01*
X65846114Y3319614D01*
X65762852Y3421071D01*
X65733522Y3456809D01*
X65649857Y3613334D01*
X65598337Y3783173D01*
X65580941Y3959800D01*
X65598337Y4136427D01*
X65649857Y4306266D01*
X65733522Y4462791D01*
X65762852Y4498529D01*
X65846114Y4599986D01*
X65967052Y4699236D01*
X65983309Y4712578D01*
X66139834Y4796243D01*
X66309673Y4847763D01*
X66375858Y4854282D01*
X66442040Y4860800D01*
X66530560Y4860800D01*
X66596742Y4854282D01*
X66596742Y4854282D01*
G37*
G36*
X31022443Y4904281D02*
G01*
X31088627Y4897763D01*
X31258466Y4846243D01*
X31414991Y4762578D01*
X31450729Y4733248D01*
X31552186Y4649986D01*
X31621088Y4566027D01*
X31664778Y4512791D01*
X31748443Y4356266D01*
X31799963Y4186427D01*
X31817359Y4009800D01*
X31799963Y3833173D01*
X31748443Y3663334D01*
X31664778Y3506809D01*
X31635448Y3471071D01*
X31552186Y3369614D01*
X31450729Y3286352D01*
X31414991Y3257022D01*
X31258466Y3173357D01*
X31088627Y3121837D01*
X31022443Y3115319D01*
X30956260Y3108800D01*
X30867740Y3108800D01*
X30801557Y3115319D01*
X30735373Y3121837D01*
X30565534Y3173357D01*
X30409009Y3257022D01*
X30373271Y3286352D01*
X30271814Y3369614D01*
X30188552Y3471071D01*
X30159222Y3506809D01*
X30075557Y3663334D01*
X30024037Y3833173D01*
X30006641Y4009800D01*
X30024037Y4186427D01*
X30075557Y4356266D01*
X30159222Y4512791D01*
X30202912Y4566027D01*
X30271814Y4649986D01*
X30373271Y4733248D01*
X30409009Y4762578D01*
X30565534Y4846243D01*
X30735373Y4897763D01*
X30801557Y4904281D01*
X30867740Y4910800D01*
X30956260Y4910800D01*
X31022443Y4904281D01*
X31022443Y4904281D01*
G37*
G36*
X94932223Y4798487D02*
G01*
X95092642Y4749824D01*
X95162322Y4712579D01*
X95240478Y4670804D01*
X95370059Y4564459D01*
X95476404Y4434878D01*
X95476405Y4434876D01*
X95555424Y4287042D01*
X95604087Y4126623D01*
X95620517Y3959800D01*
X95604087Y3792977D01*
X95555424Y3632558D01*
X95545147Y3613332D01*
X95476404Y3484722D01*
X95370059Y3355141D01*
X95240478Y3248796D01*
X95240476Y3248795D01*
X95092642Y3169776D01*
X94932223Y3121113D01*
X94807204Y3108800D01*
X94723596Y3108800D01*
X94598577Y3121113D01*
X94438158Y3169776D01*
X94290324Y3248795D01*
X94290322Y3248796D01*
X94160741Y3355141D01*
X94054396Y3484722D01*
X93985653Y3613332D01*
X93975376Y3632558D01*
X93926713Y3792977D01*
X93910283Y3959800D01*
X93926713Y4126623D01*
X93975376Y4287042D01*
X94054395Y4434876D01*
X94054396Y4434878D01*
X94160741Y4564459D01*
X94290322Y4670804D01*
X94368478Y4712579D01*
X94438158Y4749824D01*
X94598577Y4798487D01*
X94723596Y4810800D01*
X94807204Y4810800D01*
X94932223Y4798487D01*
X94932223Y4798487D01*
G37*
G36*
X24193000Y3108800D02*
G01*
X22391000Y3108800D01*
X22391000Y4910800D01*
X24193000Y4910800D01*
X24193000Y3108800D01*
X24193000Y3108800D01*
G37*
G36*
X25942443Y4904281D02*
G01*
X26008627Y4897763D01*
X26178466Y4846243D01*
X26334991Y4762578D01*
X26370729Y4733248D01*
X26472186Y4649986D01*
X26541088Y4566027D01*
X26584778Y4512791D01*
X26668443Y4356266D01*
X26719963Y4186427D01*
X26737359Y4009800D01*
X26719963Y3833173D01*
X26668443Y3663334D01*
X26584778Y3506809D01*
X26555448Y3471071D01*
X26472186Y3369614D01*
X26370729Y3286352D01*
X26334991Y3257022D01*
X26178466Y3173357D01*
X26008627Y3121837D01*
X25942443Y3115319D01*
X25876260Y3108800D01*
X25787740Y3108800D01*
X25721557Y3115319D01*
X25655373Y3121837D01*
X25485534Y3173357D01*
X25329009Y3257022D01*
X25293271Y3286352D01*
X25191814Y3369614D01*
X25108552Y3471071D01*
X25079222Y3506809D01*
X24995557Y3663334D01*
X24944037Y3833173D01*
X24926641Y4009800D01*
X24944037Y4186427D01*
X24995557Y4356266D01*
X25079222Y4512791D01*
X25122912Y4566027D01*
X25191814Y4649986D01*
X25293271Y4733248D01*
X25329009Y4762578D01*
X25485534Y4846243D01*
X25655373Y4897763D01*
X25721557Y4904281D01*
X25787740Y4910800D01*
X25876260Y4910800D01*
X25942443Y4904281D01*
X25942443Y4904281D01*
G37*
G36*
X28482443Y4904281D02*
G01*
X28548627Y4897763D01*
X28718466Y4846243D01*
X28874991Y4762578D01*
X28910729Y4733248D01*
X29012186Y4649986D01*
X29081088Y4566027D01*
X29124778Y4512791D01*
X29208443Y4356266D01*
X29259963Y4186427D01*
X29277359Y4009800D01*
X29259963Y3833173D01*
X29208443Y3663334D01*
X29124778Y3506809D01*
X29095448Y3471071D01*
X29012186Y3369614D01*
X28910729Y3286352D01*
X28874991Y3257022D01*
X28718466Y3173357D01*
X28548627Y3121837D01*
X28482443Y3115319D01*
X28416260Y3108800D01*
X28327740Y3108800D01*
X28261557Y3115319D01*
X28195373Y3121837D01*
X28025534Y3173357D01*
X27869009Y3257022D01*
X27833271Y3286352D01*
X27731814Y3369614D01*
X27648552Y3471071D01*
X27619222Y3506809D01*
X27535557Y3663334D01*
X27484037Y3833173D01*
X27466641Y4009800D01*
X27484037Y4186427D01*
X27535557Y4356266D01*
X27619222Y4512791D01*
X27662912Y4566027D01*
X27731814Y4649986D01*
X27833271Y4733248D01*
X27869009Y4762578D01*
X28025534Y4846243D01*
X28195373Y4897763D01*
X28261557Y4904281D01*
X28327740Y4910800D01*
X28416260Y4910800D01*
X28482443Y4904281D01*
X28482443Y4904281D01*
G37*
G36*
X33562443Y4904281D02*
G01*
X33628627Y4897763D01*
X33798466Y4846243D01*
X33954991Y4762578D01*
X33990729Y4733248D01*
X34092186Y4649986D01*
X34161088Y4566027D01*
X34204778Y4512791D01*
X34288443Y4356266D01*
X34339963Y4186427D01*
X34357359Y4009800D01*
X34339963Y3833173D01*
X34288443Y3663334D01*
X34204778Y3506809D01*
X34175448Y3471071D01*
X34092186Y3369614D01*
X33990729Y3286352D01*
X33954991Y3257022D01*
X33798466Y3173357D01*
X33628627Y3121837D01*
X33562443Y3115319D01*
X33496260Y3108800D01*
X33407740Y3108800D01*
X33341557Y3115319D01*
X33275373Y3121837D01*
X33105534Y3173357D01*
X32949009Y3257022D01*
X32913271Y3286352D01*
X32811814Y3369614D01*
X32728552Y3471071D01*
X32699222Y3506809D01*
X32615557Y3663334D01*
X32564037Y3833173D01*
X32546641Y4009800D01*
X32564037Y4186427D01*
X32615557Y4356266D01*
X32699222Y4512791D01*
X32742912Y4566027D01*
X32811814Y4649986D01*
X32913271Y4733248D01*
X32949009Y4762578D01*
X33105534Y4846243D01*
X33275373Y4897763D01*
X33341557Y4904281D01*
X33407740Y4910800D01*
X33496260Y4910800D01*
X33562443Y4904281D01*
X33562443Y4904281D01*
G37*
G36*
X10420164Y6016411D02*
G01*
X10611433Y5937185D01*
X10611435Y5937184D01*
X10783573Y5822165D01*
X10929965Y5675773D01*
X11044985Y5503633D01*
X11124211Y5312364D01*
X11164600Y5109316D01*
X11164600Y4902284D01*
X11124211Y4699236D01*
X11046983Y4512791D01*
X11044984Y4507965D01*
X10929965Y4335827D01*
X10783573Y4189435D01*
X10611435Y4074416D01*
X10611434Y4074415D01*
X10611433Y4074415D01*
X10420164Y3995189D01*
X10217116Y3954800D01*
X10010084Y3954800D01*
X9807036Y3995189D01*
X9615767Y4074415D01*
X9615766Y4074415D01*
X9615765Y4074416D01*
X9443627Y4189435D01*
X9297235Y4335827D01*
X9182216Y4507965D01*
X9180217Y4512791D01*
X9102989Y4699236D01*
X9062600Y4902284D01*
X9062600Y5109316D01*
X9102989Y5312364D01*
X9182215Y5503633D01*
X9297235Y5675773D01*
X9443627Y5822165D01*
X9615765Y5937184D01*
X9615767Y5937185D01*
X9807036Y6016411D01*
X10010084Y6056800D01*
X10217116Y6056800D01*
X10420164Y6016411D01*
X10420164Y6016411D01*
G37*
G36*
X5920164Y6016411D02*
G01*
X6111433Y5937185D01*
X6111435Y5937184D01*
X6283573Y5822165D01*
X6429965Y5675773D01*
X6544985Y5503633D01*
X6624211Y5312364D01*
X6664600Y5109316D01*
X6664600Y4902284D01*
X6624211Y4699236D01*
X6546983Y4512791D01*
X6544984Y4507965D01*
X6429965Y4335827D01*
X6283573Y4189435D01*
X6111435Y4074416D01*
X6111434Y4074415D01*
X6111433Y4074415D01*
X5920164Y3995189D01*
X5717116Y3954800D01*
X5510084Y3954800D01*
X5307036Y3995189D01*
X5115767Y4074415D01*
X5115766Y4074415D01*
X5115765Y4074416D01*
X4943627Y4189435D01*
X4797235Y4335827D01*
X4682216Y4507965D01*
X4680217Y4512791D01*
X4602989Y4699236D01*
X4562600Y4902284D01*
X4562600Y5109316D01*
X4602989Y5312364D01*
X4682215Y5503633D01*
X4797235Y5675773D01*
X4943627Y5822165D01*
X5115765Y5937184D01*
X5115767Y5937185D01*
X5307036Y6016411D01*
X5510084Y6056800D01*
X5717116Y6056800D01*
X5920164Y6016411D01*
X5920164Y6016411D01*
G37*
G36*
X10420164Y12516411D02*
G01*
X10611433Y12437185D01*
X10611435Y12437184D01*
X10765940Y12333947D01*
X10783573Y12322165D01*
X10929965Y12175773D01*
X11044985Y12003633D01*
X11124211Y11812364D01*
X11164600Y11609316D01*
X11164600Y11402284D01*
X11124211Y11199236D01*
X11114876Y11176700D01*
X11044984Y11007965D01*
X10929965Y10835827D01*
X10783573Y10689435D01*
X10611435Y10574416D01*
X10611434Y10574415D01*
X10611433Y10574415D01*
X10420164Y10495189D01*
X10217116Y10454800D01*
X10010084Y10454800D01*
X9807036Y10495189D01*
X9615767Y10574415D01*
X9615766Y10574415D01*
X9615765Y10574416D01*
X9443627Y10689435D01*
X9297235Y10835827D01*
X9182216Y11007965D01*
X9112324Y11176700D01*
X9102989Y11199236D01*
X9062600Y11402284D01*
X9062600Y11609316D01*
X9102989Y11812364D01*
X9182215Y12003633D01*
X9297235Y12175773D01*
X9443627Y12322165D01*
X9461260Y12333947D01*
X9615765Y12437184D01*
X9615767Y12437185D01*
X9807036Y12516411D01*
X10010084Y12556800D01*
X10217116Y12556800D01*
X10420164Y12516411D01*
X10420164Y12516411D01*
G37*
G36*
X5920164Y12516411D02*
G01*
X6111433Y12437185D01*
X6111435Y12437184D01*
X6265940Y12333947D01*
X6283573Y12322165D01*
X6429965Y12175773D01*
X6544985Y12003633D01*
X6624211Y11812364D01*
X6664600Y11609316D01*
X6664600Y11402284D01*
X6624211Y11199236D01*
X6614876Y11176700D01*
X6544984Y11007965D01*
X6429965Y10835827D01*
X6283573Y10689435D01*
X6111435Y10574416D01*
X6111434Y10574415D01*
X6111433Y10574415D01*
X5920164Y10495189D01*
X5717116Y10454800D01*
X5510084Y10454800D01*
X5307036Y10495189D01*
X5115767Y10574415D01*
X5115766Y10574415D01*
X5115765Y10574416D01*
X4943627Y10689435D01*
X4797235Y10835827D01*
X4682216Y11007965D01*
X4612324Y11176700D01*
X4602989Y11199236D01*
X4562600Y11402284D01*
X4562600Y11609316D01*
X4602989Y11812364D01*
X4682215Y12003633D01*
X4797235Y12175773D01*
X4943627Y12322165D01*
X4961260Y12333947D01*
X5115765Y12437184D01*
X5115767Y12437185D01*
X5307036Y12516411D01*
X5510084Y12556800D01*
X5717116Y12556800D01*
X5920164Y12516411D01*
X5920164Y12516411D01*
G37*
G36*
X95013628Y12398097D02*
G01*
X95168500Y12333947D01*
X95307881Y12240815D01*
X95426415Y12122281D01*
X95519547Y11982900D01*
X95583697Y11828028D01*
X95616400Y11663616D01*
X95616400Y11495984D01*
X95583697Y11331572D01*
X95519547Y11176700D01*
X95426415Y11037319D01*
X95307881Y10918785D01*
X95168500Y10825653D01*
X95013628Y10761503D01*
X94849216Y10728800D01*
X94681584Y10728800D01*
X94517172Y10761503D01*
X94362300Y10825653D01*
X94222919Y10918785D01*
X94104385Y11037319D01*
X94011253Y11176700D01*
X93947103Y11331572D01*
X93914400Y11495984D01*
X93914400Y11663616D01*
X93947103Y11828028D01*
X94011253Y11982900D01*
X94104385Y12122281D01*
X94222919Y12240815D01*
X94362300Y12333947D01*
X94517172Y12398097D01*
X94681584Y12430800D01*
X94849216Y12430800D01*
X95013628Y12398097D01*
X95013628Y12398097D01*
G37*
G36*
X11519200Y18503800D02*
G01*
X9817200Y18503800D01*
X9817200Y20205800D01*
X11519200Y20205800D01*
X11519200Y18503800D01*
X11519200Y18503800D01*
G37*
G36*
X13416428Y20173097D02*
G01*
X13571300Y20108947D01*
X13710681Y20015815D01*
X13829215Y19897281D01*
X13922347Y19757900D01*
X13986497Y19603028D01*
X14019200Y19438616D01*
X14019200Y19270984D01*
X13986497Y19106572D01*
X13922347Y18951700D01*
X13829215Y18812319D01*
X13710681Y18693785D01*
X13571300Y18600653D01*
X13416428Y18536503D01*
X13252016Y18503800D01*
X13084384Y18503800D01*
X12919972Y18536503D01*
X12765100Y18600653D01*
X12625719Y18693785D01*
X12507185Y18812319D01*
X12414053Y18951700D01*
X12349903Y19106572D01*
X12317200Y19270984D01*
X12317200Y19438616D01*
X12349903Y19603028D01*
X12414053Y19757900D01*
X12507185Y19897281D01*
X12625719Y20015815D01*
X12765100Y20108947D01*
X12919972Y20173097D01*
X13084384Y20205800D01*
X13252016Y20205800D01*
X13416428Y20173097D01*
X13416428Y20173097D01*
G37*
G36*
X46400228Y21916297D02*
G01*
X46555100Y21852147D01*
X46694481Y21759015D01*
X46813015Y21640481D01*
X46906147Y21501100D01*
X46970297Y21346228D01*
X47003000Y21181816D01*
X47003000Y21014184D01*
X46970297Y20849772D01*
X46906147Y20694900D01*
X46813015Y20555519D01*
X46694481Y20436985D01*
X46555100Y20343853D01*
X46400228Y20279703D01*
X46235816Y20247000D01*
X46068184Y20247000D01*
X45903772Y20279703D01*
X45748900Y20343853D01*
X45609519Y20436985D01*
X45490985Y20555519D01*
X45397853Y20694900D01*
X45333703Y20849772D01*
X45301000Y21014184D01*
X45301000Y21181816D01*
X45333703Y21346228D01*
X45397853Y21501100D01*
X45490985Y21640481D01*
X45609519Y21759015D01*
X45748900Y21852147D01*
X45903772Y21916297D01*
X46068184Y21949000D01*
X46235816Y21949000D01*
X46400228Y21916297D01*
X46400228Y21916297D01*
G37*
G36*
X76908628Y22528097D02*
G01*
X77063500Y22463947D01*
X77202881Y22370815D01*
X77321415Y22252281D01*
X77414547Y22112900D01*
X77478697Y21958028D01*
X77511400Y21793616D01*
X77511400Y21625984D01*
X77478697Y21461572D01*
X77414547Y21306700D01*
X77321415Y21167319D01*
X77202881Y21048785D01*
X77063500Y20955653D01*
X76908628Y20891503D01*
X76744216Y20858800D01*
X76576584Y20858800D01*
X76412172Y20891503D01*
X76257300Y20955653D01*
X76117919Y21048785D01*
X75999385Y21167319D01*
X75906253Y21306700D01*
X75842103Y21461572D01*
X75809400Y21625984D01*
X75809400Y21793616D01*
X75842103Y21958028D01*
X75906253Y22112900D01*
X75999385Y22252281D01*
X76117919Y22370815D01*
X76257300Y22463947D01*
X76412172Y22528097D01*
X76576584Y22560800D01*
X76744216Y22560800D01*
X76908628Y22528097D01*
X76908628Y22528097D01*
G37*
G36*
X93004628Y22528097D02*
G01*
X93159500Y22463947D01*
X93298881Y22370815D01*
X93417415Y22252281D01*
X93510547Y22112900D01*
X93574697Y21958028D01*
X93607400Y21793616D01*
X93607400Y21625984D01*
X93574697Y21461572D01*
X93510547Y21306700D01*
X93417415Y21167319D01*
X93298881Y21048785D01*
X93159500Y20955653D01*
X93004628Y20891503D01*
X92840216Y20858800D01*
X92672584Y20858800D01*
X92508172Y20891503D01*
X92353300Y20955653D01*
X92213919Y21048785D01*
X92095385Y21167319D01*
X92002253Y21306700D01*
X91938103Y21461572D01*
X91905400Y21625984D01*
X91905400Y21793616D01*
X91938103Y21958028D01*
X92002253Y22112900D01*
X92095385Y22252281D01*
X92213919Y22370815D01*
X92353300Y22463947D01*
X92508172Y22528097D01*
X92672584Y22560800D01*
X92840216Y22560800D01*
X93004628Y22528097D01*
X93004628Y22528097D01*
G37*
G36*
X88004628Y22528097D02*
G01*
X88159500Y22463947D01*
X88298881Y22370815D01*
X88417415Y22252281D01*
X88510547Y22112900D01*
X88574697Y21958028D01*
X88607400Y21793616D01*
X88607400Y21625984D01*
X88574697Y21461572D01*
X88510547Y21306700D01*
X88417415Y21167319D01*
X88298881Y21048785D01*
X88159500Y20955653D01*
X88004628Y20891503D01*
X87840216Y20858800D01*
X87672584Y20858800D01*
X87508172Y20891503D01*
X87353300Y20955653D01*
X87213919Y21048785D01*
X87095385Y21167319D01*
X87002253Y21306700D01*
X86938103Y21461572D01*
X86905400Y21625984D01*
X86905400Y21793616D01*
X86938103Y21958028D01*
X87002253Y22112900D01*
X87095385Y22252281D01*
X87213919Y22370815D01*
X87353300Y22463947D01*
X87508172Y22528097D01*
X87672584Y22560800D01*
X87840216Y22560800D01*
X88004628Y22528097D01*
X88004628Y22528097D01*
G37*
G36*
X79408628Y22528097D02*
G01*
X79563500Y22463947D01*
X79702881Y22370815D01*
X79821415Y22252281D01*
X79914547Y22112900D01*
X79978697Y21958028D01*
X80011400Y21793616D01*
X80011400Y21625984D01*
X79978697Y21461572D01*
X79914547Y21306700D01*
X79821415Y21167319D01*
X79702881Y21048785D01*
X79563500Y20955653D01*
X79408628Y20891503D01*
X79244216Y20858800D01*
X79076584Y20858800D01*
X78912172Y20891503D01*
X78757300Y20955653D01*
X78617919Y21048785D01*
X78499385Y21167319D01*
X78406253Y21306700D01*
X78342103Y21461572D01*
X78309400Y21625984D01*
X78309400Y21793616D01*
X78342103Y21958028D01*
X78406253Y22112900D01*
X78499385Y22252281D01*
X78617919Y22370815D01*
X78757300Y22463947D01*
X78912172Y22528097D01*
X79076584Y22560800D01*
X79244216Y22560800D01*
X79408628Y22528097D01*
X79408628Y22528097D01*
G37*
G36*
X3992171Y24253897D02*
G01*
X4048535Y24248346D01*
X4265500Y24182530D01*
X4265502Y24182529D01*
X4465455Y24075653D01*
X4640718Y23931818D01*
X4784553Y23756555D01*
X4891429Y23556602D01*
X4957246Y23339634D01*
X4979469Y23114000D01*
X4957246Y22888366D01*
X4891429Y22671398D01*
X4784553Y22471445D01*
X4640718Y22296182D01*
X4465455Y22152347D01*
X4265502Y22045471D01*
X4265500Y22045470D01*
X4048535Y21979654D01*
X3992171Y21974103D01*
X3879445Y21963000D01*
X3766355Y21963000D01*
X3653629Y21974103D01*
X3597265Y21979654D01*
X3380300Y22045470D01*
X3380298Y22045471D01*
X3180345Y22152347D01*
X3005082Y22296182D01*
X2861247Y22471445D01*
X2754371Y22671398D01*
X2688554Y22888366D01*
X2666331Y23114000D01*
X2688554Y23339634D01*
X2754371Y23556602D01*
X2861247Y23756555D01*
X3005082Y23931818D01*
X3180345Y24075653D01*
X3380298Y24182529D01*
X3380300Y24182530D01*
X3597265Y24248346D01*
X3653629Y24253897D01*
X3766355Y24265000D01*
X3879445Y24265000D01*
X3992171Y24253897D01*
X3992171Y24253897D01*
G37*
G36*
X10974723Y26492687D02*
G01*
X11135142Y26444024D01*
X11267806Y26373114D01*
X11282978Y26365004D01*
X11412559Y26258659D01*
X11518904Y26129078D01*
X11518905Y26129076D01*
X11597924Y25981242D01*
X11646587Y25820823D01*
X11663017Y25654000D01*
X11646587Y25487177D01*
X11597924Y25326758D01*
X11555292Y25247000D01*
X11518904Y25178922D01*
X11412559Y25049341D01*
X11282978Y24942996D01*
X11282976Y24942995D01*
X11135142Y24863976D01*
X10974723Y24815313D01*
X10849704Y24803000D01*
X10766096Y24803000D01*
X10641077Y24815313D01*
X10480658Y24863976D01*
X10332824Y24942995D01*
X10332822Y24942996D01*
X10203241Y25049341D01*
X10096896Y25178922D01*
X10060508Y25247000D01*
X10017876Y25326758D01*
X9969213Y25487177D01*
X9952783Y25654000D01*
X9969213Y25820823D01*
X10017876Y25981242D01*
X10096895Y26129076D01*
X10096896Y26129078D01*
X10203241Y26258659D01*
X10332822Y26365004D01*
X10347994Y26373114D01*
X10480658Y26444024D01*
X10641077Y26492687D01*
X10766096Y26505000D01*
X10849704Y26505000D01*
X10974723Y26492687D01*
X10974723Y26492687D01*
G37*
G36*
X46400228Y26916297D02*
G01*
X46555100Y26852147D01*
X46694481Y26759015D01*
X46813015Y26640481D01*
X46906147Y26501100D01*
X46970297Y26346228D01*
X47003000Y26181816D01*
X47003000Y26014184D01*
X46970297Y25849772D01*
X46906147Y25694900D01*
X46813015Y25555519D01*
X46694481Y25436985D01*
X46555100Y25343853D01*
X46400228Y25279703D01*
X46235816Y25247000D01*
X46068184Y25247000D01*
X45903772Y25279703D01*
X45748900Y25343853D01*
X45609519Y25436985D01*
X45490985Y25555519D01*
X45397853Y25694900D01*
X45333703Y25849772D01*
X45301000Y26014184D01*
X45301000Y26181816D01*
X45333703Y26346228D01*
X45397853Y26501100D01*
X45490985Y26640481D01*
X45609519Y26759015D01*
X45748900Y26852147D01*
X45903772Y26916297D01*
X46068184Y26949000D01*
X46235816Y26949000D01*
X46400228Y26916297D01*
X46400228Y26916297D01*
G37*
G36*
X93077119Y29855280D02*
G01*
X93266280Y29797899D01*
X93266283Y29797898D01*
X93358733Y29748482D01*
X93440612Y29704717D01*
X93593415Y29579315D01*
X93718817Y29426512D01*
X93811999Y29252181D01*
X93869380Y29063020D01*
X93883900Y28915594D01*
X93883900Y28722007D01*
X93869380Y28574581D01*
X93811999Y28385420D01*
X93811998Y28385417D01*
X93762582Y28292967D01*
X93718817Y28211088D01*
X93593415Y28058285D01*
X93440612Y27932883D01*
X93266281Y27839701D01*
X93077120Y27782320D01*
X92880400Y27762945D01*
X92683681Y27782320D01*
X92494520Y27839701D01*
X92320188Y27932883D01*
X92167385Y28058285D01*
X92041983Y28211088D01*
X91948801Y28385419D01*
X91891420Y28574580D01*
X91876900Y28722006D01*
X91876900Y28915593D01*
X91891420Y29063019D01*
X91948801Y29252180D01*
X91948802Y29252183D01*
X92013360Y29372961D01*
X92041983Y29426512D01*
X92167385Y29579315D01*
X92320188Y29704717D01*
X92494519Y29797899D01*
X92683680Y29855280D01*
X92880400Y29874655D01*
X93077119Y29855280D01*
X93077119Y29855280D01*
G37*
G36*
X95617119Y29855280D02*
G01*
X95806280Y29797899D01*
X95806283Y29797898D01*
X95898733Y29748482D01*
X95980612Y29704717D01*
X96133415Y29579315D01*
X96258817Y29426512D01*
X96351999Y29252181D01*
X96409380Y29063020D01*
X96423900Y28915594D01*
X96423900Y28722007D01*
X96409380Y28574581D01*
X96351999Y28385420D01*
X96351998Y28385417D01*
X96302582Y28292967D01*
X96258817Y28211088D01*
X96133415Y28058285D01*
X95980612Y27932883D01*
X95806281Y27839701D01*
X95617120Y27782320D01*
X95420400Y27762945D01*
X95223681Y27782320D01*
X95034520Y27839701D01*
X94860188Y27932883D01*
X94707385Y28058285D01*
X94581983Y28211088D01*
X94488801Y28385419D01*
X94431420Y28574580D01*
X94416900Y28722006D01*
X94416900Y28915593D01*
X94431420Y29063019D01*
X94488801Y29252180D01*
X94488802Y29252183D01*
X94553360Y29372961D01*
X94581983Y29426512D01*
X94707385Y29579315D01*
X94860188Y29704717D01*
X95034519Y29797899D01*
X95223680Y29855280D01*
X95420400Y29874655D01*
X95617119Y29855280D01*
X95617119Y29855280D01*
G37*
G36*
X91343900Y27767800D02*
G01*
X89336900Y27767800D01*
X89336900Y29869800D01*
X91343900Y29869800D01*
X91343900Y27767800D01*
X91343900Y27767800D01*
G37*
G36*
X81181628Y30518497D02*
G01*
X81336500Y30454347D01*
X81475881Y30361215D01*
X81594415Y30242681D01*
X81687547Y30103300D01*
X81751697Y29948428D01*
X81784400Y29784016D01*
X81784400Y29616384D01*
X81751697Y29451972D01*
X81687547Y29297100D01*
X81594415Y29157719D01*
X81475881Y29039185D01*
X81336500Y28946053D01*
X81181628Y28881903D01*
X81017216Y28849200D01*
X80849584Y28849200D01*
X80685172Y28881903D01*
X80530300Y28946053D01*
X80390919Y29039185D01*
X80272385Y29157719D01*
X80179253Y29297100D01*
X80115103Y29451972D01*
X80082400Y29616384D01*
X80082400Y29784016D01*
X80115103Y29948428D01*
X80179253Y30103300D01*
X80272385Y30242681D01*
X80390919Y30361215D01*
X80530300Y30454347D01*
X80685172Y30518497D01*
X80849584Y30551200D01*
X81017216Y30551200D01*
X81181628Y30518497D01*
X81181628Y30518497D01*
G37*
G36*
X76181628Y30518497D02*
G01*
X76336500Y30454347D01*
X76475881Y30361215D01*
X76594415Y30242681D01*
X76687547Y30103300D01*
X76751697Y29948428D01*
X76784400Y29784016D01*
X76784400Y29616384D01*
X76751697Y29451972D01*
X76687547Y29297100D01*
X76594415Y29157719D01*
X76475881Y29039185D01*
X76336500Y28946053D01*
X76181628Y28881903D01*
X76017216Y28849200D01*
X75849584Y28849200D01*
X75685172Y28881903D01*
X75530300Y28946053D01*
X75390919Y29039185D01*
X75272385Y29157719D01*
X75179253Y29297100D01*
X75115103Y29451972D01*
X75082400Y29616384D01*
X75082400Y29784016D01*
X75115103Y29948428D01*
X75179253Y30103300D01*
X75272385Y30242681D01*
X75390919Y30361215D01*
X75530300Y30454347D01*
X75685172Y30518497D01*
X75849584Y30551200D01*
X76017216Y30551200D01*
X76181628Y30518497D01*
X76181628Y30518497D01*
G37*
G36*
X24143000Y28849200D02*
G01*
X22441000Y28849200D01*
X22441000Y30551200D01*
X24143000Y30551200D01*
X24143000Y28849200D01*
X24143000Y28849200D01*
G37*
G36*
X25998823Y30538887D02*
G01*
X26159242Y30490224D01*
X26226361Y30454348D01*
X26307078Y30411204D01*
X26436659Y30304859D01*
X26543004Y30175278D01*
X26543005Y30175276D01*
X26622024Y30027442D01*
X26670687Y29867023D01*
X26687117Y29700200D01*
X26670687Y29533377D01*
X26622024Y29372958D01*
X26581477Y29297100D01*
X26543004Y29225122D01*
X26436659Y29095541D01*
X26307078Y28989196D01*
X26307076Y28989195D01*
X26159242Y28910176D01*
X25998823Y28861513D01*
X25873804Y28849200D01*
X25790196Y28849200D01*
X25665177Y28861513D01*
X25504758Y28910176D01*
X25356924Y28989195D01*
X25356922Y28989196D01*
X25227341Y29095541D01*
X25120996Y29225122D01*
X25082523Y29297100D01*
X25041976Y29372958D01*
X24993313Y29533377D01*
X24976883Y29700200D01*
X24993313Y29867023D01*
X25041976Y30027442D01*
X25120995Y30175276D01*
X25120996Y30175278D01*
X25227341Y30304859D01*
X25356922Y30411204D01*
X25437639Y30454348D01*
X25504758Y30490224D01*
X25665177Y30538887D01*
X25790196Y30551200D01*
X25873804Y30551200D01*
X25998823Y30538887D01*
X25998823Y30538887D01*
G37*
G36*
X28538823Y30538887D02*
G01*
X28699242Y30490224D01*
X28766361Y30454348D01*
X28847078Y30411204D01*
X28976659Y30304859D01*
X29083004Y30175278D01*
X29083005Y30175276D01*
X29162024Y30027442D01*
X29210687Y29867023D01*
X29227117Y29700200D01*
X29210687Y29533377D01*
X29162024Y29372958D01*
X29121477Y29297100D01*
X29083004Y29225122D01*
X28976659Y29095541D01*
X28847078Y28989196D01*
X28847076Y28989195D01*
X28699242Y28910176D01*
X28538823Y28861513D01*
X28413804Y28849200D01*
X28330196Y28849200D01*
X28205177Y28861513D01*
X28044758Y28910176D01*
X27896924Y28989195D01*
X27896922Y28989196D01*
X27767341Y29095541D01*
X27660996Y29225122D01*
X27622523Y29297100D01*
X27581976Y29372958D01*
X27533313Y29533377D01*
X27516883Y29700200D01*
X27533313Y29867023D01*
X27581976Y30027442D01*
X27660995Y30175276D01*
X27660996Y30175278D01*
X27767341Y30304859D01*
X27896922Y30411204D01*
X27977639Y30454348D01*
X28044758Y30490224D01*
X28205177Y30538887D01*
X28330196Y30551200D01*
X28413804Y30551200D01*
X28538823Y30538887D01*
X28538823Y30538887D01*
G37*
G36*
X31078823Y30538887D02*
G01*
X31239242Y30490224D01*
X31306361Y30454348D01*
X31387078Y30411204D01*
X31516659Y30304859D01*
X31623004Y30175278D01*
X31623005Y30175276D01*
X31702024Y30027442D01*
X31750687Y29867023D01*
X31767117Y29700200D01*
X31750687Y29533377D01*
X31702024Y29372958D01*
X31661477Y29297100D01*
X31623004Y29225122D01*
X31516659Y29095541D01*
X31387078Y28989196D01*
X31387076Y28989195D01*
X31239242Y28910176D01*
X31078823Y28861513D01*
X30953804Y28849200D01*
X30870196Y28849200D01*
X30745177Y28861513D01*
X30584758Y28910176D01*
X30436924Y28989195D01*
X30436922Y28989196D01*
X30307341Y29095541D01*
X30200996Y29225122D01*
X30162523Y29297100D01*
X30121976Y29372958D01*
X30073313Y29533377D01*
X30056883Y29700200D01*
X30073313Y29867023D01*
X30121976Y30027442D01*
X30200995Y30175276D01*
X30200996Y30175278D01*
X30307341Y30304859D01*
X30436922Y30411204D01*
X30517639Y30454348D01*
X30584758Y30490224D01*
X30745177Y30538887D01*
X30870196Y30551200D01*
X30953804Y30551200D01*
X31078823Y30538887D01*
X31078823Y30538887D01*
G37*
G36*
X33618823Y30538887D02*
G01*
X33779242Y30490224D01*
X33846361Y30454348D01*
X33927078Y30411204D01*
X34056659Y30304859D01*
X34163004Y30175278D01*
X34163005Y30175276D01*
X34242024Y30027442D01*
X34290687Y29867023D01*
X34307117Y29700200D01*
X34290687Y29533377D01*
X34242024Y29372958D01*
X34201477Y29297100D01*
X34163004Y29225122D01*
X34056659Y29095541D01*
X33927078Y28989196D01*
X33927076Y28989195D01*
X33779242Y28910176D01*
X33618823Y28861513D01*
X33493804Y28849200D01*
X33410196Y28849200D01*
X33285177Y28861513D01*
X33124758Y28910176D01*
X32976924Y28989195D01*
X32976922Y28989196D01*
X32847341Y29095541D01*
X32740996Y29225122D01*
X32702523Y29297100D01*
X32661976Y29372958D01*
X32613313Y29533377D01*
X32596883Y29700200D01*
X32613313Y29867023D01*
X32661976Y30027442D01*
X32740995Y30175276D01*
X32740996Y30175278D01*
X32847341Y30304859D01*
X32976922Y30411204D01*
X33057639Y30454348D01*
X33124758Y30490224D01*
X33285177Y30538887D01*
X33410196Y30551200D01*
X33493804Y30551200D01*
X33618823Y30538887D01*
X33618823Y30538887D01*
G37*
G36*
X36158823Y30538887D02*
G01*
X36319242Y30490224D01*
X36386361Y30454348D01*
X36467078Y30411204D01*
X36596659Y30304859D01*
X36703004Y30175278D01*
X36703005Y30175276D01*
X36782024Y30027442D01*
X36830687Y29867023D01*
X36847117Y29700200D01*
X36830687Y29533377D01*
X36782024Y29372958D01*
X36741477Y29297100D01*
X36703004Y29225122D01*
X36596659Y29095541D01*
X36467078Y28989196D01*
X36467076Y28989195D01*
X36319242Y28910176D01*
X36158823Y28861513D01*
X36033804Y28849200D01*
X35950196Y28849200D01*
X35825177Y28861513D01*
X35664758Y28910176D01*
X35516924Y28989195D01*
X35516922Y28989196D01*
X35387341Y29095541D01*
X35280996Y29225122D01*
X35242523Y29297100D01*
X35201976Y29372958D01*
X35153313Y29533377D01*
X35136883Y29700200D01*
X35153313Y29867023D01*
X35201976Y30027442D01*
X35280995Y30175276D01*
X35280996Y30175278D01*
X35387341Y30304859D01*
X35516922Y30411204D01*
X35597639Y30454348D01*
X35664758Y30490224D01*
X35825177Y30538887D01*
X35950196Y30551200D01*
X36033804Y30551200D01*
X36158823Y30538887D01*
X36158823Y30538887D01*
G37*
G36*
X38698823Y30538887D02*
G01*
X38859242Y30490224D01*
X38926361Y30454348D01*
X39007078Y30411204D01*
X39136659Y30304859D01*
X39243004Y30175278D01*
X39243005Y30175276D01*
X39322024Y30027442D01*
X39370687Y29867023D01*
X39387117Y29700200D01*
X39370687Y29533377D01*
X39322024Y29372958D01*
X39281477Y29297100D01*
X39243004Y29225122D01*
X39136659Y29095541D01*
X39007078Y28989196D01*
X39007076Y28989195D01*
X38859242Y28910176D01*
X38698823Y28861513D01*
X38573804Y28849200D01*
X38490196Y28849200D01*
X38365177Y28861513D01*
X38204758Y28910176D01*
X38056924Y28989195D01*
X38056922Y28989196D01*
X37927341Y29095541D01*
X37820996Y29225122D01*
X37782523Y29297100D01*
X37741976Y29372958D01*
X37693313Y29533377D01*
X37676883Y29700200D01*
X37693313Y29867023D01*
X37741976Y30027442D01*
X37820995Y30175276D01*
X37820996Y30175278D01*
X37927341Y30304859D01*
X38056922Y30411204D01*
X38137639Y30454348D01*
X38204758Y30490224D01*
X38365177Y30538887D01*
X38490196Y30551200D01*
X38573804Y30551200D01*
X38698823Y30538887D01*
X38698823Y30538887D01*
G37*
G36*
X41238823Y30538887D02*
G01*
X41399242Y30490224D01*
X41466361Y30454348D01*
X41547078Y30411204D01*
X41676659Y30304859D01*
X41783004Y30175278D01*
X41783005Y30175276D01*
X41862024Y30027442D01*
X41910687Y29867023D01*
X41927117Y29700200D01*
X41910687Y29533377D01*
X41862024Y29372958D01*
X41821477Y29297100D01*
X41783004Y29225122D01*
X41676659Y29095541D01*
X41547078Y28989196D01*
X41547076Y28989195D01*
X41399242Y28910176D01*
X41238823Y28861513D01*
X41113804Y28849200D01*
X41030196Y28849200D01*
X40905177Y28861513D01*
X40744758Y28910176D01*
X40596924Y28989195D01*
X40596922Y28989196D01*
X40467341Y29095541D01*
X40360996Y29225122D01*
X40322523Y29297100D01*
X40281976Y29372958D01*
X40233313Y29533377D01*
X40216883Y29700200D01*
X40233313Y29867023D01*
X40281976Y30027442D01*
X40360995Y30175276D01*
X40360996Y30175278D01*
X40467341Y30304859D01*
X40596922Y30411204D01*
X40677639Y30454348D01*
X40744758Y30490224D01*
X40905177Y30538887D01*
X41030196Y30551200D01*
X41113804Y30551200D01*
X41238823Y30538887D01*
X41238823Y30538887D01*
G37*
G36*
X43778823Y30538887D02*
G01*
X43939242Y30490224D01*
X44006361Y30454348D01*
X44087078Y30411204D01*
X44216659Y30304859D01*
X44323004Y30175278D01*
X44323005Y30175276D01*
X44402024Y30027442D01*
X44450687Y29867023D01*
X44467117Y29700200D01*
X44450687Y29533377D01*
X44402024Y29372958D01*
X44361477Y29297100D01*
X44323004Y29225122D01*
X44216659Y29095541D01*
X44087078Y28989196D01*
X44087076Y28989195D01*
X43939242Y28910176D01*
X43778823Y28861513D01*
X43653804Y28849200D01*
X43570196Y28849200D01*
X43445177Y28861513D01*
X43284758Y28910176D01*
X43136924Y28989195D01*
X43136922Y28989196D01*
X43007341Y29095541D01*
X42900996Y29225122D01*
X42862523Y29297100D01*
X42821976Y29372958D01*
X42773313Y29533377D01*
X42756883Y29700200D01*
X42773313Y29867023D01*
X42821976Y30027442D01*
X42900995Y30175276D01*
X42900996Y30175278D01*
X43007341Y30304859D01*
X43136922Y30411204D01*
X43217639Y30454348D01*
X43284758Y30490224D01*
X43445177Y30538887D01*
X43570196Y30551200D01*
X43653804Y30551200D01*
X43778823Y30538887D01*
X43778823Y30538887D01*
G37*
G36*
X48858823Y30538887D02*
G01*
X49019242Y30490224D01*
X49086361Y30454348D01*
X49167078Y30411204D01*
X49296659Y30304859D01*
X49403004Y30175278D01*
X49403005Y30175276D01*
X49482024Y30027442D01*
X49530687Y29867023D01*
X49547117Y29700200D01*
X49530687Y29533377D01*
X49482024Y29372958D01*
X49441477Y29297100D01*
X49403004Y29225122D01*
X49296659Y29095541D01*
X49167078Y28989196D01*
X49167076Y28989195D01*
X49019242Y28910176D01*
X48858823Y28861513D01*
X48733804Y28849200D01*
X48650196Y28849200D01*
X48525177Y28861513D01*
X48364758Y28910176D01*
X48216924Y28989195D01*
X48216922Y28989196D01*
X48087341Y29095541D01*
X47980996Y29225122D01*
X47942523Y29297100D01*
X47901976Y29372958D01*
X47853313Y29533377D01*
X47836883Y29700200D01*
X47853313Y29867023D01*
X47901976Y30027442D01*
X47980995Y30175276D01*
X47980996Y30175278D01*
X48087341Y30304859D01*
X48216922Y30411204D01*
X48297639Y30454348D01*
X48364758Y30490224D01*
X48525177Y30538887D01*
X48650196Y30551200D01*
X48733804Y30551200D01*
X48858823Y30538887D01*
X48858823Y30538887D01*
G37*
G36*
X51398823Y30538887D02*
G01*
X51559242Y30490224D01*
X51626361Y30454348D01*
X51707078Y30411204D01*
X51836659Y30304859D01*
X51943004Y30175278D01*
X51943005Y30175276D01*
X52022024Y30027442D01*
X52070687Y29867023D01*
X52087117Y29700200D01*
X52070687Y29533377D01*
X52022024Y29372958D01*
X51981477Y29297100D01*
X51943004Y29225122D01*
X51836659Y29095541D01*
X51707078Y28989196D01*
X51707076Y28989195D01*
X51559242Y28910176D01*
X51398823Y28861513D01*
X51273804Y28849200D01*
X51190196Y28849200D01*
X51065177Y28861513D01*
X50904758Y28910176D01*
X50756924Y28989195D01*
X50756922Y28989196D01*
X50627341Y29095541D01*
X50520996Y29225122D01*
X50482523Y29297100D01*
X50441976Y29372958D01*
X50393313Y29533377D01*
X50376883Y29700200D01*
X50393313Y29867023D01*
X50441976Y30027442D01*
X50520995Y30175276D01*
X50520996Y30175278D01*
X50627341Y30304859D01*
X50756922Y30411204D01*
X50837639Y30454348D01*
X50904758Y30490224D01*
X51065177Y30538887D01*
X51190196Y30551200D01*
X51273804Y30551200D01*
X51398823Y30538887D01*
X51398823Y30538887D01*
G37*
G36*
X53938823Y30538887D02*
G01*
X54099242Y30490224D01*
X54166361Y30454348D01*
X54247078Y30411204D01*
X54376659Y30304859D01*
X54483004Y30175278D01*
X54483005Y30175276D01*
X54562024Y30027442D01*
X54610687Y29867023D01*
X54627117Y29700200D01*
X54610687Y29533377D01*
X54562024Y29372958D01*
X54521477Y29297100D01*
X54483004Y29225122D01*
X54376659Y29095541D01*
X54247078Y28989196D01*
X54247076Y28989195D01*
X54099242Y28910176D01*
X53938823Y28861513D01*
X53813804Y28849200D01*
X53730196Y28849200D01*
X53605177Y28861513D01*
X53444758Y28910176D01*
X53296924Y28989195D01*
X53296922Y28989196D01*
X53167341Y29095541D01*
X53060996Y29225122D01*
X53022523Y29297100D01*
X52981976Y29372958D01*
X52933313Y29533377D01*
X52916883Y29700200D01*
X52933313Y29867023D01*
X52981976Y30027442D01*
X53060995Y30175276D01*
X53060996Y30175278D01*
X53167341Y30304859D01*
X53296922Y30411204D01*
X53377639Y30454348D01*
X53444758Y30490224D01*
X53605177Y30538887D01*
X53730196Y30551200D01*
X53813804Y30551200D01*
X53938823Y30538887D01*
X53938823Y30538887D01*
G37*
G36*
X56478823Y30538887D02*
G01*
X56639242Y30490224D01*
X56706361Y30454348D01*
X56787078Y30411204D01*
X56916659Y30304859D01*
X57023004Y30175278D01*
X57023005Y30175276D01*
X57102024Y30027442D01*
X57150687Y29867023D01*
X57167117Y29700200D01*
X57150687Y29533377D01*
X57102024Y29372958D01*
X57061477Y29297100D01*
X57023004Y29225122D01*
X56916659Y29095541D01*
X56787078Y28989196D01*
X56787076Y28989195D01*
X56639242Y28910176D01*
X56478823Y28861513D01*
X56353804Y28849200D01*
X56270196Y28849200D01*
X56145177Y28861513D01*
X55984758Y28910176D01*
X55836924Y28989195D01*
X55836922Y28989196D01*
X55707341Y29095541D01*
X55600996Y29225122D01*
X55562523Y29297100D01*
X55521976Y29372958D01*
X55473313Y29533377D01*
X55456883Y29700200D01*
X55473313Y29867023D01*
X55521976Y30027442D01*
X55600995Y30175276D01*
X55600996Y30175278D01*
X55707341Y30304859D01*
X55836922Y30411204D01*
X55917639Y30454348D01*
X55984758Y30490224D01*
X56145177Y30538887D01*
X56270196Y30551200D01*
X56353804Y30551200D01*
X56478823Y30538887D01*
X56478823Y30538887D01*
G37*
G36*
X59018823Y30538887D02*
G01*
X59179242Y30490224D01*
X59246361Y30454348D01*
X59327078Y30411204D01*
X59456659Y30304859D01*
X59563004Y30175278D01*
X59563005Y30175276D01*
X59642024Y30027442D01*
X59690687Y29867023D01*
X59707117Y29700200D01*
X59690687Y29533377D01*
X59642024Y29372958D01*
X59601477Y29297100D01*
X59563004Y29225122D01*
X59456659Y29095541D01*
X59327078Y28989196D01*
X59327076Y28989195D01*
X59179242Y28910176D01*
X59018823Y28861513D01*
X58893804Y28849200D01*
X58810196Y28849200D01*
X58685177Y28861513D01*
X58524758Y28910176D01*
X58376924Y28989195D01*
X58376922Y28989196D01*
X58247341Y29095541D01*
X58140996Y29225122D01*
X58102523Y29297100D01*
X58061976Y29372958D01*
X58013313Y29533377D01*
X57996883Y29700200D01*
X58013313Y29867023D01*
X58061976Y30027442D01*
X58140995Y30175276D01*
X58140996Y30175278D01*
X58247341Y30304859D01*
X58376922Y30411204D01*
X58457639Y30454348D01*
X58524758Y30490224D01*
X58685177Y30538887D01*
X58810196Y30551200D01*
X58893804Y30551200D01*
X59018823Y30538887D01*
X59018823Y30538887D01*
G37*
G36*
X61558823Y30538887D02*
G01*
X61719242Y30490224D01*
X61786361Y30454348D01*
X61867078Y30411204D01*
X61996659Y30304859D01*
X62103004Y30175278D01*
X62103005Y30175276D01*
X62182024Y30027442D01*
X62230687Y29867023D01*
X62247117Y29700200D01*
X62230687Y29533377D01*
X62182024Y29372958D01*
X62141477Y29297100D01*
X62103004Y29225122D01*
X61996659Y29095541D01*
X61867078Y28989196D01*
X61867076Y28989195D01*
X61719242Y28910176D01*
X61558823Y28861513D01*
X61433804Y28849200D01*
X61350196Y28849200D01*
X61225177Y28861513D01*
X61064758Y28910176D01*
X60916924Y28989195D01*
X60916922Y28989196D01*
X60787341Y29095541D01*
X60680996Y29225122D01*
X60642523Y29297100D01*
X60601976Y29372958D01*
X60553313Y29533377D01*
X60536883Y29700200D01*
X60553313Y29867023D01*
X60601976Y30027442D01*
X60680995Y30175276D01*
X60680996Y30175278D01*
X60787341Y30304859D01*
X60916922Y30411204D01*
X60997639Y30454348D01*
X61064758Y30490224D01*
X61225177Y30538887D01*
X61350196Y30551200D01*
X61433804Y30551200D01*
X61558823Y30538887D01*
X61558823Y30538887D01*
G37*
G36*
X64098823Y30538887D02*
G01*
X64259242Y30490224D01*
X64326361Y30454348D01*
X64407078Y30411204D01*
X64536659Y30304859D01*
X64643004Y30175278D01*
X64643005Y30175276D01*
X64722024Y30027442D01*
X64770687Y29867023D01*
X64787117Y29700200D01*
X64770687Y29533377D01*
X64722024Y29372958D01*
X64681477Y29297100D01*
X64643004Y29225122D01*
X64536659Y29095541D01*
X64407078Y28989196D01*
X64407076Y28989195D01*
X64259242Y28910176D01*
X64098823Y28861513D01*
X63973804Y28849200D01*
X63890196Y28849200D01*
X63765177Y28861513D01*
X63604758Y28910176D01*
X63456924Y28989195D01*
X63456922Y28989196D01*
X63327341Y29095541D01*
X63220996Y29225122D01*
X63182523Y29297100D01*
X63141976Y29372958D01*
X63093313Y29533377D01*
X63076883Y29700200D01*
X63093313Y29867023D01*
X63141976Y30027442D01*
X63220995Y30175276D01*
X63220996Y30175278D01*
X63327341Y30304859D01*
X63456922Y30411204D01*
X63537639Y30454348D01*
X63604758Y30490224D01*
X63765177Y30538887D01*
X63890196Y30551200D01*
X63973804Y30551200D01*
X64098823Y30538887D01*
X64098823Y30538887D01*
G37*
G36*
X66638823Y30538887D02*
G01*
X66799242Y30490224D01*
X66866361Y30454348D01*
X66947078Y30411204D01*
X67076659Y30304859D01*
X67183004Y30175278D01*
X67183005Y30175276D01*
X67262024Y30027442D01*
X67310687Y29867023D01*
X67327117Y29700200D01*
X67310687Y29533377D01*
X67262024Y29372958D01*
X67221477Y29297100D01*
X67183004Y29225122D01*
X67076659Y29095541D01*
X66947078Y28989196D01*
X66947076Y28989195D01*
X66799242Y28910176D01*
X66638823Y28861513D01*
X66513804Y28849200D01*
X66430196Y28849200D01*
X66305177Y28861513D01*
X66144758Y28910176D01*
X65996924Y28989195D01*
X65996922Y28989196D01*
X65867341Y29095541D01*
X65760996Y29225122D01*
X65722523Y29297100D01*
X65681976Y29372958D01*
X65633313Y29533377D01*
X65616883Y29700200D01*
X65633313Y29867023D01*
X65681976Y30027442D01*
X65760995Y30175276D01*
X65760996Y30175278D01*
X65867341Y30304859D01*
X65996922Y30411204D01*
X66077639Y30454348D01*
X66144758Y30490224D01*
X66305177Y30538887D01*
X66430196Y30551200D01*
X66513804Y30551200D01*
X66638823Y30538887D01*
X66638823Y30538887D01*
G37*
G36*
X69178823Y30538887D02*
G01*
X69339242Y30490224D01*
X69406361Y30454348D01*
X69487078Y30411204D01*
X69616659Y30304859D01*
X69723004Y30175278D01*
X69723005Y30175276D01*
X69802024Y30027442D01*
X69850687Y29867023D01*
X69867117Y29700200D01*
X69850687Y29533377D01*
X69802024Y29372958D01*
X69761477Y29297100D01*
X69723004Y29225122D01*
X69616659Y29095541D01*
X69487078Y28989196D01*
X69487076Y28989195D01*
X69339242Y28910176D01*
X69178823Y28861513D01*
X69053804Y28849200D01*
X68970196Y28849200D01*
X68845177Y28861513D01*
X68684758Y28910176D01*
X68536924Y28989195D01*
X68536922Y28989196D01*
X68407341Y29095541D01*
X68300996Y29225122D01*
X68262523Y29297100D01*
X68221976Y29372958D01*
X68173313Y29533377D01*
X68156883Y29700200D01*
X68173313Y29867023D01*
X68221976Y30027442D01*
X68300995Y30175276D01*
X68300996Y30175278D01*
X68407341Y30304859D01*
X68536922Y30411204D01*
X68617639Y30454348D01*
X68684758Y30490224D01*
X68845177Y30538887D01*
X68970196Y30551200D01*
X69053804Y30551200D01*
X69178823Y30538887D01*
X69178823Y30538887D01*
G37*
G36*
X71718823Y30538887D02*
G01*
X71879242Y30490224D01*
X71946361Y30454348D01*
X72027078Y30411204D01*
X72156659Y30304859D01*
X72263004Y30175278D01*
X72263005Y30175276D01*
X72342024Y30027442D01*
X72390687Y29867023D01*
X72407117Y29700200D01*
X72390687Y29533377D01*
X72342024Y29372958D01*
X72301477Y29297100D01*
X72263004Y29225122D01*
X72156659Y29095541D01*
X72027078Y28989196D01*
X72027076Y28989195D01*
X71879242Y28910176D01*
X71718823Y28861513D01*
X71593804Y28849200D01*
X71510196Y28849200D01*
X71385177Y28861513D01*
X71224758Y28910176D01*
X71076924Y28989195D01*
X71076922Y28989196D01*
X70947341Y29095541D01*
X70840996Y29225122D01*
X70802523Y29297100D01*
X70761976Y29372958D01*
X70713313Y29533377D01*
X70696883Y29700200D01*
X70713313Y29867023D01*
X70761976Y30027442D01*
X70840995Y30175276D01*
X70840996Y30175278D01*
X70947341Y30304859D01*
X71076922Y30411204D01*
X71157639Y30454348D01*
X71224758Y30490224D01*
X71385177Y30538887D01*
X71510196Y30551200D01*
X71593804Y30551200D01*
X71718823Y30538887D01*
X71718823Y30538887D01*
G37*
G36*
X46318823Y30538887D02*
G01*
X46479242Y30490224D01*
X46546361Y30454348D01*
X46627078Y30411204D01*
X46756659Y30304859D01*
X46863004Y30175278D01*
X46863005Y30175276D01*
X46942024Y30027442D01*
X46990687Y29867023D01*
X47007117Y29700200D01*
X46990687Y29533377D01*
X46942024Y29372958D01*
X46901477Y29297100D01*
X46863004Y29225122D01*
X46756659Y29095541D01*
X46627078Y28989196D01*
X46627076Y28989195D01*
X46479242Y28910176D01*
X46318823Y28861513D01*
X46193804Y28849200D01*
X46110196Y28849200D01*
X45985177Y28861513D01*
X45824758Y28910176D01*
X45676924Y28989195D01*
X45676922Y28989196D01*
X45547341Y29095541D01*
X45440996Y29225122D01*
X45402523Y29297100D01*
X45361976Y29372958D01*
X45313313Y29533377D01*
X45296883Y29700200D01*
X45313313Y29867023D01*
X45361976Y30027442D01*
X45440995Y30175276D01*
X45440996Y30175278D01*
X45547341Y30304859D01*
X45676922Y30411204D01*
X45757639Y30454348D01*
X45824758Y30490224D01*
X45985177Y30538887D01*
X46110196Y30551200D01*
X46193804Y30551200D01*
X46318823Y30538887D01*
X46318823Y30538887D01*
G37*
G36*
X4973900Y32123000D02*
G01*
X2671900Y32123000D01*
X2671900Y34425000D01*
X4973900Y34425000D01*
X4973900Y32123000D01*
X4973900Y32123000D01*
G37*
G36*
X11056128Y34092297D02*
G01*
X11211000Y34028147D01*
X11350381Y33935015D01*
X11468915Y33816481D01*
X11562047Y33677100D01*
X11626197Y33522228D01*
X11658900Y33357816D01*
X11658900Y33190184D01*
X11626197Y33025772D01*
X11562047Y32870900D01*
X11468915Y32731519D01*
X11350381Y32612985D01*
X11211000Y32519853D01*
X11056128Y32455703D01*
X10891716Y32423000D01*
X10724084Y32423000D01*
X10559672Y32455703D01*
X10404800Y32519853D01*
X10265419Y32612985D01*
X10146885Y32731519D01*
X10053753Y32870900D01*
X9989603Y33025772D01*
X9956900Y33190184D01*
X9956900Y33357816D01*
X9989603Y33522228D01*
X10053753Y33677100D01*
X10146885Y33816481D01*
X10265419Y33935015D01*
X10404800Y34028147D01*
X10559672Y34092297D01*
X10724084Y34125000D01*
X10891716Y34125000D01*
X11056128Y34092297D01*
X11056128Y34092297D01*
G37*
G36*
X78546912Y35766273D02*
G01*
X78696212Y35736576D01*
X78860184Y35668656D01*
X79007754Y35570053D01*
X79133253Y35444554D01*
X79231856Y35296984D01*
X79299776Y35133012D01*
X79334400Y34958941D01*
X79334400Y34781459D01*
X79299776Y34607388D01*
X79231856Y34443416D01*
X79133253Y34295846D01*
X79007754Y34170347D01*
X78860184Y34071744D01*
X78696212Y34003824D01*
X78546912Y33974127D01*
X78522142Y33969200D01*
X78344658Y33969200D01*
X78319888Y33974127D01*
X78170588Y34003824D01*
X78006616Y34071744D01*
X77859046Y34170347D01*
X77733547Y34295846D01*
X77634944Y34443416D01*
X77567024Y34607388D01*
X77532400Y34781459D01*
X77532400Y34958941D01*
X77567024Y35133012D01*
X77634944Y35296984D01*
X77733547Y35444554D01*
X77859046Y35570053D01*
X78006616Y35668656D01*
X78170588Y35736576D01*
X78319888Y35766273D01*
X78344658Y35771200D01*
X78522142Y35771200D01*
X78546912Y35766273D01*
X78546912Y35766273D01*
G37*
G36*
X78546912Y40766273D02*
G01*
X78696212Y40736576D01*
X78860184Y40668656D01*
X79007754Y40570053D01*
X79133253Y40444554D01*
X79231856Y40296984D01*
X79299776Y40133012D01*
X79334400Y39958941D01*
X79334400Y39781459D01*
X79299776Y39607388D01*
X79231856Y39443416D01*
X79133253Y39295846D01*
X79007754Y39170347D01*
X78860184Y39071744D01*
X78696212Y39003824D01*
X78546912Y38974127D01*
X78522142Y38969200D01*
X78344658Y38969200D01*
X78319888Y38974127D01*
X78170588Y39003824D01*
X78006616Y39071744D01*
X77859046Y39170347D01*
X77733547Y39295846D01*
X77634944Y39443416D01*
X77567024Y39607388D01*
X77532400Y39781459D01*
X77532400Y39958941D01*
X77567024Y40133012D01*
X77634944Y40296984D01*
X77733547Y40444554D01*
X77859046Y40570053D01*
X78006616Y40668656D01*
X78170588Y40736576D01*
X78319888Y40766273D01*
X78344658Y40771200D01*
X78522142Y40771200D01*
X78546912Y40766273D01*
X78546912Y40766273D01*
G37*
G36*
X93057069Y47271114D02*
G01*
X93233458Y47253741D01*
X93572948Y47150758D01*
X93572950Y47150757D01*
X93885822Y46983523D01*
X94160061Y46758461D01*
X94385123Y46484222D01*
X94541463Y46191731D01*
X94552358Y46171348D01*
X94655341Y45831858D01*
X94690114Y45478800D01*
X94655341Y45125742D01*
X94573632Y44856384D01*
X94552357Y44786250D01*
X94385123Y44473378D01*
X94160061Y44199139D01*
X93885822Y43974077D01*
X93572950Y43806843D01*
X93572948Y43806842D01*
X93233458Y43703859D01*
X93057069Y43686486D01*
X92968876Y43677800D01*
X92791924Y43677800D01*
X92703731Y43686486D01*
X92527342Y43703859D01*
X92187852Y43806842D01*
X92187850Y43806843D01*
X91874978Y43974077D01*
X91600739Y44199139D01*
X91375677Y44473378D01*
X91208443Y44786250D01*
X91187168Y44856384D01*
X91105459Y45125742D01*
X91070686Y45478800D01*
X91105459Y45831858D01*
X91208442Y46171348D01*
X91219337Y46191731D01*
X91375677Y46484222D01*
X91600739Y46758461D01*
X91874978Y46983523D01*
X92187850Y47150757D01*
X92187852Y47150758D01*
X92527342Y47253741D01*
X92703731Y47271114D01*
X92791924Y47279800D01*
X92968876Y47279800D01*
X93057069Y47271114D01*
X93057069Y47271114D01*
G37*
G36*
X71718823Y45778887D02*
G01*
X71879242Y45730224D01*
X71946361Y45694348D01*
X72027078Y45651204D01*
X72156659Y45544859D01*
X72263004Y45415278D01*
X72263005Y45415276D01*
X72342024Y45267442D01*
X72390687Y45107023D01*
X72407117Y44940200D01*
X72390687Y44773377D01*
X72342024Y44612958D01*
X72301477Y44537100D01*
X72263004Y44465122D01*
X72156659Y44335541D01*
X72027078Y44229196D01*
X72027076Y44229195D01*
X71879242Y44150176D01*
X71718823Y44101513D01*
X71593804Y44089200D01*
X71510196Y44089200D01*
X71385177Y44101513D01*
X71224758Y44150176D01*
X71076924Y44229195D01*
X71076922Y44229196D01*
X70947341Y44335541D01*
X70840996Y44465122D01*
X70802523Y44537100D01*
X70761976Y44612958D01*
X70713313Y44773377D01*
X70696883Y44940200D01*
X70713313Y45107023D01*
X70761976Y45267442D01*
X70840995Y45415276D01*
X70840996Y45415278D01*
X70947341Y45544859D01*
X71076922Y45651204D01*
X71157639Y45694348D01*
X71224758Y45730224D01*
X71385177Y45778887D01*
X71510196Y45791200D01*
X71593804Y45791200D01*
X71718823Y45778887D01*
X71718823Y45778887D01*
G37*
G36*
X59018823Y45778887D02*
G01*
X59179242Y45730224D01*
X59246361Y45694348D01*
X59327078Y45651204D01*
X59456659Y45544859D01*
X59563004Y45415278D01*
X59563005Y45415276D01*
X59642024Y45267442D01*
X59690687Y45107023D01*
X59707117Y44940200D01*
X59690687Y44773377D01*
X59642024Y44612958D01*
X59601477Y44537100D01*
X59563004Y44465122D01*
X59456659Y44335541D01*
X59327078Y44229196D01*
X59327076Y44229195D01*
X59179242Y44150176D01*
X59018823Y44101513D01*
X58893804Y44089200D01*
X58810196Y44089200D01*
X58685177Y44101513D01*
X58524758Y44150176D01*
X58376924Y44229195D01*
X58376922Y44229196D01*
X58247341Y44335541D01*
X58140996Y44465122D01*
X58102523Y44537100D01*
X58061976Y44612958D01*
X58013313Y44773377D01*
X57996883Y44940200D01*
X58013313Y45107023D01*
X58061976Y45267442D01*
X58140995Y45415276D01*
X58140996Y45415278D01*
X58247341Y45544859D01*
X58376922Y45651204D01*
X58457639Y45694348D01*
X58524758Y45730224D01*
X58685177Y45778887D01*
X58810196Y45791200D01*
X58893804Y45791200D01*
X59018823Y45778887D01*
X59018823Y45778887D01*
G37*
G36*
X28538823Y45778887D02*
G01*
X28699242Y45730224D01*
X28766361Y45694348D01*
X28847078Y45651204D01*
X28976659Y45544859D01*
X29083004Y45415278D01*
X29083005Y45415276D01*
X29162024Y45267442D01*
X29210687Y45107023D01*
X29227117Y44940200D01*
X29210687Y44773377D01*
X29162024Y44612958D01*
X29121477Y44537100D01*
X29083004Y44465122D01*
X28976659Y44335541D01*
X28847078Y44229196D01*
X28847076Y44229195D01*
X28699242Y44150176D01*
X28538823Y44101513D01*
X28413804Y44089200D01*
X28330196Y44089200D01*
X28205177Y44101513D01*
X28044758Y44150176D01*
X27896924Y44229195D01*
X27896922Y44229196D01*
X27767341Y44335541D01*
X27660996Y44465122D01*
X27622523Y44537100D01*
X27581976Y44612958D01*
X27533313Y44773377D01*
X27516883Y44940200D01*
X27533313Y45107023D01*
X27581976Y45267442D01*
X27660995Y45415276D01*
X27660996Y45415278D01*
X27767341Y45544859D01*
X27896922Y45651204D01*
X27977639Y45694348D01*
X28044758Y45730224D01*
X28205177Y45778887D01*
X28330196Y45791200D01*
X28413804Y45791200D01*
X28538823Y45778887D01*
X28538823Y45778887D01*
G37*
G36*
X56478823Y45778887D02*
G01*
X56639242Y45730224D01*
X56706361Y45694348D01*
X56787078Y45651204D01*
X56916659Y45544859D01*
X57023004Y45415278D01*
X57023005Y45415276D01*
X57102024Y45267442D01*
X57150687Y45107023D01*
X57167117Y44940200D01*
X57150687Y44773377D01*
X57102024Y44612958D01*
X57061477Y44537100D01*
X57023004Y44465122D01*
X56916659Y44335541D01*
X56787078Y44229196D01*
X56787076Y44229195D01*
X56639242Y44150176D01*
X56478823Y44101513D01*
X56353804Y44089200D01*
X56270196Y44089200D01*
X56145177Y44101513D01*
X55984758Y44150176D01*
X55836924Y44229195D01*
X55836922Y44229196D01*
X55707341Y44335541D01*
X55600996Y44465122D01*
X55562523Y44537100D01*
X55521976Y44612958D01*
X55473313Y44773377D01*
X55456883Y44940200D01*
X55473313Y45107023D01*
X55521976Y45267442D01*
X55600995Y45415276D01*
X55600996Y45415278D01*
X55707341Y45544859D01*
X55836922Y45651204D01*
X55917639Y45694348D01*
X55984758Y45730224D01*
X56145177Y45778887D01*
X56270196Y45791200D01*
X56353804Y45791200D01*
X56478823Y45778887D01*
X56478823Y45778887D01*
G37*
G36*
X66638823Y45778887D02*
G01*
X66799242Y45730224D01*
X66866361Y45694348D01*
X66947078Y45651204D01*
X67076659Y45544859D01*
X67183004Y45415278D01*
X67183005Y45415276D01*
X67262024Y45267442D01*
X67310687Y45107023D01*
X67327117Y44940200D01*
X67310687Y44773377D01*
X67262024Y44612958D01*
X67221477Y44537100D01*
X67183004Y44465122D01*
X67076659Y44335541D01*
X66947078Y44229196D01*
X66947076Y44229195D01*
X66799242Y44150176D01*
X66638823Y44101513D01*
X66513804Y44089200D01*
X66430196Y44089200D01*
X66305177Y44101513D01*
X66144758Y44150176D01*
X65996924Y44229195D01*
X65996922Y44229196D01*
X65867341Y44335541D01*
X65760996Y44465122D01*
X65722523Y44537100D01*
X65681976Y44612958D01*
X65633313Y44773377D01*
X65616883Y44940200D01*
X65633313Y45107023D01*
X65681976Y45267442D01*
X65760995Y45415276D01*
X65760996Y45415278D01*
X65867341Y45544859D01*
X65996922Y45651204D01*
X66077639Y45694348D01*
X66144758Y45730224D01*
X66305177Y45778887D01*
X66430196Y45791200D01*
X66513804Y45791200D01*
X66638823Y45778887D01*
X66638823Y45778887D01*
G37*
G36*
X69178823Y45778887D02*
G01*
X69339242Y45730224D01*
X69406361Y45694348D01*
X69487078Y45651204D01*
X69616659Y45544859D01*
X69723004Y45415278D01*
X69723005Y45415276D01*
X69802024Y45267442D01*
X69850687Y45107023D01*
X69867117Y44940200D01*
X69850687Y44773377D01*
X69802024Y44612958D01*
X69761477Y44537100D01*
X69723004Y44465122D01*
X69616659Y44335541D01*
X69487078Y44229196D01*
X69487076Y44229195D01*
X69339242Y44150176D01*
X69178823Y44101513D01*
X69053804Y44089200D01*
X68970196Y44089200D01*
X68845177Y44101513D01*
X68684758Y44150176D01*
X68536924Y44229195D01*
X68536922Y44229196D01*
X68407341Y44335541D01*
X68300996Y44465122D01*
X68262523Y44537100D01*
X68221976Y44612958D01*
X68173313Y44773377D01*
X68156883Y44940200D01*
X68173313Y45107023D01*
X68221976Y45267442D01*
X68300995Y45415276D01*
X68300996Y45415278D01*
X68407341Y45544859D01*
X68536922Y45651204D01*
X68617639Y45694348D01*
X68684758Y45730224D01*
X68845177Y45778887D01*
X68970196Y45791200D01*
X69053804Y45791200D01*
X69178823Y45778887D01*
X69178823Y45778887D01*
G37*
G36*
X43778823Y45778887D02*
G01*
X43939242Y45730224D01*
X44006361Y45694348D01*
X44087078Y45651204D01*
X44216659Y45544859D01*
X44323004Y45415278D01*
X44323005Y45415276D01*
X44402024Y45267442D01*
X44450687Y45107023D01*
X44467117Y44940200D01*
X44450687Y44773377D01*
X44402024Y44612958D01*
X44361477Y44537100D01*
X44323004Y44465122D01*
X44216659Y44335541D01*
X44087078Y44229196D01*
X44087076Y44229195D01*
X43939242Y44150176D01*
X43778823Y44101513D01*
X43653804Y44089200D01*
X43570196Y44089200D01*
X43445177Y44101513D01*
X43284758Y44150176D01*
X43136924Y44229195D01*
X43136922Y44229196D01*
X43007341Y44335541D01*
X42900996Y44465122D01*
X42862523Y44537100D01*
X42821976Y44612958D01*
X42773313Y44773377D01*
X42756883Y44940200D01*
X42773313Y45107023D01*
X42821976Y45267442D01*
X42900995Y45415276D01*
X42900996Y45415278D01*
X43007341Y45544859D01*
X43136922Y45651204D01*
X43217639Y45694348D01*
X43284758Y45730224D01*
X43445177Y45778887D01*
X43570196Y45791200D01*
X43653804Y45791200D01*
X43778823Y45778887D01*
X43778823Y45778887D01*
G37*
G36*
X46318823Y45778887D02*
G01*
X46479242Y45730224D01*
X46546361Y45694348D01*
X46627078Y45651204D01*
X46756659Y45544859D01*
X46863004Y45415278D01*
X46863005Y45415276D01*
X46942024Y45267442D01*
X46990687Y45107023D01*
X47007117Y44940200D01*
X46990687Y44773377D01*
X46942024Y44612958D01*
X46901477Y44537100D01*
X46863004Y44465122D01*
X46756659Y44335541D01*
X46627078Y44229196D01*
X46627076Y44229195D01*
X46479242Y44150176D01*
X46318823Y44101513D01*
X46193804Y44089200D01*
X46110196Y44089200D01*
X45985177Y44101513D01*
X45824758Y44150176D01*
X45676924Y44229195D01*
X45676922Y44229196D01*
X45547341Y44335541D01*
X45440996Y44465122D01*
X45402523Y44537100D01*
X45361976Y44612958D01*
X45313313Y44773377D01*
X45296883Y44940200D01*
X45313313Y45107023D01*
X45361976Y45267442D01*
X45440995Y45415276D01*
X45440996Y45415278D01*
X45547341Y45544859D01*
X45676922Y45651204D01*
X45757639Y45694348D01*
X45824758Y45730224D01*
X45985177Y45778887D01*
X46110196Y45791200D01*
X46193804Y45791200D01*
X46318823Y45778887D01*
X46318823Y45778887D01*
G37*
G36*
X61558823Y45778887D02*
G01*
X61719242Y45730224D01*
X61786361Y45694348D01*
X61867078Y45651204D01*
X61996659Y45544859D01*
X62103004Y45415278D01*
X62103005Y45415276D01*
X62182024Y45267442D01*
X62230687Y45107023D01*
X62247117Y44940200D01*
X62230687Y44773377D01*
X62182024Y44612958D01*
X62141477Y44537100D01*
X62103004Y44465122D01*
X61996659Y44335541D01*
X61867078Y44229196D01*
X61867076Y44229195D01*
X61719242Y44150176D01*
X61558823Y44101513D01*
X61433804Y44089200D01*
X61350196Y44089200D01*
X61225177Y44101513D01*
X61064758Y44150176D01*
X60916924Y44229195D01*
X60916922Y44229196D01*
X60787341Y44335541D01*
X60680996Y44465122D01*
X60642523Y44537100D01*
X60601976Y44612958D01*
X60553313Y44773377D01*
X60536883Y44940200D01*
X60553313Y45107023D01*
X60601976Y45267442D01*
X60680995Y45415276D01*
X60680996Y45415278D01*
X60787341Y45544859D01*
X60916922Y45651204D01*
X60997639Y45694348D01*
X61064758Y45730224D01*
X61225177Y45778887D01*
X61350196Y45791200D01*
X61433804Y45791200D01*
X61558823Y45778887D01*
X61558823Y45778887D01*
G37*
G36*
X48858823Y45778887D02*
G01*
X49019242Y45730224D01*
X49086361Y45694348D01*
X49167078Y45651204D01*
X49296659Y45544859D01*
X49403004Y45415278D01*
X49403005Y45415276D01*
X49482024Y45267442D01*
X49530687Y45107023D01*
X49547117Y44940200D01*
X49530687Y44773377D01*
X49482024Y44612958D01*
X49441477Y44537100D01*
X49403004Y44465122D01*
X49296659Y44335541D01*
X49167078Y44229196D01*
X49167076Y44229195D01*
X49019242Y44150176D01*
X48858823Y44101513D01*
X48733804Y44089200D01*
X48650196Y44089200D01*
X48525177Y44101513D01*
X48364758Y44150176D01*
X48216924Y44229195D01*
X48216922Y44229196D01*
X48087341Y44335541D01*
X47980996Y44465122D01*
X47942523Y44537100D01*
X47901976Y44612958D01*
X47853313Y44773377D01*
X47836883Y44940200D01*
X47853313Y45107023D01*
X47901976Y45267442D01*
X47980995Y45415276D01*
X47980996Y45415278D01*
X48087341Y45544859D01*
X48216922Y45651204D01*
X48297639Y45694348D01*
X48364758Y45730224D01*
X48525177Y45778887D01*
X48650196Y45791200D01*
X48733804Y45791200D01*
X48858823Y45778887D01*
X48858823Y45778887D01*
G37*
G36*
X51398823Y45778887D02*
G01*
X51559242Y45730224D01*
X51626361Y45694348D01*
X51707078Y45651204D01*
X51836659Y45544859D01*
X51943004Y45415278D01*
X51943005Y45415276D01*
X52022024Y45267442D01*
X52070687Y45107023D01*
X52087117Y44940200D01*
X52070687Y44773377D01*
X52022024Y44612958D01*
X51981477Y44537100D01*
X51943004Y44465122D01*
X51836659Y44335541D01*
X51707078Y44229196D01*
X51707076Y44229195D01*
X51559242Y44150176D01*
X51398823Y44101513D01*
X51273804Y44089200D01*
X51190196Y44089200D01*
X51065177Y44101513D01*
X50904758Y44150176D01*
X50756924Y44229195D01*
X50756922Y44229196D01*
X50627341Y44335541D01*
X50520996Y44465122D01*
X50482523Y44537100D01*
X50441976Y44612958D01*
X50393313Y44773377D01*
X50376883Y44940200D01*
X50393313Y45107023D01*
X50441976Y45267442D01*
X50520995Y45415276D01*
X50520996Y45415278D01*
X50627341Y45544859D01*
X50756922Y45651204D01*
X50837639Y45694348D01*
X50904758Y45730224D01*
X51065177Y45778887D01*
X51190196Y45791200D01*
X51273804Y45791200D01*
X51398823Y45778887D01*
X51398823Y45778887D01*
G37*
G36*
X41238823Y45778887D02*
G01*
X41399242Y45730224D01*
X41466361Y45694348D01*
X41547078Y45651204D01*
X41676659Y45544859D01*
X41783004Y45415278D01*
X41783005Y45415276D01*
X41862024Y45267442D01*
X41910687Y45107023D01*
X41927117Y44940200D01*
X41910687Y44773377D01*
X41862024Y44612958D01*
X41821477Y44537100D01*
X41783004Y44465122D01*
X41676659Y44335541D01*
X41547078Y44229196D01*
X41547076Y44229195D01*
X41399242Y44150176D01*
X41238823Y44101513D01*
X41113804Y44089200D01*
X41030196Y44089200D01*
X40905177Y44101513D01*
X40744758Y44150176D01*
X40596924Y44229195D01*
X40596922Y44229196D01*
X40467341Y44335541D01*
X40360996Y44465122D01*
X40322523Y44537100D01*
X40281976Y44612958D01*
X40233313Y44773377D01*
X40216883Y44940200D01*
X40233313Y45107023D01*
X40281976Y45267442D01*
X40360995Y45415276D01*
X40360996Y45415278D01*
X40467341Y45544859D01*
X40596922Y45651204D01*
X40677639Y45694348D01*
X40744758Y45730224D01*
X40905177Y45778887D01*
X41030196Y45791200D01*
X41113804Y45791200D01*
X41238823Y45778887D01*
X41238823Y45778887D01*
G37*
G36*
X38698823Y45778887D02*
G01*
X38859242Y45730224D01*
X38926361Y45694348D01*
X39007078Y45651204D01*
X39136659Y45544859D01*
X39243004Y45415278D01*
X39243005Y45415276D01*
X39322024Y45267442D01*
X39370687Y45107023D01*
X39387117Y44940200D01*
X39370687Y44773377D01*
X39322024Y44612958D01*
X39281477Y44537100D01*
X39243004Y44465122D01*
X39136659Y44335541D01*
X39007078Y44229196D01*
X39007076Y44229195D01*
X38859242Y44150176D01*
X38698823Y44101513D01*
X38573804Y44089200D01*
X38490196Y44089200D01*
X38365177Y44101513D01*
X38204758Y44150176D01*
X38056924Y44229195D01*
X38056922Y44229196D01*
X37927341Y44335541D01*
X37820996Y44465122D01*
X37782523Y44537100D01*
X37741976Y44612958D01*
X37693313Y44773377D01*
X37676883Y44940200D01*
X37693313Y45107023D01*
X37741976Y45267442D01*
X37820995Y45415276D01*
X37820996Y45415278D01*
X37927341Y45544859D01*
X38056922Y45651204D01*
X38137639Y45694348D01*
X38204758Y45730224D01*
X38365177Y45778887D01*
X38490196Y45791200D01*
X38573804Y45791200D01*
X38698823Y45778887D01*
X38698823Y45778887D01*
G37*
G36*
X64098823Y45778887D02*
G01*
X64259242Y45730224D01*
X64326361Y45694348D01*
X64407078Y45651204D01*
X64536659Y45544859D01*
X64643004Y45415278D01*
X64643005Y45415276D01*
X64722024Y45267442D01*
X64770687Y45107023D01*
X64787117Y44940200D01*
X64770687Y44773377D01*
X64722024Y44612958D01*
X64681477Y44537100D01*
X64643004Y44465122D01*
X64536659Y44335541D01*
X64407078Y44229196D01*
X64407076Y44229195D01*
X64259242Y44150176D01*
X64098823Y44101513D01*
X63973804Y44089200D01*
X63890196Y44089200D01*
X63765177Y44101513D01*
X63604758Y44150176D01*
X63456924Y44229195D01*
X63456922Y44229196D01*
X63327341Y44335541D01*
X63220996Y44465122D01*
X63182523Y44537100D01*
X63141976Y44612958D01*
X63093313Y44773377D01*
X63076883Y44940200D01*
X63093313Y45107023D01*
X63141976Y45267442D01*
X63220995Y45415276D01*
X63220996Y45415278D01*
X63327341Y45544859D01*
X63456922Y45651204D01*
X63537639Y45694348D01*
X63604758Y45730224D01*
X63765177Y45778887D01*
X63890196Y45791200D01*
X63973804Y45791200D01*
X64098823Y45778887D01*
X64098823Y45778887D01*
G37*
G36*
X31078823Y45778887D02*
G01*
X31239242Y45730224D01*
X31306361Y45694348D01*
X31387078Y45651204D01*
X31516659Y45544859D01*
X31623004Y45415278D01*
X31623005Y45415276D01*
X31702024Y45267442D01*
X31750687Y45107023D01*
X31767117Y44940200D01*
X31750687Y44773377D01*
X31702024Y44612958D01*
X31661477Y44537100D01*
X31623004Y44465122D01*
X31516659Y44335541D01*
X31387078Y44229196D01*
X31387076Y44229195D01*
X31239242Y44150176D01*
X31078823Y44101513D01*
X30953804Y44089200D01*
X30870196Y44089200D01*
X30745177Y44101513D01*
X30584758Y44150176D01*
X30436924Y44229195D01*
X30436922Y44229196D01*
X30307341Y44335541D01*
X30200996Y44465122D01*
X30162523Y44537100D01*
X30121976Y44612958D01*
X30073313Y44773377D01*
X30056883Y44940200D01*
X30073313Y45107023D01*
X30121976Y45267442D01*
X30200995Y45415276D01*
X30200996Y45415278D01*
X30307341Y45544859D01*
X30436922Y45651204D01*
X30517639Y45694348D01*
X30584758Y45730224D01*
X30745177Y45778887D01*
X30870196Y45791200D01*
X30953804Y45791200D01*
X31078823Y45778887D01*
X31078823Y45778887D01*
G37*
G36*
X25998823Y45778887D02*
G01*
X26159242Y45730224D01*
X26226361Y45694348D01*
X26307078Y45651204D01*
X26436659Y45544859D01*
X26543004Y45415278D01*
X26543005Y45415276D01*
X26622024Y45267442D01*
X26670687Y45107023D01*
X26687117Y44940200D01*
X26670687Y44773377D01*
X26622024Y44612958D01*
X26581477Y44537100D01*
X26543004Y44465122D01*
X26436659Y44335541D01*
X26307078Y44229196D01*
X26307076Y44229195D01*
X26159242Y44150176D01*
X25998823Y44101513D01*
X25873804Y44089200D01*
X25790196Y44089200D01*
X25665177Y44101513D01*
X25504758Y44150176D01*
X25356924Y44229195D01*
X25356922Y44229196D01*
X25227341Y44335541D01*
X25120996Y44465122D01*
X25082523Y44537100D01*
X25041976Y44612958D01*
X24993313Y44773377D01*
X24976883Y44940200D01*
X24993313Y45107023D01*
X25041976Y45267442D01*
X25120995Y45415276D01*
X25120996Y45415278D01*
X25227341Y45544859D01*
X25356922Y45651204D01*
X25437639Y45694348D01*
X25504758Y45730224D01*
X25665177Y45778887D01*
X25790196Y45791200D01*
X25873804Y45791200D01*
X25998823Y45778887D01*
X25998823Y45778887D01*
G37*
G36*
X53938823Y45778887D02*
G01*
X54099242Y45730224D01*
X54166361Y45694348D01*
X54247078Y45651204D01*
X54376659Y45544859D01*
X54483004Y45415278D01*
X54483005Y45415276D01*
X54562024Y45267442D01*
X54610687Y45107023D01*
X54627117Y44940200D01*
X54610687Y44773377D01*
X54562024Y44612958D01*
X54521477Y44537100D01*
X54483004Y44465122D01*
X54376659Y44335541D01*
X54247078Y44229196D01*
X54247076Y44229195D01*
X54099242Y44150176D01*
X53938823Y44101513D01*
X53813804Y44089200D01*
X53730196Y44089200D01*
X53605177Y44101513D01*
X53444758Y44150176D01*
X53296924Y44229195D01*
X53296922Y44229196D01*
X53167341Y44335541D01*
X53060996Y44465122D01*
X53022523Y44537100D01*
X52981976Y44612958D01*
X52933313Y44773377D01*
X52916883Y44940200D01*
X52933313Y45107023D01*
X52981976Y45267442D01*
X53060995Y45415276D01*
X53060996Y45415278D01*
X53167341Y45544859D01*
X53296922Y45651204D01*
X53377639Y45694348D01*
X53444758Y45730224D01*
X53605177Y45778887D01*
X53730196Y45791200D01*
X53813804Y45791200D01*
X53938823Y45778887D01*
X53938823Y45778887D01*
G37*
G36*
X33618823Y45778887D02*
G01*
X33779242Y45730224D01*
X33846361Y45694348D01*
X33927078Y45651204D01*
X34056659Y45544859D01*
X34163004Y45415278D01*
X34163005Y45415276D01*
X34242024Y45267442D01*
X34290687Y45107023D01*
X34307117Y44940200D01*
X34290687Y44773377D01*
X34242024Y44612958D01*
X34201477Y44537100D01*
X34163004Y44465122D01*
X34056659Y44335541D01*
X33927078Y44229196D01*
X33927076Y44229195D01*
X33779242Y44150176D01*
X33618823Y44101513D01*
X33493804Y44089200D01*
X33410196Y44089200D01*
X33285177Y44101513D01*
X33124758Y44150176D01*
X32976924Y44229195D01*
X32976922Y44229196D01*
X32847341Y44335541D01*
X32740996Y44465122D01*
X32702523Y44537100D01*
X32661976Y44612958D01*
X32613313Y44773377D01*
X32596883Y44940200D01*
X32613313Y45107023D01*
X32661976Y45267442D01*
X32740995Y45415276D01*
X32740996Y45415278D01*
X32847341Y45544859D01*
X32976922Y45651204D01*
X33057639Y45694348D01*
X33124758Y45730224D01*
X33285177Y45778887D01*
X33410196Y45791200D01*
X33493804Y45791200D01*
X33618823Y45778887D01*
X33618823Y45778887D01*
G37*
G36*
X36158823Y45778887D02*
G01*
X36319242Y45730224D01*
X36386361Y45694348D01*
X36467078Y45651204D01*
X36596659Y45544859D01*
X36703004Y45415278D01*
X36703005Y45415276D01*
X36782024Y45267442D01*
X36830687Y45107023D01*
X36847117Y44940200D01*
X36830687Y44773377D01*
X36782024Y44612958D01*
X36741477Y44537100D01*
X36703004Y44465122D01*
X36596659Y44335541D01*
X36467078Y44229196D01*
X36467076Y44229195D01*
X36319242Y44150176D01*
X36158823Y44101513D01*
X36033804Y44089200D01*
X35950196Y44089200D01*
X35825177Y44101513D01*
X35664758Y44150176D01*
X35516924Y44229195D01*
X35516922Y44229196D01*
X35387341Y44335541D01*
X35280996Y44465122D01*
X35242523Y44537100D01*
X35201976Y44612958D01*
X35153313Y44773377D01*
X35136883Y44940200D01*
X35153313Y45107023D01*
X35201976Y45267442D01*
X35280995Y45415276D01*
X35280996Y45415278D01*
X35387341Y45544859D01*
X35516922Y45651204D01*
X35597639Y45694348D01*
X35664758Y45730224D01*
X35825177Y45778887D01*
X35950196Y45791200D01*
X36033804Y45791200D01*
X36158823Y45778887D01*
X36158823Y45778887D01*
G37*
G36*
X81181628Y45758497D02*
G01*
X81336500Y45694347D01*
X81475881Y45601215D01*
X81594415Y45482681D01*
X81687547Y45343300D01*
X81751697Y45188428D01*
X81784400Y45024016D01*
X81784400Y44856384D01*
X81751697Y44691972D01*
X81687547Y44537100D01*
X81594415Y44397719D01*
X81475881Y44279185D01*
X81336500Y44186053D01*
X81181628Y44121903D01*
X81017216Y44089200D01*
X80849584Y44089200D01*
X80685172Y44121903D01*
X80530300Y44186053D01*
X80390919Y44279185D01*
X80272385Y44397719D01*
X80179253Y44537100D01*
X80115103Y44691972D01*
X80082400Y44856384D01*
X80082400Y45024016D01*
X80115103Y45188428D01*
X80179253Y45343300D01*
X80272385Y45482681D01*
X80390919Y45601215D01*
X80530300Y45694347D01*
X80685172Y45758497D01*
X80849584Y45791200D01*
X81017216Y45791200D01*
X81181628Y45758497D01*
X81181628Y45758497D01*
G37*
G36*
X76181628Y45758497D02*
G01*
X76336500Y45694347D01*
X76475881Y45601215D01*
X76594415Y45482681D01*
X76687547Y45343300D01*
X76751697Y45188428D01*
X76784400Y45024016D01*
X76784400Y44856384D01*
X76751697Y44691972D01*
X76687547Y44537100D01*
X76594415Y44397719D01*
X76475881Y44279185D01*
X76336500Y44186053D01*
X76181628Y44121903D01*
X76017216Y44089200D01*
X75849584Y44089200D01*
X75685172Y44121903D01*
X75530300Y44186053D01*
X75390919Y44279185D01*
X75272385Y44397719D01*
X75179253Y44537100D01*
X75115103Y44691972D01*
X75082400Y44856384D01*
X75082400Y45024016D01*
X75115103Y45188428D01*
X75179253Y45343300D01*
X75272385Y45482681D01*
X75390919Y45601215D01*
X75530300Y45694347D01*
X75685172Y45758497D01*
X75849584Y45791200D01*
X76017216Y45791200D01*
X76181628Y45758497D01*
X76181628Y45758497D01*
G37*
G36*
X23458823Y45778887D02*
G01*
X23619242Y45730224D01*
X23686361Y45694348D01*
X23767078Y45651204D01*
X23896659Y45544859D01*
X24003004Y45415278D01*
X24003005Y45415276D01*
X24082024Y45267442D01*
X24130687Y45107023D01*
X24147117Y44940200D01*
X24130687Y44773377D01*
X24082024Y44612958D01*
X24041477Y44537100D01*
X24003004Y44465122D01*
X23896659Y44335541D01*
X23767078Y44229196D01*
X23767076Y44229195D01*
X23619242Y44150176D01*
X23458823Y44101513D01*
X23333804Y44089200D01*
X23250196Y44089200D01*
X23125177Y44101513D01*
X22964758Y44150176D01*
X22816924Y44229195D01*
X22816922Y44229196D01*
X22687341Y44335541D01*
X22580996Y44465122D01*
X22542523Y44537100D01*
X22501976Y44612958D01*
X22453313Y44773377D01*
X22436883Y44940200D01*
X22453313Y45107023D01*
X22501976Y45267442D01*
X22580995Y45415276D01*
X22580996Y45415278D01*
X22687341Y45544859D01*
X22816922Y45651204D01*
X22897639Y45694348D01*
X22964758Y45730224D01*
X23125177Y45778887D01*
X23250196Y45791200D01*
X23333804Y45791200D01*
X23458823Y45778887D01*
X23458823Y45778887D01*
G37*
G36*
X15190894Y47942167D02*
G01*
X15363295Y47889869D01*
X15522183Y47804942D01*
X15661449Y47690649D01*
X15775742Y47551383D01*
X15860669Y47392495D01*
X15912967Y47220094D01*
X15930625Y47040800D01*
X15912967Y46861506D01*
X15860669Y46689105D01*
X15775742Y46530217D01*
X15661449Y46390951D01*
X15522183Y46276658D01*
X15363295Y46191731D01*
X15190894Y46139433D01*
X15056531Y46126200D01*
X14966669Y46126200D01*
X14832306Y46139433D01*
X14659905Y46191731D01*
X14501017Y46276658D01*
X14361751Y46390951D01*
X14247458Y46530217D01*
X14162531Y46689105D01*
X14110233Y46861506D01*
X14092575Y47040800D01*
X14110233Y47220094D01*
X14162531Y47392495D01*
X14247458Y47551383D01*
X14361751Y47690649D01*
X14501017Y47804942D01*
X14659905Y47889869D01*
X14832306Y47942167D01*
X14966669Y47955400D01*
X15056531Y47955400D01*
X15190894Y47942167D01*
X15190894Y47942167D01*
G37*
G36*
X12650894Y47942167D02*
G01*
X12823295Y47889869D01*
X12982183Y47804942D01*
X13121449Y47690649D01*
X13235742Y47551383D01*
X13320669Y47392495D01*
X13372967Y47220094D01*
X13390625Y47040800D01*
X13372967Y46861506D01*
X13320669Y46689105D01*
X13235742Y46530217D01*
X13121449Y46390951D01*
X12982183Y46276658D01*
X12823295Y46191731D01*
X12650894Y46139433D01*
X12516531Y46126200D01*
X12426669Y46126200D01*
X12292306Y46139433D01*
X12119905Y46191731D01*
X11961017Y46276658D01*
X11821751Y46390951D01*
X11707458Y46530217D01*
X11622531Y46689105D01*
X11570233Y46861506D01*
X11552575Y47040800D01*
X11570233Y47220094D01*
X11622531Y47392495D01*
X11707458Y47551383D01*
X11821751Y47690649D01*
X11961017Y47804942D01*
X12119905Y47889869D01*
X12292306Y47942167D01*
X12426669Y47955400D01*
X12516531Y47955400D01*
X12650894Y47942167D01*
X12650894Y47942167D01*
G37*
G36*
X48940228Y49416097D02*
G01*
X49095100Y49351947D01*
X49234481Y49258815D01*
X49353015Y49140281D01*
X49446147Y49000900D01*
X49510297Y48846028D01*
X49543000Y48681616D01*
X49543000Y48513984D01*
X49510297Y48349572D01*
X49446147Y48194700D01*
X49353015Y48055319D01*
X49234481Y47936785D01*
X49095100Y47843653D01*
X48940228Y47779503D01*
X48775816Y47746800D01*
X48608184Y47746800D01*
X48443772Y47779503D01*
X48288900Y47843653D01*
X48149519Y47936785D01*
X48030985Y48055319D01*
X47937853Y48194700D01*
X47873703Y48349572D01*
X47841000Y48513984D01*
X47841000Y48681616D01*
X47873703Y48846028D01*
X47937853Y49000900D01*
X48030985Y49140281D01*
X48149519Y49258815D01*
X48288900Y49351947D01*
X48443772Y49416097D01*
X48608184Y49448800D01*
X48775816Y49448800D01*
X48940228Y49416097D01*
X48940228Y49416097D01*
G37*
G36*
X43860228Y49416097D02*
G01*
X44015100Y49351947D01*
X44154481Y49258815D01*
X44273015Y49140281D01*
X44366147Y49000900D01*
X44430297Y48846028D01*
X44463000Y48681616D01*
X44463000Y48513984D01*
X44430297Y48349572D01*
X44366147Y48194700D01*
X44273015Y48055319D01*
X44154481Y47936785D01*
X44015100Y47843653D01*
X43860228Y47779503D01*
X43695816Y47746800D01*
X43528184Y47746800D01*
X43363772Y47779503D01*
X43208900Y47843653D01*
X43069519Y47936785D01*
X42950985Y48055319D01*
X42857853Y48194700D01*
X42793703Y48349572D01*
X42761000Y48513984D01*
X42761000Y48681616D01*
X42793703Y48846028D01*
X42857853Y49000900D01*
X42950985Y49140281D01*
X43069519Y49258815D01*
X43208900Y49351947D01*
X43363772Y49416097D01*
X43528184Y49448800D01*
X43695816Y49448800D01*
X43860228Y49416097D01*
X43860228Y49416097D01*
G37*
G36*
X12650894Y50482167D02*
G01*
X12823295Y50429869D01*
X12982183Y50344942D01*
X13121449Y50230649D01*
X13235742Y50091383D01*
X13320669Y49932495D01*
X13372967Y49760094D01*
X13390625Y49580800D01*
X13372967Y49401506D01*
X13320669Y49229105D01*
X13235742Y49070217D01*
X13121449Y48930951D01*
X12982183Y48816658D01*
X12823295Y48731731D01*
X12650894Y48679433D01*
X12516531Y48666200D01*
X12426669Y48666200D01*
X12292306Y48679433D01*
X12119905Y48731731D01*
X11961017Y48816658D01*
X11821751Y48930951D01*
X11707458Y49070217D01*
X11622531Y49229105D01*
X11570233Y49401506D01*
X11552575Y49580800D01*
X11570233Y49760094D01*
X11622531Y49932495D01*
X11707458Y50091383D01*
X11821751Y50230649D01*
X11961017Y50344942D01*
X12119905Y50429869D01*
X12292306Y50482167D01*
X12426669Y50495400D01*
X12516531Y50495400D01*
X12650894Y50482167D01*
X12650894Y50482167D01*
G37*
G36*
X15190894Y50482167D02*
G01*
X15363295Y50429869D01*
X15522183Y50344942D01*
X15661449Y50230649D01*
X15775742Y50091383D01*
X15860669Y49932495D01*
X15912967Y49760094D01*
X15930625Y49580800D01*
X15912967Y49401506D01*
X15860669Y49229105D01*
X15775742Y49070217D01*
X15661449Y48930951D01*
X15522183Y48816658D01*
X15363295Y48731731D01*
X15190894Y48679433D01*
X15056531Y48666200D01*
X14966669Y48666200D01*
X14832306Y48679433D01*
X14659905Y48731731D01*
X14501017Y48816658D01*
X14361751Y48930951D01*
X14247458Y49070217D01*
X14162531Y49229105D01*
X14110233Y49401506D01*
X14092575Y49580800D01*
X14110233Y49760094D01*
X14162531Y49932495D01*
X14247458Y50091383D01*
X14361751Y50230649D01*
X14501017Y50344942D01*
X14659905Y50429869D01*
X14832306Y50482167D01*
X14966669Y50495400D01*
X15056531Y50495400D01*
X15190894Y50482167D01*
X15190894Y50482167D01*
G37*
G36*
X78038671Y52788297D02*
G01*
X78095035Y52782746D01*
X78312000Y52716930D01*
X78312002Y52716929D01*
X78511955Y52610053D01*
X78687218Y52466218D01*
X78831053Y52290955D01*
X78922002Y52120800D01*
X78937930Y52091000D01*
X79003746Y51874035D01*
X79025969Y51648400D01*
X79003746Y51422765D01*
X78942066Y51219433D01*
X78937929Y51205798D01*
X78831053Y51005845D01*
X78687218Y50830582D01*
X78511955Y50686747D01*
X78312002Y50579871D01*
X78312000Y50579870D01*
X78095035Y50514054D01*
X78038671Y50508503D01*
X77925945Y50497400D01*
X77812855Y50497400D01*
X77700129Y50508503D01*
X77643765Y50514054D01*
X77426800Y50579870D01*
X77426798Y50579871D01*
X77226845Y50686747D01*
X77051582Y50830582D01*
X76907747Y51005845D01*
X76800871Y51205798D01*
X76796735Y51219433D01*
X76735054Y51422765D01*
X76712831Y51648400D01*
X76735054Y51874035D01*
X76800870Y52091000D01*
X76816798Y52120800D01*
X76907747Y52290955D01*
X77051582Y52466218D01*
X77226845Y52610053D01*
X77426798Y52716929D01*
X77426800Y52716930D01*
X77643765Y52782746D01*
X77700129Y52788297D01*
X77812855Y52799400D01*
X77925945Y52799400D01*
X78038671Y52788297D01*
X78038671Y52788297D01*
G37*
G36*
X12650894Y53022167D02*
G01*
X12823295Y52969869D01*
X12982183Y52884942D01*
X13121449Y52770649D01*
X13235742Y52631383D01*
X13320669Y52472495D01*
X13372967Y52300094D01*
X13390625Y52120800D01*
X13372967Y51941506D01*
X13320669Y51769105D01*
X13235742Y51610217D01*
X13121449Y51470951D01*
X12982183Y51356658D01*
X12823295Y51271731D01*
X12650894Y51219433D01*
X12516531Y51206200D01*
X12426669Y51206200D01*
X12292306Y51219433D01*
X12119905Y51271731D01*
X11961017Y51356658D01*
X11821751Y51470951D01*
X11707458Y51610217D01*
X11622531Y51769105D01*
X11570233Y51941506D01*
X11552575Y52120800D01*
X11570233Y52300094D01*
X11622531Y52472495D01*
X11707458Y52631383D01*
X11821751Y52770649D01*
X11961017Y52884942D01*
X12119905Y52969869D01*
X12292306Y53022167D01*
X12426669Y53035400D01*
X12516531Y53035400D01*
X12650894Y53022167D01*
X12650894Y53022167D01*
G37*
G36*
X15190894Y53022167D02*
G01*
X15363295Y52969869D01*
X15522183Y52884942D01*
X15661449Y52770649D01*
X15775742Y52631383D01*
X15860669Y52472495D01*
X15912967Y52300094D01*
X15930625Y52120800D01*
X15912967Y51941506D01*
X15860669Y51769105D01*
X15775742Y51610217D01*
X15661449Y51470951D01*
X15522183Y51356658D01*
X15363295Y51271731D01*
X15190894Y51219433D01*
X15056531Y51206200D01*
X14966669Y51206200D01*
X14832306Y51219433D01*
X14659905Y51271731D01*
X14501017Y51356658D01*
X14361751Y51470951D01*
X14247458Y51610217D01*
X14162531Y51769105D01*
X14110233Y51941506D01*
X14092575Y52120800D01*
X14110233Y52300094D01*
X14162531Y52472495D01*
X14247458Y52631383D01*
X14361751Y52770649D01*
X14501017Y52884942D01*
X14659905Y52969869D01*
X14832306Y53022167D01*
X14966669Y53035400D01*
X15056531Y53035400D01*
X15190894Y53022167D01*
X15190894Y53022167D01*
G37*
G36*
X43860228Y54416097D02*
G01*
X44015100Y54351947D01*
X44154481Y54258815D01*
X44273015Y54140281D01*
X44366147Y54000900D01*
X44430297Y53846028D01*
X44463000Y53681616D01*
X44463000Y53513984D01*
X44430297Y53349572D01*
X44366147Y53194700D01*
X44273015Y53055319D01*
X44154481Y52936785D01*
X44015100Y52843653D01*
X43860228Y52779503D01*
X43695816Y52746800D01*
X43528184Y52746800D01*
X43363772Y52779503D01*
X43208900Y52843653D01*
X43069519Y52936785D01*
X42950985Y53055319D01*
X42857853Y53194700D01*
X42793703Y53349572D01*
X42761000Y53513984D01*
X42761000Y53681616D01*
X42793703Y53846028D01*
X42857853Y54000900D01*
X42950985Y54140281D01*
X43069519Y54258815D01*
X43208900Y54351947D01*
X43363772Y54416097D01*
X43528184Y54448800D01*
X43695816Y54448800D01*
X43860228Y54416097D01*
X43860228Y54416097D01*
G37*
G36*
X48940228Y54416097D02*
G01*
X49095100Y54351947D01*
X49234481Y54258815D01*
X49353015Y54140281D01*
X49446147Y54000900D01*
X49510297Y53846028D01*
X49543000Y53681616D01*
X49543000Y53513984D01*
X49510297Y53349572D01*
X49446147Y53194700D01*
X49353015Y53055319D01*
X49234481Y52936785D01*
X49095100Y52843653D01*
X48940228Y52779503D01*
X48775816Y52746800D01*
X48608184Y52746800D01*
X48443772Y52779503D01*
X48288900Y52843653D01*
X48149519Y52936785D01*
X48030985Y53055319D01*
X47937853Y53194700D01*
X47873703Y53349572D01*
X47841000Y53513984D01*
X47841000Y53681616D01*
X47873703Y53846028D01*
X47937853Y54000900D01*
X48030985Y54140281D01*
X48149519Y54258815D01*
X48288900Y54351947D01*
X48443772Y54416097D01*
X48608184Y54448800D01*
X48775816Y54448800D01*
X48940228Y54416097D01*
X48940228Y54416097D01*
G37*
G36*
X89917628Y55115897D02*
G01*
X90072500Y55051747D01*
X90211881Y54958615D01*
X90330415Y54840081D01*
X90423547Y54700700D01*
X90487697Y54545828D01*
X90520400Y54381416D01*
X90520400Y54213784D01*
X90487697Y54049372D01*
X90423547Y53894500D01*
X90330415Y53755119D01*
X90211881Y53636585D01*
X90072500Y53543453D01*
X89917628Y53479303D01*
X89753216Y53446600D01*
X89585584Y53446600D01*
X89421172Y53479303D01*
X89266300Y53543453D01*
X89126919Y53636585D01*
X89008385Y53755119D01*
X88915253Y53894500D01*
X88851103Y54049372D01*
X88818400Y54213784D01*
X88818400Y54381416D01*
X88851103Y54545828D01*
X88915253Y54700700D01*
X89008385Y54840081D01*
X89126919Y54958615D01*
X89266300Y55051747D01*
X89421172Y55115897D01*
X89585584Y55148600D01*
X89753216Y55148600D01*
X89917628Y55115897D01*
X89917628Y55115897D01*
G37*
G36*
X97456223Y55136287D02*
G01*
X97616642Y55087624D01*
X97683761Y55051748D01*
X97764478Y55008604D01*
X97894059Y54902259D01*
X98000404Y54772678D01*
X98000405Y54772676D01*
X98079424Y54624842D01*
X98128087Y54464423D01*
X98144517Y54297600D01*
X98128087Y54130777D01*
X98079424Y53970358D01*
X98038877Y53894500D01*
X98000404Y53822522D01*
X97894059Y53692941D01*
X97764478Y53586596D01*
X97764476Y53586595D01*
X97616642Y53507576D01*
X97456223Y53458913D01*
X97331204Y53446600D01*
X97247596Y53446600D01*
X97122577Y53458913D01*
X96962158Y53507576D01*
X96814324Y53586595D01*
X96814322Y53586596D01*
X96684741Y53692941D01*
X96578396Y53822522D01*
X96539923Y53894500D01*
X96499376Y53970358D01*
X96450713Y54130777D01*
X96434283Y54297600D01*
X96450713Y54464423D01*
X96499376Y54624842D01*
X96578395Y54772676D01*
X96578396Y54772678D01*
X96684741Y54902259D01*
X96814322Y55008604D01*
X96895039Y55051748D01*
X96962158Y55087624D01*
X97122577Y55136287D01*
X97247596Y55148600D01*
X97331204Y55148600D01*
X97456223Y55136287D01*
X97456223Y55136287D01*
G37*
G36*
X12650894Y55562167D02*
G01*
X12823295Y55509869D01*
X12982183Y55424942D01*
X13121449Y55310649D01*
X13235742Y55171383D01*
X13320669Y55012495D01*
X13372967Y54840094D01*
X13390625Y54660800D01*
X13372967Y54481506D01*
X13320669Y54309105D01*
X13235742Y54150217D01*
X13121449Y54010951D01*
X12982183Y53896658D01*
X12823295Y53811731D01*
X12650894Y53759433D01*
X12516531Y53746200D01*
X12426669Y53746200D01*
X12292306Y53759433D01*
X12119905Y53811731D01*
X11961017Y53896658D01*
X11821751Y54010951D01*
X11707458Y54150217D01*
X11622531Y54309105D01*
X11570233Y54481506D01*
X11552575Y54660800D01*
X11570233Y54840094D01*
X11622531Y55012495D01*
X11707458Y55171383D01*
X11821751Y55310649D01*
X11961017Y55424942D01*
X12119905Y55509869D01*
X12292306Y55562167D01*
X12426669Y55575400D01*
X12516531Y55575400D01*
X12650894Y55562167D01*
X12650894Y55562167D01*
G37*
G36*
X15190894Y55562167D02*
G01*
X15363295Y55509869D01*
X15522183Y55424942D01*
X15661449Y55310649D01*
X15775742Y55171383D01*
X15860669Y55012495D01*
X15912967Y54840094D01*
X15930625Y54660800D01*
X15912967Y54481506D01*
X15860669Y54309105D01*
X15775742Y54150217D01*
X15661449Y54010951D01*
X15522183Y53896658D01*
X15363295Y53811731D01*
X15190894Y53759433D01*
X15056531Y53746200D01*
X14966669Y53746200D01*
X14832306Y53759433D01*
X14659905Y53811731D01*
X14501017Y53896658D01*
X14361751Y54010951D01*
X14247458Y54150217D01*
X14162531Y54309105D01*
X14110233Y54481506D01*
X14092575Y54660800D01*
X14110233Y54840094D01*
X14162531Y55012495D01*
X14247458Y55171383D01*
X14361751Y55310649D01*
X14501017Y55424942D01*
X14659905Y55509869D01*
X14832306Y55562167D01*
X14966669Y55575400D01*
X15056531Y55575400D01*
X15190894Y55562167D01*
X15190894Y55562167D01*
G37*
G36*
X13386200Y56286200D02*
G01*
X11557000Y56286200D01*
X11557000Y58115400D01*
X13386200Y58115400D01*
X13386200Y56286200D01*
X13386200Y56286200D01*
G37*
G36*
X15190894Y58102167D02*
G01*
X15363295Y58049869D01*
X15522183Y57964942D01*
X15661449Y57850649D01*
X15775742Y57711383D01*
X15860669Y57552495D01*
X15912967Y57380094D01*
X15930625Y57200800D01*
X15912967Y57021506D01*
X15860669Y56849105D01*
X15775742Y56690217D01*
X15661449Y56550951D01*
X15522183Y56436658D01*
X15363295Y56351731D01*
X15190894Y56299433D01*
X15056531Y56286200D01*
X14966669Y56286200D01*
X14832306Y56299433D01*
X14659905Y56351731D01*
X14501017Y56436658D01*
X14361751Y56550951D01*
X14247458Y56690217D01*
X14162531Y56849105D01*
X14110233Y57021506D01*
X14092575Y57200800D01*
X14110233Y57380094D01*
X14162531Y57552495D01*
X14247458Y57711383D01*
X14361751Y57850649D01*
X14501017Y57964942D01*
X14659905Y58049869D01*
X14832306Y58102167D01*
X14966669Y58115400D01*
X15056531Y58115400D01*
X15190894Y58102167D01*
X15190894Y58102167D01*
G37*
G36*
X86029628Y58872497D02*
G01*
X86184500Y58808347D01*
X86323881Y58715215D01*
X86442415Y58596681D01*
X86535547Y58457300D01*
X86599697Y58302428D01*
X86632400Y58138016D01*
X86632400Y57970384D01*
X86599697Y57805972D01*
X86535547Y57651100D01*
X86442415Y57511719D01*
X86323881Y57393185D01*
X86184500Y57300053D01*
X86029628Y57235903D01*
X85865216Y57203200D01*
X85697584Y57203200D01*
X85533172Y57235903D01*
X85378300Y57300053D01*
X85238919Y57393185D01*
X85120385Y57511719D01*
X85027253Y57651100D01*
X84963103Y57805972D01*
X84930400Y57970384D01*
X84930400Y58138016D01*
X84963103Y58302428D01*
X85027253Y58457300D01*
X85120385Y58596681D01*
X85238919Y58715215D01*
X85378300Y58808347D01*
X85533172Y58872497D01*
X85697584Y58905200D01*
X85865216Y58905200D01*
X86029628Y58872497D01*
X86029628Y58872497D01*
G37*
G36*
X95850400Y58175100D02*
G01*
X93948400Y58175100D01*
X93948400Y60077100D01*
X95850400Y60077100D01*
X95850400Y58175100D01*
X95850400Y58175100D01*
G37*
G36*
X79020400Y60657400D02*
G01*
X76718400Y60657400D01*
X76718400Y62959400D01*
X79020400Y62959400D01*
X79020400Y60657400D01*
X79020400Y60657400D01*
G37*
G36*
X95176795Y62580554D02*
G01*
X95349866Y62508866D01*
X95349867Y62508865D01*
X95505627Y62404790D01*
X95638090Y62272327D01*
X95684279Y62203200D01*
X95742166Y62116566D01*
X95813854Y61943495D01*
X95850400Y61759767D01*
X95850400Y61572433D01*
X95813854Y61388705D01*
X95742166Y61215634D01*
X95742165Y61215633D01*
X95638090Y61059873D01*
X95505627Y60927410D01*
X95427218Y60875019D01*
X95349866Y60823334D01*
X95176795Y60751646D01*
X94993067Y60715100D01*
X94805733Y60715100D01*
X94622005Y60751646D01*
X94448934Y60823334D01*
X94371582Y60875019D01*
X94293173Y60927410D01*
X94160710Y61059873D01*
X94056635Y61215633D01*
X94056634Y61215634D01*
X93984946Y61388705D01*
X93948400Y61572433D01*
X93948400Y61759767D01*
X93984946Y61943495D01*
X94056634Y62116566D01*
X94114521Y62203200D01*
X94160710Y62272327D01*
X94293173Y62404790D01*
X94448933Y62508865D01*
X94448934Y62508866D01*
X94622005Y62580554D01*
X94805733Y62617100D01*
X94993067Y62617100D01*
X95176795Y62580554D01*
X95176795Y62580554D01*
G37*
G36*
X86029628Y63872497D02*
G01*
X86184500Y63808347D01*
X86323881Y63715215D01*
X86442415Y63596681D01*
X86535547Y63457300D01*
X86599697Y63302428D01*
X86632400Y63138016D01*
X86632400Y62970384D01*
X86599697Y62805972D01*
X86535547Y62651100D01*
X86442415Y62511719D01*
X86323881Y62393185D01*
X86184500Y62300053D01*
X86029628Y62235903D01*
X85865216Y62203200D01*
X85697584Y62203200D01*
X85533172Y62235903D01*
X85378300Y62300053D01*
X85238919Y62393185D01*
X85120385Y62511719D01*
X85027253Y62651100D01*
X84963103Y62805972D01*
X84930400Y62970384D01*
X84930400Y63138016D01*
X84963103Y63302428D01*
X85027253Y63457300D01*
X85120385Y63596681D01*
X85238919Y63715215D01*
X85378300Y63808347D01*
X85533172Y63872497D01*
X85697584Y63905200D01*
X85865216Y63905200D01*
X86029628Y63872497D01*
X86029628Y63872497D01*
G37*
G36*
X94133400Y65547800D02*
G01*
X90031400Y65547800D01*
X90031400Y67649800D01*
X94133400Y67649800D01*
X94133400Y65547800D01*
X94133400Y65547800D01*
G37*
G36*
X78588400Y66591100D02*
G01*
X76886400Y66591100D01*
X76886400Y68293100D01*
X78588400Y68293100D01*
X78588400Y66591100D01*
X78588400Y66591100D01*
G37*
G36*
X92835497Y73644731D02*
G01*
X92938432Y73634593D01*
X93136546Y73574495D01*
X93136549Y73574494D01*
X93233375Y73522739D01*
X93319129Y73476903D01*
X93479165Y73345565D01*
X93610503Y73185529D01*
X93654554Y73103115D01*
X93708094Y73002949D01*
X93708095Y73002946D01*
X93768193Y72804832D01*
X93788485Y72598800D01*
X93768193Y72392768D01*
X93728546Y72262072D01*
X93708094Y72194651D01*
X93658589Y72102035D01*
X93610503Y72012071D01*
X93479165Y71852035D01*
X93319129Y71720697D01*
X93257869Y71687953D01*
X93136549Y71623106D01*
X93136546Y71623105D01*
X92938432Y71563007D01*
X92835497Y71552869D01*
X92784031Y71547800D01*
X91380769Y71547800D01*
X91329303Y71552869D01*
X91226368Y71563007D01*
X91028254Y71623105D01*
X91028251Y71623106D01*
X90906931Y71687953D01*
X90845671Y71720697D01*
X90685635Y71852035D01*
X90554297Y72012071D01*
X90506211Y72102035D01*
X90456706Y72194651D01*
X90436254Y72262072D01*
X90396607Y72392768D01*
X90376315Y72598800D01*
X90396607Y72804832D01*
X90456705Y73002946D01*
X90456706Y73002949D01*
X90510246Y73103115D01*
X90554297Y73185529D01*
X90685635Y73345565D01*
X90845671Y73476903D01*
X90931425Y73522739D01*
X91028251Y73574494D01*
X91028254Y73574495D01*
X91226368Y73634593D01*
X91329303Y73644731D01*
X91380769Y73649800D01*
X92784031Y73649800D01*
X92835497Y73644731D01*
X92835497Y73644731D01*
G37*
G36*
X77985628Y73260397D02*
G01*
X78140500Y73196247D01*
X78279881Y73103115D01*
X78398415Y72984581D01*
X78491547Y72845200D01*
X78555697Y72690328D01*
X78588400Y72525916D01*
X78588400Y72358284D01*
X78555697Y72193872D01*
X78491547Y72039000D01*
X78398415Y71899619D01*
X78279881Y71781085D01*
X78140500Y71687953D01*
X77985628Y71623803D01*
X77821216Y71591100D01*
X77653584Y71591100D01*
X77489172Y71623803D01*
X77334300Y71687953D01*
X77194919Y71781085D01*
X77076385Y71899619D01*
X76983253Y72039000D01*
X76919103Y72193872D01*
X76886400Y72358284D01*
X76886400Y72525916D01*
X76919103Y72690328D01*
X76983253Y72845200D01*
X77076385Y72984581D01*
X77194919Y73103115D01*
X77334300Y73196247D01*
X77489172Y73260397D01*
X77653584Y73293100D01*
X77821216Y73293100D01*
X77985628Y73260397D01*
X77985628Y73260397D01*
G37*
G36*
X87788432Y75384593D02*
G01*
X87986546Y75324495D01*
X87986549Y75324494D01*
X88083375Y75272739D01*
X88169129Y75226903D01*
X88329165Y75095565D01*
X88460503Y74935529D01*
X88478010Y74902775D01*
X88558094Y74752949D01*
X88558095Y74752946D01*
X88618193Y74554832D01*
X88633400Y74400430D01*
X88633400Y72797170D01*
X88618193Y72642768D01*
X88558095Y72444655D01*
X88558094Y72444651D01*
X88530363Y72392770D01*
X88460503Y72262071D01*
X88329165Y72102035D01*
X88169129Y71970697D01*
X88052430Y71908321D01*
X87986548Y71873106D01*
X87986545Y71873105D01*
X87788431Y71813007D01*
X87582400Y71792715D01*
X87376368Y71813007D01*
X87178254Y71873105D01*
X87178251Y71873106D01*
X87081425Y71924861D01*
X86995671Y71970697D01*
X86835635Y72102035D01*
X86704297Y72262071D01*
X86606707Y72444651D01*
X86606706Y72444652D01*
X86582055Y72525915D01*
X86546607Y72642769D01*
X86531400Y72797171D01*
X86531400Y74400430D01*
X86535220Y74439215D01*
X86546607Y74554833D01*
X86606705Y74752946D01*
X86686791Y74902775D01*
X86704298Y74935529D01*
X86835636Y75095565D01*
X86995672Y75226903D01*
X87081426Y75272739D01*
X87178252Y75324494D01*
X87178255Y75324495D01*
X87376369Y75384593D01*
X87582400Y75404885D01*
X87788432Y75384593D01*
X87788432Y75384593D01*
G37*
G36*
X96788432Y75384593D02*
G01*
X96986546Y75324495D01*
X96986549Y75324494D01*
X97083375Y75272739D01*
X97169129Y75226903D01*
X97329165Y75095565D01*
X97460503Y74935529D01*
X97478010Y74902775D01*
X97558094Y74752949D01*
X97558095Y74752946D01*
X97618193Y74554832D01*
X97633400Y74400430D01*
X97633400Y72797170D01*
X97618193Y72642768D01*
X97558095Y72444655D01*
X97558094Y72444651D01*
X97530363Y72392770D01*
X97460503Y72262071D01*
X97329165Y72102035D01*
X97169129Y71970697D01*
X97052430Y71908321D01*
X96986548Y71873106D01*
X96986545Y71873105D01*
X96788431Y71813007D01*
X96582400Y71792715D01*
X96376368Y71813007D01*
X96178254Y71873105D01*
X96178251Y71873106D01*
X96081425Y71924861D01*
X95995671Y71970697D01*
X95835635Y72102035D01*
X95704297Y72262071D01*
X95606707Y72444651D01*
X95606706Y72444652D01*
X95582055Y72525915D01*
X95546607Y72642769D01*
X95531400Y72797171D01*
X95531400Y74400430D01*
X95535220Y74439215D01*
X95546607Y74554833D01*
X95606705Y74752946D01*
X95686791Y74902775D01*
X95704298Y74935529D01*
X95835636Y75095565D01*
X95995672Y75226903D01*
X96081426Y75272739D01*
X96178252Y75324494D01*
X96178255Y75324495D01*
X96376369Y75384593D01*
X96582400Y75404885D01*
X96788432Y75384593D01*
X96788432Y75384593D01*
G37*
G36*
X53996843Y75973881D02*
G01*
X54063027Y75967363D01*
X54232866Y75915843D01*
X54389391Y75832178D01*
X54425129Y75802848D01*
X54526586Y75719586D01*
X54609848Y75618129D01*
X54639178Y75582391D01*
X54722843Y75425866D01*
X54774363Y75256027D01*
X54791759Y75079400D01*
X54774363Y74902773D01*
X54722843Y74732934D01*
X54639178Y74576409D01*
X54621471Y74554833D01*
X54526586Y74439214D01*
X54450316Y74376622D01*
X54389391Y74326622D01*
X54232866Y74242957D01*
X54063027Y74191437D01*
X53996843Y74184919D01*
X53930660Y74178400D01*
X53842140Y74178400D01*
X53775958Y74184918D01*
X53709773Y74191437D01*
X53539934Y74242957D01*
X53383409Y74326622D01*
X53322484Y74376622D01*
X53246214Y74439214D01*
X53151329Y74554833D01*
X53133622Y74576409D01*
X53049957Y74732934D01*
X52998437Y74902773D01*
X52981041Y75079400D01*
X52998437Y75256027D01*
X53049957Y75425866D01*
X53133622Y75582391D01*
X53162952Y75618129D01*
X53246214Y75719586D01*
X53347671Y75802848D01*
X53383409Y75832178D01*
X53539934Y75915843D01*
X53709773Y75967363D01*
X53775957Y75973881D01*
X53842140Y75980400D01*
X53930660Y75980400D01*
X53996843Y75973881D01*
X53996843Y75973881D01*
G37*
G36*
X61616843Y75973881D02*
G01*
X61683027Y75967363D01*
X61852866Y75915843D01*
X62009391Y75832178D01*
X62045129Y75802848D01*
X62146586Y75719586D01*
X62229848Y75618129D01*
X62259178Y75582391D01*
X62342843Y75425866D01*
X62394363Y75256027D01*
X62411759Y75079400D01*
X62394363Y74902773D01*
X62342843Y74732934D01*
X62259178Y74576409D01*
X62241471Y74554833D01*
X62146586Y74439214D01*
X62070316Y74376622D01*
X62009391Y74326622D01*
X61852866Y74242957D01*
X61683027Y74191437D01*
X61616843Y74184919D01*
X61550660Y74178400D01*
X61462140Y74178400D01*
X61395958Y74184918D01*
X61329773Y74191437D01*
X61159934Y74242957D01*
X61003409Y74326622D01*
X60942484Y74376622D01*
X60866214Y74439214D01*
X60771329Y74554833D01*
X60753622Y74576409D01*
X60669957Y74732934D01*
X60618437Y74902773D01*
X60601041Y75079400D01*
X60618437Y75256027D01*
X60669957Y75425866D01*
X60753622Y75582391D01*
X60782952Y75618129D01*
X60866214Y75719586D01*
X60967671Y75802848D01*
X61003409Y75832178D01*
X61159934Y75915843D01*
X61329773Y75967363D01*
X61395957Y75973881D01*
X61462140Y75980400D01*
X61550660Y75980400D01*
X61616843Y75973881D01*
X61616843Y75973881D01*
G37*
G36*
X66696843Y75973881D02*
G01*
X66763027Y75967363D01*
X66932866Y75915843D01*
X67089391Y75832178D01*
X67125129Y75802848D01*
X67226586Y75719586D01*
X67309848Y75618129D01*
X67339178Y75582391D01*
X67422843Y75425866D01*
X67474363Y75256027D01*
X67491759Y75079400D01*
X67474363Y74902773D01*
X67422843Y74732934D01*
X67339178Y74576409D01*
X67321471Y74554833D01*
X67226586Y74439214D01*
X67150316Y74376622D01*
X67089391Y74326622D01*
X66932866Y74242957D01*
X66763027Y74191437D01*
X66696843Y74184919D01*
X66630660Y74178400D01*
X66542140Y74178400D01*
X66475958Y74184918D01*
X66409773Y74191437D01*
X66239934Y74242957D01*
X66083409Y74326622D01*
X66022484Y74376622D01*
X65946214Y74439214D01*
X65851329Y74554833D01*
X65833622Y74576409D01*
X65749957Y74732934D01*
X65698437Y74902773D01*
X65681041Y75079400D01*
X65698437Y75256027D01*
X65749957Y75425866D01*
X65833622Y75582391D01*
X65862952Y75618129D01*
X65946214Y75719586D01*
X66047671Y75802848D01*
X66083409Y75832178D01*
X66239934Y75915843D01*
X66409773Y75967363D01*
X66475957Y75973881D01*
X66542140Y75980400D01*
X66630660Y75980400D01*
X66696843Y75973881D01*
X66696843Y75973881D01*
G37*
G36*
X64156843Y75973881D02*
G01*
X64223027Y75967363D01*
X64392866Y75915843D01*
X64549391Y75832178D01*
X64585129Y75802848D01*
X64686586Y75719586D01*
X64769848Y75618129D01*
X64799178Y75582391D01*
X64882843Y75425866D01*
X64934363Y75256027D01*
X64951759Y75079400D01*
X64934363Y74902773D01*
X64882843Y74732934D01*
X64799178Y74576409D01*
X64781471Y74554833D01*
X64686586Y74439214D01*
X64610316Y74376622D01*
X64549391Y74326622D01*
X64392866Y74242957D01*
X64223027Y74191437D01*
X64156843Y74184919D01*
X64090660Y74178400D01*
X64002140Y74178400D01*
X63935958Y74184918D01*
X63869773Y74191437D01*
X63699934Y74242957D01*
X63543409Y74326622D01*
X63482484Y74376622D01*
X63406214Y74439214D01*
X63311329Y74554833D01*
X63293622Y74576409D01*
X63209957Y74732934D01*
X63158437Y74902773D01*
X63141041Y75079400D01*
X63158437Y75256027D01*
X63209957Y75425866D01*
X63293622Y75582391D01*
X63322952Y75618129D01*
X63406214Y75719586D01*
X63507671Y75802848D01*
X63543409Y75832178D01*
X63699934Y75915843D01*
X63869773Y75967363D01*
X63935957Y75973881D01*
X64002140Y75980400D01*
X64090660Y75980400D01*
X64156843Y75973881D01*
X64156843Y75973881D01*
G37*
G36*
X51456843Y75973881D02*
G01*
X51523027Y75967363D01*
X51692866Y75915843D01*
X51849391Y75832178D01*
X51885129Y75802848D01*
X51986586Y75719586D01*
X52069848Y75618129D01*
X52099178Y75582391D01*
X52182843Y75425866D01*
X52234363Y75256027D01*
X52251759Y75079400D01*
X52234363Y74902773D01*
X52182843Y74732934D01*
X52099178Y74576409D01*
X52081471Y74554833D01*
X51986586Y74439214D01*
X51910316Y74376622D01*
X51849391Y74326622D01*
X51692866Y74242957D01*
X51523027Y74191437D01*
X51456843Y74184919D01*
X51390660Y74178400D01*
X51302140Y74178400D01*
X51235958Y74184918D01*
X51169773Y74191437D01*
X50999934Y74242957D01*
X50843409Y74326622D01*
X50782484Y74376622D01*
X50706214Y74439214D01*
X50611329Y74554833D01*
X50593622Y74576409D01*
X50509957Y74732934D01*
X50458437Y74902773D01*
X50441041Y75079400D01*
X50458437Y75256027D01*
X50509957Y75425866D01*
X50593622Y75582391D01*
X50622952Y75618129D01*
X50706214Y75719586D01*
X50807671Y75802848D01*
X50843409Y75832178D01*
X50999934Y75915843D01*
X51169773Y75967363D01*
X51235957Y75973881D01*
X51302140Y75980400D01*
X51390660Y75980400D01*
X51456843Y75973881D01*
X51456843Y75973881D01*
G37*
G36*
X56536843Y75973881D02*
G01*
X56603027Y75967363D01*
X56772866Y75915843D01*
X56929391Y75832178D01*
X56965129Y75802848D01*
X57066586Y75719586D01*
X57149848Y75618129D01*
X57179178Y75582391D01*
X57262843Y75425866D01*
X57314363Y75256027D01*
X57331759Y75079400D01*
X57314363Y74902773D01*
X57262843Y74732934D01*
X57179178Y74576409D01*
X57161471Y74554833D01*
X57066586Y74439214D01*
X56990316Y74376622D01*
X56929391Y74326622D01*
X56772866Y74242957D01*
X56603027Y74191437D01*
X56536843Y74184919D01*
X56470660Y74178400D01*
X56382140Y74178400D01*
X56315958Y74184918D01*
X56249773Y74191437D01*
X56079934Y74242957D01*
X55923409Y74326622D01*
X55862484Y74376622D01*
X55786214Y74439214D01*
X55691329Y74554833D01*
X55673622Y74576409D01*
X55589957Y74732934D01*
X55538437Y74902773D01*
X55521041Y75079400D01*
X55538437Y75256027D01*
X55589957Y75425866D01*
X55673622Y75582391D01*
X55702952Y75618129D01*
X55786214Y75719586D01*
X55887671Y75802848D01*
X55923409Y75832178D01*
X56079934Y75915843D01*
X56249773Y75967363D01*
X56315957Y75973881D01*
X56382140Y75980400D01*
X56470660Y75980400D01*
X56536843Y75973881D01*
X56536843Y75973881D01*
G37*
G36*
X70027400Y74178400D02*
G01*
X68225400Y74178400D01*
X68225400Y75980400D01*
X70027400Y75980400D01*
X70027400Y74178400D01*
X70027400Y74178400D01*
G37*
G36*
X59076843Y75973881D02*
G01*
X59143027Y75967363D01*
X59312866Y75915843D01*
X59469391Y75832178D01*
X59505129Y75802848D01*
X59606586Y75719586D01*
X59689848Y75618129D01*
X59719178Y75582391D01*
X59802843Y75425866D01*
X59854363Y75256027D01*
X59871759Y75079400D01*
X59854363Y74902773D01*
X59802843Y74732934D01*
X59719178Y74576409D01*
X59701471Y74554833D01*
X59606586Y74439214D01*
X59530316Y74376622D01*
X59469391Y74326622D01*
X59312866Y74242957D01*
X59143027Y74191437D01*
X59076843Y74184919D01*
X59010660Y74178400D01*
X58922140Y74178400D01*
X58855958Y74184918D01*
X58789773Y74191437D01*
X58619934Y74242957D01*
X58463409Y74326622D01*
X58402484Y74376622D01*
X58326214Y74439214D01*
X58231329Y74554833D01*
X58213622Y74576409D01*
X58129957Y74732934D01*
X58078437Y74902773D01*
X58061041Y75079400D01*
X58078437Y75256027D01*
X58129957Y75425866D01*
X58213622Y75582391D01*
X58242952Y75618129D01*
X58326214Y75719586D01*
X58427671Y75802848D01*
X58463409Y75832178D01*
X58619934Y75915843D01*
X58789773Y75967363D01*
X58855957Y75973881D01*
X58922140Y75980400D01*
X59010660Y75980400D01*
X59076843Y75973881D01*
X59076843Y75973881D01*
G37*
G36*
X25942442Y76023882D02*
G01*
X26008627Y76017363D01*
X26178466Y75965843D01*
X26334991Y75882178D01*
X26370729Y75852848D01*
X26472186Y75769586D01*
X26543559Y75682616D01*
X26584778Y75632391D01*
X26668443Y75475866D01*
X26719963Y75306027D01*
X26737359Y75129400D01*
X26719963Y74952773D01*
X26668443Y74782934D01*
X26584778Y74626409D01*
X26555448Y74590671D01*
X26472186Y74489214D01*
X26370729Y74405952D01*
X26334991Y74376622D01*
X26178466Y74292957D01*
X26008627Y74241437D01*
X25942442Y74234918D01*
X25876260Y74228400D01*
X25787740Y74228400D01*
X25721558Y74234918D01*
X25655373Y74241437D01*
X25485534Y74292957D01*
X25329009Y74376622D01*
X25293271Y74405952D01*
X25191814Y74489214D01*
X25108552Y74590671D01*
X25079222Y74626409D01*
X24995557Y74782934D01*
X24944037Y74952773D01*
X24926641Y75129400D01*
X24944037Y75306027D01*
X24995557Y75475866D01*
X25079222Y75632391D01*
X25120441Y75682616D01*
X25191814Y75769586D01*
X25293271Y75852848D01*
X25329009Y75882178D01*
X25485534Y75965843D01*
X25655373Y76017363D01*
X25721558Y76023882D01*
X25787740Y76030400D01*
X25876260Y76030400D01*
X25942442Y76023882D01*
X25942442Y76023882D01*
G37*
G36*
X28482442Y76023882D02*
G01*
X28548627Y76017363D01*
X28718466Y75965843D01*
X28874991Y75882178D01*
X28910729Y75852848D01*
X29012186Y75769586D01*
X29083559Y75682616D01*
X29124778Y75632391D01*
X29208443Y75475866D01*
X29259963Y75306027D01*
X29277359Y75129400D01*
X29259963Y74952773D01*
X29208443Y74782934D01*
X29124778Y74626409D01*
X29095448Y74590671D01*
X29012186Y74489214D01*
X28910729Y74405952D01*
X28874991Y74376622D01*
X28718466Y74292957D01*
X28548627Y74241437D01*
X28482442Y74234918D01*
X28416260Y74228400D01*
X28327740Y74228400D01*
X28261558Y74234918D01*
X28195373Y74241437D01*
X28025534Y74292957D01*
X27869009Y74376622D01*
X27833271Y74405952D01*
X27731814Y74489214D01*
X27648552Y74590671D01*
X27619222Y74626409D01*
X27535557Y74782934D01*
X27484037Y74952773D01*
X27466641Y75129400D01*
X27484037Y75306027D01*
X27535557Y75475866D01*
X27619222Y75632391D01*
X27660441Y75682616D01*
X27731814Y75769586D01*
X27833271Y75852848D01*
X27869009Y75882178D01*
X28025534Y75965843D01*
X28195373Y76017363D01*
X28261558Y76023882D01*
X28327740Y76030400D01*
X28416260Y76030400D01*
X28482442Y76023882D01*
X28482442Y76023882D01*
G37*
G36*
X31022442Y76023882D02*
G01*
X31088627Y76017363D01*
X31258466Y75965843D01*
X31414991Y75882178D01*
X31450729Y75852848D01*
X31552186Y75769586D01*
X31623559Y75682616D01*
X31664778Y75632391D01*
X31748443Y75475866D01*
X31799963Y75306027D01*
X31817359Y75129400D01*
X31799963Y74952773D01*
X31748443Y74782934D01*
X31664778Y74626409D01*
X31635448Y74590671D01*
X31552186Y74489214D01*
X31450729Y74405952D01*
X31414991Y74376622D01*
X31258466Y74292957D01*
X31088627Y74241437D01*
X31022442Y74234918D01*
X30956260Y74228400D01*
X30867740Y74228400D01*
X30801558Y74234918D01*
X30735373Y74241437D01*
X30565534Y74292957D01*
X30409009Y74376622D01*
X30373271Y74405952D01*
X30271814Y74489214D01*
X30188552Y74590671D01*
X30159222Y74626409D01*
X30075557Y74782934D01*
X30024037Y74952773D01*
X30006641Y75129400D01*
X30024037Y75306027D01*
X30075557Y75475866D01*
X30159222Y75632391D01*
X30200441Y75682616D01*
X30271814Y75769586D01*
X30373271Y75852848D01*
X30409009Y75882178D01*
X30565534Y75965843D01*
X30735373Y76017363D01*
X30801558Y76023882D01*
X30867740Y76030400D01*
X30956260Y76030400D01*
X31022442Y76023882D01*
X31022442Y76023882D01*
G37*
G36*
X33562442Y76023882D02*
G01*
X33628627Y76017363D01*
X33798466Y75965843D01*
X33954991Y75882178D01*
X33990729Y75852848D01*
X34092186Y75769586D01*
X34163559Y75682616D01*
X34204778Y75632391D01*
X34288443Y75475866D01*
X34339963Y75306027D01*
X34357359Y75129400D01*
X34339963Y74952773D01*
X34288443Y74782934D01*
X34204778Y74626409D01*
X34175448Y74590671D01*
X34092186Y74489214D01*
X33990729Y74405952D01*
X33954991Y74376622D01*
X33798466Y74292957D01*
X33628627Y74241437D01*
X33562442Y74234918D01*
X33496260Y74228400D01*
X33407740Y74228400D01*
X33341558Y74234918D01*
X33275373Y74241437D01*
X33105534Y74292957D01*
X32949009Y74376622D01*
X32913271Y74405952D01*
X32811814Y74489214D01*
X32728552Y74590671D01*
X32699222Y74626409D01*
X32615557Y74782934D01*
X32564037Y74952773D01*
X32546641Y75129400D01*
X32564037Y75306027D01*
X32615557Y75475866D01*
X32699222Y75632391D01*
X32740441Y75682616D01*
X32811814Y75769586D01*
X32913271Y75852848D01*
X32949009Y75882178D01*
X33105534Y75965843D01*
X33275373Y76017363D01*
X33341558Y76023882D01*
X33407740Y76030400D01*
X33496260Y76030400D01*
X33562442Y76023882D01*
X33562442Y76023882D01*
G37*
G36*
X41182442Y76023882D02*
G01*
X41248627Y76017363D01*
X41418466Y75965843D01*
X41574991Y75882178D01*
X41610729Y75852848D01*
X41712186Y75769586D01*
X41783559Y75682616D01*
X41824778Y75632391D01*
X41908443Y75475866D01*
X41959963Y75306027D01*
X41977359Y75129400D01*
X41959963Y74952773D01*
X41908443Y74782934D01*
X41824778Y74626409D01*
X41795448Y74590671D01*
X41712186Y74489214D01*
X41610729Y74405952D01*
X41574991Y74376622D01*
X41418466Y74292957D01*
X41248627Y74241437D01*
X41182442Y74234918D01*
X41116260Y74228400D01*
X41027740Y74228400D01*
X40961558Y74234918D01*
X40895373Y74241437D01*
X40725534Y74292957D01*
X40569009Y74376622D01*
X40533271Y74405952D01*
X40431814Y74489214D01*
X40348552Y74590671D01*
X40319222Y74626409D01*
X40235557Y74782934D01*
X40184037Y74952773D01*
X40166641Y75129400D01*
X40184037Y75306027D01*
X40235557Y75475866D01*
X40319222Y75632391D01*
X40360441Y75682616D01*
X40431814Y75769586D01*
X40533271Y75852848D01*
X40569009Y75882178D01*
X40725534Y75965843D01*
X40895373Y76017363D01*
X40961558Y76023882D01*
X41027740Y76030400D01*
X41116260Y76030400D01*
X41182442Y76023882D01*
X41182442Y76023882D01*
G37*
G36*
X38642442Y76023882D02*
G01*
X38708627Y76017363D01*
X38878466Y75965843D01*
X39034991Y75882178D01*
X39070729Y75852848D01*
X39172186Y75769586D01*
X39243559Y75682616D01*
X39284778Y75632391D01*
X39368443Y75475866D01*
X39419963Y75306027D01*
X39437359Y75129400D01*
X39419963Y74952773D01*
X39368443Y74782934D01*
X39284778Y74626409D01*
X39255448Y74590671D01*
X39172186Y74489214D01*
X39070729Y74405952D01*
X39034991Y74376622D01*
X38878466Y74292957D01*
X38708627Y74241437D01*
X38642442Y74234918D01*
X38576260Y74228400D01*
X38487740Y74228400D01*
X38421558Y74234918D01*
X38355373Y74241437D01*
X38185534Y74292957D01*
X38029009Y74376622D01*
X37993271Y74405952D01*
X37891814Y74489214D01*
X37808552Y74590671D01*
X37779222Y74626409D01*
X37695557Y74782934D01*
X37644037Y74952773D01*
X37626641Y75129400D01*
X37644037Y75306027D01*
X37695557Y75475866D01*
X37779222Y75632391D01*
X37820441Y75682616D01*
X37891814Y75769586D01*
X37993271Y75852848D01*
X38029009Y75882178D01*
X38185534Y75965843D01*
X38355373Y76017363D01*
X38421558Y76023882D01*
X38487740Y76030400D01*
X38576260Y76030400D01*
X38642442Y76023882D01*
X38642442Y76023882D01*
G37*
G36*
X36102442Y76023882D02*
G01*
X36168627Y76017363D01*
X36338466Y75965843D01*
X36494991Y75882178D01*
X36530729Y75852848D01*
X36632186Y75769586D01*
X36703559Y75682616D01*
X36744778Y75632391D01*
X36828443Y75475866D01*
X36879963Y75306027D01*
X36897359Y75129400D01*
X36879963Y74952773D01*
X36828443Y74782934D01*
X36744778Y74626409D01*
X36715448Y74590671D01*
X36632186Y74489214D01*
X36530729Y74405952D01*
X36494991Y74376622D01*
X36338466Y74292957D01*
X36168627Y74241437D01*
X36102442Y74234918D01*
X36036260Y74228400D01*
X35947740Y74228400D01*
X35881558Y74234918D01*
X35815373Y74241437D01*
X35645534Y74292957D01*
X35489009Y74376622D01*
X35453271Y74405952D01*
X35351814Y74489214D01*
X35268552Y74590671D01*
X35239222Y74626409D01*
X35155557Y74782934D01*
X35104037Y74952773D01*
X35086641Y75129400D01*
X35104037Y75306027D01*
X35155557Y75475866D01*
X35239222Y75632391D01*
X35280441Y75682616D01*
X35351814Y75769586D01*
X35453271Y75852848D01*
X35489009Y75882178D01*
X35645534Y75965843D01*
X35815373Y76017363D01*
X35881558Y76023882D01*
X35947740Y76030400D01*
X36036260Y76030400D01*
X36102442Y76023882D01*
X36102442Y76023882D01*
G37*
G36*
X24193000Y74228400D02*
G01*
X22391000Y74228400D01*
X22391000Y76030400D01*
X24193000Y76030400D01*
X24193000Y74228400D01*
X24193000Y74228400D01*
G37*
G36*
X92330628Y76417097D02*
G01*
X92485500Y76352947D01*
X92624881Y76259815D01*
X92743415Y76141281D01*
X92836547Y76001900D01*
X92900697Y75847028D01*
X92933400Y75682616D01*
X92933400Y75514984D01*
X92900697Y75350572D01*
X92836547Y75195700D01*
X92743415Y75056319D01*
X92624881Y74937785D01*
X92485500Y74844653D01*
X92330628Y74780503D01*
X92166216Y74747800D01*
X91998584Y74747800D01*
X91834172Y74780503D01*
X91679300Y74844653D01*
X91539919Y74937785D01*
X91421385Y75056319D01*
X91328253Y75195700D01*
X91264103Y75350572D01*
X91231400Y75514984D01*
X91231400Y75682616D01*
X91264103Y75847028D01*
X91328253Y76001900D01*
X91421385Y76141281D01*
X91539919Y76259815D01*
X91679300Y76352947D01*
X91834172Y76417097D01*
X91998584Y76449800D01*
X92166216Y76449800D01*
X92330628Y76417097D01*
X92330628Y76417097D01*
G37*
M02*
