M48
; DRILL file {KiCad 5.1.4-3.fc30} date czw, 19 wrz 2019, 02:18:30
; FORMAT={-:-/ absolute / inch / decimal}
; #@! TF.CreationDate,2019-09-19T02:18:30+02:00
; #@! TF.GenerationSoftware,Kicad,Pcbnew,5.1.4-3.fc30
; #@! TF.FileFunction,Plated,1,2,PTH
FMAT,2
INCH
T1C0.0315
T2C0.0354
T3C0.0394
T4C0.0400
T5C0.0433
%
G90
G05
T1
X3.399Y-3.9345
X3.399Y-4.1314
X1.795Y-3.9345
X2.095Y-3.9345
X4.5715Y-3.7927
X4.7683Y-3.7927
X4.5715Y-3.1927
X4.7683Y-3.1927
X4.9592Y-2.4796
X4.9592Y-2.6764
X2.499Y-3.1927
X2.499Y-3.7927
X2.599Y-3.1927
X2.599Y-3.7927
X2.699Y-3.1927
X2.699Y-3.7927
X2.799Y-3.1927
X2.799Y-3.7927
X2.899Y-3.1927
X2.899Y-3.7927
X2.999Y-3.1927
X2.999Y-3.7927
X3.099Y-3.1927
X3.099Y-3.7927
X3.199Y-3.1927
X3.199Y-3.7927
X3.299Y-3.1927
X3.299Y-3.7927
X3.399Y-3.1927
X3.399Y-3.7927
X3.499Y-3.1927
X3.499Y-3.7927
X3.599Y-3.1927
X3.599Y-3.7927
X3.699Y-3.1927
X3.699Y-3.7927
X3.799Y-3.1927
X3.799Y-3.7927
X3.899Y-3.1927
X3.899Y-3.7927
X3.999Y-3.1927
X3.999Y-3.7927
X4.099Y-3.1927
X4.099Y-3.7927
X4.199Y-3.1927
X4.199Y-3.7927
X4.299Y-3.1927
X4.299Y-3.7927
X4.399Y-3.1927
X4.399Y-3.7927
X3.299Y-2.8519
X3.299Y-3.0487
X2.002Y-4.2
X2.1004Y-4.2
X5.037Y-4.1073
X5.2338Y-4.1073
X3.499Y-2.8519
X3.499Y-3.0487
X4.6001Y-4.1073
X4.6985Y-4.1073
X4.6425Y-2.1099
X4.6425Y-2.3068
X5.3129Y-4.5061
X5.3129Y-4.8061
X5.1123Y-2.8243
X5.4123Y-2.8243
T2
X5.3182Y-2.5342
X5.3182Y-2.6342
X4.9751Y-4.8061
X5.0751Y-4.8061
T3
X3.6035Y-2.0061
X3.7035Y-2.0061
X3.8035Y-2.0061
X3.9035Y-2.0061
X4.0035Y-2.0061
X4.1035Y-2.0061
X4.2035Y-2.0061
X4.3035Y-2.0061
X3.5996Y-4.8061
X3.6996Y-4.8061
X3.7996Y-4.8061
X3.8996Y-4.8061
X3.9996Y-4.8061
X4.0996Y-4.8061
X4.1996Y-4.8061
X4.2996Y-4.8061
X2.499Y-2.0041
X2.599Y-2.0041
X2.699Y-2.0041
X2.799Y-2.0041
X2.899Y-2.0041
X2.999Y-2.0041
X3.099Y-2.0041
X3.199Y-2.0041
X4.6035Y-4.8061
X4.7035Y-4.8061
X2.499Y-4.8041
X2.599Y-4.8041
X2.699Y-4.8041
X2.799Y-4.8041
X2.899Y-4.8041
X4.6699Y-3.3923
X4.6699Y-3.5892
T4
X2.073Y-2.71
X2.073Y-2.81
X2.073Y-2.91
X2.073Y-3.01
X2.073Y-3.11
X2.173Y-2.71
X2.173Y-2.81
X2.173Y-2.91
X2.173Y-3.01
X2.173Y-3.11
T5
X1.803Y-4.509
X1.803Y-4.7649
X1.9802Y-4.509
X1.9802Y-4.7649
X5.1387Y-3.8274
X5.2387Y-3.8274
X5.3387Y-3.8274
X1.803Y-3.8
X1.803Y-4.2
X4.6477Y-2.5286
X4.6477Y-2.9286
T3
G00X5.0301Y-2.0939
M15
G01X5.0301Y-2.0349
M16
G05
G00X5.2329Y-2.1038
M15
G01X5.1817Y-2.1038
M16
G05
G00X5.2467Y-2.34
M15
G01X5.1679Y-2.34
M16
G05
G00X5.3844Y-2.0939
M15
G01X5.3844Y-2.0349
M16
G05
T0
M30
