%TF.GenerationSoftware,KiCad,Pcbnew,5.1.4-3.fc31*%
%TF.CreationDate,2019-11-03T17:38:08+01:00*%
%TF.ProjectId,ft232rl_converter_v2,66743233-3272-46c5-9f63-6f6e76657274,rev?*%
%TF.SameCoordinates,PX4d83c00PY525bfc0*%
%TF.FileFunction,Soldermask,Top*%
%TF.FilePolarity,Negative*%
%FSLAX46Y46*%
G04 Gerber Fmt 4.6, Leading zero omitted, Abs format (unit mm)*
G04 Created by KiCad (PCBNEW 5.1.4-3.fc31) date 2019-11-03 17:38:08*
%MOMM*%
%LPD*%
G04 APERTURE LIST*
%ADD10C,0.150000*%
G04 APERTURE END LIST*
D10*
G36*
X43213642Y5850219D02*
G01*
X43359414Y5789838D01*
X43359416Y5789837D01*
X43490608Y5702178D01*
X43602178Y5590608D01*
X43689837Y5459416D01*
X43689838Y5459414D01*
X43750219Y5313642D01*
X43781000Y5158893D01*
X43781000Y5001107D01*
X43750219Y4846358D01*
X43731876Y4802075D01*
X43689837Y4700584D01*
X43602178Y4569392D01*
X43490608Y4457822D01*
X43359416Y4370163D01*
X43359415Y4370162D01*
X43359414Y4370162D01*
X43213642Y4309781D01*
X43058893Y4279000D01*
X42901107Y4279000D01*
X42746358Y4309781D01*
X42600586Y4370162D01*
X42600585Y4370162D01*
X42600584Y4370163D01*
X42469392Y4457822D01*
X42357822Y4569392D01*
X42270163Y4700584D01*
X42228124Y4802075D01*
X42209781Y4846358D01*
X42179000Y5001107D01*
X42179000Y5158893D01*
X42209781Y5313642D01*
X42270162Y5459414D01*
X42270163Y5459416D01*
X42357822Y5590608D01*
X42469392Y5702178D01*
X42600584Y5789837D01*
X42600586Y5789838D01*
X42746358Y5850219D01*
X42901107Y5881000D01*
X43058893Y5881000D01*
X43213642Y5850219D01*
X43213642Y5850219D01*
G37*
G36*
X38333642Y5850219D02*
G01*
X38479414Y5789838D01*
X38479416Y5789837D01*
X38610608Y5702178D01*
X38722178Y5590608D01*
X38809837Y5459416D01*
X38809838Y5459414D01*
X38870219Y5313642D01*
X38901000Y5158893D01*
X38901000Y5001107D01*
X38870219Y4846358D01*
X38851876Y4802075D01*
X38809837Y4700584D01*
X38722178Y4569392D01*
X38610608Y4457822D01*
X38479416Y4370163D01*
X38479415Y4370162D01*
X38479414Y4370162D01*
X38333642Y4309781D01*
X38178893Y4279000D01*
X38021107Y4279000D01*
X37866358Y4309781D01*
X37720586Y4370162D01*
X37720585Y4370162D01*
X37720584Y4370163D01*
X37589392Y4457822D01*
X37477822Y4569392D01*
X37390163Y4700584D01*
X37348124Y4802075D01*
X37329781Y4846358D01*
X37299000Y5001107D01*
X37299000Y5158893D01*
X37329781Y5313642D01*
X37390162Y5459414D01*
X37390163Y5459416D01*
X37477822Y5590608D01*
X37589392Y5702178D01*
X37720584Y5789837D01*
X37720586Y5789838D01*
X37866358Y5850219D01*
X38021107Y5881000D01*
X38178893Y5881000D01*
X38333642Y5850219D01*
X38333642Y5850219D01*
G37*
G36*
X27754562Y6255819D02*
G01*
X27789481Y6245226D01*
X27821663Y6228024D01*
X27849873Y6204873D01*
X27873024Y6176663D01*
X27890226Y6144481D01*
X27900819Y6109562D01*
X27905000Y6067105D01*
X27905000Y4600895D01*
X27900819Y4558438D01*
X27890226Y4523519D01*
X27873024Y4491337D01*
X27849873Y4463127D01*
X27821663Y4439976D01*
X27789481Y4422774D01*
X27754562Y4412181D01*
X27712105Y4408000D01*
X26570895Y4408000D01*
X26528438Y4412181D01*
X26493519Y4422774D01*
X26461337Y4439976D01*
X26433127Y4463127D01*
X26409976Y4491337D01*
X26392774Y4523519D01*
X26382181Y4558438D01*
X26378000Y4600895D01*
X26378000Y6067105D01*
X26382181Y6109562D01*
X26392774Y6144481D01*
X26409976Y6176663D01*
X26433127Y6204873D01*
X26461337Y6228024D01*
X26493519Y6245226D01*
X26528438Y6255819D01*
X26570895Y6260000D01*
X27712105Y6260000D01*
X27754562Y6255819D01*
X27754562Y6255819D01*
G37*
G36*
X24779562Y6255819D02*
G01*
X24814481Y6245226D01*
X24846663Y6228024D01*
X24874873Y6204873D01*
X24898024Y6176663D01*
X24915226Y6144481D01*
X24925819Y6109562D01*
X24930000Y6067105D01*
X24930000Y4600895D01*
X24925819Y4558438D01*
X24915226Y4523519D01*
X24898024Y4491337D01*
X24874873Y4463127D01*
X24846663Y4439976D01*
X24814481Y4422774D01*
X24779562Y4412181D01*
X24737105Y4408000D01*
X23595895Y4408000D01*
X23553438Y4412181D01*
X23518519Y4422774D01*
X23486337Y4439976D01*
X23458127Y4463127D01*
X23434976Y4491337D01*
X23417774Y4523519D01*
X23407181Y4558438D01*
X23403000Y4600895D01*
X23403000Y6067105D01*
X23407181Y6109562D01*
X23417774Y6144481D01*
X23434976Y6176663D01*
X23458127Y6204873D01*
X23486337Y6228024D01*
X23518519Y6245226D01*
X23553438Y6255819D01*
X23595895Y6260000D01*
X24737105Y6260000D01*
X24779562Y6255819D01*
X24779562Y6255819D01*
G37*
G36*
X19064562Y6255819D02*
G01*
X19099481Y6245226D01*
X19131663Y6228024D01*
X19159873Y6204873D01*
X19183024Y6176663D01*
X19200226Y6144481D01*
X19210819Y6109562D01*
X19215000Y6067105D01*
X19215000Y4600895D01*
X19210819Y4558438D01*
X19200226Y4523519D01*
X19183024Y4491337D01*
X19159873Y4463127D01*
X19131663Y4439976D01*
X19099481Y4422774D01*
X19064562Y4412181D01*
X19022105Y4408000D01*
X17880895Y4408000D01*
X17838438Y4412181D01*
X17803519Y4422774D01*
X17771337Y4439976D01*
X17743127Y4463127D01*
X17719976Y4491337D01*
X17702774Y4523519D01*
X17692181Y4558438D01*
X17688000Y4600895D01*
X17688000Y6067105D01*
X17692181Y6109562D01*
X17702774Y6144481D01*
X17719976Y6176663D01*
X17743127Y6204873D01*
X17771337Y6228024D01*
X17803519Y6245226D01*
X17838438Y6255819D01*
X17880895Y6260000D01*
X19022105Y6260000D01*
X19064562Y6255819D01*
X19064562Y6255819D01*
G37*
G36*
X22039562Y6255819D02*
G01*
X22074481Y6245226D01*
X22106663Y6228024D01*
X22134873Y6204873D01*
X22158024Y6176663D01*
X22175226Y6144481D01*
X22185819Y6109562D01*
X22190000Y6067105D01*
X22190000Y4600895D01*
X22185819Y4558438D01*
X22175226Y4523519D01*
X22158024Y4491337D01*
X22134873Y4463127D01*
X22106663Y4439976D01*
X22074481Y4422774D01*
X22039562Y4412181D01*
X21997105Y4408000D01*
X20855895Y4408000D01*
X20813438Y4412181D01*
X20778519Y4422774D01*
X20746337Y4439976D01*
X20718127Y4463127D01*
X20694976Y4491337D01*
X20677774Y4523519D01*
X20667181Y4558438D01*
X20663000Y4600895D01*
X20663000Y6067105D01*
X20667181Y6109562D01*
X20677774Y6144481D01*
X20694976Y6176663D01*
X20718127Y6204873D01*
X20746337Y6228024D01*
X20778519Y6245226D01*
X20813438Y6255819D01*
X20855895Y6260000D01*
X21997105Y6260000D01*
X22039562Y6255819D01*
X22039562Y6255819D01*
G37*
G36*
X32222674Y6080535D02*
G01*
X32260367Y6069101D01*
X32295103Y6050534D01*
X32325548Y6025548D01*
X32350534Y5995103D01*
X32369101Y5960367D01*
X32380535Y5922674D01*
X32385000Y5877339D01*
X32385000Y4790661D01*
X32380535Y4745326D01*
X32369101Y4707633D01*
X32350534Y4672897D01*
X32325548Y4642452D01*
X32295103Y4617466D01*
X32260367Y4598899D01*
X32222674Y4587465D01*
X32177339Y4583000D01*
X31340661Y4583000D01*
X31295326Y4587465D01*
X31257633Y4598899D01*
X31222897Y4617466D01*
X31192452Y4642452D01*
X31167466Y4672897D01*
X31148899Y4707633D01*
X31137465Y4745326D01*
X31133000Y4790661D01*
X31133000Y5877339D01*
X31137465Y5922674D01*
X31148899Y5960367D01*
X31167466Y5995103D01*
X31192452Y6025548D01*
X31222897Y6050534D01*
X31257633Y6069101D01*
X31295326Y6080535D01*
X31340661Y6085000D01*
X32177339Y6085000D01*
X32222674Y6080535D01*
X32222674Y6080535D01*
G37*
G36*
X30172674Y6080535D02*
G01*
X30210367Y6069101D01*
X30245103Y6050534D01*
X30275548Y6025548D01*
X30300534Y5995103D01*
X30319101Y5960367D01*
X30330535Y5922674D01*
X30335000Y5877339D01*
X30335000Y4790661D01*
X30330535Y4745326D01*
X30319101Y4707633D01*
X30300534Y4672897D01*
X30275548Y4642452D01*
X30245103Y4617466D01*
X30210367Y4598899D01*
X30172674Y4587465D01*
X30127339Y4583000D01*
X29290661Y4583000D01*
X29245326Y4587465D01*
X29207633Y4598899D01*
X29172897Y4617466D01*
X29142452Y4642452D01*
X29117466Y4672897D01*
X29098899Y4707633D01*
X29087465Y4745326D01*
X29083000Y4790661D01*
X29083000Y5877339D01*
X29087465Y5922674D01*
X29098899Y5960367D01*
X29117466Y5995103D01*
X29142452Y6025548D01*
X29172897Y6050534D01*
X29207633Y6069101D01*
X29245326Y6080535D01*
X29290661Y6085000D01*
X30127339Y6085000D01*
X30172674Y6080535D01*
X30172674Y6080535D01*
G37*
G36*
X16347674Y6080535D02*
G01*
X16385367Y6069101D01*
X16420103Y6050534D01*
X16450548Y6025548D01*
X16475534Y5995103D01*
X16494101Y5960367D01*
X16505535Y5922674D01*
X16510000Y5877339D01*
X16510000Y4790661D01*
X16505535Y4745326D01*
X16494101Y4707633D01*
X16475534Y4672897D01*
X16450548Y4642452D01*
X16420103Y4617466D01*
X16385367Y4598899D01*
X16347674Y4587465D01*
X16302339Y4583000D01*
X15465661Y4583000D01*
X15420326Y4587465D01*
X15382633Y4598899D01*
X15347897Y4617466D01*
X15317452Y4642452D01*
X15292466Y4672897D01*
X15273899Y4707633D01*
X15262465Y4745326D01*
X15258000Y4790661D01*
X15258000Y5877339D01*
X15262465Y5922674D01*
X15273899Y5960367D01*
X15292466Y5995103D01*
X15317452Y6025548D01*
X15347897Y6050534D01*
X15382633Y6069101D01*
X15420326Y6080535D01*
X15465661Y6085000D01*
X16302339Y6085000D01*
X16347674Y6080535D01*
X16347674Y6080535D01*
G37*
G36*
X14297674Y6080535D02*
G01*
X14335367Y6069101D01*
X14370103Y6050534D01*
X14400548Y6025548D01*
X14425534Y5995103D01*
X14444101Y5960367D01*
X14455535Y5922674D01*
X14460000Y5877339D01*
X14460000Y4790661D01*
X14455535Y4745326D01*
X14444101Y4707633D01*
X14425534Y4672897D01*
X14400548Y4642452D01*
X14370103Y4617466D01*
X14335367Y4598899D01*
X14297674Y4587465D01*
X14252339Y4583000D01*
X13415661Y4583000D01*
X13370326Y4587465D01*
X13332633Y4598899D01*
X13297897Y4617466D01*
X13267452Y4642452D01*
X13242466Y4672897D01*
X13223899Y4707633D01*
X13212465Y4745326D01*
X13208000Y4790661D01*
X13208000Y5877339D01*
X13212465Y5922674D01*
X13223899Y5960367D01*
X13242466Y5995103D01*
X13267452Y6025548D01*
X13297897Y6050534D01*
X13332633Y6069101D01*
X13370326Y6080535D01*
X13415661Y6085000D01*
X14252339Y6085000D01*
X14297674Y6080535D01*
X14297674Y6080535D01*
G37*
G36*
X55101443Y8514481D02*
G01*
X55167627Y8507963D01*
X55337466Y8456443D01*
X55493991Y8372778D01*
X55529729Y8343448D01*
X55631186Y8260186D01*
X55714448Y8158729D01*
X55743778Y8122991D01*
X55827443Y7966466D01*
X55878963Y7796627D01*
X55896359Y7620000D01*
X55878963Y7443373D01*
X55827443Y7273534D01*
X55743778Y7117009D01*
X55714448Y7081271D01*
X55631186Y6979814D01*
X55529729Y6896552D01*
X55493991Y6867222D01*
X55337466Y6783557D01*
X55167627Y6732037D01*
X55101442Y6725518D01*
X55035260Y6719000D01*
X54946740Y6719000D01*
X54880558Y6725518D01*
X54814373Y6732037D01*
X54644534Y6783557D01*
X54488009Y6867222D01*
X54452271Y6896552D01*
X54350814Y6979814D01*
X54267552Y7081271D01*
X54238222Y7117009D01*
X54154557Y7273534D01*
X54103037Y7443373D01*
X54085641Y7620000D01*
X54103037Y7796627D01*
X54154557Y7966466D01*
X54238222Y8122991D01*
X54267552Y8158729D01*
X54350814Y8260186D01*
X54452271Y8343448D01*
X54488009Y8372778D01*
X54644534Y8456443D01*
X54814373Y8507963D01*
X54880557Y8514481D01*
X54946740Y8521000D01*
X55035260Y8521000D01*
X55101443Y8514481D01*
X55101443Y8514481D01*
G37*
G36*
X2341000Y16075999D02*
G01*
X2343402Y16051613D01*
X2350515Y16028164D01*
X2362066Y16006553D01*
X2377611Y15987611D01*
X2396553Y15972066D01*
X2418164Y15960515D01*
X2441613Y15953402D01*
X2465999Y15951000D01*
X4741000Y15951000D01*
X4741000Y9449000D01*
X2465999Y9449000D01*
X2441613Y9446598D01*
X2418164Y9439485D01*
X2396553Y9427934D01*
X2377611Y9412389D01*
X2362066Y9393447D01*
X2350515Y9371836D01*
X2343402Y9348387D01*
X2341000Y9324001D01*
X2341000Y8551500D01*
X339000Y8551500D01*
X339000Y12498500D01*
X2341000Y12498500D01*
X2341000Y11150999D01*
X2343402Y11126613D01*
X2350515Y11103164D01*
X2362066Y11081553D01*
X2377611Y11062611D01*
X2396553Y11047066D01*
X2418164Y11035515D01*
X2441613Y11028402D01*
X2465999Y11026000D01*
X3134001Y11026000D01*
X3158387Y11028402D01*
X3181836Y11035515D01*
X3203447Y11047066D01*
X3222389Y11062611D01*
X3237934Y11081553D01*
X3249485Y11103164D01*
X3256598Y11126613D01*
X3259000Y11150999D01*
X3259000Y14249001D01*
X3256598Y14273387D01*
X3249485Y14296836D01*
X3237934Y14318447D01*
X3222389Y14337389D01*
X3203447Y14352934D01*
X3181836Y14364485D01*
X3158387Y14371598D01*
X3134001Y14374000D01*
X2465999Y14374000D01*
X2441613Y14371598D01*
X2418164Y14364485D01*
X2396553Y14352934D01*
X2377611Y14337389D01*
X2362066Y14318447D01*
X2350515Y14296836D01*
X2343402Y14273387D01*
X2341000Y14249001D01*
X2341000Y12901500D01*
X339000Y12901500D01*
X339000Y16848500D01*
X2341000Y16848500D01*
X2341000Y16075999D01*
X2341000Y16075999D01*
G37*
G36*
X55101442Y11054482D02*
G01*
X55167627Y11047963D01*
X55337466Y10996443D01*
X55493991Y10912778D01*
X55529729Y10883448D01*
X55631186Y10800186D01*
X55699540Y10716895D01*
X55743778Y10662991D01*
X55827443Y10506466D01*
X55878963Y10336627D01*
X55896359Y10160000D01*
X55878963Y9983373D01*
X55827443Y9813534D01*
X55743778Y9657009D01*
X55714448Y9621271D01*
X55631186Y9519814D01*
X55533303Y9439485D01*
X55493991Y9407222D01*
X55337466Y9323557D01*
X55167627Y9272037D01*
X55101442Y9265518D01*
X55035260Y9259000D01*
X54946740Y9259000D01*
X54880558Y9265518D01*
X54814373Y9272037D01*
X54644534Y9323557D01*
X54488009Y9407222D01*
X54448697Y9439485D01*
X54350814Y9519814D01*
X54267552Y9621271D01*
X54238222Y9657009D01*
X54154557Y9813534D01*
X54103037Y9983373D01*
X54085641Y10160000D01*
X54103037Y10336627D01*
X54154557Y10506466D01*
X54238222Y10662991D01*
X54282460Y10716895D01*
X54350814Y10800186D01*
X54452271Y10883448D01*
X54488009Y10912778D01*
X54644534Y10996443D01*
X54814373Y11047963D01*
X54880558Y11054482D01*
X54946740Y11061000D01*
X55035260Y11061000D01*
X55101442Y11054482D01*
X55101442Y11054482D01*
G37*
G36*
X12205562Y11971819D02*
G01*
X12240481Y11961226D01*
X12272663Y11944024D01*
X12300873Y11920873D01*
X12324024Y11892663D01*
X12341226Y11860481D01*
X12351819Y11825562D01*
X12356000Y11783105D01*
X12356000Y10641895D01*
X12351819Y10599438D01*
X12341226Y10564519D01*
X12324024Y10532337D01*
X12300873Y10504127D01*
X12272663Y10480976D01*
X12240481Y10463774D01*
X12205562Y10453181D01*
X12163105Y10449000D01*
X10696895Y10449000D01*
X10654438Y10453181D01*
X10619519Y10463774D01*
X10587337Y10480976D01*
X10559127Y10504127D01*
X10535976Y10532337D01*
X10518774Y10564519D01*
X10508181Y10599438D01*
X10504000Y10641895D01*
X10504000Y11783105D01*
X10508181Y11825562D01*
X10518774Y11860481D01*
X10535976Y11892663D01*
X10559127Y11920873D01*
X10587337Y11944024D01*
X10619519Y11961226D01*
X10654438Y11971819D01*
X10696895Y11976000D01*
X12163105Y11976000D01*
X12205562Y11971819D01*
X12205562Y11971819D01*
G37*
G36*
X37931000Y11564000D02*
G01*
X36079000Y11564000D01*
X36079000Y20566000D01*
X37931000Y20566000D01*
X37931000Y11564000D01*
X37931000Y11564000D01*
G37*
G36*
X45131000Y11564000D02*
G01*
X43279000Y11564000D01*
X43279000Y20566000D01*
X45131000Y20566000D01*
X45131000Y11564000D01*
X45131000Y11564000D01*
G37*
G36*
X26430562Y13621819D02*
G01*
X26465481Y13611226D01*
X26497663Y13594024D01*
X26525873Y13570873D01*
X26549024Y13542663D01*
X26566226Y13510481D01*
X26576819Y13475562D01*
X26581000Y13433105D01*
X26581000Y11966895D01*
X26576819Y11924438D01*
X26566226Y11889519D01*
X26549024Y11857337D01*
X26525873Y11829127D01*
X26497663Y11805976D01*
X26465481Y11788774D01*
X26430562Y11778181D01*
X26388105Y11774000D01*
X25246895Y11774000D01*
X25204438Y11778181D01*
X25169519Y11788774D01*
X25137337Y11805976D01*
X25109127Y11829127D01*
X25085976Y11857337D01*
X25068774Y11889519D01*
X25058181Y11924438D01*
X25054000Y11966895D01*
X25054000Y13433105D01*
X25058181Y13475562D01*
X25068774Y13510481D01*
X25085976Y13542663D01*
X25109127Y13570873D01*
X25137337Y13594024D01*
X25169519Y13611226D01*
X25204438Y13621819D01*
X25246895Y13626000D01*
X26388105Y13626000D01*
X26430562Y13621819D01*
X26430562Y13621819D01*
G37*
G36*
X29405562Y13621819D02*
G01*
X29440481Y13611226D01*
X29472663Y13594024D01*
X29500873Y13570873D01*
X29524024Y13542663D01*
X29541226Y13510481D01*
X29551819Y13475562D01*
X29556000Y13433105D01*
X29556000Y11966895D01*
X29551819Y11924438D01*
X29541226Y11889519D01*
X29524024Y11857337D01*
X29500873Y11829127D01*
X29472663Y11805976D01*
X29440481Y11788774D01*
X29405562Y11778181D01*
X29363105Y11774000D01*
X28221895Y11774000D01*
X28179438Y11778181D01*
X28144519Y11788774D01*
X28112337Y11805976D01*
X28084127Y11829127D01*
X28060976Y11857337D01*
X28043774Y11889519D01*
X28033181Y11924438D01*
X28029000Y11966895D01*
X28029000Y13433105D01*
X28033181Y13475562D01*
X28043774Y13510481D01*
X28060976Y13542663D01*
X28084127Y13570873D01*
X28112337Y13594024D01*
X28144519Y13611226D01*
X28179438Y13621819D01*
X28221895Y13626000D01*
X29363105Y13626000D01*
X29405562Y13621819D01*
X29405562Y13621819D01*
G37*
G36*
X19445562Y13621819D02*
G01*
X19480481Y13611226D01*
X19512663Y13594024D01*
X19540873Y13570873D01*
X19564024Y13542663D01*
X19581226Y13510481D01*
X19591819Y13475562D01*
X19596000Y13433105D01*
X19596000Y11966895D01*
X19591819Y11924438D01*
X19581226Y11889519D01*
X19564024Y11857337D01*
X19540873Y11829127D01*
X19512663Y11805976D01*
X19480481Y11788774D01*
X19445562Y11778181D01*
X19403105Y11774000D01*
X18261895Y11774000D01*
X18219438Y11778181D01*
X18184519Y11788774D01*
X18152337Y11805976D01*
X18124127Y11829127D01*
X18100976Y11857337D01*
X18083774Y11889519D01*
X18073181Y11924438D01*
X18069000Y11966895D01*
X18069000Y13433105D01*
X18073181Y13475562D01*
X18083774Y13510481D01*
X18100976Y13542663D01*
X18124127Y13570873D01*
X18152337Y13594024D01*
X18184519Y13611226D01*
X18219438Y13621819D01*
X18261895Y13626000D01*
X19403105Y13626000D01*
X19445562Y13621819D01*
X19445562Y13621819D01*
G37*
G36*
X22420562Y13621819D02*
G01*
X22455481Y13611226D01*
X22487663Y13594024D01*
X22515873Y13570873D01*
X22539024Y13542663D01*
X22556226Y13510481D01*
X22566819Y13475562D01*
X22571000Y13433105D01*
X22571000Y11966895D01*
X22566819Y11924438D01*
X22556226Y11889519D01*
X22539024Y11857337D01*
X22515873Y11829127D01*
X22487663Y11805976D01*
X22455481Y11788774D01*
X22420562Y11778181D01*
X22378105Y11774000D01*
X21236895Y11774000D01*
X21194438Y11778181D01*
X21159519Y11788774D01*
X21127337Y11805976D01*
X21099127Y11829127D01*
X21075976Y11857337D01*
X21058774Y11889519D01*
X21048181Y11924438D01*
X21044000Y11966895D01*
X21044000Y13433105D01*
X21048181Y13475562D01*
X21058774Y13510481D01*
X21075976Y13542663D01*
X21099127Y13570873D01*
X21127337Y13594024D01*
X21159519Y13611226D01*
X21194438Y13621819D01*
X21236895Y13626000D01*
X22378105Y13626000D01*
X22420562Y13621819D01*
X22420562Y13621819D01*
G37*
G36*
X55101442Y13594482D02*
G01*
X55167627Y13587963D01*
X55337466Y13536443D01*
X55493991Y13452778D01*
X55517962Y13433105D01*
X55631186Y13340186D01*
X55714448Y13238729D01*
X55743778Y13202991D01*
X55827443Y13046466D01*
X55878963Y12876627D01*
X55896359Y12700000D01*
X55878963Y12523373D01*
X55827443Y12353534D01*
X55743778Y12197009D01*
X55714448Y12161271D01*
X55631186Y12059814D01*
X55529729Y11976552D01*
X55493991Y11947222D01*
X55337466Y11863557D01*
X55167627Y11812037D01*
X55106088Y11805976D01*
X55035260Y11799000D01*
X54946740Y11799000D01*
X54875912Y11805976D01*
X54814373Y11812037D01*
X54644534Y11863557D01*
X54488009Y11947222D01*
X54452271Y11976552D01*
X54350814Y12059814D01*
X54267552Y12161271D01*
X54238222Y12197009D01*
X54154557Y12353534D01*
X54103037Y12523373D01*
X54085641Y12700000D01*
X54103037Y12876627D01*
X54154557Y13046466D01*
X54238222Y13202991D01*
X54267552Y13238729D01*
X54350814Y13340186D01*
X54464038Y13433105D01*
X54488009Y13452778D01*
X54644534Y13536443D01*
X54814373Y13587963D01*
X54880558Y13594482D01*
X54946740Y13601000D01*
X55035260Y13601000D01*
X55101442Y13594482D01*
X55101442Y13594482D01*
G37*
G36*
X49797562Y13876819D02*
G01*
X49832481Y13866226D01*
X49864663Y13849024D01*
X49892873Y13825873D01*
X49916024Y13797663D01*
X49933226Y13765481D01*
X49943819Y13730562D01*
X49948000Y13688105D01*
X49948000Y12546895D01*
X49943819Y12504438D01*
X49933226Y12469519D01*
X49916024Y12437337D01*
X49892873Y12409127D01*
X49864663Y12385976D01*
X49832481Y12368774D01*
X49797562Y12358181D01*
X49755105Y12354000D01*
X48288895Y12354000D01*
X48246438Y12358181D01*
X48211519Y12368774D01*
X48179337Y12385976D01*
X48151127Y12409127D01*
X48127976Y12437337D01*
X48110774Y12469519D01*
X48100181Y12504438D01*
X48096000Y12546895D01*
X48096000Y13688105D01*
X48100181Y13730562D01*
X48110774Y13765481D01*
X48127976Y13797663D01*
X48151127Y13825873D01*
X48179337Y13849024D01*
X48211519Y13866226D01*
X48246438Y13876819D01*
X48288895Y13881000D01*
X49755105Y13881000D01*
X49797562Y13876819D01*
X49797562Y13876819D01*
G37*
G36*
X12205562Y14946819D02*
G01*
X12240481Y14936226D01*
X12272663Y14919024D01*
X12300873Y14895873D01*
X12324024Y14867663D01*
X12341226Y14835481D01*
X12351819Y14800562D01*
X12356000Y14758105D01*
X12356000Y13616895D01*
X12351819Y13574438D01*
X12341226Y13539519D01*
X12324024Y13507337D01*
X12300873Y13479127D01*
X12272663Y13455976D01*
X12240481Y13438774D01*
X12205562Y13428181D01*
X12163105Y13424000D01*
X10696895Y13424000D01*
X10654438Y13428181D01*
X10619519Y13438774D01*
X10587337Y13455976D01*
X10559127Y13479127D01*
X10535976Y13507337D01*
X10518774Y13539519D01*
X10508181Y13574438D01*
X10504000Y13616895D01*
X10504000Y14758105D01*
X10508181Y14800562D01*
X10518774Y14835481D01*
X10535976Y14867663D01*
X10559127Y14895873D01*
X10587337Y14919024D01*
X10619519Y14936226D01*
X10654438Y14946819D01*
X10696895Y14951000D01*
X12163105Y14951000D01*
X12205562Y14946819D01*
X12205562Y14946819D01*
G37*
G36*
X55101442Y16134482D02*
G01*
X55167627Y16127963D01*
X55337466Y16076443D01*
X55493991Y15992778D01*
X55519228Y15972066D01*
X55631186Y15880186D01*
X55714448Y15778729D01*
X55743778Y15742991D01*
X55827443Y15586466D01*
X55878963Y15416627D01*
X55896359Y15240000D01*
X55878963Y15063373D01*
X55827443Y14893534D01*
X55743778Y14737009D01*
X55726536Y14716000D01*
X55631186Y14599814D01*
X55529729Y14516552D01*
X55493991Y14487222D01*
X55337466Y14403557D01*
X55167627Y14352037D01*
X55101443Y14345519D01*
X55035260Y14339000D01*
X54946740Y14339000D01*
X54880557Y14345519D01*
X54814373Y14352037D01*
X54644534Y14403557D01*
X54488009Y14487222D01*
X54452271Y14516552D01*
X54350814Y14599814D01*
X54255464Y14716000D01*
X54238222Y14737009D01*
X54154557Y14893534D01*
X54103037Y15063373D01*
X54085641Y15240000D01*
X54103037Y15416627D01*
X54154557Y15586466D01*
X54238222Y15742991D01*
X54267552Y15778729D01*
X54350814Y15880186D01*
X54462772Y15972066D01*
X54488009Y15992778D01*
X54644534Y16076443D01*
X54814373Y16127963D01*
X54880558Y16134482D01*
X54946740Y16141000D01*
X55035260Y16141000D01*
X55101442Y16134482D01*
X55101442Y16134482D01*
G37*
G36*
X49797562Y16851819D02*
G01*
X49832481Y16841226D01*
X49864663Y16824024D01*
X49892873Y16800873D01*
X49916024Y16772663D01*
X49933226Y16740481D01*
X49943819Y16705562D01*
X49948000Y16663105D01*
X49948000Y15521895D01*
X49943819Y15479438D01*
X49933226Y15444519D01*
X49916024Y15412337D01*
X49892873Y15384127D01*
X49864663Y15360976D01*
X49832481Y15343774D01*
X49797562Y15333181D01*
X49755105Y15329000D01*
X48288895Y15329000D01*
X48246438Y15333181D01*
X48211519Y15343774D01*
X48179337Y15360976D01*
X48151127Y15384127D01*
X48127976Y15412337D01*
X48110774Y15444519D01*
X48100181Y15479438D01*
X48096000Y15521895D01*
X48096000Y16663105D01*
X48100181Y16705562D01*
X48110774Y16740481D01*
X48127976Y16772663D01*
X48151127Y16800873D01*
X48179337Y16824024D01*
X48211519Y16841226D01*
X48246438Y16851819D01*
X48288895Y16856000D01*
X49755105Y16856000D01*
X49797562Y16851819D01*
X49797562Y16851819D01*
G37*
G36*
X26430562Y18701819D02*
G01*
X26465481Y18691226D01*
X26497663Y18674024D01*
X26525873Y18650873D01*
X26549024Y18622663D01*
X26566226Y18590481D01*
X26576819Y18555562D01*
X26581000Y18513105D01*
X26581000Y17046895D01*
X26576819Y17004438D01*
X26566226Y16969519D01*
X26549024Y16937337D01*
X26525873Y16909127D01*
X26497663Y16885976D01*
X26465481Y16868774D01*
X26430562Y16858181D01*
X26388105Y16854000D01*
X25246895Y16854000D01*
X25204438Y16858181D01*
X25169519Y16868774D01*
X25137337Y16885976D01*
X25109127Y16909127D01*
X25085976Y16937337D01*
X25068774Y16969519D01*
X25058181Y17004438D01*
X25054000Y17046895D01*
X25054000Y18513105D01*
X25058181Y18555562D01*
X25068774Y18590481D01*
X25085976Y18622663D01*
X25109127Y18650873D01*
X25137337Y18674024D01*
X25169519Y18691226D01*
X25204438Y18701819D01*
X25246895Y18706000D01*
X26388105Y18706000D01*
X26430562Y18701819D01*
X26430562Y18701819D01*
G37*
G36*
X19445562Y18701819D02*
G01*
X19480481Y18691226D01*
X19512663Y18674024D01*
X19540873Y18650873D01*
X19564024Y18622663D01*
X19581226Y18590481D01*
X19591819Y18555562D01*
X19596000Y18513105D01*
X19596000Y17046895D01*
X19591819Y17004438D01*
X19581226Y16969519D01*
X19564024Y16937337D01*
X19540873Y16909127D01*
X19512663Y16885976D01*
X19480481Y16868774D01*
X19445562Y16858181D01*
X19403105Y16854000D01*
X18261895Y16854000D01*
X18219438Y16858181D01*
X18184519Y16868774D01*
X18152337Y16885976D01*
X18124127Y16909127D01*
X18100976Y16937337D01*
X18083774Y16969519D01*
X18073181Y17004438D01*
X18069000Y17046895D01*
X18069000Y18513105D01*
X18073181Y18555562D01*
X18083774Y18590481D01*
X18100976Y18622663D01*
X18124127Y18650873D01*
X18152337Y18674024D01*
X18184519Y18691226D01*
X18219438Y18701819D01*
X18261895Y18706000D01*
X19403105Y18706000D01*
X19445562Y18701819D01*
X19445562Y18701819D01*
G37*
G36*
X22420562Y18701819D02*
G01*
X22455481Y18691226D01*
X22487663Y18674024D01*
X22515873Y18650873D01*
X22539024Y18622663D01*
X22556226Y18590481D01*
X22566819Y18555562D01*
X22571000Y18513105D01*
X22571000Y17046895D01*
X22566819Y17004438D01*
X22556226Y16969519D01*
X22539024Y16937337D01*
X22515873Y16909127D01*
X22487663Y16885976D01*
X22455481Y16868774D01*
X22420562Y16858181D01*
X22378105Y16854000D01*
X21236895Y16854000D01*
X21194438Y16858181D01*
X21159519Y16868774D01*
X21127337Y16885976D01*
X21099127Y16909127D01*
X21075976Y16937337D01*
X21058774Y16969519D01*
X21048181Y17004438D01*
X21044000Y17046895D01*
X21044000Y18513105D01*
X21048181Y18555562D01*
X21058774Y18590481D01*
X21075976Y18622663D01*
X21099127Y18650873D01*
X21127337Y18674024D01*
X21159519Y18691226D01*
X21194438Y18701819D01*
X21236895Y18706000D01*
X22378105Y18706000D01*
X22420562Y18701819D01*
X22420562Y18701819D01*
G37*
G36*
X29405562Y18701819D02*
G01*
X29440481Y18691226D01*
X29472663Y18674024D01*
X29500873Y18650873D01*
X29524024Y18622663D01*
X29541226Y18590481D01*
X29551819Y18555562D01*
X29556000Y18513105D01*
X29556000Y17046895D01*
X29551819Y17004438D01*
X29541226Y16969519D01*
X29524024Y16937337D01*
X29500873Y16909127D01*
X29472663Y16885976D01*
X29440481Y16868774D01*
X29405562Y16858181D01*
X29363105Y16854000D01*
X28221895Y16854000D01*
X28179438Y16858181D01*
X28144519Y16868774D01*
X28112337Y16885976D01*
X28084127Y16909127D01*
X28060976Y16937337D01*
X28043774Y16969519D01*
X28033181Y17004438D01*
X28029000Y17046895D01*
X28029000Y18513105D01*
X28033181Y18555562D01*
X28043774Y18590481D01*
X28060976Y18622663D01*
X28084127Y18650873D01*
X28112337Y18674024D01*
X28144519Y18691226D01*
X28179438Y18701819D01*
X28221895Y18706000D01*
X29363105Y18706000D01*
X29405562Y18701819D01*
X29405562Y18701819D01*
G37*
G36*
X55892000Y16879000D02*
G01*
X54090000Y16879000D01*
X54090000Y18681000D01*
X55892000Y18681000D01*
X55892000Y16879000D01*
X55892000Y16879000D01*
G37*
G36*
X14715443Y25532481D02*
G01*
X14781627Y25525963D01*
X14951466Y25474443D01*
X15107991Y25390778D01*
X15143729Y25361448D01*
X15245186Y25278186D01*
X15328448Y25176729D01*
X15357778Y25140991D01*
X15441443Y24984466D01*
X15492963Y24814627D01*
X15510359Y24638000D01*
X15492963Y24461373D01*
X15441443Y24291534D01*
X15357778Y24135009D01*
X15328448Y24099271D01*
X15245186Y23997814D01*
X15143729Y23914552D01*
X15107991Y23885222D01*
X14951466Y23801557D01*
X14781627Y23750037D01*
X14715442Y23743518D01*
X14649260Y23737000D01*
X14560740Y23737000D01*
X14494558Y23743518D01*
X14428373Y23750037D01*
X14258534Y23801557D01*
X14102009Y23885222D01*
X14066271Y23914552D01*
X13964814Y23997814D01*
X13881552Y24099271D01*
X13852222Y24135009D01*
X13768557Y24291534D01*
X13717037Y24461373D01*
X13699641Y24638000D01*
X13717037Y24814627D01*
X13768557Y24984466D01*
X13852222Y25140991D01*
X13881552Y25176729D01*
X13964814Y25278186D01*
X14066271Y25361448D01*
X14102009Y25390778D01*
X14258534Y25474443D01*
X14428373Y25525963D01*
X14494557Y25532481D01*
X14560740Y25539000D01*
X14649260Y25539000D01*
X14715443Y25532481D01*
X14715443Y25532481D01*
G37*
G36*
X4711000Y23737000D02*
G01*
X2909000Y23737000D01*
X2909000Y25539000D01*
X4711000Y25539000D01*
X4711000Y23737000D01*
X4711000Y23737000D01*
G37*
G36*
X19795443Y25532481D02*
G01*
X19861627Y25525963D01*
X20031466Y25474443D01*
X20187991Y25390778D01*
X20223729Y25361448D01*
X20325186Y25278186D01*
X20408448Y25176729D01*
X20437778Y25140991D01*
X20521443Y24984466D01*
X20572963Y24814627D01*
X20590359Y24638000D01*
X20572963Y24461373D01*
X20521443Y24291534D01*
X20437778Y24135009D01*
X20408448Y24099271D01*
X20325186Y23997814D01*
X20223729Y23914552D01*
X20187991Y23885222D01*
X20031466Y23801557D01*
X19861627Y23750037D01*
X19795442Y23743518D01*
X19729260Y23737000D01*
X19640740Y23737000D01*
X19574558Y23743518D01*
X19508373Y23750037D01*
X19338534Y23801557D01*
X19182009Y23885222D01*
X19146271Y23914552D01*
X19044814Y23997814D01*
X18961552Y24099271D01*
X18932222Y24135009D01*
X18848557Y24291534D01*
X18797037Y24461373D01*
X18779641Y24638000D01*
X18797037Y24814627D01*
X18848557Y24984466D01*
X18932222Y25140991D01*
X18961552Y25176729D01*
X19044814Y25278186D01*
X19146271Y25361448D01*
X19182009Y25390778D01*
X19338534Y25474443D01*
X19508373Y25525963D01*
X19574557Y25532481D01*
X19640740Y25539000D01*
X19729260Y25539000D01*
X19795443Y25532481D01*
X19795443Y25532481D01*
G37*
G36*
X17255443Y25532481D02*
G01*
X17321627Y25525963D01*
X17491466Y25474443D01*
X17647991Y25390778D01*
X17683729Y25361448D01*
X17785186Y25278186D01*
X17868448Y25176729D01*
X17897778Y25140991D01*
X17981443Y24984466D01*
X18032963Y24814627D01*
X18050359Y24638000D01*
X18032963Y24461373D01*
X17981443Y24291534D01*
X17897778Y24135009D01*
X17868448Y24099271D01*
X17785186Y23997814D01*
X17683729Y23914552D01*
X17647991Y23885222D01*
X17491466Y23801557D01*
X17321627Y23750037D01*
X17255442Y23743518D01*
X17189260Y23737000D01*
X17100740Y23737000D01*
X17034558Y23743518D01*
X16968373Y23750037D01*
X16798534Y23801557D01*
X16642009Y23885222D01*
X16606271Y23914552D01*
X16504814Y23997814D01*
X16421552Y24099271D01*
X16392222Y24135009D01*
X16308557Y24291534D01*
X16257037Y24461373D01*
X16239641Y24638000D01*
X16257037Y24814627D01*
X16308557Y24984466D01*
X16392222Y25140991D01*
X16421552Y25176729D01*
X16504814Y25278186D01*
X16606271Y25361448D01*
X16642009Y25390778D01*
X16798534Y25474443D01*
X16968373Y25525963D01*
X17034557Y25532481D01*
X17100740Y25539000D01*
X17189260Y25539000D01*
X17255443Y25532481D01*
X17255443Y25532481D01*
G37*
G36*
X9000443Y25532481D02*
G01*
X9066627Y25525963D01*
X9236466Y25474443D01*
X9392991Y25390778D01*
X9428729Y25361448D01*
X9530186Y25278186D01*
X9613448Y25176729D01*
X9642778Y25140991D01*
X9726443Y24984466D01*
X9777963Y24814627D01*
X9795359Y24638000D01*
X9777963Y24461373D01*
X9726443Y24291534D01*
X9642778Y24135009D01*
X9613448Y24099271D01*
X9530186Y23997814D01*
X9428729Y23914552D01*
X9392991Y23885222D01*
X9236466Y23801557D01*
X9066627Y23750037D01*
X9000442Y23743518D01*
X8934260Y23737000D01*
X8845740Y23737000D01*
X8779558Y23743518D01*
X8713373Y23750037D01*
X8543534Y23801557D01*
X8387009Y23885222D01*
X8351271Y23914552D01*
X8249814Y23997814D01*
X8166552Y24099271D01*
X8137222Y24135009D01*
X8053557Y24291534D01*
X8002037Y24461373D01*
X7984641Y24638000D01*
X8002037Y24814627D01*
X8053557Y24984466D01*
X8137222Y25140991D01*
X8166552Y25176729D01*
X8249814Y25278186D01*
X8351271Y25361448D01*
X8387009Y25390778D01*
X8543534Y25474443D01*
X8713373Y25525963D01*
X8779557Y25532481D01*
X8845740Y25539000D01*
X8934260Y25539000D01*
X9000443Y25532481D01*
X9000443Y25532481D01*
G37*
G36*
X6460443Y25532481D02*
G01*
X6526627Y25525963D01*
X6696466Y25474443D01*
X6852991Y25390778D01*
X6888729Y25361448D01*
X6990186Y25278186D01*
X7073448Y25176729D01*
X7102778Y25140991D01*
X7186443Y24984466D01*
X7237963Y24814627D01*
X7255359Y24638000D01*
X7237963Y24461373D01*
X7186443Y24291534D01*
X7102778Y24135009D01*
X7073448Y24099271D01*
X6990186Y23997814D01*
X6888729Y23914552D01*
X6852991Y23885222D01*
X6696466Y23801557D01*
X6526627Y23750037D01*
X6460442Y23743518D01*
X6394260Y23737000D01*
X6305740Y23737000D01*
X6239558Y23743518D01*
X6173373Y23750037D01*
X6003534Y23801557D01*
X5847009Y23885222D01*
X5811271Y23914552D01*
X5709814Y23997814D01*
X5626552Y24099271D01*
X5597222Y24135009D01*
X5513557Y24291534D01*
X5462037Y24461373D01*
X5444641Y24638000D01*
X5462037Y24814627D01*
X5513557Y24984466D01*
X5597222Y25140991D01*
X5626552Y25176729D01*
X5709814Y25278186D01*
X5811271Y25361448D01*
X5847009Y25390778D01*
X6003534Y25474443D01*
X6173373Y25525963D01*
X6239557Y25532481D01*
X6305740Y25539000D01*
X6394260Y25539000D01*
X6460443Y25532481D01*
X6460443Y25532481D01*
G37*
G36*
X25666000Y23737000D02*
G01*
X23864000Y23737000D01*
X23864000Y25539000D01*
X25666000Y25539000D01*
X25666000Y23737000D01*
X25666000Y23737000D01*
G37*
G36*
X22335443Y25532481D02*
G01*
X22401627Y25525963D01*
X22571466Y25474443D01*
X22727991Y25390778D01*
X22763729Y25361448D01*
X22865186Y25278186D01*
X22948448Y25176729D01*
X22977778Y25140991D01*
X23061443Y24984466D01*
X23112963Y24814627D01*
X23130359Y24638000D01*
X23112963Y24461373D01*
X23061443Y24291534D01*
X22977778Y24135009D01*
X22948448Y24099271D01*
X22865186Y23997814D01*
X22763729Y23914552D01*
X22727991Y23885222D01*
X22571466Y23801557D01*
X22401627Y23750037D01*
X22335442Y23743518D01*
X22269260Y23737000D01*
X22180740Y23737000D01*
X22114558Y23743518D01*
X22048373Y23750037D01*
X21878534Y23801557D01*
X21722009Y23885222D01*
X21686271Y23914552D01*
X21584814Y23997814D01*
X21501552Y24099271D01*
X21472222Y24135009D01*
X21388557Y24291534D01*
X21337037Y24461373D01*
X21319641Y24638000D01*
X21337037Y24814627D01*
X21388557Y24984466D01*
X21472222Y25140991D01*
X21501552Y25176729D01*
X21584814Y25278186D01*
X21686271Y25361448D01*
X21722009Y25390778D01*
X21878534Y25474443D01*
X22048373Y25525963D01*
X22114557Y25532481D01*
X22180740Y25539000D01*
X22269260Y25539000D01*
X22335443Y25532481D01*
X22335443Y25532481D01*
G37*
M02*
