%TF.GenerationSoftware,KiCad,Pcbnew,5.1.6-c6e7f7d~86~ubuntu18.04.1*%
%TF.CreationDate,2020-05-25T18:48:25+02:00*%
%TF.ProjectId,ft232rl_converter_v2,66743233-3272-46c5-9f63-6f6e76657274,1.0*%
%TF.SameCoordinates,PX4d83c00PY525bfc0*%
%TF.FileFunction,Soldermask,Top*%
%TF.FilePolarity,Negative*%
%FSLAX46Y46*%
G04 Gerber Fmt 4.6, Leading zero omitted, Abs format (unit mm)*
G04 Created by KiCad (PCBNEW 5.1.6-c6e7f7d~86~ubuntu18.04.1) date 2020-05-25 18:48:25*
%MOMM*%
%LPD*%
G01*
G04 APERTURE LIST*
%ADD10C,0.150000*%
G04 APERTURE END LIST*
D10*
G36*
X43213642Y5850219D02*
G01*
X43359414Y5789838D01*
X43359416Y5789837D01*
X43490608Y5702178D01*
X43602178Y5590608D01*
X43689837Y5459416D01*
X43689838Y5459414D01*
X43750219Y5313642D01*
X43781000Y5158893D01*
X43781000Y5001107D01*
X43750219Y4846358D01*
X43731876Y4802075D01*
X43689837Y4700584D01*
X43602178Y4569392D01*
X43490608Y4457822D01*
X43359416Y4370163D01*
X43359415Y4370162D01*
X43359414Y4370162D01*
X43213642Y4309781D01*
X43058893Y4279000D01*
X42901107Y4279000D01*
X42746358Y4309781D01*
X42600586Y4370162D01*
X42600585Y4370162D01*
X42600584Y4370163D01*
X42469392Y4457822D01*
X42357822Y4569392D01*
X42270163Y4700584D01*
X42228124Y4802075D01*
X42209781Y4846358D01*
X42179000Y5001107D01*
X42179000Y5158893D01*
X42209781Y5313642D01*
X42270162Y5459414D01*
X42270163Y5459416D01*
X42357822Y5590608D01*
X42469392Y5702178D01*
X42600584Y5789837D01*
X42600586Y5789838D01*
X42746358Y5850219D01*
X42901107Y5881000D01*
X43058893Y5881000D01*
X43213642Y5850219D01*
G37*
G36*
X38333642Y5850219D02*
G01*
X38479414Y5789838D01*
X38479416Y5789837D01*
X38610608Y5702178D01*
X38722178Y5590608D01*
X38809837Y5459416D01*
X38809838Y5459414D01*
X38870219Y5313642D01*
X38901000Y5158893D01*
X38901000Y5001107D01*
X38870219Y4846358D01*
X38851876Y4802075D01*
X38809837Y4700584D01*
X38722178Y4569392D01*
X38610608Y4457822D01*
X38479416Y4370163D01*
X38479415Y4370162D01*
X38479414Y4370162D01*
X38333642Y4309781D01*
X38178893Y4279000D01*
X38021107Y4279000D01*
X37866358Y4309781D01*
X37720586Y4370162D01*
X37720585Y4370162D01*
X37720584Y4370163D01*
X37589392Y4457822D01*
X37477822Y4569392D01*
X37390163Y4700584D01*
X37348124Y4802075D01*
X37329781Y4846358D01*
X37299000Y5001107D01*
X37299000Y5158893D01*
X37329781Y5313642D01*
X37390162Y5459414D01*
X37390163Y5459416D01*
X37477822Y5590608D01*
X37589392Y5702178D01*
X37720584Y5789837D01*
X37720586Y5789838D01*
X37866358Y5850219D01*
X38021107Y5881000D01*
X38178893Y5881000D01*
X38333642Y5850219D01*
G37*
G36*
X27754562Y6255819D02*
G01*
X27789481Y6245226D01*
X27821663Y6228024D01*
X27849873Y6204873D01*
X27873024Y6176663D01*
X27890226Y6144481D01*
X27900819Y6109562D01*
X27905000Y6067105D01*
X27905000Y4600895D01*
X27900819Y4558438D01*
X27890226Y4523519D01*
X27873024Y4491337D01*
X27849873Y4463127D01*
X27821663Y4439976D01*
X27789481Y4422774D01*
X27754562Y4412181D01*
X27712105Y4408000D01*
X26570895Y4408000D01*
X26528438Y4412181D01*
X26493519Y4422774D01*
X26461337Y4439976D01*
X26433127Y4463127D01*
X26409976Y4491337D01*
X26392774Y4523519D01*
X26382181Y4558438D01*
X26378000Y4600895D01*
X26378000Y6067105D01*
X26382181Y6109562D01*
X26392774Y6144481D01*
X26409976Y6176663D01*
X26433127Y6204873D01*
X26461337Y6228024D01*
X26493519Y6245226D01*
X26528438Y6255819D01*
X26570895Y6260000D01*
X27712105Y6260000D01*
X27754562Y6255819D01*
G37*
G36*
X24779562Y6255819D02*
G01*
X24814481Y6245226D01*
X24846663Y6228024D01*
X24874873Y6204873D01*
X24898024Y6176663D01*
X24915226Y6144481D01*
X24925819Y6109562D01*
X24930000Y6067105D01*
X24930000Y4600895D01*
X24925819Y4558438D01*
X24915226Y4523519D01*
X24898024Y4491337D01*
X24874873Y4463127D01*
X24846663Y4439976D01*
X24814481Y4422774D01*
X24779562Y4412181D01*
X24737105Y4408000D01*
X23595895Y4408000D01*
X23553438Y4412181D01*
X23518519Y4422774D01*
X23486337Y4439976D01*
X23458127Y4463127D01*
X23434976Y4491337D01*
X23417774Y4523519D01*
X23407181Y4558438D01*
X23403000Y4600895D01*
X23403000Y6067105D01*
X23407181Y6109562D01*
X23417774Y6144481D01*
X23434976Y6176663D01*
X23458127Y6204873D01*
X23486337Y6228024D01*
X23518519Y6245226D01*
X23553438Y6255819D01*
X23595895Y6260000D01*
X24737105Y6260000D01*
X24779562Y6255819D01*
G37*
G36*
X19064562Y6255819D02*
G01*
X19099481Y6245226D01*
X19131663Y6228024D01*
X19159873Y6204873D01*
X19183024Y6176663D01*
X19200226Y6144481D01*
X19210819Y6109562D01*
X19215000Y6067105D01*
X19215000Y4600895D01*
X19210819Y4558438D01*
X19200226Y4523519D01*
X19183024Y4491337D01*
X19159873Y4463127D01*
X19131663Y4439976D01*
X19099481Y4422774D01*
X19064562Y4412181D01*
X19022105Y4408000D01*
X17880895Y4408000D01*
X17838438Y4412181D01*
X17803519Y4422774D01*
X17771337Y4439976D01*
X17743127Y4463127D01*
X17719976Y4491337D01*
X17702774Y4523519D01*
X17692181Y4558438D01*
X17688000Y4600895D01*
X17688000Y6067105D01*
X17692181Y6109562D01*
X17702774Y6144481D01*
X17719976Y6176663D01*
X17743127Y6204873D01*
X17771337Y6228024D01*
X17803519Y6245226D01*
X17838438Y6255819D01*
X17880895Y6260000D01*
X19022105Y6260000D01*
X19064562Y6255819D01*
G37*
G36*
X22039562Y6255819D02*
G01*
X22074481Y6245226D01*
X22106663Y6228024D01*
X22134873Y6204873D01*
X22158024Y6176663D01*
X22175226Y6144481D01*
X22185819Y6109562D01*
X22190000Y6067105D01*
X22190000Y4600895D01*
X22185819Y4558438D01*
X22175226Y4523519D01*
X22158024Y4491337D01*
X22134873Y4463127D01*
X22106663Y4439976D01*
X22074481Y4422774D01*
X22039562Y4412181D01*
X21997105Y4408000D01*
X20855895Y4408000D01*
X20813438Y4412181D01*
X20778519Y4422774D01*
X20746337Y4439976D01*
X20718127Y4463127D01*
X20694976Y4491337D01*
X20677774Y4523519D01*
X20667181Y4558438D01*
X20663000Y4600895D01*
X20663000Y6067105D01*
X20667181Y6109562D01*
X20677774Y6144481D01*
X20694976Y6176663D01*
X20718127Y6204873D01*
X20746337Y6228024D01*
X20778519Y6245226D01*
X20813438Y6255819D01*
X20855895Y6260000D01*
X21997105Y6260000D01*
X22039562Y6255819D01*
G37*
G36*
X32222674Y6080535D02*
G01*
X32260367Y6069101D01*
X32295103Y6050534D01*
X32325548Y6025548D01*
X32350534Y5995103D01*
X32369101Y5960367D01*
X32380535Y5922674D01*
X32385000Y5877339D01*
X32385000Y4790661D01*
X32380535Y4745326D01*
X32369101Y4707633D01*
X32350534Y4672897D01*
X32325548Y4642452D01*
X32295103Y4617466D01*
X32260367Y4598899D01*
X32222674Y4587465D01*
X32177339Y4583000D01*
X31340661Y4583000D01*
X31295326Y4587465D01*
X31257633Y4598899D01*
X31222897Y4617466D01*
X31192452Y4642452D01*
X31167466Y4672897D01*
X31148899Y4707633D01*
X31137465Y4745326D01*
X31133000Y4790661D01*
X31133000Y5877339D01*
X31137465Y5922674D01*
X31148899Y5960367D01*
X31167466Y5995103D01*
X31192452Y6025548D01*
X31222897Y6050534D01*
X31257633Y6069101D01*
X31295326Y6080535D01*
X31340661Y6085000D01*
X32177339Y6085000D01*
X32222674Y6080535D01*
G37*
G36*
X30172674Y6080535D02*
G01*
X30210367Y6069101D01*
X30245103Y6050534D01*
X30275548Y6025548D01*
X30300534Y5995103D01*
X30319101Y5960367D01*
X30330535Y5922674D01*
X30335000Y5877339D01*
X30335000Y4790661D01*
X30330535Y4745326D01*
X30319101Y4707633D01*
X30300534Y4672897D01*
X30275548Y4642452D01*
X30245103Y4617466D01*
X30210367Y4598899D01*
X30172674Y4587465D01*
X30127339Y4583000D01*
X29290661Y4583000D01*
X29245326Y4587465D01*
X29207633Y4598899D01*
X29172897Y4617466D01*
X29142452Y4642452D01*
X29117466Y4672897D01*
X29098899Y4707633D01*
X29087465Y4745326D01*
X29083000Y4790661D01*
X29083000Y5877339D01*
X29087465Y5922674D01*
X29098899Y5960367D01*
X29117466Y5995103D01*
X29142452Y6025548D01*
X29172897Y6050534D01*
X29207633Y6069101D01*
X29245326Y6080535D01*
X29290661Y6085000D01*
X30127339Y6085000D01*
X30172674Y6080535D01*
G37*
G36*
X16347674Y6080535D02*
G01*
X16385367Y6069101D01*
X16420103Y6050534D01*
X16450548Y6025548D01*
X16475534Y5995103D01*
X16494101Y5960367D01*
X16505535Y5922674D01*
X16510000Y5877339D01*
X16510000Y4790661D01*
X16505535Y4745326D01*
X16494101Y4707633D01*
X16475534Y4672897D01*
X16450548Y4642452D01*
X16420103Y4617466D01*
X16385367Y4598899D01*
X16347674Y4587465D01*
X16302339Y4583000D01*
X15465661Y4583000D01*
X15420326Y4587465D01*
X15382633Y4598899D01*
X15347897Y4617466D01*
X15317452Y4642452D01*
X15292466Y4672897D01*
X15273899Y4707633D01*
X15262465Y4745326D01*
X15258000Y4790661D01*
X15258000Y5877339D01*
X15262465Y5922674D01*
X15273899Y5960367D01*
X15292466Y5995103D01*
X15317452Y6025548D01*
X15347897Y6050534D01*
X15382633Y6069101D01*
X15420326Y6080535D01*
X15465661Y6085000D01*
X16302339Y6085000D01*
X16347674Y6080535D01*
G37*
G36*
X14297674Y6080535D02*
G01*
X14335367Y6069101D01*
X14370103Y6050534D01*
X14400548Y6025548D01*
X14425534Y5995103D01*
X14444101Y5960367D01*
X14455535Y5922674D01*
X14460000Y5877339D01*
X14460000Y4790661D01*
X14455535Y4745326D01*
X14444101Y4707633D01*
X14425534Y4672897D01*
X14400548Y4642452D01*
X14370103Y4617466D01*
X14335367Y4598899D01*
X14297674Y4587465D01*
X14252339Y4583000D01*
X13415661Y4583000D01*
X13370326Y4587465D01*
X13332633Y4598899D01*
X13297897Y4617466D01*
X13267452Y4642452D01*
X13242466Y4672897D01*
X13223899Y4707633D01*
X13212465Y4745326D01*
X13208000Y4790661D01*
X13208000Y5877339D01*
X13212465Y5922674D01*
X13223899Y5960367D01*
X13242466Y5995103D01*
X13267452Y6025548D01*
X13297897Y6050534D01*
X13332633Y6069101D01*
X13370326Y6080535D01*
X13415661Y6085000D01*
X14252339Y6085000D01*
X14297674Y6080535D01*
G37*
G36*
X55104512Y8516073D02*
G01*
X55253812Y8486376D01*
X55417784Y8418456D01*
X55565354Y8319853D01*
X55690853Y8194354D01*
X55789456Y8046784D01*
X55857376Y7882812D01*
X55892000Y7708741D01*
X55892000Y7531259D01*
X55857376Y7357188D01*
X55789456Y7193216D01*
X55690853Y7045646D01*
X55565354Y6920147D01*
X55417784Y6821544D01*
X55253812Y6753624D01*
X55104512Y6723927D01*
X55079742Y6719000D01*
X54902258Y6719000D01*
X54877488Y6723927D01*
X54728188Y6753624D01*
X54564216Y6821544D01*
X54416646Y6920147D01*
X54291147Y7045646D01*
X54192544Y7193216D01*
X54124624Y7357188D01*
X54090000Y7531259D01*
X54090000Y7708741D01*
X54124624Y7882812D01*
X54192544Y8046784D01*
X54291147Y8194354D01*
X54416646Y8319853D01*
X54564216Y8418456D01*
X54728188Y8486376D01*
X54877488Y8516073D01*
X54902258Y8521000D01*
X55079742Y8521000D01*
X55104512Y8516073D01*
G37*
G36*
X2341000Y16075999D02*
G01*
X2343402Y16051613D01*
X2350515Y16028164D01*
X2362066Y16006553D01*
X2377611Y15987611D01*
X2396553Y15972066D01*
X2418164Y15960515D01*
X2441613Y15953402D01*
X2465999Y15951000D01*
X4741000Y15951000D01*
X4741000Y9449000D01*
X2465999Y9449000D01*
X2441613Y9446598D01*
X2418164Y9439485D01*
X2396553Y9427934D01*
X2377611Y9412389D01*
X2362066Y9393447D01*
X2350515Y9371836D01*
X2343402Y9348387D01*
X2341000Y9324001D01*
X2341000Y8551500D01*
X339000Y8551500D01*
X339000Y12498500D01*
X2341000Y12498500D01*
X2341000Y11150999D01*
X2343402Y11126613D01*
X2350515Y11103164D01*
X2362066Y11081553D01*
X2377611Y11062611D01*
X2396553Y11047066D01*
X2418164Y11035515D01*
X2441613Y11028402D01*
X2465999Y11026000D01*
X3134001Y11026000D01*
X3158387Y11028402D01*
X3181836Y11035515D01*
X3203447Y11047066D01*
X3222389Y11062611D01*
X3237934Y11081553D01*
X3249485Y11103164D01*
X3256598Y11126613D01*
X3259000Y11150999D01*
X3259000Y14249001D01*
X3256598Y14273387D01*
X3249485Y14296836D01*
X3237934Y14318447D01*
X3222389Y14337389D01*
X3203447Y14352934D01*
X3181836Y14364485D01*
X3158387Y14371598D01*
X3134001Y14374000D01*
X2465999Y14374000D01*
X2441613Y14371598D01*
X2418164Y14364485D01*
X2396553Y14352934D01*
X2377611Y14337389D01*
X2362066Y14318447D01*
X2350515Y14296836D01*
X2343402Y14273387D01*
X2341000Y14249001D01*
X2341000Y12901500D01*
X339000Y12901500D01*
X339000Y16848500D01*
X2341000Y16848500D01*
X2341000Y16075999D01*
G37*
G36*
X55104512Y11056073D02*
G01*
X55253812Y11026376D01*
X55417784Y10958456D01*
X55565354Y10859853D01*
X55690853Y10734354D01*
X55789456Y10586784D01*
X55857376Y10422812D01*
X55892000Y10248741D01*
X55892000Y10071259D01*
X55857376Y9897188D01*
X55789456Y9733216D01*
X55690853Y9585646D01*
X55565354Y9460147D01*
X55417784Y9361544D01*
X55253812Y9293624D01*
X55104512Y9263927D01*
X55079742Y9259000D01*
X54902258Y9259000D01*
X54877488Y9263927D01*
X54728188Y9293624D01*
X54564216Y9361544D01*
X54416646Y9460147D01*
X54291147Y9585646D01*
X54192544Y9733216D01*
X54124624Y9897188D01*
X54090000Y10071259D01*
X54090000Y10248741D01*
X54124624Y10422812D01*
X54192544Y10586784D01*
X54291147Y10734354D01*
X54416646Y10859853D01*
X54564216Y10958456D01*
X54728188Y11026376D01*
X54877488Y11056073D01*
X54902258Y11061000D01*
X55079742Y11061000D01*
X55104512Y11056073D01*
G37*
G36*
X12205562Y11971819D02*
G01*
X12240481Y11961226D01*
X12272663Y11944024D01*
X12300873Y11920873D01*
X12324024Y11892663D01*
X12341226Y11860481D01*
X12351819Y11825562D01*
X12356000Y11783105D01*
X12356000Y10641895D01*
X12351819Y10599438D01*
X12341226Y10564519D01*
X12324024Y10532337D01*
X12300873Y10504127D01*
X12272663Y10480976D01*
X12240481Y10463774D01*
X12205562Y10453181D01*
X12163105Y10449000D01*
X10696895Y10449000D01*
X10654438Y10453181D01*
X10619519Y10463774D01*
X10587337Y10480976D01*
X10559127Y10504127D01*
X10535976Y10532337D01*
X10518774Y10564519D01*
X10508181Y10599438D01*
X10504000Y10641895D01*
X10504000Y11783105D01*
X10508181Y11825562D01*
X10518774Y11860481D01*
X10535976Y11892663D01*
X10559127Y11920873D01*
X10587337Y11944024D01*
X10619519Y11961226D01*
X10654438Y11971819D01*
X10696895Y11976000D01*
X12163105Y11976000D01*
X12205562Y11971819D01*
G37*
G36*
X37931000Y11564000D02*
G01*
X36079000Y11564000D01*
X36079000Y20566000D01*
X37931000Y20566000D01*
X37931000Y11564000D01*
G37*
G36*
X45131000Y11564000D02*
G01*
X43279000Y11564000D01*
X43279000Y20566000D01*
X45131000Y20566000D01*
X45131000Y11564000D01*
G37*
G36*
X26430562Y13621819D02*
G01*
X26465481Y13611226D01*
X26497663Y13594024D01*
X26525873Y13570873D01*
X26549024Y13542663D01*
X26566226Y13510481D01*
X26576819Y13475562D01*
X26581000Y13433105D01*
X26581000Y11966895D01*
X26576819Y11924438D01*
X26566226Y11889519D01*
X26549024Y11857337D01*
X26525873Y11829127D01*
X26497663Y11805976D01*
X26465481Y11788774D01*
X26430562Y11778181D01*
X26388105Y11774000D01*
X25246895Y11774000D01*
X25204438Y11778181D01*
X25169519Y11788774D01*
X25137337Y11805976D01*
X25109127Y11829127D01*
X25085976Y11857337D01*
X25068774Y11889519D01*
X25058181Y11924438D01*
X25054000Y11966895D01*
X25054000Y13433105D01*
X25058181Y13475562D01*
X25068774Y13510481D01*
X25085976Y13542663D01*
X25109127Y13570873D01*
X25137337Y13594024D01*
X25169519Y13611226D01*
X25204438Y13621819D01*
X25246895Y13626000D01*
X26388105Y13626000D01*
X26430562Y13621819D01*
G37*
G36*
X29405562Y13621819D02*
G01*
X29440481Y13611226D01*
X29472663Y13594024D01*
X29500873Y13570873D01*
X29524024Y13542663D01*
X29541226Y13510481D01*
X29551819Y13475562D01*
X29556000Y13433105D01*
X29556000Y11966895D01*
X29551819Y11924438D01*
X29541226Y11889519D01*
X29524024Y11857337D01*
X29500873Y11829127D01*
X29472663Y11805976D01*
X29440481Y11788774D01*
X29405562Y11778181D01*
X29363105Y11774000D01*
X28221895Y11774000D01*
X28179438Y11778181D01*
X28144519Y11788774D01*
X28112337Y11805976D01*
X28084127Y11829127D01*
X28060976Y11857337D01*
X28043774Y11889519D01*
X28033181Y11924438D01*
X28029000Y11966895D01*
X28029000Y13433105D01*
X28033181Y13475562D01*
X28043774Y13510481D01*
X28060976Y13542663D01*
X28084127Y13570873D01*
X28112337Y13594024D01*
X28144519Y13611226D01*
X28179438Y13621819D01*
X28221895Y13626000D01*
X29363105Y13626000D01*
X29405562Y13621819D01*
G37*
G36*
X19445562Y13621819D02*
G01*
X19480481Y13611226D01*
X19512663Y13594024D01*
X19540873Y13570873D01*
X19564024Y13542663D01*
X19581226Y13510481D01*
X19591819Y13475562D01*
X19596000Y13433105D01*
X19596000Y11966895D01*
X19591819Y11924438D01*
X19581226Y11889519D01*
X19564024Y11857337D01*
X19540873Y11829127D01*
X19512663Y11805976D01*
X19480481Y11788774D01*
X19445562Y11778181D01*
X19403105Y11774000D01*
X18261895Y11774000D01*
X18219438Y11778181D01*
X18184519Y11788774D01*
X18152337Y11805976D01*
X18124127Y11829127D01*
X18100976Y11857337D01*
X18083774Y11889519D01*
X18073181Y11924438D01*
X18069000Y11966895D01*
X18069000Y13433105D01*
X18073181Y13475562D01*
X18083774Y13510481D01*
X18100976Y13542663D01*
X18124127Y13570873D01*
X18152337Y13594024D01*
X18184519Y13611226D01*
X18219438Y13621819D01*
X18261895Y13626000D01*
X19403105Y13626000D01*
X19445562Y13621819D01*
G37*
G36*
X22420562Y13621819D02*
G01*
X22455481Y13611226D01*
X22487663Y13594024D01*
X22515873Y13570873D01*
X22539024Y13542663D01*
X22556226Y13510481D01*
X22566819Y13475562D01*
X22571000Y13433105D01*
X22571000Y11966895D01*
X22566819Y11924438D01*
X22556226Y11889519D01*
X22539024Y11857337D01*
X22515873Y11829127D01*
X22487663Y11805976D01*
X22455481Y11788774D01*
X22420562Y11778181D01*
X22378105Y11774000D01*
X21236895Y11774000D01*
X21194438Y11778181D01*
X21159519Y11788774D01*
X21127337Y11805976D01*
X21099127Y11829127D01*
X21075976Y11857337D01*
X21058774Y11889519D01*
X21048181Y11924438D01*
X21044000Y11966895D01*
X21044000Y13433105D01*
X21048181Y13475562D01*
X21058774Y13510481D01*
X21075976Y13542663D01*
X21099127Y13570873D01*
X21127337Y13594024D01*
X21159519Y13611226D01*
X21194438Y13621819D01*
X21236895Y13626000D01*
X22378105Y13626000D01*
X22420562Y13621819D01*
G37*
G36*
X55104512Y13596073D02*
G01*
X55253812Y13566376D01*
X55417784Y13498456D01*
X55565354Y13399853D01*
X55690853Y13274354D01*
X55789456Y13126784D01*
X55857376Y12962812D01*
X55892000Y12788741D01*
X55892000Y12611259D01*
X55857376Y12437188D01*
X55789456Y12273216D01*
X55690853Y12125646D01*
X55565354Y12000147D01*
X55417784Y11901544D01*
X55253812Y11833624D01*
X55104512Y11803927D01*
X55079742Y11799000D01*
X54902258Y11799000D01*
X54877488Y11803927D01*
X54728188Y11833624D01*
X54564216Y11901544D01*
X54416646Y12000147D01*
X54291147Y12125646D01*
X54192544Y12273216D01*
X54124624Y12437188D01*
X54090000Y12611259D01*
X54090000Y12788741D01*
X54124624Y12962812D01*
X54192544Y13126784D01*
X54291147Y13274354D01*
X54416646Y13399853D01*
X54564216Y13498456D01*
X54728188Y13566376D01*
X54877488Y13596073D01*
X54902258Y13601000D01*
X55079742Y13601000D01*
X55104512Y13596073D01*
G37*
G36*
X49797562Y13876819D02*
G01*
X49832481Y13866226D01*
X49864663Y13849024D01*
X49892873Y13825873D01*
X49916024Y13797663D01*
X49933226Y13765481D01*
X49943819Y13730562D01*
X49948000Y13688105D01*
X49948000Y12546895D01*
X49943819Y12504438D01*
X49933226Y12469519D01*
X49916024Y12437337D01*
X49892873Y12409127D01*
X49864663Y12385976D01*
X49832481Y12368774D01*
X49797562Y12358181D01*
X49755105Y12354000D01*
X48288895Y12354000D01*
X48246438Y12358181D01*
X48211519Y12368774D01*
X48179337Y12385976D01*
X48151127Y12409127D01*
X48127976Y12437337D01*
X48110774Y12469519D01*
X48100181Y12504438D01*
X48096000Y12546895D01*
X48096000Y13688105D01*
X48100181Y13730562D01*
X48110774Y13765481D01*
X48127976Y13797663D01*
X48151127Y13825873D01*
X48179337Y13849024D01*
X48211519Y13866226D01*
X48246438Y13876819D01*
X48288895Y13881000D01*
X49755105Y13881000D01*
X49797562Y13876819D01*
G37*
G36*
X12205562Y14946819D02*
G01*
X12240481Y14936226D01*
X12272663Y14919024D01*
X12300873Y14895873D01*
X12324024Y14867663D01*
X12341226Y14835481D01*
X12351819Y14800562D01*
X12356000Y14758105D01*
X12356000Y13616895D01*
X12351819Y13574438D01*
X12341226Y13539519D01*
X12324024Y13507337D01*
X12300873Y13479127D01*
X12272663Y13455976D01*
X12240481Y13438774D01*
X12205562Y13428181D01*
X12163105Y13424000D01*
X10696895Y13424000D01*
X10654438Y13428181D01*
X10619519Y13438774D01*
X10587337Y13455976D01*
X10559127Y13479127D01*
X10535976Y13507337D01*
X10518774Y13539519D01*
X10508181Y13574438D01*
X10504000Y13616895D01*
X10504000Y14758105D01*
X10508181Y14800562D01*
X10518774Y14835481D01*
X10535976Y14867663D01*
X10559127Y14895873D01*
X10587337Y14919024D01*
X10619519Y14936226D01*
X10654438Y14946819D01*
X10696895Y14951000D01*
X12163105Y14951000D01*
X12205562Y14946819D01*
G37*
G36*
X55104512Y16136073D02*
G01*
X55253812Y16106376D01*
X55417784Y16038456D01*
X55565354Y15939853D01*
X55690853Y15814354D01*
X55789456Y15666784D01*
X55857376Y15502812D01*
X55875372Y15412337D01*
X55891949Y15329000D01*
X55892000Y15328741D01*
X55892000Y15151259D01*
X55857376Y14977188D01*
X55789456Y14813216D01*
X55690853Y14665646D01*
X55565354Y14540147D01*
X55417784Y14441544D01*
X55253812Y14373624D01*
X55104512Y14343927D01*
X55079742Y14339000D01*
X54902258Y14339000D01*
X54877488Y14343927D01*
X54728188Y14373624D01*
X54564216Y14441544D01*
X54416646Y14540147D01*
X54291147Y14665646D01*
X54192544Y14813216D01*
X54124624Y14977188D01*
X54090000Y15151259D01*
X54090000Y15328741D01*
X54090052Y15329000D01*
X54106628Y15412337D01*
X54124624Y15502812D01*
X54192544Y15666784D01*
X54291147Y15814354D01*
X54416646Y15939853D01*
X54564216Y16038456D01*
X54728188Y16106376D01*
X54877488Y16136073D01*
X54902258Y16141000D01*
X55079742Y16141000D01*
X55104512Y16136073D01*
G37*
G36*
X49797562Y16851819D02*
G01*
X49832481Y16841226D01*
X49864663Y16824024D01*
X49892873Y16800873D01*
X49916024Y16772663D01*
X49933226Y16740481D01*
X49943819Y16705562D01*
X49948000Y16663105D01*
X49948000Y15521895D01*
X49943819Y15479438D01*
X49933226Y15444519D01*
X49916024Y15412337D01*
X49892873Y15384127D01*
X49864663Y15360976D01*
X49832481Y15343774D01*
X49797562Y15333181D01*
X49755105Y15329000D01*
X48288895Y15329000D01*
X48246438Y15333181D01*
X48211519Y15343774D01*
X48179337Y15360976D01*
X48151127Y15384127D01*
X48127976Y15412337D01*
X48110774Y15444519D01*
X48100181Y15479438D01*
X48096000Y15521895D01*
X48096000Y16663105D01*
X48100181Y16705562D01*
X48110774Y16740481D01*
X48127976Y16772663D01*
X48151127Y16800873D01*
X48179337Y16824024D01*
X48211519Y16841226D01*
X48246438Y16851819D01*
X48288895Y16856000D01*
X49755105Y16856000D01*
X49797562Y16851819D01*
G37*
G36*
X26430562Y18701819D02*
G01*
X26465481Y18691226D01*
X26497663Y18674024D01*
X26525873Y18650873D01*
X26549024Y18622663D01*
X26566226Y18590481D01*
X26576819Y18555562D01*
X26581000Y18513105D01*
X26581000Y17046895D01*
X26576819Y17004438D01*
X26566226Y16969519D01*
X26549024Y16937337D01*
X26525873Y16909127D01*
X26497663Y16885976D01*
X26465481Y16868774D01*
X26430562Y16858181D01*
X26388105Y16854000D01*
X25246895Y16854000D01*
X25204438Y16858181D01*
X25169519Y16868774D01*
X25137337Y16885976D01*
X25109127Y16909127D01*
X25085976Y16937337D01*
X25068774Y16969519D01*
X25058181Y17004438D01*
X25054000Y17046895D01*
X25054000Y18513105D01*
X25058181Y18555562D01*
X25068774Y18590481D01*
X25085976Y18622663D01*
X25109127Y18650873D01*
X25137337Y18674024D01*
X25169519Y18691226D01*
X25204438Y18701819D01*
X25246895Y18706000D01*
X26388105Y18706000D01*
X26430562Y18701819D01*
G37*
G36*
X19445562Y18701819D02*
G01*
X19480481Y18691226D01*
X19512663Y18674024D01*
X19540873Y18650873D01*
X19564024Y18622663D01*
X19581226Y18590481D01*
X19591819Y18555562D01*
X19596000Y18513105D01*
X19596000Y17046895D01*
X19591819Y17004438D01*
X19581226Y16969519D01*
X19564024Y16937337D01*
X19540873Y16909127D01*
X19512663Y16885976D01*
X19480481Y16868774D01*
X19445562Y16858181D01*
X19403105Y16854000D01*
X18261895Y16854000D01*
X18219438Y16858181D01*
X18184519Y16868774D01*
X18152337Y16885976D01*
X18124127Y16909127D01*
X18100976Y16937337D01*
X18083774Y16969519D01*
X18073181Y17004438D01*
X18069000Y17046895D01*
X18069000Y18513105D01*
X18073181Y18555562D01*
X18083774Y18590481D01*
X18100976Y18622663D01*
X18124127Y18650873D01*
X18152337Y18674024D01*
X18184519Y18691226D01*
X18219438Y18701819D01*
X18261895Y18706000D01*
X19403105Y18706000D01*
X19445562Y18701819D01*
G37*
G36*
X22420562Y18701819D02*
G01*
X22455481Y18691226D01*
X22487663Y18674024D01*
X22515873Y18650873D01*
X22539024Y18622663D01*
X22556226Y18590481D01*
X22566819Y18555562D01*
X22571000Y18513105D01*
X22571000Y17046895D01*
X22566819Y17004438D01*
X22556226Y16969519D01*
X22539024Y16937337D01*
X22515873Y16909127D01*
X22487663Y16885976D01*
X22455481Y16868774D01*
X22420562Y16858181D01*
X22378105Y16854000D01*
X21236895Y16854000D01*
X21194438Y16858181D01*
X21159519Y16868774D01*
X21127337Y16885976D01*
X21099127Y16909127D01*
X21075976Y16937337D01*
X21058774Y16969519D01*
X21048181Y17004438D01*
X21044000Y17046895D01*
X21044000Y18513105D01*
X21048181Y18555562D01*
X21058774Y18590481D01*
X21075976Y18622663D01*
X21099127Y18650873D01*
X21127337Y18674024D01*
X21159519Y18691226D01*
X21194438Y18701819D01*
X21236895Y18706000D01*
X22378105Y18706000D01*
X22420562Y18701819D01*
G37*
G36*
X29405562Y18701819D02*
G01*
X29440481Y18691226D01*
X29472663Y18674024D01*
X29500873Y18650873D01*
X29524024Y18622663D01*
X29541226Y18590481D01*
X29551819Y18555562D01*
X29556000Y18513105D01*
X29556000Y17046895D01*
X29551819Y17004438D01*
X29541226Y16969519D01*
X29524024Y16937337D01*
X29500873Y16909127D01*
X29472663Y16885976D01*
X29440481Y16868774D01*
X29405562Y16858181D01*
X29363105Y16854000D01*
X28221895Y16854000D01*
X28179438Y16858181D01*
X28144519Y16868774D01*
X28112337Y16885976D01*
X28084127Y16909127D01*
X28060976Y16937337D01*
X28043774Y16969519D01*
X28033181Y17004438D01*
X28029000Y17046895D01*
X28029000Y18513105D01*
X28033181Y18555562D01*
X28043774Y18590481D01*
X28060976Y18622663D01*
X28084127Y18650873D01*
X28112337Y18674024D01*
X28144519Y18691226D01*
X28179438Y18701819D01*
X28221895Y18706000D01*
X29363105Y18706000D01*
X29405562Y18701819D01*
G37*
G36*
X55892000Y16879000D02*
G01*
X54090000Y16879000D01*
X54090000Y18681000D01*
X55892000Y18681000D01*
X55892000Y16879000D01*
G37*
G36*
X14718512Y25534073D02*
G01*
X14867812Y25504376D01*
X15031784Y25436456D01*
X15179354Y25337853D01*
X15304853Y25212354D01*
X15403456Y25064784D01*
X15471376Y24900812D01*
X15506000Y24726741D01*
X15506000Y24549259D01*
X15471376Y24375188D01*
X15403456Y24211216D01*
X15304853Y24063646D01*
X15179354Y23938147D01*
X15031784Y23839544D01*
X14867812Y23771624D01*
X14718512Y23741927D01*
X14693742Y23737000D01*
X14516258Y23737000D01*
X14491488Y23741927D01*
X14342188Y23771624D01*
X14178216Y23839544D01*
X14030646Y23938147D01*
X13905147Y24063646D01*
X13806544Y24211216D01*
X13738624Y24375188D01*
X13704000Y24549259D01*
X13704000Y24726741D01*
X13738624Y24900812D01*
X13806544Y25064784D01*
X13905147Y25212354D01*
X14030646Y25337853D01*
X14178216Y25436456D01*
X14342188Y25504376D01*
X14491488Y25534073D01*
X14516258Y25539000D01*
X14693742Y25539000D01*
X14718512Y25534073D01*
G37*
G36*
X4711000Y23737000D02*
G01*
X2909000Y23737000D01*
X2909000Y25539000D01*
X4711000Y25539000D01*
X4711000Y23737000D01*
G37*
G36*
X19798512Y25534073D02*
G01*
X19947812Y25504376D01*
X20111784Y25436456D01*
X20259354Y25337853D01*
X20384853Y25212354D01*
X20483456Y25064784D01*
X20551376Y24900812D01*
X20586000Y24726741D01*
X20586000Y24549259D01*
X20551376Y24375188D01*
X20483456Y24211216D01*
X20384853Y24063646D01*
X20259354Y23938147D01*
X20111784Y23839544D01*
X19947812Y23771624D01*
X19798512Y23741927D01*
X19773742Y23737000D01*
X19596258Y23737000D01*
X19571488Y23741927D01*
X19422188Y23771624D01*
X19258216Y23839544D01*
X19110646Y23938147D01*
X18985147Y24063646D01*
X18886544Y24211216D01*
X18818624Y24375188D01*
X18784000Y24549259D01*
X18784000Y24726741D01*
X18818624Y24900812D01*
X18886544Y25064784D01*
X18985147Y25212354D01*
X19110646Y25337853D01*
X19258216Y25436456D01*
X19422188Y25504376D01*
X19571488Y25534073D01*
X19596258Y25539000D01*
X19773742Y25539000D01*
X19798512Y25534073D01*
G37*
G36*
X17258512Y25534073D02*
G01*
X17407812Y25504376D01*
X17571784Y25436456D01*
X17719354Y25337853D01*
X17844853Y25212354D01*
X17943456Y25064784D01*
X18011376Y24900812D01*
X18046000Y24726741D01*
X18046000Y24549259D01*
X18011376Y24375188D01*
X17943456Y24211216D01*
X17844853Y24063646D01*
X17719354Y23938147D01*
X17571784Y23839544D01*
X17407812Y23771624D01*
X17258512Y23741927D01*
X17233742Y23737000D01*
X17056258Y23737000D01*
X17031488Y23741927D01*
X16882188Y23771624D01*
X16718216Y23839544D01*
X16570646Y23938147D01*
X16445147Y24063646D01*
X16346544Y24211216D01*
X16278624Y24375188D01*
X16244000Y24549259D01*
X16244000Y24726741D01*
X16278624Y24900812D01*
X16346544Y25064784D01*
X16445147Y25212354D01*
X16570646Y25337853D01*
X16718216Y25436456D01*
X16882188Y25504376D01*
X17031488Y25534073D01*
X17056258Y25539000D01*
X17233742Y25539000D01*
X17258512Y25534073D01*
G37*
G36*
X9003512Y25534073D02*
G01*
X9152812Y25504376D01*
X9316784Y25436456D01*
X9464354Y25337853D01*
X9589853Y25212354D01*
X9688456Y25064784D01*
X9756376Y24900812D01*
X9791000Y24726741D01*
X9791000Y24549259D01*
X9756376Y24375188D01*
X9688456Y24211216D01*
X9589853Y24063646D01*
X9464354Y23938147D01*
X9316784Y23839544D01*
X9152812Y23771624D01*
X9003512Y23741927D01*
X8978742Y23737000D01*
X8801258Y23737000D01*
X8776488Y23741927D01*
X8627188Y23771624D01*
X8463216Y23839544D01*
X8315646Y23938147D01*
X8190147Y24063646D01*
X8091544Y24211216D01*
X8023624Y24375188D01*
X7989000Y24549259D01*
X7989000Y24726741D01*
X8023624Y24900812D01*
X8091544Y25064784D01*
X8190147Y25212354D01*
X8315646Y25337853D01*
X8463216Y25436456D01*
X8627188Y25504376D01*
X8776488Y25534073D01*
X8801258Y25539000D01*
X8978742Y25539000D01*
X9003512Y25534073D01*
G37*
G36*
X6463512Y25534073D02*
G01*
X6612812Y25504376D01*
X6776784Y25436456D01*
X6924354Y25337853D01*
X7049853Y25212354D01*
X7148456Y25064784D01*
X7216376Y24900812D01*
X7251000Y24726741D01*
X7251000Y24549259D01*
X7216376Y24375188D01*
X7148456Y24211216D01*
X7049853Y24063646D01*
X6924354Y23938147D01*
X6776784Y23839544D01*
X6612812Y23771624D01*
X6463512Y23741927D01*
X6438742Y23737000D01*
X6261258Y23737000D01*
X6236488Y23741927D01*
X6087188Y23771624D01*
X5923216Y23839544D01*
X5775646Y23938147D01*
X5650147Y24063646D01*
X5551544Y24211216D01*
X5483624Y24375188D01*
X5449000Y24549259D01*
X5449000Y24726741D01*
X5483624Y24900812D01*
X5551544Y25064784D01*
X5650147Y25212354D01*
X5775646Y25337853D01*
X5923216Y25436456D01*
X6087188Y25504376D01*
X6236488Y25534073D01*
X6261258Y25539000D01*
X6438742Y25539000D01*
X6463512Y25534073D01*
G37*
G36*
X25666000Y23737000D02*
G01*
X23864000Y23737000D01*
X23864000Y25539000D01*
X25666000Y25539000D01*
X25666000Y23737000D01*
G37*
G36*
X22338512Y25534073D02*
G01*
X22487812Y25504376D01*
X22651784Y25436456D01*
X22799354Y25337853D01*
X22924853Y25212354D01*
X23023456Y25064784D01*
X23091376Y24900812D01*
X23126000Y24726741D01*
X23126000Y24549259D01*
X23091376Y24375188D01*
X23023456Y24211216D01*
X22924853Y24063646D01*
X22799354Y23938147D01*
X22651784Y23839544D01*
X22487812Y23771624D01*
X22338512Y23741927D01*
X22313742Y23737000D01*
X22136258Y23737000D01*
X22111488Y23741927D01*
X21962188Y23771624D01*
X21798216Y23839544D01*
X21650646Y23938147D01*
X21525147Y24063646D01*
X21426544Y24211216D01*
X21358624Y24375188D01*
X21324000Y24549259D01*
X21324000Y24726741D01*
X21358624Y24900812D01*
X21426544Y25064784D01*
X21525147Y25212354D01*
X21650646Y25337853D01*
X21798216Y25436456D01*
X21962188Y25504376D01*
X22111488Y25534073D01*
X22136258Y25539000D01*
X22313742Y25539000D01*
X22338512Y25534073D01*
G37*
M02*
