%TF.GenerationSoftware,KiCad,Pcbnew,5.1.4-3.fc31*%
%TF.CreationDate,2019-11-03T17:38:08+01:00*%
%TF.ProjectId,ft232rl_converter_v2,66743233-3272-46c5-9f63-6f6e76657274,rev?*%
%TF.SameCoordinates,PX4d83c00PY525bfc0*%
%TF.FileFunction,Other,Fab,Top*%
%FSLAX46Y46*%
G04 Gerber Fmt 4.6, Leading zero omitted, Abs format (unit mm)*
G04 Created by KiCad (PCBNEW 5.1.4-3.fc31) date 2019-11-03 17:38:08*
%MOMM*%
%LPD*%
G04 APERTURE LIST*
%ADD10C,0.100000*%
%ADD11C,0.150000*%
%ADD12C,0.120000*%
%ADD13C,0.080000*%
G04 APERTURE END LIST*
D10*
%TO.C,J1*%
X-110000Y15950000D02*
X-110000Y9450000D01*
X-810000Y16450000D02*
X4190000Y16450000D01*
X4190000Y16450000D02*
X4190000Y8950000D01*
X4190000Y8950000D02*
X-810000Y8950000D01*
X-810000Y8950000D02*
X-810000Y16450000D01*
%TO.C,C1*%
X18720000Y13500000D02*
X21920000Y13500000D01*
X18720000Y11900000D02*
X18720000Y13500000D01*
X21920000Y11900000D02*
X18720000Y11900000D01*
X21920000Y13500000D02*
X21920000Y11900000D01*
%TO.C,C2*%
X10630000Y11100000D02*
X10630000Y14300000D01*
X12230000Y11100000D02*
X10630000Y11100000D01*
X12230000Y14300000D02*
X12230000Y11100000D01*
X10630000Y14300000D02*
X12230000Y14300000D01*
%TO.C,C3*%
X28905000Y11900000D02*
X25705000Y11900000D01*
X28905000Y13500000D02*
X28905000Y11900000D01*
X25705000Y13500000D02*
X28905000Y13500000D01*
X25705000Y11900000D02*
X25705000Y13500000D01*
%TO.C,C4*%
X49822000Y16205000D02*
X49822000Y13005000D01*
X48222000Y16205000D02*
X49822000Y16205000D01*
X48222000Y13005000D02*
X48222000Y16205000D01*
X49822000Y13005000D02*
X48222000Y13005000D01*
%TO.C,D1*%
X21539000Y4534000D02*
X21539000Y6134000D01*
X18339000Y4534000D02*
X21539000Y4534000D01*
X18339000Y5734000D02*
X18339000Y4534000D01*
X18739000Y6134000D02*
X18339000Y5734000D01*
X21539000Y6134000D02*
X18739000Y6134000D01*
%TO.C,D2*%
X24054000Y6134000D02*
X24054000Y4534000D01*
X27254000Y6134000D02*
X24054000Y6134000D01*
X27254000Y4934000D02*
X27254000Y6134000D01*
X26854000Y4534000D02*
X27254000Y4934000D01*
X24054000Y4534000D02*
X26854000Y4534000D01*
%TO.C,FB1*%
X18720000Y18580000D02*
X21920000Y18580000D01*
X18720000Y16980000D02*
X18720000Y18580000D01*
X21920000Y16980000D02*
X18720000Y16980000D01*
X21920000Y18580000D02*
X21920000Y16980000D01*
%TO.C,J2*%
X59031000Y7300000D02*
X65031000Y7300000D01*
X65031000Y7940000D02*
X65031000Y7300000D01*
X59031000Y7940000D02*
X65031000Y7940000D01*
X54671000Y7300000D02*
X56491000Y7300000D01*
X54671000Y7940000D02*
X54671000Y7300000D01*
X54671000Y7940000D02*
X56491000Y7940000D01*
X59031000Y9840000D02*
X65031000Y9840000D01*
X65031000Y10480000D02*
X65031000Y9840000D01*
X59031000Y10480000D02*
X65031000Y10480000D01*
X54671000Y9840000D02*
X56491000Y9840000D01*
X54671000Y10480000D02*
X54671000Y9840000D01*
X54671000Y10480000D02*
X56491000Y10480000D01*
X59031000Y12380000D02*
X65031000Y12380000D01*
X65031000Y13020000D02*
X65031000Y12380000D01*
X59031000Y13020000D02*
X65031000Y13020000D01*
X54671000Y12380000D02*
X56491000Y12380000D01*
X54671000Y13020000D02*
X54671000Y12380000D01*
X54671000Y13020000D02*
X56491000Y13020000D01*
X59031000Y14920000D02*
X65031000Y14920000D01*
X65031000Y15560000D02*
X65031000Y14920000D01*
X59031000Y15560000D02*
X65031000Y15560000D01*
X54671000Y14920000D02*
X56491000Y14920000D01*
X54671000Y15560000D02*
X54671000Y14920000D01*
X54671000Y15560000D02*
X56491000Y15560000D01*
X59031000Y17460000D02*
X65031000Y17460000D01*
X65031000Y18100000D02*
X65031000Y17460000D01*
X59031000Y18100000D02*
X65031000Y18100000D01*
X54671000Y17460000D02*
X56491000Y17460000D01*
X54671000Y18100000D02*
X54671000Y17460000D01*
X54671000Y18100000D02*
X56491000Y18100000D01*
X56491000Y18415000D02*
X57126000Y19050000D01*
X56491000Y6350000D02*
X56491000Y18415000D01*
X59031000Y6350000D02*
X56491000Y6350000D01*
X59031000Y19050000D02*
X59031000Y6350000D01*
X57126000Y19050000D02*
X59031000Y19050000D01*
%TO.C,J3*%
X25400000Y25908000D02*
X26035000Y25273000D01*
X13335000Y25908000D02*
X25400000Y25908000D01*
X13335000Y23368000D02*
X13335000Y25908000D01*
X26035000Y23368000D02*
X13335000Y23368000D01*
X26035000Y25273000D02*
X26035000Y23368000D01*
%TO.C,JP1*%
X3175000Y23368000D02*
X2540000Y24003000D01*
X10160000Y23368000D02*
X3175000Y23368000D01*
X10160000Y25908000D02*
X10160000Y23368000D01*
X2540000Y25908000D02*
X10160000Y25908000D01*
X2540000Y24003000D02*
X2540000Y25908000D01*
%TO.C,R1*%
X13859000Y5934000D02*
X15859000Y5934000D01*
X13859000Y4734000D02*
X13859000Y5934000D01*
X15859000Y4734000D02*
X13859000Y4734000D01*
X15859000Y5934000D02*
X15859000Y4734000D01*
%TO.C,R2*%
X31734000Y4734000D02*
X29734000Y4734000D01*
X31734000Y5934000D02*
X31734000Y4734000D01*
X29734000Y5934000D02*
X31734000Y5934000D01*
X29734000Y4734000D02*
X29734000Y5934000D01*
%TO.C,R3*%
X28905000Y16980000D02*
X25705000Y16980000D01*
X28905000Y18580000D02*
X28905000Y16980000D01*
X25705000Y18580000D02*
X28905000Y18580000D01*
X25705000Y16980000D02*
X25705000Y18580000D01*
D11*
%TO.C,U1*%
X43255000Y11965000D02*
X42255000Y10965000D01*
X43255000Y21165000D02*
X43255000Y11965000D01*
X37955000Y21165000D02*
X43255000Y21165000D01*
X37955000Y10965000D02*
X37955000Y21165000D01*
X42255000Y10965000D02*
X37955000Y10965000D01*
D10*
%TO.C,Y1*%
X43540000Y3080000D02*
G75*
G03X43540000Y7080000I0J2000000D01*
G01*
X37540000Y3080000D02*
G75*
G02X37540000Y7080000I0J2000000D01*
G01*
X43665000Y2755000D02*
G75*
G03X43665000Y7405000I0J2325000D01*
G01*
X37415000Y2755000D02*
G75*
G02X37415000Y7405000I0J2325000D01*
G01*
X37540000Y3080000D02*
X43540000Y3080000D01*
X37540000Y7080000D02*
X43540000Y7080000D01*
X37415000Y2755000D02*
X43665000Y2755000D01*
X37415000Y7405000D02*
X43665000Y7405000D01*
%TD*%
%TO.C,J1*%
D11*
X7437380Y8509524D02*
X6437380Y8509524D01*
X7437380Y9080953D02*
X6865952Y8652381D01*
X6437380Y9080953D02*
X7008809Y8509524D01*
X7151666Y9461905D02*
X7151666Y9938096D01*
X7437380Y9366667D02*
X6437380Y9700000D01*
X7437380Y10033334D01*
X6913571Y10700000D02*
X6961190Y10842858D01*
X7008809Y10890477D01*
X7104047Y10938096D01*
X7246904Y10938096D01*
X7342142Y10890477D01*
X7389761Y10842858D01*
X7437380Y10747620D01*
X7437380Y10366667D01*
X6437380Y10366667D01*
X6437380Y10700000D01*
X6485000Y10795239D01*
X6532619Y10842858D01*
X6627857Y10890477D01*
X6723095Y10890477D01*
X6818333Y10842858D01*
X6865952Y10795239D01*
X6913571Y10700000D01*
X6913571Y10366667D01*
X7056428Y11366667D02*
X7056428Y12128572D01*
X6437380Y12795239D02*
X6437380Y12890477D01*
X6485000Y12985715D01*
X6532619Y13033334D01*
X6627857Y13080953D01*
X6818333Y13128572D01*
X7056428Y13128572D01*
X7246904Y13080953D01*
X7342142Y13033334D01*
X7389761Y12985715D01*
X7437380Y12890477D01*
X7437380Y12795239D01*
X7389761Y12700000D01*
X7342142Y12652381D01*
X7246904Y12604762D01*
X7056428Y12557143D01*
X6818333Y12557143D01*
X6627857Y12604762D01*
X6532619Y12652381D01*
X6485000Y12700000D01*
X6437380Y12795239D01*
X6437380Y13747620D02*
X6437380Y13842858D01*
X6485000Y13938096D01*
X6532619Y13985715D01*
X6627857Y14033334D01*
X6818333Y14080953D01*
X7056428Y14080953D01*
X7246904Y14033334D01*
X7342142Y13985715D01*
X7389761Y13938096D01*
X7437380Y13842858D01*
X7437380Y13747620D01*
X7389761Y13652381D01*
X7342142Y13604762D01*
X7246904Y13557143D01*
X7056428Y13509524D01*
X6818333Y13509524D01*
X6627857Y13557143D01*
X6532619Y13604762D01*
X6485000Y13652381D01*
X6437380Y13747620D01*
X6770714Y14938096D02*
X7437380Y14938096D01*
X6389761Y14700000D02*
X7104047Y14461905D01*
X7104047Y15080953D01*
X6532619Y15414286D02*
X6485000Y15461905D01*
X6437380Y15557143D01*
X6437380Y15795239D01*
X6485000Y15890477D01*
X6532619Y15938096D01*
X6627857Y15985715D01*
X6723095Y15985715D01*
X6865952Y15938096D01*
X7437380Y15366667D01*
X7437380Y15985715D01*
X6532619Y16366667D02*
X6485000Y16414286D01*
X6437380Y16509524D01*
X6437380Y16747620D01*
X6485000Y16842858D01*
X6532619Y16890477D01*
X6627857Y16938096D01*
X6723095Y16938096D01*
X6865952Y16890477D01*
X7437380Y16319048D01*
X7437380Y16938096D01*
X792380Y12366667D02*
X1506666Y12366667D01*
X1649523Y12319048D01*
X1744761Y12223810D01*
X1792380Y12080953D01*
X1792380Y11985715D01*
X1792380Y13366667D02*
X1792380Y12795239D01*
X1792380Y13080953D02*
X792380Y13080953D01*
X935238Y12985715D01*
X1030476Y12890477D01*
X1078095Y12795239D01*
%TO.C,C1*%
X15867142Y12247620D02*
X15295714Y12247620D01*
X15581428Y12247620D02*
X15581428Y13247620D01*
X15486190Y13104762D01*
X15390952Y13009524D01*
X15295714Y12961905D01*
X16486190Y13247620D02*
X16581428Y13247620D01*
X16676666Y13200000D01*
X16724285Y13152381D01*
X16771904Y13057143D01*
X16819523Y12866667D01*
X16819523Y12628572D01*
X16771904Y12438096D01*
X16724285Y12342858D01*
X16676666Y12295239D01*
X16581428Y12247620D01*
X16486190Y12247620D01*
X16390952Y12295239D01*
X16343333Y12342858D01*
X16295714Y12438096D01*
X16248095Y12628572D01*
X16248095Y12866667D01*
X16295714Y13057143D01*
X16343333Y13152381D01*
X16390952Y13200000D01*
X16486190Y13247620D01*
X17676666Y12914286D02*
X17676666Y12247620D01*
X17248095Y12914286D02*
X17248095Y12390477D01*
X17295714Y12295239D01*
X17390952Y12247620D01*
X17533809Y12247620D01*
X17629047Y12295239D01*
X17676666Y12342858D01*
D12*
X20186666Y12414286D02*
X20148571Y12376191D01*
X20034285Y12338096D01*
X19958095Y12338096D01*
X19843809Y12376191D01*
X19767619Y12452381D01*
X19729523Y12528572D01*
X19691428Y12680953D01*
X19691428Y12795239D01*
X19729523Y12947620D01*
X19767619Y13023810D01*
X19843809Y13100000D01*
X19958095Y13138096D01*
X20034285Y13138096D01*
X20148571Y13100000D01*
X20186666Y13061905D01*
X20948571Y12338096D02*
X20491428Y12338096D01*
X20720000Y12338096D02*
X20720000Y13138096D01*
X20643809Y13023810D01*
X20567619Y12947620D01*
X20491428Y12909524D01*
%TO.C,C2*%
D11*
X10062380Y11771429D02*
X10062380Y11200000D01*
X10062380Y11485715D02*
X9062380Y11485715D01*
X9205238Y11390477D01*
X9300476Y11295239D01*
X9348095Y11200000D01*
X9062380Y12390477D02*
X9062380Y12485715D01*
X9110000Y12580953D01*
X9157619Y12628572D01*
X9252857Y12676191D01*
X9443333Y12723810D01*
X9681428Y12723810D01*
X9871904Y12676191D01*
X9967142Y12628572D01*
X10014761Y12580953D01*
X10062380Y12485715D01*
X10062380Y12390477D01*
X10014761Y12295239D01*
X9967142Y12247620D01*
X9871904Y12200000D01*
X9681428Y12152381D01*
X9443333Y12152381D01*
X9252857Y12200000D01*
X9157619Y12247620D01*
X9110000Y12295239D01*
X9062380Y12390477D01*
X9395714Y13152381D02*
X10062380Y13152381D01*
X9490952Y13152381D02*
X9443333Y13200000D01*
X9395714Y13295239D01*
X9395714Y13438096D01*
X9443333Y13533334D01*
X9538571Y13580953D01*
X10062380Y13580953D01*
X9395714Y13914286D02*
X9395714Y14295239D01*
X10062380Y14057143D02*
X9205238Y14057143D01*
X9110000Y14104762D01*
X9062380Y14200000D01*
X9062380Y14295239D01*
D12*
X11715714Y12566667D02*
X11753809Y12528572D01*
X11791904Y12414286D01*
X11791904Y12338096D01*
X11753809Y12223810D01*
X11677619Y12147620D01*
X11601428Y12109524D01*
X11449047Y12071429D01*
X11334761Y12071429D01*
X11182380Y12109524D01*
X11106190Y12147620D01*
X11030000Y12223810D01*
X10991904Y12338096D01*
X10991904Y12414286D01*
X11030000Y12528572D01*
X11068095Y12566667D01*
X11068095Y12871429D02*
X11030000Y12909524D01*
X10991904Y12985715D01*
X10991904Y13176191D01*
X11030000Y13252381D01*
X11068095Y13290477D01*
X11144285Y13328572D01*
X11220476Y13328572D01*
X11334761Y13290477D01*
X11791904Y12833334D01*
X11791904Y13328572D01*
%TO.C,C3*%
D11*
X30599238Y12247620D02*
X30027809Y12247620D01*
X30313523Y12247620D02*
X30313523Y13247620D01*
X30218285Y13104762D01*
X30123047Y13009524D01*
X30027809Y12961905D01*
X31218285Y13247620D02*
X31313523Y13247620D01*
X31408761Y13200000D01*
X31456380Y13152381D01*
X31504000Y13057143D01*
X31551619Y12866667D01*
X31551619Y12628572D01*
X31504000Y12438096D01*
X31456380Y12342858D01*
X31408761Y12295239D01*
X31313523Y12247620D01*
X31218285Y12247620D01*
X31123047Y12295239D01*
X31075428Y12342858D01*
X31027809Y12438096D01*
X30980190Y12628572D01*
X30980190Y12866667D01*
X31027809Y13057143D01*
X31075428Y13152381D01*
X31123047Y13200000D01*
X31218285Y13247620D01*
X32170666Y13247620D02*
X32265904Y13247620D01*
X32361142Y13200000D01*
X32408761Y13152381D01*
X32456380Y13057143D01*
X32504000Y12866667D01*
X32504000Y12628572D01*
X32456380Y12438096D01*
X32408761Y12342858D01*
X32361142Y12295239D01*
X32265904Y12247620D01*
X32170666Y12247620D01*
X32075428Y12295239D01*
X32027809Y12342858D01*
X31980190Y12438096D01*
X31932571Y12628572D01*
X31932571Y12866667D01*
X31980190Y13057143D01*
X32027809Y13152381D01*
X32075428Y13200000D01*
X32170666Y13247620D01*
X32932571Y12914286D02*
X32932571Y12247620D01*
X32932571Y12819048D02*
X32980190Y12866667D01*
X33075428Y12914286D01*
X33218285Y12914286D01*
X33313523Y12866667D01*
X33361142Y12771429D01*
X33361142Y12247620D01*
X33694476Y12914286D02*
X34075428Y12914286D01*
X33837333Y12247620D02*
X33837333Y13104762D01*
X33884952Y13200000D01*
X33980190Y13247620D01*
X34075428Y13247620D01*
D12*
X27171666Y12414286D02*
X27133571Y12376191D01*
X27019285Y12338096D01*
X26943095Y12338096D01*
X26828809Y12376191D01*
X26752619Y12452381D01*
X26714523Y12528572D01*
X26676428Y12680953D01*
X26676428Y12795239D01*
X26714523Y12947620D01*
X26752619Y13023810D01*
X26828809Y13100000D01*
X26943095Y13138096D01*
X27019285Y13138096D01*
X27133571Y13100000D01*
X27171666Y13061905D01*
X27438333Y13138096D02*
X27933571Y13138096D01*
X27666904Y12833334D01*
X27781190Y12833334D01*
X27857380Y12795239D01*
X27895476Y12757143D01*
X27933571Y12680953D01*
X27933571Y12490477D01*
X27895476Y12414286D01*
X27857380Y12376191D01*
X27781190Y12338096D01*
X27552619Y12338096D01*
X27476428Y12376191D01*
X27438333Y12414286D01*
%TO.C,C4*%
D11*
X51294380Y13200239D02*
X51294380Y12628810D01*
X51294380Y12914524D02*
X50294380Y12914524D01*
X50437238Y12819286D01*
X50532476Y12724048D01*
X50580095Y12628810D01*
X50294380Y13819286D02*
X50294380Y13914524D01*
X50342000Y14009762D01*
X50389619Y14057381D01*
X50484857Y14105000D01*
X50675333Y14152620D01*
X50913428Y14152620D01*
X51103904Y14105000D01*
X51199142Y14057381D01*
X51246761Y14009762D01*
X51294380Y13914524D01*
X51294380Y13819286D01*
X51246761Y13724048D01*
X51199142Y13676429D01*
X51103904Y13628810D01*
X50913428Y13581191D01*
X50675333Y13581191D01*
X50484857Y13628810D01*
X50389619Y13676429D01*
X50342000Y13724048D01*
X50294380Y13819286D01*
X50294380Y14771667D02*
X50294380Y14866905D01*
X50342000Y14962143D01*
X50389619Y15009762D01*
X50484857Y15057381D01*
X50675333Y15105000D01*
X50913428Y15105000D01*
X51103904Y15057381D01*
X51199142Y15009762D01*
X51246761Y14962143D01*
X51294380Y14866905D01*
X51294380Y14771667D01*
X51246761Y14676429D01*
X51199142Y14628810D01*
X51103904Y14581191D01*
X50913428Y14533572D01*
X50675333Y14533572D01*
X50484857Y14581191D01*
X50389619Y14628810D01*
X50342000Y14676429D01*
X50294380Y14771667D01*
X50627714Y15533572D02*
X51294380Y15533572D01*
X50722952Y15533572D02*
X50675333Y15581191D01*
X50627714Y15676429D01*
X50627714Y15819286D01*
X50675333Y15914524D01*
X50770571Y15962143D01*
X51294380Y15962143D01*
X50627714Y16295477D02*
X50627714Y16676429D01*
X51294380Y16438334D02*
X50437238Y16438334D01*
X50342000Y16485953D01*
X50294380Y16581191D01*
X50294380Y16676429D01*
D12*
X49307714Y14471667D02*
X49345809Y14433572D01*
X49383904Y14319286D01*
X49383904Y14243096D01*
X49345809Y14128810D01*
X49269619Y14052620D01*
X49193428Y14014524D01*
X49041047Y13976429D01*
X48926761Y13976429D01*
X48774380Y14014524D01*
X48698190Y14052620D01*
X48622000Y14128810D01*
X48583904Y14243096D01*
X48583904Y14319286D01*
X48622000Y14433572D01*
X48660095Y14471667D01*
X48850571Y15157381D02*
X49383904Y15157381D01*
X48545809Y14966905D02*
X49117238Y14776429D01*
X49117238Y15271667D01*
%TO.C,D1*%
X19348523Y4972096D02*
X19348523Y5772096D01*
X19539000Y5772096D01*
X19653285Y5734000D01*
X19729476Y5657810D01*
X19767571Y5581620D01*
X19805666Y5429239D01*
X19805666Y5314953D01*
X19767571Y5162572D01*
X19729476Y5086381D01*
X19653285Y5010191D01*
X19539000Y4972096D01*
X19348523Y4972096D01*
X20567571Y4972096D02*
X20110428Y4972096D01*
X20339000Y4972096D02*
X20339000Y5772096D01*
X20262809Y5657810D01*
X20186619Y5581620D01*
X20110428Y5543524D01*
%TO.C,D2*%
X25063523Y4972096D02*
X25063523Y5772096D01*
X25254000Y5772096D01*
X25368285Y5734000D01*
X25444476Y5657810D01*
X25482571Y5581620D01*
X25520666Y5429239D01*
X25520666Y5314953D01*
X25482571Y5162572D01*
X25444476Y5086381D01*
X25368285Y5010191D01*
X25254000Y4972096D01*
X25063523Y4972096D01*
X25825428Y5695905D02*
X25863523Y5734000D01*
X25939714Y5772096D01*
X26130190Y5772096D01*
X26206380Y5734000D01*
X26244476Y5695905D01*
X26282571Y5619715D01*
X26282571Y5543524D01*
X26244476Y5429239D01*
X25787333Y4972096D01*
X26282571Y4972096D01*
%TO.C,FB1*%
D11*
X3739428Y17327620D02*
X3739428Y18327620D01*
X4310857Y17327620D01*
X4310857Y18327620D01*
X5120380Y17851429D02*
X4787047Y17851429D01*
X4787047Y17327620D02*
X4787047Y18327620D01*
X5263238Y18327620D01*
X5548952Y18327620D02*
X5787047Y17327620D01*
X5977523Y18041905D01*
X6168000Y17327620D01*
X6406095Y18327620D01*
X6691809Y18327620D02*
X7310857Y18327620D01*
X6977523Y17946667D01*
X7120380Y17946667D01*
X7215619Y17899048D01*
X7263238Y17851429D01*
X7310857Y17756191D01*
X7310857Y17518096D01*
X7263238Y17422858D01*
X7215619Y17375239D01*
X7120380Y17327620D01*
X6834666Y17327620D01*
X6739428Y17375239D01*
X6691809Y17422858D01*
X8263238Y17327620D02*
X7691809Y17327620D01*
X7977523Y17327620D02*
X7977523Y18327620D01*
X7882285Y18184762D01*
X7787047Y18089524D01*
X7691809Y18041905D01*
X8644190Y17375239D02*
X8787047Y17327620D01*
X9025142Y17327620D01*
X9120380Y17375239D01*
X9168000Y17422858D01*
X9215619Y17518096D01*
X9215619Y17613334D01*
X9168000Y17708572D01*
X9120380Y17756191D01*
X9025142Y17803810D01*
X8834666Y17851429D01*
X8739428Y17899048D01*
X8691809Y17946667D01*
X8644190Y18041905D01*
X8644190Y18137143D01*
X8691809Y18232381D01*
X8739428Y18280000D01*
X8834666Y18327620D01*
X9072761Y18327620D01*
X9215619Y18280000D01*
X9644190Y17327620D02*
X9644190Y18327620D01*
X10025142Y18327620D01*
X10120380Y18280000D01*
X10168000Y18232381D01*
X10215619Y18137143D01*
X10215619Y17994286D01*
X10168000Y17899048D01*
X10120380Y17851429D01*
X10025142Y17803810D01*
X9644190Y17803810D01*
X11120380Y18327620D02*
X10644190Y18327620D01*
X10596571Y17851429D01*
X10644190Y17899048D01*
X10739428Y17946667D01*
X10977523Y17946667D01*
X11072761Y17899048D01*
X11120380Y17851429D01*
X11168000Y17756191D01*
X11168000Y17518096D01*
X11120380Y17422858D01*
X11072761Y17375239D01*
X10977523Y17327620D01*
X10739428Y17327620D01*
X10644190Y17375239D01*
X10596571Y17422858D01*
X11787047Y18327620D02*
X11882285Y18327620D01*
X11977523Y18280000D01*
X12025142Y18232381D01*
X12072761Y18137143D01*
X12120380Y17946667D01*
X12120380Y17708572D01*
X12072761Y17518096D01*
X12025142Y17422858D01*
X11977523Y17375239D01*
X11882285Y17327620D01*
X11787047Y17327620D01*
X11691809Y17375239D01*
X11644190Y17422858D01*
X11596571Y17518096D01*
X11548952Y17708572D01*
X11548952Y17946667D01*
X11596571Y18137143D01*
X11644190Y18232381D01*
X11691809Y18280000D01*
X11787047Y18327620D01*
X12977523Y18327620D02*
X12787047Y18327620D01*
X12691809Y18280000D01*
X12644190Y18232381D01*
X12548952Y18089524D01*
X12501333Y17899048D01*
X12501333Y17518096D01*
X12548952Y17422858D01*
X12596571Y17375239D01*
X12691809Y17327620D01*
X12882285Y17327620D01*
X12977523Y17375239D01*
X13025142Y17422858D01*
X13072761Y17518096D01*
X13072761Y17756191D01*
X13025142Y17851429D01*
X12977523Y17899048D01*
X12882285Y17946667D01*
X12691809Y17946667D01*
X12596571Y17899048D01*
X12548952Y17851429D01*
X12501333Y17756191D01*
X13406095Y18327620D02*
X14072761Y17327620D01*
X14072761Y18327620D02*
X13406095Y17327620D01*
X14977523Y17327620D02*
X14406095Y17327620D01*
X14691809Y17327620D02*
X14691809Y18327620D01*
X14596571Y18184762D01*
X14501333Y18089524D01*
X14406095Y18041905D01*
X15406095Y17851429D02*
X15739428Y17851429D01*
X15882285Y17327620D02*
X15406095Y17327620D01*
X15406095Y18327620D01*
X15882285Y18327620D01*
X16739428Y17994286D02*
X16739428Y17327620D01*
X16501333Y18375239D02*
X16263238Y17660953D01*
X16882285Y17660953D01*
X17739428Y17327620D02*
X17263238Y17327620D01*
X17263238Y18327620D01*
D12*
X19653333Y17837143D02*
X19386666Y17837143D01*
X19386666Y17418096D02*
X19386666Y18218096D01*
X19767619Y18218096D01*
X20339047Y17837143D02*
X20453333Y17799048D01*
X20491428Y17760953D01*
X20529523Y17684762D01*
X20529523Y17570477D01*
X20491428Y17494286D01*
X20453333Y17456191D01*
X20377142Y17418096D01*
X20072380Y17418096D01*
X20072380Y18218096D01*
X20339047Y18218096D01*
X20415238Y18180000D01*
X20453333Y18141905D01*
X20491428Y18065715D01*
X20491428Y17989524D01*
X20453333Y17913334D01*
X20415238Y17875239D01*
X20339047Y17837143D01*
X20072380Y17837143D01*
X21291428Y17418096D02*
X20834285Y17418096D01*
X21062857Y17418096D02*
X21062857Y18218096D01*
X20986666Y18103810D01*
X20910476Y18027620D01*
X20834285Y17989524D01*
%TO.C,J2*%
D11*
X53157380Y8763524D02*
X52157380Y8763524D01*
X53157380Y9334953D02*
X52585952Y8906381D01*
X52157380Y9334953D02*
X52728809Y8763524D01*
X52871666Y9715905D02*
X52871666Y10192096D01*
X53157380Y9620667D02*
X52157380Y9954000D01*
X53157380Y10287334D01*
X52633571Y10954000D02*
X52681190Y11096858D01*
X52728809Y11144477D01*
X52824047Y11192096D01*
X52966904Y11192096D01*
X53062142Y11144477D01*
X53109761Y11096858D01*
X53157380Y11001620D01*
X53157380Y10620667D01*
X52157380Y10620667D01*
X52157380Y10954000D01*
X52205000Y11049239D01*
X52252619Y11096858D01*
X52347857Y11144477D01*
X52443095Y11144477D01*
X52538333Y11096858D01*
X52585952Y11049239D01*
X52633571Y10954000D01*
X52633571Y10620667D01*
X52776428Y11620667D02*
X52776428Y12382572D01*
X52157380Y13049239D02*
X52157380Y13144477D01*
X52205000Y13239715D01*
X52252619Y13287334D01*
X52347857Y13334953D01*
X52538333Y13382572D01*
X52776428Y13382572D01*
X52966904Y13334953D01*
X53062142Y13287334D01*
X53109761Y13239715D01*
X53157380Y13144477D01*
X53157380Y13049239D01*
X53109761Y12954000D01*
X53062142Y12906381D01*
X52966904Y12858762D01*
X52776428Y12811143D01*
X52538333Y12811143D01*
X52347857Y12858762D01*
X52252619Y12906381D01*
X52205000Y12954000D01*
X52157380Y13049239D01*
X52157380Y14001620D02*
X52157380Y14096858D01*
X52205000Y14192096D01*
X52252619Y14239715D01*
X52347857Y14287334D01*
X52538333Y14334953D01*
X52776428Y14334953D01*
X52966904Y14287334D01*
X53062142Y14239715D01*
X53109761Y14192096D01*
X53157380Y14096858D01*
X53157380Y14001620D01*
X53109761Y13906381D01*
X53062142Y13858762D01*
X52966904Y13811143D01*
X52776428Y13763524D01*
X52538333Y13763524D01*
X52347857Y13811143D01*
X52252619Y13858762D01*
X52205000Y13906381D01*
X52157380Y14001620D01*
X52252619Y14715905D02*
X52205000Y14763524D01*
X52157380Y14858762D01*
X52157380Y15096858D01*
X52205000Y15192096D01*
X52252619Y15239715D01*
X52347857Y15287334D01*
X52443095Y15287334D01*
X52585952Y15239715D01*
X53157380Y14668286D01*
X53157380Y15287334D01*
X52157380Y15906381D02*
X52157380Y16001620D01*
X52205000Y16096858D01*
X52252619Y16144477D01*
X52347857Y16192096D01*
X52538333Y16239715D01*
X52776428Y16239715D01*
X52966904Y16192096D01*
X53062142Y16144477D01*
X53109761Y16096858D01*
X53157380Y16001620D01*
X53157380Y15906381D01*
X53109761Y15811143D01*
X53062142Y15763524D01*
X52966904Y15715905D01*
X52776428Y15668286D01*
X52538333Y15668286D01*
X52347857Y15715905D01*
X52252619Y15763524D01*
X52205000Y15811143D01*
X52157380Y15906381D01*
X52157380Y17144477D02*
X52157380Y16668286D01*
X52633571Y16620667D01*
X52585952Y16668286D01*
X52538333Y16763524D01*
X52538333Y17001620D01*
X52585952Y17096858D01*
X52633571Y17144477D01*
X52728809Y17192096D01*
X52966904Y17192096D01*
X53062142Y17144477D01*
X53109761Y17096858D01*
X53157380Y17001620D01*
X53157380Y16763524D01*
X53109761Y16668286D01*
X53062142Y16620667D01*
X57213380Y12366667D02*
X57927666Y12366667D01*
X58070523Y12319048D01*
X58165761Y12223810D01*
X58213380Y12080953D01*
X58213380Y11985715D01*
X57308619Y12795239D02*
X57261000Y12842858D01*
X57213380Y12938096D01*
X57213380Y13176191D01*
X57261000Y13271429D01*
X57308619Y13319048D01*
X57403857Y13366667D01*
X57499095Y13366667D01*
X57641952Y13319048D01*
X58213380Y12747620D01*
X58213380Y13366667D01*
%TO.C,J3*%
X14986523Y26852620D02*
X14986523Y27852620D01*
X15557952Y26852620D02*
X15129380Y27424048D01*
X15557952Y27852620D02*
X14986523Y27281191D01*
X15938904Y27138334D02*
X16415095Y27138334D01*
X15843666Y26852620D02*
X16177000Y27852620D01*
X16510333Y26852620D01*
X17177000Y27376429D02*
X17319857Y27328810D01*
X17367476Y27281191D01*
X17415095Y27185953D01*
X17415095Y27043096D01*
X17367476Y26947858D01*
X17319857Y26900239D01*
X17224619Y26852620D01*
X16843666Y26852620D01*
X16843666Y27852620D01*
X17177000Y27852620D01*
X17272238Y27805000D01*
X17319857Y27757381D01*
X17367476Y27662143D01*
X17367476Y27566905D01*
X17319857Y27471667D01*
X17272238Y27424048D01*
X17177000Y27376429D01*
X16843666Y27376429D01*
X17843666Y27233572D02*
X18605571Y27233572D01*
X19272238Y27852620D02*
X19367476Y27852620D01*
X19462714Y27805000D01*
X19510333Y27757381D01*
X19557952Y27662143D01*
X19605571Y27471667D01*
X19605571Y27233572D01*
X19557952Y27043096D01*
X19510333Y26947858D01*
X19462714Y26900239D01*
X19367476Y26852620D01*
X19272238Y26852620D01*
X19177000Y26900239D01*
X19129380Y26947858D01*
X19081761Y27043096D01*
X19034142Y27233572D01*
X19034142Y27471667D01*
X19081761Y27662143D01*
X19129380Y27757381D01*
X19177000Y27805000D01*
X19272238Y27852620D01*
X20224619Y27852620D02*
X20319857Y27852620D01*
X20415095Y27805000D01*
X20462714Y27757381D01*
X20510333Y27662143D01*
X20557952Y27471667D01*
X20557952Y27233572D01*
X20510333Y27043096D01*
X20462714Y26947858D01*
X20415095Y26900239D01*
X20319857Y26852620D01*
X20224619Y26852620D01*
X20129380Y26900239D01*
X20081761Y26947858D01*
X20034142Y27043096D01*
X19986523Y27233572D01*
X19986523Y27471667D01*
X20034142Y27662143D01*
X20081761Y27757381D01*
X20129380Y27805000D01*
X20224619Y27852620D01*
X21510333Y26852620D02*
X20938904Y26852620D01*
X21224619Y26852620D02*
X21224619Y27852620D01*
X21129380Y27709762D01*
X21034142Y27614524D01*
X20938904Y27566905D01*
X21986523Y26852620D02*
X22177000Y26852620D01*
X22272238Y26900239D01*
X22319857Y26947858D01*
X22415095Y27090715D01*
X22462714Y27281191D01*
X22462714Y27662143D01*
X22415095Y27757381D01*
X22367476Y27805000D01*
X22272238Y27852620D01*
X22081761Y27852620D01*
X21986523Y27805000D01*
X21938904Y27757381D01*
X21891285Y27662143D01*
X21891285Y27424048D01*
X21938904Y27328810D01*
X21986523Y27281191D01*
X22081761Y27233572D01*
X22272238Y27233572D01*
X22367476Y27281191D01*
X22415095Y27328810D01*
X22462714Y27424048D01*
X22843666Y27757381D02*
X22891285Y27805000D01*
X22986523Y27852620D01*
X23224619Y27852620D01*
X23319857Y27805000D01*
X23367476Y27757381D01*
X23415095Y27662143D01*
X23415095Y27566905D01*
X23367476Y27424048D01*
X22796047Y26852620D01*
X23415095Y26852620D01*
X19351666Y25185620D02*
X19351666Y24471334D01*
X19304047Y24328477D01*
X19208809Y24233239D01*
X19065952Y24185620D01*
X18970714Y24185620D01*
X19732619Y25185620D02*
X20351666Y25185620D01*
X20018333Y24804667D01*
X20161190Y24804667D01*
X20256428Y24757048D01*
X20304047Y24709429D01*
X20351666Y24614191D01*
X20351666Y24376096D01*
X20304047Y24280858D01*
X20256428Y24233239D01*
X20161190Y24185620D01*
X19875476Y24185620D01*
X19780238Y24233239D01*
X19732619Y24280858D01*
%TO.C,JP1*%
X2159523Y26852620D02*
X2159523Y27852620D01*
X2730952Y26852620D02*
X2302380Y27424048D01*
X2730952Y27852620D02*
X2159523Y27281191D01*
X3111904Y27138334D02*
X3588095Y27138334D01*
X3016666Y26852620D02*
X3350000Y27852620D01*
X3683333Y26852620D01*
X4350000Y27376429D02*
X4492857Y27328810D01*
X4540476Y27281191D01*
X4588095Y27185953D01*
X4588095Y27043096D01*
X4540476Y26947858D01*
X4492857Y26900239D01*
X4397619Y26852620D01*
X4016666Y26852620D01*
X4016666Y27852620D01*
X4350000Y27852620D01*
X4445238Y27805000D01*
X4492857Y27757381D01*
X4540476Y27662143D01*
X4540476Y27566905D01*
X4492857Y27471667D01*
X4445238Y27424048D01*
X4350000Y27376429D01*
X4016666Y27376429D01*
X5016666Y27233572D02*
X5778571Y27233572D01*
X6445238Y27852620D02*
X6540476Y27852620D01*
X6635714Y27805000D01*
X6683333Y27757381D01*
X6730952Y27662143D01*
X6778571Y27471667D01*
X6778571Y27233572D01*
X6730952Y27043096D01*
X6683333Y26947858D01*
X6635714Y26900239D01*
X6540476Y26852620D01*
X6445238Y26852620D01*
X6350000Y26900239D01*
X6302380Y26947858D01*
X6254761Y27043096D01*
X6207142Y27233572D01*
X6207142Y27471667D01*
X6254761Y27662143D01*
X6302380Y27757381D01*
X6350000Y27805000D01*
X6445238Y27852620D01*
X7397619Y27852620D02*
X7492857Y27852620D01*
X7588095Y27805000D01*
X7635714Y27757381D01*
X7683333Y27662143D01*
X7730952Y27471667D01*
X7730952Y27233572D01*
X7683333Y27043096D01*
X7635714Y26947858D01*
X7588095Y26900239D01*
X7492857Y26852620D01*
X7397619Y26852620D01*
X7302380Y26900239D01*
X7254761Y26947858D01*
X7207142Y27043096D01*
X7159523Y27233572D01*
X7159523Y27471667D01*
X7207142Y27662143D01*
X7254761Y27757381D01*
X7302380Y27805000D01*
X7397619Y27852620D01*
X8683333Y26852620D02*
X8111904Y26852620D01*
X8397619Y26852620D02*
X8397619Y27852620D01*
X8302380Y27709762D01*
X8207142Y27614524D01*
X8111904Y27566905D01*
X9159523Y26852620D02*
X9350000Y26852620D01*
X9445238Y26900239D01*
X9492857Y26947858D01*
X9588095Y27090715D01*
X9635714Y27281191D01*
X9635714Y27662143D01*
X9588095Y27757381D01*
X9540476Y27805000D01*
X9445238Y27852620D01*
X9254761Y27852620D01*
X9159523Y27805000D01*
X9111904Y27757381D01*
X9064285Y27662143D01*
X9064285Y27424048D01*
X9111904Y27328810D01*
X9159523Y27281191D01*
X9254761Y27233572D01*
X9445238Y27233572D01*
X9540476Y27281191D01*
X9588095Y27328810D01*
X9635714Y27424048D01*
X10016666Y27757381D02*
X10064285Y27805000D01*
X10159523Y27852620D01*
X10397619Y27852620D01*
X10492857Y27805000D01*
X10540476Y27757381D01*
X10588095Y27662143D01*
X10588095Y27566905D01*
X10540476Y27424048D01*
X9969047Y26852620D01*
X10588095Y26852620D01*
X5516666Y25185620D02*
X5516666Y24471334D01*
X5469047Y24328477D01*
X5373809Y24233239D01*
X5230952Y24185620D01*
X5135714Y24185620D01*
X5992857Y24185620D02*
X5992857Y25185620D01*
X6373809Y25185620D01*
X6469047Y25138000D01*
X6516666Y25090381D01*
X6564285Y24995143D01*
X6564285Y24852286D01*
X6516666Y24757048D01*
X6469047Y24709429D01*
X6373809Y24661810D01*
X5992857Y24661810D01*
X7516666Y24185620D02*
X6945238Y24185620D01*
X7230952Y24185620D02*
X7230952Y25185620D01*
X7135714Y25042762D01*
X7040476Y24947524D01*
X6945238Y24899905D01*
%TO.C,R1*%
X13620904Y7436381D02*
X13668523Y7484000D01*
X13763761Y7531620D01*
X14001857Y7531620D01*
X14097095Y7484000D01*
X14144714Y7436381D01*
X14192333Y7341143D01*
X14192333Y7245905D01*
X14144714Y7103048D01*
X13573285Y6531620D01*
X14192333Y6531620D01*
X14525666Y7531620D02*
X15192333Y7531620D01*
X14763761Y6531620D01*
X15763761Y7531620D02*
X15859000Y7531620D01*
X15954238Y7484000D01*
X16001857Y7436381D01*
X16049476Y7341143D01*
X16097095Y7150667D01*
X16097095Y6912572D01*
X16049476Y6722096D01*
X16001857Y6626858D01*
X15954238Y6579239D01*
X15859000Y6531620D01*
X15763761Y6531620D01*
X15668523Y6579239D01*
X15620904Y6626858D01*
X15573285Y6722096D01*
X15525666Y6912572D01*
X15525666Y7150667D01*
X15573285Y7341143D01*
X15620904Y7436381D01*
X15668523Y7484000D01*
X15763761Y7531620D01*
D13*
X14775666Y5107810D02*
X14609000Y5345905D01*
X14489952Y5107810D02*
X14489952Y5607810D01*
X14680428Y5607810D01*
X14728047Y5584000D01*
X14751857Y5560191D01*
X14775666Y5512572D01*
X14775666Y5441143D01*
X14751857Y5393524D01*
X14728047Y5369715D01*
X14680428Y5345905D01*
X14489952Y5345905D01*
X15251857Y5107810D02*
X14966142Y5107810D01*
X15109000Y5107810D02*
X15109000Y5607810D01*
X15061380Y5536381D01*
X15013761Y5488762D01*
X14966142Y5464953D01*
%TO.C,R2*%
D11*
X29495904Y7437381D02*
X29543523Y7485000D01*
X29638761Y7532620D01*
X29876857Y7532620D01*
X29972095Y7485000D01*
X30019714Y7437381D01*
X30067333Y7342143D01*
X30067333Y7246905D01*
X30019714Y7104048D01*
X29448285Y6532620D01*
X30067333Y6532620D01*
X30400666Y7532620D02*
X31067333Y7532620D01*
X30638761Y6532620D01*
X31638761Y7532620D02*
X31734000Y7532620D01*
X31829238Y7485000D01*
X31876857Y7437381D01*
X31924476Y7342143D01*
X31972095Y7151667D01*
X31972095Y6913572D01*
X31924476Y6723096D01*
X31876857Y6627858D01*
X31829238Y6580239D01*
X31734000Y6532620D01*
X31638761Y6532620D01*
X31543523Y6580239D01*
X31495904Y6627858D01*
X31448285Y6723096D01*
X31400666Y6913572D01*
X31400666Y7151667D01*
X31448285Y7342143D01*
X31495904Y7437381D01*
X31543523Y7485000D01*
X31638761Y7532620D01*
D13*
X30650666Y5107810D02*
X30484000Y5345905D01*
X30364952Y5107810D02*
X30364952Y5607810D01*
X30555428Y5607810D01*
X30603047Y5584000D01*
X30626857Y5560191D01*
X30650666Y5512572D01*
X30650666Y5441143D01*
X30626857Y5393524D01*
X30603047Y5369715D01*
X30555428Y5345905D01*
X30364952Y5345905D01*
X30841142Y5560191D02*
X30864952Y5584000D01*
X30912571Y5607810D01*
X31031619Y5607810D01*
X31079238Y5584000D01*
X31103047Y5560191D01*
X31126857Y5512572D01*
X31126857Y5464953D01*
X31103047Y5393524D01*
X30817333Y5107810D01*
X31126857Y5107810D01*
%TO.C,R3*%
D11*
X30392761Y17327620D02*
X29821333Y17327620D01*
X30107047Y17327620D02*
X30107047Y18327620D01*
X30011809Y18184762D01*
X29916571Y18089524D01*
X29821333Y18041905D01*
X31011809Y18327620D02*
X31107047Y18327620D01*
X31202285Y18280000D01*
X31249904Y18232381D01*
X31297523Y18137143D01*
X31345142Y17946667D01*
X31345142Y17708572D01*
X31297523Y17518096D01*
X31249904Y17422858D01*
X31202285Y17375239D01*
X31107047Y17327620D01*
X31011809Y17327620D01*
X30916571Y17375239D01*
X30868952Y17422858D01*
X30821333Y17518096D01*
X30773714Y17708572D01*
X30773714Y17946667D01*
X30821333Y18137143D01*
X30868952Y18232381D01*
X30916571Y18280000D01*
X31011809Y18327620D01*
X31773714Y17327620D02*
X31773714Y18327620D01*
X31868952Y17708572D02*
X32154666Y17327620D01*
X32154666Y17994286D02*
X31773714Y17613334D01*
D12*
X27171666Y17418096D02*
X26905000Y17799048D01*
X26714523Y17418096D02*
X26714523Y18218096D01*
X27019285Y18218096D01*
X27095476Y18180000D01*
X27133571Y18141905D01*
X27171666Y18065715D01*
X27171666Y17951429D01*
X27133571Y17875239D01*
X27095476Y17837143D01*
X27019285Y17799048D01*
X26714523Y17799048D01*
X27438333Y18218096D02*
X27933571Y18218096D01*
X27666904Y17913334D01*
X27781190Y17913334D01*
X27857380Y17875239D01*
X27895476Y17837143D01*
X27933571Y17760953D01*
X27933571Y17570477D01*
X27895476Y17494286D01*
X27857380Y17456191D01*
X27781190Y17418096D01*
X27552619Y17418096D01*
X27476428Y17456191D01*
X27438333Y17494286D01*
%TO.C,U1*%
D11*
X38033571Y22386429D02*
X37700238Y22386429D01*
X37700238Y21862620D02*
X37700238Y22862620D01*
X38176428Y22862620D01*
X38414523Y22862620D02*
X38985952Y22862620D01*
X38700238Y21862620D02*
X38700238Y22862620D01*
X39271666Y22767381D02*
X39319285Y22815000D01*
X39414523Y22862620D01*
X39652619Y22862620D01*
X39747857Y22815000D01*
X39795476Y22767381D01*
X39843095Y22672143D01*
X39843095Y22576905D01*
X39795476Y22434048D01*
X39224047Y21862620D01*
X39843095Y21862620D01*
X40176428Y22862620D02*
X40795476Y22862620D01*
X40462142Y22481667D01*
X40605000Y22481667D01*
X40700238Y22434048D01*
X40747857Y22386429D01*
X40795476Y22291191D01*
X40795476Y22053096D01*
X40747857Y21957858D01*
X40700238Y21910239D01*
X40605000Y21862620D01*
X40319285Y21862620D01*
X40224047Y21910239D01*
X40176428Y21957858D01*
X41176428Y22767381D02*
X41224047Y22815000D01*
X41319285Y22862620D01*
X41557380Y22862620D01*
X41652619Y22815000D01*
X41700238Y22767381D01*
X41747857Y22672143D01*
X41747857Y22576905D01*
X41700238Y22434048D01*
X41128809Y21862620D01*
X41747857Y21862620D01*
X42747857Y21862620D02*
X42414523Y22338810D01*
X42176428Y21862620D02*
X42176428Y22862620D01*
X42557380Y22862620D01*
X42652619Y22815000D01*
X42700238Y22767381D01*
X42747857Y22672143D01*
X42747857Y22529286D01*
X42700238Y22434048D01*
X42652619Y22386429D01*
X42557380Y22338810D01*
X42176428Y22338810D01*
X43652619Y21862620D02*
X43176428Y21862620D01*
X43176428Y22862620D01*
X39995476Y16503096D02*
X39995476Y15855477D01*
X40033571Y15779286D01*
X40071666Y15741191D01*
X40147857Y15703096D01*
X40300238Y15703096D01*
X40376428Y15741191D01*
X40414523Y15779286D01*
X40452619Y15855477D01*
X40452619Y16503096D01*
X41252619Y15703096D02*
X40795476Y15703096D01*
X41024047Y15703096D02*
X41024047Y16503096D01*
X40947857Y16388810D01*
X40871666Y16312620D01*
X40795476Y16274524D01*
%TO.C,Y1*%
X38849523Y1102620D02*
X38278095Y1102620D01*
X38563809Y1102620D02*
X38563809Y2102620D01*
X38468571Y1959762D01*
X38373333Y1864524D01*
X38278095Y1816905D01*
X39230476Y2007381D02*
X39278095Y2055000D01*
X39373333Y2102620D01*
X39611428Y2102620D01*
X39706666Y2055000D01*
X39754285Y2007381D01*
X39801904Y1912143D01*
X39801904Y1816905D01*
X39754285Y1674048D01*
X39182857Y1102620D01*
X39801904Y1102620D01*
X40230476Y1102620D02*
X40230476Y2102620D01*
X40563809Y1388334D01*
X40897142Y2102620D01*
X40897142Y1102620D01*
X41373333Y1102620D02*
X41373333Y2102620D01*
X41373333Y1626429D02*
X41944761Y1626429D01*
X41944761Y1102620D02*
X41944761Y2102620D01*
X42325714Y1769286D02*
X42849523Y1769286D01*
X42325714Y1102620D01*
X42849523Y1102620D01*
X40063809Y5103810D02*
X40063809Y4627620D01*
X39730476Y5627620D02*
X40063809Y5103810D01*
X40397142Y5627620D01*
X41254285Y4627620D02*
X40682857Y4627620D01*
X40968571Y4627620D02*
X40968571Y5627620D01*
X40873333Y5484762D01*
X40778095Y5389524D01*
X40682857Y5341905D01*
%TD*%
M02*
