%TF.GenerationSoftware,KiCad,Pcbnew,5.1.6-c6e7f7d~86~ubuntu18.04.1*%
%TF.CreationDate,2020-05-25T18:48:25+02:00*%
%TF.ProjectId,ft232rl_converter_v2,66743233-3272-46c5-9f63-6f6e76657274,1.0*%
%TF.SameCoordinates,PX4d83c00PY525bfc0*%
%TF.FileFunction,Other,Comment*%
%FSLAX46Y46*%
G04 Gerber Fmt 4.6, Leading zero omitted, Abs format (unit mm)*
G04 Created by KiCad (PCBNEW 5.1.6-c6e7f7d~86~ubuntu18.04.1) date 2020-05-25 18:48:25*
%MOMM*%
%LPD*%
G01*
G04 APERTURE LIST*
%ADD10C,0.150000*%
G04 APERTURE END LIST*
D10*
X68062380Y11049524D02*
X68062380Y11668572D01*
X68443333Y11335239D01*
X68443333Y11478096D01*
X68490952Y11573334D01*
X68538571Y11620953D01*
X68633809Y11668572D01*
X68871904Y11668572D01*
X68967142Y11620953D01*
X69014761Y11573334D01*
X69062380Y11478096D01*
X69062380Y11192381D01*
X69014761Y11097143D01*
X68967142Y11049524D01*
X68062380Y12287620D02*
X68062380Y12382858D01*
X68110000Y12478096D01*
X68157619Y12525715D01*
X68252857Y12573334D01*
X68443333Y12620953D01*
X68681428Y12620953D01*
X68871904Y12573334D01*
X68967142Y12525715D01*
X69014761Y12478096D01*
X69062380Y12382858D01*
X69062380Y12287620D01*
X69014761Y12192381D01*
X68967142Y12144762D01*
X68871904Y12097143D01*
X68681428Y12049524D01*
X68443333Y12049524D01*
X68252857Y12097143D01*
X68157619Y12144762D01*
X68110000Y12192381D01*
X68062380Y12287620D01*
X69014761Y13097143D02*
X69062380Y13097143D01*
X69157619Y13049524D01*
X69205238Y13001905D01*
X68395714Y13954286D02*
X69062380Y13954286D01*
X68014761Y13716191D02*
X68729047Y13478096D01*
X68729047Y14097143D01*
X68490952Y14620953D02*
X68443333Y14525715D01*
X68395714Y14478096D01*
X68300476Y14430477D01*
X68252857Y14430477D01*
X68157619Y14478096D01*
X68110000Y14525715D01*
X68062380Y14620953D01*
X68062380Y14811429D01*
X68110000Y14906667D01*
X68157619Y14954286D01*
X68252857Y15001905D01*
X68300476Y15001905D01*
X68395714Y14954286D01*
X68443333Y14906667D01*
X68490952Y14811429D01*
X68490952Y14620953D01*
X68538571Y14525715D01*
X68586190Y14478096D01*
X68681428Y14430477D01*
X68871904Y14430477D01*
X68967142Y14478096D01*
X69014761Y14525715D01*
X69062380Y14620953D01*
X69062380Y14811429D01*
X69014761Y14906667D01*
X68967142Y14954286D01*
X68871904Y15001905D01*
X68681428Y15001905D01*
X68586190Y14954286D01*
X68538571Y14906667D01*
X68490952Y14811429D01*
X68062380Y15620953D02*
X68062380Y15716191D01*
X68110000Y15811429D01*
X68157619Y15859048D01*
X68252857Y15906667D01*
X68443333Y15954286D01*
X68681428Y15954286D01*
X68871904Y15906667D01*
X68967142Y15859048D01*
X69014761Y15811429D01*
X69062380Y15716191D01*
X69062380Y15620953D01*
X69014761Y15525715D01*
X68967142Y15478096D01*
X68871904Y15430477D01*
X68681428Y15382858D01*
X68443333Y15382858D01*
X68252857Y15430477D01*
X68157619Y15478096D01*
X68110000Y15525715D01*
X68062380Y15620953D01*
X69062380Y17144762D02*
X68395714Y17144762D01*
X68490952Y17144762D02*
X68443333Y17192381D01*
X68395714Y17287620D01*
X68395714Y17430477D01*
X68443333Y17525715D01*
X68538571Y17573334D01*
X69062380Y17573334D01*
X68538571Y17573334D02*
X68443333Y17620953D01*
X68395714Y17716191D01*
X68395714Y17859048D01*
X68443333Y17954286D01*
X68538571Y18001905D01*
X69062380Y18001905D01*
X69062380Y18478096D02*
X68395714Y18478096D01*
X68490952Y18478096D02*
X68443333Y18525715D01*
X68395714Y18620953D01*
X68395714Y18763810D01*
X68443333Y18859048D01*
X68538571Y18906667D01*
X69062380Y18906667D01*
X68538571Y18906667D02*
X68443333Y18954286D01*
X68395714Y19049524D01*
X68395714Y19192381D01*
X68443333Y19287620D01*
X68538571Y19335239D01*
X69062380Y19335239D01*
X67310000Y0D02*
X67310000Y30480000D01*
X58420000Y0D02*
X67896421Y0D01*
X58420000Y30480000D02*
X67896421Y30480000D01*
X67310000Y30480000D02*
X67896421Y29353496D01*
X67310000Y30480000D02*
X66723579Y29353496D01*
X67310000Y0D02*
X67896421Y1126504D01*
X67310000Y0D02*
X66723579Y1126504D01*
X25590952Y-3292380D02*
X25114761Y-3292380D01*
X25067142Y-3768571D01*
X25114761Y-3720952D01*
X25210000Y-3673333D01*
X25448095Y-3673333D01*
X25543333Y-3720952D01*
X25590952Y-3768571D01*
X25638571Y-3863809D01*
X25638571Y-4101904D01*
X25590952Y-4197142D01*
X25543333Y-4244761D01*
X25448095Y-4292380D01*
X25210000Y-4292380D01*
X25114761Y-4244761D01*
X25067142Y-4197142D01*
X26210000Y-3720952D02*
X26114761Y-3673333D01*
X26067142Y-3625714D01*
X26019523Y-3530476D01*
X26019523Y-3482857D01*
X26067142Y-3387619D01*
X26114761Y-3340000D01*
X26210000Y-3292380D01*
X26400476Y-3292380D01*
X26495714Y-3340000D01*
X26543333Y-3387619D01*
X26590952Y-3482857D01*
X26590952Y-3530476D01*
X26543333Y-3625714D01*
X26495714Y-3673333D01*
X26400476Y-3720952D01*
X26210000Y-3720952D01*
X26114761Y-3768571D01*
X26067142Y-3816190D01*
X26019523Y-3911428D01*
X26019523Y-4101904D01*
X26067142Y-4197142D01*
X26114761Y-4244761D01*
X26210000Y-4292380D01*
X26400476Y-4292380D01*
X26495714Y-4244761D01*
X26543333Y-4197142D01*
X26590952Y-4101904D01*
X26590952Y-3911428D01*
X26543333Y-3816190D01*
X26495714Y-3768571D01*
X26400476Y-3720952D01*
X27067142Y-4244761D02*
X27067142Y-4292380D01*
X27019523Y-4387619D01*
X26971904Y-4435238D01*
X27924285Y-3625714D02*
X27924285Y-4292380D01*
X27686190Y-3244761D02*
X27448095Y-3959047D01*
X28067142Y-3959047D01*
X28400476Y-3387619D02*
X28448095Y-3340000D01*
X28543333Y-3292380D01*
X28781428Y-3292380D01*
X28876666Y-3340000D01*
X28924285Y-3387619D01*
X28971904Y-3482857D01*
X28971904Y-3578095D01*
X28924285Y-3720952D01*
X28352857Y-4292380D01*
X28971904Y-4292380D01*
X29590952Y-3292380D02*
X29686190Y-3292380D01*
X29781428Y-3340000D01*
X29829047Y-3387619D01*
X29876666Y-3482857D01*
X29924285Y-3673333D01*
X29924285Y-3911428D01*
X29876666Y-4101904D01*
X29829047Y-4197142D01*
X29781428Y-4244761D01*
X29686190Y-4292380D01*
X29590952Y-4292380D01*
X29495714Y-4244761D01*
X29448095Y-4197142D01*
X29400476Y-4101904D01*
X29352857Y-3911428D01*
X29352857Y-3673333D01*
X29400476Y-3482857D01*
X29448095Y-3387619D01*
X29495714Y-3340000D01*
X29590952Y-3292380D01*
X31114761Y-4292380D02*
X31114761Y-3625714D01*
X31114761Y-3720952D02*
X31162380Y-3673333D01*
X31257619Y-3625714D01*
X31400476Y-3625714D01*
X31495714Y-3673333D01*
X31543333Y-3768571D01*
X31543333Y-4292380D01*
X31543333Y-3768571D02*
X31590952Y-3673333D01*
X31686190Y-3625714D01*
X31829047Y-3625714D01*
X31924285Y-3673333D01*
X31971904Y-3768571D01*
X31971904Y-4292380D01*
X32448095Y-4292380D02*
X32448095Y-3625714D01*
X32448095Y-3720952D02*
X32495714Y-3673333D01*
X32590952Y-3625714D01*
X32733809Y-3625714D01*
X32829047Y-3673333D01*
X32876666Y-3768571D01*
X32876666Y-4292380D01*
X32876666Y-3768571D02*
X32924285Y-3673333D01*
X33019523Y-3625714D01*
X33162380Y-3625714D01*
X33257619Y-3673333D01*
X33305238Y-3768571D01*
X33305238Y-4292380D01*
X0Y-2540000D02*
X58420000Y-2540000D01*
X0Y0D02*
X0Y-3126421D01*
X58420000Y0D02*
X58420000Y-3126421D01*
X58420000Y-2540000D02*
X57293496Y-3126421D01*
X58420000Y-2540000D02*
X57293496Y-1953579D01*
X0Y-2540000D02*
X1126504Y-3126421D01*
X0Y-2540000D02*
X1126504Y-1953579D01*
M02*
