%TF.GenerationSoftware,KiCad,Pcbnew,5.1.6-c6e7f7d~86~ubuntu18.04.1*%
%TF.CreationDate,2020-05-25T18:48:25+02:00*%
%TF.ProjectId,ft232rl_converter_v2,66743233-3272-46c5-9f63-6f6e76657274,1.0*%
%TF.SameCoordinates,PX4d83c00PY525bfc0*%
%TF.FileFunction,Paste,Top*%
%TF.FilePolarity,Positive*%
%FSLAX46Y46*%
G04 Gerber Fmt 4.6, Leading zero omitted, Abs format (unit mm)*
G04 Created by KiCad (PCBNEW 5.1.6-c6e7f7d~86~ubuntu18.04.1) date 2020-05-25 18:48:25*
%MOMM*%
%LPD*%
G01*
G04 APERTURE LIST*
%ADD10R,1.900000X1.175000*%
%ADD11R,1.900000X2.375000*%
%ADD12R,2.100000X1.475000*%
%ADD13R,1.380000X0.450000*%
%ADD14R,1.750000X0.450000*%
G04 APERTURE END LIST*
D10*
%TO.C,J1*%
X1340000Y11860000D03*
X1340000Y13540000D03*
D11*
X1340000Y9790000D03*
X1340000Y15610000D03*
D12*
X3640000Y10237500D03*
X3640000Y15162500D03*
D13*
X4000000Y11400000D03*
X4000000Y12050000D03*
X4000000Y12700000D03*
X4000000Y13350000D03*
X4000000Y14000000D03*
%TD*%
%TO.C,C1*%
G36*
G01*
X19545000Y13325000D02*
X19545000Y12075000D01*
G75*
G02*
X19295000Y11825000I-250000J0D01*
G01*
X18370000Y11825000D01*
G75*
G02*
X18120000Y12075000I0J250000D01*
G01*
X18120000Y13325000D01*
G75*
G02*
X18370000Y13575000I250000J0D01*
G01*
X19295000Y13575000D01*
G75*
G02*
X19545000Y13325000I0J-250000D01*
G01*
G37*
G36*
G01*
X22520000Y13325000D02*
X22520000Y12075000D01*
G75*
G02*
X22270000Y11825000I-250000J0D01*
G01*
X21345000Y11825000D01*
G75*
G02*
X21095000Y12075000I0J250000D01*
G01*
X21095000Y13325000D01*
G75*
G02*
X21345000Y13575000I250000J0D01*
G01*
X22270000Y13575000D01*
G75*
G02*
X22520000Y13325000I0J-250000D01*
G01*
G37*
%TD*%
%TO.C,C2*%
G36*
G01*
X10805000Y11925000D02*
X12055000Y11925000D01*
G75*
G02*
X12305000Y11675000I0J-250000D01*
G01*
X12305000Y10750000D01*
G75*
G02*
X12055000Y10500000I-250000J0D01*
G01*
X10805000Y10500000D01*
G75*
G02*
X10555000Y10750000I0J250000D01*
G01*
X10555000Y11675000D01*
G75*
G02*
X10805000Y11925000I250000J0D01*
G01*
G37*
G36*
G01*
X10805000Y14900000D02*
X12055000Y14900000D01*
G75*
G02*
X12305000Y14650000I0J-250000D01*
G01*
X12305000Y13725000D01*
G75*
G02*
X12055000Y13475000I-250000J0D01*
G01*
X10805000Y13475000D01*
G75*
G02*
X10555000Y13725000I0J250000D01*
G01*
X10555000Y14650000D01*
G75*
G02*
X10805000Y14900000I250000J0D01*
G01*
G37*
%TD*%
%TO.C,C3*%
G36*
G01*
X28080000Y12075000D02*
X28080000Y13325000D01*
G75*
G02*
X28330000Y13575000I250000J0D01*
G01*
X29255000Y13575000D01*
G75*
G02*
X29505000Y13325000I0J-250000D01*
G01*
X29505000Y12075000D01*
G75*
G02*
X29255000Y11825000I-250000J0D01*
G01*
X28330000Y11825000D01*
G75*
G02*
X28080000Y12075000I0J250000D01*
G01*
G37*
G36*
G01*
X25105000Y12075000D02*
X25105000Y13325000D01*
G75*
G02*
X25355000Y13575000I250000J0D01*
G01*
X26280000Y13575000D01*
G75*
G02*
X26530000Y13325000I0J-250000D01*
G01*
X26530000Y12075000D01*
G75*
G02*
X26280000Y11825000I-250000J0D01*
G01*
X25355000Y11825000D01*
G75*
G02*
X25105000Y12075000I0J250000D01*
G01*
G37*
%TD*%
%TO.C,C4*%
G36*
G01*
X49647000Y15380000D02*
X48397000Y15380000D01*
G75*
G02*
X48147000Y15630000I0J250000D01*
G01*
X48147000Y16555000D01*
G75*
G02*
X48397000Y16805000I250000J0D01*
G01*
X49647000Y16805000D01*
G75*
G02*
X49897000Y16555000I0J-250000D01*
G01*
X49897000Y15630000D01*
G75*
G02*
X49647000Y15380000I-250000J0D01*
G01*
G37*
G36*
G01*
X49647000Y12405000D02*
X48397000Y12405000D01*
G75*
G02*
X48147000Y12655000I0J250000D01*
G01*
X48147000Y13580000D01*
G75*
G02*
X48397000Y13830000I250000J0D01*
G01*
X49647000Y13830000D01*
G75*
G02*
X49897000Y13580000I0J-250000D01*
G01*
X49897000Y12655000D01*
G75*
G02*
X49647000Y12405000I-250000J0D01*
G01*
G37*
%TD*%
%TO.C,D1*%
G36*
G01*
X20714000Y4709000D02*
X20714000Y5959000D01*
G75*
G02*
X20964000Y6209000I250000J0D01*
G01*
X21889000Y6209000D01*
G75*
G02*
X22139000Y5959000I0J-250000D01*
G01*
X22139000Y4709000D01*
G75*
G02*
X21889000Y4459000I-250000J0D01*
G01*
X20964000Y4459000D01*
G75*
G02*
X20714000Y4709000I0J250000D01*
G01*
G37*
G36*
G01*
X17739000Y4709000D02*
X17739000Y5959000D01*
G75*
G02*
X17989000Y6209000I250000J0D01*
G01*
X18914000Y6209000D01*
G75*
G02*
X19164000Y5959000I0J-250000D01*
G01*
X19164000Y4709000D01*
G75*
G02*
X18914000Y4459000I-250000J0D01*
G01*
X17989000Y4459000D01*
G75*
G02*
X17739000Y4709000I0J250000D01*
G01*
G37*
%TD*%
%TO.C,D2*%
G36*
G01*
X24879000Y5959000D02*
X24879000Y4709000D01*
G75*
G02*
X24629000Y4459000I-250000J0D01*
G01*
X23704000Y4459000D01*
G75*
G02*
X23454000Y4709000I0J250000D01*
G01*
X23454000Y5959000D01*
G75*
G02*
X23704000Y6209000I250000J0D01*
G01*
X24629000Y6209000D01*
G75*
G02*
X24879000Y5959000I0J-250000D01*
G01*
G37*
G36*
G01*
X27854000Y5959000D02*
X27854000Y4709000D01*
G75*
G02*
X27604000Y4459000I-250000J0D01*
G01*
X26679000Y4459000D01*
G75*
G02*
X26429000Y4709000I0J250000D01*
G01*
X26429000Y5959000D01*
G75*
G02*
X26679000Y6209000I250000J0D01*
G01*
X27604000Y6209000D01*
G75*
G02*
X27854000Y5959000I0J-250000D01*
G01*
G37*
%TD*%
%TO.C,FB1*%
G36*
G01*
X19545000Y18405000D02*
X19545000Y17155000D01*
G75*
G02*
X19295000Y16905000I-250000J0D01*
G01*
X18370000Y16905000D01*
G75*
G02*
X18120000Y17155000I0J250000D01*
G01*
X18120000Y18405000D01*
G75*
G02*
X18370000Y18655000I250000J0D01*
G01*
X19295000Y18655000D01*
G75*
G02*
X19545000Y18405000I0J-250000D01*
G01*
G37*
G36*
G01*
X22520000Y18405000D02*
X22520000Y17155000D01*
G75*
G02*
X22270000Y16905000I-250000J0D01*
G01*
X21345000Y16905000D01*
G75*
G02*
X21095000Y17155000I0J250000D01*
G01*
X21095000Y18405000D01*
G75*
G02*
X21345000Y18655000I250000J0D01*
G01*
X22270000Y18655000D01*
G75*
G02*
X22520000Y18405000I0J-250000D01*
G01*
G37*
%TD*%
%TO.C,R1*%
G36*
G01*
X14409000Y5784001D02*
X14409000Y4883999D01*
G75*
G02*
X14159001Y4634000I-249999J0D01*
G01*
X13508999Y4634000D01*
G75*
G02*
X13259000Y4883999I0J249999D01*
G01*
X13259000Y5784001D01*
G75*
G02*
X13508999Y6034000I249999J0D01*
G01*
X14159001Y6034000D01*
G75*
G02*
X14409000Y5784001I0J-249999D01*
G01*
G37*
G36*
G01*
X16459000Y5784001D02*
X16459000Y4883999D01*
G75*
G02*
X16209001Y4634000I-249999J0D01*
G01*
X15558999Y4634000D01*
G75*
G02*
X15309000Y4883999I0J249999D01*
G01*
X15309000Y5784001D01*
G75*
G02*
X15558999Y6034000I249999J0D01*
G01*
X16209001Y6034000D01*
G75*
G02*
X16459000Y5784001I0J-249999D01*
G01*
G37*
%TD*%
%TO.C,R2*%
G36*
G01*
X31184000Y4883999D02*
X31184000Y5784001D01*
G75*
G02*
X31433999Y6034000I249999J0D01*
G01*
X32084001Y6034000D01*
G75*
G02*
X32334000Y5784001I0J-249999D01*
G01*
X32334000Y4883999D01*
G75*
G02*
X32084001Y4634000I-249999J0D01*
G01*
X31433999Y4634000D01*
G75*
G02*
X31184000Y4883999I0J249999D01*
G01*
G37*
G36*
G01*
X29134000Y4883999D02*
X29134000Y5784001D01*
G75*
G02*
X29383999Y6034000I249999J0D01*
G01*
X30034001Y6034000D01*
G75*
G02*
X30284000Y5784001I0J-249999D01*
G01*
X30284000Y4883999D01*
G75*
G02*
X30034001Y4634000I-249999J0D01*
G01*
X29383999Y4634000D01*
G75*
G02*
X29134000Y4883999I0J249999D01*
G01*
G37*
%TD*%
%TO.C,R3*%
G36*
G01*
X28080000Y17155000D02*
X28080000Y18405000D01*
G75*
G02*
X28330000Y18655000I250000J0D01*
G01*
X29255000Y18655000D01*
G75*
G02*
X29505000Y18405000I0J-250000D01*
G01*
X29505000Y17155000D01*
G75*
G02*
X29255000Y16905000I-250000J0D01*
G01*
X28330000Y16905000D01*
G75*
G02*
X28080000Y17155000I0J250000D01*
G01*
G37*
G36*
G01*
X25105000Y17155000D02*
X25105000Y18405000D01*
G75*
G02*
X25355000Y18655000I250000J0D01*
G01*
X26280000Y18655000D01*
G75*
G02*
X26530000Y18405000I0J-250000D01*
G01*
X26530000Y17155000D01*
G75*
G02*
X26280000Y16905000I-250000J0D01*
G01*
X25355000Y16905000D01*
G75*
G02*
X25105000Y17155000I0J250000D01*
G01*
G37*
%TD*%
D14*
%TO.C,U1*%
X37005000Y11840000D03*
X37005000Y12490000D03*
X37005000Y13140000D03*
X37005000Y13790000D03*
X37005000Y14440000D03*
X37005000Y15090000D03*
X37005000Y15740000D03*
X37005000Y16390000D03*
X37005000Y17040000D03*
X37005000Y17690000D03*
X37005000Y18340000D03*
X37005000Y18990000D03*
X37005000Y19640000D03*
X37005000Y20290000D03*
X44205000Y20290000D03*
X44205000Y19640000D03*
X44205000Y18990000D03*
X44205000Y18340000D03*
X44205000Y17690000D03*
X44205000Y17040000D03*
X44205000Y16390000D03*
X44205000Y15740000D03*
X44205000Y15090000D03*
X44205000Y14440000D03*
X44205000Y13790000D03*
X44205000Y13140000D03*
X44205000Y12490000D03*
X44205000Y11840000D03*
%TD*%
M02*
