%TF.GenerationSoftware,KiCad,Pcbnew,5.1.4-3.fc31*%
%TF.CreationDate,2019-11-03T17:38:08+01:00*%
%TF.ProjectId,ft232rl_converter_v2,66743233-3272-46c5-9f63-6f6e76657274,rev?*%
%TF.SameCoordinates,PX4d83c00PY525bfc0*%
%TF.FileFunction,Soldermask,Bot*%
%TF.FilePolarity,Negative*%
%FSLAX46Y46*%
G04 Gerber Fmt 4.6, Leading zero omitted, Abs format (unit mm)*
G04 Created by KiCad (PCBNEW 5.1.4-3.fc31) date 2019-11-03 17:38:08*
%MOMM*%
%LPD*%
G04 APERTURE LIST*
%ADD10C,0.150000*%
G04 APERTURE END LIST*
D10*
G36*
X38333642Y5850219D02*
G01*
X38479414Y5789838D01*
X38479416Y5789837D01*
X38610608Y5702178D01*
X38722178Y5590608D01*
X38809837Y5459416D01*
X38809838Y5459414D01*
X38870219Y5313642D01*
X38901000Y5158893D01*
X38901000Y5001107D01*
X38870219Y4846358D01*
X38809838Y4700586D01*
X38809837Y4700584D01*
X38722178Y4569392D01*
X38610608Y4457822D01*
X38479416Y4370163D01*
X38479415Y4370162D01*
X38479414Y4370162D01*
X38333642Y4309781D01*
X38178893Y4279000D01*
X38021107Y4279000D01*
X37866358Y4309781D01*
X37720586Y4370162D01*
X37720585Y4370162D01*
X37720584Y4370163D01*
X37589392Y4457822D01*
X37477822Y4569392D01*
X37390163Y4700584D01*
X37390162Y4700586D01*
X37329781Y4846358D01*
X37299000Y5001107D01*
X37299000Y5158893D01*
X37329781Y5313642D01*
X37390162Y5459414D01*
X37390163Y5459416D01*
X37477822Y5590608D01*
X37589392Y5702178D01*
X37720584Y5789837D01*
X37720586Y5789838D01*
X37866358Y5850219D01*
X38021107Y5881000D01*
X38178893Y5881000D01*
X38333642Y5850219D01*
X38333642Y5850219D01*
G37*
G36*
X43213642Y5850219D02*
G01*
X43359414Y5789838D01*
X43359416Y5789837D01*
X43490608Y5702178D01*
X43602178Y5590608D01*
X43689837Y5459416D01*
X43689838Y5459414D01*
X43750219Y5313642D01*
X43781000Y5158893D01*
X43781000Y5001107D01*
X43750219Y4846358D01*
X43689838Y4700586D01*
X43689837Y4700584D01*
X43602178Y4569392D01*
X43490608Y4457822D01*
X43359416Y4370163D01*
X43359415Y4370162D01*
X43359414Y4370162D01*
X43213642Y4309781D01*
X43058893Y4279000D01*
X42901107Y4279000D01*
X42746358Y4309781D01*
X42600586Y4370162D01*
X42600585Y4370162D01*
X42600584Y4370163D01*
X42469392Y4457822D01*
X42357822Y4569392D01*
X42270163Y4700584D01*
X42270162Y4700586D01*
X42209781Y4846358D01*
X42179000Y5001107D01*
X42179000Y5158893D01*
X42209781Y5313642D01*
X42270162Y5459414D01*
X42270163Y5459416D01*
X42357822Y5590608D01*
X42469392Y5702178D01*
X42600584Y5789837D01*
X42600586Y5789838D01*
X42746358Y5850219D01*
X42901107Y5881000D01*
X43058893Y5881000D01*
X43213642Y5850219D01*
X43213642Y5850219D01*
G37*
G36*
X55101443Y8514481D02*
G01*
X55167627Y8507963D01*
X55337466Y8456443D01*
X55493991Y8372778D01*
X55529729Y8343448D01*
X55631186Y8260186D01*
X55714448Y8158729D01*
X55743778Y8122991D01*
X55827443Y7966466D01*
X55878963Y7796627D01*
X55896359Y7620000D01*
X55878963Y7443373D01*
X55827443Y7273534D01*
X55743778Y7117009D01*
X55714448Y7081271D01*
X55631186Y6979814D01*
X55529729Y6896552D01*
X55493991Y6867222D01*
X55337466Y6783557D01*
X55167627Y6732037D01*
X55101442Y6725518D01*
X55035260Y6719000D01*
X54946740Y6719000D01*
X54880558Y6725518D01*
X54814373Y6732037D01*
X54644534Y6783557D01*
X54488009Y6867222D01*
X54452271Y6896552D01*
X54350814Y6979814D01*
X54267552Y7081271D01*
X54238222Y7117009D01*
X54154557Y7273534D01*
X54103037Y7443373D01*
X54085641Y7620000D01*
X54103037Y7796627D01*
X54154557Y7966466D01*
X54238222Y8122991D01*
X54267552Y8158729D01*
X54350814Y8260186D01*
X54452271Y8343448D01*
X54488009Y8372778D01*
X54644534Y8456443D01*
X54814373Y8507963D01*
X54880557Y8514481D01*
X54946740Y8521000D01*
X55035260Y8521000D01*
X55101443Y8514481D01*
X55101443Y8514481D01*
G37*
G36*
X55101442Y11054482D02*
G01*
X55167627Y11047963D01*
X55337466Y10996443D01*
X55493991Y10912778D01*
X55529729Y10883448D01*
X55631186Y10800186D01*
X55714448Y10698729D01*
X55743778Y10662991D01*
X55827443Y10506466D01*
X55878963Y10336627D01*
X55896359Y10160000D01*
X55878963Y9983373D01*
X55827443Y9813534D01*
X55743778Y9657009D01*
X55714448Y9621271D01*
X55631186Y9519814D01*
X55529729Y9436552D01*
X55493991Y9407222D01*
X55337466Y9323557D01*
X55167627Y9272037D01*
X55101442Y9265518D01*
X55035260Y9259000D01*
X54946740Y9259000D01*
X54880558Y9265518D01*
X54814373Y9272037D01*
X54644534Y9323557D01*
X54488009Y9407222D01*
X54452271Y9436552D01*
X54350814Y9519814D01*
X54267552Y9621271D01*
X54238222Y9657009D01*
X54154557Y9813534D01*
X54103037Y9983373D01*
X54085641Y10160000D01*
X54103037Y10336627D01*
X54154557Y10506466D01*
X54238222Y10662991D01*
X54267552Y10698729D01*
X54350814Y10800186D01*
X54452271Y10883448D01*
X54488009Y10912778D01*
X54644534Y10996443D01*
X54814373Y11047963D01*
X54880558Y11054482D01*
X54946740Y11061000D01*
X55035260Y11061000D01*
X55101442Y11054482D01*
X55101442Y11054482D01*
G37*
G36*
X55101442Y13594482D02*
G01*
X55167627Y13587963D01*
X55337466Y13536443D01*
X55493991Y13452778D01*
X55529729Y13423448D01*
X55631186Y13340186D01*
X55714448Y13238729D01*
X55743778Y13202991D01*
X55827443Y13046466D01*
X55878963Y12876627D01*
X55896359Y12700000D01*
X55878963Y12523373D01*
X55827443Y12353534D01*
X55743778Y12197009D01*
X55714448Y12161271D01*
X55631186Y12059814D01*
X55529729Y11976552D01*
X55493991Y11947222D01*
X55337466Y11863557D01*
X55167627Y11812037D01*
X55101442Y11805518D01*
X55035260Y11799000D01*
X54946740Y11799000D01*
X54880558Y11805518D01*
X54814373Y11812037D01*
X54644534Y11863557D01*
X54488009Y11947222D01*
X54452271Y11976552D01*
X54350814Y12059814D01*
X54267552Y12161271D01*
X54238222Y12197009D01*
X54154557Y12353534D01*
X54103037Y12523373D01*
X54085641Y12700000D01*
X54103037Y12876627D01*
X54154557Y13046466D01*
X54238222Y13202991D01*
X54267552Y13238729D01*
X54350814Y13340186D01*
X54452271Y13423448D01*
X54488009Y13452778D01*
X54644534Y13536443D01*
X54814373Y13587963D01*
X54880558Y13594482D01*
X54946740Y13601000D01*
X55035260Y13601000D01*
X55101442Y13594482D01*
X55101442Y13594482D01*
G37*
G36*
X55101442Y16134482D02*
G01*
X55167627Y16127963D01*
X55337466Y16076443D01*
X55493991Y15992778D01*
X55529729Y15963448D01*
X55631186Y15880186D01*
X55714448Y15778729D01*
X55743778Y15742991D01*
X55827443Y15586466D01*
X55878963Y15416627D01*
X55896359Y15240000D01*
X55878963Y15063373D01*
X55827443Y14893534D01*
X55743778Y14737009D01*
X55714448Y14701271D01*
X55631186Y14599814D01*
X55529729Y14516552D01*
X55493991Y14487222D01*
X55337466Y14403557D01*
X55167627Y14352037D01*
X55101443Y14345519D01*
X55035260Y14339000D01*
X54946740Y14339000D01*
X54880557Y14345519D01*
X54814373Y14352037D01*
X54644534Y14403557D01*
X54488009Y14487222D01*
X54452271Y14516552D01*
X54350814Y14599814D01*
X54267552Y14701271D01*
X54238222Y14737009D01*
X54154557Y14893534D01*
X54103037Y15063373D01*
X54085641Y15240000D01*
X54103037Y15416627D01*
X54154557Y15586466D01*
X54238222Y15742991D01*
X54267552Y15778729D01*
X54350814Y15880186D01*
X54452271Y15963448D01*
X54488009Y15992778D01*
X54644534Y16076443D01*
X54814373Y16127963D01*
X54880558Y16134482D01*
X54946740Y16141000D01*
X55035260Y16141000D01*
X55101442Y16134482D01*
X55101442Y16134482D01*
G37*
G36*
X55892000Y16879000D02*
G01*
X54090000Y16879000D01*
X54090000Y18681000D01*
X55892000Y18681000D01*
X55892000Y16879000D01*
X55892000Y16879000D01*
G37*
G36*
X4711000Y23737000D02*
G01*
X2909000Y23737000D01*
X2909000Y25539000D01*
X4711000Y25539000D01*
X4711000Y23737000D01*
X4711000Y23737000D01*
G37*
G36*
X25666000Y23737000D02*
G01*
X23864000Y23737000D01*
X23864000Y25539000D01*
X25666000Y25539000D01*
X25666000Y23737000D01*
X25666000Y23737000D01*
G37*
G36*
X6460443Y25532481D02*
G01*
X6526627Y25525963D01*
X6696466Y25474443D01*
X6852991Y25390778D01*
X6888729Y25361448D01*
X6990186Y25278186D01*
X7073448Y25176729D01*
X7102778Y25140991D01*
X7186443Y24984466D01*
X7237963Y24814627D01*
X7255359Y24638000D01*
X7237963Y24461373D01*
X7186443Y24291534D01*
X7102778Y24135009D01*
X7073448Y24099271D01*
X6990186Y23997814D01*
X6888729Y23914552D01*
X6852991Y23885222D01*
X6696466Y23801557D01*
X6526627Y23750037D01*
X6460442Y23743518D01*
X6394260Y23737000D01*
X6305740Y23737000D01*
X6239558Y23743518D01*
X6173373Y23750037D01*
X6003534Y23801557D01*
X5847009Y23885222D01*
X5811271Y23914552D01*
X5709814Y23997814D01*
X5626552Y24099271D01*
X5597222Y24135009D01*
X5513557Y24291534D01*
X5462037Y24461373D01*
X5444641Y24638000D01*
X5462037Y24814627D01*
X5513557Y24984466D01*
X5597222Y25140991D01*
X5626552Y25176729D01*
X5709814Y25278186D01*
X5811271Y25361448D01*
X5847009Y25390778D01*
X6003534Y25474443D01*
X6173373Y25525963D01*
X6239557Y25532481D01*
X6305740Y25539000D01*
X6394260Y25539000D01*
X6460443Y25532481D01*
X6460443Y25532481D01*
G37*
G36*
X9000443Y25532481D02*
G01*
X9066627Y25525963D01*
X9236466Y25474443D01*
X9392991Y25390778D01*
X9428729Y25361448D01*
X9530186Y25278186D01*
X9613448Y25176729D01*
X9642778Y25140991D01*
X9726443Y24984466D01*
X9777963Y24814627D01*
X9795359Y24638000D01*
X9777963Y24461373D01*
X9726443Y24291534D01*
X9642778Y24135009D01*
X9613448Y24099271D01*
X9530186Y23997814D01*
X9428729Y23914552D01*
X9392991Y23885222D01*
X9236466Y23801557D01*
X9066627Y23750037D01*
X9000442Y23743518D01*
X8934260Y23737000D01*
X8845740Y23737000D01*
X8779558Y23743518D01*
X8713373Y23750037D01*
X8543534Y23801557D01*
X8387009Y23885222D01*
X8351271Y23914552D01*
X8249814Y23997814D01*
X8166552Y24099271D01*
X8137222Y24135009D01*
X8053557Y24291534D01*
X8002037Y24461373D01*
X7984641Y24638000D01*
X8002037Y24814627D01*
X8053557Y24984466D01*
X8137222Y25140991D01*
X8166552Y25176729D01*
X8249814Y25278186D01*
X8351271Y25361448D01*
X8387009Y25390778D01*
X8543534Y25474443D01*
X8713373Y25525963D01*
X8779557Y25532481D01*
X8845740Y25539000D01*
X8934260Y25539000D01*
X9000443Y25532481D01*
X9000443Y25532481D01*
G37*
G36*
X14715443Y25532481D02*
G01*
X14781627Y25525963D01*
X14951466Y25474443D01*
X15107991Y25390778D01*
X15143729Y25361448D01*
X15245186Y25278186D01*
X15328448Y25176729D01*
X15357778Y25140991D01*
X15441443Y24984466D01*
X15492963Y24814627D01*
X15510359Y24638000D01*
X15492963Y24461373D01*
X15441443Y24291534D01*
X15357778Y24135009D01*
X15328448Y24099271D01*
X15245186Y23997814D01*
X15143729Y23914552D01*
X15107991Y23885222D01*
X14951466Y23801557D01*
X14781627Y23750037D01*
X14715442Y23743518D01*
X14649260Y23737000D01*
X14560740Y23737000D01*
X14494558Y23743518D01*
X14428373Y23750037D01*
X14258534Y23801557D01*
X14102009Y23885222D01*
X14066271Y23914552D01*
X13964814Y23997814D01*
X13881552Y24099271D01*
X13852222Y24135009D01*
X13768557Y24291534D01*
X13717037Y24461373D01*
X13699641Y24638000D01*
X13717037Y24814627D01*
X13768557Y24984466D01*
X13852222Y25140991D01*
X13881552Y25176729D01*
X13964814Y25278186D01*
X14066271Y25361448D01*
X14102009Y25390778D01*
X14258534Y25474443D01*
X14428373Y25525963D01*
X14494557Y25532481D01*
X14560740Y25539000D01*
X14649260Y25539000D01*
X14715443Y25532481D01*
X14715443Y25532481D01*
G37*
G36*
X22335443Y25532481D02*
G01*
X22401627Y25525963D01*
X22571466Y25474443D01*
X22727991Y25390778D01*
X22763729Y25361448D01*
X22865186Y25278186D01*
X22948448Y25176729D01*
X22977778Y25140991D01*
X23061443Y24984466D01*
X23112963Y24814627D01*
X23130359Y24638000D01*
X23112963Y24461373D01*
X23061443Y24291534D01*
X22977778Y24135009D01*
X22948448Y24099271D01*
X22865186Y23997814D01*
X22763729Y23914552D01*
X22727991Y23885222D01*
X22571466Y23801557D01*
X22401627Y23750037D01*
X22335442Y23743518D01*
X22269260Y23737000D01*
X22180740Y23737000D01*
X22114558Y23743518D01*
X22048373Y23750037D01*
X21878534Y23801557D01*
X21722009Y23885222D01*
X21686271Y23914552D01*
X21584814Y23997814D01*
X21501552Y24099271D01*
X21472222Y24135009D01*
X21388557Y24291534D01*
X21337037Y24461373D01*
X21319641Y24638000D01*
X21337037Y24814627D01*
X21388557Y24984466D01*
X21472222Y25140991D01*
X21501552Y25176729D01*
X21584814Y25278186D01*
X21686271Y25361448D01*
X21722009Y25390778D01*
X21878534Y25474443D01*
X22048373Y25525963D01*
X22114557Y25532481D01*
X22180740Y25539000D01*
X22269260Y25539000D01*
X22335443Y25532481D01*
X22335443Y25532481D01*
G37*
G36*
X17255443Y25532481D02*
G01*
X17321627Y25525963D01*
X17491466Y25474443D01*
X17647991Y25390778D01*
X17683729Y25361448D01*
X17785186Y25278186D01*
X17868448Y25176729D01*
X17897778Y25140991D01*
X17981443Y24984466D01*
X18032963Y24814627D01*
X18050359Y24638000D01*
X18032963Y24461373D01*
X17981443Y24291534D01*
X17897778Y24135009D01*
X17868448Y24099271D01*
X17785186Y23997814D01*
X17683729Y23914552D01*
X17647991Y23885222D01*
X17491466Y23801557D01*
X17321627Y23750037D01*
X17255442Y23743518D01*
X17189260Y23737000D01*
X17100740Y23737000D01*
X17034558Y23743518D01*
X16968373Y23750037D01*
X16798534Y23801557D01*
X16642009Y23885222D01*
X16606271Y23914552D01*
X16504814Y23997814D01*
X16421552Y24099271D01*
X16392222Y24135009D01*
X16308557Y24291534D01*
X16257037Y24461373D01*
X16239641Y24638000D01*
X16257037Y24814627D01*
X16308557Y24984466D01*
X16392222Y25140991D01*
X16421552Y25176729D01*
X16504814Y25278186D01*
X16606271Y25361448D01*
X16642009Y25390778D01*
X16798534Y25474443D01*
X16968373Y25525963D01*
X17034557Y25532481D01*
X17100740Y25539000D01*
X17189260Y25539000D01*
X17255443Y25532481D01*
X17255443Y25532481D01*
G37*
G36*
X19795443Y25532481D02*
G01*
X19861627Y25525963D01*
X20031466Y25474443D01*
X20187991Y25390778D01*
X20223729Y25361448D01*
X20325186Y25278186D01*
X20408448Y25176729D01*
X20437778Y25140991D01*
X20521443Y24984466D01*
X20572963Y24814627D01*
X20590359Y24638000D01*
X20572963Y24461373D01*
X20521443Y24291534D01*
X20437778Y24135009D01*
X20408448Y24099271D01*
X20325186Y23997814D01*
X20223729Y23914552D01*
X20187991Y23885222D01*
X20031466Y23801557D01*
X19861627Y23750037D01*
X19795442Y23743518D01*
X19729260Y23737000D01*
X19640740Y23737000D01*
X19574558Y23743518D01*
X19508373Y23750037D01*
X19338534Y23801557D01*
X19182009Y23885222D01*
X19146271Y23914552D01*
X19044814Y23997814D01*
X18961552Y24099271D01*
X18932222Y24135009D01*
X18848557Y24291534D01*
X18797037Y24461373D01*
X18779641Y24638000D01*
X18797037Y24814627D01*
X18848557Y24984466D01*
X18932222Y25140991D01*
X18961552Y25176729D01*
X19044814Y25278186D01*
X19146271Y25361448D01*
X19182009Y25390778D01*
X19338534Y25474443D01*
X19508373Y25525963D01*
X19574557Y25532481D01*
X19640740Y25539000D01*
X19729260Y25539000D01*
X19795443Y25532481D01*
X19795443Y25532481D01*
G37*
M02*
