M48
; DRILL file {KiCad 5.1.4-3.fc31} date nie, 3 lis 2019, 17:38:12
; FORMAT={-:-/ absolute / inch / decimal}
; #@! TF.CreationDate,2019-11-03T17:38:12+01:00
; #@! TF.GenerationSoftware,Kicad,Pcbnew,5.1.4-3.fc31
; #@! TF.FileFunction,Plated,1,2,PTH
FMAT,2
INCH
T1C0.0157
T2C0.0315
T3C0.0394
%
G90
G05
T1
X0.8036Y0.5289
X0.8954Y0.21
X1.5164Y0.4917
X1.5433Y0.5224
X1.5465Y0.5922
X1.8689Y0.5173
T2
X1.5Y0.2
X1.6921Y0.2
T3
X2.165Y0.7
X2.165Y0.6
X2.165Y0.5
X2.165Y0.4
X2.165Y0.3
X0.15Y0.97
X0.25Y0.97
X0.35Y0.97
X0.575Y0.97
X0.675Y0.97
X0.775Y0.97
X0.875Y0.97
X0.975Y0.97
T0
M30
