%TF.GenerationSoftware,KiCad,Pcbnew,5.1.4-3.fc30*%
%TF.CreationDate,2019-10-13T14:31:29+02:00*%
%TF.ProjectId,crystal_connector,63727973-7461-46c5-9f63-6f6e6e656374,1.0*%
%TF.SameCoordinates,PX7df6180PY5734380*%
%TF.FileFunction,Other,Fab,Top*%
%FSLAX46Y46*%
G04 Gerber Fmt 4.6, Leading zero omitted, Abs format (unit mm)*
G04 Created by KiCad (PCBNEW 5.1.4-3.fc30) date 2019-10-13 14:31:29*
%MOMM*%
%LPD*%
G04 APERTURE LIST*
%ADD10C,0.100000*%
%ADD11C,0.150000*%
%ADD12C,0.129000*%
G04 APERTURE END LIST*
D10*
%TO.C,C1*%
X16860000Y4760000D02*
X16860000Y2860000D01*
X16860000Y2860000D02*
X21160000Y2860000D01*
X21160000Y2860000D02*
X21160000Y4760000D01*
X21160000Y4760000D02*
X16860000Y4760000D01*
%TO.C,C2*%
X21160000Y12380000D02*
X16860000Y12380000D01*
X21160000Y10480000D02*
X21160000Y12380000D01*
X16860000Y10480000D02*
X21160000Y10480000D01*
X16860000Y12380000D02*
X16860000Y10480000D01*
%TO.C,J1*%
X405000Y3810000D02*
X-1500000Y3810000D01*
X-1500000Y3810000D02*
X-1500000Y11430000D01*
X-1500000Y11430000D02*
X1040000Y11430000D01*
X1040000Y11430000D02*
X1040000Y4445000D01*
X1040000Y4445000D02*
X405000Y3810000D01*
X2860000Y4760000D02*
X1040000Y4760000D01*
X2860000Y4760000D02*
X2860000Y5400000D01*
X2860000Y5400000D02*
X1040000Y5400000D01*
X-1500000Y4760000D02*
X-7500000Y4760000D01*
X-7500000Y4760000D02*
X-7500000Y5400000D01*
X-1500000Y5400000D02*
X-7500000Y5400000D01*
X2860000Y7300000D02*
X1040000Y7300000D01*
X2860000Y7300000D02*
X2860000Y7940000D01*
X2860000Y7940000D02*
X1040000Y7940000D01*
X-1500000Y7300000D02*
X-7500000Y7300000D01*
X-7500000Y7300000D02*
X-7500000Y7940000D01*
X-1500000Y7940000D02*
X-7500000Y7940000D01*
X2860000Y9840000D02*
X1040000Y9840000D01*
X2860000Y9840000D02*
X2860000Y10480000D01*
X2860000Y10480000D02*
X1040000Y10480000D01*
X-1500000Y9840000D02*
X-7500000Y9840000D01*
X-7500000Y9840000D02*
X-7500000Y10480000D01*
X-1500000Y10480000D02*
X-7500000Y10480000D01*
%TO.C,Y1*%
X7835000Y4330000D02*
X7835000Y10730000D01*
X12485000Y4330000D02*
X12485000Y10730000D01*
X8260000Y4330000D02*
X8260000Y10730000D01*
X12060000Y4330000D02*
X12060000Y10730000D01*
X12485000Y4330000D02*
G75*
G02X7835000Y4330000I-2325000J0D01*
G01*
X12485000Y10730000D02*
G75*
G03X7835000Y10730000I-2325000J0D01*
G01*
X12060000Y4330000D02*
G75*
G02X8260000Y4330000I-1900000J0D01*
G01*
X12060000Y10730000D02*
G75*
G03X8260000Y10730000I-1900000J0D01*
G01*
%TD*%
%TO.C,C1*%
D11*
X17795714Y2062381D02*
X17843333Y2110000D01*
X17938571Y2157620D01*
X18176666Y2157620D01*
X18271904Y2110000D01*
X18319523Y2062381D01*
X18367142Y1967143D01*
X18367142Y1871905D01*
X18319523Y1729048D01*
X17748095Y1157620D01*
X18367142Y1157620D01*
X18748095Y2062381D02*
X18795714Y2110000D01*
X18890952Y2157620D01*
X19129047Y2157620D01*
X19224285Y2110000D01*
X19271904Y2062381D01*
X19319523Y1967143D01*
X19319523Y1871905D01*
X19271904Y1729048D01*
X18700476Y1157620D01*
X19319523Y1157620D01*
X19748095Y1824286D02*
X19748095Y824286D01*
X19748095Y1776667D02*
X19843333Y1824286D01*
X20033809Y1824286D01*
X20129047Y1776667D01*
X20176666Y1729048D01*
X20224285Y1633810D01*
X20224285Y1348096D01*
X20176666Y1252858D01*
X20129047Y1205239D01*
X20033809Y1157620D01*
X19843333Y1157620D01*
X19748095Y1205239D01*
D12*
X18866666Y3502858D02*
X18825714Y3461905D01*
X18702857Y3420953D01*
X18620952Y3420953D01*
X18498095Y3461905D01*
X18416190Y3543810D01*
X18375238Y3625715D01*
X18334285Y3789524D01*
X18334285Y3912381D01*
X18375238Y4076191D01*
X18416190Y4158096D01*
X18498095Y4240000D01*
X18620952Y4280953D01*
X18702857Y4280953D01*
X18825714Y4240000D01*
X18866666Y4199048D01*
X19685714Y3420953D02*
X19194285Y3420953D01*
X19440000Y3420953D02*
X19440000Y4280953D01*
X19358095Y4158096D01*
X19276190Y4076191D01*
X19194285Y4035239D01*
%TO.C,C2*%
D11*
X17795714Y9682381D02*
X17843333Y9730000D01*
X17938571Y9777620D01*
X18176666Y9777620D01*
X18271904Y9730000D01*
X18319523Y9682381D01*
X18367142Y9587143D01*
X18367142Y9491905D01*
X18319523Y9349048D01*
X17748095Y8777620D01*
X18367142Y8777620D01*
X18748095Y9682381D02*
X18795714Y9730000D01*
X18890952Y9777620D01*
X19129047Y9777620D01*
X19224285Y9730000D01*
X19271904Y9682381D01*
X19319523Y9587143D01*
X19319523Y9491905D01*
X19271904Y9349048D01*
X18700476Y8777620D01*
X19319523Y8777620D01*
X19748095Y9444286D02*
X19748095Y8444286D01*
X19748095Y9396667D02*
X19843333Y9444286D01*
X20033809Y9444286D01*
X20129047Y9396667D01*
X20176666Y9349048D01*
X20224285Y9253810D01*
X20224285Y8968096D01*
X20176666Y8872858D01*
X20129047Y8825239D01*
X20033809Y8777620D01*
X19843333Y8777620D01*
X19748095Y8825239D01*
D12*
X18866666Y11122858D02*
X18825714Y11081905D01*
X18702857Y11040953D01*
X18620952Y11040953D01*
X18498095Y11081905D01*
X18416190Y11163810D01*
X18375238Y11245715D01*
X18334285Y11409524D01*
X18334285Y11532381D01*
X18375238Y11696191D01*
X18416190Y11778096D01*
X18498095Y11860000D01*
X18620952Y11900953D01*
X18702857Y11900953D01*
X18825714Y11860000D01*
X18866666Y11819048D01*
X19194285Y11819048D02*
X19235238Y11860000D01*
X19317142Y11900953D01*
X19521904Y11900953D01*
X19603809Y11860000D01*
X19644761Y11819048D01*
X19685714Y11737143D01*
X19685714Y11655239D01*
X19644761Y11532381D01*
X19153333Y11040953D01*
X19685714Y11040953D01*
%TO.C,J1*%
D11*
X4532380Y2000953D02*
X5532380Y2667620D01*
X4532380Y2667620D02*
X5532380Y2000953D01*
X4532380Y2905715D02*
X4532380Y3477143D01*
X5532380Y3191429D02*
X4532380Y3191429D01*
X5246666Y3762858D02*
X5246666Y4239048D01*
X5532380Y3667620D02*
X4532380Y4000953D01*
X5532380Y4334286D01*
X5532380Y5143810D02*
X5532380Y4667620D01*
X4532380Y4667620D01*
X5627619Y5239048D02*
X5627619Y6000953D01*
X5484761Y6667620D02*
X5532380Y6572381D01*
X5532380Y6381905D01*
X5484761Y6286667D01*
X5437142Y6239048D01*
X5341904Y6191429D01*
X5056190Y6191429D01*
X4960952Y6239048D01*
X4913333Y6286667D01*
X4865714Y6381905D01*
X4865714Y6572381D01*
X4913333Y6667620D01*
X5532380Y7239048D02*
X5484761Y7143810D01*
X5437142Y7096191D01*
X5341904Y7048572D01*
X5056190Y7048572D01*
X4960952Y7096191D01*
X4913333Y7143810D01*
X4865714Y7239048D01*
X4865714Y7381905D01*
X4913333Y7477143D01*
X4960952Y7524762D01*
X5056190Y7572381D01*
X5341904Y7572381D01*
X5437142Y7524762D01*
X5484761Y7477143D01*
X5532380Y7381905D01*
X5532380Y7239048D01*
X4865714Y8000953D02*
X5532380Y8000953D01*
X4960952Y8000953D02*
X4913333Y8048572D01*
X4865714Y8143810D01*
X4865714Y8286667D01*
X4913333Y8381905D01*
X5008571Y8429524D01*
X5532380Y8429524D01*
X4865714Y8905715D02*
X5532380Y8905715D01*
X4960952Y8905715D02*
X4913333Y8953334D01*
X4865714Y9048572D01*
X4865714Y9191429D01*
X4913333Y9286667D01*
X5008571Y9334286D01*
X5532380Y9334286D01*
X5484761Y10191429D02*
X5532380Y10096191D01*
X5532380Y9905715D01*
X5484761Y9810477D01*
X5389523Y9762858D01*
X5008571Y9762858D01*
X4913333Y9810477D01*
X4865714Y9905715D01*
X4865714Y10096191D01*
X4913333Y10191429D01*
X5008571Y10239048D01*
X5103809Y10239048D01*
X5199047Y9762858D01*
X5484761Y11096191D02*
X5532380Y11000953D01*
X5532380Y10810477D01*
X5484761Y10715239D01*
X5437142Y10667620D01*
X5341904Y10620000D01*
X5056190Y10620000D01*
X4960952Y10667620D01*
X4913333Y10715239D01*
X4865714Y10810477D01*
X4865714Y11000953D01*
X4913333Y11096191D01*
X4865714Y11381905D02*
X4865714Y11762858D01*
X4532380Y11524762D02*
X5389523Y11524762D01*
X5484761Y11572381D01*
X5532380Y11667620D01*
X5532380Y11762858D01*
X5532380Y12239048D02*
X5484761Y12143810D01*
X5437142Y12096191D01*
X5341904Y12048572D01*
X5056190Y12048572D01*
X4960952Y12096191D01*
X4913333Y12143810D01*
X4865714Y12239048D01*
X4865714Y12381905D01*
X4913333Y12477143D01*
X4960952Y12524762D01*
X5056190Y12572381D01*
X5341904Y12572381D01*
X5437142Y12524762D01*
X5484761Y12477143D01*
X5532380Y12381905D01*
X5532380Y12239048D01*
X5532380Y13000953D02*
X4865714Y13000953D01*
X5056190Y13000953D02*
X4960952Y13048572D01*
X4913333Y13096191D01*
X4865714Y13191429D01*
X4865714Y13286667D01*
X-777620Y7286667D02*
X-63334Y7286667D01*
X79523Y7239048D01*
X174761Y7143810D01*
X222380Y7000953D01*
X222380Y6905715D01*
X222380Y8286667D02*
X222380Y7715239D01*
X222380Y8000953D02*
X-777620Y8000953D01*
X-634762Y7905715D01*
X-539524Y7810477D01*
X-491905Y7715239D01*
%TO.C,Y1*%
X13137380Y5982381D02*
X14137380Y6649048D01*
X13137380Y6649048D02*
X14137380Y5982381D01*
X13137380Y6887143D02*
X13137380Y7458572D01*
X14137380Y7172858D02*
X13137380Y7172858D01*
X13851666Y7744286D02*
X13851666Y8220477D01*
X14137380Y7649048D02*
X13137380Y7982381D01*
X14137380Y8315715D01*
X14137380Y9125239D02*
X14137380Y8649048D01*
X13137380Y8649048D01*
X10136190Y7053810D02*
X10612380Y7053810D01*
X9612380Y6720477D02*
X10136190Y7053810D01*
X9612380Y7387143D01*
X10612380Y8244286D02*
X10612380Y7672858D01*
X10612380Y7958572D02*
X9612380Y7958572D01*
X9755238Y7863334D01*
X9850476Y7768096D01*
X9898095Y7672858D01*
%TD*%
M02*
