%TF.GenerationSoftware,KiCad,Pcbnew,5.1.6-c6e7f7d~86~ubuntu18.04.1*%
%TF.CreationDate,2020-05-25T18:44:43+02:00*%
%TF.ProjectId,crystal_connector,63727973-7461-46c5-9f63-6f6e6e656374,1.0*%
%TF.SameCoordinates,PX7df6180PY5734380*%
%TF.FileFunction,Soldermask,Bot*%
%TF.FilePolarity,Negative*%
%FSLAX46Y46*%
G04 Gerber Fmt 4.6, Leading zero omitted, Abs format (unit mm)*
G04 Created by KiCad (PCBNEW 5.1.6-c6e7f7d~86~ubuntu18.04.1) date 2020-05-25 18:44:43*
%MOMM*%
%LPD*%
G01*
G04 APERTURE LIST*
%ADD10C,0.150000*%
G04 APERTURE END LIST*
D10*
G36*
X16758228Y4628297D02*
G01*
X16913100Y4564147D01*
X17052481Y4471015D01*
X17171015Y4352481D01*
X17264147Y4213100D01*
X17328297Y4058228D01*
X17361000Y3893816D01*
X17361000Y3726184D01*
X17328297Y3561772D01*
X17264147Y3406900D01*
X17171015Y3267519D01*
X17052481Y3148985D01*
X16913100Y3055853D01*
X16758228Y2991703D01*
X16593816Y2959000D01*
X16426184Y2959000D01*
X16261772Y2991703D01*
X16106900Y3055853D01*
X15967519Y3148985D01*
X15848985Y3267519D01*
X15755853Y3406900D01*
X15691703Y3561772D01*
X15659000Y3726184D01*
X15659000Y3893816D01*
X15691703Y4058228D01*
X15755853Y4213100D01*
X15848985Y4352481D01*
X15967519Y4471015D01*
X16106900Y4564147D01*
X16261772Y4628297D01*
X16426184Y4661000D01*
X16593816Y4661000D01*
X16758228Y4628297D01*
G37*
G36*
X21758228Y4628297D02*
G01*
X21913100Y4564147D01*
X22052481Y4471015D01*
X22171015Y4352481D01*
X22264147Y4213100D01*
X22328297Y4058228D01*
X22361000Y3893816D01*
X22361000Y3726184D01*
X22328297Y3561772D01*
X22264147Y3406900D01*
X22171015Y3267519D01*
X22052481Y3148985D01*
X21913100Y3055853D01*
X21758228Y2991703D01*
X21593816Y2959000D01*
X21426184Y2959000D01*
X21261772Y2991703D01*
X21106900Y3055853D01*
X20967519Y3148985D01*
X20848985Y3267519D01*
X20755853Y3406900D01*
X20691703Y3561772D01*
X20659000Y3726184D01*
X20659000Y3893816D01*
X20691703Y4058228D01*
X20755853Y4213100D01*
X20848985Y4352481D01*
X20967519Y4471015D01*
X21106900Y4564147D01*
X21261772Y4628297D01*
X21426184Y4661000D01*
X21593816Y4661000D01*
X21758228Y4628297D01*
G37*
G36*
X10510318Y6234847D02*
G01*
X10728885Y6144313D01*
X10728887Y6144312D01*
X10925593Y6012878D01*
X11092878Y5845593D01*
X11224312Y5648887D01*
X11224313Y5648885D01*
X11314847Y5430318D01*
X11361000Y5198290D01*
X11361000Y4961710D01*
X11314847Y4729682D01*
X11224313Y4511115D01*
X11224312Y4511113D01*
X11092878Y4314407D01*
X10925593Y4147122D01*
X10728887Y4015688D01*
X10728886Y4015687D01*
X10728885Y4015687D01*
X10510318Y3925153D01*
X10278290Y3879000D01*
X10041710Y3879000D01*
X9809682Y3925153D01*
X9591115Y4015687D01*
X9591114Y4015687D01*
X9591113Y4015688D01*
X9394407Y4147122D01*
X9227122Y4314407D01*
X9095688Y4511113D01*
X9095687Y4511115D01*
X9005153Y4729682D01*
X8959000Y4961710D01*
X8959000Y5198290D01*
X9005153Y5430318D01*
X9095687Y5648885D01*
X9095688Y5648887D01*
X9227122Y5845593D01*
X9394407Y6012878D01*
X9591113Y6144312D01*
X9591115Y6144313D01*
X9809682Y6234847D01*
X10041710Y6281000D01*
X10278290Y6281000D01*
X10510318Y6234847D01*
G37*
G36*
X3441000Y4179000D02*
G01*
X1639000Y4179000D01*
X1639000Y5981000D01*
X3441000Y5981000D01*
X3441000Y4179000D01*
G37*
G36*
X2653512Y8516073D02*
G01*
X2802812Y8486376D01*
X2966784Y8418456D01*
X3114354Y8319853D01*
X3239853Y8194354D01*
X3338456Y8046784D01*
X3406376Y7882812D01*
X3441000Y7708741D01*
X3441000Y7531259D01*
X3406376Y7357188D01*
X3338456Y7193216D01*
X3239853Y7045646D01*
X3114354Y6920147D01*
X2966784Y6821544D01*
X2802812Y6753624D01*
X2653512Y6723927D01*
X2628742Y6719000D01*
X2451258Y6719000D01*
X2426488Y6723927D01*
X2277188Y6753624D01*
X2113216Y6821544D01*
X1965646Y6920147D01*
X1840147Y7045646D01*
X1741544Y7193216D01*
X1673624Y7357188D01*
X1639000Y7531259D01*
X1639000Y7708741D01*
X1673624Y7882812D01*
X1741544Y8046784D01*
X1840147Y8194354D01*
X1965646Y8319853D01*
X2113216Y8418456D01*
X2277188Y8486376D01*
X2426488Y8516073D01*
X2451258Y8521000D01*
X2628742Y8521000D01*
X2653512Y8516073D01*
G37*
G36*
X10510318Y11134847D02*
G01*
X10688599Y11061000D01*
X10728887Y11044312D01*
X10925593Y10912878D01*
X11092878Y10745593D01*
X11204191Y10579000D01*
X11224313Y10548885D01*
X11314847Y10330318D01*
X11361000Y10098290D01*
X11361000Y9861710D01*
X11314847Y9629682D01*
X11244623Y9460148D01*
X11224312Y9411113D01*
X11092878Y9214407D01*
X10925593Y9047122D01*
X10728887Y8915688D01*
X10728886Y8915687D01*
X10728885Y8915687D01*
X10510318Y8825153D01*
X10278290Y8779000D01*
X10041710Y8779000D01*
X9809682Y8825153D01*
X9591115Y8915687D01*
X9591114Y8915687D01*
X9591113Y8915688D01*
X9394407Y9047122D01*
X9227122Y9214407D01*
X9095688Y9411113D01*
X9075377Y9460148D01*
X9005153Y9629682D01*
X8959000Y9861710D01*
X8959000Y10098290D01*
X9005153Y10330318D01*
X9095687Y10548885D01*
X9115809Y10579000D01*
X9227122Y10745593D01*
X9394407Y10912878D01*
X9591113Y11044312D01*
X9631401Y11061000D01*
X9809682Y11134847D01*
X10041710Y11181000D01*
X10278290Y11181000D01*
X10510318Y11134847D01*
G37*
G36*
X2653512Y11056073D02*
G01*
X2802812Y11026376D01*
X2966784Y10958456D01*
X3114354Y10859853D01*
X3239853Y10734354D01*
X3338456Y10586784D01*
X3406376Y10422812D01*
X3441000Y10248741D01*
X3441000Y10071259D01*
X3406376Y9897188D01*
X3338456Y9733216D01*
X3239853Y9585646D01*
X3114354Y9460147D01*
X2966784Y9361544D01*
X2802812Y9293624D01*
X2653512Y9263927D01*
X2628742Y9259000D01*
X2451258Y9259000D01*
X2426488Y9263927D01*
X2277188Y9293624D01*
X2113216Y9361544D01*
X1965646Y9460147D01*
X1840147Y9585646D01*
X1741544Y9733216D01*
X1673624Y9897188D01*
X1639000Y10071259D01*
X1639000Y10248741D01*
X1673624Y10422812D01*
X1741544Y10586784D01*
X1840147Y10734354D01*
X1965646Y10859853D01*
X2113216Y10958456D01*
X2277188Y11026376D01*
X2426488Y11056073D01*
X2451258Y11061000D01*
X2628742Y11061000D01*
X2653512Y11056073D01*
G37*
G36*
X21758228Y12248297D02*
G01*
X21913100Y12184147D01*
X22052481Y12091015D01*
X22171015Y11972481D01*
X22264147Y11833100D01*
X22328297Y11678228D01*
X22361000Y11513816D01*
X22361000Y11346184D01*
X22328297Y11181772D01*
X22264147Y11026900D01*
X22171015Y10887519D01*
X22052481Y10768985D01*
X21913100Y10675853D01*
X21758228Y10611703D01*
X21593816Y10579000D01*
X21426184Y10579000D01*
X21261772Y10611703D01*
X21106900Y10675853D01*
X20967519Y10768985D01*
X20848985Y10887519D01*
X20755853Y11026900D01*
X20691703Y11181772D01*
X20659000Y11346184D01*
X20659000Y11513816D01*
X20691703Y11678228D01*
X20755853Y11833100D01*
X20848985Y11972481D01*
X20967519Y12091015D01*
X21106900Y12184147D01*
X21261772Y12248297D01*
X21426184Y12281000D01*
X21593816Y12281000D01*
X21758228Y12248297D01*
G37*
G36*
X16758228Y12248297D02*
G01*
X16913100Y12184147D01*
X17052481Y12091015D01*
X17171015Y11972481D01*
X17264147Y11833100D01*
X17328297Y11678228D01*
X17361000Y11513816D01*
X17361000Y11346184D01*
X17328297Y11181772D01*
X17264147Y11026900D01*
X17171015Y10887519D01*
X17052481Y10768985D01*
X16913100Y10675853D01*
X16758228Y10611703D01*
X16593816Y10579000D01*
X16426184Y10579000D01*
X16261772Y10611703D01*
X16106900Y10675853D01*
X15967519Y10768985D01*
X15848985Y10887519D01*
X15755853Y11026900D01*
X15691703Y11181772D01*
X15659000Y11346184D01*
X15659000Y11513816D01*
X15691703Y11678228D01*
X15755853Y11833100D01*
X15848985Y11972481D01*
X15967519Y12091015D01*
X16106900Y12184147D01*
X16261772Y12248297D01*
X16426184Y12281000D01*
X16593816Y12281000D01*
X16758228Y12248297D01*
G37*
M02*
