%TF.GenerationSoftware,KiCad,Pcbnew,5.1.4-3.fc31*%
%TF.CreationDate,2019-11-08T16:10:21+01:00*%
%TF.ProjectId,LED_display,4c45445f-6469-4737-906c-61792e6b6963,rev?*%
%TF.SameCoordinates,PX76b1be0PY76b1be0*%
%TF.FileFunction,Copper,L1,Top*%
%TF.FilePolarity,Positive*%
%FSLAX46Y46*%
G04 Gerber Fmt 4.6, Leading zero omitted, Abs format (unit mm)*
G04 Created by KiCad (PCBNEW 5.1.4-3.fc31) date 2019-11-08 16:10:21*
%MOMM*%
%LPD*%
G04 APERTURE LIST*
%TA.AperFunction,ComponentPad*%
%ADD10R,1.524000X1.524000*%
%TD*%
%TA.AperFunction,ComponentPad*%
%ADD11C,1.524000*%
%TD*%
%TA.AperFunction,ComponentPad*%
%ADD12O,1.400000X1.400000*%
%TD*%
%TA.AperFunction,ComponentPad*%
%ADD13C,1.400000*%
%TD*%
%TA.AperFunction,Conductor*%
%ADD14C,0.400000*%
%TD*%
G04 APERTURE END LIST*
D10*
%TO.P,J1,1*%
%TO.N,Net-(J1-Pad1)*%
X12700000Y7620000D03*
D11*
%TO.P,J1,2*%
%TO.N,Net-(J1-Pad2)*%
X15240000Y7620000D03*
%TO.P,J1,3*%
%TO.N,Net-(J1-Pad3)*%
X17780000Y7620000D03*
%TO.P,J1,4*%
%TO.N,Net-(J1-Pad4)*%
X20320000Y7620000D03*
%TO.P,J1,5*%
%TO.N,Net-(J1-Pad5)*%
X22860000Y7620000D03*
%TO.P,J1,6*%
%TO.N,Net-(J1-Pad6)*%
X25400000Y7620000D03*
%TO.P,J1,7*%
%TO.N,Net-(J1-Pad7)*%
X27940000Y7620000D03*
%TO.P,J1,8*%
%TO.N,Net-(J1-Pad8)*%
X30480000Y7620000D03*
%TO.P,J1,9*%
%TO.N,Net-(J1-Pad9)*%
X35560000Y7620000D03*
%TD*%
D12*
%TO.P,R1,2*%
%TO.N,Net-(J1-Pad1)*%
X15240000Y35560000D03*
D13*
%TO.P,R1,1*%
%TO.N,Net-(R1-Pad1)*%
X15240000Y43180000D03*
%TD*%
D12*
%TO.P,R2,2*%
%TO.N,Net-(J1-Pad2)*%
X20320000Y35560000D03*
D13*
%TO.P,R2,1*%
%TO.N,Net-(R2-Pad1)*%
X20320000Y43180000D03*
%TD*%
D12*
%TO.P,R3,2*%
%TO.N,Net-(J1-Pad3)*%
X20320000Y20320000D03*
D13*
%TO.P,R3,1*%
%TO.N,Net-(R3-Pad1)*%
X20320000Y27940000D03*
%TD*%
D12*
%TO.P,R4,2*%
%TO.N,Net-(J1-Pad4)*%
X25400000Y20320000D03*
D13*
%TO.P,R4,1*%
%TO.N,Net-(R4-Pad1)*%
X25400000Y27940000D03*
%TD*%
D12*
%TO.P,R5,2*%
%TO.N,Net-(J1-Pad5)*%
X30480000Y20320000D03*
D13*
%TO.P,R5,1*%
%TO.N,Net-(R5-Pad1)*%
X30480000Y27940000D03*
%TD*%
D12*
%TO.P,R6,2*%
%TO.N,Net-(J1-Pad6)*%
X5080000Y35560000D03*
D13*
%TO.P,R6,1*%
%TO.N,Net-(R6-Pad1)*%
X5080000Y43180000D03*
%TD*%
D12*
%TO.P,R7,2*%
%TO.N,Net-(J1-Pad7)*%
X10160000Y35560000D03*
D13*
%TO.P,R7,1*%
%TO.N,Net-(R7-Pad1)*%
X10160000Y43180000D03*
%TD*%
D12*
%TO.P,R8,2*%
%TO.N,Net-(J1-Pad8)*%
X35560000Y20320000D03*
D13*
%TO.P,R8,1*%
%TO.N,Net-(R8-Pad1)*%
X35560000Y27940000D03*
%TD*%
D11*
%TO.P,U1,6*%
%TO.N,Net-(R2-Pad1)*%
X35400000Y48260000D03*
%TO.P,U1,7*%
%TO.N,Net-(R1-Pad1)*%
X32940000Y48260000D03*
%TO.P,U1,10*%
%TO.N,Net-(R7-Pad1)*%
X25560000Y48260000D03*
%TO.P,U1,9*%
%TO.N,Net-(R6-Pad1)*%
X28020000Y48260000D03*
%TO.P,U1,8*%
%TO.N,Net-(J1-Pad9)*%
X30480000Y48260000D03*
%TO.P,U1,5*%
%TO.N,Net-(R8-Pad1)*%
X35400000Y33020000D03*
%TO.P,U1,4*%
%TO.N,Net-(R3-Pad1)*%
X32940000Y33020000D03*
D10*
%TO.P,U1,1*%
%TO.N,Net-(R5-Pad1)*%
X25560000Y33020000D03*
D11*
%TO.P,U1,2*%
%TO.N,Net-(R4-Pad1)*%
X28020000Y33020000D03*
%TO.P,U1,3*%
%TO.N,Net-(J1-Pad9)*%
X30480000Y33020000D03*
%TD*%
D14*
%TO.N,Net-(J1-Pad9)*%
X30480000Y48260000D02*
X30480000Y33020000D01*
X30480000Y33020000D02*
X33020000Y30480000D01*
X33020000Y30480000D02*
X33020000Y10160000D01*
X33020000Y10160000D02*
X35560000Y7620000D01*
%TO.N,Net-(J1-Pad5)*%
X22860000Y7620000D02*
X22860000Y11599700D01*
X22860000Y11599700D02*
X30480000Y19219700D01*
X30480000Y20320000D02*
X30480000Y19219700D01*
%TO.N,Net-(J1-Pad4)*%
X25400000Y20320000D02*
X25400000Y19219700D01*
X25400000Y19219700D02*
X20320000Y14139700D01*
X20320000Y14139700D02*
X20320000Y7620000D01*
%TO.N,Net-(J1-Pad3)*%
X20320000Y20320000D02*
X20320000Y19219700D01*
X20320000Y19219700D02*
X17780000Y16679700D01*
X17780000Y16679700D02*
X17780000Y7620000D01*
%TO.N,Net-(J1-Pad2)*%
X20320000Y35560000D02*
X20320000Y34459700D01*
X20320000Y34459700D02*
X15240000Y29379700D01*
X15240000Y29379700D02*
X15240000Y7620000D01*
%TO.N,Net-(J1-Pad1)*%
X15240000Y35560000D02*
X15240000Y34459700D01*
X15240000Y34459700D02*
X12700000Y31919700D01*
X12700000Y31919700D02*
X12700000Y7620000D01*
%TO.N,Net-(R4-Pad1)*%
X28020000Y33020000D02*
X28020000Y30560000D01*
X28020000Y30560000D02*
X25400000Y27940000D01*
%TO.N,Net-(R7-Pad1)*%
X25560000Y48260000D02*
X15240000Y48260000D01*
X15240000Y48260000D02*
X10160000Y43180000D01*
%TO.N,Net-(R8-Pad1)*%
X35400000Y33020000D02*
X35400000Y28100000D01*
X35400000Y28100000D02*
X35560000Y27940000D01*
%TD*%
M02*
