%TF.GenerationSoftware,KiCad,Pcbnew,5.1.4-3.fc31*%
%TF.CreationDate,2019-11-08T16:10:22+01:00*%
%TF.ProjectId,LED_display,4c45445f-6469-4737-906c-61792e6b6963,rev?*%
%TF.SameCoordinates,PX76b1be0PY76b1be0*%
%TF.FileFunction,Legend,Bot*%
%TF.FilePolarity,Positive*%
%FSLAX46Y46*%
G04 Gerber Fmt 4.6, Leading zero omitted, Abs format (unit mm)*
G04 Created by KiCad (PCBNEW 5.1.4-3.fc31) date 2019-11-08 16:10:22*
%MOMM*%
%LPD*%
G04 APERTURE LIST*
%ADD10R,1.626000X1.626000*%
%ADD11C,1.626000*%
%ADD12O,1.502000X1.502000*%
%ADD13C,1.502000*%
G04 APERTURE END LIST*
%LPC*%
D10*
%TO.C,J1*%
X12700000Y7620000D03*
D11*
X15240000Y7620000D03*
X17780000Y7620000D03*
X20320000Y7620000D03*
X22860000Y7620000D03*
X25400000Y7620000D03*
X27940000Y7620000D03*
X30480000Y7620000D03*
X35560000Y7620000D03*
X12700000Y5080000D03*
X15240000Y5080000D03*
X17780000Y5080000D03*
X20350000Y5070000D03*
X22900000Y5080000D03*
X25400000Y5080000D03*
X27940000Y5080000D03*
X30480000Y5080000D03*
X35560000Y5080000D03*
%TD*%
D12*
%TO.C,R1*%
X15240000Y35560000D03*
D13*
X15240000Y43180000D03*
%TD*%
D12*
%TO.C,R2*%
X20320000Y35560000D03*
D13*
X20320000Y43180000D03*
%TD*%
D12*
%TO.C,R3*%
X20320000Y20320000D03*
D13*
X20320000Y27940000D03*
%TD*%
D12*
%TO.C,R4*%
X25400000Y20320000D03*
D13*
X25400000Y27940000D03*
%TD*%
D12*
%TO.C,R5*%
X30480000Y20320000D03*
D13*
X30480000Y27940000D03*
%TD*%
D12*
%TO.C,R6*%
X5080000Y35560000D03*
D13*
X5080000Y43180000D03*
%TD*%
D12*
%TO.C,R7*%
X10160000Y35560000D03*
D13*
X10160000Y43180000D03*
%TD*%
D12*
%TO.C,R8*%
X35560000Y20320000D03*
D13*
X35560000Y27940000D03*
%TD*%
D11*
%TO.C,U1*%
X35400000Y48260000D03*
X32940000Y48260000D03*
X25560000Y48260000D03*
X28020000Y48260000D03*
X30480000Y48260000D03*
X35400000Y33020000D03*
X32940000Y33020000D03*
D10*
X25560000Y33020000D03*
D11*
X28020000Y33020000D03*
X30480000Y33020000D03*
%TD*%
M02*
