%TF.GenerationSoftware,KiCad,Pcbnew,5.1.4-3.fc30*%
%TF.CreationDate,2019-10-13T14:30:58+02:00*%
%TF.ProjectId,atmega_prog_adapter_v3,61746d65-6761-45f7-9072-6f675f616461,1.0*%
%TF.SameCoordinates,PX59a0560PY76b1be0*%
%TF.FileFunction,Soldermask,Top*%
%TF.FilePolarity,Negative*%
%FSLAX46Y46*%
G04 Gerber Fmt 4.6, Leading zero omitted, Abs format (unit mm)*
G04 Created by KiCad (PCBNEW 5.1.4-3.fc30) date 2019-10-13 14:30:58*
%MOMM*%
%LPD*%
G04 APERTURE LIST*
%ADD10C,0.150000*%
G04 APERTURE END LIST*
D10*
G36*
X45928228Y5898297D02*
G01*
X46083100Y5834147D01*
X46222481Y5741015D01*
X46341015Y5622481D01*
X46434147Y5483100D01*
X46498297Y5328228D01*
X46531000Y5163816D01*
X46531000Y4996184D01*
X46498297Y4831772D01*
X46434147Y4676900D01*
X46341015Y4537519D01*
X46222481Y4418985D01*
X46083100Y4325853D01*
X45928228Y4261703D01*
X45763816Y4229000D01*
X45596184Y4229000D01*
X45431772Y4261703D01*
X45276900Y4325853D01*
X45137519Y4418985D01*
X45018985Y4537519D01*
X44925853Y4676900D01*
X44861703Y4831772D01*
X44829000Y4996184D01*
X44829000Y5163816D01*
X44861703Y5328228D01*
X44925853Y5483100D01*
X45018985Y5622481D01*
X45137519Y5741015D01*
X45276900Y5834147D01*
X45431772Y5898297D01*
X45596184Y5931000D01*
X45763816Y5931000D01*
X45928228Y5898297D01*
X45928228Y5898297D01*
G37*
G36*
X43428228Y5898297D02*
G01*
X43583100Y5834147D01*
X43722481Y5741015D01*
X43841015Y5622481D01*
X43934147Y5483100D01*
X43998297Y5328228D01*
X44031000Y5163816D01*
X44031000Y4996184D01*
X43998297Y4831772D01*
X43934147Y4676900D01*
X43841015Y4537519D01*
X43722481Y4418985D01*
X43583100Y4325853D01*
X43428228Y4261703D01*
X43263816Y4229000D01*
X43096184Y4229000D01*
X42931772Y4261703D01*
X42776900Y4325853D01*
X42637519Y4418985D01*
X42518985Y4537519D01*
X42425853Y4676900D01*
X42361703Y4831772D01*
X42329000Y4996184D01*
X42329000Y5163816D01*
X42361703Y5328228D01*
X42425853Y5483100D01*
X42518985Y5622481D01*
X42637519Y5741015D01*
X42776900Y5834147D01*
X42931772Y5898297D01*
X43096184Y5931000D01*
X43263816Y5931000D01*
X43428228Y5898297D01*
X43428228Y5898297D01*
G37*
G36*
X33171142Y13739844D02*
G01*
X33316476Y13695757D01*
X33316479Y13695756D01*
X33450416Y13624165D01*
X33567817Y13527817D01*
X33664165Y13410416D01*
X33735756Y13276479D01*
X33735757Y13276476D01*
X33779844Y13131142D01*
X33791000Y13017872D01*
X33791000Y12382128D01*
X33779844Y12268858D01*
X33735757Y12123525D01*
X33735756Y12123521D01*
X33664165Y11989584D01*
X33664164Y11989583D01*
X33567817Y11872183D01*
X33468268Y11790486D01*
X33450415Y11775835D01*
X33316478Y11704244D01*
X33316475Y11704243D01*
X33171141Y11660156D01*
X33020000Y11645270D01*
X32868858Y11660156D01*
X32723524Y11704243D01*
X32723521Y11704244D01*
X32589584Y11775835D01*
X32568531Y11793113D01*
X32472183Y11872183D01*
X32375836Y11989584D01*
X32304245Y12123521D01*
X32304244Y12123522D01*
X32304243Y12123525D01*
X32260156Y12268859D01*
X32249000Y12382129D01*
X32249000Y13017872D01*
X32260156Y13131142D01*
X32304243Y13276476D01*
X32304243Y13276477D01*
X32375837Y13410418D01*
X32472184Y13527817D01*
X32589585Y13624165D01*
X32723522Y13695756D01*
X32723525Y13695757D01*
X32868859Y13739844D01*
X33020000Y13754730D01*
X33171142Y13739844D01*
X33171142Y13739844D01*
G37*
G36*
X38251142Y13739844D02*
G01*
X38396476Y13695757D01*
X38396479Y13695756D01*
X38530416Y13624165D01*
X38647817Y13527817D01*
X38744165Y13410416D01*
X38815756Y13276479D01*
X38815757Y13276476D01*
X38859844Y13131142D01*
X38871000Y13017872D01*
X38871000Y12382128D01*
X38859844Y12268858D01*
X38815757Y12123525D01*
X38815756Y12123521D01*
X38744165Y11989584D01*
X38744164Y11989583D01*
X38647817Y11872183D01*
X38548268Y11790486D01*
X38530415Y11775835D01*
X38396478Y11704244D01*
X38396475Y11704243D01*
X38251141Y11660156D01*
X38100000Y11645270D01*
X37948858Y11660156D01*
X37803524Y11704243D01*
X37803521Y11704244D01*
X37669584Y11775835D01*
X37648531Y11793113D01*
X37552183Y11872183D01*
X37455836Y11989584D01*
X37384245Y12123521D01*
X37384244Y12123522D01*
X37384243Y12123525D01*
X37340156Y12268859D01*
X37329000Y12382129D01*
X37329000Y13017872D01*
X37340156Y13131142D01*
X37384243Y13276476D01*
X37384243Y13276477D01*
X37455837Y13410418D01*
X37552184Y13527817D01*
X37669585Y13624165D01*
X37803522Y13695756D01*
X37803525Y13695757D01*
X37948859Y13739844D01*
X38100000Y13754730D01*
X38251142Y13739844D01*
X38251142Y13739844D01*
G37*
G36*
X40791142Y13739844D02*
G01*
X40936476Y13695757D01*
X40936479Y13695756D01*
X41070416Y13624165D01*
X41187817Y13527817D01*
X41284165Y13410416D01*
X41355756Y13276479D01*
X41355757Y13276476D01*
X41399844Y13131142D01*
X41411000Y13017872D01*
X41411000Y12382128D01*
X41399844Y12268858D01*
X41355757Y12123525D01*
X41355756Y12123521D01*
X41284165Y11989584D01*
X41284164Y11989583D01*
X41187817Y11872183D01*
X41088268Y11790486D01*
X41070415Y11775835D01*
X40936478Y11704244D01*
X40936475Y11704243D01*
X40791141Y11660156D01*
X40640000Y11645270D01*
X40488858Y11660156D01*
X40343524Y11704243D01*
X40343521Y11704244D01*
X40209584Y11775835D01*
X40188531Y11793113D01*
X40092183Y11872183D01*
X39995836Y11989584D01*
X39924245Y12123521D01*
X39924244Y12123522D01*
X39924243Y12123525D01*
X39880156Y12268859D01*
X39869000Y12382129D01*
X39869000Y13017872D01*
X39880156Y13131142D01*
X39924243Y13276476D01*
X39924243Y13276477D01*
X39995837Y13410418D01*
X40092184Y13527817D01*
X40209585Y13624165D01*
X40343522Y13695756D01*
X40343525Y13695757D01*
X40488859Y13739844D01*
X40640000Y13754730D01*
X40791142Y13739844D01*
X40791142Y13739844D01*
G37*
G36*
X43331142Y13739844D02*
G01*
X43476476Y13695757D01*
X43476479Y13695756D01*
X43610416Y13624165D01*
X43727817Y13527817D01*
X43824165Y13410416D01*
X43895756Y13276479D01*
X43895757Y13276476D01*
X43939844Y13131142D01*
X43951000Y13017872D01*
X43951000Y12382128D01*
X43939844Y12268858D01*
X43895757Y12123525D01*
X43895756Y12123521D01*
X43824165Y11989584D01*
X43824164Y11989583D01*
X43727817Y11872183D01*
X43628268Y11790486D01*
X43610415Y11775835D01*
X43476478Y11704244D01*
X43476475Y11704243D01*
X43331141Y11660156D01*
X43180000Y11645270D01*
X43028858Y11660156D01*
X42883524Y11704243D01*
X42883521Y11704244D01*
X42749584Y11775835D01*
X42728531Y11793113D01*
X42632183Y11872183D01*
X42535836Y11989584D01*
X42464245Y12123521D01*
X42464244Y12123522D01*
X42464243Y12123525D01*
X42420156Y12268859D01*
X42409000Y12382129D01*
X42409000Y13017872D01*
X42420156Y13131142D01*
X42464243Y13276476D01*
X42464243Y13276477D01*
X42535837Y13410418D01*
X42632184Y13527817D01*
X42749585Y13624165D01*
X42883522Y13695756D01*
X42883525Y13695757D01*
X43028859Y13739844D01*
X43180000Y13754730D01*
X43331142Y13739844D01*
X43331142Y13739844D01*
G37*
G36*
X35711142Y13739844D02*
G01*
X35856476Y13695757D01*
X35856479Y13695756D01*
X35990416Y13624165D01*
X36107817Y13527817D01*
X36204165Y13410416D01*
X36275756Y13276479D01*
X36275757Y13276476D01*
X36319844Y13131142D01*
X36331000Y13017872D01*
X36331000Y12382128D01*
X36319844Y12268858D01*
X36275757Y12123525D01*
X36275756Y12123521D01*
X36204165Y11989584D01*
X36204164Y11989583D01*
X36107817Y11872183D01*
X36008268Y11790486D01*
X35990415Y11775835D01*
X35856478Y11704244D01*
X35856475Y11704243D01*
X35711141Y11660156D01*
X35560000Y11645270D01*
X35408858Y11660156D01*
X35263524Y11704243D01*
X35263521Y11704244D01*
X35129584Y11775835D01*
X35108531Y11793113D01*
X35012183Y11872183D01*
X34915836Y11989584D01*
X34844245Y12123521D01*
X34844244Y12123522D01*
X34844243Y12123525D01*
X34800156Y12268859D01*
X34789000Y12382129D01*
X34789000Y13017872D01*
X34800156Y13131142D01*
X34844243Y13276476D01*
X34844243Y13276477D01*
X34915837Y13410418D01*
X35012184Y13527817D01*
X35129585Y13624165D01*
X35263522Y13695756D01*
X35263525Y13695757D01*
X35408859Y13739844D01*
X35560000Y13754730D01*
X35711142Y13739844D01*
X35711142Y13739844D01*
G37*
G36*
X45871142Y13739844D02*
G01*
X46016476Y13695757D01*
X46016479Y13695756D01*
X46150416Y13624165D01*
X46267817Y13527817D01*
X46364165Y13410416D01*
X46435756Y13276479D01*
X46435757Y13276476D01*
X46479844Y13131142D01*
X46491000Y13017872D01*
X46491000Y12382128D01*
X46479844Y12268858D01*
X46435757Y12123525D01*
X46435756Y12123521D01*
X46364165Y11989584D01*
X46364164Y11989583D01*
X46267817Y11872183D01*
X46168268Y11790486D01*
X46150415Y11775835D01*
X46016478Y11704244D01*
X46016475Y11704243D01*
X45871141Y11660156D01*
X45720000Y11645270D01*
X45568858Y11660156D01*
X45423524Y11704243D01*
X45423521Y11704244D01*
X45289584Y11775835D01*
X45268531Y11793113D01*
X45172183Y11872183D01*
X45075836Y11989584D01*
X45004245Y12123521D01*
X45004244Y12123522D01*
X45004243Y12123525D01*
X44960156Y12268859D01*
X44949000Y12382129D01*
X44949000Y13017872D01*
X44960156Y13131142D01*
X45004243Y13276476D01*
X45004243Y13276477D01*
X45075837Y13410418D01*
X45172184Y13527817D01*
X45289585Y13624165D01*
X45423522Y13695756D01*
X45423525Y13695757D01*
X45568859Y13739844D01*
X45720000Y13754730D01*
X45871142Y13739844D01*
X45871142Y13739844D01*
G37*
G36*
X48411142Y13739844D02*
G01*
X48556476Y13695757D01*
X48556479Y13695756D01*
X48690416Y13624165D01*
X48807817Y13527817D01*
X48904165Y13410416D01*
X48975756Y13276479D01*
X48975757Y13276476D01*
X49019844Y13131142D01*
X49031000Y13017872D01*
X49031000Y12382128D01*
X49019844Y12268858D01*
X48975757Y12123525D01*
X48975756Y12123521D01*
X48904165Y11989584D01*
X48904164Y11989583D01*
X48807817Y11872183D01*
X48708268Y11790486D01*
X48690415Y11775835D01*
X48556478Y11704244D01*
X48556475Y11704243D01*
X48411141Y11660156D01*
X48260000Y11645270D01*
X48108858Y11660156D01*
X47963524Y11704243D01*
X47963521Y11704244D01*
X47829584Y11775835D01*
X47808531Y11793113D01*
X47712183Y11872183D01*
X47615836Y11989584D01*
X47544245Y12123521D01*
X47544244Y12123522D01*
X47544243Y12123525D01*
X47500156Y12268859D01*
X47489000Y12382129D01*
X47489000Y13017872D01*
X47500156Y13131142D01*
X47544243Y13276476D01*
X47544243Y13276477D01*
X47615837Y13410418D01*
X47712184Y13527817D01*
X47829585Y13624165D01*
X47963522Y13695756D01*
X47963525Y13695757D01*
X48108859Y13739844D01*
X48260000Y13754730D01*
X48411142Y13739844D01*
X48411142Y13739844D01*
G37*
G36*
X53491142Y13739844D02*
G01*
X53636476Y13695757D01*
X53636479Y13695756D01*
X53770416Y13624165D01*
X53887817Y13527817D01*
X53984165Y13410416D01*
X54055756Y13276479D01*
X54055757Y13276476D01*
X54099844Y13131142D01*
X54111000Y13017872D01*
X54111000Y12382128D01*
X54099844Y12268858D01*
X54055757Y12123525D01*
X54055756Y12123521D01*
X53984165Y11989584D01*
X53984164Y11989583D01*
X53887817Y11872183D01*
X53788268Y11790486D01*
X53770415Y11775835D01*
X53636478Y11704244D01*
X53636475Y11704243D01*
X53491141Y11660156D01*
X53340000Y11645270D01*
X53188858Y11660156D01*
X53043524Y11704243D01*
X53043521Y11704244D01*
X52909584Y11775835D01*
X52888531Y11793113D01*
X52792183Y11872183D01*
X52695836Y11989584D01*
X52624245Y12123521D01*
X52624244Y12123522D01*
X52624243Y12123525D01*
X52580156Y12268859D01*
X52569000Y12382129D01*
X52569000Y13017872D01*
X52580156Y13131142D01*
X52624243Y13276476D01*
X52624243Y13276477D01*
X52695837Y13410418D01*
X52792184Y13527817D01*
X52909585Y13624165D01*
X53043522Y13695756D01*
X53043525Y13695757D01*
X53188859Y13739844D01*
X53340000Y13754730D01*
X53491142Y13739844D01*
X53491142Y13739844D01*
G37*
G36*
X56031142Y13739844D02*
G01*
X56176476Y13695757D01*
X56176479Y13695756D01*
X56310416Y13624165D01*
X56427817Y13527817D01*
X56524165Y13410416D01*
X56595756Y13276479D01*
X56595757Y13276476D01*
X56639844Y13131142D01*
X56651000Y13017872D01*
X56651000Y12382128D01*
X56639844Y12268858D01*
X56595757Y12123525D01*
X56595756Y12123521D01*
X56524165Y11989584D01*
X56524164Y11989583D01*
X56427817Y11872183D01*
X56328268Y11790486D01*
X56310415Y11775835D01*
X56176478Y11704244D01*
X56176475Y11704243D01*
X56031141Y11660156D01*
X55880000Y11645270D01*
X55728858Y11660156D01*
X55583524Y11704243D01*
X55583521Y11704244D01*
X55449584Y11775835D01*
X55428531Y11793113D01*
X55332183Y11872183D01*
X55235836Y11989584D01*
X55164245Y12123521D01*
X55164244Y12123522D01*
X55164243Y12123525D01*
X55120156Y12268859D01*
X55109000Y12382129D01*
X55109000Y13017872D01*
X55120156Y13131142D01*
X55164243Y13276476D01*
X55164243Y13276477D01*
X55235837Y13410418D01*
X55332184Y13527817D01*
X55449585Y13624165D01*
X55583522Y13695756D01*
X55583525Y13695757D01*
X55728859Y13739844D01*
X55880000Y13754730D01*
X56031142Y13739844D01*
X56031142Y13739844D01*
G37*
G36*
X58571142Y13739844D02*
G01*
X58716476Y13695757D01*
X58716479Y13695756D01*
X58850416Y13624165D01*
X58967817Y13527817D01*
X59064165Y13410416D01*
X59135756Y13276479D01*
X59135757Y13276476D01*
X59179844Y13131142D01*
X59191000Y13017872D01*
X59191000Y12382128D01*
X59179844Y12268858D01*
X59135757Y12123525D01*
X59135756Y12123521D01*
X59064165Y11989584D01*
X59064164Y11989583D01*
X58967817Y11872183D01*
X58868268Y11790486D01*
X58850415Y11775835D01*
X58716478Y11704244D01*
X58716475Y11704243D01*
X58571141Y11660156D01*
X58420000Y11645270D01*
X58268858Y11660156D01*
X58123524Y11704243D01*
X58123521Y11704244D01*
X57989584Y11775835D01*
X57968531Y11793113D01*
X57872183Y11872183D01*
X57775836Y11989584D01*
X57704245Y12123521D01*
X57704244Y12123522D01*
X57704243Y12123525D01*
X57660156Y12268859D01*
X57649000Y12382129D01*
X57649000Y13017872D01*
X57660156Y13131142D01*
X57704243Y13276476D01*
X57704243Y13276477D01*
X57775837Y13410418D01*
X57872184Y13527817D01*
X57989585Y13624165D01*
X58123522Y13695756D01*
X58123525Y13695757D01*
X58268859Y13739844D01*
X58420000Y13754730D01*
X58571142Y13739844D01*
X58571142Y13739844D01*
G37*
G36*
X61111142Y13739844D02*
G01*
X61256476Y13695757D01*
X61256479Y13695756D01*
X61390416Y13624165D01*
X61507817Y13527817D01*
X61604165Y13410416D01*
X61675756Y13276479D01*
X61675757Y13276476D01*
X61719844Y13131142D01*
X61731000Y13017872D01*
X61731000Y12382128D01*
X61719844Y12268858D01*
X61675757Y12123525D01*
X61675756Y12123521D01*
X61604165Y11989584D01*
X61604164Y11989583D01*
X61507817Y11872183D01*
X61408268Y11790486D01*
X61390415Y11775835D01*
X61256478Y11704244D01*
X61256475Y11704243D01*
X61111141Y11660156D01*
X60960000Y11645270D01*
X60808858Y11660156D01*
X60663524Y11704243D01*
X60663521Y11704244D01*
X60529584Y11775835D01*
X60508531Y11793113D01*
X60412183Y11872183D01*
X60315836Y11989584D01*
X60244245Y12123521D01*
X60244244Y12123522D01*
X60244243Y12123525D01*
X60200156Y12268859D01*
X60189000Y12382129D01*
X60189000Y13017872D01*
X60200156Y13131142D01*
X60244243Y13276476D01*
X60244243Y13276477D01*
X60315837Y13410418D01*
X60412184Y13527817D01*
X60529585Y13624165D01*
X60663522Y13695756D01*
X60663525Y13695757D01*
X60808859Y13739844D01*
X60960000Y13754730D01*
X61111142Y13739844D01*
X61111142Y13739844D01*
G37*
G36*
X30631142Y13739844D02*
G01*
X30776476Y13695757D01*
X30776479Y13695756D01*
X30910416Y13624165D01*
X31027817Y13527817D01*
X31124165Y13410416D01*
X31195756Y13276479D01*
X31195757Y13276476D01*
X31239844Y13131142D01*
X31251000Y13017872D01*
X31251000Y12382128D01*
X31239844Y12268858D01*
X31195757Y12123525D01*
X31195756Y12123521D01*
X31124165Y11989584D01*
X31124164Y11989583D01*
X31027817Y11872183D01*
X30928268Y11790486D01*
X30910415Y11775835D01*
X30776478Y11704244D01*
X30776475Y11704243D01*
X30631141Y11660156D01*
X30480000Y11645270D01*
X30328858Y11660156D01*
X30183524Y11704243D01*
X30183521Y11704244D01*
X30049584Y11775835D01*
X30028531Y11793113D01*
X29932183Y11872183D01*
X29835836Y11989584D01*
X29764245Y12123521D01*
X29764244Y12123522D01*
X29764243Y12123525D01*
X29720156Y12268859D01*
X29709000Y12382129D01*
X29709000Y13017872D01*
X29720156Y13131142D01*
X29764243Y13276476D01*
X29764243Y13276477D01*
X29835837Y13410418D01*
X29932184Y13527817D01*
X30049585Y13624165D01*
X30183522Y13695756D01*
X30183525Y13695757D01*
X30328859Y13739844D01*
X30480000Y13754730D01*
X30631142Y13739844D01*
X30631142Y13739844D01*
G37*
G36*
X28091142Y13739844D02*
G01*
X28236476Y13695757D01*
X28236479Y13695756D01*
X28370416Y13624165D01*
X28487817Y13527817D01*
X28584165Y13410416D01*
X28655756Y13276479D01*
X28655757Y13276476D01*
X28699844Y13131142D01*
X28711000Y13017872D01*
X28711000Y12382128D01*
X28699844Y12268858D01*
X28655757Y12123525D01*
X28655756Y12123521D01*
X28584165Y11989584D01*
X28584164Y11989583D01*
X28487817Y11872183D01*
X28388268Y11790486D01*
X28370415Y11775835D01*
X28236478Y11704244D01*
X28236475Y11704243D01*
X28091141Y11660156D01*
X27940000Y11645270D01*
X27788858Y11660156D01*
X27643524Y11704243D01*
X27643521Y11704244D01*
X27509584Y11775835D01*
X27488531Y11793113D01*
X27392183Y11872183D01*
X27295836Y11989584D01*
X27224245Y12123521D01*
X27224244Y12123522D01*
X27224243Y12123525D01*
X27180156Y12268859D01*
X27169000Y12382129D01*
X27169000Y13017872D01*
X27180156Y13131142D01*
X27224243Y13276476D01*
X27224243Y13276477D01*
X27295837Y13410418D01*
X27392184Y13527817D01*
X27509585Y13624165D01*
X27643522Y13695756D01*
X27643525Y13695757D01*
X27788859Y13739844D01*
X27940000Y13754730D01*
X28091142Y13739844D01*
X28091142Y13739844D01*
G37*
G36*
X50951142Y13739844D02*
G01*
X51096476Y13695757D01*
X51096479Y13695756D01*
X51230416Y13624165D01*
X51347817Y13527817D01*
X51444165Y13410416D01*
X51515756Y13276479D01*
X51515757Y13276476D01*
X51559844Y13131142D01*
X51571000Y13017872D01*
X51571000Y12382128D01*
X51559844Y12268858D01*
X51515757Y12123525D01*
X51515756Y12123521D01*
X51444165Y11989584D01*
X51444164Y11989583D01*
X51347817Y11872183D01*
X51248268Y11790486D01*
X51230415Y11775835D01*
X51096478Y11704244D01*
X51096475Y11704243D01*
X50951141Y11660156D01*
X50800000Y11645270D01*
X50648858Y11660156D01*
X50503524Y11704243D01*
X50503521Y11704244D01*
X50369584Y11775835D01*
X50348531Y11793113D01*
X50252183Y11872183D01*
X50155836Y11989584D01*
X50084245Y12123521D01*
X50084244Y12123522D01*
X50084243Y12123525D01*
X50040156Y12268859D01*
X50029000Y12382129D01*
X50029000Y13017872D01*
X50040156Y13131142D01*
X50084243Y13276476D01*
X50084243Y13276477D01*
X50155837Y13410418D01*
X50252184Y13527817D01*
X50369585Y13624165D01*
X50503522Y13695756D01*
X50503525Y13695757D01*
X50648859Y13739844D01*
X50800000Y13754730D01*
X50951142Y13739844D01*
X50951142Y13739844D01*
G37*
G36*
X7799294Y14871367D02*
G01*
X7971695Y14819069D01*
X8130583Y14734142D01*
X8269849Y14619849D01*
X8384142Y14480583D01*
X8469069Y14321695D01*
X8521367Y14149294D01*
X8539025Y13970000D01*
X8521367Y13790706D01*
X8469069Y13618305D01*
X8384142Y13459417D01*
X8269849Y13320151D01*
X8130583Y13205858D01*
X7971695Y13120931D01*
X7799294Y13068633D01*
X7664931Y13055400D01*
X7575069Y13055400D01*
X7440706Y13068633D01*
X7268305Y13120931D01*
X7109417Y13205858D01*
X6970151Y13320151D01*
X6855858Y13459417D01*
X6770931Y13618305D01*
X6718633Y13790706D01*
X6700975Y13970000D01*
X6718633Y14149294D01*
X6770931Y14321695D01*
X6855858Y14480583D01*
X6970151Y14619849D01*
X7109417Y14734142D01*
X7268305Y14819069D01*
X7440706Y14871367D01*
X7575069Y14884600D01*
X7664931Y14884600D01*
X7799294Y14871367D01*
X7799294Y14871367D01*
G37*
G36*
X10339294Y14871367D02*
G01*
X10511695Y14819069D01*
X10670583Y14734142D01*
X10809849Y14619849D01*
X10924142Y14480583D01*
X11009069Y14321695D01*
X11061367Y14149294D01*
X11079025Y13970000D01*
X11061367Y13790706D01*
X11009069Y13618305D01*
X10924142Y13459417D01*
X10809849Y13320151D01*
X10670583Y13205858D01*
X10511695Y13120931D01*
X10339294Y13068633D01*
X10204931Y13055400D01*
X10115069Y13055400D01*
X9980706Y13068633D01*
X9808305Y13120931D01*
X9649417Y13205858D01*
X9510151Y13320151D01*
X9395858Y13459417D01*
X9310931Y13618305D01*
X9258633Y13790706D01*
X9240975Y13970000D01*
X9258633Y14149294D01*
X9310931Y14321695D01*
X9395858Y14480583D01*
X9510151Y14619849D01*
X9649417Y14734142D01*
X9808305Y14819069D01*
X9980706Y14871367D01*
X10115069Y14884600D01*
X10204931Y14884600D01*
X10339294Y14871367D01*
X10339294Y14871367D01*
G37*
G36*
X10339294Y17411367D02*
G01*
X10511695Y17359069D01*
X10670583Y17274142D01*
X10809849Y17159849D01*
X10924142Y17020583D01*
X11009069Y16861695D01*
X11061367Y16689294D01*
X11079025Y16510000D01*
X11061367Y16330706D01*
X11009069Y16158305D01*
X10924142Y15999417D01*
X10809849Y15860151D01*
X10670583Y15745858D01*
X10511695Y15660931D01*
X10339294Y15608633D01*
X10204931Y15595400D01*
X10115069Y15595400D01*
X9980706Y15608633D01*
X9808305Y15660931D01*
X9649417Y15745858D01*
X9510151Y15860151D01*
X9395858Y15999417D01*
X9310931Y16158305D01*
X9258633Y16330706D01*
X9240975Y16510000D01*
X9258633Y16689294D01*
X9310931Y16861695D01*
X9395858Y17020583D01*
X9510151Y17159849D01*
X9649417Y17274142D01*
X9808305Y17359069D01*
X9980706Y17411367D01*
X10115069Y17424600D01*
X10204931Y17424600D01*
X10339294Y17411367D01*
X10339294Y17411367D01*
G37*
G36*
X7799294Y17411367D02*
G01*
X7971695Y17359069D01*
X8130583Y17274142D01*
X8269849Y17159849D01*
X8384142Y17020583D01*
X8469069Y16861695D01*
X8521367Y16689294D01*
X8539025Y16510000D01*
X8521367Y16330706D01*
X8469069Y16158305D01*
X8384142Y15999417D01*
X8269849Y15860151D01*
X8130583Y15745858D01*
X7971695Y15660931D01*
X7799294Y15608633D01*
X7664931Y15595400D01*
X7575069Y15595400D01*
X7440706Y15608633D01*
X7268305Y15660931D01*
X7109417Y15745858D01*
X6970151Y15860151D01*
X6855858Y15999417D01*
X6770931Y16158305D01*
X6718633Y16330706D01*
X6700975Y16510000D01*
X6718633Y16689294D01*
X6770931Y16861695D01*
X6855858Y17020583D01*
X6970151Y17159849D01*
X7109417Y17274142D01*
X7268305Y17359069D01*
X7440706Y17411367D01*
X7575069Y17424600D01*
X7664931Y17424600D01*
X7799294Y17411367D01*
X7799294Y17411367D01*
G37*
G36*
X10339294Y19951367D02*
G01*
X10511695Y19899069D01*
X10670583Y19814142D01*
X10809849Y19699849D01*
X10924142Y19560583D01*
X11009069Y19401695D01*
X11061367Y19229294D01*
X11079025Y19050000D01*
X11061367Y18870706D01*
X11009069Y18698305D01*
X10924142Y18539417D01*
X10809849Y18400151D01*
X10670583Y18285858D01*
X10511695Y18200931D01*
X10339294Y18148633D01*
X10204931Y18135400D01*
X10115069Y18135400D01*
X9980706Y18148633D01*
X9808305Y18200931D01*
X9649417Y18285858D01*
X9510151Y18400151D01*
X9395858Y18539417D01*
X9310931Y18698305D01*
X9258633Y18870706D01*
X9240975Y19050000D01*
X9258633Y19229294D01*
X9310931Y19401695D01*
X9395858Y19560583D01*
X9510151Y19699849D01*
X9649417Y19814142D01*
X9808305Y19899069D01*
X9980706Y19951367D01*
X10115069Y19964600D01*
X10204931Y19964600D01*
X10339294Y19951367D01*
X10339294Y19951367D01*
G37*
G36*
X7799294Y19951367D02*
G01*
X7971695Y19899069D01*
X8130583Y19814142D01*
X8269849Y19699849D01*
X8384142Y19560583D01*
X8469069Y19401695D01*
X8521367Y19229294D01*
X8539025Y19050000D01*
X8521367Y18870706D01*
X8469069Y18698305D01*
X8384142Y18539417D01*
X8269849Y18400151D01*
X8130583Y18285858D01*
X7971695Y18200931D01*
X7799294Y18148633D01*
X7664931Y18135400D01*
X7575069Y18135400D01*
X7440706Y18148633D01*
X7268305Y18200931D01*
X7109417Y18285858D01*
X6970151Y18400151D01*
X6855858Y18539417D01*
X6770931Y18698305D01*
X6718633Y18870706D01*
X6700975Y19050000D01*
X6718633Y19229294D01*
X6770931Y19401695D01*
X6855858Y19560583D01*
X6970151Y19699849D01*
X7109417Y19814142D01*
X7268305Y19899069D01*
X7440706Y19951367D01*
X7575069Y19964600D01*
X7664931Y19964600D01*
X7799294Y19951367D01*
X7799294Y19951367D01*
G37*
G36*
X10339294Y22491367D02*
G01*
X10511695Y22439069D01*
X10670583Y22354142D01*
X10809849Y22239849D01*
X10924142Y22100583D01*
X11009069Y21941695D01*
X11061367Y21769294D01*
X11079025Y21590000D01*
X11061367Y21410706D01*
X11009069Y21238305D01*
X10924142Y21079417D01*
X10809849Y20940151D01*
X10670583Y20825858D01*
X10511695Y20740931D01*
X10339294Y20688633D01*
X10204931Y20675400D01*
X10115069Y20675400D01*
X9980706Y20688633D01*
X9808305Y20740931D01*
X9649417Y20825858D01*
X9510151Y20940151D01*
X9395858Y21079417D01*
X9310931Y21238305D01*
X9258633Y21410706D01*
X9240975Y21590000D01*
X9258633Y21769294D01*
X9310931Y21941695D01*
X9395858Y22100583D01*
X9510151Y22239849D01*
X9649417Y22354142D01*
X9808305Y22439069D01*
X9980706Y22491367D01*
X10115069Y22504600D01*
X10204931Y22504600D01*
X10339294Y22491367D01*
X10339294Y22491367D01*
G37*
G36*
X7799294Y22491367D02*
G01*
X7971695Y22439069D01*
X8130583Y22354142D01*
X8269849Y22239849D01*
X8384142Y22100583D01*
X8469069Y21941695D01*
X8521367Y21769294D01*
X8539025Y21590000D01*
X8521367Y21410706D01*
X8469069Y21238305D01*
X8384142Y21079417D01*
X8269849Y20940151D01*
X8130583Y20825858D01*
X7971695Y20740931D01*
X7799294Y20688633D01*
X7664931Y20675400D01*
X7575069Y20675400D01*
X7440706Y20688633D01*
X7268305Y20740931D01*
X7109417Y20825858D01*
X6970151Y20940151D01*
X6855858Y21079417D01*
X6770931Y21238305D01*
X6718633Y21410706D01*
X6700975Y21590000D01*
X6718633Y21769294D01*
X6770931Y21941695D01*
X6855858Y22100583D01*
X6970151Y22239849D01*
X7109417Y22354142D01*
X7268305Y22439069D01*
X7440706Y22491367D01*
X7575069Y22504600D01*
X7664931Y22504600D01*
X7799294Y22491367D01*
X7799294Y22491367D01*
G37*
G36*
X38251142Y23899844D02*
G01*
X38396476Y23855757D01*
X38396479Y23855756D01*
X38530416Y23784165D01*
X38647817Y23687817D01*
X38744165Y23570416D01*
X38815756Y23436479D01*
X38815757Y23436476D01*
X38859844Y23291142D01*
X38867281Y23215629D01*
X38871000Y23177873D01*
X38871000Y22542127D01*
X38870077Y22532758D01*
X38859844Y22428858D01*
X38815757Y22283525D01*
X38815756Y22283521D01*
X38744165Y22149584D01*
X38726887Y22128531D01*
X38647817Y22032183D01*
X38548268Y21950486D01*
X38530415Y21935835D01*
X38396478Y21864244D01*
X38396475Y21864243D01*
X38251141Y21820156D01*
X38100000Y21805270D01*
X37948858Y21820156D01*
X37803524Y21864243D01*
X37803521Y21864244D01*
X37669584Y21935835D01*
X37580432Y22009000D01*
X37552183Y22032183D01*
X37456319Y22148995D01*
X37455835Y22149585D01*
X37384244Y22283522D01*
X37362822Y22354141D01*
X37340156Y22428859D01*
X37329000Y22542129D01*
X37329000Y23177872D01*
X37329923Y23187239D01*
X37332719Y23215629D01*
X37340156Y23291142D01*
X37384243Y23436476D01*
X37384243Y23436477D01*
X37455837Y23570418D01*
X37552184Y23687817D01*
X37669585Y23784165D01*
X37803522Y23855756D01*
X37803525Y23855757D01*
X37948859Y23899844D01*
X38100000Y23914730D01*
X38251142Y23899844D01*
X38251142Y23899844D01*
G37*
G36*
X43331142Y23899844D02*
G01*
X43476476Y23855757D01*
X43476479Y23855756D01*
X43610416Y23784165D01*
X43727817Y23687817D01*
X43824165Y23570416D01*
X43895756Y23436479D01*
X43895757Y23436476D01*
X43939844Y23291142D01*
X43947281Y23215629D01*
X43951000Y23177873D01*
X43951000Y22542127D01*
X43950077Y22532758D01*
X43939844Y22428858D01*
X43895757Y22283525D01*
X43895756Y22283521D01*
X43824165Y22149584D01*
X43806887Y22128531D01*
X43727817Y22032183D01*
X43628268Y21950486D01*
X43610415Y21935835D01*
X43476478Y21864244D01*
X43476475Y21864243D01*
X43331141Y21820156D01*
X43180000Y21805270D01*
X43028858Y21820156D01*
X42883524Y21864243D01*
X42883521Y21864244D01*
X42749584Y21935835D01*
X42660432Y22009000D01*
X42632183Y22032183D01*
X42536319Y22148995D01*
X42535835Y22149585D01*
X42464244Y22283522D01*
X42442822Y22354141D01*
X42420156Y22428859D01*
X42409000Y22542129D01*
X42409000Y23177872D01*
X42409923Y23187239D01*
X42412719Y23215629D01*
X42420156Y23291142D01*
X42464243Y23436476D01*
X42464243Y23436477D01*
X42535837Y23570418D01*
X42632184Y23687817D01*
X42749585Y23784165D01*
X42883522Y23855756D01*
X42883525Y23855757D01*
X43028859Y23899844D01*
X43180000Y23914730D01*
X43331142Y23899844D01*
X43331142Y23899844D01*
G37*
G36*
X40791142Y23899844D02*
G01*
X40936476Y23855757D01*
X40936479Y23855756D01*
X41070416Y23784165D01*
X41187817Y23687817D01*
X41284165Y23570416D01*
X41355756Y23436479D01*
X41355757Y23436476D01*
X41399844Y23291142D01*
X41407281Y23215629D01*
X41411000Y23177873D01*
X41411000Y22542127D01*
X41410077Y22532758D01*
X41399844Y22428858D01*
X41355757Y22283525D01*
X41355756Y22283521D01*
X41284165Y22149584D01*
X41266887Y22128531D01*
X41187817Y22032183D01*
X41088268Y21950486D01*
X41070415Y21935835D01*
X40936478Y21864244D01*
X40936475Y21864243D01*
X40791141Y21820156D01*
X40640000Y21805270D01*
X40488858Y21820156D01*
X40343524Y21864243D01*
X40343521Y21864244D01*
X40209584Y21935835D01*
X40120432Y22009000D01*
X40092183Y22032183D01*
X39996319Y22148995D01*
X39995835Y22149585D01*
X39924244Y22283522D01*
X39902822Y22354141D01*
X39880156Y22428859D01*
X39869000Y22542129D01*
X39869000Y23177872D01*
X39869923Y23187239D01*
X39872719Y23215629D01*
X39880156Y23291142D01*
X39924243Y23436476D01*
X39924243Y23436477D01*
X39995837Y23570418D01*
X40092184Y23687817D01*
X40209585Y23784165D01*
X40343522Y23855756D01*
X40343525Y23855757D01*
X40488859Y23899844D01*
X40640000Y23914730D01*
X40791142Y23899844D01*
X40791142Y23899844D01*
G37*
G36*
X58571142Y23899844D02*
G01*
X58716476Y23855757D01*
X58716479Y23855756D01*
X58850416Y23784165D01*
X58967817Y23687817D01*
X59064165Y23570416D01*
X59135756Y23436479D01*
X59135757Y23436476D01*
X59179844Y23291142D01*
X59187281Y23215629D01*
X59191000Y23177873D01*
X59191000Y22542127D01*
X59190077Y22532758D01*
X59179844Y22428858D01*
X59135757Y22283525D01*
X59135756Y22283521D01*
X59064165Y22149584D01*
X59046887Y22128531D01*
X58967817Y22032183D01*
X58868268Y21950486D01*
X58850415Y21935835D01*
X58716478Y21864244D01*
X58716475Y21864243D01*
X58571141Y21820156D01*
X58420000Y21805270D01*
X58268858Y21820156D01*
X58123524Y21864243D01*
X58123521Y21864244D01*
X57989584Y21935835D01*
X57900432Y22009000D01*
X57872183Y22032183D01*
X57776319Y22148995D01*
X57775835Y22149585D01*
X57704244Y22283522D01*
X57682822Y22354141D01*
X57660156Y22428859D01*
X57649000Y22542129D01*
X57649000Y23177872D01*
X57649923Y23187239D01*
X57652719Y23215629D01*
X57660156Y23291142D01*
X57704243Y23436476D01*
X57704243Y23436477D01*
X57775837Y23570418D01*
X57872184Y23687817D01*
X57989585Y23784165D01*
X58123522Y23855756D01*
X58123525Y23855757D01*
X58268859Y23899844D01*
X58420000Y23914730D01*
X58571142Y23899844D01*
X58571142Y23899844D01*
G37*
G36*
X56031142Y23899844D02*
G01*
X56176476Y23855757D01*
X56176479Y23855756D01*
X56310416Y23784165D01*
X56427817Y23687817D01*
X56524165Y23570416D01*
X56595756Y23436479D01*
X56595757Y23436476D01*
X56639844Y23291142D01*
X56647281Y23215629D01*
X56651000Y23177873D01*
X56651000Y22542127D01*
X56650077Y22532758D01*
X56639844Y22428858D01*
X56595757Y22283525D01*
X56595756Y22283521D01*
X56524165Y22149584D01*
X56506887Y22128531D01*
X56427817Y22032183D01*
X56328268Y21950486D01*
X56310415Y21935835D01*
X56176478Y21864244D01*
X56176475Y21864243D01*
X56031141Y21820156D01*
X55880000Y21805270D01*
X55728858Y21820156D01*
X55583524Y21864243D01*
X55583521Y21864244D01*
X55449584Y21935835D01*
X55360432Y22009000D01*
X55332183Y22032183D01*
X55236319Y22148995D01*
X55235835Y22149585D01*
X55164244Y22283522D01*
X55142822Y22354141D01*
X55120156Y22428859D01*
X55109000Y22542129D01*
X55109000Y23177872D01*
X55109923Y23187239D01*
X55112719Y23215629D01*
X55120156Y23291142D01*
X55164243Y23436476D01*
X55164243Y23436477D01*
X55235837Y23570418D01*
X55332184Y23687817D01*
X55449585Y23784165D01*
X55583522Y23855756D01*
X55583525Y23855757D01*
X55728859Y23899844D01*
X55880000Y23914730D01*
X56031142Y23899844D01*
X56031142Y23899844D01*
G37*
G36*
X53491142Y23899844D02*
G01*
X53636476Y23855757D01*
X53636479Y23855756D01*
X53770416Y23784165D01*
X53887817Y23687817D01*
X53984165Y23570416D01*
X54055756Y23436479D01*
X54055757Y23436476D01*
X54099844Y23291142D01*
X54107281Y23215629D01*
X54111000Y23177873D01*
X54111000Y22542127D01*
X54110077Y22532758D01*
X54099844Y22428858D01*
X54055757Y22283525D01*
X54055756Y22283521D01*
X53984165Y22149584D01*
X53966887Y22128531D01*
X53887817Y22032183D01*
X53788268Y21950486D01*
X53770415Y21935835D01*
X53636478Y21864244D01*
X53636475Y21864243D01*
X53491141Y21820156D01*
X53340000Y21805270D01*
X53188858Y21820156D01*
X53043524Y21864243D01*
X53043521Y21864244D01*
X52909584Y21935835D01*
X52820432Y22009000D01*
X52792183Y22032183D01*
X52696319Y22148995D01*
X52695835Y22149585D01*
X52624244Y22283522D01*
X52602822Y22354141D01*
X52580156Y22428859D01*
X52569000Y22542129D01*
X52569000Y23177872D01*
X52569923Y23187239D01*
X52572719Y23215629D01*
X52580156Y23291142D01*
X52624243Y23436476D01*
X52624243Y23436477D01*
X52695837Y23570418D01*
X52792184Y23687817D01*
X52909585Y23784165D01*
X53043522Y23855756D01*
X53043525Y23855757D01*
X53188859Y23899844D01*
X53340000Y23914730D01*
X53491142Y23899844D01*
X53491142Y23899844D01*
G37*
G36*
X48411142Y23899844D02*
G01*
X48556476Y23855757D01*
X48556479Y23855756D01*
X48690416Y23784165D01*
X48807817Y23687817D01*
X48904165Y23570416D01*
X48975756Y23436479D01*
X48975757Y23436476D01*
X49019844Y23291142D01*
X49027281Y23215629D01*
X49031000Y23177873D01*
X49031000Y22542127D01*
X49030077Y22532758D01*
X49019844Y22428858D01*
X48975757Y22283525D01*
X48975756Y22283521D01*
X48904165Y22149584D01*
X48886887Y22128531D01*
X48807817Y22032183D01*
X48708268Y21950486D01*
X48690415Y21935835D01*
X48556478Y21864244D01*
X48556475Y21864243D01*
X48411141Y21820156D01*
X48260000Y21805270D01*
X48108858Y21820156D01*
X47963524Y21864243D01*
X47963521Y21864244D01*
X47829584Y21935835D01*
X47740432Y22009000D01*
X47712183Y22032183D01*
X47616319Y22148995D01*
X47615835Y22149585D01*
X47544244Y22283522D01*
X47522822Y22354141D01*
X47500156Y22428859D01*
X47489000Y22542129D01*
X47489000Y23177872D01*
X47489923Y23187239D01*
X47492719Y23215629D01*
X47500156Y23291142D01*
X47544243Y23436476D01*
X47544243Y23436477D01*
X47615837Y23570418D01*
X47712184Y23687817D01*
X47829585Y23784165D01*
X47963522Y23855756D01*
X47963525Y23855757D01*
X48108859Y23899844D01*
X48260000Y23914730D01*
X48411142Y23899844D01*
X48411142Y23899844D01*
G37*
G36*
X50951142Y23899844D02*
G01*
X51096476Y23855757D01*
X51096479Y23855756D01*
X51230416Y23784165D01*
X51347817Y23687817D01*
X51444165Y23570416D01*
X51515756Y23436479D01*
X51515757Y23436476D01*
X51559844Y23291142D01*
X51567281Y23215629D01*
X51571000Y23177873D01*
X51571000Y22542127D01*
X51570077Y22532758D01*
X51559844Y22428858D01*
X51515757Y22283525D01*
X51515756Y22283521D01*
X51444165Y22149584D01*
X51426887Y22128531D01*
X51347817Y22032183D01*
X51248268Y21950486D01*
X51230415Y21935835D01*
X51096478Y21864244D01*
X51096475Y21864243D01*
X50951141Y21820156D01*
X50800000Y21805270D01*
X50648858Y21820156D01*
X50503524Y21864243D01*
X50503521Y21864244D01*
X50369584Y21935835D01*
X50280432Y22009000D01*
X50252183Y22032183D01*
X50156319Y22148995D01*
X50155835Y22149585D01*
X50084244Y22283522D01*
X50062822Y22354141D01*
X50040156Y22428859D01*
X50029000Y22542129D01*
X50029000Y23177872D01*
X50029923Y23187239D01*
X50032719Y23215629D01*
X50040156Y23291142D01*
X50084243Y23436476D01*
X50084243Y23436477D01*
X50155837Y23570418D01*
X50252184Y23687817D01*
X50369585Y23784165D01*
X50503522Y23855756D01*
X50503525Y23855757D01*
X50648859Y23899844D01*
X50800000Y23914730D01*
X50951142Y23899844D01*
X50951142Y23899844D01*
G37*
G36*
X28091142Y23899844D02*
G01*
X28236476Y23855757D01*
X28236479Y23855756D01*
X28370416Y23784165D01*
X28487817Y23687817D01*
X28584165Y23570416D01*
X28655756Y23436479D01*
X28655757Y23436476D01*
X28699844Y23291142D01*
X28707281Y23215629D01*
X28711000Y23177873D01*
X28711000Y22542127D01*
X28710077Y22532758D01*
X28699844Y22428858D01*
X28655757Y22283525D01*
X28655756Y22283521D01*
X28584165Y22149584D01*
X28566887Y22128531D01*
X28487817Y22032183D01*
X28388268Y21950486D01*
X28370415Y21935835D01*
X28236478Y21864244D01*
X28236475Y21864243D01*
X28091141Y21820156D01*
X27940000Y21805270D01*
X27788858Y21820156D01*
X27643524Y21864243D01*
X27643521Y21864244D01*
X27509584Y21935835D01*
X27420432Y22009000D01*
X27392183Y22032183D01*
X27296319Y22148995D01*
X27295835Y22149585D01*
X27224244Y22283522D01*
X27202822Y22354141D01*
X27180156Y22428859D01*
X27169000Y22542129D01*
X27169000Y23177872D01*
X27169923Y23187239D01*
X27172719Y23215629D01*
X27180156Y23291142D01*
X27224243Y23436476D01*
X27224243Y23436477D01*
X27295837Y23570418D01*
X27392184Y23687817D01*
X27509585Y23784165D01*
X27643522Y23855756D01*
X27643525Y23855757D01*
X27788859Y23899844D01*
X27940000Y23914730D01*
X28091142Y23899844D01*
X28091142Y23899844D01*
G37*
G36*
X30631142Y23899844D02*
G01*
X30776476Y23855757D01*
X30776479Y23855756D01*
X30910416Y23784165D01*
X31027817Y23687817D01*
X31124165Y23570416D01*
X31195756Y23436479D01*
X31195757Y23436476D01*
X31239844Y23291142D01*
X31247281Y23215629D01*
X31251000Y23177873D01*
X31251000Y22542127D01*
X31250077Y22532758D01*
X31239844Y22428858D01*
X31195757Y22283525D01*
X31195756Y22283521D01*
X31124165Y22149584D01*
X31106887Y22128531D01*
X31027817Y22032183D01*
X30928268Y21950486D01*
X30910415Y21935835D01*
X30776478Y21864244D01*
X30776475Y21864243D01*
X30631141Y21820156D01*
X30480000Y21805270D01*
X30328858Y21820156D01*
X30183524Y21864243D01*
X30183521Y21864244D01*
X30049584Y21935835D01*
X29960432Y22009000D01*
X29932183Y22032183D01*
X29836319Y22148995D01*
X29835835Y22149585D01*
X29764244Y22283522D01*
X29742822Y22354141D01*
X29720156Y22428859D01*
X29709000Y22542129D01*
X29709000Y23177872D01*
X29709923Y23187239D01*
X29712719Y23215629D01*
X29720156Y23291142D01*
X29764243Y23436476D01*
X29764243Y23436477D01*
X29835837Y23570418D01*
X29932184Y23687817D01*
X30049585Y23784165D01*
X30183522Y23855756D01*
X30183525Y23855757D01*
X30328859Y23899844D01*
X30480000Y23914730D01*
X30631142Y23899844D01*
X30631142Y23899844D01*
G37*
G36*
X35711142Y23899844D02*
G01*
X35856476Y23855757D01*
X35856479Y23855756D01*
X35990416Y23784165D01*
X36107817Y23687817D01*
X36204165Y23570416D01*
X36275756Y23436479D01*
X36275757Y23436476D01*
X36319844Y23291142D01*
X36327281Y23215629D01*
X36331000Y23177873D01*
X36331000Y22542127D01*
X36330077Y22532758D01*
X36319844Y22428858D01*
X36275757Y22283525D01*
X36275756Y22283521D01*
X36204165Y22149584D01*
X36186887Y22128531D01*
X36107817Y22032183D01*
X36008268Y21950486D01*
X35990415Y21935835D01*
X35856478Y21864244D01*
X35856475Y21864243D01*
X35711141Y21820156D01*
X35560000Y21805270D01*
X35408858Y21820156D01*
X35263524Y21864243D01*
X35263521Y21864244D01*
X35129584Y21935835D01*
X35040432Y22009000D01*
X35012183Y22032183D01*
X34916319Y22148995D01*
X34915835Y22149585D01*
X34844244Y22283522D01*
X34822822Y22354141D01*
X34800156Y22428859D01*
X34789000Y22542129D01*
X34789000Y23177872D01*
X34789923Y23187239D01*
X34792719Y23215629D01*
X34800156Y23291142D01*
X34844243Y23436476D01*
X34844243Y23436477D01*
X34915837Y23570418D01*
X35012184Y23687817D01*
X35129585Y23784165D01*
X35263522Y23855756D01*
X35263525Y23855757D01*
X35408859Y23899844D01*
X35560000Y23914730D01*
X35711142Y23899844D01*
X35711142Y23899844D01*
G37*
G36*
X33171142Y23899844D02*
G01*
X33316476Y23855757D01*
X33316479Y23855756D01*
X33450416Y23784165D01*
X33567817Y23687817D01*
X33664165Y23570416D01*
X33735756Y23436479D01*
X33735757Y23436476D01*
X33779844Y23291142D01*
X33787281Y23215629D01*
X33791000Y23177873D01*
X33791000Y22542127D01*
X33790077Y22532758D01*
X33779844Y22428858D01*
X33735757Y22283525D01*
X33735756Y22283521D01*
X33664165Y22149584D01*
X33646887Y22128531D01*
X33567817Y22032183D01*
X33468268Y21950486D01*
X33450415Y21935835D01*
X33316478Y21864244D01*
X33316475Y21864243D01*
X33171141Y21820156D01*
X33020000Y21805270D01*
X32868858Y21820156D01*
X32723524Y21864243D01*
X32723521Y21864244D01*
X32589584Y21935835D01*
X32500432Y22009000D01*
X32472183Y22032183D01*
X32376319Y22148995D01*
X32375835Y22149585D01*
X32304244Y22283522D01*
X32282822Y22354141D01*
X32260156Y22428859D01*
X32249000Y22542129D01*
X32249000Y23177872D01*
X32249923Y23187239D01*
X32252719Y23215629D01*
X32260156Y23291142D01*
X32304243Y23436476D01*
X32304243Y23436477D01*
X32375837Y23570418D01*
X32472184Y23687817D01*
X32589585Y23784165D01*
X32723522Y23855756D01*
X32723525Y23855757D01*
X32868859Y23899844D01*
X33020000Y23914730D01*
X33171142Y23899844D01*
X33171142Y23899844D01*
G37*
G36*
X45871142Y23899844D02*
G01*
X46016476Y23855757D01*
X46016479Y23855756D01*
X46150416Y23784165D01*
X46267817Y23687817D01*
X46364165Y23570416D01*
X46435756Y23436479D01*
X46435757Y23436476D01*
X46479844Y23291142D01*
X46487281Y23215629D01*
X46491000Y23177873D01*
X46491000Y22542127D01*
X46490077Y22532758D01*
X46479844Y22428858D01*
X46435757Y22283525D01*
X46435756Y22283521D01*
X46364165Y22149584D01*
X46346887Y22128531D01*
X46267817Y22032183D01*
X46168268Y21950486D01*
X46150415Y21935835D01*
X46016478Y21864244D01*
X46016475Y21864243D01*
X45871141Y21820156D01*
X45720000Y21805270D01*
X45568858Y21820156D01*
X45423524Y21864243D01*
X45423521Y21864244D01*
X45289584Y21935835D01*
X45200432Y22009000D01*
X45172183Y22032183D01*
X45076319Y22148995D01*
X45075835Y22149585D01*
X45004244Y22283522D01*
X44982822Y22354141D01*
X44960156Y22428859D01*
X44949000Y22542129D01*
X44949000Y23177872D01*
X44949923Y23187239D01*
X44952719Y23215629D01*
X44960156Y23291142D01*
X45004243Y23436476D01*
X45004243Y23436477D01*
X45075837Y23570418D01*
X45172184Y23687817D01*
X45289585Y23784165D01*
X45423522Y23855756D01*
X45423525Y23855757D01*
X45568859Y23899844D01*
X45720000Y23914730D01*
X45871142Y23899844D01*
X45871142Y23899844D01*
G37*
G36*
X61731000Y21809000D02*
G01*
X60189000Y21809000D01*
X60189000Y23911000D01*
X61731000Y23911000D01*
X61731000Y21809000D01*
X61731000Y21809000D01*
G37*
G36*
X17311823Y23698687D02*
G01*
X17472242Y23650024D01*
X17604906Y23579114D01*
X17620078Y23571004D01*
X17749659Y23464659D01*
X17856004Y23335078D01*
X17856005Y23335076D01*
X17935024Y23187242D01*
X17983687Y23026823D01*
X18000117Y22860000D01*
X17983687Y22693177D01*
X17935024Y22532758D01*
X17879490Y22428861D01*
X17856004Y22384922D01*
X17749659Y22255341D01*
X17620078Y22148996D01*
X17620076Y22148995D01*
X17472242Y22069976D01*
X17311823Y22021313D01*
X17186804Y22009000D01*
X17103196Y22009000D01*
X16978177Y22021313D01*
X16817758Y22069976D01*
X16669924Y22148995D01*
X16669922Y22148996D01*
X16540341Y22255341D01*
X16433996Y22384922D01*
X16410510Y22428861D01*
X16354976Y22532758D01*
X16306313Y22693177D01*
X16289883Y22860000D01*
X16306313Y23026823D01*
X16354976Y23187242D01*
X16433995Y23335076D01*
X16433996Y23335078D01*
X16540341Y23464659D01*
X16669922Y23571004D01*
X16685094Y23579114D01*
X16817758Y23650024D01*
X16978177Y23698687D01*
X17103196Y23711000D01*
X17186804Y23711000D01*
X17311823Y23698687D01*
X17311823Y23698687D01*
G37*
G36*
X10339294Y25031367D02*
G01*
X10511695Y24979069D01*
X10670583Y24894142D01*
X10809849Y24779849D01*
X10924142Y24640583D01*
X11009069Y24481695D01*
X11061367Y24309294D01*
X11079025Y24130000D01*
X11061367Y23950706D01*
X11009069Y23778305D01*
X10924142Y23619417D01*
X10809849Y23480151D01*
X10670583Y23365858D01*
X10511695Y23280931D01*
X10339294Y23228633D01*
X10204931Y23215400D01*
X10115069Y23215400D01*
X9980706Y23228633D01*
X9808305Y23280931D01*
X9649417Y23365858D01*
X9510151Y23480151D01*
X9395858Y23619417D01*
X9310931Y23778305D01*
X9258633Y23950706D01*
X9240975Y24130000D01*
X9258633Y24309294D01*
X9310931Y24481695D01*
X9395858Y24640583D01*
X9510151Y24779849D01*
X9649417Y24894142D01*
X9808305Y24979069D01*
X9980706Y25031367D01*
X10115069Y25044600D01*
X10204931Y25044600D01*
X10339294Y25031367D01*
X10339294Y25031367D01*
G37*
G36*
X8534600Y23215400D02*
G01*
X6705400Y23215400D01*
X6705400Y25044600D01*
X8534600Y25044600D01*
X8534600Y23215400D01*
X8534600Y23215400D01*
G37*
G36*
X17393228Y31298297D02*
G01*
X17548100Y31234147D01*
X17687481Y31141015D01*
X17806015Y31022481D01*
X17899147Y30883100D01*
X17963297Y30728228D01*
X17996000Y30563816D01*
X17996000Y30396184D01*
X17963297Y30231772D01*
X17899147Y30076900D01*
X17806015Y29937519D01*
X17687481Y29818985D01*
X17548100Y29725853D01*
X17393228Y29661703D01*
X17228816Y29629000D01*
X17061184Y29629000D01*
X16896772Y29661703D01*
X16741900Y29725853D01*
X16602519Y29818985D01*
X16483985Y29937519D01*
X16390853Y30076900D01*
X16326703Y30231772D01*
X16294000Y30396184D01*
X16294000Y30563816D01*
X16326703Y30728228D01*
X16390853Y30883100D01*
X16483985Y31022481D01*
X16602519Y31141015D01*
X16741900Y31234147D01*
X16896772Y31298297D01*
X17061184Y31331000D01*
X17228816Y31331000D01*
X17393228Y31298297D01*
X17393228Y31298297D01*
G37*
G36*
X61126823Y31318687D02*
G01*
X61287242Y31270024D01*
X61354361Y31234148D01*
X61435078Y31191004D01*
X61564659Y31084659D01*
X61671004Y30955078D01*
X61671005Y30955076D01*
X61750024Y30807242D01*
X61798687Y30646823D01*
X61815117Y30480000D01*
X61798687Y30313177D01*
X61750024Y30152758D01*
X61709477Y30076900D01*
X61671004Y30004922D01*
X61564659Y29875341D01*
X61435078Y29768996D01*
X61435076Y29768995D01*
X61287242Y29689976D01*
X61126823Y29641313D01*
X61001804Y29629000D01*
X60918196Y29629000D01*
X60793177Y29641313D01*
X60632758Y29689976D01*
X60484924Y29768995D01*
X60484922Y29768996D01*
X60355341Y29875341D01*
X60248996Y30004922D01*
X60210523Y30076900D01*
X60169976Y30152758D01*
X60121313Y30313177D01*
X60104883Y30480000D01*
X60121313Y30646823D01*
X60169976Y30807242D01*
X60248995Y30955076D01*
X60248996Y30955078D01*
X60355341Y31084659D01*
X60484922Y31191004D01*
X60565639Y31234148D01*
X60632758Y31270024D01*
X60793177Y31318687D01*
X60918196Y31331000D01*
X61001804Y31331000D01*
X61126823Y31318687D01*
X61126823Y31318687D01*
G37*
G36*
X53588228Y31298297D02*
G01*
X53743100Y31234147D01*
X53882481Y31141015D01*
X54001015Y31022481D01*
X54094147Y30883100D01*
X54158297Y30728228D01*
X54191000Y30563816D01*
X54191000Y30396184D01*
X54158297Y30231772D01*
X54094147Y30076900D01*
X54001015Y29937519D01*
X53882481Y29818985D01*
X53743100Y29725853D01*
X53588228Y29661703D01*
X53423816Y29629000D01*
X53256184Y29629000D01*
X53091772Y29661703D01*
X52936900Y29725853D01*
X52797519Y29818985D01*
X52678985Y29937519D01*
X52585853Y30076900D01*
X52521703Y30231772D01*
X52489000Y30396184D01*
X52489000Y30563816D01*
X52521703Y30728228D01*
X52585853Y30883100D01*
X52678985Y31022481D01*
X52797519Y31141015D01*
X52936900Y31234147D01*
X53091772Y31298297D01*
X53256184Y31331000D01*
X53423816Y31331000D01*
X53588228Y31298297D01*
X53588228Y31298297D01*
G37*
G36*
X36715000Y31357000D02*
G01*
X34913000Y31357000D01*
X34913000Y33159000D01*
X36715000Y33159000D01*
X36715000Y31357000D01*
X36715000Y31357000D01*
G37*
G36*
X38464443Y33152481D02*
G01*
X38530627Y33145963D01*
X38700466Y33094443D01*
X38856991Y33010778D01*
X38892729Y32981448D01*
X38994186Y32898186D01*
X39077448Y32796729D01*
X39106778Y32760991D01*
X39190443Y32604466D01*
X39241963Y32434627D01*
X39259359Y32258000D01*
X39241963Y32081373D01*
X39190443Y31911534D01*
X39106778Y31755009D01*
X39077448Y31719271D01*
X38994186Y31617814D01*
X38892729Y31534552D01*
X38856991Y31505222D01*
X38700466Y31421557D01*
X38530627Y31370037D01*
X38464443Y31363519D01*
X38398260Y31357000D01*
X38309740Y31357000D01*
X38243557Y31363519D01*
X38177373Y31370037D01*
X38007534Y31421557D01*
X37851009Y31505222D01*
X37815271Y31534552D01*
X37713814Y31617814D01*
X37630552Y31719271D01*
X37601222Y31755009D01*
X37517557Y31911534D01*
X37466037Y32081373D01*
X37448641Y32258000D01*
X37466037Y32434627D01*
X37517557Y32604466D01*
X37601222Y32760991D01*
X37630552Y32796729D01*
X37713814Y32898186D01*
X37815271Y32981448D01*
X37851009Y33010778D01*
X38007534Y33094443D01*
X38177373Y33145963D01*
X38243557Y33152481D01*
X38309740Y33159000D01*
X38398260Y33159000D01*
X38464443Y33152481D01*
X38464443Y33152481D01*
G37*
G36*
X41004443Y33152481D02*
G01*
X41070627Y33145963D01*
X41240466Y33094443D01*
X41396991Y33010778D01*
X41432729Y32981448D01*
X41534186Y32898186D01*
X41617448Y32796729D01*
X41646778Y32760991D01*
X41730443Y32604466D01*
X41781963Y32434627D01*
X41799359Y32258000D01*
X41781963Y32081373D01*
X41730443Y31911534D01*
X41646778Y31755009D01*
X41617448Y31719271D01*
X41534186Y31617814D01*
X41432729Y31534552D01*
X41396991Y31505222D01*
X41240466Y31421557D01*
X41070627Y31370037D01*
X41004443Y31363519D01*
X40938260Y31357000D01*
X40849740Y31357000D01*
X40783557Y31363519D01*
X40717373Y31370037D01*
X40547534Y31421557D01*
X40391009Y31505222D01*
X40355271Y31534552D01*
X40253814Y31617814D01*
X40170552Y31719271D01*
X40141222Y31755009D01*
X40057557Y31911534D01*
X40006037Y32081373D01*
X39988641Y32258000D01*
X40006037Y32434627D01*
X40057557Y32604466D01*
X40141222Y32760991D01*
X40170552Y32796729D01*
X40253814Y32898186D01*
X40355271Y32981448D01*
X40391009Y33010778D01*
X40547534Y33094443D01*
X40717373Y33145963D01*
X40783557Y33152481D01*
X40849740Y33159000D01*
X40938260Y33159000D01*
X41004443Y33152481D01*
X41004443Y33152481D01*
G37*
G36*
X17422395Y35839454D02*
G01*
X17595466Y35767766D01*
X17595467Y35767765D01*
X17751227Y35663690D01*
X17883690Y35531227D01*
X17883691Y35531225D01*
X17987766Y35375466D01*
X18059454Y35202395D01*
X18096000Y35018667D01*
X18096000Y34831333D01*
X18059454Y34647605D01*
X17987766Y34474534D01*
X17987765Y34474533D01*
X17883690Y34318773D01*
X17751227Y34186310D01*
X17672818Y34133919D01*
X17595466Y34082234D01*
X17422395Y34010546D01*
X17238667Y33974000D01*
X17051333Y33974000D01*
X16867605Y34010546D01*
X16694534Y34082234D01*
X16617182Y34133919D01*
X16538773Y34186310D01*
X16406310Y34318773D01*
X16302235Y34474533D01*
X16302234Y34474534D01*
X16230546Y34647605D01*
X16194000Y34831333D01*
X16194000Y35018667D01*
X16230546Y35202395D01*
X16302234Y35375466D01*
X16406309Y35531225D01*
X16406310Y35531227D01*
X16538773Y35663690D01*
X16694533Y35767765D01*
X16694534Y35767766D01*
X16867605Y35839454D01*
X17051333Y35876000D01*
X17238667Y35876000D01*
X17422395Y35839454D01*
X17422395Y35839454D01*
G37*
G36*
X18096000Y36514000D02*
G01*
X16194000Y36514000D01*
X16194000Y38416000D01*
X18096000Y38416000D01*
X18096000Y36514000D01*
X18096000Y36514000D01*
G37*
M02*
