G04 #@! TF.GenerationSoftware,KiCad,Pcbnew,5.1.4-3.fc30*
G04 #@! TF.CreationDate,2019-09-27T12:27:46+02:00*
G04 #@! TF.ProjectId,atmega_prog_adapter_v3,61746d65-6761-45f7-9072-6f675f616461,1.0*
G04 #@! TF.SameCoordinates,Original*
G04 #@! TF.FileFunction,Legend,Top*
G04 #@! TF.FilePolarity,Positive*
%FSLAX46Y46*%
G04 Gerber Fmt 4.6, Leading zero omitted, Abs format (unit mm)*
G04 Created by KiCad (PCBNEW 5.1.4-3.fc30) date 2019-09-27 12:27:46*
%MOMM*%
%LPD*%
G04 APERTURE LIST*
%ADD10C,0.150000*%
%ADD11C,0.300000*%
%ADD12C,0.200000*%
%ADD13C,0.120000*%
G04 APERTURE END LIST*
D10*
X124112976Y-123356666D02*
X124589166Y-123356666D01*
X124017738Y-123642380D02*
X124351071Y-122642380D01*
X124684404Y-123642380D01*
X124874880Y-122642380D02*
X125446309Y-122642380D01*
X125160595Y-123642380D02*
X125160595Y-122642380D01*
X125779642Y-123642380D02*
X125779642Y-122975714D01*
X125779642Y-123070952D02*
X125827261Y-123023333D01*
X125922500Y-122975714D01*
X126065357Y-122975714D01*
X126160595Y-123023333D01*
X126208214Y-123118571D01*
X126208214Y-123642380D01*
X126208214Y-123118571D02*
X126255833Y-123023333D01*
X126351071Y-122975714D01*
X126493928Y-122975714D01*
X126589166Y-123023333D01*
X126636785Y-123118571D01*
X126636785Y-123642380D01*
X127493928Y-123594761D02*
X127398690Y-123642380D01*
X127208214Y-123642380D01*
X127112976Y-123594761D01*
X127065357Y-123499523D01*
X127065357Y-123118571D01*
X127112976Y-123023333D01*
X127208214Y-122975714D01*
X127398690Y-122975714D01*
X127493928Y-123023333D01*
X127541547Y-123118571D01*
X127541547Y-123213809D01*
X127065357Y-123309047D01*
X128398690Y-122975714D02*
X128398690Y-123785238D01*
X128351071Y-123880476D01*
X128303452Y-123928095D01*
X128208214Y-123975714D01*
X128065357Y-123975714D01*
X127970119Y-123928095D01*
X128398690Y-123594761D02*
X128303452Y-123642380D01*
X128112976Y-123642380D01*
X128017738Y-123594761D01*
X127970119Y-123547142D01*
X127922500Y-123451904D01*
X127922500Y-123166190D01*
X127970119Y-123070952D01*
X128017738Y-123023333D01*
X128112976Y-122975714D01*
X128303452Y-122975714D01*
X128398690Y-123023333D01*
X129303452Y-123642380D02*
X129303452Y-123118571D01*
X129255833Y-123023333D01*
X129160595Y-122975714D01*
X128970119Y-122975714D01*
X128874880Y-123023333D01*
X129303452Y-123594761D02*
X129208214Y-123642380D01*
X128970119Y-123642380D01*
X128874880Y-123594761D01*
X128827261Y-123499523D01*
X128827261Y-123404285D01*
X128874880Y-123309047D01*
X128970119Y-123261428D01*
X129208214Y-123261428D01*
X129303452Y-123213809D01*
X130208214Y-122975714D02*
X130208214Y-123642380D01*
X129970119Y-122594761D02*
X129732023Y-123309047D01*
X130351071Y-123309047D01*
X130874880Y-123070952D02*
X130779642Y-123023333D01*
X130732023Y-122975714D01*
X130684404Y-122880476D01*
X130684404Y-122832857D01*
X130732023Y-122737619D01*
X130779642Y-122690000D01*
X130874880Y-122642380D01*
X131065357Y-122642380D01*
X131160595Y-122690000D01*
X131208214Y-122737619D01*
X131255833Y-122832857D01*
X131255833Y-122880476D01*
X131208214Y-122975714D01*
X131160595Y-123023333D01*
X131065357Y-123070952D01*
X130874880Y-123070952D01*
X130779642Y-123118571D01*
X130732023Y-123166190D01*
X130684404Y-123261428D01*
X130684404Y-123451904D01*
X130732023Y-123547142D01*
X130779642Y-123594761D01*
X130874880Y-123642380D01*
X131065357Y-123642380D01*
X131160595Y-123594761D01*
X131208214Y-123547142D01*
X131255833Y-123451904D01*
X131255833Y-123261428D01*
X131208214Y-123166190D01*
X131160595Y-123118571D01*
X131065357Y-123070952D01*
X131636785Y-123356666D02*
X132112976Y-123356666D01*
X131541547Y-123642380D02*
X131874880Y-122642380D01*
X132208214Y-123642380D01*
X133255833Y-122594761D02*
X132398690Y-123880476D01*
X133589166Y-123642380D02*
X133589166Y-122642380D01*
X133970119Y-122642380D01*
X134065357Y-122690000D01*
X134112976Y-122737619D01*
X134160595Y-122832857D01*
X134160595Y-122975714D01*
X134112976Y-123070952D01*
X134065357Y-123118571D01*
X133970119Y-123166190D01*
X133589166Y-123166190D01*
X134541547Y-123356666D02*
X135017738Y-123356666D01*
X134446309Y-123642380D02*
X134779642Y-122642380D01*
X135112976Y-123642380D01*
X136160595Y-122594761D02*
X135303452Y-123880476D01*
X136636785Y-123070952D02*
X136541547Y-123023333D01*
X136493928Y-122975714D01*
X136446309Y-122880476D01*
X136446309Y-122832857D01*
X136493928Y-122737619D01*
X136541547Y-122690000D01*
X136636785Y-122642380D01*
X136827261Y-122642380D01*
X136922500Y-122690000D01*
X136970119Y-122737619D01*
X137017738Y-122832857D01*
X137017738Y-122880476D01*
X136970119Y-122975714D01*
X136922500Y-123023333D01*
X136827261Y-123070952D01*
X136636785Y-123070952D01*
X136541547Y-123118571D01*
X136493928Y-123166190D01*
X136446309Y-123261428D01*
X136446309Y-123451904D01*
X136493928Y-123547142D01*
X136541547Y-123594761D01*
X136636785Y-123642380D01*
X136827261Y-123642380D01*
X136922500Y-123594761D01*
X136970119Y-123547142D01*
X137017738Y-123451904D01*
X137017738Y-123261428D01*
X136970119Y-123166190D01*
X136922500Y-123118571D01*
X136827261Y-123070952D01*
X137589166Y-123070952D02*
X137493928Y-123023333D01*
X137446309Y-122975714D01*
X137398690Y-122880476D01*
X137398690Y-122832857D01*
X137446309Y-122737619D01*
X137493928Y-122690000D01*
X137589166Y-122642380D01*
X137779642Y-122642380D01*
X137874880Y-122690000D01*
X137922500Y-122737619D01*
X137970119Y-122832857D01*
X137970119Y-122880476D01*
X137922500Y-122975714D01*
X137874880Y-123023333D01*
X137779642Y-123070952D01*
X137589166Y-123070952D01*
X137493928Y-123118571D01*
X137446309Y-123166190D01*
X137398690Y-123261428D01*
X137398690Y-123451904D01*
X137446309Y-123547142D01*
X137493928Y-123594761D01*
X137589166Y-123642380D01*
X137779642Y-123642380D01*
X137874880Y-123594761D01*
X137922500Y-123547142D01*
X137970119Y-123451904D01*
X137970119Y-123261428D01*
X137922500Y-123166190D01*
X137874880Y-123118571D01*
X137779642Y-123070952D01*
X138351071Y-123356666D02*
X138827261Y-123356666D01*
X138255833Y-123642380D02*
X138589166Y-122642380D01*
X138922500Y-123642380D01*
X139970119Y-122594761D02*
X139112976Y-123880476D01*
X140303452Y-123642380D02*
X140303452Y-122642380D01*
X140684404Y-122642380D01*
X140779642Y-122690000D01*
X140827261Y-122737619D01*
X140874880Y-122832857D01*
X140874880Y-122975714D01*
X140827261Y-123070952D01*
X140779642Y-123118571D01*
X140684404Y-123166190D01*
X140303452Y-123166190D01*
X141255833Y-123356666D02*
X141732023Y-123356666D01*
X141160595Y-123642380D02*
X141493928Y-122642380D01*
X141827261Y-123642380D01*
X142874880Y-122594761D02*
X142017738Y-123880476D01*
X143732023Y-123642380D02*
X143160595Y-123642380D01*
X143446309Y-123642380D02*
X143446309Y-122642380D01*
X143351071Y-122785238D01*
X143255833Y-122880476D01*
X143160595Y-122928095D01*
X144589166Y-122642380D02*
X144398690Y-122642380D01*
X144303452Y-122690000D01*
X144255833Y-122737619D01*
X144160595Y-122880476D01*
X144112976Y-123070952D01*
X144112976Y-123451904D01*
X144160595Y-123547142D01*
X144208214Y-123594761D01*
X144303452Y-123642380D01*
X144493928Y-123642380D01*
X144589166Y-123594761D01*
X144636785Y-123547142D01*
X144684404Y-123451904D01*
X144684404Y-123213809D01*
X144636785Y-123118571D01*
X144589166Y-123070952D01*
X144493928Y-123023333D01*
X144303452Y-123023333D01*
X144208214Y-123070952D01*
X144160595Y-123118571D01*
X144112976Y-123213809D01*
X145255833Y-123070952D02*
X145160595Y-123023333D01*
X145112976Y-122975714D01*
X145065357Y-122880476D01*
X145065357Y-122832857D01*
X145112976Y-122737619D01*
X145160595Y-122690000D01*
X145255833Y-122642380D01*
X145446309Y-122642380D01*
X145541547Y-122690000D01*
X145589166Y-122737619D01*
X145636785Y-122832857D01*
X145636785Y-122880476D01*
X145589166Y-122975714D01*
X145541547Y-123023333D01*
X145446309Y-123070952D01*
X145255833Y-123070952D01*
X145160595Y-123118571D01*
X145112976Y-123166190D01*
X145065357Y-123261428D01*
X145065357Y-123451904D01*
X145112976Y-123547142D01*
X145160595Y-123594761D01*
X145255833Y-123642380D01*
X145446309Y-123642380D01*
X145541547Y-123594761D01*
X145589166Y-123547142D01*
X145636785Y-123451904D01*
X145636785Y-123261428D01*
X145589166Y-123166190D01*
X145541547Y-123118571D01*
X145446309Y-123070952D01*
X146017738Y-123356666D02*
X146493928Y-123356666D01*
X145922500Y-123642380D02*
X146255833Y-122642380D01*
X146589166Y-123642380D01*
X147636785Y-122594761D02*
X146779642Y-123880476D01*
X147970119Y-123642380D02*
X147970119Y-122642380D01*
X148351071Y-122642380D01*
X148446309Y-122690000D01*
X148493928Y-122737619D01*
X148541547Y-122832857D01*
X148541547Y-122975714D01*
X148493928Y-123070952D01*
X148446309Y-123118571D01*
X148351071Y-123166190D01*
X147970119Y-123166190D01*
X148922500Y-123356666D02*
X149398690Y-123356666D01*
X148827261Y-123642380D02*
X149160595Y-122642380D01*
X149493928Y-123642380D01*
X150541547Y-122594761D02*
X149684404Y-123880476D01*
X150779642Y-122642380D02*
X151398690Y-122642380D01*
X151065357Y-123023333D01*
X151208214Y-123023333D01*
X151303452Y-123070952D01*
X151351071Y-123118571D01*
X151398690Y-123213809D01*
X151398690Y-123451904D01*
X151351071Y-123547142D01*
X151303452Y-123594761D01*
X151208214Y-123642380D01*
X150922500Y-123642380D01*
X150827261Y-123594761D01*
X150779642Y-123547142D01*
X151779642Y-122737619D02*
X151827261Y-122690000D01*
X151922500Y-122642380D01*
X152160595Y-122642380D01*
X152255833Y-122690000D01*
X152303452Y-122737619D01*
X152351071Y-122832857D01*
X152351071Y-122928095D01*
X152303452Y-123070952D01*
X151732023Y-123642380D01*
X152351071Y-123642380D01*
X152922500Y-123070952D02*
X152827261Y-123023333D01*
X152779642Y-122975714D01*
X152732023Y-122880476D01*
X152732023Y-122832857D01*
X152779642Y-122737619D01*
X152827261Y-122690000D01*
X152922500Y-122642380D01*
X153112976Y-122642380D01*
X153208214Y-122690000D01*
X153255833Y-122737619D01*
X153303452Y-122832857D01*
X153303452Y-122880476D01*
X153255833Y-122975714D01*
X153208214Y-123023333D01*
X153112976Y-123070952D01*
X152922500Y-123070952D01*
X152827261Y-123118571D01*
X152779642Y-123166190D01*
X152732023Y-123261428D01*
X152732023Y-123451904D01*
X152779642Y-123547142D01*
X152827261Y-123594761D01*
X152922500Y-123642380D01*
X153112976Y-123642380D01*
X153208214Y-123594761D01*
X153255833Y-123547142D01*
X153303452Y-123451904D01*
X153303452Y-123261428D01*
X153255833Y-123166190D01*
X153208214Y-123118571D01*
X153112976Y-123070952D01*
X154446309Y-122594761D02*
X153589166Y-123880476D01*
X154779642Y-123642380D02*
X154779642Y-122642380D01*
X155160595Y-122642380D01*
X155255833Y-122690000D01*
X155303452Y-122737619D01*
X155351071Y-122832857D01*
X155351071Y-122975714D01*
X155303452Y-123070952D01*
X155255833Y-123118571D01*
X155160595Y-123166190D01*
X154779642Y-123166190D01*
D11*
X99441428Y-86725238D02*
X99536666Y-86630000D01*
X99727142Y-86534761D01*
X100203333Y-86534761D01*
X100393809Y-86630000D01*
X100489047Y-86725238D01*
X100584285Y-86915714D01*
X100584285Y-87106190D01*
X100489047Y-87391904D01*
X99346190Y-88534761D01*
X100584285Y-88534761D01*
X101822380Y-86534761D02*
X102012857Y-86534761D01*
X102203333Y-86630000D01*
X102298571Y-86725238D01*
X102393809Y-86915714D01*
X102489047Y-87296666D01*
X102489047Y-87772857D01*
X102393809Y-88153809D01*
X102298571Y-88344285D01*
X102203333Y-88439523D01*
X102012857Y-88534761D01*
X101822380Y-88534761D01*
X101631904Y-88439523D01*
X101536666Y-88344285D01*
X101441428Y-88153809D01*
X101346190Y-87772857D01*
X101346190Y-87296666D01*
X101441428Y-86915714D01*
X101536666Y-86725238D01*
X101631904Y-86630000D01*
X101822380Y-86534761D01*
X104393809Y-88534761D02*
X103250952Y-88534761D01*
X103822380Y-88534761D02*
X103822380Y-86534761D01*
X103631904Y-86820476D01*
X103441428Y-87010952D01*
X103250952Y-87106190D01*
X105346190Y-88534761D02*
X105727142Y-88534761D01*
X105917619Y-88439523D01*
X106012857Y-88344285D01*
X106203333Y-88058571D01*
X106298571Y-87677619D01*
X106298571Y-86915714D01*
X106203333Y-86725238D01*
X106108095Y-86630000D01*
X105917619Y-86534761D01*
X105536666Y-86534761D01*
X105346190Y-86630000D01*
X105250952Y-86725238D01*
X105155714Y-86915714D01*
X105155714Y-87391904D01*
X105250952Y-87582380D01*
X105346190Y-87677619D01*
X105536666Y-87772857D01*
X105917619Y-87772857D01*
X106108095Y-87677619D01*
X106203333Y-87582380D01*
X106298571Y-87391904D01*
D10*
X163419404Y-119325000D02*
X163324166Y-119277380D01*
X163181309Y-119277380D01*
X163038452Y-119325000D01*
X162943214Y-119420238D01*
X162895595Y-119515476D01*
X162847976Y-119705952D01*
X162847976Y-119848809D01*
X162895595Y-120039285D01*
X162943214Y-120134523D01*
X163038452Y-120229761D01*
X163181309Y-120277380D01*
X163276547Y-120277380D01*
X163419404Y-120229761D01*
X163467023Y-120182142D01*
X163467023Y-119848809D01*
X163276547Y-119848809D01*
X163895595Y-120277380D02*
X163895595Y-119277380D01*
X164467023Y-120277380D01*
X164467023Y-119277380D01*
X164943214Y-119277380D02*
X164943214Y-120086904D01*
X164990833Y-120182142D01*
X165038452Y-120229761D01*
X165133690Y-120277380D01*
X165324166Y-120277380D01*
X165419404Y-120229761D01*
X165467023Y-120182142D01*
X165514642Y-120086904D01*
X165514642Y-119277380D01*
X167276547Y-119325000D02*
X167181309Y-119277380D01*
X167038452Y-119277380D01*
X166895595Y-119325000D01*
X166800357Y-119420238D01*
X166752738Y-119515476D01*
X166705119Y-119705952D01*
X166705119Y-119848809D01*
X166752738Y-120039285D01*
X166800357Y-120134523D01*
X166895595Y-120229761D01*
X167038452Y-120277380D01*
X167133690Y-120277380D01*
X167276547Y-120229761D01*
X167324166Y-120182142D01*
X167324166Y-119848809D01*
X167133690Y-119848809D01*
X167752738Y-120277380D02*
X167752738Y-119277380D01*
X168133690Y-119277380D01*
X168228928Y-119325000D01*
X168276547Y-119372619D01*
X168324166Y-119467857D01*
X168324166Y-119610714D01*
X168276547Y-119705952D01*
X168228928Y-119753571D01*
X168133690Y-119801190D01*
X167752738Y-119801190D01*
X169228928Y-120277380D02*
X168752738Y-120277380D01*
X168752738Y-119277380D01*
X169467023Y-119610714D02*
X169705119Y-120277380D01*
X169943214Y-119610714D01*
X170228928Y-119277380D02*
X170847976Y-119277380D01*
X170514642Y-119658333D01*
X170657500Y-119658333D01*
X170752738Y-119705952D01*
X170800357Y-119753571D01*
X170847976Y-119848809D01*
X170847976Y-120086904D01*
X170800357Y-120182142D01*
X170752738Y-120229761D01*
X170657500Y-120277380D01*
X170371785Y-120277380D01*
X170276547Y-120229761D01*
X170228928Y-120182142D01*
X162895595Y-121927380D02*
X162895595Y-121260714D01*
X162895595Y-121451190D02*
X162943214Y-121355952D01*
X162990833Y-121308333D01*
X163086071Y-121260714D01*
X163181309Y-121260714D01*
X163895595Y-121879761D02*
X163800357Y-121927380D01*
X163609880Y-121927380D01*
X163514642Y-121879761D01*
X163467023Y-121784523D01*
X163467023Y-121403571D01*
X163514642Y-121308333D01*
X163609880Y-121260714D01*
X163800357Y-121260714D01*
X163895595Y-121308333D01*
X163943214Y-121403571D01*
X163943214Y-121498809D01*
X163467023Y-121594047D01*
X164276547Y-121260714D02*
X164514642Y-121927380D01*
X164752738Y-121260714D01*
X165133690Y-121832142D02*
X165181309Y-121879761D01*
X165133690Y-121927380D01*
X165086071Y-121879761D01*
X165133690Y-121832142D01*
X165133690Y-121927380D01*
X166895595Y-121927380D02*
X166324166Y-121927380D01*
X166609880Y-121927380D02*
X166609880Y-120927380D01*
X166514642Y-121070238D01*
X166419404Y-121165476D01*
X166324166Y-121213095D01*
X167324166Y-121832142D02*
X167371785Y-121879761D01*
X167324166Y-121927380D01*
X167276547Y-121879761D01*
X167324166Y-121832142D01*
X167324166Y-121927380D01*
X167990833Y-120927380D02*
X168086071Y-120927380D01*
X168181309Y-120975000D01*
X168228928Y-121022619D01*
X168276547Y-121117857D01*
X168324166Y-121308333D01*
X168324166Y-121546428D01*
X168276547Y-121736904D01*
X168228928Y-121832142D01*
X168181309Y-121879761D01*
X168086071Y-121927380D01*
X167990833Y-121927380D01*
X167895595Y-121879761D01*
X167847976Y-121832142D01*
X167800357Y-121736904D01*
X167752738Y-121546428D01*
X167752738Y-121308333D01*
X167800357Y-121117857D01*
X167847976Y-121022619D01*
X167895595Y-120975000D01*
X167990833Y-120927380D01*
D12*
X102521428Y-121459523D02*
X102807142Y-121554761D01*
X103283333Y-121554761D01*
X103473809Y-121459523D01*
X103569047Y-121364285D01*
X103664285Y-121173809D01*
X103664285Y-120983333D01*
X103569047Y-120792857D01*
X103473809Y-120697619D01*
X103283333Y-120602380D01*
X102902380Y-120507142D01*
X102711904Y-120411904D01*
X102616666Y-120316666D01*
X102521428Y-120126190D01*
X102521428Y-119935714D01*
X102616666Y-119745238D01*
X102711904Y-119650000D01*
X102902380Y-119554761D01*
X103378571Y-119554761D01*
X103664285Y-119650000D01*
X105854761Y-121745238D02*
X105664285Y-121650000D01*
X105473809Y-121459523D01*
X105188095Y-121173809D01*
X104997619Y-121078571D01*
X104807142Y-121078571D01*
X104902380Y-121554761D02*
X104711904Y-121459523D01*
X104521428Y-121269047D01*
X104426190Y-120888095D01*
X104426190Y-120221428D01*
X104521428Y-119840476D01*
X104711904Y-119650000D01*
X104902380Y-119554761D01*
X105283333Y-119554761D01*
X105473809Y-119650000D01*
X105664285Y-119840476D01*
X105759523Y-120221428D01*
X105759523Y-120888095D01*
X105664285Y-121269047D01*
X105473809Y-121459523D01*
X105283333Y-121554761D01*
X104902380Y-121554761D01*
X106426190Y-119554761D02*
X107759523Y-119554761D01*
X106902380Y-121554761D01*
X108521428Y-120507142D02*
X109188095Y-120507142D01*
X109473809Y-121554761D02*
X108521428Y-121554761D01*
X108521428Y-119554761D01*
X109473809Y-119554761D01*
X111664285Y-121745238D02*
X111473809Y-121650000D01*
X111283333Y-121459523D01*
X110997619Y-121173809D01*
X110807142Y-121078571D01*
X110616666Y-121078571D01*
X110711904Y-121554761D02*
X110521428Y-121459523D01*
X110330952Y-121269047D01*
X110235714Y-120888095D01*
X110235714Y-120221428D01*
X110330952Y-119840476D01*
X110521428Y-119650000D01*
X110711904Y-119554761D01*
X111092857Y-119554761D01*
X111283333Y-119650000D01*
X111473809Y-119840476D01*
X111569047Y-120221428D01*
X111569047Y-120888095D01*
X111473809Y-121269047D01*
X111283333Y-121459523D01*
X111092857Y-121554761D01*
X110711904Y-121554761D01*
X112426190Y-120507142D02*
X113092857Y-120507142D01*
X113378571Y-121554761D02*
X112426190Y-121554761D01*
X112426190Y-119554761D01*
X113378571Y-119554761D01*
X142067142Y-87963333D02*
X143019523Y-87963333D01*
X141876666Y-88534761D02*
X142543333Y-86534761D01*
X143210000Y-88534761D01*
X143590952Y-86534761D02*
X144733809Y-86534761D01*
X144162380Y-88534761D02*
X144162380Y-86534761D01*
X145400476Y-88534761D02*
X145400476Y-87201428D01*
X145400476Y-87391904D02*
X145495714Y-87296666D01*
X145686190Y-87201428D01*
X145971904Y-87201428D01*
X146162380Y-87296666D01*
X146257619Y-87487142D01*
X146257619Y-88534761D01*
X146257619Y-87487142D02*
X146352857Y-87296666D01*
X146543333Y-87201428D01*
X146829047Y-87201428D01*
X147019523Y-87296666D01*
X147114761Y-87487142D01*
X147114761Y-88534761D01*
X148829047Y-88439523D02*
X148638571Y-88534761D01*
X148257619Y-88534761D01*
X148067142Y-88439523D01*
X147971904Y-88249047D01*
X147971904Y-87487142D01*
X148067142Y-87296666D01*
X148257619Y-87201428D01*
X148638571Y-87201428D01*
X148829047Y-87296666D01*
X148924285Y-87487142D01*
X148924285Y-87677619D01*
X147971904Y-87868095D01*
X150638571Y-87201428D02*
X150638571Y-88820476D01*
X150543333Y-89010952D01*
X150448095Y-89106190D01*
X150257619Y-89201428D01*
X149971904Y-89201428D01*
X149781428Y-89106190D01*
X150638571Y-88439523D02*
X150448095Y-88534761D01*
X150067142Y-88534761D01*
X149876666Y-88439523D01*
X149781428Y-88344285D01*
X149686190Y-88153809D01*
X149686190Y-87582380D01*
X149781428Y-87391904D01*
X149876666Y-87296666D01*
X150067142Y-87201428D01*
X150448095Y-87201428D01*
X150638571Y-87296666D01*
X152448095Y-88534761D02*
X152448095Y-87487142D01*
X152352857Y-87296666D01*
X152162380Y-87201428D01*
X151781428Y-87201428D01*
X151590952Y-87296666D01*
X152448095Y-88439523D02*
X152257619Y-88534761D01*
X151781428Y-88534761D01*
X151590952Y-88439523D01*
X151495714Y-88249047D01*
X151495714Y-88058571D01*
X151590952Y-87868095D01*
X151781428Y-87772857D01*
X152257619Y-87772857D01*
X152448095Y-87677619D01*
X155781428Y-88534761D02*
X155781428Y-87487142D01*
X155686190Y-87296666D01*
X155495714Y-87201428D01*
X155114761Y-87201428D01*
X154924285Y-87296666D01*
X155781428Y-88439523D02*
X155590952Y-88534761D01*
X155114761Y-88534761D01*
X154924285Y-88439523D01*
X154829047Y-88249047D01*
X154829047Y-88058571D01*
X154924285Y-87868095D01*
X155114761Y-87772857D01*
X155590952Y-87772857D01*
X155781428Y-87677619D01*
X157590952Y-88534761D02*
X157590952Y-86534761D01*
X157590952Y-88439523D02*
X157400476Y-88534761D01*
X157019523Y-88534761D01*
X156829047Y-88439523D01*
X156733809Y-88344285D01*
X156638571Y-88153809D01*
X156638571Y-87582380D01*
X156733809Y-87391904D01*
X156829047Y-87296666D01*
X157019523Y-87201428D01*
X157400476Y-87201428D01*
X157590952Y-87296666D01*
X159400476Y-88534761D02*
X159400476Y-87487142D01*
X159305238Y-87296666D01*
X159114761Y-87201428D01*
X158733809Y-87201428D01*
X158543333Y-87296666D01*
X159400476Y-88439523D02*
X159210000Y-88534761D01*
X158733809Y-88534761D01*
X158543333Y-88439523D01*
X158448095Y-88249047D01*
X158448095Y-88058571D01*
X158543333Y-87868095D01*
X158733809Y-87772857D01*
X159210000Y-87772857D01*
X159400476Y-87677619D01*
X160352857Y-87201428D02*
X160352857Y-89201428D01*
X160352857Y-87296666D02*
X160543333Y-87201428D01*
X160924285Y-87201428D01*
X161114761Y-87296666D01*
X161210000Y-87391904D01*
X161305238Y-87582380D01*
X161305238Y-88153809D01*
X161210000Y-88344285D01*
X161114761Y-88439523D01*
X160924285Y-88534761D01*
X160543333Y-88534761D01*
X160352857Y-88439523D01*
X161876666Y-87201428D02*
X162638571Y-87201428D01*
X162162380Y-86534761D02*
X162162380Y-88249047D01*
X162257619Y-88439523D01*
X162448095Y-88534761D01*
X162638571Y-88534761D01*
X164067142Y-88439523D02*
X163876666Y-88534761D01*
X163495714Y-88534761D01*
X163305238Y-88439523D01*
X163210000Y-88249047D01*
X163210000Y-87487142D01*
X163305238Y-87296666D01*
X163495714Y-87201428D01*
X163876666Y-87201428D01*
X164067142Y-87296666D01*
X164162380Y-87487142D01*
X164162380Y-87677619D01*
X163210000Y-87868095D01*
X165019523Y-88534761D02*
X165019523Y-87201428D01*
X165019523Y-87582380D02*
X165114761Y-87391904D01*
X165210000Y-87296666D01*
X165400476Y-87201428D01*
X165590952Y-87201428D01*
X167590952Y-87201428D02*
X168067142Y-88534761D01*
X168543333Y-87201428D01*
X169114761Y-86534761D02*
X170352857Y-86534761D01*
X169686190Y-87296666D01*
X169971904Y-87296666D01*
X170162380Y-87391904D01*
X170257619Y-87487142D01*
X170352857Y-87677619D01*
X170352857Y-88153809D01*
X170257619Y-88344285D01*
X170162380Y-88439523D01*
X169971904Y-88534761D01*
X169400476Y-88534761D01*
X169210000Y-88439523D01*
X169114761Y-88344285D01*
D13*
X127000000Y-96520000D02*
X124460000Y-96520000D01*
X124460000Y-96520000D02*
X124460000Y-93980000D01*
X140208000Y-84582000D02*
X137668000Y-84582000D01*
X140208000Y-87122000D02*
X140208000Y-84582000D01*
X140208000Y-96520000D02*
X137668000Y-96520000D01*
X140208000Y-96520000D02*
X140208000Y-93980000D01*
X127000000Y-84582000D02*
X124460000Y-84582000D01*
X124460000Y-87122000D02*
X124460000Y-84582000D01*
X128464000Y-92202000D02*
X128464000Y-90872000D01*
X128464000Y-90872000D02*
X129794000Y-90872000D01*
X131064000Y-90872000D02*
X136204000Y-90872000D01*
X136204000Y-93532000D02*
X136204000Y-90872000D01*
X131064000Y-93532000D02*
X136204000Y-93532000D01*
X131064000Y-93532000D02*
X131064000Y-90872000D01*
X141030000Y-118010000D02*
X141030000Y-120750000D01*
X135790000Y-118010000D02*
X135790000Y-120750000D01*
X135790000Y-120750000D02*
X141030000Y-120750000D01*
X135790000Y-118010000D02*
X141030000Y-118010000D01*
X110045000Y-86705000D02*
X109889000Y-86705000D01*
X112361000Y-86705000D02*
X112205000Y-86705000D01*
X110045163Y-89306130D02*
G75*
G02X110045000Y-87224039I1079837J1041130D01*
G01*
X112204837Y-89306130D02*
G75*
G03X112205000Y-87224039I-1079837J1041130D01*
G01*
X110046392Y-89937335D02*
G75*
G02X109889484Y-86705000I1078608J1672335D01*
G01*
X112203608Y-89937335D02*
G75*
G03X112360516Y-86705000I-1078608J1672335D01*
G01*
X97945000Y-94730000D02*
X100485000Y-94730000D01*
X97945000Y-94730000D02*
X97945000Y-97270000D01*
X98195000Y-94980000D02*
X107545000Y-94980000D01*
X98195000Y-115840000D02*
X98195000Y-94980000D01*
X107545000Y-115840000D02*
X98195000Y-115840000D01*
X107545000Y-94980000D02*
X107545000Y-115840000D01*
X154400000Y-95350000D02*
X154400000Y-95020000D01*
X147860000Y-95350000D02*
X154400000Y-95350000D01*
X147860000Y-95020000D02*
X147860000Y-95350000D01*
X154400000Y-92610000D02*
X154400000Y-92940000D01*
X147860000Y-92610000D02*
X154400000Y-92610000D01*
X147860000Y-92940000D02*
X147860000Y-92610000D01*
X109755000Y-101060000D02*
X110085000Y-101060000D01*
X109755000Y-94520000D02*
X109755000Y-101060000D01*
X110085000Y-94520000D02*
X109755000Y-94520000D01*
X112495000Y-101060000D02*
X112165000Y-101060000D01*
X112495000Y-94520000D02*
X112495000Y-101060000D01*
X112165000Y-94520000D02*
X112495000Y-94520000D01*
X153670000Y-96650000D02*
X156210000Y-96650000D01*
X165600000Y-99950000D02*
X163340000Y-99950000D01*
X165600000Y-97680000D02*
X163740000Y-97680000D01*
X165600000Y-115680000D02*
X165600000Y-97680000D01*
X114900000Y-115680000D02*
X165600000Y-115680000D01*
X114900000Y-97680000D02*
X114900000Y-115680000D01*
X158840000Y-97680000D02*
X114900000Y-97680000D01*
X162190000Y-98400000D02*
G75*
G03X162190000Y-98400000I-900000J0D01*
G01*
X163840000Y-98400000D02*
G75*
G03X163840000Y-98400000I-2550000J0D01*
G01*
D10*
X122769380Y-92535333D02*
X123483666Y-92535333D01*
X123626523Y-92582952D01*
X123721761Y-92678190D01*
X123769380Y-92821047D01*
X123769380Y-92916285D01*
X122864619Y-92106761D02*
X122817000Y-92059142D01*
X122769380Y-91963904D01*
X122769380Y-91725809D01*
X122817000Y-91630571D01*
X122864619Y-91582952D01*
X122959857Y-91535333D01*
X123055095Y-91535333D01*
X123197952Y-91582952D01*
X123769380Y-92154380D01*
X123769380Y-91535333D01*
X131834000Y-88802595D02*
X131786380Y-88897833D01*
X131786380Y-89040690D01*
X131834000Y-89183547D01*
X131929238Y-89278785D01*
X132024476Y-89326404D01*
X132214952Y-89374023D01*
X132357809Y-89374023D01*
X132548285Y-89326404D01*
X132643523Y-89278785D01*
X132738761Y-89183547D01*
X132786380Y-89040690D01*
X132786380Y-88945452D01*
X132738761Y-88802595D01*
X132691142Y-88754976D01*
X132357809Y-88754976D01*
X132357809Y-88945452D01*
X132786380Y-88326404D02*
X131786380Y-88326404D01*
X132786380Y-87754976D01*
X131786380Y-87754976D01*
X132786380Y-87278785D02*
X131786380Y-87278785D01*
X131786380Y-87040690D01*
X131834000Y-86897833D01*
X131929238Y-86802595D01*
X132024476Y-86754976D01*
X132214952Y-86707357D01*
X132357809Y-86707357D01*
X132548285Y-86754976D01*
X132643523Y-86802595D01*
X132738761Y-86897833D01*
X132786380Y-87040690D01*
X132786380Y-87278785D01*
X134326380Y-89421642D02*
X135326380Y-88754976D01*
X134326380Y-88754976D02*
X135326380Y-89421642D01*
X134326380Y-88516880D02*
X134326380Y-87945452D01*
X135326380Y-88231166D02*
X134326380Y-88231166D01*
X135040666Y-87659738D02*
X135040666Y-87183547D01*
X135326380Y-87754976D02*
X134326380Y-87421642D01*
X135326380Y-87088309D01*
X135326380Y-86278785D02*
X135326380Y-86754976D01*
X134326380Y-86754976D01*
X134421619Y-85993071D02*
X134374000Y-85945452D01*
X134326380Y-85850214D01*
X134326380Y-85612119D01*
X134374000Y-85516880D01*
X134421619Y-85469261D01*
X134516857Y-85421642D01*
X134612095Y-85421642D01*
X134754952Y-85469261D01*
X135326380Y-86040690D01*
X135326380Y-85421642D01*
X129246380Y-89421642D02*
X130246380Y-88754976D01*
X129246380Y-88754976D02*
X130246380Y-89421642D01*
X129246380Y-88516880D02*
X129246380Y-87945452D01*
X130246380Y-88231166D02*
X129246380Y-88231166D01*
X129960666Y-87659738D02*
X129960666Y-87183547D01*
X130246380Y-87754976D02*
X129246380Y-87421642D01*
X130246380Y-87088309D01*
X130246380Y-86278785D02*
X130246380Y-86754976D01*
X129246380Y-86754976D01*
X130246380Y-85421642D02*
X130246380Y-85993071D01*
X130246380Y-85707357D02*
X129246380Y-85707357D01*
X129389238Y-85802595D01*
X129484476Y-85897833D01*
X129532095Y-85993071D01*
X138243333Y-117237142D02*
X138195714Y-117284761D01*
X138052857Y-117332380D01*
X137957619Y-117332380D01*
X137814761Y-117284761D01*
X137719523Y-117189523D01*
X137671904Y-117094285D01*
X137624285Y-116903809D01*
X137624285Y-116760952D01*
X137671904Y-116570476D01*
X137719523Y-116475238D01*
X137814761Y-116380000D01*
X137957619Y-116332380D01*
X138052857Y-116332380D01*
X138195714Y-116380000D01*
X138243333Y-116427619D01*
X139195714Y-117332380D02*
X138624285Y-117332380D01*
X138910000Y-117332380D02*
X138910000Y-116332380D01*
X138814761Y-116475238D01*
X138719523Y-116570476D01*
X138624285Y-116618095D01*
X114537380Y-89003095D02*
X113537380Y-89003095D01*
X113537380Y-88765000D01*
X113585000Y-88622142D01*
X113680238Y-88526904D01*
X113775476Y-88479285D01*
X113965952Y-88431666D01*
X114108809Y-88431666D01*
X114299285Y-88479285D01*
X114394523Y-88526904D01*
X114489761Y-88622142D01*
X114537380Y-88765000D01*
X114537380Y-89003095D01*
X114537380Y-87479285D02*
X114537380Y-88050714D01*
X114537380Y-87765000D02*
X113537380Y-87765000D01*
X113680238Y-87860238D01*
X113775476Y-87955476D01*
X113823095Y-88050714D01*
X102536666Y-93178380D02*
X102536666Y-93892666D01*
X102489047Y-94035523D01*
X102393809Y-94130761D01*
X102250952Y-94178380D01*
X102155714Y-94178380D01*
X103536666Y-94178380D02*
X102965238Y-94178380D01*
X103250952Y-94178380D02*
X103250952Y-93178380D01*
X103155714Y-93321238D01*
X103060476Y-93416476D01*
X102965238Y-93464095D01*
X150963333Y-92062380D02*
X150630000Y-91586190D01*
X150391904Y-92062380D02*
X150391904Y-91062380D01*
X150772857Y-91062380D01*
X150868095Y-91110000D01*
X150915714Y-91157619D01*
X150963333Y-91252857D01*
X150963333Y-91395714D01*
X150915714Y-91490952D01*
X150868095Y-91538571D01*
X150772857Y-91586190D01*
X150391904Y-91586190D01*
X151915714Y-92062380D02*
X151344285Y-92062380D01*
X151630000Y-92062380D02*
X151630000Y-91062380D01*
X151534761Y-91205238D01*
X151439523Y-91300476D01*
X151344285Y-91348095D01*
X113947380Y-97956666D02*
X113471190Y-98290000D01*
X113947380Y-98528095D02*
X112947380Y-98528095D01*
X112947380Y-98147142D01*
X112995000Y-98051904D01*
X113042619Y-98004285D01*
X113137857Y-97956666D01*
X113280714Y-97956666D01*
X113375952Y-98004285D01*
X113423571Y-98051904D01*
X113471190Y-98147142D01*
X113471190Y-98528095D01*
X113042619Y-97575714D02*
X112995000Y-97528095D01*
X112947380Y-97432857D01*
X112947380Y-97194761D01*
X112995000Y-97099523D01*
X113042619Y-97051904D01*
X113137857Y-97004285D01*
X113233095Y-97004285D01*
X113375952Y-97051904D01*
X113947380Y-97623333D01*
X113947380Y-97004285D01*
X165952380Y-107441904D02*
X166761904Y-107441904D01*
X166857142Y-107394285D01*
X166904761Y-107346666D01*
X166952380Y-107251428D01*
X166952380Y-107060952D01*
X166904761Y-106965714D01*
X166857142Y-106918095D01*
X166761904Y-106870476D01*
X165952380Y-106870476D01*
X166952380Y-105870476D02*
X166952380Y-106441904D01*
X166952380Y-106156190D02*
X165952380Y-106156190D01*
X166095238Y-106251428D01*
X166190476Y-106346666D01*
X166238095Y-106441904D01*
M02*
