%TF.GenerationSoftware,KiCad,Pcbnew,5.1.6-c6e7f7d~86~ubuntu18.04.1*%
%TF.CreationDate,2020-05-25T18:44:13+02:00*%
%TF.ProjectId,atmega_prog_adapter_v3,61746d65-6761-45f7-9072-6f675f616461,1.0*%
%TF.SameCoordinates,PX59a0560PY76b1be0*%
%TF.FileFunction,Legend,Bot*%
%TF.FilePolarity,Positive*%
%FSLAX46Y46*%
G04 Gerber Fmt 4.6, Leading zero omitted, Abs format (unit mm)*
G04 Created by KiCad (PCBNEW 5.1.6-c6e7f7d~86~ubuntu18.04.1) date 2020-05-25 18:44:13*
%MOMM*%
%LPD*%
G01*
G04 APERTURE LIST*
%ADD10O,1.802000X1.802000*%
%ADD11R,1.802000X1.802000*%
%ADD12C,1.702000*%
%ADD13C,1.902000*%
%ADD14R,1.902000X1.902000*%
%ADD15O,1.829200X1.829200*%
%ADD16R,1.829200X1.829200*%
%ADD17O,1.702000X1.702000*%
%ADD18O,1.542000X2.102000*%
%ADD19R,1.542000X2.102000*%
G04 APERTURE END LIST*
%LPC*%
D10*
%TO.C,J2*%
X40894000Y32258000D03*
X38354000Y32258000D03*
D11*
X35814000Y32258000D03*
%TD*%
D12*
%TO.C,C1*%
X45680000Y5080000D03*
X43180000Y5080000D03*
%TD*%
D13*
%TO.C,D1*%
X17145000Y34925000D03*
D14*
X17145000Y37465000D03*
%TD*%
D15*
%TO.C,J1*%
X10160000Y13970000D03*
X7620000Y13970000D03*
X10160000Y16510000D03*
X7620000Y16510000D03*
X10160000Y19050000D03*
X7620000Y19050000D03*
X10160000Y21590000D03*
X7620000Y21590000D03*
X10160000Y24130000D03*
D16*
X7620000Y24130000D03*
%TD*%
D17*
%TO.C,R1*%
X60960000Y30480000D03*
D12*
X53340000Y30480000D03*
%TD*%
D17*
%TO.C,R2*%
X17145000Y22860000D03*
D12*
X17145000Y30480000D03*
%TD*%
D18*
%TO.C,U1*%
X27940000Y12700000D03*
X27940000Y22860000D03*
X30480000Y12700000D03*
X30480000Y22860000D03*
X33020000Y12700000D03*
X33020000Y22860000D03*
X35560000Y12700000D03*
X35560000Y22860000D03*
X38100000Y12700000D03*
X38100000Y22860000D03*
X40640000Y12700000D03*
X40640000Y22860000D03*
X43180000Y12700000D03*
X43180000Y22860000D03*
X45720000Y12700000D03*
X45720000Y22860000D03*
X48260000Y12700000D03*
X48260000Y22860000D03*
X50800000Y12700000D03*
X50800000Y22860000D03*
X53340000Y12700000D03*
X53340000Y22860000D03*
X55880000Y12700000D03*
X55880000Y22860000D03*
X58420000Y12700000D03*
X58420000Y22860000D03*
X60960000Y12700000D03*
D19*
X60960000Y22860000D03*
%TD*%
M02*
