G04 #@! TF.GenerationSoftware,KiCad,Pcbnew,5.1.4-3.fc30*
G04 #@! TF.CreationDate,2019-09-27T12:27:46+02:00*
G04 #@! TF.ProjectId,atmega_prog_adapter_v3,61746d65-6761-45f7-9072-6f675f616461,1.0*
G04 #@! TF.SameCoordinates,Original*
G04 #@! TF.FileFunction,Other,Fab,Top*
%FSLAX46Y46*%
G04 Gerber Fmt 4.6, Leading zero omitted, Abs format (unit mm)*
G04 Created by KiCad (PCBNEW 5.1.4-3.fc30) date 2019-09-27 12:27:46*
%MOMM*%
%LPD*%
G04 APERTURE LIST*
%ADD10C,0.100000*%
%ADD11C,0.150000*%
%ADD12C,0.090000*%
G04 APERTURE END LIST*
D10*
X136144000Y-93472000D02*
X128524000Y-93472000D01*
X136144000Y-90932000D02*
X136144000Y-93472000D01*
X129159000Y-90932000D02*
X136144000Y-90932000D01*
X128524000Y-91567000D02*
X129159000Y-90932000D01*
X128524000Y-93472000D02*
X128524000Y-91567000D01*
X140910000Y-118130000D02*
X135910000Y-118130000D01*
X140910000Y-120630000D02*
X140910000Y-118130000D01*
X135910000Y-120630000D02*
X140910000Y-120630000D01*
X135910000Y-118130000D02*
X135910000Y-120630000D01*
X112291190Y-86765000D02*
X109958810Y-86765000D01*
X112625000Y-88265000D02*
G75*
G03X112625000Y-88265000I-1500000J0D01*
G01*
X109959524Y-86764445D02*
G75*
G03X112291190Y-86765000I1165476J-1500555D01*
G01*
X98445000Y-115590000D02*
X98995000Y-115030000D01*
X98445000Y-95230000D02*
X98995000Y-95770000D01*
X107295000Y-115590000D02*
X106745000Y-115030000D01*
X107295000Y-95230000D02*
X106745000Y-95770000D01*
X106745000Y-115030000D02*
X98995000Y-115030000D01*
X107295000Y-115590000D02*
X98445000Y-115590000D01*
X106745000Y-95770000D02*
X98995000Y-95770000D01*
X107295000Y-95230000D02*
X98445000Y-95230000D01*
X98995000Y-107660000D02*
X98445000Y-107660000D01*
X98995000Y-103160000D02*
X98445000Y-103160000D01*
X98995000Y-107660000D02*
X98995000Y-115030000D01*
X98995000Y-95770000D02*
X98995000Y-103160000D01*
X98445000Y-95230000D02*
X98445000Y-115590000D01*
X106745000Y-95770000D02*
X106745000Y-115030000D01*
X107295000Y-95230000D02*
X107295000Y-115590000D01*
X154940000Y-93980000D02*
X154280000Y-93980000D01*
X147320000Y-93980000D02*
X147980000Y-93980000D01*
X154280000Y-92730000D02*
X147980000Y-92730000D01*
X154280000Y-95230000D02*
X154280000Y-92730000D01*
X147980000Y-95230000D02*
X154280000Y-95230000D01*
X147980000Y-92730000D02*
X147980000Y-95230000D01*
X111125000Y-101600000D02*
X111125000Y-100940000D01*
X111125000Y-93980000D02*
X111125000Y-94640000D01*
X112375000Y-100940000D02*
X112375000Y-94640000D01*
X109875000Y-100940000D02*
X112375000Y-100940000D01*
X109875000Y-94640000D02*
X109875000Y-100940000D01*
X112375000Y-94640000D02*
X109875000Y-94640000D01*
X165500000Y-115580000D02*
X115000000Y-115580000D01*
X165500000Y-98750000D02*
X165500000Y-115580000D01*
X164340000Y-97780000D02*
X165500000Y-98750000D01*
X115000000Y-97780000D02*
X164340000Y-97780000D01*
X115000000Y-115580000D02*
X115000000Y-97780000D01*
X170800000Y-99700000D02*
X165500000Y-99700000D01*
X170800000Y-98100000D02*
X170800000Y-99700000D01*
X164690000Y-98100000D02*
X170800000Y-98100000D01*
X172800000Y-101200000D02*
X170800000Y-99700000D01*
X172800000Y-96600000D02*
X170800000Y-98100000D01*
X172800000Y-101200000D02*
X176400000Y-101200000D01*
X172800000Y-96600000D02*
X172800000Y-101200000D01*
X176400000Y-96600000D02*
X172800000Y-96600000D01*
X176400000Y-101200000D02*
X176400000Y-96600000D01*
X177800000Y-99900000D02*
X176400000Y-101200000D01*
X177800000Y-97900000D02*
X177800000Y-99900000D01*
X176400000Y-96600000D02*
X177800000Y-97900000D01*
D11*
X140676380Y-96551047D02*
X141676380Y-95884380D01*
X140676380Y-95884380D02*
X141676380Y-96551047D01*
X140676380Y-95646285D02*
X140676380Y-95074857D01*
X141676380Y-95360571D02*
X140676380Y-95360571D01*
X141390666Y-94789142D02*
X141390666Y-94312952D01*
X141676380Y-94884380D02*
X140676380Y-94551047D01*
X141676380Y-94217714D01*
X141676380Y-93408190D02*
X141676380Y-93884380D01*
X140676380Y-93884380D01*
X141771619Y-93312952D02*
X141771619Y-92551047D01*
X141628761Y-91884380D02*
X141676380Y-91979619D01*
X141676380Y-92170095D01*
X141628761Y-92265333D01*
X141581142Y-92312952D01*
X141485904Y-92360571D01*
X141200190Y-92360571D01*
X141104952Y-92312952D01*
X141057333Y-92265333D01*
X141009714Y-92170095D01*
X141009714Y-91979619D01*
X141057333Y-91884380D01*
X141676380Y-91312952D02*
X141628761Y-91408190D01*
X141581142Y-91455809D01*
X141485904Y-91503428D01*
X141200190Y-91503428D01*
X141104952Y-91455809D01*
X141057333Y-91408190D01*
X141009714Y-91312952D01*
X141009714Y-91170095D01*
X141057333Y-91074857D01*
X141104952Y-91027238D01*
X141200190Y-90979619D01*
X141485904Y-90979619D01*
X141581142Y-91027238D01*
X141628761Y-91074857D01*
X141676380Y-91170095D01*
X141676380Y-91312952D01*
X141009714Y-90551047D02*
X141676380Y-90551047D01*
X141104952Y-90551047D02*
X141057333Y-90503428D01*
X141009714Y-90408190D01*
X141009714Y-90265333D01*
X141057333Y-90170095D01*
X141152571Y-90122476D01*
X141676380Y-90122476D01*
X141009714Y-89646285D02*
X141676380Y-89646285D01*
X141104952Y-89646285D02*
X141057333Y-89598666D01*
X141009714Y-89503428D01*
X141009714Y-89360571D01*
X141057333Y-89265333D01*
X141152571Y-89217714D01*
X141676380Y-89217714D01*
X141628761Y-88360571D02*
X141676380Y-88455809D01*
X141676380Y-88646285D01*
X141628761Y-88741523D01*
X141533523Y-88789142D01*
X141152571Y-88789142D01*
X141057333Y-88741523D01*
X141009714Y-88646285D01*
X141009714Y-88455809D01*
X141057333Y-88360571D01*
X141152571Y-88312952D01*
X141247809Y-88312952D01*
X141343047Y-88789142D01*
X141628761Y-87455809D02*
X141676380Y-87551047D01*
X141676380Y-87741523D01*
X141628761Y-87836761D01*
X141581142Y-87884380D01*
X141485904Y-87932000D01*
X141200190Y-87932000D01*
X141104952Y-87884380D01*
X141057333Y-87836761D01*
X141009714Y-87741523D01*
X141009714Y-87551047D01*
X141057333Y-87455809D01*
X141009714Y-87170095D02*
X141009714Y-86789142D01*
X140676380Y-87027238D02*
X141533523Y-87027238D01*
X141628761Y-86979619D01*
X141676380Y-86884380D01*
X141676380Y-86789142D01*
X141676380Y-86312952D02*
X141628761Y-86408190D01*
X141581142Y-86455809D01*
X141485904Y-86503428D01*
X141200190Y-86503428D01*
X141104952Y-86455809D01*
X141057333Y-86408190D01*
X141009714Y-86312952D01*
X141009714Y-86170095D01*
X141057333Y-86074857D01*
X141104952Y-86027238D01*
X141200190Y-85979619D01*
X141485904Y-85979619D01*
X141581142Y-86027238D01*
X141628761Y-86074857D01*
X141676380Y-86170095D01*
X141676380Y-86312952D01*
X141676380Y-85551047D02*
X141009714Y-85551047D01*
X141200190Y-85551047D02*
X141104952Y-85503428D01*
X141057333Y-85455809D01*
X141009714Y-85360571D01*
X141009714Y-85265333D01*
X132000666Y-91654380D02*
X132000666Y-92368666D01*
X131953047Y-92511523D01*
X131857809Y-92606761D01*
X131714952Y-92654380D01*
X131619714Y-92654380D01*
X132429238Y-91749619D02*
X132476857Y-91702000D01*
X132572095Y-91654380D01*
X132810190Y-91654380D01*
X132905428Y-91702000D01*
X132953047Y-91749619D01*
X133000666Y-91844857D01*
X133000666Y-91940095D01*
X132953047Y-92082952D01*
X132381619Y-92654380D01*
X133000666Y-92654380D01*
X137195714Y-121332380D02*
X137290952Y-121332380D01*
X137386190Y-121380000D01*
X137433809Y-121427619D01*
X137481428Y-121522857D01*
X137529047Y-121713333D01*
X137529047Y-121951428D01*
X137481428Y-122141904D01*
X137433809Y-122237142D01*
X137386190Y-122284761D01*
X137290952Y-122332380D01*
X137195714Y-122332380D01*
X137100476Y-122284761D01*
X137052857Y-122237142D01*
X137005238Y-122141904D01*
X136957619Y-121951428D01*
X136957619Y-121713333D01*
X137005238Y-121522857D01*
X137052857Y-121427619D01*
X137100476Y-121380000D01*
X137195714Y-121332380D01*
X137957619Y-122237142D02*
X138005238Y-122284761D01*
X137957619Y-122332380D01*
X137910000Y-122284761D01*
X137957619Y-122237142D01*
X137957619Y-122332380D01*
X138957619Y-122332380D02*
X138386190Y-122332380D01*
X138671904Y-122332380D02*
X138671904Y-121332380D01*
X138576666Y-121475238D01*
X138481428Y-121570476D01*
X138386190Y-121618095D01*
X139814761Y-121665714D02*
X139814761Y-122332380D01*
X139386190Y-121665714D02*
X139386190Y-122189523D01*
X139433809Y-122284761D01*
X139529047Y-122332380D01*
X139671904Y-122332380D01*
X139767142Y-122284761D01*
X139814761Y-122237142D01*
X138243333Y-119737142D02*
X138195714Y-119784761D01*
X138052857Y-119832380D01*
X137957619Y-119832380D01*
X137814761Y-119784761D01*
X137719523Y-119689523D01*
X137671904Y-119594285D01*
X137624285Y-119403809D01*
X137624285Y-119260952D01*
X137671904Y-119070476D01*
X137719523Y-118975238D01*
X137814761Y-118880000D01*
X137957619Y-118832380D01*
X138052857Y-118832380D01*
X138195714Y-118880000D01*
X138243333Y-118927619D01*
X139195714Y-119832380D02*
X138624285Y-119832380D01*
X138910000Y-119832380D02*
X138910000Y-118832380D01*
X138814761Y-118975238D01*
X138719523Y-119070476D01*
X138624285Y-119118095D01*
X108141190Y-90622142D02*
X108617380Y-90622142D01*
X107617380Y-90955476D02*
X108141190Y-90622142D01*
X107617380Y-90288809D01*
X108093571Y-89955476D02*
X108093571Y-89622142D01*
X108617380Y-89479285D02*
X108617380Y-89955476D01*
X107617380Y-89955476D01*
X107617380Y-89479285D01*
X108617380Y-88574523D02*
X108617380Y-89050714D01*
X107617380Y-89050714D01*
X108617380Y-87765000D02*
X108617380Y-88241190D01*
X107617380Y-88241190D01*
X107617380Y-87241190D02*
X107617380Y-87050714D01*
X107665000Y-86955476D01*
X107760238Y-86860238D01*
X107950714Y-86812619D01*
X108284047Y-86812619D01*
X108474523Y-86860238D01*
X108569761Y-86955476D01*
X108617380Y-87050714D01*
X108617380Y-87241190D01*
X108569761Y-87336428D01*
X108474523Y-87431666D01*
X108284047Y-87479285D01*
X107950714Y-87479285D01*
X107760238Y-87431666D01*
X107665000Y-87336428D01*
X107617380Y-87241190D01*
X107617380Y-86479285D02*
X108617380Y-86241190D01*
X107903095Y-86050714D01*
X108617380Y-85860238D01*
X107617380Y-85622142D01*
X98298571Y-117260666D02*
X98774761Y-117260666D01*
X98203333Y-117546380D02*
X98536666Y-116546380D01*
X98870000Y-117546380D01*
X99060476Y-116546380D02*
X99393809Y-117546380D01*
X99727142Y-116546380D01*
X100631904Y-117546380D02*
X100298571Y-117070190D01*
X100060476Y-117546380D02*
X100060476Y-116546380D01*
X100441428Y-116546380D01*
X100536666Y-116594000D01*
X100584285Y-116641619D01*
X100631904Y-116736857D01*
X100631904Y-116879714D01*
X100584285Y-116974952D01*
X100536666Y-117022571D01*
X100441428Y-117070190D01*
X100060476Y-117070190D01*
X101060476Y-117165428D02*
X101822380Y-117165428D01*
X102298571Y-117546380D02*
X102298571Y-116546380D01*
X102727142Y-117498761D02*
X102870000Y-117546380D01*
X103108095Y-117546380D01*
X103203333Y-117498761D01*
X103250952Y-117451142D01*
X103298571Y-117355904D01*
X103298571Y-117260666D01*
X103250952Y-117165428D01*
X103203333Y-117117809D01*
X103108095Y-117070190D01*
X102917619Y-117022571D01*
X102822380Y-116974952D01*
X102774761Y-116927333D01*
X102727142Y-116832095D01*
X102727142Y-116736857D01*
X102774761Y-116641619D01*
X102822380Y-116594000D01*
X102917619Y-116546380D01*
X103155714Y-116546380D01*
X103298571Y-116594000D01*
X103727142Y-117546380D02*
X103727142Y-116546380D01*
X104108095Y-116546380D01*
X104203333Y-116594000D01*
X104250952Y-116641619D01*
X104298571Y-116736857D01*
X104298571Y-116879714D01*
X104250952Y-116974952D01*
X104203333Y-117022571D01*
X104108095Y-117070190D01*
X103727142Y-117070190D01*
X104727142Y-117165428D02*
X105489047Y-117165428D01*
X106489047Y-117546380D02*
X105917619Y-117546380D01*
X106203333Y-117546380D02*
X106203333Y-116546380D01*
X106108095Y-116689238D01*
X106012857Y-116784476D01*
X105917619Y-116832095D01*
X107108095Y-116546380D02*
X107203333Y-116546380D01*
X107298571Y-116594000D01*
X107346190Y-116641619D01*
X107393809Y-116736857D01*
X107441428Y-116927333D01*
X107441428Y-117165428D01*
X107393809Y-117355904D01*
X107346190Y-117451142D01*
X107298571Y-117498761D01*
X107203333Y-117546380D01*
X107108095Y-117546380D01*
X107012857Y-117498761D01*
X106965238Y-117451142D01*
X106917619Y-117355904D01*
X106870000Y-117165428D01*
X106870000Y-116927333D01*
X106917619Y-116736857D01*
X106965238Y-116641619D01*
X107012857Y-116594000D01*
X107108095Y-116546380D01*
X102536666Y-104862380D02*
X102536666Y-105576666D01*
X102489047Y-105719523D01*
X102393809Y-105814761D01*
X102250952Y-105862380D01*
X102155714Y-105862380D01*
X103536666Y-105862380D02*
X102965238Y-105862380D01*
X103250952Y-105862380D02*
X103250952Y-104862380D01*
X103155714Y-105005238D01*
X103060476Y-105100476D01*
X102965238Y-105148095D01*
X150534761Y-96802380D02*
X149963333Y-96802380D01*
X150249047Y-96802380D02*
X150249047Y-95802380D01*
X150153809Y-95945238D01*
X150058571Y-96040476D01*
X149963333Y-96088095D01*
X151153809Y-95802380D02*
X151249047Y-95802380D01*
X151344285Y-95850000D01*
X151391904Y-95897619D01*
X151439523Y-95992857D01*
X151487142Y-96183333D01*
X151487142Y-96421428D01*
X151439523Y-96611904D01*
X151391904Y-96707142D01*
X151344285Y-96754761D01*
X151249047Y-96802380D01*
X151153809Y-96802380D01*
X151058571Y-96754761D01*
X151010952Y-96707142D01*
X150963333Y-96611904D01*
X150915714Y-96421428D01*
X150915714Y-96183333D01*
X150963333Y-95992857D01*
X151010952Y-95897619D01*
X151058571Y-95850000D01*
X151153809Y-95802380D01*
X151915714Y-96802380D02*
X151915714Y-95802380D01*
X152010952Y-96421428D02*
X152296666Y-96802380D01*
X152296666Y-96135714D02*
X151915714Y-96516666D01*
X150963333Y-94432380D02*
X150630000Y-93956190D01*
X150391904Y-94432380D02*
X150391904Y-93432380D01*
X150772857Y-93432380D01*
X150868095Y-93480000D01*
X150915714Y-93527619D01*
X150963333Y-93622857D01*
X150963333Y-93765714D01*
X150915714Y-93860952D01*
X150868095Y-93908571D01*
X150772857Y-93956190D01*
X150391904Y-93956190D01*
X151915714Y-94432380D02*
X151344285Y-94432380D01*
X151630000Y-94432380D02*
X151630000Y-93432380D01*
X151534761Y-93575238D01*
X151439523Y-93670476D01*
X151344285Y-93718095D01*
X108540714Y-98551904D02*
X109207380Y-98551904D01*
X108159761Y-98790000D02*
X108874047Y-99028095D01*
X108874047Y-98409047D01*
X108207380Y-98123333D02*
X108207380Y-97456666D01*
X109207380Y-97885238D01*
X108207380Y-96885238D02*
X108207380Y-96790000D01*
X108255000Y-96694761D01*
X108302619Y-96647142D01*
X108397857Y-96599523D01*
X108588333Y-96551904D01*
X108826428Y-96551904D01*
X109016904Y-96599523D01*
X109112142Y-96647142D01*
X109159761Y-96694761D01*
X109207380Y-96790000D01*
X109207380Y-96885238D01*
X109159761Y-96980476D01*
X109112142Y-97028095D01*
X109016904Y-97075714D01*
X108826428Y-97123333D01*
X108588333Y-97123333D01*
X108397857Y-97075714D01*
X108302619Y-97028095D01*
X108255000Y-96980476D01*
X108207380Y-96885238D01*
X111577380Y-97956666D02*
X111101190Y-98290000D01*
X111577380Y-98528095D02*
X110577380Y-98528095D01*
X110577380Y-98147142D01*
X110625000Y-98051904D01*
X110672619Y-98004285D01*
X110767857Y-97956666D01*
X110910714Y-97956666D01*
X111005952Y-98004285D01*
X111053571Y-98051904D01*
X111101190Y-98147142D01*
X111101190Y-98528095D01*
X110672619Y-97575714D02*
X110625000Y-97528095D01*
X110577380Y-97432857D01*
X110577380Y-97194761D01*
X110625000Y-97099523D01*
X110672619Y-97051904D01*
X110767857Y-97004285D01*
X110863095Y-97004285D01*
X111005952Y-97051904D01*
X111577380Y-97623333D01*
X111577380Y-97004285D01*
D12*
X114100000Y-116051428D02*
X114100000Y-115765714D01*
X114271428Y-116108571D02*
X113671428Y-115908571D01*
X114271428Y-115708571D01*
X113671428Y-115594285D02*
X113671428Y-115251428D01*
X114271428Y-115422857D02*
X113671428Y-115422857D01*
X114271428Y-115051428D02*
X113871428Y-115051428D01*
X113928571Y-115051428D02*
X113900000Y-115022857D01*
X113871428Y-114965714D01*
X113871428Y-114880000D01*
X113900000Y-114822857D01*
X113957142Y-114794285D01*
X114271428Y-114794285D01*
X113957142Y-114794285D02*
X113900000Y-114765714D01*
X113871428Y-114708571D01*
X113871428Y-114622857D01*
X113900000Y-114565714D01*
X113957142Y-114537142D01*
X114271428Y-114537142D01*
X114242857Y-114022857D02*
X114271428Y-114080000D01*
X114271428Y-114194285D01*
X114242857Y-114251428D01*
X114185714Y-114280000D01*
X113957142Y-114280000D01*
X113900000Y-114251428D01*
X113871428Y-114194285D01*
X113871428Y-114080000D01*
X113900000Y-114022857D01*
X113957142Y-113994285D01*
X114014285Y-113994285D01*
X114071428Y-114280000D01*
X113871428Y-113480000D02*
X114357142Y-113480000D01*
X114414285Y-113508571D01*
X114442857Y-113537142D01*
X114471428Y-113594285D01*
X114471428Y-113680000D01*
X114442857Y-113737142D01*
X114242857Y-113480000D02*
X114271428Y-113537142D01*
X114271428Y-113651428D01*
X114242857Y-113708571D01*
X114214285Y-113737142D01*
X114157142Y-113765714D01*
X113985714Y-113765714D01*
X113928571Y-113737142D01*
X113900000Y-113708571D01*
X113871428Y-113651428D01*
X113871428Y-113537142D01*
X113900000Y-113480000D01*
X114271428Y-112937142D02*
X113957142Y-112937142D01*
X113900000Y-112965714D01*
X113871428Y-113022857D01*
X113871428Y-113137142D01*
X113900000Y-113194285D01*
X114242857Y-112937142D02*
X114271428Y-112994285D01*
X114271428Y-113137142D01*
X114242857Y-113194285D01*
X114185714Y-113222857D01*
X114128571Y-113222857D01*
X114071428Y-113194285D01*
X114042857Y-113137142D01*
X114042857Y-112994285D01*
X114014285Y-112937142D01*
X113871428Y-112394285D02*
X114271428Y-112394285D01*
X113642857Y-112537142D02*
X114071428Y-112680000D01*
X114071428Y-112308571D01*
X113928571Y-111994285D02*
X113900000Y-112051428D01*
X113871428Y-112080000D01*
X113814285Y-112108571D01*
X113785714Y-112108571D01*
X113728571Y-112080000D01*
X113700000Y-112051428D01*
X113671428Y-111994285D01*
X113671428Y-111880000D01*
X113700000Y-111822857D01*
X113728571Y-111794285D01*
X113785714Y-111765714D01*
X113814285Y-111765714D01*
X113871428Y-111794285D01*
X113900000Y-111822857D01*
X113928571Y-111880000D01*
X113928571Y-111994285D01*
X113957142Y-112051428D01*
X113985714Y-112080000D01*
X114042857Y-112108571D01*
X114157142Y-112108571D01*
X114214285Y-112080000D01*
X114242857Y-112051428D01*
X114271428Y-111994285D01*
X114271428Y-111880000D01*
X114242857Y-111822857D01*
X114214285Y-111794285D01*
X114157142Y-111765714D01*
X114042857Y-111765714D01*
X113985714Y-111794285D01*
X113957142Y-111822857D01*
X113928571Y-111880000D01*
X114100000Y-111537142D02*
X114100000Y-111251428D01*
X114271428Y-111594285D02*
X113671428Y-111394285D01*
X114271428Y-111194285D01*
X113642857Y-110565714D02*
X114414285Y-111080000D01*
X114271428Y-110365714D02*
X113671428Y-110365714D01*
X113671428Y-110137142D01*
X113700000Y-110080000D01*
X113728571Y-110051428D01*
X113785714Y-110022857D01*
X113871428Y-110022857D01*
X113928571Y-110051428D01*
X113957142Y-110080000D01*
X113985714Y-110137142D01*
X113985714Y-110365714D01*
X114100000Y-109794285D02*
X114100000Y-109508571D01*
X114271428Y-109851428D02*
X113671428Y-109651428D01*
X114271428Y-109451428D01*
X113642857Y-108822857D02*
X114414285Y-109337142D01*
X113928571Y-108537142D02*
X113900000Y-108594285D01*
X113871428Y-108622857D01*
X113814285Y-108651428D01*
X113785714Y-108651428D01*
X113728571Y-108622857D01*
X113700000Y-108594285D01*
X113671428Y-108537142D01*
X113671428Y-108422857D01*
X113700000Y-108365714D01*
X113728571Y-108337142D01*
X113785714Y-108308571D01*
X113814285Y-108308571D01*
X113871428Y-108337142D01*
X113900000Y-108365714D01*
X113928571Y-108422857D01*
X113928571Y-108537142D01*
X113957142Y-108594285D01*
X113985714Y-108622857D01*
X114042857Y-108651428D01*
X114157142Y-108651428D01*
X114214285Y-108622857D01*
X114242857Y-108594285D01*
X114271428Y-108537142D01*
X114271428Y-108422857D01*
X114242857Y-108365714D01*
X114214285Y-108337142D01*
X114157142Y-108308571D01*
X114042857Y-108308571D01*
X113985714Y-108337142D01*
X113957142Y-108365714D01*
X113928571Y-108422857D01*
X113928571Y-107965714D02*
X113900000Y-108022857D01*
X113871428Y-108051428D01*
X113814285Y-108080000D01*
X113785714Y-108080000D01*
X113728571Y-108051428D01*
X113700000Y-108022857D01*
X113671428Y-107965714D01*
X113671428Y-107851428D01*
X113700000Y-107794285D01*
X113728571Y-107765714D01*
X113785714Y-107737142D01*
X113814285Y-107737142D01*
X113871428Y-107765714D01*
X113900000Y-107794285D01*
X113928571Y-107851428D01*
X113928571Y-107965714D01*
X113957142Y-108022857D01*
X113985714Y-108051428D01*
X114042857Y-108080000D01*
X114157142Y-108080000D01*
X114214285Y-108051428D01*
X114242857Y-108022857D01*
X114271428Y-107965714D01*
X114271428Y-107851428D01*
X114242857Y-107794285D01*
X114214285Y-107765714D01*
X114157142Y-107737142D01*
X114042857Y-107737142D01*
X113985714Y-107765714D01*
X113957142Y-107794285D01*
X113928571Y-107851428D01*
X114100000Y-107508571D02*
X114100000Y-107222857D01*
X114271428Y-107565714D02*
X113671428Y-107365714D01*
X114271428Y-107165714D01*
X113642857Y-106537142D02*
X114414285Y-107051428D01*
X114271428Y-106337142D02*
X113671428Y-106337142D01*
X113671428Y-106108571D01*
X113700000Y-106051428D01*
X113728571Y-106022857D01*
X113785714Y-105994285D01*
X113871428Y-105994285D01*
X113928571Y-106022857D01*
X113957142Y-106051428D01*
X113985714Y-106108571D01*
X113985714Y-106337142D01*
X114100000Y-105765714D02*
X114100000Y-105480000D01*
X114271428Y-105822857D02*
X113671428Y-105622857D01*
X114271428Y-105422857D01*
X113642857Y-104794285D02*
X114414285Y-105308571D01*
X114271428Y-104280000D02*
X114271428Y-104622857D01*
X114271428Y-104451428D02*
X113671428Y-104451428D01*
X113757142Y-104508571D01*
X113814285Y-104565714D01*
X113842857Y-104622857D01*
X113671428Y-103765714D02*
X113671428Y-103880000D01*
X113700000Y-103937142D01*
X113728571Y-103965714D01*
X113814285Y-104022857D01*
X113928571Y-104051428D01*
X114157142Y-104051428D01*
X114214285Y-104022857D01*
X114242857Y-103994285D01*
X114271428Y-103937142D01*
X114271428Y-103822857D01*
X114242857Y-103765714D01*
X114214285Y-103737142D01*
X114157142Y-103708571D01*
X114014285Y-103708571D01*
X113957142Y-103737142D01*
X113928571Y-103765714D01*
X113900000Y-103822857D01*
X113900000Y-103937142D01*
X113928571Y-103994285D01*
X113957142Y-104022857D01*
X114014285Y-104051428D01*
X113928571Y-103365714D02*
X113900000Y-103422857D01*
X113871428Y-103451428D01*
X113814285Y-103480000D01*
X113785714Y-103480000D01*
X113728571Y-103451428D01*
X113700000Y-103422857D01*
X113671428Y-103365714D01*
X113671428Y-103251428D01*
X113700000Y-103194285D01*
X113728571Y-103165714D01*
X113785714Y-103137142D01*
X113814285Y-103137142D01*
X113871428Y-103165714D01*
X113900000Y-103194285D01*
X113928571Y-103251428D01*
X113928571Y-103365714D01*
X113957142Y-103422857D01*
X113985714Y-103451428D01*
X114042857Y-103480000D01*
X114157142Y-103480000D01*
X114214285Y-103451428D01*
X114242857Y-103422857D01*
X114271428Y-103365714D01*
X114271428Y-103251428D01*
X114242857Y-103194285D01*
X114214285Y-103165714D01*
X114157142Y-103137142D01*
X114042857Y-103137142D01*
X113985714Y-103165714D01*
X113957142Y-103194285D01*
X113928571Y-103251428D01*
X114100000Y-102908571D02*
X114100000Y-102622857D01*
X114271428Y-102965714D02*
X113671428Y-102765714D01*
X114271428Y-102565714D01*
X113642857Y-101937142D02*
X114414285Y-102451428D01*
X114271428Y-101737142D02*
X113671428Y-101737142D01*
X113671428Y-101508571D01*
X113700000Y-101451428D01*
X113728571Y-101422857D01*
X113785714Y-101394285D01*
X113871428Y-101394285D01*
X113928571Y-101422857D01*
X113957142Y-101451428D01*
X113985714Y-101508571D01*
X113985714Y-101737142D01*
X114100000Y-101165714D02*
X114100000Y-100880000D01*
X114271428Y-101222857D02*
X113671428Y-101022857D01*
X114271428Y-100822857D01*
X113642857Y-100194285D02*
X114414285Y-100708571D01*
X113671428Y-100051428D02*
X113671428Y-99680000D01*
X113900000Y-99880000D01*
X113900000Y-99794285D01*
X113928571Y-99737142D01*
X113957142Y-99708571D01*
X114014285Y-99680000D01*
X114157142Y-99680000D01*
X114214285Y-99708571D01*
X114242857Y-99737142D01*
X114271428Y-99794285D01*
X114271428Y-99965714D01*
X114242857Y-100022857D01*
X114214285Y-100051428D01*
X113728571Y-99451428D02*
X113700000Y-99422857D01*
X113671428Y-99365714D01*
X113671428Y-99222857D01*
X113700000Y-99165714D01*
X113728571Y-99137142D01*
X113785714Y-99108571D01*
X113842857Y-99108571D01*
X113928571Y-99137142D01*
X114271428Y-99480000D01*
X114271428Y-99108571D01*
X113928571Y-98765714D02*
X113900000Y-98822857D01*
X113871428Y-98851428D01*
X113814285Y-98880000D01*
X113785714Y-98880000D01*
X113728571Y-98851428D01*
X113700000Y-98822857D01*
X113671428Y-98765714D01*
X113671428Y-98651428D01*
X113700000Y-98594285D01*
X113728571Y-98565714D01*
X113785714Y-98537142D01*
X113814285Y-98537142D01*
X113871428Y-98565714D01*
X113900000Y-98594285D01*
X113928571Y-98651428D01*
X113928571Y-98765714D01*
X113957142Y-98822857D01*
X113985714Y-98851428D01*
X114042857Y-98880000D01*
X114157142Y-98880000D01*
X114214285Y-98851428D01*
X114242857Y-98822857D01*
X114271428Y-98765714D01*
X114271428Y-98651428D01*
X114242857Y-98594285D01*
X114214285Y-98565714D01*
X114157142Y-98537142D01*
X114042857Y-98537142D01*
X113985714Y-98565714D01*
X113957142Y-98594285D01*
X113928571Y-98651428D01*
X113642857Y-97851428D02*
X114414285Y-98365714D01*
X114271428Y-97651428D02*
X113671428Y-97651428D01*
X113671428Y-97422857D01*
X113700000Y-97365714D01*
X113728571Y-97337142D01*
X113785714Y-97308571D01*
X113871428Y-97308571D01*
X113928571Y-97337142D01*
X113957142Y-97365714D01*
X113985714Y-97422857D01*
X113985714Y-97651428D01*
D11*
X139702380Y-107441904D02*
X140511904Y-107441904D01*
X140607142Y-107394285D01*
X140654761Y-107346666D01*
X140702380Y-107251428D01*
X140702380Y-107060952D01*
X140654761Y-106965714D01*
X140607142Y-106918095D01*
X140511904Y-106870476D01*
X139702380Y-106870476D01*
X140702380Y-105870476D02*
X140702380Y-106441904D01*
X140702380Y-106156190D02*
X139702380Y-106156190D01*
X139845238Y-106251428D01*
X139940476Y-106346666D01*
X139988095Y-106441904D01*
M02*
