%TF.GenerationSoftware,KiCad,Pcbnew,5.1.6-c6e7f7d~86~ubuntu18.04.1*%
%TF.CreationDate,2020-05-25T18:44:13+02:00*%
%TF.ProjectId,atmega_prog_adapter_v3,61746d65-6761-45f7-9072-6f675f616461,1.0*%
%TF.SameCoordinates,PX59a0560PY76b1be0*%
%TF.FileFunction,Other,User*%
%FSLAX46Y46*%
G04 Gerber Fmt 4.6, Leading zero omitted, Abs format (unit mm)*
G04 Created by KiCad (PCBNEW 5.1.6-c6e7f7d~86~ubuntu18.04.1) date 2020-05-25 18:44:13*
%MOMM*%
%LPD*%
G01*
G04 APERTURE LIST*
%ADD10C,0.050000*%
G04 APERTURE END LIST*
D10*
%TO.C,J2*%
X30484000Y27918000D02*
X30484000Y39878000D01*
X30484000Y39878000D02*
X46194000Y39878000D01*
X46194000Y39878000D02*
X46194000Y27918000D01*
X46194000Y27918000D02*
X30484000Y27918000D01*
%TO.C,C1*%
X41680000Y6580000D02*
X41680000Y3580000D01*
X41680000Y3580000D02*
X47180000Y3580000D01*
X47180000Y3580000D02*
X47180000Y6580000D01*
X47180000Y6580000D02*
X41680000Y6580000D01*
%TO.C,D1*%
X19395000Y38615000D02*
X14895000Y38615000D01*
X14895000Y38615000D02*
X14895000Y33765000D01*
X14895000Y33765000D02*
X19395000Y33765000D01*
X19395000Y33765000D02*
X19395000Y38615000D01*
%TO.C,J1*%
X13570000Y29480000D02*
X13570000Y8620000D01*
X13570000Y8620000D02*
X4210000Y8620000D01*
X4210000Y8620000D02*
X4210000Y29480000D01*
X4210000Y29480000D02*
X13570000Y29480000D01*
%TO.C,R1*%
X52290000Y31980000D02*
X52290000Y28980000D01*
X52290000Y28980000D02*
X62010000Y28980000D01*
X62010000Y28980000D02*
X62010000Y31980000D01*
X62010000Y31980000D02*
X52290000Y31980000D01*
%TO.C,R2*%
X18645000Y31530000D02*
X15645000Y31530000D01*
X15645000Y31530000D02*
X15645000Y21810000D01*
X15645000Y21810000D02*
X18645000Y21810000D01*
X18645000Y21810000D02*
X18645000Y31530000D01*
%TO.C,U1*%
X84320000Y28360000D02*
X84320000Y22760000D01*
X84320000Y22760000D02*
X72020000Y22760000D01*
X72020000Y22760000D02*
X72020000Y8380000D01*
X72020000Y8380000D02*
X20520000Y8380000D01*
X20520000Y8380000D02*
X20520000Y27180000D01*
X20520000Y27180000D02*
X64360000Y27180000D01*
X64360000Y27180000D02*
X64360000Y28360000D01*
X64360000Y28360000D02*
X84320000Y28360000D01*
%TD*%
M02*
