G04 #@! TF.GenerationSoftware,KiCad,Pcbnew,5.1.4-3.fc30*
G04 #@! TF.CreationDate,2019-09-27T12:27:46+02:00*
G04 #@! TF.ProjectId,atmega_prog_adapter_v3,61746d65-6761-45f7-9072-6f675f616461,1.0*
G04 #@! TF.SameCoordinates,Original*
G04 #@! TF.FileFunction,Copper,L2,Bot*
G04 #@! TF.FilePolarity,Positive*
%FSLAX46Y46*%
G04 Gerber Fmt 4.6, Leading zero omitted, Abs format (unit mm)*
G04 Created by KiCad (PCBNEW 5.1.4-3.fc30) date 2019-09-27 12:27:46*
%MOMM*%
%LPD*%
G04 APERTURE LIST*
%ADD10O,1.700000X1.700000*%
%ADD11R,1.700000X1.700000*%
%ADD12C,1.600000*%
%ADD13C,1.800000*%
%ADD14R,1.800000X1.800000*%
%ADD15O,1.727200X1.727200*%
%ADD16R,1.727200X1.727200*%
%ADD17O,1.600000X1.600000*%
%ADD18O,1.440000X2.000000*%
%ADD19R,1.440000X2.000000*%
%ADD20C,0.500000*%
G04 APERTURE END LIST*
D10*
X134874000Y-92202000D03*
X132334000Y-92202000D03*
D11*
X129794000Y-92202000D03*
D12*
X139660000Y-119380000D03*
X137160000Y-119380000D03*
D13*
X111125000Y-89535000D03*
D14*
X111125000Y-86995000D03*
D15*
X104140000Y-110490000D03*
X101600000Y-110490000D03*
X104140000Y-107950000D03*
X101600000Y-107950000D03*
X104140000Y-105410000D03*
X101600000Y-105410000D03*
X104140000Y-102870000D03*
X101600000Y-102870000D03*
X104140000Y-100330000D03*
D16*
X101600000Y-100330000D03*
D17*
X154940000Y-93980000D03*
D12*
X147320000Y-93980000D03*
D17*
X111125000Y-101600000D03*
D12*
X111125000Y-93980000D03*
D18*
X121920000Y-111760000D03*
X121920000Y-101600000D03*
X124460000Y-111760000D03*
X124460000Y-101600000D03*
X127000000Y-111760000D03*
X127000000Y-101600000D03*
X129540000Y-111760000D03*
X129540000Y-101600000D03*
X132080000Y-111760000D03*
X132080000Y-101600000D03*
X134620000Y-111760000D03*
X134620000Y-101600000D03*
X137160000Y-111760000D03*
X137160000Y-101600000D03*
X139700000Y-111760000D03*
X139700000Y-101600000D03*
X142240000Y-111760000D03*
X142240000Y-101600000D03*
X144780000Y-111760000D03*
X144780000Y-101600000D03*
X147320000Y-111760000D03*
X147320000Y-101600000D03*
X149860000Y-111760000D03*
X149860000Y-101600000D03*
X152400000Y-111760000D03*
X152400000Y-101600000D03*
X154940000Y-111760000D03*
D19*
X154940000Y-101600000D03*
D20*
X137160000Y-111760000D02*
X138380000Y-111760000D01*
X138380000Y-111760000D02*
X138380000Y-110540000D01*
X138380000Y-110540000D02*
X139882500Y-109037500D01*
X139882500Y-109037500D02*
X139882500Y-101600000D01*
X139700000Y-101600000D02*
X139882500Y-101600000D01*
X139882500Y-101600000D02*
X139882500Y-101417500D01*
X139882500Y-101417500D02*
X147320000Y-93980000D01*
X137160000Y-111760000D02*
X137160000Y-119380000D01*
X132334000Y-93552000D02*
X137160000Y-98378000D01*
X137160000Y-98378000D02*
X137160000Y-101600000D01*
X132334000Y-92202000D02*
X132334000Y-93552000D01*
X104140000Y-107950000D02*
X104140000Y-110490000D01*
X104140000Y-105410000D02*
X104140000Y-107950000D01*
X139700000Y-111760000D02*
X139700000Y-119340000D01*
X139700000Y-119340000D02*
X139660000Y-119380000D01*
X104140000Y-102870000D02*
X104140000Y-105410000D01*
X111125000Y-93980000D02*
X111125000Y-89535000D01*
X127000000Y-111760000D02*
X125780000Y-111760000D01*
X125780000Y-111760000D02*
X125780000Y-111073800D01*
X125780000Y-111073800D02*
X113714200Y-99008000D01*
X113714200Y-99008000D02*
X102922000Y-99008000D01*
X102922000Y-99008000D02*
X101600000Y-100330000D01*
X129540000Y-111760000D02*
X128320000Y-111760000D01*
X128320000Y-111760000D02*
X128320000Y-112446200D01*
X128320000Y-112446200D02*
X127538200Y-113228000D01*
X127538200Y-113228000D02*
X104338000Y-113228000D01*
X104338000Y-113228000D02*
X101600000Y-110490000D01*
X129794000Y-92202000D02*
X129794000Y-93552000D01*
X134620000Y-101600000D02*
X134620000Y-98378000D01*
X134620000Y-98378000D02*
X129794000Y-93552000D01*
X134874000Y-92202000D02*
X134874000Y-93552000D01*
X132080000Y-101600000D02*
X133300000Y-101600000D01*
X133300000Y-101600000D02*
X133300000Y-102286300D01*
X133300000Y-102286300D02*
X134066200Y-103052500D01*
X134066200Y-103052500D02*
X137661600Y-103052500D01*
X137661600Y-103052500D02*
X138330700Y-102383400D01*
X138330700Y-102383400D02*
X138330700Y-97008700D01*
X138330700Y-97008700D02*
X134874000Y-93552000D01*
M02*
