%TF.GenerationSoftware,KiCad,Pcbnew,5.1.6-c6e7f7d~86~ubuntu18.04.1*%
%TF.CreationDate,2020-05-25T18:44:13+02:00*%
%TF.ProjectId,atmega_prog_adapter_v3,61746d65-6761-45f7-9072-6f675f616461,1.0*%
%TF.SameCoordinates,PX59a0560PY76b1be0*%
%TF.FileFunction,Copper,L1,Top*%
%TF.FilePolarity,Positive*%
%FSLAX46Y46*%
G04 Gerber Fmt 4.6, Leading zero omitted, Abs format (unit mm)*
G04 Created by KiCad (PCBNEW 5.1.6-c6e7f7d~86~ubuntu18.04.1) date 2020-05-25 18:44:13*
%MOMM*%
%LPD*%
G01*
G04 APERTURE LIST*
%TA.AperFunction,ComponentPad*%
%ADD10O,1.700000X1.700000*%
%TD*%
%TA.AperFunction,ComponentPad*%
%ADD11R,1.700000X1.700000*%
%TD*%
%TA.AperFunction,ComponentPad*%
%ADD12C,1.600000*%
%TD*%
%TA.AperFunction,ComponentPad*%
%ADD13C,1.800000*%
%TD*%
%TA.AperFunction,ComponentPad*%
%ADD14R,1.800000X1.800000*%
%TD*%
%TA.AperFunction,ComponentPad*%
%ADD15O,1.727200X1.727200*%
%TD*%
%TA.AperFunction,ComponentPad*%
%ADD16R,1.727200X1.727200*%
%TD*%
%TA.AperFunction,ComponentPad*%
%ADD17O,1.600000X1.600000*%
%TD*%
%TA.AperFunction,ComponentPad*%
%ADD18O,1.440000X2.000000*%
%TD*%
%TA.AperFunction,ComponentPad*%
%ADD19R,1.440000X2.000000*%
%TD*%
%TA.AperFunction,Conductor*%
%ADD20C,0.500000*%
%TD*%
%TA.AperFunction,Conductor*%
%ADD21C,0.254000*%
%TD*%
G04 APERTURE END LIST*
D10*
%TO.P,J2,3*%
%TO.N,/XTAL2*%
X40894000Y32258000D03*
%TO.P,J2,2*%
%TO.N,GND*%
X38354000Y32258000D03*
D11*
%TO.P,J2,1*%
%TO.N,/XTAL1*%
X35814000Y32258000D03*
%TD*%
D12*
%TO.P,C1,2*%
%TO.N,GND*%
X45680000Y5080000D03*
%TO.P,C1,1*%
%TO.N,Net-(C1-Pad1)*%
X43180000Y5080000D03*
%TD*%
D13*
%TO.P,D1,2*%
%TO.N,Net-(D1-Pad2)*%
X17145000Y34925000D03*
D14*
%TO.P,D1,1*%
%TO.N,GND*%
X17145000Y37465000D03*
%TD*%
D15*
%TO.P,J1,10*%
%TO.N,GND*%
X10160000Y13970000D03*
%TO.P,J1,9*%
%TO.N,/MISO*%
X7620000Y13970000D03*
%TO.P,J1,8*%
%TO.N,GND*%
X10160000Y16510000D03*
%TO.P,J1,7*%
%TO.N,/SCK*%
X7620000Y16510000D03*
%TO.P,J1,6*%
%TO.N,GND*%
X10160000Y19050000D03*
%TO.P,J1,5*%
%TO.N,/RESET*%
X7620000Y19050000D03*
%TO.P,J1,4*%
%TO.N,GND*%
X10160000Y21590000D03*
%TO.P,J1,3*%
%TO.N,Net-(J1-Pad3)*%
X7620000Y21590000D03*
%TO.P,J1,2*%
%TO.N,Net-(C1-Pad1)*%
X10160000Y24130000D03*
D16*
%TO.P,J1,1*%
%TO.N,/MOSI*%
X7620000Y24130000D03*
%TD*%
D17*
%TO.P,R1,2*%
%TO.N,/RESET*%
X60960000Y30480000D03*
D12*
%TO.P,R1,1*%
%TO.N,Net-(C1-Pad1)*%
X53340000Y30480000D03*
%TD*%
D17*
%TO.P,R2,2*%
%TO.N,Net-(R2-Pad2)*%
X17145000Y22860000D03*
D12*
%TO.P,R2,1*%
%TO.N,Net-(D1-Pad2)*%
X17145000Y30480000D03*
%TD*%
D18*
%TO.P,U1,15*%
%TO.N,Net-(U1-Pad15)*%
X27940000Y12700000D03*
%TO.P,U1,14*%
%TO.N,Net-(R2-Pad2)*%
X27940000Y22860000D03*
%TO.P,U1,16*%
%TO.N,Net-(U1-Pad16)*%
X30480000Y12700000D03*
%TO.P,U1,13*%
%TO.N,Net-(U1-Pad13)*%
X30480000Y22860000D03*
%TO.P,U1,17*%
%TO.N,/MOSI*%
X33020000Y12700000D03*
%TO.P,U1,12*%
%TO.N,Net-(U1-Pad12)*%
X33020000Y22860000D03*
%TO.P,U1,18*%
%TO.N,/MISO*%
X35560000Y12700000D03*
%TO.P,U1,11*%
%TO.N,Net-(U1-Pad11)*%
X35560000Y22860000D03*
%TO.P,U1,19*%
%TO.N,/SCK*%
X38100000Y12700000D03*
%TO.P,U1,10*%
%TO.N,/XTAL2*%
X38100000Y22860000D03*
%TO.P,U1,20*%
%TO.N,Net-(C1-Pad1)*%
X40640000Y12700000D03*
%TO.P,U1,9*%
%TO.N,/XTAL1*%
X40640000Y22860000D03*
%TO.P,U1,21*%
%TO.N,Net-(C1-Pad1)*%
X43180000Y12700000D03*
%TO.P,U1,8*%
%TO.N,GND*%
X43180000Y22860000D03*
%TO.P,U1,22*%
X45720000Y12700000D03*
%TO.P,U1,7*%
%TO.N,Net-(C1-Pad1)*%
X45720000Y22860000D03*
%TO.P,U1,23*%
%TO.N,Net-(U1-Pad23)*%
X48260000Y12700000D03*
%TO.P,U1,6*%
%TO.N,Net-(U1-Pad6)*%
X48260000Y22860000D03*
%TO.P,U1,24*%
%TO.N,Net-(U1-Pad24)*%
X50800000Y12700000D03*
%TO.P,U1,5*%
%TO.N,Net-(U1-Pad5)*%
X50800000Y22860000D03*
%TO.P,U1,25*%
%TO.N,Net-(U1-Pad25)*%
X53340000Y12700000D03*
%TO.P,U1,4*%
%TO.N,Net-(U1-Pad4)*%
X53340000Y22860000D03*
%TO.P,U1,26*%
%TO.N,Net-(U1-Pad26)*%
X55880000Y12700000D03*
%TO.P,U1,3*%
%TO.N,Net-(U1-Pad3)*%
X55880000Y22860000D03*
%TO.P,U1,27*%
%TO.N,Net-(U1-Pad27)*%
X58420000Y12700000D03*
%TO.P,U1,2*%
%TO.N,Net-(U1-Pad2)*%
X58420000Y22860000D03*
%TO.P,U1,28*%
%TO.N,Net-(U1-Pad28)*%
X60960000Y12700000D03*
D19*
%TO.P,U1,1*%
%TO.N,/RESET*%
X60960000Y22860000D03*
%TD*%
D20*
%TO.N,Net-(C1-Pad1)*%
X10160000Y24130000D02*
X11523600Y24130000D01*
X45720000Y22860000D02*
X44500000Y22860000D01*
X44500000Y22860000D02*
X44500000Y23546200D01*
X44500000Y23546200D02*
X43708600Y24337600D01*
X43708600Y24337600D02*
X11731200Y24337600D01*
X11731200Y24337600D02*
X11523600Y24130000D01*
X43180000Y12700000D02*
X40640000Y12700000D01*
%TO.N,GND*%
X43180000Y22860000D02*
X43180000Y21360000D01*
X43127500Y21357300D02*
X11756300Y21357300D01*
X11756300Y21357300D02*
X11523600Y21590000D01*
X43180000Y21360000D02*
X43130200Y21360000D01*
X43130200Y21360000D02*
X43127500Y21357300D01*
X45720000Y12700000D02*
X45720000Y18764800D01*
X45720000Y18764800D02*
X43127500Y21357300D01*
X10160000Y21590000D02*
X11523600Y21590000D01*
X17145000Y37465000D02*
X33147000Y37465000D01*
X33147000Y37465000D02*
X38354000Y32258000D01*
%TO.N,/RESET*%
X57824300Y25461900D02*
X6545600Y25461900D01*
X6545600Y25461900D02*
X6290100Y25206400D01*
X6290100Y25206400D02*
X6290100Y20379900D01*
X6290100Y20379900D02*
X7620000Y19050000D01*
X59740000Y22860000D02*
X59740000Y23546200D01*
X59740000Y23546200D02*
X57824300Y25461900D01*
X57824300Y25461900D02*
X60960000Y28597600D01*
X60960000Y28597600D02*
X60960000Y30480000D01*
X60960000Y22860000D02*
X59740000Y22860000D01*
%TO.N,/SCK*%
X38100000Y12700000D02*
X36880000Y12700000D01*
X36880000Y12700000D02*
X36880000Y13386200D01*
X36880000Y13386200D02*
X36095500Y14170700D01*
X36095500Y14170700D02*
X12922900Y14170700D01*
X12922900Y14170700D02*
X11378800Y12626600D01*
X11378800Y12626600D02*
X7038000Y12626600D01*
X7038000Y12626600D02*
X6274000Y13390600D01*
X6274000Y13390600D02*
X6274000Y15164000D01*
X6274000Y15164000D02*
X7620000Y16510000D01*
%TO.N,Net-(R2-Pad2)*%
X27940000Y22860000D02*
X17145000Y22860000D01*
%TD*%
D21*
%TO.N,GND*%
G36*
X83160001Y660000D02*
G01*
X660000Y660000D01*
X660000Y5221335D01*
X41745000Y5221335D01*
X41745000Y4938665D01*
X41800147Y4661426D01*
X41908320Y4400273D01*
X42065363Y4165241D01*
X42265241Y3965363D01*
X42500273Y3808320D01*
X42761426Y3700147D01*
X43038665Y3645000D01*
X43321335Y3645000D01*
X43598574Y3700147D01*
X43859727Y3808320D01*
X44094759Y3965363D01*
X44216694Y4087298D01*
X44866903Y4087298D01*
X44938486Y3843329D01*
X45193996Y3722429D01*
X45468184Y3653700D01*
X45750512Y3639783D01*
X46030130Y3681213D01*
X46296292Y3776397D01*
X46421514Y3843329D01*
X46493097Y4087298D01*
X45680000Y4900395D01*
X44866903Y4087298D01*
X44216694Y4087298D01*
X44294637Y4165241D01*
X44428692Y4365869D01*
X44443329Y4338486D01*
X44687298Y4266903D01*
X45500395Y5080000D01*
X45859605Y5080000D01*
X46672702Y4266903D01*
X46916671Y4338486D01*
X47037571Y4593996D01*
X47106300Y4868184D01*
X47120217Y5150512D01*
X47078787Y5430130D01*
X46983603Y5696292D01*
X46916671Y5821514D01*
X46672702Y5893097D01*
X45859605Y5080000D01*
X45500395Y5080000D01*
X44687298Y5893097D01*
X44443329Y5821514D01*
X44429676Y5792659D01*
X44294637Y5994759D01*
X44216694Y6072702D01*
X44866903Y6072702D01*
X45680000Y5259605D01*
X46493097Y6072702D01*
X46421514Y6316671D01*
X46166004Y6437571D01*
X45891816Y6506300D01*
X45609488Y6520217D01*
X45329870Y6478787D01*
X45063708Y6383603D01*
X44938486Y6316671D01*
X44866903Y6072702D01*
X44216694Y6072702D01*
X44094759Y6194637D01*
X43859727Y6351680D01*
X43598574Y6459853D01*
X43321335Y6515000D01*
X43038665Y6515000D01*
X42761426Y6459853D01*
X42500273Y6351680D01*
X42265241Y6194637D01*
X42065363Y5994759D01*
X41908320Y5759727D01*
X41800147Y5498574D01*
X41745000Y5221335D01*
X660000Y5221335D01*
X660000Y15164000D01*
X5384719Y15164000D01*
X5389001Y15120521D01*
X5389000Y13434069D01*
X5384719Y13390600D01*
X5389000Y13347131D01*
X5389000Y13347124D01*
X5401805Y13217111D01*
X5452411Y13050288D01*
X5534589Y12896542D01*
X5645183Y12761783D01*
X5678956Y12734066D01*
X6381470Y12031551D01*
X6409183Y11997783D01*
X6442951Y11970070D01*
X6442953Y11970068D01*
X6514452Y11911390D01*
X6543941Y11887189D01*
X6697687Y11805011D01*
X6864510Y11754405D01*
X6994523Y11741600D01*
X6994533Y11741600D01*
X7037999Y11737319D01*
X7081465Y11741600D01*
X11335331Y11741600D01*
X11378800Y11737319D01*
X11422269Y11741600D01*
X11422277Y11741600D01*
X11552290Y11754405D01*
X11719113Y11805011D01*
X11872859Y11887189D01*
X12007617Y11997783D01*
X12035334Y12031556D01*
X13289479Y13285700D01*
X26616762Y13285700D01*
X26604606Y13245626D01*
X26585000Y13046564D01*
X26585000Y12353437D01*
X26604606Y12154375D01*
X26682086Y11898956D01*
X26807908Y11663561D01*
X26977235Y11457236D01*
X27183560Y11287908D01*
X27418955Y11162086D01*
X27674374Y11084606D01*
X27940000Y11058444D01*
X28205625Y11084606D01*
X28461044Y11162086D01*
X28696439Y11287908D01*
X28902764Y11457235D01*
X29072092Y11663560D01*
X29197914Y11898955D01*
X29210000Y11938798D01*
X29222086Y11898956D01*
X29347908Y11663561D01*
X29517235Y11457236D01*
X29723560Y11287908D01*
X29958955Y11162086D01*
X30214374Y11084606D01*
X30480000Y11058444D01*
X30745625Y11084606D01*
X31001044Y11162086D01*
X31236439Y11287908D01*
X31442764Y11457235D01*
X31612092Y11663560D01*
X31737914Y11898955D01*
X31750000Y11938798D01*
X31762086Y11898956D01*
X31887908Y11663561D01*
X32057235Y11457236D01*
X32263560Y11287908D01*
X32498955Y11162086D01*
X32754374Y11084606D01*
X33020000Y11058444D01*
X33285625Y11084606D01*
X33541044Y11162086D01*
X33776439Y11287908D01*
X33982764Y11457235D01*
X34152092Y11663560D01*
X34277914Y11898955D01*
X34290000Y11938798D01*
X34302086Y11898956D01*
X34427908Y11663561D01*
X34597235Y11457236D01*
X34803560Y11287908D01*
X35038955Y11162086D01*
X35294374Y11084606D01*
X35560000Y11058444D01*
X35825625Y11084606D01*
X36081044Y11162086D01*
X36316439Y11287908D01*
X36522764Y11457235D01*
X36692092Y11663560D01*
X36776214Y11820940D01*
X36880000Y11810718D01*
X36888788Y11811584D01*
X36967908Y11663561D01*
X37137235Y11457236D01*
X37343560Y11287908D01*
X37578955Y11162086D01*
X37834374Y11084606D01*
X38100000Y11058444D01*
X38365625Y11084606D01*
X38621044Y11162086D01*
X38856439Y11287908D01*
X39062764Y11457235D01*
X39232092Y11663560D01*
X39357914Y11898955D01*
X39370000Y11938798D01*
X39382086Y11898956D01*
X39507908Y11663561D01*
X39677235Y11457236D01*
X39883560Y11287908D01*
X40118955Y11162086D01*
X40374374Y11084606D01*
X40640000Y11058444D01*
X40905625Y11084606D01*
X41161044Y11162086D01*
X41396439Y11287908D01*
X41602764Y11457235D01*
X41772092Y11663560D01*
X41853039Y11815000D01*
X41966962Y11815000D01*
X42047908Y11663561D01*
X42217235Y11457236D01*
X42423560Y11287908D01*
X42658955Y11162086D01*
X42914374Y11084606D01*
X43180000Y11058444D01*
X43445625Y11084606D01*
X43701044Y11162086D01*
X43936439Y11287908D01*
X44142764Y11457235D01*
X44312092Y11663560D01*
X44437914Y11898955D01*
X44451505Y11943759D01*
X44516744Y11784131D01*
X44663916Y11561605D01*
X44851673Y11372067D01*
X45072799Y11222801D01*
X45318797Y11119542D01*
X45383528Y11107441D01*
X45593000Y11230511D01*
X45593000Y12573000D01*
X45573000Y12573000D01*
X45573000Y12827000D01*
X45593000Y12827000D01*
X45593000Y14169489D01*
X45847000Y14169489D01*
X45847000Y12827000D01*
X45867000Y12827000D01*
X45867000Y12573000D01*
X45847000Y12573000D01*
X45847000Y11230511D01*
X46056472Y11107441D01*
X46121203Y11119542D01*
X46367201Y11222801D01*
X46588327Y11372067D01*
X46776084Y11561605D01*
X46923256Y11784131D01*
X46988495Y11943759D01*
X47002086Y11898956D01*
X47127908Y11663561D01*
X47297235Y11457236D01*
X47503560Y11287908D01*
X47738955Y11162086D01*
X47994374Y11084606D01*
X48260000Y11058444D01*
X48525625Y11084606D01*
X48781044Y11162086D01*
X49016439Y11287908D01*
X49222764Y11457235D01*
X49392092Y11663560D01*
X49517914Y11898955D01*
X49530000Y11938798D01*
X49542086Y11898956D01*
X49667908Y11663561D01*
X49837235Y11457236D01*
X50043560Y11287908D01*
X50278955Y11162086D01*
X50534374Y11084606D01*
X50800000Y11058444D01*
X51065625Y11084606D01*
X51321044Y11162086D01*
X51556439Y11287908D01*
X51762764Y11457235D01*
X51932092Y11663560D01*
X52057914Y11898955D01*
X52070000Y11938798D01*
X52082086Y11898956D01*
X52207908Y11663561D01*
X52377235Y11457236D01*
X52583560Y11287908D01*
X52818955Y11162086D01*
X53074374Y11084606D01*
X53340000Y11058444D01*
X53605625Y11084606D01*
X53861044Y11162086D01*
X54096439Y11287908D01*
X54302764Y11457235D01*
X54472092Y11663560D01*
X54597914Y11898955D01*
X54610000Y11938798D01*
X54622086Y11898956D01*
X54747908Y11663561D01*
X54917235Y11457236D01*
X55123560Y11287908D01*
X55358955Y11162086D01*
X55614374Y11084606D01*
X55880000Y11058444D01*
X56145625Y11084606D01*
X56401044Y11162086D01*
X56636439Y11287908D01*
X56842764Y11457235D01*
X57012092Y11663560D01*
X57137914Y11898955D01*
X57150000Y11938798D01*
X57162086Y11898956D01*
X57287908Y11663561D01*
X57457235Y11457236D01*
X57663560Y11287908D01*
X57898955Y11162086D01*
X58154374Y11084606D01*
X58420000Y11058444D01*
X58685625Y11084606D01*
X58941044Y11162086D01*
X59176439Y11287908D01*
X59382764Y11457235D01*
X59552092Y11663560D01*
X59677914Y11898955D01*
X59690000Y11938798D01*
X59702086Y11898956D01*
X59827908Y11663561D01*
X59997235Y11457236D01*
X60203560Y11287908D01*
X60438955Y11162086D01*
X60694374Y11084606D01*
X60960000Y11058444D01*
X61225625Y11084606D01*
X61481044Y11162086D01*
X61716439Y11287908D01*
X61922764Y11457235D01*
X62092092Y11663560D01*
X62217914Y11898955D01*
X62295394Y12154374D01*
X62315000Y12353436D01*
X62315000Y13046563D01*
X62295394Y13245625D01*
X62217914Y13501045D01*
X62092092Y13736440D01*
X61922765Y13942765D01*
X61716440Y14112092D01*
X61481045Y14237914D01*
X61225626Y14315394D01*
X60960000Y14341556D01*
X60694375Y14315394D01*
X60438956Y14237914D01*
X60203561Y14112092D01*
X59997236Y13942765D01*
X59827908Y13736440D01*
X59702086Y13501045D01*
X59690000Y13461202D01*
X59677914Y13501045D01*
X59552092Y13736440D01*
X59382765Y13942765D01*
X59176440Y14112092D01*
X58941045Y14237914D01*
X58685626Y14315394D01*
X58420000Y14341556D01*
X58154375Y14315394D01*
X57898956Y14237914D01*
X57663561Y14112092D01*
X57457236Y13942765D01*
X57287908Y13736440D01*
X57162086Y13501045D01*
X57150000Y13461202D01*
X57137914Y13501045D01*
X57012092Y13736440D01*
X56842765Y13942765D01*
X56636440Y14112092D01*
X56401045Y14237914D01*
X56145626Y14315394D01*
X55880000Y14341556D01*
X55614375Y14315394D01*
X55358956Y14237914D01*
X55123561Y14112092D01*
X54917236Y13942765D01*
X54747908Y13736440D01*
X54622086Y13501045D01*
X54610000Y13461202D01*
X54597914Y13501045D01*
X54472092Y13736440D01*
X54302765Y13942765D01*
X54096440Y14112092D01*
X53861045Y14237914D01*
X53605626Y14315394D01*
X53340000Y14341556D01*
X53074375Y14315394D01*
X52818956Y14237914D01*
X52583561Y14112092D01*
X52377236Y13942765D01*
X52207908Y13736440D01*
X52082086Y13501045D01*
X52070000Y13461202D01*
X52057914Y13501045D01*
X51932092Y13736440D01*
X51762765Y13942765D01*
X51556440Y14112092D01*
X51321045Y14237914D01*
X51065626Y14315394D01*
X50800000Y14341556D01*
X50534375Y14315394D01*
X50278956Y14237914D01*
X50043561Y14112092D01*
X49837236Y13942765D01*
X49667908Y13736440D01*
X49542086Y13501045D01*
X49530000Y13461202D01*
X49517914Y13501045D01*
X49392092Y13736440D01*
X49222765Y13942765D01*
X49016440Y14112092D01*
X48781045Y14237914D01*
X48525626Y14315394D01*
X48260000Y14341556D01*
X47994375Y14315394D01*
X47738956Y14237914D01*
X47503561Y14112092D01*
X47297236Y13942765D01*
X47127908Y13736440D01*
X47002086Y13501045D01*
X46988495Y13456241D01*
X46923256Y13615869D01*
X46776084Y13838395D01*
X46588327Y14027933D01*
X46367201Y14177199D01*
X46121203Y14280458D01*
X46056472Y14292559D01*
X45847000Y14169489D01*
X45593000Y14169489D01*
X45383528Y14292559D01*
X45318797Y14280458D01*
X45072799Y14177199D01*
X44851673Y14027933D01*
X44663916Y13838395D01*
X44516744Y13615869D01*
X44451505Y13456241D01*
X44437914Y13501045D01*
X44312092Y13736440D01*
X44142765Y13942765D01*
X43936440Y14112092D01*
X43701045Y14237914D01*
X43445626Y14315394D01*
X43180000Y14341556D01*
X42914375Y14315394D01*
X42658956Y14237914D01*
X42423561Y14112092D01*
X42217236Y13942765D01*
X42047908Y13736440D01*
X41966961Y13585000D01*
X41853039Y13585000D01*
X41772092Y13736440D01*
X41602765Y13942765D01*
X41396440Y14112092D01*
X41161045Y14237914D01*
X40905626Y14315394D01*
X40640000Y14341556D01*
X40374375Y14315394D01*
X40118956Y14237914D01*
X39883561Y14112092D01*
X39677236Y13942765D01*
X39507908Y13736440D01*
X39382086Y13501045D01*
X39370000Y13461202D01*
X39357914Y13501045D01*
X39232092Y13736440D01*
X39062765Y13942765D01*
X38856440Y14112092D01*
X38621045Y14237914D01*
X38365626Y14315394D01*
X38100000Y14341556D01*
X37834375Y14315394D01*
X37578956Y14237914D01*
X37384047Y14133732D01*
X36752034Y14765744D01*
X36724317Y14799517D01*
X36589559Y14910111D01*
X36435813Y14992289D01*
X36268990Y15042895D01*
X36138977Y15055700D01*
X36138969Y15055700D01*
X36095500Y15059981D01*
X36052031Y15055700D01*
X12966365Y15055700D01*
X12922899Y15059981D01*
X12879433Y15055700D01*
X12879423Y15055700D01*
X12749410Y15042895D01*
X12582587Y14992289D01*
X12428841Y14910111D01*
X12428839Y14910110D01*
X12428840Y14910110D01*
X12327853Y14827232D01*
X12327851Y14827230D01*
X12294083Y14799517D01*
X12266370Y14765749D01*
X11597624Y14097002D01*
X11493818Y14097002D01*
X11614958Y14329026D01*
X11569222Y14479814D01*
X11442684Y14744944D01*
X11266854Y14980293D01*
X11048488Y15176817D01*
X10942230Y15240000D01*
X11048488Y15303183D01*
X11266854Y15499707D01*
X11442684Y15735056D01*
X11569222Y16000186D01*
X11614958Y16150974D01*
X11493817Y16383000D01*
X10287000Y16383000D01*
X10287000Y14097000D01*
X10307000Y14097000D01*
X10307000Y13843000D01*
X10287000Y13843000D01*
X10287000Y13823000D01*
X10033000Y13823000D01*
X10033000Y13843000D01*
X10013000Y13843000D01*
X10013000Y14097000D01*
X10033000Y14097000D01*
X10033000Y16383000D01*
X10013000Y16383000D01*
X10013000Y16637000D01*
X10033000Y16637000D01*
X10033000Y18923000D01*
X10287000Y18923000D01*
X10287000Y16637000D01*
X11493817Y16637000D01*
X11614958Y16869026D01*
X11569222Y17019814D01*
X11442684Y17284944D01*
X11266854Y17520293D01*
X11048488Y17716817D01*
X10942230Y17780000D01*
X11048488Y17843183D01*
X11266854Y18039707D01*
X11442684Y18275056D01*
X11569222Y18540186D01*
X11614958Y18690974D01*
X11493817Y18923000D01*
X10287000Y18923000D01*
X10033000Y18923000D01*
X10013000Y18923000D01*
X10013000Y19177000D01*
X10033000Y19177000D01*
X10033000Y21463000D01*
X10287000Y21463000D01*
X10287000Y19177000D01*
X11493817Y19177000D01*
X11614958Y19409026D01*
X11569222Y19559814D01*
X11442684Y19824944D01*
X11266854Y20060293D01*
X11048488Y20256817D01*
X10942230Y20320000D01*
X11048488Y20383183D01*
X11266854Y20579707D01*
X11442684Y20815056D01*
X11569222Y21080186D01*
X11614958Y21230974D01*
X11493817Y21463000D01*
X10287000Y21463000D01*
X10033000Y21463000D01*
X10013000Y21463000D01*
X10013000Y21717000D01*
X10033000Y21717000D01*
X10033000Y21737000D01*
X10287000Y21737000D01*
X10287000Y21717000D01*
X11493817Y21717000D01*
X11614958Y21949026D01*
X11569222Y22099814D01*
X11442684Y22364944D01*
X11266854Y22600293D01*
X11048488Y22796817D01*
X10949897Y22855441D01*
X11115302Y22965961D01*
X11324039Y23174698D01*
X11371013Y23245000D01*
X11480131Y23245000D01*
X11523600Y23240719D01*
X11567069Y23245000D01*
X11567077Y23245000D01*
X11697090Y23257805D01*
X11863913Y23308411D01*
X12017659Y23390589D01*
X12093219Y23452600D01*
X15837231Y23452600D01*
X15765147Y23278574D01*
X15710000Y23001335D01*
X15710000Y22718665D01*
X15765147Y22441426D01*
X15873320Y22180273D01*
X16030363Y21945241D01*
X16230241Y21745363D01*
X16465273Y21588320D01*
X16726426Y21480147D01*
X17003665Y21425000D01*
X17286335Y21425000D01*
X17563574Y21480147D01*
X17824727Y21588320D01*
X18059759Y21745363D01*
X18259637Y21945241D01*
X18279521Y21975000D01*
X26726962Y21975000D01*
X26807908Y21823561D01*
X26977235Y21617236D01*
X27183560Y21447908D01*
X27418955Y21322086D01*
X27674374Y21244606D01*
X27940000Y21218444D01*
X28205625Y21244606D01*
X28461044Y21322086D01*
X28696439Y21447908D01*
X28902764Y21617235D01*
X29072092Y21823560D01*
X29197914Y22058955D01*
X29210000Y22098798D01*
X29222086Y22058956D01*
X29347908Y21823561D01*
X29517235Y21617236D01*
X29723560Y21447908D01*
X29958955Y21322086D01*
X30214374Y21244606D01*
X30480000Y21218444D01*
X30745625Y21244606D01*
X31001044Y21322086D01*
X31236439Y21447908D01*
X31442764Y21617235D01*
X31612092Y21823560D01*
X31737914Y22058955D01*
X31750000Y22098798D01*
X31762086Y22058956D01*
X31887908Y21823561D01*
X32057235Y21617236D01*
X32263560Y21447908D01*
X32498955Y21322086D01*
X32754374Y21244606D01*
X33020000Y21218444D01*
X33285625Y21244606D01*
X33541044Y21322086D01*
X33776439Y21447908D01*
X33982764Y21617235D01*
X34152092Y21823560D01*
X34277914Y22058955D01*
X34290000Y22098798D01*
X34302086Y22058956D01*
X34427908Y21823561D01*
X34597235Y21617236D01*
X34803560Y21447908D01*
X35038955Y21322086D01*
X35294374Y21244606D01*
X35560000Y21218444D01*
X35825625Y21244606D01*
X36081044Y21322086D01*
X36316439Y21447908D01*
X36522764Y21617235D01*
X36692092Y21823560D01*
X36817914Y22058955D01*
X36830000Y22098798D01*
X36842086Y22058956D01*
X36967908Y21823561D01*
X37137235Y21617236D01*
X37343560Y21447908D01*
X37578955Y21322086D01*
X37834374Y21244606D01*
X38100000Y21218444D01*
X38365625Y21244606D01*
X38621044Y21322086D01*
X38856439Y21447908D01*
X39062764Y21617235D01*
X39232092Y21823560D01*
X39357914Y22058955D01*
X39370000Y22098798D01*
X39382086Y22058956D01*
X39507908Y21823561D01*
X39677235Y21617236D01*
X39883560Y21447908D01*
X40118955Y21322086D01*
X40374374Y21244606D01*
X40640000Y21218444D01*
X40905625Y21244606D01*
X41161044Y21322086D01*
X41396439Y21447908D01*
X41602764Y21617235D01*
X41772092Y21823560D01*
X41897914Y22058955D01*
X41911505Y22103759D01*
X41976744Y21944131D01*
X42123916Y21721605D01*
X42311673Y21532067D01*
X42532799Y21382801D01*
X42778797Y21279542D01*
X42843528Y21267441D01*
X43053000Y21390511D01*
X43053000Y22733000D01*
X43033000Y22733000D01*
X43033000Y22987000D01*
X43053000Y22987000D01*
X43053000Y23007000D01*
X43307000Y23007000D01*
X43307000Y22987000D01*
X43327000Y22987000D01*
X43327000Y22733000D01*
X43307000Y22733000D01*
X43307000Y21390511D01*
X43516472Y21267441D01*
X43581203Y21279542D01*
X43827201Y21382801D01*
X44048327Y21532067D01*
X44236084Y21721605D01*
X44383256Y21944131D01*
X44398219Y21980742D01*
X44500000Y21970718D01*
X44508788Y21971584D01*
X44587908Y21823561D01*
X44757235Y21617236D01*
X44963560Y21447908D01*
X45198955Y21322086D01*
X45454374Y21244606D01*
X45720000Y21218444D01*
X45985625Y21244606D01*
X46241044Y21322086D01*
X46476439Y21447908D01*
X46682764Y21617235D01*
X46852092Y21823560D01*
X46977914Y22058955D01*
X46990000Y22098798D01*
X47002086Y22058956D01*
X47127908Y21823561D01*
X47297235Y21617236D01*
X47503560Y21447908D01*
X47738955Y21322086D01*
X47994374Y21244606D01*
X48260000Y21218444D01*
X48525625Y21244606D01*
X48781044Y21322086D01*
X49016439Y21447908D01*
X49222764Y21617235D01*
X49392092Y21823560D01*
X49517914Y22058955D01*
X49530000Y22098798D01*
X49542086Y22058956D01*
X49667908Y21823561D01*
X49837235Y21617236D01*
X50043560Y21447908D01*
X50278955Y21322086D01*
X50534374Y21244606D01*
X50800000Y21218444D01*
X51065625Y21244606D01*
X51321044Y21322086D01*
X51556439Y21447908D01*
X51762764Y21617235D01*
X51932092Y21823560D01*
X52057914Y22058955D01*
X52070000Y22098798D01*
X52082086Y22058956D01*
X52207908Y21823561D01*
X52377235Y21617236D01*
X52583560Y21447908D01*
X52818955Y21322086D01*
X53074374Y21244606D01*
X53340000Y21218444D01*
X53605625Y21244606D01*
X53861044Y21322086D01*
X54096439Y21447908D01*
X54302764Y21617235D01*
X54472092Y21823560D01*
X54597914Y22058955D01*
X54610000Y22098798D01*
X54622086Y22058956D01*
X54747908Y21823561D01*
X54917235Y21617236D01*
X55123560Y21447908D01*
X55358955Y21322086D01*
X55614374Y21244606D01*
X55880000Y21218444D01*
X56145625Y21244606D01*
X56401044Y21322086D01*
X56636439Y21447908D01*
X56842764Y21617235D01*
X57012092Y21823560D01*
X57137914Y22058955D01*
X57150000Y22098798D01*
X57162086Y22058956D01*
X57287908Y21823561D01*
X57457235Y21617236D01*
X57663560Y21447908D01*
X57898955Y21322086D01*
X58154374Y21244606D01*
X58420000Y21218444D01*
X58685625Y21244606D01*
X58941044Y21322086D01*
X59176439Y21447908D01*
X59382764Y21617235D01*
X59552092Y21823560D01*
X59601928Y21916796D01*
X59601928Y21860000D01*
X59614188Y21735518D01*
X59650498Y21615820D01*
X59709463Y21505506D01*
X59788815Y21408815D01*
X59885506Y21329463D01*
X59995820Y21270498D01*
X60115518Y21234188D01*
X60240000Y21221928D01*
X61680000Y21221928D01*
X61804482Y21234188D01*
X61924180Y21270498D01*
X62034494Y21329463D01*
X62131185Y21408815D01*
X62210537Y21505506D01*
X62269502Y21615820D01*
X62305812Y21735518D01*
X62318072Y21860000D01*
X62318072Y23860000D01*
X62305812Y23984482D01*
X62269502Y24104180D01*
X62210537Y24214494D01*
X62131185Y24311185D01*
X62034494Y24390537D01*
X61924180Y24449502D01*
X61804482Y24485812D01*
X61680000Y24498072D01*
X60240000Y24498072D01*
X60115518Y24485812D01*
X60066758Y24471021D01*
X59075878Y25461900D01*
X61555050Y27941071D01*
X61588817Y27968783D01*
X61699411Y28103541D01*
X61781589Y28257287D01*
X61832195Y28424110D01*
X61845000Y28554123D01*
X61845000Y28554133D01*
X61849281Y28597599D01*
X61845000Y28641065D01*
X61845000Y29345479D01*
X61874759Y29365363D01*
X62074637Y29565241D01*
X62231680Y29800273D01*
X62339853Y30061426D01*
X62395000Y30338665D01*
X62395000Y30621335D01*
X62339853Y30898574D01*
X62231680Y31159727D01*
X62074637Y31394759D01*
X61874759Y31594637D01*
X61639727Y31751680D01*
X61378574Y31859853D01*
X61101335Y31915000D01*
X60818665Y31915000D01*
X60541426Y31859853D01*
X60280273Y31751680D01*
X60045241Y31594637D01*
X59845363Y31394759D01*
X59688320Y31159727D01*
X59580147Y30898574D01*
X59525000Y30621335D01*
X59525000Y30338665D01*
X59580147Y30061426D01*
X59688320Y29800273D01*
X59845363Y29565241D01*
X60045241Y29365363D01*
X60075000Y29345478D01*
X60075000Y28964179D01*
X57457722Y26346900D01*
X6589069Y26346900D01*
X6545600Y26351181D01*
X6502131Y26346900D01*
X6502123Y26346900D01*
X6372110Y26334095D01*
X6205287Y26283489D01*
X6051541Y26201311D01*
X5916783Y26090717D01*
X5889068Y26056946D01*
X5695056Y25862934D01*
X5661283Y25835217D01*
X5550689Y25700458D01*
X5468511Y25546712D01*
X5417905Y25379889D01*
X5405100Y25249876D01*
X5405100Y25249869D01*
X5400819Y25206400D01*
X5405100Y25162931D01*
X5405101Y20423379D01*
X5400819Y20379900D01*
X5417905Y20206410D01*
X5468512Y20039587D01*
X5550690Y19885841D01*
X5633568Y19784854D01*
X5633571Y19784851D01*
X5661284Y19751083D01*
X5695051Y19723371D01*
X6137895Y19280526D01*
X6121400Y19197599D01*
X6121400Y18902401D01*
X6178990Y18612875D01*
X6291958Y18340147D01*
X6455961Y18094698D01*
X6664698Y17885961D01*
X6823281Y17780000D01*
X6664698Y17674039D01*
X6455961Y17465302D01*
X6291958Y17219853D01*
X6178990Y16947125D01*
X6121400Y16657599D01*
X6121400Y16362401D01*
X6137895Y16279474D01*
X5678951Y15820529D01*
X5645184Y15792817D01*
X5617471Y15759049D01*
X5617468Y15759046D01*
X5534590Y15658059D01*
X5452412Y15504313D01*
X5401805Y15337490D01*
X5384719Y15164000D01*
X660000Y15164000D01*
X660000Y30621335D01*
X15710000Y30621335D01*
X15710000Y30338665D01*
X15765147Y30061426D01*
X15873320Y29800273D01*
X16030363Y29565241D01*
X16230241Y29365363D01*
X16465273Y29208320D01*
X16726426Y29100147D01*
X17003665Y29045000D01*
X17286335Y29045000D01*
X17563574Y29100147D01*
X17824727Y29208320D01*
X18059759Y29365363D01*
X18259637Y29565241D01*
X18416680Y29800273D01*
X18524853Y30061426D01*
X18580000Y30338665D01*
X18580000Y30621335D01*
X51905000Y30621335D01*
X51905000Y30338665D01*
X51960147Y30061426D01*
X52068320Y29800273D01*
X52225363Y29565241D01*
X52425241Y29365363D01*
X52660273Y29208320D01*
X52921426Y29100147D01*
X53198665Y29045000D01*
X53481335Y29045000D01*
X53758574Y29100147D01*
X54019727Y29208320D01*
X54254759Y29365363D01*
X54454637Y29565241D01*
X54611680Y29800273D01*
X54719853Y30061426D01*
X54775000Y30338665D01*
X54775000Y30621335D01*
X54719853Y30898574D01*
X54611680Y31159727D01*
X54454637Y31394759D01*
X54254759Y31594637D01*
X54019727Y31751680D01*
X53758574Y31859853D01*
X53481335Y31915000D01*
X53198665Y31915000D01*
X52921426Y31859853D01*
X52660273Y31751680D01*
X52425241Y31594637D01*
X52225363Y31394759D01*
X52068320Y31159727D01*
X51960147Y30898574D01*
X51905000Y30621335D01*
X18580000Y30621335D01*
X18524853Y30898574D01*
X18416680Y31159727D01*
X18259637Y31394759D01*
X18059759Y31594637D01*
X17824727Y31751680D01*
X17563574Y31859853D01*
X17286335Y31915000D01*
X17003665Y31915000D01*
X16726426Y31859853D01*
X16465273Y31751680D01*
X16230241Y31594637D01*
X16030363Y31394759D01*
X15873320Y31159727D01*
X15765147Y30898574D01*
X15710000Y30621335D01*
X660000Y30621335D01*
X660000Y33108000D01*
X34325928Y33108000D01*
X34325928Y31408000D01*
X34338188Y31283518D01*
X34374498Y31163820D01*
X34433463Y31053506D01*
X34512815Y30956815D01*
X34609506Y30877463D01*
X34719820Y30818498D01*
X34839518Y30782188D01*
X34964000Y30769928D01*
X36664000Y30769928D01*
X36788482Y30782188D01*
X36908180Y30818498D01*
X37018494Y30877463D01*
X37115185Y30956815D01*
X37194537Y31053506D01*
X37253502Y31163820D01*
X37277966Y31244466D01*
X37353731Y31160412D01*
X37587080Y30986359D01*
X37849901Y30861175D01*
X37997110Y30816524D01*
X38227000Y30937845D01*
X38227000Y32131000D01*
X38207000Y32131000D01*
X38207000Y32385000D01*
X38227000Y32385000D01*
X38227000Y33578155D01*
X38481000Y33578155D01*
X38481000Y32385000D01*
X38501000Y32385000D01*
X38501000Y32131000D01*
X38481000Y32131000D01*
X38481000Y30937845D01*
X38710890Y30816524D01*
X38858099Y30861175D01*
X39120920Y30986359D01*
X39354269Y31160412D01*
X39549178Y31376645D01*
X39618805Y31493534D01*
X39740525Y31311368D01*
X39947368Y31104525D01*
X40190589Y30942010D01*
X40460842Y30830068D01*
X40747740Y30773000D01*
X41040260Y30773000D01*
X41327158Y30830068D01*
X41597411Y30942010D01*
X41840632Y31104525D01*
X42047475Y31311368D01*
X42209990Y31554589D01*
X42321932Y31824842D01*
X42379000Y32111740D01*
X42379000Y32404260D01*
X42321932Y32691158D01*
X42209990Y32961411D01*
X42047475Y33204632D01*
X41840632Y33411475D01*
X41597411Y33573990D01*
X41327158Y33685932D01*
X41040260Y33743000D01*
X40747740Y33743000D01*
X40460842Y33685932D01*
X40190589Y33573990D01*
X39947368Y33411475D01*
X39740525Y33204632D01*
X39618805Y33022466D01*
X39549178Y33139355D01*
X39354269Y33355588D01*
X39120920Y33529641D01*
X38858099Y33654825D01*
X38710890Y33699476D01*
X38481000Y33578155D01*
X38227000Y33578155D01*
X37997110Y33699476D01*
X37849901Y33654825D01*
X37587080Y33529641D01*
X37353731Y33355588D01*
X37277966Y33271534D01*
X37253502Y33352180D01*
X37194537Y33462494D01*
X37115185Y33559185D01*
X37018494Y33638537D01*
X36908180Y33697502D01*
X36788482Y33733812D01*
X36664000Y33746072D01*
X34964000Y33746072D01*
X34839518Y33733812D01*
X34719820Y33697502D01*
X34609506Y33638537D01*
X34512815Y33559185D01*
X34433463Y33462494D01*
X34374498Y33352180D01*
X34338188Y33232482D01*
X34325928Y33108000D01*
X660000Y33108000D01*
X660000Y36565000D01*
X15606928Y36565000D01*
X15619188Y36440518D01*
X15655498Y36320820D01*
X15714463Y36210506D01*
X15793815Y36113815D01*
X15890506Y36034463D01*
X16000820Y35975498D01*
X16019127Y35969944D01*
X15952688Y35903505D01*
X15784701Y35652095D01*
X15668989Y35372743D01*
X15610000Y35076184D01*
X15610000Y34773816D01*
X15668989Y34477257D01*
X15784701Y34197905D01*
X15952688Y33946495D01*
X16166495Y33732688D01*
X16417905Y33564701D01*
X16697257Y33448989D01*
X16993816Y33390000D01*
X17296184Y33390000D01*
X17592743Y33448989D01*
X17872095Y33564701D01*
X18123505Y33732688D01*
X18337312Y33946495D01*
X18505299Y34197905D01*
X18621011Y34477257D01*
X18680000Y34773816D01*
X18680000Y35076184D01*
X18621011Y35372743D01*
X18505299Y35652095D01*
X18337312Y35903505D01*
X18270873Y35969944D01*
X18289180Y35975498D01*
X18399494Y36034463D01*
X18496185Y36113815D01*
X18575537Y36210506D01*
X18634502Y36320820D01*
X18670812Y36440518D01*
X18683072Y36565000D01*
X18680000Y37179250D01*
X18521250Y37338000D01*
X17272000Y37338000D01*
X17272000Y37318000D01*
X17018000Y37318000D01*
X17018000Y37338000D01*
X15768750Y37338000D01*
X15610000Y37179250D01*
X15606928Y36565000D01*
X660000Y36565000D01*
X660000Y38365000D01*
X15606928Y38365000D01*
X15610000Y37750750D01*
X15768750Y37592000D01*
X17018000Y37592000D01*
X17018000Y38841250D01*
X17272000Y38841250D01*
X17272000Y37592000D01*
X18521250Y37592000D01*
X18680000Y37750750D01*
X18683072Y38365000D01*
X18670812Y38489482D01*
X18634502Y38609180D01*
X18575537Y38719494D01*
X18496185Y38816185D01*
X18399494Y38895537D01*
X18289180Y38954502D01*
X18169482Y38990812D01*
X18045000Y39003072D01*
X17430750Y39000000D01*
X17272000Y38841250D01*
X17018000Y38841250D01*
X16859250Y39000000D01*
X16245000Y39003072D01*
X16120518Y38990812D01*
X16000820Y38954502D01*
X15890506Y38895537D01*
X15793815Y38816185D01*
X15714463Y38719494D01*
X15655498Y38609180D01*
X15619188Y38489482D01*
X15606928Y38365000D01*
X660000Y38365000D01*
X660000Y39980000D01*
X83160000Y39980000D01*
X83160001Y660000D01*
G37*
X83160001Y660000D02*
X660000Y660000D01*
X660000Y5221335D01*
X41745000Y5221335D01*
X41745000Y4938665D01*
X41800147Y4661426D01*
X41908320Y4400273D01*
X42065363Y4165241D01*
X42265241Y3965363D01*
X42500273Y3808320D01*
X42761426Y3700147D01*
X43038665Y3645000D01*
X43321335Y3645000D01*
X43598574Y3700147D01*
X43859727Y3808320D01*
X44094759Y3965363D01*
X44216694Y4087298D01*
X44866903Y4087298D01*
X44938486Y3843329D01*
X45193996Y3722429D01*
X45468184Y3653700D01*
X45750512Y3639783D01*
X46030130Y3681213D01*
X46296292Y3776397D01*
X46421514Y3843329D01*
X46493097Y4087298D01*
X45680000Y4900395D01*
X44866903Y4087298D01*
X44216694Y4087298D01*
X44294637Y4165241D01*
X44428692Y4365869D01*
X44443329Y4338486D01*
X44687298Y4266903D01*
X45500395Y5080000D01*
X45859605Y5080000D01*
X46672702Y4266903D01*
X46916671Y4338486D01*
X47037571Y4593996D01*
X47106300Y4868184D01*
X47120217Y5150512D01*
X47078787Y5430130D01*
X46983603Y5696292D01*
X46916671Y5821514D01*
X46672702Y5893097D01*
X45859605Y5080000D01*
X45500395Y5080000D01*
X44687298Y5893097D01*
X44443329Y5821514D01*
X44429676Y5792659D01*
X44294637Y5994759D01*
X44216694Y6072702D01*
X44866903Y6072702D01*
X45680000Y5259605D01*
X46493097Y6072702D01*
X46421514Y6316671D01*
X46166004Y6437571D01*
X45891816Y6506300D01*
X45609488Y6520217D01*
X45329870Y6478787D01*
X45063708Y6383603D01*
X44938486Y6316671D01*
X44866903Y6072702D01*
X44216694Y6072702D01*
X44094759Y6194637D01*
X43859727Y6351680D01*
X43598574Y6459853D01*
X43321335Y6515000D01*
X43038665Y6515000D01*
X42761426Y6459853D01*
X42500273Y6351680D01*
X42265241Y6194637D01*
X42065363Y5994759D01*
X41908320Y5759727D01*
X41800147Y5498574D01*
X41745000Y5221335D01*
X660000Y5221335D01*
X660000Y15164000D01*
X5384719Y15164000D01*
X5389001Y15120521D01*
X5389000Y13434069D01*
X5384719Y13390600D01*
X5389000Y13347131D01*
X5389000Y13347124D01*
X5401805Y13217111D01*
X5452411Y13050288D01*
X5534589Y12896542D01*
X5645183Y12761783D01*
X5678956Y12734066D01*
X6381470Y12031551D01*
X6409183Y11997783D01*
X6442951Y11970070D01*
X6442953Y11970068D01*
X6514452Y11911390D01*
X6543941Y11887189D01*
X6697687Y11805011D01*
X6864510Y11754405D01*
X6994523Y11741600D01*
X6994533Y11741600D01*
X7037999Y11737319D01*
X7081465Y11741600D01*
X11335331Y11741600D01*
X11378800Y11737319D01*
X11422269Y11741600D01*
X11422277Y11741600D01*
X11552290Y11754405D01*
X11719113Y11805011D01*
X11872859Y11887189D01*
X12007617Y11997783D01*
X12035334Y12031556D01*
X13289479Y13285700D01*
X26616762Y13285700D01*
X26604606Y13245626D01*
X26585000Y13046564D01*
X26585000Y12353437D01*
X26604606Y12154375D01*
X26682086Y11898956D01*
X26807908Y11663561D01*
X26977235Y11457236D01*
X27183560Y11287908D01*
X27418955Y11162086D01*
X27674374Y11084606D01*
X27940000Y11058444D01*
X28205625Y11084606D01*
X28461044Y11162086D01*
X28696439Y11287908D01*
X28902764Y11457235D01*
X29072092Y11663560D01*
X29197914Y11898955D01*
X29210000Y11938798D01*
X29222086Y11898956D01*
X29347908Y11663561D01*
X29517235Y11457236D01*
X29723560Y11287908D01*
X29958955Y11162086D01*
X30214374Y11084606D01*
X30480000Y11058444D01*
X30745625Y11084606D01*
X31001044Y11162086D01*
X31236439Y11287908D01*
X31442764Y11457235D01*
X31612092Y11663560D01*
X31737914Y11898955D01*
X31750000Y11938798D01*
X31762086Y11898956D01*
X31887908Y11663561D01*
X32057235Y11457236D01*
X32263560Y11287908D01*
X32498955Y11162086D01*
X32754374Y11084606D01*
X33020000Y11058444D01*
X33285625Y11084606D01*
X33541044Y11162086D01*
X33776439Y11287908D01*
X33982764Y11457235D01*
X34152092Y11663560D01*
X34277914Y11898955D01*
X34290000Y11938798D01*
X34302086Y11898956D01*
X34427908Y11663561D01*
X34597235Y11457236D01*
X34803560Y11287908D01*
X35038955Y11162086D01*
X35294374Y11084606D01*
X35560000Y11058444D01*
X35825625Y11084606D01*
X36081044Y11162086D01*
X36316439Y11287908D01*
X36522764Y11457235D01*
X36692092Y11663560D01*
X36776214Y11820940D01*
X36880000Y11810718D01*
X36888788Y11811584D01*
X36967908Y11663561D01*
X37137235Y11457236D01*
X37343560Y11287908D01*
X37578955Y11162086D01*
X37834374Y11084606D01*
X38100000Y11058444D01*
X38365625Y11084606D01*
X38621044Y11162086D01*
X38856439Y11287908D01*
X39062764Y11457235D01*
X39232092Y11663560D01*
X39357914Y11898955D01*
X39370000Y11938798D01*
X39382086Y11898956D01*
X39507908Y11663561D01*
X39677235Y11457236D01*
X39883560Y11287908D01*
X40118955Y11162086D01*
X40374374Y11084606D01*
X40640000Y11058444D01*
X40905625Y11084606D01*
X41161044Y11162086D01*
X41396439Y11287908D01*
X41602764Y11457235D01*
X41772092Y11663560D01*
X41853039Y11815000D01*
X41966962Y11815000D01*
X42047908Y11663561D01*
X42217235Y11457236D01*
X42423560Y11287908D01*
X42658955Y11162086D01*
X42914374Y11084606D01*
X43180000Y11058444D01*
X43445625Y11084606D01*
X43701044Y11162086D01*
X43936439Y11287908D01*
X44142764Y11457235D01*
X44312092Y11663560D01*
X44437914Y11898955D01*
X44451505Y11943759D01*
X44516744Y11784131D01*
X44663916Y11561605D01*
X44851673Y11372067D01*
X45072799Y11222801D01*
X45318797Y11119542D01*
X45383528Y11107441D01*
X45593000Y11230511D01*
X45593000Y12573000D01*
X45573000Y12573000D01*
X45573000Y12827000D01*
X45593000Y12827000D01*
X45593000Y14169489D01*
X45847000Y14169489D01*
X45847000Y12827000D01*
X45867000Y12827000D01*
X45867000Y12573000D01*
X45847000Y12573000D01*
X45847000Y11230511D01*
X46056472Y11107441D01*
X46121203Y11119542D01*
X46367201Y11222801D01*
X46588327Y11372067D01*
X46776084Y11561605D01*
X46923256Y11784131D01*
X46988495Y11943759D01*
X47002086Y11898956D01*
X47127908Y11663561D01*
X47297235Y11457236D01*
X47503560Y11287908D01*
X47738955Y11162086D01*
X47994374Y11084606D01*
X48260000Y11058444D01*
X48525625Y11084606D01*
X48781044Y11162086D01*
X49016439Y11287908D01*
X49222764Y11457235D01*
X49392092Y11663560D01*
X49517914Y11898955D01*
X49530000Y11938798D01*
X49542086Y11898956D01*
X49667908Y11663561D01*
X49837235Y11457236D01*
X50043560Y11287908D01*
X50278955Y11162086D01*
X50534374Y11084606D01*
X50800000Y11058444D01*
X51065625Y11084606D01*
X51321044Y11162086D01*
X51556439Y11287908D01*
X51762764Y11457235D01*
X51932092Y11663560D01*
X52057914Y11898955D01*
X52070000Y11938798D01*
X52082086Y11898956D01*
X52207908Y11663561D01*
X52377235Y11457236D01*
X52583560Y11287908D01*
X52818955Y11162086D01*
X53074374Y11084606D01*
X53340000Y11058444D01*
X53605625Y11084606D01*
X53861044Y11162086D01*
X54096439Y11287908D01*
X54302764Y11457235D01*
X54472092Y11663560D01*
X54597914Y11898955D01*
X54610000Y11938798D01*
X54622086Y11898956D01*
X54747908Y11663561D01*
X54917235Y11457236D01*
X55123560Y11287908D01*
X55358955Y11162086D01*
X55614374Y11084606D01*
X55880000Y11058444D01*
X56145625Y11084606D01*
X56401044Y11162086D01*
X56636439Y11287908D01*
X56842764Y11457235D01*
X57012092Y11663560D01*
X57137914Y11898955D01*
X57150000Y11938798D01*
X57162086Y11898956D01*
X57287908Y11663561D01*
X57457235Y11457236D01*
X57663560Y11287908D01*
X57898955Y11162086D01*
X58154374Y11084606D01*
X58420000Y11058444D01*
X58685625Y11084606D01*
X58941044Y11162086D01*
X59176439Y11287908D01*
X59382764Y11457235D01*
X59552092Y11663560D01*
X59677914Y11898955D01*
X59690000Y11938798D01*
X59702086Y11898956D01*
X59827908Y11663561D01*
X59997235Y11457236D01*
X60203560Y11287908D01*
X60438955Y11162086D01*
X60694374Y11084606D01*
X60960000Y11058444D01*
X61225625Y11084606D01*
X61481044Y11162086D01*
X61716439Y11287908D01*
X61922764Y11457235D01*
X62092092Y11663560D01*
X62217914Y11898955D01*
X62295394Y12154374D01*
X62315000Y12353436D01*
X62315000Y13046563D01*
X62295394Y13245625D01*
X62217914Y13501045D01*
X62092092Y13736440D01*
X61922765Y13942765D01*
X61716440Y14112092D01*
X61481045Y14237914D01*
X61225626Y14315394D01*
X60960000Y14341556D01*
X60694375Y14315394D01*
X60438956Y14237914D01*
X60203561Y14112092D01*
X59997236Y13942765D01*
X59827908Y13736440D01*
X59702086Y13501045D01*
X59690000Y13461202D01*
X59677914Y13501045D01*
X59552092Y13736440D01*
X59382765Y13942765D01*
X59176440Y14112092D01*
X58941045Y14237914D01*
X58685626Y14315394D01*
X58420000Y14341556D01*
X58154375Y14315394D01*
X57898956Y14237914D01*
X57663561Y14112092D01*
X57457236Y13942765D01*
X57287908Y13736440D01*
X57162086Y13501045D01*
X57150000Y13461202D01*
X57137914Y13501045D01*
X57012092Y13736440D01*
X56842765Y13942765D01*
X56636440Y14112092D01*
X56401045Y14237914D01*
X56145626Y14315394D01*
X55880000Y14341556D01*
X55614375Y14315394D01*
X55358956Y14237914D01*
X55123561Y14112092D01*
X54917236Y13942765D01*
X54747908Y13736440D01*
X54622086Y13501045D01*
X54610000Y13461202D01*
X54597914Y13501045D01*
X54472092Y13736440D01*
X54302765Y13942765D01*
X54096440Y14112092D01*
X53861045Y14237914D01*
X53605626Y14315394D01*
X53340000Y14341556D01*
X53074375Y14315394D01*
X52818956Y14237914D01*
X52583561Y14112092D01*
X52377236Y13942765D01*
X52207908Y13736440D01*
X52082086Y13501045D01*
X52070000Y13461202D01*
X52057914Y13501045D01*
X51932092Y13736440D01*
X51762765Y13942765D01*
X51556440Y14112092D01*
X51321045Y14237914D01*
X51065626Y14315394D01*
X50800000Y14341556D01*
X50534375Y14315394D01*
X50278956Y14237914D01*
X50043561Y14112092D01*
X49837236Y13942765D01*
X49667908Y13736440D01*
X49542086Y13501045D01*
X49530000Y13461202D01*
X49517914Y13501045D01*
X49392092Y13736440D01*
X49222765Y13942765D01*
X49016440Y14112092D01*
X48781045Y14237914D01*
X48525626Y14315394D01*
X48260000Y14341556D01*
X47994375Y14315394D01*
X47738956Y14237914D01*
X47503561Y14112092D01*
X47297236Y13942765D01*
X47127908Y13736440D01*
X47002086Y13501045D01*
X46988495Y13456241D01*
X46923256Y13615869D01*
X46776084Y13838395D01*
X46588327Y14027933D01*
X46367201Y14177199D01*
X46121203Y14280458D01*
X46056472Y14292559D01*
X45847000Y14169489D01*
X45593000Y14169489D01*
X45383528Y14292559D01*
X45318797Y14280458D01*
X45072799Y14177199D01*
X44851673Y14027933D01*
X44663916Y13838395D01*
X44516744Y13615869D01*
X44451505Y13456241D01*
X44437914Y13501045D01*
X44312092Y13736440D01*
X44142765Y13942765D01*
X43936440Y14112092D01*
X43701045Y14237914D01*
X43445626Y14315394D01*
X43180000Y14341556D01*
X42914375Y14315394D01*
X42658956Y14237914D01*
X42423561Y14112092D01*
X42217236Y13942765D01*
X42047908Y13736440D01*
X41966961Y13585000D01*
X41853039Y13585000D01*
X41772092Y13736440D01*
X41602765Y13942765D01*
X41396440Y14112092D01*
X41161045Y14237914D01*
X40905626Y14315394D01*
X40640000Y14341556D01*
X40374375Y14315394D01*
X40118956Y14237914D01*
X39883561Y14112092D01*
X39677236Y13942765D01*
X39507908Y13736440D01*
X39382086Y13501045D01*
X39370000Y13461202D01*
X39357914Y13501045D01*
X39232092Y13736440D01*
X39062765Y13942765D01*
X38856440Y14112092D01*
X38621045Y14237914D01*
X38365626Y14315394D01*
X38100000Y14341556D01*
X37834375Y14315394D01*
X37578956Y14237914D01*
X37384047Y14133732D01*
X36752034Y14765744D01*
X36724317Y14799517D01*
X36589559Y14910111D01*
X36435813Y14992289D01*
X36268990Y15042895D01*
X36138977Y15055700D01*
X36138969Y15055700D01*
X36095500Y15059981D01*
X36052031Y15055700D01*
X12966365Y15055700D01*
X12922899Y15059981D01*
X12879433Y15055700D01*
X12879423Y15055700D01*
X12749410Y15042895D01*
X12582587Y14992289D01*
X12428841Y14910111D01*
X12428839Y14910110D01*
X12428840Y14910110D01*
X12327853Y14827232D01*
X12327851Y14827230D01*
X12294083Y14799517D01*
X12266370Y14765749D01*
X11597624Y14097002D01*
X11493818Y14097002D01*
X11614958Y14329026D01*
X11569222Y14479814D01*
X11442684Y14744944D01*
X11266854Y14980293D01*
X11048488Y15176817D01*
X10942230Y15240000D01*
X11048488Y15303183D01*
X11266854Y15499707D01*
X11442684Y15735056D01*
X11569222Y16000186D01*
X11614958Y16150974D01*
X11493817Y16383000D01*
X10287000Y16383000D01*
X10287000Y14097000D01*
X10307000Y14097000D01*
X10307000Y13843000D01*
X10287000Y13843000D01*
X10287000Y13823000D01*
X10033000Y13823000D01*
X10033000Y13843000D01*
X10013000Y13843000D01*
X10013000Y14097000D01*
X10033000Y14097000D01*
X10033000Y16383000D01*
X10013000Y16383000D01*
X10013000Y16637000D01*
X10033000Y16637000D01*
X10033000Y18923000D01*
X10287000Y18923000D01*
X10287000Y16637000D01*
X11493817Y16637000D01*
X11614958Y16869026D01*
X11569222Y17019814D01*
X11442684Y17284944D01*
X11266854Y17520293D01*
X11048488Y17716817D01*
X10942230Y17780000D01*
X11048488Y17843183D01*
X11266854Y18039707D01*
X11442684Y18275056D01*
X11569222Y18540186D01*
X11614958Y18690974D01*
X11493817Y18923000D01*
X10287000Y18923000D01*
X10033000Y18923000D01*
X10013000Y18923000D01*
X10013000Y19177000D01*
X10033000Y19177000D01*
X10033000Y21463000D01*
X10287000Y21463000D01*
X10287000Y19177000D01*
X11493817Y19177000D01*
X11614958Y19409026D01*
X11569222Y19559814D01*
X11442684Y19824944D01*
X11266854Y20060293D01*
X11048488Y20256817D01*
X10942230Y20320000D01*
X11048488Y20383183D01*
X11266854Y20579707D01*
X11442684Y20815056D01*
X11569222Y21080186D01*
X11614958Y21230974D01*
X11493817Y21463000D01*
X10287000Y21463000D01*
X10033000Y21463000D01*
X10013000Y21463000D01*
X10013000Y21717000D01*
X10033000Y21717000D01*
X10033000Y21737000D01*
X10287000Y21737000D01*
X10287000Y21717000D01*
X11493817Y21717000D01*
X11614958Y21949026D01*
X11569222Y22099814D01*
X11442684Y22364944D01*
X11266854Y22600293D01*
X11048488Y22796817D01*
X10949897Y22855441D01*
X11115302Y22965961D01*
X11324039Y23174698D01*
X11371013Y23245000D01*
X11480131Y23245000D01*
X11523600Y23240719D01*
X11567069Y23245000D01*
X11567077Y23245000D01*
X11697090Y23257805D01*
X11863913Y23308411D01*
X12017659Y23390589D01*
X12093219Y23452600D01*
X15837231Y23452600D01*
X15765147Y23278574D01*
X15710000Y23001335D01*
X15710000Y22718665D01*
X15765147Y22441426D01*
X15873320Y22180273D01*
X16030363Y21945241D01*
X16230241Y21745363D01*
X16465273Y21588320D01*
X16726426Y21480147D01*
X17003665Y21425000D01*
X17286335Y21425000D01*
X17563574Y21480147D01*
X17824727Y21588320D01*
X18059759Y21745363D01*
X18259637Y21945241D01*
X18279521Y21975000D01*
X26726962Y21975000D01*
X26807908Y21823561D01*
X26977235Y21617236D01*
X27183560Y21447908D01*
X27418955Y21322086D01*
X27674374Y21244606D01*
X27940000Y21218444D01*
X28205625Y21244606D01*
X28461044Y21322086D01*
X28696439Y21447908D01*
X28902764Y21617235D01*
X29072092Y21823560D01*
X29197914Y22058955D01*
X29210000Y22098798D01*
X29222086Y22058956D01*
X29347908Y21823561D01*
X29517235Y21617236D01*
X29723560Y21447908D01*
X29958955Y21322086D01*
X30214374Y21244606D01*
X30480000Y21218444D01*
X30745625Y21244606D01*
X31001044Y21322086D01*
X31236439Y21447908D01*
X31442764Y21617235D01*
X31612092Y21823560D01*
X31737914Y22058955D01*
X31750000Y22098798D01*
X31762086Y22058956D01*
X31887908Y21823561D01*
X32057235Y21617236D01*
X32263560Y21447908D01*
X32498955Y21322086D01*
X32754374Y21244606D01*
X33020000Y21218444D01*
X33285625Y21244606D01*
X33541044Y21322086D01*
X33776439Y21447908D01*
X33982764Y21617235D01*
X34152092Y21823560D01*
X34277914Y22058955D01*
X34290000Y22098798D01*
X34302086Y22058956D01*
X34427908Y21823561D01*
X34597235Y21617236D01*
X34803560Y21447908D01*
X35038955Y21322086D01*
X35294374Y21244606D01*
X35560000Y21218444D01*
X35825625Y21244606D01*
X36081044Y21322086D01*
X36316439Y21447908D01*
X36522764Y21617235D01*
X36692092Y21823560D01*
X36817914Y22058955D01*
X36830000Y22098798D01*
X36842086Y22058956D01*
X36967908Y21823561D01*
X37137235Y21617236D01*
X37343560Y21447908D01*
X37578955Y21322086D01*
X37834374Y21244606D01*
X38100000Y21218444D01*
X38365625Y21244606D01*
X38621044Y21322086D01*
X38856439Y21447908D01*
X39062764Y21617235D01*
X39232092Y21823560D01*
X39357914Y22058955D01*
X39370000Y22098798D01*
X39382086Y22058956D01*
X39507908Y21823561D01*
X39677235Y21617236D01*
X39883560Y21447908D01*
X40118955Y21322086D01*
X40374374Y21244606D01*
X40640000Y21218444D01*
X40905625Y21244606D01*
X41161044Y21322086D01*
X41396439Y21447908D01*
X41602764Y21617235D01*
X41772092Y21823560D01*
X41897914Y22058955D01*
X41911505Y22103759D01*
X41976744Y21944131D01*
X42123916Y21721605D01*
X42311673Y21532067D01*
X42532799Y21382801D01*
X42778797Y21279542D01*
X42843528Y21267441D01*
X43053000Y21390511D01*
X43053000Y22733000D01*
X43033000Y22733000D01*
X43033000Y22987000D01*
X43053000Y22987000D01*
X43053000Y23007000D01*
X43307000Y23007000D01*
X43307000Y22987000D01*
X43327000Y22987000D01*
X43327000Y22733000D01*
X43307000Y22733000D01*
X43307000Y21390511D01*
X43516472Y21267441D01*
X43581203Y21279542D01*
X43827201Y21382801D01*
X44048327Y21532067D01*
X44236084Y21721605D01*
X44383256Y21944131D01*
X44398219Y21980742D01*
X44500000Y21970718D01*
X44508788Y21971584D01*
X44587908Y21823561D01*
X44757235Y21617236D01*
X44963560Y21447908D01*
X45198955Y21322086D01*
X45454374Y21244606D01*
X45720000Y21218444D01*
X45985625Y21244606D01*
X46241044Y21322086D01*
X46476439Y21447908D01*
X46682764Y21617235D01*
X46852092Y21823560D01*
X46977914Y22058955D01*
X46990000Y22098798D01*
X47002086Y22058956D01*
X47127908Y21823561D01*
X47297235Y21617236D01*
X47503560Y21447908D01*
X47738955Y21322086D01*
X47994374Y21244606D01*
X48260000Y21218444D01*
X48525625Y21244606D01*
X48781044Y21322086D01*
X49016439Y21447908D01*
X49222764Y21617235D01*
X49392092Y21823560D01*
X49517914Y22058955D01*
X49530000Y22098798D01*
X49542086Y22058956D01*
X49667908Y21823561D01*
X49837235Y21617236D01*
X50043560Y21447908D01*
X50278955Y21322086D01*
X50534374Y21244606D01*
X50800000Y21218444D01*
X51065625Y21244606D01*
X51321044Y21322086D01*
X51556439Y21447908D01*
X51762764Y21617235D01*
X51932092Y21823560D01*
X52057914Y22058955D01*
X52070000Y22098798D01*
X52082086Y22058956D01*
X52207908Y21823561D01*
X52377235Y21617236D01*
X52583560Y21447908D01*
X52818955Y21322086D01*
X53074374Y21244606D01*
X53340000Y21218444D01*
X53605625Y21244606D01*
X53861044Y21322086D01*
X54096439Y21447908D01*
X54302764Y21617235D01*
X54472092Y21823560D01*
X54597914Y22058955D01*
X54610000Y22098798D01*
X54622086Y22058956D01*
X54747908Y21823561D01*
X54917235Y21617236D01*
X55123560Y21447908D01*
X55358955Y21322086D01*
X55614374Y21244606D01*
X55880000Y21218444D01*
X56145625Y21244606D01*
X56401044Y21322086D01*
X56636439Y21447908D01*
X56842764Y21617235D01*
X57012092Y21823560D01*
X57137914Y22058955D01*
X57150000Y22098798D01*
X57162086Y22058956D01*
X57287908Y21823561D01*
X57457235Y21617236D01*
X57663560Y21447908D01*
X57898955Y21322086D01*
X58154374Y21244606D01*
X58420000Y21218444D01*
X58685625Y21244606D01*
X58941044Y21322086D01*
X59176439Y21447908D01*
X59382764Y21617235D01*
X59552092Y21823560D01*
X59601928Y21916796D01*
X59601928Y21860000D01*
X59614188Y21735518D01*
X59650498Y21615820D01*
X59709463Y21505506D01*
X59788815Y21408815D01*
X59885506Y21329463D01*
X59995820Y21270498D01*
X60115518Y21234188D01*
X60240000Y21221928D01*
X61680000Y21221928D01*
X61804482Y21234188D01*
X61924180Y21270498D01*
X62034494Y21329463D01*
X62131185Y21408815D01*
X62210537Y21505506D01*
X62269502Y21615820D01*
X62305812Y21735518D01*
X62318072Y21860000D01*
X62318072Y23860000D01*
X62305812Y23984482D01*
X62269502Y24104180D01*
X62210537Y24214494D01*
X62131185Y24311185D01*
X62034494Y24390537D01*
X61924180Y24449502D01*
X61804482Y24485812D01*
X61680000Y24498072D01*
X60240000Y24498072D01*
X60115518Y24485812D01*
X60066758Y24471021D01*
X59075878Y25461900D01*
X61555050Y27941071D01*
X61588817Y27968783D01*
X61699411Y28103541D01*
X61781589Y28257287D01*
X61832195Y28424110D01*
X61845000Y28554123D01*
X61845000Y28554133D01*
X61849281Y28597599D01*
X61845000Y28641065D01*
X61845000Y29345479D01*
X61874759Y29365363D01*
X62074637Y29565241D01*
X62231680Y29800273D01*
X62339853Y30061426D01*
X62395000Y30338665D01*
X62395000Y30621335D01*
X62339853Y30898574D01*
X62231680Y31159727D01*
X62074637Y31394759D01*
X61874759Y31594637D01*
X61639727Y31751680D01*
X61378574Y31859853D01*
X61101335Y31915000D01*
X60818665Y31915000D01*
X60541426Y31859853D01*
X60280273Y31751680D01*
X60045241Y31594637D01*
X59845363Y31394759D01*
X59688320Y31159727D01*
X59580147Y30898574D01*
X59525000Y30621335D01*
X59525000Y30338665D01*
X59580147Y30061426D01*
X59688320Y29800273D01*
X59845363Y29565241D01*
X60045241Y29365363D01*
X60075000Y29345478D01*
X60075000Y28964179D01*
X57457722Y26346900D01*
X6589069Y26346900D01*
X6545600Y26351181D01*
X6502131Y26346900D01*
X6502123Y26346900D01*
X6372110Y26334095D01*
X6205287Y26283489D01*
X6051541Y26201311D01*
X5916783Y26090717D01*
X5889068Y26056946D01*
X5695056Y25862934D01*
X5661283Y25835217D01*
X5550689Y25700458D01*
X5468511Y25546712D01*
X5417905Y25379889D01*
X5405100Y25249876D01*
X5405100Y25249869D01*
X5400819Y25206400D01*
X5405100Y25162931D01*
X5405101Y20423379D01*
X5400819Y20379900D01*
X5417905Y20206410D01*
X5468512Y20039587D01*
X5550690Y19885841D01*
X5633568Y19784854D01*
X5633571Y19784851D01*
X5661284Y19751083D01*
X5695051Y19723371D01*
X6137895Y19280526D01*
X6121400Y19197599D01*
X6121400Y18902401D01*
X6178990Y18612875D01*
X6291958Y18340147D01*
X6455961Y18094698D01*
X6664698Y17885961D01*
X6823281Y17780000D01*
X6664698Y17674039D01*
X6455961Y17465302D01*
X6291958Y17219853D01*
X6178990Y16947125D01*
X6121400Y16657599D01*
X6121400Y16362401D01*
X6137895Y16279474D01*
X5678951Y15820529D01*
X5645184Y15792817D01*
X5617471Y15759049D01*
X5617468Y15759046D01*
X5534590Y15658059D01*
X5452412Y15504313D01*
X5401805Y15337490D01*
X5384719Y15164000D01*
X660000Y15164000D01*
X660000Y30621335D01*
X15710000Y30621335D01*
X15710000Y30338665D01*
X15765147Y30061426D01*
X15873320Y29800273D01*
X16030363Y29565241D01*
X16230241Y29365363D01*
X16465273Y29208320D01*
X16726426Y29100147D01*
X17003665Y29045000D01*
X17286335Y29045000D01*
X17563574Y29100147D01*
X17824727Y29208320D01*
X18059759Y29365363D01*
X18259637Y29565241D01*
X18416680Y29800273D01*
X18524853Y30061426D01*
X18580000Y30338665D01*
X18580000Y30621335D01*
X51905000Y30621335D01*
X51905000Y30338665D01*
X51960147Y30061426D01*
X52068320Y29800273D01*
X52225363Y29565241D01*
X52425241Y29365363D01*
X52660273Y29208320D01*
X52921426Y29100147D01*
X53198665Y29045000D01*
X53481335Y29045000D01*
X53758574Y29100147D01*
X54019727Y29208320D01*
X54254759Y29365363D01*
X54454637Y29565241D01*
X54611680Y29800273D01*
X54719853Y30061426D01*
X54775000Y30338665D01*
X54775000Y30621335D01*
X54719853Y30898574D01*
X54611680Y31159727D01*
X54454637Y31394759D01*
X54254759Y31594637D01*
X54019727Y31751680D01*
X53758574Y31859853D01*
X53481335Y31915000D01*
X53198665Y31915000D01*
X52921426Y31859853D01*
X52660273Y31751680D01*
X52425241Y31594637D01*
X52225363Y31394759D01*
X52068320Y31159727D01*
X51960147Y30898574D01*
X51905000Y30621335D01*
X18580000Y30621335D01*
X18524853Y30898574D01*
X18416680Y31159727D01*
X18259637Y31394759D01*
X18059759Y31594637D01*
X17824727Y31751680D01*
X17563574Y31859853D01*
X17286335Y31915000D01*
X17003665Y31915000D01*
X16726426Y31859853D01*
X16465273Y31751680D01*
X16230241Y31594637D01*
X16030363Y31394759D01*
X15873320Y31159727D01*
X15765147Y30898574D01*
X15710000Y30621335D01*
X660000Y30621335D01*
X660000Y33108000D01*
X34325928Y33108000D01*
X34325928Y31408000D01*
X34338188Y31283518D01*
X34374498Y31163820D01*
X34433463Y31053506D01*
X34512815Y30956815D01*
X34609506Y30877463D01*
X34719820Y30818498D01*
X34839518Y30782188D01*
X34964000Y30769928D01*
X36664000Y30769928D01*
X36788482Y30782188D01*
X36908180Y30818498D01*
X37018494Y30877463D01*
X37115185Y30956815D01*
X37194537Y31053506D01*
X37253502Y31163820D01*
X37277966Y31244466D01*
X37353731Y31160412D01*
X37587080Y30986359D01*
X37849901Y30861175D01*
X37997110Y30816524D01*
X38227000Y30937845D01*
X38227000Y32131000D01*
X38207000Y32131000D01*
X38207000Y32385000D01*
X38227000Y32385000D01*
X38227000Y33578155D01*
X38481000Y33578155D01*
X38481000Y32385000D01*
X38501000Y32385000D01*
X38501000Y32131000D01*
X38481000Y32131000D01*
X38481000Y30937845D01*
X38710890Y30816524D01*
X38858099Y30861175D01*
X39120920Y30986359D01*
X39354269Y31160412D01*
X39549178Y31376645D01*
X39618805Y31493534D01*
X39740525Y31311368D01*
X39947368Y31104525D01*
X40190589Y30942010D01*
X40460842Y30830068D01*
X40747740Y30773000D01*
X41040260Y30773000D01*
X41327158Y30830068D01*
X41597411Y30942010D01*
X41840632Y31104525D01*
X42047475Y31311368D01*
X42209990Y31554589D01*
X42321932Y31824842D01*
X42379000Y32111740D01*
X42379000Y32404260D01*
X42321932Y32691158D01*
X42209990Y32961411D01*
X42047475Y33204632D01*
X41840632Y33411475D01*
X41597411Y33573990D01*
X41327158Y33685932D01*
X41040260Y33743000D01*
X40747740Y33743000D01*
X40460842Y33685932D01*
X40190589Y33573990D01*
X39947368Y33411475D01*
X39740525Y33204632D01*
X39618805Y33022466D01*
X39549178Y33139355D01*
X39354269Y33355588D01*
X39120920Y33529641D01*
X38858099Y33654825D01*
X38710890Y33699476D01*
X38481000Y33578155D01*
X38227000Y33578155D01*
X37997110Y33699476D01*
X37849901Y33654825D01*
X37587080Y33529641D01*
X37353731Y33355588D01*
X37277966Y33271534D01*
X37253502Y33352180D01*
X37194537Y33462494D01*
X37115185Y33559185D01*
X37018494Y33638537D01*
X36908180Y33697502D01*
X36788482Y33733812D01*
X36664000Y33746072D01*
X34964000Y33746072D01*
X34839518Y33733812D01*
X34719820Y33697502D01*
X34609506Y33638537D01*
X34512815Y33559185D01*
X34433463Y33462494D01*
X34374498Y33352180D01*
X34338188Y33232482D01*
X34325928Y33108000D01*
X660000Y33108000D01*
X660000Y36565000D01*
X15606928Y36565000D01*
X15619188Y36440518D01*
X15655498Y36320820D01*
X15714463Y36210506D01*
X15793815Y36113815D01*
X15890506Y36034463D01*
X16000820Y35975498D01*
X16019127Y35969944D01*
X15952688Y35903505D01*
X15784701Y35652095D01*
X15668989Y35372743D01*
X15610000Y35076184D01*
X15610000Y34773816D01*
X15668989Y34477257D01*
X15784701Y34197905D01*
X15952688Y33946495D01*
X16166495Y33732688D01*
X16417905Y33564701D01*
X16697257Y33448989D01*
X16993816Y33390000D01*
X17296184Y33390000D01*
X17592743Y33448989D01*
X17872095Y33564701D01*
X18123505Y33732688D01*
X18337312Y33946495D01*
X18505299Y34197905D01*
X18621011Y34477257D01*
X18680000Y34773816D01*
X18680000Y35076184D01*
X18621011Y35372743D01*
X18505299Y35652095D01*
X18337312Y35903505D01*
X18270873Y35969944D01*
X18289180Y35975498D01*
X18399494Y36034463D01*
X18496185Y36113815D01*
X18575537Y36210506D01*
X18634502Y36320820D01*
X18670812Y36440518D01*
X18683072Y36565000D01*
X18680000Y37179250D01*
X18521250Y37338000D01*
X17272000Y37338000D01*
X17272000Y37318000D01*
X17018000Y37318000D01*
X17018000Y37338000D01*
X15768750Y37338000D01*
X15610000Y37179250D01*
X15606928Y36565000D01*
X660000Y36565000D01*
X660000Y38365000D01*
X15606928Y38365000D01*
X15610000Y37750750D01*
X15768750Y37592000D01*
X17018000Y37592000D01*
X17018000Y38841250D01*
X17272000Y38841250D01*
X17272000Y37592000D01*
X18521250Y37592000D01*
X18680000Y37750750D01*
X18683072Y38365000D01*
X18670812Y38489482D01*
X18634502Y38609180D01*
X18575537Y38719494D01*
X18496185Y38816185D01*
X18399494Y38895537D01*
X18289180Y38954502D01*
X18169482Y38990812D01*
X18045000Y39003072D01*
X17430750Y39000000D01*
X17272000Y38841250D01*
X17018000Y38841250D01*
X16859250Y39000000D01*
X16245000Y39003072D01*
X16120518Y38990812D01*
X16000820Y38954502D01*
X15890506Y38895537D01*
X15793815Y38816185D01*
X15714463Y38719494D01*
X15655498Y38609180D01*
X15619188Y38489482D01*
X15606928Y38365000D01*
X660000Y38365000D01*
X660000Y39980000D01*
X83160000Y39980000D01*
X83160001Y660000D01*
%TD*%
M02*
