%TF.GenerationSoftware,KiCad,Pcbnew,5.1.6-c6e7f7d~86~ubuntu18.04.1*%
%TF.CreationDate,2020-05-25T18:44:13+02:00*%
%TF.ProjectId,atmega_prog_adapter_v3,61746d65-6761-45f7-9072-6f675f616461,1.0*%
%TF.SameCoordinates,PX59a0560PY76b1be0*%
%TF.FileFunction,Other,Fab,Top*%
%FSLAX46Y46*%
G04 Gerber Fmt 4.6, Leading zero omitted, Abs format (unit mm)*
G04 Created by KiCad (PCBNEW 5.1.6-c6e7f7d~86~ubuntu18.04.1) date 2020-05-25 18:44:13*
%MOMM*%
%LPD*%
G01*
G04 APERTURE LIST*
%ADD10C,0.100000*%
%ADD11C,0.150000*%
%ADD12C,0.090000*%
G04 APERTURE END LIST*
D10*
%TO.C,J2*%
X34544000Y30988000D02*
X34544000Y32893000D01*
X34544000Y32893000D02*
X35179000Y33528000D01*
X35179000Y33528000D02*
X42164000Y33528000D01*
X42164000Y33528000D02*
X42164000Y30988000D01*
X42164000Y30988000D02*
X34544000Y30988000D01*
%TO.C,C1*%
X41930000Y6330000D02*
X41930000Y3830000D01*
X41930000Y3830000D02*
X46930000Y3830000D01*
X46930000Y3830000D02*
X46930000Y6330000D01*
X46930000Y6330000D02*
X41930000Y6330000D01*
%TO.C,D1*%
X18645000Y36195000D02*
G75*
G03*
X18645000Y36195000I-1500000J0D01*
G01*
X18311190Y37695000D02*
X15978810Y37695000D01*
X15979524Y37695555D02*
G75*
G03*
X18311190Y37695000I1165476J-1500555D01*
G01*
%TO.C,J1*%
X13315000Y29230000D02*
X13315000Y8870000D01*
X12765000Y28690000D02*
X12765000Y9430000D01*
X4465000Y29230000D02*
X4465000Y8870000D01*
X5015000Y28690000D02*
X5015000Y21300000D01*
X5015000Y16800000D02*
X5015000Y9430000D01*
X5015000Y21300000D02*
X4465000Y21300000D01*
X5015000Y16800000D02*
X4465000Y16800000D01*
X13315000Y29230000D02*
X4465000Y29230000D01*
X12765000Y28690000D02*
X5015000Y28690000D01*
X13315000Y8870000D02*
X4465000Y8870000D01*
X12765000Y9430000D02*
X5015000Y9430000D01*
X13315000Y29230000D02*
X12765000Y28690000D01*
X13315000Y8870000D02*
X12765000Y9430000D01*
X4465000Y29230000D02*
X5015000Y28690000D01*
X4465000Y8870000D02*
X5015000Y9430000D01*
%TO.C,R1*%
X54000000Y31730000D02*
X54000000Y29230000D01*
X54000000Y29230000D02*
X60300000Y29230000D01*
X60300000Y29230000D02*
X60300000Y31730000D01*
X60300000Y31730000D02*
X54000000Y31730000D01*
X53340000Y30480000D02*
X54000000Y30480000D01*
X60960000Y30480000D02*
X60300000Y30480000D01*
%TO.C,R2*%
X18395000Y29820000D02*
X15895000Y29820000D01*
X15895000Y29820000D02*
X15895000Y23520000D01*
X15895000Y23520000D02*
X18395000Y23520000D01*
X18395000Y23520000D02*
X18395000Y29820000D01*
X17145000Y30480000D02*
X17145000Y29820000D01*
X17145000Y22860000D02*
X17145000Y23520000D01*
%TO.C,U1*%
X82420000Y27860000D02*
X83820000Y26560000D01*
X83820000Y26560000D02*
X83820000Y24560000D01*
X83820000Y24560000D02*
X82420000Y23260000D01*
X82420000Y23260000D02*
X82420000Y27860000D01*
X82420000Y27860000D02*
X78820000Y27860000D01*
X78820000Y27860000D02*
X78820000Y23260000D01*
X78820000Y23260000D02*
X82420000Y23260000D01*
X78820000Y27860000D02*
X76820000Y26360000D01*
X78820000Y23260000D02*
X76820000Y24760000D01*
X70710000Y26360000D02*
X76820000Y26360000D01*
X76820000Y26360000D02*
X76820000Y24760000D01*
X76820000Y24760000D02*
X71520000Y24760000D01*
X21020000Y8880000D02*
X21020000Y26680000D01*
X21020000Y26680000D02*
X70360000Y26680000D01*
X70360000Y26680000D02*
X71520000Y25710000D01*
X71520000Y25710000D02*
X71520000Y8880000D01*
X71520000Y8880000D02*
X21020000Y8880000D01*
%TD*%
%TO.C,J2*%
D11*
X46696380Y27908953D02*
X47696380Y28575620D01*
X46696380Y28575620D02*
X47696380Y27908953D01*
X46696380Y28813715D02*
X46696380Y29385143D01*
X47696380Y29099429D02*
X46696380Y29099429D01*
X47410666Y29670858D02*
X47410666Y30147048D01*
X47696380Y29575620D02*
X46696380Y29908953D01*
X47696380Y30242286D01*
X47696380Y31051810D02*
X47696380Y30575620D01*
X46696380Y30575620D01*
X47791619Y31147048D02*
X47791619Y31908953D01*
X47648761Y32575620D02*
X47696380Y32480381D01*
X47696380Y32289905D01*
X47648761Y32194667D01*
X47601142Y32147048D01*
X47505904Y32099429D01*
X47220190Y32099429D01*
X47124952Y32147048D01*
X47077333Y32194667D01*
X47029714Y32289905D01*
X47029714Y32480381D01*
X47077333Y32575620D01*
X47696380Y33147048D02*
X47648761Y33051810D01*
X47601142Y33004191D01*
X47505904Y32956572D01*
X47220190Y32956572D01*
X47124952Y33004191D01*
X47077333Y33051810D01*
X47029714Y33147048D01*
X47029714Y33289905D01*
X47077333Y33385143D01*
X47124952Y33432762D01*
X47220190Y33480381D01*
X47505904Y33480381D01*
X47601142Y33432762D01*
X47648761Y33385143D01*
X47696380Y33289905D01*
X47696380Y33147048D01*
X47029714Y33908953D02*
X47696380Y33908953D01*
X47124952Y33908953D02*
X47077333Y33956572D01*
X47029714Y34051810D01*
X47029714Y34194667D01*
X47077333Y34289905D01*
X47172571Y34337524D01*
X47696380Y34337524D01*
X47029714Y34813715D02*
X47696380Y34813715D01*
X47124952Y34813715D02*
X47077333Y34861334D01*
X47029714Y34956572D01*
X47029714Y35099429D01*
X47077333Y35194667D01*
X47172571Y35242286D01*
X47696380Y35242286D01*
X47648761Y36099429D02*
X47696380Y36004191D01*
X47696380Y35813715D01*
X47648761Y35718477D01*
X47553523Y35670858D01*
X47172571Y35670858D01*
X47077333Y35718477D01*
X47029714Y35813715D01*
X47029714Y36004191D01*
X47077333Y36099429D01*
X47172571Y36147048D01*
X47267809Y36147048D01*
X47363047Y35670858D01*
X47648761Y37004191D02*
X47696380Y36908953D01*
X47696380Y36718477D01*
X47648761Y36623239D01*
X47601142Y36575620D01*
X47505904Y36528000D01*
X47220190Y36528000D01*
X47124952Y36575620D01*
X47077333Y36623239D01*
X47029714Y36718477D01*
X47029714Y36908953D01*
X47077333Y37004191D01*
X47029714Y37289905D02*
X47029714Y37670858D01*
X46696380Y37432762D02*
X47553523Y37432762D01*
X47648761Y37480381D01*
X47696380Y37575620D01*
X47696380Y37670858D01*
X47696380Y38147048D02*
X47648761Y38051810D01*
X47601142Y38004191D01*
X47505904Y37956572D01*
X47220190Y37956572D01*
X47124952Y38004191D01*
X47077333Y38051810D01*
X47029714Y38147048D01*
X47029714Y38289905D01*
X47077333Y38385143D01*
X47124952Y38432762D01*
X47220190Y38480381D01*
X47505904Y38480381D01*
X47601142Y38432762D01*
X47648761Y38385143D01*
X47696380Y38289905D01*
X47696380Y38147048D01*
X47696380Y38908953D02*
X47029714Y38908953D01*
X47220190Y38908953D02*
X47124952Y38956572D01*
X47077333Y39004191D01*
X47029714Y39099429D01*
X47029714Y39194667D01*
X38020666Y32805620D02*
X38020666Y32091334D01*
X37973047Y31948477D01*
X37877809Y31853239D01*
X37734952Y31805620D01*
X37639714Y31805620D01*
X38449238Y32710381D02*
X38496857Y32758000D01*
X38592095Y32805620D01*
X38830190Y32805620D01*
X38925428Y32758000D01*
X38973047Y32710381D01*
X39020666Y32615143D01*
X39020666Y32519905D01*
X38973047Y32377048D01*
X38401619Y31805620D01*
X39020666Y31805620D01*
%TO.C,C1*%
X43215714Y3127620D02*
X43310952Y3127620D01*
X43406190Y3080000D01*
X43453809Y3032381D01*
X43501428Y2937143D01*
X43549047Y2746667D01*
X43549047Y2508572D01*
X43501428Y2318096D01*
X43453809Y2222858D01*
X43406190Y2175239D01*
X43310952Y2127620D01*
X43215714Y2127620D01*
X43120476Y2175239D01*
X43072857Y2222858D01*
X43025238Y2318096D01*
X42977619Y2508572D01*
X42977619Y2746667D01*
X43025238Y2937143D01*
X43072857Y3032381D01*
X43120476Y3080000D01*
X43215714Y3127620D01*
X43977619Y2222858D02*
X44025238Y2175239D01*
X43977619Y2127620D01*
X43930000Y2175239D01*
X43977619Y2222858D01*
X43977619Y2127620D01*
X44977619Y2127620D02*
X44406190Y2127620D01*
X44691904Y2127620D02*
X44691904Y3127620D01*
X44596666Y2984762D01*
X44501428Y2889524D01*
X44406190Y2841905D01*
X45834761Y2794286D02*
X45834761Y2127620D01*
X45406190Y2794286D02*
X45406190Y2270477D01*
X45453809Y2175239D01*
X45549047Y2127620D01*
X45691904Y2127620D01*
X45787142Y2175239D01*
X45834761Y2222858D01*
X44263333Y4722858D02*
X44215714Y4675239D01*
X44072857Y4627620D01*
X43977619Y4627620D01*
X43834761Y4675239D01*
X43739523Y4770477D01*
X43691904Y4865715D01*
X43644285Y5056191D01*
X43644285Y5199048D01*
X43691904Y5389524D01*
X43739523Y5484762D01*
X43834761Y5580000D01*
X43977619Y5627620D01*
X44072857Y5627620D01*
X44215714Y5580000D01*
X44263333Y5532381D01*
X45215714Y4627620D02*
X44644285Y4627620D01*
X44930000Y4627620D02*
X44930000Y5627620D01*
X44834761Y5484762D01*
X44739523Y5389524D01*
X44644285Y5341905D01*
%TO.C,D1*%
X14161190Y33837858D02*
X14637380Y33837858D01*
X13637380Y33504524D02*
X14161190Y33837858D01*
X13637380Y34171191D01*
X14113571Y34504524D02*
X14113571Y34837858D01*
X14637380Y34980715D02*
X14637380Y34504524D01*
X13637380Y34504524D01*
X13637380Y34980715D01*
X14637380Y35885477D02*
X14637380Y35409286D01*
X13637380Y35409286D01*
X14637380Y36695000D02*
X14637380Y36218810D01*
X13637380Y36218810D01*
X13637380Y37218810D02*
X13637380Y37409286D01*
X13685000Y37504524D01*
X13780238Y37599762D01*
X13970714Y37647381D01*
X14304047Y37647381D01*
X14494523Y37599762D01*
X14589761Y37504524D01*
X14637380Y37409286D01*
X14637380Y37218810D01*
X14589761Y37123572D01*
X14494523Y37028334D01*
X14304047Y36980715D01*
X13970714Y36980715D01*
X13780238Y37028334D01*
X13685000Y37123572D01*
X13637380Y37218810D01*
X13637380Y37980715D02*
X14637380Y38218810D01*
X13923095Y38409286D01*
X14637380Y38599762D01*
X13637380Y38837858D01*
%TO.C,J1*%
X4318571Y7199334D02*
X4794761Y7199334D01*
X4223333Y6913620D02*
X4556666Y7913620D01*
X4890000Y6913620D01*
X5080476Y7913620D02*
X5413809Y6913620D01*
X5747142Y7913620D01*
X6651904Y6913620D02*
X6318571Y7389810D01*
X6080476Y6913620D02*
X6080476Y7913620D01*
X6461428Y7913620D01*
X6556666Y7866000D01*
X6604285Y7818381D01*
X6651904Y7723143D01*
X6651904Y7580286D01*
X6604285Y7485048D01*
X6556666Y7437429D01*
X6461428Y7389810D01*
X6080476Y7389810D01*
X7080476Y7294572D02*
X7842380Y7294572D01*
X8318571Y6913620D02*
X8318571Y7913620D01*
X8747142Y6961239D02*
X8890000Y6913620D01*
X9128095Y6913620D01*
X9223333Y6961239D01*
X9270952Y7008858D01*
X9318571Y7104096D01*
X9318571Y7199334D01*
X9270952Y7294572D01*
X9223333Y7342191D01*
X9128095Y7389810D01*
X8937619Y7437429D01*
X8842380Y7485048D01*
X8794761Y7532667D01*
X8747142Y7627905D01*
X8747142Y7723143D01*
X8794761Y7818381D01*
X8842380Y7866000D01*
X8937619Y7913620D01*
X9175714Y7913620D01*
X9318571Y7866000D01*
X9747142Y6913620D02*
X9747142Y7913620D01*
X10128095Y7913620D01*
X10223333Y7866000D01*
X10270952Y7818381D01*
X10318571Y7723143D01*
X10318571Y7580286D01*
X10270952Y7485048D01*
X10223333Y7437429D01*
X10128095Y7389810D01*
X9747142Y7389810D01*
X10747142Y7294572D02*
X11509047Y7294572D01*
X12509047Y6913620D02*
X11937619Y6913620D01*
X12223333Y6913620D02*
X12223333Y7913620D01*
X12128095Y7770762D01*
X12032857Y7675524D01*
X11937619Y7627905D01*
X13128095Y7913620D02*
X13223333Y7913620D01*
X13318571Y7866000D01*
X13366190Y7818381D01*
X13413809Y7723143D01*
X13461428Y7532667D01*
X13461428Y7294572D01*
X13413809Y7104096D01*
X13366190Y7008858D01*
X13318571Y6961239D01*
X13223333Y6913620D01*
X13128095Y6913620D01*
X13032857Y6961239D01*
X12985238Y7008858D01*
X12937619Y7104096D01*
X12890000Y7294572D01*
X12890000Y7532667D01*
X12937619Y7723143D01*
X12985238Y7818381D01*
X13032857Y7866000D01*
X13128095Y7913620D01*
X8556666Y19597620D02*
X8556666Y18883334D01*
X8509047Y18740477D01*
X8413809Y18645239D01*
X8270952Y18597620D01*
X8175714Y18597620D01*
X9556666Y18597620D02*
X8985238Y18597620D01*
X9270952Y18597620D02*
X9270952Y19597620D01*
X9175714Y19454762D01*
X9080476Y19359524D01*
X8985238Y19311905D01*
%TO.C,R1*%
X56554761Y27657620D02*
X55983333Y27657620D01*
X56269047Y27657620D02*
X56269047Y28657620D01*
X56173809Y28514762D01*
X56078571Y28419524D01*
X55983333Y28371905D01*
X57173809Y28657620D02*
X57269047Y28657620D01*
X57364285Y28610000D01*
X57411904Y28562381D01*
X57459523Y28467143D01*
X57507142Y28276667D01*
X57507142Y28038572D01*
X57459523Y27848096D01*
X57411904Y27752858D01*
X57364285Y27705239D01*
X57269047Y27657620D01*
X57173809Y27657620D01*
X57078571Y27705239D01*
X57030952Y27752858D01*
X56983333Y27848096D01*
X56935714Y28038572D01*
X56935714Y28276667D01*
X56983333Y28467143D01*
X57030952Y28562381D01*
X57078571Y28610000D01*
X57173809Y28657620D01*
X57935714Y27657620D02*
X57935714Y28657620D01*
X58030952Y28038572D02*
X58316666Y27657620D01*
X58316666Y28324286D02*
X57935714Y27943334D01*
X56983333Y30027620D02*
X56650000Y30503810D01*
X56411904Y30027620D02*
X56411904Y31027620D01*
X56792857Y31027620D01*
X56888095Y30980000D01*
X56935714Y30932381D01*
X56983333Y30837143D01*
X56983333Y30694286D01*
X56935714Y30599048D01*
X56888095Y30551429D01*
X56792857Y30503810D01*
X56411904Y30503810D01*
X57935714Y30027620D02*
X57364285Y30027620D01*
X57650000Y30027620D02*
X57650000Y31027620D01*
X57554761Y30884762D01*
X57459523Y30789524D01*
X57364285Y30741905D01*
%TO.C,R2*%
X14560714Y25908096D02*
X15227380Y25908096D01*
X14179761Y25670000D02*
X14894047Y25431905D01*
X14894047Y26050953D01*
X14227380Y26336667D02*
X14227380Y27003334D01*
X15227380Y26574762D01*
X14227380Y27574762D02*
X14227380Y27670000D01*
X14275000Y27765239D01*
X14322619Y27812858D01*
X14417857Y27860477D01*
X14608333Y27908096D01*
X14846428Y27908096D01*
X15036904Y27860477D01*
X15132142Y27812858D01*
X15179761Y27765239D01*
X15227380Y27670000D01*
X15227380Y27574762D01*
X15179761Y27479524D01*
X15132142Y27431905D01*
X15036904Y27384286D01*
X14846428Y27336667D01*
X14608333Y27336667D01*
X14417857Y27384286D01*
X14322619Y27431905D01*
X14275000Y27479524D01*
X14227380Y27574762D01*
X17597380Y26503334D02*
X17121190Y26170000D01*
X17597380Y25931905D02*
X16597380Y25931905D01*
X16597380Y26312858D01*
X16645000Y26408096D01*
X16692619Y26455715D01*
X16787857Y26503334D01*
X16930714Y26503334D01*
X17025952Y26455715D01*
X17073571Y26408096D01*
X17121190Y26312858D01*
X17121190Y25931905D01*
X16692619Y26884286D02*
X16645000Y26931905D01*
X16597380Y27027143D01*
X16597380Y27265239D01*
X16645000Y27360477D01*
X16692619Y27408096D01*
X16787857Y27455715D01*
X16883095Y27455715D01*
X17025952Y27408096D01*
X17597380Y26836667D01*
X17597380Y27455715D01*
%TO.C,U1*%
D12*
X20120000Y8408572D02*
X20120000Y8694286D01*
X20291428Y8351429D02*
X19691428Y8551429D01*
X20291428Y8751429D01*
X19691428Y8865715D02*
X19691428Y9208572D01*
X20291428Y9037143D02*
X19691428Y9037143D01*
X20291428Y9408572D02*
X19891428Y9408572D01*
X19948571Y9408572D02*
X19920000Y9437143D01*
X19891428Y9494286D01*
X19891428Y9580000D01*
X19920000Y9637143D01*
X19977142Y9665715D01*
X20291428Y9665715D01*
X19977142Y9665715D02*
X19920000Y9694286D01*
X19891428Y9751429D01*
X19891428Y9837143D01*
X19920000Y9894286D01*
X19977142Y9922858D01*
X20291428Y9922858D01*
X20262857Y10437143D02*
X20291428Y10380000D01*
X20291428Y10265715D01*
X20262857Y10208572D01*
X20205714Y10180000D01*
X19977142Y10180000D01*
X19920000Y10208572D01*
X19891428Y10265715D01*
X19891428Y10380000D01*
X19920000Y10437143D01*
X19977142Y10465715D01*
X20034285Y10465715D01*
X20091428Y10180000D01*
X19891428Y10980000D02*
X20377142Y10980000D01*
X20434285Y10951429D01*
X20462857Y10922858D01*
X20491428Y10865715D01*
X20491428Y10780000D01*
X20462857Y10722858D01*
X20262857Y10980000D02*
X20291428Y10922858D01*
X20291428Y10808572D01*
X20262857Y10751429D01*
X20234285Y10722858D01*
X20177142Y10694286D01*
X20005714Y10694286D01*
X19948571Y10722858D01*
X19920000Y10751429D01*
X19891428Y10808572D01*
X19891428Y10922858D01*
X19920000Y10980000D01*
X20291428Y11522858D02*
X19977142Y11522858D01*
X19920000Y11494286D01*
X19891428Y11437143D01*
X19891428Y11322858D01*
X19920000Y11265715D01*
X20262857Y11522858D02*
X20291428Y11465715D01*
X20291428Y11322858D01*
X20262857Y11265715D01*
X20205714Y11237143D01*
X20148571Y11237143D01*
X20091428Y11265715D01*
X20062857Y11322858D01*
X20062857Y11465715D01*
X20034285Y11522858D01*
X19891428Y12065715D02*
X20291428Y12065715D01*
X19662857Y11922858D02*
X20091428Y11780000D01*
X20091428Y12151429D01*
X19948571Y12465715D02*
X19920000Y12408572D01*
X19891428Y12380000D01*
X19834285Y12351429D01*
X19805714Y12351429D01*
X19748571Y12380000D01*
X19720000Y12408572D01*
X19691428Y12465715D01*
X19691428Y12580000D01*
X19720000Y12637143D01*
X19748571Y12665715D01*
X19805714Y12694286D01*
X19834285Y12694286D01*
X19891428Y12665715D01*
X19920000Y12637143D01*
X19948571Y12580000D01*
X19948571Y12465715D01*
X19977142Y12408572D01*
X20005714Y12380000D01*
X20062857Y12351429D01*
X20177142Y12351429D01*
X20234285Y12380000D01*
X20262857Y12408572D01*
X20291428Y12465715D01*
X20291428Y12580000D01*
X20262857Y12637143D01*
X20234285Y12665715D01*
X20177142Y12694286D01*
X20062857Y12694286D01*
X20005714Y12665715D01*
X19977142Y12637143D01*
X19948571Y12580000D01*
X20120000Y12922858D02*
X20120000Y13208572D01*
X20291428Y12865715D02*
X19691428Y13065715D01*
X20291428Y13265715D01*
X19662857Y13894286D02*
X20434285Y13380000D01*
X20291428Y14094286D02*
X19691428Y14094286D01*
X19691428Y14322858D01*
X19720000Y14380000D01*
X19748571Y14408572D01*
X19805714Y14437143D01*
X19891428Y14437143D01*
X19948571Y14408572D01*
X19977142Y14380000D01*
X20005714Y14322858D01*
X20005714Y14094286D01*
X20120000Y14665715D02*
X20120000Y14951429D01*
X20291428Y14608572D02*
X19691428Y14808572D01*
X20291428Y15008572D01*
X19662857Y15637143D02*
X20434285Y15122858D01*
X19948571Y15922858D02*
X19920000Y15865715D01*
X19891428Y15837143D01*
X19834285Y15808572D01*
X19805714Y15808572D01*
X19748571Y15837143D01*
X19720000Y15865715D01*
X19691428Y15922858D01*
X19691428Y16037143D01*
X19720000Y16094286D01*
X19748571Y16122858D01*
X19805714Y16151429D01*
X19834285Y16151429D01*
X19891428Y16122858D01*
X19920000Y16094286D01*
X19948571Y16037143D01*
X19948571Y15922858D01*
X19977142Y15865715D01*
X20005714Y15837143D01*
X20062857Y15808572D01*
X20177142Y15808572D01*
X20234285Y15837143D01*
X20262857Y15865715D01*
X20291428Y15922858D01*
X20291428Y16037143D01*
X20262857Y16094286D01*
X20234285Y16122858D01*
X20177142Y16151429D01*
X20062857Y16151429D01*
X20005714Y16122858D01*
X19977142Y16094286D01*
X19948571Y16037143D01*
X19948571Y16494286D02*
X19920000Y16437143D01*
X19891428Y16408572D01*
X19834285Y16380000D01*
X19805714Y16380000D01*
X19748571Y16408572D01*
X19720000Y16437143D01*
X19691428Y16494286D01*
X19691428Y16608572D01*
X19720000Y16665715D01*
X19748571Y16694286D01*
X19805714Y16722858D01*
X19834285Y16722858D01*
X19891428Y16694286D01*
X19920000Y16665715D01*
X19948571Y16608572D01*
X19948571Y16494286D01*
X19977142Y16437143D01*
X20005714Y16408572D01*
X20062857Y16380000D01*
X20177142Y16380000D01*
X20234285Y16408572D01*
X20262857Y16437143D01*
X20291428Y16494286D01*
X20291428Y16608572D01*
X20262857Y16665715D01*
X20234285Y16694286D01*
X20177142Y16722858D01*
X20062857Y16722858D01*
X20005714Y16694286D01*
X19977142Y16665715D01*
X19948571Y16608572D01*
X20120000Y16951429D02*
X20120000Y17237143D01*
X20291428Y16894286D02*
X19691428Y17094286D01*
X20291428Y17294286D01*
X19662857Y17922858D02*
X20434285Y17408572D01*
X20291428Y18122858D02*
X19691428Y18122858D01*
X19691428Y18351429D01*
X19720000Y18408572D01*
X19748571Y18437143D01*
X19805714Y18465715D01*
X19891428Y18465715D01*
X19948571Y18437143D01*
X19977142Y18408572D01*
X20005714Y18351429D01*
X20005714Y18122858D01*
X20120000Y18694286D02*
X20120000Y18980000D01*
X20291428Y18637143D02*
X19691428Y18837143D01*
X20291428Y19037143D01*
X19662857Y19665715D02*
X20434285Y19151429D01*
X20291428Y20180000D02*
X20291428Y19837143D01*
X20291428Y20008572D02*
X19691428Y20008572D01*
X19777142Y19951429D01*
X19834285Y19894286D01*
X19862857Y19837143D01*
X19691428Y20694286D02*
X19691428Y20580000D01*
X19720000Y20522858D01*
X19748571Y20494286D01*
X19834285Y20437143D01*
X19948571Y20408572D01*
X20177142Y20408572D01*
X20234285Y20437143D01*
X20262857Y20465715D01*
X20291428Y20522858D01*
X20291428Y20637143D01*
X20262857Y20694286D01*
X20234285Y20722858D01*
X20177142Y20751429D01*
X20034285Y20751429D01*
X19977142Y20722858D01*
X19948571Y20694286D01*
X19920000Y20637143D01*
X19920000Y20522858D01*
X19948571Y20465715D01*
X19977142Y20437143D01*
X20034285Y20408572D01*
X19948571Y21094286D02*
X19920000Y21037143D01*
X19891428Y21008572D01*
X19834285Y20980000D01*
X19805714Y20980000D01*
X19748571Y21008572D01*
X19720000Y21037143D01*
X19691428Y21094286D01*
X19691428Y21208572D01*
X19720000Y21265715D01*
X19748571Y21294286D01*
X19805714Y21322858D01*
X19834285Y21322858D01*
X19891428Y21294286D01*
X19920000Y21265715D01*
X19948571Y21208572D01*
X19948571Y21094286D01*
X19977142Y21037143D01*
X20005714Y21008572D01*
X20062857Y20980000D01*
X20177142Y20980000D01*
X20234285Y21008572D01*
X20262857Y21037143D01*
X20291428Y21094286D01*
X20291428Y21208572D01*
X20262857Y21265715D01*
X20234285Y21294286D01*
X20177142Y21322858D01*
X20062857Y21322858D01*
X20005714Y21294286D01*
X19977142Y21265715D01*
X19948571Y21208572D01*
X20120000Y21551429D02*
X20120000Y21837143D01*
X20291428Y21494286D02*
X19691428Y21694286D01*
X20291428Y21894286D01*
X19662857Y22522858D02*
X20434285Y22008572D01*
X20291428Y22722858D02*
X19691428Y22722858D01*
X19691428Y22951429D01*
X19720000Y23008572D01*
X19748571Y23037143D01*
X19805714Y23065715D01*
X19891428Y23065715D01*
X19948571Y23037143D01*
X19977142Y23008572D01*
X20005714Y22951429D01*
X20005714Y22722858D01*
X20120000Y23294286D02*
X20120000Y23580000D01*
X20291428Y23237143D02*
X19691428Y23437143D01*
X20291428Y23637143D01*
X19662857Y24265715D02*
X20434285Y23751429D01*
X19691428Y24408572D02*
X19691428Y24780000D01*
X19920000Y24580000D01*
X19920000Y24665715D01*
X19948571Y24722858D01*
X19977142Y24751429D01*
X20034285Y24780000D01*
X20177142Y24780000D01*
X20234285Y24751429D01*
X20262857Y24722858D01*
X20291428Y24665715D01*
X20291428Y24494286D01*
X20262857Y24437143D01*
X20234285Y24408572D01*
X19748571Y25008572D02*
X19720000Y25037143D01*
X19691428Y25094286D01*
X19691428Y25237143D01*
X19720000Y25294286D01*
X19748571Y25322858D01*
X19805714Y25351429D01*
X19862857Y25351429D01*
X19948571Y25322858D01*
X20291428Y24980000D01*
X20291428Y25351429D01*
X19948571Y25694286D02*
X19920000Y25637143D01*
X19891428Y25608572D01*
X19834285Y25580000D01*
X19805714Y25580000D01*
X19748571Y25608572D01*
X19720000Y25637143D01*
X19691428Y25694286D01*
X19691428Y25808572D01*
X19720000Y25865715D01*
X19748571Y25894286D01*
X19805714Y25922858D01*
X19834285Y25922858D01*
X19891428Y25894286D01*
X19920000Y25865715D01*
X19948571Y25808572D01*
X19948571Y25694286D01*
X19977142Y25637143D01*
X20005714Y25608572D01*
X20062857Y25580000D01*
X20177142Y25580000D01*
X20234285Y25608572D01*
X20262857Y25637143D01*
X20291428Y25694286D01*
X20291428Y25808572D01*
X20262857Y25865715D01*
X20234285Y25894286D01*
X20177142Y25922858D01*
X20062857Y25922858D01*
X20005714Y25894286D01*
X19977142Y25865715D01*
X19948571Y25808572D01*
X19662857Y26608572D02*
X20434285Y26094286D01*
X20291428Y26808572D02*
X19691428Y26808572D01*
X19691428Y27037143D01*
X19720000Y27094286D01*
X19748571Y27122858D01*
X19805714Y27151429D01*
X19891428Y27151429D01*
X19948571Y27122858D01*
X19977142Y27094286D01*
X20005714Y27037143D01*
X20005714Y26808572D01*
D11*
X45722380Y17018096D02*
X46531904Y17018096D01*
X46627142Y17065715D01*
X46674761Y17113334D01*
X46722380Y17208572D01*
X46722380Y17399048D01*
X46674761Y17494286D01*
X46627142Y17541905D01*
X46531904Y17589524D01*
X45722380Y17589524D01*
X46722380Y18589524D02*
X46722380Y18018096D01*
X46722380Y18303810D02*
X45722380Y18303810D01*
X45865238Y18208572D01*
X45960476Y18113334D01*
X46008095Y18018096D01*
%TD*%
M02*
