%TF.GenerationSoftware,KiCad,Pcbnew,5.1.4-3.fc30*%
%TF.CreationDate,2019-10-13T14:30:58+02:00*%
%TF.ProjectId,atmega_prog_adapter_v3,61746d65-6761-45f7-9072-6f675f616461,1.0*%
%TF.SameCoordinates,PX59a0560PY76b1be0*%
%TF.FileFunction,Copper,L2,Bot*%
%TF.FilePolarity,Positive*%
%FSLAX46Y46*%
G04 Gerber Fmt 4.6, Leading zero omitted, Abs format (unit mm)*
G04 Created by KiCad (PCBNEW 5.1.4-3.fc30) date 2019-10-13 14:30:58*
%MOMM*%
%LPD*%
G04 APERTURE LIST*
%TA.AperFunction,ComponentPad*%
%ADD10O,1.700000X1.700000*%
%TD*%
%TA.AperFunction,ComponentPad*%
%ADD11R,1.700000X1.700000*%
%TD*%
%TA.AperFunction,ComponentPad*%
%ADD12C,1.600000*%
%TD*%
%TA.AperFunction,ComponentPad*%
%ADD13C,1.800000*%
%TD*%
%TA.AperFunction,ComponentPad*%
%ADD14R,1.800000X1.800000*%
%TD*%
%TA.AperFunction,ComponentPad*%
%ADD15O,1.727200X1.727200*%
%TD*%
%TA.AperFunction,ComponentPad*%
%ADD16R,1.727200X1.727200*%
%TD*%
%TA.AperFunction,ComponentPad*%
%ADD17O,1.600000X1.600000*%
%TD*%
%TA.AperFunction,ComponentPad*%
%ADD18O,1.440000X2.000000*%
%TD*%
%TA.AperFunction,ComponentPad*%
%ADD19R,1.440000X2.000000*%
%TD*%
%TA.AperFunction,Conductor*%
%ADD20C,0.500000*%
%TD*%
G04 APERTURE END LIST*
D10*
%TO.P,J2,3*%
%TO.N,/XTAL2*%
X40894000Y32258000D03*
%TO.P,J2,2*%
%TO.N,GND*%
X38354000Y32258000D03*
D11*
%TO.P,J2,1*%
%TO.N,/XTAL1*%
X35814000Y32258000D03*
%TD*%
D12*
%TO.P,C1,2*%
%TO.N,GND*%
X45680000Y5080000D03*
%TO.P,C1,1*%
%TO.N,Net-(C1-Pad1)*%
X43180000Y5080000D03*
%TD*%
D13*
%TO.P,D1,2*%
%TO.N,Net-(D1-Pad2)*%
X17145000Y34925000D03*
D14*
%TO.P,D1,1*%
%TO.N,GND*%
X17145000Y37465000D03*
%TD*%
D15*
%TO.P,J1,10*%
%TO.N,GND*%
X10160000Y13970000D03*
%TO.P,J1,9*%
%TO.N,/MISO*%
X7620000Y13970000D03*
%TO.P,J1,8*%
%TO.N,GND*%
X10160000Y16510000D03*
%TO.P,J1,7*%
%TO.N,/SCK*%
X7620000Y16510000D03*
%TO.P,J1,6*%
%TO.N,GND*%
X10160000Y19050000D03*
%TO.P,J1,5*%
%TO.N,/RESET*%
X7620000Y19050000D03*
%TO.P,J1,4*%
%TO.N,GND*%
X10160000Y21590000D03*
%TO.P,J1,3*%
%TO.N,Net-(J1-Pad3)*%
X7620000Y21590000D03*
%TO.P,J1,2*%
%TO.N,Net-(C1-Pad1)*%
X10160000Y24130000D03*
D16*
%TO.P,J1,1*%
%TO.N,/MOSI*%
X7620000Y24130000D03*
%TD*%
D17*
%TO.P,R1,2*%
%TO.N,/RESET*%
X60960000Y30480000D03*
D12*
%TO.P,R1,1*%
%TO.N,Net-(C1-Pad1)*%
X53340000Y30480000D03*
%TD*%
D17*
%TO.P,R2,2*%
%TO.N,Net-(R2-Pad2)*%
X17145000Y22860000D03*
D12*
%TO.P,R2,1*%
%TO.N,Net-(D1-Pad2)*%
X17145000Y30480000D03*
%TD*%
D18*
%TO.P,U1,15*%
%TO.N,Net-(U1-Pad15)*%
X27940000Y12700000D03*
%TO.P,U1,14*%
%TO.N,Net-(R2-Pad2)*%
X27940000Y22860000D03*
%TO.P,U1,16*%
%TO.N,Net-(U1-Pad16)*%
X30480000Y12700000D03*
%TO.P,U1,13*%
%TO.N,Net-(U1-Pad13)*%
X30480000Y22860000D03*
%TO.P,U1,17*%
%TO.N,/MOSI*%
X33020000Y12700000D03*
%TO.P,U1,12*%
%TO.N,Net-(U1-Pad12)*%
X33020000Y22860000D03*
%TO.P,U1,18*%
%TO.N,/MISO*%
X35560000Y12700000D03*
%TO.P,U1,11*%
%TO.N,Net-(U1-Pad11)*%
X35560000Y22860000D03*
%TO.P,U1,19*%
%TO.N,/SCK*%
X38100000Y12700000D03*
%TO.P,U1,10*%
%TO.N,/XTAL2*%
X38100000Y22860000D03*
%TO.P,U1,20*%
%TO.N,Net-(C1-Pad1)*%
X40640000Y12700000D03*
%TO.P,U1,9*%
%TO.N,/XTAL1*%
X40640000Y22860000D03*
%TO.P,U1,21*%
%TO.N,Net-(C1-Pad1)*%
X43180000Y12700000D03*
%TO.P,U1,8*%
%TO.N,GND*%
X43180000Y22860000D03*
%TO.P,U1,22*%
X45720000Y12700000D03*
%TO.P,U1,7*%
%TO.N,Net-(C1-Pad1)*%
X45720000Y22860000D03*
%TO.P,U1,23*%
%TO.N,Net-(U1-Pad23)*%
X48260000Y12700000D03*
%TO.P,U1,6*%
%TO.N,Net-(U1-Pad6)*%
X48260000Y22860000D03*
%TO.P,U1,24*%
%TO.N,Net-(U1-Pad24)*%
X50800000Y12700000D03*
%TO.P,U1,5*%
%TO.N,Net-(U1-Pad5)*%
X50800000Y22860000D03*
%TO.P,U1,25*%
%TO.N,Net-(U1-Pad25)*%
X53340000Y12700000D03*
%TO.P,U1,4*%
%TO.N,Net-(U1-Pad4)*%
X53340000Y22860000D03*
%TO.P,U1,26*%
%TO.N,Net-(U1-Pad26)*%
X55880000Y12700000D03*
%TO.P,U1,3*%
%TO.N,Net-(U1-Pad3)*%
X55880000Y22860000D03*
%TO.P,U1,27*%
%TO.N,Net-(U1-Pad27)*%
X58420000Y12700000D03*
%TO.P,U1,2*%
%TO.N,Net-(U1-Pad2)*%
X58420000Y22860000D03*
%TO.P,U1,28*%
%TO.N,Net-(U1-Pad28)*%
X60960000Y12700000D03*
D19*
%TO.P,U1,1*%
%TO.N,/RESET*%
X60960000Y22860000D03*
%TD*%
D20*
%TO.N,Net-(C1-Pad1)*%
X43180000Y12700000D02*
X44400000Y12700000D01*
X44400000Y12700000D02*
X44400000Y13920000D01*
X44400000Y13920000D02*
X45902500Y15422500D01*
X45902500Y15422500D02*
X45902500Y22860000D01*
X45720000Y22860000D02*
X45902500Y22860000D01*
X45902500Y22860000D02*
X45902500Y23042500D01*
X45902500Y23042500D02*
X53340000Y30480000D01*
X43180000Y12700000D02*
X43180000Y5080000D01*
%TO.N,GND*%
X38354000Y30908000D02*
X43180000Y26082000D01*
X43180000Y26082000D02*
X43180000Y22860000D01*
X38354000Y32258000D02*
X38354000Y30908000D01*
X10160000Y16510000D02*
X10160000Y13970000D01*
X10160000Y19050000D02*
X10160000Y16510000D01*
X45720000Y12700000D02*
X45720000Y5120000D01*
X45720000Y5120000D02*
X45680000Y5080000D01*
X10160000Y21590000D02*
X10160000Y19050000D01*
%TO.N,Net-(D1-Pad2)*%
X17145000Y30480000D02*
X17145000Y34925000D01*
%TO.N,/MOSI*%
X33020000Y12700000D02*
X31800000Y12700000D01*
X31800000Y12700000D02*
X31800000Y13386200D01*
X31800000Y13386200D02*
X19734200Y25452000D01*
X19734200Y25452000D02*
X8942000Y25452000D01*
X8942000Y25452000D02*
X7620000Y24130000D01*
%TO.N,/MISO*%
X35560000Y12700000D02*
X34340000Y12700000D01*
X34340000Y12700000D02*
X34340000Y12013800D01*
X34340000Y12013800D02*
X33558200Y11232000D01*
X33558200Y11232000D02*
X10358000Y11232000D01*
X10358000Y11232000D02*
X7620000Y13970000D01*
%TO.N,/XTAL1*%
X35814000Y32258000D02*
X35814000Y30908000D01*
X40640000Y22860000D02*
X40640000Y26082000D01*
X40640000Y26082000D02*
X35814000Y30908000D01*
%TO.N,/XTAL2*%
X40894000Y32258000D02*
X40894000Y30908000D01*
X38100000Y22860000D02*
X39320000Y22860000D01*
X39320000Y22860000D02*
X39320000Y22173700D01*
X39320000Y22173700D02*
X40086200Y21407500D01*
X40086200Y21407500D02*
X43681600Y21407500D01*
X43681600Y21407500D02*
X44350700Y22076600D01*
X44350700Y22076600D02*
X44350700Y27451300D01*
X44350700Y27451300D02*
X40894000Y30908000D01*
%TD*%
M02*
