%TF.GenerationSoftware,KiCad,Pcbnew,5.1.4-3.fc31*%
%TF.CreationDate,2019-11-21T06:29:58+01:00*%
%TF.ProjectId,microUSB-to-pcb-power-adapter,6d696372-6f55-4534-922d-746f2d706362,1.0*%
%TF.SameCoordinates,PX7b89fa0PY5ca77b8*%
%TF.FileFunction,Soldermask,Bot*%
%TF.FilePolarity,Negative*%
%FSLAX46Y46*%
G04 Gerber Fmt 4.6, Leading zero omitted, Abs format (unit mm)*
G04 Created by KiCad (PCBNEW 5.1.4-3.fc31) date 2019-11-21 06:29:58*
%MOMM*%
%LPD*%
G04 APERTURE LIST*
%ADD10C,0.150000*%
G04 APERTURE END LIST*
D10*
G36*
X14080443Y4704481D02*
G01*
X14146627Y4697963D01*
X14316466Y4646443D01*
X14472991Y4562778D01*
X14508729Y4533448D01*
X14610186Y4450186D01*
X14693448Y4348729D01*
X14722778Y4312991D01*
X14806443Y4156466D01*
X14857963Y3986627D01*
X14875359Y3810000D01*
X14857963Y3633373D01*
X14806443Y3463534D01*
X14722778Y3307009D01*
X14693448Y3271271D01*
X14610186Y3169814D01*
X14508729Y3086552D01*
X14472991Y3057222D01*
X14316466Y2973557D01*
X14146627Y2922037D01*
X14080443Y2915519D01*
X14014260Y2909000D01*
X13925740Y2909000D01*
X13859557Y2915519D01*
X13793373Y2922037D01*
X13623534Y2973557D01*
X13467009Y3057222D01*
X13431271Y3086552D01*
X13329814Y3169814D01*
X13246552Y3271271D01*
X13217222Y3307009D01*
X13133557Y3463534D01*
X13082037Y3633373D01*
X13064641Y3810000D01*
X13082037Y3986627D01*
X13133557Y4156466D01*
X13217222Y4312991D01*
X13246552Y4348729D01*
X13329814Y4450186D01*
X13431271Y4533448D01*
X13467009Y4562778D01*
X13623534Y4646443D01*
X13793373Y4697963D01*
X13859557Y4704481D01*
X13925740Y4711000D01*
X14014260Y4711000D01*
X14080443Y4704481D01*
X14080443Y4704481D01*
G37*
G36*
X12331000Y2909000D02*
G01*
X10529000Y2909000D01*
X10529000Y4711000D01*
X12331000Y4711000D01*
X12331000Y2909000D01*
X12331000Y2909000D01*
G37*
G36*
X14080442Y7244482D02*
G01*
X14146627Y7237963D01*
X14316466Y7186443D01*
X14472991Y7102778D01*
X14508729Y7073448D01*
X14610186Y6990186D01*
X14693448Y6888729D01*
X14722778Y6852991D01*
X14806443Y6696466D01*
X14857963Y6526627D01*
X14875359Y6350000D01*
X14857963Y6173373D01*
X14806443Y6003534D01*
X14722778Y5847009D01*
X14693448Y5811271D01*
X14610186Y5709814D01*
X14508729Y5626552D01*
X14472991Y5597222D01*
X14316466Y5513557D01*
X14146627Y5462037D01*
X14080442Y5455518D01*
X14014260Y5449000D01*
X13925740Y5449000D01*
X13859558Y5455518D01*
X13793373Y5462037D01*
X13623534Y5513557D01*
X13467009Y5597222D01*
X13431271Y5626552D01*
X13329814Y5709814D01*
X13246552Y5811271D01*
X13217222Y5847009D01*
X13133557Y6003534D01*
X13082037Y6173373D01*
X13064641Y6350000D01*
X13082037Y6526627D01*
X13133557Y6696466D01*
X13217222Y6852991D01*
X13246552Y6888729D01*
X13329814Y6990186D01*
X13431271Y7073448D01*
X13467009Y7102778D01*
X13623534Y7186443D01*
X13793373Y7237963D01*
X13859558Y7244482D01*
X13925740Y7251000D01*
X14014260Y7251000D01*
X14080442Y7244482D01*
X14080442Y7244482D01*
G37*
G36*
X11540442Y7244482D02*
G01*
X11606627Y7237963D01*
X11776466Y7186443D01*
X11932991Y7102778D01*
X11968729Y7073448D01*
X12070186Y6990186D01*
X12153448Y6888729D01*
X12182778Y6852991D01*
X12266443Y6696466D01*
X12317963Y6526627D01*
X12335359Y6350000D01*
X12317963Y6173373D01*
X12266443Y6003534D01*
X12182778Y5847009D01*
X12153448Y5811271D01*
X12070186Y5709814D01*
X11968729Y5626552D01*
X11932991Y5597222D01*
X11776466Y5513557D01*
X11606627Y5462037D01*
X11540442Y5455518D01*
X11474260Y5449000D01*
X11385740Y5449000D01*
X11319558Y5455518D01*
X11253373Y5462037D01*
X11083534Y5513557D01*
X10927009Y5597222D01*
X10891271Y5626552D01*
X10789814Y5709814D01*
X10706552Y5811271D01*
X10677222Y5847009D01*
X10593557Y6003534D01*
X10542037Y6173373D01*
X10524641Y6350000D01*
X10542037Y6526627D01*
X10593557Y6696466D01*
X10677222Y6852991D01*
X10706552Y6888729D01*
X10789814Y6990186D01*
X10891271Y7073448D01*
X10927009Y7102778D01*
X11083534Y7186443D01*
X11253373Y7237963D01*
X11319558Y7244482D01*
X11385740Y7251000D01*
X11474260Y7251000D01*
X11540442Y7244482D01*
X11540442Y7244482D01*
G37*
M02*
