%TF.GenerationSoftware,KiCad,Pcbnew,5.1.4-3.fc31*%
%TF.CreationDate,2019-11-21T06:29:58+01:00*%
%TF.ProjectId,microUSB-to-pcb-power-adapter,6d696372-6f55-4534-922d-746f2d706362,1.0*%
%TF.SameCoordinates,PX7b89fa0PY5ca77b8*%
%TF.FileFunction,Legend,Top*%
%TF.FilePolarity,Positive*%
%FSLAX46Y46*%
G04 Gerber Fmt 4.6, Leading zero omitted, Abs format (unit mm)*
G04 Created by KiCad (PCBNEW 5.1.4-3.fc31) date 2019-11-21 06:29:58*
%MOMM*%
%LPD*%
G04 APERTURE LIST*
%ADD10C,0.150000*%
%ADD11C,0.120000*%
%ADD12R,1.482000X0.552000*%
%ADD13R,2.202000X1.577000*%
%ADD14R,2.002000X2.477000*%
%ADD15R,2.002000X1.277000*%
%ADD16R,1.802000X1.802000*%
%ADD17O,1.802000X1.802000*%
G04 APERTURE END LIST*
D10*
X13589047Y8818572D02*
X14350952Y8818572D01*
X11049047Y8818572D02*
X11810952Y8818572D01*
X11430000Y8437620D02*
X11430000Y9199524D01*
D11*
%TO.C,J1*%
X4250000Y1211999D02*
X4250000Y1591999D01*
X200000Y1211999D02*
X-60000Y1211999D01*
X4250000Y1211999D02*
X2480000Y1211999D01*
X4250000Y8831999D02*
X4250000Y8451999D01*
X2480000Y8831999D02*
X4250000Y8831999D01*
X-60000Y8831999D02*
X200000Y8831999D01*
D10*
X5292380Y4688666D02*
X6006666Y4688666D01*
X6149523Y4641047D01*
X6244761Y4545809D01*
X6292380Y4402952D01*
X6292380Y4307714D01*
X6292380Y5688666D02*
X6292380Y5117238D01*
X6292380Y5402952D02*
X5292380Y5402952D01*
X5435238Y5307714D01*
X5530476Y5212476D01*
X5578095Y5117238D01*
%TD*%
%LPC*%
D12*
%TO.C,J1*%
X4000000Y6321999D03*
X4000000Y5671999D03*
X4000000Y5021999D03*
X4000000Y4371999D03*
X4000000Y3721999D03*
D13*
X3640000Y7484499D03*
X3640000Y2559499D03*
D14*
X1340000Y7931999D03*
X1340000Y2111999D03*
D15*
X1340000Y5861999D03*
X1340000Y4181999D03*
%TD*%
D16*
%TO.C,J2*%
X11430000Y3810000D03*
D17*
X13970000Y3810000D03*
X11430000Y6350000D03*
X13970000Y6350000D03*
%TD*%
M02*
