%TF.GenerationSoftware,KiCad,Pcbnew,5.1.4-3.fc31*%
%TF.CreationDate,2019-11-21T06:29:58+01:00*%
%TF.ProjectId,microUSB-to-pcb-power-adapter,6d696372-6f55-4534-922d-746f2d706362,1.0*%
%TF.SameCoordinates,PX7b89fa0PY5ca77b8*%
%TF.FileFunction,Copper,L1,Top*%
%TF.FilePolarity,Positive*%
%FSLAX46Y46*%
G04 Gerber Fmt 4.6, Leading zero omitted, Abs format (unit mm)*
G04 Created by KiCad (PCBNEW 5.1.4-3.fc31) date 2019-11-21 06:29:58*
%MOMM*%
%LPD*%
G04 APERTURE LIST*
%TA.AperFunction,SMDPad,CuDef*%
%ADD10R,1.380000X0.450000*%
%TD*%
%TA.AperFunction,SMDPad,CuDef*%
%ADD11R,2.100000X1.475000*%
%TD*%
%TA.AperFunction,SMDPad,CuDef*%
%ADD12R,1.900000X2.375000*%
%TD*%
%TA.AperFunction,SMDPad,CuDef*%
%ADD13R,1.900000X1.175000*%
%TD*%
%TA.AperFunction,ComponentPad*%
%ADD14R,1.700000X1.700000*%
%TD*%
%TA.AperFunction,ComponentPad*%
%ADD15O,1.700000X1.700000*%
%TD*%
%TA.AperFunction,Conductor*%
%ADD16C,0.400000*%
%TD*%
G04 APERTURE END LIST*
D10*
%TO.P,J1,1*%
%TO.N,Net-(J1-Pad1)*%
X4000000Y6321999D03*
%TO.P,J1,2*%
%TO.N,Net-(J1-Pad2)*%
X4000000Y5671999D03*
%TO.P,J1,3*%
%TO.N,Net-(J1-Pad3)*%
X4000000Y5021999D03*
%TO.P,J1,4*%
%TO.N,Net-(J1-Pad4)*%
X4000000Y4371999D03*
%TO.P,J1,5*%
%TO.N,Net-(J1-Pad5)*%
X4000000Y3721999D03*
D11*
%TO.P,J1,6*%
%TO.N,Net-(J1-Pad6)*%
X3640000Y7484499D03*
X3640000Y2559499D03*
D12*
X1340000Y7931999D03*
X1340000Y2111999D03*
D13*
X1340000Y5861999D03*
X1340000Y4181999D03*
%TD*%
D14*
%TO.P,J2,1*%
%TO.N,Net-(J1-Pad1)*%
X11430000Y3810000D03*
D15*
%TO.P,J2,3*%
%TO.N,Net-(J1-Pad5)*%
X13970000Y3810000D03*
%TO.P,J2,2*%
%TO.N,Net-(J1-Pad1)*%
X11430000Y6350000D03*
%TO.P,J2,4*%
%TO.N,Net-(J1-Pad5)*%
X13970000Y6350000D03*
%TD*%
D16*
%TO.N,Net-(J1-Pad1)*%
X11405000Y6321999D02*
X11430000Y6296999D01*
X4000000Y6321999D02*
X11405000Y6321999D01*
X11430000Y6296999D02*
X11430000Y3756999D01*
%TO.N,Net-(J1-Pad5)*%
X4000000Y3721999D02*
X5803001Y3721999D01*
X5803001Y3721999D02*
X7620000Y1905000D01*
X12118001Y1905000D02*
X13970000Y3756999D01*
X7620000Y1905000D02*
X12118001Y1905000D01*
X13970000Y3756999D02*
X13970000Y6296999D01*
%TO.N,Net-(J1-Pad6)*%
X1787500Y7484499D02*
X1340000Y7931999D01*
X3640000Y7484499D02*
X1787500Y7484499D01*
X1340000Y7931999D02*
X1340000Y5861999D01*
X1340000Y5861999D02*
X1340000Y4181999D01*
X1340000Y4181999D02*
X1340000Y2111999D01*
X3192500Y2111999D02*
X3640000Y2559499D01*
X1340000Y2111999D02*
X3192500Y2111999D01*
%TD*%
M02*
