%TF.GenerationSoftware,KiCad,Pcbnew,5.1.4-3.fc31*%
%TF.CreationDate,2019-11-21T06:29:58+01:00*%
%TF.ProjectId,microUSB-to-pcb-power-adapter,6d696372-6f55-4534-922d-746f2d706362,1.0*%
%TF.SameCoordinates,PX7b89fa0PY5ca77b8*%
%TF.FileFunction,Other,Comment*%
%FSLAX46Y46*%
G04 Gerber Fmt 4.6, Leading zero omitted, Abs format (unit mm)*
G04 Created by KiCad (PCBNEW 5.1.4-3.fc31) date 2019-11-21 06:29:58*
%MOMM*%
%LPD*%
G04 APERTURE LIST*
%ADD10C,0.150000*%
G04 APERTURE END LIST*
D10*
X20802380Y1508572D02*
X20802380Y937143D01*
X20802380Y1222858D02*
X19802380Y1222858D01*
X19945238Y1127620D01*
X20040476Y1032381D01*
X20088095Y937143D01*
X19802380Y2127620D02*
X19802380Y2222858D01*
X19850000Y2318096D01*
X19897619Y2365715D01*
X19992857Y2413334D01*
X20183333Y2460953D01*
X20421428Y2460953D01*
X20611904Y2413334D01*
X20707142Y2365715D01*
X20754761Y2318096D01*
X20802380Y2222858D01*
X20802380Y2127620D01*
X20754761Y2032381D01*
X20707142Y1984762D01*
X20611904Y1937143D01*
X20421428Y1889524D01*
X20183333Y1889524D01*
X19992857Y1937143D01*
X19897619Y1984762D01*
X19850000Y2032381D01*
X19802380Y2127620D01*
X20754761Y2937143D02*
X20802380Y2937143D01*
X20897619Y2889524D01*
X20945238Y2841905D01*
X20802380Y3889524D02*
X20802380Y3318096D01*
X20802380Y3603810D02*
X19802380Y3603810D01*
X19945238Y3508572D01*
X20040476Y3413334D01*
X20088095Y3318096D01*
X19802380Y4746667D02*
X19802380Y4556191D01*
X19850000Y4460953D01*
X19897619Y4413334D01*
X20040476Y4318096D01*
X20230952Y4270477D01*
X20611904Y4270477D01*
X20707142Y4318096D01*
X20754761Y4365715D01*
X20802380Y4460953D01*
X20802380Y4651429D01*
X20754761Y4746667D01*
X20707142Y4794286D01*
X20611904Y4841905D01*
X20373809Y4841905D01*
X20278571Y4794286D01*
X20230952Y4746667D01*
X20183333Y4651429D01*
X20183333Y4460953D01*
X20230952Y4365715D01*
X20278571Y4318096D01*
X20373809Y4270477D01*
X19802380Y5460953D02*
X19802380Y5556191D01*
X19850000Y5651429D01*
X19897619Y5699048D01*
X19992857Y5746667D01*
X20183333Y5794286D01*
X20421428Y5794286D01*
X20611904Y5746667D01*
X20707142Y5699048D01*
X20754761Y5651429D01*
X20802380Y5556191D01*
X20802380Y5460953D01*
X20754761Y5365715D01*
X20707142Y5318096D01*
X20611904Y5270477D01*
X20421428Y5222858D01*
X20183333Y5222858D01*
X19992857Y5270477D01*
X19897619Y5318096D01*
X19850000Y5365715D01*
X19802380Y5460953D01*
X20802380Y6984762D02*
X20135714Y6984762D01*
X20230952Y6984762D02*
X20183333Y7032381D01*
X20135714Y7127620D01*
X20135714Y7270477D01*
X20183333Y7365715D01*
X20278571Y7413334D01*
X20802380Y7413334D01*
X20278571Y7413334D02*
X20183333Y7460953D01*
X20135714Y7556191D01*
X20135714Y7699048D01*
X20183333Y7794286D01*
X20278571Y7841905D01*
X20802380Y7841905D01*
X20802380Y8318096D02*
X20135714Y8318096D01*
X20230952Y8318096D02*
X20183333Y8365715D01*
X20135714Y8460953D01*
X20135714Y8603810D01*
X20183333Y8699048D01*
X20278571Y8746667D01*
X20802380Y8746667D01*
X20278571Y8746667D02*
X20183333Y8794286D01*
X20135714Y8889524D01*
X20135714Y9032381D01*
X20183333Y9127620D01*
X20278571Y9175239D01*
X20802380Y9175239D01*
X19050000Y0D02*
X19050000Y10160000D01*
X16510000Y0D02*
X19636421Y0D01*
X16510000Y10160000D02*
X19636421Y10160000D01*
X19050000Y10160000D02*
X19636421Y9033496D01*
X19050000Y10160000D02*
X18463579Y9033496D01*
X19050000Y0D02*
X19636421Y1126504D01*
X19050000Y0D02*
X18463579Y1126504D01*
X4683571Y-3657380D02*
X4112142Y-3657380D01*
X4397857Y-3657380D02*
X4397857Y-2657380D01*
X4302619Y-2800238D01*
X4207380Y-2895476D01*
X4112142Y-2943095D01*
X5540714Y-2657380D02*
X5350238Y-2657380D01*
X5255000Y-2705000D01*
X5207380Y-2752619D01*
X5112142Y-2895476D01*
X5064523Y-3085952D01*
X5064523Y-3466904D01*
X5112142Y-3562142D01*
X5159761Y-3609761D01*
X5255000Y-3657380D01*
X5445476Y-3657380D01*
X5540714Y-3609761D01*
X5588333Y-3562142D01*
X5635952Y-3466904D01*
X5635952Y-3228809D01*
X5588333Y-3133571D01*
X5540714Y-3085952D01*
X5445476Y-3038333D01*
X5255000Y-3038333D01*
X5159761Y-3085952D01*
X5112142Y-3133571D01*
X5064523Y-3228809D01*
X6112142Y-3609761D02*
X6112142Y-3657380D01*
X6064523Y-3752619D01*
X6016904Y-3800238D01*
X7016904Y-2657380D02*
X6540714Y-2657380D01*
X6493095Y-3133571D01*
X6540714Y-3085952D01*
X6635952Y-3038333D01*
X6874047Y-3038333D01*
X6969285Y-3085952D01*
X7016904Y-3133571D01*
X7064523Y-3228809D01*
X7064523Y-3466904D01*
X7016904Y-3562142D01*
X6969285Y-3609761D01*
X6874047Y-3657380D01*
X6635952Y-3657380D01*
X6540714Y-3609761D01*
X6493095Y-3562142D01*
X8016904Y-3657380D02*
X7445476Y-3657380D01*
X7731190Y-3657380D02*
X7731190Y-2657380D01*
X7635952Y-2800238D01*
X7540714Y-2895476D01*
X7445476Y-2943095D01*
X8635952Y-2657380D02*
X8731190Y-2657380D01*
X8826428Y-2705000D01*
X8874047Y-2752619D01*
X8921666Y-2847857D01*
X8969285Y-3038333D01*
X8969285Y-3276428D01*
X8921666Y-3466904D01*
X8874047Y-3562142D01*
X8826428Y-3609761D01*
X8731190Y-3657380D01*
X8635952Y-3657380D01*
X8540714Y-3609761D01*
X8493095Y-3562142D01*
X8445476Y-3466904D01*
X8397857Y-3276428D01*
X8397857Y-3038333D01*
X8445476Y-2847857D01*
X8493095Y-2752619D01*
X8540714Y-2705000D01*
X8635952Y-2657380D01*
X10159761Y-3657380D02*
X10159761Y-2990714D01*
X10159761Y-3085952D02*
X10207380Y-3038333D01*
X10302619Y-2990714D01*
X10445476Y-2990714D01*
X10540714Y-3038333D01*
X10588333Y-3133571D01*
X10588333Y-3657380D01*
X10588333Y-3133571D02*
X10635952Y-3038333D01*
X10731190Y-2990714D01*
X10874047Y-2990714D01*
X10969285Y-3038333D01*
X11016904Y-3133571D01*
X11016904Y-3657380D01*
X11493095Y-3657380D02*
X11493095Y-2990714D01*
X11493095Y-3085952D02*
X11540714Y-3038333D01*
X11635952Y-2990714D01*
X11778809Y-2990714D01*
X11874047Y-3038333D01*
X11921666Y-3133571D01*
X11921666Y-3657380D01*
X11921666Y-3133571D02*
X11969285Y-3038333D01*
X12064523Y-2990714D01*
X12207380Y-2990714D01*
X12302619Y-3038333D01*
X12350238Y-3133571D01*
X12350238Y-3657380D01*
X0Y-1905000D02*
X16510000Y-1905000D01*
X0Y0D02*
X0Y-2491421D01*
X16510000Y0D02*
X16510000Y-2491421D01*
X16510000Y-1905000D02*
X15383496Y-2491421D01*
X16510000Y-1905000D02*
X15383496Y-1318579D01*
X0Y-1905000D02*
X1126504Y-2491421D01*
X0Y-1905000D02*
X1126504Y-1318579D01*
M02*
