%TF.GenerationSoftware,KiCad,Pcbnew,5.1.4-3.fc31*%
%TF.CreationDate,2019-11-22T15:17:55+01:00*%
%TF.ProjectId,screw-terminal-to-pcb-adapter,73637265-772d-4746-9572-6d696e616c2d,0.5*%
%TF.SameCoordinates,PX730f910PY310d5f8*%
%TF.FileFunction,Other,Comment*%
%FSLAX46Y46*%
G04 Gerber Fmt 4.6, Leading zero omitted, Abs format (unit mm)*
G04 Created by KiCad (PCBNEW 5.1.4-3.fc31) date 2019-11-22 15:17:55*
%MOMM*%
%LPD*%
G04 APERTURE LIST*
%ADD10C,0.150000*%
G04 APERTURE END LIST*
D10*
X29057380Y2143572D02*
X29057380Y1572143D01*
X29057380Y1857858D02*
X28057380Y1857858D01*
X28200238Y1762620D01*
X28295476Y1667381D01*
X28343095Y1572143D01*
X29057380Y3095953D02*
X29057380Y2524524D01*
X29057380Y2810239D02*
X28057380Y2810239D01*
X28200238Y2715000D01*
X28295476Y2619762D01*
X28343095Y2524524D01*
X29009761Y3572143D02*
X29057380Y3572143D01*
X29152619Y3524524D01*
X29200238Y3476905D01*
X28390714Y4429286D02*
X29057380Y4429286D01*
X28009761Y4191191D02*
X28724047Y3953096D01*
X28724047Y4572143D01*
X28057380Y4857858D02*
X28057380Y5476905D01*
X28438333Y5143572D01*
X28438333Y5286429D01*
X28485952Y5381667D01*
X28533571Y5429286D01*
X28628809Y5476905D01*
X28866904Y5476905D01*
X28962142Y5429286D01*
X29009761Y5381667D01*
X29057380Y5286429D01*
X29057380Y5000715D01*
X29009761Y4905477D01*
X28962142Y4857858D01*
X28057380Y6095953D02*
X28057380Y6191191D01*
X28105000Y6286429D01*
X28152619Y6334048D01*
X28247857Y6381667D01*
X28438333Y6429286D01*
X28676428Y6429286D01*
X28866904Y6381667D01*
X28962142Y6334048D01*
X29009761Y6286429D01*
X29057380Y6191191D01*
X29057380Y6095953D01*
X29009761Y6000715D01*
X28962142Y5953096D01*
X28866904Y5905477D01*
X28676428Y5857858D01*
X28438333Y5857858D01*
X28247857Y5905477D01*
X28152619Y5953096D01*
X28105000Y6000715D01*
X28057380Y6095953D01*
X29057380Y7619762D02*
X28390714Y7619762D01*
X28485952Y7619762D02*
X28438333Y7667381D01*
X28390714Y7762620D01*
X28390714Y7905477D01*
X28438333Y8000715D01*
X28533571Y8048334D01*
X29057380Y8048334D01*
X28533571Y8048334D02*
X28438333Y8095953D01*
X28390714Y8191191D01*
X28390714Y8334048D01*
X28438333Y8429286D01*
X28533571Y8476905D01*
X29057380Y8476905D01*
X29057380Y8953096D02*
X28390714Y8953096D01*
X28485952Y8953096D02*
X28438333Y9000715D01*
X28390714Y9095953D01*
X28390714Y9238810D01*
X28438333Y9334048D01*
X28533571Y9381667D01*
X29057380Y9381667D01*
X28533571Y9381667D02*
X28438333Y9429286D01*
X28390714Y9524524D01*
X28390714Y9667381D01*
X28438333Y9762620D01*
X28533571Y9810239D01*
X29057380Y9810239D01*
X27305000Y0D02*
X27305000Y11430000D01*
X25400000Y0D02*
X27891421Y0D01*
X25400000Y11430000D02*
X27891421Y11430000D01*
X27305000Y11430000D02*
X27891421Y10303496D01*
X27305000Y11430000D02*
X26718579Y10303496D01*
X27305000Y0D02*
X27891421Y1126504D01*
X27305000Y0D02*
X26718579Y1126504D01*
X8557142Y-2752619D02*
X8604761Y-2705000D01*
X8700000Y-2657380D01*
X8938095Y-2657380D01*
X9033333Y-2705000D01*
X9080952Y-2752619D01*
X9128571Y-2847857D01*
X9128571Y-2943095D01*
X9080952Y-3085952D01*
X8509523Y-3657380D01*
X9128571Y-3657380D01*
X10033333Y-2657380D02*
X9557142Y-2657380D01*
X9509523Y-3133571D01*
X9557142Y-3085952D01*
X9652380Y-3038333D01*
X9890476Y-3038333D01*
X9985714Y-3085952D01*
X10033333Y-3133571D01*
X10080952Y-3228809D01*
X10080952Y-3466904D01*
X10033333Y-3562142D01*
X9985714Y-3609761D01*
X9890476Y-3657380D01*
X9652380Y-3657380D01*
X9557142Y-3609761D01*
X9509523Y-3562142D01*
X10557142Y-3609761D02*
X10557142Y-3657380D01*
X10509523Y-3752619D01*
X10461904Y-3800238D01*
X11414285Y-2990714D02*
X11414285Y-3657380D01*
X11176190Y-2609761D02*
X10938095Y-3324047D01*
X11557142Y-3324047D01*
X12128571Y-2657380D02*
X12223809Y-2657380D01*
X12319047Y-2705000D01*
X12366666Y-2752619D01*
X12414285Y-2847857D01*
X12461904Y-3038333D01*
X12461904Y-3276428D01*
X12414285Y-3466904D01*
X12366666Y-3562142D01*
X12319047Y-3609761D01*
X12223809Y-3657380D01*
X12128571Y-3657380D01*
X12033333Y-3609761D01*
X11985714Y-3562142D01*
X11938095Y-3466904D01*
X11890476Y-3276428D01*
X11890476Y-3038333D01*
X11938095Y-2847857D01*
X11985714Y-2752619D01*
X12033333Y-2705000D01*
X12128571Y-2657380D01*
X13080952Y-2657380D02*
X13176190Y-2657380D01*
X13271428Y-2705000D01*
X13319047Y-2752619D01*
X13366666Y-2847857D01*
X13414285Y-3038333D01*
X13414285Y-3276428D01*
X13366666Y-3466904D01*
X13319047Y-3562142D01*
X13271428Y-3609761D01*
X13176190Y-3657380D01*
X13080952Y-3657380D01*
X12985714Y-3609761D01*
X12938095Y-3562142D01*
X12890476Y-3466904D01*
X12842857Y-3276428D01*
X12842857Y-3038333D01*
X12890476Y-2847857D01*
X12938095Y-2752619D01*
X12985714Y-2705000D01*
X13080952Y-2657380D01*
X14604761Y-3657380D02*
X14604761Y-2990714D01*
X14604761Y-3085952D02*
X14652380Y-3038333D01*
X14747619Y-2990714D01*
X14890476Y-2990714D01*
X14985714Y-3038333D01*
X15033333Y-3133571D01*
X15033333Y-3657380D01*
X15033333Y-3133571D02*
X15080952Y-3038333D01*
X15176190Y-2990714D01*
X15319047Y-2990714D01*
X15414285Y-3038333D01*
X15461904Y-3133571D01*
X15461904Y-3657380D01*
X15938095Y-3657380D02*
X15938095Y-2990714D01*
X15938095Y-3085952D02*
X15985714Y-3038333D01*
X16080952Y-2990714D01*
X16223809Y-2990714D01*
X16319047Y-3038333D01*
X16366666Y-3133571D01*
X16366666Y-3657380D01*
X16366666Y-3133571D02*
X16414285Y-3038333D01*
X16509523Y-2990714D01*
X16652380Y-2990714D01*
X16747619Y-3038333D01*
X16795238Y-3133571D01*
X16795238Y-3657380D01*
X0Y-1905000D02*
X25400000Y-1905000D01*
X0Y0D02*
X0Y-2491421D01*
X25400000Y0D02*
X25400000Y-2491421D01*
X25400000Y-1905000D02*
X24273496Y-2491421D01*
X25400000Y-1905000D02*
X24273496Y-1318579D01*
X0Y-1905000D02*
X1126504Y-2491421D01*
X0Y-1905000D02*
X1126504Y-1318579D01*
M02*
