%TF.GenerationSoftware,KiCad,Pcbnew,5.1.4-3.fc31*%
%TF.CreationDate,2019-11-22T15:17:55+01:00*%
%TF.ProjectId,screw-terminal-to-pcb-adapter,73637265-772d-4746-9572-6d696e616c2d,0.5*%
%TF.SameCoordinates,PX730f910PY310d5f8*%
%TF.FileFunction,Soldermask,Top*%
%TF.FilePolarity,Negative*%
%FSLAX46Y46*%
G04 Gerber Fmt 4.6, Leading zero omitted, Abs format (unit mm)*
G04 Created by KiCad (PCBNEW 5.1.4-3.fc31) date 2019-11-22 15:17:55*
%MOMM*%
%LPD*%
G04 APERTURE LIST*
%ADD10C,0.150000*%
G04 APERTURE END LIST*
D10*
G36*
X7172586Y4566197D02*
G01*
X7322411Y4536395D01*
X7604675Y4419478D01*
X7858706Y4249740D01*
X8074742Y4033704D01*
X8244480Y3779673D01*
X8361397Y3497409D01*
X8421001Y3197759D01*
X8421001Y2892239D01*
X8361397Y2592589D01*
X8244480Y2310325D01*
X8074742Y2056294D01*
X7858706Y1840258D01*
X7604675Y1670520D01*
X7322411Y1553603D01*
X7172586Y1523801D01*
X7022762Y1493999D01*
X6717240Y1493999D01*
X6567416Y1523801D01*
X6417591Y1553603D01*
X6135327Y1670520D01*
X5881296Y1840258D01*
X5665260Y2056294D01*
X5495522Y2310325D01*
X5378605Y2592589D01*
X5319001Y2892239D01*
X5319001Y3197759D01*
X5378605Y3497409D01*
X5495522Y3779673D01*
X5665260Y4033704D01*
X5881296Y4249740D01*
X6135327Y4419478D01*
X6417591Y4536395D01*
X6567416Y4566197D01*
X6717240Y4595999D01*
X7022762Y4595999D01*
X7172586Y4566197D01*
X7172586Y4566197D01*
G37*
G36*
X22970442Y5339482D02*
G01*
X23036627Y5332963D01*
X23206466Y5281443D01*
X23362991Y5197778D01*
X23398729Y5168448D01*
X23500186Y5085186D01*
X23583448Y4983729D01*
X23612778Y4947991D01*
X23696443Y4791466D01*
X23747963Y4621627D01*
X23765359Y4445000D01*
X23747963Y4268373D01*
X23696443Y4098534D01*
X23612778Y3942009D01*
X23583448Y3906271D01*
X23500186Y3804814D01*
X23398729Y3721552D01*
X23362991Y3692222D01*
X23206466Y3608557D01*
X23036627Y3557037D01*
X22970443Y3550519D01*
X22904260Y3544000D01*
X22815740Y3544000D01*
X22749557Y3550519D01*
X22683373Y3557037D01*
X22513534Y3608557D01*
X22357009Y3692222D01*
X22321271Y3721552D01*
X22219814Y3804814D01*
X22136552Y3906271D01*
X22107222Y3942009D01*
X22023557Y4098534D01*
X21972037Y4268373D01*
X21954641Y4445000D01*
X21972037Y4621627D01*
X22023557Y4791466D01*
X22107222Y4947991D01*
X22136552Y4983729D01*
X22219814Y5085186D01*
X22321271Y5168448D01*
X22357009Y5197778D01*
X22513534Y5281443D01*
X22683373Y5332963D01*
X22749558Y5339482D01*
X22815740Y5346000D01*
X22904260Y5346000D01*
X22970442Y5339482D01*
X22970442Y5339482D01*
G37*
G36*
X21221000Y3544000D02*
G01*
X19419000Y3544000D01*
X19419000Y5346000D01*
X21221000Y5346000D01*
X21221000Y3544000D01*
X21221000Y3544000D01*
G37*
G36*
X22970443Y7879481D02*
G01*
X23036627Y7872963D01*
X23206466Y7821443D01*
X23362991Y7737778D01*
X23398729Y7708448D01*
X23500186Y7625186D01*
X23583448Y7523729D01*
X23612778Y7487991D01*
X23696443Y7331466D01*
X23747963Y7161627D01*
X23765359Y6985000D01*
X23747963Y6808373D01*
X23696443Y6638534D01*
X23612778Y6482009D01*
X23583448Y6446271D01*
X23500186Y6344814D01*
X23398729Y6261552D01*
X23362991Y6232222D01*
X23206466Y6148557D01*
X23036627Y6097037D01*
X22970442Y6090518D01*
X22904260Y6084000D01*
X22815740Y6084000D01*
X22749558Y6090518D01*
X22683373Y6097037D01*
X22513534Y6148557D01*
X22357009Y6232222D01*
X22321271Y6261552D01*
X22219814Y6344814D01*
X22136552Y6446271D01*
X22107222Y6482009D01*
X22023557Y6638534D01*
X21972037Y6808373D01*
X21954641Y6985000D01*
X21972037Y7161627D01*
X22023557Y7331466D01*
X22107222Y7487991D01*
X22136552Y7523729D01*
X22219814Y7625186D01*
X22321271Y7708448D01*
X22357009Y7737778D01*
X22513534Y7821443D01*
X22683373Y7872963D01*
X22749558Y7879482D01*
X22815740Y7886000D01*
X22904260Y7886000D01*
X22970443Y7879481D01*
X22970443Y7879481D01*
G37*
G36*
X20430443Y7879481D02*
G01*
X20496627Y7872963D01*
X20666466Y7821443D01*
X20822991Y7737778D01*
X20858729Y7708448D01*
X20960186Y7625186D01*
X21043448Y7523729D01*
X21072778Y7487991D01*
X21156443Y7331466D01*
X21207963Y7161627D01*
X21225359Y6985000D01*
X21207963Y6808373D01*
X21156443Y6638534D01*
X21072778Y6482009D01*
X21043448Y6446271D01*
X20960186Y6344814D01*
X20858729Y6261552D01*
X20822991Y6232222D01*
X20666466Y6148557D01*
X20496627Y6097037D01*
X20430442Y6090518D01*
X20364260Y6084000D01*
X20275740Y6084000D01*
X20209558Y6090518D01*
X20143373Y6097037D01*
X19973534Y6148557D01*
X19817009Y6232222D01*
X19781271Y6261552D01*
X19679814Y6344814D01*
X19596552Y6446271D01*
X19567222Y6482009D01*
X19483557Y6638534D01*
X19432037Y6808373D01*
X19414641Y6985000D01*
X19432037Y7161627D01*
X19483557Y7331466D01*
X19567222Y7487991D01*
X19596552Y7523729D01*
X19679814Y7625186D01*
X19781271Y7708448D01*
X19817009Y7737778D01*
X19973534Y7821443D01*
X20143373Y7872963D01*
X20209558Y7879482D01*
X20275740Y7886000D01*
X20364260Y7886000D01*
X20430443Y7879481D01*
X20430443Y7879481D01*
G37*
G36*
X8421001Y6493999D02*
G01*
X5319001Y6493999D01*
X5319001Y9595999D01*
X8421001Y9595999D01*
X8421001Y6493999D01*
X8421001Y6493999D01*
G37*
M02*
