%TF.GenerationSoftware,KiCad,Pcbnew,5.1.5+dfsg1-2build2*%
%TF.CreationDate,2020-09-04T09:29:52+02:00*%
%TF.ProjectId,amp-meter-dc,616d702d-6d65-4746-9572-2d64632e6b69,rev?*%
%TF.SameCoordinates,PX1dac6f8PY6049a88*%
%TF.FileFunction,Other,Fab,Top*%
%FSLAX46Y46*%
G04 Gerber Fmt 4.6, Leading zero omitted, Abs format (unit mm)*
G04 Created by KiCad (PCBNEW 5.1.5+dfsg1-2build2) date 2020-09-04 09:29:52*
%MOMM*%
%LPD*%
G04 APERTURE LIST*
%ADD10C,0.120000*%
%ADD11C,0.100000*%
%ADD12C,0.150000*%
%ADD13C,0.300000*%
%ADD14C,0.108000*%
G04 APERTURE END LIST*
D10*
%TO.C,U2*%
X60840000Y4318000D02*
X55372000Y4318000D01*
X60840000Y28702000D02*
X60840000Y4318000D01*
X55372000Y28702000D02*
X60840000Y28702000D01*
X45840000Y28702000D02*
X51308000Y28702000D01*
X45840000Y4318000D02*
X45840000Y28702000D01*
X51308000Y4318000D02*
X45840000Y4318000D01*
X51308000Y32258000D02*
X51308000Y28702000D01*
X55372000Y32258000D02*
X51308000Y32258000D01*
X55372000Y28702000D02*
X55372000Y32258000D01*
X51308000Y762000D02*
X51308000Y4318000D01*
X55372000Y762000D02*
X51308000Y762000D01*
X55372000Y4318000D02*
X55372000Y762000D01*
%TO.C,R1*%
X4445000Y6985000D02*
X4445000Y4445000D01*
X1905000Y20955000D02*
X4445000Y20955000D01*
X1905000Y8255000D02*
X1905000Y20955000D01*
X6985000Y8255000D02*
X1905000Y8255000D01*
X6985000Y20955000D02*
X6985000Y8255000D01*
X4445000Y20955000D02*
X6985000Y20955000D01*
X4445000Y24765000D02*
X4445000Y20955000D01*
X1905000Y20955000D02*
X4445000Y20955000D01*
X1905000Y8255000D02*
X1905000Y20955000D01*
X6985000Y8255000D02*
X1905000Y8255000D01*
X6985000Y20955000D02*
X6985000Y8255000D01*
X4445000Y20955000D02*
X6985000Y20955000D01*
X4445000Y4445000D02*
X4445000Y8255000D01*
X4445000Y24765000D02*
X4445000Y20955000D01*
D11*
%TO.C,C1*%
X38925000Y16550000D02*
G75*
G03X38925000Y16550000I-4000000J0D01*
G01*
X36672500Y19976759D02*
X36672500Y19176759D01*
X37072500Y19576759D02*
X36272500Y19576759D01*
%TO.C,C2*%
X26305000Y4715000D02*
X28305000Y4715000D01*
X28305000Y4715000D02*
X28305000Y11715000D01*
X28305000Y11715000D02*
X26305000Y11715000D01*
X26305000Y11715000D02*
X26305000Y4715000D01*
%TO.C,R2*%
X12230000Y10055000D02*
X10630000Y10055000D01*
X10630000Y10055000D02*
X10630000Y6455000D01*
X10630000Y6455000D02*
X12230000Y6455000D01*
X12230000Y6455000D02*
X12230000Y10055000D01*
X11430000Y12065000D02*
X11430000Y10055000D01*
X11430000Y4445000D02*
X11430000Y6455000D01*
%TO.C,R3*%
X15240000Y16510000D02*
X17250000Y16510000D01*
X22860000Y16510000D02*
X20850000Y16510000D01*
X17250000Y15710000D02*
X20850000Y15710000D01*
X17250000Y17310000D02*
X17250000Y15710000D01*
X20850000Y17310000D02*
X17250000Y17310000D01*
X20850000Y15710000D02*
X20850000Y17310000D01*
%TO.C,U1*%
X16875000Y13335000D02*
X22225000Y13335000D01*
X22225000Y13335000D02*
X22225000Y3175000D01*
X22225000Y3175000D02*
X15875000Y3175000D01*
X15875000Y3175000D02*
X15875000Y12335000D01*
X15875000Y12335000D02*
X16875000Y13335000D01*
%TD*%
%TO.C,U2*%
D12*
X52292380Y10319524D02*
X53292380Y10652858D01*
X52292380Y10986191D01*
X53292380Y11462381D02*
X53244761Y11367143D01*
X53197142Y11319524D01*
X53101904Y11271905D01*
X52816190Y11271905D01*
X52720952Y11319524D01*
X52673333Y11367143D01*
X52625714Y11462381D01*
X52625714Y11605239D01*
X52673333Y11700477D01*
X52720952Y11748096D01*
X52816190Y11795715D01*
X53101904Y11795715D01*
X53197142Y11748096D01*
X53244761Y11700477D01*
X53292380Y11605239D01*
X53292380Y11462381D01*
X53292380Y12367143D02*
X53244761Y12271905D01*
X53149523Y12224286D01*
X52292380Y12224286D01*
X52625714Y12605239D02*
X52625714Y12986191D01*
X52292380Y12748096D02*
X53149523Y12748096D01*
X53244761Y12795715D01*
X53292380Y12890953D01*
X53292380Y12986191D01*
X53292380Y13319524D02*
X52625714Y13319524D01*
X52720952Y13319524D02*
X52673333Y13367143D01*
X52625714Y13462381D01*
X52625714Y13605239D01*
X52673333Y13700477D01*
X52768571Y13748096D01*
X53292380Y13748096D01*
X52768571Y13748096D02*
X52673333Y13795715D01*
X52625714Y13890953D01*
X52625714Y14033810D01*
X52673333Y14129048D01*
X52768571Y14176667D01*
X53292380Y14176667D01*
X53244761Y15033810D02*
X53292380Y14938572D01*
X53292380Y14748096D01*
X53244761Y14652858D01*
X53149523Y14605239D01*
X52768571Y14605239D01*
X52673333Y14652858D01*
X52625714Y14748096D01*
X52625714Y14938572D01*
X52673333Y15033810D01*
X52768571Y15081429D01*
X52863809Y15081429D01*
X52959047Y14605239D01*
X52625714Y15367143D02*
X52625714Y15748096D01*
X52292380Y15510000D02*
X53149523Y15510000D01*
X53244761Y15557620D01*
X53292380Y15652858D01*
X53292380Y15748096D01*
X53244761Y16462381D02*
X53292380Y16367143D01*
X53292380Y16176667D01*
X53244761Y16081429D01*
X53149523Y16033810D01*
X52768571Y16033810D01*
X52673333Y16081429D01*
X52625714Y16176667D01*
X52625714Y16367143D01*
X52673333Y16462381D01*
X52768571Y16510000D01*
X52863809Y16510000D01*
X52959047Y16033810D01*
X53292380Y16938572D02*
X52625714Y16938572D01*
X52816190Y16938572D02*
X52720952Y16986191D01*
X52673333Y17033810D01*
X52625714Y17129048D01*
X52625714Y17224286D01*
X53387619Y17319524D02*
X53387619Y18081429D01*
X53292380Y18319524D02*
X52292380Y18319524D01*
X52292380Y18557620D01*
X52340000Y18700477D01*
X52435238Y18795715D01*
X52530476Y18843334D01*
X52720952Y18890953D01*
X52863809Y18890953D01*
X53054285Y18843334D01*
X53149523Y18795715D01*
X53244761Y18700477D01*
X53292380Y18557620D01*
X53292380Y18319524D01*
X53197142Y19890953D02*
X53244761Y19843334D01*
X53292380Y19700477D01*
X53292380Y19605239D01*
X53244761Y19462381D01*
X53149523Y19367143D01*
X53054285Y19319524D01*
X52863809Y19271905D01*
X52720952Y19271905D01*
X52530476Y19319524D01*
X52435238Y19367143D01*
X52340000Y19462381D01*
X52292380Y19605239D01*
X52292380Y19700477D01*
X52340000Y19843334D01*
X52387619Y19890953D01*
X53387619Y20081429D02*
X53387619Y20843334D01*
X52292380Y20986191D02*
X52292380Y21605239D01*
X52673333Y21271905D01*
X52673333Y21414762D01*
X52720952Y21510000D01*
X52768571Y21557620D01*
X52863809Y21605239D01*
X53101904Y21605239D01*
X53197142Y21557620D01*
X53244761Y21510000D01*
X53292380Y21414762D01*
X53292380Y21129048D01*
X53244761Y21033810D01*
X53197142Y20986191D01*
X53292380Y22033810D02*
X52292380Y22033810D01*
X52292380Y22414762D01*
X52340000Y22510000D01*
X52387619Y22557620D01*
X52482857Y22605239D01*
X52625714Y22605239D01*
X52720952Y22557620D01*
X52768571Y22510000D01*
X52816190Y22414762D01*
X52816190Y22033810D01*
%TO.C,R1*%
D13*
X3349761Y10652620D02*
X3349761Y10843096D01*
X3445000Y11033572D01*
X3540238Y11128810D01*
X3730714Y11224048D01*
X4111666Y11319286D01*
X4587857Y11319286D01*
X4968809Y11224048D01*
X5159285Y11128810D01*
X5254523Y11033572D01*
X5349761Y10843096D01*
X5349761Y10652620D01*
X5254523Y10462143D01*
X5159285Y10366905D01*
X4968809Y10271667D01*
X4587857Y10176429D01*
X4111666Y10176429D01*
X3730714Y10271667D01*
X3540238Y10366905D01*
X3445000Y10462143D01*
X3349761Y10652620D01*
X5349761Y13319286D02*
X4397380Y12652620D01*
X5349761Y12176429D02*
X3349761Y12176429D01*
X3349761Y12938334D01*
X3445000Y13128810D01*
X3540238Y13224048D01*
X3730714Y13319286D01*
X4016428Y13319286D01*
X4206904Y13224048D01*
X4302142Y13128810D01*
X4397380Y12938334D01*
X4397380Y12176429D01*
X3349761Y14557381D02*
X3349761Y14747858D01*
X3445000Y14938334D01*
X3540238Y15033572D01*
X3730714Y15128810D01*
X4111666Y15224048D01*
X4587857Y15224048D01*
X4968809Y15128810D01*
X5159285Y15033572D01*
X5254523Y14938334D01*
X5349761Y14747858D01*
X5349761Y14557381D01*
X5254523Y14366905D01*
X5159285Y14271667D01*
X4968809Y14176429D01*
X4587857Y14081191D01*
X4111666Y14081191D01*
X3730714Y14176429D01*
X3540238Y14271667D01*
X3445000Y14366905D01*
X3349761Y14557381D01*
X3349761Y16462143D02*
X3349761Y16652620D01*
X3445000Y16843096D01*
X3540238Y16938334D01*
X3730714Y17033572D01*
X4111666Y17128810D01*
X4587857Y17128810D01*
X4968809Y17033572D01*
X5159285Y16938334D01*
X5254523Y16843096D01*
X5349761Y16652620D01*
X5349761Y16462143D01*
X5254523Y16271667D01*
X5159285Y16176429D01*
X4968809Y16081191D01*
X4587857Y15985953D01*
X4111666Y15985953D01*
X3730714Y16081191D01*
X3540238Y16176429D01*
X3445000Y16271667D01*
X3349761Y16462143D01*
X5349761Y19033572D02*
X5349761Y17890715D01*
X5349761Y18462143D02*
X3349761Y18462143D01*
X3635476Y18271667D01*
X3825952Y18081191D01*
X3921190Y17890715D01*
%TO.C,C1*%
D12*
X29460714Y15335715D02*
X30127380Y15335715D01*
X29079761Y15097620D02*
X29794047Y14859524D01*
X29794047Y15478572D01*
X29127380Y15764286D02*
X29127380Y16430953D01*
X30127380Y16002381D01*
X29127380Y17002381D02*
X29127380Y17097620D01*
X29175000Y17192858D01*
X29222619Y17240477D01*
X29317857Y17288096D01*
X29508333Y17335715D01*
X29746428Y17335715D01*
X29936904Y17288096D01*
X30032142Y17240477D01*
X30079761Y17192858D01*
X30127380Y17097620D01*
X30127380Y17002381D01*
X30079761Y16907143D01*
X30032142Y16859524D01*
X29936904Y16811905D01*
X29746428Y16764286D01*
X29508333Y16764286D01*
X29317857Y16811905D01*
X29222619Y16859524D01*
X29175000Y16907143D01*
X29127380Y17002381D01*
X29460714Y18192858D02*
X30127380Y18192858D01*
X29460714Y17764286D02*
X29984523Y17764286D01*
X30079761Y17811905D01*
X30127380Y17907143D01*
X30127380Y18050000D01*
X30079761Y18145239D01*
X30032142Y18192858D01*
X35282142Y16383334D02*
X35329761Y16335715D01*
X35377380Y16192858D01*
X35377380Y16097620D01*
X35329761Y15954762D01*
X35234523Y15859524D01*
X35139285Y15811905D01*
X34948809Y15764286D01*
X34805952Y15764286D01*
X34615476Y15811905D01*
X34520238Y15859524D01*
X34425000Y15954762D01*
X34377380Y16097620D01*
X34377380Y16192858D01*
X34425000Y16335715D01*
X34472619Y16383334D01*
X35377380Y17335715D02*
X35377380Y16764286D01*
X35377380Y17050000D02*
X34377380Y17050000D01*
X34520238Y16954762D01*
X34615476Y16859524D01*
X34663095Y16764286D01*
%TO.C,C2*%
X30007380Y7095953D02*
X30007380Y6524524D01*
X30007380Y6810239D02*
X29007380Y6810239D01*
X29150238Y6715000D01*
X29245476Y6619762D01*
X29293095Y6524524D01*
X29007380Y7715000D02*
X29007380Y7810239D01*
X29055000Y7905477D01*
X29102619Y7953096D01*
X29197857Y8000715D01*
X29388333Y8048334D01*
X29626428Y8048334D01*
X29816904Y8000715D01*
X29912142Y7953096D01*
X29959761Y7905477D01*
X30007380Y7810239D01*
X30007380Y7715000D01*
X29959761Y7619762D01*
X29912142Y7572143D01*
X29816904Y7524524D01*
X29626428Y7476905D01*
X29388333Y7476905D01*
X29197857Y7524524D01*
X29102619Y7572143D01*
X29055000Y7619762D01*
X29007380Y7715000D01*
X29007380Y8667381D02*
X29007380Y8762620D01*
X29055000Y8857858D01*
X29102619Y8905477D01*
X29197857Y8953096D01*
X29388333Y9000715D01*
X29626428Y9000715D01*
X29816904Y8953096D01*
X29912142Y8905477D01*
X29959761Y8857858D01*
X30007380Y8762620D01*
X30007380Y8667381D01*
X29959761Y8572143D01*
X29912142Y8524524D01*
X29816904Y8476905D01*
X29626428Y8429286D01*
X29388333Y8429286D01*
X29197857Y8476905D01*
X29102619Y8524524D01*
X29055000Y8572143D01*
X29007380Y8667381D01*
X29340714Y9429286D02*
X30007380Y9429286D01*
X29435952Y9429286D02*
X29388333Y9476905D01*
X29340714Y9572143D01*
X29340714Y9715000D01*
X29388333Y9810239D01*
X29483571Y9857858D01*
X30007380Y9857858D01*
X27662142Y8048334D02*
X27709761Y8000715D01*
X27757380Y7857858D01*
X27757380Y7762620D01*
X27709761Y7619762D01*
X27614523Y7524524D01*
X27519285Y7476905D01*
X27328809Y7429286D01*
X27185952Y7429286D01*
X26995476Y7476905D01*
X26900238Y7524524D01*
X26805000Y7619762D01*
X26757380Y7762620D01*
X26757380Y7857858D01*
X26805000Y8000715D01*
X26852619Y8048334D01*
X26852619Y8429286D02*
X26805000Y8476905D01*
X26757380Y8572143D01*
X26757380Y8810239D01*
X26805000Y8905477D01*
X26852619Y8953096D01*
X26947857Y9000715D01*
X27043095Y9000715D01*
X27185952Y8953096D01*
X27757380Y8381667D01*
X27757380Y9000715D01*
%TO.C,J1*%
X31194761Y2722620D02*
X31194761Y3722620D01*
X31432857Y3722620D01*
X31575714Y3675000D01*
X31670952Y3579762D01*
X31718571Y3484524D01*
X31766190Y3294048D01*
X31766190Y3151191D01*
X31718571Y2960715D01*
X31670952Y2865477D01*
X31575714Y2770239D01*
X31432857Y2722620D01*
X31194761Y2722620D01*
X32718571Y3675000D02*
X32623333Y3722620D01*
X32480476Y3722620D01*
X32337619Y3675000D01*
X32242380Y3579762D01*
X32194761Y3484524D01*
X32147142Y3294048D01*
X32147142Y3151191D01*
X32194761Y2960715D01*
X32242380Y2865477D01*
X32337619Y2770239D01*
X32480476Y2722620D01*
X32575714Y2722620D01*
X32718571Y2770239D01*
X32766190Y2817858D01*
X32766190Y3151191D01*
X32575714Y3151191D01*
X33099523Y3722620D02*
X33718571Y3722620D01*
X33385238Y3341667D01*
X33528095Y3341667D01*
X33623333Y3294048D01*
X33670952Y3246429D01*
X33718571Y3151191D01*
X33718571Y2913096D01*
X33670952Y2817858D01*
X33623333Y2770239D01*
X33528095Y2722620D01*
X33242380Y2722620D01*
X33147142Y2770239D01*
X33099523Y2817858D01*
X34337619Y3722620D02*
X34432857Y3722620D01*
X34528095Y3675000D01*
X34575714Y3627381D01*
X34623333Y3532143D01*
X34670952Y3341667D01*
X34670952Y3103572D01*
X34623333Y2913096D01*
X34575714Y2817858D01*
X34528095Y2770239D01*
X34432857Y2722620D01*
X34337619Y2722620D01*
X34242380Y2770239D01*
X34194761Y2817858D01*
X34147142Y2913096D01*
X34099523Y3103572D01*
X34099523Y3341667D01*
X34147142Y3532143D01*
X34194761Y3627381D01*
X34242380Y3675000D01*
X34337619Y3722620D01*
X35623333Y2722620D02*
X35051904Y2722620D01*
X35337619Y2722620D02*
X35337619Y3722620D01*
X35242380Y3579762D01*
X35147142Y3484524D01*
X35051904Y3436905D01*
X36051904Y3103572D02*
X36813809Y3103572D01*
X37766190Y3722620D02*
X37290000Y3722620D01*
X37242380Y3246429D01*
X37290000Y3294048D01*
X37385238Y3341667D01*
X37623333Y3341667D01*
X37718571Y3294048D01*
X37766190Y3246429D01*
X37813809Y3151191D01*
X37813809Y2913096D01*
X37766190Y2817858D01*
X37718571Y2770239D01*
X37623333Y2722620D01*
X37385238Y2722620D01*
X37290000Y2770239D01*
X37242380Y2817858D01*
X38242380Y2817858D02*
X38290000Y2770239D01*
X38242380Y2722620D01*
X38194761Y2770239D01*
X38242380Y2817858D01*
X38242380Y2722620D01*
X38909047Y3722620D02*
X39004285Y3722620D01*
X39099523Y3675000D01*
X39147142Y3627381D01*
X39194761Y3532143D01*
X39242380Y3341667D01*
X39242380Y3103572D01*
X39194761Y2913096D01*
X39147142Y2817858D01*
X39099523Y2770239D01*
X39004285Y2722620D01*
X38909047Y2722620D01*
X38813809Y2770239D01*
X38766190Y2817858D01*
X38718571Y2913096D01*
X38670952Y3103572D01*
X38670952Y3341667D01*
X38718571Y3532143D01*
X38766190Y3627381D01*
X38813809Y3675000D01*
X38909047Y3722620D01*
X39670952Y3103572D02*
X40432857Y3103572D01*
X40861428Y3627381D02*
X40909047Y3675000D01*
X41004285Y3722620D01*
X41242380Y3722620D01*
X41337619Y3675000D01*
X41385238Y3627381D01*
X41432857Y3532143D01*
X41432857Y3436905D01*
X41385238Y3294048D01*
X40813809Y2722620D01*
X41432857Y2722620D01*
X41861428Y2722620D02*
X41861428Y3722620D01*
X42242380Y3722620D01*
X42337619Y3675000D01*
X42385238Y3627381D01*
X42432857Y3532143D01*
X42432857Y3389286D01*
X42385238Y3294048D01*
X42337619Y3246429D01*
X42242380Y3198810D01*
X41861428Y3198810D01*
%TO.C,R2*%
X9962380Y8135953D02*
X9962380Y7564524D01*
X9962380Y7850239D02*
X8962380Y7850239D01*
X9105238Y7755000D01*
X9200476Y7659762D01*
X9248095Y7564524D01*
X9962380Y8564524D02*
X8962380Y8564524D01*
X9581428Y8659762D02*
X9962380Y8945477D01*
X9295714Y8945477D02*
X9676666Y8564524D01*
D14*
X11755714Y8135000D02*
X11412857Y7895000D01*
X11755714Y7723572D02*
X11035714Y7723572D01*
X11035714Y7997858D01*
X11070000Y8066429D01*
X11104285Y8100715D01*
X11172857Y8135000D01*
X11275714Y8135000D01*
X11344285Y8100715D01*
X11378571Y8066429D01*
X11412857Y7997858D01*
X11412857Y7723572D01*
X11104285Y8409286D02*
X11070000Y8443572D01*
X11035714Y8512143D01*
X11035714Y8683572D01*
X11070000Y8752143D01*
X11104285Y8786429D01*
X11172857Y8820715D01*
X11241428Y8820715D01*
X11344285Y8786429D01*
X11755714Y8375000D01*
X11755714Y8820715D01*
%TO.C,R3*%
D12*
X18764285Y17977620D02*
X18192857Y17977620D01*
X18478571Y17977620D02*
X18478571Y18977620D01*
X18383333Y18834762D01*
X18288095Y18739524D01*
X18192857Y18691905D01*
X19192857Y17977620D02*
X19192857Y18977620D01*
X19526190Y18263334D01*
X19859523Y18977620D01*
X19859523Y17977620D01*
D14*
X18930000Y16184286D02*
X18690000Y16527143D01*
X18518571Y16184286D02*
X18518571Y16904286D01*
X18792857Y16904286D01*
X18861428Y16870000D01*
X18895714Y16835715D01*
X18930000Y16767143D01*
X18930000Y16664286D01*
X18895714Y16595715D01*
X18861428Y16561429D01*
X18792857Y16527143D01*
X18518571Y16527143D01*
X19170000Y16904286D02*
X19615714Y16904286D01*
X19375714Y16630000D01*
X19478571Y16630000D01*
X19547142Y16595715D01*
X19581428Y16561429D01*
X19615714Y16492858D01*
X19615714Y16321429D01*
X19581428Y16252858D01*
X19547142Y16218572D01*
X19478571Y16184286D01*
X19272857Y16184286D01*
X19204285Y16218572D01*
X19170000Y16252858D01*
%TO.C,U1*%
D12*
X17359523Y1662620D02*
X16883333Y1662620D01*
X16883333Y2662620D01*
X17692857Y1662620D02*
X17692857Y2662620D01*
X18026190Y1948334D01*
X18359523Y2662620D01*
X18359523Y1662620D01*
X18740476Y2662620D02*
X19359523Y2662620D01*
X19026190Y2281667D01*
X19169047Y2281667D01*
X19264285Y2234048D01*
X19311904Y2186429D01*
X19359523Y2091191D01*
X19359523Y1853096D01*
X19311904Y1757858D01*
X19264285Y1710239D01*
X19169047Y1662620D01*
X18883333Y1662620D01*
X18788095Y1710239D01*
X18740476Y1757858D01*
X20264285Y2662620D02*
X19788095Y2662620D01*
X19740476Y2186429D01*
X19788095Y2234048D01*
X19883333Y2281667D01*
X20121428Y2281667D01*
X20216666Y2234048D01*
X20264285Y2186429D01*
X20311904Y2091191D01*
X20311904Y1853096D01*
X20264285Y1757858D01*
X20216666Y1710239D01*
X20121428Y1662620D01*
X19883333Y1662620D01*
X19788095Y1710239D01*
X19740476Y1757858D01*
X20883333Y2234048D02*
X20788095Y2281667D01*
X20740476Y2329286D01*
X20692857Y2424524D01*
X20692857Y2472143D01*
X20740476Y2567381D01*
X20788095Y2615000D01*
X20883333Y2662620D01*
X21073809Y2662620D01*
X21169047Y2615000D01*
X21216666Y2567381D01*
X21264285Y2472143D01*
X21264285Y2424524D01*
X21216666Y2329286D01*
X21169047Y2281667D01*
X21073809Y2234048D01*
X20883333Y2234048D01*
X20788095Y2186429D01*
X20740476Y2138810D01*
X20692857Y2043572D01*
X20692857Y1853096D01*
X20740476Y1757858D01*
X20788095Y1710239D01*
X20883333Y1662620D01*
X21073809Y1662620D01*
X21169047Y1710239D01*
X21216666Y1757858D01*
X21264285Y1853096D01*
X21264285Y2043572D01*
X21216666Y2138810D01*
X21169047Y2186429D01*
X21073809Y2234048D01*
X18288095Y8802620D02*
X18288095Y7993096D01*
X18335714Y7897858D01*
X18383333Y7850239D01*
X18478571Y7802620D01*
X18669047Y7802620D01*
X18764285Y7850239D01*
X18811904Y7897858D01*
X18859523Y7993096D01*
X18859523Y8802620D01*
X19859523Y7802620D02*
X19288095Y7802620D01*
X19573809Y7802620D02*
X19573809Y8802620D01*
X19478571Y8659762D01*
X19383333Y8564524D01*
X19288095Y8516905D01*
%TD*%
M02*
