%TF.GenerationSoftware,KiCad,Pcbnew,5.1.5+dfsg1-2build2*%
%TF.CreationDate,2020-09-04T09:29:52+02:00*%
%TF.ProjectId,amp-meter-dc,616d702d-6d65-4746-9572-2d64632e6b69,rev?*%
%TF.SameCoordinates,PX1dac6f8PY6049a88*%
%TF.FileFunction,Other,User*%
%FSLAX46Y46*%
G04 Gerber Fmt 4.6, Leading zero omitted, Abs format (unit mm)*
G04 Created by KiCad (PCBNEW 5.1.5+dfsg1-2build2) date 2020-09-04 09:29:52*
%MOMM*%
%LPD*%
G04 APERTURE LIST*
%ADD10C,0.120000*%
%ADD11C,0.050000*%
G04 APERTURE END LIST*
D10*
%TO.C,U2*%
X51308000Y762000D02*
X51308000Y4318000D01*
X51308000Y762000D02*
X55372000Y762000D01*
X55372000Y762000D02*
X55372000Y4318000D01*
X51308000Y28702000D02*
X51308000Y32258000D01*
X51308000Y32258000D02*
X55372000Y32258000D01*
X55372000Y32258000D02*
X55372000Y28702000D01*
X55372000Y4318000D02*
X60960000Y4318000D01*
X60960000Y4318000D02*
X60960000Y28702000D01*
X60960000Y28702000D02*
X55372000Y28702000D01*
X51308000Y28702000D02*
X44196000Y28702000D01*
X44196000Y28702000D02*
X44196000Y25654000D01*
X44196000Y25654000D02*
X42164000Y25654000D01*
X42164000Y25654000D02*
X42164000Y17526000D01*
X42164000Y17526000D02*
X44196000Y17526000D01*
X44196000Y17526000D02*
X44196000Y4318000D01*
X44196000Y4318000D02*
X51308000Y4318000D01*
%TO.C,R1*%
X8255000Y28575000D02*
X8255000Y635000D01*
X8255000Y635000D02*
X635000Y635000D01*
X635000Y635000D02*
X635000Y28575000D01*
X635000Y28575000D02*
X8255000Y28575000D01*
D11*
%TO.C,C1*%
X39175000Y16550000D02*
G75*
G03X39175000Y16550000I-4250000J0D01*
G01*
%TO.C,C2*%
X26055000Y4465000D02*
X28555000Y4465000D01*
X28555000Y4465000D02*
X28555000Y11965000D01*
X28555000Y11965000D02*
X26055000Y11965000D01*
X26055000Y11965000D02*
X26055000Y4465000D01*
D10*
%TO.C,J1*%
X31790000Y1215000D02*
X41790000Y1215000D01*
X31790000Y8815000D02*
X41790000Y8815000D01*
X31790000Y8815000D02*
X31790000Y1215000D01*
X41790000Y8815000D02*
X41790000Y1215000D01*
X31790000Y8815000D02*
X41790000Y8815000D01*
D11*
%TO.C,R2*%
X12480000Y13015000D02*
X10380000Y13015000D01*
X10380000Y13015000D02*
X10380000Y3495000D01*
X10380000Y3495000D02*
X12480000Y3495000D01*
X12480000Y3495000D02*
X12480000Y13015000D01*
%TO.C,R3*%
X14290000Y15460000D02*
X23810000Y15460000D01*
X14290000Y17560000D02*
X14290000Y15460000D01*
X23810000Y17560000D02*
X14290000Y17560000D01*
X23810000Y15460000D02*
X23810000Y17560000D01*
%TO.C,U1*%
X14140000Y13615000D02*
X14140000Y2915000D01*
X14140000Y2915000D02*
X23940000Y2915000D01*
X23940000Y2915000D02*
X23940000Y13615000D01*
X23940000Y13615000D02*
X14140000Y13615000D01*
%TD*%
M02*
