M48
; DRILL file {KiCad 5.1.5+dfsg1-2build2} date Fri 04 Sep 2020 09:29:58 CEST
; FORMAT={-:-/ absolute / inch / decimal}
; #@! TF.CreationDate,2020-09-04T09:29:58+02:00
; #@! TF.GenerationSoftware,Kicad,Pcbnew,5.1.5+dfsg1-2build2
FMAT,2
INCH
T1C0.0276
T2C0.0298
T3C0.0315
T4C0.0472
T5C0.1000
T6C0.0787
%
G90
G05
T1
X0.6Y0.65
X0.9Y0.65
X0.45Y0.475
X0.45Y0.175
T2
X1.7Y0.95
X1.7Y0.85
X1.7Y0.75
T3
X1.375Y0.75
X1.375Y0.5531
X1.075Y0.4219
X1.075Y0.225
X0.6Y0.475
X0.6Y0.375
X0.6Y0.275
X0.6Y0.175
X0.9Y0.475
X0.9Y0.375
X0.9Y0.275
X0.9Y0.175
T4
X1.35Y0.225
X1.55Y0.225
T5
X0.175Y0.975
X0.175Y0.175
T6
X2.1Y1.2012
X2.1Y0.0988
T0
M30
