%TF.GenerationSoftware,KiCad,Pcbnew,5.1.5+dfsg1-2build2*%
%TF.CreationDate,2020-09-04T09:29:52+02:00*%
%TF.ProjectId,amp-meter-dc,616d702d-6d65-4746-9572-2d64632e6b69,rev?*%
%TF.SameCoordinates,PX1dac6f8PY6049a88*%
%TF.FileFunction,Legend,Top*%
%TF.FilePolarity,Positive*%
%FSLAX46Y46*%
G04 Gerber Fmt 4.6, Leading zero omitted, Abs format (unit mm)*
G04 Created by KiCad (PCBNEW 5.1.5+dfsg1-2build2) date 2020-09-04 09:29:52*
%MOMM*%
%LPD*%
G04 APERTURE LIST*
%ADD10C,0.300000*%
%ADD11C,0.120000*%
%ADD12C,0.010000*%
%ADD13C,0.150000*%
%ADD14C,3.102000*%
%ADD15R,1.626000X1.626000*%
%ADD16C,1.626000*%
%ADD17R,1.702000X1.702000*%
%ADD18C,1.702000*%
%ADD19C,1.502000*%
%ADD20O,1.502000X1.502000*%
%ADD21O,1.702000X1.702000*%
G04 APERTURE END LIST*
D10*
X9017142Y24550715D02*
X11302857Y24550715D01*
X10160000Y23407858D02*
X10160000Y25693572D01*
X20388571Y29166429D02*
X20388571Y29952143D01*
X20317142Y30095000D01*
X20174285Y30166429D01*
X19888571Y30166429D01*
X19745714Y30095000D01*
X20388571Y29237858D02*
X20245714Y29166429D01*
X19888571Y29166429D01*
X19745714Y29237858D01*
X19674285Y29380715D01*
X19674285Y29523572D01*
X19745714Y29666429D01*
X19888571Y29737858D01*
X20245714Y29737858D01*
X20388571Y29809286D01*
X21102857Y29166429D02*
X21102857Y30166429D01*
X21102857Y30023572D02*
X21174285Y30095000D01*
X21317142Y30166429D01*
X21531428Y30166429D01*
X21674285Y30095000D01*
X21745714Y29952143D01*
X21745714Y29166429D01*
X21745714Y29952143D02*
X21817142Y30095000D01*
X21960000Y30166429D01*
X22174285Y30166429D01*
X22317142Y30095000D01*
X22388571Y29952143D01*
X22388571Y29166429D01*
X23102857Y29166429D02*
X23102857Y30166429D01*
X23102857Y30023572D02*
X23174285Y30095000D01*
X23317142Y30166429D01*
X23531428Y30166429D01*
X23674285Y30095000D01*
X23745714Y29952143D01*
X23745714Y29166429D01*
X23745714Y29952143D02*
X23817142Y30095000D01*
X23960000Y30166429D01*
X24174285Y30166429D01*
X24317142Y30095000D01*
X24388571Y29952143D01*
X24388571Y29166429D01*
X25674285Y29237858D02*
X25531428Y29166429D01*
X25245714Y29166429D01*
X25102857Y29237858D01*
X25031428Y29380715D01*
X25031428Y29952143D01*
X25102857Y30095000D01*
X25245714Y30166429D01*
X25531428Y30166429D01*
X25674285Y30095000D01*
X25745714Y29952143D01*
X25745714Y29809286D01*
X25031428Y29666429D01*
X26174285Y30166429D02*
X26745714Y30166429D01*
X26388571Y30666429D02*
X26388571Y29380715D01*
X26460000Y29237858D01*
X26602857Y29166429D01*
X26745714Y29166429D01*
X27817142Y29237858D02*
X27674285Y29166429D01*
X27388571Y29166429D01*
X27245714Y29237858D01*
X27174285Y29380715D01*
X27174285Y29952143D01*
X27245714Y30095000D01*
X27388571Y30166429D01*
X27674285Y30166429D01*
X27817142Y30095000D01*
X27888571Y29952143D01*
X27888571Y29809286D01*
X27174285Y29666429D01*
X28531428Y29166429D02*
X28531428Y30166429D01*
X28531428Y29880715D02*
X28602857Y30023572D01*
X28674285Y30095000D01*
X28817142Y30166429D01*
X28960000Y30166429D01*
X30460000Y30166429D02*
X30817142Y29166429D01*
X31174285Y30166429D01*
X32317142Y29237858D02*
X32174285Y29166429D01*
X31888571Y29166429D01*
X31745714Y29237858D01*
X31674285Y29380715D01*
X31674285Y29952143D01*
X31745714Y30095000D01*
X31888571Y30166429D01*
X32174285Y30166429D01*
X32317142Y30095000D01*
X32388571Y29952143D01*
X32388571Y29809286D01*
X31674285Y29666429D01*
X33031428Y29166429D02*
X33031428Y30166429D01*
X33031428Y29880715D02*
X33102857Y30023572D01*
X33174285Y30095000D01*
X33317142Y30166429D01*
X33460000Y30166429D01*
X33960000Y29309286D02*
X34031428Y29237858D01*
X33960000Y29166429D01*
X33888571Y29237858D01*
X33960000Y29309286D01*
X33960000Y29166429D01*
X36602857Y29166429D02*
X35745714Y29166429D01*
X36174285Y29166429D02*
X36174285Y30666429D01*
X36031428Y30452143D01*
X35888571Y30309286D01*
X35745714Y30237858D01*
X37245714Y29309286D02*
X37317142Y29237858D01*
X37245714Y29166429D01*
X37174285Y29237858D01*
X37245714Y29309286D01*
X37245714Y29166429D01*
X38245714Y30666429D02*
X38388571Y30666429D01*
X38531428Y30595000D01*
X38602857Y30523572D01*
X38674285Y30380715D01*
X38745714Y30095000D01*
X38745714Y29737858D01*
X38674285Y29452143D01*
X38602857Y29309286D01*
X38531428Y29237858D01*
X38388571Y29166429D01*
X38245714Y29166429D01*
X38102857Y29237858D01*
X38031428Y29309286D01*
X37960000Y29452143D01*
X37888571Y29737858D01*
X37888571Y30095000D01*
X37960000Y30380715D01*
X38031428Y30523572D01*
X38102857Y30595000D01*
X38245714Y30666429D01*
X38798571Y10052858D02*
X39941428Y10052858D01*
X33718571Y10052858D02*
X34861428Y10052858D01*
X34290000Y9481429D02*
X34290000Y10624286D01*
D11*
%TO.C,U2*%
X42164000Y25654000D02*
X45720000Y25654000D01*
X42164000Y17526000D02*
X42164000Y25654000D01*
X42164000Y17526000D02*
X45720000Y17526000D01*
X55372000Y32258000D02*
X55372000Y28702000D01*
X51308000Y32258000D02*
X55372000Y32258000D01*
X51308000Y28702000D02*
X51308000Y32258000D01*
X55372000Y762000D02*
X55372000Y4318000D01*
X51308000Y762000D02*
X55372000Y762000D01*
X51308000Y4318000D02*
X51308000Y762000D01*
X45840000Y28702000D02*
X45840000Y4318000D01*
X60840000Y28702000D02*
X45840000Y28702000D01*
X60840000Y4318000D02*
X60840000Y28702000D01*
X45840000Y4318000D02*
X60840000Y4318000D01*
%TO.C,R1*%
X4445000Y8255000D02*
X4445000Y5715000D01*
X4445000Y23495000D02*
X4445000Y20955000D01*
X1905000Y20955000D02*
X4445000Y20955000D01*
X1905000Y8255000D02*
X1905000Y20955000D01*
X6985000Y8255000D02*
X1905000Y8255000D01*
X6985000Y20955000D02*
X6985000Y8255000D01*
X4445000Y20955000D02*
X6985000Y20955000D01*
X8255000Y28575000D02*
X8255000Y635000D01*
X8255000Y635000D02*
X635000Y635000D01*
X635000Y635000D02*
X635000Y28575000D01*
X635000Y28575000D02*
X8255000Y28575000D01*
D12*
%TO.C,G2*%
G36*
X19189878Y27842224D02*
G01*
X19295612Y27841645D01*
X19372132Y27840078D01*
X19424372Y27837028D01*
X19457263Y27832004D01*
X19475737Y27824511D01*
X19484727Y27814056D01*
X19489163Y27800147D01*
X19489594Y27798346D01*
X19496333Y27765855D01*
X19508808Y27701748D01*
X19525719Y27612849D01*
X19545771Y27505981D01*
X19567664Y27387967D01*
X19568429Y27383822D01*
X19590359Y27268169D01*
X19610877Y27165986D01*
X19628659Y27083402D01*
X19642381Y27026544D01*
X19650718Y27001542D01*
X19651116Y27001099D01*
X19675677Y26988890D01*
X19726315Y26968544D01*
X19792095Y26944455D01*
X19792461Y26944326D01*
X19875317Y26913182D01*
X19973000Y26873509D01*
X20065077Y26833619D01*
X20069434Y26831647D01*
X20219407Y26763580D01*
X20551498Y26990361D01*
X20653374Y27059496D01*
X20745657Y27121303D01*
X20823003Y27172267D01*
X20880064Y27208873D01*
X20911495Y27227606D01*
X20914479Y27228996D01*
X20937321Y27222810D01*
X20979982Y27192965D01*
X21044128Y27138053D01*
X21131421Y27056666D01*
X21220535Y26970078D01*
X21306441Y26884753D01*
X21383327Y26806892D01*
X21446564Y26741303D01*
X21491523Y26692795D01*
X21513576Y26666175D01*
X21514396Y26664805D01*
X21516834Y26646537D01*
X21507650Y26616705D01*
X21484574Y26571279D01*
X21445337Y26506230D01*
X21387670Y26417530D01*
X21310795Y26303343D01*
X21242570Y26202838D01*
X21181582Y26112697D01*
X21131356Y26038151D01*
X21095416Y25984435D01*
X21077287Y25956782D01*
X21076146Y25954905D01*
X21078359Y25928410D01*
X21095138Y25876914D01*
X21123142Y25810149D01*
X21133122Y25788828D01*
X21176672Y25693841D01*
X21223134Y25586063D01*
X21260877Y25492808D01*
X21288073Y25423594D01*
X21309675Y25370994D01*
X21322158Y25343503D01*
X21323709Y25341384D01*
X21346668Y25337876D01*
X21400786Y25328262D01*
X21478868Y25313911D01*
X21573719Y25296193D01*
X21678143Y25276475D01*
X21784944Y25256126D01*
X21886926Y25236514D01*
X21976894Y25219009D01*
X22047653Y25204978D01*
X22092006Y25195791D01*
X22102885Y25193193D01*
X22114122Y25186782D01*
X22122605Y25172303D01*
X22128714Y25144867D01*
X22132832Y25099589D01*
X22135341Y25031580D01*
X22136621Y24935953D01*
X22137054Y24807820D01*
X22137077Y24755299D01*
X22137077Y24328155D01*
X22034500Y24307909D01*
X21977431Y24296930D01*
X21892269Y24280905D01*
X21789372Y24261767D01*
X21679096Y24241449D01*
X21648615Y24235868D01*
X21546855Y24216083D01*
X21458205Y24196627D01*
X21390108Y24179303D01*
X21350004Y24165912D01*
X21343323Y24161921D01*
X21326919Y24133658D01*
X21303399Y24078891D01*
X21277316Y24008412D01*
X21272142Y23993231D01*
X21237956Y23899104D01*
X21195523Y23792899D01*
X21153997Y23697527D01*
X21153792Y23697084D01*
X21084640Y23547475D01*
X21539512Y22878383D01*
X21247500Y22585884D01*
X21159180Y22498830D01*
X21078625Y22422091D01*
X21010360Y22359763D01*
X20958908Y22315944D01*
X20928794Y22294730D01*
X20924474Y22293384D01*
X20899111Y22303984D01*
X20847358Y22333453D01*
X20774868Y22378295D01*
X20687294Y22435016D01*
X20592612Y22498538D01*
X20496516Y22563332D01*
X20410837Y22619713D01*
X20341016Y22664212D01*
X20292494Y22693361D01*
X20270782Y22703692D01*
X20244293Y22694950D01*
X20194062Y22671913D01*
X20130451Y22639369D01*
X20123708Y22635751D01*
X20038046Y22592790D01*
X19979306Y22571721D01*
X19942772Y22571497D01*
X19923731Y22591072D01*
X19923620Y22591346D01*
X19914102Y22614528D01*
X19891403Y22669559D01*
X19857282Y22752178D01*
X19813500Y22858128D01*
X19761816Y22983148D01*
X19703992Y23122980D01*
X19647991Y23258363D01*
X19586447Y23407766D01*
X19529939Y23546168D01*
X19480161Y23669327D01*
X19438806Y23772998D01*
X19407568Y23852941D01*
X19388141Y23904912D01*
X19382154Y23924308D01*
X19397168Y23946557D01*
X19436439Y23982018D01*
X19488807Y24021113D01*
X19637941Y24144755D01*
X19754511Y24286478D01*
X19837118Y24443296D01*
X19884366Y24612225D01*
X19894857Y24790278D01*
X19887231Y24872461D01*
X19845682Y25042969D01*
X19774123Y25193541D01*
X19676995Y25322691D01*
X19558734Y25428936D01*
X19423780Y25510790D01*
X19276571Y25566768D01*
X19121544Y25595385D01*
X18963139Y25595156D01*
X18805794Y25564595D01*
X18653946Y25502218D01*
X18512035Y25406540D01*
X18452803Y25352428D01*
X18339203Y25213480D01*
X18260106Y25061639D01*
X18214986Y24901333D01*
X18203316Y24736988D01*
X18224569Y24573029D01*
X18278220Y24413882D01*
X18363740Y24263975D01*
X18480605Y24127733D01*
X18611193Y24021113D01*
X18665588Y23980358D01*
X18704014Y23945282D01*
X18717846Y23924274D01*
X18710603Y23901365D01*
X18690005Y23846635D01*
X18657746Y23764328D01*
X18615521Y23658685D01*
X18565023Y23533950D01*
X18507948Y23394364D01*
X18451854Y23258330D01*
X18389967Y23108799D01*
X18332644Y22970233D01*
X18281644Y22846893D01*
X18238727Y22743036D01*
X18205653Y22662920D01*
X18184181Y22610805D01*
X18176225Y22591346D01*
X18157429Y22571577D01*
X18121074Y22571635D01*
X18062479Y22592559D01*
X17976968Y22635387D01*
X17976292Y22635751D01*
X17911907Y22668988D01*
X17859861Y22693198D01*
X17830512Y22703596D01*
X17829217Y22703692D01*
X17807124Y22693145D01*
X17758348Y22663816D01*
X17688331Y22619173D01*
X17602514Y22562686D01*
X17507388Y22498538D01*
X17410540Y22433589D01*
X17323253Y22377104D01*
X17251181Y22332579D01*
X17199977Y22303510D01*
X17175526Y22293384D01*
X17153010Y22306693D01*
X17107742Y22343888D01*
X17044244Y22400872D01*
X16967039Y22473551D01*
X16880651Y22557829D01*
X16852399Y22585984D01*
X16560287Y22878584D01*
X16782631Y23204896D01*
X16850202Y23305103D01*
X16909507Y23395037D01*
X16957217Y23469490D01*
X16990007Y23523249D01*
X17004548Y23551106D01*
X17004974Y23553088D01*
X16997308Y23579345D01*
X16976689Y23632163D01*
X16946685Y23702690D01*
X16925625Y23749907D01*
X16886248Y23840306D01*
X16849165Y23931634D01*
X16820415Y24008800D01*
X16812605Y24032308D01*
X16790417Y24095084D01*
X16768727Y24143589D01*
X16756813Y24161921D01*
X16730523Y24173141D01*
X16673142Y24189046D01*
X16592118Y24207833D01*
X16494895Y24227701D01*
X16451385Y24235868D01*
X16340896Y24256171D01*
X16234916Y24275830D01*
X16143801Y24292912D01*
X16077908Y24305482D01*
X16065500Y24307909D01*
X15962923Y24328155D01*
X15962923Y24755299D01*
X15963153Y24895754D01*
X15964099Y25002021D01*
X15966141Y25078987D01*
X15969662Y25131540D01*
X15975043Y25164567D01*
X15982666Y25182955D01*
X15992912Y25191592D01*
X15997115Y25193193D01*
X16022470Y25198873D01*
X16078484Y25210205D01*
X16157964Y25225821D01*
X16253712Y25244353D01*
X16358533Y25264431D01*
X16465232Y25284688D01*
X16566613Y25303754D01*
X16655479Y25320261D01*
X16724637Y25332841D01*
X16766889Y25340125D01*
X16776290Y25341384D01*
X16784807Y25358237D01*
X16803660Y25403130D01*
X16829324Y25467570D01*
X16839123Y25492808D01*
X16878648Y25590314D01*
X16925192Y25698041D01*
X16966877Y25788828D01*
X16997550Y25858247D01*
X17017956Y25915290D01*
X17024768Y25950223D01*
X17023682Y25954905D01*
X17009285Y25977009D01*
X16976412Y26026169D01*
X16928590Y26097152D01*
X16869348Y26184722D01*
X16802215Y26283643D01*
X16788941Y26303170D01*
X16711046Y26418860D01*
X16653787Y26506956D01*
X16614881Y26571514D01*
X16592044Y26616589D01*
X16582994Y26646237D01*
X16585448Y26664515D01*
X16585511Y26664631D01*
X16604827Y26688639D01*
X16647551Y26735053D01*
X16709051Y26799063D01*
X16784698Y26875855D01*
X16869861Y26960618D01*
X16879465Y26970078D01*
X16986790Y27074011D01*
X17069615Y27150325D01*
X17129605Y27200429D01*
X17168423Y27225730D01*
X17185520Y27228996D01*
X17210473Y27214750D01*
X17262255Y27181844D01*
X17335520Y27133792D01*
X17424920Y27074110D01*
X17525111Y27006312D01*
X17548501Y26990361D01*
X17880593Y26763580D01*
X18030565Y26831647D01*
X18121770Y26871315D01*
X18219669Y26911209D01*
X18303831Y26943017D01*
X18307538Y26944326D01*
X18373369Y26968424D01*
X18424116Y26988800D01*
X18448842Y27001064D01*
X18448884Y27001099D01*
X18456729Y27023266D01*
X18470066Y27077783D01*
X18487570Y27158520D01*
X18507917Y27259350D01*
X18529782Y27374144D01*
X18531571Y27383822D01*
X18553504Y27502096D01*
X18573640Y27609458D01*
X18590680Y27699083D01*
X18603328Y27764149D01*
X18610284Y27797832D01*
X18610406Y27798346D01*
X18614639Y27812675D01*
X18622871Y27823493D01*
X18640033Y27831294D01*
X18671058Y27836571D01*
X18720878Y27839818D01*
X18794424Y27841528D01*
X18896629Y27842193D01*
X19032425Y27842307D01*
X19050000Y27842308D01*
X19189878Y27842224D01*
G37*
X19189878Y27842224D02*
X19295612Y27841645D01*
X19372132Y27840078D01*
X19424372Y27837028D01*
X19457263Y27832004D01*
X19475737Y27824511D01*
X19484727Y27814056D01*
X19489163Y27800147D01*
X19489594Y27798346D01*
X19496333Y27765855D01*
X19508808Y27701748D01*
X19525719Y27612849D01*
X19545771Y27505981D01*
X19567664Y27387967D01*
X19568429Y27383822D01*
X19590359Y27268169D01*
X19610877Y27165986D01*
X19628659Y27083402D01*
X19642381Y27026544D01*
X19650718Y27001542D01*
X19651116Y27001099D01*
X19675677Y26988890D01*
X19726315Y26968544D01*
X19792095Y26944455D01*
X19792461Y26944326D01*
X19875317Y26913182D01*
X19973000Y26873509D01*
X20065077Y26833619D01*
X20069434Y26831647D01*
X20219407Y26763580D01*
X20551498Y26990361D01*
X20653374Y27059496D01*
X20745657Y27121303D01*
X20823003Y27172267D01*
X20880064Y27208873D01*
X20911495Y27227606D01*
X20914479Y27228996D01*
X20937321Y27222810D01*
X20979982Y27192965D01*
X21044128Y27138053D01*
X21131421Y27056666D01*
X21220535Y26970078D01*
X21306441Y26884753D01*
X21383327Y26806892D01*
X21446564Y26741303D01*
X21491523Y26692795D01*
X21513576Y26666175D01*
X21514396Y26664805D01*
X21516834Y26646537D01*
X21507650Y26616705D01*
X21484574Y26571279D01*
X21445337Y26506230D01*
X21387670Y26417530D01*
X21310795Y26303343D01*
X21242570Y26202838D01*
X21181582Y26112697D01*
X21131356Y26038151D01*
X21095416Y25984435D01*
X21077287Y25956782D01*
X21076146Y25954905D01*
X21078359Y25928410D01*
X21095138Y25876914D01*
X21123142Y25810149D01*
X21133122Y25788828D01*
X21176672Y25693841D01*
X21223134Y25586063D01*
X21260877Y25492808D01*
X21288073Y25423594D01*
X21309675Y25370994D01*
X21322158Y25343503D01*
X21323709Y25341384D01*
X21346668Y25337876D01*
X21400786Y25328262D01*
X21478868Y25313911D01*
X21573719Y25296193D01*
X21678143Y25276475D01*
X21784944Y25256126D01*
X21886926Y25236514D01*
X21976894Y25219009D01*
X22047653Y25204978D01*
X22092006Y25195791D01*
X22102885Y25193193D01*
X22114122Y25186782D01*
X22122605Y25172303D01*
X22128714Y25144867D01*
X22132832Y25099589D01*
X22135341Y25031580D01*
X22136621Y24935953D01*
X22137054Y24807820D01*
X22137077Y24755299D01*
X22137077Y24328155D01*
X22034500Y24307909D01*
X21977431Y24296930D01*
X21892269Y24280905D01*
X21789372Y24261767D01*
X21679096Y24241449D01*
X21648615Y24235868D01*
X21546855Y24216083D01*
X21458205Y24196627D01*
X21390108Y24179303D01*
X21350004Y24165912D01*
X21343323Y24161921D01*
X21326919Y24133658D01*
X21303399Y24078891D01*
X21277316Y24008412D01*
X21272142Y23993231D01*
X21237956Y23899104D01*
X21195523Y23792899D01*
X21153997Y23697527D01*
X21153792Y23697084D01*
X21084640Y23547475D01*
X21539512Y22878383D01*
X21247500Y22585884D01*
X21159180Y22498830D01*
X21078625Y22422091D01*
X21010360Y22359763D01*
X20958908Y22315944D01*
X20928794Y22294730D01*
X20924474Y22293384D01*
X20899111Y22303984D01*
X20847358Y22333453D01*
X20774868Y22378295D01*
X20687294Y22435016D01*
X20592612Y22498538D01*
X20496516Y22563332D01*
X20410837Y22619713D01*
X20341016Y22664212D01*
X20292494Y22693361D01*
X20270782Y22703692D01*
X20244293Y22694950D01*
X20194062Y22671913D01*
X20130451Y22639369D01*
X20123708Y22635751D01*
X20038046Y22592790D01*
X19979306Y22571721D01*
X19942772Y22571497D01*
X19923731Y22591072D01*
X19923620Y22591346D01*
X19914102Y22614528D01*
X19891403Y22669559D01*
X19857282Y22752178D01*
X19813500Y22858128D01*
X19761816Y22983148D01*
X19703992Y23122980D01*
X19647991Y23258363D01*
X19586447Y23407766D01*
X19529939Y23546168D01*
X19480161Y23669327D01*
X19438806Y23772998D01*
X19407568Y23852941D01*
X19388141Y23904912D01*
X19382154Y23924308D01*
X19397168Y23946557D01*
X19436439Y23982018D01*
X19488807Y24021113D01*
X19637941Y24144755D01*
X19754511Y24286478D01*
X19837118Y24443296D01*
X19884366Y24612225D01*
X19894857Y24790278D01*
X19887231Y24872461D01*
X19845682Y25042969D01*
X19774123Y25193541D01*
X19676995Y25322691D01*
X19558734Y25428936D01*
X19423780Y25510790D01*
X19276571Y25566768D01*
X19121544Y25595385D01*
X18963139Y25595156D01*
X18805794Y25564595D01*
X18653946Y25502218D01*
X18512035Y25406540D01*
X18452803Y25352428D01*
X18339203Y25213480D01*
X18260106Y25061639D01*
X18214986Y24901333D01*
X18203316Y24736988D01*
X18224569Y24573029D01*
X18278220Y24413882D01*
X18363740Y24263975D01*
X18480605Y24127733D01*
X18611193Y24021113D01*
X18665588Y23980358D01*
X18704014Y23945282D01*
X18717846Y23924274D01*
X18710603Y23901365D01*
X18690005Y23846635D01*
X18657746Y23764328D01*
X18615521Y23658685D01*
X18565023Y23533950D01*
X18507948Y23394364D01*
X18451854Y23258330D01*
X18389967Y23108799D01*
X18332644Y22970233D01*
X18281644Y22846893D01*
X18238727Y22743036D01*
X18205653Y22662920D01*
X18184181Y22610805D01*
X18176225Y22591346D01*
X18157429Y22571577D01*
X18121074Y22571635D01*
X18062479Y22592559D01*
X17976968Y22635387D01*
X17976292Y22635751D01*
X17911907Y22668988D01*
X17859861Y22693198D01*
X17830512Y22703596D01*
X17829217Y22703692D01*
X17807124Y22693145D01*
X17758348Y22663816D01*
X17688331Y22619173D01*
X17602514Y22562686D01*
X17507388Y22498538D01*
X17410540Y22433589D01*
X17323253Y22377104D01*
X17251181Y22332579D01*
X17199977Y22303510D01*
X17175526Y22293384D01*
X17153010Y22306693D01*
X17107742Y22343888D01*
X17044244Y22400872D01*
X16967039Y22473551D01*
X16880651Y22557829D01*
X16852399Y22585984D01*
X16560287Y22878584D01*
X16782631Y23204896D01*
X16850202Y23305103D01*
X16909507Y23395037D01*
X16957217Y23469490D01*
X16990007Y23523249D01*
X17004548Y23551106D01*
X17004974Y23553088D01*
X16997308Y23579345D01*
X16976689Y23632163D01*
X16946685Y23702690D01*
X16925625Y23749907D01*
X16886248Y23840306D01*
X16849165Y23931634D01*
X16820415Y24008800D01*
X16812605Y24032308D01*
X16790417Y24095084D01*
X16768727Y24143589D01*
X16756813Y24161921D01*
X16730523Y24173141D01*
X16673142Y24189046D01*
X16592118Y24207833D01*
X16494895Y24227701D01*
X16451385Y24235868D01*
X16340896Y24256171D01*
X16234916Y24275830D01*
X16143801Y24292912D01*
X16077908Y24305482D01*
X16065500Y24307909D01*
X15962923Y24328155D01*
X15962923Y24755299D01*
X15963153Y24895754D01*
X15964099Y25002021D01*
X15966141Y25078987D01*
X15969662Y25131540D01*
X15975043Y25164567D01*
X15982666Y25182955D01*
X15992912Y25191592D01*
X15997115Y25193193D01*
X16022470Y25198873D01*
X16078484Y25210205D01*
X16157964Y25225821D01*
X16253712Y25244353D01*
X16358533Y25264431D01*
X16465232Y25284688D01*
X16566613Y25303754D01*
X16655479Y25320261D01*
X16724637Y25332841D01*
X16766889Y25340125D01*
X16776290Y25341384D01*
X16784807Y25358237D01*
X16803660Y25403130D01*
X16829324Y25467570D01*
X16839123Y25492808D01*
X16878648Y25590314D01*
X16925192Y25698041D01*
X16966877Y25788828D01*
X16997550Y25858247D01*
X17017956Y25915290D01*
X17024768Y25950223D01*
X17023682Y25954905D01*
X17009285Y25977009D01*
X16976412Y26026169D01*
X16928590Y26097152D01*
X16869348Y26184722D01*
X16802215Y26283643D01*
X16788941Y26303170D01*
X16711046Y26418860D01*
X16653787Y26506956D01*
X16614881Y26571514D01*
X16592044Y26616589D01*
X16582994Y26646237D01*
X16585448Y26664515D01*
X16585511Y26664631D01*
X16604827Y26688639D01*
X16647551Y26735053D01*
X16709051Y26799063D01*
X16784698Y26875855D01*
X16869861Y26960618D01*
X16879465Y26970078D01*
X16986790Y27074011D01*
X17069615Y27150325D01*
X17129605Y27200429D01*
X17168423Y27225730D01*
X17185520Y27228996D01*
X17210473Y27214750D01*
X17262255Y27181844D01*
X17335520Y27133792D01*
X17424920Y27074110D01*
X17525111Y27006312D01*
X17548501Y26990361D01*
X17880593Y26763580D01*
X18030565Y26831647D01*
X18121770Y26871315D01*
X18219669Y26911209D01*
X18303831Y26943017D01*
X18307538Y26944326D01*
X18373369Y26968424D01*
X18424116Y26988800D01*
X18448842Y27001064D01*
X18448884Y27001099D01*
X18456729Y27023266D01*
X18470066Y27077783D01*
X18487570Y27158520D01*
X18507917Y27259350D01*
X18529782Y27374144D01*
X18531571Y27383822D01*
X18553504Y27502096D01*
X18573640Y27609458D01*
X18590680Y27699083D01*
X18603328Y27764149D01*
X18610284Y27797832D01*
X18610406Y27798346D01*
X18614639Y27812675D01*
X18622871Y27823493D01*
X18640033Y27831294D01*
X18671058Y27836571D01*
X18720878Y27839818D01*
X18794424Y27841528D01*
X18896629Y27842193D01*
X19032425Y27842307D01*
X19050000Y27842308D01*
X19189878Y27842224D01*
G36*
X23295224Y21482162D02*
G01*
X23372528Y21431639D01*
X23409814Y21386410D01*
X23439353Y21304337D01*
X23441699Y21239393D01*
X23436385Y21152555D01*
X23236115Y21064897D01*
X23138739Y21020113D01*
X23075113Y20984087D01*
X23042029Y20952883D01*
X23036280Y20922564D01*
X23054658Y20889195D01*
X23074923Y20867077D01*
X23133889Y20831607D01*
X23198024Y20829121D01*
X23256926Y20856765D01*
X23300197Y20911680D01*
X23307936Y20931072D01*
X23345006Y20991636D01*
X23387654Y21017448D01*
X23446154Y21039529D01*
X23446154Y20955816D01*
X23440982Y20898850D01*
X23420723Y20850811D01*
X23378262Y20795654D01*
X23371951Y20788486D01*
X23324720Y20739415D01*
X23284121Y20713080D01*
X23233328Y20700965D01*
X23191220Y20696997D01*
X23115902Y20696009D01*
X23062286Y20708534D01*
X23028838Y20727131D01*
X22976268Y20768025D01*
X22939879Y20812252D01*
X22916850Y20867874D01*
X22904359Y20942953D01*
X22899587Y21045551D01*
X22899206Y21097624D01*
X22900501Y21160052D01*
X23018471Y21160052D01*
X23019839Y21126562D01*
X23023249Y21121077D01*
X23045753Y21128528D01*
X23094182Y21148247D01*
X23158908Y21176282D01*
X23172443Y21182308D01*
X23254244Y21223904D01*
X23299312Y21260462D01*
X23309217Y21294704D01*
X23285526Y21329352D01*
X23265960Y21344661D01*
X23195360Y21375279D01*
X23129280Y21370220D01*
X23073959Y21332849D01*
X23035636Y21266527D01*
X23023349Y21213884D01*
X23018471Y21160052D01*
X22900501Y21160052D01*
X22901730Y21219280D01*
X22911032Y21309290D01*
X22929460Y21374833D01*
X22959360Y21423088D01*
X23003080Y21461233D01*
X23022141Y21473560D01*
X23108726Y21505664D01*
X23203522Y21507684D01*
X23295224Y21482162D01*
G37*
X23295224Y21482162D02*
X23372528Y21431639D01*
X23409814Y21386410D01*
X23439353Y21304337D01*
X23441699Y21239393D01*
X23436385Y21152555D01*
X23236115Y21064897D01*
X23138739Y21020113D01*
X23075113Y20984087D01*
X23042029Y20952883D01*
X23036280Y20922564D01*
X23054658Y20889195D01*
X23074923Y20867077D01*
X23133889Y20831607D01*
X23198024Y20829121D01*
X23256926Y20856765D01*
X23300197Y20911680D01*
X23307936Y20931072D01*
X23345006Y20991636D01*
X23387654Y21017448D01*
X23446154Y21039529D01*
X23446154Y20955816D01*
X23440982Y20898850D01*
X23420723Y20850811D01*
X23378262Y20795654D01*
X23371951Y20788486D01*
X23324720Y20739415D01*
X23284121Y20713080D01*
X23233328Y20700965D01*
X23191220Y20696997D01*
X23115902Y20696009D01*
X23062286Y20708534D01*
X23028838Y20727131D01*
X22976268Y20768025D01*
X22939879Y20812252D01*
X22916850Y20867874D01*
X22904359Y20942953D01*
X22899587Y21045551D01*
X22899206Y21097624D01*
X22900501Y21160052D01*
X23018471Y21160052D01*
X23019839Y21126562D01*
X23023249Y21121077D01*
X23045753Y21128528D01*
X23094182Y21148247D01*
X23158908Y21176282D01*
X23172443Y21182308D01*
X23254244Y21223904D01*
X23299312Y21260462D01*
X23309217Y21294704D01*
X23285526Y21329352D01*
X23265960Y21344661D01*
X23195360Y21375279D01*
X23129280Y21370220D01*
X23073959Y21332849D01*
X23035636Y21266527D01*
X23023349Y21213884D01*
X23018471Y21160052D01*
X22900501Y21160052D01*
X22901730Y21219280D01*
X22911032Y21309290D01*
X22929460Y21374833D01*
X22959360Y21423088D01*
X23003080Y21461233D01*
X23022141Y21473560D01*
X23108726Y21505664D01*
X23203522Y21507684D01*
X23295224Y21482162D01*
G36*
X22620807Y21493218D02*
G01*
X22644161Y21483012D01*
X22699902Y21438866D01*
X22747569Y21375033D01*
X22777048Y21306913D01*
X22781846Y21273330D01*
X22765760Y21226444D01*
X22730475Y21201635D01*
X22692644Y21186613D01*
X22675321Y21183845D01*
X22666886Y21203934D01*
X22650230Y21247649D01*
X22642923Y21267402D01*
X22601948Y21335729D01*
X22542622Y21369809D01*
X22466552Y21368761D01*
X22460918Y21367419D01*
X22420305Y21348164D01*
X22390448Y21310625D01*
X22370055Y21250191D01*
X22357836Y21162249D01*
X22352500Y21042187D01*
X22352000Y20978302D01*
X22351752Y20877597D01*
X22350126Y20808946D01*
X22345801Y20765327D01*
X22337454Y20739718D01*
X22323765Y20725097D01*
X22303411Y20714442D01*
X22302234Y20713905D01*
X22263038Y20697333D01*
X22243619Y20691231D01*
X22240635Y20709681D01*
X22238081Y20760677D01*
X22236140Y20837692D01*
X22234997Y20934195D01*
X22234769Y21004816D01*
X22235932Y21141475D01*
X22240479Y21245149D01*
X22249999Y21321892D01*
X22266081Y21377754D01*
X22290313Y21418788D01*
X22324286Y21451046D01*
X22357833Y21473560D01*
X22438499Y21503524D01*
X22532381Y21510282D01*
X22620807Y21493218D01*
G37*
X22620807Y21493218D02*
X22644161Y21483012D01*
X22699902Y21438866D01*
X22747569Y21375033D01*
X22777048Y21306913D01*
X22781846Y21273330D01*
X22765760Y21226444D01*
X22730475Y21201635D01*
X22692644Y21186613D01*
X22675321Y21183845D01*
X22666886Y21203934D01*
X22650230Y21247649D01*
X22642923Y21267402D01*
X22601948Y21335729D01*
X22542622Y21369809D01*
X22466552Y21368761D01*
X22460918Y21367419D01*
X22420305Y21348164D01*
X22390448Y21310625D01*
X22370055Y21250191D01*
X22357836Y21162249D01*
X22352500Y21042187D01*
X22352000Y20978302D01*
X22351752Y20877597D01*
X22350126Y20808946D01*
X22345801Y20765327D01*
X22337454Y20739718D01*
X22323765Y20725097D01*
X22303411Y20714442D01*
X22302234Y20713905D01*
X22263038Y20697333D01*
X22243619Y20691231D01*
X22240635Y20709681D01*
X22238081Y20760677D01*
X22236140Y20837692D01*
X22234997Y20934195D01*
X22234769Y21004816D01*
X22235932Y21141475D01*
X22240479Y21245149D01*
X22249999Y21321892D01*
X22266081Y21377754D01*
X22290313Y21418788D01*
X22324286Y21451046D01*
X22357833Y21473560D01*
X22438499Y21503524D01*
X22532381Y21510282D01*
X22620807Y21493218D01*
G36*
X21937333Y21496472D02*
G01*
X21993590Y21470883D01*
X22037747Y21439876D01*
X22070101Y21405205D01*
X22092438Y21360480D01*
X22106546Y21299308D01*
X22114211Y21215299D01*
X22117220Y21102060D01*
X22117538Y21027491D01*
X22117538Y20736580D01*
X22067773Y20713905D01*
X22028576Y20697333D01*
X22009157Y20691231D01*
X22005442Y20709390D01*
X22002495Y20758352D01*
X22000691Y20829847D01*
X22000308Y20886615D01*
X21998661Y20968629D01*
X21994222Y21033691D01*
X21987740Y21073533D01*
X21982590Y21082000D01*
X21947977Y21073354D01*
X21893640Y21051177D01*
X21830722Y21021114D01*
X21770368Y20988808D01*
X21723721Y20959902D01*
X21701926Y20940039D01*
X21701839Y20939825D01*
X21703714Y20903065D01*
X21720525Y20867974D01*
X21750039Y20839472D01*
X21793116Y20829939D01*
X21829932Y20831050D01*
X21882074Y20831867D01*
X21909444Y20819651D01*
X21925882Y20787376D01*
X21927955Y20781290D01*
X21935081Y20735261D01*
X21916024Y20707313D01*
X21866353Y20693993D01*
X21812697Y20691530D01*
X21716142Y20709790D01*
X21666159Y20735869D01*
X21604429Y20797132D01*
X21571690Y20872330D01*
X21568753Y20951789D01*
X21596424Y21025833D01*
X21638047Y21072231D01*
X21679604Y21098207D01*
X21744922Y21131093D01*
X21821038Y21164443D01*
X21833726Y21169539D01*
X21917333Y21206435D01*
X21965530Y21238954D01*
X21981030Y21271282D01*
X21966550Y21307606D01*
X21941692Y21336000D01*
X21882939Y21370961D01*
X21818293Y21373583D01*
X21759008Y21346642D01*
X21716339Y21292912D01*
X21710739Y21279050D01*
X21678133Y21228064D01*
X21630530Y21190213D01*
X21570461Y21159150D01*
X21570461Y21247232D01*
X21573997Y21301049D01*
X21589156Y21343466D01*
X21622768Y21388721D01*
X21655035Y21423580D01*
X21705209Y21472938D01*
X21744193Y21499453D01*
X21786064Y21510089D01*
X21833460Y21511846D01*
X21937333Y21496472D01*
G37*
X21937333Y21496472D02*
X21993590Y21470883D01*
X22037747Y21439876D01*
X22070101Y21405205D01*
X22092438Y21360480D01*
X22106546Y21299308D01*
X22114211Y21215299D01*
X22117220Y21102060D01*
X22117538Y21027491D01*
X22117538Y20736580D01*
X22067773Y20713905D01*
X22028576Y20697333D01*
X22009157Y20691231D01*
X22005442Y20709390D01*
X22002495Y20758352D01*
X22000691Y20829847D01*
X22000308Y20886615D01*
X21998661Y20968629D01*
X21994222Y21033691D01*
X21987740Y21073533D01*
X21982590Y21082000D01*
X21947977Y21073354D01*
X21893640Y21051177D01*
X21830722Y21021114D01*
X21770368Y20988808D01*
X21723721Y20959902D01*
X21701926Y20940039D01*
X21701839Y20939825D01*
X21703714Y20903065D01*
X21720525Y20867974D01*
X21750039Y20839472D01*
X21793116Y20829939D01*
X21829932Y20831050D01*
X21882074Y20831867D01*
X21909444Y20819651D01*
X21925882Y20787376D01*
X21927955Y20781290D01*
X21935081Y20735261D01*
X21916024Y20707313D01*
X21866353Y20693993D01*
X21812697Y20691530D01*
X21716142Y20709790D01*
X21666159Y20735869D01*
X21604429Y20797132D01*
X21571690Y20872330D01*
X21568753Y20951789D01*
X21596424Y21025833D01*
X21638047Y21072231D01*
X21679604Y21098207D01*
X21744922Y21131093D01*
X21821038Y21164443D01*
X21833726Y21169539D01*
X21917333Y21206435D01*
X21965530Y21238954D01*
X21981030Y21271282D01*
X21966550Y21307606D01*
X21941692Y21336000D01*
X21882939Y21370961D01*
X21818293Y21373583D01*
X21759008Y21346642D01*
X21716339Y21292912D01*
X21710739Y21279050D01*
X21678133Y21228064D01*
X21630530Y21190213D01*
X21570461Y21159150D01*
X21570461Y21247232D01*
X21573997Y21301049D01*
X21589156Y21343466D01*
X21622768Y21388721D01*
X21655035Y21423580D01*
X21705209Y21472938D01*
X21744193Y21499453D01*
X21786064Y21510089D01*
X21833460Y21511846D01*
X21937333Y21496472D01*
G36*
X21445929Y21493338D02*
G01*
X21448911Y21441932D01*
X21451247Y21363808D01*
X21452749Y21265143D01*
X21453231Y21161657D01*
X21453231Y20811467D01*
X21391401Y20749637D01*
X21348793Y20711538D01*
X21311390Y20696105D01*
X21260270Y20697082D01*
X21239978Y20699567D01*
X21176554Y20706800D01*
X21124095Y20710945D01*
X21111308Y20711328D01*
X21068199Y20708824D01*
X21006544Y20702538D01*
X20982638Y20699567D01*
X20923922Y20694972D01*
X20884464Y20704954D01*
X20845338Y20735772D01*
X20831215Y20749637D01*
X20769385Y20811467D01*
X20769385Y21466497D01*
X20819150Y21489171D01*
X20862002Y21505966D01*
X20887073Y21511846D01*
X20893501Y21493264D01*
X20899509Y21441345D01*
X20904697Y21361828D01*
X20908664Y21260454D01*
X20910577Y21174808D01*
X20915923Y20837769D01*
X20962560Y20831175D01*
X21004976Y20835786D01*
X21025760Y20850713D01*
X21031570Y20878623D01*
X21036530Y20938075D01*
X21040246Y21021534D01*
X21042324Y21121468D01*
X21042624Y21172896D01*
X21042923Y21468946D01*
X21104454Y21490396D01*
X21148004Y21504980D01*
X21171694Y21511781D01*
X21172377Y21511846D01*
X21174754Y21493358D01*
X21177366Y21442094D01*
X21179995Y21364351D01*
X21182421Y21266426D01*
X21184115Y21174808D01*
X21189461Y20837769D01*
X21306692Y20837769D01*
X21312072Y21145254D01*
X21317451Y21452739D01*
X21374601Y21482293D01*
X21416797Y21502587D01*
X21441770Y21511796D01*
X21442491Y21511846D01*
X21445929Y21493338D01*
G37*
X21445929Y21493338D02*
X21448911Y21441932D01*
X21451247Y21363808D01*
X21452749Y21265143D01*
X21453231Y21161657D01*
X21453231Y20811467D01*
X21391401Y20749637D01*
X21348793Y20711538D01*
X21311390Y20696105D01*
X21260270Y20697082D01*
X21239978Y20699567D01*
X21176554Y20706800D01*
X21124095Y20710945D01*
X21111308Y20711328D01*
X21068199Y20708824D01*
X21006544Y20702538D01*
X20982638Y20699567D01*
X20923922Y20694972D01*
X20884464Y20704954D01*
X20845338Y20735772D01*
X20831215Y20749637D01*
X20769385Y20811467D01*
X20769385Y21466497D01*
X20819150Y21489171D01*
X20862002Y21505966D01*
X20887073Y21511846D01*
X20893501Y21493264D01*
X20899509Y21441345D01*
X20904697Y21361828D01*
X20908664Y21260454D01*
X20910577Y21174808D01*
X20915923Y20837769D01*
X20962560Y20831175D01*
X21004976Y20835786D01*
X21025760Y20850713D01*
X21031570Y20878623D01*
X21036530Y20938075D01*
X21040246Y21021534D01*
X21042324Y21121468D01*
X21042624Y21172896D01*
X21042923Y21468946D01*
X21104454Y21490396D01*
X21148004Y21504980D01*
X21171694Y21511781D01*
X21172377Y21511846D01*
X21174754Y21493358D01*
X21177366Y21442094D01*
X21179995Y21364351D01*
X21182421Y21266426D01*
X21184115Y21174808D01*
X21189461Y20837769D01*
X21306692Y20837769D01*
X21312072Y21145254D01*
X21317451Y21452739D01*
X21374601Y21482293D01*
X21416797Y21502587D01*
X21441770Y21511796D01*
X21442491Y21511846D01*
X21445929Y21493338D01*
G36*
X20652081Y21349711D02*
G01*
X20651833Y21203680D01*
X20650872Y21091345D01*
X20648794Y21007322D01*
X20645193Y20946231D01*
X20639665Y20902691D01*
X20631804Y20871321D01*
X20621207Y20846738D01*
X20613182Y20832706D01*
X20546728Y20756612D01*
X20462470Y20708916D01*
X20369249Y20691801D01*
X20275900Y20707454D01*
X20220312Y20735582D01*
X20161957Y20784240D01*
X20122186Y20843667D01*
X20098190Y20921493D01*
X20087161Y21025348D01*
X20085599Y21101538D01*
X20085809Y21107014D01*
X20222308Y21107014D01*
X20223141Y21019645D01*
X20226961Y20961808D01*
X20235746Y20923971D01*
X20251474Y20896602D01*
X20270266Y20875958D01*
X20333375Y20836110D01*
X20401137Y20832705D01*
X20465179Y20865975D01*
X20470164Y20870483D01*
X20491439Y20893933D01*
X20504779Y20921834D01*
X20512001Y20963359D01*
X20514923Y21027684D01*
X20515385Y21098800D01*
X20514383Y21188142D01*
X20510238Y21247742D01*
X20501236Y21286911D01*
X20485667Y21314960D01*
X20472902Y21329856D01*
X20413600Y21367425D01*
X20345301Y21371943D01*
X20280110Y21343247D01*
X20267528Y21332594D01*
X20246111Y21308937D01*
X20232744Y21280749D01*
X20225566Y21238755D01*
X20222719Y21173681D01*
X20222308Y21107014D01*
X20085809Y21107014D01*
X20090322Y21224235D01*
X20106362Y21316423D01*
X20136528Y21385731D01*
X20183629Y21439789D01*
X20220312Y21467495D01*
X20286990Y21497428D01*
X20364272Y21511322D01*
X20436110Y21507603D01*
X20476308Y21492600D01*
X20492082Y21488330D01*
X20502550Y21504250D01*
X20509856Y21546911D01*
X20515385Y21611894D01*
X20521437Y21684268D01*
X20529844Y21727813D01*
X20545141Y21752713D01*
X20571864Y21769155D01*
X20588654Y21776436D01*
X20652154Y21803037D01*
X20652081Y21349711D01*
G37*
X20652081Y21349711D02*
X20651833Y21203680D01*
X20650872Y21091345D01*
X20648794Y21007322D01*
X20645193Y20946231D01*
X20639665Y20902691D01*
X20631804Y20871321D01*
X20621207Y20846738D01*
X20613182Y20832706D01*
X20546728Y20756612D01*
X20462470Y20708916D01*
X20369249Y20691801D01*
X20275900Y20707454D01*
X20220312Y20735582D01*
X20161957Y20784240D01*
X20122186Y20843667D01*
X20098190Y20921493D01*
X20087161Y21025348D01*
X20085599Y21101538D01*
X20085809Y21107014D01*
X20222308Y21107014D01*
X20223141Y21019645D01*
X20226961Y20961808D01*
X20235746Y20923971D01*
X20251474Y20896602D01*
X20270266Y20875958D01*
X20333375Y20836110D01*
X20401137Y20832705D01*
X20465179Y20865975D01*
X20470164Y20870483D01*
X20491439Y20893933D01*
X20504779Y20921834D01*
X20512001Y20963359D01*
X20514923Y21027684D01*
X20515385Y21098800D01*
X20514383Y21188142D01*
X20510238Y21247742D01*
X20501236Y21286911D01*
X20485667Y21314960D01*
X20472902Y21329856D01*
X20413600Y21367425D01*
X20345301Y21371943D01*
X20280110Y21343247D01*
X20267528Y21332594D01*
X20246111Y21308937D01*
X20232744Y21280749D01*
X20225566Y21238755D01*
X20222719Y21173681D01*
X20222308Y21107014D01*
X20085809Y21107014D01*
X20090322Y21224235D01*
X20106362Y21316423D01*
X20136528Y21385731D01*
X20183629Y21439789D01*
X20220312Y21467495D01*
X20286990Y21497428D01*
X20364272Y21511322D01*
X20436110Y21507603D01*
X20476308Y21492600D01*
X20492082Y21488330D01*
X20502550Y21504250D01*
X20509856Y21546911D01*
X20515385Y21611894D01*
X20521437Y21684268D01*
X20529844Y21727813D01*
X20545141Y21752713D01*
X20571864Y21769155D01*
X20588654Y21776436D01*
X20652154Y21803037D01*
X20652081Y21349711D01*
G36*
X19763362Y21505330D02*
G01*
X19852117Y21472579D01*
X19924022Y21414650D01*
X19952144Y21373872D01*
X19982802Y21299046D01*
X19982165Y21244942D01*
X19949987Y21208554D01*
X19938081Y21202367D01*
X19886675Y21183075D01*
X19860422Y21188018D01*
X19851530Y21220413D01*
X19851077Y21238308D01*
X19834797Y21304141D01*
X19792365Y21350193D01*
X19733388Y21372436D01*
X19667475Y21366839D01*
X19613895Y21337771D01*
X19595798Y21321190D01*
X19582971Y21301075D01*
X19574306Y21270668D01*
X19568696Y21223212D01*
X19565035Y21151950D01*
X19562215Y21050125D01*
X19561484Y21017885D01*
X19558820Y20907590D01*
X19555792Y20829964D01*
X19551250Y20778604D01*
X19544046Y20747110D01*
X19533033Y20729080D01*
X19517060Y20718112D01*
X19506834Y20713267D01*
X19463406Y20696699D01*
X19437842Y20691231D01*
X19429395Y20709493D01*
X19424239Y20764704D01*
X19422346Y20857501D01*
X19423689Y20988522D01*
X19424107Y21008731D01*
X19427058Y21128267D01*
X19430548Y21215551D01*
X19435514Y21277409D01*
X19442893Y21320664D01*
X19453624Y21352140D01*
X19468645Y21378661D01*
X19476502Y21390025D01*
X19521553Y21440308D01*
X19571940Y21479419D01*
X19578108Y21482833D01*
X19668458Y21509788D01*
X19763362Y21505330D01*
G37*
X19763362Y21505330D02*
X19852117Y21472579D01*
X19924022Y21414650D01*
X19952144Y21373872D01*
X19982802Y21299046D01*
X19982165Y21244942D01*
X19949987Y21208554D01*
X19938081Y21202367D01*
X19886675Y21183075D01*
X19860422Y21188018D01*
X19851530Y21220413D01*
X19851077Y21238308D01*
X19834797Y21304141D01*
X19792365Y21350193D01*
X19733388Y21372436D01*
X19667475Y21366839D01*
X19613895Y21337771D01*
X19595798Y21321190D01*
X19582971Y21301075D01*
X19574306Y21270668D01*
X19568696Y21223212D01*
X19565035Y21151950D01*
X19562215Y21050125D01*
X19561484Y21017885D01*
X19558820Y20907590D01*
X19555792Y20829964D01*
X19551250Y20778604D01*
X19544046Y20747110D01*
X19533033Y20729080D01*
X19517060Y20718112D01*
X19506834Y20713267D01*
X19463406Y20696699D01*
X19437842Y20691231D01*
X19429395Y20709493D01*
X19424239Y20764704D01*
X19422346Y20857501D01*
X19423689Y20988522D01*
X19424107Y21008731D01*
X19427058Y21128267D01*
X19430548Y21215551D01*
X19435514Y21277409D01*
X19442893Y21320664D01*
X19453624Y21352140D01*
X19468645Y21378661D01*
X19476502Y21390025D01*
X19521553Y21440308D01*
X19571940Y21479419D01*
X19578108Y21482833D01*
X19668458Y21509788D01*
X19763362Y21505330D01*
G36*
X19103501Y21503697D02*
G01*
X19180060Y21475267D01*
X19180936Y21474721D01*
X19228285Y21439873D01*
X19263241Y21399148D01*
X19287825Y21346075D01*
X19304062Y21274186D01*
X19313975Y21177008D01*
X19319586Y21048072D01*
X19320077Y21029702D01*
X19327141Y20752713D01*
X19267695Y20721972D01*
X19224681Y20701198D01*
X19198710Y20691354D01*
X19197509Y20691231D01*
X19193014Y20709394D01*
X19189444Y20758388D01*
X19187248Y20829969D01*
X19186769Y20887932D01*
X19186758Y20981830D01*
X19182466Y21040797D01*
X19167503Y21068921D01*
X19135482Y21070294D01*
X19080014Y21049002D01*
X18996269Y21009864D01*
X18934689Y20977357D01*
X18903017Y20949155D01*
X18893706Y20918418D01*
X18893692Y20916896D01*
X18909057Y20863946D01*
X18954547Y20835340D01*
X19024166Y20831197D01*
X19074313Y20831916D01*
X19100754Y20817473D01*
X19117243Y20782782D01*
X19126733Y20738584D01*
X19113057Y20713507D01*
X19107907Y20709918D01*
X19059425Y20695504D01*
X18991531Y20693463D01*
X18921612Y20703017D01*
X18872068Y20720478D01*
X18803570Y20778636D01*
X18764634Y20859592D01*
X18756923Y20922840D01*
X18762807Y20979889D01*
X18784101Y21026458D01*
X18826265Y21067819D01*
X18894759Y21109245D01*
X18995044Y21156007D01*
X19001154Y21158650D01*
X19091490Y21200383D01*
X19147235Y21234609D01*
X19171129Y21265365D01*
X19165913Y21296689D01*
X19134328Y21332617D01*
X19124883Y21340884D01*
X19061617Y21372942D01*
X18996064Y21371593D01*
X18938972Y21340162D01*
X18901093Y21281976D01*
X18897574Y21270554D01*
X18863300Y21215163D01*
X18819809Y21188482D01*
X18756923Y21162040D01*
X18756923Y21230452D01*
X18776052Y21329890D01*
X18832831Y21421098D01*
X18862378Y21451611D01*
X18929542Y21490772D01*
X19014956Y21508500D01*
X19103501Y21503697D01*
G37*
X19103501Y21503697D02*
X19180060Y21475267D01*
X19180936Y21474721D01*
X19228285Y21439873D01*
X19263241Y21399148D01*
X19287825Y21346075D01*
X19304062Y21274186D01*
X19313975Y21177008D01*
X19319586Y21048072D01*
X19320077Y21029702D01*
X19327141Y20752713D01*
X19267695Y20721972D01*
X19224681Y20701198D01*
X19198710Y20691354D01*
X19197509Y20691231D01*
X19193014Y20709394D01*
X19189444Y20758388D01*
X19187248Y20829969D01*
X19186769Y20887932D01*
X19186758Y20981830D01*
X19182466Y21040797D01*
X19167503Y21068921D01*
X19135482Y21070294D01*
X19080014Y21049002D01*
X18996269Y21009864D01*
X18934689Y20977357D01*
X18903017Y20949155D01*
X18893706Y20918418D01*
X18893692Y20916896D01*
X18909057Y20863946D01*
X18954547Y20835340D01*
X19024166Y20831197D01*
X19074313Y20831916D01*
X19100754Y20817473D01*
X19117243Y20782782D01*
X19126733Y20738584D01*
X19113057Y20713507D01*
X19107907Y20709918D01*
X19059425Y20695504D01*
X18991531Y20693463D01*
X18921612Y20703017D01*
X18872068Y20720478D01*
X18803570Y20778636D01*
X18764634Y20859592D01*
X18756923Y20922840D01*
X18762807Y20979889D01*
X18784101Y21026458D01*
X18826265Y21067819D01*
X18894759Y21109245D01*
X18995044Y21156007D01*
X19001154Y21158650D01*
X19091490Y21200383D01*
X19147235Y21234609D01*
X19171129Y21265365D01*
X19165913Y21296689D01*
X19134328Y21332617D01*
X19124883Y21340884D01*
X19061617Y21372942D01*
X18996064Y21371593D01*
X18938972Y21340162D01*
X18901093Y21281976D01*
X18897574Y21270554D01*
X18863300Y21215163D01*
X18819809Y21188482D01*
X18756923Y21162040D01*
X18756923Y21230452D01*
X18776052Y21329890D01*
X18832831Y21421098D01*
X18862378Y21451611D01*
X18929542Y21490772D01*
X19014956Y21508500D01*
X19103501Y21503697D01*
G36*
X18209846Y21637880D02*
G01*
X18215572Y21558020D01*
X18222149Y21510961D01*
X18231262Y21490434D01*
X18244598Y21490171D01*
X18248923Y21492622D01*
X18306444Y21510364D01*
X18381268Y21509328D01*
X18457339Y21491090D01*
X18504918Y21467495D01*
X18553702Y21429802D01*
X18589364Y21387145D01*
X18613845Y21332943D01*
X18629087Y21260616D01*
X18637030Y21163581D01*
X18639616Y21035258D01*
X18639662Y21010642D01*
X18639692Y20734130D01*
X18578161Y20712680D01*
X18534459Y20698088D01*
X18510482Y20691294D01*
X18509777Y20691231D01*
X18507415Y20709655D01*
X18505406Y20760474D01*
X18503901Y20837007D01*
X18503053Y20932570D01*
X18502923Y20990671D01*
X18502651Y21105229D01*
X18501252Y21187333D01*
X18497849Y21243607D01*
X18491567Y21280674D01*
X18481529Y21305156D01*
X18466861Y21323675D01*
X18457702Y21332594D01*
X18394789Y21368534D01*
X18326136Y21371225D01*
X18263848Y21340830D01*
X18252329Y21329856D01*
X18235433Y21309221D01*
X18223714Y21284744D01*
X18216233Y21249353D01*
X18212054Y21195974D01*
X18210237Y21117534D01*
X18209846Y21009383D01*
X18209846Y20734130D01*
X18148315Y20712680D01*
X18104613Y20698088D01*
X18080636Y20691294D01*
X18079930Y20691231D01*
X18078126Y20709931D01*
X18076500Y20762678D01*
X18075117Y20844443D01*
X18074042Y20950195D01*
X18073340Y21074906D01*
X18073077Y21213545D01*
X18073077Y21748194D01*
X18200077Y21801764D01*
X18209846Y21637880D01*
G37*
X18209846Y21637880D02*
X18215572Y21558020D01*
X18222149Y21510961D01*
X18231262Y21490434D01*
X18244598Y21490171D01*
X18248923Y21492622D01*
X18306444Y21510364D01*
X18381268Y21509328D01*
X18457339Y21491090D01*
X18504918Y21467495D01*
X18553702Y21429802D01*
X18589364Y21387145D01*
X18613845Y21332943D01*
X18629087Y21260616D01*
X18637030Y21163581D01*
X18639616Y21035258D01*
X18639662Y21010642D01*
X18639692Y20734130D01*
X18578161Y20712680D01*
X18534459Y20698088D01*
X18510482Y20691294D01*
X18509777Y20691231D01*
X18507415Y20709655D01*
X18505406Y20760474D01*
X18503901Y20837007D01*
X18503053Y20932570D01*
X18502923Y20990671D01*
X18502651Y21105229D01*
X18501252Y21187333D01*
X18497849Y21243607D01*
X18491567Y21280674D01*
X18481529Y21305156D01*
X18466861Y21323675D01*
X18457702Y21332594D01*
X18394789Y21368534D01*
X18326136Y21371225D01*
X18263848Y21340830D01*
X18252329Y21329856D01*
X18235433Y21309221D01*
X18223714Y21284744D01*
X18216233Y21249353D01*
X18212054Y21195974D01*
X18210237Y21117534D01*
X18209846Y21009383D01*
X18209846Y20734130D01*
X18148315Y20712680D01*
X18104613Y20698088D01*
X18080636Y20691294D01*
X18079930Y20691231D01*
X18078126Y20709931D01*
X18076500Y20762678D01*
X18075117Y20844443D01*
X18074042Y20950195D01*
X18073340Y21074906D01*
X18073077Y21213545D01*
X18073077Y21748194D01*
X18200077Y21801764D01*
X18209846Y21637880D01*
G36*
X16584254Y21530255D02*
G01*
X16661286Y21478433D01*
X16720816Y21403588D01*
X16756378Y21308346D01*
X16763571Y21238244D01*
X16762754Y21208991D01*
X16755914Y21186593D01*
X16737112Y21166526D01*
X16700408Y21144267D01*
X16639862Y21115291D01*
X16549534Y21075073D01*
X16549077Y21074871D01*
X16465933Y21036790D01*
X16397753Y21002975D01*
X16351505Y20977067D01*
X16334158Y20962705D01*
X16334154Y20962589D01*
X16349443Y20931315D01*
X16385196Y20896843D01*
X16426242Y20872010D01*
X16447037Y20867077D01*
X16503770Y20884138D01*
X16552627Y20926867D01*
X16576465Y20973845D01*
X16599397Y21008478D01*
X16644318Y21047919D01*
X16697123Y21081991D01*
X16743710Y21100520D01*
X16753452Y21101538D01*
X16764418Y21084785D01*
X16765079Y21041961D01*
X16757020Y20984219D01*
X16741827Y20922711D01*
X16721086Y20868591D01*
X16720038Y20866490D01*
X16657621Y20779340D01*
X16576726Y20720061D01*
X16484856Y20690966D01*
X16389513Y20694366D01*
X16298198Y20732572D01*
X16294138Y20735259D01*
X16222306Y20800358D01*
X16175073Y20885295D01*
X16148934Y20996979D01*
X16145426Y21028357D01*
X16139213Y21176464D01*
X16146661Y21245532D01*
X16334154Y21245532D01*
X16336590Y21202448D01*
X16349914Y21189874D01*
X16383132Y21199281D01*
X16435494Y21221517D01*
X16494024Y21249390D01*
X16495479Y21250128D01*
X16545089Y21276223D01*
X16565000Y21293637D01*
X16560090Y21311893D01*
X16539416Y21335880D01*
X16486819Y21370594D01*
X16430177Y21373144D01*
X16379369Y21347881D01*
X16344276Y21299153D01*
X16334154Y21245532D01*
X16146661Y21245532D01*
X16151992Y21294964D01*
X16184778Y21388945D01*
X16230421Y21454785D01*
X16312802Y21521319D01*
X16403546Y21554324D01*
X16496185Y21556427D01*
X16584254Y21530255D01*
G37*
X16584254Y21530255D02*
X16661286Y21478433D01*
X16720816Y21403588D01*
X16756378Y21308346D01*
X16763571Y21238244D01*
X16762754Y21208991D01*
X16755914Y21186593D01*
X16737112Y21166526D01*
X16700408Y21144267D01*
X16639862Y21115291D01*
X16549534Y21075073D01*
X16549077Y21074871D01*
X16465933Y21036790D01*
X16397753Y21002975D01*
X16351505Y20977067D01*
X16334158Y20962705D01*
X16334154Y20962589D01*
X16349443Y20931315D01*
X16385196Y20896843D01*
X16426242Y20872010D01*
X16447037Y20867077D01*
X16503770Y20884138D01*
X16552627Y20926867D01*
X16576465Y20973845D01*
X16599397Y21008478D01*
X16644318Y21047919D01*
X16697123Y21081991D01*
X16743710Y21100520D01*
X16753452Y21101538D01*
X16764418Y21084785D01*
X16765079Y21041961D01*
X16757020Y20984219D01*
X16741827Y20922711D01*
X16721086Y20868591D01*
X16720038Y20866490D01*
X16657621Y20779340D01*
X16576726Y20720061D01*
X16484856Y20690966D01*
X16389513Y20694366D01*
X16298198Y20732572D01*
X16294138Y20735259D01*
X16222306Y20800358D01*
X16175073Y20885295D01*
X16148934Y20996979D01*
X16145426Y21028357D01*
X16139213Y21176464D01*
X16146661Y21245532D01*
X16334154Y21245532D01*
X16336590Y21202448D01*
X16349914Y21189874D01*
X16383132Y21199281D01*
X16435494Y21221517D01*
X16494024Y21249390D01*
X16495479Y21250128D01*
X16545089Y21276223D01*
X16565000Y21293637D01*
X16560090Y21311893D01*
X16539416Y21335880D01*
X16486819Y21370594D01*
X16430177Y21373144D01*
X16379369Y21347881D01*
X16344276Y21299153D01*
X16334154Y21245532D01*
X16146661Y21245532D01*
X16151992Y21294964D01*
X16184778Y21388945D01*
X16230421Y21454785D01*
X16312802Y21521319D01*
X16403546Y21554324D01*
X16496185Y21556427D01*
X16584254Y21530255D01*
G36*
X15066886Y21542744D02*
G01*
X15158464Y21494591D01*
X15226049Y21417095D01*
X15250057Y21367273D01*
X15268738Y21292467D01*
X15278301Y21197948D01*
X15279208Y21094790D01*
X15271921Y20994065D01*
X15256903Y20906847D01*
X15234615Y20844209D01*
X15227765Y20833421D01*
X15146632Y20752895D01*
X15050266Y20704664D01*
X14945701Y20690550D01*
X14839968Y20712371D01*
X14810543Y20725453D01*
X14753241Y20765769D01*
X14702950Y20819225D01*
X14698197Y20826005D01*
X14678878Y20858679D01*
X14666108Y20893606D01*
X14658564Y20939586D01*
X14654924Y21005416D01*
X14653865Y21099895D01*
X14653846Y21121077D01*
X14653894Y21127818D01*
X14849231Y21127818D01*
X14850368Y21038651D01*
X14854841Y20979480D01*
X14864246Y20941259D01*
X14880176Y20914947D01*
X14888308Y20906154D01*
X14935058Y20872739D01*
X14980447Y20874263D01*
X15026340Y20903248D01*
X15053712Y20934191D01*
X15069923Y20979357D01*
X15079026Y21050580D01*
X15079651Y21058886D01*
X15081204Y21187963D01*
X15064965Y21283828D01*
X15031152Y21345893D01*
X14979984Y21373568D01*
X14961720Y21375077D01*
X14913760Y21367487D01*
X14880953Y21341192D01*
X14860895Y21290905D01*
X14851178Y21211336D01*
X14849231Y21127818D01*
X14653894Y21127818D01*
X14654574Y21221751D01*
X14657629Y21292094D01*
X14664322Y21340837D01*
X14675960Y21376712D01*
X14693853Y21408452D01*
X14697808Y21414352D01*
X14764267Y21493896D01*
X14836685Y21540071D01*
X14924849Y21558401D01*
X14954787Y21559297D01*
X15066886Y21542744D01*
G37*
X15066886Y21542744D02*
X15158464Y21494591D01*
X15226049Y21417095D01*
X15250057Y21367273D01*
X15268738Y21292467D01*
X15278301Y21197948D01*
X15279208Y21094790D01*
X15271921Y20994065D01*
X15256903Y20906847D01*
X15234615Y20844209D01*
X15227765Y20833421D01*
X15146632Y20752895D01*
X15050266Y20704664D01*
X14945701Y20690550D01*
X14839968Y20712371D01*
X14810543Y20725453D01*
X14753241Y20765769D01*
X14702950Y20819225D01*
X14698197Y20826005D01*
X14678878Y20858679D01*
X14666108Y20893606D01*
X14658564Y20939586D01*
X14654924Y21005416D01*
X14653865Y21099895D01*
X14653846Y21121077D01*
X14653894Y21127818D01*
X14849231Y21127818D01*
X14850368Y21038651D01*
X14854841Y20979480D01*
X14864246Y20941259D01*
X14880176Y20914947D01*
X14888308Y20906154D01*
X14935058Y20872739D01*
X14980447Y20874263D01*
X15026340Y20903248D01*
X15053712Y20934191D01*
X15069923Y20979357D01*
X15079026Y21050580D01*
X15079651Y21058886D01*
X15081204Y21187963D01*
X15064965Y21283828D01*
X15031152Y21345893D01*
X14979984Y21373568D01*
X14961720Y21375077D01*
X14913760Y21367487D01*
X14880953Y21341192D01*
X14860895Y21290905D01*
X14851178Y21211336D01*
X14849231Y21127818D01*
X14653894Y21127818D01*
X14654574Y21221751D01*
X14657629Y21292094D01*
X14664322Y21340837D01*
X14675960Y21376712D01*
X14693853Y21408452D01*
X14697808Y21414352D01*
X14764267Y21493896D01*
X14836685Y21540071D01*
X14924849Y21558401D01*
X14954787Y21559297D01*
X15066886Y21542744D01*
G36*
X17321664Y21534911D02*
G01*
X17384367Y21498642D01*
X17427961Y21462642D01*
X17459845Y21424925D01*
X17481810Y21378801D01*
X17495649Y21317579D01*
X17503153Y21234569D01*
X17506117Y21123081D01*
X17506461Y21042938D01*
X17506461Y20747935D01*
X17340385Y20673485D01*
X17330615Y20996598D01*
X17326579Y21117271D01*
X17322344Y21204859D01*
X17317097Y21265350D01*
X17310025Y21304732D01*
X17300311Y21328993D01*
X17287144Y21344120D01*
X17282919Y21347394D01*
X17218909Y21372966D01*
X17154208Y21362847D01*
X17115692Y21336000D01*
X17100025Y21316976D01*
X17089180Y21292012D01*
X17082288Y21254166D01*
X17078479Y21196498D01*
X17076883Y21112065D01*
X17076615Y21024072D01*
X17076563Y20913677D01*
X17074672Y20835537D01*
X17068345Y20782835D01*
X17054983Y20748758D01*
X17031985Y20726489D01*
X16996754Y20709213D01*
X16949697Y20691262D01*
X16898303Y20671722D01*
X16904421Y21018515D01*
X16906884Y21143532D01*
X16909767Y21235918D01*
X16913898Y21302119D01*
X16920107Y21348580D01*
X16929226Y21381744D01*
X16942083Y21408056D01*
X16957584Y21431271D01*
X17032371Y21505431D01*
X17123628Y21548316D01*
X17222883Y21558588D01*
X17321664Y21534911D01*
G37*
X17321664Y21534911D02*
X17384367Y21498642D01*
X17427961Y21462642D01*
X17459845Y21424925D01*
X17481810Y21378801D01*
X17495649Y21317579D01*
X17503153Y21234569D01*
X17506117Y21123081D01*
X17506461Y21042938D01*
X17506461Y20747935D01*
X17340385Y20673485D01*
X17330615Y20996598D01*
X17326579Y21117271D01*
X17322344Y21204859D01*
X17317097Y21265350D01*
X17310025Y21304732D01*
X17300311Y21328993D01*
X17287144Y21344120D01*
X17282919Y21347394D01*
X17218909Y21372966D01*
X17154208Y21362847D01*
X17115692Y21336000D01*
X17100025Y21316976D01*
X17089180Y21292012D01*
X17082288Y21254166D01*
X17078479Y21196498D01*
X17076883Y21112065D01*
X17076615Y21024072D01*
X17076563Y20913677D01*
X17074672Y20835537D01*
X17068345Y20782835D01*
X17054983Y20748758D01*
X17031985Y20726489D01*
X16996754Y20709213D01*
X16949697Y20691262D01*
X16898303Y20671722D01*
X16904421Y21018515D01*
X16906884Y21143532D01*
X16909767Y21235918D01*
X16913898Y21302119D01*
X16920107Y21348580D01*
X16929226Y21381744D01*
X16942083Y21408056D01*
X16957584Y21431271D01*
X17032371Y21505431D01*
X17123628Y21548316D01*
X17222883Y21558588D01*
X17321664Y21534911D01*
G36*
X15818886Y21545495D02*
G01*
X15893539Y21508273D01*
X15959431Y21439739D01*
X15977577Y21414352D01*
X15997345Y21381134D01*
X16010172Y21345055D01*
X16017510Y21296902D01*
X16020813Y21227464D01*
X16021538Y21135794D01*
X16018263Y21010170D01*
X16006877Y20915846D01*
X15985041Y20845477D01*
X15950419Y20791714D01*
X15900670Y20747212D01*
X15897014Y20744577D01*
X15847985Y20717623D01*
X15788945Y20704288D01*
X15713859Y20701000D01*
X15591795Y20701000D01*
X15591744Y20582503D01*
X15590608Y20516508D01*
X15583686Y20477798D01*
X15565598Y20454581D01*
X15530962Y20435067D01*
X15522645Y20431080D01*
X15483720Y20412397D01*
X15453583Y20400597D01*
X15431174Y20399578D01*
X15415433Y20413239D01*
X15405302Y20445478D01*
X15399723Y20500196D01*
X15397635Y20581289D01*
X15397981Y20692656D01*
X15399700Y20838198D01*
X15400237Y20881731D01*
X15402172Y21031795D01*
X15403904Y21129958D01*
X15591692Y21129958D01*
X15592748Y21046636D01*
X15597438Y20992120D01*
X15608051Y20956163D01*
X15626872Y20928518D01*
X15639650Y20915035D01*
X15691890Y20875583D01*
X15738142Y20872372D01*
X15785867Y20904951D01*
X15787077Y20906154D01*
X15806494Y20931332D01*
X15818307Y20965553D01*
X15824265Y21018252D01*
X15826120Y21098869D01*
X15826154Y21116729D01*
X15821670Y21227825D01*
X15807074Y21304839D01*
X15780650Y21351853D01*
X15740683Y21372950D01*
X15717584Y21375077D01*
X15662762Y21365100D01*
X15625158Y21332248D01*
X15602523Y21272143D01*
X15592606Y21180402D01*
X15591692Y21129958D01*
X15403904Y21129958D01*
X15404222Y21147940D01*
X15406873Y21235321D01*
X15410606Y21299095D01*
X15415907Y21344418D01*
X15423258Y21376445D01*
X15433143Y21400332D01*
X15446046Y21421236D01*
X15451579Y21429102D01*
X15524969Y21503405D01*
X15617760Y21545533D01*
X15725096Y21557278D01*
X15818886Y21545495D01*
G37*
X15818886Y21545495D02*
X15893539Y21508273D01*
X15959431Y21439739D01*
X15977577Y21414352D01*
X15997345Y21381134D01*
X16010172Y21345055D01*
X16017510Y21296902D01*
X16020813Y21227464D01*
X16021538Y21135794D01*
X16018263Y21010170D01*
X16006877Y20915846D01*
X15985041Y20845477D01*
X15950419Y20791714D01*
X15900670Y20747212D01*
X15897014Y20744577D01*
X15847985Y20717623D01*
X15788945Y20704288D01*
X15713859Y20701000D01*
X15591795Y20701000D01*
X15591744Y20582503D01*
X15590608Y20516508D01*
X15583686Y20477798D01*
X15565598Y20454581D01*
X15530962Y20435067D01*
X15522645Y20431080D01*
X15483720Y20412397D01*
X15453583Y20400597D01*
X15431174Y20399578D01*
X15415433Y20413239D01*
X15405302Y20445478D01*
X15399723Y20500196D01*
X15397635Y20581289D01*
X15397981Y20692656D01*
X15399700Y20838198D01*
X15400237Y20881731D01*
X15402172Y21031795D01*
X15403904Y21129958D01*
X15591692Y21129958D01*
X15592748Y21046636D01*
X15597438Y20992120D01*
X15608051Y20956163D01*
X15626872Y20928518D01*
X15639650Y20915035D01*
X15691890Y20875583D01*
X15738142Y20872372D01*
X15785867Y20904951D01*
X15787077Y20906154D01*
X15806494Y20931332D01*
X15818307Y20965553D01*
X15824265Y21018252D01*
X15826120Y21098869D01*
X15826154Y21116729D01*
X15821670Y21227825D01*
X15807074Y21304839D01*
X15780650Y21351853D01*
X15740683Y21372950D01*
X15717584Y21375077D01*
X15662762Y21365100D01*
X15625158Y21332248D01*
X15602523Y21272143D01*
X15592606Y21180402D01*
X15591692Y21129958D01*
X15403904Y21129958D01*
X15404222Y21147940D01*
X15406873Y21235321D01*
X15410606Y21299095D01*
X15415907Y21344418D01*
X15423258Y21376445D01*
X15433143Y21400332D01*
X15446046Y21421236D01*
X15451579Y21429102D01*
X15524969Y21503405D01*
X15617760Y21545533D01*
X15725096Y21557278D01*
X15818886Y21545495D01*
%TO.C,G1*%
G36*
X38433375Y26162000D02*
G01*
X37592000Y26162000D01*
X37592000Y25796875D01*
X38385750Y25796875D01*
X38385750Y25431750D01*
X37592000Y25431750D01*
X37592000Y24987250D01*
X38465125Y24987250D01*
X38465125Y24606250D01*
X37083754Y24606250D01*
X37087845Y25570657D01*
X37091937Y26535063D01*
X38433375Y26543345D01*
X38433375Y26162000D01*
G37*
X38433375Y26162000D02*
X37592000Y26162000D01*
X37592000Y25796875D01*
X38385750Y25796875D01*
X38385750Y25431750D01*
X37592000Y25431750D01*
X37592000Y24987250D01*
X38465125Y24987250D01*
X38465125Y24606250D01*
X37083754Y24606250D01*
X37087845Y25570657D01*
X37091937Y26535063D01*
X38433375Y26543345D01*
X38433375Y26162000D01*
G36*
X34369375Y26162000D02*
G01*
X33528000Y26162000D01*
X33528000Y25796875D01*
X34321750Y25796875D01*
X34321750Y25432305D01*
X33928843Y25428059D01*
X33535937Y25423813D01*
X33531520Y25205532D01*
X33527104Y24987250D01*
X34401125Y24987250D01*
X34401125Y24606250D01*
X33035875Y24606250D01*
X33035875Y26543000D01*
X34369375Y26543000D01*
X34369375Y26162000D01*
G37*
X34369375Y26162000D02*
X33528000Y26162000D01*
X33528000Y25796875D01*
X34321750Y25796875D01*
X34321750Y25432305D01*
X33928843Y25428059D01*
X33535937Y25423813D01*
X33531520Y25205532D01*
X33527104Y24987250D01*
X34401125Y24987250D01*
X34401125Y24606250D01*
X33035875Y24606250D01*
X33035875Y26543000D01*
X34369375Y26543000D01*
X34369375Y26162000D01*
G36*
X32575500Y26246033D02*
G01*
X32203404Y25430110D01*
X31831309Y24614188D01*
X31592217Y24609806D01*
X31509183Y24608951D01*
X31438675Y24609496D01*
X31386167Y24611299D01*
X31357131Y24614214D01*
X31353125Y24616084D01*
X31359506Y24632172D01*
X31377835Y24674424D01*
X31406890Y24740113D01*
X31445450Y24826512D01*
X31492292Y24930896D01*
X31546196Y25050537D01*
X31605939Y25182710D01*
X31670300Y25324687D01*
X31696002Y25381276D01*
X31762073Y25526733D01*
X31824262Y25663760D01*
X31881311Y25789580D01*
X31931964Y25901416D01*
X31974963Y25996489D01*
X32009053Y26072021D01*
X32032975Y26125236D01*
X32045473Y26153355D01*
X32046950Y26156842D01*
X32044239Y26163059D01*
X32028830Y26167975D01*
X31997770Y26171727D01*
X31948103Y26174452D01*
X31876877Y26176286D01*
X31781138Y26177367D01*
X31657930Y26177831D01*
X31592948Y26177875D01*
X31130875Y26177875D01*
X31130875Y26543000D01*
X32575500Y26543000D01*
X32575500Y26246033D01*
G37*
X32575500Y26246033D02*
X32203404Y25430110D01*
X31831309Y24614188D01*
X31592217Y24609806D01*
X31509183Y24608951D01*
X31438675Y24609496D01*
X31386167Y24611299D01*
X31357131Y24614214D01*
X31353125Y24616084D01*
X31359506Y24632172D01*
X31377835Y24674424D01*
X31406890Y24740113D01*
X31445450Y24826512D01*
X31492292Y24930896D01*
X31546196Y25050537D01*
X31605939Y25182710D01*
X31670300Y25324687D01*
X31696002Y25381276D01*
X31762073Y25526733D01*
X31824262Y25663760D01*
X31881311Y25789580D01*
X31931964Y25901416D01*
X31974963Y25996489D01*
X32009053Y26072021D01*
X32032975Y26125236D01*
X32045473Y26153355D01*
X32046950Y26156842D01*
X32044239Y26163059D01*
X32028830Y26167975D01*
X31997770Y26171727D01*
X31948103Y26174452D01*
X31876877Y26176286D01*
X31781138Y26177367D01*
X31657930Y26177831D01*
X31592948Y26177875D01*
X31130875Y26177875D01*
X31130875Y26543000D01*
X32575500Y26543000D01*
X32575500Y26246033D01*
G36*
X26519397Y25572809D02*
G01*
X26541424Y25568272D01*
X26543000Y25566464D01*
X26534597Y25551323D01*
X26511214Y25514063D01*
X26475582Y25458914D01*
X26430436Y25390105D01*
X26378509Y25311865D01*
X26376312Y25308572D01*
X26209625Y25058843D01*
X26209625Y24606250D01*
X26082625Y24606250D01*
X26082625Y25067646D01*
X25915937Y25311581D01*
X25863359Y25389062D01*
X25817594Y25457528D01*
X25781450Y25512695D01*
X25757733Y25550279D01*
X25749250Y25565984D01*
X25763331Y25571346D01*
X25798761Y25572490D01*
X25816718Y25571570D01*
X25843178Y25568979D01*
X25864671Y25562899D01*
X25885217Y25549294D01*
X25908837Y25524130D01*
X25939550Y25483372D01*
X25981377Y25422985D01*
X26016780Y25370776D01*
X26149372Y25174864D01*
X26282869Y25374745D01*
X26416366Y25574625D01*
X26479683Y25574625D01*
X26519397Y25572809D01*
G37*
X26519397Y25572809D02*
X26541424Y25568272D01*
X26543000Y25566464D01*
X26534597Y25551323D01*
X26511214Y25514063D01*
X26475582Y25458914D01*
X26430436Y25390105D01*
X26378509Y25311865D01*
X26376312Y25308572D01*
X26209625Y25058843D01*
X26209625Y24606250D01*
X26082625Y24606250D01*
X26082625Y25067646D01*
X25915937Y25311581D01*
X25863359Y25389062D01*
X25817594Y25457528D01*
X25781450Y25512695D01*
X25757733Y25550279D01*
X25749250Y25565984D01*
X25763331Y25571346D01*
X25798761Y25572490D01*
X25816718Y25571570D01*
X25843178Y25568979D01*
X25864671Y25562899D01*
X25885217Y25549294D01*
X25908837Y25524130D01*
X25939550Y25483372D01*
X25981377Y25422985D01*
X26016780Y25370776D01*
X26149372Y25174864D01*
X26282869Y25374745D01*
X26416366Y25574625D01*
X26479683Y25574625D01*
X26519397Y25572809D01*
G36*
X25269031Y25571715D02*
G01*
X25376795Y25567568D01*
X25458282Y25560803D01*
X25518942Y25549911D01*
X25564227Y25533385D01*
X25599591Y25509716D01*
X25630484Y25477397D01*
X25636306Y25470145D01*
X25670549Y25405165D01*
X25682100Y25332735D01*
X25672047Y25261361D01*
X25641478Y25199547D01*
X25596441Y25158594D01*
X25540680Y25125695D01*
X25599656Y25092191D01*
X25663593Y25040748D01*
X25701520Y24972875D01*
X25714397Y24886583D01*
X25713471Y24856068D01*
X25699325Y24773265D01*
X25666243Y24711387D01*
X25609526Y24662985D01*
X25581662Y24647027D01*
X25552691Y24633924D01*
X25519589Y24624453D01*
X25476303Y24617856D01*
X25416778Y24613372D01*
X25334957Y24610243D01*
X25276968Y24608794D01*
X25034875Y24603401D01*
X25034875Y25066625D01*
X25161875Y25066625D01*
X25161875Y24714485D01*
X25328237Y24719899D01*
X25403762Y24722911D01*
X25454762Y24727160D01*
X25488463Y24734278D01*
X25512088Y24745894D01*
X25532860Y24763635D01*
X25536013Y24766762D01*
X25568898Y24819216D01*
X25580275Y24882162D01*
X25571745Y24946601D01*
X25544906Y25003533D01*
X25501355Y25043962D01*
X25485448Y25051459D01*
X25451680Y25058358D01*
X25396204Y25063615D01*
X25329049Y25066393D01*
X25303716Y25066625D01*
X25161875Y25066625D01*
X25034875Y25066625D01*
X25034875Y25463500D01*
X25161875Y25463500D01*
X25161875Y25174775D01*
X25318996Y25180232D01*
X25396324Y25184060D01*
X25448788Y25190009D01*
X25483264Y25199369D01*
X25506626Y25213428D01*
X25509496Y25215930D01*
X25533018Y25255180D01*
X25543631Y25310749D01*
X25539535Y25369212D01*
X25533013Y25391352D01*
X25504402Y25426030D01*
X25448894Y25449257D01*
X25365323Y25461391D01*
X25297600Y25463500D01*
X25161875Y25463500D01*
X25034875Y25463500D01*
X25034875Y25578086D01*
X25269031Y25571715D01*
G37*
X25269031Y25571715D02*
X25376795Y25567568D01*
X25458282Y25560803D01*
X25518942Y25549911D01*
X25564227Y25533385D01*
X25599591Y25509716D01*
X25630484Y25477397D01*
X25636306Y25470145D01*
X25670549Y25405165D01*
X25682100Y25332735D01*
X25672047Y25261361D01*
X25641478Y25199547D01*
X25596441Y25158594D01*
X25540680Y25125695D01*
X25599656Y25092191D01*
X25663593Y25040748D01*
X25701520Y24972875D01*
X25714397Y24886583D01*
X25713471Y24856068D01*
X25699325Y24773265D01*
X25666243Y24711387D01*
X25609526Y24662985D01*
X25581662Y24647027D01*
X25552691Y24633924D01*
X25519589Y24624453D01*
X25476303Y24617856D01*
X25416778Y24613372D01*
X25334957Y24610243D01*
X25276968Y24608794D01*
X25034875Y24603401D01*
X25034875Y25066625D01*
X25161875Y25066625D01*
X25161875Y24714485D01*
X25328237Y24719899D01*
X25403762Y24722911D01*
X25454762Y24727160D01*
X25488463Y24734278D01*
X25512088Y24745894D01*
X25532860Y24763635D01*
X25536013Y24766762D01*
X25568898Y24819216D01*
X25580275Y24882162D01*
X25571745Y24946601D01*
X25544906Y25003533D01*
X25501355Y25043962D01*
X25485448Y25051459D01*
X25451680Y25058358D01*
X25396204Y25063615D01*
X25329049Y25066393D01*
X25303716Y25066625D01*
X25161875Y25066625D01*
X25034875Y25066625D01*
X25034875Y25463500D01*
X25161875Y25463500D01*
X25161875Y25174775D01*
X25318996Y25180232D01*
X25396324Y25184060D01*
X25448788Y25190009D01*
X25483264Y25199369D01*
X25506626Y25213428D01*
X25509496Y25215930D01*
X25533018Y25255180D01*
X25543631Y25310749D01*
X25539535Y25369212D01*
X25533013Y25391352D01*
X25504402Y25426030D01*
X25448894Y25449257D01*
X25365323Y25461391D01*
X25297600Y25463500D01*
X25161875Y25463500D01*
X25034875Y25463500D01*
X25034875Y25578086D01*
X25269031Y25571715D01*
G36*
X27893232Y26559920D02*
G01*
X28052632Y26542273D01*
X28214002Y26514854D01*
X28277343Y26501304D01*
X28384500Y26476956D01*
X28384500Y26068968D01*
X28259449Y26114606D01*
X28122551Y26157503D01*
X27984893Y26187640D01*
X27852196Y26204572D01*
X27730180Y26207851D01*
X27624567Y26197029D01*
X27541077Y26171661D01*
X27539403Y26170875D01*
X27482448Y26129213D01*
X27448099Y26073664D01*
X27437141Y26011584D01*
X27450360Y25950328D01*
X27488542Y25897252D01*
X27508512Y25881590D01*
X27550312Y25860814D01*
X27610918Y25839343D01*
X27677797Y25821567D01*
X27683137Y25820416D01*
X27850502Y25783362D01*
X27989525Y25748585D01*
X28103426Y25714929D01*
X28195427Y25681238D01*
X28268747Y25646354D01*
X28326609Y25609121D01*
X28365375Y25575433D01*
X28435489Y25483244D01*
X28481618Y25372344D01*
X28502955Y25245722D01*
X28498689Y25106369D01*
X28496599Y25090218D01*
X28465215Y24953755D01*
X28411622Y24839408D01*
X28334980Y24746308D01*
X28234449Y24673585D01*
X28109189Y24620371D01*
X28020476Y24597160D01*
X27964341Y24589133D01*
X27885642Y24582913D01*
X27793527Y24578704D01*
X27697140Y24576711D01*
X27605628Y24577137D01*
X27528138Y24580187D01*
X27479625Y24585075D01*
X27401498Y24599426D01*
X27307261Y24619713D01*
X27211050Y24642667D01*
X27126998Y24665022D01*
X27102593Y24672245D01*
X27003375Y24702776D01*
X27003375Y24910212D01*
X27004076Y24998289D01*
X27006427Y25058345D01*
X27010795Y25094083D01*
X27017548Y25109207D01*
X27023218Y25109807D01*
X27045925Y25100549D01*
X27090268Y25082257D01*
X27148574Y25058104D01*
X27181180Y25044563D01*
X27329531Y24989763D01*
X27465795Y24955067D01*
X27600397Y24938191D01*
X27678062Y24935674D01*
X27798707Y24942403D01*
X27891999Y24963919D01*
X27959019Y25000887D01*
X28000852Y25053971D01*
X28018580Y25123836D01*
X28019375Y25145148D01*
X28012456Y25207943D01*
X27989887Y25250932D01*
X27987164Y25253963D01*
X27965872Y25275106D01*
X27942489Y25293099D01*
X27912930Y25309365D01*
X27873112Y25325328D01*
X27818948Y25342411D01*
X27746356Y25362037D01*
X27651250Y25385632D01*
X27529546Y25414617D01*
X27519312Y25417029D01*
X27363491Y25462965D01*
X27236321Y25521253D01*
X27136716Y25593127D01*
X27063589Y25679819D01*
X27015852Y25782562D01*
X26992417Y25902588D01*
X26990656Y26016438D01*
X27009049Y26152110D01*
X27050406Y26267097D01*
X27116097Y26363174D01*
X27207494Y26442112D01*
X27325967Y26505686D01*
X27387094Y26529272D01*
X27482733Y26552471D01*
X27602694Y26565194D01*
X27741390Y26567619D01*
X27893232Y26559920D01*
G37*
X27893232Y26559920D02*
X28052632Y26542273D01*
X28214002Y26514854D01*
X28277343Y26501304D01*
X28384500Y26476956D01*
X28384500Y26068968D01*
X28259449Y26114606D01*
X28122551Y26157503D01*
X27984893Y26187640D01*
X27852196Y26204572D01*
X27730180Y26207851D01*
X27624567Y26197029D01*
X27541077Y26171661D01*
X27539403Y26170875D01*
X27482448Y26129213D01*
X27448099Y26073664D01*
X27437141Y26011584D01*
X27450360Y25950328D01*
X27488542Y25897252D01*
X27508512Y25881590D01*
X27550312Y25860814D01*
X27610918Y25839343D01*
X27677797Y25821567D01*
X27683137Y25820416D01*
X27850502Y25783362D01*
X27989525Y25748585D01*
X28103426Y25714929D01*
X28195427Y25681238D01*
X28268747Y25646354D01*
X28326609Y25609121D01*
X28365375Y25575433D01*
X28435489Y25483244D01*
X28481618Y25372344D01*
X28502955Y25245722D01*
X28498689Y25106369D01*
X28496599Y25090218D01*
X28465215Y24953755D01*
X28411622Y24839408D01*
X28334980Y24746308D01*
X28234449Y24673585D01*
X28109189Y24620371D01*
X28020476Y24597160D01*
X27964341Y24589133D01*
X27885642Y24582913D01*
X27793527Y24578704D01*
X27697140Y24576711D01*
X27605628Y24577137D01*
X27528138Y24580187D01*
X27479625Y24585075D01*
X27401498Y24599426D01*
X27307261Y24619713D01*
X27211050Y24642667D01*
X27126998Y24665022D01*
X27102593Y24672245D01*
X27003375Y24702776D01*
X27003375Y24910212D01*
X27004076Y24998289D01*
X27006427Y25058345D01*
X27010795Y25094083D01*
X27017548Y25109207D01*
X27023218Y25109807D01*
X27045925Y25100549D01*
X27090268Y25082257D01*
X27148574Y25058104D01*
X27181180Y25044563D01*
X27329531Y24989763D01*
X27465795Y24955067D01*
X27600397Y24938191D01*
X27678062Y24935674D01*
X27798707Y24942403D01*
X27891999Y24963919D01*
X27959019Y25000887D01*
X28000852Y25053971D01*
X28018580Y25123836D01*
X28019375Y25145148D01*
X28012456Y25207943D01*
X27989887Y25250932D01*
X27987164Y25253963D01*
X27965872Y25275106D01*
X27942489Y25293099D01*
X27912930Y25309365D01*
X27873112Y25325328D01*
X27818948Y25342411D01*
X27746356Y25362037D01*
X27651250Y25385632D01*
X27529546Y25414617D01*
X27519312Y25417029D01*
X27363491Y25462965D01*
X27236321Y25521253D01*
X27136716Y25593127D01*
X27063589Y25679819D01*
X27015852Y25782562D01*
X26992417Y25902588D01*
X26990656Y26016438D01*
X27009049Y26152110D01*
X27050406Y26267097D01*
X27116097Y26363174D01*
X27207494Y26442112D01*
X27325967Y26505686D01*
X27387094Y26529272D01*
X27482733Y26552471D01*
X27602694Y26565194D01*
X27741390Y26567619D01*
X27893232Y26559920D01*
G36*
X35837612Y26562844D02*
G01*
X35943582Y26553715D01*
X36029532Y26538480D01*
X36036250Y26536726D01*
X36201306Y26477893D01*
X36343578Y26396958D01*
X36463030Y26293966D01*
X36559628Y26168963D01*
X36633335Y26021993D01*
X36684118Y25853103D01*
X36711941Y25662336D01*
X36711973Y25661938D01*
X36713268Y25476119D01*
X36687256Y25300334D01*
X36635111Y25137124D01*
X36558004Y24989033D01*
X36457110Y24858603D01*
X36333599Y24748376D01*
X36271234Y24706216D01*
X36177854Y24648578D01*
X36231065Y24591696D01*
X36262428Y24557761D01*
X36308864Y24507011D01*
X36364192Y24446218D01*
X36422235Y24382157D01*
X36424156Y24380032D01*
X36564034Y24225250D01*
X36086267Y24225250D01*
X35932172Y24397668D01*
X35778078Y24570085D01*
X35633320Y24579372D01*
X35448860Y24604183D01*
X35283275Y24653322D01*
X35137517Y24726105D01*
X35012542Y24821850D01*
X34909303Y24939873D01*
X34828754Y25079491D01*
X34788058Y25184457D01*
X34758383Y25307476D01*
X34740710Y25448876D01*
X34738832Y25503448D01*
X35247536Y25503448D01*
X35262708Y25373851D01*
X35293322Y25253071D01*
X35339299Y25146928D01*
X35400559Y25061241D01*
X35420206Y25041917D01*
X35511660Y24979838D01*
X35617457Y24942492D01*
X35730891Y24930842D01*
X35845255Y24945853D01*
X35917187Y24970482D01*
X35987430Y25014857D01*
X36055416Y25082212D01*
X36113816Y25164184D01*
X36148682Y25234602D01*
X36163496Y25275047D01*
X36173849Y25313931D01*
X36180537Y25358243D01*
X36184357Y25414976D01*
X36186107Y25491122D01*
X36186544Y25566688D01*
X36186283Y25661989D01*
X36184482Y25732746D01*
X36180326Y25786157D01*
X36173003Y25829420D01*
X36161700Y25869733D01*
X36147999Y25908000D01*
X36091100Y26019465D01*
X36015067Y26106164D01*
X35921679Y26166944D01*
X35812713Y26200649D01*
X35689948Y26206126D01*
X35688845Y26206048D01*
X35575130Y26185804D01*
X35479674Y26141540D01*
X35406078Y26080048D01*
X35342852Y25993642D01*
X35295464Y25886960D01*
X35263835Y25765822D01*
X35247885Y25636045D01*
X35247536Y25503448D01*
X34738832Y25503448D01*
X34735596Y25597424D01*
X34743597Y25741888D01*
X34756160Y25828625D01*
X34802575Y25995696D01*
X34874735Y26144817D01*
X34971206Y26274448D01*
X35090552Y26383050D01*
X35231338Y26469082D01*
X35392129Y26531004D01*
X35417125Y26537917D01*
X35501378Y26553405D01*
X35606330Y26562709D01*
X35721802Y26565849D01*
X35837612Y26562844D01*
G37*
X35837612Y26562844D02*
X35943582Y26553715D01*
X36029532Y26538480D01*
X36036250Y26536726D01*
X36201306Y26477893D01*
X36343578Y26396958D01*
X36463030Y26293966D01*
X36559628Y26168963D01*
X36633335Y26021993D01*
X36684118Y25853103D01*
X36711941Y25662336D01*
X36711973Y25661938D01*
X36713268Y25476119D01*
X36687256Y25300334D01*
X36635111Y25137124D01*
X36558004Y24989033D01*
X36457110Y24858603D01*
X36333599Y24748376D01*
X36271234Y24706216D01*
X36177854Y24648578D01*
X36231065Y24591696D01*
X36262428Y24557761D01*
X36308864Y24507011D01*
X36364192Y24446218D01*
X36422235Y24382157D01*
X36424156Y24380032D01*
X36564034Y24225250D01*
X36086267Y24225250D01*
X35932172Y24397668D01*
X35778078Y24570085D01*
X35633320Y24579372D01*
X35448860Y24604183D01*
X35283275Y24653322D01*
X35137517Y24726105D01*
X35012542Y24821850D01*
X34909303Y24939873D01*
X34828754Y25079491D01*
X34788058Y25184457D01*
X34758383Y25307476D01*
X34740710Y25448876D01*
X34738832Y25503448D01*
X35247536Y25503448D01*
X35262708Y25373851D01*
X35293322Y25253071D01*
X35339299Y25146928D01*
X35400559Y25061241D01*
X35420206Y25041917D01*
X35511660Y24979838D01*
X35617457Y24942492D01*
X35730891Y24930842D01*
X35845255Y24945853D01*
X35917187Y24970482D01*
X35987430Y25014857D01*
X36055416Y25082212D01*
X36113816Y25164184D01*
X36148682Y25234602D01*
X36163496Y25275047D01*
X36173849Y25313931D01*
X36180537Y25358243D01*
X36184357Y25414976D01*
X36186107Y25491122D01*
X36186544Y25566688D01*
X36186283Y25661989D01*
X36184482Y25732746D01*
X36180326Y25786157D01*
X36173003Y25829420D01*
X36161700Y25869733D01*
X36147999Y25908000D01*
X36091100Y26019465D01*
X36015067Y26106164D01*
X35921679Y26166944D01*
X35812713Y26200649D01*
X35689948Y26206126D01*
X35688845Y26206048D01*
X35575130Y26185804D01*
X35479674Y26141540D01*
X35406078Y26080048D01*
X35342852Y25993642D01*
X35295464Y25886960D01*
X35263835Y25765822D01*
X35247885Y25636045D01*
X35247536Y25503448D01*
X34738832Y25503448D01*
X34735596Y25597424D01*
X34743597Y25741888D01*
X34756160Y25828625D01*
X34802575Y25995696D01*
X34874735Y26144817D01*
X34971206Y26274448D01*
X35090552Y26383050D01*
X35231338Y26469082D01*
X35392129Y26531004D01*
X35417125Y26537917D01*
X35501378Y26553405D01*
X35606330Y26562709D01*
X35721802Y26565849D01*
X35837612Y26562844D01*
G36*
X29994999Y26557265D02*
G01*
X30145822Y26532851D01*
X30278596Y26489952D01*
X30398264Y26426875D01*
X30509768Y26341926D01*
X30532864Y26320911D01*
X30638388Y26200933D01*
X30718852Y26061800D01*
X30774307Y25903365D01*
X30804801Y25725481D01*
X30810387Y25527999D01*
X30809789Y25512054D01*
X30804123Y25416672D01*
X30794902Y25340891D01*
X30780055Y25272594D01*
X30757507Y25199665D01*
X30755190Y25192924D01*
X30687741Y25038534D01*
X30599930Y24904003D01*
X30494097Y24792244D01*
X30372583Y24706172D01*
X30357953Y24698182D01*
X30318218Y24674831D01*
X30293520Y24655945D01*
X30289500Y24649719D01*
X30299595Y24634212D01*
X30327353Y24599806D01*
X30368981Y24551004D01*
X30420683Y24492311D01*
X30443285Y24467130D01*
X30501089Y24403014D01*
X30553668Y24344598D01*
X30596180Y24297270D01*
X30623780Y24266418D01*
X30628615Y24260969D01*
X30660159Y24225250D01*
X30423235Y24225282D01*
X30186312Y24225313D01*
X30032533Y24397446D01*
X29878755Y24569580D01*
X29730908Y24579813D01*
X29558718Y24601465D01*
X29408791Y24642081D01*
X29276639Y24703529D01*
X29157771Y24787674D01*
X29097616Y24843117D01*
X29003244Y24953402D01*
X28931287Y25074851D01*
X28879970Y25211873D01*
X28847518Y25368874D01*
X28834932Y25495250D01*
X28835324Y25574625D01*
X29361294Y25574625D01*
X29362806Y25452929D01*
X29368777Y25356604D01*
X29380559Y25279424D01*
X29399505Y25215162D01*
X29426966Y25157592D01*
X29464225Y25100583D01*
X29538393Y25024020D01*
X29630578Y24969893D01*
X29735225Y24939374D01*
X29846775Y24933632D01*
X29959671Y24953837D01*
X30030802Y24981277D01*
X30086067Y25013129D01*
X30135953Y25051013D01*
X30156371Y25071405D01*
X30217954Y25165994D01*
X30262710Y25280074D01*
X30290725Y25407492D01*
X30302090Y25542093D01*
X30296893Y25677723D01*
X30275223Y25808227D01*
X30237169Y25927452D01*
X30182820Y26029242D01*
X30141796Y26080048D01*
X30058663Y26147520D01*
X29961468Y26189099D01*
X29859029Y26206048D01*
X29736553Y26200427D01*
X29626582Y26166255D01*
X29531610Y26105110D01*
X29454131Y26018572D01*
X29399287Y25915000D01*
X29384665Y25875276D01*
X29374368Y25837251D01*
X29367638Y25794137D01*
X29363719Y25739147D01*
X29361852Y25665493D01*
X29361294Y25574625D01*
X28835324Y25574625D01*
X28835855Y25681702D01*
X28862219Y25856387D01*
X28912851Y26016888D01*
X28986582Y26160787D01*
X29082241Y26285666D01*
X29198656Y26389107D01*
X29297360Y26450367D01*
X29395867Y26497201D01*
X29489441Y26530058D01*
X29587284Y26550950D01*
X29698598Y26561888D01*
X29821187Y26564889D01*
X29994999Y26557265D01*
G37*
X29994999Y26557265D02*
X30145822Y26532851D01*
X30278596Y26489952D01*
X30398264Y26426875D01*
X30509768Y26341926D01*
X30532864Y26320911D01*
X30638388Y26200933D01*
X30718852Y26061800D01*
X30774307Y25903365D01*
X30804801Y25725481D01*
X30810387Y25527999D01*
X30809789Y25512054D01*
X30804123Y25416672D01*
X30794902Y25340891D01*
X30780055Y25272594D01*
X30757507Y25199665D01*
X30755190Y25192924D01*
X30687741Y25038534D01*
X30599930Y24904003D01*
X30494097Y24792244D01*
X30372583Y24706172D01*
X30357953Y24698182D01*
X30318218Y24674831D01*
X30293520Y24655945D01*
X30289500Y24649719D01*
X30299595Y24634212D01*
X30327353Y24599806D01*
X30368981Y24551004D01*
X30420683Y24492311D01*
X30443285Y24467130D01*
X30501089Y24403014D01*
X30553668Y24344598D01*
X30596180Y24297270D01*
X30623780Y24266418D01*
X30628615Y24260969D01*
X30660159Y24225250D01*
X30423235Y24225282D01*
X30186312Y24225313D01*
X30032533Y24397446D01*
X29878755Y24569580D01*
X29730908Y24579813D01*
X29558718Y24601465D01*
X29408791Y24642081D01*
X29276639Y24703529D01*
X29157771Y24787674D01*
X29097616Y24843117D01*
X29003244Y24953402D01*
X28931287Y25074851D01*
X28879970Y25211873D01*
X28847518Y25368874D01*
X28834932Y25495250D01*
X28835324Y25574625D01*
X29361294Y25574625D01*
X29362806Y25452929D01*
X29368777Y25356604D01*
X29380559Y25279424D01*
X29399505Y25215162D01*
X29426966Y25157592D01*
X29464225Y25100583D01*
X29538393Y25024020D01*
X29630578Y24969893D01*
X29735225Y24939374D01*
X29846775Y24933632D01*
X29959671Y24953837D01*
X30030802Y24981277D01*
X30086067Y25013129D01*
X30135953Y25051013D01*
X30156371Y25071405D01*
X30217954Y25165994D01*
X30262710Y25280074D01*
X30290725Y25407492D01*
X30302090Y25542093D01*
X30296893Y25677723D01*
X30275223Y25808227D01*
X30237169Y25927452D01*
X30182820Y26029242D01*
X30141796Y26080048D01*
X30058663Y26147520D01*
X29961468Y26189099D01*
X29859029Y26206048D01*
X29736553Y26200427D01*
X29626582Y26166255D01*
X29531610Y26105110D01*
X29454131Y26018572D01*
X29399287Y25915000D01*
X29384665Y25875276D01*
X29374368Y25837251D01*
X29367638Y25794137D01*
X29363719Y25739147D01*
X29361852Y25665493D01*
X29361294Y25574625D01*
X28835324Y25574625D01*
X28835855Y25681702D01*
X28862219Y25856387D01*
X28912851Y26016888D01*
X28986582Y26160787D01*
X29082241Y26285666D01*
X29198656Y26389107D01*
X29297360Y26450367D01*
X29395867Y26497201D01*
X29489441Y26530058D01*
X29587284Y26550950D01*
X29698598Y26561888D01*
X29821187Y26564889D01*
X29994999Y26557265D01*
G36*
X29948187Y23375938D02*
G01*
X29953162Y23324344D01*
X29958136Y23272750D01*
X29606875Y23272750D01*
X29606875Y23384950D01*
X29948187Y23375938D01*
G37*
X29948187Y23375938D02*
X29953162Y23324344D01*
X29958136Y23272750D01*
X29606875Y23272750D01*
X29606875Y23384950D01*
X29948187Y23375938D01*
G36*
X27432000Y23272750D02*
G01*
X27080738Y23272750D01*
X27085712Y23324344D01*
X27090687Y23375938D01*
X27261343Y23380444D01*
X27432000Y23384950D01*
X27432000Y23272750D01*
G37*
X27432000Y23272750D02*
X27080738Y23272750D01*
X27085712Y23324344D01*
X27090687Y23375938D01*
X27261343Y23380444D01*
X27432000Y23384950D01*
X27432000Y23272750D01*
G36*
X37164518Y23924668D02*
G01*
X37241743Y23896178D01*
X37255684Y23887768D01*
X37318258Y23828605D01*
X37356721Y23753330D01*
X37369643Y23668048D01*
X37355596Y23578863D01*
X37338219Y23535142D01*
X37316808Y23502019D01*
X37277515Y23451598D01*
X37224772Y23389170D01*
X37163009Y23320024D01*
X37114628Y23268192D01*
X36922567Y23066375D01*
X37369750Y23066375D01*
X37369750Y22955250D01*
X36766500Y22955250D01*
X36766500Y23013211D01*
X36768193Y23035488D01*
X36775265Y23057782D01*
X36790707Y23083997D01*
X36817508Y23118034D01*
X36858658Y23163794D01*
X36917146Y23225180D01*
X36972692Y23282286D01*
X37064782Y23378748D01*
X37134938Y23457848D01*
X37185308Y23522913D01*
X37218044Y23577271D01*
X37235294Y23624247D01*
X37239209Y23667169D01*
X37236428Y23690407D01*
X37210282Y23754481D01*
X37161693Y23799285D01*
X37094122Y23823907D01*
X37011031Y23827434D01*
X36915882Y23808955D01*
X36860558Y23789444D01*
X36764748Y23750513D01*
X36769592Y23816660D01*
X36773444Y23853037D01*
X36783199Y23875398D01*
X36806207Y23890769D01*
X36849815Y23906179D01*
X36869687Y23912380D01*
X36969299Y23933355D01*
X37070640Y23937255D01*
X37164518Y23924668D01*
G37*
X37164518Y23924668D02*
X37241743Y23896178D01*
X37255684Y23887768D01*
X37318258Y23828605D01*
X37356721Y23753330D01*
X37369643Y23668048D01*
X37355596Y23578863D01*
X37338219Y23535142D01*
X37316808Y23502019D01*
X37277515Y23451598D01*
X37224772Y23389170D01*
X37163009Y23320024D01*
X37114628Y23268192D01*
X36922567Y23066375D01*
X37369750Y23066375D01*
X37369750Y22955250D01*
X36766500Y22955250D01*
X36766500Y23013211D01*
X36768193Y23035488D01*
X36775265Y23057782D01*
X36790707Y23083997D01*
X36817508Y23118034D01*
X36858658Y23163794D01*
X36917146Y23225180D01*
X36972692Y23282286D01*
X37064782Y23378748D01*
X37134938Y23457848D01*
X37185308Y23522913D01*
X37218044Y23577271D01*
X37235294Y23624247D01*
X37239209Y23667169D01*
X37236428Y23690407D01*
X37210282Y23754481D01*
X37161693Y23799285D01*
X37094122Y23823907D01*
X37011031Y23827434D01*
X36915882Y23808955D01*
X36860558Y23789444D01*
X36764748Y23750513D01*
X36769592Y23816660D01*
X36773444Y23853037D01*
X36783199Y23875398D01*
X36806207Y23890769D01*
X36849815Y23906179D01*
X36869687Y23912380D01*
X36969299Y23933355D01*
X37070640Y23937255D01*
X37164518Y23924668D01*
G36*
X35097706Y23919273D02*
G01*
X35176630Y23881594D01*
X35236880Y23826448D01*
X35275132Y23755561D01*
X35288062Y23670655D01*
X35287027Y23648362D01*
X35280481Y23603713D01*
X35266779Y23560560D01*
X35243196Y23514897D01*
X35207008Y23462717D01*
X35155491Y23400015D01*
X35085919Y23322786D01*
X35012691Y23244969D01*
X34842637Y23066375D01*
X35290125Y23066375D01*
X35290125Y22955250D01*
X34686875Y22955250D01*
X34686875Y23012614D01*
X34688666Y23034842D01*
X34696021Y23057382D01*
X34711911Y23084144D01*
X34739309Y23119039D01*
X34781186Y23165977D01*
X34840514Y23228867D01*
X34891566Y23281937D01*
X34966753Y23361873D01*
X35032473Y23435784D01*
X35084947Y23499186D01*
X35120393Y23547595D01*
X35131360Y23566408D01*
X35156556Y23643991D01*
X35151808Y23711463D01*
X35117000Y23769595D01*
X35097867Y23787731D01*
X35037194Y23819043D01*
X34958406Y23829262D01*
X34867148Y23818353D01*
X34777313Y23789741D01*
X34685189Y23751860D01*
X34690000Y23817421D01*
X34694194Y23854792D01*
X34704975Y23877271D01*
X34730081Y23892655D01*
X34777252Y23908747D01*
X34782125Y23910271D01*
X34897129Y23935336D01*
X35003431Y23937762D01*
X35097706Y23919273D01*
G37*
X35097706Y23919273D02*
X35176630Y23881594D01*
X35236880Y23826448D01*
X35275132Y23755561D01*
X35288062Y23670655D01*
X35287027Y23648362D01*
X35280481Y23603713D01*
X35266779Y23560560D01*
X35243196Y23514897D01*
X35207008Y23462717D01*
X35155491Y23400015D01*
X35085919Y23322786D01*
X35012691Y23244969D01*
X34842637Y23066375D01*
X35290125Y23066375D01*
X35290125Y22955250D01*
X34686875Y22955250D01*
X34686875Y23012614D01*
X34688666Y23034842D01*
X34696021Y23057382D01*
X34711911Y23084144D01*
X34739309Y23119039D01*
X34781186Y23165977D01*
X34840514Y23228867D01*
X34891566Y23281937D01*
X34966753Y23361873D01*
X35032473Y23435784D01*
X35084947Y23499186D01*
X35120393Y23547595D01*
X35131360Y23566408D01*
X35156556Y23643991D01*
X35151808Y23711463D01*
X35117000Y23769595D01*
X35097867Y23787731D01*
X35037194Y23819043D01*
X34958406Y23829262D01*
X34867148Y23818353D01*
X34777313Y23789741D01*
X34685189Y23751860D01*
X34690000Y23817421D01*
X34694194Y23854792D01*
X34704975Y23877271D01*
X34730081Y23892655D01*
X34777252Y23908747D01*
X34782125Y23910271D01*
X34897129Y23935336D01*
X35003431Y23937762D01*
X35097706Y23919273D01*
G36*
X31984330Y23451716D02*
G01*
X32027953Y23336004D01*
X32067716Y23229811D01*
X32102277Y23136775D01*
X32130296Y23060535D01*
X32150430Y23004730D01*
X32161340Y22972999D01*
X32162924Y22967157D01*
X32148730Y22959641D01*
X32113563Y22955519D01*
X32100390Y22955250D01*
X32064843Y22956788D01*
X32042716Y22966177D01*
X32026176Y22990578D01*
X32007388Y23037156D01*
X32005605Y23041916D01*
X31985743Y23097284D01*
X31969504Y23146549D01*
X31963056Y23168916D01*
X31952933Y23209250D01*
X31514500Y23209250D01*
X31486802Y23133844D01*
X31459101Y23058645D01*
X31439070Y23008175D01*
X31423021Y22977517D01*
X31407264Y22961751D01*
X31388112Y22955958D01*
X31361874Y22955221D01*
X31352865Y22955250D01*
X31311732Y22957303D01*
X31295337Y22965719D01*
X31296524Y22983032D01*
X31304287Y23004403D01*
X31321913Y23051537D01*
X31347929Y23120540D01*
X31380862Y23207518D01*
X31419240Y23308576D01*
X31427680Y23330746D01*
X31559500Y23330746D01*
X31574300Y23326561D01*
X31614410Y23323184D01*
X31673392Y23321002D01*
X31732479Y23320375D01*
X31905458Y23320375D01*
X31825361Y23538657D01*
X31796277Y23616806D01*
X31770388Y23684313D01*
X31749910Y23735545D01*
X31737064Y23764871D01*
X31734501Y23769275D01*
X31726528Y23758709D01*
X31710012Y23724459D01*
X31687390Y23672631D01*
X31661100Y23609331D01*
X31633577Y23540667D01*
X31607259Y23472746D01*
X31584584Y23411673D01*
X31567987Y23363555D01*
X31559905Y23334499D01*
X31559500Y23330746D01*
X31427680Y23330746D01*
X31461590Y23419820D01*
X31478150Y23463250D01*
X31650736Y23915688D01*
X31728149Y23920028D01*
X31805562Y23924369D01*
X31984330Y23451716D01*
G37*
X31984330Y23451716D02*
X32027953Y23336004D01*
X32067716Y23229811D01*
X32102277Y23136775D01*
X32130296Y23060535D01*
X32150430Y23004730D01*
X32161340Y22972999D01*
X32162924Y22967157D01*
X32148730Y22959641D01*
X32113563Y22955519D01*
X32100390Y22955250D01*
X32064843Y22956788D01*
X32042716Y22966177D01*
X32026176Y22990578D01*
X32007388Y23037156D01*
X32005605Y23041916D01*
X31985743Y23097284D01*
X31969504Y23146549D01*
X31963056Y23168916D01*
X31952933Y23209250D01*
X31514500Y23209250D01*
X31486802Y23133844D01*
X31459101Y23058645D01*
X31439070Y23008175D01*
X31423021Y22977517D01*
X31407264Y22961751D01*
X31388112Y22955958D01*
X31361874Y22955221D01*
X31352865Y22955250D01*
X31311732Y22957303D01*
X31295337Y22965719D01*
X31296524Y22983032D01*
X31304287Y23004403D01*
X31321913Y23051537D01*
X31347929Y23120540D01*
X31380862Y23207518D01*
X31419240Y23308576D01*
X31427680Y23330746D01*
X31559500Y23330746D01*
X31574300Y23326561D01*
X31614410Y23323184D01*
X31673392Y23321002D01*
X31732479Y23320375D01*
X31905458Y23320375D01*
X31825361Y23538657D01*
X31796277Y23616806D01*
X31770388Y23684313D01*
X31749910Y23735545D01*
X31737064Y23764871D01*
X31734501Y23769275D01*
X31726528Y23758709D01*
X31710012Y23724459D01*
X31687390Y23672631D01*
X31661100Y23609331D01*
X31633577Y23540667D01*
X31607259Y23472746D01*
X31584584Y23411673D01*
X31567987Y23363555D01*
X31559905Y23334499D01*
X31559500Y23330746D01*
X31427680Y23330746D01*
X31461590Y23419820D01*
X31478150Y23463250D01*
X31650736Y23915688D01*
X31728149Y23920028D01*
X31805562Y23924369D01*
X31984330Y23451716D01*
G36*
X28956000Y23733125D02*
G01*
X29002092Y23665481D01*
X29042423Y23608455D01*
X29073566Y23566730D01*
X29092095Y23544984D01*
X29095219Y23542929D01*
X29107618Y23555594D01*
X29133823Y23590199D01*
X29170431Y23642004D01*
X29214037Y23706269D01*
X29232035Y23733429D01*
X29357259Y23923625D01*
X29496258Y23923625D01*
X29333285Y23681532D01*
X29170312Y23439438D01*
X29162375Y23201313D01*
X29154437Y22963188D01*
X29098307Y22958464D01*
X29057853Y22958230D01*
X29032425Y22963860D01*
X29030838Y22965078D01*
X29026799Y22984220D01*
X29023394Y23029139D01*
X29020906Y23093865D01*
X29019617Y23172426D01*
X29019500Y23205411D01*
X29019500Y23434405D01*
X28852070Y23679015D01*
X28684641Y23923625D01*
X28828373Y23923625D01*
X28956000Y23733125D01*
G37*
X28956000Y23733125D02*
X29002092Y23665481D01*
X29042423Y23608455D01*
X29073566Y23566730D01*
X29092095Y23544984D01*
X29095219Y23542929D01*
X29107618Y23555594D01*
X29133823Y23590199D01*
X29170431Y23642004D01*
X29214037Y23706269D01*
X29232035Y23733429D01*
X29357259Y23923625D01*
X29496258Y23923625D01*
X29333285Y23681532D01*
X29170312Y23439438D01*
X29162375Y23201313D01*
X29154437Y22963188D01*
X29098307Y22958464D01*
X29057853Y22958230D01*
X29032425Y22963860D01*
X29030838Y22965078D01*
X29026799Y22984220D01*
X29023394Y23029139D01*
X29020906Y23093865D01*
X29019617Y23172426D01*
X29019500Y23205411D01*
X29019500Y23434405D01*
X28852070Y23679015D01*
X28684641Y23923625D01*
X28828373Y23923625D01*
X28956000Y23733125D01*
G36*
X28023343Y23921082D02*
G01*
X28133853Y23917369D01*
X28217626Y23910622D01*
X28279651Y23899038D01*
X28324919Y23880815D01*
X28358417Y23854150D01*
X28385136Y23817240D01*
X28402623Y23784043D01*
X28424947Y23707510D01*
X28421052Y23631985D01*
X28392994Y23564740D01*
X28342830Y23513047D01*
X28322577Y23501045D01*
X28301972Y23488884D01*
X28301747Y23477995D01*
X28324808Y23461404D01*
X28343808Y23450072D01*
X28407802Y23399919D01*
X28445832Y23337799D01*
X28460490Y23258434D01*
X28460033Y23213495D01*
X28454245Y23153201D01*
X28442324Y23112294D01*
X28419928Y23078462D01*
X28407577Y23064696D01*
X28370793Y23029871D01*
X28331557Y23004003D01*
X28284210Y22985564D01*
X28223095Y22973024D01*
X28142555Y22964856D01*
X28036932Y22959532D01*
X28015406Y22958778D01*
X27781250Y22950936D01*
X27781250Y23415625D01*
X27908250Y23415625D01*
X27908250Y23066375D01*
X28043697Y23066375D01*
X28124239Y23069424D01*
X28191680Y23077795D01*
X28232919Y23088844D01*
X28286777Y23124196D01*
X28316797Y23177223D01*
X28325329Y23244969D01*
X28314195Y23319945D01*
X28281696Y23374034D01*
X28247071Y23397997D01*
X28214382Y23405794D01*
X28159450Y23411826D01*
X28091768Y23415206D01*
X28058315Y23415625D01*
X27908250Y23415625D01*
X27781250Y23415625D01*
X27781250Y23812500D01*
X27908250Y23812500D01*
X27908250Y23526750D01*
X28032881Y23526750D01*
X28100192Y23528999D01*
X28161583Y23534927D01*
X28204803Y23543305D01*
X28207841Y23544295D01*
X28254318Y23569635D01*
X28280075Y23609637D01*
X28289094Y23671101D01*
X28289250Y23683305D01*
X28283354Y23733106D01*
X28261377Y23767468D01*
X28247421Y23779598D01*
X28222440Y23795596D01*
X28191824Y23805490D01*
X28147676Y23810643D01*
X28082097Y23812421D01*
X28056921Y23812500D01*
X27908250Y23812500D01*
X27781250Y23812500D01*
X27781250Y23926475D01*
X28023343Y23921082D01*
G37*
X28023343Y23921082D02*
X28133853Y23917369D01*
X28217626Y23910622D01*
X28279651Y23899038D01*
X28324919Y23880815D01*
X28358417Y23854150D01*
X28385136Y23817240D01*
X28402623Y23784043D01*
X28424947Y23707510D01*
X28421052Y23631985D01*
X28392994Y23564740D01*
X28342830Y23513047D01*
X28322577Y23501045D01*
X28301972Y23488884D01*
X28301747Y23477995D01*
X28324808Y23461404D01*
X28343808Y23450072D01*
X28407802Y23399919D01*
X28445832Y23337799D01*
X28460490Y23258434D01*
X28460033Y23213495D01*
X28454245Y23153201D01*
X28442324Y23112294D01*
X28419928Y23078462D01*
X28407577Y23064696D01*
X28370793Y23029871D01*
X28331557Y23004003D01*
X28284210Y22985564D01*
X28223095Y22973024D01*
X28142555Y22964856D01*
X28036932Y22959532D01*
X28015406Y22958778D01*
X27781250Y22950936D01*
X27781250Y23415625D01*
X27908250Y23415625D01*
X27908250Y23066375D01*
X28043697Y23066375D01*
X28124239Y23069424D01*
X28191680Y23077795D01*
X28232919Y23088844D01*
X28286777Y23124196D01*
X28316797Y23177223D01*
X28325329Y23244969D01*
X28314195Y23319945D01*
X28281696Y23374034D01*
X28247071Y23397997D01*
X28214382Y23405794D01*
X28159450Y23411826D01*
X28091768Y23415206D01*
X28058315Y23415625D01*
X27908250Y23415625D01*
X27781250Y23415625D01*
X27781250Y23812500D01*
X27908250Y23812500D01*
X27908250Y23526750D01*
X28032881Y23526750D01*
X28100192Y23528999D01*
X28161583Y23534927D01*
X28204803Y23543305D01*
X28207841Y23544295D01*
X28254318Y23569635D01*
X28280075Y23609637D01*
X28289094Y23671101D01*
X28289250Y23683305D01*
X28283354Y23733106D01*
X28261377Y23767468D01*
X28247421Y23779598D01*
X28222440Y23795596D01*
X28191824Y23805490D01*
X28147676Y23810643D01*
X28082097Y23812421D01*
X28056921Y23812500D01*
X27908250Y23812500D01*
X27781250Y23812500D01*
X27781250Y23926475D01*
X28023343Y23921082D01*
G36*
X38207557Y23931063D02*
G01*
X38288086Y23899529D01*
X38353233Y23840858D01*
X38389368Y23785871D01*
X38428784Y23687192D01*
X38452959Y23569657D01*
X38461500Y23442473D01*
X38454014Y23314847D01*
X38430110Y23195988D01*
X38416303Y23154134D01*
X38367376Y23063695D01*
X38299273Y22996933D01*
X38215954Y22955844D01*
X38121378Y22942422D01*
X38025025Y22957024D01*
X37966922Y22987272D01*
X37909984Y23039882D01*
X37862231Y23106213D01*
X37837525Y23159041D01*
X37820410Y23227492D01*
X37808321Y23316495D01*
X37803045Y23396285D01*
X37929689Y23396285D01*
X37938037Y23295049D01*
X37956500Y23207211D01*
X37966258Y23179140D01*
X37992165Y23130120D01*
X38024060Y23089531D01*
X38032545Y23081953D01*
X38088873Y23055950D01*
X38154161Y23052463D01*
X38215017Y23071459D01*
X38231587Y23082452D01*
X38274367Y23135372D01*
X38304732Y23216415D01*
X38322350Y23324339D01*
X38327051Y23439438D01*
X38323147Y23554309D01*
X38311325Y23643631D01*
X38290336Y23712896D01*
X38258933Y23767596D01*
X38249965Y23778862D01*
X38195025Y23822928D01*
X38132776Y23839314D01*
X38070437Y23828570D01*
X38015227Y23791248D01*
X37990170Y23759034D01*
X37961695Y23692294D01*
X37941881Y23603717D01*
X37931091Y23502111D01*
X37929689Y23396285D01*
X37803045Y23396285D01*
X37801796Y23415168D01*
X37801373Y23512631D01*
X37807593Y23598003D01*
X37813935Y23635391D01*
X37847699Y23747450D01*
X37894056Y23831634D01*
X37955031Y23890009D01*
X38032647Y23924640D01*
X38109318Y23936717D01*
X38207557Y23931063D01*
G37*
X38207557Y23931063D02*
X38288086Y23899529D01*
X38353233Y23840858D01*
X38389368Y23785871D01*
X38428784Y23687192D01*
X38452959Y23569657D01*
X38461500Y23442473D01*
X38454014Y23314847D01*
X38430110Y23195988D01*
X38416303Y23154134D01*
X38367376Y23063695D01*
X38299273Y22996933D01*
X38215954Y22955844D01*
X38121378Y22942422D01*
X38025025Y22957024D01*
X37966922Y22987272D01*
X37909984Y23039882D01*
X37862231Y23106213D01*
X37837525Y23159041D01*
X37820410Y23227492D01*
X37808321Y23316495D01*
X37803045Y23396285D01*
X37929689Y23396285D01*
X37938037Y23295049D01*
X37956500Y23207211D01*
X37966258Y23179140D01*
X37992165Y23130120D01*
X38024060Y23089531D01*
X38032545Y23081953D01*
X38088873Y23055950D01*
X38154161Y23052463D01*
X38215017Y23071459D01*
X38231587Y23082452D01*
X38274367Y23135372D01*
X38304732Y23216415D01*
X38322350Y23324339D01*
X38327051Y23439438D01*
X38323147Y23554309D01*
X38311325Y23643631D01*
X38290336Y23712896D01*
X38258933Y23767596D01*
X38249965Y23778862D01*
X38195025Y23822928D01*
X38132776Y23839314D01*
X38070437Y23828570D01*
X38015227Y23791248D01*
X37990170Y23759034D01*
X37961695Y23692294D01*
X37941881Y23603717D01*
X37931091Y23502111D01*
X37929689Y23396285D01*
X37803045Y23396285D01*
X37801796Y23415168D01*
X37801373Y23512631D01*
X37807593Y23598003D01*
X37813935Y23635391D01*
X37847699Y23747450D01*
X37894056Y23831634D01*
X37955031Y23890009D01*
X38032647Y23924640D01*
X38109318Y23936717D01*
X38207557Y23931063D01*
G36*
X36124985Y23930873D02*
G01*
X36204852Y23900910D01*
X36268780Y23844634D01*
X36310444Y23779528D01*
X36350661Y23676063D01*
X36374414Y23560349D01*
X36382148Y23439193D01*
X36374308Y23319406D01*
X36351340Y23207796D01*
X36313688Y23111173D01*
X36261863Y23036414D01*
X36184706Y22976731D01*
X36096135Y22946252D01*
X35998478Y22945559D01*
X35945070Y22957110D01*
X35874405Y22993623D01*
X35813850Y23057812D01*
X35766026Y23146500D01*
X35748978Y23194799D01*
X35727309Y23296930D01*
X35721227Y23373233D01*
X35848558Y23373233D01*
X35862178Y23257475D01*
X35890751Y23166182D01*
X35933768Y23100514D01*
X35990722Y23061633D01*
X36052105Y23050500D01*
X36104126Y23056251D01*
X36143110Y23078443D01*
X36162816Y23097662D01*
X36194097Y23142968D01*
X36219950Y23200296D01*
X36226146Y23220693D01*
X36236442Y23282616D01*
X36242610Y23364105D01*
X36244615Y23454582D01*
X36242425Y23543467D01*
X36236008Y23620181D01*
X36227529Y23666731D01*
X36194943Y23744463D01*
X36148359Y23799748D01*
X36092910Y23831724D01*
X36033729Y23839528D01*
X35975949Y23822298D01*
X35924704Y23779171D01*
X35890903Y23723298D01*
X35870344Y23657440D01*
X35855578Y23569452D01*
X35850398Y23512292D01*
X35848558Y23373233D01*
X35721227Y23373233D01*
X35718141Y23411937D01*
X35721103Y23529719D01*
X35735826Y23640173D01*
X35761938Y23733196D01*
X35769349Y23750699D01*
X35819585Y23836127D01*
X35881030Y23893632D01*
X35957908Y23926266D01*
X36026249Y23936138D01*
X36124985Y23930873D01*
G37*
X36124985Y23930873D02*
X36204852Y23900910D01*
X36268780Y23844634D01*
X36310444Y23779528D01*
X36350661Y23676063D01*
X36374414Y23560349D01*
X36382148Y23439193D01*
X36374308Y23319406D01*
X36351340Y23207796D01*
X36313688Y23111173D01*
X36261863Y23036414D01*
X36184706Y22976731D01*
X36096135Y22946252D01*
X35998478Y22945559D01*
X35945070Y22957110D01*
X35874405Y22993623D01*
X35813850Y23057812D01*
X35766026Y23146500D01*
X35748978Y23194799D01*
X35727309Y23296930D01*
X35721227Y23373233D01*
X35848558Y23373233D01*
X35862178Y23257475D01*
X35890751Y23166182D01*
X35933768Y23100514D01*
X35990722Y23061633D01*
X36052105Y23050500D01*
X36104126Y23056251D01*
X36143110Y23078443D01*
X36162816Y23097662D01*
X36194097Y23142968D01*
X36219950Y23200296D01*
X36226146Y23220693D01*
X36236442Y23282616D01*
X36242610Y23364105D01*
X36244615Y23454582D01*
X36242425Y23543467D01*
X36236008Y23620181D01*
X36227529Y23666731D01*
X36194943Y23744463D01*
X36148359Y23799748D01*
X36092910Y23831724D01*
X36033729Y23839528D01*
X35975949Y23822298D01*
X35924704Y23779171D01*
X35890903Y23723298D01*
X35870344Y23657440D01*
X35855578Y23569452D01*
X35850398Y23512292D01*
X35848558Y23373233D01*
X35721227Y23373233D01*
X35718141Y23411937D01*
X35721103Y23529719D01*
X35735826Y23640173D01*
X35761938Y23733196D01*
X35769349Y23750699D01*
X35819585Y23836127D01*
X35881030Y23893632D01*
X35957908Y23926266D01*
X36026249Y23936138D01*
X36124985Y23930873D01*
G36*
X30711177Y23935122D02*
G01*
X30792203Y23928062D01*
X30837187Y23919300D01*
X30883774Y23905415D01*
X30907894Y23890662D01*
X30917861Y23866406D01*
X30921422Y23831829D01*
X30926282Y23765751D01*
X30866966Y23790535D01*
X30775921Y23819393D01*
X30684162Y23832332D01*
X30598539Y23829710D01*
X30525900Y23811888D01*
X30473094Y23779225D01*
X30464266Y23769387D01*
X30438651Y23716685D01*
X30434126Y23658534D01*
X30450759Y23607044D01*
X30463287Y23591088D01*
X30498272Y23567733D01*
X30547484Y23547501D01*
X30562506Y23543263D01*
X30661073Y23518579D01*
X30734140Y23499166D01*
X30787098Y23482960D01*
X30825340Y23467899D01*
X30854257Y23451920D01*
X30879241Y23432960D01*
X30900247Y23414047D01*
X30964187Y23354404D01*
X30964187Y23095847D01*
X30899348Y23035366D01*
X30826150Y22986404D01*
X30733735Y22953809D01*
X30631176Y22939537D01*
X30527545Y22945543D01*
X30503812Y22950154D01*
X30470669Y22958395D01*
X30420785Y22971676D01*
X30388718Y22980506D01*
X30340907Y22994859D01*
X30316125Y23008732D01*
X30306804Y23030116D01*
X30305375Y23067005D01*
X30305375Y23068517D01*
X30307231Y23108999D01*
X30315125Y23124447D01*
X30332543Y23121477D01*
X30333156Y23121213D01*
X30446463Y23080255D01*
X30551245Y23058069D01*
X30644478Y23053887D01*
X30723140Y23066939D01*
X30784209Y23096458D01*
X30824663Y23141675D01*
X30841480Y23201821D01*
X30838110Y23249600D01*
X30819351Y23298534D01*
X30781105Y23336799D01*
X30719373Y23367100D01*
X30630152Y23392141D01*
X30625778Y23393110D01*
X30509503Y23424491D01*
X30422081Y23462311D01*
X30360890Y23508822D01*
X30323310Y23566278D01*
X30306721Y23636932D01*
X30305375Y23668566D01*
X30318339Y23759512D01*
X30357673Y23833117D01*
X30416779Y23886007D01*
X30454913Y23908436D01*
X30493061Y23922415D01*
X30541379Y23930402D01*
X30610024Y23934854D01*
X30620435Y23935281D01*
X30711177Y23935122D01*
G37*
X30711177Y23935122D02*
X30792203Y23928062D01*
X30837187Y23919300D01*
X30883774Y23905415D01*
X30907894Y23890662D01*
X30917861Y23866406D01*
X30921422Y23831829D01*
X30926282Y23765751D01*
X30866966Y23790535D01*
X30775921Y23819393D01*
X30684162Y23832332D01*
X30598539Y23829710D01*
X30525900Y23811888D01*
X30473094Y23779225D01*
X30464266Y23769387D01*
X30438651Y23716685D01*
X30434126Y23658534D01*
X30450759Y23607044D01*
X30463287Y23591088D01*
X30498272Y23567733D01*
X30547484Y23547501D01*
X30562506Y23543263D01*
X30661073Y23518579D01*
X30734140Y23499166D01*
X30787098Y23482960D01*
X30825340Y23467899D01*
X30854257Y23451920D01*
X30879241Y23432960D01*
X30900247Y23414047D01*
X30964187Y23354404D01*
X30964187Y23095847D01*
X30899348Y23035366D01*
X30826150Y22986404D01*
X30733735Y22953809D01*
X30631176Y22939537D01*
X30527545Y22945543D01*
X30503812Y22950154D01*
X30470669Y22958395D01*
X30420785Y22971676D01*
X30388718Y22980506D01*
X30340907Y22994859D01*
X30316125Y23008732D01*
X30306804Y23030116D01*
X30305375Y23067005D01*
X30305375Y23068517D01*
X30307231Y23108999D01*
X30315125Y23124447D01*
X30332543Y23121477D01*
X30333156Y23121213D01*
X30446463Y23080255D01*
X30551245Y23058069D01*
X30644478Y23053887D01*
X30723140Y23066939D01*
X30784209Y23096458D01*
X30824663Y23141675D01*
X30841480Y23201821D01*
X30838110Y23249600D01*
X30819351Y23298534D01*
X30781105Y23336799D01*
X30719373Y23367100D01*
X30630152Y23392141D01*
X30625778Y23393110D01*
X30509503Y23424491D01*
X30422081Y23462311D01*
X30360890Y23508822D01*
X30323310Y23566278D01*
X30306721Y23636932D01*
X30305375Y23668566D01*
X30318339Y23759512D01*
X30357673Y23833117D01*
X30416779Y23886007D01*
X30454913Y23908436D01*
X30493061Y23922415D01*
X30541379Y23930402D01*
X30610024Y23934854D01*
X30620435Y23935281D01*
X30711177Y23935122D01*
G36*
X26576002Y23924830D02*
G01*
X26667874Y23898094D01*
X26673968Y23895460D01*
X26718267Y23874071D01*
X26740606Y23854832D01*
X26748471Y23828018D01*
X26749375Y23797518D01*
X26747789Y23757406D01*
X26743824Y23734895D01*
X26742142Y23733125D01*
X26725801Y23741237D01*
X26693125Y23761668D01*
X26677045Y23772393D01*
X26617233Y23804940D01*
X26550993Y23822838D01*
X26469170Y23827908D01*
X26409639Y23825604D01*
X26313857Y23807622D01*
X26237730Y23765731D01*
X26177630Y23697608D01*
X26158438Y23664737D01*
X26140881Y23625388D01*
X26130122Y23582697D01*
X26124631Y23527304D01*
X26122876Y23449846D01*
X26122866Y23447375D01*
X26123879Y23370001D01*
X26128677Y23314304D01*
X26138892Y23270287D01*
X26156156Y23227949D01*
X26159954Y23220109D01*
X26213835Y23143775D01*
X26286501Y23089543D01*
X26373135Y23058282D01*
X26468915Y23050859D01*
X26569025Y23068144D01*
X26668643Y23111004D01*
X26690798Y23124455D01*
X26751284Y23163340D01*
X26746360Y23095014D01*
X26741049Y23053284D01*
X26727414Y23027008D01*
X26697443Y23005475D01*
X26667941Y22990206D01*
X26594661Y22964766D01*
X26504504Y22949180D01*
X26411185Y22944792D01*
X26328416Y22952948D01*
X26316265Y22955708D01*
X26208094Y22997551D01*
X26119288Y23064106D01*
X26048754Y23156310D01*
X26021953Y23208013D01*
X25993961Y23297242D01*
X25980724Y23403137D01*
X25982551Y23514090D01*
X25999757Y23618492D01*
X26009977Y23652824D01*
X26056560Y23744821D01*
X26126118Y23825824D01*
X26210913Y23888081D01*
X26272041Y23915328D01*
X26364442Y23934121D01*
X26470310Y23937064D01*
X26576002Y23924830D01*
G37*
X26576002Y23924830D02*
X26667874Y23898094D01*
X26673968Y23895460D01*
X26718267Y23874071D01*
X26740606Y23854832D01*
X26748471Y23828018D01*
X26749375Y23797518D01*
X26747789Y23757406D01*
X26743824Y23734895D01*
X26742142Y23733125D01*
X26725801Y23741237D01*
X26693125Y23761668D01*
X26677045Y23772393D01*
X26617233Y23804940D01*
X26550993Y23822838D01*
X26469170Y23827908D01*
X26409639Y23825604D01*
X26313857Y23807622D01*
X26237730Y23765731D01*
X26177630Y23697608D01*
X26158438Y23664737D01*
X26140881Y23625388D01*
X26130122Y23582697D01*
X26124631Y23527304D01*
X26122876Y23449846D01*
X26122866Y23447375D01*
X26123879Y23370001D01*
X26128677Y23314304D01*
X26138892Y23270287D01*
X26156156Y23227949D01*
X26159954Y23220109D01*
X26213835Y23143775D01*
X26286501Y23089543D01*
X26373135Y23058282D01*
X26468915Y23050859D01*
X26569025Y23068144D01*
X26668643Y23111004D01*
X26690798Y23124455D01*
X26751284Y23163340D01*
X26746360Y23095014D01*
X26741049Y23053284D01*
X26727414Y23027008D01*
X26697443Y23005475D01*
X26667941Y22990206D01*
X26594661Y22964766D01*
X26504504Y22949180D01*
X26411185Y22944792D01*
X26328416Y22952948D01*
X26316265Y22955708D01*
X26208094Y22997551D01*
X26119288Y23064106D01*
X26048754Y23156310D01*
X26021953Y23208013D01*
X25993961Y23297242D01*
X25980724Y23403137D01*
X25982551Y23514090D01*
X25999757Y23618492D01*
X26009977Y23652824D01*
X26056560Y23744821D01*
X26126118Y23825824D01*
X26210913Y23888081D01*
X26272041Y23915328D01*
X26364442Y23934121D01*
X26470310Y23937064D01*
X26576002Y23924830D01*
G36*
X25397327Y23930329D02*
G01*
X25452468Y23925464D01*
X25496181Y23915219D01*
X25538597Y23897849D01*
X25550812Y23891875D01*
X25596586Y23867208D01*
X25620945Y23845782D01*
X25631489Y23817942D01*
X25635064Y23784810D01*
X25639941Y23717433D01*
X25557093Y23768934D01*
X25507284Y23797041D01*
X25462016Y23813629D01*
X25408228Y23822333D01*
X25352254Y23825975D01*
X25247659Y23822195D01*
X25165041Y23798987D01*
X25099934Y23754502D01*
X25058775Y23704355D01*
X25018314Y23618945D01*
X24996653Y23519366D01*
X24993368Y23413918D01*
X25008033Y23310904D01*
X25040225Y23218625D01*
X25087226Y23147842D01*
X25157724Y23093431D01*
X25244364Y23061300D01*
X25340313Y23051815D01*
X25438736Y23065343D01*
X25532801Y23102252D01*
X25565511Y23122165D01*
X25602212Y23146062D01*
X25626623Y23160085D01*
X25630892Y23161625D01*
X25635398Y23147514D01*
X25637926Y23112211D01*
X25638125Y23097247D01*
X25636511Y23060604D01*
X25627058Y23037042D01*
X25602847Y23018198D01*
X25556959Y22995712D01*
X25552366Y22993608D01*
X25466611Y22964974D01*
X25367959Y22948383D01*
X25271004Y22945553D01*
X25209500Y22953204D01*
X25105231Y22990667D01*
X25013414Y23052296D01*
X24939810Y23132905D01*
X24890180Y23227310D01*
X24883988Y23246200D01*
X24866463Y23335153D01*
X24860398Y23436569D01*
X24865584Y23537921D01*
X24881810Y23626686D01*
X24890831Y23654518D01*
X24935932Y23748554D01*
X24993762Y23819844D01*
X25071499Y23876907D01*
X25084559Y23884345D01*
X25128117Y23906883D01*
X25166224Y23920861D01*
X25208927Y23928287D01*
X25266270Y23931171D01*
X25320625Y23931563D01*
X25397327Y23930329D01*
G37*
X25397327Y23930329D02*
X25452468Y23925464D01*
X25496181Y23915219D01*
X25538597Y23897849D01*
X25550812Y23891875D01*
X25596586Y23867208D01*
X25620945Y23845782D01*
X25631489Y23817942D01*
X25635064Y23784810D01*
X25639941Y23717433D01*
X25557093Y23768934D01*
X25507284Y23797041D01*
X25462016Y23813629D01*
X25408228Y23822333D01*
X25352254Y23825975D01*
X25247659Y23822195D01*
X25165041Y23798987D01*
X25099934Y23754502D01*
X25058775Y23704355D01*
X25018314Y23618945D01*
X24996653Y23519366D01*
X24993368Y23413918D01*
X25008033Y23310904D01*
X25040225Y23218625D01*
X25087226Y23147842D01*
X25157724Y23093431D01*
X25244364Y23061300D01*
X25340313Y23051815D01*
X25438736Y23065343D01*
X25532801Y23102252D01*
X25565511Y23122165D01*
X25602212Y23146062D01*
X25626623Y23160085D01*
X25630892Y23161625D01*
X25635398Y23147514D01*
X25637926Y23112211D01*
X25638125Y23097247D01*
X25636511Y23060604D01*
X25627058Y23037042D01*
X25602847Y23018198D01*
X25556959Y22995712D01*
X25552366Y22993608D01*
X25466611Y22964974D01*
X25367959Y22948383D01*
X25271004Y22945553D01*
X25209500Y22953204D01*
X25105231Y22990667D01*
X25013414Y23052296D01*
X24939810Y23132905D01*
X24890180Y23227310D01*
X24883988Y23246200D01*
X24866463Y23335153D01*
X24860398Y23436569D01*
X24865584Y23537921D01*
X24881810Y23626686D01*
X24890831Y23654518D01*
X24935932Y23748554D01*
X24993762Y23819844D01*
X25071499Y23876907D01*
X25084559Y23884345D01*
X25128117Y23906883D01*
X25166224Y23920861D01*
X25208927Y23928287D01*
X25266270Y23931171D01*
X25320625Y23931563D01*
X25397327Y23930329D01*
G36*
X38668328Y26986579D02*
G01*
X38754848Y26934067D01*
X38820501Y26870317D01*
X38873874Y26786369D01*
X38888120Y26757313D01*
X38925189Y26677938D01*
X38925189Y22836188D01*
X38888120Y22756813D01*
X38836683Y22665421D01*
X38775430Y22596796D01*
X38695771Y22541977D01*
X38668328Y22527547D01*
X38571178Y22479000D01*
X24928821Y22479000D01*
X24831671Y22527547D01*
X24745151Y22580059D01*
X24679498Y22643809D01*
X24626125Y22727757D01*
X24611879Y22756813D01*
X24574810Y22836188D01*
X24574810Y23926529D01*
X24751183Y23926529D01*
X24751350Y23731025D01*
X24751681Y23551733D01*
X24752171Y23390762D01*
X24752813Y23250219D01*
X24753603Y23132213D01*
X24754535Y23038853D01*
X24755603Y22972245D01*
X24756802Y22934499D01*
X24757277Y22928270D01*
X24782168Y22835164D01*
X24830571Y22757456D01*
X24898434Y22699998D01*
X24973324Y22669487D01*
X24992720Y22668624D01*
X25042824Y22667787D01*
X25122596Y22666978D01*
X25230994Y22666198D01*
X25366977Y22665449D01*
X25529503Y22664733D01*
X25717532Y22664051D01*
X25930022Y22663404D01*
X26165931Y22662794D01*
X26424220Y22662223D01*
X26703845Y22661692D01*
X27003766Y22661204D01*
X27322942Y22660758D01*
X27660332Y22660358D01*
X28014893Y22660005D01*
X28385586Y22659699D01*
X28771368Y22659444D01*
X29171198Y22659240D01*
X29584035Y22659088D01*
X30008838Y22658992D01*
X30444566Y22658951D01*
X30890177Y22658968D01*
X31344629Y22659044D01*
X31781750Y22659173D01*
X32334527Y22659373D01*
X32856445Y22659575D01*
X33348392Y22659783D01*
X33811258Y22659999D01*
X34245934Y22660229D01*
X34653309Y22660475D01*
X35034272Y22660742D01*
X35389714Y22661034D01*
X35720525Y22661354D01*
X36027593Y22661707D01*
X36311810Y22662096D01*
X36574064Y22662525D01*
X36815246Y22662999D01*
X37036245Y22663520D01*
X37237952Y22664092D01*
X37421255Y22664721D01*
X37587045Y22665409D01*
X37736211Y22666160D01*
X37869644Y22666978D01*
X37988233Y22667868D01*
X38092868Y22668833D01*
X38184439Y22669876D01*
X38263835Y22671002D01*
X38331947Y22672215D01*
X38389663Y22673518D01*
X38437875Y22674915D01*
X38477471Y22676411D01*
X38509342Y22678009D01*
X38534377Y22679712D01*
X38553466Y22681526D01*
X38567499Y22683453D01*
X38577366Y22685498D01*
X38583956Y22687664D01*
X38586265Y22688774D01*
X38642935Y22730518D01*
X38692950Y22785956D01*
X38726336Y22843481D01*
X38731035Y22857255D01*
X38732571Y22878355D01*
X38734048Y22929190D01*
X38735456Y23007742D01*
X38736781Y23111995D01*
X38738010Y23239935D01*
X38739132Y23389544D01*
X38740134Y23558806D01*
X38741003Y23745706D01*
X38741727Y23948227D01*
X38742293Y24164354D01*
X38742689Y24392070D01*
X38742902Y24629359D01*
X38742937Y24772938D01*
X38742914Y25057260D01*
X38742827Y25311553D01*
X38742654Y25537537D01*
X38742368Y25736934D01*
X38741947Y25911464D01*
X38741365Y26062848D01*
X38740599Y26192806D01*
X38739624Y26303060D01*
X38738415Y26395330D01*
X38736948Y26471338D01*
X38735200Y26532803D01*
X38733144Y26581446D01*
X38730758Y26618989D01*
X38728017Y26647153D01*
X38724897Y26667657D01*
X38721372Y26682222D01*
X38717419Y26692571D01*
X38715726Y26695891D01*
X38673982Y26752561D01*
X38618544Y26802576D01*
X38561019Y26835962D01*
X38547245Y26840661D01*
X38528276Y26841570D01*
X38478818Y26842441D01*
X38400131Y26843276D01*
X38293475Y26844074D01*
X38160112Y26844835D01*
X38001302Y26845559D01*
X37818305Y26846247D01*
X37612382Y26846897D01*
X37384793Y26847511D01*
X37136800Y26848089D01*
X36869662Y26848629D01*
X36584640Y26849133D01*
X36282995Y26849599D01*
X35965988Y26850029D01*
X35634878Y26850423D01*
X35290926Y26850779D01*
X34935394Y26851099D01*
X34569541Y26851381D01*
X34194628Y26851627D01*
X33811916Y26851837D01*
X33422664Y26852009D01*
X33028135Y26852145D01*
X32629588Y26852244D01*
X32228284Y26852306D01*
X31825483Y26852331D01*
X31422446Y26852319D01*
X31020434Y26852271D01*
X30620707Y26852186D01*
X30224525Y26852064D01*
X29833150Y26851906D01*
X29447841Y26851710D01*
X29069860Y26851478D01*
X28700467Y26851209D01*
X28340922Y26850903D01*
X27992486Y26850560D01*
X27656419Y26850181D01*
X27333983Y26849765D01*
X27026438Y26849312D01*
X26735043Y26848822D01*
X26461061Y26848295D01*
X26205750Y26847732D01*
X25970373Y26847132D01*
X25756189Y26846495D01*
X25564460Y26845821D01*
X25396444Y26845110D01*
X25253404Y26844363D01*
X25136600Y26843579D01*
X25047292Y26842758D01*
X24986741Y26841900D01*
X24956207Y26841006D01*
X24952754Y26840661D01*
X24896576Y26813190D01*
X24839487Y26766514D01*
X24793095Y26710607D01*
X24784273Y26695891D01*
X24780078Y26686548D01*
X24776322Y26673518D01*
X24772976Y26655054D01*
X24770008Y26629410D01*
X24767390Y26594838D01*
X24765091Y26549592D01*
X24763082Y26491924D01*
X24761332Y26420090D01*
X24759811Y26332340D01*
X24758490Y26226930D01*
X24757339Y26102111D01*
X24756327Y25956138D01*
X24755426Y25787263D01*
X24754604Y25593740D01*
X24753832Y25373821D01*
X24753079Y25125761D01*
X24752317Y24847812D01*
X24752266Y24828500D01*
X24751722Y24589231D01*
X24751363Y24357740D01*
X24751185Y24136136D01*
X24751183Y23926529D01*
X24574810Y23926529D01*
X24574810Y26677938D01*
X24611879Y26757313D01*
X24663316Y26848705D01*
X24724569Y26917330D01*
X24804228Y26972149D01*
X24831671Y26986579D01*
X24928821Y27035125D01*
X38571178Y27035125D01*
X38668328Y26986579D01*
G37*
X38668328Y26986579D02*
X38754848Y26934067D01*
X38820501Y26870317D01*
X38873874Y26786369D01*
X38888120Y26757313D01*
X38925189Y26677938D01*
X38925189Y22836188D01*
X38888120Y22756813D01*
X38836683Y22665421D01*
X38775430Y22596796D01*
X38695771Y22541977D01*
X38668328Y22527547D01*
X38571178Y22479000D01*
X24928821Y22479000D01*
X24831671Y22527547D01*
X24745151Y22580059D01*
X24679498Y22643809D01*
X24626125Y22727757D01*
X24611879Y22756813D01*
X24574810Y22836188D01*
X24574810Y23926529D01*
X24751183Y23926529D01*
X24751350Y23731025D01*
X24751681Y23551733D01*
X24752171Y23390762D01*
X24752813Y23250219D01*
X24753603Y23132213D01*
X24754535Y23038853D01*
X24755603Y22972245D01*
X24756802Y22934499D01*
X24757277Y22928270D01*
X24782168Y22835164D01*
X24830571Y22757456D01*
X24898434Y22699998D01*
X24973324Y22669487D01*
X24992720Y22668624D01*
X25042824Y22667787D01*
X25122596Y22666978D01*
X25230994Y22666198D01*
X25366977Y22665449D01*
X25529503Y22664733D01*
X25717532Y22664051D01*
X25930022Y22663404D01*
X26165931Y22662794D01*
X26424220Y22662223D01*
X26703845Y22661692D01*
X27003766Y22661204D01*
X27322942Y22660758D01*
X27660332Y22660358D01*
X28014893Y22660005D01*
X28385586Y22659699D01*
X28771368Y22659444D01*
X29171198Y22659240D01*
X29584035Y22659088D01*
X30008838Y22658992D01*
X30444566Y22658951D01*
X30890177Y22658968D01*
X31344629Y22659044D01*
X31781750Y22659173D01*
X32334527Y22659373D01*
X32856445Y22659575D01*
X33348392Y22659783D01*
X33811258Y22659999D01*
X34245934Y22660229D01*
X34653309Y22660475D01*
X35034272Y22660742D01*
X35389714Y22661034D01*
X35720525Y22661354D01*
X36027593Y22661707D01*
X36311810Y22662096D01*
X36574064Y22662525D01*
X36815246Y22662999D01*
X37036245Y22663520D01*
X37237952Y22664092D01*
X37421255Y22664721D01*
X37587045Y22665409D01*
X37736211Y22666160D01*
X37869644Y22666978D01*
X37988233Y22667868D01*
X38092868Y22668833D01*
X38184439Y22669876D01*
X38263835Y22671002D01*
X38331947Y22672215D01*
X38389663Y22673518D01*
X38437875Y22674915D01*
X38477471Y22676411D01*
X38509342Y22678009D01*
X38534377Y22679712D01*
X38553466Y22681526D01*
X38567499Y22683453D01*
X38577366Y22685498D01*
X38583956Y22687664D01*
X38586265Y22688774D01*
X38642935Y22730518D01*
X38692950Y22785956D01*
X38726336Y22843481D01*
X38731035Y22857255D01*
X38732571Y22878355D01*
X38734048Y22929190D01*
X38735456Y23007742D01*
X38736781Y23111995D01*
X38738010Y23239935D01*
X38739132Y23389544D01*
X38740134Y23558806D01*
X38741003Y23745706D01*
X38741727Y23948227D01*
X38742293Y24164354D01*
X38742689Y24392070D01*
X38742902Y24629359D01*
X38742937Y24772938D01*
X38742914Y25057260D01*
X38742827Y25311553D01*
X38742654Y25537537D01*
X38742368Y25736934D01*
X38741947Y25911464D01*
X38741365Y26062848D01*
X38740599Y26192806D01*
X38739624Y26303060D01*
X38738415Y26395330D01*
X38736948Y26471338D01*
X38735200Y26532803D01*
X38733144Y26581446D01*
X38730758Y26618989D01*
X38728017Y26647153D01*
X38724897Y26667657D01*
X38721372Y26682222D01*
X38717419Y26692571D01*
X38715726Y26695891D01*
X38673982Y26752561D01*
X38618544Y26802576D01*
X38561019Y26835962D01*
X38547245Y26840661D01*
X38528276Y26841570D01*
X38478818Y26842441D01*
X38400131Y26843276D01*
X38293475Y26844074D01*
X38160112Y26844835D01*
X38001302Y26845559D01*
X37818305Y26846247D01*
X37612382Y26846897D01*
X37384793Y26847511D01*
X37136800Y26848089D01*
X36869662Y26848629D01*
X36584640Y26849133D01*
X36282995Y26849599D01*
X35965988Y26850029D01*
X35634878Y26850423D01*
X35290926Y26850779D01*
X34935394Y26851099D01*
X34569541Y26851381D01*
X34194628Y26851627D01*
X33811916Y26851837D01*
X33422664Y26852009D01*
X33028135Y26852145D01*
X32629588Y26852244D01*
X32228284Y26852306D01*
X31825483Y26852331D01*
X31422446Y26852319D01*
X31020434Y26852271D01*
X30620707Y26852186D01*
X30224525Y26852064D01*
X29833150Y26851906D01*
X29447841Y26851710D01*
X29069860Y26851478D01*
X28700467Y26851209D01*
X28340922Y26850903D01*
X27992486Y26850560D01*
X27656419Y26850181D01*
X27333983Y26849765D01*
X27026438Y26849312D01*
X26735043Y26848822D01*
X26461061Y26848295D01*
X26205750Y26847732D01*
X25970373Y26847132D01*
X25756189Y26846495D01*
X25564460Y26845821D01*
X25396444Y26845110D01*
X25253404Y26844363D01*
X25136600Y26843579D01*
X25047292Y26842758D01*
X24986741Y26841900D01*
X24956207Y26841006D01*
X24952754Y26840661D01*
X24896576Y26813190D01*
X24839487Y26766514D01*
X24793095Y26710607D01*
X24784273Y26695891D01*
X24780078Y26686548D01*
X24776322Y26673518D01*
X24772976Y26655054D01*
X24770008Y26629410D01*
X24767390Y26594838D01*
X24765091Y26549592D01*
X24763082Y26491924D01*
X24761332Y26420090D01*
X24759811Y26332340D01*
X24758490Y26226930D01*
X24757339Y26102111D01*
X24756327Y25956138D01*
X24755426Y25787263D01*
X24754604Y25593740D01*
X24753832Y25373821D01*
X24753079Y25125761D01*
X24752317Y24847812D01*
X24752266Y24828500D01*
X24751722Y24589231D01*
X24751363Y24357740D01*
X24751185Y24136136D01*
X24751183Y23926529D01*
X24574810Y23926529D01*
X24574810Y26677938D01*
X24611879Y26757313D01*
X24663316Y26848705D01*
X24724569Y26917330D01*
X24804228Y26972149D01*
X24831671Y26986579D01*
X24928821Y27035125D01*
X38571178Y27035125D01*
X38668328Y26986579D01*
D11*
%TO.C,C1*%
X39045000Y16550000D02*
G75*
G03X39045000Y16550000I-4120000J0D01*
G01*
X39005000Y16550000D02*
X30845000Y16550000D01*
X39005000Y16510000D02*
X30845000Y16510000D01*
X39005000Y16470000D02*
X30845000Y16470000D01*
X39004000Y16430000D02*
X30846000Y16430000D01*
X39002000Y16390000D02*
X30848000Y16390000D01*
X39001000Y16350000D02*
X30849000Y16350000D01*
X38999000Y16310000D02*
X30851000Y16310000D01*
X38996000Y16270000D02*
X30854000Y16270000D01*
X38993000Y16230000D02*
X30857000Y16230000D01*
X38990000Y16190000D02*
X30860000Y16190000D01*
X38986000Y16150000D02*
X30864000Y16150000D01*
X38982000Y16110000D02*
X30868000Y16110000D01*
X38977000Y16070000D02*
X30873000Y16070000D01*
X38973000Y16030000D02*
X30877000Y16030000D01*
X38967000Y15990000D02*
X30883000Y15990000D01*
X38962000Y15950000D02*
X30888000Y15950000D01*
X38955000Y15910000D02*
X30895000Y15910000D01*
X38949000Y15870000D02*
X30901000Y15870000D01*
X38942000Y15829000D02*
X30908000Y15829000D01*
X38935000Y15789000D02*
X30915000Y15789000D01*
X38927000Y15749000D02*
X30923000Y15749000D01*
X38919000Y15709000D02*
X30931000Y15709000D01*
X38910000Y15669000D02*
X30940000Y15669000D01*
X38901000Y15629000D02*
X30949000Y15629000D01*
X38892000Y15589000D02*
X30958000Y15589000D01*
X38882000Y15549000D02*
X30968000Y15549000D01*
X38872000Y15509000D02*
X30978000Y15509000D01*
X38861000Y15469000D02*
X30989000Y15469000D01*
X38850000Y15429000D02*
X31000000Y15429000D01*
X38839000Y15389000D02*
X31011000Y15389000D01*
X38827000Y15349000D02*
X31023000Y15349000D01*
X38814000Y15309000D02*
X31036000Y15309000D01*
X38802000Y15269000D02*
X31048000Y15269000D01*
X38788000Y15229000D02*
X31062000Y15229000D01*
X38775000Y15189000D02*
X31075000Y15189000D01*
X38760000Y15149000D02*
X31090000Y15149000D01*
X38746000Y15109000D02*
X31104000Y15109000D01*
X38730000Y15069000D02*
X35965000Y15069000D01*
X33885000Y15069000D02*
X31120000Y15069000D01*
X38715000Y15029000D02*
X35965000Y15029000D01*
X33885000Y15029000D02*
X31135000Y15029000D01*
X38699000Y14989000D02*
X35965000Y14989000D01*
X33885000Y14989000D02*
X31151000Y14989000D01*
X38682000Y14949000D02*
X35965000Y14949000D01*
X33885000Y14949000D02*
X31168000Y14949000D01*
X38665000Y14909000D02*
X35965000Y14909000D01*
X33885000Y14909000D02*
X31185000Y14909000D01*
X38647000Y14869000D02*
X35965000Y14869000D01*
X33885000Y14869000D02*
X31203000Y14869000D01*
X38629000Y14829000D02*
X35965000Y14829000D01*
X33885000Y14829000D02*
X31221000Y14829000D01*
X38611000Y14789000D02*
X35965000Y14789000D01*
X33885000Y14789000D02*
X31239000Y14789000D01*
X38591000Y14749000D02*
X35965000Y14749000D01*
X33885000Y14749000D02*
X31259000Y14749000D01*
X38572000Y14709000D02*
X35965000Y14709000D01*
X33885000Y14709000D02*
X31278000Y14709000D01*
X38552000Y14669000D02*
X35965000Y14669000D01*
X33885000Y14669000D02*
X31298000Y14669000D01*
X38531000Y14629000D02*
X35965000Y14629000D01*
X33885000Y14629000D02*
X31319000Y14629000D01*
X38509000Y14589000D02*
X35965000Y14589000D01*
X33885000Y14589000D02*
X31341000Y14589000D01*
X38487000Y14549000D02*
X35965000Y14549000D01*
X33885000Y14549000D02*
X31363000Y14549000D01*
X38465000Y14509000D02*
X35965000Y14509000D01*
X33885000Y14509000D02*
X31385000Y14509000D01*
X38442000Y14469000D02*
X35965000Y14469000D01*
X33885000Y14469000D02*
X31408000Y14469000D01*
X38418000Y14429000D02*
X35965000Y14429000D01*
X33885000Y14429000D02*
X31432000Y14429000D01*
X38394000Y14389000D02*
X35965000Y14389000D01*
X33885000Y14389000D02*
X31456000Y14389000D01*
X38369000Y14349000D02*
X35965000Y14349000D01*
X33885000Y14349000D02*
X31481000Y14349000D01*
X38343000Y14309000D02*
X35965000Y14309000D01*
X33885000Y14309000D02*
X31507000Y14309000D01*
X38317000Y14269000D02*
X35965000Y14269000D01*
X33885000Y14269000D02*
X31533000Y14269000D01*
X38290000Y14229000D02*
X35965000Y14229000D01*
X33885000Y14229000D02*
X31560000Y14229000D01*
X38263000Y14189000D02*
X35965000Y14189000D01*
X33885000Y14189000D02*
X31587000Y14189000D01*
X38234000Y14149000D02*
X35965000Y14149000D01*
X33885000Y14149000D02*
X31616000Y14149000D01*
X38205000Y14109000D02*
X35965000Y14109000D01*
X33885000Y14109000D02*
X31645000Y14109000D01*
X38175000Y14069000D02*
X35965000Y14069000D01*
X33885000Y14069000D02*
X31675000Y14069000D01*
X38145000Y14029000D02*
X35965000Y14029000D01*
X33885000Y14029000D02*
X31705000Y14029000D01*
X38114000Y13989000D02*
X35965000Y13989000D01*
X33885000Y13989000D02*
X31736000Y13989000D01*
X38081000Y13949000D02*
X35965000Y13949000D01*
X33885000Y13949000D02*
X31769000Y13949000D01*
X38049000Y13909000D02*
X35965000Y13909000D01*
X33885000Y13909000D02*
X31801000Y13909000D01*
X38015000Y13869000D02*
X35965000Y13869000D01*
X33885000Y13869000D02*
X31835000Y13869000D01*
X37980000Y13829000D02*
X35965000Y13829000D01*
X33885000Y13829000D02*
X31870000Y13829000D01*
X37944000Y13789000D02*
X35965000Y13789000D01*
X33885000Y13789000D02*
X31906000Y13789000D01*
X37908000Y13749000D02*
X35965000Y13749000D01*
X33885000Y13749000D02*
X31942000Y13749000D01*
X37870000Y13709000D02*
X35965000Y13709000D01*
X33885000Y13709000D02*
X31980000Y13709000D01*
X37832000Y13669000D02*
X35965000Y13669000D01*
X33885000Y13669000D02*
X32018000Y13669000D01*
X37792000Y13629000D02*
X35965000Y13629000D01*
X33885000Y13629000D02*
X32058000Y13629000D01*
X37751000Y13589000D02*
X35965000Y13589000D01*
X33885000Y13589000D02*
X32099000Y13589000D01*
X37709000Y13549000D02*
X35965000Y13549000D01*
X33885000Y13549000D02*
X32141000Y13549000D01*
X37666000Y13509000D02*
X35965000Y13509000D01*
X33885000Y13509000D02*
X32184000Y13509000D01*
X37622000Y13469000D02*
X35965000Y13469000D01*
X33885000Y13469000D02*
X32228000Y13469000D01*
X37576000Y13429000D02*
X35965000Y13429000D01*
X33885000Y13429000D02*
X32274000Y13429000D01*
X37529000Y13389000D02*
X35965000Y13389000D01*
X33885000Y13389000D02*
X32321000Y13389000D01*
X37481000Y13349000D02*
X35965000Y13349000D01*
X33885000Y13349000D02*
X32369000Y13349000D01*
X37430000Y13309000D02*
X35965000Y13309000D01*
X33885000Y13309000D02*
X32420000Y13309000D01*
X37379000Y13269000D02*
X35965000Y13269000D01*
X33885000Y13269000D02*
X32471000Y13269000D01*
X37325000Y13229000D02*
X35965000Y13229000D01*
X33885000Y13229000D02*
X32525000Y13229000D01*
X37270000Y13189000D02*
X35965000Y13189000D01*
X33885000Y13189000D02*
X32580000Y13189000D01*
X37212000Y13149000D02*
X35965000Y13149000D01*
X33885000Y13149000D02*
X32638000Y13149000D01*
X37153000Y13109000D02*
X35965000Y13109000D01*
X33885000Y13109000D02*
X32697000Y13109000D01*
X37091000Y13069000D02*
X35965000Y13069000D01*
X33885000Y13069000D02*
X32759000Y13069000D01*
X37027000Y13029000D02*
X35965000Y13029000D01*
X33885000Y13029000D02*
X32823000Y13029000D01*
X36959000Y12989000D02*
X32891000Y12989000D01*
X36889000Y12949000D02*
X32961000Y12949000D01*
X36815000Y12909000D02*
X33035000Y12909000D01*
X36738000Y12869000D02*
X33112000Y12869000D01*
X36656000Y12829000D02*
X33194000Y12829000D01*
X36570000Y12789000D02*
X33280000Y12789000D01*
X36477000Y12749000D02*
X33373000Y12749000D01*
X36378000Y12709000D02*
X33472000Y12709000D01*
X36271000Y12669000D02*
X33579000Y12669000D01*
X36154000Y12629000D02*
X33696000Y12629000D01*
X36023000Y12589000D02*
X33827000Y12589000D01*
X35873000Y12549000D02*
X33977000Y12549000D01*
X35693000Y12509000D02*
X34157000Y12509000D01*
X35458000Y12469000D02*
X34392000Y12469000D01*
X37240000Y20959698D02*
X37240000Y20159698D01*
X37640000Y20559698D02*
X36840000Y20559698D01*
%TO.C,C2*%
X26185000Y4595000D02*
X26185000Y11835000D01*
X28425000Y4595000D02*
X28425000Y11835000D01*
X26185000Y4595000D02*
X28425000Y4595000D01*
X26185000Y11835000D02*
X28425000Y11835000D01*
%TO.C,J1*%
X31790000Y8815000D02*
X41790000Y8815000D01*
X41790000Y8815000D02*
X41790000Y1215000D01*
X31790000Y8815000D02*
X31790000Y1215000D01*
X31790000Y1215000D02*
X41790000Y1215000D01*
X31790000Y3175000D02*
X41790000Y3175000D01*
%TO.C,R2*%
X12350000Y10175000D02*
X10510000Y10175000D01*
X10510000Y10175000D02*
X10510000Y6335000D01*
X10510000Y6335000D02*
X12350000Y6335000D01*
X12350000Y6335000D02*
X12350000Y10175000D01*
X11430000Y11125000D02*
X11430000Y10175000D01*
X11430000Y5385000D02*
X11430000Y6335000D01*
%TO.C,R3*%
X16180000Y16510000D02*
X17130000Y16510000D01*
X21920000Y16510000D02*
X20970000Y16510000D01*
X17130000Y15590000D02*
X20970000Y15590000D01*
X17130000Y17430000D02*
X17130000Y15590000D01*
X20970000Y17430000D02*
X17130000Y17430000D01*
X20970000Y15590000D02*
X20970000Y17430000D01*
%TO.C,U1*%
X20050000Y13395000D02*
G75*
G02X18050000Y13395000I-1000000J0D01*
G01*
X18050000Y13395000D02*
X16400000Y13395000D01*
X16400000Y13395000D02*
X16400000Y3115000D01*
X16400000Y3115000D02*
X21700000Y3115000D01*
X21700000Y3115000D02*
X21700000Y13395000D01*
X21700000Y13395000D02*
X20050000Y13395000D01*
%TO.C,U2*%
D13*
X53292380Y15748096D02*
X54101904Y15748096D01*
X54197142Y15795715D01*
X54244761Y15843334D01*
X54292380Y15938572D01*
X54292380Y16129048D01*
X54244761Y16224286D01*
X54197142Y16271905D01*
X54101904Y16319524D01*
X53292380Y16319524D01*
X53387619Y16748096D02*
X53340000Y16795715D01*
X53292380Y16890953D01*
X53292380Y17129048D01*
X53340000Y17224286D01*
X53387619Y17271905D01*
X53482857Y17319524D01*
X53578095Y17319524D01*
X53720952Y17271905D01*
X54292380Y16700477D01*
X54292380Y17319524D01*
X44489714Y23891905D02*
X45156380Y24130000D01*
X44489714Y24368096D01*
X44775428Y21209048D02*
X44775428Y21970953D01*
X44775428Y18669048D02*
X44775428Y19430953D01*
X45156380Y19050000D02*
X44394476Y19050000D01*
%TO.C,R1*%
D10*
X3349761Y10652620D02*
X3349761Y10843096D01*
X3445000Y11033572D01*
X3540238Y11128810D01*
X3730714Y11224048D01*
X4111666Y11319286D01*
X4587857Y11319286D01*
X4968809Y11224048D01*
X5159285Y11128810D01*
X5254523Y11033572D01*
X5349761Y10843096D01*
X5349761Y10652620D01*
X5254523Y10462143D01*
X5159285Y10366905D01*
X4968809Y10271667D01*
X4587857Y10176429D01*
X4111666Y10176429D01*
X3730714Y10271667D01*
X3540238Y10366905D01*
X3445000Y10462143D01*
X3349761Y10652620D01*
X5349761Y13319286D02*
X4397380Y12652620D01*
X5349761Y12176429D02*
X3349761Y12176429D01*
X3349761Y12938334D01*
X3445000Y13128810D01*
X3540238Y13224048D01*
X3730714Y13319286D01*
X4016428Y13319286D01*
X4206904Y13224048D01*
X4302142Y13128810D01*
X4397380Y12938334D01*
X4397380Y12176429D01*
X3349761Y14557381D02*
X3349761Y14747858D01*
X3445000Y14938334D01*
X3540238Y15033572D01*
X3730714Y15128810D01*
X4111666Y15224048D01*
X4587857Y15224048D01*
X4968809Y15128810D01*
X5159285Y15033572D01*
X5254523Y14938334D01*
X5349761Y14747858D01*
X5349761Y14557381D01*
X5254523Y14366905D01*
X5159285Y14271667D01*
X4968809Y14176429D01*
X4587857Y14081191D01*
X4111666Y14081191D01*
X3730714Y14176429D01*
X3540238Y14271667D01*
X3445000Y14366905D01*
X3349761Y14557381D01*
X3349761Y16462143D02*
X3349761Y16652620D01*
X3445000Y16843096D01*
X3540238Y16938334D01*
X3730714Y17033572D01*
X4111666Y17128810D01*
X4587857Y17128810D01*
X4968809Y17033572D01*
X5159285Y16938334D01*
X5254523Y16843096D01*
X5349761Y16652620D01*
X5349761Y16462143D01*
X5254523Y16271667D01*
X5159285Y16176429D01*
X4968809Y16081191D01*
X4587857Y15985953D01*
X4111666Y15985953D01*
X3730714Y16081191D01*
X3540238Y16176429D01*
X3445000Y16271667D01*
X3349761Y16462143D01*
X5349761Y19033572D02*
X5349761Y17890715D01*
X5349761Y18462143D02*
X3349761Y18462143D01*
X3635476Y18271667D01*
X3825952Y18081191D01*
X3921190Y17890715D01*
%TO.C,C1*%
D13*
X40473333Y16152858D02*
X40425714Y16105239D01*
X40282857Y16057620D01*
X40187619Y16057620D01*
X40044761Y16105239D01*
X39949523Y16200477D01*
X39901904Y16295715D01*
X39854285Y16486191D01*
X39854285Y16629048D01*
X39901904Y16819524D01*
X39949523Y16914762D01*
X40044761Y17010000D01*
X40187619Y17057620D01*
X40282857Y17057620D01*
X40425714Y17010000D01*
X40473333Y16962381D01*
X41425714Y16057620D02*
X40854285Y16057620D01*
X41140000Y16057620D02*
X41140000Y17057620D01*
X41044761Y16914762D01*
X40949523Y16819524D01*
X40854285Y16771905D01*
%TO.C,C2*%
X27662142Y2928334D02*
X27709761Y2880715D01*
X27757380Y2737858D01*
X27757380Y2642620D01*
X27709761Y2499762D01*
X27614523Y2404524D01*
X27519285Y2356905D01*
X27328809Y2309286D01*
X27185952Y2309286D01*
X26995476Y2356905D01*
X26900238Y2404524D01*
X26805000Y2499762D01*
X26757380Y2642620D01*
X26757380Y2737858D01*
X26805000Y2880715D01*
X26852619Y2928334D01*
X26852619Y3309286D02*
X26805000Y3356905D01*
X26757380Y3452143D01*
X26757380Y3690239D01*
X26805000Y3785477D01*
X26852619Y3833096D01*
X26947857Y3880715D01*
X27043095Y3880715D01*
X27185952Y3833096D01*
X27757380Y3261667D01*
X27757380Y3880715D01*
%TO.C,J1*%
X36456666Y5762620D02*
X36456666Y5048334D01*
X36409047Y4905477D01*
X36313809Y4810239D01*
X36170952Y4762620D01*
X36075714Y4762620D01*
X37456666Y4762620D02*
X36885238Y4762620D01*
X37170952Y4762620D02*
X37170952Y5762620D01*
X37075714Y5619762D01*
X36980476Y5524524D01*
X36885238Y5476905D01*
%TO.C,R2*%
X11882380Y14438334D02*
X11406190Y14105000D01*
X11882380Y13866905D02*
X10882380Y13866905D01*
X10882380Y14247858D01*
X10930000Y14343096D01*
X10977619Y14390715D01*
X11072857Y14438334D01*
X11215714Y14438334D01*
X11310952Y14390715D01*
X11358571Y14343096D01*
X11406190Y14247858D01*
X11406190Y13866905D01*
X10977619Y14819286D02*
X10930000Y14866905D01*
X10882380Y14962143D01*
X10882380Y15200239D01*
X10930000Y15295477D01*
X10977619Y15343096D01*
X11072857Y15390715D01*
X11168095Y15390715D01*
X11310952Y15343096D01*
X11882380Y14771667D01*
X11882380Y15390715D01*
%TO.C,R3*%
X13168333Y16057620D02*
X12835000Y16533810D01*
X12596904Y16057620D02*
X12596904Y17057620D01*
X12977857Y17057620D01*
X13073095Y17010000D01*
X13120714Y16962381D01*
X13168333Y16867143D01*
X13168333Y16724286D01*
X13120714Y16629048D01*
X13073095Y16581429D01*
X12977857Y16533810D01*
X12596904Y16533810D01*
X13501666Y17057620D02*
X14120714Y17057620D01*
X13787380Y16676667D01*
X13930238Y16676667D01*
X14025476Y16629048D01*
X14073095Y16581429D01*
X14120714Y16486191D01*
X14120714Y16248096D01*
X14073095Y16152858D01*
X14025476Y16105239D01*
X13930238Y16057620D01*
X13644523Y16057620D01*
X13549285Y16105239D01*
X13501666Y16152858D01*
%TO.C,U1*%
X18288095Y14942620D02*
X18288095Y14133096D01*
X18335714Y14037858D01*
X18383333Y13990239D01*
X18478571Y13942620D01*
X18669047Y13942620D01*
X18764285Y13990239D01*
X18811904Y14037858D01*
X18859523Y14133096D01*
X18859523Y14942620D01*
X19859523Y13942620D02*
X19288095Y13942620D01*
X19573809Y13942620D02*
X19573809Y14942620D01*
X19478571Y14799762D01*
X19383333Y14704524D01*
X19288095Y14656905D01*
%TD*%
%LPC*%
D14*
%TO.C,U2*%
X53340000Y2510000D03*
X53340000Y30510000D03*
D15*
X43180000Y19050000D03*
D16*
X43180000Y21590000D03*
X43180000Y24130000D03*
%TD*%
D17*
%TO.C,C1*%
X34925000Y19050000D03*
D18*
X34925000Y14050000D03*
%TD*%
%TO.C,C2*%
X27305000Y5715000D03*
X27305000Y10715000D03*
%TD*%
D13*
%TO.C,J1*%
G36*
X35015240Y7532820D02*
G01*
X35079357Y7523309D01*
X35142233Y7507559D01*
X35203262Y7485722D01*
X35261858Y7458009D01*
X35317454Y7424686D01*
X35369517Y7386073D01*
X35417544Y7342544D01*
X35461073Y7294517D01*
X35499686Y7242454D01*
X35533009Y7186858D01*
X35560722Y7128262D01*
X35582559Y7067233D01*
X35598309Y7004357D01*
X35607820Y6940240D01*
X35611000Y6875500D01*
X35611000Y4554500D01*
X35607820Y4489760D01*
X35598309Y4425643D01*
X35582559Y4362767D01*
X35560722Y4301738D01*
X35533009Y4243142D01*
X35499686Y4187546D01*
X35461073Y4135483D01*
X35417544Y4087456D01*
X35369517Y4043927D01*
X35317454Y4005314D01*
X35261858Y3971991D01*
X35203262Y3944278D01*
X35142233Y3922441D01*
X35079357Y3906691D01*
X35015240Y3897180D01*
X34950500Y3894000D01*
X33629500Y3894000D01*
X33564760Y3897180D01*
X33500643Y3906691D01*
X33437767Y3922441D01*
X33376738Y3944278D01*
X33318142Y3971991D01*
X33262546Y4005314D01*
X33210483Y4043927D01*
X33162456Y4087456D01*
X33118927Y4135483D01*
X33080314Y4187546D01*
X33046991Y4243142D01*
X33019278Y4301738D01*
X32997441Y4362767D01*
X32981691Y4425643D01*
X32972180Y4489760D01*
X32969000Y4554500D01*
X32969000Y6875500D01*
X32972180Y6940240D01*
X32981691Y7004357D01*
X32997441Y7067233D01*
X33019278Y7128262D01*
X33046991Y7186858D01*
X33080314Y7242454D01*
X33118927Y7294517D01*
X33162456Y7342544D01*
X33210483Y7386073D01*
X33262546Y7424686D01*
X33318142Y7458009D01*
X33376738Y7485722D01*
X33437767Y7507559D01*
X33500643Y7523309D01*
X33564760Y7532820D01*
X33629500Y7536000D01*
X34950500Y7536000D01*
X35015240Y7532820D01*
G37*
G36*
X40095240Y7532820D02*
G01*
X40159357Y7523309D01*
X40222233Y7507559D01*
X40283262Y7485722D01*
X40341858Y7458009D01*
X40397454Y7424686D01*
X40449517Y7386073D01*
X40497544Y7342544D01*
X40541073Y7294517D01*
X40579686Y7242454D01*
X40613009Y7186858D01*
X40640722Y7128262D01*
X40662559Y7067233D01*
X40678309Y7004357D01*
X40687820Y6940240D01*
X40691000Y6875500D01*
X40691000Y4554500D01*
X40687820Y4489760D01*
X40678309Y4425643D01*
X40662559Y4362767D01*
X40640722Y4301738D01*
X40613009Y4243142D01*
X40579686Y4187546D01*
X40541073Y4135483D01*
X40497544Y4087456D01*
X40449517Y4043927D01*
X40397454Y4005314D01*
X40341858Y3971991D01*
X40283262Y3944278D01*
X40222233Y3922441D01*
X40159357Y3906691D01*
X40095240Y3897180D01*
X40030500Y3894000D01*
X38709500Y3894000D01*
X38644760Y3897180D01*
X38580643Y3906691D01*
X38517767Y3922441D01*
X38456738Y3944278D01*
X38398142Y3971991D01*
X38342546Y4005314D01*
X38290483Y4043927D01*
X38242456Y4087456D01*
X38198927Y4135483D01*
X38160314Y4187546D01*
X38126991Y4243142D01*
X38099278Y4301738D01*
X38077441Y4362767D01*
X38061691Y4425643D01*
X38052180Y4489760D01*
X38049000Y4554500D01*
X38049000Y6875500D01*
X38052180Y6940240D01*
X38061691Y7004357D01*
X38077441Y7067233D01*
X38099278Y7128262D01*
X38126991Y7186858D01*
X38160314Y7242454D01*
X38198927Y7294517D01*
X38242456Y7342544D01*
X38290483Y7386073D01*
X38342546Y7424686D01*
X38398142Y7458009D01*
X38456738Y7485722D01*
X38517767Y7507559D01*
X38580643Y7523309D01*
X38644760Y7532820D01*
X38709500Y7536000D01*
X40030500Y7536000D01*
X40095240Y7532820D01*
G37*
%TD*%
D19*
%TO.C,R2*%
X11430000Y12065000D03*
D20*
X11430000Y4445000D03*
%TD*%
%TO.C,R3*%
X15240000Y16510000D03*
D19*
X22860000Y16510000D03*
%TD*%
D17*
%TO.C,U1*%
X15240000Y12065000D03*
D21*
X22860000Y4445000D03*
X15240000Y9525000D03*
X22860000Y6985000D03*
X15240000Y6985000D03*
X22860000Y9525000D03*
X15240000Y4445000D03*
X22860000Y12065000D03*
%TD*%
M02*
