%TF.GenerationSoftware,KiCad,Pcbnew,5.1.4-3.fc30*%
%TF.CreationDate,2019-10-13T17:18:47+02:00*%
%TF.ProjectId,keyboard_lab1,6b657962-6f61-4726-945f-6c6162312e6b,1.0*%
%TF.SameCoordinates,Original*%
%TF.FileFunction,Copper,L1,Top*%
%TF.FilePolarity,Positive*%
%FSLAX46Y46*%
G04 Gerber Fmt 4.6, Leading zero omitted, Abs format (unit mm)*
G04 Created by KiCad (PCBNEW 5.1.4-3.fc30) date 2019-10-13 17:18:47*
%MOMM*%
%LPD*%
G04 APERTURE LIST*
%TA.AperFunction,ComponentPad*%
%ADD10C,1.524000*%
%TD*%
%TA.AperFunction,ComponentPad*%
%ADD11R,1.524000X1.524000*%
%TD*%
%TA.AperFunction,ComponentPad*%
%ADD12C,2.000000*%
%TD*%
G04 APERTURE END LIST*
D10*
%TO.P,J1,9*%
%TO.N,Net-(J1-Pad9)*%
X141242000Y-119393000D03*
%TO.P,J1,8*%
%TO.N,Net-(J1-Pad8)*%
X136162000Y-119393000D03*
%TO.P,J1,7*%
%TO.N,Net-(J1-Pad7)*%
X133622000Y-119393000D03*
%TO.P,J1,6*%
%TO.N,Net-(J1-Pad6)*%
X131082000Y-119393000D03*
%TO.P,J1,5*%
%TO.N,Net-(J1-Pad5)*%
X128542000Y-119393000D03*
%TO.P,J1,4*%
%TO.N,Net-(J1-Pad4)*%
X126002000Y-119393000D03*
%TO.P,J1,3*%
%TO.N,Net-(J1-Pad3)*%
X123462000Y-119393000D03*
%TO.P,J1,2*%
%TO.N,Net-(J1-Pad2)*%
X120922000Y-119393000D03*
D11*
%TO.P,J1,1*%
%TO.N,Net-(J1-Pad1)*%
X118382000Y-119393000D03*
%TD*%
D12*
%TO.P,SW1,2*%
%TO.N,Net-(J1-Pad5)*%
X127323000Y-96314600D03*
%TO.P,SW1,1*%
%TO.N,Net-(J1-Pad9)*%
X127323000Y-91814600D03*
%TO.P,SW1,2*%
%TO.N,Net-(J1-Pad5)*%
X133823000Y-96314600D03*
%TO.P,SW1,1*%
%TO.N,Net-(J1-Pad9)*%
X133823000Y-91814600D03*
%TD*%
%TO.P,SW2,1*%
%TO.N,Net-(J1-Pad9)*%
X145479000Y-91814600D03*
%TO.P,SW2,2*%
%TO.N,Net-(J1-Pad6)*%
X145479000Y-96314600D03*
%TO.P,SW2,1*%
%TO.N,Net-(J1-Pad9)*%
X138979000Y-91814600D03*
%TO.P,SW2,2*%
%TO.N,Net-(J1-Pad6)*%
X138979000Y-96314600D03*
%TD*%
%TO.P,SW3,2*%
%TO.N,Net-(J1-Pad7)*%
X150636000Y-96314600D03*
%TO.P,SW3,1*%
%TO.N,Net-(J1-Pad9)*%
X150636000Y-91814600D03*
%TO.P,SW3,2*%
%TO.N,Net-(J1-Pad7)*%
X157136000Y-96314600D03*
%TO.P,SW3,1*%
%TO.N,Net-(J1-Pad9)*%
X157136000Y-91814600D03*
%TD*%
%TO.P,SW4,1*%
%TO.N,Net-(J1-Pad9)*%
X168793000Y-91814600D03*
%TO.P,SW4,2*%
%TO.N,Net-(J1-Pad8)*%
X168793000Y-96314600D03*
%TO.P,SW4,1*%
%TO.N,Net-(J1-Pad9)*%
X162293000Y-91814600D03*
%TO.P,SW4,2*%
%TO.N,Net-(J1-Pad8)*%
X162293000Y-96314600D03*
%TD*%
%TO.P,SW5,2*%
%TO.N,Net-(J1-Pad1)*%
X80701000Y-96314600D03*
%TO.P,SW5,1*%
%TO.N,Net-(J1-Pad9)*%
X80701000Y-91814600D03*
%TO.P,SW5,2*%
%TO.N,Net-(J1-Pad1)*%
X87201000Y-96314600D03*
%TO.P,SW5,1*%
%TO.N,Net-(J1-Pad9)*%
X87201000Y-91814600D03*
%TD*%
%TO.P,SW6,1*%
%TO.N,Net-(J1-Pad9)*%
X111526000Y-91814600D03*
%TO.P,SW6,2*%
%TO.N,Net-(J1-Pad2)*%
X111526000Y-96314600D03*
%TO.P,SW6,1*%
%TO.N,Net-(J1-Pad9)*%
X105026000Y-91814600D03*
%TO.P,SW6,2*%
%TO.N,Net-(J1-Pad2)*%
X105026000Y-96314600D03*
%TD*%
%TO.P,SW7,2*%
%TO.N,Net-(J1-Pad3)*%
X92864000Y-84972300D03*
%TO.P,SW7,1*%
%TO.N,Net-(J1-Pad9)*%
X92864000Y-80472300D03*
%TO.P,SW7,2*%
%TO.N,Net-(J1-Pad3)*%
X99364000Y-84972300D03*
%TO.P,SW7,1*%
%TO.N,Net-(J1-Pad9)*%
X99364000Y-80472300D03*
%TD*%
%TO.P,SW8,1*%
%TO.N,Net-(J1-Pad9)*%
X99364000Y-103157000D03*
%TO.P,SW8,2*%
%TO.N,Net-(J1-Pad4)*%
X99364000Y-107657000D03*
%TO.P,SW8,1*%
%TO.N,Net-(J1-Pad9)*%
X92864000Y-103157000D03*
%TO.P,SW8,2*%
%TO.N,Net-(J1-Pad4)*%
X92864000Y-107657000D03*
%TD*%
M02*
