%TF.GenerationSoftware,KiCad,Pcbnew,5.1.4-3.fc30*%
%TF.CreationDate,2019-10-13T17:18:47+02:00*%
%TF.ProjectId,keyboard_lab1,6b657962-6f61-4726-945f-6c6162312e6b,1.0*%
%TF.SameCoordinates,Original*%
%TF.FileFunction,Drawing*%
%FSLAX46Y46*%
G04 Gerber Fmt 4.6, Leading zero omitted, Abs format (unit mm)*
G04 Created by KiCad (PCBNEW 5.1.4-3.fc30) date 2019-10-13 17:18:47*
%MOMM*%
%LPD*%
G04 APERTURE LIST*
%ADD10C,0.400000*%
%ADD11C,0.150000*%
%ADD12C,0.500000*%
G04 APERTURE END LIST*
D10*
X83190952Y-119745238D02*
X83286190Y-119650000D01*
X83476666Y-119554761D01*
X83952857Y-119554761D01*
X84143333Y-119650000D01*
X84238571Y-119745238D01*
X84333809Y-119935714D01*
X84333809Y-120126190D01*
X84238571Y-120411904D01*
X83095714Y-121554761D01*
X84333809Y-121554761D01*
X85571904Y-119554761D02*
X85762380Y-119554761D01*
X85952857Y-119650000D01*
X86048095Y-119745238D01*
X86143333Y-119935714D01*
X86238571Y-120316666D01*
X86238571Y-120792857D01*
X86143333Y-121173809D01*
X86048095Y-121364285D01*
X85952857Y-121459523D01*
X85762380Y-121554761D01*
X85571904Y-121554761D01*
X85381428Y-121459523D01*
X85286190Y-121364285D01*
X85190952Y-121173809D01*
X85095714Y-120792857D01*
X85095714Y-120316666D01*
X85190952Y-119935714D01*
X85286190Y-119745238D01*
X85381428Y-119650000D01*
X85571904Y-119554761D01*
X88143333Y-121554761D02*
X87000476Y-121554761D01*
X87571904Y-121554761D02*
X87571904Y-119554761D01*
X87381428Y-119840476D01*
X87190952Y-120030952D01*
X87000476Y-120126190D01*
X89095714Y-121554761D02*
X89476666Y-121554761D01*
X89667142Y-121459523D01*
X89762380Y-121364285D01*
X89952857Y-121078571D01*
X90048095Y-120697619D01*
X90048095Y-119935714D01*
X89952857Y-119745238D01*
X89857619Y-119650000D01*
X89667142Y-119554761D01*
X89286190Y-119554761D01*
X89095714Y-119650000D01*
X89000476Y-119745238D01*
X88905238Y-119935714D01*
X88905238Y-120411904D01*
X89000476Y-120602380D01*
X89095714Y-120697619D01*
X89286190Y-120792857D01*
X89667142Y-120792857D01*
X89857619Y-120697619D01*
X89952857Y-120602380D01*
X90048095Y-120411904D01*
X154215714Y-79151428D02*
X154691904Y-80484761D01*
X155168095Y-79151428D01*
X156977619Y-80484761D02*
X155834761Y-80484761D01*
X156406190Y-80484761D02*
X156406190Y-78484761D01*
X156215714Y-78770476D01*
X156025238Y-78960952D01*
X155834761Y-79056190D01*
X157834761Y-80294285D02*
X157930000Y-80389523D01*
X157834761Y-80484761D01*
X157739523Y-80389523D01*
X157834761Y-80294285D01*
X157834761Y-80484761D01*
X159168095Y-78484761D02*
X159358571Y-78484761D01*
X159549047Y-78580000D01*
X159644285Y-78675238D01*
X159739523Y-78865714D01*
X159834761Y-79246666D01*
X159834761Y-79722857D01*
X159739523Y-80103809D01*
X159644285Y-80294285D01*
X159549047Y-80389523D01*
X159358571Y-80484761D01*
X159168095Y-80484761D01*
X158977619Y-80389523D01*
X158882380Y-80294285D01*
X158787142Y-80103809D01*
X158691904Y-79722857D01*
X158691904Y-79246666D01*
X158787142Y-78865714D01*
X158882380Y-78675238D01*
X158977619Y-78580000D01*
X159168095Y-78484761D01*
X155453809Y-81980000D02*
X155263333Y-81884761D01*
X154977619Y-81884761D01*
X154691904Y-81980000D01*
X154501428Y-82170476D01*
X154406190Y-82360952D01*
X154310952Y-82741904D01*
X154310952Y-83027619D01*
X154406190Y-83408571D01*
X154501428Y-83599047D01*
X154691904Y-83789523D01*
X154977619Y-83884761D01*
X155168095Y-83884761D01*
X155453809Y-83789523D01*
X155549047Y-83694285D01*
X155549047Y-83027619D01*
X155168095Y-83027619D01*
X156406190Y-83884761D02*
X156406190Y-81884761D01*
X157549047Y-83884761D01*
X157549047Y-81884761D01*
X158501428Y-81884761D02*
X158501428Y-83503809D01*
X158596666Y-83694285D01*
X158691904Y-83789523D01*
X158882380Y-83884761D01*
X159263333Y-83884761D01*
X159453809Y-83789523D01*
X159549047Y-83694285D01*
X159644285Y-83503809D01*
X159644285Y-81884761D01*
X163168095Y-81980000D02*
X162977619Y-81884761D01*
X162691904Y-81884761D01*
X162406190Y-81980000D01*
X162215714Y-82170476D01*
X162120476Y-82360952D01*
X162025238Y-82741904D01*
X162025238Y-83027619D01*
X162120476Y-83408571D01*
X162215714Y-83599047D01*
X162406190Y-83789523D01*
X162691904Y-83884761D01*
X162882380Y-83884761D01*
X163168095Y-83789523D01*
X163263333Y-83694285D01*
X163263333Y-83027619D01*
X162882380Y-83027619D01*
X164120476Y-83884761D02*
X164120476Y-81884761D01*
X164882380Y-81884761D01*
X165072857Y-81980000D01*
X165168095Y-82075238D01*
X165263333Y-82265714D01*
X165263333Y-82551428D01*
X165168095Y-82741904D01*
X165072857Y-82837142D01*
X164882380Y-82932380D01*
X164120476Y-82932380D01*
X167072857Y-83884761D02*
X166120476Y-83884761D01*
X166120476Y-81884761D01*
X167549047Y-82551428D02*
X168025238Y-83884761D01*
X168501428Y-82551428D01*
X169072857Y-81884761D02*
X170310952Y-81884761D01*
X169644285Y-82646666D01*
X169930000Y-82646666D01*
X170120476Y-82741904D01*
X170215714Y-82837142D01*
X170310952Y-83027619D01*
X170310952Y-83503809D01*
X170215714Y-83694285D01*
X170120476Y-83789523D01*
X169930000Y-83884761D01*
X169358571Y-83884761D01*
X169168095Y-83789523D01*
X169072857Y-83694285D01*
D11*
X181092380Y-105219047D02*
X181092380Y-105695238D01*
X181568571Y-105742857D01*
X181520952Y-105695238D01*
X181473333Y-105600000D01*
X181473333Y-105361904D01*
X181520952Y-105266666D01*
X181568571Y-105219047D01*
X181663809Y-105171428D01*
X181901904Y-105171428D01*
X181997142Y-105219047D01*
X182044761Y-105266666D01*
X182092380Y-105361904D01*
X182092380Y-105600000D01*
X182044761Y-105695238D01*
X181997142Y-105742857D01*
X181092380Y-104552380D02*
X181092380Y-104457142D01*
X181140000Y-104361904D01*
X181187619Y-104314285D01*
X181282857Y-104266666D01*
X181473333Y-104219047D01*
X181711428Y-104219047D01*
X181901904Y-104266666D01*
X181997142Y-104314285D01*
X182044761Y-104361904D01*
X182092380Y-104457142D01*
X182092380Y-104552380D01*
X182044761Y-104647619D01*
X181997142Y-104695238D01*
X181901904Y-104742857D01*
X181711428Y-104790476D01*
X181473333Y-104790476D01*
X181282857Y-104742857D01*
X181187619Y-104695238D01*
X181140000Y-104647619D01*
X181092380Y-104552380D01*
X182044761Y-103742857D02*
X182092380Y-103742857D01*
X182187619Y-103790476D01*
X182235238Y-103838095D01*
X181520952Y-103171428D02*
X181473333Y-103266666D01*
X181425714Y-103314285D01*
X181330476Y-103361904D01*
X181282857Y-103361904D01*
X181187619Y-103314285D01*
X181140000Y-103266666D01*
X181092380Y-103171428D01*
X181092380Y-102980952D01*
X181140000Y-102885714D01*
X181187619Y-102838095D01*
X181282857Y-102790476D01*
X181330476Y-102790476D01*
X181425714Y-102838095D01*
X181473333Y-102885714D01*
X181520952Y-102980952D01*
X181520952Y-103171428D01*
X181568571Y-103266666D01*
X181616190Y-103314285D01*
X181711428Y-103361904D01*
X181901904Y-103361904D01*
X181997142Y-103314285D01*
X182044761Y-103266666D01*
X182092380Y-103171428D01*
X182092380Y-102980952D01*
X182044761Y-102885714D01*
X181997142Y-102838095D01*
X181901904Y-102790476D01*
X181711428Y-102790476D01*
X181616190Y-102838095D01*
X181568571Y-102885714D01*
X181520952Y-102980952D01*
X181092380Y-102171428D02*
X181092380Y-102076190D01*
X181140000Y-101980952D01*
X181187619Y-101933333D01*
X181282857Y-101885714D01*
X181473333Y-101838095D01*
X181711428Y-101838095D01*
X181901904Y-101885714D01*
X181997142Y-101933333D01*
X182044761Y-101980952D01*
X182092380Y-102076190D01*
X182092380Y-102171428D01*
X182044761Y-102266666D01*
X181997142Y-102314285D01*
X181901904Y-102361904D01*
X181711428Y-102409523D01*
X181473333Y-102409523D01*
X181282857Y-102361904D01*
X181187619Y-102314285D01*
X181140000Y-102266666D01*
X181092380Y-102171428D01*
X181092380Y-101219047D02*
X181092380Y-101123809D01*
X181140000Y-101028571D01*
X181187619Y-100980952D01*
X181282857Y-100933333D01*
X181473333Y-100885714D01*
X181711428Y-100885714D01*
X181901904Y-100933333D01*
X181997142Y-100980952D01*
X182044761Y-101028571D01*
X182092380Y-101123809D01*
X182092380Y-101219047D01*
X182044761Y-101314285D01*
X181997142Y-101361904D01*
X181901904Y-101409523D01*
X181711428Y-101457142D01*
X181473333Y-101457142D01*
X181282857Y-101409523D01*
X181187619Y-101361904D01*
X181140000Y-101314285D01*
X181092380Y-101219047D01*
X182092380Y-99695238D02*
X181425714Y-99695238D01*
X181520952Y-99695238D02*
X181473333Y-99647619D01*
X181425714Y-99552380D01*
X181425714Y-99409523D01*
X181473333Y-99314285D01*
X181568571Y-99266666D01*
X182092380Y-99266666D01*
X181568571Y-99266666D02*
X181473333Y-99219047D01*
X181425714Y-99123809D01*
X181425714Y-98980952D01*
X181473333Y-98885714D01*
X181568571Y-98838095D01*
X182092380Y-98838095D01*
X182092380Y-98361904D02*
X181425714Y-98361904D01*
X181520952Y-98361904D02*
X181473333Y-98314285D01*
X181425714Y-98219047D01*
X181425714Y-98076190D01*
X181473333Y-97980952D01*
X181568571Y-97933333D01*
X182092380Y-97933333D01*
X181568571Y-97933333D02*
X181473333Y-97885714D01*
X181425714Y-97790476D01*
X181425714Y-97647619D01*
X181473333Y-97552380D01*
X181568571Y-97504761D01*
X182092380Y-97504761D01*
X180340000Y-127000000D02*
X180340000Y-76200000D01*
X172720000Y-127000000D02*
X180926421Y-127000000D01*
X172720000Y-76200000D02*
X180926421Y-76200000D01*
X180340000Y-76200000D02*
X180926421Y-77326504D01*
X180340000Y-76200000D02*
X179753579Y-77326504D01*
X180340000Y-127000000D02*
X180926421Y-125873496D01*
X180340000Y-127000000D02*
X179753579Y-125873496D01*
X120412380Y-133832380D02*
X120602857Y-133832380D01*
X120698095Y-133784761D01*
X120745714Y-133737142D01*
X120840952Y-133594285D01*
X120888571Y-133403809D01*
X120888571Y-133022857D01*
X120840952Y-132927619D01*
X120793333Y-132880000D01*
X120698095Y-132832380D01*
X120507619Y-132832380D01*
X120412380Y-132880000D01*
X120364761Y-132927619D01*
X120317142Y-133022857D01*
X120317142Y-133260952D01*
X120364761Y-133356190D01*
X120412380Y-133403809D01*
X120507619Y-133451428D01*
X120698095Y-133451428D01*
X120793333Y-133403809D01*
X120840952Y-133356190D01*
X120888571Y-133260952D01*
X121745714Y-132832380D02*
X121555238Y-132832380D01*
X121460000Y-132880000D01*
X121412380Y-132927619D01*
X121317142Y-133070476D01*
X121269523Y-133260952D01*
X121269523Y-133641904D01*
X121317142Y-133737142D01*
X121364761Y-133784761D01*
X121460000Y-133832380D01*
X121650476Y-133832380D01*
X121745714Y-133784761D01*
X121793333Y-133737142D01*
X121840952Y-133641904D01*
X121840952Y-133403809D01*
X121793333Y-133308571D01*
X121745714Y-133260952D01*
X121650476Y-133213333D01*
X121460000Y-133213333D01*
X121364761Y-133260952D01*
X121317142Y-133308571D01*
X121269523Y-133403809D01*
X122317142Y-133784761D02*
X122317142Y-133832380D01*
X122269523Y-133927619D01*
X122221904Y-133975238D01*
X123221904Y-132832380D02*
X122745714Y-132832380D01*
X122698095Y-133308571D01*
X122745714Y-133260952D01*
X122840952Y-133213333D01*
X123079047Y-133213333D01*
X123174285Y-133260952D01*
X123221904Y-133308571D01*
X123269523Y-133403809D01*
X123269523Y-133641904D01*
X123221904Y-133737142D01*
X123174285Y-133784761D01*
X123079047Y-133832380D01*
X122840952Y-133832380D01*
X122745714Y-133784761D01*
X122698095Y-133737142D01*
X123650476Y-132927619D02*
X123698095Y-132880000D01*
X123793333Y-132832380D01*
X124031428Y-132832380D01*
X124126666Y-132880000D01*
X124174285Y-132927619D01*
X124221904Y-133022857D01*
X124221904Y-133118095D01*
X124174285Y-133260952D01*
X123602857Y-133832380D01*
X124221904Y-133832380D01*
X124840952Y-132832380D02*
X124936190Y-132832380D01*
X125031428Y-132880000D01*
X125079047Y-132927619D01*
X125126666Y-133022857D01*
X125174285Y-133213333D01*
X125174285Y-133451428D01*
X125126666Y-133641904D01*
X125079047Y-133737142D01*
X125031428Y-133784761D01*
X124936190Y-133832380D01*
X124840952Y-133832380D01*
X124745714Y-133784761D01*
X124698095Y-133737142D01*
X124650476Y-133641904D01*
X124602857Y-133451428D01*
X124602857Y-133213333D01*
X124650476Y-133022857D01*
X124698095Y-132927619D01*
X124745714Y-132880000D01*
X124840952Y-132832380D01*
X126364761Y-133832380D02*
X126364761Y-133165714D01*
X126364761Y-133260952D02*
X126412380Y-133213333D01*
X126507619Y-133165714D01*
X126650476Y-133165714D01*
X126745714Y-133213333D01*
X126793333Y-133308571D01*
X126793333Y-133832380D01*
X126793333Y-133308571D02*
X126840952Y-133213333D01*
X126936190Y-133165714D01*
X127079047Y-133165714D01*
X127174285Y-133213333D01*
X127221904Y-133308571D01*
X127221904Y-133832380D01*
X127698095Y-133832380D02*
X127698095Y-133165714D01*
X127698095Y-133260952D02*
X127745714Y-133213333D01*
X127840952Y-133165714D01*
X127983809Y-133165714D01*
X128079047Y-133213333D01*
X128126666Y-133308571D01*
X128126666Y-133832380D01*
X128126666Y-133308571D02*
X128174285Y-133213333D01*
X128269523Y-133165714D01*
X128412380Y-133165714D01*
X128507619Y-133213333D01*
X128555238Y-133308571D01*
X128555238Y-133832380D01*
X76200000Y-132080000D02*
X172720000Y-132080000D01*
X76200000Y-127000000D02*
X76200000Y-132666421D01*
X172720000Y-127000000D02*
X172720000Y-132666421D01*
X172720000Y-132080000D02*
X171593496Y-132666421D01*
X172720000Y-132080000D02*
X171593496Y-131493579D01*
X76200000Y-132080000D02*
X77326504Y-132666421D01*
X76200000Y-132080000D02*
X77326504Y-131493579D01*
D12*
X147261904Y-117115952D02*
X147261904Y-114615952D01*
X148690476Y-117115952D02*
X147619047Y-115687380D01*
X148690476Y-114615952D02*
X147261904Y-116044523D01*
X150714285Y-116996904D02*
X150476190Y-117115952D01*
X150000000Y-117115952D01*
X149761904Y-116996904D01*
X149642857Y-116758809D01*
X149642857Y-115806428D01*
X149761904Y-115568333D01*
X150000000Y-115449285D01*
X150476190Y-115449285D01*
X150714285Y-115568333D01*
X150833333Y-115806428D01*
X150833333Y-116044523D01*
X149642857Y-116282619D01*
X151666666Y-115449285D02*
X152261904Y-117115952D01*
X152857142Y-115449285D02*
X152261904Y-117115952D01*
X152023809Y-117711190D01*
X151904761Y-117830238D01*
X151666666Y-117949285D01*
X153809523Y-115449285D02*
X153809523Y-117949285D01*
X153809523Y-115568333D02*
X154047619Y-115449285D01*
X154523809Y-115449285D01*
X154761904Y-115568333D01*
X154880952Y-115687380D01*
X155000000Y-115925476D01*
X155000000Y-116639761D01*
X154880952Y-116877857D01*
X154761904Y-116996904D01*
X154523809Y-117115952D01*
X154047619Y-117115952D01*
X153809523Y-116996904D01*
X157142857Y-117115952D02*
X157142857Y-115806428D01*
X157023809Y-115568333D01*
X156785714Y-115449285D01*
X156309523Y-115449285D01*
X156071428Y-115568333D01*
X157142857Y-116996904D02*
X156904761Y-117115952D01*
X156309523Y-117115952D01*
X156071428Y-116996904D01*
X155952380Y-116758809D01*
X155952380Y-116520714D01*
X156071428Y-116282619D01*
X156309523Y-116163571D01*
X156904761Y-116163571D01*
X157142857Y-116044523D01*
X159404761Y-117115952D02*
X159404761Y-114615952D01*
X159404761Y-116996904D02*
X159166666Y-117115952D01*
X158690476Y-117115952D01*
X158452380Y-116996904D01*
X158333333Y-116877857D01*
X158214285Y-116639761D01*
X158214285Y-115925476D01*
X158333333Y-115687380D01*
X158452380Y-115568333D01*
X158690476Y-115449285D01*
X159166666Y-115449285D01*
X159404761Y-115568333D01*
X163690476Y-117115952D02*
X162500000Y-117115952D01*
X162500000Y-114615952D01*
X165595238Y-117115952D02*
X165595238Y-115806428D01*
X165476190Y-115568333D01*
X165238095Y-115449285D01*
X164761904Y-115449285D01*
X164523809Y-115568333D01*
X165595238Y-116996904D02*
X165357142Y-117115952D01*
X164761904Y-117115952D01*
X164523809Y-116996904D01*
X164404761Y-116758809D01*
X164404761Y-116520714D01*
X164523809Y-116282619D01*
X164761904Y-116163571D01*
X165357142Y-116163571D01*
X165595238Y-116044523D01*
X166785714Y-117115952D02*
X166785714Y-114615952D01*
X166785714Y-115568333D02*
X167023809Y-115449285D01*
X167500000Y-115449285D01*
X167738095Y-115568333D01*
X167857142Y-115687380D01*
X167976190Y-115925476D01*
X167976190Y-116639761D01*
X167857142Y-116877857D01*
X167738095Y-116996904D01*
X167500000Y-117115952D01*
X167023809Y-117115952D01*
X166785714Y-116996904D01*
X170357142Y-117115952D02*
X168928571Y-117115952D01*
X169642857Y-117115952D02*
X169642857Y-114615952D01*
X169404761Y-114973095D01*
X169166666Y-115211190D01*
X168928571Y-115330238D01*
X149047619Y-121365952D02*
X149047619Y-118865952D01*
X149047619Y-119818333D02*
X149285714Y-119699285D01*
X149761904Y-119699285D01*
X150000000Y-119818333D01*
X150119047Y-119937380D01*
X150238095Y-120175476D01*
X150238095Y-120889761D01*
X150119047Y-121127857D01*
X150000000Y-121246904D01*
X149761904Y-121365952D01*
X149285714Y-121365952D01*
X149047619Y-121246904D01*
X151071428Y-119699285D02*
X151666666Y-121365952D01*
X152261904Y-119699285D02*
X151666666Y-121365952D01*
X151428571Y-121961190D01*
X151309523Y-122080238D01*
X151071428Y-122199285D01*
X155000000Y-121246904D02*
X155357142Y-121365952D01*
X155952380Y-121365952D01*
X156190476Y-121246904D01*
X156309523Y-121127857D01*
X156428571Y-120889761D01*
X156428571Y-120651666D01*
X156309523Y-120413571D01*
X156190476Y-120294523D01*
X155952380Y-120175476D01*
X155476190Y-120056428D01*
X155238095Y-119937380D01*
X155119047Y-119818333D01*
X155000000Y-119580238D01*
X155000000Y-119342142D01*
X155119047Y-119104047D01*
X155238095Y-118985000D01*
X155476190Y-118865952D01*
X156071428Y-118865952D01*
X156428571Y-118985000D01*
X159166666Y-121604047D02*
X158928571Y-121485000D01*
X158690476Y-121246904D01*
X158333333Y-120889761D01*
X158095238Y-120770714D01*
X157857142Y-120770714D01*
X157976190Y-121365952D02*
X157738095Y-121246904D01*
X157500000Y-121008809D01*
X157380952Y-120532619D01*
X157380952Y-119699285D01*
X157500000Y-119223095D01*
X157738095Y-118985000D01*
X157976190Y-118865952D01*
X158452380Y-118865952D01*
X158690476Y-118985000D01*
X158928571Y-119223095D01*
X159047619Y-119699285D01*
X159047619Y-120532619D01*
X158928571Y-121008809D01*
X158690476Y-121246904D01*
X158452380Y-121365952D01*
X157976190Y-121365952D01*
X159880952Y-118865952D02*
X161547619Y-118865952D01*
X160476190Y-121365952D01*
X162500000Y-120056428D02*
X163333333Y-120056428D01*
X163690476Y-121365952D02*
X162500000Y-121365952D01*
X162500000Y-118865952D01*
X163690476Y-118865952D01*
X166428571Y-121604047D02*
X166190476Y-121485000D01*
X165952380Y-121246904D01*
X165595238Y-120889761D01*
X165357142Y-120770714D01*
X165119047Y-120770714D01*
X165238095Y-121365952D02*
X165000000Y-121246904D01*
X164761904Y-121008809D01*
X164642857Y-120532619D01*
X164642857Y-119699285D01*
X164761904Y-119223095D01*
X165000000Y-118985000D01*
X165238095Y-118865952D01*
X165714285Y-118865952D01*
X165952380Y-118985000D01*
X166190476Y-119223095D01*
X166309523Y-119699285D01*
X166309523Y-120532619D01*
X166190476Y-121008809D01*
X165952380Y-121246904D01*
X165714285Y-121365952D01*
X165238095Y-121365952D01*
X167380952Y-120056428D02*
X168214285Y-120056428D01*
X168571428Y-121365952D02*
X167380952Y-121365952D01*
X167380952Y-118865952D01*
X168571428Y-118865952D01*
M02*
