G04 #@! TF.GenerationSoftware,KiCad,Pcbnew,5.1.4-3.fc30*
G04 #@! TF.CreationDate,2019-09-22T10:18:06+02:00*
G04 #@! TF.ProjectId,keyboard_lab1,6b657962-6f61-4726-945f-6c6162312e6b,1.0*
G04 #@! TF.SameCoordinates,Original*
G04 #@! TF.FileFunction,Drawing*
%FSLAX46Y46*%
G04 Gerber Fmt 4.6, Leading zero omitted, Abs format (unit mm)*
G04 Created by KiCad (PCBNEW 5.1.4-3.fc30) date 2019-09-22 10:18:06*
%MOMM*%
%LPD*%
G04 APERTURE LIST*
%ADD10C,0.400000*%
%ADD11C,0.150000*%
%ADD12C,0.500000*%
G04 APERTURE END LIST*
D10*
X83190952Y-119745238D02*
X83286190Y-119650000D01*
X83476666Y-119554761D01*
X83952857Y-119554761D01*
X84143333Y-119650000D01*
X84238571Y-119745238D01*
X84333809Y-119935714D01*
X84333809Y-120126190D01*
X84238571Y-120411904D01*
X83095714Y-121554761D01*
X84333809Y-121554761D01*
X85571904Y-119554761D02*
X85762380Y-119554761D01*
X85952857Y-119650000D01*
X86048095Y-119745238D01*
X86143333Y-119935714D01*
X86238571Y-120316666D01*
X86238571Y-120792857D01*
X86143333Y-121173809D01*
X86048095Y-121364285D01*
X85952857Y-121459523D01*
X85762380Y-121554761D01*
X85571904Y-121554761D01*
X85381428Y-121459523D01*
X85286190Y-121364285D01*
X85190952Y-121173809D01*
X85095714Y-120792857D01*
X85095714Y-120316666D01*
X85190952Y-119935714D01*
X85286190Y-119745238D01*
X85381428Y-119650000D01*
X85571904Y-119554761D01*
X88143333Y-121554761D02*
X87000476Y-121554761D01*
X87571904Y-121554761D02*
X87571904Y-119554761D01*
X87381428Y-119840476D01*
X87190952Y-120030952D01*
X87000476Y-120126190D01*
X89095714Y-121554761D02*
X89476666Y-121554761D01*
X89667142Y-121459523D01*
X89762380Y-121364285D01*
X89952857Y-121078571D01*
X90048095Y-120697619D01*
X90048095Y-119935714D01*
X89952857Y-119745238D01*
X89857619Y-119650000D01*
X89667142Y-119554761D01*
X89286190Y-119554761D01*
X89095714Y-119650000D01*
X89000476Y-119745238D01*
X88905238Y-119935714D01*
X88905238Y-120411904D01*
X89000476Y-120602380D01*
X89095714Y-120697619D01*
X89286190Y-120792857D01*
X89667142Y-120792857D01*
X89857619Y-120697619D01*
X89952857Y-120602380D01*
X90048095Y-120411904D01*
X154215714Y-79151428D02*
X154691904Y-80484761D01*
X155168095Y-79151428D01*
X156977619Y-80484761D02*
X155834761Y-80484761D01*
X156406190Y-80484761D02*
X156406190Y-78484761D01*
X156215714Y-78770476D01*
X156025238Y-78960952D01*
X155834761Y-79056190D01*
X157834761Y-80294285D02*
X157930000Y-80389523D01*
X157834761Y-80484761D01*
X157739523Y-80389523D01*
X157834761Y-80294285D01*
X157834761Y-80484761D01*
X159168095Y-78484761D02*
X159358571Y-78484761D01*
X159549047Y-78580000D01*
X159644285Y-78675238D01*
X159739523Y-78865714D01*
X159834761Y-79246666D01*
X159834761Y-79722857D01*
X159739523Y-80103809D01*
X159644285Y-80294285D01*
X159549047Y-80389523D01*
X159358571Y-80484761D01*
X159168095Y-80484761D01*
X158977619Y-80389523D01*
X158882380Y-80294285D01*
X158787142Y-80103809D01*
X158691904Y-79722857D01*
X158691904Y-79246666D01*
X158787142Y-78865714D01*
X158882380Y-78675238D01*
X158977619Y-78580000D01*
X159168095Y-78484761D01*
X155453809Y-81980000D02*
X155263333Y-81884761D01*
X154977619Y-81884761D01*
X154691904Y-81980000D01*
X154501428Y-82170476D01*
X154406190Y-82360952D01*
X154310952Y-82741904D01*
X154310952Y-83027619D01*
X154406190Y-83408571D01*
X154501428Y-83599047D01*
X154691904Y-83789523D01*
X154977619Y-83884761D01*
X155168095Y-83884761D01*
X155453809Y-83789523D01*
X155549047Y-83694285D01*
X155549047Y-83027619D01*
X155168095Y-83027619D01*
X156406190Y-83884761D02*
X156406190Y-81884761D01*
X157549047Y-83884761D01*
X157549047Y-81884761D01*
X158501428Y-81884761D02*
X158501428Y-83503809D01*
X158596666Y-83694285D01*
X158691904Y-83789523D01*
X158882380Y-83884761D01*
X159263333Y-83884761D01*
X159453809Y-83789523D01*
X159549047Y-83694285D01*
X159644285Y-83503809D01*
X159644285Y-81884761D01*
X163168095Y-81980000D02*
X162977619Y-81884761D01*
X162691904Y-81884761D01*
X162406190Y-81980000D01*
X162215714Y-82170476D01*
X162120476Y-82360952D01*
X162025238Y-82741904D01*
X162025238Y-83027619D01*
X162120476Y-83408571D01*
X162215714Y-83599047D01*
X162406190Y-83789523D01*
X162691904Y-83884761D01*
X162882380Y-83884761D01*
X163168095Y-83789523D01*
X163263333Y-83694285D01*
X163263333Y-83027619D01*
X162882380Y-83027619D01*
X164120476Y-83884761D02*
X164120476Y-81884761D01*
X164882380Y-81884761D01*
X165072857Y-81980000D01*
X165168095Y-82075238D01*
X165263333Y-82265714D01*
X165263333Y-82551428D01*
X165168095Y-82741904D01*
X165072857Y-82837142D01*
X164882380Y-82932380D01*
X164120476Y-82932380D01*
X167072857Y-83884761D02*
X166120476Y-83884761D01*
X166120476Y-81884761D01*
X167549047Y-82551428D02*
X168025238Y-83884761D01*
X168501428Y-82551428D01*
X169072857Y-81884761D02*
X170310952Y-81884761D01*
X169644285Y-82646666D01*
X169930000Y-82646666D01*
X170120476Y-82741904D01*
X170215714Y-82837142D01*
X170310952Y-83027619D01*
X170310952Y-83503809D01*
X170215714Y-83694285D01*
X170120476Y-83789523D01*
X169930000Y-83884761D01*
X169358571Y-83884761D01*
X169168095Y-83789523D01*
X169072857Y-83694285D01*
D11*
X181092380Y-105219047D02*
X181092380Y-105695238D01*
X181568571Y-105742857D01*
X181520952Y-105695238D01*
X181473333Y-105600000D01*
X181473333Y-105361904D01*
X181520952Y-105266666D01*
X181568571Y-105219047D01*
X181663809Y-105171428D01*
X181901904Y-105171428D01*
X181997142Y-105219047D01*
X182044761Y-105266666D01*
X182092380Y-105361904D01*
X182092380Y-105600000D01*
X182044761Y-105695238D01*
X181997142Y-105742857D01*
X181092380Y-104552380D02*
X181092380Y-104457142D01*
X181140000Y-104361904D01*
X181187619Y-104314285D01*
X181282857Y-104266666D01*
X181473333Y-104219047D01*
X181711428Y-104219047D01*
X181901904Y-104266666D01*
X181997142Y-104314285D01*
X182044761Y-104361904D01*
X182092380Y-104457142D01*
X182092380Y-104552380D01*
X182044761Y-104647619D01*
X181997142Y-104695238D01*
X181901904Y-104742857D01*
X181711428Y-104790476D01*
X181473333Y-104790476D01*
X181282857Y-104742857D01*
X181187619Y-104695238D01*
X181140000Y-104647619D01*
X181092380Y-104552380D01*
X182044761Y-103742857D02*
X182092380Y-103742857D01*
X182187619Y-103790476D01*
X182235238Y-103838095D01*
X181520952Y-103171428D02*
X181473333Y-103266666D01*
X181425714Y-103314285D01*
X181330476Y-103361904D01*
X181282857Y-103361904D01*
X181187619Y-103314285D01*
X181140000Y-103266666D01*
X181092380Y-103171428D01*
X181092380Y-102980952D01*
X181140000Y-102885714D01*
X181187619Y-102838095D01*
X181282857Y-102790476D01*
X181330476Y-102790476D01*
X181425714Y-102838095D01*
X181473333Y-102885714D01*
X181520952Y-102980952D01*
X181520952Y-103171428D01*
X181568571Y-103266666D01*
X181616190Y-103314285D01*
X181711428Y-103361904D01*
X181901904Y-103361904D01*
X181997142Y-103314285D01*
X182044761Y-103266666D01*
X182092380Y-103171428D01*
X182092380Y-102980952D01*
X182044761Y-102885714D01*
X181997142Y-102838095D01*
X181901904Y-102790476D01*
X181711428Y-102790476D01*
X181616190Y-102838095D01*
X181568571Y-102885714D01*
X181520952Y-102980952D01*
X181092380Y-102171428D02*
X181092380Y-102076190D01*
X181140000Y-101980952D01*
X181187619Y-101933333D01*
X181282857Y-101885714D01*
X181473333Y-101838095D01*
X181711428Y-101838095D01*
X181901904Y-101885714D01*
X181997142Y-101933333D01*
X182044761Y-101980952D01*
X182092380Y-102076190D01*
X182092380Y-102171428D01*
X182044761Y-102266666D01*
X181997142Y-102314285D01*
X181901904Y-102361904D01*
X181711428Y-102409523D01*
X181473333Y-102409523D01*
X181282857Y-102361904D01*
X181187619Y-102314285D01*
X181140000Y-102266666D01*
X181092380Y-102171428D01*
X181092380Y-101219047D02*
X181092380Y-101123809D01*
X181140000Y-101028571D01*
X181187619Y-100980952D01*
X181282857Y-100933333D01*
X181473333Y-100885714D01*
X181711428Y-100885714D01*
X181901904Y-100933333D01*
X181997142Y-100980952D01*
X182044761Y-101028571D01*
X182092380Y-101123809D01*
X182092380Y-101219047D01*
X182044761Y-101314285D01*
X181997142Y-101361904D01*
X181901904Y-101409523D01*
X181711428Y-101457142D01*
X181473333Y-101457142D01*
X181282857Y-101409523D01*
X181187619Y-101361904D01*
X181140000Y-101314285D01*
X181092380Y-101219047D01*
X182092380Y-99695238D02*
X181425714Y-99695238D01*
X181520952Y-99695238D02*
X181473333Y-99647619D01*
X181425714Y-99552380D01*
X181425714Y-99409523D01*
X181473333Y-99314285D01*
X181568571Y-99266666D01*
X182092380Y-99266666D01*
X181568571Y-99266666D02*
X181473333Y-99219047D01*
X181425714Y-99123809D01*
X181425714Y-98980952D01*
X181473333Y-98885714D01*
X181568571Y-98838095D01*
X182092380Y-98838095D01*
X182092380Y-98361904D02*
X181425714Y-98361904D01*
X181520952Y-98361904D02*
X181473333Y-98314285D01*
X181425714Y-98219047D01*
X181425714Y-98076190D01*
X181473333Y-97980952D01*
X181568571Y-97933333D01*
X182092380Y-97933333D01*
X181568571Y-97933333D02*
X181473333Y-97885714D01*
X181425714Y-97790476D01*
X181425714Y-97647619D01*
X181473333Y-97552380D01*
X181568571Y-97504761D01*
X182092380Y-97504761D01*
X180340000Y-127000000D02*
X180340000Y-76200000D01*
X172720000Y-127000000D02*
X180926421Y-127000000D01*
X172720000Y-76200000D02*
X180926421Y-76200000D01*
X180340000Y-76200000D02*
X180926421Y-77326504D01*
X180340000Y-76200000D02*
X179753579Y-77326504D01*
X180340000Y-127000000D02*
X180926421Y-125873496D01*
X180340000Y-127000000D02*
X179753579Y-125873496D01*
X120412380Y-133832380D02*
X120602857Y-133832380D01*
X120698095Y-133784761D01*
X120745714Y-133737142D01*
X120840952Y-133594285D01*
X120888571Y-133403809D01*
X120888571Y-133022857D01*
X120840952Y-132927619D01*
X120793333Y-132880000D01*
X120698095Y-132832380D01*
X120507619Y-132832380D01*
X120412380Y-132880000D01*
X120364761Y-132927619D01*
X120317142Y-133022857D01*
X120317142Y-133260952D01*
X120364761Y-133356190D01*
X120412380Y-133403809D01*
X120507619Y-133451428D01*
X120698095Y-133451428D01*
X120793333Y-133403809D01*
X120840952Y-133356190D01*
X120888571Y-133260952D01*
X121745714Y-132832380D02*
X121555238Y-132832380D01*
X121460000Y-132880000D01*
X121412380Y-132927619D01*
X121317142Y-133070476D01*
X121269523Y-133260952D01*
X121269523Y-133641904D01*
X121317142Y-133737142D01*
X121364761Y-133784761D01*
X121460000Y-133832380D01*
X121650476Y-133832380D01*
X121745714Y-133784761D01*
X121793333Y-133737142D01*
X121840952Y-133641904D01*
X121840952Y-133403809D01*
X121793333Y-133308571D01*
X121745714Y-133260952D01*
X121650476Y-133213333D01*
X121460000Y-133213333D01*
X121364761Y-133260952D01*
X121317142Y-133308571D01*
X121269523Y-133403809D01*
X122317142Y-133784761D02*
X122317142Y-133832380D01*
X122269523Y-133927619D01*
X122221904Y-133975238D01*
X123221904Y-132832380D02*
X122745714Y-132832380D01*
X122698095Y-133308571D01*
X122745714Y-133260952D01*
X122840952Y-133213333D01*
X123079047Y-133213333D01*
X123174285Y-133260952D01*
X123221904Y-133308571D01*
X123269523Y-133403809D01*
X123269523Y-133641904D01*
X123221904Y-133737142D01*
X123174285Y-133784761D01*
X123079047Y-133832380D01*
X122840952Y-133832380D01*
X122745714Y-133784761D01*
X122698095Y-133737142D01*
X123650476Y-132927619D02*
X123698095Y-132880000D01*
X123793333Y-132832380D01*
X124031428Y-132832380D01*
X124126666Y-132880000D01*
X124174285Y-132927619D01*
X124221904Y-133022857D01*
X124221904Y-133118095D01*
X124174285Y-133260952D01*
X123602857Y-133832380D01*
X124221904Y-133832380D01*
X124840952Y-132832380D02*
X124936190Y-132832380D01*
X125031428Y-132880000D01*
X125079047Y-132927619D01*
X125126666Y-133022857D01*
X125174285Y-133213333D01*
X125174285Y-133451428D01*
X125126666Y-133641904D01*
X125079047Y-133737142D01*
X125031428Y-133784761D01*
X124936190Y-133832380D01*
X124840952Y-133832380D01*
X124745714Y-133784761D01*
X124698095Y-133737142D01*
X124650476Y-133641904D01*
X124602857Y-133451428D01*
X124602857Y-133213333D01*
X124650476Y-133022857D01*
X124698095Y-132927619D01*
X124745714Y-132880000D01*
X124840952Y-132832380D01*
X126364761Y-133832380D02*
X126364761Y-133165714D01*
X126364761Y-133260952D02*
X126412380Y-133213333D01*
X126507619Y-133165714D01*
X126650476Y-133165714D01*
X126745714Y-133213333D01*
X126793333Y-133308571D01*
X126793333Y-133832380D01*
X126793333Y-133308571D02*
X126840952Y-133213333D01*
X126936190Y-133165714D01*
X127079047Y-133165714D01*
X127174285Y-133213333D01*
X127221904Y-133308571D01*
X127221904Y-133832380D01*
X127698095Y-133832380D02*
X127698095Y-133165714D01*
X127698095Y-133260952D02*
X127745714Y-133213333D01*
X127840952Y-133165714D01*
X127983809Y-133165714D01*
X128079047Y-133213333D01*
X128126666Y-133308571D01*
X128126666Y-133832380D01*
X128126666Y-133308571D02*
X128174285Y-133213333D01*
X128269523Y-133165714D01*
X128412380Y-133165714D01*
X128507619Y-133213333D01*
X128555238Y-133308571D01*
X128555238Y-133832380D01*
X76200000Y-132080000D02*
X172720000Y-132080000D01*
X76200000Y-127000000D02*
X76200000Y-132666421D01*
X172720000Y-127000000D02*
X172720000Y-132666421D01*
X172720000Y-132080000D02*
X171593496Y-132666421D01*
X172720000Y-132080000D02*
X171593496Y-131493579D01*
X76200000Y-132080000D02*
X77326504Y-132666421D01*
X76200000Y-132080000D02*
X77326504Y-131493579D01*
D12*
X130751904Y-105685952D02*
X130751904Y-103185952D01*
X132180476Y-105685952D02*
X131109047Y-104257380D01*
X132180476Y-103185952D02*
X130751904Y-104614523D01*
X134204285Y-105566904D02*
X133966190Y-105685952D01*
X133490000Y-105685952D01*
X133251904Y-105566904D01*
X133132857Y-105328809D01*
X133132857Y-104376428D01*
X133251904Y-104138333D01*
X133490000Y-104019285D01*
X133966190Y-104019285D01*
X134204285Y-104138333D01*
X134323333Y-104376428D01*
X134323333Y-104614523D01*
X133132857Y-104852619D01*
X135156666Y-104019285D02*
X135751904Y-105685952D01*
X136347142Y-104019285D02*
X135751904Y-105685952D01*
X135513809Y-106281190D01*
X135394761Y-106400238D01*
X135156666Y-106519285D01*
X137299523Y-104019285D02*
X137299523Y-106519285D01*
X137299523Y-104138333D02*
X137537619Y-104019285D01*
X138013809Y-104019285D01*
X138251904Y-104138333D01*
X138370952Y-104257380D01*
X138490000Y-104495476D01*
X138490000Y-105209761D01*
X138370952Y-105447857D01*
X138251904Y-105566904D01*
X138013809Y-105685952D01*
X137537619Y-105685952D01*
X137299523Y-105566904D01*
X140632857Y-105685952D02*
X140632857Y-104376428D01*
X140513809Y-104138333D01*
X140275714Y-104019285D01*
X139799523Y-104019285D01*
X139561428Y-104138333D01*
X140632857Y-105566904D02*
X140394761Y-105685952D01*
X139799523Y-105685952D01*
X139561428Y-105566904D01*
X139442380Y-105328809D01*
X139442380Y-105090714D01*
X139561428Y-104852619D01*
X139799523Y-104733571D01*
X140394761Y-104733571D01*
X140632857Y-104614523D01*
X142894761Y-105685952D02*
X142894761Y-103185952D01*
X142894761Y-105566904D02*
X142656666Y-105685952D01*
X142180476Y-105685952D01*
X141942380Y-105566904D01*
X141823333Y-105447857D01*
X141704285Y-105209761D01*
X141704285Y-104495476D01*
X141823333Y-104257380D01*
X141942380Y-104138333D01*
X142180476Y-104019285D01*
X142656666Y-104019285D01*
X142894761Y-104138333D01*
X147180476Y-105685952D02*
X145990000Y-105685952D01*
X145990000Y-103185952D01*
X149085238Y-105685952D02*
X149085238Y-104376428D01*
X148966190Y-104138333D01*
X148728095Y-104019285D01*
X148251904Y-104019285D01*
X148013809Y-104138333D01*
X149085238Y-105566904D02*
X148847142Y-105685952D01*
X148251904Y-105685952D01*
X148013809Y-105566904D01*
X147894761Y-105328809D01*
X147894761Y-105090714D01*
X148013809Y-104852619D01*
X148251904Y-104733571D01*
X148847142Y-104733571D01*
X149085238Y-104614523D01*
X150275714Y-105685952D02*
X150275714Y-103185952D01*
X150275714Y-104138333D02*
X150513809Y-104019285D01*
X150990000Y-104019285D01*
X151228095Y-104138333D01*
X151347142Y-104257380D01*
X151466190Y-104495476D01*
X151466190Y-105209761D01*
X151347142Y-105447857D01*
X151228095Y-105566904D01*
X150990000Y-105685952D01*
X150513809Y-105685952D01*
X150275714Y-105566904D01*
X153847142Y-105685952D02*
X152418571Y-105685952D01*
X153132857Y-105685952D02*
X153132857Y-103185952D01*
X152894761Y-103543095D01*
X152656666Y-103781190D01*
X152418571Y-103900238D01*
X132537619Y-109935952D02*
X132537619Y-107435952D01*
X132537619Y-108388333D02*
X132775714Y-108269285D01*
X133251904Y-108269285D01*
X133490000Y-108388333D01*
X133609047Y-108507380D01*
X133728095Y-108745476D01*
X133728095Y-109459761D01*
X133609047Y-109697857D01*
X133490000Y-109816904D01*
X133251904Y-109935952D01*
X132775714Y-109935952D01*
X132537619Y-109816904D01*
X134561428Y-108269285D02*
X135156666Y-109935952D01*
X135751904Y-108269285D02*
X135156666Y-109935952D01*
X134918571Y-110531190D01*
X134799523Y-110650238D01*
X134561428Y-110769285D01*
X138490000Y-109816904D02*
X138847142Y-109935952D01*
X139442380Y-109935952D01*
X139680476Y-109816904D01*
X139799523Y-109697857D01*
X139918571Y-109459761D01*
X139918571Y-109221666D01*
X139799523Y-108983571D01*
X139680476Y-108864523D01*
X139442380Y-108745476D01*
X138966190Y-108626428D01*
X138728095Y-108507380D01*
X138609047Y-108388333D01*
X138490000Y-108150238D01*
X138490000Y-107912142D01*
X138609047Y-107674047D01*
X138728095Y-107555000D01*
X138966190Y-107435952D01*
X139561428Y-107435952D01*
X139918571Y-107555000D01*
X142656666Y-110174047D02*
X142418571Y-110055000D01*
X142180476Y-109816904D01*
X141823333Y-109459761D01*
X141585238Y-109340714D01*
X141347142Y-109340714D01*
X141466190Y-109935952D02*
X141228095Y-109816904D01*
X140990000Y-109578809D01*
X140870952Y-109102619D01*
X140870952Y-108269285D01*
X140990000Y-107793095D01*
X141228095Y-107555000D01*
X141466190Y-107435952D01*
X141942380Y-107435952D01*
X142180476Y-107555000D01*
X142418571Y-107793095D01*
X142537619Y-108269285D01*
X142537619Y-109102619D01*
X142418571Y-109578809D01*
X142180476Y-109816904D01*
X141942380Y-109935952D01*
X141466190Y-109935952D01*
X143370952Y-107435952D02*
X145037619Y-107435952D01*
X143966190Y-109935952D01*
X145990000Y-108626428D02*
X146823333Y-108626428D01*
X147180476Y-109935952D02*
X145990000Y-109935952D01*
X145990000Y-107435952D01*
X147180476Y-107435952D01*
X149918571Y-110174047D02*
X149680476Y-110055000D01*
X149442380Y-109816904D01*
X149085238Y-109459761D01*
X148847142Y-109340714D01*
X148609047Y-109340714D01*
X148728095Y-109935952D02*
X148490000Y-109816904D01*
X148251904Y-109578809D01*
X148132857Y-109102619D01*
X148132857Y-108269285D01*
X148251904Y-107793095D01*
X148490000Y-107555000D01*
X148728095Y-107435952D01*
X149204285Y-107435952D01*
X149442380Y-107555000D01*
X149680476Y-107793095D01*
X149799523Y-108269285D01*
X149799523Y-109102619D01*
X149680476Y-109578809D01*
X149442380Y-109816904D01*
X149204285Y-109935952D01*
X148728095Y-109935952D01*
X150870952Y-108626428D02*
X151704285Y-108626428D01*
X152061428Y-109935952D02*
X150870952Y-109935952D01*
X150870952Y-107435952D01*
X152061428Y-107435952D01*
M02*
