G04 #@! TF.GenerationSoftware,KiCad,Pcbnew,5.1.4-3.fc30*
G04 #@! TF.CreationDate,2019-09-22T12:30:57+02:00*
G04 #@! TF.ProjectId,keyboard_lab1,6b657962-6f61-4726-945f-6c6162312e6b,1.0*
G04 #@! TF.SameCoordinates,Original*
G04 #@! TF.FileFunction,Legend,Top*
G04 #@! TF.FilePolarity,Positive*
%FSLAX46Y46*%
G04 Gerber Fmt 4.6, Leading zero omitted, Abs format (unit mm)*
G04 Created by KiCad (PCBNEW 5.1.4-3.fc30) date 2019-09-22 12:30:57*
%MOMM*%
%LPD*%
G04 APERTURE LIST*
%ADD10C,0.010000*%
%ADD11C,0.120000*%
%ADD12C,0.150000*%
G04 APERTURE END LIST*
D10*
G36*
X133477000Y-100965000D02*
G01*
X133474891Y-101245692D01*
X133469174Y-101472532D01*
X133460761Y-101619887D01*
X133452133Y-101663500D01*
X133419459Y-101610540D01*
X133391153Y-101520625D01*
X133251472Y-101196852D01*
X133012622Y-100885217D01*
X132701570Y-100612624D01*
X132345286Y-100405979D01*
X132225880Y-100358087D01*
X132131271Y-100321731D01*
X132098485Y-100297245D01*
X132141506Y-100282170D01*
X132274320Y-100274047D01*
X132510912Y-100270417D01*
X132730875Y-100269287D01*
X133477000Y-100266500D01*
X133477000Y-100965000D01*
X133477000Y-100965000D01*
G37*
X133477000Y-100965000D02*
X133474891Y-101245692D01*
X133469174Y-101472532D01*
X133460761Y-101619887D01*
X133452133Y-101663500D01*
X133419459Y-101610540D01*
X133391153Y-101520625D01*
X133251472Y-101196852D01*
X133012622Y-100885217D01*
X132701570Y-100612624D01*
X132345286Y-100405979D01*
X132225880Y-100358087D01*
X132131271Y-100321731D01*
X132098485Y-100297245D01*
X132141506Y-100282170D01*
X132274320Y-100274047D01*
X132510912Y-100270417D01*
X132730875Y-100269287D01*
X133477000Y-100266500D01*
X133477000Y-100965000D01*
G36*
X130508375Y-100269287D02*
G01*
X130828988Y-100271272D01*
X131036534Y-100276028D01*
X131144946Y-100285861D01*
X131168157Y-100303075D01*
X131120098Y-100329974D01*
X131045119Y-100358087D01*
X130600703Y-100577159D01*
X130242295Y-100882586D01*
X129979677Y-101264796D01*
X129882399Y-101496023D01*
X129819740Y-101665956D01*
X129771356Y-101772346D01*
X129756280Y-101790500D01*
X129746328Y-101731091D01*
X129738160Y-101569227D01*
X129732608Y-101329448D01*
X129730501Y-101036294D01*
X129730500Y-101028500D01*
X129730500Y-100266500D01*
X130508375Y-100269287D01*
X130508375Y-100269287D01*
G37*
X130508375Y-100269287D02*
X130828988Y-100271272D01*
X131036534Y-100276028D01*
X131144946Y-100285861D01*
X131168157Y-100303075D01*
X131120098Y-100329974D01*
X131045119Y-100358087D01*
X130600703Y-100577159D01*
X130242295Y-100882586D01*
X129979677Y-101264796D01*
X129882399Y-101496023D01*
X129819740Y-101665956D01*
X129771356Y-101772346D01*
X129756280Y-101790500D01*
X129746328Y-101731091D01*
X129738160Y-101569227D01*
X129732608Y-101329448D01*
X129730501Y-101036294D01*
X129730500Y-101028500D01*
X129730500Y-100266500D01*
X130508375Y-100269287D01*
G36*
X131738729Y-101174897D02*
G01*
X131934881Y-101227710D01*
X132036230Y-101284390D01*
X132173435Y-101461439D01*
X132203557Y-101668428D01*
X132123858Y-101867089D01*
X132081443Y-101916056D01*
X132002199Y-102004880D01*
X132000570Y-102072181D01*
X132082145Y-102167769D01*
X132113193Y-102198920D01*
X132220919Y-102340969D01*
X132270182Y-102473660D01*
X132270500Y-102481979D01*
X132216816Y-102747212D01*
X132063285Y-102944988D01*
X131821183Y-103069330D01*
X131501788Y-103114264D01*
X131143375Y-103079185D01*
X131023685Y-103007881D01*
X131000500Y-102924804D01*
X131023532Y-102835289D01*
X131115245Y-102834883D01*
X131141300Y-102842629D01*
X131407553Y-102889688D01*
X131655909Y-102868577D01*
X131858177Y-102788959D01*
X131986167Y-102660497D01*
X132016500Y-102542658D01*
X131959062Y-102376587D01*
X131810659Y-102245011D01*
X131607158Y-102175882D01*
X131540250Y-102171500D01*
X131372379Y-102146496D01*
X131315998Y-102086839D01*
X131369451Y-102015555D01*
X131531085Y-101955673D01*
X131556125Y-101950634D01*
X131786459Y-101886104D01*
X131911662Y-101789427D01*
X131952714Y-101643453D01*
X131953000Y-101626208D01*
X131899297Y-101470202D01*
X131742356Y-101381243D01*
X131488430Y-101362027D01*
X131367385Y-101373628D01*
X131181881Y-101393355D01*
X131092593Y-101383267D01*
X131070782Y-101336243D01*
X131075302Y-101301253D01*
X131149093Y-101220319D01*
X131308891Y-101171850D01*
X131517751Y-101156493D01*
X131738729Y-101174897D01*
X131738729Y-101174897D01*
G37*
X131738729Y-101174897D02*
X131934881Y-101227710D01*
X132036230Y-101284390D01*
X132173435Y-101461439D01*
X132203557Y-101668428D01*
X132123858Y-101867089D01*
X132081443Y-101916056D01*
X132002199Y-102004880D01*
X132000570Y-102072181D01*
X132082145Y-102167769D01*
X132113193Y-102198920D01*
X132220919Y-102340969D01*
X132270182Y-102473660D01*
X132270500Y-102481979D01*
X132216816Y-102747212D01*
X132063285Y-102944988D01*
X131821183Y-103069330D01*
X131501788Y-103114264D01*
X131143375Y-103079185D01*
X131023685Y-103007881D01*
X131000500Y-102924804D01*
X131023532Y-102835289D01*
X131115245Y-102834883D01*
X131141300Y-102842629D01*
X131407553Y-102889688D01*
X131655909Y-102868577D01*
X131858177Y-102788959D01*
X131986167Y-102660497D01*
X132016500Y-102542658D01*
X131959062Y-102376587D01*
X131810659Y-102245011D01*
X131607158Y-102175882D01*
X131540250Y-102171500D01*
X131372379Y-102146496D01*
X131315998Y-102086839D01*
X131369451Y-102015555D01*
X131531085Y-101955673D01*
X131556125Y-101950634D01*
X131786459Y-101886104D01*
X131911662Y-101789427D01*
X131952714Y-101643453D01*
X131953000Y-101626208D01*
X131899297Y-101470202D01*
X131742356Y-101381243D01*
X131488430Y-101362027D01*
X131367385Y-101373628D01*
X131181881Y-101393355D01*
X131092593Y-101383267D01*
X131070782Y-101336243D01*
X131075302Y-101301253D01*
X131149093Y-101220319D01*
X131308891Y-101171850D01*
X131517751Y-101156493D01*
X131738729Y-101174897D01*
G36*
X133461916Y-102691598D02*
G01*
X133469771Y-102836378D01*
X133473305Y-103086703D01*
X133474212Y-103266875D01*
X133477000Y-104013000D01*
X132699125Y-104011492D01*
X131921250Y-104009985D01*
X132295061Y-103856301D01*
X132730493Y-103615532D01*
X133079305Y-103291648D01*
X133329559Y-102896713D01*
X133389394Y-102750297D01*
X133424029Y-102662581D01*
X133447436Y-102638340D01*
X133461916Y-102691598D01*
X133461916Y-102691598D01*
G37*
X133461916Y-102691598D02*
X133469771Y-102836378D01*
X133473305Y-103086703D01*
X133474212Y-103266875D01*
X133477000Y-104013000D01*
X132699125Y-104011492D01*
X131921250Y-104009985D01*
X132295061Y-103856301D01*
X132730493Y-103615532D01*
X133079305Y-103291648D01*
X133329559Y-102896713D01*
X133389394Y-102750297D01*
X133424029Y-102662581D01*
X133447436Y-102638340D01*
X133461916Y-102691598D01*
G36*
X129915779Y-102838250D02*
G01*
X130184767Y-103272554D01*
X130537914Y-103611765D01*
X130974453Y-103855697D01*
X131349750Y-104009985D01*
X130582458Y-104011492D01*
X130282192Y-104008758D01*
X130029687Y-104000200D01*
X129851226Y-103987143D01*
X129773094Y-103970914D01*
X129772833Y-103970666D01*
X129756361Y-103893886D01*
X129743408Y-103717051D01*
X129735340Y-103467085D01*
X129733413Y-103192791D01*
X129736327Y-102457250D01*
X129915779Y-102838250D01*
X129915779Y-102838250D01*
G37*
X129915779Y-102838250D02*
X130184767Y-103272554D01*
X130537914Y-103611765D01*
X130974453Y-103855697D01*
X131349750Y-104009985D01*
X130582458Y-104011492D01*
X130282192Y-104008758D01*
X130029687Y-104000200D01*
X129851226Y-103987143D01*
X129773094Y-103970914D01*
X129772833Y-103970666D01*
X129756361Y-103893886D01*
X129743408Y-103717051D01*
X129735340Y-103467085D01*
X129733413Y-103192791D01*
X129736327Y-102457250D01*
X129915779Y-102838250D01*
G36*
X152590500Y-105537000D02*
G01*
X152588660Y-105817693D01*
X152583671Y-106044533D01*
X152576330Y-106191888D01*
X152568801Y-106235500D01*
X152539274Y-106180941D01*
X152490408Y-106043541D01*
X152468140Y-105971947D01*
X152349329Y-105730841D01*
X152147912Y-105472429D01*
X151897583Y-105230430D01*
X151632035Y-105038566D01*
X151445774Y-104948771D01*
X151161750Y-104848526D01*
X152590500Y-104838500D01*
X152590500Y-105537000D01*
X152590500Y-105537000D01*
G37*
X152590500Y-105537000D02*
X152588660Y-105817693D01*
X152583671Y-106044533D01*
X152576330Y-106191888D01*
X152568801Y-106235500D01*
X152539274Y-106180941D01*
X152490408Y-106043541D01*
X152468140Y-105971947D01*
X152349329Y-105730841D01*
X152147912Y-105472429D01*
X151897583Y-105230430D01*
X151632035Y-105038566D01*
X151445774Y-104948771D01*
X151161750Y-104848526D01*
X152590500Y-104838500D01*
X152590500Y-105537000D01*
G36*
X149621875Y-104841287D02*
G01*
X149926469Y-104843365D01*
X150118112Y-104848472D01*
X150210851Y-104859198D01*
X150218733Y-104878136D01*
X150155805Y-104907875D01*
X150097996Y-104929098D01*
X149726103Y-105122498D01*
X149391403Y-105409860D01*
X149126866Y-105758213D01*
X148998098Y-106028996D01*
X148961523Y-106124011D01*
X148937135Y-106155727D01*
X148922341Y-106110094D01*
X148914553Y-105973065D01*
X148911178Y-105730593D01*
X148910287Y-105552875D01*
X148907500Y-104838500D01*
X149621875Y-104841287D01*
X149621875Y-104841287D01*
G37*
X149621875Y-104841287D02*
X149926469Y-104843365D01*
X150118112Y-104848472D01*
X150210851Y-104859198D01*
X150218733Y-104878136D01*
X150155805Y-104907875D01*
X150097996Y-104929098D01*
X149726103Y-105122498D01*
X149391403Y-105409860D01*
X149126866Y-105758213D01*
X148998098Y-106028996D01*
X148961523Y-106124011D01*
X148937135Y-106155727D01*
X148922341Y-106110094D01*
X148914553Y-105973065D01*
X148911178Y-105730593D01*
X148910287Y-105552875D01*
X148907500Y-104838500D01*
X149621875Y-104841287D01*
G36*
X145494375Y-104843513D02*
G01*
X145801266Y-104846248D01*
X145994928Y-104851267D01*
X146089128Y-104861538D01*
X146097636Y-104880029D01*
X146034219Y-104909707D01*
X145947469Y-104941189D01*
X145588754Y-105130789D01*
X145267698Y-105420841D01*
X145011653Y-105785215D01*
X144962088Y-105882566D01*
X144780100Y-106267250D01*
X144780000Y-104838500D01*
X145494375Y-104843513D01*
X145494375Y-104843513D01*
G37*
X145494375Y-104843513D02*
X145801266Y-104846248D01*
X145994928Y-104851267D01*
X146089128Y-104861538D01*
X146097636Y-104880029D01*
X146034219Y-104909707D01*
X145947469Y-104941189D01*
X145588754Y-105130789D01*
X145267698Y-105420841D01*
X145011653Y-105785215D01*
X144962088Y-105882566D01*
X144780100Y-106267250D01*
X144780000Y-104838500D01*
X145494375Y-104843513D01*
G36*
X156718000Y-105568750D02*
G01*
X156715420Y-105856256D01*
X156708410Y-106090473D01*
X156698057Y-106246334D01*
X156686250Y-106299000D01*
X156658990Y-106246290D01*
X156653904Y-106187875D01*
X156613308Y-106034376D01*
X156508098Y-105825047D01*
X156361309Y-105595961D01*
X156195979Y-105383191D01*
X156040299Y-105227022D01*
X155833512Y-105083400D01*
X155607912Y-104964420D01*
X155545612Y-104939550D01*
X155439962Y-104900250D01*
X155396069Y-104874087D01*
X155427778Y-104858158D01*
X155548937Y-104849558D01*
X155773395Y-104845385D01*
X156003625Y-104843513D01*
X156718000Y-104838500D01*
X156718000Y-105568750D01*
X156718000Y-105568750D01*
G37*
X156718000Y-105568750D02*
X156715420Y-105856256D01*
X156708410Y-106090473D01*
X156698057Y-106246334D01*
X156686250Y-106299000D01*
X156658990Y-106246290D01*
X156653904Y-106187875D01*
X156613308Y-106034376D01*
X156508098Y-105825047D01*
X156361309Y-105595961D01*
X156195979Y-105383191D01*
X156040299Y-105227022D01*
X155833512Y-105083400D01*
X155607912Y-104964420D01*
X155545612Y-104939550D01*
X155439962Y-104900250D01*
X155396069Y-104874087D01*
X155427778Y-104858158D01*
X155548937Y-104849558D01*
X155773395Y-104845385D01*
X156003625Y-104843513D01*
X156718000Y-104838500D01*
X156718000Y-105568750D01*
G36*
X141679556Y-105033499D02*
G01*
X141284644Y-105287603D01*
X140989303Y-105611794D01*
X140781455Y-106013250D01*
X140659117Y-106330750D01*
X140655808Y-105584625D01*
X140652500Y-104838500D01*
X142069784Y-104838500D01*
X141679556Y-105033499D01*
X141679556Y-105033499D01*
G37*
X141679556Y-105033499D02*
X141284644Y-105287603D01*
X140989303Y-105611794D01*
X140781455Y-106013250D01*
X140659117Y-106330750D01*
X140655808Y-105584625D01*
X140652500Y-104838500D01*
X142069784Y-104838500D01*
X141679556Y-105033499D01*
G36*
X138049000Y-105568750D02*
G01*
X138046830Y-105856257D01*
X138040934Y-106090476D01*
X138032226Y-106246337D01*
X138022295Y-106299000D01*
X137991459Y-106244704D01*
X137955254Y-106115347D01*
X137830763Y-105801571D01*
X137610273Y-105490846D01*
X137321990Y-105212721D01*
X136994121Y-104996742D01*
X136810750Y-104916430D01*
X136747724Y-104886977D01*
X136761791Y-104866730D01*
X136865960Y-104853879D01*
X137073239Y-104846612D01*
X137334625Y-104843513D01*
X138049000Y-104838500D01*
X138049000Y-105568750D01*
X138049000Y-105568750D01*
G37*
X138049000Y-105568750D02*
X138046830Y-105856257D01*
X138040934Y-106090476D01*
X138032226Y-106246337D01*
X138022295Y-106299000D01*
X137991459Y-106244704D01*
X137955254Y-106115347D01*
X137830763Y-105801571D01*
X137610273Y-105490846D01*
X137321990Y-105212721D01*
X136994121Y-104996742D01*
X136810750Y-104916430D01*
X136747724Y-104886977D01*
X136761791Y-104866730D01*
X136865960Y-104853879D01*
X137073239Y-104846612D01*
X137334625Y-104843513D01*
X138049000Y-104838500D01*
X138049000Y-105568750D01*
G36*
X125936375Y-104843513D02*
G01*
X126239684Y-104847504D01*
X126429022Y-104855569D01*
X126517400Y-104869518D01*
X126517827Y-104891162D01*
X126460250Y-104916430D01*
X126057562Y-105124505D01*
X125708616Y-105432271D01*
X125436408Y-105816200D01*
X125313587Y-106089619D01*
X125277231Y-106184228D01*
X125252745Y-106217014D01*
X125237670Y-106173993D01*
X125229547Y-106041179D01*
X125225917Y-105804587D01*
X125224787Y-105584625D01*
X125222000Y-104838500D01*
X125936375Y-104843513D01*
X125936375Y-104843513D01*
G37*
X125936375Y-104843513D02*
X126239684Y-104847504D01*
X126429022Y-104855569D01*
X126517400Y-104869518D01*
X126517827Y-104891162D01*
X126460250Y-104916430D01*
X126057562Y-105124505D01*
X125708616Y-105432271D01*
X125436408Y-105816200D01*
X125313587Y-106089619D01*
X125277231Y-106184228D01*
X125252745Y-106217014D01*
X125237670Y-106173993D01*
X125229547Y-106041179D01*
X125225917Y-105804587D01*
X125224787Y-105584625D01*
X125222000Y-104838500D01*
X125936375Y-104843513D01*
G36*
X154400250Y-104839740D02*
G01*
X154082750Y-104990280D01*
X153686574Y-105246664D01*
X153361286Y-105599589D01*
X153128802Y-106018953D01*
X152974514Y-106394250D01*
X152971500Y-104838500D01*
X154400250Y-104839740D01*
X154400250Y-104839740D01*
G37*
X154400250Y-104839740D02*
X154082750Y-104990280D01*
X153686574Y-105246664D01*
X153361286Y-105599589D01*
X153128802Y-106018953D01*
X152974514Y-106394250D01*
X152971500Y-104838500D01*
X154400250Y-104839740D01*
G36*
X148526500Y-105600500D02*
G01*
X148525186Y-105894675D01*
X148521608Y-106136088D01*
X148516307Y-106300197D01*
X148509826Y-106362460D01*
X148509654Y-106362500D01*
X148481073Y-106308211D01*
X148425301Y-106168409D01*
X148377586Y-106038083D01*
X148195702Y-105685320D01*
X147923765Y-105356307D01*
X147597769Y-105090311D01*
X147415250Y-104988248D01*
X147097750Y-104839740D01*
X148526500Y-104838500D01*
X148526500Y-105600500D01*
X148526500Y-105600500D01*
G37*
X148526500Y-105600500D02*
X148525186Y-105894675D01*
X148521608Y-106136088D01*
X148516307Y-106300197D01*
X148509826Y-106362460D01*
X148509654Y-106362500D01*
X148481073Y-106308211D01*
X148425301Y-106168409D01*
X148377586Y-106038083D01*
X148195702Y-105685320D01*
X147923765Y-105356307D01*
X147597769Y-105090311D01*
X147415250Y-104988248D01*
X147097750Y-104839740D01*
X148526500Y-104838500D01*
X148526500Y-105600500D01*
G36*
X144399000Y-105600500D02*
G01*
X144396524Y-105894671D01*
X144389780Y-106136082D01*
X144379789Y-106300191D01*
X144367575Y-106362460D01*
X144367250Y-106362500D01*
X144339074Y-106310651D01*
X144335500Y-106266557D01*
X144297066Y-106101238D01*
X144196395Y-105880602D01*
X144055428Y-105644430D01*
X143896108Y-105432497D01*
X143843855Y-105375287D01*
X143644827Y-105206152D01*
X143402271Y-105047071D01*
X143292909Y-104989984D01*
X142970250Y-104839740D01*
X144399000Y-104838500D01*
X144399000Y-105600500D01*
X144399000Y-105600500D01*
G37*
X144399000Y-105600500D02*
X144396524Y-105894671D01*
X144389780Y-106136082D01*
X144379789Y-106300191D01*
X144367575Y-106362460D01*
X144367250Y-106362500D01*
X144339074Y-106310651D01*
X144335500Y-106266557D01*
X144297066Y-106101238D01*
X144196395Y-105880602D01*
X144055428Y-105644430D01*
X143896108Y-105432497D01*
X143843855Y-105375287D01*
X143644827Y-105206152D01*
X143402271Y-105047071D01*
X143292909Y-104989984D01*
X142970250Y-104839740D01*
X144399000Y-104838500D01*
X144399000Y-105600500D01*
G36*
X135731250Y-104839740D02*
G01*
X135413750Y-104994316D01*
X134989783Y-105260219D01*
X134667997Y-105598453D01*
X134440904Y-106017310D01*
X134407218Y-106108500D01*
X134308562Y-106394250D01*
X134302500Y-104838500D01*
X135731250Y-104839740D01*
X135731250Y-104839740D01*
G37*
X135731250Y-104839740D02*
X135413750Y-104994316D01*
X134989783Y-105260219D01*
X134667997Y-105598453D01*
X134440904Y-106017310D01*
X134407218Y-106108500D01*
X134308562Y-106394250D01*
X134302500Y-104838500D01*
X135731250Y-104839740D01*
G36*
X128968500Y-105600500D02*
G01*
X128967186Y-105894675D01*
X128963608Y-106136088D01*
X128958307Y-106300197D01*
X128951826Y-106362460D01*
X128951654Y-106362500D01*
X128923073Y-106308211D01*
X128867301Y-106168409D01*
X128819586Y-106038083D01*
X128637702Y-105685320D01*
X128365765Y-105356307D01*
X128039769Y-105090311D01*
X127857250Y-104988248D01*
X127539750Y-104839740D01*
X128968500Y-104838500D01*
X128968500Y-105600500D01*
X128968500Y-105600500D01*
G37*
X128968500Y-105600500D02*
X128967186Y-105894675D01*
X128963608Y-106136088D01*
X128958307Y-106300197D01*
X128951826Y-106362460D01*
X128951654Y-106362500D01*
X128923073Y-106308211D01*
X128867301Y-106168409D01*
X128819586Y-106038083D01*
X128637702Y-105685320D01*
X128365765Y-105356307D01*
X128039769Y-105090311D01*
X127857250Y-104988248D01*
X127539750Y-104839740D01*
X128968500Y-104838500D01*
X128968500Y-105600500D01*
G36*
X151045899Y-105729330D02*
G01*
X151230026Y-105737414D01*
X151329173Y-105755635D01*
X151364339Y-105787881D01*
X151356525Y-105838037D01*
X151356307Y-105838625D01*
X151154723Y-106375608D01*
X150989361Y-106802320D01*
X150855712Y-107128779D01*
X150749267Y-107365006D01*
X150665518Y-107521020D01*
X150599956Y-107606841D01*
X150549093Y-107632500D01*
X150451032Y-107610842D01*
X150431500Y-107584348D01*
X150453466Y-107509829D01*
X150513361Y-107341794D01*
X150602184Y-107104733D01*
X150710930Y-106823139D01*
X150717250Y-106807000D01*
X150827254Y-106520089D01*
X150917621Y-106272606D01*
X150979232Y-106090369D01*
X151002967Y-105999200D01*
X151003000Y-105997901D01*
X150956758Y-105951667D01*
X150809554Y-105925798D01*
X150558500Y-105918000D01*
X150316995Y-105912398D01*
X150178775Y-105892256D01*
X150120480Y-105852569D01*
X150114000Y-105822750D01*
X150134862Y-105778535D01*
X150211320Y-105750065D01*
X150364178Y-105734253D01*
X150614240Y-105728011D01*
X150755793Y-105727500D01*
X151045899Y-105729330D01*
X151045899Y-105729330D01*
G37*
X151045899Y-105729330D02*
X151230026Y-105737414D01*
X151329173Y-105755635D01*
X151364339Y-105787881D01*
X151356525Y-105838037D01*
X151356307Y-105838625D01*
X151154723Y-106375608D01*
X150989361Y-106802320D01*
X150855712Y-107128779D01*
X150749267Y-107365006D01*
X150665518Y-107521020D01*
X150599956Y-107606841D01*
X150549093Y-107632500D01*
X150451032Y-107610842D01*
X150431500Y-107584348D01*
X150453466Y-107509829D01*
X150513361Y-107341794D01*
X150602184Y-107104733D01*
X150710930Y-106823139D01*
X150717250Y-106807000D01*
X150827254Y-106520089D01*
X150917621Y-106272606D01*
X150979232Y-106090369D01*
X151002967Y-105999200D01*
X151003000Y-105997901D01*
X150956758Y-105951667D01*
X150809554Y-105925798D01*
X150558500Y-105918000D01*
X150316995Y-105912398D01*
X150178775Y-105892256D01*
X150120480Y-105852569D01*
X150114000Y-105822750D01*
X150134862Y-105778535D01*
X150211320Y-105750065D01*
X150364178Y-105734253D01*
X150614240Y-105728011D01*
X150755793Y-105727500D01*
X151045899Y-105729330D01*
G36*
X142754650Y-105731986D02*
G01*
X142911076Y-105748264D01*
X142985828Y-105780561D01*
X143002000Y-105822750D01*
X142972739Y-105878057D01*
X142869014Y-105907751D01*
X142666906Y-105917812D01*
X142621000Y-105918000D01*
X142240000Y-105918000D01*
X142240000Y-106140250D01*
X142247415Y-106281612D01*
X142293847Y-106345110D01*
X142415576Y-106361891D01*
X142498884Y-106362500D01*
X142772222Y-106418474D01*
X142980357Y-106573198D01*
X143103645Y-106806878D01*
X143129000Y-106997500D01*
X143102226Y-107214013D01*
X143001744Y-107384410D01*
X142943384Y-107446884D01*
X142819494Y-107554437D01*
X142692817Y-107610276D01*
X142514415Y-107630595D01*
X142382467Y-107632500D01*
X142174336Y-107625838D01*
X142020857Y-107608583D01*
X141964833Y-107590166D01*
X141928694Y-107496982D01*
X141922500Y-107429182D01*
X141941578Y-107348295D01*
X142020711Y-107363606D01*
X142045325Y-107376265D01*
X142260194Y-107438041D01*
X142496818Y-107428802D01*
X142698325Y-107353781D01*
X142751744Y-107311255D01*
X142855364Y-107128500D01*
X142852165Y-106922221D01*
X142746908Y-106729548D01*
X142667914Y-106657474D01*
X142533781Y-106576107D01*
X142404299Y-106560533D01*
X142239289Y-106594748D01*
X141986000Y-106662355D01*
X141986000Y-105727500D01*
X142494000Y-105727500D01*
X142754650Y-105731986D01*
X142754650Y-105731986D01*
G37*
X142754650Y-105731986D02*
X142911076Y-105748264D01*
X142985828Y-105780561D01*
X143002000Y-105822750D01*
X142972739Y-105878057D01*
X142869014Y-105907751D01*
X142666906Y-105917812D01*
X142621000Y-105918000D01*
X142240000Y-105918000D01*
X142240000Y-106140250D01*
X142247415Y-106281612D01*
X142293847Y-106345110D01*
X142415576Y-106361891D01*
X142498884Y-106362500D01*
X142772222Y-106418474D01*
X142980357Y-106573198D01*
X143103645Y-106806878D01*
X143129000Y-106997500D01*
X143102226Y-107214013D01*
X143001744Y-107384410D01*
X142943384Y-107446884D01*
X142819494Y-107554437D01*
X142692817Y-107610276D01*
X142514415Y-107630595D01*
X142382467Y-107632500D01*
X142174336Y-107625838D01*
X142020857Y-107608583D01*
X141964833Y-107590166D01*
X141928694Y-107496982D01*
X141922500Y-107429182D01*
X141941578Y-107348295D01*
X142020711Y-107363606D01*
X142045325Y-107376265D01*
X142260194Y-107438041D01*
X142496818Y-107428802D01*
X142698325Y-107353781D01*
X142751744Y-107311255D01*
X142855364Y-107128500D01*
X142852165Y-106922221D01*
X142746908Y-106729548D01*
X142667914Y-106657474D01*
X142533781Y-106576107D01*
X142404299Y-106560533D01*
X142239289Y-106594748D01*
X141986000Y-106662355D01*
X141986000Y-105727500D01*
X142494000Y-105727500D01*
X142754650Y-105731986D01*
G36*
X136366508Y-105742117D02*
G01*
X136517801Y-105797279D01*
X136623136Y-105883363D01*
X136753430Y-106095331D01*
X136766883Y-106339435D01*
X136708326Y-106509549D01*
X136632391Y-106617705D01*
X136491960Y-106784495D01*
X136313076Y-106979500D01*
X136249785Y-107045125D01*
X135861918Y-107442000D01*
X136320459Y-107442000D01*
X136566288Y-107447315D01*
X136708629Y-107466473D01*
X136770669Y-107504290D01*
X136779000Y-107537250D01*
X136757410Y-107582654D01*
X136678447Y-107611388D01*
X136520821Y-107626813D01*
X136263242Y-107632290D01*
X136175750Y-107632500D01*
X135892387Y-107629777D01*
X135713262Y-107618937D01*
X135615681Y-107595969D01*
X135576946Y-107556865D01*
X135572500Y-107525934D01*
X135614772Y-107438727D01*
X135729080Y-107286212D01*
X135896655Y-107091873D01*
X136048750Y-106929976D01*
X136298037Y-106659534D01*
X136453222Y-106450657D01*
X136520545Y-106287057D01*
X136506244Y-106152447D01*
X136416559Y-106030542D01*
X136399436Y-106014550D01*
X136277621Y-105945823D01*
X136108342Y-105933402D01*
X135864855Y-105977428D01*
X135715375Y-106018184D01*
X135603400Y-106027700D01*
X135572500Y-105959390D01*
X135631630Y-105839281D01*
X135803625Y-105761169D01*
X136080393Y-105728345D01*
X136142711Y-105727500D01*
X136366508Y-105742117D01*
X136366508Y-105742117D01*
G37*
X136366508Y-105742117D02*
X136517801Y-105797279D01*
X136623136Y-105883363D01*
X136753430Y-106095331D01*
X136766883Y-106339435D01*
X136708326Y-106509549D01*
X136632391Y-106617705D01*
X136491960Y-106784495D01*
X136313076Y-106979500D01*
X136249785Y-107045125D01*
X135861918Y-107442000D01*
X136320459Y-107442000D01*
X136566288Y-107447315D01*
X136708629Y-107466473D01*
X136770669Y-107504290D01*
X136779000Y-107537250D01*
X136757410Y-107582654D01*
X136678447Y-107611388D01*
X136520821Y-107626813D01*
X136263242Y-107632290D01*
X136175750Y-107632500D01*
X135892387Y-107629777D01*
X135713262Y-107618937D01*
X135615681Y-107595969D01*
X135576946Y-107556865D01*
X135572500Y-107525934D01*
X135614772Y-107438727D01*
X135729080Y-107286212D01*
X135896655Y-107091873D01*
X136048750Y-106929976D01*
X136298037Y-106659534D01*
X136453222Y-106450657D01*
X136520545Y-106287057D01*
X136506244Y-106152447D01*
X136416559Y-106030542D01*
X136399436Y-106014550D01*
X136277621Y-105945823D01*
X136108342Y-105933402D01*
X135864855Y-105977428D01*
X135715375Y-106018184D01*
X135603400Y-106027700D01*
X135572500Y-105959390D01*
X135631630Y-105839281D01*
X135803625Y-105761169D01*
X136080393Y-105728345D01*
X136142711Y-105727500D01*
X136366508Y-105742117D01*
G36*
X127172919Y-105748234D02*
G01*
X127225154Y-105832908D01*
X127248546Y-105992615D01*
X127254396Y-106244971D01*
X127254000Y-106584750D01*
X127254000Y-107442000D01*
X127444500Y-107442000D01*
X127595739Y-107470398D01*
X127635000Y-107537250D01*
X127611956Y-107584869D01*
X127528074Y-107614015D01*
X127361229Y-107628589D01*
X127095250Y-107632500D01*
X126822932Y-107628055D01*
X126656320Y-107612347D01*
X126574352Y-107581817D01*
X126555500Y-107541273D01*
X126613990Y-107467435D01*
X126761875Y-107430148D01*
X126968250Y-107410250D01*
X126986283Y-106687413D01*
X127004317Y-105964577D01*
X126748158Y-106005539D01*
X126584041Y-106024137D01*
X126509839Y-106002641D01*
X126492014Y-105930777D01*
X126492000Y-105927058D01*
X126529750Y-105836783D01*
X126659882Y-105781919D01*
X126730125Y-105768257D01*
X126936706Y-105733524D01*
X127080537Y-105720978D01*
X127172919Y-105748234D01*
X127172919Y-105748234D01*
G37*
X127172919Y-105748234D02*
X127225154Y-105832908D01*
X127248546Y-105992615D01*
X127254396Y-106244971D01*
X127254000Y-106584750D01*
X127254000Y-107442000D01*
X127444500Y-107442000D01*
X127595739Y-107470398D01*
X127635000Y-107537250D01*
X127611956Y-107584869D01*
X127528074Y-107614015D01*
X127361229Y-107628589D01*
X127095250Y-107632500D01*
X126822932Y-107628055D01*
X126656320Y-107612347D01*
X126574352Y-107581817D01*
X126555500Y-107541273D01*
X126613990Y-107467435D01*
X126761875Y-107430148D01*
X126968250Y-107410250D01*
X126986283Y-106687413D01*
X127004317Y-105964577D01*
X126748158Y-106005539D01*
X126584041Y-106024137D01*
X126509839Y-106002641D01*
X126492014Y-105930777D01*
X126492000Y-105927058D01*
X126529750Y-105836783D01*
X126659882Y-105781919D01*
X126730125Y-105768257D01*
X126936706Y-105733524D01*
X127080537Y-105720978D01*
X127172919Y-105748234D01*
G36*
X155128299Y-105734927D02*
G01*
X155331812Y-105851488D01*
X155434799Y-106043976D01*
X155448000Y-106169863D01*
X155422074Y-106371615D01*
X155332780Y-106498251D01*
X155309814Y-106515587D01*
X155171629Y-106612375D01*
X155341564Y-106746046D01*
X155479032Y-106926236D01*
X155512125Y-107146141D01*
X155439555Y-107371295D01*
X155368625Y-107469076D01*
X155168403Y-107607788D01*
X154908321Y-107669819D01*
X154635076Y-107647585D01*
X154518267Y-107607174D01*
X154344071Y-107471812D01*
X154239824Y-107277120D01*
X154214328Y-107092750D01*
X154495500Y-107092750D01*
X154528849Y-107291037D01*
X154640269Y-107402174D01*
X154846820Y-107441382D01*
X154886965Y-107442000D01*
X155079999Y-107415922D01*
X155185902Y-107329515D01*
X155191765Y-107319174D01*
X155255728Y-107097206D01*
X155208237Y-106911594D01*
X155063173Y-106785919D01*
X154852914Y-106743500D01*
X154643619Y-106779236D01*
X154528902Y-106895046D01*
X154495500Y-107092750D01*
X154214328Y-107092750D01*
X154209767Y-107059776D01*
X154258141Y-106856458D01*
X154389187Y-106703844D01*
X154412204Y-106689815D01*
X154482973Y-106638360D01*
X154473819Y-106578548D01*
X154383975Y-106474222D01*
X154262887Y-106281869D01*
X154263114Y-106265661D01*
X154520275Y-106265661D01*
X154554701Y-106354467D01*
X154669301Y-106451283D01*
X154843569Y-106492015D01*
X155020486Y-106470707D01*
X155117800Y-106413300D01*
X155181419Y-106289501D01*
X155194000Y-106203750D01*
X155144301Y-106031224D01*
X154994994Y-105937218D01*
X154830688Y-105918000D01*
X154640687Y-105966612D01*
X154530903Y-106092483D01*
X154520275Y-106265661D01*
X154263114Y-106265661D01*
X154265630Y-106086536D01*
X154392413Y-105876643D01*
X154394751Y-105873915D01*
X154527057Y-105753505D01*
X154682802Y-105702984D01*
X154826169Y-105695750D01*
X155128299Y-105734927D01*
X155128299Y-105734927D01*
G37*
X155128299Y-105734927D02*
X155331812Y-105851488D01*
X155434799Y-106043976D01*
X155448000Y-106169863D01*
X155422074Y-106371615D01*
X155332780Y-106498251D01*
X155309814Y-106515587D01*
X155171629Y-106612375D01*
X155341564Y-106746046D01*
X155479032Y-106926236D01*
X155512125Y-107146141D01*
X155439555Y-107371295D01*
X155368625Y-107469076D01*
X155168403Y-107607788D01*
X154908321Y-107669819D01*
X154635076Y-107647585D01*
X154518267Y-107607174D01*
X154344071Y-107471812D01*
X154239824Y-107277120D01*
X154214328Y-107092750D01*
X154495500Y-107092750D01*
X154528849Y-107291037D01*
X154640269Y-107402174D01*
X154846820Y-107441382D01*
X154886965Y-107442000D01*
X155079999Y-107415922D01*
X155185902Y-107329515D01*
X155191765Y-107319174D01*
X155255728Y-107097206D01*
X155208237Y-106911594D01*
X155063173Y-106785919D01*
X154852914Y-106743500D01*
X154643619Y-106779236D01*
X154528902Y-106895046D01*
X154495500Y-107092750D01*
X154214328Y-107092750D01*
X154209767Y-107059776D01*
X154258141Y-106856458D01*
X154389187Y-106703844D01*
X154412204Y-106689815D01*
X154482973Y-106638360D01*
X154473819Y-106578548D01*
X154383975Y-106474222D01*
X154262887Y-106281869D01*
X154263114Y-106265661D01*
X154520275Y-106265661D01*
X154554701Y-106354467D01*
X154669301Y-106451283D01*
X154843569Y-106492015D01*
X155020486Y-106470707D01*
X155117800Y-106413300D01*
X155181419Y-106289501D01*
X155194000Y-106203750D01*
X155144301Y-106031224D01*
X154994994Y-105937218D01*
X154830688Y-105918000D01*
X154640687Y-105966612D01*
X154530903Y-106092483D01*
X154520275Y-106265661D01*
X154263114Y-106265661D01*
X154265630Y-106086536D01*
X154392413Y-105876643D01*
X154394751Y-105873915D01*
X154527057Y-105753505D01*
X154682802Y-105702984D01*
X154826169Y-105695750D01*
X155128299Y-105734927D01*
G36*
X147062492Y-105736750D02*
G01*
X147168549Y-105831510D01*
X147180463Y-105867033D01*
X147174051Y-105936164D01*
X147097182Y-105953204D01*
X146978209Y-105938659D01*
X146775860Y-105924972D01*
X146597334Y-105942187D01*
X146594352Y-105942920D01*
X146449535Y-106033065D01*
X146322440Y-106198411D01*
X146247849Y-106388313D01*
X146240500Y-106458197D01*
X146251701Y-106523995D01*
X146307853Y-106510403D01*
X146381629Y-106461350D01*
X146610335Y-106368449D01*
X146843631Y-106385129D01*
X147053739Y-106498163D01*
X147212882Y-106694326D01*
X147282545Y-106890323D01*
X147277015Y-107107229D01*
X147201019Y-107342474D01*
X147077447Y-107530583D01*
X147049752Y-107556197D01*
X146840582Y-107655107D01*
X146590062Y-107667469D01*
X146351253Y-107591681D01*
X146328170Y-107578014D01*
X146147910Y-107407778D01*
X146036882Y-107158543D01*
X146017404Y-107018013D01*
X146304000Y-107018013D01*
X146320849Y-107204704D01*
X146362955Y-107341494D01*
X146380200Y-107365800D01*
X146511907Y-107426481D01*
X146693285Y-107437905D01*
X146861283Y-107401703D01*
X146935105Y-107351442D01*
X146977747Y-107234492D01*
X146993021Y-107052239D01*
X146990505Y-106988340D01*
X146958743Y-106794023D01*
X146883155Y-106677086D01*
X146803442Y-106622299D01*
X146670755Y-106564537D01*
X146562573Y-106582929D01*
X146470067Y-106637616D01*
X146359324Y-106736041D01*
X146311801Y-106869492D01*
X146304000Y-107018013D01*
X146017404Y-107018013D01*
X145989284Y-106815148D01*
X145986500Y-106685408D01*
X146031798Y-106303473D01*
X146168272Y-106009152D01*
X146396785Y-105800765D01*
X146460178Y-105765945D01*
X146671220Y-105698762D01*
X146884353Y-105690765D01*
X147062492Y-105736750D01*
X147062492Y-105736750D01*
G37*
X147062492Y-105736750D02*
X147168549Y-105831510D01*
X147180463Y-105867033D01*
X147174051Y-105936164D01*
X147097182Y-105953204D01*
X146978209Y-105938659D01*
X146775860Y-105924972D01*
X146597334Y-105942187D01*
X146594352Y-105942920D01*
X146449535Y-106033065D01*
X146322440Y-106198411D01*
X146247849Y-106388313D01*
X146240500Y-106458197D01*
X146251701Y-106523995D01*
X146307853Y-106510403D01*
X146381629Y-106461350D01*
X146610335Y-106368449D01*
X146843631Y-106385129D01*
X147053739Y-106498163D01*
X147212882Y-106694326D01*
X147282545Y-106890323D01*
X147277015Y-107107229D01*
X147201019Y-107342474D01*
X147077447Y-107530583D01*
X147049752Y-107556197D01*
X146840582Y-107655107D01*
X146590062Y-107667469D01*
X146351253Y-107591681D01*
X146328170Y-107578014D01*
X146147910Y-107407778D01*
X146036882Y-107158543D01*
X146017404Y-107018013D01*
X146304000Y-107018013D01*
X146320849Y-107204704D01*
X146362955Y-107341494D01*
X146380200Y-107365800D01*
X146511907Y-107426481D01*
X146693285Y-107437905D01*
X146861283Y-107401703D01*
X146935105Y-107351442D01*
X146977747Y-107234492D01*
X146993021Y-107052239D01*
X146990505Y-106988340D01*
X146958743Y-106794023D01*
X146883155Y-106677086D01*
X146803442Y-106622299D01*
X146670755Y-106564537D01*
X146562573Y-106582929D01*
X146470067Y-106637616D01*
X146359324Y-106736041D01*
X146311801Y-106869492D01*
X146304000Y-107018013D01*
X146017404Y-107018013D01*
X145989284Y-106815148D01*
X145986500Y-106685408D01*
X146031798Y-106303473D01*
X146168272Y-106009152D01*
X146396785Y-105800765D01*
X146460178Y-105765945D01*
X146671220Y-105698762D01*
X146884353Y-105690765D01*
X147062492Y-105736750D01*
G36*
X156691918Y-107212836D02*
G01*
X156703764Y-107357436D01*
X156710555Y-107615718D01*
X156712273Y-107775375D01*
X156718000Y-108521500D01*
X156003625Y-108516486D01*
X155700282Y-108512462D01*
X155511053Y-108504323D01*
X155423072Y-108490294D01*
X155423473Y-108468599D01*
X155479750Y-108444189D01*
X155837300Y-108261323D01*
X156167782Y-107988988D01*
X156440328Y-107659288D01*
X156624071Y-107304323D01*
X156648844Y-107228340D01*
X156673962Y-107172833D01*
X156691918Y-107212836D01*
X156691918Y-107212836D01*
G37*
X156691918Y-107212836D02*
X156703764Y-107357436D01*
X156710555Y-107615718D01*
X156712273Y-107775375D01*
X156718000Y-108521500D01*
X156003625Y-108516486D01*
X155700282Y-108512462D01*
X155511053Y-108504323D01*
X155423072Y-108490294D01*
X155423473Y-108468599D01*
X155479750Y-108444189D01*
X155837300Y-108261323D01*
X156167782Y-107988988D01*
X156440328Y-107659288D01*
X156624071Y-107304323D01*
X156648844Y-107228340D01*
X156673962Y-107172833D01*
X156691918Y-107212836D01*
G36*
X153128802Y-107341046D02*
G01*
X153368399Y-107770236D01*
X153695663Y-108120980D01*
X154082750Y-108369719D01*
X154400250Y-108520259D01*
X153685875Y-108520879D01*
X152971500Y-108521500D01*
X152974514Y-106965750D01*
X153128802Y-107341046D01*
X153128802Y-107341046D01*
G37*
X153128802Y-107341046D02*
X153368399Y-107770236D01*
X153695663Y-108120980D01*
X154082750Y-108369719D01*
X154400250Y-108520259D01*
X153685875Y-108520879D01*
X152971500Y-108521500D01*
X152974514Y-106965750D01*
X153128802Y-107341046D01*
G36*
X152585486Y-107807125D02*
G01*
X152590500Y-108521500D01*
X151876125Y-108516486D01*
X151161750Y-108511473D01*
X151445774Y-108411228D01*
X151712216Y-108270213D01*
X151988396Y-108047619D01*
X152237666Y-107780093D01*
X152423379Y-107504282D01*
X152480228Y-107376774D01*
X152580473Y-107092750D01*
X152585486Y-107807125D01*
X152585486Y-107807125D01*
G37*
X152585486Y-107807125D02*
X152590500Y-108521500D01*
X151876125Y-108516486D01*
X151161750Y-108511473D01*
X151445774Y-108411228D01*
X151712216Y-108270213D01*
X151988396Y-108047619D01*
X152237666Y-107780093D01*
X152423379Y-107504282D01*
X152480228Y-107376774D01*
X152580473Y-107092750D01*
X152585486Y-107807125D01*
G36*
X149027541Y-107414401D02*
G01*
X149246316Y-107775911D01*
X149541747Y-108093174D01*
X149881872Y-108336796D01*
X150162516Y-108458272D01*
X150193359Y-108482758D01*
X150100138Y-108500556D01*
X149881858Y-108511774D01*
X149621875Y-108516042D01*
X148907500Y-108521500D01*
X148908894Y-107838875D01*
X148910289Y-107156250D01*
X149027541Y-107414401D01*
X149027541Y-107414401D01*
G37*
X149027541Y-107414401D02*
X149246316Y-107775911D01*
X149541747Y-108093174D01*
X149881872Y-108336796D01*
X150162516Y-108458272D01*
X150193359Y-108482758D01*
X150100138Y-108500556D01*
X149881858Y-108511774D01*
X149621875Y-108516042D01*
X148907500Y-108521500D01*
X148908894Y-107838875D01*
X148910289Y-107156250D01*
X149027541Y-107414401D01*
G36*
X148524992Y-107743625D02*
G01*
X148526500Y-108521500D01*
X147812125Y-108520879D01*
X147097750Y-108520259D01*
X147415250Y-108369719D01*
X147811425Y-108113335D01*
X148136713Y-107760410D01*
X148369197Y-107341046D01*
X148523485Y-106965750D01*
X148524992Y-107743625D01*
X148524992Y-107743625D01*
G37*
X148524992Y-107743625D02*
X148526500Y-108521500D01*
X147812125Y-108520879D01*
X147097750Y-108520259D01*
X147415250Y-108369719D01*
X147811425Y-108113335D01*
X148136713Y-107760410D01*
X148369197Y-107341046D01*
X148523485Y-106965750D01*
X148524992Y-107743625D01*
G36*
X144974839Y-107494124D02*
G01*
X145223418Y-107880290D01*
X145536026Y-108188539D01*
X145889086Y-108396453D01*
X145947469Y-108418810D01*
X146055903Y-108458857D01*
X146102767Y-108485484D01*
X146074291Y-108501659D01*
X145956708Y-108510351D01*
X145736249Y-108514527D01*
X145494375Y-108516486D01*
X144780000Y-108521500D01*
X144780000Y-107104215D01*
X144974839Y-107494124D01*
X144974839Y-107494124D01*
G37*
X144974839Y-107494124D02*
X145223418Y-107880290D01*
X145536026Y-108188539D01*
X145889086Y-108396453D01*
X145947469Y-108418810D01*
X146055903Y-108458857D01*
X146102767Y-108485484D01*
X146074291Y-108501659D01*
X145956708Y-108510351D01*
X145736249Y-108514527D01*
X145494375Y-108516486D01*
X144780000Y-108521500D01*
X144780000Y-107104215D01*
X144974839Y-107494124D01*
G36*
X144395968Y-107743625D02*
G01*
X144399000Y-108521500D01*
X143684625Y-108520879D01*
X142970250Y-108520259D01*
X143287750Y-108369788D01*
X143708829Y-108104172D01*
X144037742Y-107752363D01*
X144269206Y-107320234D01*
X144294281Y-107251500D01*
X144392937Y-106965750D01*
X144395968Y-107743625D01*
X144395968Y-107743625D01*
G37*
X144395968Y-107743625D02*
X144399000Y-108521500D01*
X143684625Y-108520879D01*
X142970250Y-108520259D01*
X143287750Y-108369788D01*
X143708829Y-108104172D01*
X144037742Y-107752363D01*
X144269206Y-107320234D01*
X144294281Y-107251500D01*
X144392937Y-106965750D01*
X144395968Y-107743625D01*
G36*
X140720190Y-107205217D02*
G01*
X140740166Y-107258975D01*
X140940454Y-107682219D01*
X141214688Y-108016164D01*
X141581753Y-108281013D01*
X141797305Y-108389911D01*
X142081250Y-108518710D01*
X140652500Y-108521500D01*
X140655287Y-107775375D01*
X140657461Y-107463441D01*
X140662734Y-107264482D01*
X140673409Y-107164474D01*
X140691793Y-107149394D01*
X140720190Y-107205217D01*
X140720190Y-107205217D01*
G37*
X140720190Y-107205217D02*
X140740166Y-107258975D01*
X140940454Y-107682219D01*
X141214688Y-108016164D01*
X141581753Y-108281013D01*
X141797305Y-108389911D01*
X142081250Y-108518710D01*
X140652500Y-108521500D01*
X140655287Y-107775375D01*
X140657461Y-107463441D01*
X140662734Y-107264482D01*
X140673409Y-107164474D01*
X140691793Y-107149394D01*
X140720190Y-107205217D01*
G36*
X138046029Y-107775375D02*
G01*
X138049000Y-108521500D01*
X137334625Y-108516486D01*
X137031315Y-108512495D01*
X136841977Y-108504430D01*
X136753599Y-108490481D01*
X136753172Y-108468837D01*
X136810750Y-108443569D01*
X137231395Y-108228185D01*
X137580531Y-107911674D01*
X137848227Y-107503981D01*
X137927236Y-107325422D01*
X138043059Y-107029250D01*
X138046029Y-107775375D01*
X138046029Y-107775375D01*
G37*
X138046029Y-107775375D02*
X138049000Y-108521500D01*
X137334625Y-108516486D01*
X137031315Y-108512495D01*
X136841977Y-108504430D01*
X136753599Y-108490481D01*
X136753172Y-108468837D01*
X136810750Y-108443569D01*
X137231395Y-108228185D01*
X137580531Y-107911674D01*
X137848227Y-107503981D01*
X137927236Y-107325422D01*
X138043059Y-107029250D01*
X138046029Y-107775375D01*
G36*
X134407218Y-107251500D02*
G01*
X134616828Y-107686938D01*
X134919680Y-108040147D01*
X135323262Y-108319418D01*
X135413750Y-108365683D01*
X135731250Y-108520259D01*
X135016875Y-108520879D01*
X134302500Y-108521500D01*
X134308562Y-106965750D01*
X134407218Y-107251500D01*
X134407218Y-107251500D01*
G37*
X134407218Y-107251500D02*
X134616828Y-107686938D01*
X134919680Y-108040147D01*
X135323262Y-108319418D01*
X135413750Y-108365683D01*
X135731250Y-108520259D01*
X135016875Y-108520879D01*
X134302500Y-108521500D01*
X134308562Y-106965750D01*
X134407218Y-107251500D01*
G36*
X128966992Y-107743625D02*
G01*
X128968500Y-108521500D01*
X128254125Y-108520879D01*
X127539750Y-108520259D01*
X127857250Y-108369719D01*
X128253425Y-108113335D01*
X128578713Y-107760410D01*
X128811197Y-107341046D01*
X128965485Y-106965750D01*
X128966992Y-107743625D01*
X128966992Y-107743625D01*
G37*
X128966992Y-107743625D02*
X128968500Y-108521500D01*
X128254125Y-108520879D01*
X127539750Y-108520259D01*
X127857250Y-108369719D01*
X128253425Y-108113335D01*
X128578713Y-107760410D01*
X128811197Y-107341046D01*
X128965485Y-106965750D01*
X128966992Y-107743625D01*
G36*
X125288121Y-107201663D02*
G01*
X125313587Y-107270380D01*
X125524937Y-107690547D01*
X125827672Y-108049538D01*
X126198794Y-108323822D01*
X126460250Y-108443569D01*
X126523275Y-108473022D01*
X126509208Y-108493269D01*
X126405039Y-108506120D01*
X126197760Y-108513387D01*
X125936375Y-108516486D01*
X125222000Y-108521500D01*
X125224787Y-107775375D01*
X125226798Y-107462574D01*
X125231678Y-107262788D01*
X125241886Y-107162030D01*
X125259881Y-107146317D01*
X125288121Y-107201663D01*
X125288121Y-107201663D01*
G37*
X125288121Y-107201663D02*
X125313587Y-107270380D01*
X125524937Y-107690547D01*
X125827672Y-108049538D01*
X126198794Y-108323822D01*
X126460250Y-108443569D01*
X126523275Y-108473022D01*
X126509208Y-108493269D01*
X126405039Y-108506120D01*
X126197760Y-108513387D01*
X125936375Y-108516486D01*
X125222000Y-108521500D01*
X125224787Y-107775375D01*
X125226798Y-107462574D01*
X125231678Y-107262788D01*
X125241886Y-107162030D01*
X125259881Y-107146317D01*
X125288121Y-107201663D01*
G36*
X133477000Y-110077250D02*
G01*
X133474420Y-110364756D01*
X133467410Y-110598973D01*
X133457057Y-110754834D01*
X133445250Y-110807500D01*
X133418532Y-110754638D01*
X133413500Y-110692932D01*
X133373921Y-110556338D01*
X133270371Y-110362229D01*
X133125631Y-110145840D01*
X132962481Y-109942410D01*
X132859222Y-109835566D01*
X132693840Y-109712922D01*
X132466591Y-109583198D01*
X132295061Y-109503698D01*
X131921250Y-109350014D01*
X133477000Y-109347000D01*
X133477000Y-110077250D01*
X133477000Y-110077250D01*
G37*
X133477000Y-110077250D02*
X133474420Y-110364756D01*
X133467410Y-110598973D01*
X133457057Y-110754834D01*
X133445250Y-110807500D01*
X133418532Y-110754638D01*
X133413500Y-110692932D01*
X133373921Y-110556338D01*
X133270371Y-110362229D01*
X133125631Y-110145840D01*
X132962481Y-109942410D01*
X132859222Y-109835566D01*
X132693840Y-109712922D01*
X132466591Y-109583198D01*
X132295061Y-109503698D01*
X131921250Y-109350014D01*
X133477000Y-109347000D01*
X133477000Y-110077250D01*
G36*
X130974453Y-109503182D02*
G01*
X130536104Y-109749404D01*
X130182309Y-110090276D01*
X129914602Y-110521750D01*
X129733974Y-110902750D01*
X129762250Y-109378750D01*
X130556000Y-109363261D01*
X131349750Y-109347773D01*
X130974453Y-109503182D01*
X130974453Y-109503182D01*
G37*
X130974453Y-109503182D02*
X130536104Y-109749404D01*
X130182309Y-110090276D01*
X129914602Y-110521750D01*
X129733974Y-110902750D01*
X129762250Y-109378750D01*
X130556000Y-109363261D01*
X131349750Y-109347773D01*
X130974453Y-109503182D01*
G36*
X132080000Y-110902750D02*
G01*
X132081917Y-111183127D01*
X132090977Y-111360081D01*
X132112138Y-111457171D01*
X132150360Y-111497953D01*
X132207000Y-111506000D01*
X132313128Y-111550901D01*
X132334000Y-111633000D01*
X132289098Y-111739128D01*
X132207000Y-111760000D01*
X132119468Y-111784861D01*
X132084151Y-111881916D01*
X132080000Y-111982250D01*
X132065793Y-112135429D01*
X132010333Y-112197235D01*
X131953000Y-112204500D01*
X131865468Y-112179638D01*
X131830151Y-112082583D01*
X131826000Y-111982250D01*
X131826000Y-111760000D01*
X131381500Y-111760000D01*
X131148745Y-111757072D01*
X131015474Y-111742530D01*
X130954205Y-111707735D01*
X130937455Y-111644049D01*
X130937000Y-111620275D01*
X130970804Y-111512227D01*
X130989323Y-111474899D01*
X131191000Y-111474899D01*
X131248150Y-111492646D01*
X131394265Y-111503906D01*
X131508500Y-111506000D01*
X131826000Y-111506000D01*
X131826000Y-111029750D01*
X131822061Y-110802089D01*
X131811641Y-110633685D01*
X131796838Y-110555575D01*
X131793833Y-110553500D01*
X131749046Y-110602556D01*
X131657524Y-110729574D01*
X131539046Y-110904322D01*
X131413388Y-111096573D01*
X131300329Y-111276096D01*
X131219647Y-111412662D01*
X131191000Y-111474899D01*
X130989323Y-111474899D01*
X131062334Y-111327739D01*
X131196768Y-111094609D01*
X131326390Y-110890025D01*
X131502828Y-110628063D01*
X131630941Y-110456312D01*
X131728422Y-110356492D01*
X131812963Y-110310321D01*
X131897890Y-110299500D01*
X132080000Y-110299500D01*
X132080000Y-110902750D01*
X132080000Y-110902750D01*
G37*
X132080000Y-110902750D02*
X132081917Y-111183127D01*
X132090977Y-111360081D01*
X132112138Y-111457171D01*
X132150360Y-111497953D01*
X132207000Y-111506000D01*
X132313128Y-111550901D01*
X132334000Y-111633000D01*
X132289098Y-111739128D01*
X132207000Y-111760000D01*
X132119468Y-111784861D01*
X132084151Y-111881916D01*
X132080000Y-111982250D01*
X132065793Y-112135429D01*
X132010333Y-112197235D01*
X131953000Y-112204500D01*
X131865468Y-112179638D01*
X131830151Y-112082583D01*
X131826000Y-111982250D01*
X131826000Y-111760000D01*
X131381500Y-111760000D01*
X131148745Y-111757072D01*
X131015474Y-111742530D01*
X130954205Y-111707735D01*
X130937455Y-111644049D01*
X130937000Y-111620275D01*
X130970804Y-111512227D01*
X130989323Y-111474899D01*
X131191000Y-111474899D01*
X131248150Y-111492646D01*
X131394265Y-111503906D01*
X131508500Y-111506000D01*
X131826000Y-111506000D01*
X131826000Y-111029750D01*
X131822061Y-110802089D01*
X131811641Y-110633685D01*
X131796838Y-110555575D01*
X131793833Y-110553500D01*
X131749046Y-110602556D01*
X131657524Y-110729574D01*
X131539046Y-110904322D01*
X131413388Y-111096573D01*
X131300329Y-111276096D01*
X131219647Y-111412662D01*
X131191000Y-111474899D01*
X130989323Y-111474899D01*
X131062334Y-111327739D01*
X131196768Y-111094609D01*
X131326390Y-110890025D01*
X131502828Y-110628063D01*
X131630941Y-110456312D01*
X131728422Y-110356492D01*
X131812963Y-110310321D01*
X131897890Y-110299500D01*
X132080000Y-110299500D01*
X132080000Y-110902750D01*
G36*
X133477000Y-113093500D02*
G01*
X132730875Y-113090712D01*
X132418941Y-113088538D01*
X132219982Y-113083265D01*
X132119974Y-113072590D01*
X132104894Y-113054206D01*
X132160717Y-113025809D01*
X132214475Y-113005833D01*
X132637719Y-112805545D01*
X132971664Y-112531311D01*
X133236513Y-112164246D01*
X133345411Y-111948694D01*
X133474210Y-111664750D01*
X133477000Y-113093500D01*
X133477000Y-113093500D01*
G37*
X133477000Y-113093500D02*
X132730875Y-113090712D01*
X132418941Y-113088538D01*
X132219982Y-113083265D01*
X132119974Y-113072590D01*
X132104894Y-113054206D01*
X132160717Y-113025809D01*
X132214475Y-113005833D01*
X132637719Y-112805545D01*
X132971664Y-112531311D01*
X133236513Y-112164246D01*
X133345411Y-111948694D01*
X133474210Y-111664750D01*
X133477000Y-113093500D01*
G36*
X129789675Y-111623844D02*
G01*
X129846209Y-111762427D01*
X129882399Y-111863976D01*
X130090097Y-112283118D01*
X130398785Y-112630567D01*
X130798682Y-112896751D01*
X131045119Y-113001912D01*
X131137735Y-113037647D01*
X131169595Y-113061957D01*
X131126767Y-113077146D01*
X130995318Y-113085519D01*
X130761316Y-113089382D01*
X130508375Y-113090712D01*
X129730500Y-113093500D01*
X129730500Y-112331500D01*
X129732509Y-112037326D01*
X129737986Y-111795914D01*
X129746098Y-111631805D01*
X129756017Y-111569539D01*
X129756280Y-111569500D01*
X129789675Y-111623844D01*
X129789675Y-111623844D01*
G37*
X129789675Y-111623844D02*
X129846209Y-111762427D01*
X129882399Y-111863976D01*
X130090097Y-112283118D01*
X130398785Y-112630567D01*
X130798682Y-112896751D01*
X131045119Y-113001912D01*
X131137735Y-113037647D01*
X131169595Y-113061957D01*
X131126767Y-113077146D01*
X130995318Y-113085519D01*
X130761316Y-113089382D01*
X130508375Y-113090712D01*
X129730500Y-113093500D01*
X129730500Y-112331500D01*
X129732509Y-112037326D01*
X129737986Y-111795914D01*
X129746098Y-111631805D01*
X129756017Y-111569539D01*
X129756280Y-111569500D01*
X129789675Y-111623844D01*
D11*
X117112000Y-118123000D02*
X143782000Y-118123000D01*
X117112000Y-123203000D02*
X117112000Y-115583000D01*
X143782000Y-123203000D02*
X117112000Y-123203000D01*
X143782000Y-115583000D02*
X143782000Y-123203000D01*
X117112000Y-115583000D02*
X143782000Y-115583000D01*
X128323000Y-97314600D02*
X132823000Y-97314600D01*
X127073000Y-93314600D02*
X127073000Y-94814600D01*
X132823000Y-90814600D02*
X128323000Y-90814600D01*
X134073000Y-94814600D02*
X134073000Y-93314600D01*
X145729000Y-94814600D02*
X145729000Y-93314600D01*
X144479000Y-90814600D02*
X139979000Y-90814600D01*
X138729000Y-93314600D02*
X138729000Y-94814600D01*
X139979000Y-97314600D02*
X144479000Y-97314600D01*
X151636000Y-97314600D02*
X156136000Y-97314600D01*
X150386000Y-93314600D02*
X150386000Y-94814600D01*
X156136000Y-90814600D02*
X151636000Y-90814600D01*
X157386000Y-94814600D02*
X157386000Y-93314600D01*
X169043000Y-94814600D02*
X169043000Y-93314600D01*
X167793000Y-90814600D02*
X163293000Y-90814600D01*
X162043000Y-93314600D02*
X162043000Y-94814600D01*
X163293000Y-97314600D02*
X167793000Y-97314600D01*
X81701000Y-97314600D02*
X86201000Y-97314600D01*
X80451000Y-93314600D02*
X80451000Y-94814600D01*
X86201000Y-90814600D02*
X81701000Y-90814600D01*
X87451000Y-94814600D02*
X87451000Y-93314600D01*
X111776000Y-94814600D02*
X111776000Y-93314600D01*
X110526000Y-90814600D02*
X106026000Y-90814600D01*
X104776000Y-93314600D02*
X104776000Y-94814600D01*
X106026000Y-97314600D02*
X110526000Y-97314600D01*
X93864000Y-85972300D02*
X98364000Y-85972300D01*
X92614000Y-81972300D02*
X92614000Y-83472300D01*
X98364000Y-79472300D02*
X93864000Y-79472300D01*
X99614000Y-83472300D02*
X99614000Y-81972300D01*
X99614000Y-106157000D02*
X99614000Y-104657000D01*
X98364000Y-102157000D02*
X93864000Y-102157000D01*
X92614000Y-104657000D02*
X92614000Y-106157000D01*
X93864000Y-108657000D02*
X98364000Y-108657000D01*
D12*
X129478666Y-113765380D02*
X129478666Y-114479666D01*
X129431047Y-114622523D01*
X129335809Y-114717761D01*
X129192952Y-114765380D01*
X129097714Y-114765380D01*
X130478666Y-114765380D02*
X129907238Y-114765380D01*
X130192952Y-114765380D02*
X130192952Y-113765380D01*
X130097714Y-113908238D01*
X130002476Y-114003476D01*
X129907238Y-114051095D01*
X140480095Y-116353000D02*
X140384857Y-116305380D01*
X140242000Y-116305380D01*
X140099142Y-116353000D01*
X140003904Y-116448238D01*
X139956285Y-116543476D01*
X139908666Y-116733952D01*
X139908666Y-116876809D01*
X139956285Y-117067285D01*
X140003904Y-117162523D01*
X140099142Y-117257761D01*
X140242000Y-117305380D01*
X140337238Y-117305380D01*
X140480095Y-117257761D01*
X140527714Y-117210142D01*
X140527714Y-116876809D01*
X140337238Y-116876809D01*
X140956285Y-117305380D02*
X140956285Y-116305380D01*
X141527714Y-117305380D01*
X141527714Y-116305380D01*
X142003904Y-117305380D02*
X142003904Y-116305380D01*
X142242000Y-116305380D01*
X142384857Y-116353000D01*
X142480095Y-116448238D01*
X142527714Y-116543476D01*
X142575333Y-116733952D01*
X142575333Y-116876809D01*
X142527714Y-117067285D01*
X142480095Y-117162523D01*
X142384857Y-117257761D01*
X142242000Y-117305380D01*
X142003904Y-117305380D01*
X136066761Y-116733952D02*
X135971523Y-116686333D01*
X135923904Y-116638714D01*
X135876285Y-116543476D01*
X135876285Y-116495857D01*
X135923904Y-116400619D01*
X135971523Y-116353000D01*
X136066761Y-116305380D01*
X136257238Y-116305380D01*
X136352476Y-116353000D01*
X136400095Y-116400619D01*
X136447714Y-116495857D01*
X136447714Y-116543476D01*
X136400095Y-116638714D01*
X136352476Y-116686333D01*
X136257238Y-116733952D01*
X136066761Y-116733952D01*
X135971523Y-116781571D01*
X135923904Y-116829190D01*
X135876285Y-116924428D01*
X135876285Y-117114904D01*
X135923904Y-117210142D01*
X135971523Y-117257761D01*
X136066761Y-117305380D01*
X136257238Y-117305380D01*
X136352476Y-117257761D01*
X136400095Y-117210142D01*
X136447714Y-117114904D01*
X136447714Y-116924428D01*
X136400095Y-116829190D01*
X136352476Y-116781571D01*
X136257238Y-116733952D01*
X133288666Y-116305380D02*
X133955333Y-116305380D01*
X133526761Y-117305380D01*
X131272476Y-116305380D02*
X131082000Y-116305380D01*
X130986761Y-116353000D01*
X130939142Y-116400619D01*
X130843904Y-116543476D01*
X130796285Y-116733952D01*
X130796285Y-117114904D01*
X130843904Y-117210142D01*
X130891523Y-117257761D01*
X130986761Y-117305380D01*
X131177238Y-117305380D01*
X131272476Y-117257761D01*
X131320095Y-117210142D01*
X131367714Y-117114904D01*
X131367714Y-116876809D01*
X131320095Y-116781571D01*
X131272476Y-116733952D01*
X131177238Y-116686333D01*
X130986761Y-116686333D01*
X130891523Y-116733952D01*
X130843904Y-116781571D01*
X130796285Y-116876809D01*
X128780095Y-116305380D02*
X128303904Y-116305380D01*
X128256285Y-116781571D01*
X128303904Y-116733952D01*
X128399142Y-116686333D01*
X128637238Y-116686333D01*
X128732476Y-116733952D01*
X128780095Y-116781571D01*
X128827714Y-116876809D01*
X128827714Y-117114904D01*
X128780095Y-117210142D01*
X128732476Y-117257761D01*
X128637238Y-117305380D01*
X128399142Y-117305380D01*
X128303904Y-117257761D01*
X128256285Y-117210142D01*
X126192476Y-116638714D02*
X126192476Y-117305380D01*
X125954380Y-116257761D02*
X125716285Y-116972047D01*
X126335333Y-116972047D01*
X123128666Y-116305380D02*
X123747714Y-116305380D01*
X123414380Y-116686333D01*
X123557238Y-116686333D01*
X123652476Y-116733952D01*
X123700095Y-116781571D01*
X123747714Y-116876809D01*
X123747714Y-117114904D01*
X123700095Y-117210142D01*
X123652476Y-117257761D01*
X123557238Y-117305380D01*
X123271523Y-117305380D01*
X123176285Y-117257761D01*
X123128666Y-117210142D01*
X120636285Y-116400619D02*
X120683904Y-116353000D01*
X120779142Y-116305380D01*
X121017238Y-116305380D01*
X121112476Y-116353000D01*
X121160095Y-116400619D01*
X121207714Y-116495857D01*
X121207714Y-116591095D01*
X121160095Y-116733952D01*
X120588666Y-117305380D01*
X121207714Y-117305380D01*
X118667714Y-117305380D02*
X118096285Y-117305380D01*
X118382000Y-117305380D02*
X118382000Y-116305380D01*
X118286761Y-116448238D01*
X118191523Y-116543476D01*
X118096285Y-116591095D01*
X129239666Y-90219361D02*
X129382523Y-90266980D01*
X129620619Y-90266980D01*
X129715857Y-90219361D01*
X129763476Y-90171742D01*
X129811095Y-90076504D01*
X129811095Y-89981266D01*
X129763476Y-89886028D01*
X129715857Y-89838409D01*
X129620619Y-89790790D01*
X129430142Y-89743171D01*
X129334904Y-89695552D01*
X129287285Y-89647933D01*
X129239666Y-89552695D01*
X129239666Y-89457457D01*
X129287285Y-89362219D01*
X129334904Y-89314600D01*
X129430142Y-89266980D01*
X129668238Y-89266980D01*
X129811095Y-89314600D01*
X130144428Y-89266980D02*
X130382523Y-90266980D01*
X130573000Y-89552695D01*
X130763476Y-90266980D01*
X131001571Y-89266980D01*
X131906333Y-90266980D02*
X131334904Y-90266980D01*
X131620619Y-90266980D02*
X131620619Y-89266980D01*
X131525380Y-89409838D01*
X131430142Y-89505076D01*
X131334904Y-89552695D01*
X140895666Y-90219361D02*
X141038523Y-90266980D01*
X141276619Y-90266980D01*
X141371857Y-90219361D01*
X141419476Y-90171742D01*
X141467095Y-90076504D01*
X141467095Y-89981266D01*
X141419476Y-89886028D01*
X141371857Y-89838409D01*
X141276619Y-89790790D01*
X141086142Y-89743171D01*
X140990904Y-89695552D01*
X140943285Y-89647933D01*
X140895666Y-89552695D01*
X140895666Y-89457457D01*
X140943285Y-89362219D01*
X140990904Y-89314600D01*
X141086142Y-89266980D01*
X141324238Y-89266980D01*
X141467095Y-89314600D01*
X141800428Y-89266980D02*
X142038523Y-90266980D01*
X142229000Y-89552695D01*
X142419476Y-90266980D01*
X142657571Y-89266980D01*
X142990904Y-89362219D02*
X143038523Y-89314600D01*
X143133761Y-89266980D01*
X143371857Y-89266980D01*
X143467095Y-89314600D01*
X143514714Y-89362219D01*
X143562333Y-89457457D01*
X143562333Y-89552695D01*
X143514714Y-89695552D01*
X142943285Y-90266980D01*
X143562333Y-90266980D01*
X152552666Y-90219361D02*
X152695523Y-90266980D01*
X152933619Y-90266980D01*
X153028857Y-90219361D01*
X153076476Y-90171742D01*
X153124095Y-90076504D01*
X153124095Y-89981266D01*
X153076476Y-89886028D01*
X153028857Y-89838409D01*
X152933619Y-89790790D01*
X152743142Y-89743171D01*
X152647904Y-89695552D01*
X152600285Y-89647933D01*
X152552666Y-89552695D01*
X152552666Y-89457457D01*
X152600285Y-89362219D01*
X152647904Y-89314600D01*
X152743142Y-89266980D01*
X152981238Y-89266980D01*
X153124095Y-89314600D01*
X153457428Y-89266980D02*
X153695523Y-90266980D01*
X153886000Y-89552695D01*
X154076476Y-90266980D01*
X154314571Y-89266980D01*
X154600285Y-89266980D02*
X155219333Y-89266980D01*
X154886000Y-89647933D01*
X155028857Y-89647933D01*
X155124095Y-89695552D01*
X155171714Y-89743171D01*
X155219333Y-89838409D01*
X155219333Y-90076504D01*
X155171714Y-90171742D01*
X155124095Y-90219361D01*
X155028857Y-90266980D01*
X154743142Y-90266980D01*
X154647904Y-90219361D01*
X154600285Y-90171742D01*
X164209666Y-90219361D02*
X164352523Y-90266980D01*
X164590619Y-90266980D01*
X164685857Y-90219361D01*
X164733476Y-90171742D01*
X164781095Y-90076504D01*
X164781095Y-89981266D01*
X164733476Y-89886028D01*
X164685857Y-89838409D01*
X164590619Y-89790790D01*
X164400142Y-89743171D01*
X164304904Y-89695552D01*
X164257285Y-89647933D01*
X164209666Y-89552695D01*
X164209666Y-89457457D01*
X164257285Y-89362219D01*
X164304904Y-89314600D01*
X164400142Y-89266980D01*
X164638238Y-89266980D01*
X164781095Y-89314600D01*
X165114428Y-89266980D02*
X165352523Y-90266980D01*
X165543000Y-89552695D01*
X165733476Y-90266980D01*
X165971571Y-89266980D01*
X166781095Y-89600314D02*
X166781095Y-90266980D01*
X166543000Y-89219361D02*
X166304904Y-89933647D01*
X166923952Y-89933647D01*
X82617666Y-90219361D02*
X82760523Y-90266980D01*
X82998619Y-90266980D01*
X83093857Y-90219361D01*
X83141476Y-90171742D01*
X83189095Y-90076504D01*
X83189095Y-89981266D01*
X83141476Y-89886028D01*
X83093857Y-89838409D01*
X82998619Y-89790790D01*
X82808142Y-89743171D01*
X82712904Y-89695552D01*
X82665285Y-89647933D01*
X82617666Y-89552695D01*
X82617666Y-89457457D01*
X82665285Y-89362219D01*
X82712904Y-89314600D01*
X82808142Y-89266980D01*
X83046238Y-89266980D01*
X83189095Y-89314600D01*
X83522428Y-89266980D02*
X83760523Y-90266980D01*
X83951000Y-89552695D01*
X84141476Y-90266980D01*
X84379571Y-89266980D01*
X85236714Y-89266980D02*
X84760523Y-89266980D01*
X84712904Y-89743171D01*
X84760523Y-89695552D01*
X84855761Y-89647933D01*
X85093857Y-89647933D01*
X85189095Y-89695552D01*
X85236714Y-89743171D01*
X85284333Y-89838409D01*
X85284333Y-90076504D01*
X85236714Y-90171742D01*
X85189095Y-90219361D01*
X85093857Y-90266980D01*
X84855761Y-90266980D01*
X84760523Y-90219361D01*
X84712904Y-90171742D01*
X106942666Y-90219361D02*
X107085523Y-90266980D01*
X107323619Y-90266980D01*
X107418857Y-90219361D01*
X107466476Y-90171742D01*
X107514095Y-90076504D01*
X107514095Y-89981266D01*
X107466476Y-89886028D01*
X107418857Y-89838409D01*
X107323619Y-89790790D01*
X107133142Y-89743171D01*
X107037904Y-89695552D01*
X106990285Y-89647933D01*
X106942666Y-89552695D01*
X106942666Y-89457457D01*
X106990285Y-89362219D01*
X107037904Y-89314600D01*
X107133142Y-89266980D01*
X107371238Y-89266980D01*
X107514095Y-89314600D01*
X107847428Y-89266980D02*
X108085523Y-90266980D01*
X108276000Y-89552695D01*
X108466476Y-90266980D01*
X108704571Y-89266980D01*
X109514095Y-89266980D02*
X109323619Y-89266980D01*
X109228380Y-89314600D01*
X109180761Y-89362219D01*
X109085523Y-89505076D01*
X109037904Y-89695552D01*
X109037904Y-90076504D01*
X109085523Y-90171742D01*
X109133142Y-90219361D01*
X109228380Y-90266980D01*
X109418857Y-90266980D01*
X109514095Y-90219361D01*
X109561714Y-90171742D01*
X109609333Y-90076504D01*
X109609333Y-89838409D01*
X109561714Y-89743171D01*
X109514095Y-89695552D01*
X109418857Y-89647933D01*
X109228380Y-89647933D01*
X109133142Y-89695552D01*
X109085523Y-89743171D01*
X109037904Y-89838409D01*
X94780666Y-78877061D02*
X94923523Y-78924680D01*
X95161619Y-78924680D01*
X95256857Y-78877061D01*
X95304476Y-78829442D01*
X95352095Y-78734204D01*
X95352095Y-78638966D01*
X95304476Y-78543728D01*
X95256857Y-78496109D01*
X95161619Y-78448490D01*
X94971142Y-78400871D01*
X94875904Y-78353252D01*
X94828285Y-78305633D01*
X94780666Y-78210395D01*
X94780666Y-78115157D01*
X94828285Y-78019919D01*
X94875904Y-77972300D01*
X94971142Y-77924680D01*
X95209238Y-77924680D01*
X95352095Y-77972300D01*
X95685428Y-77924680D02*
X95923523Y-78924680D01*
X96114000Y-78210395D01*
X96304476Y-78924680D01*
X96542571Y-77924680D01*
X96828285Y-77924680D02*
X97494952Y-77924680D01*
X97066380Y-78924680D01*
X94780666Y-101561761D02*
X94923523Y-101609380D01*
X95161619Y-101609380D01*
X95256857Y-101561761D01*
X95304476Y-101514142D01*
X95352095Y-101418904D01*
X95352095Y-101323666D01*
X95304476Y-101228428D01*
X95256857Y-101180809D01*
X95161619Y-101133190D01*
X94971142Y-101085571D01*
X94875904Y-101037952D01*
X94828285Y-100990333D01*
X94780666Y-100895095D01*
X94780666Y-100799857D01*
X94828285Y-100704619D01*
X94875904Y-100657000D01*
X94971142Y-100609380D01*
X95209238Y-100609380D01*
X95352095Y-100657000D01*
X95685428Y-100609380D02*
X95923523Y-101609380D01*
X96114000Y-100895095D01*
X96304476Y-101609380D01*
X96542571Y-100609380D01*
X97066380Y-101037952D02*
X96971142Y-100990333D01*
X96923523Y-100942714D01*
X96875904Y-100847476D01*
X96875904Y-100799857D01*
X96923523Y-100704619D01*
X96971142Y-100657000D01*
X97066380Y-100609380D01*
X97256857Y-100609380D01*
X97352095Y-100657000D01*
X97399714Y-100704619D01*
X97447333Y-100799857D01*
X97447333Y-100847476D01*
X97399714Y-100942714D01*
X97352095Y-100990333D01*
X97256857Y-101037952D01*
X97066380Y-101037952D01*
X96971142Y-101085571D01*
X96923523Y-101133190D01*
X96875904Y-101228428D01*
X96875904Y-101418904D01*
X96923523Y-101514142D01*
X96971142Y-101561761D01*
X97066380Y-101609380D01*
X97256857Y-101609380D01*
X97352095Y-101561761D01*
X97399714Y-101514142D01*
X97447333Y-101418904D01*
X97447333Y-101228428D01*
X97399714Y-101133190D01*
X97352095Y-101085571D01*
X97256857Y-101037952D01*
M02*
