M48
; DRILL file {KiCad 5.1.4-3.fc30} date nie, 22 wrz 2019, 12:31:00
; FORMAT={-:-/ absolute / inch / decimal}
; #@! TF.CreationDate,2019-09-22T12:31:00+02:00
; #@! TF.GenerationSoftware,Kicad,Pcbnew,5.1.4-3.fc30
; #@! TF.FileFunction,Plated,1,2,PTH
FMAT,2
INCH
T1C0.0300
T2C0.0433
%
G90
G05
T1
X4.6607Y-4.7005
X4.7607Y-4.7005
X4.8607Y-4.7005
X4.9607Y-4.7005
X5.0607Y-4.7005
X5.1607Y-4.7005
X5.2607Y-4.7005
X5.3607Y-4.7005
X5.5607Y-4.7005
T2
X3.6561Y-3.1682
X3.6561Y-3.3454
X3.912Y-3.1682
X3.912Y-3.3454
X3.6561Y-4.0613
X3.6561Y-4.2385
X3.912Y-4.0613
X3.912Y-4.2385
X3.1772Y-3.6147
X3.1772Y-3.7919
X3.4331Y-3.6147
X3.4331Y-3.7919
X5.0127Y-3.6147
X5.0127Y-3.7919
X5.2686Y-3.6147
X5.2686Y-3.7919
X4.1349Y-3.6147
X4.1349Y-3.7919
X4.3908Y-3.6147
X4.3908Y-3.7919
X6.3895Y-3.6147
X6.3895Y-3.7919
X6.6454Y-3.6147
X6.6454Y-3.7919
X5.4716Y-3.6147
X5.4716Y-3.7919
X5.7275Y-3.6147
X5.7275Y-3.7919
X5.9306Y-3.6147
X5.9306Y-3.7919
X6.1865Y-3.6147
X6.1865Y-3.7919
T0
M30
