%TF.GenerationSoftware,KiCad,Pcbnew,5.1.4-3.fc30*%
%TF.CreationDate,2019-10-19T14:32:08+02:00*%
%TF.ProjectId,ft232rl_converter_v1,66743233-3272-46c5-9f63-6f6e76657274,1.0*%
%TF.SameCoordinates,PX4fefde0PY4d83c00*%
%TF.FileFunction,Soldermask,Bot*%
%TF.FilePolarity,Negative*%
%FSLAX46Y46*%
G04 Gerber Fmt 4.6, Leading zero omitted, Abs format (unit mm)*
G04 Created by KiCad (PCBNEW 5.1.4-3.fc30) date 2019-10-19 14:32:08*
%MOMM*%
%LPD*%
G04 APERTURE LIST*
%ADD10C,0.150000*%
G04 APERTURE END LIST*
D10*
G36*
X35793642Y5850219D02*
G01*
X35939414Y5789838D01*
X35939416Y5789837D01*
X36070608Y5702178D01*
X36182178Y5590608D01*
X36269837Y5459416D01*
X36269838Y5459414D01*
X36330219Y5313642D01*
X36361000Y5158893D01*
X36361000Y5001107D01*
X36330219Y4846358D01*
X36269838Y4700586D01*
X36269837Y4700584D01*
X36182178Y4569392D01*
X36070608Y4457822D01*
X35939416Y4370163D01*
X35939415Y4370162D01*
X35939414Y4370162D01*
X35793642Y4309781D01*
X35638893Y4279000D01*
X35481107Y4279000D01*
X35326358Y4309781D01*
X35180586Y4370162D01*
X35180585Y4370162D01*
X35180584Y4370163D01*
X35049392Y4457822D01*
X34937822Y4569392D01*
X34850163Y4700584D01*
X34850162Y4700586D01*
X34789781Y4846358D01*
X34759000Y5001107D01*
X34759000Y5158893D01*
X34789781Y5313642D01*
X34850162Y5459414D01*
X34850163Y5459416D01*
X34937822Y5590608D01*
X35049392Y5702178D01*
X35180584Y5789837D01*
X35180586Y5789838D01*
X35326358Y5850219D01*
X35481107Y5881000D01*
X35638893Y5881000D01*
X35793642Y5850219D01*
X35793642Y5850219D01*
G37*
G36*
X40673642Y5850219D02*
G01*
X40819414Y5789838D01*
X40819416Y5789837D01*
X40950608Y5702178D01*
X41062178Y5590608D01*
X41149837Y5459416D01*
X41149838Y5459414D01*
X41210219Y5313642D01*
X41241000Y5158893D01*
X41241000Y5001107D01*
X41210219Y4846358D01*
X41149838Y4700586D01*
X41149837Y4700584D01*
X41062178Y4569392D01*
X40950608Y4457822D01*
X40819416Y4370163D01*
X40819415Y4370162D01*
X40819414Y4370162D01*
X40673642Y4309781D01*
X40518893Y4279000D01*
X40361107Y4279000D01*
X40206358Y4309781D01*
X40060586Y4370162D01*
X40060585Y4370162D01*
X40060584Y4370163D01*
X39929392Y4457822D01*
X39817822Y4569392D01*
X39730163Y4700584D01*
X39730162Y4700586D01*
X39669781Y4846358D01*
X39639000Y5001107D01*
X39639000Y5158893D01*
X39669781Y5313642D01*
X39730162Y5459414D01*
X39730163Y5459416D01*
X39817822Y5590608D01*
X39929392Y5702178D01*
X40060584Y5789837D01*
X40060586Y5789838D01*
X40206358Y5850219D01*
X40361107Y5881000D01*
X40518893Y5881000D01*
X40673642Y5850219D01*
X40673642Y5850219D01*
G37*
G36*
X57006442Y10673482D02*
G01*
X57072627Y10666963D01*
X57242466Y10615443D01*
X57398991Y10531778D01*
X57434729Y10502448D01*
X57536186Y10419186D01*
X57619448Y10317729D01*
X57648778Y10281991D01*
X57732443Y10125466D01*
X57783963Y9955627D01*
X57801359Y9779000D01*
X57783963Y9602373D01*
X57732443Y9432534D01*
X57648778Y9276009D01*
X57619448Y9240271D01*
X57536186Y9138814D01*
X57434729Y9055552D01*
X57398991Y9026222D01*
X57242466Y8942557D01*
X57072627Y8891037D01*
X57006442Y8884518D01*
X56940260Y8878000D01*
X56851740Y8878000D01*
X56785558Y8884518D01*
X56719373Y8891037D01*
X56549534Y8942557D01*
X56393009Y9026222D01*
X56357271Y9055552D01*
X56255814Y9138814D01*
X56172552Y9240271D01*
X56143222Y9276009D01*
X56059557Y9432534D01*
X56008037Y9602373D01*
X55990641Y9779000D01*
X56008037Y9955627D01*
X56059557Y10125466D01*
X56143222Y10281991D01*
X56172552Y10317729D01*
X56255814Y10419186D01*
X56357271Y10502448D01*
X56393009Y10531778D01*
X56549534Y10615443D01*
X56719373Y10666963D01*
X56785558Y10673482D01*
X56851740Y10680000D01*
X56940260Y10680000D01*
X57006442Y10673482D01*
X57006442Y10673482D01*
G37*
G36*
X57006443Y13213481D02*
G01*
X57072627Y13206963D01*
X57242466Y13155443D01*
X57398991Y13071778D01*
X57434729Y13042448D01*
X57536186Y12959186D01*
X57619448Y12857729D01*
X57648778Y12821991D01*
X57732443Y12665466D01*
X57783963Y12495627D01*
X57801359Y12319000D01*
X57783963Y12142373D01*
X57732443Y11972534D01*
X57648778Y11816009D01*
X57619448Y11780271D01*
X57536186Y11678814D01*
X57434729Y11595552D01*
X57398991Y11566222D01*
X57242466Y11482557D01*
X57072627Y11431037D01*
X57006443Y11424519D01*
X56940260Y11418000D01*
X56851740Y11418000D01*
X56785557Y11424519D01*
X56719373Y11431037D01*
X56549534Y11482557D01*
X56393009Y11566222D01*
X56357271Y11595552D01*
X56255814Y11678814D01*
X56172552Y11780271D01*
X56143222Y11816009D01*
X56059557Y11972534D01*
X56008037Y12142373D01*
X55990641Y12319000D01*
X56008037Y12495627D01*
X56059557Y12665466D01*
X56143222Y12821991D01*
X56172552Y12857729D01*
X56255814Y12959186D01*
X56357271Y13042448D01*
X56393009Y13071778D01*
X56549534Y13155443D01*
X56719373Y13206963D01*
X56785557Y13213481D01*
X56851740Y13220000D01*
X56940260Y13220000D01*
X57006443Y13213481D01*
X57006443Y13213481D01*
G37*
G36*
X57006443Y15753481D02*
G01*
X57072627Y15746963D01*
X57242466Y15695443D01*
X57398991Y15611778D01*
X57434729Y15582448D01*
X57536186Y15499186D01*
X57619448Y15397729D01*
X57648778Y15361991D01*
X57732443Y15205466D01*
X57783963Y15035627D01*
X57801359Y14859000D01*
X57783963Y14682373D01*
X57732443Y14512534D01*
X57648778Y14356009D01*
X57619448Y14320271D01*
X57536186Y14218814D01*
X57434729Y14135552D01*
X57398991Y14106222D01*
X57242466Y14022557D01*
X57072627Y13971037D01*
X57006442Y13964518D01*
X56940260Y13958000D01*
X56851740Y13958000D01*
X56785558Y13964518D01*
X56719373Y13971037D01*
X56549534Y14022557D01*
X56393009Y14106222D01*
X56357271Y14135552D01*
X56255814Y14218814D01*
X56172552Y14320271D01*
X56143222Y14356009D01*
X56059557Y14512534D01*
X56008037Y14682373D01*
X55990641Y14859000D01*
X56008037Y15035627D01*
X56059557Y15205466D01*
X56143222Y15361991D01*
X56172552Y15397729D01*
X56255814Y15499186D01*
X56357271Y15582448D01*
X56393009Y15611778D01*
X56549534Y15695443D01*
X56719373Y15746963D01*
X56785557Y15753481D01*
X56851740Y15760000D01*
X56940260Y15760000D01*
X57006443Y15753481D01*
X57006443Y15753481D01*
G37*
G36*
X57006443Y18293481D02*
G01*
X57072627Y18286963D01*
X57242466Y18235443D01*
X57398991Y18151778D01*
X57434729Y18122448D01*
X57536186Y18039186D01*
X57619448Y17937729D01*
X57648778Y17901991D01*
X57732443Y17745466D01*
X57783963Y17575627D01*
X57801359Y17399000D01*
X57783963Y17222373D01*
X57732443Y17052534D01*
X57648778Y16896009D01*
X57619448Y16860271D01*
X57536186Y16758814D01*
X57434729Y16675552D01*
X57398991Y16646222D01*
X57242466Y16562557D01*
X57072627Y16511037D01*
X57006443Y16504519D01*
X56940260Y16498000D01*
X56851740Y16498000D01*
X56785557Y16504519D01*
X56719373Y16511037D01*
X56549534Y16562557D01*
X56393009Y16646222D01*
X56357271Y16675552D01*
X56255814Y16758814D01*
X56172552Y16860271D01*
X56143222Y16896009D01*
X56059557Y17052534D01*
X56008037Y17222373D01*
X55990641Y17399000D01*
X56008037Y17575627D01*
X56059557Y17745466D01*
X56143222Y17901991D01*
X56172552Y17937729D01*
X56255814Y18039186D01*
X56357271Y18122448D01*
X56393009Y18151778D01*
X56549534Y18235443D01*
X56719373Y18286963D01*
X56785557Y18293481D01*
X56851740Y18300000D01*
X56940260Y18300000D01*
X57006443Y18293481D01*
X57006443Y18293481D01*
G37*
G36*
X57797000Y19038000D02*
G01*
X55995000Y19038000D01*
X55995000Y20840000D01*
X57797000Y20840000D01*
X57797000Y19038000D01*
X57797000Y19038000D01*
G37*
G36*
X42176000Y26404000D02*
G01*
X40374000Y26404000D01*
X40374000Y28206000D01*
X42176000Y28206000D01*
X42176000Y26404000D01*
X42176000Y26404000D01*
G37*
G36*
X24396000Y26404000D02*
G01*
X22594000Y26404000D01*
X22594000Y28206000D01*
X24396000Y28206000D01*
X24396000Y26404000D01*
X24396000Y26404000D01*
G37*
G36*
X18525442Y28199482D02*
G01*
X18591627Y28192963D01*
X18761466Y28141443D01*
X18917991Y28057778D01*
X18953729Y28028448D01*
X19055186Y27945186D01*
X19138448Y27843729D01*
X19167778Y27807991D01*
X19251443Y27651466D01*
X19302963Y27481627D01*
X19320359Y27305000D01*
X19302963Y27128373D01*
X19251443Y26958534D01*
X19167778Y26802009D01*
X19138448Y26766271D01*
X19055186Y26664814D01*
X18953729Y26581552D01*
X18917991Y26552222D01*
X18761466Y26468557D01*
X18591627Y26417037D01*
X18525443Y26410519D01*
X18459260Y26404000D01*
X18370740Y26404000D01*
X18304557Y26410519D01*
X18238373Y26417037D01*
X18068534Y26468557D01*
X17912009Y26552222D01*
X17876271Y26581552D01*
X17774814Y26664814D01*
X17691552Y26766271D01*
X17662222Y26802009D01*
X17578557Y26958534D01*
X17527037Y27128373D01*
X17509641Y27305000D01*
X17527037Y27481627D01*
X17578557Y27651466D01*
X17662222Y27807991D01*
X17691552Y27843729D01*
X17774814Y27945186D01*
X17876271Y28028448D01*
X17912009Y28057778D01*
X18068534Y28141443D01*
X18238373Y28192963D01*
X18304558Y28199482D01*
X18370740Y28206000D01*
X18459260Y28206000D01*
X18525442Y28199482D01*
X18525442Y28199482D01*
G37*
G36*
X21065442Y28199482D02*
G01*
X21131627Y28192963D01*
X21301466Y28141443D01*
X21457991Y28057778D01*
X21493729Y28028448D01*
X21595186Y27945186D01*
X21678448Y27843729D01*
X21707778Y27807991D01*
X21791443Y27651466D01*
X21842963Y27481627D01*
X21860359Y27305000D01*
X21842963Y27128373D01*
X21791443Y26958534D01*
X21707778Y26802009D01*
X21678448Y26766271D01*
X21595186Y26664814D01*
X21493729Y26581552D01*
X21457991Y26552222D01*
X21301466Y26468557D01*
X21131627Y26417037D01*
X21065443Y26410519D01*
X20999260Y26404000D01*
X20910740Y26404000D01*
X20844557Y26410519D01*
X20778373Y26417037D01*
X20608534Y26468557D01*
X20452009Y26552222D01*
X20416271Y26581552D01*
X20314814Y26664814D01*
X20231552Y26766271D01*
X20202222Y26802009D01*
X20118557Y26958534D01*
X20067037Y27128373D01*
X20049641Y27305000D01*
X20067037Y27481627D01*
X20118557Y27651466D01*
X20202222Y27807991D01*
X20231552Y27843729D01*
X20314814Y27945186D01*
X20416271Y28028448D01*
X20452009Y28057778D01*
X20608534Y28141443D01*
X20778373Y28192963D01*
X20844558Y28199482D01*
X20910740Y28206000D01*
X20999260Y28206000D01*
X21065442Y28199482D01*
X21065442Y28199482D01*
G37*
G36*
X43925442Y28199482D02*
G01*
X43991627Y28192963D01*
X44161466Y28141443D01*
X44317991Y28057778D01*
X44353729Y28028448D01*
X44455186Y27945186D01*
X44538448Y27843729D01*
X44567778Y27807991D01*
X44651443Y27651466D01*
X44702963Y27481627D01*
X44720359Y27305000D01*
X44702963Y27128373D01*
X44651443Y26958534D01*
X44567778Y26802009D01*
X44538448Y26766271D01*
X44455186Y26664814D01*
X44353729Y26581552D01*
X44317991Y26552222D01*
X44161466Y26468557D01*
X43991627Y26417037D01*
X43925443Y26410519D01*
X43859260Y26404000D01*
X43770740Y26404000D01*
X43704557Y26410519D01*
X43638373Y26417037D01*
X43468534Y26468557D01*
X43312009Y26552222D01*
X43276271Y26581552D01*
X43174814Y26664814D01*
X43091552Y26766271D01*
X43062222Y26802009D01*
X42978557Y26958534D01*
X42927037Y27128373D01*
X42909641Y27305000D01*
X42927037Y27481627D01*
X42978557Y27651466D01*
X43062222Y27807991D01*
X43091552Y27843729D01*
X43174814Y27945186D01*
X43276271Y28028448D01*
X43312009Y28057778D01*
X43468534Y28141443D01*
X43638373Y28192963D01*
X43704558Y28199482D01*
X43770740Y28206000D01*
X43859260Y28206000D01*
X43925442Y28199482D01*
X43925442Y28199482D01*
G37*
G36*
X46465442Y28199482D02*
G01*
X46531627Y28192963D01*
X46701466Y28141443D01*
X46857991Y28057778D01*
X46893729Y28028448D01*
X46995186Y27945186D01*
X47078448Y27843729D01*
X47107778Y27807991D01*
X47191443Y27651466D01*
X47242963Y27481627D01*
X47260359Y27305000D01*
X47242963Y27128373D01*
X47191443Y26958534D01*
X47107778Y26802009D01*
X47078448Y26766271D01*
X46995186Y26664814D01*
X46893729Y26581552D01*
X46857991Y26552222D01*
X46701466Y26468557D01*
X46531627Y26417037D01*
X46465443Y26410519D01*
X46399260Y26404000D01*
X46310740Y26404000D01*
X46244557Y26410519D01*
X46178373Y26417037D01*
X46008534Y26468557D01*
X45852009Y26552222D01*
X45816271Y26581552D01*
X45714814Y26664814D01*
X45631552Y26766271D01*
X45602222Y26802009D01*
X45518557Y26958534D01*
X45467037Y27128373D01*
X45449641Y27305000D01*
X45467037Y27481627D01*
X45518557Y27651466D01*
X45602222Y27807991D01*
X45631552Y27843729D01*
X45714814Y27945186D01*
X45816271Y28028448D01*
X45852009Y28057778D01*
X46008534Y28141443D01*
X46178373Y28192963D01*
X46244558Y28199482D01*
X46310740Y28206000D01*
X46399260Y28206000D01*
X46465442Y28199482D01*
X46465442Y28199482D01*
G37*
G36*
X49005442Y28199482D02*
G01*
X49071627Y28192963D01*
X49241466Y28141443D01*
X49397991Y28057778D01*
X49433729Y28028448D01*
X49535186Y27945186D01*
X49618448Y27843729D01*
X49647778Y27807991D01*
X49731443Y27651466D01*
X49782963Y27481627D01*
X49800359Y27305000D01*
X49782963Y27128373D01*
X49731443Y26958534D01*
X49647778Y26802009D01*
X49618448Y26766271D01*
X49535186Y26664814D01*
X49433729Y26581552D01*
X49397991Y26552222D01*
X49241466Y26468557D01*
X49071627Y26417037D01*
X49005443Y26410519D01*
X48939260Y26404000D01*
X48850740Y26404000D01*
X48784557Y26410519D01*
X48718373Y26417037D01*
X48548534Y26468557D01*
X48392009Y26552222D01*
X48356271Y26581552D01*
X48254814Y26664814D01*
X48171552Y26766271D01*
X48142222Y26802009D01*
X48058557Y26958534D01*
X48007037Y27128373D01*
X47989641Y27305000D01*
X48007037Y27481627D01*
X48058557Y27651466D01*
X48142222Y27807991D01*
X48171552Y27843729D01*
X48254814Y27945186D01*
X48356271Y28028448D01*
X48392009Y28057778D01*
X48548534Y28141443D01*
X48718373Y28192963D01*
X48784558Y28199482D01*
X48850740Y28206000D01*
X48939260Y28206000D01*
X49005442Y28199482D01*
X49005442Y28199482D01*
G37*
G36*
X51545442Y28199482D02*
G01*
X51611627Y28192963D01*
X51781466Y28141443D01*
X51937991Y28057778D01*
X51973729Y28028448D01*
X52075186Y27945186D01*
X52158448Y27843729D01*
X52187778Y27807991D01*
X52271443Y27651466D01*
X52322963Y27481627D01*
X52340359Y27305000D01*
X52322963Y27128373D01*
X52271443Y26958534D01*
X52187778Y26802009D01*
X52158448Y26766271D01*
X52075186Y26664814D01*
X51973729Y26581552D01*
X51937991Y26552222D01*
X51781466Y26468557D01*
X51611627Y26417037D01*
X51545443Y26410519D01*
X51479260Y26404000D01*
X51390740Y26404000D01*
X51324557Y26410519D01*
X51258373Y26417037D01*
X51088534Y26468557D01*
X50932009Y26552222D01*
X50896271Y26581552D01*
X50794814Y26664814D01*
X50711552Y26766271D01*
X50682222Y26802009D01*
X50598557Y26958534D01*
X50547037Y27128373D01*
X50529641Y27305000D01*
X50547037Y27481627D01*
X50598557Y27651466D01*
X50682222Y27807991D01*
X50711552Y27843729D01*
X50794814Y27945186D01*
X50896271Y28028448D01*
X50932009Y28057778D01*
X51088534Y28141443D01*
X51258373Y28192963D01*
X51324558Y28199482D01*
X51390740Y28206000D01*
X51479260Y28206000D01*
X51545442Y28199482D01*
X51545442Y28199482D01*
G37*
M02*
