%TF.GenerationSoftware,KiCad,Pcbnew,5.1.6-c6e7f7d~86~ubuntu18.04.1*%
%TF.CreationDate,2020-05-25T18:47:43+02:00*%
%TF.ProjectId,ft232rl_converter_v1,66743233-3272-46c5-9f63-6f6e76657274,1.0*%
%TF.SameCoordinates,PX4fefde0PY4d83c00*%
%TF.FileFunction,Other,Comment*%
%FSLAX46Y46*%
G04 Gerber Fmt 4.6, Leading zero omitted, Abs format (unit mm)*
G04 Created by KiCad (PCBNEW 5.1.6-c6e7f7d~86~ubuntu18.04.1) date 2020-05-25 18:47:43*
%MOMM*%
%LPD*%
G01*
G04 APERTURE LIST*
%ADD10C,0.150000*%
G04 APERTURE END LIST*
D10*
X-4387620Y11049524D02*
X-4387620Y11668572D01*
X-4006667Y11335239D01*
X-4006667Y11478096D01*
X-3959048Y11573334D01*
X-3911429Y11620953D01*
X-3816191Y11668572D01*
X-3578096Y11668572D01*
X-3482858Y11620953D01*
X-3435239Y11573334D01*
X-3387620Y11478096D01*
X-3387620Y11192381D01*
X-3435239Y11097143D01*
X-3482858Y11049524D01*
X-4387620Y12287620D02*
X-4387620Y12382858D01*
X-4340000Y12478096D01*
X-4292381Y12525715D01*
X-4197143Y12573334D01*
X-4006667Y12620953D01*
X-3768572Y12620953D01*
X-3578096Y12573334D01*
X-3482858Y12525715D01*
X-3435239Y12478096D01*
X-3387620Y12382858D01*
X-3387620Y12287620D01*
X-3435239Y12192381D01*
X-3482858Y12144762D01*
X-3578096Y12097143D01*
X-3768572Y12049524D01*
X-4006667Y12049524D01*
X-4197143Y12097143D01*
X-4292381Y12144762D01*
X-4340000Y12192381D01*
X-4387620Y12287620D01*
X-3435239Y13097143D02*
X-3387620Y13097143D01*
X-3292381Y13049524D01*
X-3244762Y13001905D01*
X-4054286Y13954286D02*
X-3387620Y13954286D01*
X-4435239Y13716191D02*
X-3720953Y13478096D01*
X-3720953Y14097143D01*
X-3959048Y14620953D02*
X-4006667Y14525715D01*
X-4054286Y14478096D01*
X-4149524Y14430477D01*
X-4197143Y14430477D01*
X-4292381Y14478096D01*
X-4340000Y14525715D01*
X-4387620Y14620953D01*
X-4387620Y14811429D01*
X-4340000Y14906667D01*
X-4292381Y14954286D01*
X-4197143Y15001905D01*
X-4149524Y15001905D01*
X-4054286Y14954286D01*
X-4006667Y14906667D01*
X-3959048Y14811429D01*
X-3959048Y14620953D01*
X-3911429Y14525715D01*
X-3863810Y14478096D01*
X-3768572Y14430477D01*
X-3578096Y14430477D01*
X-3482858Y14478096D01*
X-3435239Y14525715D01*
X-3387620Y14620953D01*
X-3387620Y14811429D01*
X-3435239Y14906667D01*
X-3482858Y14954286D01*
X-3578096Y15001905D01*
X-3768572Y15001905D01*
X-3863810Y14954286D01*
X-3911429Y14906667D01*
X-3959048Y14811429D01*
X-4387620Y15620953D02*
X-4387620Y15716191D01*
X-4340000Y15811429D01*
X-4292381Y15859048D01*
X-4197143Y15906667D01*
X-4006667Y15954286D01*
X-3768572Y15954286D01*
X-3578096Y15906667D01*
X-3482858Y15859048D01*
X-3435239Y15811429D01*
X-3387620Y15716191D01*
X-3387620Y15620953D01*
X-3435239Y15525715D01*
X-3482858Y15478096D01*
X-3578096Y15430477D01*
X-3768572Y15382858D01*
X-4006667Y15382858D01*
X-4197143Y15430477D01*
X-4292381Y15478096D01*
X-4340000Y15525715D01*
X-4387620Y15620953D01*
X-3387620Y17144762D02*
X-4054286Y17144762D01*
X-3959048Y17144762D02*
X-4006667Y17192381D01*
X-4054286Y17287620D01*
X-4054286Y17430477D01*
X-4006667Y17525715D01*
X-3911429Y17573334D01*
X-3387620Y17573334D01*
X-3911429Y17573334D02*
X-4006667Y17620953D01*
X-4054286Y17716191D01*
X-4054286Y17859048D01*
X-4006667Y17954286D01*
X-3911429Y18001905D01*
X-3387620Y18001905D01*
X-3387620Y18478096D02*
X-4054286Y18478096D01*
X-3959048Y18478096D02*
X-4006667Y18525715D01*
X-4054286Y18620953D01*
X-4054286Y18763810D01*
X-4006667Y18859048D01*
X-3911429Y18906667D01*
X-3387620Y18906667D01*
X-3911429Y18906667D02*
X-4006667Y18954286D01*
X-4054286Y19049524D01*
X-4054286Y19192381D01*
X-4006667Y19287620D01*
X-3911429Y19335239D01*
X-3387620Y19335239D01*
X-2540000Y0D02*
X-2540000Y30480000D01*
X0Y0D02*
X-3126421Y0D01*
X0Y30480000D02*
X-3126421Y30480000D01*
X-2540000Y30480000D02*
X-1953579Y29353496D01*
X-2540000Y30480000D02*
X-3126421Y29353496D01*
X-2540000Y0D02*
X-1953579Y1126504D01*
X-2540000Y0D02*
X-3126421Y1126504D01*
X26813333Y-3292380D02*
X26622857Y-3292380D01*
X26527619Y-3340000D01*
X26480000Y-3387619D01*
X26384761Y-3530476D01*
X26337142Y-3720952D01*
X26337142Y-4101904D01*
X26384761Y-4197142D01*
X26432380Y-4244761D01*
X26527619Y-4292380D01*
X26718095Y-4292380D01*
X26813333Y-4244761D01*
X26860952Y-4197142D01*
X26908571Y-4101904D01*
X26908571Y-3863809D01*
X26860952Y-3768571D01*
X26813333Y-3720952D01*
X26718095Y-3673333D01*
X26527619Y-3673333D01*
X26432380Y-3720952D01*
X26384761Y-3768571D01*
X26337142Y-3863809D01*
X27527619Y-3292380D02*
X27622857Y-3292380D01*
X27718095Y-3340000D01*
X27765714Y-3387619D01*
X27813333Y-3482857D01*
X27860952Y-3673333D01*
X27860952Y-3911428D01*
X27813333Y-4101904D01*
X27765714Y-4197142D01*
X27718095Y-4244761D01*
X27622857Y-4292380D01*
X27527619Y-4292380D01*
X27432380Y-4244761D01*
X27384761Y-4197142D01*
X27337142Y-4101904D01*
X27289523Y-3911428D01*
X27289523Y-3673333D01*
X27337142Y-3482857D01*
X27384761Y-3387619D01*
X27432380Y-3340000D01*
X27527619Y-3292380D01*
X28337142Y-4244761D02*
X28337142Y-4292380D01*
X28289523Y-4387619D01*
X28241904Y-4435238D01*
X28813333Y-4292380D02*
X29003809Y-4292380D01*
X29099047Y-4244761D01*
X29146666Y-4197142D01*
X29241904Y-4054285D01*
X29289523Y-3863809D01*
X29289523Y-3482857D01*
X29241904Y-3387619D01*
X29194285Y-3340000D01*
X29099047Y-3292380D01*
X28908571Y-3292380D01*
X28813333Y-3340000D01*
X28765714Y-3387619D01*
X28718095Y-3482857D01*
X28718095Y-3720952D01*
X28765714Y-3816190D01*
X28813333Y-3863809D01*
X28908571Y-3911428D01*
X29099047Y-3911428D01*
X29194285Y-3863809D01*
X29241904Y-3816190D01*
X29289523Y-3720952D01*
X30146666Y-3292380D02*
X29956190Y-3292380D01*
X29860952Y-3340000D01*
X29813333Y-3387619D01*
X29718095Y-3530476D01*
X29670476Y-3720952D01*
X29670476Y-4101904D01*
X29718095Y-4197142D01*
X29765714Y-4244761D01*
X29860952Y-4292380D01*
X30051428Y-4292380D01*
X30146666Y-4244761D01*
X30194285Y-4197142D01*
X30241904Y-4101904D01*
X30241904Y-3863809D01*
X30194285Y-3768571D01*
X30146666Y-3720952D01*
X30051428Y-3673333D01*
X29860952Y-3673333D01*
X29765714Y-3720952D01*
X29718095Y-3768571D01*
X29670476Y-3863809D01*
X30860952Y-3292380D02*
X30956190Y-3292380D01*
X31051428Y-3340000D01*
X31099047Y-3387619D01*
X31146666Y-3482857D01*
X31194285Y-3673333D01*
X31194285Y-3911428D01*
X31146666Y-4101904D01*
X31099047Y-4197142D01*
X31051428Y-4244761D01*
X30956190Y-4292380D01*
X30860952Y-4292380D01*
X30765714Y-4244761D01*
X30718095Y-4197142D01*
X30670476Y-4101904D01*
X30622857Y-3911428D01*
X30622857Y-3673333D01*
X30670476Y-3482857D01*
X30718095Y-3387619D01*
X30765714Y-3340000D01*
X30860952Y-3292380D01*
X32384761Y-4292380D02*
X32384761Y-3625714D01*
X32384761Y-3720952D02*
X32432380Y-3673333D01*
X32527619Y-3625714D01*
X32670476Y-3625714D01*
X32765714Y-3673333D01*
X32813333Y-3768571D01*
X32813333Y-4292380D01*
X32813333Y-3768571D02*
X32860952Y-3673333D01*
X32956190Y-3625714D01*
X33099047Y-3625714D01*
X33194285Y-3673333D01*
X33241904Y-3768571D01*
X33241904Y-4292380D01*
X33718095Y-4292380D02*
X33718095Y-3625714D01*
X33718095Y-3720952D02*
X33765714Y-3673333D01*
X33860952Y-3625714D01*
X34003809Y-3625714D01*
X34099047Y-3673333D01*
X34146666Y-3768571D01*
X34146666Y-4292380D01*
X34146666Y-3768571D02*
X34194285Y-3673333D01*
X34289523Y-3625714D01*
X34432380Y-3625714D01*
X34527619Y-3673333D01*
X34575238Y-3768571D01*
X34575238Y-4292380D01*
X0Y-2540000D02*
X60960000Y-2540000D01*
X0Y0D02*
X0Y-3126421D01*
X60960000Y0D02*
X60960000Y-3126421D01*
X60960000Y-2540000D02*
X59833496Y-3126421D01*
X60960000Y-2540000D02*
X59833496Y-1953579D01*
X0Y-2540000D02*
X1126504Y-3126421D01*
X0Y-2540000D02*
X1126504Y-1953579D01*
M02*
