M48
; DRILL file {KiCad 5.1.6-c6e7f7d~86~ubuntu18.04.1} date Mon May 25 18:47:48 2020
; FORMAT={-:-/ absolute / inch / decimal}
; #@! TF.CreationDate,2020-05-25T18:47:48+02:00
; #@! TF.GenerationSoftware,Kicad,Pcbnew,5.1.6-c6e7f7d~86~ubuntu18.04.1
FMAT,2
INCH
T1C0.0157
T2C0.0315
T3C0.0394
%
G90
G05
T1
X0.59Y0.6801
X0.59Y0.56
X0.93Y0.595
X1.23Y0.69
X1.2356Y0.5856
X1.36Y1.07
X1.38Y0.71
X1.4848Y0.8652
X1.87Y0.64
X1.88Y0.81
T2
X1.4Y0.2
X1.5921Y0.2
T3
X2.24Y0.785
X2.24Y0.685
X2.24Y0.585
X2.24Y0.485
X2.24Y0.385
X1.625Y1.075
X1.725Y1.075
X1.825Y1.075
X1.925Y1.075
X2.025Y1.075
X0.725Y1.075
X0.825Y1.075
X0.925Y1.075
T0
M30
