%TF.GenerationSoftware,KiCad,Pcbnew,5.1.6-c6e7f7d~86~ubuntu18.04.1*%
%TF.CreationDate,2020-05-25T18:47:43+02:00*%
%TF.ProjectId,ft232rl_converter_v1,66743233-3272-46c5-9f63-6f6e76657274,1.0*%
%TF.SameCoordinates,PX4fefde0PY4d83c00*%
%TF.FileFunction,Other,User*%
%FSLAX46Y46*%
G04 Gerber Fmt 4.6, Leading zero omitted, Abs format (unit mm)*
G04 Created by KiCad (PCBNEW 5.1.6-c6e7f7d~86~ubuntu18.04.1) date 2020-05-25 18:47:43*
%MOMM*%
%LPD*%
G01*
G04 APERTURE LIST*
%ADD10C,0.050000*%
G04 APERTURE END LIST*
D10*
%TO.C,U1*%
X40345000Y20625000D02*
X29345000Y20625000D01*
X40345000Y11125000D02*
X29345000Y11125000D01*
X40345000Y20625000D02*
X40345000Y11125000D01*
X29345000Y20625000D02*
X29345000Y11125000D01*
%TO.C,J3*%
X39475000Y25505000D02*
X53225000Y25505000D01*
X53225000Y25505000D02*
X53225000Y29105000D01*
X53225000Y29105000D02*
X39475000Y29105000D01*
X39475000Y29105000D02*
X39475000Y25505000D01*
%TO.C,Y1*%
X32060000Y7880000D02*
X32060000Y2280000D01*
X32060000Y2280000D02*
X43960000Y2280000D01*
X43960000Y2280000D02*
X43960000Y7880000D01*
X43960000Y7880000D02*
X32060000Y7880000D01*
%TO.C,FB1*%
X18960000Y20246700D02*
X18960000Y18006700D01*
X18960000Y18006700D02*
X14060000Y18006700D01*
X14060000Y18006700D02*
X14060000Y20246700D01*
X14060000Y20246700D02*
X18960000Y20246700D01*
%TO.C,J2*%
X55096000Y21739000D02*
X55096000Y7989000D01*
X55096000Y7989000D02*
X67446000Y7989000D01*
X67446000Y7989000D02*
X67446000Y21739000D01*
X67446000Y21739000D02*
X55096000Y21739000D01*
%TO.C,C1*%
X19775000Y17930000D02*
X19775000Y20170000D01*
X19775000Y20170000D02*
X24675000Y20170000D01*
X24675000Y20170000D02*
X24675000Y17930000D01*
X24675000Y17930000D02*
X19775000Y17930000D01*
%TO.C,C2*%
X14060000Y10945000D02*
X14060000Y13185000D01*
X14060000Y13185000D02*
X18960000Y13185000D01*
X18960000Y13185000D02*
X18960000Y10945000D01*
X18960000Y10945000D02*
X14060000Y10945000D01*
%TO.C,C3*%
X24675000Y13250000D02*
X24675000Y11010000D01*
X24675000Y11010000D02*
X19775000Y11010000D01*
X19775000Y11010000D02*
X19775000Y13250000D01*
X19775000Y13250000D02*
X24675000Y13250000D01*
%TO.C,C4*%
X46505000Y15785000D02*
X48745000Y15785000D01*
X48745000Y15785000D02*
X48745000Y10885000D01*
X48745000Y10885000D02*
X46505000Y10885000D01*
X46505000Y10885000D02*
X46505000Y15785000D01*
%TO.C,J1*%
X180000Y11275000D02*
X180000Y20475000D01*
X6780000Y11275000D02*
X180000Y11275000D01*
X6780000Y20475000D02*
X6780000Y11275000D01*
X180000Y20475000D02*
X6780000Y20475000D01*
%TO.C,JP1*%
X25295000Y29105000D02*
X16645000Y29105000D01*
X16645000Y29105000D02*
X16645000Y25505000D01*
X16645000Y25505000D02*
X25295000Y25505000D01*
X25295000Y25505000D02*
X25295000Y29105000D01*
%TO.C,R1*%
X33565000Y28425000D02*
X33565000Y26185000D01*
X33565000Y26185000D02*
X28665000Y26185000D01*
X28665000Y26185000D02*
X28665000Y28425000D01*
X28665000Y28425000D02*
X33565000Y28425000D01*
%TD*%
M02*
