%TF.GenerationSoftware,KiCad,Pcbnew,5.1.6-c6e7f7d~86~ubuntu18.04.1*%
%TF.CreationDate,2020-05-25T18:47:43+02:00*%
%TF.ProjectId,ft232rl_converter_v1,66743233-3272-46c5-9f63-6f6e76657274,1.0*%
%TF.SameCoordinates,PX4fefde0PY4d83c00*%
%TF.FileFunction,Copper,L1,Top*%
%TF.FilePolarity,Positive*%
%FSLAX46Y46*%
G04 Gerber Fmt 4.6, Leading zero omitted, Abs format (unit mm)*
G04 Created by KiCad (PCBNEW 5.1.6-c6e7f7d~86~ubuntu18.04.1) date 2020-05-25 18:47:43*
%MOMM*%
%LPD*%
G01*
G04 APERTURE LIST*
%TA.AperFunction,SMDPad,CuDef*%
%ADD10R,0.450000X1.750000*%
%TD*%
%TA.AperFunction,ComponentPad*%
%ADD11O,1.700000X1.700000*%
%TD*%
%TA.AperFunction,ComponentPad*%
%ADD12R,1.700000X1.700000*%
%TD*%
%TA.AperFunction,ComponentPad*%
%ADD13C,1.500000*%
%TD*%
%TA.AperFunction,SMDPad,CuDef*%
%ADD14R,1.900000X1.175000*%
%TD*%
%TA.AperFunction,SMDPad,CuDef*%
%ADD15R,1.900000X2.375000*%
%TD*%
%TA.AperFunction,SMDPad,CuDef*%
%ADD16R,2.100000X1.475000*%
%TD*%
%TA.AperFunction,SMDPad,CuDef*%
%ADD17R,1.380000X0.450000*%
%TD*%
%TA.AperFunction,ViaPad*%
%ADD18C,0.800000*%
%TD*%
%TA.AperFunction,Conductor*%
%ADD19C,0.300000*%
%TD*%
G04 APERTURE END LIST*
D10*
%TO.P,U1,28*%
%TO.N,Net-(U1-Pad28)*%
X39070000Y12275000D03*
%TO.P,U1,27*%
%TO.N,Net-(U1-Pad27)*%
X38420000Y12275000D03*
%TO.P,U1,26*%
%TO.N,Net-(U1-Pad26)*%
X37770000Y12275000D03*
%TO.P,U1,25*%
%TO.N,GND*%
X37120000Y12275000D03*
%TO.P,U1,24*%
%TO.N,N/C*%
X36470000Y12275000D03*
%TO.P,U1,23*%
%TO.N,Net-(U1-Pad23)*%
X35820000Y12275000D03*
%TO.P,U1,22*%
%TO.N,Net-(U1-Pad22)*%
X35170000Y12275000D03*
%TO.P,U1,21*%
%TO.N,GND*%
X34520000Y12275000D03*
%TO.P,U1,20*%
%TO.N,VCC*%
X33870000Y12275000D03*
%TO.P,U1,19*%
%TO.N,Net-(U1-Pad19)*%
X33220000Y12275000D03*
%TO.P,U1,18*%
%TO.N,GND*%
X32570000Y12275000D03*
%TO.P,U1,17*%
%TO.N,Net-(C3-Pad1)*%
X31920000Y12275000D03*
%TO.P,U1,16*%
%TO.N,Net-(J1-Pad2)*%
X31270000Y12275000D03*
%TO.P,U1,15*%
%TO.N,Net-(J1-Pad3)*%
X30620000Y12275000D03*
%TO.P,U1,14*%
%TO.N,Net-(R1-Pad2)*%
X30620000Y19475000D03*
%TO.P,U1,13*%
%TO.N,Net-(U1-Pad13)*%
X31270000Y19475000D03*
%TO.P,U1,12*%
%TO.N,Net-(U1-Pad12)*%
X31920000Y19475000D03*
%TO.P,U1,11*%
%TO.N,/CTS#*%
X32570000Y19475000D03*
%TO.P,U1,10*%
%TO.N,/DCD#*%
X33220000Y19475000D03*
%TO.P,U1,9*%
%TO.N,/DSR#*%
X33870000Y19475000D03*
%TO.P,U1,8*%
%TO.N,N/C*%
X34520000Y19475000D03*
%TO.P,U1,7*%
%TO.N,GND*%
X35170000Y19475000D03*
%TO.P,U1,6*%
%TO.N,/RI#*%
X35820000Y19475000D03*
%TO.P,U1,5*%
%TO.N,/RXD*%
X36470000Y19475000D03*
%TO.P,U1,4*%
%TO.N,/VCCIO*%
X37120000Y19475000D03*
%TO.P,U1,3*%
%TO.N,/RTS#*%
X37770000Y19475000D03*
%TO.P,U1,2*%
%TO.N,/DTR#*%
X38420000Y19475000D03*
%TO.P,U1,1*%
%TO.N,/TXD*%
X39070000Y19475000D03*
%TD*%
D11*
%TO.P,J3,5*%
%TO.N,/DTR#*%
X51435000Y27305000D03*
%TO.P,J3,4*%
%TO.N,/RTS#*%
X48895000Y27305000D03*
%TO.P,J3,3*%
%TO.N,/RI#*%
X46355000Y27305000D03*
%TO.P,J3,2*%
%TO.N,/DSR#*%
X43815000Y27305000D03*
D12*
%TO.P,J3,1*%
%TO.N,/DCD#*%
X41275000Y27305000D03*
%TD*%
D13*
%TO.P,Y1,2*%
%TO.N,Net-(U1-Pad28)*%
X40440000Y5080000D03*
%TO.P,Y1,1*%
%TO.N,Net-(U1-Pad27)*%
X35560000Y5080000D03*
%TD*%
%TO.P,FB1,2*%
%TO.N,Net-(C2-Pad1)*%
%TA.AperFunction,SMDPad,CuDef*%
G36*
G01*
X15735000Y19751700D02*
X15735000Y18501700D01*
G75*
G02*
X15485000Y18251700I-250000J0D01*
G01*
X14560000Y18251700D01*
G75*
G02*
X14310000Y18501700I0J250000D01*
G01*
X14310000Y19751700D01*
G75*
G02*
X14560000Y20001700I250000J0D01*
G01*
X15485000Y20001700D01*
G75*
G02*
X15735000Y19751700I0J-250000D01*
G01*
G37*
%TD.AperFunction*%
%TO.P,FB1,1*%
%TO.N,VCC*%
%TA.AperFunction,SMDPad,CuDef*%
G36*
G01*
X18710000Y19751700D02*
X18710000Y18501700D01*
G75*
G02*
X18460000Y18251700I-250000J0D01*
G01*
X17535000Y18251700D01*
G75*
G02*
X17285000Y18501700I0J250000D01*
G01*
X17285000Y19751700D01*
G75*
G02*
X17535000Y20001700I250000J0D01*
G01*
X18460000Y20001700D01*
G75*
G02*
X18710000Y19751700I0J-250000D01*
G01*
G37*
%TD.AperFunction*%
%TD*%
D11*
%TO.P,J2,5*%
%TO.N,GND*%
X56896000Y9779000D03*
%TO.P,J2,4*%
%TO.N,/RXD*%
X56896000Y12319000D03*
%TO.P,J2,3*%
%TO.N,/CTS#*%
X56896000Y14859000D03*
%TO.P,J2,2*%
%TO.N,/TXD*%
X56896000Y17399000D03*
D12*
%TO.P,J2,1*%
%TO.N,/VCCIO*%
X56896000Y19939000D03*
%TD*%
%TO.P,C1,2*%
%TO.N,GND*%
%TA.AperFunction,SMDPad,CuDef*%
G36*
G01*
X23000000Y18425000D02*
X23000000Y19675000D01*
G75*
G02*
X23250000Y19925000I250000J0D01*
G01*
X24175000Y19925000D01*
G75*
G02*
X24425000Y19675000I0J-250000D01*
G01*
X24425000Y18425000D01*
G75*
G02*
X24175000Y18175000I-250000J0D01*
G01*
X23250000Y18175000D01*
G75*
G02*
X23000000Y18425000I0J250000D01*
G01*
G37*
%TD.AperFunction*%
%TO.P,C1,1*%
%TO.N,VCC*%
%TA.AperFunction,SMDPad,CuDef*%
G36*
G01*
X20025000Y18425000D02*
X20025000Y19675000D01*
G75*
G02*
X20275000Y19925000I250000J0D01*
G01*
X21200000Y19925000D01*
G75*
G02*
X21450000Y19675000I0J-250000D01*
G01*
X21450000Y18425000D01*
G75*
G02*
X21200000Y18175000I-250000J0D01*
G01*
X20275000Y18175000D01*
G75*
G02*
X20025000Y18425000I0J250000D01*
G01*
G37*
%TD.AperFunction*%
%TD*%
%TO.P,C2,2*%
%TO.N,GND*%
%TA.AperFunction,SMDPad,CuDef*%
G36*
G01*
X17285000Y11440000D02*
X17285000Y12690000D01*
G75*
G02*
X17535000Y12940000I250000J0D01*
G01*
X18460000Y12940000D01*
G75*
G02*
X18710000Y12690000I0J-250000D01*
G01*
X18710000Y11440000D01*
G75*
G02*
X18460000Y11190000I-250000J0D01*
G01*
X17535000Y11190000D01*
G75*
G02*
X17285000Y11440000I0J250000D01*
G01*
G37*
%TD.AperFunction*%
%TO.P,C2,1*%
%TO.N,Net-(C2-Pad1)*%
%TA.AperFunction,SMDPad,CuDef*%
G36*
G01*
X14310000Y11440000D02*
X14310000Y12690000D01*
G75*
G02*
X14560000Y12940000I250000J0D01*
G01*
X15485000Y12940000D01*
G75*
G02*
X15735000Y12690000I0J-250000D01*
G01*
X15735000Y11440000D01*
G75*
G02*
X15485000Y11190000I-250000J0D01*
G01*
X14560000Y11190000D01*
G75*
G02*
X14310000Y11440000I0J250000D01*
G01*
G37*
%TD.AperFunction*%
%TD*%
%TO.P,C3,2*%
%TO.N,GND*%
%TA.AperFunction,SMDPad,CuDef*%
G36*
G01*
X21450000Y12755000D02*
X21450000Y11505000D01*
G75*
G02*
X21200000Y11255000I-250000J0D01*
G01*
X20275000Y11255000D01*
G75*
G02*
X20025000Y11505000I0J250000D01*
G01*
X20025000Y12755000D01*
G75*
G02*
X20275000Y13005000I250000J0D01*
G01*
X21200000Y13005000D01*
G75*
G02*
X21450000Y12755000I0J-250000D01*
G01*
G37*
%TD.AperFunction*%
%TO.P,C3,1*%
%TO.N,Net-(C3-Pad1)*%
%TA.AperFunction,SMDPad,CuDef*%
G36*
G01*
X24425000Y12755000D02*
X24425000Y11505000D01*
G75*
G02*
X24175000Y11255000I-250000J0D01*
G01*
X23250000Y11255000D01*
G75*
G02*
X23000000Y11505000I0J250000D01*
G01*
X23000000Y12755000D01*
G75*
G02*
X23250000Y13005000I250000J0D01*
G01*
X24175000Y13005000D01*
G75*
G02*
X24425000Y12755000I0J-250000D01*
G01*
G37*
%TD.AperFunction*%
%TD*%
%TO.P,C4,2*%
%TO.N,GND*%
%TA.AperFunction,SMDPad,CuDef*%
G36*
G01*
X47000000Y12560000D02*
X48250000Y12560000D01*
G75*
G02*
X48500000Y12310000I0J-250000D01*
G01*
X48500000Y11385000D01*
G75*
G02*
X48250000Y11135000I-250000J0D01*
G01*
X47000000Y11135000D01*
G75*
G02*
X46750000Y11385000I0J250000D01*
G01*
X46750000Y12310000D01*
G75*
G02*
X47000000Y12560000I250000J0D01*
G01*
G37*
%TD.AperFunction*%
%TO.P,C4,1*%
%TO.N,/VCCIO*%
%TA.AperFunction,SMDPad,CuDef*%
G36*
G01*
X47000000Y15535000D02*
X48250000Y15535000D01*
G75*
G02*
X48500000Y15285000I0J-250000D01*
G01*
X48500000Y14360000D01*
G75*
G02*
X48250000Y14110000I-250000J0D01*
G01*
X47000000Y14110000D01*
G75*
G02*
X46750000Y14360000I0J250000D01*
G01*
X46750000Y15285000D01*
G75*
G02*
X47000000Y15535000I250000J0D01*
G01*
G37*
%TD.AperFunction*%
%TD*%
D14*
%TO.P,J1,6*%
%TO.N,GND*%
X2880000Y15035000D03*
X2880000Y16715000D03*
D15*
X2880000Y12965000D03*
X2880000Y18785000D03*
D16*
X5180000Y13412500D03*
X5180000Y18337500D03*
D17*
%TO.P,J1,5*%
X5540000Y14575000D03*
%TO.P,J1,4*%
X5540000Y15225000D03*
%TO.P,J1,3*%
%TO.N,Net-(J1-Pad3)*%
X5540000Y15875000D03*
%TO.P,J1,2*%
%TO.N,Net-(J1-Pad2)*%
X5540000Y16525000D03*
%TO.P,J1,1*%
%TO.N,Net-(C2-Pad1)*%
X5540000Y17175000D03*
%TD*%
D11*
%TO.P,JP1,3*%
%TO.N,VCC*%
X18415000Y27305000D03*
%TO.P,JP1,2*%
%TO.N,/VCCIO*%
X20955000Y27305000D03*
D12*
%TO.P,JP1,1*%
%TO.N,Net-(C3-Pad1)*%
X23495000Y27305000D03*
%TD*%
%TO.P,R1,2*%
%TO.N,Net-(R1-Pad2)*%
%TA.AperFunction,SMDPad,CuDef*%
G36*
G01*
X30340000Y27930000D02*
X30340000Y26680000D01*
G75*
G02*
X30090000Y26430000I-250000J0D01*
G01*
X29165000Y26430000D01*
G75*
G02*
X28915000Y26680000I0J250000D01*
G01*
X28915000Y27930000D01*
G75*
G02*
X29165000Y28180000I250000J0D01*
G01*
X30090000Y28180000D01*
G75*
G02*
X30340000Y27930000I0J-250000D01*
G01*
G37*
%TD.AperFunction*%
%TO.P,R1,1*%
%TO.N,/VCCIO*%
%TA.AperFunction,SMDPad,CuDef*%
G36*
G01*
X33315000Y27930000D02*
X33315000Y26680000D01*
G75*
G02*
X33065000Y26430000I-250000J0D01*
G01*
X32140000Y26430000D01*
G75*
G02*
X31890000Y26680000I0J250000D01*
G01*
X31890000Y27930000D01*
G75*
G02*
X32140000Y28180000I250000J0D01*
G01*
X33065000Y28180000D01*
G75*
G02*
X33315000Y27930000I0J-250000D01*
G01*
G37*
%TD.AperFunction*%
%TD*%
D18*
%TO.N,GND*%
X31384669Y14874669D03*
X31242000Y17526000D03*
X35052000Y18034000D03*
%TO.N,Net-(C2-Pad1)*%
X14986000Y14224000D03*
X14986000Y17275000D03*
%TO.N,/VCCIO*%
X47752000Y20574000D03*
X47498000Y16256000D03*
X34544000Y27178000D03*
X37713891Y21976109D03*
%TO.N,Net-(C3-Pad1)*%
X23622000Y15113000D03*
%TD*%
D19*
%TO.N,GND*%
X5540000Y15225000D02*
X5540000Y14575000D01*
X5540000Y14050000D02*
X9430000Y10160000D01*
X5540000Y14575000D02*
X5540000Y14050000D01*
X16092500Y10160000D02*
X17997500Y12065000D01*
X9430000Y10160000D02*
X16092500Y10160000D01*
X20672500Y12065000D02*
X20737500Y12130000D01*
X17997500Y12065000D02*
X20672500Y12065000D01*
X3327500Y18337500D02*
X2880000Y18785000D01*
X5180000Y18337500D02*
X3327500Y18337500D01*
X2880000Y18785000D02*
X2880000Y16715000D01*
X2880000Y16715000D02*
X2880000Y15035000D01*
X2880000Y15035000D02*
X2880000Y12965000D01*
X4732500Y12965000D02*
X5180000Y13412500D01*
X2880000Y12965000D02*
X4732500Y12965000D01*
X32570000Y12275000D02*
X32570000Y11034880D01*
X31195110Y9659990D02*
X21582010Y9659990D01*
X32570000Y11034880D02*
X31195110Y9659990D01*
X20737500Y10504500D02*
X20737500Y12130000D01*
X21582010Y9659990D02*
X20737500Y10504500D01*
X32570000Y12275000D02*
X32570000Y13689338D01*
X32570000Y13689338D02*
X31384669Y14874669D01*
X24483847Y18278653D02*
X23712500Y19050000D01*
X24836501Y17925999D02*
X24483847Y18278653D01*
X30842001Y17925999D02*
X24836501Y17925999D01*
X31242000Y17526000D02*
X30842001Y17925999D01*
X31242000Y17526000D02*
X34544000Y14224000D01*
X45248500Y14224000D02*
X47625000Y11847500D01*
X34520000Y14200000D02*
X34520000Y12275000D01*
X34544000Y14224000D02*
X34520000Y14200000D01*
X37120000Y13244000D02*
X37045001Y13169001D01*
X37120000Y14188000D02*
X37120000Y13244000D01*
X37084000Y14224000D02*
X37120000Y14188000D01*
X37084000Y14224000D02*
X45248500Y14224000D01*
X34544000Y14224000D02*
X37084000Y14224000D01*
X37045001Y12349999D02*
X37120000Y12275000D01*
X37045001Y13169001D02*
X37045001Y12349999D01*
X54827500Y11847500D02*
X56896000Y9779000D01*
X47625000Y11847500D02*
X54827500Y11847500D01*
X35170000Y18152000D02*
X35170000Y19475000D01*
X35052000Y18034000D02*
X35170000Y18152000D01*
%TO.N,VCC*%
X18415000Y19544200D02*
X17997500Y19126700D01*
X18415000Y27305000D02*
X18415000Y19544200D01*
X20660800Y19126700D02*
X20737500Y19050000D01*
X17997500Y19126700D02*
X20660800Y19126700D01*
X20737500Y18075000D02*
X21540500Y17272000D01*
X20737500Y19050000D02*
X20737500Y18075000D01*
X33870000Y13450000D02*
X33870000Y12275000D01*
X30048000Y17272000D02*
X33870000Y13450000D01*
X21540500Y17272000D02*
X30048000Y17272000D01*
%TO.N,Net-(C2-Pad1)*%
X13070800Y17175000D02*
X15022500Y19126700D01*
X5540000Y17175000D02*
X13070800Y17175000D01*
X15022500Y12065000D02*
X15022500Y14187500D01*
X15022500Y14187500D02*
X14986000Y14224000D01*
X13170800Y17275000D02*
X13070800Y17175000D01*
X14986000Y17275000D02*
X13170800Y17275000D01*
%TO.N,/VCCIO*%
X21844000Y29464000D02*
X20955000Y28575000D01*
X31418500Y29464000D02*
X21844000Y29464000D01*
X32602500Y27305000D02*
X32602500Y28280000D01*
X20955000Y28575000D02*
X20955000Y27305000D01*
X32602500Y28280000D02*
X31418500Y29464000D01*
X55111000Y20574000D02*
X47752000Y20574000D01*
X56896000Y19939000D02*
X55746000Y19939000D01*
X55746000Y19939000D02*
X55111000Y20574000D01*
X47498000Y14949500D02*
X47625000Y14822500D01*
X47498000Y16256000D02*
X47498000Y14949500D01*
X32729500Y27178000D02*
X32602500Y27305000D01*
X34544000Y27178000D02*
X32729500Y27178000D01*
X37120000Y19475000D02*
X37120000Y21382218D01*
X37120000Y21382218D02*
X37713891Y21976109D01*
%TO.N,Net-(J1-Pad2)*%
X31270000Y13450000D02*
X31270000Y12275000D01*
X28195000Y16525000D02*
X31270000Y13450000D01*
X5540000Y16525000D02*
X28195000Y16525000D01*
%TO.N,Net-(J1-Pad3)*%
X30620000Y12925000D02*
X30620000Y12275000D01*
X27670000Y15875000D02*
X30620000Y12925000D01*
X5540000Y15875000D02*
X27670000Y15875000D01*
%TO.N,Net-(R1-Pad2)*%
X30095000Y19475000D02*
X30620000Y19475000D01*
X29627500Y19942500D02*
X30095000Y19475000D01*
X29627500Y27305000D02*
X29627500Y19942500D01*
%TO.N,Net-(U1-Pad27)*%
X38420000Y7940000D02*
X35560000Y5080000D01*
X38420000Y12275000D02*
X38420000Y7940000D01*
%TO.N,Net-(U1-Pad28)*%
X39070000Y6450000D02*
X40440000Y5080000D01*
X39070000Y12275000D02*
X39070000Y6450000D01*
%TO.N,/CTS#*%
X56896000Y14859000D02*
X55245000Y14859000D01*
X55245000Y14859000D02*
X52832000Y17272000D01*
X32570000Y18300000D02*
X32570000Y19475000D01*
X33598000Y17272000D02*
X32570000Y18300000D01*
X52832000Y17272000D02*
X33598000Y17272000D01*
%TO.N,/RXD*%
X56896000Y12319000D02*
X58420000Y13843000D01*
X54752119Y16059001D02*
X52523120Y18288000D01*
X57472001Y16059001D02*
X54752119Y16059001D01*
X58420000Y13843000D02*
X58420000Y15111002D01*
X58420000Y15111002D02*
X57472001Y16059001D01*
X36520001Y18249999D02*
X36470000Y18300000D01*
X36470000Y18300000D02*
X36470000Y19475000D01*
X52485119Y18249999D02*
X36520001Y18249999D01*
X52523120Y18288000D02*
X52485119Y18249999D01*
%TO.N,/TXD*%
X54820000Y19475000D02*
X39070000Y19475000D01*
X56896000Y17399000D02*
X54820000Y19475000D01*
%TO.N,/RI#*%
X46355000Y27305000D02*
X43180000Y24130000D01*
X43180000Y24130000D02*
X38807120Y24130000D01*
X35820000Y21142880D02*
X35820000Y19475000D01*
X38807120Y24130000D02*
X35820000Y21142880D01*
%TO.N,/DCD#*%
X33220000Y19475000D02*
X33220000Y24584000D01*
X35941000Y27305000D02*
X41275000Y27305000D01*
X33220000Y24584000D02*
X35941000Y27305000D01*
%TO.N,/DSR#*%
X33870000Y19475000D02*
X33870000Y22948000D01*
X33870000Y22948000D02*
X36322000Y25400000D01*
X41910000Y25400000D02*
X43815000Y27305000D01*
X36322000Y25400000D02*
X41910000Y25400000D01*
%TO.N,/DTR#*%
X38494999Y19549999D02*
X38420000Y19475000D01*
X38494999Y20630001D02*
X38494999Y19549999D01*
X51435000Y27305000D02*
X46355000Y22225000D01*
X40089998Y22225000D02*
X38494999Y20630001D01*
X46355000Y22225000D02*
X40089998Y22225000D01*
%TO.N,/RTS#*%
X48895000Y27305000D02*
X48895000Y26035000D01*
X48895000Y26035000D02*
X46355000Y23495000D01*
X37770000Y20650000D02*
X37770000Y19475000D01*
X40615000Y23495000D02*
X37770000Y20650000D01*
X46355000Y23495000D02*
X40615000Y23495000D01*
%TO.N,Net-(C3-Pad1)*%
X31845001Y12200001D02*
X31920000Y12275000D01*
X30988000Y10160000D02*
X31845001Y11017001D01*
X31845001Y11017001D02*
X31845001Y12200001D01*
X23712500Y12130000D02*
X25682500Y10160000D01*
X25682500Y10160000D02*
X30988000Y10160000D01*
X23712500Y12130000D02*
X23712500Y15022500D01*
X23712500Y15022500D02*
X23622000Y15113000D01*
%TD*%
M02*
