M48
; DRILL file {KiCad 5.1.6-c6e7f7d~86~ubuntu18.04.1} date Mon May 25 18:45:32 2020
; FORMAT={-:-/ absolute / inch / decimal}
; #@! TF.CreationDate,2020-05-25T18:45:32+02:00
; #@! TF.GenerationSoftware,Kicad,Pcbnew,5.1.6-c6e7f7d~86~ubuntu18.04.1
FMAT,2
INCH
T1C0.0394
T2C0.0400
%
G90
G05
T1
X0.1Y0.65
X0.1Y0.55
X0.1Y0.45
X0.1Y0.35
X0.1Y0.25
X0.6Y0.65
X0.6Y0.55
X0.6Y0.45
X0.6Y0.35
X0.6Y0.25
T2
X0.3Y0.65
X0.3Y0.55
X0.3Y0.45
X0.3Y0.35
X0.3Y0.25
X0.4Y0.65
X0.4Y0.55
X0.4Y0.45
X0.4Y0.35
X0.4Y0.25
T0
M30
