%TF.GenerationSoftware,KiCad,Pcbnew,5.1.6-c6e7f7d~86~ubuntu18.04.1*%
%TF.CreationDate,2020-05-25T18:45:29+02:00*%
%TF.ProjectId,avr-isp-to-pcb-adapter,6176722d-6973-4702-9d74-6f2d7063622d,1.0*%
%TF.SameCoordinates,PX76b1be0PY53920b0*%
%TF.FileFunction,Legend,Bot*%
%TF.FilePolarity,Positive*%
%FSLAX46Y46*%
G04 Gerber Fmt 4.6, Leading zero omitted, Abs format (unit mm)*
G04 Created by KiCad (PCBNEW 5.1.6-c6e7f7d~86~ubuntu18.04.1) date 2020-05-25 18:45:29*
%MOMM*%
%LPD*%
G01*
G04 APERTURE LIST*
%ADD10C,0.120000*%
%ADD11C,0.150000*%
%ADD12R,1.829200X1.829200*%
%ADD13O,1.829200X1.829200*%
%ADD14R,1.802000X1.802000*%
%ADD15O,1.802000X1.802000*%
G04 APERTURE END LIST*
D10*
%TO.C,J2*%
X3870000Y17840000D02*
X2540000Y17840000D01*
X3870000Y16510000D02*
X3870000Y17840000D01*
X3870000Y15240000D02*
X1210000Y15240000D01*
X1210000Y15240000D02*
X1210000Y5020000D01*
X3870000Y15240000D02*
X3870000Y5020000D01*
X3870000Y5020000D02*
X1210000Y5020000D01*
%TO.C,J3*%
X16570000Y5020000D02*
X13910000Y5020000D01*
X16570000Y15240000D02*
X16570000Y5020000D01*
X13910000Y15240000D02*
X13910000Y5020000D01*
X16570000Y15240000D02*
X13910000Y15240000D01*
X16570000Y16510000D02*
X16570000Y17840000D01*
X16570000Y17840000D02*
X15240000Y17840000D01*
%TO.C,J2*%
D11*
X2873333Y19387620D02*
X2873333Y18673334D01*
X2920952Y18530477D01*
X3016190Y18435239D01*
X3159047Y18387620D01*
X3254285Y18387620D01*
X2444761Y19292381D02*
X2397142Y19340000D01*
X2301904Y19387620D01*
X2063809Y19387620D01*
X1968571Y19340000D01*
X1920952Y19292381D01*
X1873333Y19197143D01*
X1873333Y19101905D01*
X1920952Y18959048D01*
X2492380Y18387620D01*
X1873333Y18387620D01*
%TO.C,J3*%
X15573333Y19387620D02*
X15573333Y18673334D01*
X15620952Y18530477D01*
X15716190Y18435239D01*
X15859047Y18387620D01*
X15954285Y18387620D01*
X15192380Y19387620D02*
X14573333Y19387620D01*
X14906666Y19006667D01*
X14763809Y19006667D01*
X14668571Y18959048D01*
X14620952Y18911429D01*
X14573333Y18816191D01*
X14573333Y18578096D01*
X14620952Y18482858D01*
X14668571Y18435239D01*
X14763809Y18387620D01*
X15049523Y18387620D01*
X15144761Y18435239D01*
X15192380Y18482858D01*
%TD*%
%LPC*%
D12*
%TO.C,J1*%
X7620000Y16510000D03*
D13*
X10160000Y16510000D03*
X7620000Y13970000D03*
X10160000Y13970000D03*
X7620000Y11430000D03*
X10160000Y11430000D03*
X7620000Y8890000D03*
X10160000Y8890000D03*
X7620000Y6350000D03*
X10160000Y6350000D03*
%TD*%
D14*
%TO.C,J2*%
X2540000Y16510000D03*
D15*
X2540000Y13970000D03*
X2540000Y11430000D03*
X2540000Y8890000D03*
X2540000Y6350000D03*
%TD*%
%TO.C,J3*%
X15240000Y6350000D03*
X15240000Y8890000D03*
X15240000Y11430000D03*
X15240000Y13970000D03*
D14*
X15240000Y16510000D03*
%TD*%
M02*
