%TF.GenerationSoftware,KiCad,Pcbnew,5.1.6-c6e7f7d~86~ubuntu18.04.1*%
%TF.CreationDate,2020-05-25T18:45:29+02:00*%
%TF.ProjectId,avr-isp-to-pcb-adapter,6176722d-6973-4702-9d74-6f2d7063622d,1.0*%
%TF.SameCoordinates,PX76b1be0PY53920b0*%
%TF.FileFunction,Legend,Top*%
%TF.FilePolarity,Positive*%
%FSLAX46Y46*%
G04 Gerber Fmt 4.6, Leading zero omitted, Abs format (unit mm)*
G04 Created by KiCad (PCBNEW 5.1.6-c6e7f7d~86~ubuntu18.04.1) date 2020-05-25 18:45:29*
%MOMM*%
%LPD*%
G01*
G04 APERTURE LIST*
%ADD10C,0.120000*%
%ADD11C,0.150000*%
%ADD12R,1.829200X1.829200*%
%ADD13O,1.829200X1.829200*%
%ADD14R,1.802000X1.802000*%
%ADD15O,1.802000X1.802000*%
G04 APERTURE END LIST*
D10*
%TO.C,J1*%
X3965000Y22110000D02*
X6505000Y22110000D01*
X3965000Y22110000D02*
X3965000Y19570000D01*
X4215000Y21860000D02*
X13565000Y21860000D01*
X4215000Y1000000D02*
X4215000Y21860000D01*
X13565000Y1000000D02*
X4215000Y1000000D01*
X13565000Y21860000D02*
X13565000Y1000000D01*
D11*
X8556666Y20867620D02*
X8556666Y20153334D01*
X8509047Y20010477D01*
X8413809Y19915239D01*
X8270952Y19867620D01*
X8175714Y19867620D01*
X9556666Y19867620D02*
X8985238Y19867620D01*
X9270952Y19867620D02*
X9270952Y20867620D01*
X9175714Y20724762D01*
X9080476Y20629524D01*
X8985238Y20581905D01*
%TD*%
%LPC*%
D12*
%TO.C,J1*%
X7620000Y16510000D03*
D13*
X10160000Y16510000D03*
X7620000Y13970000D03*
X10160000Y13970000D03*
X7620000Y11430000D03*
X10160000Y11430000D03*
X7620000Y8890000D03*
X10160000Y8890000D03*
X7620000Y6350000D03*
X10160000Y6350000D03*
%TD*%
D14*
%TO.C,J2*%
X2540000Y16510000D03*
D15*
X2540000Y13970000D03*
X2540000Y11430000D03*
X2540000Y8890000D03*
X2540000Y6350000D03*
%TD*%
%TO.C,J3*%
X15240000Y6350000D03*
X15240000Y8890000D03*
X15240000Y11430000D03*
X15240000Y13970000D03*
D14*
X15240000Y16510000D03*
%TD*%
M02*
