%TF.GenerationSoftware,KiCad,Pcbnew,5.1.6-c6e7f7d~86~ubuntu18.04.1*%
%TF.CreationDate,2020-05-25T18:45:29+02:00*%
%TF.ProjectId,avr-isp-to-pcb-adapter,6176722d-6973-4702-9d74-6f2d7063622d,1.0*%
%TF.SameCoordinates,PX76b1be0PY53920b0*%
%TF.FileFunction,Soldermask,Bot*%
%TF.FilePolarity,Negative*%
%FSLAX46Y46*%
G04 Gerber Fmt 4.6, Leading zero omitted, Abs format (unit mm)*
G04 Created by KiCad (PCBNEW 5.1.6-c6e7f7d~86~ubuntu18.04.1) date 2020-05-25 18:45:29*
%MOMM*%
%LPD*%
G01*
G04 APERTURE LIST*
%ADD10C,0.150000*%
G04 APERTURE END LIST*
D10*
G36*
X10426778Y7229453D02*
G01*
X10593224Y7160509D01*
X10743022Y7060417D01*
X10870417Y6933022D01*
X10970509Y6783224D01*
X11039453Y6616778D01*
X11074600Y6440082D01*
X11074600Y6259918D01*
X11039453Y6083222D01*
X10970509Y5916776D01*
X10870417Y5766978D01*
X10743022Y5639583D01*
X10593224Y5539491D01*
X10426778Y5470547D01*
X10250082Y5435400D01*
X10069918Y5435400D01*
X9893222Y5470547D01*
X9726776Y5539491D01*
X9576978Y5639583D01*
X9449583Y5766978D01*
X9349491Y5916776D01*
X9280547Y6083222D01*
X9245400Y6259918D01*
X9245400Y6440082D01*
X9280547Y6616778D01*
X9349491Y6783224D01*
X9449583Y6933022D01*
X9576978Y7060417D01*
X9726776Y7160509D01*
X9893222Y7229453D01*
X10069918Y7264600D01*
X10250082Y7264600D01*
X10426778Y7229453D01*
G37*
G36*
X7886778Y7229453D02*
G01*
X8053224Y7160509D01*
X8203022Y7060417D01*
X8330417Y6933022D01*
X8430509Y6783224D01*
X8499453Y6616778D01*
X8534600Y6440082D01*
X8534600Y6259918D01*
X8499453Y6083222D01*
X8430509Y5916776D01*
X8330417Y5766978D01*
X8203022Y5639583D01*
X8053224Y5539491D01*
X7886778Y5470547D01*
X7710082Y5435400D01*
X7529918Y5435400D01*
X7353222Y5470547D01*
X7186776Y5539491D01*
X7036978Y5639583D01*
X6909583Y5766978D01*
X6809491Y5916776D01*
X6740547Y6083222D01*
X6705400Y6259918D01*
X6705400Y6440082D01*
X6740547Y6616778D01*
X6809491Y6783224D01*
X6909583Y6933022D01*
X7036978Y7060417D01*
X7186776Y7160509D01*
X7353222Y7229453D01*
X7529918Y7264600D01*
X7710082Y7264600D01*
X7886778Y7229453D01*
G37*
G36*
X15353512Y7246073D02*
G01*
X15502812Y7216376D01*
X15666784Y7148456D01*
X15814354Y7049853D01*
X15939853Y6924354D01*
X16038456Y6776784D01*
X16106376Y6612812D01*
X16141000Y6438741D01*
X16141000Y6261259D01*
X16106376Y6087188D01*
X16038456Y5923216D01*
X15939853Y5775646D01*
X15814354Y5650147D01*
X15666784Y5551544D01*
X15502812Y5483624D01*
X15353512Y5453927D01*
X15328742Y5449000D01*
X15151258Y5449000D01*
X15126488Y5453927D01*
X14977188Y5483624D01*
X14813216Y5551544D01*
X14665646Y5650147D01*
X14540147Y5775646D01*
X14441544Y5923216D01*
X14373624Y6087188D01*
X14339000Y6261259D01*
X14339000Y6438741D01*
X14373624Y6612812D01*
X14441544Y6776784D01*
X14540147Y6924354D01*
X14665646Y7049853D01*
X14813216Y7148456D01*
X14977188Y7216376D01*
X15126488Y7246073D01*
X15151258Y7251000D01*
X15328742Y7251000D01*
X15353512Y7246073D01*
G37*
G36*
X2653512Y7246073D02*
G01*
X2802812Y7216376D01*
X2966784Y7148456D01*
X3114354Y7049853D01*
X3239853Y6924354D01*
X3338456Y6776784D01*
X3406376Y6612812D01*
X3441000Y6438741D01*
X3441000Y6261259D01*
X3406376Y6087188D01*
X3338456Y5923216D01*
X3239853Y5775646D01*
X3114354Y5650147D01*
X2966784Y5551544D01*
X2802812Y5483624D01*
X2653512Y5453927D01*
X2628742Y5449000D01*
X2451258Y5449000D01*
X2426488Y5453927D01*
X2277188Y5483624D01*
X2113216Y5551544D01*
X1965646Y5650147D01*
X1840147Y5775646D01*
X1741544Y5923216D01*
X1673624Y6087188D01*
X1639000Y6261259D01*
X1639000Y6438741D01*
X1673624Y6612812D01*
X1741544Y6776784D01*
X1840147Y6924354D01*
X1965646Y7049853D01*
X2113216Y7148456D01*
X2277188Y7216376D01*
X2426488Y7246073D01*
X2451258Y7251000D01*
X2628742Y7251000D01*
X2653512Y7246073D01*
G37*
G36*
X7886778Y9769453D02*
G01*
X8053224Y9700509D01*
X8203022Y9600417D01*
X8330417Y9473022D01*
X8430509Y9323224D01*
X8499453Y9156778D01*
X8534600Y8980082D01*
X8534600Y8799918D01*
X8499453Y8623222D01*
X8430509Y8456776D01*
X8330417Y8306978D01*
X8203022Y8179583D01*
X8053224Y8079491D01*
X7886778Y8010547D01*
X7710082Y7975400D01*
X7529918Y7975400D01*
X7353222Y8010547D01*
X7186776Y8079491D01*
X7036978Y8179583D01*
X6909583Y8306978D01*
X6809491Y8456776D01*
X6740547Y8623222D01*
X6705400Y8799918D01*
X6705400Y8980082D01*
X6740547Y9156778D01*
X6809491Y9323224D01*
X6909583Y9473022D01*
X7036978Y9600417D01*
X7186776Y9700509D01*
X7353222Y9769453D01*
X7529918Y9804600D01*
X7710082Y9804600D01*
X7886778Y9769453D01*
G37*
G36*
X10426778Y9769453D02*
G01*
X10593224Y9700509D01*
X10743022Y9600417D01*
X10870417Y9473022D01*
X10970509Y9323224D01*
X11039453Y9156778D01*
X11074600Y8980082D01*
X11074600Y8799918D01*
X11039453Y8623222D01*
X10970509Y8456776D01*
X10870417Y8306978D01*
X10743022Y8179583D01*
X10593224Y8079491D01*
X10426778Y8010547D01*
X10250082Y7975400D01*
X10069918Y7975400D01*
X9893222Y8010547D01*
X9726776Y8079491D01*
X9576978Y8179583D01*
X9449583Y8306978D01*
X9349491Y8456776D01*
X9280547Y8623222D01*
X9245400Y8799918D01*
X9245400Y8980082D01*
X9280547Y9156778D01*
X9349491Y9323224D01*
X9449583Y9473022D01*
X9576978Y9600417D01*
X9726776Y9700509D01*
X9893222Y9769453D01*
X10069918Y9804600D01*
X10250082Y9804600D01*
X10426778Y9769453D01*
G37*
G36*
X2653512Y9786073D02*
G01*
X2802812Y9756376D01*
X2966784Y9688456D01*
X3114354Y9589853D01*
X3239853Y9464354D01*
X3338456Y9316784D01*
X3406376Y9152812D01*
X3441000Y8978741D01*
X3441000Y8801259D01*
X3406376Y8627188D01*
X3338456Y8463216D01*
X3239853Y8315646D01*
X3114354Y8190147D01*
X2966784Y8091544D01*
X2802812Y8023624D01*
X2653512Y7993927D01*
X2628742Y7989000D01*
X2451258Y7989000D01*
X2426488Y7993927D01*
X2277188Y8023624D01*
X2113216Y8091544D01*
X1965646Y8190147D01*
X1840147Y8315646D01*
X1741544Y8463216D01*
X1673624Y8627188D01*
X1639000Y8801259D01*
X1639000Y8978741D01*
X1673624Y9152812D01*
X1741544Y9316784D01*
X1840147Y9464354D01*
X1965646Y9589853D01*
X2113216Y9688456D01*
X2277188Y9756376D01*
X2426488Y9786073D01*
X2451258Y9791000D01*
X2628742Y9791000D01*
X2653512Y9786073D01*
G37*
G36*
X15353512Y9786073D02*
G01*
X15502812Y9756376D01*
X15666784Y9688456D01*
X15814354Y9589853D01*
X15939853Y9464354D01*
X16038456Y9316784D01*
X16106376Y9152812D01*
X16141000Y8978741D01*
X16141000Y8801259D01*
X16106376Y8627188D01*
X16038456Y8463216D01*
X15939853Y8315646D01*
X15814354Y8190147D01*
X15666784Y8091544D01*
X15502812Y8023624D01*
X15353512Y7993927D01*
X15328742Y7989000D01*
X15151258Y7989000D01*
X15126488Y7993927D01*
X14977188Y8023624D01*
X14813216Y8091544D01*
X14665646Y8190147D01*
X14540147Y8315646D01*
X14441544Y8463216D01*
X14373624Y8627188D01*
X14339000Y8801259D01*
X14339000Y8978741D01*
X14373624Y9152812D01*
X14441544Y9316784D01*
X14540147Y9464354D01*
X14665646Y9589853D01*
X14813216Y9688456D01*
X14977188Y9756376D01*
X15126488Y9786073D01*
X15151258Y9791000D01*
X15328742Y9791000D01*
X15353512Y9786073D01*
G37*
G36*
X7886778Y12309453D02*
G01*
X8053224Y12240509D01*
X8203022Y12140417D01*
X8330417Y12013022D01*
X8430509Y11863224D01*
X8499453Y11696778D01*
X8534600Y11520082D01*
X8534600Y11339918D01*
X8499453Y11163222D01*
X8430509Y10996776D01*
X8330417Y10846978D01*
X8203022Y10719583D01*
X8053224Y10619491D01*
X7886778Y10550547D01*
X7710082Y10515400D01*
X7529918Y10515400D01*
X7353222Y10550547D01*
X7186776Y10619491D01*
X7036978Y10719583D01*
X6909583Y10846978D01*
X6809491Y10996776D01*
X6740547Y11163222D01*
X6705400Y11339918D01*
X6705400Y11520082D01*
X6740547Y11696778D01*
X6809491Y11863224D01*
X6909583Y12013022D01*
X7036978Y12140417D01*
X7186776Y12240509D01*
X7353222Y12309453D01*
X7529918Y12344600D01*
X7710082Y12344600D01*
X7886778Y12309453D01*
G37*
G36*
X10426778Y12309453D02*
G01*
X10593224Y12240509D01*
X10743022Y12140417D01*
X10870417Y12013022D01*
X10970509Y11863224D01*
X11039453Y11696778D01*
X11074600Y11520082D01*
X11074600Y11339918D01*
X11039453Y11163222D01*
X10970509Y10996776D01*
X10870417Y10846978D01*
X10743022Y10719583D01*
X10593224Y10619491D01*
X10426778Y10550547D01*
X10250082Y10515400D01*
X10069918Y10515400D01*
X9893222Y10550547D01*
X9726776Y10619491D01*
X9576978Y10719583D01*
X9449583Y10846978D01*
X9349491Y10996776D01*
X9280547Y11163222D01*
X9245400Y11339918D01*
X9245400Y11520082D01*
X9280547Y11696778D01*
X9349491Y11863224D01*
X9449583Y12013022D01*
X9576978Y12140417D01*
X9726776Y12240509D01*
X9893222Y12309453D01*
X10069918Y12344600D01*
X10250082Y12344600D01*
X10426778Y12309453D01*
G37*
G36*
X2653512Y12326073D02*
G01*
X2802812Y12296376D01*
X2966784Y12228456D01*
X3114354Y12129853D01*
X3239853Y12004354D01*
X3338456Y11856784D01*
X3406376Y11692812D01*
X3441000Y11518741D01*
X3441000Y11341259D01*
X3406376Y11167188D01*
X3338456Y11003216D01*
X3239853Y10855646D01*
X3114354Y10730147D01*
X2966784Y10631544D01*
X2802812Y10563624D01*
X2653512Y10533927D01*
X2628742Y10529000D01*
X2451258Y10529000D01*
X2426488Y10533927D01*
X2277188Y10563624D01*
X2113216Y10631544D01*
X1965646Y10730147D01*
X1840147Y10855646D01*
X1741544Y11003216D01*
X1673624Y11167188D01*
X1639000Y11341259D01*
X1639000Y11518741D01*
X1673624Y11692812D01*
X1741544Y11856784D01*
X1840147Y12004354D01*
X1965646Y12129853D01*
X2113216Y12228456D01*
X2277188Y12296376D01*
X2426488Y12326073D01*
X2451258Y12331000D01*
X2628742Y12331000D01*
X2653512Y12326073D01*
G37*
G36*
X15353512Y12326073D02*
G01*
X15502812Y12296376D01*
X15666784Y12228456D01*
X15814354Y12129853D01*
X15939853Y12004354D01*
X16038456Y11856784D01*
X16106376Y11692812D01*
X16141000Y11518741D01*
X16141000Y11341259D01*
X16106376Y11167188D01*
X16038456Y11003216D01*
X15939853Y10855646D01*
X15814354Y10730147D01*
X15666784Y10631544D01*
X15502812Y10563624D01*
X15353512Y10533927D01*
X15328742Y10529000D01*
X15151258Y10529000D01*
X15126488Y10533927D01*
X14977188Y10563624D01*
X14813216Y10631544D01*
X14665646Y10730147D01*
X14540147Y10855646D01*
X14441544Y11003216D01*
X14373624Y11167188D01*
X14339000Y11341259D01*
X14339000Y11518741D01*
X14373624Y11692812D01*
X14441544Y11856784D01*
X14540147Y12004354D01*
X14665646Y12129853D01*
X14813216Y12228456D01*
X14977188Y12296376D01*
X15126488Y12326073D01*
X15151258Y12331000D01*
X15328742Y12331000D01*
X15353512Y12326073D01*
G37*
G36*
X7886778Y14849453D02*
G01*
X8053224Y14780509D01*
X8203022Y14680417D01*
X8330417Y14553022D01*
X8430509Y14403224D01*
X8499453Y14236778D01*
X8534600Y14060082D01*
X8534600Y13879918D01*
X8499453Y13703222D01*
X8430509Y13536776D01*
X8330417Y13386978D01*
X8203022Y13259583D01*
X8053224Y13159491D01*
X7886778Y13090547D01*
X7710082Y13055400D01*
X7529918Y13055400D01*
X7353222Y13090547D01*
X7186776Y13159491D01*
X7036978Y13259583D01*
X6909583Y13386978D01*
X6809491Y13536776D01*
X6740547Y13703222D01*
X6705400Y13879918D01*
X6705400Y14060082D01*
X6740547Y14236778D01*
X6809491Y14403224D01*
X6909583Y14553022D01*
X7036978Y14680417D01*
X7186776Y14780509D01*
X7353222Y14849453D01*
X7529918Y14884600D01*
X7710082Y14884600D01*
X7886778Y14849453D01*
G37*
G36*
X10426778Y14849453D02*
G01*
X10593224Y14780509D01*
X10743022Y14680417D01*
X10870417Y14553022D01*
X10970509Y14403224D01*
X11039453Y14236778D01*
X11074600Y14060082D01*
X11074600Y13879918D01*
X11039453Y13703222D01*
X10970509Y13536776D01*
X10870417Y13386978D01*
X10743022Y13259583D01*
X10593224Y13159491D01*
X10426778Y13090547D01*
X10250082Y13055400D01*
X10069918Y13055400D01*
X9893222Y13090547D01*
X9726776Y13159491D01*
X9576978Y13259583D01*
X9449583Y13386978D01*
X9349491Y13536776D01*
X9280547Y13703222D01*
X9245400Y13879918D01*
X9245400Y14060082D01*
X9280547Y14236778D01*
X9349491Y14403224D01*
X9449583Y14553022D01*
X9576978Y14680417D01*
X9726776Y14780509D01*
X9893222Y14849453D01*
X10069918Y14884600D01*
X10250082Y14884600D01*
X10426778Y14849453D01*
G37*
G36*
X15353512Y14866073D02*
G01*
X15502812Y14836376D01*
X15666784Y14768456D01*
X15814354Y14669853D01*
X15939853Y14544354D01*
X16038456Y14396784D01*
X16106376Y14232812D01*
X16141000Y14058741D01*
X16141000Y13881259D01*
X16106376Y13707188D01*
X16038456Y13543216D01*
X15939853Y13395646D01*
X15814354Y13270147D01*
X15666784Y13171544D01*
X15502812Y13103624D01*
X15353512Y13073927D01*
X15328742Y13069000D01*
X15151258Y13069000D01*
X15126488Y13073927D01*
X14977188Y13103624D01*
X14813216Y13171544D01*
X14665646Y13270147D01*
X14540147Y13395646D01*
X14441544Y13543216D01*
X14373624Y13707188D01*
X14339000Y13881259D01*
X14339000Y14058741D01*
X14373624Y14232812D01*
X14441544Y14396784D01*
X14540147Y14544354D01*
X14665646Y14669853D01*
X14813216Y14768456D01*
X14977188Y14836376D01*
X15126488Y14866073D01*
X15151258Y14871000D01*
X15328742Y14871000D01*
X15353512Y14866073D01*
G37*
G36*
X2653512Y14866073D02*
G01*
X2802812Y14836376D01*
X2966784Y14768456D01*
X3114354Y14669853D01*
X3239853Y14544354D01*
X3338456Y14396784D01*
X3406376Y14232812D01*
X3441000Y14058741D01*
X3441000Y13881259D01*
X3406376Y13707188D01*
X3338456Y13543216D01*
X3239853Y13395646D01*
X3114354Y13270147D01*
X2966784Y13171544D01*
X2802812Y13103624D01*
X2653512Y13073927D01*
X2628742Y13069000D01*
X2451258Y13069000D01*
X2426488Y13073927D01*
X2277188Y13103624D01*
X2113216Y13171544D01*
X1965646Y13270147D01*
X1840147Y13395646D01*
X1741544Y13543216D01*
X1673624Y13707188D01*
X1639000Y13881259D01*
X1639000Y14058741D01*
X1673624Y14232812D01*
X1741544Y14396784D01*
X1840147Y14544354D01*
X1965646Y14669853D01*
X2113216Y14768456D01*
X2277188Y14836376D01*
X2426488Y14866073D01*
X2451258Y14871000D01*
X2628742Y14871000D01*
X2653512Y14866073D01*
G37*
G36*
X8534600Y15595400D02*
G01*
X6705400Y15595400D01*
X6705400Y17424600D01*
X8534600Y17424600D01*
X8534600Y15595400D01*
G37*
G36*
X10426778Y17389453D02*
G01*
X10593224Y17320509D01*
X10743022Y17220417D01*
X10870417Y17093022D01*
X10970509Y16943224D01*
X11039453Y16776778D01*
X11074600Y16600082D01*
X11074600Y16419918D01*
X11039453Y16243222D01*
X10970509Y16076776D01*
X10870417Y15926978D01*
X10743022Y15799583D01*
X10593224Y15699491D01*
X10426778Y15630547D01*
X10250082Y15595400D01*
X10069918Y15595400D01*
X9893222Y15630547D01*
X9726776Y15699491D01*
X9576978Y15799583D01*
X9449583Y15926978D01*
X9349491Y16076776D01*
X9280547Y16243222D01*
X9245400Y16419918D01*
X9245400Y16600082D01*
X9280547Y16776778D01*
X9349491Y16943224D01*
X9449583Y17093022D01*
X9576978Y17220417D01*
X9726776Y17320509D01*
X9893222Y17389453D01*
X10069918Y17424600D01*
X10250082Y17424600D01*
X10426778Y17389453D01*
G37*
G36*
X3441000Y15609000D02*
G01*
X1639000Y15609000D01*
X1639000Y17411000D01*
X3441000Y17411000D01*
X3441000Y15609000D01*
G37*
G36*
X16141000Y15609000D02*
G01*
X14339000Y15609000D01*
X14339000Y17411000D01*
X16141000Y17411000D01*
X16141000Y15609000D01*
G37*
M02*
