%TF.GenerationSoftware,KiCad,Pcbnew,5.1.4-3.fc31*%
%TF.CreationDate,2019-11-17T16:10:24+01:00*%
%TF.ProjectId,avr-isp-to-pcb-adapter,6176722d-6973-4702-9d74-6f2d7063622d,1.0*%
%TF.SameCoordinates,PX76b1be0PY53920b0*%
%TF.FileFunction,Soldermask,Bot*%
%TF.FilePolarity,Negative*%
%FSLAX46Y46*%
G04 Gerber Fmt 4.6, Leading zero omitted, Abs format (unit mm)*
G04 Created by KiCad (PCBNEW 5.1.4-3.fc31) date 2019-11-17 16:10:24*
%MOMM*%
%LPD*%
G04 APERTURE LIST*
%ADD10C,0.150000*%
G04 APERTURE END LIST*
D10*
G36*
X10339294Y7251367D02*
G01*
X10511695Y7199069D01*
X10670583Y7114142D01*
X10809849Y6999849D01*
X10924142Y6860583D01*
X11009069Y6701695D01*
X11061367Y6529294D01*
X11079025Y6350000D01*
X11061367Y6170706D01*
X11009069Y5998305D01*
X10924142Y5839417D01*
X10809849Y5700151D01*
X10670583Y5585858D01*
X10511695Y5500931D01*
X10339294Y5448633D01*
X10204931Y5435400D01*
X10115069Y5435400D01*
X9980706Y5448633D01*
X9808305Y5500931D01*
X9649417Y5585858D01*
X9510151Y5700151D01*
X9395858Y5839417D01*
X9310931Y5998305D01*
X9258633Y6170706D01*
X9240975Y6350000D01*
X9258633Y6529294D01*
X9310931Y6701695D01*
X9395858Y6860583D01*
X9510151Y6999849D01*
X9649417Y7114142D01*
X9808305Y7199069D01*
X9980706Y7251367D01*
X10115069Y7264600D01*
X10204931Y7264600D01*
X10339294Y7251367D01*
X10339294Y7251367D01*
G37*
G36*
X7799294Y7251367D02*
G01*
X7971695Y7199069D01*
X8130583Y7114142D01*
X8269849Y6999849D01*
X8384142Y6860583D01*
X8469069Y6701695D01*
X8521367Y6529294D01*
X8539025Y6350000D01*
X8521367Y6170706D01*
X8469069Y5998305D01*
X8384142Y5839417D01*
X8269849Y5700151D01*
X8130583Y5585858D01*
X7971695Y5500931D01*
X7799294Y5448633D01*
X7664931Y5435400D01*
X7575069Y5435400D01*
X7440706Y5448633D01*
X7268305Y5500931D01*
X7109417Y5585858D01*
X6970151Y5700151D01*
X6855858Y5839417D01*
X6770931Y5998305D01*
X6718633Y6170706D01*
X6700975Y6350000D01*
X6718633Y6529294D01*
X6770931Y6701695D01*
X6855858Y6860583D01*
X6970151Y6999849D01*
X7109417Y7114142D01*
X7268305Y7199069D01*
X7440706Y7251367D01*
X7575069Y7264600D01*
X7664931Y7264600D01*
X7799294Y7251367D01*
X7799294Y7251367D01*
G37*
G36*
X15350442Y7244482D02*
G01*
X15416627Y7237963D01*
X15586466Y7186443D01*
X15742991Y7102778D01*
X15778729Y7073448D01*
X15880186Y6990186D01*
X15963448Y6888729D01*
X15992778Y6852991D01*
X15992779Y6852989D01*
X16073648Y6701696D01*
X16076443Y6696466D01*
X16127963Y6526627D01*
X16145359Y6350000D01*
X16127963Y6173373D01*
X16076443Y6003534D01*
X16076442Y6003532D01*
X16034611Y5925272D01*
X15992778Y5847009D01*
X15986547Y5839417D01*
X15880186Y5709814D01*
X15778729Y5626552D01*
X15742991Y5597222D01*
X15586466Y5513557D01*
X15416627Y5462037D01*
X15350443Y5455519D01*
X15284260Y5449000D01*
X15195740Y5449000D01*
X15129557Y5455519D01*
X15063373Y5462037D01*
X14893534Y5513557D01*
X14737009Y5597222D01*
X14701271Y5626552D01*
X14599814Y5709814D01*
X14493453Y5839417D01*
X14487222Y5847009D01*
X14445389Y5925272D01*
X14403558Y6003532D01*
X14403557Y6003534D01*
X14352037Y6173373D01*
X14334641Y6350000D01*
X14352037Y6526627D01*
X14403557Y6696466D01*
X14406353Y6701696D01*
X14487221Y6852989D01*
X14487222Y6852991D01*
X14516552Y6888729D01*
X14599814Y6990186D01*
X14701271Y7073448D01*
X14737009Y7102778D01*
X14893534Y7186443D01*
X15063373Y7237963D01*
X15129558Y7244482D01*
X15195740Y7251000D01*
X15284260Y7251000D01*
X15350442Y7244482D01*
X15350442Y7244482D01*
G37*
G36*
X2650442Y7244482D02*
G01*
X2716627Y7237963D01*
X2886466Y7186443D01*
X3042991Y7102778D01*
X3078729Y7073448D01*
X3180186Y6990186D01*
X3263448Y6888729D01*
X3292778Y6852991D01*
X3292779Y6852989D01*
X3373648Y6701696D01*
X3376443Y6696466D01*
X3427963Y6526627D01*
X3445359Y6350000D01*
X3427963Y6173373D01*
X3376443Y6003534D01*
X3376442Y6003532D01*
X3334611Y5925272D01*
X3292778Y5847009D01*
X3286547Y5839417D01*
X3180186Y5709814D01*
X3078729Y5626552D01*
X3042991Y5597222D01*
X2886466Y5513557D01*
X2716627Y5462037D01*
X2650443Y5455519D01*
X2584260Y5449000D01*
X2495740Y5449000D01*
X2429557Y5455519D01*
X2363373Y5462037D01*
X2193534Y5513557D01*
X2037009Y5597222D01*
X2001271Y5626552D01*
X1899814Y5709814D01*
X1793453Y5839417D01*
X1787222Y5847009D01*
X1745389Y5925272D01*
X1703558Y6003532D01*
X1703557Y6003534D01*
X1652037Y6173373D01*
X1634641Y6350000D01*
X1652037Y6526627D01*
X1703557Y6696466D01*
X1706353Y6701696D01*
X1787221Y6852989D01*
X1787222Y6852991D01*
X1816552Y6888729D01*
X1899814Y6990186D01*
X2001271Y7073448D01*
X2037009Y7102778D01*
X2193534Y7186443D01*
X2363373Y7237963D01*
X2429558Y7244482D01*
X2495740Y7251000D01*
X2584260Y7251000D01*
X2650442Y7244482D01*
X2650442Y7244482D01*
G37*
G36*
X7799294Y9791367D02*
G01*
X7971695Y9739069D01*
X8130583Y9654142D01*
X8269849Y9539849D01*
X8384142Y9400583D01*
X8469069Y9241695D01*
X8521367Y9069294D01*
X8539025Y8890000D01*
X8521367Y8710706D01*
X8469069Y8538305D01*
X8384142Y8379417D01*
X8269849Y8240151D01*
X8130583Y8125858D01*
X7971695Y8040931D01*
X7799294Y7988633D01*
X7664931Y7975400D01*
X7575069Y7975400D01*
X7440706Y7988633D01*
X7268305Y8040931D01*
X7109417Y8125858D01*
X6970151Y8240151D01*
X6855858Y8379417D01*
X6770931Y8538305D01*
X6718633Y8710706D01*
X6700975Y8890000D01*
X6718633Y9069294D01*
X6770931Y9241695D01*
X6855858Y9400583D01*
X6970151Y9539849D01*
X7109417Y9654142D01*
X7268305Y9739069D01*
X7440706Y9791367D01*
X7575069Y9804600D01*
X7664931Y9804600D01*
X7799294Y9791367D01*
X7799294Y9791367D01*
G37*
G36*
X10339294Y9791367D02*
G01*
X10511695Y9739069D01*
X10670583Y9654142D01*
X10809849Y9539849D01*
X10924142Y9400583D01*
X11009069Y9241695D01*
X11061367Y9069294D01*
X11079025Y8890000D01*
X11061367Y8710706D01*
X11009069Y8538305D01*
X10924142Y8379417D01*
X10809849Y8240151D01*
X10670583Y8125858D01*
X10511695Y8040931D01*
X10339294Y7988633D01*
X10204931Y7975400D01*
X10115069Y7975400D01*
X9980706Y7988633D01*
X9808305Y8040931D01*
X9649417Y8125858D01*
X9510151Y8240151D01*
X9395858Y8379417D01*
X9310931Y8538305D01*
X9258633Y8710706D01*
X9240975Y8890000D01*
X9258633Y9069294D01*
X9310931Y9241695D01*
X9395858Y9400583D01*
X9510151Y9539849D01*
X9649417Y9654142D01*
X9808305Y9739069D01*
X9980706Y9791367D01*
X10115069Y9804600D01*
X10204931Y9804600D01*
X10339294Y9791367D01*
X10339294Y9791367D01*
G37*
G36*
X2650443Y9784481D02*
G01*
X2716627Y9777963D01*
X2886466Y9726443D01*
X3042991Y9642778D01*
X3078729Y9613448D01*
X3180186Y9530186D01*
X3263448Y9428729D01*
X3292778Y9392991D01*
X3292779Y9392989D01*
X3373648Y9241696D01*
X3376443Y9236466D01*
X3427963Y9066627D01*
X3445359Y8890000D01*
X3427963Y8713373D01*
X3376443Y8543534D01*
X3376442Y8543532D01*
X3334610Y8465271D01*
X3292778Y8387009D01*
X3286547Y8379417D01*
X3180186Y8249814D01*
X3078729Y8166552D01*
X3042991Y8137222D01*
X2886466Y8053557D01*
X2716627Y8002037D01*
X2650442Y7995518D01*
X2584260Y7989000D01*
X2495740Y7989000D01*
X2429558Y7995518D01*
X2363373Y8002037D01*
X2193534Y8053557D01*
X2037009Y8137222D01*
X2001271Y8166552D01*
X1899814Y8249814D01*
X1793453Y8379417D01*
X1787222Y8387009D01*
X1745390Y8465271D01*
X1703558Y8543532D01*
X1703557Y8543534D01*
X1652037Y8713373D01*
X1634641Y8890000D01*
X1652037Y9066627D01*
X1703557Y9236466D01*
X1706353Y9241696D01*
X1787221Y9392989D01*
X1787222Y9392991D01*
X1816552Y9428729D01*
X1899814Y9530186D01*
X2001271Y9613448D01*
X2037009Y9642778D01*
X2193534Y9726443D01*
X2363373Y9777963D01*
X2429557Y9784481D01*
X2495740Y9791000D01*
X2584260Y9791000D01*
X2650443Y9784481D01*
X2650443Y9784481D01*
G37*
G36*
X15350443Y9784481D02*
G01*
X15416627Y9777963D01*
X15586466Y9726443D01*
X15742991Y9642778D01*
X15778729Y9613448D01*
X15880186Y9530186D01*
X15963448Y9428729D01*
X15992778Y9392991D01*
X15992779Y9392989D01*
X16073648Y9241696D01*
X16076443Y9236466D01*
X16127963Y9066627D01*
X16145359Y8890000D01*
X16127963Y8713373D01*
X16076443Y8543534D01*
X16076442Y8543532D01*
X16034610Y8465271D01*
X15992778Y8387009D01*
X15986547Y8379417D01*
X15880186Y8249814D01*
X15778729Y8166552D01*
X15742991Y8137222D01*
X15586466Y8053557D01*
X15416627Y8002037D01*
X15350442Y7995518D01*
X15284260Y7989000D01*
X15195740Y7989000D01*
X15129558Y7995518D01*
X15063373Y8002037D01*
X14893534Y8053557D01*
X14737009Y8137222D01*
X14701271Y8166552D01*
X14599814Y8249814D01*
X14493453Y8379417D01*
X14487222Y8387009D01*
X14445390Y8465271D01*
X14403558Y8543532D01*
X14403557Y8543534D01*
X14352037Y8713373D01*
X14334641Y8890000D01*
X14352037Y9066627D01*
X14403557Y9236466D01*
X14406353Y9241696D01*
X14487221Y9392989D01*
X14487222Y9392991D01*
X14516552Y9428729D01*
X14599814Y9530186D01*
X14701271Y9613448D01*
X14737009Y9642778D01*
X14893534Y9726443D01*
X15063373Y9777963D01*
X15129557Y9784481D01*
X15195740Y9791000D01*
X15284260Y9791000D01*
X15350443Y9784481D01*
X15350443Y9784481D01*
G37*
G36*
X7799294Y12331367D02*
G01*
X7971695Y12279069D01*
X8130583Y12194142D01*
X8269849Y12079849D01*
X8384142Y11940583D01*
X8469069Y11781695D01*
X8521367Y11609294D01*
X8539025Y11430000D01*
X8521367Y11250706D01*
X8469069Y11078305D01*
X8384142Y10919417D01*
X8269849Y10780151D01*
X8130583Y10665858D01*
X7971695Y10580931D01*
X7799294Y10528633D01*
X7664931Y10515400D01*
X7575069Y10515400D01*
X7440706Y10528633D01*
X7268305Y10580931D01*
X7109417Y10665858D01*
X6970151Y10780151D01*
X6855858Y10919417D01*
X6770931Y11078305D01*
X6718633Y11250706D01*
X6700975Y11430000D01*
X6718633Y11609294D01*
X6770931Y11781695D01*
X6855858Y11940583D01*
X6970151Y12079849D01*
X7109417Y12194142D01*
X7268305Y12279069D01*
X7440706Y12331367D01*
X7575069Y12344600D01*
X7664931Y12344600D01*
X7799294Y12331367D01*
X7799294Y12331367D01*
G37*
G36*
X10339294Y12331367D02*
G01*
X10511695Y12279069D01*
X10670583Y12194142D01*
X10809849Y12079849D01*
X10924142Y11940583D01*
X11009069Y11781695D01*
X11061367Y11609294D01*
X11079025Y11430000D01*
X11061367Y11250706D01*
X11009069Y11078305D01*
X10924142Y10919417D01*
X10809849Y10780151D01*
X10670583Y10665858D01*
X10511695Y10580931D01*
X10339294Y10528633D01*
X10204931Y10515400D01*
X10115069Y10515400D01*
X9980706Y10528633D01*
X9808305Y10580931D01*
X9649417Y10665858D01*
X9510151Y10780151D01*
X9395858Y10919417D01*
X9310931Y11078305D01*
X9258633Y11250706D01*
X9240975Y11430000D01*
X9258633Y11609294D01*
X9310931Y11781695D01*
X9395858Y11940583D01*
X9510151Y12079849D01*
X9649417Y12194142D01*
X9808305Y12279069D01*
X9980706Y12331367D01*
X10115069Y12344600D01*
X10204931Y12344600D01*
X10339294Y12331367D01*
X10339294Y12331367D01*
G37*
G36*
X2650442Y12324482D02*
G01*
X2716627Y12317963D01*
X2886466Y12266443D01*
X3042991Y12182778D01*
X3078729Y12153448D01*
X3180186Y12070186D01*
X3263448Y11968729D01*
X3292778Y11932991D01*
X3292779Y11932989D01*
X3373648Y11781696D01*
X3376443Y11776466D01*
X3427963Y11606627D01*
X3445359Y11430000D01*
X3427963Y11253373D01*
X3376443Y11083534D01*
X3376442Y11083532D01*
X3334610Y11005271D01*
X3292778Y10927009D01*
X3286547Y10919417D01*
X3180186Y10789814D01*
X3078729Y10706552D01*
X3042991Y10677222D01*
X2886466Y10593557D01*
X2716627Y10542037D01*
X2650442Y10535518D01*
X2584260Y10529000D01*
X2495740Y10529000D01*
X2429558Y10535518D01*
X2363373Y10542037D01*
X2193534Y10593557D01*
X2037009Y10677222D01*
X2001271Y10706552D01*
X1899814Y10789814D01*
X1793453Y10919417D01*
X1787222Y10927009D01*
X1745390Y11005271D01*
X1703558Y11083532D01*
X1703557Y11083534D01*
X1652037Y11253373D01*
X1634641Y11430000D01*
X1652037Y11606627D01*
X1703557Y11776466D01*
X1706353Y11781696D01*
X1787221Y11932989D01*
X1787222Y11932991D01*
X1816552Y11968729D01*
X1899814Y12070186D01*
X2001271Y12153448D01*
X2037009Y12182778D01*
X2193534Y12266443D01*
X2363373Y12317963D01*
X2429558Y12324482D01*
X2495740Y12331000D01*
X2584260Y12331000D01*
X2650442Y12324482D01*
X2650442Y12324482D01*
G37*
G36*
X15350442Y12324482D02*
G01*
X15416627Y12317963D01*
X15586466Y12266443D01*
X15742991Y12182778D01*
X15778729Y12153448D01*
X15880186Y12070186D01*
X15963448Y11968729D01*
X15992778Y11932991D01*
X15992779Y11932989D01*
X16073648Y11781696D01*
X16076443Y11776466D01*
X16127963Y11606627D01*
X16145359Y11430000D01*
X16127963Y11253373D01*
X16076443Y11083534D01*
X16076442Y11083532D01*
X16034610Y11005271D01*
X15992778Y10927009D01*
X15986547Y10919417D01*
X15880186Y10789814D01*
X15778729Y10706552D01*
X15742991Y10677222D01*
X15586466Y10593557D01*
X15416627Y10542037D01*
X15350442Y10535518D01*
X15284260Y10529000D01*
X15195740Y10529000D01*
X15129558Y10535518D01*
X15063373Y10542037D01*
X14893534Y10593557D01*
X14737009Y10677222D01*
X14701271Y10706552D01*
X14599814Y10789814D01*
X14493453Y10919417D01*
X14487222Y10927009D01*
X14445390Y11005271D01*
X14403558Y11083532D01*
X14403557Y11083534D01*
X14352037Y11253373D01*
X14334641Y11430000D01*
X14352037Y11606627D01*
X14403557Y11776466D01*
X14406353Y11781696D01*
X14487221Y11932989D01*
X14487222Y11932991D01*
X14516552Y11968729D01*
X14599814Y12070186D01*
X14701271Y12153448D01*
X14737009Y12182778D01*
X14893534Y12266443D01*
X15063373Y12317963D01*
X15129558Y12324482D01*
X15195740Y12331000D01*
X15284260Y12331000D01*
X15350442Y12324482D01*
X15350442Y12324482D01*
G37*
G36*
X7799294Y14871367D02*
G01*
X7971695Y14819069D01*
X8130583Y14734142D01*
X8269849Y14619849D01*
X8384142Y14480583D01*
X8469069Y14321695D01*
X8521367Y14149294D01*
X8539025Y13970000D01*
X8521367Y13790706D01*
X8469069Y13618305D01*
X8384142Y13459417D01*
X8269849Y13320151D01*
X8130583Y13205858D01*
X7971695Y13120931D01*
X7799294Y13068633D01*
X7664931Y13055400D01*
X7575069Y13055400D01*
X7440706Y13068633D01*
X7268305Y13120931D01*
X7109417Y13205858D01*
X6970151Y13320151D01*
X6855858Y13459417D01*
X6770931Y13618305D01*
X6718633Y13790706D01*
X6700975Y13970000D01*
X6718633Y14149294D01*
X6770931Y14321695D01*
X6855858Y14480583D01*
X6970151Y14619849D01*
X7109417Y14734142D01*
X7268305Y14819069D01*
X7440706Y14871367D01*
X7575069Y14884600D01*
X7664931Y14884600D01*
X7799294Y14871367D01*
X7799294Y14871367D01*
G37*
G36*
X10339294Y14871367D02*
G01*
X10511695Y14819069D01*
X10670583Y14734142D01*
X10809849Y14619849D01*
X10924142Y14480583D01*
X11009069Y14321695D01*
X11061367Y14149294D01*
X11079025Y13970000D01*
X11061367Y13790706D01*
X11009069Y13618305D01*
X10924142Y13459417D01*
X10809849Y13320151D01*
X10670583Y13205858D01*
X10511695Y13120931D01*
X10339294Y13068633D01*
X10204931Y13055400D01*
X10115069Y13055400D01*
X9980706Y13068633D01*
X9808305Y13120931D01*
X9649417Y13205858D01*
X9510151Y13320151D01*
X9395858Y13459417D01*
X9310931Y13618305D01*
X9258633Y13790706D01*
X9240975Y13970000D01*
X9258633Y14149294D01*
X9310931Y14321695D01*
X9395858Y14480583D01*
X9510151Y14619849D01*
X9649417Y14734142D01*
X9808305Y14819069D01*
X9980706Y14871367D01*
X10115069Y14884600D01*
X10204931Y14884600D01*
X10339294Y14871367D01*
X10339294Y14871367D01*
G37*
G36*
X15350442Y14864482D02*
G01*
X15416627Y14857963D01*
X15586466Y14806443D01*
X15742991Y14722778D01*
X15778729Y14693448D01*
X15880186Y14610186D01*
X15963448Y14508729D01*
X15992778Y14472991D01*
X15992779Y14472989D01*
X16073648Y14321696D01*
X16076443Y14316466D01*
X16127963Y14146627D01*
X16145359Y13970000D01*
X16127963Y13793373D01*
X16076443Y13623534D01*
X16076442Y13623532D01*
X16034610Y13545271D01*
X15992778Y13467009D01*
X15986547Y13459417D01*
X15880186Y13329814D01*
X15778729Y13246552D01*
X15742991Y13217222D01*
X15586466Y13133557D01*
X15416627Y13082037D01*
X15350442Y13075518D01*
X15284260Y13069000D01*
X15195740Y13069000D01*
X15129558Y13075518D01*
X15063373Y13082037D01*
X14893534Y13133557D01*
X14737009Y13217222D01*
X14701271Y13246552D01*
X14599814Y13329814D01*
X14493453Y13459417D01*
X14487222Y13467009D01*
X14445390Y13545271D01*
X14403558Y13623532D01*
X14403557Y13623534D01*
X14352037Y13793373D01*
X14334641Y13970000D01*
X14352037Y14146627D01*
X14403557Y14316466D01*
X14406353Y14321696D01*
X14487221Y14472989D01*
X14487222Y14472991D01*
X14516552Y14508729D01*
X14599814Y14610186D01*
X14701271Y14693448D01*
X14737009Y14722778D01*
X14893534Y14806443D01*
X15063373Y14857963D01*
X15129558Y14864482D01*
X15195740Y14871000D01*
X15284260Y14871000D01*
X15350442Y14864482D01*
X15350442Y14864482D01*
G37*
G36*
X2650442Y14864482D02*
G01*
X2716627Y14857963D01*
X2886466Y14806443D01*
X3042991Y14722778D01*
X3078729Y14693448D01*
X3180186Y14610186D01*
X3263448Y14508729D01*
X3292778Y14472991D01*
X3292779Y14472989D01*
X3373648Y14321696D01*
X3376443Y14316466D01*
X3427963Y14146627D01*
X3445359Y13970000D01*
X3427963Y13793373D01*
X3376443Y13623534D01*
X3376442Y13623532D01*
X3334610Y13545271D01*
X3292778Y13467009D01*
X3286547Y13459417D01*
X3180186Y13329814D01*
X3078729Y13246552D01*
X3042991Y13217222D01*
X2886466Y13133557D01*
X2716627Y13082037D01*
X2650442Y13075518D01*
X2584260Y13069000D01*
X2495740Y13069000D01*
X2429558Y13075518D01*
X2363373Y13082037D01*
X2193534Y13133557D01*
X2037009Y13217222D01*
X2001271Y13246552D01*
X1899814Y13329814D01*
X1793453Y13459417D01*
X1787222Y13467009D01*
X1745390Y13545271D01*
X1703558Y13623532D01*
X1703557Y13623534D01*
X1652037Y13793373D01*
X1634641Y13970000D01*
X1652037Y14146627D01*
X1703557Y14316466D01*
X1706353Y14321696D01*
X1787221Y14472989D01*
X1787222Y14472991D01*
X1816552Y14508729D01*
X1899814Y14610186D01*
X2001271Y14693448D01*
X2037009Y14722778D01*
X2193534Y14806443D01*
X2363373Y14857963D01*
X2429558Y14864482D01*
X2495740Y14871000D01*
X2584260Y14871000D01*
X2650442Y14864482D01*
X2650442Y14864482D01*
G37*
G36*
X8534600Y15595400D02*
G01*
X6705400Y15595400D01*
X6705400Y17424600D01*
X8534600Y17424600D01*
X8534600Y15595400D01*
X8534600Y15595400D01*
G37*
G36*
X10339294Y17411367D02*
G01*
X10511695Y17359069D01*
X10670583Y17274142D01*
X10809849Y17159849D01*
X10924142Y17020583D01*
X11009069Y16861695D01*
X11061367Y16689294D01*
X11079025Y16510000D01*
X11061367Y16330706D01*
X11009069Y16158305D01*
X10924142Y15999417D01*
X10809849Y15860151D01*
X10670583Y15745858D01*
X10511695Y15660931D01*
X10339294Y15608633D01*
X10204931Y15595400D01*
X10115069Y15595400D01*
X9980706Y15608633D01*
X9808305Y15660931D01*
X9649417Y15745858D01*
X9510151Y15860151D01*
X9395858Y15999417D01*
X9310931Y16158305D01*
X9258633Y16330706D01*
X9240975Y16510000D01*
X9258633Y16689294D01*
X9310931Y16861695D01*
X9395858Y17020583D01*
X9510151Y17159849D01*
X9649417Y17274142D01*
X9808305Y17359069D01*
X9980706Y17411367D01*
X10115069Y17424600D01*
X10204931Y17424600D01*
X10339294Y17411367D01*
X10339294Y17411367D01*
G37*
G36*
X3441000Y15609000D02*
G01*
X1639000Y15609000D01*
X1639000Y17411000D01*
X3441000Y17411000D01*
X3441000Y15609000D01*
X3441000Y15609000D01*
G37*
G36*
X16141000Y15609000D02*
G01*
X14339000Y15609000D01*
X14339000Y17411000D01*
X16141000Y17411000D01*
X16141000Y15609000D01*
X16141000Y15609000D01*
G37*
M02*
