M48
; DRILL file {KiCad 5.1.6-c6e7f7d~86~ubuntu18.04.1} date Mon May 25 18:52:09 2020
; FORMAT={-:-/ absolute / inch / decimal}
; #@! TF.CreationDate,2020-05-25T18:52:09+02:00
; #@! TF.GenerationSoftware,Kicad,Pcbnew,5.1.6-c6e7f7d~86~ubuntu18.04.1
FMAT,2
INCH
T1C0.0300
T2C0.0315
T3C0.0354
T4C0.0394
T5C0.0600
%
G90
G05
T1
X4.85Y0.6
X4.85Y0.4
T2
X2.7Y0.7
X2.7Y0.4
X2.7Y0.2
X3.0Y0.2
X1.4443Y0.638
X1.4443Y0.338
X1.5443Y0.638
X1.5443Y0.338
X1.6443Y0.638
X1.6443Y0.338
X1.7443Y0.638
X1.7443Y0.338
X1.8443Y0.638
X1.8443Y0.338
X1.9443Y0.638
X1.9443Y0.338
X2.0443Y0.638
X2.0443Y0.338
X2.3016Y0.65
X2.4Y0.65
X1.75Y0.8
X2.05Y0.8
X2.95Y0.7
X2.95Y0.4
X2.3Y0.35
X2.3984Y0.35
X2.7Y0.85
X3.0Y0.85
T3
X3.2Y0.5
X3.3Y0.5
X3.45Y0.5
X3.55Y0.5
X3.7Y0.5
X3.8Y0.5
T4
X0.2Y0.55
X0.2Y0.45
X0.4Y0.5
T5
X4.95Y0.6
X4.95Y0.4
T0
M30
