%TF.GenerationSoftware,KiCad,Pcbnew,5.1.5-1.fc31*%
%TF.CreationDate,2020-01-31T17:19:48+01:00*%
%TF.ProjectId,logical-probe-1,6c6f6769-6361-46c2-9d70-726f62652d31,1.0*%
%TF.SameCoordinates,PX3efb0c0PY9157080*%
%TF.FileFunction,Other,Fab,Top*%
%FSLAX46Y46*%
G04 Gerber Fmt 4.6, Leading zero omitted, Abs format (unit mm)*
G04 Created by KiCad (PCBNEW 5.1.5-1.fc31) date 2020-01-31 17:19:48*
%MOMM*%
%LPD*%
G04 APERTURE LIST*
%ADD10C,0.100000*%
%ADD11C,0.120000*%
%ADD12C,0.150000*%
G04 APERTURE END LIST*
D10*
%TO.C,C1*%
X57210000Y15260000D02*
X62210000Y15260000D01*
X57210000Y17760000D02*
X57210000Y15260000D01*
X62210000Y17760000D02*
X57210000Y17760000D01*
X62210000Y15260000D02*
X62210000Y17760000D01*
%TO.C,C2*%
X62170000Y10140000D02*
X57170000Y10140000D01*
X62170000Y7640000D02*
X62170000Y10140000D01*
X57170000Y7640000D02*
X62170000Y7640000D01*
X57170000Y10140000D02*
X57170000Y7640000D01*
%TO.C,D1*%
X81050000Y13866190D02*
X81050000Y11533810D01*
X84050000Y12700000D02*
G75*
G03X84050000Y12700000I-1500000J0D01*
G01*
X81049445Y11534524D02*
G75*
G03X81050000Y13866190I1500555J1165476D01*
G01*
%TO.C,D2*%
X87400000Y13866190D02*
X87400000Y11533810D01*
X90400000Y12700000D02*
G75*
G03X90400000Y12700000I-1500000J0D01*
G01*
X87399445Y11534524D02*
G75*
G03X87400000Y13866190I1500555J1165476D01*
G01*
%TO.C,D3*%
X93750000Y13866190D02*
X93750000Y11533810D01*
X96750000Y12700000D02*
G75*
G03X96750000Y12700000I-1500000J0D01*
G01*
X93749445Y11534524D02*
G75*
G03X93750000Y13866190I1500555J1165476D01*
G01*
D11*
%TO.C,J1*%
X127000000Y15240000D02*
X127000000Y10160000D01*
X119380000Y15240000D02*
X119380000Y10160000D01*
X119380000Y8890000D02*
X127000000Y8890000D01*
X119380000Y16510000D02*
X127000000Y16510000D01*
D10*
%TO.C,R1*%
X52070000Y20320000D02*
X51410000Y20320000D01*
X44450000Y20320000D02*
X45110000Y20320000D01*
X51410000Y21570000D02*
X45110000Y21570000D01*
X51410000Y19070000D02*
X51410000Y21570000D01*
X45110000Y19070000D02*
X51410000Y19070000D01*
X45110000Y21570000D02*
X45110000Y19070000D01*
%TO.C,R2*%
X74930000Y17780000D02*
X74930000Y17120000D01*
X74930000Y10160000D02*
X74930000Y10820000D01*
X73680000Y17120000D02*
X73680000Y10820000D01*
X76180000Y17120000D02*
X73680000Y17120000D01*
X76180000Y10820000D02*
X76180000Y17120000D01*
X73680000Y10820000D02*
X76180000Y10820000D01*
%TO.C,R3*%
X68580000Y21590000D02*
X69240000Y21590000D01*
X76200000Y21590000D02*
X75540000Y21590000D01*
X69240000Y20340000D02*
X75540000Y20340000D01*
X69240000Y22840000D02*
X69240000Y20340000D01*
X75540000Y22840000D02*
X69240000Y22840000D01*
X75540000Y20340000D02*
X75540000Y22840000D01*
%TO.C,R4*%
X68580000Y17780000D02*
X68580000Y17120000D01*
X68580000Y10160000D02*
X68580000Y10820000D01*
X67330000Y17120000D02*
X67330000Y10820000D01*
X69830000Y17120000D02*
X67330000Y17120000D01*
X69830000Y10820000D02*
X69830000Y17120000D01*
X67330000Y10820000D02*
X69830000Y10820000D01*
%TO.C,R5*%
X68580000Y5080000D02*
X69240000Y5080000D01*
X76200000Y5080000D02*
X75540000Y5080000D01*
X69240000Y3830000D02*
X75540000Y3830000D01*
X69240000Y6330000D02*
X69240000Y3830000D01*
X75540000Y6330000D02*
X69240000Y6330000D01*
X75540000Y3830000D02*
X75540000Y6330000D01*
%TO.C,U1*%
X52195000Y15570000D02*
X53195000Y14570000D01*
X35415000Y15570000D02*
X52195000Y15570000D01*
X35415000Y9220000D02*
X35415000Y15570000D01*
X53195000Y9220000D02*
X35415000Y9220000D01*
X53195000Y14570000D02*
X53195000Y9220000D01*
%TD*%
%TO.C,J2*%
D12*
X6985238Y16057620D02*
X6985238Y17057620D01*
X7366190Y17057620D01*
X7461428Y17010000D01*
X7509047Y16962381D01*
X7556666Y16867143D01*
X7556666Y16724286D01*
X7509047Y16629048D01*
X7461428Y16581429D01*
X7366190Y16533810D01*
X6985238Y16533810D01*
X7985238Y16057620D02*
X7985238Y16724286D01*
X7985238Y16533810D02*
X8032857Y16629048D01*
X8080476Y16676667D01*
X8175714Y16724286D01*
X8270952Y16724286D01*
X8747142Y16057620D02*
X8651904Y16105239D01*
X8604285Y16152858D01*
X8556666Y16248096D01*
X8556666Y16533810D01*
X8604285Y16629048D01*
X8651904Y16676667D01*
X8747142Y16724286D01*
X8890000Y16724286D01*
X8985238Y16676667D01*
X9032857Y16629048D01*
X9080476Y16533810D01*
X9080476Y16248096D01*
X9032857Y16152858D01*
X8985238Y16105239D01*
X8890000Y16057620D01*
X8747142Y16057620D01*
X9509047Y16057620D02*
X9509047Y17057620D01*
X9509047Y16676667D02*
X9604285Y16724286D01*
X9794761Y16724286D01*
X9890000Y16676667D01*
X9937619Y16629048D01*
X9985238Y16533810D01*
X9985238Y16248096D01*
X9937619Y16152858D01*
X9890000Y16105239D01*
X9794761Y16057620D01*
X9604285Y16057620D01*
X9509047Y16105239D01*
X10794761Y16105239D02*
X10699523Y16057620D01*
X10509047Y16057620D01*
X10413809Y16105239D01*
X10366190Y16200477D01*
X10366190Y16581429D01*
X10413809Y16676667D01*
X10509047Y16724286D01*
X10699523Y16724286D01*
X10794761Y16676667D01*
X10842380Y16581429D01*
X10842380Y16486191D01*
X10366190Y16390953D01*
%TO.C,C1*%
X58590952Y18557620D02*
X58019523Y18557620D01*
X58305238Y18557620D02*
X58305238Y19557620D01*
X58210000Y19414762D01*
X58114761Y19319524D01*
X58019523Y19271905D01*
X59210000Y19557620D02*
X59305238Y19557620D01*
X59400476Y19510000D01*
X59448095Y19462381D01*
X59495714Y19367143D01*
X59543333Y19176667D01*
X59543333Y18938572D01*
X59495714Y18748096D01*
X59448095Y18652858D01*
X59400476Y18605239D01*
X59305238Y18557620D01*
X59210000Y18557620D01*
X59114761Y18605239D01*
X59067142Y18652858D01*
X59019523Y18748096D01*
X58971904Y18938572D01*
X58971904Y19176667D01*
X59019523Y19367143D01*
X59067142Y19462381D01*
X59114761Y19510000D01*
X59210000Y19557620D01*
X60162380Y19557620D02*
X60257619Y19557620D01*
X60352857Y19510000D01*
X60400476Y19462381D01*
X60448095Y19367143D01*
X60495714Y19176667D01*
X60495714Y18938572D01*
X60448095Y18748096D01*
X60400476Y18652858D01*
X60352857Y18605239D01*
X60257619Y18557620D01*
X60162380Y18557620D01*
X60067142Y18605239D01*
X60019523Y18652858D01*
X59971904Y18748096D01*
X59924285Y18938572D01*
X59924285Y19176667D01*
X59971904Y19367143D01*
X60019523Y19462381D01*
X60067142Y19510000D01*
X60162380Y19557620D01*
X60924285Y19224286D02*
X60924285Y18557620D01*
X60924285Y19129048D02*
X60971904Y19176667D01*
X61067142Y19224286D01*
X61210000Y19224286D01*
X61305238Y19176667D01*
X61352857Y19081429D01*
X61352857Y18557620D01*
X59543333Y16152858D02*
X59495714Y16105239D01*
X59352857Y16057620D01*
X59257619Y16057620D01*
X59114761Y16105239D01*
X59019523Y16200477D01*
X58971904Y16295715D01*
X58924285Y16486191D01*
X58924285Y16629048D01*
X58971904Y16819524D01*
X59019523Y16914762D01*
X59114761Y17010000D01*
X59257619Y17057620D01*
X59352857Y17057620D01*
X59495714Y17010000D01*
X59543333Y16962381D01*
X60495714Y16057620D02*
X59924285Y16057620D01*
X60210000Y16057620D02*
X60210000Y17057620D01*
X60114761Y16914762D01*
X60019523Y16819524D01*
X59924285Y16771905D01*
%TO.C,C2*%
X59455714Y6937620D02*
X58979523Y6937620D01*
X58931904Y6461429D01*
X58979523Y6509048D01*
X59074761Y6556667D01*
X59312857Y6556667D01*
X59408095Y6509048D01*
X59455714Y6461429D01*
X59503333Y6366191D01*
X59503333Y6128096D01*
X59455714Y6032858D01*
X59408095Y5985239D01*
X59312857Y5937620D01*
X59074761Y5937620D01*
X58979523Y5985239D01*
X58931904Y6032858D01*
X59931904Y6604286D02*
X59931904Y5937620D01*
X59931904Y6509048D02*
X59979523Y6556667D01*
X60074761Y6604286D01*
X60217619Y6604286D01*
X60312857Y6556667D01*
X60360476Y6461429D01*
X60360476Y5937620D01*
X59503333Y8532858D02*
X59455714Y8485239D01*
X59312857Y8437620D01*
X59217619Y8437620D01*
X59074761Y8485239D01*
X58979523Y8580477D01*
X58931904Y8675715D01*
X58884285Y8866191D01*
X58884285Y9009048D01*
X58931904Y9199524D01*
X58979523Y9294762D01*
X59074761Y9390000D01*
X59217619Y9437620D01*
X59312857Y9437620D01*
X59455714Y9390000D01*
X59503333Y9342381D01*
X59884285Y9342381D02*
X59931904Y9390000D01*
X60027142Y9437620D01*
X60265238Y9437620D01*
X60360476Y9390000D01*
X60408095Y9342381D01*
X60455714Y9247143D01*
X60455714Y9151905D01*
X60408095Y9009048D01*
X59836666Y8437620D01*
X60455714Y8437620D01*
%TO.C,D1*%
X79788095Y9954286D02*
X79788095Y9144762D01*
X79740476Y9049524D01*
X79692857Y9001905D01*
X79597619Y8954286D01*
X79454761Y8954286D01*
X79359523Y9001905D01*
X79788095Y9335239D02*
X79692857Y9287620D01*
X79502380Y9287620D01*
X79407142Y9335239D01*
X79359523Y9382858D01*
X79311904Y9478096D01*
X79311904Y9763810D01*
X79359523Y9859048D01*
X79407142Y9906667D01*
X79502380Y9954286D01*
X79692857Y9954286D01*
X79788095Y9906667D01*
X80264285Y9287620D02*
X80264285Y9954286D01*
X80264285Y9763810D02*
X80311904Y9859048D01*
X80359523Y9906667D01*
X80454761Y9954286D01*
X80550000Y9954286D01*
X81264285Y9335239D02*
X81169047Y9287620D01*
X80978571Y9287620D01*
X80883333Y9335239D01*
X80835714Y9430477D01*
X80835714Y9811429D01*
X80883333Y9906667D01*
X80978571Y9954286D01*
X81169047Y9954286D01*
X81264285Y9906667D01*
X81311904Y9811429D01*
X81311904Y9716191D01*
X80835714Y9620953D01*
X82121428Y9335239D02*
X82026190Y9287620D01*
X81835714Y9287620D01*
X81740476Y9335239D01*
X81692857Y9430477D01*
X81692857Y9811429D01*
X81740476Y9906667D01*
X81835714Y9954286D01*
X82026190Y9954286D01*
X82121428Y9906667D01*
X82169047Y9811429D01*
X82169047Y9716191D01*
X81692857Y9620953D01*
X82597619Y9954286D02*
X82597619Y9287620D01*
X82597619Y9859048D02*
X82645238Y9906667D01*
X82740476Y9954286D01*
X82883333Y9954286D01*
X82978571Y9906667D01*
X83026190Y9811429D01*
X83026190Y9287620D01*
X83788095Y8906667D02*
X83740476Y8954286D01*
X83645238Y9097143D01*
X83597619Y9192381D01*
X83550000Y9335239D01*
X83502380Y9573334D01*
X83502380Y9763810D01*
X83550000Y10001905D01*
X83597619Y10144762D01*
X83645238Y10240000D01*
X83740476Y10382858D01*
X83788095Y10430477D01*
X84169047Y9287620D02*
X84169047Y10287620D01*
X84597619Y9287620D02*
X84597619Y9811429D01*
X84550000Y9906667D01*
X84454761Y9954286D01*
X84311904Y9954286D01*
X84216666Y9906667D01*
X84169047Y9859048D01*
X85073809Y9287620D02*
X85073809Y9954286D01*
X85073809Y10287620D02*
X85026190Y10240000D01*
X85073809Y10192381D01*
X85121428Y10240000D01*
X85073809Y10287620D01*
X85073809Y10192381D01*
X85454761Y8906667D02*
X85502380Y8954286D01*
X85597619Y9097143D01*
X85645238Y9192381D01*
X85692857Y9335239D01*
X85740476Y9573334D01*
X85740476Y9763810D01*
X85692857Y10001905D01*
X85645238Y10144762D01*
X85597619Y10240000D01*
X85502380Y10382858D01*
X85454761Y10430477D01*
%TO.C,D2*%
X86566666Y9287620D02*
X86566666Y9954286D01*
X86566666Y9763810D02*
X86614285Y9859048D01*
X86661904Y9906667D01*
X86757142Y9954286D01*
X86852380Y9954286D01*
X87566666Y9335239D02*
X87471428Y9287620D01*
X87280952Y9287620D01*
X87185714Y9335239D01*
X87138095Y9430477D01*
X87138095Y9811429D01*
X87185714Y9906667D01*
X87280952Y9954286D01*
X87471428Y9954286D01*
X87566666Y9906667D01*
X87614285Y9811429D01*
X87614285Y9716191D01*
X87138095Y9620953D01*
X88471428Y9287620D02*
X88471428Y10287620D01*
X88471428Y9335239D02*
X88376190Y9287620D01*
X88185714Y9287620D01*
X88090476Y9335239D01*
X88042857Y9382858D01*
X87995238Y9478096D01*
X87995238Y9763810D01*
X88042857Y9859048D01*
X88090476Y9906667D01*
X88185714Y9954286D01*
X88376190Y9954286D01*
X88471428Y9906667D01*
X89233333Y8906667D02*
X89185714Y8954286D01*
X89090476Y9097143D01*
X89042857Y9192381D01*
X88995238Y9335239D01*
X88947619Y9573334D01*
X88947619Y9763810D01*
X88995238Y10001905D01*
X89042857Y10144762D01*
X89090476Y10240000D01*
X89185714Y10382858D01*
X89233333Y10430477D01*
X89757142Y9287620D02*
X89661904Y9335239D01*
X89614285Y9430477D01*
X89614285Y10287620D01*
X90280952Y9287620D02*
X90185714Y9335239D01*
X90138095Y9382858D01*
X90090476Y9478096D01*
X90090476Y9763810D01*
X90138095Y9859048D01*
X90185714Y9906667D01*
X90280952Y9954286D01*
X90423809Y9954286D01*
X90519047Y9906667D01*
X90566666Y9859048D01*
X90614285Y9763810D01*
X90614285Y9478096D01*
X90566666Y9382858D01*
X90519047Y9335239D01*
X90423809Y9287620D01*
X90280952Y9287620D01*
X90947619Y8906667D02*
X90995238Y8954286D01*
X91090476Y9097143D01*
X91138095Y9192381D01*
X91185714Y9335239D01*
X91233333Y9573334D01*
X91233333Y9763810D01*
X91185714Y10001905D01*
X91138095Y10144762D01*
X91090476Y10240000D01*
X90995238Y10382858D01*
X90947619Y10430477D01*
%TO.C,D3*%
X90416666Y9954286D02*
X90654761Y9287620D01*
X90892857Y9954286D02*
X90654761Y9287620D01*
X90559523Y9049524D01*
X90511904Y9001905D01*
X90416666Y8954286D01*
X91654761Y9335239D02*
X91559523Y9287620D01*
X91369047Y9287620D01*
X91273809Y9335239D01*
X91226190Y9430477D01*
X91226190Y9811429D01*
X91273809Y9906667D01*
X91369047Y9954286D01*
X91559523Y9954286D01*
X91654761Y9906667D01*
X91702380Y9811429D01*
X91702380Y9716191D01*
X91226190Y9620953D01*
X92273809Y9287620D02*
X92178571Y9335239D01*
X92130952Y9430477D01*
X92130952Y10287620D01*
X92797619Y9287620D02*
X92702380Y9335239D01*
X92654761Y9430477D01*
X92654761Y10287620D01*
X93321428Y9287620D02*
X93226190Y9335239D01*
X93178571Y9382858D01*
X93130952Y9478096D01*
X93130952Y9763810D01*
X93178571Y9859048D01*
X93226190Y9906667D01*
X93321428Y9954286D01*
X93464285Y9954286D01*
X93559523Y9906667D01*
X93607142Y9859048D01*
X93654761Y9763810D01*
X93654761Y9478096D01*
X93607142Y9382858D01*
X93559523Y9335239D01*
X93464285Y9287620D01*
X93321428Y9287620D01*
X93988095Y9954286D02*
X94178571Y9287620D01*
X94369047Y9763810D01*
X94559523Y9287620D01*
X94750000Y9954286D01*
X95416666Y8906667D02*
X95369047Y8954286D01*
X95273809Y9097143D01*
X95226190Y9192381D01*
X95178571Y9335239D01*
X95130952Y9573334D01*
X95130952Y9763810D01*
X95178571Y10001905D01*
X95226190Y10144762D01*
X95273809Y10240000D01*
X95369047Y10382858D01*
X95416666Y10430477D01*
X95797619Y9954286D02*
X95797619Y8954286D01*
X95797619Y9906667D02*
X95892857Y9954286D01*
X96083333Y9954286D01*
X96178571Y9906667D01*
X96226190Y9859048D01*
X96273809Y9763810D01*
X96273809Y9478096D01*
X96226190Y9382858D01*
X96178571Y9335239D01*
X96083333Y9287620D01*
X95892857Y9287620D01*
X95797619Y9335239D01*
X97130952Y9954286D02*
X97130952Y9287620D01*
X96702380Y9954286D02*
X96702380Y9430477D01*
X96750000Y9335239D01*
X96845238Y9287620D01*
X96988095Y9287620D01*
X97083333Y9335239D01*
X97130952Y9382858D01*
X97750000Y9287620D02*
X97654761Y9335239D01*
X97607142Y9430477D01*
X97607142Y10287620D01*
X98083333Y9335239D02*
X98178571Y9287620D01*
X98369047Y9287620D01*
X98464285Y9335239D01*
X98511904Y9430477D01*
X98511904Y9478096D01*
X98464285Y9573334D01*
X98369047Y9620953D01*
X98226190Y9620953D01*
X98130952Y9668572D01*
X98083333Y9763810D01*
X98083333Y9811429D01*
X98130952Y9906667D01*
X98226190Y9954286D01*
X98369047Y9954286D01*
X98464285Y9906667D01*
X99321428Y9335239D02*
X99226190Y9287620D01*
X99035714Y9287620D01*
X98940476Y9335239D01*
X98892857Y9430477D01*
X98892857Y9811429D01*
X98940476Y9906667D01*
X99035714Y9954286D01*
X99226190Y9954286D01*
X99321428Y9906667D01*
X99369047Y9811429D01*
X99369047Y9716191D01*
X98892857Y9620953D01*
X99702380Y8906667D02*
X99750000Y8954286D01*
X99845238Y9097143D01*
X99892857Y9192381D01*
X99940476Y9335239D01*
X99988095Y9573334D01*
X99988095Y9763810D01*
X99940476Y10001905D01*
X99892857Y10144762D01*
X99845238Y10240000D01*
X99750000Y10382858D01*
X99702380Y10430477D01*
%TO.C,J1*%
X121856666Y18327620D02*
X122190000Y17327620D01*
X122523333Y18327620D01*
X122856666Y17327620D02*
X122856666Y18327620D01*
X123094761Y18327620D01*
X123237619Y18280000D01*
X123332857Y18184762D01*
X123380476Y18089524D01*
X123428095Y17899048D01*
X123428095Y17756191D01*
X123380476Y17565715D01*
X123332857Y17470477D01*
X123237619Y17375239D01*
X123094761Y17327620D01*
X122856666Y17327620D01*
X123856666Y17327620D02*
X123856666Y18327620D01*
X124094761Y18327620D01*
X124237619Y18280000D01*
X124332857Y18184762D01*
X124380476Y18089524D01*
X124428095Y17899048D01*
X124428095Y17756191D01*
X124380476Y17565715D01*
X124332857Y17470477D01*
X124237619Y17375239D01*
X124094761Y17327620D01*
X123856666Y17327620D01*
%TO.C,R1*%
X46688571Y18402381D02*
X46736190Y18450000D01*
X46831428Y18497620D01*
X47069523Y18497620D01*
X47164761Y18450000D01*
X47212380Y18402381D01*
X47260000Y18307143D01*
X47260000Y18211905D01*
X47212380Y18069048D01*
X46640952Y17497620D01*
X47260000Y17497620D01*
X47688571Y17592858D02*
X47736190Y17545239D01*
X47688571Y17497620D01*
X47640952Y17545239D01*
X47688571Y17592858D01*
X47688571Y17497620D01*
X48117142Y18402381D02*
X48164761Y18450000D01*
X48260000Y18497620D01*
X48498095Y18497620D01*
X48593333Y18450000D01*
X48640952Y18402381D01*
X48688571Y18307143D01*
X48688571Y18211905D01*
X48640952Y18069048D01*
X48069523Y17497620D01*
X48688571Y17497620D01*
X49117142Y17497620D02*
X49117142Y18497620D01*
X49450476Y17783334D01*
X49783809Y18497620D01*
X49783809Y17497620D01*
X48093333Y19867620D02*
X47760000Y20343810D01*
X47521904Y19867620D02*
X47521904Y20867620D01*
X47902857Y20867620D01*
X47998095Y20820000D01*
X48045714Y20772381D01*
X48093333Y20677143D01*
X48093333Y20534286D01*
X48045714Y20439048D01*
X47998095Y20391429D01*
X47902857Y20343810D01*
X47521904Y20343810D01*
X49045714Y19867620D02*
X48474285Y19867620D01*
X48760000Y19867620D02*
X48760000Y20867620D01*
X48664761Y20724762D01*
X48569523Y20629524D01*
X48474285Y20581905D01*
%TO.C,R2*%
X77752380Y13755715D02*
X77752380Y13184286D01*
X77752380Y13470000D02*
X76752380Y13470000D01*
X76895238Y13374762D01*
X76990476Y13279524D01*
X77038095Y13184286D01*
X77752380Y14184286D02*
X76752380Y14184286D01*
X77752380Y14755715D02*
X77180952Y14327143D01*
X76752380Y14755715D02*
X77323809Y14184286D01*
X75382380Y13803334D02*
X74906190Y13470000D01*
X75382380Y13231905D02*
X74382380Y13231905D01*
X74382380Y13612858D01*
X74430000Y13708096D01*
X74477619Y13755715D01*
X74572857Y13803334D01*
X74715714Y13803334D01*
X74810952Y13755715D01*
X74858571Y13708096D01*
X74906190Y13612858D01*
X74906190Y13231905D01*
X74477619Y14184286D02*
X74430000Y14231905D01*
X74382380Y14327143D01*
X74382380Y14565239D01*
X74430000Y14660477D01*
X74477619Y14708096D01*
X74572857Y14755715D01*
X74668095Y14755715D01*
X74810952Y14708096D01*
X75382380Y14136667D01*
X75382380Y14755715D01*
%TO.C,R3*%
X72175714Y23507620D02*
X71604285Y23507620D01*
X71890000Y23507620D02*
X71890000Y24507620D01*
X71794761Y24364762D01*
X71699523Y24269524D01*
X71604285Y24221905D01*
X72604285Y23507620D02*
X72604285Y24507620D01*
X73175714Y23507620D02*
X72747142Y24079048D01*
X73175714Y24507620D02*
X72604285Y23936191D01*
X72223333Y21137620D02*
X71890000Y21613810D01*
X71651904Y21137620D02*
X71651904Y22137620D01*
X72032857Y22137620D01*
X72128095Y22090000D01*
X72175714Y22042381D01*
X72223333Y21947143D01*
X72223333Y21804286D01*
X72175714Y21709048D01*
X72128095Y21661429D01*
X72032857Y21613810D01*
X71651904Y21613810D01*
X72556666Y22137620D02*
X73175714Y22137620D01*
X72842380Y21756667D01*
X72985238Y21756667D01*
X73080476Y21709048D01*
X73128095Y21661429D01*
X73175714Y21566191D01*
X73175714Y21328096D01*
X73128095Y21232858D01*
X73080476Y21185239D01*
X72985238Y21137620D01*
X72699523Y21137620D01*
X72604285Y21185239D01*
X72556666Y21232858D01*
%TO.C,R4*%
X70735714Y12874762D02*
X71402380Y12874762D01*
X70354761Y12636667D02*
X71069047Y12398572D01*
X71069047Y13017620D01*
X71307142Y13398572D02*
X71354761Y13446191D01*
X71402380Y13398572D01*
X71354761Y13350953D01*
X71307142Y13398572D01*
X71402380Y13398572D01*
X70402380Y13779524D02*
X70402380Y14446191D01*
X71402380Y14017620D01*
X71402380Y14827143D02*
X70402380Y14827143D01*
X71116666Y15160477D01*
X70402380Y15493810D01*
X71402380Y15493810D01*
X69032380Y13803334D02*
X68556190Y13470000D01*
X69032380Y13231905D02*
X68032380Y13231905D01*
X68032380Y13612858D01*
X68080000Y13708096D01*
X68127619Y13755715D01*
X68222857Y13803334D01*
X68365714Y13803334D01*
X68460952Y13755715D01*
X68508571Y13708096D01*
X68556190Y13612858D01*
X68556190Y13231905D01*
X68365714Y14660477D02*
X69032380Y14660477D01*
X67984761Y14422381D02*
X68699047Y14184286D01*
X68699047Y14803334D01*
%TO.C,R5*%
X72175714Y6997620D02*
X71604285Y6997620D01*
X71890000Y6997620D02*
X71890000Y7997620D01*
X71794761Y7854762D01*
X71699523Y7759524D01*
X71604285Y7711905D01*
X72604285Y6997620D02*
X72604285Y7997620D01*
X73175714Y6997620D02*
X72747142Y7569048D01*
X73175714Y7997620D02*
X72604285Y7426191D01*
X72223333Y4627620D02*
X71890000Y5103810D01*
X71651904Y4627620D02*
X71651904Y5627620D01*
X72032857Y5627620D01*
X72128095Y5580000D01*
X72175714Y5532381D01*
X72223333Y5437143D01*
X72223333Y5294286D01*
X72175714Y5199048D01*
X72128095Y5151429D01*
X72032857Y5103810D01*
X71651904Y5103810D01*
X73128095Y5627620D02*
X72651904Y5627620D01*
X72604285Y5151429D01*
X72651904Y5199048D01*
X72747142Y5246667D01*
X72985238Y5246667D01*
X73080476Y5199048D01*
X73128095Y5151429D01*
X73175714Y5056191D01*
X73175714Y4818096D01*
X73128095Y4722858D01*
X73080476Y4675239D01*
X72985238Y4627620D01*
X72747142Y4627620D01*
X72651904Y4675239D01*
X72604285Y4722858D01*
%TO.C,U1*%
X34140714Y11156905D02*
X34807380Y11156905D01*
X33759761Y10918810D02*
X34474047Y10680715D01*
X34474047Y11299762D01*
X33807380Y11871191D02*
X33807380Y11966429D01*
X33855000Y12061667D01*
X33902619Y12109286D01*
X33997857Y12156905D01*
X34188333Y12204524D01*
X34426428Y12204524D01*
X34616904Y12156905D01*
X34712142Y12109286D01*
X34759761Y12061667D01*
X34807380Y11966429D01*
X34807380Y11871191D01*
X34759761Y11775953D01*
X34712142Y11728334D01*
X34616904Y11680715D01*
X34426428Y11633096D01*
X34188333Y11633096D01*
X33997857Y11680715D01*
X33902619Y11728334D01*
X33855000Y11775953D01*
X33807380Y11871191D01*
X33807380Y12823572D02*
X33807380Y12918810D01*
X33855000Y13014048D01*
X33902619Y13061667D01*
X33997857Y13109286D01*
X34188333Y13156905D01*
X34426428Y13156905D01*
X34616904Y13109286D01*
X34712142Y13061667D01*
X34759761Y13014048D01*
X34807380Y12918810D01*
X34807380Y12823572D01*
X34759761Y12728334D01*
X34712142Y12680715D01*
X34616904Y12633096D01*
X34426428Y12585477D01*
X34188333Y12585477D01*
X33997857Y12633096D01*
X33902619Y12680715D01*
X33855000Y12728334D01*
X33807380Y12823572D01*
X34807380Y14109286D02*
X34807380Y13537858D01*
X34807380Y13823572D02*
X33807380Y13823572D01*
X33950238Y13728334D01*
X34045476Y13633096D01*
X34093095Y13537858D01*
X43757380Y11633096D02*
X44566904Y11633096D01*
X44662142Y11680715D01*
X44709761Y11728334D01*
X44757380Y11823572D01*
X44757380Y12014048D01*
X44709761Y12109286D01*
X44662142Y12156905D01*
X44566904Y12204524D01*
X43757380Y12204524D01*
X44757380Y13204524D02*
X44757380Y12633096D01*
X44757380Y12918810D02*
X43757380Y12918810D01*
X43900238Y12823572D01*
X43995476Y12728334D01*
X44043095Y12633096D01*
%TD*%
M02*
