%TF.GenerationSoftware,KiCad,Pcbnew,5.1.5-1.fc31*%
%TF.CreationDate,2020-01-31T17:19:48+01:00*%
%TF.ProjectId,logical-probe-1,6c6f6769-6361-46c2-9d70-726f62652d31,1.0*%
%TF.SameCoordinates,PX3efb0c0PY9157080*%
%TF.FileFunction,Soldermask,Bot*%
%TF.FilePolarity,Negative*%
%FSLAX46Y46*%
G04 Gerber Fmt 4.6, Leading zero omitted, Abs format (unit mm)*
G04 Created by KiCad (PCBNEW 5.1.5-1.fc31) date 2020-01-31 17:19:48*
%MOMM*%
%LPD*%
G04 APERTURE LIST*
%ADD10C,0.150000*%
G04 APERTURE END LIST*
D10*
G36*
X76448228Y5898297D02*
G01*
X76603100Y5834147D01*
X76742481Y5741015D01*
X76861015Y5622481D01*
X76954147Y5483100D01*
X77018297Y5328228D01*
X77051000Y5163816D01*
X77051000Y4996184D01*
X77018297Y4831772D01*
X76954147Y4676900D01*
X76861015Y4537519D01*
X76742481Y4418985D01*
X76603100Y4325853D01*
X76448228Y4261703D01*
X76283816Y4229000D01*
X76116184Y4229000D01*
X75951772Y4261703D01*
X75796900Y4325853D01*
X75657519Y4418985D01*
X75538985Y4537519D01*
X75445853Y4676900D01*
X75381703Y4831772D01*
X75349000Y4996184D01*
X75349000Y5163816D01*
X75381703Y5328228D01*
X75445853Y5483100D01*
X75538985Y5622481D01*
X75657519Y5741015D01*
X75796900Y5834147D01*
X75951772Y5898297D01*
X76116184Y5931000D01*
X76283816Y5931000D01*
X76448228Y5898297D01*
G37*
G36*
X68828228Y5898297D02*
G01*
X68983100Y5834147D01*
X69122481Y5741015D01*
X69241015Y5622481D01*
X69334147Y5483100D01*
X69398297Y5328228D01*
X69431000Y5163816D01*
X69431000Y4996184D01*
X69398297Y4831772D01*
X69334147Y4676900D01*
X69241015Y4537519D01*
X69122481Y4418985D01*
X68983100Y4325853D01*
X68828228Y4261703D01*
X68663816Y4229000D01*
X68496184Y4229000D01*
X68331772Y4261703D01*
X68176900Y4325853D01*
X68037519Y4418985D01*
X67918985Y4537519D01*
X67825853Y4676900D01*
X67761703Y4831772D01*
X67729000Y4996184D01*
X67729000Y5163816D01*
X67761703Y5328228D01*
X67825853Y5483100D01*
X67918985Y5622481D01*
X68037519Y5741015D01*
X68176900Y5834147D01*
X68331772Y5898297D01*
X68496184Y5931000D01*
X68663816Y5931000D01*
X68828228Y5898297D01*
G37*
G36*
X52173228Y9403297D02*
G01*
X52328100Y9339147D01*
X52467481Y9246015D01*
X52586015Y9127481D01*
X52679147Y8988100D01*
X52743297Y8833228D01*
X52776000Y8668816D01*
X52776000Y8501184D01*
X52743297Y8336772D01*
X52679147Y8181900D01*
X52586015Y8042519D01*
X52467481Y7923985D01*
X52328100Y7830853D01*
X52173228Y7766703D01*
X52008816Y7734000D01*
X51841184Y7734000D01*
X51676772Y7766703D01*
X51521900Y7830853D01*
X51382519Y7923985D01*
X51263985Y8042519D01*
X51170853Y8181900D01*
X51106703Y8336772D01*
X51074000Y8501184D01*
X51074000Y8668816D01*
X51106703Y8833228D01*
X51170853Y8988100D01*
X51263985Y9127481D01*
X51382519Y9246015D01*
X51521900Y9339147D01*
X51676772Y9403297D01*
X51841184Y9436000D01*
X52008816Y9436000D01*
X52173228Y9403297D01*
G37*
G36*
X49633228Y9403297D02*
G01*
X49788100Y9339147D01*
X49927481Y9246015D01*
X50046015Y9127481D01*
X50139147Y8988100D01*
X50203297Y8833228D01*
X50236000Y8668816D01*
X50236000Y8501184D01*
X50203297Y8336772D01*
X50139147Y8181900D01*
X50046015Y8042519D01*
X49927481Y7923985D01*
X49788100Y7830853D01*
X49633228Y7766703D01*
X49468816Y7734000D01*
X49301184Y7734000D01*
X49136772Y7766703D01*
X48981900Y7830853D01*
X48842519Y7923985D01*
X48723985Y8042519D01*
X48630853Y8181900D01*
X48566703Y8336772D01*
X48534000Y8501184D01*
X48534000Y8668816D01*
X48566703Y8833228D01*
X48630853Y8988100D01*
X48723985Y9127481D01*
X48842519Y9246015D01*
X48981900Y9339147D01*
X49136772Y9403297D01*
X49301184Y9436000D01*
X49468816Y9436000D01*
X49633228Y9403297D01*
G37*
G36*
X47093228Y9403297D02*
G01*
X47248100Y9339147D01*
X47387481Y9246015D01*
X47506015Y9127481D01*
X47599147Y8988100D01*
X47663297Y8833228D01*
X47696000Y8668816D01*
X47696000Y8501184D01*
X47663297Y8336772D01*
X47599147Y8181900D01*
X47506015Y8042519D01*
X47387481Y7923985D01*
X47248100Y7830853D01*
X47093228Y7766703D01*
X46928816Y7734000D01*
X46761184Y7734000D01*
X46596772Y7766703D01*
X46441900Y7830853D01*
X46302519Y7923985D01*
X46183985Y8042519D01*
X46090853Y8181900D01*
X46026703Y8336772D01*
X45994000Y8501184D01*
X45994000Y8668816D01*
X46026703Y8833228D01*
X46090853Y8988100D01*
X46183985Y9127481D01*
X46302519Y9246015D01*
X46441900Y9339147D01*
X46596772Y9403297D01*
X46761184Y9436000D01*
X46928816Y9436000D01*
X47093228Y9403297D01*
G37*
G36*
X42013228Y9403297D02*
G01*
X42168100Y9339147D01*
X42307481Y9246015D01*
X42426015Y9127481D01*
X42519147Y8988100D01*
X42583297Y8833228D01*
X42616000Y8668816D01*
X42616000Y8501184D01*
X42583297Y8336772D01*
X42519147Y8181900D01*
X42426015Y8042519D01*
X42307481Y7923985D01*
X42168100Y7830853D01*
X42013228Y7766703D01*
X41848816Y7734000D01*
X41681184Y7734000D01*
X41516772Y7766703D01*
X41361900Y7830853D01*
X41222519Y7923985D01*
X41103985Y8042519D01*
X41010853Y8181900D01*
X40946703Y8336772D01*
X40914000Y8501184D01*
X40914000Y8668816D01*
X40946703Y8833228D01*
X41010853Y8988100D01*
X41103985Y9127481D01*
X41222519Y9246015D01*
X41361900Y9339147D01*
X41516772Y9403297D01*
X41681184Y9436000D01*
X41848816Y9436000D01*
X42013228Y9403297D01*
G37*
G36*
X39473228Y9403297D02*
G01*
X39628100Y9339147D01*
X39767481Y9246015D01*
X39886015Y9127481D01*
X39979147Y8988100D01*
X40043297Y8833228D01*
X40076000Y8668816D01*
X40076000Y8501184D01*
X40043297Y8336772D01*
X39979147Y8181900D01*
X39886015Y8042519D01*
X39767481Y7923985D01*
X39628100Y7830853D01*
X39473228Y7766703D01*
X39308816Y7734000D01*
X39141184Y7734000D01*
X38976772Y7766703D01*
X38821900Y7830853D01*
X38682519Y7923985D01*
X38563985Y8042519D01*
X38470853Y8181900D01*
X38406703Y8336772D01*
X38374000Y8501184D01*
X38374000Y8668816D01*
X38406703Y8833228D01*
X38470853Y8988100D01*
X38563985Y9127481D01*
X38682519Y9246015D01*
X38821900Y9339147D01*
X38976772Y9403297D01*
X39141184Y9436000D01*
X39308816Y9436000D01*
X39473228Y9403297D01*
G37*
G36*
X36933228Y9403297D02*
G01*
X37088100Y9339147D01*
X37227481Y9246015D01*
X37346015Y9127481D01*
X37439147Y8988100D01*
X37503297Y8833228D01*
X37536000Y8668816D01*
X37536000Y8501184D01*
X37503297Y8336772D01*
X37439147Y8181900D01*
X37346015Y8042519D01*
X37227481Y7923985D01*
X37088100Y7830853D01*
X36933228Y7766703D01*
X36768816Y7734000D01*
X36601184Y7734000D01*
X36436772Y7766703D01*
X36281900Y7830853D01*
X36142519Y7923985D01*
X36023985Y8042519D01*
X35930853Y8181900D01*
X35866703Y8336772D01*
X35834000Y8501184D01*
X35834000Y8668816D01*
X35866703Y8833228D01*
X35930853Y8988100D01*
X36023985Y9127481D01*
X36142519Y9246015D01*
X36281900Y9339147D01*
X36436772Y9403297D01*
X36601184Y9436000D01*
X36768816Y9436000D01*
X36933228Y9403297D01*
G37*
G36*
X44553228Y9403297D02*
G01*
X44708100Y9339147D01*
X44847481Y9246015D01*
X44966015Y9127481D01*
X45059147Y8988100D01*
X45123297Y8833228D01*
X45156000Y8668816D01*
X45156000Y8501184D01*
X45123297Y8336772D01*
X45059147Y8181900D01*
X44966015Y8042519D01*
X44847481Y7923985D01*
X44708100Y7830853D01*
X44553228Y7766703D01*
X44388816Y7734000D01*
X44221184Y7734000D01*
X44056772Y7766703D01*
X43901900Y7830853D01*
X43762519Y7923985D01*
X43643985Y8042519D01*
X43550853Y8181900D01*
X43486703Y8336772D01*
X43454000Y8501184D01*
X43454000Y8668816D01*
X43486703Y8833228D01*
X43550853Y8988100D01*
X43643985Y9127481D01*
X43762519Y9246015D01*
X43901900Y9339147D01*
X44056772Y9403297D01*
X44221184Y9436000D01*
X44388816Y9436000D01*
X44553228Y9403297D01*
G37*
G36*
X61168228Y9708297D02*
G01*
X61323100Y9644147D01*
X61462481Y9551015D01*
X61581015Y9432481D01*
X61674147Y9293100D01*
X61738297Y9138228D01*
X61771000Y8973816D01*
X61771000Y8806184D01*
X61738297Y8641772D01*
X61674147Y8486900D01*
X61581015Y8347519D01*
X61462481Y8228985D01*
X61323100Y8135853D01*
X61168228Y8071703D01*
X61003816Y8039000D01*
X60836184Y8039000D01*
X60671772Y8071703D01*
X60516900Y8135853D01*
X60377519Y8228985D01*
X60258985Y8347519D01*
X60165853Y8486900D01*
X60101703Y8641772D01*
X60069000Y8806184D01*
X60069000Y8973816D01*
X60101703Y9138228D01*
X60165853Y9293100D01*
X60258985Y9432481D01*
X60377519Y9551015D01*
X60516900Y9644147D01*
X60671772Y9708297D01*
X60836184Y9741000D01*
X61003816Y9741000D01*
X61168228Y9708297D01*
G37*
G36*
X58668228Y9708297D02*
G01*
X58823100Y9644147D01*
X58962481Y9551015D01*
X59081015Y9432481D01*
X59174147Y9293100D01*
X59238297Y9138228D01*
X59271000Y8973816D01*
X59271000Y8806184D01*
X59238297Y8641772D01*
X59174147Y8486900D01*
X59081015Y8347519D01*
X58962481Y8228985D01*
X58823100Y8135853D01*
X58668228Y8071703D01*
X58503816Y8039000D01*
X58336184Y8039000D01*
X58171772Y8071703D01*
X58016900Y8135853D01*
X57877519Y8228985D01*
X57758985Y8347519D01*
X57665853Y8486900D01*
X57601703Y8641772D01*
X57569000Y8806184D01*
X57569000Y8973816D01*
X57601703Y9138228D01*
X57665853Y9293100D01*
X57758985Y9432481D01*
X57877519Y9551015D01*
X58016900Y9644147D01*
X58171772Y9708297D01*
X58336184Y9741000D01*
X58503816Y9741000D01*
X58668228Y9708297D01*
G37*
G36*
X68828228Y10978297D02*
G01*
X68983100Y10914147D01*
X69122481Y10821015D01*
X69241015Y10702481D01*
X69334147Y10563100D01*
X69398297Y10408228D01*
X69431000Y10243816D01*
X69431000Y10076184D01*
X69398297Y9911772D01*
X69334147Y9756900D01*
X69241015Y9617519D01*
X69122481Y9498985D01*
X68983100Y9405853D01*
X68828228Y9341703D01*
X68663816Y9309000D01*
X68496184Y9309000D01*
X68331772Y9341703D01*
X68176900Y9405853D01*
X68037519Y9498985D01*
X67918985Y9617519D01*
X67825853Y9756900D01*
X67761703Y9911772D01*
X67729000Y10076184D01*
X67729000Y10243816D01*
X67761703Y10408228D01*
X67825853Y10563100D01*
X67918985Y10702481D01*
X68037519Y10821015D01*
X68176900Y10914147D01*
X68331772Y10978297D01*
X68496184Y11011000D01*
X68663816Y11011000D01*
X68828228Y10978297D01*
G37*
G36*
X75178228Y10978297D02*
G01*
X75333100Y10914147D01*
X75472481Y10821015D01*
X75591015Y10702481D01*
X75684147Y10563100D01*
X75748297Y10408228D01*
X75781000Y10243816D01*
X75781000Y10076184D01*
X75748297Y9911772D01*
X75684147Y9756900D01*
X75591015Y9617519D01*
X75472481Y9498985D01*
X75333100Y9405853D01*
X75178228Y9341703D01*
X75013816Y9309000D01*
X74846184Y9309000D01*
X74681772Y9341703D01*
X74526900Y9405853D01*
X74387519Y9498985D01*
X74268985Y9617519D01*
X74175853Y9756900D01*
X74111703Y9911772D01*
X74079000Y10076184D01*
X74079000Y10243816D01*
X74111703Y10408228D01*
X74175853Y10563100D01*
X74268985Y10702481D01*
X74387519Y10821015D01*
X74526900Y10914147D01*
X74681772Y10978297D01*
X74846184Y11011000D01*
X75013816Y11011000D01*
X75178228Y10978297D01*
G37*
G36*
X125967142Y10941758D02*
G01*
X126115101Y10880471D01*
X126248255Y10791501D01*
X126361501Y10678255D01*
X126450471Y10545101D01*
X126511758Y10397142D01*
X126543000Y10240075D01*
X126543000Y10079925D01*
X126511758Y9922858D01*
X126450471Y9774899D01*
X126361501Y9641745D01*
X126248255Y9528499D01*
X126115101Y9439529D01*
X125967142Y9378242D01*
X125810075Y9347000D01*
X125649925Y9347000D01*
X125492858Y9378242D01*
X125344899Y9439529D01*
X125211745Y9528499D01*
X125098499Y9641745D01*
X125009529Y9774899D01*
X124948242Y9922858D01*
X124917000Y10079925D01*
X124917000Y10240075D01*
X124948242Y10397142D01*
X125009529Y10545101D01*
X125098499Y10678255D01*
X125211745Y10791501D01*
X125344899Y10880471D01*
X125492858Y10941758D01*
X125649925Y10973000D01*
X125810075Y10973000D01*
X125967142Y10941758D01*
G37*
G36*
X123427142Y10941758D02*
G01*
X123575101Y10880471D01*
X123708255Y10791501D01*
X123821501Y10678255D01*
X123910471Y10545101D01*
X123971758Y10397142D01*
X124003000Y10240075D01*
X124003000Y10079925D01*
X123971758Y9922858D01*
X123910471Y9774899D01*
X123821501Y9641745D01*
X123708255Y9528499D01*
X123575101Y9439529D01*
X123427142Y9378242D01*
X123270075Y9347000D01*
X123109925Y9347000D01*
X122952858Y9378242D01*
X122804899Y9439529D01*
X122671745Y9528499D01*
X122558499Y9641745D01*
X122469529Y9774899D01*
X122408242Y9922858D01*
X122377000Y10079925D01*
X122377000Y10240075D01*
X122408242Y10397142D01*
X122469529Y10545101D01*
X122558499Y10678255D01*
X122671745Y10791501D01*
X122804899Y10880471D01*
X122952858Y10941758D01*
X123109925Y10973000D01*
X123270075Y10973000D01*
X123427142Y10941758D01*
G37*
G36*
X5337715Y15265617D02*
G01*
X5465322Y15240235D01*
X5606148Y15181903D01*
X5705727Y15140656D01*
X5705728Y15140655D01*
X5922089Y14996088D01*
X6106088Y14812089D01*
X6166455Y14721743D01*
X6250656Y14595727D01*
X6282218Y14519529D01*
X6350235Y14355322D01*
X6401000Y14100107D01*
X6401000Y13839893D01*
X6350235Y13584678D01*
X6291903Y13443852D01*
X6250656Y13344273D01*
X6238264Y13325727D01*
X6106088Y13127911D01*
X5922089Y12943912D01*
X5785597Y12852711D01*
X5712595Y12803933D01*
X5693653Y12788388D01*
X5678108Y12769446D01*
X5666557Y12747835D01*
X5659444Y12724386D01*
X5657042Y12700000D01*
X5659444Y12675614D01*
X5666557Y12652165D01*
X5678108Y12630554D01*
X5693653Y12611612D01*
X5712595Y12596067D01*
X5751767Y12569893D01*
X5922089Y12456088D01*
X6106088Y12272089D01*
X6121159Y12249533D01*
X6250656Y12055727D01*
X6289764Y11961310D01*
X6350235Y11815322D01*
X6401000Y11560107D01*
X6401000Y11299893D01*
X6350235Y11044678D01*
X6307604Y10941758D01*
X6250656Y10804273D01*
X6202685Y10732479D01*
X6106088Y10587911D01*
X5922089Y10403912D01*
X5777521Y10307315D01*
X5705727Y10259344D01*
X5606148Y10218097D01*
X5465322Y10159765D01*
X5337715Y10134383D01*
X5210109Y10109000D01*
X4949891Y10109000D01*
X4822285Y10134383D01*
X4694678Y10159765D01*
X4553852Y10218097D01*
X4454273Y10259344D01*
X4382479Y10307315D01*
X4237911Y10403912D01*
X4053912Y10587911D01*
X3957315Y10732479D01*
X3909344Y10804273D01*
X3852396Y10941758D01*
X3809765Y11044678D01*
X3759000Y11299893D01*
X3759000Y11560107D01*
X3809765Y11815322D01*
X3870236Y11961310D01*
X3909344Y12055727D01*
X4038841Y12249533D01*
X4053912Y12272089D01*
X4237911Y12456088D01*
X4408233Y12569893D01*
X4447405Y12596067D01*
X4466347Y12611612D01*
X4481892Y12630554D01*
X4493443Y12652165D01*
X4500556Y12675614D01*
X4502958Y12700000D01*
X4500556Y12724386D01*
X4493443Y12747835D01*
X4481892Y12769446D01*
X4466347Y12788388D01*
X4447405Y12803933D01*
X4374403Y12852711D01*
X4237911Y12943912D01*
X4053912Y13127911D01*
X3921736Y13325727D01*
X3909344Y13344273D01*
X3868097Y13443852D01*
X3809765Y13584678D01*
X3759000Y13839893D01*
X3759000Y14100107D01*
X3809765Y14355322D01*
X3877782Y14519529D01*
X3909344Y14595727D01*
X3993545Y14721743D01*
X4053912Y14812089D01*
X4237911Y14996088D01*
X4454272Y15140655D01*
X4454273Y15140656D01*
X4553852Y15181903D01*
X4694678Y15240235D01*
X4822285Y15265617D01*
X4949891Y15291000D01*
X5210109Y15291000D01*
X5337715Y15265617D01*
G37*
G36*
X10417715Y13995617D02*
G01*
X10545322Y13970235D01*
X10686148Y13911903D01*
X10785727Y13870656D01*
X10785728Y13870655D01*
X11002089Y13726088D01*
X11186088Y13542089D01*
X11282685Y13397521D01*
X11330656Y13325727D01*
X11371903Y13226148D01*
X11430235Y13085322D01*
X11481000Y12830107D01*
X11481000Y12569893D01*
X11430235Y12314678D01*
X11371903Y12173852D01*
X11330656Y12074273D01*
X11318264Y12055727D01*
X11186088Y11857911D01*
X11002089Y11673912D01*
X10857521Y11577315D01*
X10785727Y11529344D01*
X10686148Y11488097D01*
X10545322Y11429765D01*
X10417714Y11404382D01*
X10290109Y11379000D01*
X10029891Y11379000D01*
X9902286Y11404382D01*
X9774678Y11429765D01*
X9633852Y11488097D01*
X9534273Y11529344D01*
X9462479Y11577315D01*
X9317911Y11673912D01*
X9133912Y11857911D01*
X9001736Y12055727D01*
X8989344Y12074273D01*
X8948097Y12173852D01*
X8889765Y12314678D01*
X8839000Y12569893D01*
X8839000Y12830107D01*
X8889765Y13085322D01*
X8948097Y13226148D01*
X8989344Y13325727D01*
X9037315Y13397521D01*
X9133912Y13542089D01*
X9317911Y13726088D01*
X9534272Y13870655D01*
X9534273Y13870656D01*
X9633852Y13911903D01*
X9774678Y13970235D01*
X9902285Y13995617D01*
X10029891Y14021000D01*
X10290109Y14021000D01*
X10417715Y13995617D01*
G37*
G36*
X84097395Y13614454D02*
G01*
X84270466Y13542766D01*
X84347818Y13491081D01*
X84426227Y13438690D01*
X84558690Y13306227D01*
X84558691Y13306225D01*
X84662766Y13150466D01*
X84734454Y12977395D01*
X84771000Y12793667D01*
X84771000Y12606333D01*
X84734454Y12422605D01*
X84662766Y12249534D01*
X84662765Y12249533D01*
X84558690Y12093773D01*
X84426227Y11961310D01*
X84347818Y11908919D01*
X84270466Y11857234D01*
X84097395Y11785546D01*
X83913667Y11749000D01*
X83726333Y11749000D01*
X83542605Y11785546D01*
X83369534Y11857234D01*
X83292182Y11908919D01*
X83213773Y11961310D01*
X83081310Y12093773D01*
X82977235Y12249533D01*
X82977234Y12249534D01*
X82905546Y12422605D01*
X82869000Y12606333D01*
X82869000Y12793667D01*
X82905546Y12977395D01*
X82977234Y13150466D01*
X83081309Y13306225D01*
X83081310Y13306227D01*
X83213773Y13438690D01*
X83292182Y13491081D01*
X83369534Y13542766D01*
X83542605Y13614454D01*
X83726333Y13651000D01*
X83913667Y13651000D01*
X84097395Y13614454D01*
G37*
G36*
X82231000Y11749000D02*
G01*
X80329000Y11749000D01*
X80329000Y13651000D01*
X82231000Y13651000D01*
X82231000Y11749000D01*
G37*
G36*
X90447395Y13614454D02*
G01*
X90620466Y13542766D01*
X90697818Y13491081D01*
X90776227Y13438690D01*
X90908690Y13306227D01*
X90908691Y13306225D01*
X91012766Y13150466D01*
X91084454Y12977395D01*
X91121000Y12793667D01*
X91121000Y12606333D01*
X91084454Y12422605D01*
X91012766Y12249534D01*
X91012765Y12249533D01*
X90908690Y12093773D01*
X90776227Y11961310D01*
X90697818Y11908919D01*
X90620466Y11857234D01*
X90447395Y11785546D01*
X90263667Y11749000D01*
X90076333Y11749000D01*
X89892605Y11785546D01*
X89719534Y11857234D01*
X89642182Y11908919D01*
X89563773Y11961310D01*
X89431310Y12093773D01*
X89327235Y12249533D01*
X89327234Y12249534D01*
X89255546Y12422605D01*
X89219000Y12606333D01*
X89219000Y12793667D01*
X89255546Y12977395D01*
X89327234Y13150466D01*
X89431309Y13306225D01*
X89431310Y13306227D01*
X89563773Y13438690D01*
X89642182Y13491081D01*
X89719534Y13542766D01*
X89892605Y13614454D01*
X90076333Y13651000D01*
X90263667Y13651000D01*
X90447395Y13614454D01*
G37*
G36*
X96797395Y13614454D02*
G01*
X96970466Y13542766D01*
X97047818Y13491081D01*
X97126227Y13438690D01*
X97258690Y13306227D01*
X97258691Y13306225D01*
X97362766Y13150466D01*
X97434454Y12977395D01*
X97471000Y12793667D01*
X97471000Y12606333D01*
X97434454Y12422605D01*
X97362766Y12249534D01*
X97362765Y12249533D01*
X97258690Y12093773D01*
X97126227Y11961310D01*
X97047818Y11908919D01*
X96970466Y11857234D01*
X96797395Y11785546D01*
X96613667Y11749000D01*
X96426333Y11749000D01*
X96242605Y11785546D01*
X96069534Y11857234D01*
X95992182Y11908919D01*
X95913773Y11961310D01*
X95781310Y12093773D01*
X95677235Y12249533D01*
X95677234Y12249534D01*
X95605546Y12422605D01*
X95569000Y12606333D01*
X95569000Y12793667D01*
X95605546Y12977395D01*
X95677234Y13150466D01*
X95781309Y13306225D01*
X95781310Y13306227D01*
X95913773Y13438690D01*
X95992182Y13491081D01*
X96069534Y13542766D01*
X96242605Y13614454D01*
X96426333Y13651000D01*
X96613667Y13651000D01*
X96797395Y13614454D01*
G37*
G36*
X94931000Y11749000D02*
G01*
X93029000Y11749000D01*
X93029000Y13651000D01*
X94931000Y13651000D01*
X94931000Y11749000D01*
G37*
G36*
X88581000Y11749000D02*
G01*
X86679000Y11749000D01*
X86679000Y13651000D01*
X88581000Y13651000D01*
X88581000Y11749000D01*
G37*
G36*
X125967142Y16021758D02*
G01*
X126115101Y15960471D01*
X126248255Y15871501D01*
X126361501Y15758255D01*
X126450471Y15625101D01*
X126511758Y15477142D01*
X126543000Y15320075D01*
X126543000Y15159925D01*
X126511758Y15002858D01*
X126450471Y14854899D01*
X126361501Y14721745D01*
X126248255Y14608499D01*
X126115101Y14519529D01*
X125967142Y14458242D01*
X125810075Y14427000D01*
X125649925Y14427000D01*
X125492858Y14458242D01*
X125344899Y14519529D01*
X125211745Y14608499D01*
X125098499Y14721745D01*
X125009529Y14854899D01*
X124948242Y15002858D01*
X124917000Y15159925D01*
X124917000Y15320075D01*
X124948242Y15477142D01*
X125009529Y15625101D01*
X125098499Y15758255D01*
X125211745Y15871501D01*
X125344899Y15960471D01*
X125492858Y16021758D01*
X125649925Y16053000D01*
X125810075Y16053000D01*
X125967142Y16021758D01*
G37*
G36*
X123427142Y16021758D02*
G01*
X123575101Y15960471D01*
X123708255Y15871501D01*
X123821501Y15758255D01*
X123910471Y15625101D01*
X123971758Y15477142D01*
X124003000Y15320075D01*
X124003000Y15159925D01*
X123971758Y15002858D01*
X123910471Y14854899D01*
X123821501Y14721745D01*
X123708255Y14608499D01*
X123575101Y14519529D01*
X123427142Y14458242D01*
X123270075Y14427000D01*
X123109925Y14427000D01*
X122952858Y14458242D01*
X122804899Y14519529D01*
X122671745Y14608499D01*
X122558499Y14721745D01*
X122469529Y14854899D01*
X122408242Y15002858D01*
X122377000Y15159925D01*
X122377000Y15320075D01*
X122408242Y15477142D01*
X122469529Y15625101D01*
X122558499Y15758255D01*
X122671745Y15871501D01*
X122804899Y15960471D01*
X122952858Y16021758D01*
X123109925Y16053000D01*
X123270075Y16053000D01*
X123427142Y16021758D01*
G37*
G36*
X44553228Y17023297D02*
G01*
X44708100Y16959147D01*
X44847481Y16866015D01*
X44966015Y16747481D01*
X45059147Y16608100D01*
X45123297Y16453228D01*
X45156000Y16288816D01*
X45156000Y16121184D01*
X45123297Y15956772D01*
X45059147Y15801900D01*
X44966015Y15662519D01*
X44847481Y15543985D01*
X44708100Y15450853D01*
X44553228Y15386703D01*
X44388816Y15354000D01*
X44221184Y15354000D01*
X44056772Y15386703D01*
X43901900Y15450853D01*
X43762519Y15543985D01*
X43643985Y15662519D01*
X43550853Y15801900D01*
X43486703Y15956772D01*
X43454000Y16121184D01*
X43454000Y16288816D01*
X43486703Y16453228D01*
X43550853Y16608100D01*
X43643985Y16747481D01*
X43762519Y16866015D01*
X43901900Y16959147D01*
X44056772Y17023297D01*
X44221184Y17056000D01*
X44388816Y17056000D01*
X44553228Y17023297D01*
G37*
G36*
X47093228Y17023297D02*
G01*
X47248100Y16959147D01*
X47387481Y16866015D01*
X47506015Y16747481D01*
X47599147Y16608100D01*
X47663297Y16453228D01*
X47696000Y16288816D01*
X47696000Y16121184D01*
X47663297Y15956772D01*
X47599147Y15801900D01*
X47506015Y15662519D01*
X47387481Y15543985D01*
X47248100Y15450853D01*
X47093228Y15386703D01*
X46928816Y15354000D01*
X46761184Y15354000D01*
X46596772Y15386703D01*
X46441900Y15450853D01*
X46302519Y15543985D01*
X46183985Y15662519D01*
X46090853Y15801900D01*
X46026703Y15956772D01*
X45994000Y16121184D01*
X45994000Y16288816D01*
X46026703Y16453228D01*
X46090853Y16608100D01*
X46183985Y16747481D01*
X46302519Y16866015D01*
X46441900Y16959147D01*
X46596772Y17023297D01*
X46761184Y17056000D01*
X46928816Y17056000D01*
X47093228Y17023297D01*
G37*
G36*
X42013228Y17023297D02*
G01*
X42168100Y16959147D01*
X42307481Y16866015D01*
X42426015Y16747481D01*
X42519147Y16608100D01*
X42583297Y16453228D01*
X42616000Y16288816D01*
X42616000Y16121184D01*
X42583297Y15956772D01*
X42519147Y15801900D01*
X42426015Y15662519D01*
X42307481Y15543985D01*
X42168100Y15450853D01*
X42013228Y15386703D01*
X41848816Y15354000D01*
X41681184Y15354000D01*
X41516772Y15386703D01*
X41361900Y15450853D01*
X41222519Y15543985D01*
X41103985Y15662519D01*
X41010853Y15801900D01*
X40946703Y15956772D01*
X40914000Y16121184D01*
X40914000Y16288816D01*
X40946703Y16453228D01*
X41010853Y16608100D01*
X41103985Y16747481D01*
X41222519Y16866015D01*
X41361900Y16959147D01*
X41516772Y17023297D01*
X41681184Y17056000D01*
X41848816Y17056000D01*
X42013228Y17023297D01*
G37*
G36*
X39473228Y17023297D02*
G01*
X39628100Y16959147D01*
X39767481Y16866015D01*
X39886015Y16747481D01*
X39979147Y16608100D01*
X40043297Y16453228D01*
X40076000Y16288816D01*
X40076000Y16121184D01*
X40043297Y15956772D01*
X39979147Y15801900D01*
X39886015Y15662519D01*
X39767481Y15543985D01*
X39628100Y15450853D01*
X39473228Y15386703D01*
X39308816Y15354000D01*
X39141184Y15354000D01*
X38976772Y15386703D01*
X38821900Y15450853D01*
X38682519Y15543985D01*
X38563985Y15662519D01*
X38470853Y15801900D01*
X38406703Y15956772D01*
X38374000Y16121184D01*
X38374000Y16288816D01*
X38406703Y16453228D01*
X38470853Y16608100D01*
X38563985Y16747481D01*
X38682519Y16866015D01*
X38821900Y16959147D01*
X38976772Y17023297D01*
X39141184Y17056000D01*
X39308816Y17056000D01*
X39473228Y17023297D01*
G37*
G36*
X36933228Y17023297D02*
G01*
X37088100Y16959147D01*
X37227481Y16866015D01*
X37346015Y16747481D01*
X37439147Y16608100D01*
X37503297Y16453228D01*
X37536000Y16288816D01*
X37536000Y16121184D01*
X37503297Y15956772D01*
X37439147Y15801900D01*
X37346015Y15662519D01*
X37227481Y15543985D01*
X37088100Y15450853D01*
X36933228Y15386703D01*
X36768816Y15354000D01*
X36601184Y15354000D01*
X36436772Y15386703D01*
X36281900Y15450853D01*
X36142519Y15543985D01*
X36023985Y15662519D01*
X35930853Y15801900D01*
X35866703Y15956772D01*
X35834000Y16121184D01*
X35834000Y16288816D01*
X35866703Y16453228D01*
X35930853Y16608100D01*
X36023985Y16747481D01*
X36142519Y16866015D01*
X36281900Y16959147D01*
X36436772Y17023297D01*
X36601184Y17056000D01*
X36768816Y17056000D01*
X36933228Y17023297D01*
G37*
G36*
X52776000Y15354000D02*
G01*
X51074000Y15354000D01*
X51074000Y17056000D01*
X52776000Y17056000D01*
X52776000Y15354000D01*
G37*
G36*
X49633228Y17023297D02*
G01*
X49788100Y16959147D01*
X49927481Y16866015D01*
X50046015Y16747481D01*
X50139147Y16608100D01*
X50203297Y16453228D01*
X50236000Y16288816D01*
X50236000Y16121184D01*
X50203297Y15956772D01*
X50139147Y15801900D01*
X50046015Y15662519D01*
X49927481Y15543985D01*
X49788100Y15450853D01*
X49633228Y15386703D01*
X49468816Y15354000D01*
X49301184Y15354000D01*
X49136772Y15386703D01*
X48981900Y15450853D01*
X48842519Y15543985D01*
X48723985Y15662519D01*
X48630853Y15801900D01*
X48566703Y15956772D01*
X48534000Y16121184D01*
X48534000Y16288816D01*
X48566703Y16453228D01*
X48630853Y16608100D01*
X48723985Y16747481D01*
X48842519Y16866015D01*
X48981900Y16959147D01*
X49136772Y17023297D01*
X49301184Y17056000D01*
X49468816Y17056000D01*
X49633228Y17023297D01*
G37*
G36*
X61208228Y17328297D02*
G01*
X61363100Y17264147D01*
X61502481Y17171015D01*
X61621015Y17052481D01*
X61714147Y16913100D01*
X61778297Y16758228D01*
X61811000Y16593816D01*
X61811000Y16426184D01*
X61778297Y16261772D01*
X61714147Y16106900D01*
X61621015Y15967519D01*
X61502481Y15848985D01*
X61363100Y15755853D01*
X61208228Y15691703D01*
X61043816Y15659000D01*
X60876184Y15659000D01*
X60711772Y15691703D01*
X60556900Y15755853D01*
X60417519Y15848985D01*
X60298985Y15967519D01*
X60205853Y16106900D01*
X60141703Y16261772D01*
X60109000Y16426184D01*
X60109000Y16593816D01*
X60141703Y16758228D01*
X60205853Y16913100D01*
X60298985Y17052481D01*
X60417519Y17171015D01*
X60556900Y17264147D01*
X60711772Y17328297D01*
X60876184Y17361000D01*
X61043816Y17361000D01*
X61208228Y17328297D01*
G37*
G36*
X58708228Y17328297D02*
G01*
X58863100Y17264147D01*
X59002481Y17171015D01*
X59121015Y17052481D01*
X59214147Y16913100D01*
X59278297Y16758228D01*
X59311000Y16593816D01*
X59311000Y16426184D01*
X59278297Y16261772D01*
X59214147Y16106900D01*
X59121015Y15967519D01*
X59002481Y15848985D01*
X58863100Y15755853D01*
X58708228Y15691703D01*
X58543816Y15659000D01*
X58376184Y15659000D01*
X58211772Y15691703D01*
X58056900Y15755853D01*
X57917519Y15848985D01*
X57798985Y15967519D01*
X57705853Y16106900D01*
X57641703Y16261772D01*
X57609000Y16426184D01*
X57609000Y16593816D01*
X57641703Y16758228D01*
X57705853Y16913100D01*
X57798985Y17052481D01*
X57917519Y17171015D01*
X58056900Y17264147D01*
X58211772Y17328297D01*
X58376184Y17361000D01*
X58543816Y17361000D01*
X58708228Y17328297D01*
G37*
G36*
X75178228Y18598297D02*
G01*
X75333100Y18534147D01*
X75472481Y18441015D01*
X75591015Y18322481D01*
X75684147Y18183100D01*
X75748297Y18028228D01*
X75781000Y17863816D01*
X75781000Y17696184D01*
X75748297Y17531772D01*
X75684147Y17376900D01*
X75591015Y17237519D01*
X75472481Y17118985D01*
X75333100Y17025853D01*
X75178228Y16961703D01*
X75013816Y16929000D01*
X74846184Y16929000D01*
X74681772Y16961703D01*
X74526900Y17025853D01*
X74387519Y17118985D01*
X74268985Y17237519D01*
X74175853Y17376900D01*
X74111703Y17531772D01*
X74079000Y17696184D01*
X74079000Y17863816D01*
X74111703Y18028228D01*
X74175853Y18183100D01*
X74268985Y18322481D01*
X74387519Y18441015D01*
X74526900Y18534147D01*
X74681772Y18598297D01*
X74846184Y18631000D01*
X75013816Y18631000D01*
X75178228Y18598297D01*
G37*
G36*
X68828228Y18598297D02*
G01*
X68983100Y18534147D01*
X69122481Y18441015D01*
X69241015Y18322481D01*
X69334147Y18183100D01*
X69398297Y18028228D01*
X69431000Y17863816D01*
X69431000Y17696184D01*
X69398297Y17531772D01*
X69334147Y17376900D01*
X69241015Y17237519D01*
X69122481Y17118985D01*
X68983100Y17025853D01*
X68828228Y16961703D01*
X68663816Y16929000D01*
X68496184Y16929000D01*
X68331772Y16961703D01*
X68176900Y17025853D01*
X68037519Y17118985D01*
X67918985Y17237519D01*
X67825853Y17376900D01*
X67761703Y17531772D01*
X67729000Y17696184D01*
X67729000Y17863816D01*
X67761703Y18028228D01*
X67825853Y18183100D01*
X67918985Y18322481D01*
X68037519Y18441015D01*
X68176900Y18534147D01*
X68331772Y18598297D01*
X68496184Y18631000D01*
X68663816Y18631000D01*
X68828228Y18598297D01*
G37*
G36*
X52318228Y21138297D02*
G01*
X52473100Y21074147D01*
X52612481Y20981015D01*
X52731015Y20862481D01*
X52824147Y20723100D01*
X52888297Y20568228D01*
X52921000Y20403816D01*
X52921000Y20236184D01*
X52888297Y20071772D01*
X52824147Y19916900D01*
X52731015Y19777519D01*
X52612481Y19658985D01*
X52473100Y19565853D01*
X52318228Y19501703D01*
X52153816Y19469000D01*
X51986184Y19469000D01*
X51821772Y19501703D01*
X51666900Y19565853D01*
X51527519Y19658985D01*
X51408985Y19777519D01*
X51315853Y19916900D01*
X51251703Y20071772D01*
X51219000Y20236184D01*
X51219000Y20403816D01*
X51251703Y20568228D01*
X51315853Y20723100D01*
X51408985Y20862481D01*
X51527519Y20981015D01*
X51666900Y21074147D01*
X51821772Y21138297D01*
X51986184Y21171000D01*
X52153816Y21171000D01*
X52318228Y21138297D01*
G37*
G36*
X44698228Y21138297D02*
G01*
X44853100Y21074147D01*
X44992481Y20981015D01*
X45111015Y20862481D01*
X45204147Y20723100D01*
X45268297Y20568228D01*
X45301000Y20403816D01*
X45301000Y20236184D01*
X45268297Y20071772D01*
X45204147Y19916900D01*
X45111015Y19777519D01*
X44992481Y19658985D01*
X44853100Y19565853D01*
X44698228Y19501703D01*
X44533816Y19469000D01*
X44366184Y19469000D01*
X44201772Y19501703D01*
X44046900Y19565853D01*
X43907519Y19658985D01*
X43788985Y19777519D01*
X43695853Y19916900D01*
X43631703Y20071772D01*
X43599000Y20236184D01*
X43599000Y20403816D01*
X43631703Y20568228D01*
X43695853Y20723100D01*
X43788985Y20862481D01*
X43907519Y20981015D01*
X44046900Y21074147D01*
X44201772Y21138297D01*
X44366184Y21171000D01*
X44533816Y21171000D01*
X44698228Y21138297D01*
G37*
G36*
X68828228Y22408297D02*
G01*
X68983100Y22344147D01*
X69122481Y22251015D01*
X69241015Y22132481D01*
X69334147Y21993100D01*
X69398297Y21838228D01*
X69431000Y21673816D01*
X69431000Y21506184D01*
X69398297Y21341772D01*
X69334147Y21186900D01*
X69241015Y21047519D01*
X69122481Y20928985D01*
X68983100Y20835853D01*
X68828228Y20771703D01*
X68663816Y20739000D01*
X68496184Y20739000D01*
X68331772Y20771703D01*
X68176900Y20835853D01*
X68037519Y20928985D01*
X67918985Y21047519D01*
X67825853Y21186900D01*
X67761703Y21341772D01*
X67729000Y21506184D01*
X67729000Y21673816D01*
X67761703Y21838228D01*
X67825853Y21993100D01*
X67918985Y22132481D01*
X68037519Y22251015D01*
X68176900Y22344147D01*
X68331772Y22408297D01*
X68496184Y22441000D01*
X68663816Y22441000D01*
X68828228Y22408297D01*
G37*
G36*
X76448228Y22408297D02*
G01*
X76603100Y22344147D01*
X76742481Y22251015D01*
X76861015Y22132481D01*
X76954147Y21993100D01*
X77018297Y21838228D01*
X77051000Y21673816D01*
X77051000Y21506184D01*
X77018297Y21341772D01*
X76954147Y21186900D01*
X76861015Y21047519D01*
X76742481Y20928985D01*
X76603100Y20835853D01*
X76448228Y20771703D01*
X76283816Y20739000D01*
X76116184Y20739000D01*
X75951772Y20771703D01*
X75796900Y20835853D01*
X75657519Y20928985D01*
X75538985Y21047519D01*
X75445853Y21186900D01*
X75381703Y21341772D01*
X75349000Y21506184D01*
X75349000Y21673816D01*
X75381703Y21838228D01*
X75445853Y21993100D01*
X75538985Y22132481D01*
X75657519Y22251015D01*
X75796900Y22344147D01*
X75951772Y22408297D01*
X76116184Y22441000D01*
X76283816Y22441000D01*
X76448228Y22408297D01*
G37*
M02*
