%TF.GenerationSoftware,KiCad,Pcbnew,5.1.5-1.fc31*%
%TF.CreationDate,2020-01-22T17:03:45+01:00*%
%TF.ProjectId,logical-probe-1,6c6f6769-6361-46c2-9d70-726f62652d31,1.0*%
%TF.SameCoordinates,PX3efb0c0PY9157080*%
%TF.FileFunction,Legend,Bot*%
%TF.FilePolarity,Positive*%
%FSLAX46Y46*%
G04 Gerber Fmt 4.6, Leading zero omitted, Abs format (unit mm)*
G04 Created by KiCad (PCBNEW 5.1.5-1.fc31) date 2020-01-22 17:03:45*
%MOMM*%
%LPD*%
G04 APERTURE LIST*
%ADD10C,1.702000*%
%ADD11C,1.902000*%
%ADD12R,1.902000X1.902000*%
%ADD13C,1.626000*%
%ADD14C,0.150000*%
%ADD15O,1.702000X1.702000*%
%ADD16R,1.702000X1.702000*%
G04 APERTURE END LIST*
%LPC*%
D10*
%TO.C,C1*%
X60960000Y16510000D03*
X58460000Y16510000D03*
%TD*%
%TO.C,C2*%
X60920000Y8890000D03*
X58420000Y8890000D03*
%TD*%
D11*
%TO.C,D1*%
X83820000Y12700000D03*
D12*
X81280000Y12700000D03*
%TD*%
%TO.C,D2*%
X87630000Y12700000D03*
D11*
X90170000Y12700000D03*
%TD*%
D12*
%TO.C,D3*%
X93980000Y12700000D03*
D11*
X96520000Y12700000D03*
%TD*%
D13*
%TO.C,J1*%
X123190000Y10160000D03*
X123190000Y15240000D03*
X125730000Y15240000D03*
X125730000Y10160000D03*
%TD*%
D14*
%TO.C,J2*%
G36*
X5134066Y14749549D02*
G01*
X5231728Y14739931D01*
X5236680Y14739197D01*
X5332930Y14720051D01*
X5337784Y14718835D01*
X5431694Y14690348D01*
X5436407Y14688662D01*
X5527072Y14651107D01*
X5531596Y14648967D01*
X5618144Y14602707D01*
X5622437Y14600134D01*
X5704033Y14545613D01*
X5708053Y14542631D01*
X5783913Y14480374D01*
X5787621Y14477013D01*
X5857013Y14407621D01*
X5860374Y14403913D01*
X5922631Y14328053D01*
X5925613Y14324033D01*
X5980134Y14242437D01*
X5982707Y14238144D01*
X6028967Y14151596D01*
X6031107Y14147072D01*
X6068662Y14056407D01*
X6070348Y14051694D01*
X6098835Y13957784D01*
X6100051Y13952930D01*
X6119197Y13856680D01*
X6119931Y13851728D01*
X6129549Y13754066D01*
X6129795Y13749068D01*
X6129795Y13650932D01*
X6129549Y13645934D01*
X6119931Y13548272D01*
X6119197Y13543320D01*
X6100051Y13447070D01*
X6098835Y13442216D01*
X6071165Y13351000D01*
X9011836Y13351000D01*
X9025707Y13376951D01*
X9028280Y13381244D01*
X9097521Y13484872D01*
X9100502Y13488892D01*
X9179568Y13585234D01*
X9182930Y13588942D01*
X9271058Y13677070D01*
X9274766Y13680432D01*
X9371108Y13759498D01*
X9375128Y13762479D01*
X9478756Y13831720D01*
X9483049Y13834293D01*
X9592964Y13893044D01*
X9597488Y13895184D01*
X9712633Y13942879D01*
X9717345Y13944565D01*
X9836610Y13980744D01*
X9841466Y13981960D01*
X9963703Y14006274D01*
X9968653Y14007008D01*
X10092685Y14019224D01*
X10097684Y14019470D01*
X10222316Y14019470D01*
X10227315Y14019224D01*
X10351347Y14007008D01*
X10356297Y14006274D01*
X10478534Y13981960D01*
X10483390Y13980744D01*
X10602655Y13944565D01*
X10607367Y13942879D01*
X10722512Y13895184D01*
X10727036Y13893044D01*
X10836951Y13834293D01*
X10841244Y13831720D01*
X10944872Y13762479D01*
X10948892Y13759498D01*
X11045234Y13680432D01*
X11048942Y13677070D01*
X11137070Y13588942D01*
X11140432Y13585234D01*
X11219498Y13488892D01*
X11222479Y13484872D01*
X11291720Y13381244D01*
X11294293Y13376951D01*
X11353044Y13267036D01*
X11355184Y13262512D01*
X11402879Y13147367D01*
X11404565Y13142655D01*
X11440744Y13023390D01*
X11441960Y13018534D01*
X11466274Y12896297D01*
X11467008Y12891347D01*
X11479224Y12767315D01*
X11479470Y12762316D01*
X11479470Y12637684D01*
X11479224Y12632685D01*
X11467008Y12508653D01*
X11466274Y12503703D01*
X11441960Y12381466D01*
X11440744Y12376610D01*
X11404565Y12257345D01*
X11402879Y12252633D01*
X11355184Y12137488D01*
X11353044Y12132964D01*
X11294293Y12023049D01*
X11291720Y12018756D01*
X11222479Y11915128D01*
X11219498Y11911108D01*
X11140432Y11814766D01*
X11137070Y11811058D01*
X11048942Y11722930D01*
X11045234Y11719568D01*
X10948892Y11640502D01*
X10944872Y11637521D01*
X10841244Y11568280D01*
X10836951Y11565707D01*
X10727036Y11506956D01*
X10722512Y11504816D01*
X10607367Y11457121D01*
X10602655Y11455435D01*
X10483390Y11419256D01*
X10478534Y11418040D01*
X10356297Y11393726D01*
X10351347Y11392992D01*
X10227315Y11380776D01*
X10222316Y11380530D01*
X10097684Y11380530D01*
X10092685Y11380776D01*
X9968653Y11392992D01*
X9963703Y11393726D01*
X9841466Y11418040D01*
X9836610Y11419256D01*
X9717345Y11455435D01*
X9712633Y11457121D01*
X9597488Y11504816D01*
X9592964Y11506956D01*
X9483049Y11565707D01*
X9478756Y11568280D01*
X9375128Y11637521D01*
X9371108Y11640502D01*
X9274766Y11719568D01*
X9271058Y11722930D01*
X9182930Y11811058D01*
X9179568Y11814766D01*
X9100502Y11911108D01*
X9097521Y11915128D01*
X9028280Y12018756D01*
X9025707Y12023049D01*
X9011836Y12049000D01*
X6071165Y12049000D01*
X6098835Y11957784D01*
X6100051Y11952930D01*
X6119197Y11856680D01*
X6119931Y11851728D01*
X6129549Y11754066D01*
X6129795Y11749068D01*
X6129795Y11650932D01*
X6129549Y11645934D01*
X6119931Y11548272D01*
X6119197Y11543320D01*
X6100051Y11447070D01*
X6098835Y11442216D01*
X6070348Y11348306D01*
X6068662Y11343593D01*
X6031107Y11252928D01*
X6028967Y11248404D01*
X5982707Y11161856D01*
X5980134Y11157563D01*
X5925613Y11075967D01*
X5922631Y11071947D01*
X5860374Y10996087D01*
X5857013Y10992379D01*
X5787621Y10922987D01*
X5783913Y10919626D01*
X5708053Y10857369D01*
X5704033Y10854387D01*
X5622437Y10799866D01*
X5618144Y10797293D01*
X5531596Y10751033D01*
X5527072Y10748893D01*
X5436407Y10711338D01*
X5431694Y10709652D01*
X5337784Y10681165D01*
X5332930Y10679949D01*
X5236680Y10660803D01*
X5231728Y10660069D01*
X5134066Y10650451D01*
X5129068Y10650205D01*
X5030932Y10650205D01*
X5025934Y10650451D01*
X4928272Y10660069D01*
X4923320Y10660803D01*
X4827070Y10679949D01*
X4822216Y10681165D01*
X4728306Y10709652D01*
X4723593Y10711338D01*
X4632928Y10748893D01*
X4628404Y10751033D01*
X4541856Y10797293D01*
X4537563Y10799866D01*
X4455967Y10854387D01*
X4451947Y10857369D01*
X4376087Y10919626D01*
X4372379Y10922987D01*
X4302987Y10992379D01*
X4299626Y10996087D01*
X4237369Y11071947D01*
X4234387Y11075967D01*
X4179866Y11157563D01*
X4177293Y11161856D01*
X4131033Y11248404D01*
X4128893Y11252928D01*
X4091338Y11343593D01*
X4089652Y11348306D01*
X4061165Y11442216D01*
X4059949Y11447070D01*
X4040803Y11543320D01*
X4040069Y11548272D01*
X4030451Y11645934D01*
X4030205Y11650932D01*
X4030205Y11722032D01*
X4631602Y11722032D01*
X4631602Y11677968D01*
X4635920Y11634130D01*
X4644514Y11590920D01*
X4657306Y11548753D01*
X4674162Y11508059D01*
X4694938Y11469192D01*
X4719408Y11432568D01*
X4747359Y11398510D01*
X4778510Y11367359D01*
X4812568Y11339408D01*
X4849192Y11314938D01*
X4888059Y11294162D01*
X4928753Y11277306D01*
X4970920Y11264514D01*
X5014130Y11255920D01*
X5057968Y11251602D01*
X5102032Y11251602D01*
X5145870Y11255920D01*
X5189080Y11264514D01*
X5231247Y11277306D01*
X5271941Y11294162D01*
X5310808Y11314938D01*
X5347432Y11339408D01*
X5381490Y11367359D01*
X5412641Y11398510D01*
X5440592Y11432568D01*
X5465062Y11469192D01*
X5485838Y11508059D01*
X5502694Y11548753D01*
X5515486Y11590920D01*
X5524080Y11634130D01*
X5528398Y11677968D01*
X5528398Y11722032D01*
X5524080Y11765870D01*
X5515486Y11809080D01*
X5502694Y11851247D01*
X5485838Y11891941D01*
X5465062Y11930808D01*
X5440592Y11967432D01*
X5412641Y12001490D01*
X5381490Y12032641D01*
X5347432Y12060592D01*
X5310808Y12085062D01*
X5271941Y12105838D01*
X5231247Y12122694D01*
X5189080Y12135486D01*
X5145870Y12144080D01*
X5102032Y12148398D01*
X5057968Y12148398D01*
X5014130Y12144080D01*
X4970920Y12135486D01*
X4928753Y12122694D01*
X4888059Y12105838D01*
X4849192Y12085062D01*
X4812568Y12060592D01*
X4778510Y12032641D01*
X4747359Y12001490D01*
X4719408Y11967432D01*
X4694938Y11930808D01*
X4674162Y11891941D01*
X4657306Y11851247D01*
X4644514Y11809080D01*
X4635920Y11765870D01*
X4631602Y11722032D01*
X4030205Y11722032D01*
X4030205Y11749068D01*
X4030451Y11754066D01*
X4040069Y11851728D01*
X4040803Y11856680D01*
X4059949Y11952930D01*
X4061165Y11957784D01*
X4089652Y12051694D01*
X4091338Y12056407D01*
X4128893Y12147072D01*
X4131033Y12151596D01*
X4177293Y12238144D01*
X4179866Y12242437D01*
X4234387Y12324033D01*
X4237369Y12328053D01*
X4299626Y12403913D01*
X4302987Y12407621D01*
X4372379Y12477013D01*
X4376087Y12480374D01*
X4451947Y12542631D01*
X4455967Y12545613D01*
X4537563Y12600134D01*
X4541856Y12602707D01*
X4628404Y12648967D01*
X4632928Y12651107D01*
X4723593Y12688662D01*
X4728306Y12690348D01*
X4760125Y12700000D01*
X4728306Y12709652D01*
X4723593Y12711338D01*
X4632928Y12748893D01*
X4628404Y12751033D01*
X4541856Y12797293D01*
X4537563Y12799866D01*
X4455967Y12854387D01*
X4451947Y12857369D01*
X4376087Y12919626D01*
X4372379Y12922987D01*
X4302987Y12992379D01*
X4299626Y12996087D01*
X4237369Y13071947D01*
X4234387Y13075967D01*
X4179866Y13157563D01*
X4177293Y13161856D01*
X4131033Y13248404D01*
X4128893Y13252928D01*
X4091338Y13343593D01*
X4089652Y13348306D01*
X4061165Y13442216D01*
X4059949Y13447070D01*
X4040803Y13543320D01*
X4040069Y13548272D01*
X4030451Y13645934D01*
X4030205Y13650932D01*
X4030205Y13722032D01*
X4631602Y13722032D01*
X4631602Y13677968D01*
X4635920Y13634130D01*
X4644514Y13590920D01*
X4657306Y13548753D01*
X4674162Y13508059D01*
X4694938Y13469192D01*
X4719408Y13432568D01*
X4747359Y13398510D01*
X4778510Y13367359D01*
X4812568Y13339408D01*
X4849192Y13314938D01*
X4888059Y13294162D01*
X4928753Y13277306D01*
X4970920Y13264514D01*
X5014130Y13255920D01*
X5057968Y13251602D01*
X5102032Y13251602D01*
X5145870Y13255920D01*
X5189080Y13264514D01*
X5231247Y13277306D01*
X5271941Y13294162D01*
X5310808Y13314938D01*
X5347432Y13339408D01*
X5381490Y13367359D01*
X5412641Y13398510D01*
X5440592Y13432568D01*
X5465062Y13469192D01*
X5485838Y13508059D01*
X5502694Y13548753D01*
X5515486Y13590920D01*
X5524080Y13634130D01*
X5528398Y13677968D01*
X5528398Y13722032D01*
X5524080Y13765870D01*
X5515486Y13809080D01*
X5502694Y13851247D01*
X5485838Y13891941D01*
X5465062Y13930808D01*
X5440592Y13967432D01*
X5412641Y14001490D01*
X5381490Y14032641D01*
X5347432Y14060592D01*
X5310808Y14085062D01*
X5271941Y14105838D01*
X5231247Y14122694D01*
X5189080Y14135486D01*
X5145870Y14144080D01*
X5102032Y14148398D01*
X5057968Y14148398D01*
X5014130Y14144080D01*
X4970920Y14135486D01*
X4928753Y14122694D01*
X4888059Y14105838D01*
X4849192Y14085062D01*
X4812568Y14060592D01*
X4778510Y14032641D01*
X4747359Y14001490D01*
X4719408Y13967432D01*
X4694938Y13930808D01*
X4674162Y13891941D01*
X4657306Y13851247D01*
X4644514Y13809080D01*
X4635920Y13765870D01*
X4631602Y13722032D01*
X4030205Y13722032D01*
X4030205Y13749068D01*
X4030451Y13754066D01*
X4040069Y13851728D01*
X4040803Y13856680D01*
X4059949Y13952930D01*
X4061165Y13957784D01*
X4089652Y14051694D01*
X4091338Y14056407D01*
X4128893Y14147072D01*
X4131033Y14151596D01*
X4177293Y14238144D01*
X4179866Y14242437D01*
X4234387Y14324033D01*
X4237369Y14328053D01*
X4299626Y14403913D01*
X4302987Y14407621D01*
X4372379Y14477013D01*
X4376087Y14480374D01*
X4451947Y14542631D01*
X4455967Y14545613D01*
X4537563Y14600134D01*
X4541856Y14602707D01*
X4628404Y14648967D01*
X4632928Y14651107D01*
X4723593Y14688662D01*
X4728306Y14690348D01*
X4822216Y14718835D01*
X4827070Y14720051D01*
X4923320Y14739197D01*
X4928272Y14739931D01*
X5025934Y14749549D01*
X5030932Y14749795D01*
X5129068Y14749795D01*
X5134066Y14749549D01*
G37*
%TD*%
D15*
%TO.C,R1*%
X52070000Y20320000D03*
D10*
X44450000Y20320000D03*
%TD*%
D15*
%TO.C,R2*%
X74930000Y17780000D03*
D10*
X74930000Y10160000D03*
%TD*%
%TO.C,R3*%
X76200000Y21590000D03*
D15*
X68580000Y21590000D03*
%TD*%
D10*
%TO.C,R4*%
X68580000Y10160000D03*
D15*
X68580000Y17780000D03*
%TD*%
D10*
%TO.C,R5*%
X76200000Y5080000D03*
D15*
X68580000Y5080000D03*
%TD*%
D16*
%TO.C,U1*%
X51925000Y16205000D03*
D15*
X36685000Y8585000D03*
X49385000Y16205000D03*
X39225000Y8585000D03*
X46845000Y16205000D03*
X41765000Y8585000D03*
X44305000Y16205000D03*
X44305000Y8585000D03*
X41765000Y16205000D03*
X46845000Y8585000D03*
X39225000Y16205000D03*
X49385000Y8585000D03*
X36685000Y16205000D03*
X51925000Y8585000D03*
%TD*%
M02*
