%TF.GenerationSoftware,KiCad,Pcbnew,5.1.5-1.fc31*%
%TF.CreationDate,2020-01-22T17:03:45+01:00*%
%TF.ProjectId,logical-probe-1,6c6f6769-6361-46c2-9d70-726f62652d31,1.0*%
%TF.SameCoordinates,PX3efb0c0PY9157080*%
%TF.FileFunction,Copper,L2,Bot*%
%TF.FilePolarity,Positive*%
%FSLAX46Y46*%
G04 Gerber Fmt 4.6, Leading zero omitted, Abs format (unit mm)*
G04 Created by KiCad (PCBNEW 5.1.5-1.fc31) date 2020-01-22 17:03:45*
%MOMM*%
%LPD*%
G04 APERTURE LIST*
%TA.AperFunction,ComponentPad*%
%ADD10C,1.600000*%
%TD*%
%TA.AperFunction,ComponentPad*%
%ADD11C,1.800000*%
%TD*%
%TA.AperFunction,ComponentPad*%
%ADD12R,1.800000X1.800000*%
%TD*%
%TA.AperFunction,ComponentPad*%
%ADD13C,1.524000*%
%TD*%
%TA.AperFunction,ComponentPad*%
%ADD14C,0.150000*%
%TD*%
%TA.AperFunction,ComponentPad*%
%ADD15O,1.600000X1.600000*%
%TD*%
%TA.AperFunction,ComponentPad*%
%ADD16R,1.600000X1.600000*%
%TD*%
%TA.AperFunction,Conductor*%
%ADD17C,0.600000*%
%TD*%
G04 APERTURE END LIST*
D10*
%TO.P,C1,1*%
%TO.N,Net-(C1-Pad1)*%
X60960000Y16510000D03*
%TO.P,C1,2*%
%TO.N,Net-(C1-Pad2)*%
X58460000Y16510000D03*
%TD*%
%TO.P,C2,2*%
%TO.N,GND*%
X60920000Y8890000D03*
%TO.P,C2,1*%
%TO.N,VDD*%
X58420000Y8890000D03*
%TD*%
D11*
%TO.P,D1,2*%
%TO.N,Net-(D1-Pad2)*%
X83820000Y12700000D03*
D12*
%TO.P,D1,1*%
%TO.N,Net-(D1-Pad1)*%
X81280000Y12700000D03*
%TD*%
%TO.P,D2,1*%
%TO.N,Net-(D1-Pad2)*%
X87630000Y12700000D03*
D11*
%TO.P,D2,2*%
%TO.N,Net-(D1-Pad1)*%
X90170000Y12700000D03*
%TD*%
D12*
%TO.P,D3,1*%
%TO.N,Net-(D3-Pad1)*%
X93980000Y12700000D03*
D11*
%TO.P,D3,2*%
%TO.N,VDD*%
X96520000Y12700000D03*
%TD*%
D13*
%TO.P,J1,1*%
%TO.N,VDD*%
X123190000Y10160000D03*
%TO.P,J1,2*%
%TO.N,GND*%
X123190000Y15240000D03*
%TD*%
%TA.AperFunction,ComponentPad*%
D14*
%TO.P,J2,1*%
%TO.N,Signal-in*%
G36*
X5226730Y14689177D02*
G01*
X5322980Y14670031D01*
X5416890Y14641544D01*
X5507555Y14603989D01*
X5594103Y14557729D01*
X5675699Y14503208D01*
X5751559Y14440951D01*
X5820951Y14371559D01*
X5883208Y14295699D01*
X5937729Y14214103D01*
X5983989Y14127555D01*
X6021544Y14036890D01*
X6050031Y13942980D01*
X6069177Y13846730D01*
X6078795Y13749068D01*
X6078795Y13650932D01*
X6069177Y13553270D01*
X6050031Y13457020D01*
X6021544Y13363110D01*
X5995403Y13300000D01*
X9042404Y13300000D01*
X9070685Y13352910D01*
X9139926Y13456538D01*
X9218992Y13552880D01*
X9307120Y13641008D01*
X9403462Y13720074D01*
X9507090Y13789315D01*
X9617005Y13848066D01*
X9732150Y13895761D01*
X9851415Y13931940D01*
X9973652Y13956254D01*
X10097684Y13968470D01*
X10222316Y13968470D01*
X10346348Y13956254D01*
X10468585Y13931940D01*
X10587850Y13895761D01*
X10702995Y13848066D01*
X10812910Y13789315D01*
X10916538Y13720074D01*
X11012880Y13641008D01*
X11101008Y13552880D01*
X11180074Y13456538D01*
X11249315Y13352910D01*
X11308066Y13242995D01*
X11355761Y13127850D01*
X11391940Y13008585D01*
X11416254Y12886348D01*
X11428470Y12762316D01*
X11428470Y12637684D01*
X11416254Y12513652D01*
X11391940Y12391415D01*
X11355761Y12272150D01*
X11308066Y12157005D01*
X11249315Y12047090D01*
X11180074Y11943462D01*
X11101008Y11847120D01*
X11012880Y11758992D01*
X10916538Y11679926D01*
X10812910Y11610685D01*
X10702995Y11551934D01*
X10587850Y11504239D01*
X10468585Y11468060D01*
X10346348Y11443746D01*
X10222316Y11431530D01*
X10097684Y11431530D01*
X9973652Y11443746D01*
X9851415Y11468060D01*
X9732150Y11504239D01*
X9617005Y11551934D01*
X9507090Y11610685D01*
X9403462Y11679926D01*
X9307120Y11758992D01*
X9218992Y11847120D01*
X9139926Y11943462D01*
X9070685Y12047090D01*
X9042404Y12100000D01*
X5995403Y12100000D01*
X6021544Y12036890D01*
X6050031Y11942980D01*
X6069177Y11846730D01*
X6078795Y11749068D01*
X6078795Y11650932D01*
X6069177Y11553270D01*
X6050031Y11457020D01*
X6021544Y11363110D01*
X5983989Y11272445D01*
X5937729Y11185897D01*
X5883208Y11104301D01*
X5820951Y11028441D01*
X5751559Y10959049D01*
X5675699Y10896792D01*
X5594103Y10842271D01*
X5507555Y10796011D01*
X5416890Y10758456D01*
X5322980Y10729969D01*
X5226730Y10710823D01*
X5129068Y10701205D01*
X5030932Y10701205D01*
X4933270Y10710823D01*
X4837020Y10729969D01*
X4743110Y10758456D01*
X4652445Y10796011D01*
X4565897Y10842271D01*
X4484301Y10896792D01*
X4408441Y10959049D01*
X4339049Y11028441D01*
X4276792Y11104301D01*
X4222271Y11185897D01*
X4176011Y11272445D01*
X4138456Y11363110D01*
X4109969Y11457020D01*
X4090823Y11553270D01*
X4081205Y11650932D01*
X4081205Y11724534D01*
X4580602Y11724534D01*
X4580602Y11675466D01*
X4585412Y11626635D01*
X4594984Y11578510D01*
X4609228Y11531555D01*
X4628005Y11486222D01*
X4651136Y11442949D01*
X4678396Y11402150D01*
X4709524Y11364221D01*
X4744221Y11329524D01*
X4782150Y11298396D01*
X4822949Y11271136D01*
X4866222Y11248005D01*
X4911555Y11229228D01*
X4958510Y11214984D01*
X5006635Y11205412D01*
X5055466Y11200602D01*
X5104534Y11200602D01*
X5153365Y11205412D01*
X5201490Y11214984D01*
X5248445Y11229228D01*
X5293778Y11248005D01*
X5337051Y11271136D01*
X5377850Y11298396D01*
X5415779Y11329524D01*
X5450476Y11364221D01*
X5481604Y11402150D01*
X5508864Y11442949D01*
X5531995Y11486222D01*
X5550772Y11531555D01*
X5565016Y11578510D01*
X5574588Y11626635D01*
X5579398Y11675466D01*
X5579398Y11724534D01*
X5574588Y11773365D01*
X5565016Y11821490D01*
X5550772Y11868445D01*
X5531995Y11913778D01*
X5508864Y11957051D01*
X5481604Y11997850D01*
X5450476Y12035779D01*
X5415779Y12070476D01*
X5377850Y12101604D01*
X5337051Y12128864D01*
X5293778Y12151995D01*
X5248445Y12170772D01*
X5201490Y12185016D01*
X5153365Y12194588D01*
X5104534Y12199398D01*
X5055466Y12199398D01*
X5006635Y12194588D01*
X4958510Y12185016D01*
X4911555Y12170772D01*
X4866222Y12151995D01*
X4822949Y12128864D01*
X4782150Y12101604D01*
X4744221Y12070476D01*
X4709524Y12035779D01*
X4678396Y11997850D01*
X4651136Y11957051D01*
X4628005Y11913778D01*
X4609228Y11868445D01*
X4594984Y11821490D01*
X4585412Y11773365D01*
X4580602Y11724534D01*
X4081205Y11724534D01*
X4081205Y11749068D01*
X4090823Y11846730D01*
X4109969Y11942980D01*
X4138456Y12036890D01*
X4176011Y12127555D01*
X4222271Y12214103D01*
X4276792Y12295699D01*
X4339049Y12371559D01*
X4408441Y12440951D01*
X4484301Y12503208D01*
X4565897Y12557729D01*
X4652445Y12603989D01*
X4743110Y12641544D01*
X4837020Y12670031D01*
X4933270Y12689177D01*
X4960532Y12691862D01*
X4960015Y12704189D01*
X4960237Y12708167D01*
X4933270Y12710823D01*
X4837020Y12729969D01*
X4743110Y12758456D01*
X4652445Y12796011D01*
X4565897Y12842271D01*
X4484301Y12896792D01*
X4408441Y12959049D01*
X4339049Y13028441D01*
X4276792Y13104301D01*
X4222271Y13185897D01*
X4176011Y13272445D01*
X4138456Y13363110D01*
X4109969Y13457020D01*
X4090823Y13553270D01*
X4081205Y13650932D01*
X4081205Y13724534D01*
X4580602Y13724534D01*
X4580602Y13675466D01*
X4585412Y13626635D01*
X4594984Y13578510D01*
X4609228Y13531555D01*
X4628005Y13486222D01*
X4651136Y13442949D01*
X4678396Y13402150D01*
X4709524Y13364221D01*
X4744221Y13329524D01*
X4782150Y13298396D01*
X4822949Y13271136D01*
X4866222Y13248005D01*
X4911555Y13229228D01*
X4958510Y13214984D01*
X5006635Y13205412D01*
X5055466Y13200602D01*
X5104534Y13200602D01*
X5153365Y13205412D01*
X5201490Y13214984D01*
X5248445Y13229228D01*
X5293778Y13248005D01*
X5337051Y13271136D01*
X5377850Y13298396D01*
X5415779Y13329524D01*
X5450476Y13364221D01*
X5481604Y13402150D01*
X5508864Y13442949D01*
X5531995Y13486222D01*
X5550772Y13531555D01*
X5565016Y13578510D01*
X5574588Y13626635D01*
X5579398Y13675466D01*
X5579398Y13724534D01*
X5574588Y13773365D01*
X5565016Y13821490D01*
X5550772Y13868445D01*
X5531995Y13913778D01*
X5508864Y13957051D01*
X5481604Y13997850D01*
X5450476Y14035779D01*
X5415779Y14070476D01*
X5377850Y14101604D01*
X5337051Y14128864D01*
X5293778Y14151995D01*
X5248445Y14170772D01*
X5201490Y14185016D01*
X5153365Y14194588D01*
X5104534Y14199398D01*
X5055466Y14199398D01*
X5006635Y14194588D01*
X4958510Y14185016D01*
X4911555Y14170772D01*
X4866222Y14151995D01*
X4822949Y14128864D01*
X4782150Y14101604D01*
X4744221Y14070476D01*
X4709524Y14035779D01*
X4678396Y13997850D01*
X4651136Y13957051D01*
X4628005Y13913778D01*
X4609228Y13868445D01*
X4594984Y13821490D01*
X4585412Y13773365D01*
X4580602Y13724534D01*
X4081205Y13724534D01*
X4081205Y13749068D01*
X4090823Y13846730D01*
X4109969Y13942980D01*
X4138456Y14036890D01*
X4176011Y14127555D01*
X4222271Y14214103D01*
X4276792Y14295699D01*
X4339049Y14371559D01*
X4408441Y14440951D01*
X4484301Y14503208D01*
X4565897Y14557729D01*
X4652445Y14603989D01*
X4743110Y14641544D01*
X4837020Y14670031D01*
X4933270Y14689177D01*
X5030932Y14698795D01*
X5129068Y14698795D01*
X5226730Y14689177D01*
G37*
%TD.AperFunction*%
%TD*%
D15*
%TO.P,R1,2*%
%TO.N,Signal-in*%
X52070000Y20320000D03*
D10*
%TO.P,R1,1*%
%TO.N,Net-(D1-Pad1)*%
X44450000Y20320000D03*
%TD*%
D15*
%TO.P,R2,2*%
%TO.N,Net-(D1-Pad2)*%
X74930000Y17780000D03*
D10*
%TO.P,R2,1*%
%TO.N,VDD*%
X74930000Y10160000D03*
%TD*%
%TO.P,R3,1*%
%TO.N,Net-(D1-Pad2)*%
X76200000Y21590000D03*
D15*
%TO.P,R3,2*%
%TO.N,GND*%
X68580000Y21590000D03*
%TD*%
D10*
%TO.P,R4,1*%
%TO.N,VDD*%
X68580000Y10160000D03*
D15*
%TO.P,R4,2*%
%TO.N,Net-(C1-Pad1)*%
X68580000Y17780000D03*
%TD*%
D10*
%TO.P,R5,1*%
%TO.N,Net-(D3-Pad1)*%
X76200000Y5080000D03*
D15*
%TO.P,R5,2*%
%TO.N,Net-(R5-Pad2)*%
X68580000Y5080000D03*
%TD*%
D16*
%TO.P,U1,1*%
%TO.N,Signal-in*%
X51925000Y16205000D03*
D15*
%TO.P,U1,8*%
%TO.N,Net-(C1-Pad1)*%
X36685000Y8585000D03*
%TO.P,U1,2*%
%TO.N,Signal-in*%
X49385000Y16205000D03*
%TO.P,U1,9*%
%TO.N,Net-(C1-Pad1)*%
X39225000Y8585000D03*
%TO.P,U1,3*%
%TO.N,Net-(D1-Pad1)*%
X46845000Y16205000D03*
%TO.P,U1,10*%
%TO.N,Net-(U1-Pad10)*%
X41765000Y8585000D03*
%TO.P,U1,4*%
%TO.N,Net-(C1-Pad2)*%
X44305000Y16205000D03*
%TO.P,U1,11*%
%TO.N,Net-(R5-Pad2)*%
X44305000Y8585000D03*
%TO.P,U1,5*%
%TO.N,Net-(D1-Pad1)*%
X41765000Y16205000D03*
%TO.P,U1,12*%
%TO.N,Net-(U1-Pad10)*%
X46845000Y8585000D03*
%TO.P,U1,6*%
X39225000Y16205000D03*
%TO.P,U1,13*%
X49385000Y8585000D03*
%TO.P,U1,7*%
%TO.N,GND*%
X36685000Y16205000D03*
%TO.P,U1,14*%
%TO.N,VDD*%
X51925000Y8585000D03*
%TD*%
D17*
%TO.N,Net-(C1-Pad1)*%
X60960000Y16510000D02*
X65910000Y16510000D01*
X65910000Y16510000D02*
X67180000Y17780000D01*
X39225000Y8585000D02*
X43944000Y13304000D01*
X43944000Y13304000D02*
X57754000Y13304000D01*
X57754000Y13304000D02*
X60960000Y16510000D01*
X68580000Y17780000D02*
X67180000Y17780000D01*
X39225000Y8585000D02*
X38085000Y8585000D01*
X36685000Y8585000D02*
X38085000Y8585000D01*
%TO.N,Net-(C1-Pad2)*%
X44305000Y16205000D02*
X46405700Y14104300D01*
X46405700Y14104300D02*
X56054300Y14104300D01*
X56054300Y14104300D02*
X58460000Y16510000D01*
%TO.N,GND*%
X123190000Y15240000D02*
X124460000Y13970000D01*
X124460000Y13970000D02*
X124460000Y9623800D01*
X124460000Y9623800D02*
X118587300Y3751100D01*
X118587300Y3751100D02*
X70694300Y3751100D01*
X70694300Y3751100D02*
X69895600Y4549800D01*
X69980000Y21590000D02*
X71286900Y22896900D01*
X71286900Y22896900D02*
X115533100Y22896900D01*
X115533100Y22896900D02*
X123190000Y15240000D01*
X69895600Y4549800D02*
X69895600Y5616400D01*
X69895600Y5616400D02*
X66622000Y8890000D01*
X66622000Y8890000D02*
X60920000Y8890000D01*
X36685000Y14805000D02*
X34584200Y12704200D01*
X34584200Y12704200D02*
X34584200Y7673400D01*
X34584200Y7673400D02*
X38496100Y3761500D01*
X38496100Y3761500D02*
X69107300Y3761500D01*
X69107300Y3761500D02*
X69895600Y4549800D01*
X36685000Y16205000D02*
X36685000Y14805000D01*
X68580000Y21590000D02*
X69980000Y21590000D01*
%TO.N,VDD*%
X74930000Y10160000D02*
X89610500Y10160000D01*
X89610500Y10160000D02*
X91618100Y12167600D01*
X91618100Y12167600D02*
X91618100Y12892500D01*
X91618100Y12892500D02*
X92849000Y14123400D01*
X92849000Y14123400D02*
X95096600Y14123400D01*
X95096600Y14123400D02*
X96520000Y12700000D01*
X68580000Y10160000D02*
X74930000Y10160000D01*
X123190000Y10160000D02*
X99060000Y10160000D01*
X99060000Y10160000D02*
X96520000Y12700000D01*
X58420000Y8890000D02*
X59722400Y10192400D01*
X59722400Y10192400D02*
X68547600Y10192400D01*
X68547600Y10192400D02*
X68580000Y10160000D01*
X51925000Y8585000D02*
X58115000Y8585000D01*
X58115000Y8585000D02*
X58420000Y8890000D01*
%TO.N,Net-(D1-Pad2)*%
X76200000Y17780000D02*
X78740000Y17780000D01*
X78740000Y17780000D02*
X83820000Y12700000D01*
X74930000Y17780000D02*
X76200000Y17780000D01*
X76200000Y21590000D02*
X76200000Y17780000D01*
X87630000Y12700000D02*
X83820000Y12700000D01*
%TO.N,Net-(D1-Pad1)*%
X44305000Y20145000D02*
X44450000Y20290000D01*
X44450000Y20290000D02*
X44450000Y20320000D01*
X41765000Y17605000D02*
X44305000Y20145000D01*
X44305000Y20145000D02*
X46845000Y17605000D01*
X46845000Y16205000D02*
X46845000Y17605000D01*
X81280000Y12700000D02*
X75630900Y12700000D01*
X75630900Y12700000D02*
X69193000Y19137900D01*
X69193000Y19137900D02*
X58590400Y19137900D01*
X58590400Y19137900D02*
X54357100Y14904600D01*
X54357100Y14904600D02*
X48145400Y14904600D01*
X48145400Y14904600D02*
X46845000Y16205000D01*
X41765000Y16205000D02*
X41765000Y17605000D01*
X90170000Y12700000D02*
X88769600Y11299600D01*
X88769600Y11299600D02*
X82680400Y11299600D01*
X82680400Y11299600D02*
X81280000Y12700000D01*
%TO.N,Net-(D3-Pad1)*%
X76200000Y5080000D02*
X86360000Y5080000D01*
X86360000Y5080000D02*
X93980000Y12700000D01*
%TO.N,Signal-in*%
X52070000Y20320000D02*
X50670000Y20320000D01*
X50670000Y20320000D02*
X49369400Y21620600D01*
X49369400Y21620600D02*
X19080600Y21620600D01*
X19080600Y21620600D02*
X10160000Y12700000D01*
X52070000Y19929000D02*
X52070000Y20320000D01*
X52070000Y19929000D02*
X52070000Y18920000D01*
X51925000Y16205000D02*
X51925000Y18775000D01*
X51925000Y18775000D02*
X52070000Y18920000D01*
X51925000Y16205000D02*
X50785000Y16205000D01*
X49385000Y16205000D02*
X50785000Y16205000D01*
%TO.N,Net-(R5-Pad2)*%
X44305000Y8585000D02*
X47810000Y5080000D01*
X47810000Y5080000D02*
X68580000Y5080000D01*
%TO.N,Net-(U1-Pad10)*%
X41765000Y8585000D02*
X40453000Y7273000D01*
X40453000Y7273000D02*
X36130600Y7273000D01*
X36130600Y7273000D02*
X35384600Y8019000D01*
X35384600Y8019000D02*
X35384600Y10964600D01*
X35384600Y10964600D02*
X39225000Y14805000D01*
X46845000Y8585000D02*
X45524300Y9905700D01*
X45524300Y9905700D02*
X43085700Y9905700D01*
X43085700Y9905700D02*
X41765000Y8585000D01*
X49385000Y8585000D02*
X46845000Y8585000D01*
X39225000Y16205000D02*
X39225000Y14805000D01*
%TD*%
M02*
