%TF.GenerationSoftware,KiCad,Pcbnew,5.1.5-1.fc31*%
%TF.CreationDate,2020-01-22T17:03:45+01:00*%
%TF.ProjectId,logical-probe-1,6c6f6769-6361-46c2-9d70-726f62652d31,1.0*%
%TF.SameCoordinates,PX3efb0c0PY9157080*%
%TF.FileFunction,Soldermask,Top*%
%TF.FilePolarity,Negative*%
%FSLAX46Y46*%
G04 Gerber Fmt 4.6, Leading zero omitted, Abs format (unit mm)*
G04 Created by KiCad (PCBNEW 5.1.5-1.fc31) date 2020-01-22 17:03:45*
%MOMM*%
%LPD*%
G04 APERTURE LIST*
%ADD10C,0.150000*%
G04 APERTURE END LIST*
D10*
G36*
X76448228Y5898297D02*
G01*
X76603100Y5834147D01*
X76742481Y5741015D01*
X76861015Y5622481D01*
X76954147Y5483100D01*
X77018297Y5328228D01*
X77051000Y5163816D01*
X77051000Y4996184D01*
X77018297Y4831772D01*
X76954147Y4676900D01*
X76861015Y4537519D01*
X76742481Y4418985D01*
X76603100Y4325853D01*
X76448228Y4261703D01*
X76283816Y4229000D01*
X76116184Y4229000D01*
X75951772Y4261703D01*
X75796900Y4325853D01*
X75657519Y4418985D01*
X75538985Y4537519D01*
X75445853Y4676900D01*
X75381703Y4831772D01*
X75349000Y4996184D01*
X75349000Y5163816D01*
X75381703Y5328228D01*
X75445853Y5483100D01*
X75538985Y5622481D01*
X75657519Y5741015D01*
X75796900Y5834147D01*
X75951772Y5898297D01*
X76116184Y5931000D01*
X76283816Y5931000D01*
X76448228Y5898297D01*
G37*
G36*
X68828228Y5898297D02*
G01*
X68983100Y5834147D01*
X69122481Y5741015D01*
X69241015Y5622481D01*
X69334147Y5483100D01*
X69398297Y5328228D01*
X69431000Y5163816D01*
X69431000Y4996184D01*
X69398297Y4831772D01*
X69334147Y4676900D01*
X69241015Y4537519D01*
X69122481Y4418985D01*
X68983100Y4325853D01*
X68828228Y4261703D01*
X68663816Y4229000D01*
X68496184Y4229000D01*
X68331772Y4261703D01*
X68176900Y4325853D01*
X68037519Y4418985D01*
X67918985Y4537519D01*
X67825853Y4676900D01*
X67761703Y4831772D01*
X67729000Y4996184D01*
X67729000Y5163816D01*
X67761703Y5328228D01*
X67825853Y5483100D01*
X67918985Y5622481D01*
X68037519Y5741015D01*
X68176900Y5834147D01*
X68331772Y5898297D01*
X68496184Y5931000D01*
X68663816Y5931000D01*
X68828228Y5898297D01*
G37*
G36*
X49633228Y9403297D02*
G01*
X49788100Y9339147D01*
X49927481Y9246015D01*
X50046015Y9127481D01*
X50139147Y8988100D01*
X50203297Y8833228D01*
X50236000Y8668816D01*
X50236000Y8501184D01*
X50203297Y8336772D01*
X50139147Y8181900D01*
X50046015Y8042519D01*
X49927481Y7923985D01*
X49788100Y7830853D01*
X49633228Y7766703D01*
X49468816Y7734000D01*
X49301184Y7734000D01*
X49136772Y7766703D01*
X48981900Y7830853D01*
X48842519Y7923985D01*
X48723985Y8042519D01*
X48630853Y8181900D01*
X48566703Y8336772D01*
X48534000Y8501184D01*
X48534000Y8668816D01*
X48566703Y8833228D01*
X48630853Y8988100D01*
X48723985Y9127481D01*
X48842519Y9246015D01*
X48981900Y9339147D01*
X49136772Y9403297D01*
X49301184Y9436000D01*
X49468816Y9436000D01*
X49633228Y9403297D01*
G37*
G36*
X47093228Y9403297D02*
G01*
X47248100Y9339147D01*
X47387481Y9246015D01*
X47506015Y9127481D01*
X47599147Y8988100D01*
X47663297Y8833228D01*
X47696000Y8668816D01*
X47696000Y8501184D01*
X47663297Y8336772D01*
X47599147Y8181900D01*
X47506015Y8042519D01*
X47387481Y7923985D01*
X47248100Y7830853D01*
X47093228Y7766703D01*
X46928816Y7734000D01*
X46761184Y7734000D01*
X46596772Y7766703D01*
X46441900Y7830853D01*
X46302519Y7923985D01*
X46183985Y8042519D01*
X46090853Y8181900D01*
X46026703Y8336772D01*
X45994000Y8501184D01*
X45994000Y8668816D01*
X46026703Y8833228D01*
X46090853Y8988100D01*
X46183985Y9127481D01*
X46302519Y9246015D01*
X46441900Y9339147D01*
X46596772Y9403297D01*
X46761184Y9436000D01*
X46928816Y9436000D01*
X47093228Y9403297D01*
G37*
G36*
X44553228Y9403297D02*
G01*
X44708100Y9339147D01*
X44847481Y9246015D01*
X44966015Y9127481D01*
X45059147Y8988100D01*
X45123297Y8833228D01*
X45156000Y8668816D01*
X45156000Y8501184D01*
X45123297Y8336772D01*
X45059147Y8181900D01*
X44966015Y8042519D01*
X44847481Y7923985D01*
X44708100Y7830853D01*
X44553228Y7766703D01*
X44388816Y7734000D01*
X44221184Y7734000D01*
X44056772Y7766703D01*
X43901900Y7830853D01*
X43762519Y7923985D01*
X43643985Y8042519D01*
X43550853Y8181900D01*
X43486703Y8336772D01*
X43454000Y8501184D01*
X43454000Y8668816D01*
X43486703Y8833228D01*
X43550853Y8988100D01*
X43643985Y9127481D01*
X43762519Y9246015D01*
X43901900Y9339147D01*
X44056772Y9403297D01*
X44221184Y9436000D01*
X44388816Y9436000D01*
X44553228Y9403297D01*
G37*
G36*
X42013228Y9403297D02*
G01*
X42168100Y9339147D01*
X42307481Y9246015D01*
X42426015Y9127481D01*
X42519147Y8988100D01*
X42583297Y8833228D01*
X42616000Y8668816D01*
X42616000Y8501184D01*
X42583297Y8336772D01*
X42519147Y8181900D01*
X42426015Y8042519D01*
X42307481Y7923985D01*
X42168100Y7830853D01*
X42013228Y7766703D01*
X41848816Y7734000D01*
X41681184Y7734000D01*
X41516772Y7766703D01*
X41361900Y7830853D01*
X41222519Y7923985D01*
X41103985Y8042519D01*
X41010853Y8181900D01*
X40946703Y8336772D01*
X40914000Y8501184D01*
X40914000Y8668816D01*
X40946703Y8833228D01*
X41010853Y8988100D01*
X41103985Y9127481D01*
X41222519Y9246015D01*
X41361900Y9339147D01*
X41516772Y9403297D01*
X41681184Y9436000D01*
X41848816Y9436000D01*
X42013228Y9403297D01*
G37*
G36*
X39473228Y9403297D02*
G01*
X39628100Y9339147D01*
X39767481Y9246015D01*
X39886015Y9127481D01*
X39979147Y8988100D01*
X40043297Y8833228D01*
X40076000Y8668816D01*
X40076000Y8501184D01*
X40043297Y8336772D01*
X39979147Y8181900D01*
X39886015Y8042519D01*
X39767481Y7923985D01*
X39628100Y7830853D01*
X39473228Y7766703D01*
X39308816Y7734000D01*
X39141184Y7734000D01*
X38976772Y7766703D01*
X38821900Y7830853D01*
X38682519Y7923985D01*
X38563985Y8042519D01*
X38470853Y8181900D01*
X38406703Y8336772D01*
X38374000Y8501184D01*
X38374000Y8668816D01*
X38406703Y8833228D01*
X38470853Y8988100D01*
X38563985Y9127481D01*
X38682519Y9246015D01*
X38821900Y9339147D01*
X38976772Y9403297D01*
X39141184Y9436000D01*
X39308816Y9436000D01*
X39473228Y9403297D01*
G37*
G36*
X36933228Y9403297D02*
G01*
X37088100Y9339147D01*
X37227481Y9246015D01*
X37346015Y9127481D01*
X37439147Y8988100D01*
X37503297Y8833228D01*
X37536000Y8668816D01*
X37536000Y8501184D01*
X37503297Y8336772D01*
X37439147Y8181900D01*
X37346015Y8042519D01*
X37227481Y7923985D01*
X37088100Y7830853D01*
X36933228Y7766703D01*
X36768816Y7734000D01*
X36601184Y7734000D01*
X36436772Y7766703D01*
X36281900Y7830853D01*
X36142519Y7923985D01*
X36023985Y8042519D01*
X35930853Y8181900D01*
X35866703Y8336772D01*
X35834000Y8501184D01*
X35834000Y8668816D01*
X35866703Y8833228D01*
X35930853Y8988100D01*
X36023985Y9127481D01*
X36142519Y9246015D01*
X36281900Y9339147D01*
X36436772Y9403297D01*
X36601184Y9436000D01*
X36768816Y9436000D01*
X36933228Y9403297D01*
G37*
G36*
X52173228Y9403297D02*
G01*
X52328100Y9339147D01*
X52467481Y9246015D01*
X52586015Y9127481D01*
X52679147Y8988100D01*
X52743297Y8833228D01*
X52776000Y8668816D01*
X52776000Y8501184D01*
X52743297Y8336772D01*
X52679147Y8181900D01*
X52586015Y8042519D01*
X52467481Y7923985D01*
X52328100Y7830853D01*
X52173228Y7766703D01*
X52008816Y7734000D01*
X51841184Y7734000D01*
X51676772Y7766703D01*
X51521900Y7830853D01*
X51382519Y7923985D01*
X51263985Y8042519D01*
X51170853Y8181900D01*
X51106703Y8336772D01*
X51074000Y8501184D01*
X51074000Y8668816D01*
X51106703Y8833228D01*
X51170853Y8988100D01*
X51263985Y9127481D01*
X51382519Y9246015D01*
X51521900Y9339147D01*
X51676772Y9403297D01*
X51841184Y9436000D01*
X52008816Y9436000D01*
X52173228Y9403297D01*
G37*
G36*
X61168228Y9708297D02*
G01*
X61323100Y9644147D01*
X61462481Y9551015D01*
X61581015Y9432481D01*
X61674147Y9293100D01*
X61738297Y9138228D01*
X61771000Y8973816D01*
X61771000Y8806184D01*
X61738297Y8641772D01*
X61674147Y8486900D01*
X61581015Y8347519D01*
X61462481Y8228985D01*
X61323100Y8135853D01*
X61168228Y8071703D01*
X61003816Y8039000D01*
X60836184Y8039000D01*
X60671772Y8071703D01*
X60516900Y8135853D01*
X60377519Y8228985D01*
X60258985Y8347519D01*
X60165853Y8486900D01*
X60101703Y8641772D01*
X60069000Y8806184D01*
X60069000Y8973816D01*
X60101703Y9138228D01*
X60165853Y9293100D01*
X60258985Y9432481D01*
X60377519Y9551015D01*
X60516900Y9644147D01*
X60671772Y9708297D01*
X60836184Y9741000D01*
X61003816Y9741000D01*
X61168228Y9708297D01*
G37*
G36*
X58668228Y9708297D02*
G01*
X58823100Y9644147D01*
X58962481Y9551015D01*
X59081015Y9432481D01*
X59174147Y9293100D01*
X59238297Y9138228D01*
X59271000Y8973816D01*
X59271000Y8806184D01*
X59238297Y8641772D01*
X59174147Y8486900D01*
X59081015Y8347519D01*
X58962481Y8228985D01*
X58823100Y8135853D01*
X58668228Y8071703D01*
X58503816Y8039000D01*
X58336184Y8039000D01*
X58171772Y8071703D01*
X58016900Y8135853D01*
X57877519Y8228985D01*
X57758985Y8347519D01*
X57665853Y8486900D01*
X57601703Y8641772D01*
X57569000Y8806184D01*
X57569000Y8973816D01*
X57601703Y9138228D01*
X57665853Y9293100D01*
X57758985Y9432481D01*
X57877519Y9551015D01*
X58016900Y9644147D01*
X58171772Y9708297D01*
X58336184Y9741000D01*
X58503816Y9741000D01*
X58668228Y9708297D01*
G37*
G36*
X75178228Y10978297D02*
G01*
X75333100Y10914147D01*
X75472481Y10821015D01*
X75591015Y10702481D01*
X75684147Y10563100D01*
X75748297Y10408228D01*
X75781000Y10243816D01*
X75781000Y10076184D01*
X75748297Y9911772D01*
X75684147Y9756900D01*
X75591015Y9617519D01*
X75472481Y9498985D01*
X75333100Y9405853D01*
X75178228Y9341703D01*
X75013816Y9309000D01*
X74846184Y9309000D01*
X74681772Y9341703D01*
X74526900Y9405853D01*
X74387519Y9498985D01*
X74268985Y9617519D01*
X74175853Y9756900D01*
X74111703Y9911772D01*
X74079000Y10076184D01*
X74079000Y10243816D01*
X74111703Y10408228D01*
X74175853Y10563100D01*
X74268985Y10702481D01*
X74387519Y10821015D01*
X74526900Y10914147D01*
X74681772Y10978297D01*
X74846184Y11011000D01*
X75013816Y11011000D01*
X75178228Y10978297D01*
G37*
G36*
X68828228Y10978297D02*
G01*
X68983100Y10914147D01*
X69122481Y10821015D01*
X69241015Y10702481D01*
X69334147Y10563100D01*
X69398297Y10408228D01*
X69431000Y10243816D01*
X69431000Y10076184D01*
X69398297Y9911772D01*
X69334147Y9756900D01*
X69241015Y9617519D01*
X69122481Y9498985D01*
X68983100Y9405853D01*
X68828228Y9341703D01*
X68663816Y9309000D01*
X68496184Y9309000D01*
X68331772Y9341703D01*
X68176900Y9405853D01*
X68037519Y9498985D01*
X67918985Y9617519D01*
X67825853Y9756900D01*
X67761703Y9911772D01*
X67729000Y10076184D01*
X67729000Y10243816D01*
X67761703Y10408228D01*
X67825853Y10563100D01*
X67918985Y10702481D01*
X68037519Y10821015D01*
X68176900Y10914147D01*
X68331772Y10978297D01*
X68496184Y11011000D01*
X68663816Y11011000D01*
X68828228Y10978297D01*
G37*
G36*
X125967142Y10941758D02*
G01*
X126115101Y10880471D01*
X126248255Y10791501D01*
X126361501Y10678255D01*
X126450471Y10545101D01*
X126511758Y10397142D01*
X126543000Y10240075D01*
X126543000Y10079925D01*
X126511758Y9922858D01*
X126450471Y9774899D01*
X126361501Y9641745D01*
X126248255Y9528499D01*
X126115101Y9439529D01*
X125967142Y9378242D01*
X125810075Y9347000D01*
X125649925Y9347000D01*
X125492858Y9378242D01*
X125344899Y9439529D01*
X125211745Y9528499D01*
X125098499Y9641745D01*
X125009529Y9774899D01*
X124948242Y9922858D01*
X124917000Y10079925D01*
X124917000Y10240075D01*
X124948242Y10397142D01*
X125009529Y10545101D01*
X125098499Y10678255D01*
X125211745Y10791501D01*
X125344899Y10880471D01*
X125492858Y10941758D01*
X125649925Y10973000D01*
X125810075Y10973000D01*
X125967142Y10941758D01*
G37*
G36*
X123427142Y10941758D02*
G01*
X123575101Y10880471D01*
X123708255Y10791501D01*
X123821501Y10678255D01*
X123910471Y10545101D01*
X123971758Y10397142D01*
X124003000Y10240075D01*
X124003000Y10079925D01*
X123971758Y9922858D01*
X123910471Y9774899D01*
X123821501Y9641745D01*
X123708255Y9528499D01*
X123575101Y9439529D01*
X123427142Y9378242D01*
X123270075Y9347000D01*
X123109925Y9347000D01*
X122952858Y9378242D01*
X122804899Y9439529D01*
X122671745Y9528499D01*
X122558499Y9641745D01*
X122469529Y9774899D01*
X122408242Y9922858D01*
X122377000Y10079925D01*
X122377000Y10240075D01*
X122408242Y10397142D01*
X122469529Y10545101D01*
X122558499Y10678255D01*
X122671745Y10791501D01*
X122804899Y10880471D01*
X122952858Y10941758D01*
X123109925Y10973000D01*
X123270075Y10973000D01*
X123427142Y10941758D01*
G37*
G36*
X5194157Y14744843D02*
G01*
X5374379Y14708994D01*
X5395798Y14702496D01*
X5565564Y14632177D01*
X5585309Y14621623D01*
X5738095Y14519534D01*
X5755400Y14505333D01*
X5885333Y14375400D01*
X5899534Y14358095D01*
X6001623Y14205309D01*
X6012177Y14185564D01*
X6082496Y14015798D01*
X6088994Y13994379D01*
X6124843Y13814157D01*
X6127037Y13791877D01*
X6127037Y13608123D01*
X6124843Y13585845D01*
X6108013Y13501238D01*
X6105611Y13476852D01*
X6108013Y13452466D01*
X6115126Y13429017D01*
X6126677Y13407406D01*
X6142222Y13388464D01*
X6161164Y13372919D01*
X6182774Y13361367D01*
X6206223Y13354254D01*
X6230610Y13351852D01*
X8946318Y13351852D01*
X8970704Y13354254D01*
X8994153Y13361367D01*
X9015764Y13372918D01*
X9034706Y13388463D01*
X9050251Y13407405D01*
X9131753Y13529381D01*
X9145954Y13546686D01*
X9313314Y13714046D01*
X9330619Y13728247D01*
X9527414Y13859742D01*
X9547159Y13870296D01*
X9765825Y13960870D01*
X9787244Y13967368D01*
X10019378Y14013543D01*
X10041658Y14015737D01*
X10278342Y14015737D01*
X10300622Y14013543D01*
X10532756Y13967368D01*
X10554175Y13960870D01*
X10772841Y13870296D01*
X10792586Y13859742D01*
X10989381Y13728247D01*
X11006686Y13714046D01*
X11174046Y13546686D01*
X11188247Y13529381D01*
X11319742Y13332586D01*
X11330296Y13312841D01*
X11420870Y13094175D01*
X11427368Y13072756D01*
X11473543Y12840622D01*
X11475737Y12818342D01*
X11475737Y12581658D01*
X11473543Y12559378D01*
X11427368Y12327244D01*
X11420870Y12305825D01*
X11330296Y12087159D01*
X11319742Y12067414D01*
X11188247Y11870619D01*
X11174046Y11853314D01*
X11006686Y11685954D01*
X10989381Y11671753D01*
X10792586Y11540258D01*
X10772841Y11529704D01*
X10554175Y11439130D01*
X10532756Y11432632D01*
X10300622Y11386457D01*
X10278342Y11384263D01*
X10041658Y11384263D01*
X10019378Y11386457D01*
X9787244Y11432632D01*
X9765825Y11439130D01*
X9547159Y11529704D01*
X9527414Y11540258D01*
X9330619Y11671753D01*
X9313314Y11685954D01*
X9145954Y11853314D01*
X9131753Y11870619D01*
X9050251Y11992595D01*
X9034706Y12011537D01*
X9015764Y12027082D01*
X8994153Y12038633D01*
X8970704Y12045746D01*
X8946318Y12048148D01*
X6230610Y12048148D01*
X6206224Y12045746D01*
X6182775Y12038633D01*
X6161164Y12027082D01*
X6142222Y12011537D01*
X6126677Y11992595D01*
X6115126Y11970984D01*
X6108013Y11947535D01*
X6105611Y11923149D01*
X6108013Y11898762D01*
X6124843Y11814155D01*
X6127037Y11791877D01*
X6127037Y11608123D01*
X6124843Y11585843D01*
X6088994Y11405621D01*
X6082496Y11384202D01*
X6012177Y11214436D01*
X6001623Y11194691D01*
X5899534Y11041905D01*
X5885333Y11024600D01*
X5755400Y10894667D01*
X5738095Y10880466D01*
X5585309Y10778377D01*
X5565564Y10767823D01*
X5395798Y10697504D01*
X5374379Y10691006D01*
X5194157Y10655157D01*
X5171877Y10652963D01*
X4988123Y10652963D01*
X4965843Y10655157D01*
X4785621Y10691006D01*
X4764202Y10697504D01*
X4594436Y10767823D01*
X4574691Y10778377D01*
X4421905Y10880466D01*
X4404600Y10894667D01*
X4274667Y11024600D01*
X4260466Y11041905D01*
X4158377Y11194691D01*
X4147823Y11214436D01*
X4077504Y11384202D01*
X4071006Y11405621D01*
X4035157Y11585843D01*
X4032963Y11608123D01*
X4032963Y11731590D01*
X4634260Y11731590D01*
X4634260Y11668410D01*
X4636662Y11644023D01*
X4648989Y11582053D01*
X4656101Y11558606D01*
X4680277Y11500238D01*
X4691829Y11478626D01*
X4726928Y11426097D01*
X4742473Y11407155D01*
X4787155Y11362473D01*
X4806097Y11346928D01*
X4858626Y11311829D01*
X4880238Y11300277D01*
X4938606Y11276101D01*
X4962053Y11268989D01*
X5024023Y11256662D01*
X5048410Y11254260D01*
X5111590Y11254260D01*
X5135977Y11256662D01*
X5197947Y11268989D01*
X5221394Y11276101D01*
X5279762Y11300277D01*
X5301374Y11311829D01*
X5353903Y11346928D01*
X5372845Y11362473D01*
X5417527Y11407155D01*
X5433072Y11426097D01*
X5468171Y11478626D01*
X5479723Y11500238D01*
X5503899Y11558606D01*
X5511011Y11582053D01*
X5523338Y11644023D01*
X5525740Y11668410D01*
X5525740Y11731590D01*
X5523338Y11755977D01*
X5511011Y11817947D01*
X5503899Y11841394D01*
X5479723Y11899762D01*
X5468171Y11921374D01*
X5433072Y11973903D01*
X5417527Y11992845D01*
X5372845Y12037527D01*
X5353903Y12053072D01*
X5301374Y12088171D01*
X5279762Y12099723D01*
X5221394Y12123899D01*
X5197947Y12131011D01*
X5135977Y12143338D01*
X5111590Y12145740D01*
X5048410Y12145740D01*
X5024023Y12143338D01*
X4962053Y12131011D01*
X4938606Y12123899D01*
X4880238Y12099723D01*
X4858626Y12088171D01*
X4806097Y12053072D01*
X4787155Y12037527D01*
X4742473Y11992845D01*
X4726928Y11973903D01*
X4691829Y11921374D01*
X4680277Y11899762D01*
X4656101Y11841394D01*
X4648989Y11817947D01*
X4636662Y11755977D01*
X4634260Y11731590D01*
X4032963Y11731590D01*
X4032963Y11791877D01*
X4035157Y11814157D01*
X4071006Y11994379D01*
X4077504Y12015798D01*
X4147823Y12185564D01*
X4158377Y12205309D01*
X4260466Y12358095D01*
X4274667Y12375400D01*
X4404600Y12505333D01*
X4421905Y12519534D01*
X4536444Y12596067D01*
X4555386Y12611613D01*
X4570931Y12630555D01*
X4582482Y12652165D01*
X4589595Y12675614D01*
X4591997Y12700000D01*
X4589595Y12724386D01*
X4582482Y12747835D01*
X4570931Y12769446D01*
X4555385Y12788388D01*
X4536444Y12803933D01*
X4421905Y12880466D01*
X4404600Y12894667D01*
X4274667Y13024600D01*
X4260466Y13041905D01*
X4158377Y13194691D01*
X4147823Y13214436D01*
X4077504Y13384202D01*
X4071006Y13405621D01*
X4035157Y13585843D01*
X4032963Y13608123D01*
X4032963Y13731590D01*
X4634260Y13731590D01*
X4634260Y13668410D01*
X4636662Y13644023D01*
X4648989Y13582053D01*
X4656101Y13558606D01*
X4680277Y13500238D01*
X4691829Y13478626D01*
X4726928Y13426097D01*
X4742473Y13407155D01*
X4787155Y13362473D01*
X4806097Y13346928D01*
X4858626Y13311829D01*
X4880238Y13300277D01*
X4938606Y13276101D01*
X4962053Y13268989D01*
X5024023Y13256662D01*
X5048410Y13254260D01*
X5111590Y13254260D01*
X5135977Y13256662D01*
X5197947Y13268989D01*
X5221394Y13276101D01*
X5279762Y13300277D01*
X5301374Y13311829D01*
X5353903Y13346928D01*
X5372845Y13362473D01*
X5417527Y13407155D01*
X5433072Y13426097D01*
X5468171Y13478626D01*
X5479723Y13500238D01*
X5503899Y13558606D01*
X5511011Y13582053D01*
X5523338Y13644023D01*
X5525740Y13668410D01*
X5525740Y13731590D01*
X5523338Y13755977D01*
X5511011Y13817947D01*
X5503899Y13841394D01*
X5479723Y13899762D01*
X5468171Y13921374D01*
X5433072Y13973903D01*
X5417527Y13992845D01*
X5372845Y14037527D01*
X5353903Y14053072D01*
X5301374Y14088171D01*
X5279762Y14099723D01*
X5221394Y14123899D01*
X5197947Y14131011D01*
X5135977Y14143338D01*
X5111590Y14145740D01*
X5048410Y14145740D01*
X5024023Y14143338D01*
X4962053Y14131011D01*
X4938606Y14123899D01*
X4880238Y14099723D01*
X4858626Y14088171D01*
X4806097Y14053072D01*
X4787155Y14037527D01*
X4742473Y13992845D01*
X4726928Y13973903D01*
X4691829Y13921374D01*
X4680277Y13899762D01*
X4656101Y13841394D01*
X4648989Y13817947D01*
X4636662Y13755977D01*
X4634260Y13731590D01*
X4032963Y13731590D01*
X4032963Y13791877D01*
X4035157Y13814157D01*
X4071006Y13994379D01*
X4077504Y14015798D01*
X4147823Y14185564D01*
X4158377Y14205309D01*
X4260466Y14358095D01*
X4274667Y14375400D01*
X4404600Y14505333D01*
X4421905Y14519534D01*
X4574691Y14621623D01*
X4594436Y14632177D01*
X4764202Y14702496D01*
X4785621Y14708994D01*
X4965843Y14744843D01*
X4988123Y14747037D01*
X5171877Y14747037D01*
X5194157Y14744843D01*
G37*
G36*
X84097395Y13614454D02*
G01*
X84270466Y13542766D01*
X84347818Y13491081D01*
X84426227Y13438690D01*
X84558690Y13306227D01*
X84591808Y13256662D01*
X84662766Y13150466D01*
X84734454Y12977395D01*
X84771000Y12793667D01*
X84771000Y12606333D01*
X84734454Y12422605D01*
X84662766Y12249534D01*
X84611081Y12172182D01*
X84558690Y12093773D01*
X84426227Y11961310D01*
X84405611Y11947535D01*
X84270466Y11857234D01*
X84097395Y11785546D01*
X83913667Y11749000D01*
X83726333Y11749000D01*
X83542605Y11785546D01*
X83369534Y11857234D01*
X83234389Y11947535D01*
X83213773Y11961310D01*
X83081310Y12093773D01*
X83028919Y12172182D01*
X82977234Y12249534D01*
X82905546Y12422605D01*
X82869000Y12606333D01*
X82869000Y12793667D01*
X82905546Y12977395D01*
X82977234Y13150466D01*
X83048192Y13256662D01*
X83081310Y13306227D01*
X83213773Y13438690D01*
X83292182Y13491081D01*
X83369534Y13542766D01*
X83542605Y13614454D01*
X83726333Y13651000D01*
X83913667Y13651000D01*
X84097395Y13614454D01*
G37*
G36*
X88581000Y11749000D02*
G01*
X86679000Y11749000D01*
X86679000Y13651000D01*
X88581000Y13651000D01*
X88581000Y11749000D01*
G37*
G36*
X90447395Y13614454D02*
G01*
X90620466Y13542766D01*
X90697818Y13491081D01*
X90776227Y13438690D01*
X90908690Y13306227D01*
X90941808Y13256662D01*
X91012766Y13150466D01*
X91084454Y12977395D01*
X91121000Y12793667D01*
X91121000Y12606333D01*
X91084454Y12422605D01*
X91012766Y12249534D01*
X90961081Y12172182D01*
X90908690Y12093773D01*
X90776227Y11961310D01*
X90755611Y11947535D01*
X90620466Y11857234D01*
X90447395Y11785546D01*
X90263667Y11749000D01*
X90076333Y11749000D01*
X89892605Y11785546D01*
X89719534Y11857234D01*
X89584389Y11947535D01*
X89563773Y11961310D01*
X89431310Y12093773D01*
X89378919Y12172182D01*
X89327234Y12249534D01*
X89255546Y12422605D01*
X89219000Y12606333D01*
X89219000Y12793667D01*
X89255546Y12977395D01*
X89327234Y13150466D01*
X89398192Y13256662D01*
X89431310Y13306227D01*
X89563773Y13438690D01*
X89642182Y13491081D01*
X89719534Y13542766D01*
X89892605Y13614454D01*
X90076333Y13651000D01*
X90263667Y13651000D01*
X90447395Y13614454D01*
G37*
G36*
X96797395Y13614454D02*
G01*
X96970466Y13542766D01*
X97047818Y13491081D01*
X97126227Y13438690D01*
X97258690Y13306227D01*
X97291808Y13256662D01*
X97362766Y13150466D01*
X97434454Y12977395D01*
X97471000Y12793667D01*
X97471000Y12606333D01*
X97434454Y12422605D01*
X97362766Y12249534D01*
X97311081Y12172182D01*
X97258690Y12093773D01*
X97126227Y11961310D01*
X97105611Y11947535D01*
X96970466Y11857234D01*
X96797395Y11785546D01*
X96613667Y11749000D01*
X96426333Y11749000D01*
X96242605Y11785546D01*
X96069534Y11857234D01*
X95934389Y11947535D01*
X95913773Y11961310D01*
X95781310Y12093773D01*
X95728919Y12172182D01*
X95677234Y12249534D01*
X95605546Y12422605D01*
X95569000Y12606333D01*
X95569000Y12793667D01*
X95605546Y12977395D01*
X95677234Y13150466D01*
X95748192Y13256662D01*
X95781310Y13306227D01*
X95913773Y13438690D01*
X95992182Y13491081D01*
X96069534Y13542766D01*
X96242605Y13614454D01*
X96426333Y13651000D01*
X96613667Y13651000D01*
X96797395Y13614454D01*
G37*
G36*
X82231000Y11749000D02*
G01*
X80329000Y11749000D01*
X80329000Y13651000D01*
X82231000Y13651000D01*
X82231000Y11749000D01*
G37*
G36*
X94931000Y11749000D02*
G01*
X93029000Y11749000D01*
X93029000Y13651000D01*
X94931000Y13651000D01*
X94931000Y11749000D01*
G37*
G36*
X123427142Y16021758D02*
G01*
X123575101Y15960471D01*
X123708255Y15871501D01*
X123821501Y15758255D01*
X123910471Y15625101D01*
X123971758Y15477142D01*
X124003000Y15320075D01*
X124003000Y15159925D01*
X123971758Y15002858D01*
X123910471Y14854899D01*
X123821501Y14721745D01*
X123708255Y14608499D01*
X123575101Y14519529D01*
X123427142Y14458242D01*
X123270075Y14427000D01*
X123109925Y14427000D01*
X122952858Y14458242D01*
X122804899Y14519529D01*
X122671745Y14608499D01*
X122558499Y14721745D01*
X122469529Y14854899D01*
X122408242Y15002858D01*
X122377000Y15159925D01*
X122377000Y15320075D01*
X122408242Y15477142D01*
X122469529Y15625101D01*
X122558499Y15758255D01*
X122671745Y15871501D01*
X122804899Y15960471D01*
X122952858Y16021758D01*
X123109925Y16053000D01*
X123270075Y16053000D01*
X123427142Y16021758D01*
G37*
G36*
X125967142Y16021758D02*
G01*
X126115101Y15960471D01*
X126248255Y15871501D01*
X126361501Y15758255D01*
X126450471Y15625101D01*
X126511758Y15477142D01*
X126543000Y15320075D01*
X126543000Y15159925D01*
X126511758Y15002858D01*
X126450471Y14854899D01*
X126361501Y14721745D01*
X126248255Y14608499D01*
X126115101Y14519529D01*
X125967142Y14458242D01*
X125810075Y14427000D01*
X125649925Y14427000D01*
X125492858Y14458242D01*
X125344899Y14519529D01*
X125211745Y14608499D01*
X125098499Y14721745D01*
X125009529Y14854899D01*
X124948242Y15002858D01*
X124917000Y15159925D01*
X124917000Y15320075D01*
X124948242Y15477142D01*
X125009529Y15625101D01*
X125098499Y15758255D01*
X125211745Y15871501D01*
X125344899Y15960471D01*
X125492858Y16021758D01*
X125649925Y16053000D01*
X125810075Y16053000D01*
X125967142Y16021758D01*
G37*
G36*
X52776000Y15354000D02*
G01*
X51074000Y15354000D01*
X51074000Y17056000D01*
X52776000Y17056000D01*
X52776000Y15354000D01*
G37*
G36*
X49633228Y17023297D02*
G01*
X49788100Y16959147D01*
X49927481Y16866015D01*
X50046015Y16747481D01*
X50139147Y16608100D01*
X50203297Y16453228D01*
X50236000Y16288816D01*
X50236000Y16121184D01*
X50203297Y15956772D01*
X50139147Y15801900D01*
X50046015Y15662519D01*
X49927481Y15543985D01*
X49788100Y15450853D01*
X49633228Y15386703D01*
X49468816Y15354000D01*
X49301184Y15354000D01*
X49136772Y15386703D01*
X48981900Y15450853D01*
X48842519Y15543985D01*
X48723985Y15662519D01*
X48630853Y15801900D01*
X48566703Y15956772D01*
X48534000Y16121184D01*
X48534000Y16288816D01*
X48566703Y16453228D01*
X48630853Y16608100D01*
X48723985Y16747481D01*
X48842519Y16866015D01*
X48981900Y16959147D01*
X49136772Y17023297D01*
X49301184Y17056000D01*
X49468816Y17056000D01*
X49633228Y17023297D01*
G37*
G36*
X42013228Y17023297D02*
G01*
X42168100Y16959147D01*
X42307481Y16866015D01*
X42426015Y16747481D01*
X42519147Y16608100D01*
X42583297Y16453228D01*
X42616000Y16288816D01*
X42616000Y16121184D01*
X42583297Y15956772D01*
X42519147Y15801900D01*
X42426015Y15662519D01*
X42307481Y15543985D01*
X42168100Y15450853D01*
X42013228Y15386703D01*
X41848816Y15354000D01*
X41681184Y15354000D01*
X41516772Y15386703D01*
X41361900Y15450853D01*
X41222519Y15543985D01*
X41103985Y15662519D01*
X41010853Y15801900D01*
X40946703Y15956772D01*
X40914000Y16121184D01*
X40914000Y16288816D01*
X40946703Y16453228D01*
X41010853Y16608100D01*
X41103985Y16747481D01*
X41222519Y16866015D01*
X41361900Y16959147D01*
X41516772Y17023297D01*
X41681184Y17056000D01*
X41848816Y17056000D01*
X42013228Y17023297D01*
G37*
G36*
X39473228Y17023297D02*
G01*
X39628100Y16959147D01*
X39767481Y16866015D01*
X39886015Y16747481D01*
X39979147Y16608100D01*
X40043297Y16453228D01*
X40076000Y16288816D01*
X40076000Y16121184D01*
X40043297Y15956772D01*
X39979147Y15801900D01*
X39886015Y15662519D01*
X39767481Y15543985D01*
X39628100Y15450853D01*
X39473228Y15386703D01*
X39308816Y15354000D01*
X39141184Y15354000D01*
X38976772Y15386703D01*
X38821900Y15450853D01*
X38682519Y15543985D01*
X38563985Y15662519D01*
X38470853Y15801900D01*
X38406703Y15956772D01*
X38374000Y16121184D01*
X38374000Y16288816D01*
X38406703Y16453228D01*
X38470853Y16608100D01*
X38563985Y16747481D01*
X38682519Y16866015D01*
X38821900Y16959147D01*
X38976772Y17023297D01*
X39141184Y17056000D01*
X39308816Y17056000D01*
X39473228Y17023297D01*
G37*
G36*
X44553228Y17023297D02*
G01*
X44708100Y16959147D01*
X44847481Y16866015D01*
X44966015Y16747481D01*
X45059147Y16608100D01*
X45123297Y16453228D01*
X45156000Y16288816D01*
X45156000Y16121184D01*
X45123297Y15956772D01*
X45059147Y15801900D01*
X44966015Y15662519D01*
X44847481Y15543985D01*
X44708100Y15450853D01*
X44553228Y15386703D01*
X44388816Y15354000D01*
X44221184Y15354000D01*
X44056772Y15386703D01*
X43901900Y15450853D01*
X43762519Y15543985D01*
X43643985Y15662519D01*
X43550853Y15801900D01*
X43486703Y15956772D01*
X43454000Y16121184D01*
X43454000Y16288816D01*
X43486703Y16453228D01*
X43550853Y16608100D01*
X43643985Y16747481D01*
X43762519Y16866015D01*
X43901900Y16959147D01*
X44056772Y17023297D01*
X44221184Y17056000D01*
X44388816Y17056000D01*
X44553228Y17023297D01*
G37*
G36*
X36933228Y17023297D02*
G01*
X37088100Y16959147D01*
X37227481Y16866015D01*
X37346015Y16747481D01*
X37439147Y16608100D01*
X37503297Y16453228D01*
X37536000Y16288816D01*
X37536000Y16121184D01*
X37503297Y15956772D01*
X37439147Y15801900D01*
X37346015Y15662519D01*
X37227481Y15543985D01*
X37088100Y15450853D01*
X36933228Y15386703D01*
X36768816Y15354000D01*
X36601184Y15354000D01*
X36436772Y15386703D01*
X36281900Y15450853D01*
X36142519Y15543985D01*
X36023985Y15662519D01*
X35930853Y15801900D01*
X35866703Y15956772D01*
X35834000Y16121184D01*
X35834000Y16288816D01*
X35866703Y16453228D01*
X35930853Y16608100D01*
X36023985Y16747481D01*
X36142519Y16866015D01*
X36281900Y16959147D01*
X36436772Y17023297D01*
X36601184Y17056000D01*
X36768816Y17056000D01*
X36933228Y17023297D01*
G37*
G36*
X47093228Y17023297D02*
G01*
X47248100Y16959147D01*
X47387481Y16866015D01*
X47506015Y16747481D01*
X47599147Y16608100D01*
X47663297Y16453228D01*
X47696000Y16288816D01*
X47696000Y16121184D01*
X47663297Y15956772D01*
X47599147Y15801900D01*
X47506015Y15662519D01*
X47387481Y15543985D01*
X47248100Y15450853D01*
X47093228Y15386703D01*
X46928816Y15354000D01*
X46761184Y15354000D01*
X46596772Y15386703D01*
X46441900Y15450853D01*
X46302519Y15543985D01*
X46183985Y15662519D01*
X46090853Y15801900D01*
X46026703Y15956772D01*
X45994000Y16121184D01*
X45994000Y16288816D01*
X46026703Y16453228D01*
X46090853Y16608100D01*
X46183985Y16747481D01*
X46302519Y16866015D01*
X46441900Y16959147D01*
X46596772Y17023297D01*
X46761184Y17056000D01*
X46928816Y17056000D01*
X47093228Y17023297D01*
G37*
G36*
X58708228Y17328297D02*
G01*
X58863100Y17264147D01*
X59002481Y17171015D01*
X59121015Y17052481D01*
X59214147Y16913100D01*
X59278297Y16758228D01*
X59311000Y16593816D01*
X59311000Y16426184D01*
X59278297Y16261772D01*
X59214147Y16106900D01*
X59121015Y15967519D01*
X59002481Y15848985D01*
X58863100Y15755853D01*
X58708228Y15691703D01*
X58543816Y15659000D01*
X58376184Y15659000D01*
X58211772Y15691703D01*
X58056900Y15755853D01*
X57917519Y15848985D01*
X57798985Y15967519D01*
X57705853Y16106900D01*
X57641703Y16261772D01*
X57609000Y16426184D01*
X57609000Y16593816D01*
X57641703Y16758228D01*
X57705853Y16913100D01*
X57798985Y17052481D01*
X57917519Y17171015D01*
X58056900Y17264147D01*
X58211772Y17328297D01*
X58376184Y17361000D01*
X58543816Y17361000D01*
X58708228Y17328297D01*
G37*
G36*
X61208228Y17328297D02*
G01*
X61363100Y17264147D01*
X61502481Y17171015D01*
X61621015Y17052481D01*
X61714147Y16913100D01*
X61778297Y16758228D01*
X61811000Y16593816D01*
X61811000Y16426184D01*
X61778297Y16261772D01*
X61714147Y16106900D01*
X61621015Y15967519D01*
X61502481Y15848985D01*
X61363100Y15755853D01*
X61208228Y15691703D01*
X61043816Y15659000D01*
X60876184Y15659000D01*
X60711772Y15691703D01*
X60556900Y15755853D01*
X60417519Y15848985D01*
X60298985Y15967519D01*
X60205853Y16106900D01*
X60141703Y16261772D01*
X60109000Y16426184D01*
X60109000Y16593816D01*
X60141703Y16758228D01*
X60205853Y16913100D01*
X60298985Y17052481D01*
X60417519Y17171015D01*
X60556900Y17264147D01*
X60711772Y17328297D01*
X60876184Y17361000D01*
X61043816Y17361000D01*
X61208228Y17328297D01*
G37*
G36*
X75178228Y18598297D02*
G01*
X75333100Y18534147D01*
X75472481Y18441015D01*
X75591015Y18322481D01*
X75684147Y18183100D01*
X75748297Y18028228D01*
X75781000Y17863816D01*
X75781000Y17696184D01*
X75748297Y17531772D01*
X75684147Y17376900D01*
X75591015Y17237519D01*
X75472481Y17118985D01*
X75333100Y17025853D01*
X75178228Y16961703D01*
X75013816Y16929000D01*
X74846184Y16929000D01*
X74681772Y16961703D01*
X74526900Y17025853D01*
X74387519Y17118985D01*
X74268985Y17237519D01*
X74175853Y17376900D01*
X74111703Y17531772D01*
X74079000Y17696184D01*
X74079000Y17863816D01*
X74111703Y18028228D01*
X74175853Y18183100D01*
X74268985Y18322481D01*
X74387519Y18441015D01*
X74526900Y18534147D01*
X74681772Y18598297D01*
X74846184Y18631000D01*
X75013816Y18631000D01*
X75178228Y18598297D01*
G37*
G36*
X68828228Y18598297D02*
G01*
X68983100Y18534147D01*
X69122481Y18441015D01*
X69241015Y18322481D01*
X69334147Y18183100D01*
X69398297Y18028228D01*
X69431000Y17863816D01*
X69431000Y17696184D01*
X69398297Y17531772D01*
X69334147Y17376900D01*
X69241015Y17237519D01*
X69122481Y17118985D01*
X68983100Y17025853D01*
X68828228Y16961703D01*
X68663816Y16929000D01*
X68496184Y16929000D01*
X68331772Y16961703D01*
X68176900Y17025853D01*
X68037519Y17118985D01*
X67918985Y17237519D01*
X67825853Y17376900D01*
X67761703Y17531772D01*
X67729000Y17696184D01*
X67729000Y17863816D01*
X67761703Y18028228D01*
X67825853Y18183100D01*
X67918985Y18322481D01*
X68037519Y18441015D01*
X68176900Y18534147D01*
X68331772Y18598297D01*
X68496184Y18631000D01*
X68663816Y18631000D01*
X68828228Y18598297D01*
G37*
G36*
X52318228Y21138297D02*
G01*
X52473100Y21074147D01*
X52612481Y20981015D01*
X52731015Y20862481D01*
X52824147Y20723100D01*
X52888297Y20568228D01*
X52921000Y20403816D01*
X52921000Y20236184D01*
X52888297Y20071772D01*
X52824147Y19916900D01*
X52731015Y19777519D01*
X52612481Y19658985D01*
X52473100Y19565853D01*
X52318228Y19501703D01*
X52153816Y19469000D01*
X51986184Y19469000D01*
X51821772Y19501703D01*
X51666900Y19565853D01*
X51527519Y19658985D01*
X51408985Y19777519D01*
X51315853Y19916900D01*
X51251703Y20071772D01*
X51219000Y20236184D01*
X51219000Y20403816D01*
X51251703Y20568228D01*
X51315853Y20723100D01*
X51408985Y20862481D01*
X51527519Y20981015D01*
X51666900Y21074147D01*
X51821772Y21138297D01*
X51986184Y21171000D01*
X52153816Y21171000D01*
X52318228Y21138297D01*
G37*
G36*
X44698228Y21138297D02*
G01*
X44853100Y21074147D01*
X44992481Y20981015D01*
X45111015Y20862481D01*
X45204147Y20723100D01*
X45268297Y20568228D01*
X45301000Y20403816D01*
X45301000Y20236184D01*
X45268297Y20071772D01*
X45204147Y19916900D01*
X45111015Y19777519D01*
X44992481Y19658985D01*
X44853100Y19565853D01*
X44698228Y19501703D01*
X44533816Y19469000D01*
X44366184Y19469000D01*
X44201772Y19501703D01*
X44046900Y19565853D01*
X43907519Y19658985D01*
X43788985Y19777519D01*
X43695853Y19916900D01*
X43631703Y20071772D01*
X43599000Y20236184D01*
X43599000Y20403816D01*
X43631703Y20568228D01*
X43695853Y20723100D01*
X43788985Y20862481D01*
X43907519Y20981015D01*
X44046900Y21074147D01*
X44201772Y21138297D01*
X44366184Y21171000D01*
X44533816Y21171000D01*
X44698228Y21138297D01*
G37*
G36*
X76448228Y22408297D02*
G01*
X76603100Y22344147D01*
X76742481Y22251015D01*
X76861015Y22132481D01*
X76954147Y21993100D01*
X77018297Y21838228D01*
X77051000Y21673816D01*
X77051000Y21506184D01*
X77018297Y21341772D01*
X76954147Y21186900D01*
X76861015Y21047519D01*
X76742481Y20928985D01*
X76603100Y20835853D01*
X76448228Y20771703D01*
X76283816Y20739000D01*
X76116184Y20739000D01*
X75951772Y20771703D01*
X75796900Y20835853D01*
X75657519Y20928985D01*
X75538985Y21047519D01*
X75445853Y21186900D01*
X75381703Y21341772D01*
X75349000Y21506184D01*
X75349000Y21673816D01*
X75381703Y21838228D01*
X75445853Y21993100D01*
X75538985Y22132481D01*
X75657519Y22251015D01*
X75796900Y22344147D01*
X75951772Y22408297D01*
X76116184Y22441000D01*
X76283816Y22441000D01*
X76448228Y22408297D01*
G37*
G36*
X68828228Y22408297D02*
G01*
X68983100Y22344147D01*
X69122481Y22251015D01*
X69241015Y22132481D01*
X69334147Y21993100D01*
X69398297Y21838228D01*
X69431000Y21673816D01*
X69431000Y21506184D01*
X69398297Y21341772D01*
X69334147Y21186900D01*
X69241015Y21047519D01*
X69122481Y20928985D01*
X68983100Y20835853D01*
X68828228Y20771703D01*
X68663816Y20739000D01*
X68496184Y20739000D01*
X68331772Y20771703D01*
X68176900Y20835853D01*
X68037519Y20928985D01*
X67918985Y21047519D01*
X67825853Y21186900D01*
X67761703Y21341772D01*
X67729000Y21506184D01*
X67729000Y21673816D01*
X67761703Y21838228D01*
X67825853Y21993100D01*
X67918985Y22132481D01*
X68037519Y22251015D01*
X68176900Y22344147D01*
X68331772Y22408297D01*
X68496184Y22441000D01*
X68663816Y22441000D01*
X68828228Y22408297D01*
G37*
M02*
