M48
; DRILL file {KiCad 5.1.4-3.fc30} date czw, 19 wrz 2019, 02:51:51
; FORMAT={-:-/ absolute / inch / decimal}
; #@! TF.CreationDate,2019-09-19T02:51:51+02:00
; #@! TF.GenerationSoftware,Kicad,Pcbnew,5.1.4-3.fc30
; #@! TF.FileFunction,Plated,1,2,PTH
FMAT,2
INCH
T1C0.0315
T2C0.0354
T3C0.0394
T4C0.0400
T5C0.0433
T6C0.0630
%
G90
G05
T1
X5.112Y-4.002
X5.212Y-4.002
X4.5715Y-3.1927
X4.7683Y-3.1927
X2.499Y-3.1927
X2.499Y-3.7927
X2.599Y-3.1927
X2.599Y-3.7927
X2.699Y-3.1927
X2.699Y-3.7927
X2.799Y-3.1927
X2.799Y-3.7927
X2.899Y-3.1927
X2.899Y-3.7927
X2.999Y-3.1927
X2.999Y-3.7927
X3.099Y-3.1927
X3.099Y-3.7927
X3.199Y-3.1927
X3.199Y-3.7927
X3.299Y-3.1927
X3.299Y-3.7927
X3.399Y-3.1927
X3.399Y-3.7927
X3.499Y-3.1927
X3.499Y-3.7927
X3.599Y-3.1927
X3.599Y-3.7927
X3.699Y-3.1927
X3.699Y-3.7927
X3.799Y-3.1927
X3.799Y-3.7927
X3.899Y-3.1927
X3.899Y-3.7927
X3.999Y-3.1927
X3.999Y-3.7927
X4.099Y-3.1927
X4.099Y-3.7927
X4.199Y-3.1927
X4.199Y-3.7927
X4.299Y-3.1927
X4.299Y-3.7927
X4.399Y-3.1927
X4.399Y-3.7927
X4.6446Y-4.409
X4.8415Y-4.409
X1.995Y-3.9345
X2.095Y-3.9345
X4.5715Y-3.7927
X4.7683Y-3.7927
X4.6876Y-4.1201
X4.7861Y-4.1201
X2.002Y-4.2
X2.1004Y-4.2
X3.499Y-2.8519
X3.499Y-3.0487
X3.399Y-3.9345
X3.399Y-4.1314
X3.299Y-2.8519
X3.299Y-3.0487
T2
X5.1278Y-4.699
X5.1278Y-4.799
T3
X5.11Y-3.475
X5.11Y-3.575
X2.499Y-4.8041
X2.599Y-4.8041
X2.699Y-4.8041
X2.799Y-4.8041
X2.899Y-4.8041
X3.6035Y-2.0061
X3.7035Y-2.0061
X3.8035Y-2.0061
X3.9035Y-2.0061
X4.0035Y-2.0061
X4.1035Y-2.0061
X4.2035Y-2.0061
X4.3035Y-2.0061
X2.499Y-2.0041
X2.599Y-2.0041
X2.699Y-2.0041
X2.799Y-2.0041
X2.899Y-2.0041
X2.999Y-2.0041
X3.099Y-2.0041
X3.199Y-2.0041
X3.5996Y-4.8061
X3.6996Y-4.8061
X3.7996Y-4.8061
X3.8996Y-4.8061
X3.9996Y-4.8061
X4.0996Y-4.8061
X4.1996Y-4.8061
X4.2996Y-4.8061
X4.6035Y-4.8061
X4.7035Y-4.8061
X4.6699Y-3.3923
X4.6699Y-3.5892
T4
X2.073Y-2.71
X2.073Y-2.81
X2.073Y-2.91
X2.073Y-3.01
X2.073Y-3.11
X2.173Y-2.71
X2.173Y-2.81
X2.173Y-2.91
X2.173Y-3.01
X2.173Y-3.11
T5
X1.803Y-4.509
X1.803Y-4.7649
X1.9802Y-4.509
X1.9802Y-4.7649
X1.803Y-3.8
X1.803Y-4.2
T6
X5.173Y-2.343
X5.173Y-2.943
T0
M30
