%TF.GenerationSoftware,KiCad,Pcbnew,5.1.4-3.fc30*%
%TF.CreationDate,2019-10-13T14:32:02+02:00*%
%TF.ProjectId,avr_dev_board_atmega16,6176725f-6465-4765-9f62-6f6172645f61,1_0*%
%TF.SameCoordinates,PX2652348PY7832370*%
%TF.FileFunction,Soldermask,Top*%
%TF.FilePolarity,Negative*%
%FSLAX46Y46*%
G04 Gerber Fmt 4.6, Leading zero omitted, Abs format (unit mm)*
G04 Created by KiCad (PCBNEW 5.1.4-3.fc30) date 2019-10-13 14:32:02*
%MOMM*%
%LPD*%
G04 APERTURE LIST*
%ADD10C,0.150000*%
G04 APERTURE END LIST*
D10*
G36*
X79396842Y4854282D02*
G01*
X79463027Y4847763D01*
X79632866Y4796243D01*
X79789391Y4712578D01*
X79805648Y4699236D01*
X79926586Y4599986D01*
X80009848Y4498529D01*
X80039178Y4462791D01*
X80122843Y4306266D01*
X80174363Y4136427D01*
X80191759Y3959800D01*
X80174363Y3783173D01*
X80122843Y3613334D01*
X80039178Y3456809D01*
X80009848Y3421071D01*
X79926586Y3319614D01*
X79850316Y3257022D01*
X79789391Y3207022D01*
X79632866Y3123357D01*
X79463027Y3071837D01*
X79396842Y3065318D01*
X79330660Y3058800D01*
X79242140Y3058800D01*
X79175958Y3065318D01*
X79109773Y3071837D01*
X78939934Y3123357D01*
X78783409Y3207022D01*
X78722484Y3257022D01*
X78646214Y3319614D01*
X78562952Y3421071D01*
X78533622Y3456809D01*
X78449957Y3613334D01*
X78398437Y3783173D01*
X78381041Y3959800D01*
X78398437Y4136427D01*
X78449957Y4306266D01*
X78533622Y4462791D01*
X78562952Y4498529D01*
X78646214Y4599986D01*
X78767152Y4699236D01*
X78783409Y4712578D01*
X78939934Y4796243D01*
X79109773Y4847763D01*
X79175958Y4854282D01*
X79242140Y4860800D01*
X79330660Y4860800D01*
X79396842Y4854282D01*
X79396842Y4854282D01*
G37*
G36*
X77647400Y3058800D02*
G01*
X75845400Y3058800D01*
X75845400Y4860800D01*
X77647400Y4860800D01*
X77647400Y3058800D01*
X77647400Y3058800D01*
G37*
G36*
X52147300Y3058800D02*
G01*
X50345300Y3058800D01*
X50345300Y4860800D01*
X52147300Y4860800D01*
X52147300Y3058800D01*
X52147300Y3058800D01*
G37*
G36*
X53896742Y4854282D02*
G01*
X53962927Y4847763D01*
X54132766Y4796243D01*
X54289291Y4712578D01*
X54305548Y4699236D01*
X54426486Y4599986D01*
X54509748Y4498529D01*
X54539078Y4462791D01*
X54622743Y4306266D01*
X54674263Y4136427D01*
X54691659Y3959800D01*
X54674263Y3783173D01*
X54622743Y3613334D01*
X54539078Y3456809D01*
X54509748Y3421071D01*
X54426486Y3319614D01*
X54350216Y3257022D01*
X54289291Y3207022D01*
X54132766Y3123357D01*
X53962927Y3071837D01*
X53896742Y3065318D01*
X53830560Y3058800D01*
X53742040Y3058800D01*
X53675858Y3065318D01*
X53609673Y3071837D01*
X53439834Y3123357D01*
X53283309Y3207022D01*
X53222384Y3257022D01*
X53146114Y3319614D01*
X53062852Y3421071D01*
X53033522Y3456809D01*
X52949857Y3613334D01*
X52898337Y3783173D01*
X52880941Y3959800D01*
X52898337Y4136427D01*
X52949857Y4306266D01*
X53033522Y4462791D01*
X53062852Y4498529D01*
X53146114Y4599986D01*
X53267052Y4699236D01*
X53283309Y4712578D01*
X53439834Y4796243D01*
X53609673Y4847763D01*
X53675858Y4854282D01*
X53742040Y4860800D01*
X53830560Y4860800D01*
X53896742Y4854282D01*
X53896742Y4854282D01*
G37*
G36*
X56436742Y4854282D02*
G01*
X56502927Y4847763D01*
X56672766Y4796243D01*
X56829291Y4712578D01*
X56845548Y4699236D01*
X56966486Y4599986D01*
X57049748Y4498529D01*
X57079078Y4462791D01*
X57162743Y4306266D01*
X57214263Y4136427D01*
X57231659Y3959800D01*
X57214263Y3783173D01*
X57162743Y3613334D01*
X57079078Y3456809D01*
X57049748Y3421071D01*
X56966486Y3319614D01*
X56890216Y3257022D01*
X56829291Y3207022D01*
X56672766Y3123357D01*
X56502927Y3071837D01*
X56436742Y3065318D01*
X56370560Y3058800D01*
X56282040Y3058800D01*
X56215858Y3065318D01*
X56149673Y3071837D01*
X55979834Y3123357D01*
X55823309Y3207022D01*
X55762384Y3257022D01*
X55686114Y3319614D01*
X55602852Y3421071D01*
X55573522Y3456809D01*
X55489857Y3613334D01*
X55438337Y3783173D01*
X55420941Y3959800D01*
X55438337Y4136427D01*
X55489857Y4306266D01*
X55573522Y4462791D01*
X55602852Y4498529D01*
X55686114Y4599986D01*
X55807052Y4699236D01*
X55823309Y4712578D01*
X55979834Y4796243D01*
X56149673Y4847763D01*
X56215858Y4854282D01*
X56282040Y4860800D01*
X56370560Y4860800D01*
X56436742Y4854282D01*
X56436742Y4854282D01*
G37*
G36*
X58976742Y4854282D02*
G01*
X59042927Y4847763D01*
X59212766Y4796243D01*
X59369291Y4712578D01*
X59385548Y4699236D01*
X59506486Y4599986D01*
X59589748Y4498529D01*
X59619078Y4462791D01*
X59702743Y4306266D01*
X59754263Y4136427D01*
X59771659Y3959800D01*
X59754263Y3783173D01*
X59702743Y3613334D01*
X59619078Y3456809D01*
X59589748Y3421071D01*
X59506486Y3319614D01*
X59430216Y3257022D01*
X59369291Y3207022D01*
X59212766Y3123357D01*
X59042927Y3071837D01*
X58976742Y3065318D01*
X58910560Y3058800D01*
X58822040Y3058800D01*
X58755858Y3065318D01*
X58689673Y3071837D01*
X58519834Y3123357D01*
X58363309Y3207022D01*
X58302384Y3257022D01*
X58226114Y3319614D01*
X58142852Y3421071D01*
X58113522Y3456809D01*
X58029857Y3613334D01*
X57978337Y3783173D01*
X57960941Y3959800D01*
X57978337Y4136427D01*
X58029857Y4306266D01*
X58113522Y4462791D01*
X58142852Y4498529D01*
X58226114Y4599986D01*
X58347052Y4699236D01*
X58363309Y4712578D01*
X58519834Y4796243D01*
X58689673Y4847763D01*
X58755858Y4854282D01*
X58822040Y4860800D01*
X58910560Y4860800D01*
X58976742Y4854282D01*
X58976742Y4854282D01*
G37*
G36*
X64056742Y4854282D02*
G01*
X64122927Y4847763D01*
X64292766Y4796243D01*
X64449291Y4712578D01*
X64465548Y4699236D01*
X64586486Y4599986D01*
X64669748Y4498529D01*
X64699078Y4462791D01*
X64782743Y4306266D01*
X64834263Y4136427D01*
X64851659Y3959800D01*
X64834263Y3783173D01*
X64782743Y3613334D01*
X64699078Y3456809D01*
X64669748Y3421071D01*
X64586486Y3319614D01*
X64510216Y3257022D01*
X64449291Y3207022D01*
X64292766Y3123357D01*
X64122927Y3071837D01*
X64056742Y3065318D01*
X63990560Y3058800D01*
X63902040Y3058800D01*
X63835858Y3065318D01*
X63769673Y3071837D01*
X63599834Y3123357D01*
X63443309Y3207022D01*
X63382384Y3257022D01*
X63306114Y3319614D01*
X63222852Y3421071D01*
X63193522Y3456809D01*
X63109857Y3613334D01*
X63058337Y3783173D01*
X63040941Y3959800D01*
X63058337Y4136427D01*
X63109857Y4306266D01*
X63193522Y4462791D01*
X63222852Y4498529D01*
X63306114Y4599986D01*
X63427052Y4699236D01*
X63443309Y4712578D01*
X63599834Y4796243D01*
X63769673Y4847763D01*
X63835858Y4854282D01*
X63902040Y4860800D01*
X63990560Y4860800D01*
X64056742Y4854282D01*
X64056742Y4854282D01*
G37*
G36*
X61516742Y4854282D02*
G01*
X61582927Y4847763D01*
X61752766Y4796243D01*
X61909291Y4712578D01*
X61925548Y4699236D01*
X62046486Y4599986D01*
X62129748Y4498529D01*
X62159078Y4462791D01*
X62242743Y4306266D01*
X62294263Y4136427D01*
X62311659Y3959800D01*
X62294263Y3783173D01*
X62242743Y3613334D01*
X62159078Y3456809D01*
X62129748Y3421071D01*
X62046486Y3319614D01*
X61970216Y3257022D01*
X61909291Y3207022D01*
X61752766Y3123357D01*
X61582927Y3071837D01*
X61516742Y3065318D01*
X61450560Y3058800D01*
X61362040Y3058800D01*
X61295858Y3065318D01*
X61229673Y3071837D01*
X61059834Y3123357D01*
X60903309Y3207022D01*
X60842384Y3257022D01*
X60766114Y3319614D01*
X60682852Y3421071D01*
X60653522Y3456809D01*
X60569857Y3613334D01*
X60518337Y3783173D01*
X60500941Y3959800D01*
X60518337Y4136427D01*
X60569857Y4306266D01*
X60653522Y4462791D01*
X60682852Y4498529D01*
X60766114Y4599986D01*
X60887052Y4699236D01*
X60903309Y4712578D01*
X61059834Y4796243D01*
X61229673Y4847763D01*
X61295858Y4854282D01*
X61362040Y4860800D01*
X61450560Y4860800D01*
X61516742Y4854282D01*
X61516742Y4854282D01*
G37*
G36*
X69136742Y4854282D02*
G01*
X69202927Y4847763D01*
X69372766Y4796243D01*
X69529291Y4712578D01*
X69545548Y4699236D01*
X69666486Y4599986D01*
X69749748Y4498529D01*
X69779078Y4462791D01*
X69862743Y4306266D01*
X69914263Y4136427D01*
X69931659Y3959800D01*
X69914263Y3783173D01*
X69862743Y3613334D01*
X69779078Y3456809D01*
X69749748Y3421071D01*
X69666486Y3319614D01*
X69590216Y3257022D01*
X69529291Y3207022D01*
X69372766Y3123357D01*
X69202927Y3071837D01*
X69136742Y3065318D01*
X69070560Y3058800D01*
X68982040Y3058800D01*
X68915858Y3065318D01*
X68849673Y3071837D01*
X68679834Y3123357D01*
X68523309Y3207022D01*
X68462384Y3257022D01*
X68386114Y3319614D01*
X68302852Y3421071D01*
X68273522Y3456809D01*
X68189857Y3613334D01*
X68138337Y3783173D01*
X68120941Y3959800D01*
X68138337Y4136427D01*
X68189857Y4306266D01*
X68273522Y4462791D01*
X68302852Y4498529D01*
X68386114Y4599986D01*
X68507052Y4699236D01*
X68523309Y4712578D01*
X68679834Y4796243D01*
X68849673Y4847763D01*
X68915858Y4854282D01*
X68982040Y4860800D01*
X69070560Y4860800D01*
X69136742Y4854282D01*
X69136742Y4854282D01*
G37*
G36*
X66596742Y4854282D02*
G01*
X66662927Y4847763D01*
X66832766Y4796243D01*
X66989291Y4712578D01*
X67005548Y4699236D01*
X67126486Y4599986D01*
X67209748Y4498529D01*
X67239078Y4462791D01*
X67322743Y4306266D01*
X67374263Y4136427D01*
X67391659Y3959800D01*
X67374263Y3783173D01*
X67322743Y3613334D01*
X67239078Y3456809D01*
X67209748Y3421071D01*
X67126486Y3319614D01*
X67050216Y3257022D01*
X66989291Y3207022D01*
X66832766Y3123357D01*
X66662927Y3071837D01*
X66596742Y3065318D01*
X66530560Y3058800D01*
X66442040Y3058800D01*
X66375858Y3065318D01*
X66309673Y3071837D01*
X66139834Y3123357D01*
X65983309Y3207022D01*
X65922384Y3257022D01*
X65846114Y3319614D01*
X65762852Y3421071D01*
X65733522Y3456809D01*
X65649857Y3613334D01*
X65598337Y3783173D01*
X65580941Y3959800D01*
X65598337Y4136427D01*
X65649857Y4306266D01*
X65733522Y4462791D01*
X65762852Y4498529D01*
X65846114Y4599986D01*
X65967052Y4699236D01*
X65983309Y4712578D01*
X66139834Y4796243D01*
X66309673Y4847763D01*
X66375858Y4854282D01*
X66442040Y4860800D01*
X66530560Y4860800D01*
X66596742Y4854282D01*
X66596742Y4854282D01*
G37*
G36*
X25942443Y4904281D02*
G01*
X26008627Y4897763D01*
X26178466Y4846243D01*
X26334991Y4762578D01*
X26370729Y4733248D01*
X26472186Y4649986D01*
X26555448Y4548529D01*
X26584778Y4512791D01*
X26668443Y4356266D01*
X26719963Y4186427D01*
X26737359Y4009800D01*
X26719963Y3833173D01*
X26668443Y3663334D01*
X26584778Y3506809D01*
X26555448Y3471071D01*
X26472186Y3369614D01*
X26370729Y3286352D01*
X26334991Y3257022D01*
X26334989Y3257021D01*
X26209229Y3189800D01*
X26178466Y3173357D01*
X26008627Y3121837D01*
X25942443Y3115319D01*
X25876260Y3108800D01*
X25787740Y3108800D01*
X25721557Y3115319D01*
X25655373Y3121837D01*
X25485534Y3173357D01*
X25454772Y3189800D01*
X25329011Y3257021D01*
X25329009Y3257022D01*
X25293271Y3286352D01*
X25191814Y3369614D01*
X25108552Y3471071D01*
X25079222Y3506809D01*
X24995557Y3663334D01*
X24944037Y3833173D01*
X24926641Y4009800D01*
X24944037Y4186427D01*
X24995557Y4356266D01*
X25079222Y4512791D01*
X25108552Y4548529D01*
X25191814Y4649986D01*
X25293271Y4733248D01*
X25329009Y4762578D01*
X25485534Y4846243D01*
X25655373Y4897763D01*
X25721557Y4904281D01*
X25787740Y4910800D01*
X25876260Y4910800D01*
X25942443Y4904281D01*
X25942443Y4904281D01*
G37*
G36*
X33562443Y4904281D02*
G01*
X33628627Y4897763D01*
X33798466Y4846243D01*
X33954991Y4762578D01*
X33990729Y4733248D01*
X34092186Y4649986D01*
X34175448Y4548529D01*
X34204778Y4512791D01*
X34288443Y4356266D01*
X34339963Y4186427D01*
X34357359Y4009800D01*
X34339963Y3833173D01*
X34288443Y3663334D01*
X34204778Y3506809D01*
X34175448Y3471071D01*
X34092186Y3369614D01*
X33990729Y3286352D01*
X33954991Y3257022D01*
X33954989Y3257021D01*
X33829229Y3189800D01*
X33798466Y3173357D01*
X33628627Y3121837D01*
X33562443Y3115319D01*
X33496260Y3108800D01*
X33407740Y3108800D01*
X33341557Y3115319D01*
X33275373Y3121837D01*
X33105534Y3173357D01*
X33074772Y3189800D01*
X32949011Y3257021D01*
X32949009Y3257022D01*
X32913271Y3286352D01*
X32811814Y3369614D01*
X32728552Y3471071D01*
X32699222Y3506809D01*
X32615557Y3663334D01*
X32564037Y3833173D01*
X32546641Y4009800D01*
X32564037Y4186427D01*
X32615557Y4356266D01*
X32699222Y4512791D01*
X32728552Y4548529D01*
X32811814Y4649986D01*
X32913271Y4733248D01*
X32949009Y4762578D01*
X33105534Y4846243D01*
X33275373Y4897763D01*
X33341557Y4904281D01*
X33407740Y4910800D01*
X33496260Y4910800D01*
X33562443Y4904281D01*
X33562443Y4904281D01*
G37*
G36*
X31022443Y4904281D02*
G01*
X31088627Y4897763D01*
X31258466Y4846243D01*
X31414991Y4762578D01*
X31450729Y4733248D01*
X31552186Y4649986D01*
X31635448Y4548529D01*
X31664778Y4512791D01*
X31748443Y4356266D01*
X31799963Y4186427D01*
X31817359Y4009800D01*
X31799963Y3833173D01*
X31748443Y3663334D01*
X31664778Y3506809D01*
X31635448Y3471071D01*
X31552186Y3369614D01*
X31450729Y3286352D01*
X31414991Y3257022D01*
X31414989Y3257021D01*
X31289229Y3189800D01*
X31258466Y3173357D01*
X31088627Y3121837D01*
X31022443Y3115319D01*
X30956260Y3108800D01*
X30867740Y3108800D01*
X30801557Y3115319D01*
X30735373Y3121837D01*
X30565534Y3173357D01*
X30534772Y3189800D01*
X30409011Y3257021D01*
X30409009Y3257022D01*
X30373271Y3286352D01*
X30271814Y3369614D01*
X30188552Y3471071D01*
X30159222Y3506809D01*
X30075557Y3663334D01*
X30024037Y3833173D01*
X30006641Y4009800D01*
X30024037Y4186427D01*
X30075557Y4356266D01*
X30159222Y4512791D01*
X30188552Y4548529D01*
X30271814Y4649986D01*
X30373271Y4733248D01*
X30409009Y4762578D01*
X30565534Y4846243D01*
X30735373Y4897763D01*
X30801557Y4904281D01*
X30867740Y4910800D01*
X30956260Y4910800D01*
X31022443Y4904281D01*
X31022443Y4904281D01*
G37*
G36*
X28482443Y4904281D02*
G01*
X28548627Y4897763D01*
X28718466Y4846243D01*
X28874991Y4762578D01*
X28910729Y4733248D01*
X29012186Y4649986D01*
X29095448Y4548529D01*
X29124778Y4512791D01*
X29208443Y4356266D01*
X29259963Y4186427D01*
X29277359Y4009800D01*
X29259963Y3833173D01*
X29208443Y3663334D01*
X29124778Y3506809D01*
X29095448Y3471071D01*
X29012186Y3369614D01*
X28910729Y3286352D01*
X28874991Y3257022D01*
X28874989Y3257021D01*
X28749229Y3189800D01*
X28718466Y3173357D01*
X28548627Y3121837D01*
X28482443Y3115319D01*
X28416260Y3108800D01*
X28327740Y3108800D01*
X28261557Y3115319D01*
X28195373Y3121837D01*
X28025534Y3173357D01*
X27994772Y3189800D01*
X27869011Y3257021D01*
X27869009Y3257022D01*
X27833271Y3286352D01*
X27731814Y3369614D01*
X27648552Y3471071D01*
X27619222Y3506809D01*
X27535557Y3663334D01*
X27484037Y3833173D01*
X27466641Y4009800D01*
X27484037Y4186427D01*
X27535557Y4356266D01*
X27619222Y4512791D01*
X27648552Y4548529D01*
X27731814Y4649986D01*
X27833271Y4733248D01*
X27869009Y4762578D01*
X28025534Y4846243D01*
X28195373Y4897763D01*
X28261557Y4904281D01*
X28327740Y4910800D01*
X28416260Y4910800D01*
X28482443Y4904281D01*
X28482443Y4904281D01*
G37*
G36*
X24193000Y3108800D02*
G01*
X22391000Y3108800D01*
X22391000Y4910800D01*
X24193000Y4910800D01*
X24193000Y3108800D01*
X24193000Y3108800D01*
G37*
G36*
X91013400Y3189800D02*
G01*
X89111400Y3189800D01*
X89111400Y5091800D01*
X91013400Y5091800D01*
X91013400Y3189800D01*
X91013400Y3189800D01*
G37*
G36*
X10420164Y6016411D02*
G01*
X10599545Y5942109D01*
X10611435Y5937184D01*
X10759822Y5838035D01*
X10783573Y5822165D01*
X10929965Y5675773D01*
X11044985Y5503633D01*
X11124211Y5312364D01*
X11164600Y5109316D01*
X11164600Y4902284D01*
X11124211Y4699236D01*
X11083100Y4599986D01*
X11044984Y4507965D01*
X10929965Y4335827D01*
X10783573Y4189435D01*
X10611435Y4074416D01*
X10611434Y4074415D01*
X10611433Y4074415D01*
X10420164Y3995189D01*
X10217116Y3954800D01*
X10010084Y3954800D01*
X9807036Y3995189D01*
X9615767Y4074415D01*
X9615766Y4074415D01*
X9615765Y4074416D01*
X9443627Y4189435D01*
X9297235Y4335827D01*
X9182216Y4507965D01*
X9144100Y4599986D01*
X9102989Y4699236D01*
X9062600Y4902284D01*
X9062600Y5109316D01*
X9102989Y5312364D01*
X9182215Y5503633D01*
X9297235Y5675773D01*
X9443627Y5822165D01*
X9467378Y5838035D01*
X9615765Y5937184D01*
X9627655Y5942109D01*
X9807036Y6016411D01*
X10010084Y6056800D01*
X10217116Y6056800D01*
X10420164Y6016411D01*
X10420164Y6016411D01*
G37*
G36*
X5920164Y6016411D02*
G01*
X6099545Y5942109D01*
X6111435Y5937184D01*
X6259822Y5838035D01*
X6283573Y5822165D01*
X6429965Y5675773D01*
X6544985Y5503633D01*
X6624211Y5312364D01*
X6664600Y5109316D01*
X6664600Y4902284D01*
X6624211Y4699236D01*
X6583100Y4599986D01*
X6544984Y4507965D01*
X6429965Y4335827D01*
X6283573Y4189435D01*
X6111435Y4074416D01*
X6111434Y4074415D01*
X6111433Y4074415D01*
X5920164Y3995189D01*
X5717116Y3954800D01*
X5510084Y3954800D01*
X5307036Y3995189D01*
X5115767Y4074415D01*
X5115766Y4074415D01*
X5115765Y4074416D01*
X4943627Y4189435D01*
X4797235Y4335827D01*
X4682216Y4507965D01*
X4644100Y4599986D01*
X4602989Y4699236D01*
X4562600Y4902284D01*
X4562600Y5109316D01*
X4602989Y5312364D01*
X4682215Y5503633D01*
X4797235Y5675773D01*
X4943627Y5822165D01*
X4967378Y5838035D01*
X5115765Y5937184D01*
X5127655Y5942109D01*
X5307036Y6016411D01*
X5510084Y6056800D01*
X5717116Y6056800D01*
X5920164Y6016411D01*
X5920164Y6016411D01*
G37*
G36*
X90339795Y7595254D02*
G01*
X90512866Y7523566D01*
X90512867Y7523565D01*
X90668627Y7419490D01*
X90801090Y7287027D01*
X90801091Y7287025D01*
X90905166Y7131266D01*
X90976854Y6958195D01*
X91013400Y6774467D01*
X91013400Y6587133D01*
X90976854Y6403405D01*
X90905166Y6230334D01*
X90905165Y6230333D01*
X90801090Y6074573D01*
X90668627Y5942110D01*
X90590218Y5889719D01*
X90512866Y5838034D01*
X90339795Y5766346D01*
X90156067Y5729800D01*
X89968733Y5729800D01*
X89785005Y5766346D01*
X89611934Y5838034D01*
X89534582Y5889719D01*
X89456173Y5942110D01*
X89323710Y6074573D01*
X89219635Y6230333D01*
X89219634Y6230334D01*
X89147946Y6403405D01*
X89111400Y6587133D01*
X89111400Y6774467D01*
X89147946Y6958195D01*
X89219634Y7131266D01*
X89323709Y7287025D01*
X89323710Y7287027D01*
X89456173Y7419490D01*
X89611933Y7523565D01*
X89611934Y7523566D01*
X89785005Y7595254D01*
X89968733Y7631800D01*
X90156067Y7631800D01*
X90339795Y7595254D01*
X90339795Y7595254D01*
G37*
G36*
X5920164Y12516411D02*
G01*
X6111433Y12437185D01*
X6111435Y12437184D01*
X6283573Y12322165D01*
X6429965Y12175773D01*
X6544985Y12003633D01*
X6624211Y11812364D01*
X6664600Y11609316D01*
X6664600Y11402284D01*
X6624211Y11199236D01*
X6544985Y11007967D01*
X6544984Y11007965D01*
X6429965Y10835827D01*
X6283573Y10689435D01*
X6111435Y10574416D01*
X6111434Y10574415D01*
X6111433Y10574415D01*
X5920164Y10495189D01*
X5717116Y10454800D01*
X5510084Y10454800D01*
X5307036Y10495189D01*
X5115767Y10574415D01*
X5115766Y10574415D01*
X5115765Y10574416D01*
X4943627Y10689435D01*
X4797235Y10835827D01*
X4682216Y11007965D01*
X4682215Y11007967D01*
X4602989Y11199236D01*
X4562600Y11402284D01*
X4562600Y11609316D01*
X4602989Y11812364D01*
X4682215Y12003633D01*
X4797235Y12175773D01*
X4943627Y12322165D01*
X5115765Y12437184D01*
X5115767Y12437185D01*
X5307036Y12516411D01*
X5510084Y12556800D01*
X5717116Y12556800D01*
X5920164Y12516411D01*
X5920164Y12516411D01*
G37*
G36*
X10420164Y12516411D02*
G01*
X10611433Y12437185D01*
X10611435Y12437184D01*
X10783573Y12322165D01*
X10929965Y12175773D01*
X11044985Y12003633D01*
X11124211Y11812364D01*
X11164600Y11609316D01*
X11164600Y11402284D01*
X11124211Y11199236D01*
X11044985Y11007967D01*
X11044984Y11007965D01*
X10929965Y10835827D01*
X10783573Y10689435D01*
X10611435Y10574416D01*
X10611434Y10574415D01*
X10611433Y10574415D01*
X10420164Y10495189D01*
X10217116Y10454800D01*
X10010084Y10454800D01*
X9807036Y10495189D01*
X9615767Y10574415D01*
X9615766Y10574415D01*
X9615765Y10574416D01*
X9443627Y10689435D01*
X9297235Y10835827D01*
X9182216Y11007965D01*
X9182215Y11007967D01*
X9102989Y11199236D01*
X9062600Y11402284D01*
X9062600Y11609316D01*
X9102989Y11812364D01*
X9182215Y12003633D01*
X9297235Y12175773D01*
X9443627Y12322165D01*
X9615765Y12437184D01*
X9615767Y12437185D01*
X9807036Y12516411D01*
X10010084Y12556800D01*
X10217116Y12556800D01*
X10420164Y12516411D01*
X10420164Y12516411D01*
G37*
G36*
X83038628Y14864097D02*
G01*
X83193500Y14799947D01*
X83332881Y14706815D01*
X83451415Y14588281D01*
X83544547Y14448900D01*
X83608697Y14294028D01*
X83641400Y14129616D01*
X83641400Y13961984D01*
X83608697Y13797572D01*
X83544547Y13642700D01*
X83451415Y13503319D01*
X83332881Y13384785D01*
X83193500Y13291653D01*
X83038628Y13227503D01*
X82874216Y13194800D01*
X82706584Y13194800D01*
X82542172Y13227503D01*
X82387300Y13291653D01*
X82247919Y13384785D01*
X82129385Y13503319D01*
X82036253Y13642700D01*
X81972103Y13797572D01*
X81939400Y13961984D01*
X81939400Y14129616D01*
X81972103Y14294028D01*
X82036253Y14448900D01*
X82129385Y14588281D01*
X82247919Y14706815D01*
X82387300Y14799947D01*
X82542172Y14864097D01*
X82706584Y14896800D01*
X82874216Y14896800D01*
X83038628Y14864097D01*
X83038628Y14864097D01*
G37*
G36*
X78038628Y14864097D02*
G01*
X78193500Y14799947D01*
X78332881Y14706815D01*
X78451415Y14588281D01*
X78544547Y14448900D01*
X78608697Y14294028D01*
X78641400Y14129616D01*
X78641400Y13961984D01*
X78608697Y13797572D01*
X78544547Y13642700D01*
X78451415Y13503319D01*
X78332881Y13384785D01*
X78193500Y13291653D01*
X78038628Y13227503D01*
X77874216Y13194800D01*
X77706584Y13194800D01*
X77542172Y13227503D01*
X77387300Y13291653D01*
X77247919Y13384785D01*
X77129385Y13503319D01*
X77036253Y13642700D01*
X76972103Y13797572D01*
X76939400Y13961984D01*
X76939400Y14129616D01*
X76972103Y14294028D01*
X77036253Y14448900D01*
X77129385Y14588281D01*
X77247919Y14706815D01*
X77387300Y14799947D01*
X77542172Y14864097D01*
X77706584Y14896800D01*
X77874216Y14896800D01*
X78038628Y14864097D01*
X78038628Y14864097D01*
G37*
G36*
X5782871Y20494697D02*
G01*
X5839235Y20489146D01*
X6056200Y20423330D01*
X6056202Y20423329D01*
X6256155Y20316453D01*
X6431418Y20172618D01*
X6575253Y19997355D01*
X6682129Y19797402D01*
X6747946Y19580434D01*
X6770169Y19354800D01*
X6747946Y19129166D01*
X6682129Y18912198D01*
X6575253Y18712245D01*
X6431418Y18536982D01*
X6256155Y18393147D01*
X6056202Y18286271D01*
X6056200Y18286270D01*
X5839235Y18220454D01*
X5782871Y18214903D01*
X5670145Y18203800D01*
X5557055Y18203800D01*
X5444329Y18214903D01*
X5387965Y18220454D01*
X5171000Y18286270D01*
X5170998Y18286271D01*
X4971045Y18393147D01*
X4795782Y18536982D01*
X4651947Y18712245D01*
X4545071Y18912198D01*
X4479254Y19129166D01*
X4457031Y19354800D01*
X4479254Y19580434D01*
X4545071Y19797402D01*
X4651947Y19997355D01*
X4795782Y20172618D01*
X4971045Y20316453D01*
X5170998Y20423329D01*
X5171000Y20423330D01*
X5387965Y20489146D01*
X5444329Y20494697D01*
X5557055Y20505800D01*
X5670145Y20505800D01*
X5782871Y20494697D01*
X5782871Y20494697D01*
G37*
G36*
X11519200Y18503800D02*
G01*
X9817200Y18503800D01*
X9817200Y20205800D01*
X11519200Y20205800D01*
X11519200Y18503800D01*
X11519200Y18503800D01*
G37*
G36*
X13416428Y20173097D02*
G01*
X13571300Y20108947D01*
X13710681Y20015815D01*
X13829215Y19897281D01*
X13922347Y19757900D01*
X13986497Y19603028D01*
X14019200Y19438616D01*
X14019200Y19270984D01*
X13986497Y19106572D01*
X13922347Y18951700D01*
X13829215Y18812319D01*
X13710681Y18693785D01*
X13571300Y18600653D01*
X13416428Y18536503D01*
X13252016Y18503800D01*
X13084384Y18503800D01*
X12919972Y18536503D01*
X12765100Y18600653D01*
X12625719Y18693785D01*
X12507185Y18812319D01*
X12414053Y18951700D01*
X12349903Y19106572D01*
X12317200Y19270984D01*
X12317200Y19438616D01*
X12349903Y19603028D01*
X12414053Y19757900D01*
X12507185Y19897281D01*
X12625719Y20015815D01*
X12765100Y20108947D01*
X12919972Y20173097D01*
X13084384Y20205800D01*
X13252016Y20205800D01*
X13416428Y20173097D01*
X13416428Y20173097D01*
G37*
G36*
X46400228Y21916297D02*
G01*
X46555100Y21852147D01*
X46694481Y21759015D01*
X46813015Y21640481D01*
X46906147Y21501100D01*
X46970297Y21346228D01*
X47003000Y21181816D01*
X47003000Y21014184D01*
X46970297Y20849772D01*
X46906147Y20694900D01*
X46813015Y20555519D01*
X46694481Y20436985D01*
X46555100Y20343853D01*
X46400228Y20279703D01*
X46235816Y20247000D01*
X46068184Y20247000D01*
X45903772Y20279703D01*
X45748900Y20343853D01*
X45609519Y20436985D01*
X45490985Y20555519D01*
X45397853Y20694900D01*
X45333703Y20849772D01*
X45301000Y21014184D01*
X45301000Y21181816D01*
X45333703Y21346228D01*
X45397853Y21501100D01*
X45490985Y21640481D01*
X45609519Y21759015D01*
X45748900Y21852147D01*
X45903772Y21916297D01*
X46068184Y21949000D01*
X46235816Y21949000D01*
X46400228Y21916297D01*
X46400228Y21916297D01*
G37*
G36*
X79734400Y20532800D02*
G01*
X78032400Y20532800D01*
X78032400Y22234800D01*
X79734400Y22234800D01*
X79734400Y20532800D01*
X79734400Y20532800D01*
G37*
G36*
X81631628Y22202097D02*
G01*
X81786500Y22137947D01*
X81925881Y22044815D01*
X82044415Y21926281D01*
X82137547Y21786900D01*
X82201697Y21632028D01*
X82234400Y21467616D01*
X82234400Y21299984D01*
X82201697Y21135572D01*
X82137547Y20980700D01*
X82044415Y20841319D01*
X81925881Y20722785D01*
X81786500Y20629653D01*
X81631628Y20565503D01*
X81467216Y20532800D01*
X81299584Y20532800D01*
X81135172Y20565503D01*
X80980300Y20629653D01*
X80840919Y20722785D01*
X80722385Y20841319D01*
X80629253Y20980700D01*
X80565103Y21135572D01*
X80532400Y21299984D01*
X80532400Y21467616D01*
X80565103Y21632028D01*
X80629253Y21786900D01*
X80722385Y21926281D01*
X80840919Y22044815D01*
X80980300Y22137947D01*
X81135172Y22202097D01*
X81299584Y22234800D01*
X81467216Y22234800D01*
X81631628Y22202097D01*
X81631628Y22202097D01*
G37*
G36*
X92369223Y25222487D02*
G01*
X92529642Y25173824D01*
X92596761Y25137948D01*
X92677478Y25094804D01*
X92807059Y24988459D01*
X92913404Y24858878D01*
X92913405Y24858876D01*
X92992424Y24711042D01*
X93041087Y24550623D01*
X93057517Y24383800D01*
X93041087Y24216977D01*
X92992424Y24056558D01*
X92951877Y23980700D01*
X92913404Y23908722D01*
X92807059Y23779141D01*
X92677478Y23672796D01*
X92677476Y23672795D01*
X92529642Y23593776D01*
X92369223Y23545113D01*
X92244204Y23532800D01*
X92160596Y23532800D01*
X92035577Y23545113D01*
X91875158Y23593776D01*
X91727324Y23672795D01*
X91727322Y23672796D01*
X91597741Y23779141D01*
X91491396Y23908722D01*
X91452923Y23980700D01*
X91412376Y24056558D01*
X91363713Y24216977D01*
X91347283Y24383800D01*
X91363713Y24550623D01*
X91412376Y24711042D01*
X91491395Y24858876D01*
X91491396Y24858878D01*
X91597741Y24988459D01*
X91727322Y25094804D01*
X91808039Y25137948D01*
X91875158Y25173824D01*
X92035577Y25222487D01*
X92160596Y25234800D01*
X92244204Y25234800D01*
X92369223Y25222487D01*
X92369223Y25222487D01*
G37*
G36*
X89910628Y25202097D02*
G01*
X90065500Y25137947D01*
X90204881Y25044815D01*
X90323415Y24926281D01*
X90416547Y24786900D01*
X90480697Y24632028D01*
X90513400Y24467616D01*
X90513400Y24299984D01*
X90480697Y24135572D01*
X90416547Y23980700D01*
X90323415Y23841319D01*
X90204881Y23722785D01*
X90065500Y23629653D01*
X89910628Y23565503D01*
X89746216Y23532800D01*
X89578584Y23532800D01*
X89414172Y23565503D01*
X89259300Y23629653D01*
X89119919Y23722785D01*
X89001385Y23841319D01*
X88908253Y23980700D01*
X88844103Y24135572D01*
X88811400Y24299984D01*
X88811400Y24467616D01*
X88844103Y24632028D01*
X88908253Y24786900D01*
X89001385Y24926281D01*
X89119919Y25044815D01*
X89259300Y25137947D01*
X89414172Y25202097D01*
X89578584Y25234800D01*
X89746216Y25234800D01*
X89910628Y25202097D01*
X89910628Y25202097D01*
G37*
G36*
X46400228Y26916297D02*
G01*
X46555100Y26852147D01*
X46694481Y26759015D01*
X46813015Y26640481D01*
X46906147Y26501100D01*
X46970297Y26346228D01*
X47003000Y26181816D01*
X47003000Y26014184D01*
X46970297Y25849772D01*
X46906147Y25694900D01*
X46813015Y25555519D01*
X46694481Y25436985D01*
X46555100Y25343853D01*
X46400228Y25279703D01*
X46235816Y25247000D01*
X46068184Y25247000D01*
X45903772Y25279703D01*
X45748900Y25343853D01*
X45609519Y25436985D01*
X45490985Y25555519D01*
X45397853Y25694900D01*
X45333703Y25849772D01*
X45301000Y26014184D01*
X45301000Y26181816D01*
X45333703Y26346228D01*
X45397853Y26501100D01*
X45490985Y26640481D01*
X45609519Y26759015D01*
X45748900Y26852147D01*
X45903772Y26916297D01*
X46068184Y26949000D01*
X46235816Y26949000D01*
X46400228Y26916297D01*
X46400228Y26916297D01*
G37*
G36*
X10657223Y26937187D02*
G01*
X10817642Y26888524D01*
X10950306Y26817614D01*
X10965478Y26809504D01*
X11095059Y26703159D01*
X11201404Y26573578D01*
X11201405Y26573576D01*
X11280424Y26425742D01*
X11329087Y26265323D01*
X11345517Y26098500D01*
X11329087Y25931677D01*
X11280424Y25771258D01*
X11239877Y25695400D01*
X11201404Y25623422D01*
X11095059Y25493841D01*
X10965478Y25387496D01*
X10965476Y25387495D01*
X10817642Y25308476D01*
X10657223Y25259813D01*
X10532204Y25247500D01*
X10448596Y25247500D01*
X10323577Y25259813D01*
X10163158Y25308476D01*
X10015324Y25387495D01*
X10015322Y25387496D01*
X9885741Y25493841D01*
X9779396Y25623422D01*
X9740923Y25695400D01*
X9700376Y25771258D01*
X9651713Y25931677D01*
X9635283Y26098500D01*
X9651713Y26265323D01*
X9700376Y26425742D01*
X9779395Y26573576D01*
X9779396Y26573578D01*
X9885741Y26703159D01*
X10015322Y26809504D01*
X10030494Y26817614D01*
X10163158Y26888524D01*
X10323577Y26937187D01*
X10448596Y26949500D01*
X10532204Y26949500D01*
X10657223Y26937187D01*
X10657223Y26937187D01*
G37*
G36*
X13278628Y26916797D02*
G01*
X13433500Y26852647D01*
X13572881Y26759515D01*
X13691415Y26640981D01*
X13784547Y26501600D01*
X13848697Y26346728D01*
X13881400Y26182316D01*
X13881400Y26014684D01*
X13848697Y25850272D01*
X13784547Y25695400D01*
X13691415Y25556019D01*
X13572881Y25437485D01*
X13433500Y25344353D01*
X13278628Y25280203D01*
X13114216Y25247500D01*
X12946584Y25247500D01*
X12782172Y25280203D01*
X12627300Y25344353D01*
X12487919Y25437485D01*
X12369385Y25556019D01*
X12276253Y25695400D01*
X12212103Y25850272D01*
X12179400Y26014684D01*
X12179400Y26182316D01*
X12212103Y26346728D01*
X12276253Y26501600D01*
X12369385Y26640981D01*
X12487919Y26759515D01*
X12627300Y26852647D01*
X12782172Y26916797D01*
X12946584Y26949500D01*
X13114216Y26949500D01*
X13278628Y26916797D01*
X13278628Y26916797D01*
G37*
G36*
X6764600Y28363800D02*
G01*
X4462600Y28363800D01*
X4462600Y30665800D01*
X6764600Y30665800D01*
X6764600Y28363800D01*
X6764600Y28363800D01*
G37*
G36*
X41238823Y30538887D02*
G01*
X41399242Y30490224D01*
X41466361Y30454348D01*
X41547078Y30411204D01*
X41676659Y30304859D01*
X41783004Y30175278D01*
X41783005Y30175276D01*
X41862024Y30027442D01*
X41910687Y29867023D01*
X41927117Y29700200D01*
X41910687Y29533377D01*
X41862024Y29372958D01*
X41821477Y29297100D01*
X41783004Y29225122D01*
X41676659Y29095541D01*
X41547078Y28989196D01*
X41547076Y28989195D01*
X41399242Y28910176D01*
X41238823Y28861513D01*
X41113804Y28849200D01*
X41030196Y28849200D01*
X40905177Y28861513D01*
X40744758Y28910176D01*
X40596924Y28989195D01*
X40596922Y28989196D01*
X40467341Y29095541D01*
X40360996Y29225122D01*
X40322523Y29297100D01*
X40281976Y29372958D01*
X40233313Y29533377D01*
X40216883Y29700200D01*
X40233313Y29867023D01*
X40281976Y30027442D01*
X40360995Y30175276D01*
X40360996Y30175278D01*
X40467341Y30304859D01*
X40596922Y30411204D01*
X40677639Y30454348D01*
X40744758Y30490224D01*
X40905177Y30538887D01*
X41030196Y30551200D01*
X41113804Y30551200D01*
X41238823Y30538887D01*
X41238823Y30538887D01*
G37*
G36*
X69178823Y30538887D02*
G01*
X69339242Y30490224D01*
X69406361Y30454348D01*
X69487078Y30411204D01*
X69616659Y30304859D01*
X69723004Y30175278D01*
X69723005Y30175276D01*
X69802024Y30027442D01*
X69850687Y29867023D01*
X69867117Y29700200D01*
X69850687Y29533377D01*
X69802024Y29372958D01*
X69761477Y29297100D01*
X69723004Y29225122D01*
X69616659Y29095541D01*
X69487078Y28989196D01*
X69487076Y28989195D01*
X69339242Y28910176D01*
X69178823Y28861513D01*
X69053804Y28849200D01*
X68970196Y28849200D01*
X68845177Y28861513D01*
X68684758Y28910176D01*
X68536924Y28989195D01*
X68536922Y28989196D01*
X68407341Y29095541D01*
X68300996Y29225122D01*
X68262523Y29297100D01*
X68221976Y29372958D01*
X68173313Y29533377D01*
X68156883Y29700200D01*
X68173313Y29867023D01*
X68221976Y30027442D01*
X68300995Y30175276D01*
X68300996Y30175278D01*
X68407341Y30304859D01*
X68536922Y30411204D01*
X68617639Y30454348D01*
X68684758Y30490224D01*
X68845177Y30538887D01*
X68970196Y30551200D01*
X69053804Y30551200D01*
X69178823Y30538887D01*
X69178823Y30538887D01*
G37*
G36*
X66638823Y30538887D02*
G01*
X66799242Y30490224D01*
X66866361Y30454348D01*
X66947078Y30411204D01*
X67076659Y30304859D01*
X67183004Y30175278D01*
X67183005Y30175276D01*
X67262024Y30027442D01*
X67310687Y29867023D01*
X67327117Y29700200D01*
X67310687Y29533377D01*
X67262024Y29372958D01*
X67221477Y29297100D01*
X67183004Y29225122D01*
X67076659Y29095541D01*
X66947078Y28989196D01*
X66947076Y28989195D01*
X66799242Y28910176D01*
X66638823Y28861513D01*
X66513804Y28849200D01*
X66430196Y28849200D01*
X66305177Y28861513D01*
X66144758Y28910176D01*
X65996924Y28989195D01*
X65996922Y28989196D01*
X65867341Y29095541D01*
X65760996Y29225122D01*
X65722523Y29297100D01*
X65681976Y29372958D01*
X65633313Y29533377D01*
X65616883Y29700200D01*
X65633313Y29867023D01*
X65681976Y30027442D01*
X65760995Y30175276D01*
X65760996Y30175278D01*
X65867341Y30304859D01*
X65996922Y30411204D01*
X66077639Y30454348D01*
X66144758Y30490224D01*
X66305177Y30538887D01*
X66430196Y30551200D01*
X66513804Y30551200D01*
X66638823Y30538887D01*
X66638823Y30538887D01*
G37*
G36*
X64098823Y30538887D02*
G01*
X64259242Y30490224D01*
X64326361Y30454348D01*
X64407078Y30411204D01*
X64536659Y30304859D01*
X64643004Y30175278D01*
X64643005Y30175276D01*
X64722024Y30027442D01*
X64770687Y29867023D01*
X64787117Y29700200D01*
X64770687Y29533377D01*
X64722024Y29372958D01*
X64681477Y29297100D01*
X64643004Y29225122D01*
X64536659Y29095541D01*
X64407078Y28989196D01*
X64407076Y28989195D01*
X64259242Y28910176D01*
X64098823Y28861513D01*
X63973804Y28849200D01*
X63890196Y28849200D01*
X63765177Y28861513D01*
X63604758Y28910176D01*
X63456924Y28989195D01*
X63456922Y28989196D01*
X63327341Y29095541D01*
X63220996Y29225122D01*
X63182523Y29297100D01*
X63141976Y29372958D01*
X63093313Y29533377D01*
X63076883Y29700200D01*
X63093313Y29867023D01*
X63141976Y30027442D01*
X63220995Y30175276D01*
X63220996Y30175278D01*
X63327341Y30304859D01*
X63456922Y30411204D01*
X63537639Y30454348D01*
X63604758Y30490224D01*
X63765177Y30538887D01*
X63890196Y30551200D01*
X63973804Y30551200D01*
X64098823Y30538887D01*
X64098823Y30538887D01*
G37*
G36*
X61558823Y30538887D02*
G01*
X61719242Y30490224D01*
X61786361Y30454348D01*
X61867078Y30411204D01*
X61996659Y30304859D01*
X62103004Y30175278D01*
X62103005Y30175276D01*
X62182024Y30027442D01*
X62230687Y29867023D01*
X62247117Y29700200D01*
X62230687Y29533377D01*
X62182024Y29372958D01*
X62141477Y29297100D01*
X62103004Y29225122D01*
X61996659Y29095541D01*
X61867078Y28989196D01*
X61867076Y28989195D01*
X61719242Y28910176D01*
X61558823Y28861513D01*
X61433804Y28849200D01*
X61350196Y28849200D01*
X61225177Y28861513D01*
X61064758Y28910176D01*
X60916924Y28989195D01*
X60916922Y28989196D01*
X60787341Y29095541D01*
X60680996Y29225122D01*
X60642523Y29297100D01*
X60601976Y29372958D01*
X60553313Y29533377D01*
X60536883Y29700200D01*
X60553313Y29867023D01*
X60601976Y30027442D01*
X60680995Y30175276D01*
X60680996Y30175278D01*
X60787341Y30304859D01*
X60916922Y30411204D01*
X60997639Y30454348D01*
X61064758Y30490224D01*
X61225177Y30538887D01*
X61350196Y30551200D01*
X61433804Y30551200D01*
X61558823Y30538887D01*
X61558823Y30538887D01*
G37*
G36*
X59018823Y30538887D02*
G01*
X59179242Y30490224D01*
X59246361Y30454348D01*
X59327078Y30411204D01*
X59456659Y30304859D01*
X59563004Y30175278D01*
X59563005Y30175276D01*
X59642024Y30027442D01*
X59690687Y29867023D01*
X59707117Y29700200D01*
X59690687Y29533377D01*
X59642024Y29372958D01*
X59601477Y29297100D01*
X59563004Y29225122D01*
X59456659Y29095541D01*
X59327078Y28989196D01*
X59327076Y28989195D01*
X59179242Y28910176D01*
X59018823Y28861513D01*
X58893804Y28849200D01*
X58810196Y28849200D01*
X58685177Y28861513D01*
X58524758Y28910176D01*
X58376924Y28989195D01*
X58376922Y28989196D01*
X58247341Y29095541D01*
X58140996Y29225122D01*
X58102523Y29297100D01*
X58061976Y29372958D01*
X58013313Y29533377D01*
X57996883Y29700200D01*
X58013313Y29867023D01*
X58061976Y30027442D01*
X58140995Y30175276D01*
X58140996Y30175278D01*
X58247341Y30304859D01*
X58376922Y30411204D01*
X58457639Y30454348D01*
X58524758Y30490224D01*
X58685177Y30538887D01*
X58810196Y30551200D01*
X58893804Y30551200D01*
X59018823Y30538887D01*
X59018823Y30538887D01*
G37*
G36*
X56478823Y30538887D02*
G01*
X56639242Y30490224D01*
X56706361Y30454348D01*
X56787078Y30411204D01*
X56916659Y30304859D01*
X57023004Y30175278D01*
X57023005Y30175276D01*
X57102024Y30027442D01*
X57150687Y29867023D01*
X57167117Y29700200D01*
X57150687Y29533377D01*
X57102024Y29372958D01*
X57061477Y29297100D01*
X57023004Y29225122D01*
X56916659Y29095541D01*
X56787078Y28989196D01*
X56787076Y28989195D01*
X56639242Y28910176D01*
X56478823Y28861513D01*
X56353804Y28849200D01*
X56270196Y28849200D01*
X56145177Y28861513D01*
X55984758Y28910176D01*
X55836924Y28989195D01*
X55836922Y28989196D01*
X55707341Y29095541D01*
X55600996Y29225122D01*
X55562523Y29297100D01*
X55521976Y29372958D01*
X55473313Y29533377D01*
X55456883Y29700200D01*
X55473313Y29867023D01*
X55521976Y30027442D01*
X55600995Y30175276D01*
X55600996Y30175278D01*
X55707341Y30304859D01*
X55836922Y30411204D01*
X55917639Y30454348D01*
X55984758Y30490224D01*
X56145177Y30538887D01*
X56270196Y30551200D01*
X56353804Y30551200D01*
X56478823Y30538887D01*
X56478823Y30538887D01*
G37*
G36*
X53938823Y30538887D02*
G01*
X54099242Y30490224D01*
X54166361Y30454348D01*
X54247078Y30411204D01*
X54376659Y30304859D01*
X54483004Y30175278D01*
X54483005Y30175276D01*
X54562024Y30027442D01*
X54610687Y29867023D01*
X54627117Y29700200D01*
X54610687Y29533377D01*
X54562024Y29372958D01*
X54521477Y29297100D01*
X54483004Y29225122D01*
X54376659Y29095541D01*
X54247078Y28989196D01*
X54247076Y28989195D01*
X54099242Y28910176D01*
X53938823Y28861513D01*
X53813804Y28849200D01*
X53730196Y28849200D01*
X53605177Y28861513D01*
X53444758Y28910176D01*
X53296924Y28989195D01*
X53296922Y28989196D01*
X53167341Y29095541D01*
X53060996Y29225122D01*
X53022523Y29297100D01*
X52981976Y29372958D01*
X52933313Y29533377D01*
X52916883Y29700200D01*
X52933313Y29867023D01*
X52981976Y30027442D01*
X53060995Y30175276D01*
X53060996Y30175278D01*
X53167341Y30304859D01*
X53296922Y30411204D01*
X53377639Y30454348D01*
X53444758Y30490224D01*
X53605177Y30538887D01*
X53730196Y30551200D01*
X53813804Y30551200D01*
X53938823Y30538887D01*
X53938823Y30538887D01*
G37*
G36*
X51398823Y30538887D02*
G01*
X51559242Y30490224D01*
X51626361Y30454348D01*
X51707078Y30411204D01*
X51836659Y30304859D01*
X51943004Y30175278D01*
X51943005Y30175276D01*
X52022024Y30027442D01*
X52070687Y29867023D01*
X52087117Y29700200D01*
X52070687Y29533377D01*
X52022024Y29372958D01*
X51981477Y29297100D01*
X51943004Y29225122D01*
X51836659Y29095541D01*
X51707078Y28989196D01*
X51707076Y28989195D01*
X51559242Y28910176D01*
X51398823Y28861513D01*
X51273804Y28849200D01*
X51190196Y28849200D01*
X51065177Y28861513D01*
X50904758Y28910176D01*
X50756924Y28989195D01*
X50756922Y28989196D01*
X50627341Y29095541D01*
X50520996Y29225122D01*
X50482523Y29297100D01*
X50441976Y29372958D01*
X50393313Y29533377D01*
X50376883Y29700200D01*
X50393313Y29867023D01*
X50441976Y30027442D01*
X50520995Y30175276D01*
X50520996Y30175278D01*
X50627341Y30304859D01*
X50756922Y30411204D01*
X50837639Y30454348D01*
X50904758Y30490224D01*
X51065177Y30538887D01*
X51190196Y30551200D01*
X51273804Y30551200D01*
X51398823Y30538887D01*
X51398823Y30538887D01*
G37*
G36*
X71718823Y30538887D02*
G01*
X71879242Y30490224D01*
X71946361Y30454348D01*
X72027078Y30411204D01*
X72156659Y30304859D01*
X72263004Y30175278D01*
X72263005Y30175276D01*
X72342024Y30027442D01*
X72390687Y29867023D01*
X72407117Y29700200D01*
X72390687Y29533377D01*
X72342024Y29372958D01*
X72301477Y29297100D01*
X72263004Y29225122D01*
X72156659Y29095541D01*
X72027078Y28989196D01*
X72027076Y28989195D01*
X71879242Y28910176D01*
X71718823Y28861513D01*
X71593804Y28849200D01*
X71510196Y28849200D01*
X71385177Y28861513D01*
X71224758Y28910176D01*
X71076924Y28989195D01*
X71076922Y28989196D01*
X70947341Y29095541D01*
X70840996Y29225122D01*
X70802523Y29297100D01*
X70761976Y29372958D01*
X70713313Y29533377D01*
X70696883Y29700200D01*
X70713313Y29867023D01*
X70761976Y30027442D01*
X70840995Y30175276D01*
X70840996Y30175278D01*
X70947341Y30304859D01*
X71076922Y30411204D01*
X71157639Y30454348D01*
X71224758Y30490224D01*
X71385177Y30538887D01*
X71510196Y30551200D01*
X71593804Y30551200D01*
X71718823Y30538887D01*
X71718823Y30538887D01*
G37*
G36*
X46318823Y30538887D02*
G01*
X46479242Y30490224D01*
X46546361Y30454348D01*
X46627078Y30411204D01*
X46756659Y30304859D01*
X46863004Y30175278D01*
X46863005Y30175276D01*
X46942024Y30027442D01*
X46990687Y29867023D01*
X47007117Y29700200D01*
X46990687Y29533377D01*
X46942024Y29372958D01*
X46901477Y29297100D01*
X46863004Y29225122D01*
X46756659Y29095541D01*
X46627078Y28989196D01*
X46627076Y28989195D01*
X46479242Y28910176D01*
X46318823Y28861513D01*
X46193804Y28849200D01*
X46110196Y28849200D01*
X45985177Y28861513D01*
X45824758Y28910176D01*
X45676924Y28989195D01*
X45676922Y28989196D01*
X45547341Y29095541D01*
X45440996Y29225122D01*
X45402523Y29297100D01*
X45361976Y29372958D01*
X45313313Y29533377D01*
X45296883Y29700200D01*
X45313313Y29867023D01*
X45361976Y30027442D01*
X45440995Y30175276D01*
X45440996Y30175278D01*
X45547341Y30304859D01*
X45676922Y30411204D01*
X45757639Y30454348D01*
X45824758Y30490224D01*
X45985177Y30538887D01*
X46110196Y30551200D01*
X46193804Y30551200D01*
X46318823Y30538887D01*
X46318823Y30538887D01*
G37*
G36*
X43778823Y30538887D02*
G01*
X43939242Y30490224D01*
X44006361Y30454348D01*
X44087078Y30411204D01*
X44216659Y30304859D01*
X44323004Y30175278D01*
X44323005Y30175276D01*
X44402024Y30027442D01*
X44450687Y29867023D01*
X44467117Y29700200D01*
X44450687Y29533377D01*
X44402024Y29372958D01*
X44361477Y29297100D01*
X44323004Y29225122D01*
X44216659Y29095541D01*
X44087078Y28989196D01*
X44087076Y28989195D01*
X43939242Y28910176D01*
X43778823Y28861513D01*
X43653804Y28849200D01*
X43570196Y28849200D01*
X43445177Y28861513D01*
X43284758Y28910176D01*
X43136924Y28989195D01*
X43136922Y28989196D01*
X43007341Y29095541D01*
X42900996Y29225122D01*
X42862523Y29297100D01*
X42821976Y29372958D01*
X42773313Y29533377D01*
X42756883Y29700200D01*
X42773313Y29867023D01*
X42821976Y30027442D01*
X42900995Y30175276D01*
X42900996Y30175278D01*
X43007341Y30304859D01*
X43136922Y30411204D01*
X43217639Y30454348D01*
X43284758Y30490224D01*
X43445177Y30538887D01*
X43570196Y30551200D01*
X43653804Y30551200D01*
X43778823Y30538887D01*
X43778823Y30538887D01*
G37*
G36*
X38698823Y30538887D02*
G01*
X38859242Y30490224D01*
X38926361Y30454348D01*
X39007078Y30411204D01*
X39136659Y30304859D01*
X39243004Y30175278D01*
X39243005Y30175276D01*
X39322024Y30027442D01*
X39370687Y29867023D01*
X39387117Y29700200D01*
X39370687Y29533377D01*
X39322024Y29372958D01*
X39281477Y29297100D01*
X39243004Y29225122D01*
X39136659Y29095541D01*
X39007078Y28989196D01*
X39007076Y28989195D01*
X38859242Y28910176D01*
X38698823Y28861513D01*
X38573804Y28849200D01*
X38490196Y28849200D01*
X38365177Y28861513D01*
X38204758Y28910176D01*
X38056924Y28989195D01*
X38056922Y28989196D01*
X37927341Y29095541D01*
X37820996Y29225122D01*
X37782523Y29297100D01*
X37741976Y29372958D01*
X37693313Y29533377D01*
X37676883Y29700200D01*
X37693313Y29867023D01*
X37741976Y30027442D01*
X37820995Y30175276D01*
X37820996Y30175278D01*
X37927341Y30304859D01*
X38056922Y30411204D01*
X38137639Y30454348D01*
X38204758Y30490224D01*
X38365177Y30538887D01*
X38490196Y30551200D01*
X38573804Y30551200D01*
X38698823Y30538887D01*
X38698823Y30538887D01*
G37*
G36*
X36158823Y30538887D02*
G01*
X36319242Y30490224D01*
X36386361Y30454348D01*
X36467078Y30411204D01*
X36596659Y30304859D01*
X36703004Y30175278D01*
X36703005Y30175276D01*
X36782024Y30027442D01*
X36830687Y29867023D01*
X36847117Y29700200D01*
X36830687Y29533377D01*
X36782024Y29372958D01*
X36741477Y29297100D01*
X36703004Y29225122D01*
X36596659Y29095541D01*
X36467078Y28989196D01*
X36467076Y28989195D01*
X36319242Y28910176D01*
X36158823Y28861513D01*
X36033804Y28849200D01*
X35950196Y28849200D01*
X35825177Y28861513D01*
X35664758Y28910176D01*
X35516924Y28989195D01*
X35516922Y28989196D01*
X35387341Y29095541D01*
X35280996Y29225122D01*
X35242523Y29297100D01*
X35201976Y29372958D01*
X35153313Y29533377D01*
X35136883Y29700200D01*
X35153313Y29867023D01*
X35201976Y30027442D01*
X35280995Y30175276D01*
X35280996Y30175278D01*
X35387341Y30304859D01*
X35516922Y30411204D01*
X35597639Y30454348D01*
X35664758Y30490224D01*
X35825177Y30538887D01*
X35950196Y30551200D01*
X36033804Y30551200D01*
X36158823Y30538887D01*
X36158823Y30538887D01*
G37*
G36*
X33618823Y30538887D02*
G01*
X33779242Y30490224D01*
X33846361Y30454348D01*
X33927078Y30411204D01*
X34056659Y30304859D01*
X34163004Y30175278D01*
X34163005Y30175276D01*
X34242024Y30027442D01*
X34290687Y29867023D01*
X34307117Y29700200D01*
X34290687Y29533377D01*
X34242024Y29372958D01*
X34201477Y29297100D01*
X34163004Y29225122D01*
X34056659Y29095541D01*
X33927078Y28989196D01*
X33927076Y28989195D01*
X33779242Y28910176D01*
X33618823Y28861513D01*
X33493804Y28849200D01*
X33410196Y28849200D01*
X33285177Y28861513D01*
X33124758Y28910176D01*
X32976924Y28989195D01*
X32976922Y28989196D01*
X32847341Y29095541D01*
X32740996Y29225122D01*
X32702523Y29297100D01*
X32661976Y29372958D01*
X32613313Y29533377D01*
X32596883Y29700200D01*
X32613313Y29867023D01*
X32661976Y30027442D01*
X32740995Y30175276D01*
X32740996Y30175278D01*
X32847341Y30304859D01*
X32976922Y30411204D01*
X33057639Y30454348D01*
X33124758Y30490224D01*
X33285177Y30538887D01*
X33410196Y30551200D01*
X33493804Y30551200D01*
X33618823Y30538887D01*
X33618823Y30538887D01*
G37*
G36*
X31078823Y30538887D02*
G01*
X31239242Y30490224D01*
X31306361Y30454348D01*
X31387078Y30411204D01*
X31516659Y30304859D01*
X31623004Y30175278D01*
X31623005Y30175276D01*
X31702024Y30027442D01*
X31750687Y29867023D01*
X31767117Y29700200D01*
X31750687Y29533377D01*
X31702024Y29372958D01*
X31661477Y29297100D01*
X31623004Y29225122D01*
X31516659Y29095541D01*
X31387078Y28989196D01*
X31387076Y28989195D01*
X31239242Y28910176D01*
X31078823Y28861513D01*
X30953804Y28849200D01*
X30870196Y28849200D01*
X30745177Y28861513D01*
X30584758Y28910176D01*
X30436924Y28989195D01*
X30436922Y28989196D01*
X30307341Y29095541D01*
X30200996Y29225122D01*
X30162523Y29297100D01*
X30121976Y29372958D01*
X30073313Y29533377D01*
X30056883Y29700200D01*
X30073313Y29867023D01*
X30121976Y30027442D01*
X30200995Y30175276D01*
X30200996Y30175278D01*
X30307341Y30304859D01*
X30436922Y30411204D01*
X30517639Y30454348D01*
X30584758Y30490224D01*
X30745177Y30538887D01*
X30870196Y30551200D01*
X30953804Y30551200D01*
X31078823Y30538887D01*
X31078823Y30538887D01*
G37*
G36*
X28538823Y30538887D02*
G01*
X28699242Y30490224D01*
X28766361Y30454348D01*
X28847078Y30411204D01*
X28976659Y30304859D01*
X29083004Y30175278D01*
X29083005Y30175276D01*
X29162024Y30027442D01*
X29210687Y29867023D01*
X29227117Y29700200D01*
X29210687Y29533377D01*
X29162024Y29372958D01*
X29121477Y29297100D01*
X29083004Y29225122D01*
X28976659Y29095541D01*
X28847078Y28989196D01*
X28847076Y28989195D01*
X28699242Y28910176D01*
X28538823Y28861513D01*
X28413804Y28849200D01*
X28330196Y28849200D01*
X28205177Y28861513D01*
X28044758Y28910176D01*
X27896924Y28989195D01*
X27896922Y28989196D01*
X27767341Y29095541D01*
X27660996Y29225122D01*
X27622523Y29297100D01*
X27581976Y29372958D01*
X27533313Y29533377D01*
X27516883Y29700200D01*
X27533313Y29867023D01*
X27581976Y30027442D01*
X27660995Y30175276D01*
X27660996Y30175278D01*
X27767341Y30304859D01*
X27896922Y30411204D01*
X27977639Y30454348D01*
X28044758Y30490224D01*
X28205177Y30538887D01*
X28330196Y30551200D01*
X28413804Y30551200D01*
X28538823Y30538887D01*
X28538823Y30538887D01*
G37*
G36*
X25998823Y30538887D02*
G01*
X26159242Y30490224D01*
X26226361Y30454348D01*
X26307078Y30411204D01*
X26436659Y30304859D01*
X26543004Y30175278D01*
X26543005Y30175276D01*
X26622024Y30027442D01*
X26670687Y29867023D01*
X26687117Y29700200D01*
X26670687Y29533377D01*
X26622024Y29372958D01*
X26581477Y29297100D01*
X26543004Y29225122D01*
X26436659Y29095541D01*
X26307078Y28989196D01*
X26307076Y28989195D01*
X26159242Y28910176D01*
X25998823Y28861513D01*
X25873804Y28849200D01*
X25790196Y28849200D01*
X25665177Y28861513D01*
X25504758Y28910176D01*
X25356924Y28989195D01*
X25356922Y28989196D01*
X25227341Y29095541D01*
X25120996Y29225122D01*
X25082523Y29297100D01*
X25041976Y29372958D01*
X24993313Y29533377D01*
X24976883Y29700200D01*
X24993313Y29867023D01*
X25041976Y30027442D01*
X25120995Y30175276D01*
X25120996Y30175278D01*
X25227341Y30304859D01*
X25356922Y30411204D01*
X25437639Y30454348D01*
X25504758Y30490224D01*
X25665177Y30538887D01*
X25790196Y30551200D01*
X25873804Y30551200D01*
X25998823Y30538887D01*
X25998823Y30538887D01*
G37*
G36*
X48858823Y30538887D02*
G01*
X49019242Y30490224D01*
X49086361Y30454348D01*
X49167078Y30411204D01*
X49296659Y30304859D01*
X49403004Y30175278D01*
X49403005Y30175276D01*
X49482024Y30027442D01*
X49530687Y29867023D01*
X49547117Y29700200D01*
X49530687Y29533377D01*
X49482024Y29372958D01*
X49441477Y29297100D01*
X49403004Y29225122D01*
X49296659Y29095541D01*
X49167078Y28989196D01*
X49167076Y28989195D01*
X49019242Y28910176D01*
X48858823Y28861513D01*
X48733804Y28849200D01*
X48650196Y28849200D01*
X48525177Y28861513D01*
X48364758Y28910176D01*
X48216924Y28989195D01*
X48216922Y28989196D01*
X48087341Y29095541D01*
X47980996Y29225122D01*
X47942523Y29297100D01*
X47901976Y29372958D01*
X47853313Y29533377D01*
X47836883Y29700200D01*
X47853313Y29867023D01*
X47901976Y30027442D01*
X47980995Y30175276D01*
X47980996Y30175278D01*
X48087341Y30304859D01*
X48216922Y30411204D01*
X48297639Y30454348D01*
X48364758Y30490224D01*
X48525177Y30538887D01*
X48650196Y30551200D01*
X48733804Y30551200D01*
X48858823Y30538887D01*
X48858823Y30538887D01*
G37*
G36*
X24143000Y28849200D02*
G01*
X22441000Y28849200D01*
X22441000Y30551200D01*
X24143000Y30551200D01*
X24143000Y28849200D01*
X24143000Y28849200D01*
G37*
G36*
X76181628Y30518497D02*
G01*
X76336500Y30454347D01*
X76475881Y30361215D01*
X76594415Y30242681D01*
X76687547Y30103300D01*
X76751697Y29948428D01*
X76784400Y29784016D01*
X76784400Y29616384D01*
X76751697Y29451972D01*
X76687547Y29297100D01*
X76594415Y29157719D01*
X76475881Y29039185D01*
X76336500Y28946053D01*
X76181628Y28881903D01*
X76017216Y28849200D01*
X75849584Y28849200D01*
X75685172Y28881903D01*
X75530300Y28946053D01*
X75390919Y29039185D01*
X75272385Y29157719D01*
X75179253Y29297100D01*
X75115103Y29451972D01*
X75082400Y29616384D01*
X75082400Y29784016D01*
X75115103Y29948428D01*
X75179253Y30103300D01*
X75272385Y30242681D01*
X75390919Y30361215D01*
X75530300Y30454347D01*
X75685172Y30518497D01*
X75849584Y30551200D01*
X76017216Y30551200D01*
X76181628Y30518497D01*
X76181628Y30518497D01*
G37*
G36*
X81181628Y30518497D02*
G01*
X81336500Y30454347D01*
X81475881Y30361215D01*
X81594415Y30242681D01*
X81687547Y30103300D01*
X81751697Y29948428D01*
X81784400Y29784016D01*
X81784400Y29616384D01*
X81751697Y29451972D01*
X81687547Y29297100D01*
X81594415Y29157719D01*
X81475881Y29039185D01*
X81336500Y28946053D01*
X81181628Y28881903D01*
X81017216Y28849200D01*
X80849584Y28849200D01*
X80685172Y28881903D01*
X80530300Y28946053D01*
X80390919Y29039185D01*
X80272385Y29157719D01*
X80179253Y29297100D01*
X80115103Y29451972D01*
X80082400Y29616384D01*
X80082400Y29784016D01*
X80115103Y29948428D01*
X80179253Y30103300D01*
X80272385Y30242681D01*
X80390919Y30361215D01*
X80530300Y30454347D01*
X80685172Y30518497D01*
X80849584Y30551200D01*
X81017216Y30551200D01*
X81181628Y30518497D01*
X81181628Y30518497D01*
G37*
G36*
X78546912Y35766273D02*
G01*
X78696212Y35736576D01*
X78860184Y35668656D01*
X79007754Y35570053D01*
X79133253Y35444554D01*
X79231856Y35296984D01*
X79299776Y35133012D01*
X79334400Y34958941D01*
X79334400Y34781459D01*
X79299776Y34607388D01*
X79231856Y34443416D01*
X79133253Y34295846D01*
X79007754Y34170347D01*
X78860184Y34071744D01*
X78696212Y34003824D01*
X78546912Y33974127D01*
X78522142Y33969200D01*
X78344658Y33969200D01*
X78319888Y33974127D01*
X78170588Y34003824D01*
X78006616Y34071744D01*
X77859046Y34170347D01*
X77733547Y34295846D01*
X77634944Y34443416D01*
X77567024Y34607388D01*
X77532400Y34781459D01*
X77532400Y34958941D01*
X77567024Y35133012D01*
X77634944Y35296984D01*
X77733547Y35444554D01*
X77859046Y35570053D01*
X78006616Y35668656D01*
X78170588Y35736576D01*
X78319888Y35766273D01*
X78344658Y35771200D01*
X78522142Y35771200D01*
X78546912Y35766273D01*
X78546912Y35766273D01*
G37*
G36*
X89722842Y36124282D02*
G01*
X89789027Y36117763D01*
X89958866Y36066243D01*
X90115391Y35982578D01*
X90151129Y35953248D01*
X90252586Y35869986D01*
X90333656Y35771200D01*
X90365178Y35732791D01*
X90448843Y35576266D01*
X90500363Y35406427D01*
X90517759Y35229800D01*
X90500363Y35053173D01*
X90448843Y34883334D01*
X90365178Y34726809D01*
X90335848Y34691071D01*
X90252586Y34589614D01*
X90151129Y34506352D01*
X90115391Y34477022D01*
X89958866Y34393357D01*
X89789027Y34341837D01*
X89722842Y34335318D01*
X89656660Y34328800D01*
X89568140Y34328800D01*
X89501958Y34335318D01*
X89435773Y34341837D01*
X89265934Y34393357D01*
X89109409Y34477022D01*
X89073671Y34506352D01*
X88972214Y34589614D01*
X88888952Y34691071D01*
X88859622Y34726809D01*
X88775957Y34883334D01*
X88724437Y35053173D01*
X88707041Y35229800D01*
X88724437Y35406427D01*
X88775957Y35576266D01*
X88859622Y35732791D01*
X88891144Y35771200D01*
X88972214Y35869986D01*
X89073671Y35953248D01*
X89109409Y35982578D01*
X89265934Y36066243D01*
X89435773Y36117763D01*
X89501958Y36124282D01*
X89568140Y36130800D01*
X89656660Y36130800D01*
X89722842Y36124282D01*
X89722842Y36124282D01*
G37*
G36*
X90513400Y36868800D02*
G01*
X88711400Y36868800D01*
X88711400Y38670800D01*
X90513400Y38670800D01*
X90513400Y36868800D01*
X90513400Y36868800D01*
G37*
G36*
X78546912Y40766273D02*
G01*
X78696212Y40736576D01*
X78860184Y40668656D01*
X79007754Y40570053D01*
X79133253Y40444554D01*
X79231856Y40296984D01*
X79299776Y40133012D01*
X79334400Y39958941D01*
X79334400Y39781459D01*
X79299776Y39607388D01*
X79231856Y39443416D01*
X79133253Y39295846D01*
X79007754Y39170347D01*
X78860184Y39071744D01*
X78696212Y39003824D01*
X78546912Y38974127D01*
X78522142Y38969200D01*
X78344658Y38969200D01*
X78319888Y38974127D01*
X78170588Y39003824D01*
X78006616Y39071744D01*
X77859046Y39170347D01*
X77733547Y39295846D01*
X77634944Y39443416D01*
X77567024Y39607388D01*
X77532400Y39781459D01*
X77532400Y39958941D01*
X77567024Y40133012D01*
X77634944Y40296984D01*
X77733547Y40444554D01*
X77859046Y40570053D01*
X78006616Y40668656D01*
X78170588Y40736576D01*
X78319888Y40766273D01*
X78344658Y40771200D01*
X78522142Y40771200D01*
X78546912Y40766273D01*
X78546912Y40766273D01*
G37*
G36*
X81181628Y45758497D02*
G01*
X81336500Y45694347D01*
X81475881Y45601215D01*
X81594415Y45482681D01*
X81687547Y45343300D01*
X81751697Y45188428D01*
X81784400Y45024016D01*
X81784400Y44856384D01*
X81751697Y44691972D01*
X81687547Y44537100D01*
X81594415Y44397719D01*
X81475881Y44279185D01*
X81336500Y44186053D01*
X81181628Y44121903D01*
X81017216Y44089200D01*
X80849584Y44089200D01*
X80685172Y44121903D01*
X80530300Y44186053D01*
X80390919Y44279185D01*
X80272385Y44397719D01*
X80179253Y44537100D01*
X80115103Y44691972D01*
X80082400Y44856384D01*
X80082400Y45024016D01*
X80115103Y45188428D01*
X80179253Y45343300D01*
X80272385Y45482681D01*
X80390919Y45601215D01*
X80530300Y45694347D01*
X80685172Y45758497D01*
X80849584Y45791200D01*
X81017216Y45791200D01*
X81181628Y45758497D01*
X81181628Y45758497D01*
G37*
G36*
X25998823Y45778887D02*
G01*
X26159242Y45730224D01*
X26226361Y45694348D01*
X26307078Y45651204D01*
X26436659Y45544859D01*
X26543004Y45415278D01*
X26543005Y45415276D01*
X26622024Y45267442D01*
X26670687Y45107023D01*
X26687117Y44940200D01*
X26670687Y44773377D01*
X26622024Y44612958D01*
X26581477Y44537100D01*
X26543004Y44465122D01*
X26436659Y44335541D01*
X26307078Y44229196D01*
X26307076Y44229195D01*
X26159242Y44150176D01*
X25998823Y44101513D01*
X25873804Y44089200D01*
X25790196Y44089200D01*
X25665177Y44101513D01*
X25504758Y44150176D01*
X25356924Y44229195D01*
X25356922Y44229196D01*
X25227341Y44335541D01*
X25120996Y44465122D01*
X25082523Y44537100D01*
X25041976Y44612958D01*
X24993313Y44773377D01*
X24976883Y44940200D01*
X24993313Y45107023D01*
X25041976Y45267442D01*
X25120995Y45415276D01*
X25120996Y45415278D01*
X25227341Y45544859D01*
X25356922Y45651204D01*
X25437639Y45694348D01*
X25504758Y45730224D01*
X25665177Y45778887D01*
X25790196Y45791200D01*
X25873804Y45791200D01*
X25998823Y45778887D01*
X25998823Y45778887D01*
G37*
G36*
X28538823Y45778887D02*
G01*
X28699242Y45730224D01*
X28766361Y45694348D01*
X28847078Y45651204D01*
X28976659Y45544859D01*
X29083004Y45415278D01*
X29083005Y45415276D01*
X29162024Y45267442D01*
X29210687Y45107023D01*
X29227117Y44940200D01*
X29210687Y44773377D01*
X29162024Y44612958D01*
X29121477Y44537100D01*
X29083004Y44465122D01*
X28976659Y44335541D01*
X28847078Y44229196D01*
X28847076Y44229195D01*
X28699242Y44150176D01*
X28538823Y44101513D01*
X28413804Y44089200D01*
X28330196Y44089200D01*
X28205177Y44101513D01*
X28044758Y44150176D01*
X27896924Y44229195D01*
X27896922Y44229196D01*
X27767341Y44335541D01*
X27660996Y44465122D01*
X27622523Y44537100D01*
X27581976Y44612958D01*
X27533313Y44773377D01*
X27516883Y44940200D01*
X27533313Y45107023D01*
X27581976Y45267442D01*
X27660995Y45415276D01*
X27660996Y45415278D01*
X27767341Y45544859D01*
X27896922Y45651204D01*
X27977639Y45694348D01*
X28044758Y45730224D01*
X28205177Y45778887D01*
X28330196Y45791200D01*
X28413804Y45791200D01*
X28538823Y45778887D01*
X28538823Y45778887D01*
G37*
G36*
X31078823Y45778887D02*
G01*
X31239242Y45730224D01*
X31306361Y45694348D01*
X31387078Y45651204D01*
X31516659Y45544859D01*
X31623004Y45415278D01*
X31623005Y45415276D01*
X31702024Y45267442D01*
X31750687Y45107023D01*
X31767117Y44940200D01*
X31750687Y44773377D01*
X31702024Y44612958D01*
X31661477Y44537100D01*
X31623004Y44465122D01*
X31516659Y44335541D01*
X31387078Y44229196D01*
X31387076Y44229195D01*
X31239242Y44150176D01*
X31078823Y44101513D01*
X30953804Y44089200D01*
X30870196Y44089200D01*
X30745177Y44101513D01*
X30584758Y44150176D01*
X30436924Y44229195D01*
X30436922Y44229196D01*
X30307341Y44335541D01*
X30200996Y44465122D01*
X30162523Y44537100D01*
X30121976Y44612958D01*
X30073313Y44773377D01*
X30056883Y44940200D01*
X30073313Y45107023D01*
X30121976Y45267442D01*
X30200995Y45415276D01*
X30200996Y45415278D01*
X30307341Y45544859D01*
X30436922Y45651204D01*
X30517639Y45694348D01*
X30584758Y45730224D01*
X30745177Y45778887D01*
X30870196Y45791200D01*
X30953804Y45791200D01*
X31078823Y45778887D01*
X31078823Y45778887D01*
G37*
G36*
X23458823Y45778887D02*
G01*
X23619242Y45730224D01*
X23686361Y45694348D01*
X23767078Y45651204D01*
X23896659Y45544859D01*
X24003004Y45415278D01*
X24003005Y45415276D01*
X24082024Y45267442D01*
X24130687Y45107023D01*
X24147117Y44940200D01*
X24130687Y44773377D01*
X24082024Y44612958D01*
X24041477Y44537100D01*
X24003004Y44465122D01*
X23896659Y44335541D01*
X23767078Y44229196D01*
X23767076Y44229195D01*
X23619242Y44150176D01*
X23458823Y44101513D01*
X23333804Y44089200D01*
X23250196Y44089200D01*
X23125177Y44101513D01*
X22964758Y44150176D01*
X22816924Y44229195D01*
X22816922Y44229196D01*
X22687341Y44335541D01*
X22580996Y44465122D01*
X22542523Y44537100D01*
X22501976Y44612958D01*
X22453313Y44773377D01*
X22436883Y44940200D01*
X22453313Y45107023D01*
X22501976Y45267442D01*
X22580995Y45415276D01*
X22580996Y45415278D01*
X22687341Y45544859D01*
X22816922Y45651204D01*
X22897639Y45694348D01*
X22964758Y45730224D01*
X23125177Y45778887D01*
X23250196Y45791200D01*
X23333804Y45791200D01*
X23458823Y45778887D01*
X23458823Y45778887D01*
G37*
G36*
X61558823Y45778887D02*
G01*
X61719242Y45730224D01*
X61786361Y45694348D01*
X61867078Y45651204D01*
X61996659Y45544859D01*
X62103004Y45415278D01*
X62103005Y45415276D01*
X62182024Y45267442D01*
X62230687Y45107023D01*
X62247117Y44940200D01*
X62230687Y44773377D01*
X62182024Y44612958D01*
X62141477Y44537100D01*
X62103004Y44465122D01*
X61996659Y44335541D01*
X61867078Y44229196D01*
X61867076Y44229195D01*
X61719242Y44150176D01*
X61558823Y44101513D01*
X61433804Y44089200D01*
X61350196Y44089200D01*
X61225177Y44101513D01*
X61064758Y44150176D01*
X60916924Y44229195D01*
X60916922Y44229196D01*
X60787341Y44335541D01*
X60680996Y44465122D01*
X60642523Y44537100D01*
X60601976Y44612958D01*
X60553313Y44773377D01*
X60536883Y44940200D01*
X60553313Y45107023D01*
X60601976Y45267442D01*
X60680995Y45415276D01*
X60680996Y45415278D01*
X60787341Y45544859D01*
X60916922Y45651204D01*
X60997639Y45694348D01*
X61064758Y45730224D01*
X61225177Y45778887D01*
X61350196Y45791200D01*
X61433804Y45791200D01*
X61558823Y45778887D01*
X61558823Y45778887D01*
G37*
G36*
X64098823Y45778887D02*
G01*
X64259242Y45730224D01*
X64326361Y45694348D01*
X64407078Y45651204D01*
X64536659Y45544859D01*
X64643004Y45415278D01*
X64643005Y45415276D01*
X64722024Y45267442D01*
X64770687Y45107023D01*
X64787117Y44940200D01*
X64770687Y44773377D01*
X64722024Y44612958D01*
X64681477Y44537100D01*
X64643004Y44465122D01*
X64536659Y44335541D01*
X64407078Y44229196D01*
X64407076Y44229195D01*
X64259242Y44150176D01*
X64098823Y44101513D01*
X63973804Y44089200D01*
X63890196Y44089200D01*
X63765177Y44101513D01*
X63604758Y44150176D01*
X63456924Y44229195D01*
X63456922Y44229196D01*
X63327341Y44335541D01*
X63220996Y44465122D01*
X63182523Y44537100D01*
X63141976Y44612958D01*
X63093313Y44773377D01*
X63076883Y44940200D01*
X63093313Y45107023D01*
X63141976Y45267442D01*
X63220995Y45415276D01*
X63220996Y45415278D01*
X63327341Y45544859D01*
X63456922Y45651204D01*
X63537639Y45694348D01*
X63604758Y45730224D01*
X63765177Y45778887D01*
X63890196Y45791200D01*
X63973804Y45791200D01*
X64098823Y45778887D01*
X64098823Y45778887D01*
G37*
G36*
X59018823Y45778887D02*
G01*
X59179242Y45730224D01*
X59246361Y45694348D01*
X59327078Y45651204D01*
X59456659Y45544859D01*
X59563004Y45415278D01*
X59563005Y45415276D01*
X59642024Y45267442D01*
X59690687Y45107023D01*
X59707117Y44940200D01*
X59690687Y44773377D01*
X59642024Y44612958D01*
X59601477Y44537100D01*
X59563004Y44465122D01*
X59456659Y44335541D01*
X59327078Y44229196D01*
X59327076Y44229195D01*
X59179242Y44150176D01*
X59018823Y44101513D01*
X58893804Y44089200D01*
X58810196Y44089200D01*
X58685177Y44101513D01*
X58524758Y44150176D01*
X58376924Y44229195D01*
X58376922Y44229196D01*
X58247341Y44335541D01*
X58140996Y44465122D01*
X58102523Y44537100D01*
X58061976Y44612958D01*
X58013313Y44773377D01*
X57996883Y44940200D01*
X58013313Y45107023D01*
X58061976Y45267442D01*
X58140995Y45415276D01*
X58140996Y45415278D01*
X58247341Y45544859D01*
X58376922Y45651204D01*
X58457639Y45694348D01*
X58524758Y45730224D01*
X58685177Y45778887D01*
X58810196Y45791200D01*
X58893804Y45791200D01*
X59018823Y45778887D01*
X59018823Y45778887D01*
G37*
G36*
X66638823Y45778887D02*
G01*
X66799242Y45730224D01*
X66866361Y45694348D01*
X66947078Y45651204D01*
X67076659Y45544859D01*
X67183004Y45415278D01*
X67183005Y45415276D01*
X67262024Y45267442D01*
X67310687Y45107023D01*
X67327117Y44940200D01*
X67310687Y44773377D01*
X67262024Y44612958D01*
X67221477Y44537100D01*
X67183004Y44465122D01*
X67076659Y44335541D01*
X66947078Y44229196D01*
X66947076Y44229195D01*
X66799242Y44150176D01*
X66638823Y44101513D01*
X66513804Y44089200D01*
X66430196Y44089200D01*
X66305177Y44101513D01*
X66144758Y44150176D01*
X65996924Y44229195D01*
X65996922Y44229196D01*
X65867341Y44335541D01*
X65760996Y44465122D01*
X65722523Y44537100D01*
X65681976Y44612958D01*
X65633313Y44773377D01*
X65616883Y44940200D01*
X65633313Y45107023D01*
X65681976Y45267442D01*
X65760995Y45415276D01*
X65760996Y45415278D01*
X65867341Y45544859D01*
X65996922Y45651204D01*
X66077639Y45694348D01*
X66144758Y45730224D01*
X66305177Y45778887D01*
X66430196Y45791200D01*
X66513804Y45791200D01*
X66638823Y45778887D01*
X66638823Y45778887D01*
G37*
G36*
X56478823Y45778887D02*
G01*
X56639242Y45730224D01*
X56706361Y45694348D01*
X56787078Y45651204D01*
X56916659Y45544859D01*
X57023004Y45415278D01*
X57023005Y45415276D01*
X57102024Y45267442D01*
X57150687Y45107023D01*
X57167117Y44940200D01*
X57150687Y44773377D01*
X57102024Y44612958D01*
X57061477Y44537100D01*
X57023004Y44465122D01*
X56916659Y44335541D01*
X56787078Y44229196D01*
X56787076Y44229195D01*
X56639242Y44150176D01*
X56478823Y44101513D01*
X56353804Y44089200D01*
X56270196Y44089200D01*
X56145177Y44101513D01*
X55984758Y44150176D01*
X55836924Y44229195D01*
X55836922Y44229196D01*
X55707341Y44335541D01*
X55600996Y44465122D01*
X55562523Y44537100D01*
X55521976Y44612958D01*
X55473313Y44773377D01*
X55456883Y44940200D01*
X55473313Y45107023D01*
X55521976Y45267442D01*
X55600995Y45415276D01*
X55600996Y45415278D01*
X55707341Y45544859D01*
X55836922Y45651204D01*
X55917639Y45694348D01*
X55984758Y45730224D01*
X56145177Y45778887D01*
X56270196Y45791200D01*
X56353804Y45791200D01*
X56478823Y45778887D01*
X56478823Y45778887D01*
G37*
G36*
X69178823Y45778887D02*
G01*
X69339242Y45730224D01*
X69406361Y45694348D01*
X69487078Y45651204D01*
X69616659Y45544859D01*
X69723004Y45415278D01*
X69723005Y45415276D01*
X69802024Y45267442D01*
X69850687Y45107023D01*
X69867117Y44940200D01*
X69850687Y44773377D01*
X69802024Y44612958D01*
X69761477Y44537100D01*
X69723004Y44465122D01*
X69616659Y44335541D01*
X69487078Y44229196D01*
X69487076Y44229195D01*
X69339242Y44150176D01*
X69178823Y44101513D01*
X69053804Y44089200D01*
X68970196Y44089200D01*
X68845177Y44101513D01*
X68684758Y44150176D01*
X68536924Y44229195D01*
X68536922Y44229196D01*
X68407341Y44335541D01*
X68300996Y44465122D01*
X68262523Y44537100D01*
X68221976Y44612958D01*
X68173313Y44773377D01*
X68156883Y44940200D01*
X68173313Y45107023D01*
X68221976Y45267442D01*
X68300995Y45415276D01*
X68300996Y45415278D01*
X68407341Y45544859D01*
X68536922Y45651204D01*
X68617639Y45694348D01*
X68684758Y45730224D01*
X68845177Y45778887D01*
X68970196Y45791200D01*
X69053804Y45791200D01*
X69178823Y45778887D01*
X69178823Y45778887D01*
G37*
G36*
X53938823Y45778887D02*
G01*
X54099242Y45730224D01*
X54166361Y45694348D01*
X54247078Y45651204D01*
X54376659Y45544859D01*
X54483004Y45415278D01*
X54483005Y45415276D01*
X54562024Y45267442D01*
X54610687Y45107023D01*
X54627117Y44940200D01*
X54610687Y44773377D01*
X54562024Y44612958D01*
X54521477Y44537100D01*
X54483004Y44465122D01*
X54376659Y44335541D01*
X54247078Y44229196D01*
X54247076Y44229195D01*
X54099242Y44150176D01*
X53938823Y44101513D01*
X53813804Y44089200D01*
X53730196Y44089200D01*
X53605177Y44101513D01*
X53444758Y44150176D01*
X53296924Y44229195D01*
X53296922Y44229196D01*
X53167341Y44335541D01*
X53060996Y44465122D01*
X53022523Y44537100D01*
X52981976Y44612958D01*
X52933313Y44773377D01*
X52916883Y44940200D01*
X52933313Y45107023D01*
X52981976Y45267442D01*
X53060995Y45415276D01*
X53060996Y45415278D01*
X53167341Y45544859D01*
X53296922Y45651204D01*
X53377639Y45694348D01*
X53444758Y45730224D01*
X53605177Y45778887D01*
X53730196Y45791200D01*
X53813804Y45791200D01*
X53938823Y45778887D01*
X53938823Y45778887D01*
G37*
G36*
X71718823Y45778887D02*
G01*
X71879242Y45730224D01*
X71946361Y45694348D01*
X72027078Y45651204D01*
X72156659Y45544859D01*
X72263004Y45415278D01*
X72263005Y45415276D01*
X72342024Y45267442D01*
X72390687Y45107023D01*
X72407117Y44940200D01*
X72390687Y44773377D01*
X72342024Y44612958D01*
X72301477Y44537100D01*
X72263004Y44465122D01*
X72156659Y44335541D01*
X72027078Y44229196D01*
X72027076Y44229195D01*
X71879242Y44150176D01*
X71718823Y44101513D01*
X71593804Y44089200D01*
X71510196Y44089200D01*
X71385177Y44101513D01*
X71224758Y44150176D01*
X71076924Y44229195D01*
X71076922Y44229196D01*
X70947341Y44335541D01*
X70840996Y44465122D01*
X70802523Y44537100D01*
X70761976Y44612958D01*
X70713313Y44773377D01*
X70696883Y44940200D01*
X70713313Y45107023D01*
X70761976Y45267442D01*
X70840995Y45415276D01*
X70840996Y45415278D01*
X70947341Y45544859D01*
X71076922Y45651204D01*
X71157639Y45694348D01*
X71224758Y45730224D01*
X71385177Y45778887D01*
X71510196Y45791200D01*
X71593804Y45791200D01*
X71718823Y45778887D01*
X71718823Y45778887D01*
G37*
G36*
X51398823Y45778887D02*
G01*
X51559242Y45730224D01*
X51626361Y45694348D01*
X51707078Y45651204D01*
X51836659Y45544859D01*
X51943004Y45415278D01*
X51943005Y45415276D01*
X52022024Y45267442D01*
X52070687Y45107023D01*
X52087117Y44940200D01*
X52070687Y44773377D01*
X52022024Y44612958D01*
X51981477Y44537100D01*
X51943004Y44465122D01*
X51836659Y44335541D01*
X51707078Y44229196D01*
X51707076Y44229195D01*
X51559242Y44150176D01*
X51398823Y44101513D01*
X51273804Y44089200D01*
X51190196Y44089200D01*
X51065177Y44101513D01*
X50904758Y44150176D01*
X50756924Y44229195D01*
X50756922Y44229196D01*
X50627341Y44335541D01*
X50520996Y44465122D01*
X50482523Y44537100D01*
X50441976Y44612958D01*
X50393313Y44773377D01*
X50376883Y44940200D01*
X50393313Y45107023D01*
X50441976Y45267442D01*
X50520995Y45415276D01*
X50520996Y45415278D01*
X50627341Y45544859D01*
X50756922Y45651204D01*
X50837639Y45694348D01*
X50904758Y45730224D01*
X51065177Y45778887D01*
X51190196Y45791200D01*
X51273804Y45791200D01*
X51398823Y45778887D01*
X51398823Y45778887D01*
G37*
G36*
X76181628Y45758497D02*
G01*
X76336500Y45694347D01*
X76475881Y45601215D01*
X76594415Y45482681D01*
X76687547Y45343300D01*
X76751697Y45188428D01*
X76784400Y45024016D01*
X76784400Y44856384D01*
X76751697Y44691972D01*
X76687547Y44537100D01*
X76594415Y44397719D01*
X76475881Y44279185D01*
X76336500Y44186053D01*
X76181628Y44121903D01*
X76017216Y44089200D01*
X75849584Y44089200D01*
X75685172Y44121903D01*
X75530300Y44186053D01*
X75390919Y44279185D01*
X75272385Y44397719D01*
X75179253Y44537100D01*
X75115103Y44691972D01*
X75082400Y44856384D01*
X75082400Y45024016D01*
X75115103Y45188428D01*
X75179253Y45343300D01*
X75272385Y45482681D01*
X75390919Y45601215D01*
X75530300Y45694347D01*
X75685172Y45758497D01*
X75849584Y45791200D01*
X76017216Y45791200D01*
X76181628Y45758497D01*
X76181628Y45758497D01*
G37*
G36*
X48858823Y45778887D02*
G01*
X49019242Y45730224D01*
X49086361Y45694348D01*
X49167078Y45651204D01*
X49296659Y45544859D01*
X49403004Y45415278D01*
X49403005Y45415276D01*
X49482024Y45267442D01*
X49530687Y45107023D01*
X49547117Y44940200D01*
X49530687Y44773377D01*
X49482024Y44612958D01*
X49441477Y44537100D01*
X49403004Y44465122D01*
X49296659Y44335541D01*
X49167078Y44229196D01*
X49167076Y44229195D01*
X49019242Y44150176D01*
X48858823Y44101513D01*
X48733804Y44089200D01*
X48650196Y44089200D01*
X48525177Y44101513D01*
X48364758Y44150176D01*
X48216924Y44229195D01*
X48216922Y44229196D01*
X48087341Y44335541D01*
X47980996Y44465122D01*
X47942523Y44537100D01*
X47901976Y44612958D01*
X47853313Y44773377D01*
X47836883Y44940200D01*
X47853313Y45107023D01*
X47901976Y45267442D01*
X47980995Y45415276D01*
X47980996Y45415278D01*
X48087341Y45544859D01*
X48216922Y45651204D01*
X48297639Y45694348D01*
X48364758Y45730224D01*
X48525177Y45778887D01*
X48650196Y45791200D01*
X48733804Y45791200D01*
X48858823Y45778887D01*
X48858823Y45778887D01*
G37*
G36*
X46318823Y45778887D02*
G01*
X46479242Y45730224D01*
X46546361Y45694348D01*
X46627078Y45651204D01*
X46756659Y45544859D01*
X46863004Y45415278D01*
X46863005Y45415276D01*
X46942024Y45267442D01*
X46990687Y45107023D01*
X47007117Y44940200D01*
X46990687Y44773377D01*
X46942024Y44612958D01*
X46901477Y44537100D01*
X46863004Y44465122D01*
X46756659Y44335541D01*
X46627078Y44229196D01*
X46627076Y44229195D01*
X46479242Y44150176D01*
X46318823Y44101513D01*
X46193804Y44089200D01*
X46110196Y44089200D01*
X45985177Y44101513D01*
X45824758Y44150176D01*
X45676924Y44229195D01*
X45676922Y44229196D01*
X45547341Y44335541D01*
X45440996Y44465122D01*
X45402523Y44537100D01*
X45361976Y44612958D01*
X45313313Y44773377D01*
X45296883Y44940200D01*
X45313313Y45107023D01*
X45361976Y45267442D01*
X45440995Y45415276D01*
X45440996Y45415278D01*
X45547341Y45544859D01*
X45676922Y45651204D01*
X45757639Y45694348D01*
X45824758Y45730224D01*
X45985177Y45778887D01*
X46110196Y45791200D01*
X46193804Y45791200D01*
X46318823Y45778887D01*
X46318823Y45778887D01*
G37*
G36*
X43778823Y45778887D02*
G01*
X43939242Y45730224D01*
X44006361Y45694348D01*
X44087078Y45651204D01*
X44216659Y45544859D01*
X44323004Y45415278D01*
X44323005Y45415276D01*
X44402024Y45267442D01*
X44450687Y45107023D01*
X44467117Y44940200D01*
X44450687Y44773377D01*
X44402024Y44612958D01*
X44361477Y44537100D01*
X44323004Y44465122D01*
X44216659Y44335541D01*
X44087078Y44229196D01*
X44087076Y44229195D01*
X43939242Y44150176D01*
X43778823Y44101513D01*
X43653804Y44089200D01*
X43570196Y44089200D01*
X43445177Y44101513D01*
X43284758Y44150176D01*
X43136924Y44229195D01*
X43136922Y44229196D01*
X43007341Y44335541D01*
X42900996Y44465122D01*
X42862523Y44537100D01*
X42821976Y44612958D01*
X42773313Y44773377D01*
X42756883Y44940200D01*
X42773313Y45107023D01*
X42821976Y45267442D01*
X42900995Y45415276D01*
X42900996Y45415278D01*
X43007341Y45544859D01*
X43136922Y45651204D01*
X43217639Y45694348D01*
X43284758Y45730224D01*
X43445177Y45778887D01*
X43570196Y45791200D01*
X43653804Y45791200D01*
X43778823Y45778887D01*
X43778823Y45778887D01*
G37*
G36*
X41238823Y45778887D02*
G01*
X41399242Y45730224D01*
X41466361Y45694348D01*
X41547078Y45651204D01*
X41676659Y45544859D01*
X41783004Y45415278D01*
X41783005Y45415276D01*
X41862024Y45267442D01*
X41910687Y45107023D01*
X41927117Y44940200D01*
X41910687Y44773377D01*
X41862024Y44612958D01*
X41821477Y44537100D01*
X41783004Y44465122D01*
X41676659Y44335541D01*
X41547078Y44229196D01*
X41547076Y44229195D01*
X41399242Y44150176D01*
X41238823Y44101513D01*
X41113804Y44089200D01*
X41030196Y44089200D01*
X40905177Y44101513D01*
X40744758Y44150176D01*
X40596924Y44229195D01*
X40596922Y44229196D01*
X40467341Y44335541D01*
X40360996Y44465122D01*
X40322523Y44537100D01*
X40281976Y44612958D01*
X40233313Y44773377D01*
X40216883Y44940200D01*
X40233313Y45107023D01*
X40281976Y45267442D01*
X40360995Y45415276D01*
X40360996Y45415278D01*
X40467341Y45544859D01*
X40596922Y45651204D01*
X40677639Y45694348D01*
X40744758Y45730224D01*
X40905177Y45778887D01*
X41030196Y45791200D01*
X41113804Y45791200D01*
X41238823Y45778887D01*
X41238823Y45778887D01*
G37*
G36*
X38698823Y45778887D02*
G01*
X38859242Y45730224D01*
X38926361Y45694348D01*
X39007078Y45651204D01*
X39136659Y45544859D01*
X39243004Y45415278D01*
X39243005Y45415276D01*
X39322024Y45267442D01*
X39370687Y45107023D01*
X39387117Y44940200D01*
X39370687Y44773377D01*
X39322024Y44612958D01*
X39281477Y44537100D01*
X39243004Y44465122D01*
X39136659Y44335541D01*
X39007078Y44229196D01*
X39007076Y44229195D01*
X38859242Y44150176D01*
X38698823Y44101513D01*
X38573804Y44089200D01*
X38490196Y44089200D01*
X38365177Y44101513D01*
X38204758Y44150176D01*
X38056924Y44229195D01*
X38056922Y44229196D01*
X37927341Y44335541D01*
X37820996Y44465122D01*
X37782523Y44537100D01*
X37741976Y44612958D01*
X37693313Y44773377D01*
X37676883Y44940200D01*
X37693313Y45107023D01*
X37741976Y45267442D01*
X37820995Y45415276D01*
X37820996Y45415278D01*
X37927341Y45544859D01*
X38056922Y45651204D01*
X38137639Y45694348D01*
X38204758Y45730224D01*
X38365177Y45778887D01*
X38490196Y45791200D01*
X38573804Y45791200D01*
X38698823Y45778887D01*
X38698823Y45778887D01*
G37*
G36*
X36158823Y45778887D02*
G01*
X36319242Y45730224D01*
X36386361Y45694348D01*
X36467078Y45651204D01*
X36596659Y45544859D01*
X36703004Y45415278D01*
X36703005Y45415276D01*
X36782024Y45267442D01*
X36830687Y45107023D01*
X36847117Y44940200D01*
X36830687Y44773377D01*
X36782024Y44612958D01*
X36741477Y44537100D01*
X36703004Y44465122D01*
X36596659Y44335541D01*
X36467078Y44229196D01*
X36467076Y44229195D01*
X36319242Y44150176D01*
X36158823Y44101513D01*
X36033804Y44089200D01*
X35950196Y44089200D01*
X35825177Y44101513D01*
X35664758Y44150176D01*
X35516924Y44229195D01*
X35516922Y44229196D01*
X35387341Y44335541D01*
X35280996Y44465122D01*
X35242523Y44537100D01*
X35201976Y44612958D01*
X35153313Y44773377D01*
X35136883Y44940200D01*
X35153313Y45107023D01*
X35201976Y45267442D01*
X35280995Y45415276D01*
X35280996Y45415278D01*
X35387341Y45544859D01*
X35516922Y45651204D01*
X35597639Y45694348D01*
X35664758Y45730224D01*
X35825177Y45778887D01*
X35950196Y45791200D01*
X36033804Y45791200D01*
X36158823Y45778887D01*
X36158823Y45778887D01*
G37*
G36*
X33618823Y45778887D02*
G01*
X33779242Y45730224D01*
X33846361Y45694348D01*
X33927078Y45651204D01*
X34056659Y45544859D01*
X34163004Y45415278D01*
X34163005Y45415276D01*
X34242024Y45267442D01*
X34290687Y45107023D01*
X34307117Y44940200D01*
X34290687Y44773377D01*
X34242024Y44612958D01*
X34201477Y44537100D01*
X34163004Y44465122D01*
X34056659Y44335541D01*
X33927078Y44229196D01*
X33927076Y44229195D01*
X33779242Y44150176D01*
X33618823Y44101513D01*
X33493804Y44089200D01*
X33410196Y44089200D01*
X33285177Y44101513D01*
X33124758Y44150176D01*
X32976924Y44229195D01*
X32976922Y44229196D01*
X32847341Y44335541D01*
X32740996Y44465122D01*
X32702523Y44537100D01*
X32661976Y44612958D01*
X32613313Y44773377D01*
X32596883Y44940200D01*
X32613313Y45107023D01*
X32661976Y45267442D01*
X32740995Y45415276D01*
X32740996Y45415278D01*
X32847341Y45544859D01*
X32976922Y45651204D01*
X33057639Y45694348D01*
X33124758Y45730224D01*
X33285177Y45778887D01*
X33410196Y45791200D01*
X33493804Y45791200D01*
X33618823Y45778887D01*
X33618823Y45778887D01*
G37*
G36*
X15190894Y47942167D02*
G01*
X15363295Y47889869D01*
X15522183Y47804942D01*
X15661449Y47690649D01*
X15775742Y47551383D01*
X15860669Y47392495D01*
X15912967Y47220094D01*
X15930625Y47040800D01*
X15912967Y46861506D01*
X15860669Y46689105D01*
X15775742Y46530217D01*
X15661449Y46390951D01*
X15522183Y46276658D01*
X15363295Y46191731D01*
X15190894Y46139433D01*
X15056531Y46126200D01*
X14966669Y46126200D01*
X14832306Y46139433D01*
X14659905Y46191731D01*
X14501017Y46276658D01*
X14361751Y46390951D01*
X14247458Y46530217D01*
X14162531Y46689105D01*
X14110233Y46861506D01*
X14092575Y47040800D01*
X14110233Y47220094D01*
X14162531Y47392495D01*
X14247458Y47551383D01*
X14361751Y47690649D01*
X14501017Y47804942D01*
X14659905Y47889869D01*
X14832306Y47942167D01*
X14966669Y47955400D01*
X15056531Y47955400D01*
X15190894Y47942167D01*
X15190894Y47942167D01*
G37*
G36*
X12650894Y47942167D02*
G01*
X12823295Y47889869D01*
X12982183Y47804942D01*
X13121449Y47690649D01*
X13235742Y47551383D01*
X13320669Y47392495D01*
X13372967Y47220094D01*
X13390625Y47040800D01*
X13372967Y46861506D01*
X13320669Y46689105D01*
X13235742Y46530217D01*
X13121449Y46390951D01*
X12982183Y46276658D01*
X12823295Y46191731D01*
X12650894Y46139433D01*
X12516531Y46126200D01*
X12426669Y46126200D01*
X12292306Y46139433D01*
X12119905Y46191731D01*
X11961017Y46276658D01*
X11821751Y46390951D01*
X11707458Y46530217D01*
X11622531Y46689105D01*
X11570233Y46861506D01*
X11552575Y47040800D01*
X11570233Y47220094D01*
X11622531Y47392495D01*
X11707458Y47551383D01*
X11821751Y47690649D01*
X11961017Y47804942D01*
X12119905Y47889869D01*
X12292306Y47942167D01*
X12426669Y47955400D01*
X12516531Y47955400D01*
X12650894Y47942167D01*
X12650894Y47942167D01*
G37*
G36*
X48940228Y49416097D02*
G01*
X49095100Y49351947D01*
X49234481Y49258815D01*
X49353015Y49140281D01*
X49446147Y49000900D01*
X49510297Y48846028D01*
X49543000Y48681616D01*
X49543000Y48513984D01*
X49510297Y48349572D01*
X49446147Y48194700D01*
X49353015Y48055319D01*
X49234481Y47936785D01*
X49095100Y47843653D01*
X48940228Y47779503D01*
X48775816Y47746800D01*
X48608184Y47746800D01*
X48443772Y47779503D01*
X48288900Y47843653D01*
X48149519Y47936785D01*
X48030985Y48055319D01*
X47937853Y48194700D01*
X47873703Y48349572D01*
X47841000Y48513984D01*
X47841000Y48681616D01*
X47873703Y48846028D01*
X47937853Y49000900D01*
X48030985Y49140281D01*
X48149519Y49258815D01*
X48288900Y49351947D01*
X48443772Y49416097D01*
X48608184Y49448800D01*
X48775816Y49448800D01*
X48940228Y49416097D01*
X48940228Y49416097D01*
G37*
G36*
X43860228Y49416097D02*
G01*
X44015100Y49351947D01*
X44154481Y49258815D01*
X44273015Y49140281D01*
X44366147Y49000900D01*
X44430297Y48846028D01*
X44463000Y48681616D01*
X44463000Y48513984D01*
X44430297Y48349572D01*
X44366147Y48194700D01*
X44273015Y48055319D01*
X44154481Y47936785D01*
X44015100Y47843653D01*
X43860228Y47779503D01*
X43695816Y47746800D01*
X43528184Y47746800D01*
X43363772Y47779503D01*
X43208900Y47843653D01*
X43069519Y47936785D01*
X42950985Y48055319D01*
X42857853Y48194700D01*
X42793703Y48349572D01*
X42761000Y48513984D01*
X42761000Y48681616D01*
X42793703Y48846028D01*
X42857853Y49000900D01*
X42950985Y49140281D01*
X43069519Y49258815D01*
X43208900Y49351947D01*
X43363772Y49416097D01*
X43528184Y49448800D01*
X43695816Y49448800D01*
X43860228Y49416097D01*
X43860228Y49416097D01*
G37*
G36*
X15190894Y50482167D02*
G01*
X15363295Y50429869D01*
X15522183Y50344942D01*
X15661449Y50230649D01*
X15775742Y50091383D01*
X15860669Y49932495D01*
X15912967Y49760094D01*
X15930625Y49580800D01*
X15912967Y49401506D01*
X15860669Y49229105D01*
X15775742Y49070217D01*
X15661449Y48930951D01*
X15522183Y48816658D01*
X15363295Y48731731D01*
X15190894Y48679433D01*
X15056531Y48666200D01*
X14966669Y48666200D01*
X14832306Y48679433D01*
X14659905Y48731731D01*
X14501017Y48816658D01*
X14361751Y48930951D01*
X14247458Y49070217D01*
X14162531Y49229105D01*
X14110233Y49401506D01*
X14092575Y49580800D01*
X14110233Y49760094D01*
X14162531Y49932495D01*
X14247458Y50091383D01*
X14361751Y50230649D01*
X14501017Y50344942D01*
X14659905Y50429869D01*
X14832306Y50482167D01*
X14966669Y50495400D01*
X15056531Y50495400D01*
X15190894Y50482167D01*
X15190894Y50482167D01*
G37*
G36*
X12650894Y50482167D02*
G01*
X12823295Y50429869D01*
X12982183Y50344942D01*
X13121449Y50230649D01*
X13235742Y50091383D01*
X13320669Y49932495D01*
X13372967Y49760094D01*
X13390625Y49580800D01*
X13372967Y49401506D01*
X13320669Y49229105D01*
X13235742Y49070217D01*
X13121449Y48930951D01*
X12982183Y48816658D01*
X12823295Y48731731D01*
X12650894Y48679433D01*
X12516531Y48666200D01*
X12426669Y48666200D01*
X12292306Y48679433D01*
X12119905Y48731731D01*
X11961017Y48816658D01*
X11821751Y48930951D01*
X11707458Y49070217D01*
X11622531Y49229105D01*
X11570233Y49401506D01*
X11552575Y49580800D01*
X11570233Y49760094D01*
X11622531Y49932495D01*
X11707458Y50091383D01*
X11821751Y50230649D01*
X11961017Y50344942D01*
X12119905Y50429869D01*
X12292306Y50482167D01*
X12426669Y50495400D01*
X12516531Y50495400D01*
X12650894Y50482167D01*
X12650894Y50482167D01*
G37*
G36*
X92862400Y49631600D02*
G01*
X89560400Y49631600D01*
X89560400Y52933600D01*
X92862400Y52933600D01*
X92862400Y49631600D01*
X92862400Y49631600D01*
G37*
G36*
X12650894Y53022167D02*
G01*
X12823295Y52969869D01*
X12982183Y52884942D01*
X13121449Y52770649D01*
X13235742Y52631383D01*
X13320669Y52472495D01*
X13372967Y52300094D01*
X13390625Y52120800D01*
X13372967Y51941506D01*
X13320669Y51769105D01*
X13235742Y51610217D01*
X13121449Y51470951D01*
X12982183Y51356658D01*
X12823295Y51271731D01*
X12650894Y51219433D01*
X12516531Y51206200D01*
X12426669Y51206200D01*
X12292306Y51219433D01*
X12119905Y51271731D01*
X11961017Y51356658D01*
X11821751Y51470951D01*
X11707458Y51610217D01*
X11622531Y51769105D01*
X11570233Y51941506D01*
X11552575Y52120800D01*
X11570233Y52300094D01*
X11622531Y52472495D01*
X11707458Y52631383D01*
X11821751Y52770649D01*
X11961017Y52884942D01*
X12119905Y52969869D01*
X12292306Y53022167D01*
X12426669Y53035400D01*
X12516531Y53035400D01*
X12650894Y53022167D01*
X12650894Y53022167D01*
G37*
G36*
X15190894Y53022167D02*
G01*
X15363295Y52969869D01*
X15522183Y52884942D01*
X15661449Y52770649D01*
X15775742Y52631383D01*
X15860669Y52472495D01*
X15912967Y52300094D01*
X15930625Y52120800D01*
X15912967Y51941506D01*
X15860669Y51769105D01*
X15775742Y51610217D01*
X15661449Y51470951D01*
X15522183Y51356658D01*
X15363295Y51271731D01*
X15190894Y51219433D01*
X15056531Y51206200D01*
X14966669Y51206200D01*
X14832306Y51219433D01*
X14659905Y51271731D01*
X14501017Y51356658D01*
X14361751Y51470951D01*
X14247458Y51610217D01*
X14162531Y51769105D01*
X14110233Y51941506D01*
X14092575Y52120800D01*
X14110233Y52300094D01*
X14162531Y52472495D01*
X14247458Y52631383D01*
X14361751Y52770649D01*
X14501017Y52884942D01*
X14659905Y52969869D01*
X14832306Y53022167D01*
X14966669Y53035400D01*
X15056531Y53035400D01*
X15190894Y53022167D01*
X15190894Y53022167D01*
G37*
G36*
X43860228Y54416097D02*
G01*
X44015100Y54351947D01*
X44154481Y54258815D01*
X44273015Y54140281D01*
X44366147Y54000900D01*
X44430297Y53846028D01*
X44463000Y53681616D01*
X44463000Y53513984D01*
X44430297Y53349572D01*
X44366147Y53194700D01*
X44273015Y53055319D01*
X44154481Y52936785D01*
X44015100Y52843653D01*
X43860228Y52779503D01*
X43695816Y52746800D01*
X43528184Y52746800D01*
X43363772Y52779503D01*
X43208900Y52843653D01*
X43069519Y52936785D01*
X42950985Y53055319D01*
X42857853Y53194700D01*
X42793703Y53349572D01*
X42761000Y53513984D01*
X42761000Y53681616D01*
X42793703Y53846028D01*
X42857853Y54000900D01*
X42950985Y54140281D01*
X43069519Y54258815D01*
X43208900Y54351947D01*
X43363772Y54416097D01*
X43528184Y54448800D01*
X43695816Y54448800D01*
X43860228Y54416097D01*
X43860228Y54416097D01*
G37*
G36*
X48940228Y54416097D02*
G01*
X49095100Y54351947D01*
X49234481Y54258815D01*
X49353015Y54140281D01*
X49446147Y54000900D01*
X49510297Y53846028D01*
X49543000Y53681616D01*
X49543000Y53513984D01*
X49510297Y53349572D01*
X49446147Y53194700D01*
X49353015Y53055319D01*
X49234481Y52936785D01*
X49095100Y52843653D01*
X48940228Y52779503D01*
X48775816Y52746800D01*
X48608184Y52746800D01*
X48443772Y52779503D01*
X48288900Y52843653D01*
X48149519Y52936785D01*
X48030985Y53055319D01*
X47937853Y53194700D01*
X47873703Y53349572D01*
X47841000Y53513984D01*
X47841000Y53681616D01*
X47873703Y53846028D01*
X47937853Y54000900D01*
X48030985Y54140281D01*
X48149519Y54258815D01*
X48288900Y54351947D01*
X48443772Y54416097D01*
X48608184Y54448800D01*
X48775816Y54448800D01*
X48940228Y54416097D01*
X48940228Y54416097D01*
G37*
G36*
X12650894Y55562167D02*
G01*
X12823295Y55509869D01*
X12982183Y55424942D01*
X13121449Y55310649D01*
X13235742Y55171383D01*
X13320669Y55012495D01*
X13372967Y54840094D01*
X13390625Y54660800D01*
X13372967Y54481506D01*
X13320669Y54309105D01*
X13235742Y54150217D01*
X13121449Y54010951D01*
X12982183Y53896658D01*
X12823295Y53811731D01*
X12650894Y53759433D01*
X12516531Y53746200D01*
X12426669Y53746200D01*
X12292306Y53759433D01*
X12119905Y53811731D01*
X11961017Y53896658D01*
X11821751Y54010951D01*
X11707458Y54150217D01*
X11622531Y54309105D01*
X11570233Y54481506D01*
X11552575Y54660800D01*
X11570233Y54840094D01*
X11622531Y55012495D01*
X11707458Y55171383D01*
X11821751Y55310649D01*
X11961017Y55424942D01*
X12119905Y55509869D01*
X12292306Y55562167D01*
X12426669Y55575400D01*
X12516531Y55575400D01*
X12650894Y55562167D01*
X12650894Y55562167D01*
G37*
G36*
X15190894Y55562167D02*
G01*
X15363295Y55509869D01*
X15522183Y55424942D01*
X15661449Y55310649D01*
X15775742Y55171383D01*
X15860669Y55012495D01*
X15912967Y54840094D01*
X15930625Y54660800D01*
X15912967Y54481506D01*
X15860669Y54309105D01*
X15775742Y54150217D01*
X15661449Y54010951D01*
X15522183Y53896658D01*
X15363295Y53811731D01*
X15190894Y53759433D01*
X15056531Y53746200D01*
X14966669Y53746200D01*
X14832306Y53759433D01*
X14659905Y53811731D01*
X14501017Y53896658D01*
X14361751Y54010951D01*
X14247458Y54150217D01*
X14162531Y54309105D01*
X14110233Y54481506D01*
X14092575Y54660800D01*
X14110233Y54840094D01*
X14162531Y55012495D01*
X14247458Y55171383D01*
X14361751Y55310649D01*
X14501017Y55424942D01*
X14659905Y55509869D01*
X14832306Y55562167D01*
X14966669Y55575400D01*
X15056531Y55575400D01*
X15190894Y55562167D01*
X15190894Y55562167D01*
G37*
G36*
X13386200Y56286200D02*
G01*
X11557000Y56286200D01*
X11557000Y58115400D01*
X13386200Y58115400D01*
X13386200Y56286200D01*
X13386200Y56286200D01*
G37*
G36*
X15190894Y58102167D02*
G01*
X15363295Y58049869D01*
X15522183Y57964942D01*
X15661449Y57850649D01*
X15775742Y57711383D01*
X15860669Y57552495D01*
X15912967Y57380094D01*
X15930625Y57200800D01*
X15912967Y57021506D01*
X15860669Y56849105D01*
X15775742Y56690217D01*
X15661449Y56550951D01*
X15522183Y56436658D01*
X15363295Y56351731D01*
X15190894Y56299433D01*
X15056531Y56286200D01*
X14966669Y56286200D01*
X14832306Y56299433D01*
X14659905Y56351731D01*
X14501017Y56436658D01*
X14361751Y56550951D01*
X14247458Y56690217D01*
X14162531Y56849105D01*
X14110233Y57021506D01*
X14092575Y57200800D01*
X14110233Y57380094D01*
X14162531Y57552495D01*
X14247458Y57711383D01*
X14361751Y57850649D01*
X14501017Y57964942D01*
X14659905Y58049869D01*
X14832306Y58102167D01*
X14966669Y58115400D01*
X15056531Y58115400D01*
X15190894Y58102167D01*
X15190894Y58102167D01*
G37*
G36*
X91535051Y68149712D02*
G01*
X91846270Y68055304D01*
X92133080Y67902001D01*
X92133083Y67901999D01*
X92133084Y67901998D01*
X92384482Y67695682D01*
X92590798Y67444284D01*
X92590801Y67444280D01*
X92744104Y67157470D01*
X92838512Y66846251D01*
X92870388Y66522600D01*
X92838512Y66198949D01*
X92744104Y65887730D01*
X92590801Y65600920D01*
X92590799Y65600917D01*
X92590798Y65600916D01*
X92384482Y65349518D01*
X92133084Y65143202D01*
X92133080Y65143199D01*
X91846270Y64989896D01*
X91535051Y64895488D01*
X91292507Y64871600D01*
X91130293Y64871600D01*
X90887749Y64895488D01*
X90576530Y64989896D01*
X90289720Y65143199D01*
X90289716Y65143202D01*
X90038318Y65349518D01*
X89832002Y65600916D01*
X89832001Y65600917D01*
X89831999Y65600920D01*
X89678696Y65887730D01*
X89584288Y66198949D01*
X89552412Y66522600D01*
X89584288Y66846251D01*
X89678696Y67157470D01*
X89831999Y67444280D01*
X89832002Y67444284D01*
X90038318Y67695682D01*
X90289716Y67901998D01*
X90289717Y67901999D01*
X90289720Y67902001D01*
X90576530Y68055304D01*
X90887749Y68149712D01*
X91130293Y68173600D01*
X91292507Y68173600D01*
X91535051Y68149712D01*
X91535051Y68149712D01*
G37*
G36*
X51456843Y75973881D02*
G01*
X51523027Y75967363D01*
X51692866Y75915843D01*
X51849391Y75832178D01*
X51885129Y75802848D01*
X51986586Y75719586D01*
X52069848Y75618129D01*
X52099178Y75582391D01*
X52182843Y75425866D01*
X52234363Y75256027D01*
X52251759Y75079400D01*
X52234363Y74902773D01*
X52182843Y74732934D01*
X52099178Y74576409D01*
X52069848Y74540671D01*
X51986586Y74439214D01*
X51910316Y74376622D01*
X51849391Y74326622D01*
X51692866Y74242957D01*
X51523027Y74191437D01*
X51456843Y74184919D01*
X51390660Y74178400D01*
X51302140Y74178400D01*
X51235958Y74184918D01*
X51169773Y74191437D01*
X50999934Y74242957D01*
X50843409Y74326622D01*
X50782484Y74376622D01*
X50706214Y74439214D01*
X50622952Y74540671D01*
X50593622Y74576409D01*
X50509957Y74732934D01*
X50458437Y74902773D01*
X50441041Y75079400D01*
X50458437Y75256027D01*
X50509957Y75425866D01*
X50593622Y75582391D01*
X50622952Y75618129D01*
X50706214Y75719586D01*
X50807671Y75802848D01*
X50843409Y75832178D01*
X50999934Y75915843D01*
X51169773Y75967363D01*
X51235957Y75973881D01*
X51302140Y75980400D01*
X51390660Y75980400D01*
X51456843Y75973881D01*
X51456843Y75973881D01*
G37*
G36*
X64156843Y75973881D02*
G01*
X64223027Y75967363D01*
X64392866Y75915843D01*
X64549391Y75832178D01*
X64585129Y75802848D01*
X64686586Y75719586D01*
X64769848Y75618129D01*
X64799178Y75582391D01*
X64882843Y75425866D01*
X64934363Y75256027D01*
X64951759Y75079400D01*
X64934363Y74902773D01*
X64882843Y74732934D01*
X64799178Y74576409D01*
X64769848Y74540671D01*
X64686586Y74439214D01*
X64610316Y74376622D01*
X64549391Y74326622D01*
X64392866Y74242957D01*
X64223027Y74191437D01*
X64156843Y74184919D01*
X64090660Y74178400D01*
X64002140Y74178400D01*
X63935958Y74184918D01*
X63869773Y74191437D01*
X63699934Y74242957D01*
X63543409Y74326622D01*
X63482484Y74376622D01*
X63406214Y74439214D01*
X63322952Y74540671D01*
X63293622Y74576409D01*
X63209957Y74732934D01*
X63158437Y74902773D01*
X63141041Y75079400D01*
X63158437Y75256027D01*
X63209957Y75425866D01*
X63293622Y75582391D01*
X63322952Y75618129D01*
X63406214Y75719586D01*
X63507671Y75802848D01*
X63543409Y75832178D01*
X63699934Y75915843D01*
X63869773Y75967363D01*
X63935957Y75973881D01*
X64002140Y75980400D01*
X64090660Y75980400D01*
X64156843Y75973881D01*
X64156843Y75973881D01*
G37*
G36*
X53996843Y75973881D02*
G01*
X54063027Y75967363D01*
X54232866Y75915843D01*
X54389391Y75832178D01*
X54425129Y75802848D01*
X54526586Y75719586D01*
X54609848Y75618129D01*
X54639178Y75582391D01*
X54722843Y75425866D01*
X54774363Y75256027D01*
X54791759Y75079400D01*
X54774363Y74902773D01*
X54722843Y74732934D01*
X54639178Y74576409D01*
X54609848Y74540671D01*
X54526586Y74439214D01*
X54450316Y74376622D01*
X54389391Y74326622D01*
X54232866Y74242957D01*
X54063027Y74191437D01*
X53996843Y74184919D01*
X53930660Y74178400D01*
X53842140Y74178400D01*
X53775958Y74184918D01*
X53709773Y74191437D01*
X53539934Y74242957D01*
X53383409Y74326622D01*
X53322484Y74376622D01*
X53246214Y74439214D01*
X53162952Y74540671D01*
X53133622Y74576409D01*
X53049957Y74732934D01*
X52998437Y74902773D01*
X52981041Y75079400D01*
X52998437Y75256027D01*
X53049957Y75425866D01*
X53133622Y75582391D01*
X53162952Y75618129D01*
X53246214Y75719586D01*
X53347671Y75802848D01*
X53383409Y75832178D01*
X53539934Y75915843D01*
X53709773Y75967363D01*
X53775957Y75973881D01*
X53842140Y75980400D01*
X53930660Y75980400D01*
X53996843Y75973881D01*
X53996843Y75973881D01*
G37*
G36*
X56536843Y75973881D02*
G01*
X56603027Y75967363D01*
X56772866Y75915843D01*
X56929391Y75832178D01*
X56965129Y75802848D01*
X57066586Y75719586D01*
X57149848Y75618129D01*
X57179178Y75582391D01*
X57262843Y75425866D01*
X57314363Y75256027D01*
X57331759Y75079400D01*
X57314363Y74902773D01*
X57262843Y74732934D01*
X57179178Y74576409D01*
X57149848Y74540671D01*
X57066586Y74439214D01*
X56990316Y74376622D01*
X56929391Y74326622D01*
X56772866Y74242957D01*
X56603027Y74191437D01*
X56536843Y74184919D01*
X56470660Y74178400D01*
X56382140Y74178400D01*
X56315958Y74184918D01*
X56249773Y74191437D01*
X56079934Y74242957D01*
X55923409Y74326622D01*
X55862484Y74376622D01*
X55786214Y74439214D01*
X55702952Y74540671D01*
X55673622Y74576409D01*
X55589957Y74732934D01*
X55538437Y74902773D01*
X55521041Y75079400D01*
X55538437Y75256027D01*
X55589957Y75425866D01*
X55673622Y75582391D01*
X55702952Y75618129D01*
X55786214Y75719586D01*
X55887671Y75802848D01*
X55923409Y75832178D01*
X56079934Y75915843D01*
X56249773Y75967363D01*
X56315957Y75973881D01*
X56382140Y75980400D01*
X56470660Y75980400D01*
X56536843Y75973881D01*
X56536843Y75973881D01*
G37*
G36*
X59076843Y75973881D02*
G01*
X59143027Y75967363D01*
X59312866Y75915843D01*
X59469391Y75832178D01*
X59505129Y75802848D01*
X59606586Y75719586D01*
X59689848Y75618129D01*
X59719178Y75582391D01*
X59802843Y75425866D01*
X59854363Y75256027D01*
X59871759Y75079400D01*
X59854363Y74902773D01*
X59802843Y74732934D01*
X59719178Y74576409D01*
X59689848Y74540671D01*
X59606586Y74439214D01*
X59530316Y74376622D01*
X59469391Y74326622D01*
X59312866Y74242957D01*
X59143027Y74191437D01*
X59076843Y74184919D01*
X59010660Y74178400D01*
X58922140Y74178400D01*
X58855958Y74184918D01*
X58789773Y74191437D01*
X58619934Y74242957D01*
X58463409Y74326622D01*
X58402484Y74376622D01*
X58326214Y74439214D01*
X58242952Y74540671D01*
X58213622Y74576409D01*
X58129957Y74732934D01*
X58078437Y74902773D01*
X58061041Y75079400D01*
X58078437Y75256027D01*
X58129957Y75425866D01*
X58213622Y75582391D01*
X58242952Y75618129D01*
X58326214Y75719586D01*
X58427671Y75802848D01*
X58463409Y75832178D01*
X58619934Y75915843D01*
X58789773Y75967363D01*
X58855957Y75973881D01*
X58922140Y75980400D01*
X59010660Y75980400D01*
X59076843Y75973881D01*
X59076843Y75973881D01*
G37*
G36*
X61616843Y75973881D02*
G01*
X61683027Y75967363D01*
X61852866Y75915843D01*
X62009391Y75832178D01*
X62045129Y75802848D01*
X62146586Y75719586D01*
X62229848Y75618129D01*
X62259178Y75582391D01*
X62342843Y75425866D01*
X62394363Y75256027D01*
X62411759Y75079400D01*
X62394363Y74902773D01*
X62342843Y74732934D01*
X62259178Y74576409D01*
X62229848Y74540671D01*
X62146586Y74439214D01*
X62070316Y74376622D01*
X62009391Y74326622D01*
X61852866Y74242957D01*
X61683027Y74191437D01*
X61616843Y74184919D01*
X61550660Y74178400D01*
X61462140Y74178400D01*
X61395958Y74184918D01*
X61329773Y74191437D01*
X61159934Y74242957D01*
X61003409Y74326622D01*
X60942484Y74376622D01*
X60866214Y74439214D01*
X60782952Y74540671D01*
X60753622Y74576409D01*
X60669957Y74732934D01*
X60618437Y74902773D01*
X60601041Y75079400D01*
X60618437Y75256027D01*
X60669957Y75425866D01*
X60753622Y75582391D01*
X60782952Y75618129D01*
X60866214Y75719586D01*
X60967671Y75802848D01*
X61003409Y75832178D01*
X61159934Y75915843D01*
X61329773Y75967363D01*
X61395957Y75973881D01*
X61462140Y75980400D01*
X61550660Y75980400D01*
X61616843Y75973881D01*
X61616843Y75973881D01*
G37*
G36*
X70027400Y74178400D02*
G01*
X68225400Y74178400D01*
X68225400Y75980400D01*
X70027400Y75980400D01*
X70027400Y74178400D01*
X70027400Y74178400D01*
G37*
G36*
X66696843Y75973881D02*
G01*
X66763027Y75967363D01*
X66932866Y75915843D01*
X67089391Y75832178D01*
X67125129Y75802848D01*
X67226586Y75719586D01*
X67309848Y75618129D01*
X67339178Y75582391D01*
X67422843Y75425866D01*
X67474363Y75256027D01*
X67491759Y75079400D01*
X67474363Y74902773D01*
X67422843Y74732934D01*
X67339178Y74576409D01*
X67309848Y74540671D01*
X67226586Y74439214D01*
X67150316Y74376622D01*
X67089391Y74326622D01*
X66932866Y74242957D01*
X66763027Y74191437D01*
X66696843Y74184919D01*
X66630660Y74178400D01*
X66542140Y74178400D01*
X66475958Y74184918D01*
X66409773Y74191437D01*
X66239934Y74242957D01*
X66083409Y74326622D01*
X66022484Y74376622D01*
X65946214Y74439214D01*
X65862952Y74540671D01*
X65833622Y74576409D01*
X65749957Y74732934D01*
X65698437Y74902773D01*
X65681041Y75079400D01*
X65698437Y75256027D01*
X65749957Y75425866D01*
X65833622Y75582391D01*
X65862952Y75618129D01*
X65946214Y75719586D01*
X66047671Y75802848D01*
X66083409Y75832178D01*
X66239934Y75915843D01*
X66409773Y75967363D01*
X66475957Y75973881D01*
X66542140Y75980400D01*
X66630660Y75980400D01*
X66696843Y75973881D01*
X66696843Y75973881D01*
G37*
G36*
X24193000Y74228400D02*
G01*
X22391000Y74228400D01*
X22391000Y76030400D01*
X24193000Y76030400D01*
X24193000Y74228400D01*
X24193000Y74228400D01*
G37*
G36*
X41182442Y76023882D02*
G01*
X41248627Y76017363D01*
X41418466Y75965843D01*
X41574991Y75882178D01*
X41610729Y75852848D01*
X41712186Y75769586D01*
X41795448Y75668129D01*
X41824778Y75632391D01*
X41908443Y75475866D01*
X41959963Y75306027D01*
X41977359Y75129400D01*
X41959963Y74952773D01*
X41908443Y74782934D01*
X41824778Y74626409D01*
X41795448Y74590671D01*
X41712186Y74489214D01*
X41610729Y74405952D01*
X41574991Y74376622D01*
X41418466Y74292957D01*
X41248627Y74241437D01*
X41182442Y74234918D01*
X41116260Y74228400D01*
X41027740Y74228400D01*
X40961558Y74234918D01*
X40895373Y74241437D01*
X40725534Y74292957D01*
X40569009Y74376622D01*
X40533271Y74405952D01*
X40431814Y74489214D01*
X40348552Y74590671D01*
X40319222Y74626409D01*
X40235557Y74782934D01*
X40184037Y74952773D01*
X40166641Y75129400D01*
X40184037Y75306027D01*
X40235557Y75475866D01*
X40319222Y75632391D01*
X40348552Y75668129D01*
X40431814Y75769586D01*
X40533271Y75852848D01*
X40569009Y75882178D01*
X40725534Y75965843D01*
X40895373Y76017363D01*
X40961558Y76023882D01*
X41027740Y76030400D01*
X41116260Y76030400D01*
X41182442Y76023882D01*
X41182442Y76023882D01*
G37*
G36*
X38642442Y76023882D02*
G01*
X38708627Y76017363D01*
X38878466Y75965843D01*
X39034991Y75882178D01*
X39070729Y75852848D01*
X39172186Y75769586D01*
X39255448Y75668129D01*
X39284778Y75632391D01*
X39368443Y75475866D01*
X39419963Y75306027D01*
X39437359Y75129400D01*
X39419963Y74952773D01*
X39368443Y74782934D01*
X39284778Y74626409D01*
X39255448Y74590671D01*
X39172186Y74489214D01*
X39070729Y74405952D01*
X39034991Y74376622D01*
X38878466Y74292957D01*
X38708627Y74241437D01*
X38642442Y74234918D01*
X38576260Y74228400D01*
X38487740Y74228400D01*
X38421558Y74234918D01*
X38355373Y74241437D01*
X38185534Y74292957D01*
X38029009Y74376622D01*
X37993271Y74405952D01*
X37891814Y74489214D01*
X37808552Y74590671D01*
X37779222Y74626409D01*
X37695557Y74782934D01*
X37644037Y74952773D01*
X37626641Y75129400D01*
X37644037Y75306027D01*
X37695557Y75475866D01*
X37779222Y75632391D01*
X37808552Y75668129D01*
X37891814Y75769586D01*
X37993271Y75852848D01*
X38029009Y75882178D01*
X38185534Y75965843D01*
X38355373Y76017363D01*
X38421558Y76023882D01*
X38487740Y76030400D01*
X38576260Y76030400D01*
X38642442Y76023882D01*
X38642442Y76023882D01*
G37*
G36*
X36102442Y76023882D02*
G01*
X36168627Y76017363D01*
X36338466Y75965843D01*
X36494991Y75882178D01*
X36530729Y75852848D01*
X36632186Y75769586D01*
X36715448Y75668129D01*
X36744778Y75632391D01*
X36828443Y75475866D01*
X36879963Y75306027D01*
X36897359Y75129400D01*
X36879963Y74952773D01*
X36828443Y74782934D01*
X36744778Y74626409D01*
X36715448Y74590671D01*
X36632186Y74489214D01*
X36530729Y74405952D01*
X36494991Y74376622D01*
X36338466Y74292957D01*
X36168627Y74241437D01*
X36102442Y74234918D01*
X36036260Y74228400D01*
X35947740Y74228400D01*
X35881558Y74234918D01*
X35815373Y74241437D01*
X35645534Y74292957D01*
X35489009Y74376622D01*
X35453271Y74405952D01*
X35351814Y74489214D01*
X35268552Y74590671D01*
X35239222Y74626409D01*
X35155557Y74782934D01*
X35104037Y74952773D01*
X35086641Y75129400D01*
X35104037Y75306027D01*
X35155557Y75475866D01*
X35239222Y75632391D01*
X35268552Y75668129D01*
X35351814Y75769586D01*
X35453271Y75852848D01*
X35489009Y75882178D01*
X35645534Y75965843D01*
X35815373Y76017363D01*
X35881558Y76023882D01*
X35947740Y76030400D01*
X36036260Y76030400D01*
X36102442Y76023882D01*
X36102442Y76023882D01*
G37*
G36*
X33562442Y76023882D02*
G01*
X33628627Y76017363D01*
X33798466Y75965843D01*
X33954991Y75882178D01*
X33990729Y75852848D01*
X34092186Y75769586D01*
X34175448Y75668129D01*
X34204778Y75632391D01*
X34288443Y75475866D01*
X34339963Y75306027D01*
X34357359Y75129400D01*
X34339963Y74952773D01*
X34288443Y74782934D01*
X34204778Y74626409D01*
X34175448Y74590671D01*
X34092186Y74489214D01*
X33990729Y74405952D01*
X33954991Y74376622D01*
X33798466Y74292957D01*
X33628627Y74241437D01*
X33562442Y74234918D01*
X33496260Y74228400D01*
X33407740Y74228400D01*
X33341558Y74234918D01*
X33275373Y74241437D01*
X33105534Y74292957D01*
X32949009Y74376622D01*
X32913271Y74405952D01*
X32811814Y74489214D01*
X32728552Y74590671D01*
X32699222Y74626409D01*
X32615557Y74782934D01*
X32564037Y74952773D01*
X32546641Y75129400D01*
X32564037Y75306027D01*
X32615557Y75475866D01*
X32699222Y75632391D01*
X32728552Y75668129D01*
X32811814Y75769586D01*
X32913271Y75852848D01*
X32949009Y75882178D01*
X33105534Y75965843D01*
X33275373Y76017363D01*
X33341558Y76023882D01*
X33407740Y76030400D01*
X33496260Y76030400D01*
X33562442Y76023882D01*
X33562442Y76023882D01*
G37*
G36*
X31022442Y76023882D02*
G01*
X31088627Y76017363D01*
X31258466Y75965843D01*
X31414991Y75882178D01*
X31450729Y75852848D01*
X31552186Y75769586D01*
X31635448Y75668129D01*
X31664778Y75632391D01*
X31748443Y75475866D01*
X31799963Y75306027D01*
X31817359Y75129400D01*
X31799963Y74952773D01*
X31748443Y74782934D01*
X31664778Y74626409D01*
X31635448Y74590671D01*
X31552186Y74489214D01*
X31450729Y74405952D01*
X31414991Y74376622D01*
X31258466Y74292957D01*
X31088627Y74241437D01*
X31022442Y74234918D01*
X30956260Y74228400D01*
X30867740Y74228400D01*
X30801558Y74234918D01*
X30735373Y74241437D01*
X30565534Y74292957D01*
X30409009Y74376622D01*
X30373271Y74405952D01*
X30271814Y74489214D01*
X30188552Y74590671D01*
X30159222Y74626409D01*
X30075557Y74782934D01*
X30024037Y74952773D01*
X30006641Y75129400D01*
X30024037Y75306027D01*
X30075557Y75475866D01*
X30159222Y75632391D01*
X30188552Y75668129D01*
X30271814Y75769586D01*
X30373271Y75852848D01*
X30409009Y75882178D01*
X30565534Y75965843D01*
X30735373Y76017363D01*
X30801558Y76023882D01*
X30867740Y76030400D01*
X30956260Y76030400D01*
X31022442Y76023882D01*
X31022442Y76023882D01*
G37*
G36*
X28482442Y76023882D02*
G01*
X28548627Y76017363D01*
X28718466Y75965843D01*
X28874991Y75882178D01*
X28910729Y75852848D01*
X29012186Y75769586D01*
X29095448Y75668129D01*
X29124778Y75632391D01*
X29208443Y75475866D01*
X29259963Y75306027D01*
X29277359Y75129400D01*
X29259963Y74952773D01*
X29208443Y74782934D01*
X29124778Y74626409D01*
X29095448Y74590671D01*
X29012186Y74489214D01*
X28910729Y74405952D01*
X28874991Y74376622D01*
X28718466Y74292957D01*
X28548627Y74241437D01*
X28482442Y74234918D01*
X28416260Y74228400D01*
X28327740Y74228400D01*
X28261558Y74234918D01*
X28195373Y74241437D01*
X28025534Y74292957D01*
X27869009Y74376622D01*
X27833271Y74405952D01*
X27731814Y74489214D01*
X27648552Y74590671D01*
X27619222Y74626409D01*
X27535557Y74782934D01*
X27484037Y74952773D01*
X27466641Y75129400D01*
X27484037Y75306027D01*
X27535557Y75475866D01*
X27619222Y75632391D01*
X27648552Y75668129D01*
X27731814Y75769586D01*
X27833271Y75852848D01*
X27869009Y75882178D01*
X28025534Y75965843D01*
X28195373Y76017363D01*
X28261558Y76023882D01*
X28327740Y76030400D01*
X28416260Y76030400D01*
X28482442Y76023882D01*
X28482442Y76023882D01*
G37*
G36*
X25942442Y76023882D02*
G01*
X26008627Y76017363D01*
X26178466Y75965843D01*
X26334991Y75882178D01*
X26370729Y75852848D01*
X26472186Y75769586D01*
X26555448Y75668129D01*
X26584778Y75632391D01*
X26668443Y75475866D01*
X26719963Y75306027D01*
X26737359Y75129400D01*
X26719963Y74952773D01*
X26668443Y74782934D01*
X26584778Y74626409D01*
X26555448Y74590671D01*
X26472186Y74489214D01*
X26370729Y74405952D01*
X26334991Y74376622D01*
X26178466Y74292957D01*
X26008627Y74241437D01*
X25942442Y74234918D01*
X25876260Y74228400D01*
X25787740Y74228400D01*
X25721558Y74234918D01*
X25655373Y74241437D01*
X25485534Y74292957D01*
X25329009Y74376622D01*
X25293271Y74405952D01*
X25191814Y74489214D01*
X25108552Y74590671D01*
X25079222Y74626409D01*
X24995557Y74782934D01*
X24944037Y74952773D01*
X24926641Y75129400D01*
X24944037Y75306027D01*
X24995557Y75475866D01*
X25079222Y75632391D01*
X25108552Y75668129D01*
X25191814Y75769586D01*
X25293271Y75852848D01*
X25329009Y75882178D01*
X25485534Y75965843D01*
X25655373Y76017363D01*
X25721558Y76023882D01*
X25787740Y76030400D01*
X25876260Y76030400D01*
X25942442Y76023882D01*
X25942442Y76023882D01*
G37*
M02*
