G04 #@! TF.GenerationSoftware,KiCad,Pcbnew,5.1.4-3.fc30*
G04 #@! TF.CreationDate,2019-09-19T02:51:47+02:00*
G04 #@! TF.ProjectId,avr_dev_board_atmega16,6176725f-6465-4765-9f62-6f6172645f61,1_0*
G04 #@! TF.SameCoordinates,Original*
G04 #@! TF.FileFunction,Other,Fab,Top*
%FSLAX46Y46*%
G04 Gerber Fmt 4.6, Leading zero omitted, Abs format (unit mm)*
G04 Created by KiCad (PCBNEW 5.1.4-3.fc30) date 2019-09-19 02:51:47*
%MOMM*%
%LPD*%
G04 APERTURE LIST*
%ADD10C,0.100000*%
%ADD11C,0.150000*%
%ADD12C,0.141000*%
%ADD13C,0.129000*%
G04 APERTURE END LIST*
D10*
X120116000Y-87164600D02*
G75*
G03X117116000Y-87164600I-1500000J0D01*
G01*
X120116000Y-90164600D02*
G75*
G02X117116000Y-90164600I-1500000J0D01*
G01*
X120116000Y-87164600D02*
G75*
G03X117116000Y-87164600I-1500000J0D01*
G01*
X120116000Y-90164600D02*
G75*
G02X117116000Y-90164600I-1500000J0D01*
G01*
X120116000Y-90164600D02*
X120116000Y-87164600D01*
X117116000Y-90164600D02*
X117116000Y-87164600D01*
X120116000Y-90164600D02*
X120116000Y-87164600D01*
X117116000Y-90164600D02*
X117116000Y-87164600D01*
X120966000Y-79844600D02*
X116266000Y-79844600D01*
X120966000Y-82344600D02*
X120966000Y-79844600D01*
X116266000Y-82344600D02*
X120966000Y-82344600D01*
X116266000Y-79844600D02*
X116266000Y-82344600D01*
X120966000Y-95084600D02*
X116266000Y-95084600D01*
X120966000Y-97584600D02*
X120966000Y-95084600D01*
X116266000Y-97584600D02*
X120966000Y-97584600D01*
X116266000Y-95084600D02*
X116266000Y-97584600D01*
X49499200Y-84094000D02*
X50049200Y-83534000D01*
X49499200Y-63734000D02*
X50049200Y-64274000D01*
X58349200Y-84094000D02*
X57799200Y-83534000D01*
X58349200Y-63734000D02*
X57799200Y-64274000D01*
X57799200Y-83534000D02*
X50049200Y-83534000D01*
X58349200Y-84094000D02*
X49499200Y-84094000D01*
X57799200Y-64274000D02*
X50049200Y-64274000D01*
X58349200Y-63734000D02*
X49499200Y-63734000D01*
X50049200Y-76164000D02*
X49499200Y-76164000D01*
X50049200Y-71664000D02*
X49499200Y-71664000D01*
X50049200Y-76164000D02*
X50049200Y-83534000D01*
X50049200Y-64274000D02*
X50049200Y-71664000D01*
X49499200Y-63734000D02*
X49499200Y-84094000D01*
X57799200Y-64274000D02*
X57799200Y-83534000D01*
X58349200Y-63734000D02*
X58349200Y-84094000D01*
X120739000Y-123345000D02*
X115659000Y-123345000D01*
X120739000Y-120805000D02*
X120739000Y-123345000D01*
X116294000Y-120805000D02*
X120739000Y-120805000D01*
X115659000Y-121440000D02*
X116294000Y-120805000D01*
X115659000Y-123345000D02*
X115659000Y-121440000D01*
X128525000Y-87630000D02*
X129160000Y-86995000D01*
X128525000Y-92075000D02*
X128525000Y-87630000D01*
X131065000Y-92075000D02*
X128525000Y-92075000D01*
X131065000Y-86995000D02*
X131065000Y-92075000D01*
X129160000Y-86995000D02*
X131065000Y-86995000D01*
X110478900Y-123345000D02*
X90158900Y-123345000D01*
X110478900Y-120805000D02*
X110478900Y-123345000D01*
X90793900Y-120805000D02*
X110478900Y-120805000D01*
X90158900Y-121440000D02*
X90793900Y-120805000D01*
X90158900Y-123345000D02*
X90158900Y-121440000D01*
X90259000Y-49685400D02*
X110579000Y-49685400D01*
X90259000Y-52225400D02*
X90259000Y-49685400D01*
X109944000Y-52225400D02*
X90259000Y-52225400D01*
X110579000Y-51590400D02*
X109944000Y-52225400D01*
X110579000Y-49685400D02*
X110579000Y-51590400D01*
X82524600Y-52175400D02*
X62204600Y-52175400D01*
X82524600Y-49635400D02*
X82524600Y-52175400D01*
X62839600Y-49635400D02*
X82524600Y-49635400D01*
X62204600Y-50270400D02*
X62839600Y-49635400D01*
X62204600Y-52175400D02*
X62204600Y-50270400D01*
X74904600Y-123295000D02*
X62204600Y-123295000D01*
X74904600Y-120755000D02*
X74904600Y-123295000D01*
X62839600Y-120755000D02*
X74904600Y-120755000D01*
X62204600Y-121390000D02*
X62839600Y-120755000D01*
X62204600Y-123295000D02*
X62204600Y-121390000D01*
X50061764Y-117779000D02*
G75*
G03X50061764Y-117779000I-2015564J0D01*
G01*
X51046200Y-114779000D02*
X51046200Y-117779000D01*
X45046200Y-114779000D02*
X51046200Y-114779000D01*
X45046200Y-120779000D02*
X45046200Y-114779000D01*
X51046200Y-120779000D02*
X45046200Y-120779000D01*
X51046200Y-117779000D02*
X51046200Y-120779000D01*
X50217195Y-105342500D02*
X50217195Y-105842500D01*
X49967195Y-105592500D02*
X50467195Y-105592500D01*
X54600800Y-106680000D02*
G75*
G03X54600800Y-106680000I-2500000J0D01*
G01*
X82844600Y-72787000D02*
X82844600Y-77087000D01*
X84744600Y-72787000D02*
X82844600Y-72787000D01*
X84744600Y-77087000D02*
X84744600Y-72787000D01*
X82844600Y-77087000D02*
X84744600Y-77087000D01*
X87284600Y-104586800D02*
X87284600Y-100286800D01*
X85384600Y-104586800D02*
X87284600Y-104586800D01*
X85384600Y-100286800D02*
X85384600Y-104586800D01*
X87284600Y-100286800D02*
X85384600Y-100286800D01*
X89824600Y-77087000D02*
X89824600Y-72787000D01*
X87924600Y-77087000D02*
X89824600Y-77087000D01*
X87924600Y-72787000D02*
X87924600Y-77087000D01*
X89824600Y-72787000D02*
X87924600Y-72787000D01*
X117937028Y-102962500D02*
X117937028Y-103592500D01*
X117622028Y-103277500D02*
X118252028Y-103277500D01*
X123466000Y-104651000D02*
G75*
G03X123466000Y-104651000I-3150000J0D01*
G01*
X122623000Y-111039000D02*
X118323000Y-111039000D01*
X122623000Y-112939000D02*
X122623000Y-111039000D01*
X118323000Y-112939000D02*
X122623000Y-112939000D01*
X118323000Y-111039000D02*
X118323000Y-112939000D01*
X47146200Y-99680000D02*
X44446200Y-99680000D01*
X47146200Y-99880000D02*
X44446200Y-99880000D01*
X47146200Y-99780000D02*
X44446200Y-99780000D01*
X45796200Y-106680000D02*
X45796200Y-104200000D01*
X45796200Y-96520000D02*
X45796200Y-99000000D01*
X47146200Y-104200000D02*
X47146200Y-99000000D01*
X44446200Y-104200000D02*
X47146200Y-104200000D01*
X44446200Y-99000000D02*
X44446200Y-104200000D01*
X47146200Y-99000000D02*
X44446200Y-99000000D01*
X128794000Y-70557200D02*
X133994000Y-70557200D01*
X128794000Y-70357200D02*
X133994000Y-70357200D01*
X128794000Y-70457200D02*
X133994000Y-70457200D01*
X131394000Y-59512200D02*
X131394000Y-62382200D01*
X131394000Y-74752200D02*
X131394000Y-71882200D01*
X128794000Y-62382200D02*
X128794000Y-71882200D01*
X133994000Y-62382200D02*
X128794000Y-62382200D01*
X133994000Y-71882200D02*
X133994000Y-62382200D01*
X128794000Y-71882200D02*
X133994000Y-71882200D01*
X129078810Y-122124000D02*
X131411190Y-122124000D01*
X131745000Y-120624000D02*
G75*
G03X131745000Y-120624000I-1500000J0D01*
G01*
X131410476Y-122124555D02*
G75*
G03X129078810Y-122124000I-1165476J1500555D01*
G01*
X53213000Y-99936300D02*
X50673000Y-99936300D01*
X54813000Y-99936300D02*
G75*
G03X54813000Y-99936300I-1600000J0D01*
G01*
X129845000Y-101651000D02*
X132385000Y-101651000D01*
X131445000Y-101651000D02*
G75*
G03X131445000Y-101651000I-1600000J0D01*
G01*
X63204600Y-96079600D02*
X62204600Y-95079600D01*
X113004600Y-96079600D02*
X63204600Y-96079600D01*
X113004600Y-81349600D02*
X113004600Y-96079600D01*
X62204600Y-81349600D02*
X113004600Y-81349600D01*
X62204600Y-95079600D02*
X62204600Y-81349600D01*
D11*
X121196952Y-90259838D02*
X121149333Y-90355076D01*
X121101714Y-90402695D01*
X121006476Y-90450314D01*
X120958857Y-90450314D01*
X120863619Y-90402695D01*
X120816000Y-90355076D01*
X120768380Y-90259838D01*
X120768380Y-90069361D01*
X120816000Y-89974123D01*
X120863619Y-89926504D01*
X120958857Y-89878885D01*
X121006476Y-89878885D01*
X121101714Y-89926504D01*
X121149333Y-89974123D01*
X121196952Y-90069361D01*
X121196952Y-90259838D01*
X121244571Y-90355076D01*
X121292190Y-90402695D01*
X121387428Y-90450314D01*
X121577904Y-90450314D01*
X121673142Y-90402695D01*
X121720761Y-90355076D01*
X121768380Y-90259838D01*
X121768380Y-90069361D01*
X121720761Y-89974123D01*
X121673142Y-89926504D01*
X121577904Y-89878885D01*
X121387428Y-89878885D01*
X121292190Y-89926504D01*
X121244571Y-89974123D01*
X121196952Y-90069361D01*
X121768380Y-89450314D02*
X120768380Y-89450314D01*
X121482666Y-89116980D01*
X120768380Y-88783647D01*
X121768380Y-88783647D01*
X121768380Y-88307457D02*
X120768380Y-88307457D01*
X121244571Y-88307457D02*
X121244571Y-87736028D01*
X121768380Y-87736028D02*
X120768380Y-87736028D01*
X121101714Y-87355076D02*
X121101714Y-86831266D01*
X121768380Y-87355076D01*
X121768380Y-86831266D01*
X118592190Y-89140790D02*
X119068380Y-89140790D01*
X118068380Y-89474123D02*
X118592190Y-89140790D01*
X118068380Y-88807457D01*
X119068380Y-87950314D02*
X119068380Y-88521742D01*
X119068380Y-88236028D02*
X118068380Y-88236028D01*
X118211238Y-88331266D01*
X118306476Y-88426504D01*
X118354095Y-88521742D01*
X119537214Y-83131419D02*
X119584833Y-83083800D01*
X119680071Y-83036180D01*
X119918166Y-83036180D01*
X120013404Y-83083800D01*
X120061023Y-83131419D01*
X120108642Y-83226657D01*
X120108642Y-83321895D01*
X120061023Y-83464752D01*
X119489595Y-84036180D01*
X120108642Y-84036180D01*
X120489595Y-83131419D02*
X120537214Y-83083800D01*
X120632452Y-83036180D01*
X120870547Y-83036180D01*
X120965785Y-83083800D01*
X121013404Y-83131419D01*
X121061023Y-83226657D01*
X121061023Y-83321895D01*
X121013404Y-83464752D01*
X120441976Y-84036180D01*
X121061023Y-84036180D01*
X121489595Y-83369514D02*
X121489595Y-84369514D01*
X121489595Y-83417133D02*
X121584833Y-83369514D01*
X121775309Y-83369514D01*
X121870547Y-83417133D01*
X121918166Y-83464752D01*
X121965785Y-83559990D01*
X121965785Y-83845704D01*
X121918166Y-83940942D01*
X121870547Y-83988561D01*
X121775309Y-84036180D01*
X121584833Y-84036180D01*
X121489595Y-83988561D01*
D12*
X118459333Y-81430314D02*
X118414571Y-81475076D01*
X118280285Y-81519838D01*
X118190761Y-81519838D01*
X118056476Y-81475076D01*
X117966952Y-81385552D01*
X117922190Y-81296028D01*
X117877428Y-81116980D01*
X117877428Y-80982695D01*
X117922190Y-80803647D01*
X117966952Y-80714123D01*
X118056476Y-80624600D01*
X118190761Y-80579838D01*
X118280285Y-80579838D01*
X118414571Y-80624600D01*
X118459333Y-80669361D01*
X118996476Y-80982695D02*
X118906952Y-80937933D01*
X118862190Y-80893171D01*
X118817428Y-80803647D01*
X118817428Y-80758885D01*
X118862190Y-80669361D01*
X118906952Y-80624600D01*
X118996476Y-80579838D01*
X119175523Y-80579838D01*
X119265047Y-80624600D01*
X119309809Y-80669361D01*
X119354571Y-80758885D01*
X119354571Y-80803647D01*
X119309809Y-80893171D01*
X119265047Y-80937933D01*
X119175523Y-80982695D01*
X118996476Y-80982695D01*
X118906952Y-81027457D01*
X118862190Y-81072219D01*
X118817428Y-81161742D01*
X118817428Y-81340790D01*
X118862190Y-81430314D01*
X118906952Y-81475076D01*
X118996476Y-81519838D01*
X119175523Y-81519838D01*
X119265047Y-81475076D01*
X119309809Y-81430314D01*
X119354571Y-81340790D01*
X119354571Y-81161742D01*
X119309809Y-81072219D01*
X119265047Y-81027457D01*
X119175523Y-80982695D01*
D11*
X120007114Y-93507319D02*
X120054733Y-93459700D01*
X120149971Y-93412080D01*
X120388066Y-93412080D01*
X120483304Y-93459700D01*
X120530923Y-93507319D01*
X120578542Y-93602557D01*
X120578542Y-93697795D01*
X120530923Y-93840652D01*
X119959495Y-94412080D01*
X120578542Y-94412080D01*
X120959495Y-93507319D02*
X121007114Y-93459700D01*
X121102352Y-93412080D01*
X121340447Y-93412080D01*
X121435685Y-93459700D01*
X121483304Y-93507319D01*
X121530923Y-93602557D01*
X121530923Y-93697795D01*
X121483304Y-93840652D01*
X120911876Y-94412080D01*
X121530923Y-94412080D01*
X121959495Y-93745414D02*
X121959495Y-94745414D01*
X121959495Y-93793033D02*
X122054733Y-93745414D01*
X122245209Y-93745414D01*
X122340447Y-93793033D01*
X122388066Y-93840652D01*
X122435685Y-93935890D01*
X122435685Y-94221604D01*
X122388066Y-94316842D01*
X122340447Y-94364461D01*
X122245209Y-94412080D01*
X122054733Y-94412080D01*
X121959495Y-94364461D01*
D12*
X118499933Y-96690614D02*
X118455171Y-96735376D01*
X118320885Y-96780138D01*
X118231361Y-96780138D01*
X118097076Y-96735376D01*
X118007552Y-96645852D01*
X117962790Y-96556328D01*
X117918028Y-96377280D01*
X117918028Y-96242995D01*
X117962790Y-96063947D01*
X118007552Y-95974423D01*
X118097076Y-95884900D01*
X118231361Y-95840138D01*
X118320885Y-95840138D01*
X118455171Y-95884900D01*
X118499933Y-95929661D01*
X118813266Y-95840138D02*
X119439933Y-95840138D01*
X119037076Y-96780138D01*
D11*
X49352771Y-85764666D02*
X49828961Y-85764666D01*
X49257533Y-86050380D02*
X49590866Y-85050380D01*
X49924200Y-86050380D01*
X50114676Y-85050380D02*
X50448009Y-86050380D01*
X50781342Y-85050380D01*
X51686104Y-86050380D02*
X51352771Y-85574190D01*
X51114676Y-86050380D02*
X51114676Y-85050380D01*
X51495628Y-85050380D01*
X51590866Y-85098000D01*
X51638485Y-85145619D01*
X51686104Y-85240857D01*
X51686104Y-85383714D01*
X51638485Y-85478952D01*
X51590866Y-85526571D01*
X51495628Y-85574190D01*
X51114676Y-85574190D01*
X52114676Y-85669428D02*
X52876580Y-85669428D01*
X53352771Y-86050380D02*
X53352771Y-85050380D01*
X53781342Y-86002761D02*
X53924200Y-86050380D01*
X54162295Y-86050380D01*
X54257533Y-86002761D01*
X54305152Y-85955142D01*
X54352771Y-85859904D01*
X54352771Y-85764666D01*
X54305152Y-85669428D01*
X54257533Y-85621809D01*
X54162295Y-85574190D01*
X53971819Y-85526571D01*
X53876580Y-85478952D01*
X53828961Y-85431333D01*
X53781342Y-85336095D01*
X53781342Y-85240857D01*
X53828961Y-85145619D01*
X53876580Y-85098000D01*
X53971819Y-85050380D01*
X54209914Y-85050380D01*
X54352771Y-85098000D01*
X54781342Y-86050380D02*
X54781342Y-85050380D01*
X55162295Y-85050380D01*
X55257533Y-85098000D01*
X55305152Y-85145619D01*
X55352771Y-85240857D01*
X55352771Y-85383714D01*
X55305152Y-85478952D01*
X55257533Y-85526571D01*
X55162295Y-85574190D01*
X54781342Y-85574190D01*
X55781342Y-85669428D02*
X56543247Y-85669428D01*
X57543247Y-86050380D02*
X56971819Y-86050380D01*
X57257533Y-86050380D02*
X57257533Y-85050380D01*
X57162295Y-85193238D01*
X57067057Y-85288476D01*
X56971819Y-85336095D01*
X58162295Y-85050380D02*
X58257533Y-85050380D01*
X58352771Y-85098000D01*
X58400390Y-85145619D01*
X58448009Y-85240857D01*
X58495628Y-85431333D01*
X58495628Y-85669428D01*
X58448009Y-85859904D01*
X58400390Y-85955142D01*
X58352771Y-86002761D01*
X58257533Y-86050380D01*
X58162295Y-86050380D01*
X58067057Y-86002761D01*
X58019438Y-85955142D01*
X57971819Y-85859904D01*
X57924200Y-85669428D01*
X57924200Y-85431333D01*
X57971819Y-85240857D01*
X58019438Y-85145619D01*
X58067057Y-85098000D01*
X58162295Y-85050380D01*
X53590866Y-73366380D02*
X53590866Y-74080666D01*
X53543247Y-74223523D01*
X53448009Y-74318761D01*
X53305152Y-74366380D01*
X53209914Y-74366380D01*
X54590866Y-74366380D02*
X54019438Y-74366380D01*
X54305152Y-74366380D02*
X54305152Y-73366380D01*
X54209914Y-73509238D01*
X54114676Y-73604476D01*
X54019438Y-73652095D01*
X122310428Y-123360714D02*
X122310428Y-122598809D01*
X122691380Y-122979761D02*
X121929476Y-122979761D01*
X121691380Y-121646428D02*
X121691380Y-122122619D01*
X122167571Y-122170238D01*
X122119952Y-122122619D01*
X122072333Y-122027380D01*
X122072333Y-121789285D01*
X122119952Y-121694047D01*
X122167571Y-121646428D01*
X122262809Y-121598809D01*
X122500904Y-121598809D01*
X122596142Y-121646428D01*
X122643761Y-121694047D01*
X122691380Y-121789285D01*
X122691380Y-122027380D01*
X122643761Y-122122619D01*
X122596142Y-122170238D01*
X121691380Y-121313095D02*
X122691380Y-120979761D01*
X121691380Y-120646428D01*
X117865666Y-121527380D02*
X117865666Y-122241666D01*
X117818047Y-122384523D01*
X117722809Y-122479761D01*
X117579952Y-122527380D01*
X117484714Y-122527380D01*
X118770428Y-121527380D02*
X118579952Y-121527380D01*
X118484714Y-121575000D01*
X118437095Y-121622619D01*
X118341857Y-121765476D01*
X118294238Y-121955952D01*
X118294238Y-122336904D01*
X118341857Y-122432142D01*
X118389476Y-122479761D01*
X118484714Y-122527380D01*
X118675190Y-122527380D01*
X118770428Y-122479761D01*
X118818047Y-122432142D01*
X118865666Y-122336904D01*
X118865666Y-122098809D01*
X118818047Y-122003571D01*
X118770428Y-121955952D01*
X118675190Y-121908333D01*
X118484714Y-121908333D01*
X118389476Y-121955952D01*
X118341857Y-122003571D01*
X118294238Y-122098809D01*
X124461666Y-93206428D02*
X125223571Y-93206428D01*
X124842619Y-93587380D02*
X124842619Y-92825476D01*
X126175952Y-92587380D02*
X125699761Y-92587380D01*
X125652142Y-93063571D01*
X125699761Y-93015952D01*
X125795000Y-92968333D01*
X126033095Y-92968333D01*
X126128333Y-93015952D01*
X126175952Y-93063571D01*
X126223571Y-93158809D01*
X126223571Y-93396904D01*
X126175952Y-93492142D01*
X126128333Y-93539761D01*
X126033095Y-93587380D01*
X125795000Y-93587380D01*
X125699761Y-93539761D01*
X125652142Y-93492142D01*
X126509285Y-92587380D02*
X126842619Y-93587380D01*
X127175952Y-92587380D01*
X128699761Y-93587380D02*
X128699761Y-92587380D01*
X128699761Y-93539761D02*
X128604523Y-93587380D01*
X128414047Y-93587380D01*
X128318809Y-93539761D01*
X128271190Y-93492142D01*
X128223571Y-93396904D01*
X128223571Y-93111190D01*
X128271190Y-93015952D01*
X128318809Y-92968333D01*
X128414047Y-92920714D01*
X128604523Y-92920714D01*
X128699761Y-92968333D01*
X129604523Y-93539761D02*
X129509285Y-93587380D01*
X129318809Y-93587380D01*
X129223571Y-93539761D01*
X129175952Y-93492142D01*
X129128333Y-93396904D01*
X129128333Y-93111190D01*
X129175952Y-93015952D01*
X129223571Y-92968333D01*
X129318809Y-92920714D01*
X129509285Y-92920714D01*
X129604523Y-92968333D01*
X130747380Y-93539761D02*
X130842619Y-93587380D01*
X131033095Y-93587380D01*
X131128333Y-93539761D01*
X131175952Y-93444523D01*
X131175952Y-93396904D01*
X131128333Y-93301666D01*
X131033095Y-93254047D01*
X130890238Y-93254047D01*
X130795000Y-93206428D01*
X130747380Y-93111190D01*
X130747380Y-93063571D01*
X130795000Y-92968333D01*
X130890238Y-92920714D01*
X131033095Y-92920714D01*
X131128333Y-92968333D01*
X132033095Y-92920714D02*
X132033095Y-93587380D01*
X131604523Y-92920714D02*
X131604523Y-93444523D01*
X131652142Y-93539761D01*
X131747380Y-93587380D01*
X131890238Y-93587380D01*
X131985476Y-93539761D01*
X132033095Y-93492142D01*
X132509285Y-92920714D02*
X132509285Y-93920714D01*
X132509285Y-92968333D02*
X132604523Y-92920714D01*
X132795000Y-92920714D01*
X132890238Y-92968333D01*
X132937857Y-93015952D01*
X132985476Y-93111190D01*
X132985476Y-93396904D01*
X132937857Y-93492142D01*
X132890238Y-93539761D01*
X132795000Y-93587380D01*
X132604523Y-93587380D01*
X132509285Y-93539761D01*
X133414047Y-92920714D02*
X133414047Y-93920714D01*
X133414047Y-92968333D02*
X133509285Y-92920714D01*
X133699761Y-92920714D01*
X133795000Y-92968333D01*
X133842619Y-93015952D01*
X133890238Y-93111190D01*
X133890238Y-93396904D01*
X133842619Y-93492142D01*
X133795000Y-93539761D01*
X133699761Y-93587380D01*
X133509285Y-93587380D01*
X133414047Y-93539761D01*
X134461666Y-93587380D02*
X134366428Y-93539761D01*
X134318809Y-93444523D01*
X134318809Y-92587380D01*
X134747380Y-92920714D02*
X134985476Y-93587380D01*
X135223571Y-92920714D02*
X134985476Y-93587380D01*
X134890238Y-93825476D01*
X134842619Y-93873095D01*
X134747380Y-93920714D01*
X129247380Y-89868333D02*
X129961666Y-89868333D01*
X130104523Y-89915952D01*
X130199761Y-90011190D01*
X130247380Y-90154047D01*
X130247380Y-90249285D01*
X129342619Y-89439761D02*
X129295000Y-89392142D01*
X129247380Y-89296904D01*
X129247380Y-89058809D01*
X129295000Y-88963571D01*
X129342619Y-88915952D01*
X129437857Y-88868333D01*
X129533095Y-88868333D01*
X129675952Y-88915952D01*
X130247380Y-89487380D01*
X130247380Y-88868333D01*
X112431280Y-125075000D02*
X111431280Y-125075000D01*
X111431280Y-124694047D01*
X111478900Y-124598809D01*
X111526519Y-124551190D01*
X111621757Y-124503571D01*
X111764614Y-124503571D01*
X111859852Y-124551190D01*
X111907471Y-124598809D01*
X111955090Y-124694047D01*
X111955090Y-125075000D01*
X112431280Y-124075000D02*
X111431280Y-124075000D01*
X111431280Y-123836904D01*
X111478900Y-123694047D01*
X111574138Y-123598809D01*
X111669376Y-123551190D01*
X111859852Y-123503571D01*
X112002709Y-123503571D01*
X112193185Y-123551190D01*
X112288423Y-123598809D01*
X112383661Y-123694047D01*
X112431280Y-123836904D01*
X112431280Y-124075000D01*
X112812233Y-122789285D02*
X112764614Y-122836904D01*
X112621757Y-122932142D01*
X112526519Y-122979761D01*
X112383661Y-123027380D01*
X112145566Y-123075000D01*
X111955090Y-123075000D01*
X111716995Y-123027380D01*
X111574138Y-122979761D01*
X111478900Y-122932142D01*
X111336042Y-122836904D01*
X111288423Y-122789285D01*
X111431280Y-122217857D02*
X111431280Y-122122619D01*
X111478900Y-122027380D01*
X111526519Y-121979761D01*
X111621757Y-121932142D01*
X111812233Y-121884523D01*
X112050328Y-121884523D01*
X112240804Y-121932142D01*
X112336042Y-121979761D01*
X112383661Y-122027380D01*
X112431280Y-122122619D01*
X112431280Y-122217857D01*
X112383661Y-122313095D01*
X112336042Y-122360714D01*
X112240804Y-122408333D01*
X112050328Y-122455952D01*
X111812233Y-122455952D01*
X111621757Y-122408333D01*
X111526519Y-122360714D01*
X111478900Y-122313095D01*
X111431280Y-122217857D01*
X112050328Y-121455952D02*
X112050328Y-120694047D01*
X111431280Y-120313095D02*
X111431280Y-119646428D01*
X112431280Y-120075000D01*
X112812233Y-119360714D02*
X112764614Y-119313095D01*
X112621757Y-119217857D01*
X112526519Y-119170238D01*
X112383661Y-119122619D01*
X112145566Y-119075000D01*
X111955090Y-119075000D01*
X111716995Y-119122619D01*
X111574138Y-119170238D01*
X111478900Y-119217857D01*
X111336042Y-119313095D01*
X111288423Y-119360714D01*
X99985566Y-121527380D02*
X99985566Y-122241666D01*
X99937947Y-122384523D01*
X99842709Y-122479761D01*
X99699852Y-122527380D01*
X99604614Y-122527380D01*
X100366519Y-121527380D02*
X101033185Y-121527380D01*
X100604614Y-122527380D01*
X89211380Y-53955400D02*
X88211380Y-53955400D01*
X88211380Y-53574447D01*
X88259000Y-53479209D01*
X88306619Y-53431590D01*
X88401857Y-53383971D01*
X88544714Y-53383971D01*
X88639952Y-53431590D01*
X88687571Y-53479209D01*
X88735190Y-53574447D01*
X88735190Y-53955400D01*
X89116142Y-52383971D02*
X89163761Y-52431590D01*
X89211380Y-52574447D01*
X89211380Y-52669685D01*
X89163761Y-52812542D01*
X89068523Y-52907780D01*
X88973285Y-52955400D01*
X88782809Y-53003019D01*
X88639952Y-53003019D01*
X88449476Y-52955400D01*
X88354238Y-52907780D01*
X88259000Y-52812542D01*
X88211380Y-52669685D01*
X88211380Y-52574447D01*
X88259000Y-52431590D01*
X88306619Y-52383971D01*
X89592333Y-51669685D02*
X89544714Y-51717304D01*
X89401857Y-51812542D01*
X89306619Y-51860161D01*
X89163761Y-51907780D01*
X88925666Y-51955400D01*
X88735190Y-51955400D01*
X88497095Y-51907780D01*
X88354238Y-51860161D01*
X88259000Y-51812542D01*
X88116142Y-51717304D01*
X88068523Y-51669685D01*
X88211380Y-51098257D02*
X88211380Y-51003019D01*
X88259000Y-50907780D01*
X88306619Y-50860161D01*
X88401857Y-50812542D01*
X88592333Y-50764923D01*
X88830428Y-50764923D01*
X89020904Y-50812542D01*
X89116142Y-50860161D01*
X89163761Y-50907780D01*
X89211380Y-51003019D01*
X89211380Y-51098257D01*
X89163761Y-51193495D01*
X89116142Y-51241114D01*
X89020904Y-51288733D01*
X88830428Y-51336352D01*
X88592333Y-51336352D01*
X88401857Y-51288733D01*
X88306619Y-51241114D01*
X88259000Y-51193495D01*
X88211380Y-51098257D01*
X88830428Y-50336352D02*
X88830428Y-49574447D01*
X88211380Y-49193495D02*
X88211380Y-48526828D01*
X89211380Y-48955400D01*
X89592333Y-48241114D02*
X89544714Y-48193495D01*
X89401857Y-48098257D01*
X89306619Y-48050638D01*
X89163761Y-48003019D01*
X88925666Y-47955400D01*
X88735190Y-47955400D01*
X88497095Y-48003019D01*
X88354238Y-48050638D01*
X88259000Y-48098257D01*
X88116142Y-48193495D01*
X88068523Y-48241114D01*
X100085666Y-50407780D02*
X100085666Y-51122066D01*
X100038047Y-51264923D01*
X99942809Y-51360161D01*
X99799952Y-51407780D01*
X99704714Y-51407780D01*
X100990428Y-50741114D02*
X100990428Y-51407780D01*
X100752333Y-50360161D02*
X100514238Y-51074447D01*
X101133285Y-51074447D01*
X84476980Y-53833971D02*
X83476980Y-53833971D01*
X83476980Y-53453019D01*
X83524600Y-53357780D01*
X83572219Y-53310161D01*
X83667457Y-53262542D01*
X83810314Y-53262542D01*
X83905552Y-53310161D01*
X83953171Y-53357780D01*
X84000790Y-53453019D01*
X84000790Y-53833971D01*
X84191266Y-52881590D02*
X84191266Y-52405400D01*
X84476980Y-52976828D02*
X83476980Y-52643495D01*
X84476980Y-52310161D01*
X84857933Y-51691114D02*
X84810314Y-51738733D01*
X84667457Y-51833971D01*
X84572219Y-51881590D01*
X84429361Y-51929209D01*
X84191266Y-51976828D01*
X84000790Y-51976828D01*
X83762695Y-51929209D01*
X83619838Y-51881590D01*
X83524600Y-51833971D01*
X83381742Y-51738733D01*
X83334123Y-51691114D01*
X83476980Y-51119685D02*
X83476980Y-51024447D01*
X83524600Y-50929209D01*
X83572219Y-50881590D01*
X83667457Y-50833971D01*
X83857933Y-50786352D01*
X84096028Y-50786352D01*
X84286504Y-50833971D01*
X84381742Y-50881590D01*
X84429361Y-50929209D01*
X84476980Y-51024447D01*
X84476980Y-51119685D01*
X84429361Y-51214923D01*
X84381742Y-51262542D01*
X84286504Y-51310161D01*
X84096028Y-51357780D01*
X83857933Y-51357780D01*
X83667457Y-51310161D01*
X83572219Y-51262542D01*
X83524600Y-51214923D01*
X83476980Y-51119685D01*
X84096028Y-50357780D02*
X84096028Y-49595876D01*
X83476980Y-49214923D02*
X83476980Y-48548257D01*
X84476980Y-48976828D01*
X84857933Y-48262542D02*
X84810314Y-48214923D01*
X84667457Y-48119685D01*
X84572219Y-48072066D01*
X84429361Y-48024447D01*
X84191266Y-47976828D01*
X84000790Y-47976828D01*
X83762695Y-48024447D01*
X83619838Y-48072066D01*
X83524600Y-48119685D01*
X83381742Y-48214923D01*
X83334123Y-48262542D01*
X72031266Y-50357780D02*
X72031266Y-51072066D01*
X71983647Y-51214923D01*
X71888409Y-51310161D01*
X71745552Y-51357780D01*
X71650314Y-51357780D01*
X72412219Y-50357780D02*
X73031266Y-50357780D01*
X72697933Y-50738733D01*
X72840790Y-50738733D01*
X72936028Y-50786352D01*
X72983647Y-50833971D01*
X73031266Y-50929209D01*
X73031266Y-51167304D01*
X72983647Y-51262542D01*
X72936028Y-51310161D01*
X72840790Y-51357780D01*
X72555076Y-51357780D01*
X72459838Y-51310161D01*
X72412219Y-51262542D01*
X76856980Y-125025000D02*
X75856980Y-125025000D01*
X75856980Y-124644047D01*
X75904600Y-124548809D01*
X75952219Y-124501190D01*
X76047457Y-124453571D01*
X76190314Y-124453571D01*
X76285552Y-124501190D01*
X76333171Y-124548809D01*
X76380790Y-124644047D01*
X76380790Y-125025000D01*
X76333171Y-123691666D02*
X76380790Y-123548809D01*
X76428409Y-123501190D01*
X76523647Y-123453571D01*
X76666504Y-123453571D01*
X76761742Y-123501190D01*
X76809361Y-123548809D01*
X76856980Y-123644047D01*
X76856980Y-124025000D01*
X75856980Y-124025000D01*
X75856980Y-123691666D01*
X75904600Y-123596428D01*
X75952219Y-123548809D01*
X76047457Y-123501190D01*
X76142695Y-123501190D01*
X76237933Y-123548809D01*
X76285552Y-123596428D01*
X76333171Y-123691666D01*
X76333171Y-124025000D01*
X77237933Y-122739285D02*
X77190314Y-122786904D01*
X77047457Y-122882142D01*
X76952219Y-122929761D01*
X76809361Y-122977380D01*
X76571266Y-123025000D01*
X76380790Y-123025000D01*
X76142695Y-122977380D01*
X75999838Y-122929761D01*
X75904600Y-122882142D01*
X75761742Y-122786904D01*
X75714123Y-122739285D01*
X75856980Y-122167857D02*
X75856980Y-122072619D01*
X75904600Y-121977380D01*
X75952219Y-121929761D01*
X76047457Y-121882142D01*
X76237933Y-121834523D01*
X76476028Y-121834523D01*
X76666504Y-121882142D01*
X76761742Y-121929761D01*
X76809361Y-121977380D01*
X76856980Y-122072619D01*
X76856980Y-122167857D01*
X76809361Y-122263095D01*
X76761742Y-122310714D01*
X76666504Y-122358333D01*
X76476028Y-122405952D01*
X76237933Y-122405952D01*
X76047457Y-122358333D01*
X75952219Y-122310714D01*
X75904600Y-122263095D01*
X75856980Y-122167857D01*
X76476028Y-121405952D02*
X76476028Y-120644047D01*
X76190314Y-119739285D02*
X76856980Y-119739285D01*
X75809361Y-119977380D02*
X76523647Y-120215476D01*
X76523647Y-119596428D01*
X77237933Y-119310714D02*
X77190314Y-119263095D01*
X77047457Y-119167857D01*
X76952219Y-119120238D01*
X76809361Y-119072619D01*
X76571266Y-119025000D01*
X76380790Y-119025000D01*
X76142695Y-119072619D01*
X75999838Y-119120238D01*
X75904600Y-119167857D01*
X75761742Y-119263095D01*
X75714123Y-119310714D01*
X68221266Y-121477380D02*
X68221266Y-122191666D01*
X68173647Y-122334523D01*
X68078409Y-122429761D01*
X67935552Y-122477380D01*
X67840314Y-122477380D01*
X69173647Y-121477380D02*
X68697457Y-121477380D01*
X68649838Y-121953571D01*
X68697457Y-121905952D01*
X68792695Y-121858333D01*
X69030790Y-121858333D01*
X69126028Y-121905952D01*
X69173647Y-121953571D01*
X69221266Y-122048809D01*
X69221266Y-122286904D01*
X69173647Y-122382142D01*
X69126028Y-122429761D01*
X69030790Y-122477380D01*
X68792695Y-122477380D01*
X68697457Y-122429761D01*
X68649838Y-122382142D01*
X43723580Y-119781380D02*
X43247390Y-120114714D01*
X43723580Y-120352809D02*
X42723580Y-120352809D01*
X42723580Y-119971857D01*
X42771200Y-119876619D01*
X42818819Y-119829000D01*
X42914057Y-119781380D01*
X43056914Y-119781380D01*
X43152152Y-119829000D01*
X43199771Y-119876619D01*
X43247390Y-119971857D01*
X43247390Y-120352809D01*
X43199771Y-119352809D02*
X43199771Y-119019476D01*
X43723580Y-118876619D02*
X43723580Y-119352809D01*
X42723580Y-119352809D01*
X42723580Y-118876619D01*
X43675961Y-118495666D02*
X43723580Y-118352809D01*
X43723580Y-118114714D01*
X43675961Y-118019476D01*
X43628342Y-117971857D01*
X43533104Y-117924238D01*
X43437866Y-117924238D01*
X43342628Y-117971857D01*
X43295009Y-118019476D01*
X43247390Y-118114714D01*
X43199771Y-118305190D01*
X43152152Y-118400428D01*
X43104533Y-118448047D01*
X43009295Y-118495666D01*
X42914057Y-118495666D01*
X42818819Y-118448047D01*
X42771200Y-118400428D01*
X42723580Y-118305190D01*
X42723580Y-118067095D01*
X42771200Y-117924238D01*
X43199771Y-117495666D02*
X43199771Y-117162333D01*
X43723580Y-117019476D02*
X43723580Y-117495666D01*
X42723580Y-117495666D01*
X42723580Y-117019476D01*
X42723580Y-116733761D02*
X42723580Y-116162333D01*
X43723580Y-116448047D02*
X42723580Y-116448047D01*
X48450961Y-119112333D02*
X48498580Y-118969476D01*
X48498580Y-118731380D01*
X48450961Y-118636142D01*
X48403342Y-118588523D01*
X48308104Y-118540904D01*
X48212866Y-118540904D01*
X48117628Y-118588523D01*
X48070009Y-118636142D01*
X48022390Y-118731380D01*
X47974771Y-118921857D01*
X47927152Y-119017095D01*
X47879533Y-119064714D01*
X47784295Y-119112333D01*
X47689057Y-119112333D01*
X47593819Y-119064714D01*
X47546200Y-119017095D01*
X47498580Y-118921857D01*
X47498580Y-118683761D01*
X47546200Y-118540904D01*
X47498580Y-118207571D02*
X48498580Y-117969476D01*
X47784295Y-117779000D01*
X48498580Y-117588523D01*
X47498580Y-117350428D01*
X48498580Y-116445666D02*
X48498580Y-117017095D01*
X48498580Y-116731380D02*
X47498580Y-116731380D01*
X47641438Y-116826619D01*
X47736676Y-116921857D01*
X47784295Y-117017095D01*
X51362704Y-110215714D02*
X51362704Y-110882380D01*
X51124609Y-109834761D02*
X50886514Y-110549047D01*
X51505561Y-110549047D01*
X52315085Y-110215714D02*
X52315085Y-110882380D01*
X51886514Y-110215714D02*
X51886514Y-110739523D01*
X51934133Y-110834761D01*
X52029371Y-110882380D01*
X52172228Y-110882380D01*
X52267466Y-110834761D01*
X52315085Y-110787142D01*
X52696038Y-109882380D02*
X53362704Y-109882380D01*
X52934133Y-110882380D01*
X51934133Y-107037142D02*
X51886514Y-107084761D01*
X51743657Y-107132380D01*
X51648419Y-107132380D01*
X51505561Y-107084761D01*
X51410323Y-106989523D01*
X51362704Y-106894285D01*
X51315085Y-106703809D01*
X51315085Y-106560952D01*
X51362704Y-106370476D01*
X51410323Y-106275238D01*
X51505561Y-106180000D01*
X51648419Y-106132380D01*
X51743657Y-106132380D01*
X51886514Y-106180000D01*
X51934133Y-106227619D01*
X52886514Y-107132380D02*
X52315085Y-107132380D01*
X52600800Y-107132380D02*
X52600800Y-106132380D01*
X52505561Y-106275238D01*
X52410323Y-106370476D01*
X52315085Y-106418095D01*
X86446980Y-76056047D02*
X86446980Y-76627476D01*
X86446980Y-76341761D02*
X85446980Y-76341761D01*
X85589838Y-76437000D01*
X85685076Y-76532238D01*
X85732695Y-76627476D01*
X85446980Y-75437000D02*
X85446980Y-75341761D01*
X85494600Y-75246523D01*
X85542219Y-75198904D01*
X85637457Y-75151285D01*
X85827933Y-75103666D01*
X86066028Y-75103666D01*
X86256504Y-75151285D01*
X86351742Y-75198904D01*
X86399361Y-75246523D01*
X86446980Y-75341761D01*
X86446980Y-75437000D01*
X86399361Y-75532238D01*
X86351742Y-75579857D01*
X86256504Y-75627476D01*
X86066028Y-75675095D01*
X85827933Y-75675095D01*
X85637457Y-75627476D01*
X85542219Y-75579857D01*
X85494600Y-75532238D01*
X85446980Y-75437000D01*
X85446980Y-74484619D02*
X85446980Y-74389380D01*
X85494600Y-74294142D01*
X85542219Y-74246523D01*
X85637457Y-74198904D01*
X85827933Y-74151285D01*
X86066028Y-74151285D01*
X86256504Y-74198904D01*
X86351742Y-74246523D01*
X86399361Y-74294142D01*
X86446980Y-74389380D01*
X86446980Y-74484619D01*
X86399361Y-74579857D01*
X86351742Y-74627476D01*
X86256504Y-74675095D01*
X86066028Y-74722714D01*
X85827933Y-74722714D01*
X85637457Y-74675095D01*
X85542219Y-74627476D01*
X85494600Y-74579857D01*
X85446980Y-74484619D01*
X85780314Y-73722714D02*
X86446980Y-73722714D01*
X85875552Y-73722714D02*
X85827933Y-73675095D01*
X85780314Y-73579857D01*
X85780314Y-73437000D01*
X85827933Y-73341761D01*
X85923171Y-73294142D01*
X86446980Y-73294142D01*
D13*
X84101742Y-75080333D02*
X84142695Y-75121285D01*
X84183647Y-75244142D01*
X84183647Y-75326047D01*
X84142695Y-75448904D01*
X84060790Y-75530809D01*
X83978885Y-75571761D01*
X83815076Y-75612714D01*
X83692219Y-75612714D01*
X83528409Y-75571761D01*
X83446504Y-75530809D01*
X83364600Y-75448904D01*
X83323647Y-75326047D01*
X83323647Y-75244142D01*
X83364600Y-75121285D01*
X83405552Y-75080333D01*
X83405552Y-74752714D02*
X83364600Y-74711761D01*
X83323647Y-74629857D01*
X83323647Y-74425095D01*
X83364600Y-74343190D01*
X83405552Y-74302238D01*
X83487457Y-74261285D01*
X83569361Y-74261285D01*
X83692219Y-74302238D01*
X84183647Y-74793666D01*
X84183647Y-74261285D01*
D11*
X84586980Y-103555847D02*
X84586980Y-104127276D01*
X84586980Y-103841561D02*
X83586980Y-103841561D01*
X83729838Y-103936800D01*
X83825076Y-104032038D01*
X83872695Y-104127276D01*
X83586980Y-102936800D02*
X83586980Y-102841561D01*
X83634600Y-102746323D01*
X83682219Y-102698704D01*
X83777457Y-102651085D01*
X83967933Y-102603466D01*
X84206028Y-102603466D01*
X84396504Y-102651085D01*
X84491742Y-102698704D01*
X84539361Y-102746323D01*
X84586980Y-102841561D01*
X84586980Y-102936800D01*
X84539361Y-103032038D01*
X84491742Y-103079657D01*
X84396504Y-103127276D01*
X84206028Y-103174895D01*
X83967933Y-103174895D01*
X83777457Y-103127276D01*
X83682219Y-103079657D01*
X83634600Y-103032038D01*
X83586980Y-102936800D01*
X83586980Y-101984419D02*
X83586980Y-101889180D01*
X83634600Y-101793942D01*
X83682219Y-101746323D01*
X83777457Y-101698704D01*
X83967933Y-101651085D01*
X84206028Y-101651085D01*
X84396504Y-101698704D01*
X84491742Y-101746323D01*
X84539361Y-101793942D01*
X84586980Y-101889180D01*
X84586980Y-101984419D01*
X84539361Y-102079657D01*
X84491742Y-102127276D01*
X84396504Y-102174895D01*
X84206028Y-102222514D01*
X83967933Y-102222514D01*
X83777457Y-102174895D01*
X83682219Y-102127276D01*
X83634600Y-102079657D01*
X83586980Y-101984419D01*
X83920314Y-101222514D02*
X84586980Y-101222514D01*
X84015552Y-101222514D02*
X83967933Y-101174895D01*
X83920314Y-101079657D01*
X83920314Y-100936800D01*
X83967933Y-100841561D01*
X84063171Y-100793942D01*
X84586980Y-100793942D01*
D13*
X86641742Y-102580133D02*
X86682695Y-102621085D01*
X86723647Y-102743942D01*
X86723647Y-102825847D01*
X86682695Y-102948704D01*
X86600790Y-103030609D01*
X86518885Y-103071561D01*
X86355076Y-103112514D01*
X86232219Y-103112514D01*
X86068409Y-103071561D01*
X85986504Y-103030609D01*
X85904600Y-102948704D01*
X85863647Y-102825847D01*
X85863647Y-102743942D01*
X85904600Y-102621085D01*
X85945552Y-102580133D01*
X85863647Y-102293466D02*
X85863647Y-101761085D01*
X86191266Y-102047752D01*
X86191266Y-101924895D01*
X86232219Y-101842990D01*
X86273171Y-101802038D01*
X86355076Y-101761085D01*
X86559838Y-101761085D01*
X86641742Y-101802038D01*
X86682695Y-101842990D01*
X86723647Y-101924895D01*
X86723647Y-102170609D01*
X86682695Y-102252514D01*
X86641742Y-102293466D01*
D11*
X87126980Y-76056047D02*
X87126980Y-76627476D01*
X87126980Y-76341761D02*
X86126980Y-76341761D01*
X86269838Y-76437000D01*
X86365076Y-76532238D01*
X86412695Y-76627476D01*
X86126980Y-75437000D02*
X86126980Y-75341761D01*
X86174600Y-75246523D01*
X86222219Y-75198904D01*
X86317457Y-75151285D01*
X86507933Y-75103666D01*
X86746028Y-75103666D01*
X86936504Y-75151285D01*
X87031742Y-75198904D01*
X87079361Y-75246523D01*
X87126980Y-75341761D01*
X87126980Y-75437000D01*
X87079361Y-75532238D01*
X87031742Y-75579857D01*
X86936504Y-75627476D01*
X86746028Y-75675095D01*
X86507933Y-75675095D01*
X86317457Y-75627476D01*
X86222219Y-75579857D01*
X86174600Y-75532238D01*
X86126980Y-75437000D01*
X86126980Y-74484619D02*
X86126980Y-74389380D01*
X86174600Y-74294142D01*
X86222219Y-74246523D01*
X86317457Y-74198904D01*
X86507933Y-74151285D01*
X86746028Y-74151285D01*
X86936504Y-74198904D01*
X87031742Y-74246523D01*
X87079361Y-74294142D01*
X87126980Y-74389380D01*
X87126980Y-74484619D01*
X87079361Y-74579857D01*
X87031742Y-74627476D01*
X86936504Y-74675095D01*
X86746028Y-74722714D01*
X86507933Y-74722714D01*
X86317457Y-74675095D01*
X86222219Y-74627476D01*
X86174600Y-74579857D01*
X86126980Y-74484619D01*
X86460314Y-73722714D02*
X87126980Y-73722714D01*
X86555552Y-73722714D02*
X86507933Y-73675095D01*
X86460314Y-73579857D01*
X86460314Y-73437000D01*
X86507933Y-73341761D01*
X86603171Y-73294142D01*
X87126980Y-73294142D01*
D13*
X89181742Y-75080333D02*
X89222695Y-75121285D01*
X89263647Y-75244142D01*
X89263647Y-75326047D01*
X89222695Y-75448904D01*
X89140790Y-75530809D01*
X89058885Y-75571761D01*
X88895076Y-75612714D01*
X88772219Y-75612714D01*
X88608409Y-75571761D01*
X88526504Y-75530809D01*
X88444600Y-75448904D01*
X88403647Y-75326047D01*
X88403647Y-75244142D01*
X88444600Y-75121285D01*
X88485552Y-75080333D01*
X88690314Y-74343190D02*
X89263647Y-74343190D01*
X88362695Y-74547952D02*
X88976980Y-74752714D01*
X88976980Y-74220333D01*
D11*
X119673142Y-109503380D02*
X119101714Y-109503380D01*
X119387428Y-109503380D02*
X119387428Y-108503380D01*
X119292190Y-108646238D01*
X119196952Y-108741476D01*
X119101714Y-108789095D01*
X120292190Y-108503380D02*
X120387428Y-108503380D01*
X120482666Y-108551000D01*
X120530285Y-108598619D01*
X120577904Y-108693857D01*
X120625523Y-108884333D01*
X120625523Y-109122428D01*
X120577904Y-109312904D01*
X120530285Y-109408142D01*
X120482666Y-109455761D01*
X120387428Y-109503380D01*
X120292190Y-109503380D01*
X120196952Y-109455761D01*
X120149333Y-109408142D01*
X120101714Y-109312904D01*
X120054095Y-109122428D01*
X120054095Y-108884333D01*
X120101714Y-108693857D01*
X120149333Y-108598619D01*
X120196952Y-108551000D01*
X120292190Y-108503380D01*
X121482666Y-108836714D02*
X121482666Y-109503380D01*
X121054095Y-108836714D02*
X121054095Y-109360523D01*
X121101714Y-109455761D01*
X121196952Y-109503380D01*
X121339809Y-109503380D01*
X121435047Y-109455761D01*
X121482666Y-109408142D01*
X120149333Y-105008142D02*
X120101714Y-105055761D01*
X119958857Y-105103380D01*
X119863619Y-105103380D01*
X119720761Y-105055761D01*
X119625523Y-104960523D01*
X119577904Y-104865285D01*
X119530285Y-104674809D01*
X119530285Y-104531952D01*
X119577904Y-104341476D01*
X119625523Y-104246238D01*
X119720761Y-104151000D01*
X119863619Y-104103380D01*
X119958857Y-104103380D01*
X120101714Y-104151000D01*
X120149333Y-104198619D01*
X121054095Y-104103380D02*
X120577904Y-104103380D01*
X120530285Y-104579571D01*
X120577904Y-104531952D01*
X120673142Y-104484333D01*
X120911238Y-104484333D01*
X121006476Y-104531952D01*
X121054095Y-104579571D01*
X121101714Y-104674809D01*
X121101714Y-104912904D01*
X121054095Y-105008142D01*
X121006476Y-105055761D01*
X120911238Y-105103380D01*
X120673142Y-105103380D01*
X120577904Y-105055761D01*
X120530285Y-105008142D01*
X119353952Y-114641380D02*
X118782523Y-114641380D01*
X119068238Y-114641380D02*
X119068238Y-113641380D01*
X118973000Y-113784238D01*
X118877761Y-113879476D01*
X118782523Y-113927095D01*
X119973000Y-113641380D02*
X120068238Y-113641380D01*
X120163476Y-113689000D01*
X120211095Y-113736619D01*
X120258714Y-113831857D01*
X120306333Y-114022333D01*
X120306333Y-114260428D01*
X120258714Y-114450904D01*
X120211095Y-114546142D01*
X120163476Y-114593761D01*
X120068238Y-114641380D01*
X119973000Y-114641380D01*
X119877761Y-114593761D01*
X119830142Y-114546142D01*
X119782523Y-114450904D01*
X119734904Y-114260428D01*
X119734904Y-114022333D01*
X119782523Y-113831857D01*
X119830142Y-113736619D01*
X119877761Y-113689000D01*
X119973000Y-113641380D01*
X120925380Y-113641380D02*
X121020619Y-113641380D01*
X121115857Y-113689000D01*
X121163476Y-113736619D01*
X121211095Y-113831857D01*
X121258714Y-114022333D01*
X121258714Y-114260428D01*
X121211095Y-114450904D01*
X121163476Y-114546142D01*
X121115857Y-114593761D01*
X121020619Y-114641380D01*
X120925380Y-114641380D01*
X120830142Y-114593761D01*
X120782523Y-114546142D01*
X120734904Y-114450904D01*
X120687285Y-114260428D01*
X120687285Y-114022333D01*
X120734904Y-113831857D01*
X120782523Y-113736619D01*
X120830142Y-113689000D01*
X120925380Y-113641380D01*
X121687285Y-113974714D02*
X121687285Y-114641380D01*
X121687285Y-114069952D02*
X121734904Y-114022333D01*
X121830142Y-113974714D01*
X121973000Y-113974714D01*
X122068238Y-114022333D01*
X122115857Y-114117571D01*
X122115857Y-114641380D01*
D13*
X120329666Y-112296142D02*
X120288714Y-112337095D01*
X120165857Y-112378047D01*
X120083952Y-112378047D01*
X119961095Y-112337095D01*
X119879190Y-112255190D01*
X119838238Y-112173285D01*
X119797285Y-112009476D01*
X119797285Y-111886619D01*
X119838238Y-111722809D01*
X119879190Y-111640904D01*
X119961095Y-111559000D01*
X120083952Y-111518047D01*
X120165857Y-111518047D01*
X120288714Y-111559000D01*
X120329666Y-111599952D01*
X121066809Y-111518047D02*
X120903000Y-111518047D01*
X120821095Y-111559000D01*
X120780142Y-111599952D01*
X120698238Y-111722809D01*
X120657285Y-111886619D01*
X120657285Y-112214238D01*
X120698238Y-112296142D01*
X120739190Y-112337095D01*
X120821095Y-112378047D01*
X120984904Y-112378047D01*
X121066809Y-112337095D01*
X121107761Y-112296142D01*
X121148714Y-112214238D01*
X121148714Y-112009476D01*
X121107761Y-111927571D01*
X121066809Y-111886619D01*
X120984904Y-111845666D01*
X120821095Y-111845666D01*
X120739190Y-111886619D01*
X120698238Y-111927571D01*
X120657285Y-112009476D01*
D11*
X43778580Y-103742857D02*
X43778580Y-104314285D01*
X43778580Y-104028571D02*
X42778580Y-104028571D01*
X42921438Y-104123809D01*
X43016676Y-104219047D01*
X43064295Y-104314285D01*
X43778580Y-103314285D02*
X42778580Y-103314285D01*
X43778580Y-102742857D01*
X42778580Y-102742857D01*
X43111914Y-101838095D02*
X43778580Y-101838095D01*
X42730961Y-102076190D02*
X43445247Y-102314285D01*
X43445247Y-101695238D01*
X42778580Y-101123809D02*
X42778580Y-101028571D01*
X42826200Y-100933333D01*
X42873819Y-100885714D01*
X42969057Y-100838095D01*
X43159533Y-100790476D01*
X43397628Y-100790476D01*
X43588104Y-100838095D01*
X43683342Y-100885714D01*
X43730961Y-100933333D01*
X43778580Y-101028571D01*
X43778580Y-101123809D01*
X43730961Y-101219047D01*
X43683342Y-101266666D01*
X43588104Y-101314285D01*
X43397628Y-101361904D01*
X43159533Y-101361904D01*
X42969057Y-101314285D01*
X42873819Y-101266666D01*
X42826200Y-101219047D01*
X42778580Y-101123809D01*
X42778580Y-100171428D02*
X42778580Y-100076190D01*
X42826200Y-99980952D01*
X42873819Y-99933333D01*
X42969057Y-99885714D01*
X43159533Y-99838095D01*
X43397628Y-99838095D01*
X43588104Y-99885714D01*
X43683342Y-99933333D01*
X43730961Y-99980952D01*
X43778580Y-100076190D01*
X43778580Y-100171428D01*
X43730961Y-100266666D01*
X43683342Y-100314285D01*
X43588104Y-100361904D01*
X43397628Y-100409523D01*
X43159533Y-100409523D01*
X42969057Y-100361904D01*
X42873819Y-100314285D01*
X42826200Y-100266666D01*
X42778580Y-100171428D01*
X43778580Y-98885714D02*
X43778580Y-99457142D01*
X43778580Y-99171428D02*
X42778580Y-99171428D01*
X42921438Y-99266666D01*
X43016676Y-99361904D01*
X43064295Y-99457142D01*
X48348580Y-96781904D02*
X47348580Y-96781904D01*
X48348580Y-96210476D02*
X47777152Y-96639047D01*
X47348580Y-96210476D02*
X47920009Y-96781904D01*
X46248580Y-102728095D02*
X45248580Y-102728095D01*
X45248580Y-102490000D01*
X45296200Y-102347142D01*
X45391438Y-102251904D01*
X45486676Y-102204285D01*
X45677152Y-102156666D01*
X45820009Y-102156666D01*
X46010485Y-102204285D01*
X46105723Y-102251904D01*
X46200961Y-102347142D01*
X46248580Y-102490000D01*
X46248580Y-102728095D01*
X46248580Y-101204285D02*
X46248580Y-101775714D01*
X46248580Y-101490000D02*
X45248580Y-101490000D01*
X45391438Y-101585238D01*
X45486676Y-101680476D01*
X45534295Y-101775714D01*
X135566380Y-69275057D02*
X135566380Y-69846485D01*
X135566380Y-69560771D02*
X134566380Y-69560771D01*
X134709238Y-69656009D01*
X134804476Y-69751247D01*
X134852095Y-69846485D01*
X135566380Y-68846485D02*
X134566380Y-68846485D01*
X135566380Y-68275057D01*
X134566380Y-68275057D01*
X134566380Y-67322676D02*
X134566380Y-67798866D01*
X135042571Y-67846485D01*
X134994952Y-67798866D01*
X134947333Y-67703628D01*
X134947333Y-67465533D01*
X134994952Y-67370295D01*
X135042571Y-67322676D01*
X135137809Y-67275057D01*
X135375904Y-67275057D01*
X135471142Y-67322676D01*
X135518761Y-67370295D01*
X135566380Y-67465533D01*
X135566380Y-67703628D01*
X135518761Y-67798866D01*
X135471142Y-67846485D01*
X134899714Y-66417914D02*
X135566380Y-66417914D01*
X134518761Y-66656009D02*
X135233047Y-66894104D01*
X135233047Y-66275057D01*
X134566380Y-65703628D02*
X134566380Y-65608390D01*
X134614000Y-65513152D01*
X134661619Y-65465533D01*
X134756857Y-65417914D01*
X134947333Y-65370295D01*
X135185428Y-65370295D01*
X135375904Y-65417914D01*
X135471142Y-65465533D01*
X135518761Y-65513152D01*
X135566380Y-65608390D01*
X135566380Y-65703628D01*
X135518761Y-65798866D01*
X135471142Y-65846485D01*
X135375904Y-65894104D01*
X135185428Y-65941723D01*
X134947333Y-65941723D01*
X134756857Y-65894104D01*
X134661619Y-65846485D01*
X134614000Y-65798866D01*
X134566380Y-65703628D01*
X134566380Y-64751247D02*
X134566380Y-64656009D01*
X134614000Y-64560771D01*
X134661619Y-64513152D01*
X134756857Y-64465533D01*
X134947333Y-64417914D01*
X135185428Y-64417914D01*
X135375904Y-64465533D01*
X135471142Y-64513152D01*
X135518761Y-64560771D01*
X135566380Y-64656009D01*
X135566380Y-64751247D01*
X135518761Y-64846485D01*
X135471142Y-64894104D01*
X135375904Y-64941723D01*
X135185428Y-64989342D01*
X134947333Y-64989342D01*
X134756857Y-64941723D01*
X134661619Y-64894104D01*
X134614000Y-64846485D01*
X134566380Y-64751247D01*
X129246380Y-75014104D02*
X128246380Y-75014104D01*
X129246380Y-74442676D02*
X128674952Y-74871247D01*
X128246380Y-74442676D02*
X128817809Y-75014104D01*
X131846380Y-67157795D02*
X130846380Y-67157795D01*
X130846380Y-66919700D01*
X130894000Y-66776842D01*
X130989238Y-66681604D01*
X131084476Y-66633985D01*
X131274952Y-66586366D01*
X131417809Y-66586366D01*
X131608285Y-66633985D01*
X131703523Y-66681604D01*
X131798761Y-66776842D01*
X131846380Y-66919700D01*
X131846380Y-67157795D01*
X130941619Y-66205414D02*
X130894000Y-66157795D01*
X130846380Y-66062557D01*
X130846380Y-65824461D01*
X130894000Y-65729223D01*
X130941619Y-65681604D01*
X131036857Y-65633985D01*
X131132095Y-65633985D01*
X131274952Y-65681604D01*
X131846380Y-66253033D01*
X131846380Y-65633985D01*
X133657380Y-121266857D02*
X133657380Y-121743047D01*
X132657380Y-121743047D01*
X133133571Y-120933523D02*
X133133571Y-120600190D01*
X133657380Y-120457333D02*
X133657380Y-120933523D01*
X132657380Y-120933523D01*
X132657380Y-120457333D01*
X133657380Y-120028761D02*
X132657380Y-120028761D01*
X132657380Y-119790666D01*
X132705000Y-119647809D01*
X132800238Y-119552571D01*
X132895476Y-119504952D01*
X133085952Y-119457333D01*
X133228809Y-119457333D01*
X133419285Y-119504952D01*
X133514523Y-119552571D01*
X133609761Y-119647809D01*
X133657380Y-119790666D01*
X133657380Y-120028761D01*
X51347761Y-97668680D02*
X50776333Y-97668680D01*
X51062047Y-97668680D02*
X51062047Y-96668680D01*
X50966809Y-96811538D01*
X50871571Y-96906776D01*
X50776333Y-96954395D01*
X51966809Y-96668680D02*
X52062047Y-96668680D01*
X52157285Y-96716300D01*
X52204904Y-96763919D01*
X52252523Y-96859157D01*
X52300142Y-97049633D01*
X52300142Y-97287728D01*
X52252523Y-97478204D01*
X52204904Y-97573442D01*
X52157285Y-97621061D01*
X52062047Y-97668680D01*
X51966809Y-97668680D01*
X51871571Y-97621061D01*
X51823952Y-97573442D01*
X51776333Y-97478204D01*
X51728714Y-97287728D01*
X51728714Y-97049633D01*
X51776333Y-96859157D01*
X51823952Y-96763919D01*
X51871571Y-96716300D01*
X51966809Y-96668680D01*
X52728714Y-97668680D02*
X52728714Y-96668680D01*
X52823952Y-97287728D02*
X53109666Y-97668680D01*
X53109666Y-97002014D02*
X52728714Y-97382966D01*
X51776333Y-103108680D02*
X51443000Y-102632490D01*
X51204904Y-103108680D02*
X51204904Y-102108680D01*
X51585857Y-102108680D01*
X51681095Y-102156300D01*
X51728714Y-102203919D01*
X51776333Y-102299157D01*
X51776333Y-102442014D01*
X51728714Y-102537252D01*
X51681095Y-102584871D01*
X51585857Y-102632490D01*
X51204904Y-102632490D01*
X52728714Y-103108680D02*
X52157285Y-103108680D01*
X52443000Y-103108680D02*
X52443000Y-102108680D01*
X52347761Y-102251538D01*
X52252523Y-102346776D01*
X52157285Y-102394395D01*
X129829285Y-103823380D02*
X130448333Y-103823380D01*
X130115000Y-104204333D01*
X130257857Y-104204333D01*
X130353095Y-104251952D01*
X130400714Y-104299571D01*
X130448333Y-104394809D01*
X130448333Y-104632904D01*
X130400714Y-104728142D01*
X130353095Y-104775761D01*
X130257857Y-104823380D01*
X129972142Y-104823380D01*
X129876904Y-104775761D01*
X129829285Y-104728142D01*
X130781666Y-103823380D02*
X131400714Y-103823380D01*
X131067380Y-104204333D01*
X131210238Y-104204333D01*
X131305476Y-104251952D01*
X131353095Y-104299571D01*
X131400714Y-104394809D01*
X131400714Y-104632904D01*
X131353095Y-104728142D01*
X131305476Y-104775761D01*
X131210238Y-104823380D01*
X130924523Y-104823380D01*
X130829285Y-104775761D01*
X130781666Y-104728142D01*
X132019761Y-103823380D02*
X132115000Y-103823380D01*
X132210238Y-103871000D01*
X132257857Y-103918619D01*
X132305476Y-104013857D01*
X132353095Y-104204333D01*
X132353095Y-104442428D01*
X132305476Y-104632904D01*
X132257857Y-104728142D01*
X132210238Y-104775761D01*
X132115000Y-104823380D01*
X132019761Y-104823380D01*
X131924523Y-104775761D01*
X131876904Y-104728142D01*
X131829285Y-104632904D01*
X131781666Y-104442428D01*
X131781666Y-104204333D01*
X131829285Y-104013857D01*
X131876904Y-103918619D01*
X131924523Y-103871000D01*
X132019761Y-103823380D01*
X130948333Y-99383380D02*
X130615000Y-98907190D01*
X130376904Y-99383380D02*
X130376904Y-98383380D01*
X130757857Y-98383380D01*
X130853095Y-98431000D01*
X130900714Y-98478619D01*
X130948333Y-98573857D01*
X130948333Y-98716714D01*
X130900714Y-98811952D01*
X130853095Y-98859571D01*
X130757857Y-98907190D01*
X130376904Y-98907190D01*
X131329285Y-98478619D02*
X131376904Y-98431000D01*
X131472142Y-98383380D01*
X131710238Y-98383380D01*
X131805476Y-98431000D01*
X131853095Y-98478619D01*
X131900714Y-98573857D01*
X131900714Y-98669095D01*
X131853095Y-98811952D01*
X131281666Y-99383380D01*
X131900714Y-99383380D01*
X114231266Y-94357457D02*
X114231266Y-93881266D01*
X114516980Y-94452695D02*
X113516980Y-94119361D01*
X114516980Y-93786028D01*
X113516980Y-93595552D02*
X113516980Y-93024123D01*
X114516980Y-93309838D02*
X113516980Y-93309838D01*
X114516980Y-92690790D02*
X113850314Y-92690790D01*
X113945552Y-92690790D02*
X113897933Y-92643171D01*
X113850314Y-92547933D01*
X113850314Y-92405076D01*
X113897933Y-92309838D01*
X113993171Y-92262219D01*
X114516980Y-92262219D01*
X113993171Y-92262219D02*
X113897933Y-92214600D01*
X113850314Y-92119361D01*
X113850314Y-91976504D01*
X113897933Y-91881266D01*
X113993171Y-91833647D01*
X114516980Y-91833647D01*
X114469361Y-90976504D02*
X114516980Y-91071742D01*
X114516980Y-91262219D01*
X114469361Y-91357457D01*
X114374123Y-91405076D01*
X113993171Y-91405076D01*
X113897933Y-91357457D01*
X113850314Y-91262219D01*
X113850314Y-91071742D01*
X113897933Y-90976504D01*
X113993171Y-90928885D01*
X114088409Y-90928885D01*
X114183647Y-91405076D01*
X113850314Y-90071742D02*
X114659838Y-90071742D01*
X114755076Y-90119361D01*
X114802695Y-90166980D01*
X114850314Y-90262219D01*
X114850314Y-90405076D01*
X114802695Y-90500314D01*
X114469361Y-90071742D02*
X114516980Y-90166980D01*
X114516980Y-90357457D01*
X114469361Y-90452695D01*
X114421742Y-90500314D01*
X114326504Y-90547933D01*
X114040790Y-90547933D01*
X113945552Y-90500314D01*
X113897933Y-90452695D01*
X113850314Y-90357457D01*
X113850314Y-90166980D01*
X113897933Y-90071742D01*
X114516980Y-89166980D02*
X113993171Y-89166980D01*
X113897933Y-89214600D01*
X113850314Y-89309838D01*
X113850314Y-89500314D01*
X113897933Y-89595552D01*
X114469361Y-89166980D02*
X114516980Y-89262219D01*
X114516980Y-89500314D01*
X114469361Y-89595552D01*
X114374123Y-89643171D01*
X114278885Y-89643171D01*
X114183647Y-89595552D01*
X114136028Y-89500314D01*
X114136028Y-89262219D01*
X114088409Y-89166980D01*
X114516980Y-88166980D02*
X114516980Y-88738409D01*
X114516980Y-88452695D02*
X113516980Y-88452695D01*
X113659838Y-88547933D01*
X113755076Y-88643171D01*
X113802695Y-88738409D01*
X113516980Y-87309838D02*
X113516980Y-87500314D01*
X113564600Y-87595552D01*
X113612219Y-87643171D01*
X113755076Y-87738409D01*
X113945552Y-87786028D01*
X114326504Y-87786028D01*
X114421742Y-87738409D01*
X114469361Y-87690790D01*
X114516980Y-87595552D01*
X114516980Y-87405076D01*
X114469361Y-87309838D01*
X114421742Y-87262219D01*
X114326504Y-87214600D01*
X114088409Y-87214600D01*
X113993171Y-87262219D01*
X113945552Y-87309838D01*
X113897933Y-87405076D01*
X113897933Y-87595552D01*
X113945552Y-87690790D01*
X113993171Y-87738409D01*
X114088409Y-87786028D01*
X114231266Y-86833647D02*
X114231266Y-86357457D01*
X114516980Y-86928885D02*
X113516980Y-86595552D01*
X114516980Y-86262219D01*
X114136028Y-85928885D02*
X114136028Y-85166980D01*
X114516980Y-84690790D02*
X113516980Y-84690790D01*
X113516980Y-84309838D01*
X113564600Y-84214600D01*
X113612219Y-84166980D01*
X113707457Y-84119361D01*
X113850314Y-84119361D01*
X113945552Y-84166980D01*
X113993171Y-84214600D01*
X114040790Y-84309838D01*
X114040790Y-84690790D01*
X113516980Y-83690790D02*
X114326504Y-83690790D01*
X114421742Y-83643171D01*
X114469361Y-83595552D01*
X114516980Y-83500314D01*
X114516980Y-83309838D01*
X114469361Y-83214600D01*
X114421742Y-83166980D01*
X114326504Y-83119361D01*
X113516980Y-83119361D01*
X87056980Y-89476504D02*
X87866504Y-89476504D01*
X87961742Y-89428885D01*
X88009361Y-89381266D01*
X88056980Y-89286028D01*
X88056980Y-89095552D01*
X88009361Y-89000314D01*
X87961742Y-88952695D01*
X87866504Y-88905076D01*
X87056980Y-88905076D01*
X88056980Y-87905076D02*
X88056980Y-88476504D01*
X88056980Y-88190790D02*
X87056980Y-88190790D01*
X87199838Y-88286028D01*
X87295076Y-88381266D01*
X87342695Y-88476504D01*
M02*
