%TF.GenerationSoftware,KiCad,Pcbnew,5.1.6-c6e7f7d~86~ubuntu18.04.1*%
%TF.CreationDate,2020-05-25T18:46:22+02:00*%
%TF.ProjectId,avr_dev_board_atmega16,6176725f-6465-4765-9f62-6f6172645f61,1_0*%
%TF.SameCoordinates,PX2652348PY7832370*%
%TF.FileFunction,Legend,Bot*%
%TF.FilePolarity,Positive*%
%FSLAX46Y46*%
G04 Gerber Fmt 4.6, Leading zero omitted, Abs format (unit mm)*
G04 Created by KiCad (PCBNEW 5.1.6-c6e7f7d~86~ubuntu18.04.1) date 2020-05-25 18:46:22*
%MOMM*%
%LPD*%
G01*
G04 APERTURE LIST*
%ADD10C,1.802000*%
%ADD11C,1.702000*%
%ADD12O,1.829200X1.829200*%
%ADD13R,1.829200X1.829200*%
%ADD14O,1.802000X1.802000*%
%ADD15R,1.802000X1.802000*%
%ADD16C,2.102000*%
%ADD17R,1.702000X1.702000*%
%ADD18O,2.302000X2.302000*%
%ADD19R,2.302000X2.302000*%
%ADD20O,3.302000X3.302000*%
%ADD21R,3.302000X3.302000*%
%ADD22C,1.902000*%
%ADD23R,1.902000X1.902000*%
%ADD24O,1.702000X1.702000*%
G04 APERTURE END LIST*
%LPC*%
D10*
%TO.C,Y1*%
X78433400Y39870200D03*
X78433400Y34870200D03*
%TD*%
D11*
%TO.C,C8*%
X80933400Y44940200D03*
X75933400Y44940200D03*
%TD*%
%TO.C,C7*%
X80933400Y29700200D03*
X75933400Y29700200D03*
%TD*%
D12*
%TO.C,J1*%
X15011600Y47040800D03*
X12471600Y47040800D03*
X15011600Y49580800D03*
X12471600Y49580800D03*
X15011600Y52120800D03*
X12471600Y52120800D03*
X15011600Y54660800D03*
X12471600Y54660800D03*
X15011600Y57200800D03*
D13*
X12471600Y57200800D03*
%TD*%
D14*
%TO.C,J6*%
X79286400Y3959800D03*
D15*
X76746400Y3959800D03*
%TD*%
D14*
%TO.C,J2*%
X89612400Y35229800D03*
D15*
X89612400Y37769800D03*
%TD*%
D14*
%TO.C,J7*%
X69026300Y3959800D03*
X66486300Y3959800D03*
X63946300Y3959800D03*
X61406300Y3959800D03*
X58866300Y3959800D03*
X56326300Y3959800D03*
X53786300Y3959800D03*
D15*
X51246300Y3959800D03*
%TD*%
D14*
%TO.C,J4*%
X51346400Y75079400D03*
X53886400Y75079400D03*
X56426400Y75079400D03*
X58966400Y75079400D03*
X61506400Y75079400D03*
X64046400Y75079400D03*
X66586400Y75079400D03*
D15*
X69126400Y75079400D03*
%TD*%
D14*
%TO.C,J3*%
X41072000Y75129400D03*
X38532000Y75129400D03*
X35992000Y75129400D03*
X33452000Y75129400D03*
X30912000Y75129400D03*
X28372000Y75129400D03*
X25832000Y75129400D03*
D15*
X23292000Y75129400D03*
%TD*%
D14*
%TO.C,J5*%
X33452000Y4009800D03*
X30912000Y4009800D03*
X28372000Y4009800D03*
X25832000Y4009800D03*
D15*
X23292000Y4009800D03*
%TD*%
D16*
%TO.C,SW1*%
X10113600Y5005800D03*
X5613600Y5005800D03*
X10113600Y11505800D03*
X5613600Y11505800D03*
%TD*%
D11*
%TO.C,C1*%
X13168200Y19354800D03*
D17*
X10668200Y19354800D03*
%TD*%
D11*
%TO.C,C2*%
X43612000Y53597800D03*
X43612000Y48597800D03*
%TD*%
%TO.C,C3*%
X46152000Y21098000D03*
X46152000Y26098000D03*
%TD*%
%TO.C,C4*%
X48692000Y48597800D03*
X48692000Y53597800D03*
%TD*%
%TO.C,C5*%
X81383400Y21383800D03*
D17*
X78883400Y21383800D03*
%TD*%
D11*
%TO.C,C6*%
X82790400Y14045800D03*
X77790400Y14045800D03*
%TD*%
D18*
%TO.C,D1*%
X5613600Y19354800D03*
D19*
X5613600Y29514800D03*
%TD*%
D20*
%TO.C,D2*%
X91211400Y66522600D03*
D21*
X91211400Y51282600D03*
%TD*%
D22*
%TO.C,D3*%
X90062400Y6680800D03*
D23*
X90062400Y4140800D03*
%TD*%
D24*
%TO.C,R1*%
X10490400Y26098500D03*
D11*
X13030400Y26098500D03*
%TD*%
D24*
%TO.C,R2*%
X92202400Y24383800D03*
D11*
X89662400Y24383800D03*
%TD*%
D24*
%TO.C,U1*%
X23292000Y44940200D03*
X71552000Y29700200D03*
X25832000Y44940200D03*
X69012000Y29700200D03*
X28372000Y44940200D03*
X66472000Y29700200D03*
X30912000Y44940200D03*
X63932000Y29700200D03*
X33452000Y44940200D03*
X61392000Y29700200D03*
X35992000Y44940200D03*
X58852000Y29700200D03*
X38532000Y44940200D03*
X56312000Y29700200D03*
X41072000Y44940200D03*
X53772000Y29700200D03*
X43612000Y44940200D03*
X51232000Y29700200D03*
X46152000Y44940200D03*
X48692000Y29700200D03*
X48692000Y44940200D03*
X46152000Y29700200D03*
X51232000Y44940200D03*
X43612000Y29700200D03*
X53772000Y44940200D03*
X41072000Y29700200D03*
X56312000Y44940200D03*
X38532000Y29700200D03*
X58852000Y44940200D03*
X35992000Y29700200D03*
X61392000Y44940200D03*
X33452000Y29700200D03*
X63932000Y44940200D03*
X30912000Y29700200D03*
X66472000Y44940200D03*
X28372000Y29700200D03*
X69012000Y44940200D03*
X25832000Y29700200D03*
X71552000Y44940200D03*
D17*
X23292000Y29700200D03*
%TD*%
M02*
