%TF.GenerationSoftware,KiCad,Pcbnew,5.1.4-3.fc30*%
%TF.CreationDate,2019-10-13T14:32:02+02:00*%
%TF.ProjectId,avr_dev_board_atmega16,6176725f-6465-4765-9f62-6f6172645f61,1_0*%
%TF.SameCoordinates,PX2652348PY7832370*%
%TF.FileFunction,Legend,Top*%
%TF.FilePolarity,Positive*%
%FSLAX46Y46*%
G04 Gerber Fmt 4.6, Leading zero omitted, Abs format (unit mm)*
G04 Created by KiCad (PCBNEW 5.1.4-3.fc30) date 2019-10-13 14:32:02*
%MOMM*%
%LPD*%
G04 APERTURE LIST*
%ADD10C,0.300000*%
%ADD11C,0.120000*%
%ADD12C,0.150000*%
%ADD13C,1.802000*%
%ADD14C,1.702000*%
%ADD15O,1.829200X1.829200*%
%ADD16R,1.829200X1.829200*%
%ADD17O,1.802000X1.802000*%
%ADD18R,1.802000X1.802000*%
%ADD19C,2.102000*%
%ADD20R,1.702000X1.702000*%
%ADD21O,2.302000X2.302000*%
%ADD22R,2.302000X2.302000*%
%ADD23O,3.302000X3.302000*%
%ADD24R,3.302000X3.302000*%
%ADD25C,1.902000*%
%ADD26R,1.902000X1.902000*%
%ADD27O,1.702000X1.702000*%
G04 APERTURE END LIST*
D10*
X83261733Y40952421D02*
X83261733Y41904802D01*
X83833161Y40761945D02*
X81833161Y41428611D01*
X83833161Y42095278D01*
X82499828Y42476230D02*
X82499828Y43238135D01*
X81833161Y42761945D02*
X83547447Y42761945D01*
X83737923Y42857183D01*
X83833161Y43047659D01*
X83833161Y43238135D01*
X83833161Y43904802D02*
X82499828Y43904802D01*
X82690304Y43904802D02*
X82595066Y44000040D01*
X82499828Y44190516D01*
X82499828Y44476230D01*
X82595066Y44666707D01*
X82785542Y44761945D01*
X83833161Y44761945D01*
X82785542Y44761945D02*
X82595066Y44857183D01*
X82499828Y45047659D01*
X82499828Y45333373D01*
X82595066Y45523849D01*
X82785542Y45619088D01*
X83833161Y45619088D01*
X83737923Y47333373D02*
X83833161Y47142897D01*
X83833161Y46761945D01*
X83737923Y46571468D01*
X83547447Y46476230D01*
X82785542Y46476230D01*
X82595066Y46571468D01*
X82499828Y46761945D01*
X82499828Y47142897D01*
X82595066Y47333373D01*
X82785542Y47428611D01*
X82976019Y47428611D01*
X83166495Y46476230D01*
X82499828Y49142897D02*
X84118876Y49142897D01*
X84309352Y49047659D01*
X84404590Y48952421D01*
X84499828Y48761945D01*
X84499828Y48476230D01*
X84404590Y48285754D01*
X83737923Y49142897D02*
X83833161Y48952421D01*
X83833161Y48571468D01*
X83737923Y48380992D01*
X83642685Y48285754D01*
X83452209Y48190516D01*
X82880780Y48190516D01*
X82690304Y48285754D01*
X82595066Y48380992D01*
X82499828Y48571468D01*
X82499828Y48952421D01*
X82595066Y49142897D01*
X83833161Y50952421D02*
X82785542Y50952421D01*
X82595066Y50857183D01*
X82499828Y50666707D01*
X82499828Y50285754D01*
X82595066Y50095278D01*
X83737923Y50952421D02*
X83833161Y50761945D01*
X83833161Y50285754D01*
X83737923Y50095278D01*
X83547447Y50000040D01*
X83356971Y50000040D01*
X83166495Y50095278D01*
X83071257Y50285754D01*
X83071257Y50761945D01*
X82976019Y50952421D01*
X83833161Y52952421D02*
X83833161Y51809564D01*
X83833161Y52380992D02*
X81833161Y52380992D01*
X82118876Y52190516D01*
X82309352Y52000040D01*
X82404590Y51809564D01*
X81833161Y54666707D02*
X81833161Y54285754D01*
X81928400Y54095278D01*
X82023638Y54000040D01*
X82309352Y53809564D01*
X82690304Y53714326D01*
X83452209Y53714326D01*
X83642685Y53809564D01*
X83737923Y53904802D01*
X83833161Y54095278D01*
X83833161Y54476230D01*
X83737923Y54666707D01*
X83642685Y54761945D01*
X83452209Y54857183D01*
X82976019Y54857183D01*
X82785542Y54761945D01*
X82690304Y54666707D01*
X82595066Y54476230D01*
X82595066Y54095278D01*
X82690304Y53904802D01*
X82785542Y53809564D01*
X82976019Y53714326D01*
X83261733Y55619088D02*
X83261733Y56571468D01*
X83833161Y55428611D02*
X81833161Y56095278D01*
X83833161Y56761945D01*
X83833161Y58952421D02*
X81833161Y58952421D01*
X81833161Y59428611D01*
X81928400Y59714326D01*
X82118876Y59904802D01*
X82309352Y60000040D01*
X82690304Y60095278D01*
X82976019Y60095278D01*
X83356971Y60000040D01*
X83547447Y59904802D01*
X83737923Y59714326D01*
X83833161Y59428611D01*
X83833161Y58952421D01*
X83737923Y61714326D02*
X83833161Y61523849D01*
X83833161Y61142897D01*
X83737923Y60952421D01*
X83547447Y60857183D01*
X82785542Y60857183D01*
X82595066Y60952421D01*
X82499828Y61142897D01*
X82499828Y61523849D01*
X82595066Y61714326D01*
X82785542Y61809564D01*
X82976019Y61809564D01*
X83166495Y60857183D01*
X82499828Y62476230D02*
X83833161Y62952421D01*
X82499828Y63428611D01*
X82785542Y66380992D02*
X82880780Y66666707D01*
X82976019Y66761945D01*
X83166495Y66857183D01*
X83452209Y66857183D01*
X83642685Y66761945D01*
X83737923Y66666707D01*
X83833161Y66476230D01*
X83833161Y65714326D01*
X81833161Y65714326D01*
X81833161Y66380992D01*
X81928400Y66571468D01*
X82023638Y66666707D01*
X82214114Y66761945D01*
X82404590Y66761945D01*
X82595066Y66666707D01*
X82690304Y66571468D01*
X82785542Y66380992D01*
X82785542Y65714326D01*
X83833161Y68000040D02*
X83737923Y67809564D01*
X83642685Y67714326D01*
X83452209Y67619088D01*
X82880780Y67619088D01*
X82690304Y67714326D01*
X82595066Y67809564D01*
X82499828Y68000040D01*
X82499828Y68285754D01*
X82595066Y68476230D01*
X82690304Y68571468D01*
X82880780Y68666707D01*
X83452209Y68666707D01*
X83642685Y68571468D01*
X83737923Y68476230D01*
X83833161Y68285754D01*
X83833161Y68000040D01*
X83833161Y70380992D02*
X82785542Y70380992D01*
X82595066Y70285754D01*
X82499828Y70095278D01*
X82499828Y69714326D01*
X82595066Y69523849D01*
X83737923Y70380992D02*
X83833161Y70190516D01*
X83833161Y69714326D01*
X83737923Y69523849D01*
X83547447Y69428611D01*
X83356971Y69428611D01*
X83166495Y69523849D01*
X83071257Y69714326D01*
X83071257Y70190516D01*
X82976019Y70380992D01*
X83833161Y71333373D02*
X82499828Y71333373D01*
X82880780Y71333373D02*
X82690304Y71428611D01*
X82595066Y71523849D01*
X82499828Y71714326D01*
X82499828Y71904802D01*
X83833161Y73428611D02*
X81833161Y73428611D01*
X83737923Y73428611D02*
X83833161Y73238135D01*
X83833161Y72857183D01*
X83737923Y72666707D01*
X83642685Y72571468D01*
X83452209Y72476230D01*
X82880780Y72476230D01*
X82690304Y72571468D01*
X82595066Y72666707D01*
X82499828Y72857183D01*
X82499828Y73238135D01*
X82595066Y73428611D01*
X87133161Y41047659D02*
X85133161Y41047659D01*
X85895066Y41047659D02*
X85799828Y41238135D01*
X85799828Y41619088D01*
X85895066Y41809564D01*
X85990304Y41904802D01*
X86180780Y42000040D01*
X86752209Y42000040D01*
X86942685Y41904802D01*
X87037923Y41809564D01*
X87133161Y41619088D01*
X87133161Y41238135D01*
X87037923Y41047659D01*
X85799828Y42666707D02*
X87133161Y43142897D01*
X85799828Y43619088D02*
X87133161Y43142897D01*
X87609352Y42952421D01*
X87704590Y42857183D01*
X87799828Y42666707D01*
X87037923Y45809564D02*
X87133161Y46095278D01*
X87133161Y46571468D01*
X87037923Y46761945D01*
X86942685Y46857183D01*
X86752209Y46952421D01*
X86561733Y46952421D01*
X86371257Y46857183D01*
X86276019Y46761945D01*
X86180780Y46571468D01*
X86085542Y46190516D01*
X85990304Y46000040D01*
X85895066Y45904802D01*
X85704590Y45809564D01*
X85514114Y45809564D01*
X85323638Y45904802D01*
X85228400Y46000040D01*
X85133161Y46190516D01*
X85133161Y46666707D01*
X85228400Y46952421D01*
X87323638Y49142897D02*
X87228400Y48952421D01*
X87037923Y48761945D01*
X86752209Y48476230D01*
X86656971Y48285754D01*
X86656971Y48095278D01*
X87133161Y48190516D02*
X87037923Y48000040D01*
X86847447Y47809564D01*
X86466495Y47714326D01*
X85799828Y47714326D01*
X85418876Y47809564D01*
X85228400Y48000040D01*
X85133161Y48190516D01*
X85133161Y48571468D01*
X85228400Y48761945D01*
X85418876Y48952421D01*
X85799828Y49047659D01*
X86466495Y49047659D01*
X86847447Y48952421D01*
X87037923Y48761945D01*
X87133161Y48571468D01*
X87133161Y48190516D01*
X85133161Y49714326D02*
X85133161Y51047659D01*
X87133161Y50190516D01*
X86085542Y51809564D02*
X86085542Y52476230D01*
X87133161Y52761945D02*
X87133161Y51809564D01*
X85133161Y51809564D01*
X85133161Y52761945D01*
X87323638Y54952421D02*
X87228400Y54761945D01*
X87037923Y54571468D01*
X86752209Y54285754D01*
X86656971Y54095278D01*
X86656971Y53904802D01*
X87133161Y54000040D02*
X87037923Y53809564D01*
X86847447Y53619088D01*
X86466495Y53523849D01*
X85799828Y53523849D01*
X85418876Y53619088D01*
X85228400Y53809564D01*
X85133161Y54000040D01*
X85133161Y54380992D01*
X85228400Y54571468D01*
X85418876Y54761945D01*
X85799828Y54857183D01*
X86466495Y54857183D01*
X86847447Y54761945D01*
X87037923Y54571468D01*
X87133161Y54380992D01*
X87133161Y54000040D01*
X86085542Y55714326D02*
X86085542Y56380992D01*
X87133161Y56666707D02*
X87133161Y55714326D01*
X85133161Y55714326D01*
X85133161Y56666707D01*
D11*
%TO.C,Y1*%
X79482361Y40207990D02*
G75*
G02X80133400Y38870200I-1048961J-1337790D01*
G01*
X79482361Y34532410D02*
G75*
G03X80133400Y35870200I-1048961J1337790D01*
G01*
X77384439Y40207990D02*
G75*
G03X76733400Y38870200I1048961J-1337790D01*
G01*
X77384439Y34532410D02*
G75*
G02X76733400Y35870200I1048961J1337790D01*
G01*
X80133400Y35870200D02*
X80133400Y38870200D01*
X76733400Y35870200D02*
X76733400Y38870200D01*
%TO.C,C8*%
X80903400Y43885200D02*
X80903400Y43570200D01*
X80903400Y46310200D02*
X80903400Y45995200D01*
X75963400Y43885200D02*
X75963400Y43570200D01*
X75963400Y46310200D02*
X75963400Y45995200D01*
X75963400Y43570200D02*
X80903400Y43570200D01*
X75963400Y46310200D02*
X80903400Y46310200D01*
%TO.C,C7*%
X80903400Y28645200D02*
X80903400Y28330200D01*
X80903400Y31070200D02*
X80903400Y30755200D01*
X75963400Y28645200D02*
X75963400Y28330200D01*
X75963400Y31070200D02*
X75963400Y30755200D01*
X75963400Y28330200D02*
X80903400Y28330200D01*
X75963400Y31070200D02*
X80903400Y31070200D01*
%TO.C,J1*%
X8816600Y62800800D02*
X11356600Y62800800D01*
X8816600Y62800800D02*
X8816600Y60260800D01*
X9066600Y62550800D02*
X18416600Y62550800D01*
X9066600Y41690800D02*
X9066600Y62550800D01*
X18416600Y41690800D02*
X9066600Y41690800D01*
X18416600Y62550800D02*
X18416600Y41690800D01*
%TO.C,J6*%
X75416400Y3959800D02*
X75416400Y5289800D01*
X75416400Y5289800D02*
X76746400Y5289800D01*
X78016400Y5289800D02*
X80616400Y5289800D01*
X80616400Y2629800D02*
X80616400Y5289800D01*
X78016400Y2629800D02*
X80616400Y2629800D01*
X78016400Y2629800D02*
X78016400Y5289800D01*
%TO.C,J2*%
X88282400Y39099800D02*
X89612400Y39099800D01*
X88282400Y37769800D02*
X88282400Y39099800D01*
X88282400Y36499800D02*
X90942400Y36499800D01*
X90942400Y36499800D02*
X90942400Y33899800D01*
X88282400Y36499800D02*
X88282400Y33899800D01*
X88282400Y33899800D02*
X90942400Y33899800D01*
%TO.C,J7*%
X49916300Y3959800D02*
X49916300Y5289800D01*
X49916300Y5289800D02*
X51246300Y5289800D01*
X52516300Y5289800D02*
X70356300Y5289800D01*
X70356300Y2629800D02*
X70356300Y5289800D01*
X52516300Y2629800D02*
X70356300Y2629800D01*
X52516300Y2629800D02*
X52516300Y5289800D01*
%TO.C,J4*%
X70456400Y75079400D02*
X70456400Y73749400D01*
X70456400Y73749400D02*
X69126400Y73749400D01*
X67856400Y73749400D02*
X50016400Y73749400D01*
X50016400Y76409400D02*
X50016400Y73749400D01*
X67856400Y76409400D02*
X50016400Y76409400D01*
X67856400Y76409400D02*
X67856400Y73749400D01*
%TO.C,J3*%
X21962000Y75129400D02*
X21962000Y76459400D01*
X21962000Y76459400D02*
X23292000Y76459400D01*
X24562000Y76459400D02*
X42402000Y76459400D01*
X42402000Y73799400D02*
X42402000Y76459400D01*
X24562000Y73799400D02*
X42402000Y73799400D01*
X24562000Y73799400D02*
X24562000Y76459400D01*
%TO.C,J5*%
X21962000Y4009800D02*
X21962000Y5339800D01*
X21962000Y5339800D02*
X23292000Y5339800D01*
X24562000Y5339800D02*
X34782000Y5339800D01*
X34782000Y2679800D02*
X34782000Y5339800D01*
X24562000Y2679800D02*
X34782000Y2679800D01*
X24562000Y2679800D02*
X24562000Y5339800D01*
%TO.C,SW1*%
X7113600Y4755800D02*
X8613600Y4755800D01*
X11113600Y6005800D02*
X11113600Y10505800D01*
X8613600Y11755800D02*
X7113600Y11755800D01*
X4613600Y10505800D02*
X4613600Y6005800D01*
%TO.C,C1*%
X9363425Y21079800D02*
X9363425Y20579800D01*
X9113425Y20829800D02*
X9613425Y20829800D01*
X14519200Y19638800D02*
X14519200Y19070800D01*
X14479200Y19872800D02*
X14479200Y18836800D01*
X14439200Y20031800D02*
X14439200Y18677800D01*
X14399200Y20159800D02*
X14399200Y18549800D01*
X14359200Y20269800D02*
X14359200Y18439800D01*
X14319200Y20365800D02*
X14319200Y18343800D01*
X14279200Y20452800D02*
X14279200Y18256800D01*
X14239200Y20532800D02*
X14239200Y18176800D01*
X14199200Y18314800D02*
X14199200Y18103800D01*
X14199200Y20605800D02*
X14199200Y20394800D01*
X14159200Y18314800D02*
X14159200Y18035800D01*
X14159200Y20673800D02*
X14159200Y20394800D01*
X14119200Y18314800D02*
X14119200Y17971800D01*
X14119200Y20737800D02*
X14119200Y20394800D01*
X14079200Y18314800D02*
X14079200Y17911800D01*
X14079200Y20797800D02*
X14079200Y20394800D01*
X14039200Y18314800D02*
X14039200Y17854800D01*
X14039200Y20854800D02*
X14039200Y20394800D01*
X13999200Y18314800D02*
X13999200Y17800800D01*
X13999200Y20908800D02*
X13999200Y20394800D01*
X13959200Y18314800D02*
X13959200Y17749800D01*
X13959200Y20959800D02*
X13959200Y20394800D01*
X13919200Y18314800D02*
X13919200Y17701800D01*
X13919200Y21007800D02*
X13919200Y20394800D01*
X13879200Y18314800D02*
X13879200Y17655800D01*
X13879200Y21053800D02*
X13879200Y20394800D01*
X13839200Y18314800D02*
X13839200Y17611800D01*
X13839200Y21097800D02*
X13839200Y20394800D01*
X13799200Y18314800D02*
X13799200Y17569800D01*
X13799200Y21139800D02*
X13799200Y20394800D01*
X13759200Y18314800D02*
X13759200Y17528800D01*
X13759200Y21180800D02*
X13759200Y20394800D01*
X13719200Y18314800D02*
X13719200Y17490800D01*
X13719200Y21218800D02*
X13719200Y20394800D01*
X13679200Y18314800D02*
X13679200Y17453800D01*
X13679200Y21255800D02*
X13679200Y20394800D01*
X13639200Y18314800D02*
X13639200Y17417800D01*
X13639200Y21291800D02*
X13639200Y20394800D01*
X13599200Y18314800D02*
X13599200Y17383800D01*
X13599200Y21325800D02*
X13599200Y20394800D01*
X13559200Y18314800D02*
X13559200Y17350800D01*
X13559200Y21358800D02*
X13559200Y20394800D01*
X13519200Y18314800D02*
X13519200Y17319800D01*
X13519200Y21389800D02*
X13519200Y20394800D01*
X13479200Y18314800D02*
X13479200Y17289800D01*
X13479200Y21419800D02*
X13479200Y20394800D01*
X13439200Y18314800D02*
X13439200Y17259800D01*
X13439200Y21449800D02*
X13439200Y20394800D01*
X13399200Y18314800D02*
X13399200Y17232800D01*
X13399200Y21476800D02*
X13399200Y20394800D01*
X13359200Y18314800D02*
X13359200Y17205800D01*
X13359200Y21503800D02*
X13359200Y20394800D01*
X13319200Y18314800D02*
X13319200Y17179800D01*
X13319200Y21529800D02*
X13319200Y20394800D01*
X13279200Y18314800D02*
X13279200Y17154800D01*
X13279200Y21554800D02*
X13279200Y20394800D01*
X13239200Y18314800D02*
X13239200Y17130800D01*
X13239200Y21578800D02*
X13239200Y20394800D01*
X13199200Y18314800D02*
X13199200Y17107800D01*
X13199200Y21601800D02*
X13199200Y20394800D01*
X13159200Y18314800D02*
X13159200Y17086800D01*
X13159200Y21622800D02*
X13159200Y20394800D01*
X13119200Y18314800D02*
X13119200Y17064800D01*
X13119200Y21644800D02*
X13119200Y20394800D01*
X13079200Y18314800D02*
X13079200Y17044800D01*
X13079200Y21664800D02*
X13079200Y20394800D01*
X13039200Y18314800D02*
X13039200Y17025800D01*
X13039200Y21683800D02*
X13039200Y20394800D01*
X12999200Y18314800D02*
X12999200Y17006800D01*
X12999200Y21702800D02*
X12999200Y20394800D01*
X12959200Y18314800D02*
X12959200Y16989800D01*
X12959200Y21719800D02*
X12959200Y20394800D01*
X12919200Y18314800D02*
X12919200Y16972800D01*
X12919200Y21736800D02*
X12919200Y20394800D01*
X12879200Y18314800D02*
X12879200Y16956800D01*
X12879200Y21752800D02*
X12879200Y20394800D01*
X12839200Y18314800D02*
X12839200Y16940800D01*
X12839200Y21768800D02*
X12839200Y20394800D01*
X12799200Y18314800D02*
X12799200Y16926800D01*
X12799200Y21782800D02*
X12799200Y20394800D01*
X12759200Y18314800D02*
X12759200Y16912800D01*
X12759200Y21796800D02*
X12759200Y20394800D01*
X12719200Y18314800D02*
X12719200Y16899800D01*
X12719200Y21809800D02*
X12719200Y20394800D01*
X12679200Y18314800D02*
X12679200Y16886800D01*
X12679200Y21822800D02*
X12679200Y20394800D01*
X12639200Y18314800D02*
X12639200Y16874800D01*
X12639200Y21834800D02*
X12639200Y20394800D01*
X12598200Y18314800D02*
X12598200Y16863800D01*
X12598200Y21845800D02*
X12598200Y20394800D01*
X12558200Y18314800D02*
X12558200Y16853800D01*
X12558200Y21855800D02*
X12558200Y20394800D01*
X12518200Y18314800D02*
X12518200Y16843800D01*
X12518200Y21865800D02*
X12518200Y20394800D01*
X12478200Y18314800D02*
X12478200Y16834800D01*
X12478200Y21874800D02*
X12478200Y20394800D01*
X12438200Y18314800D02*
X12438200Y16826800D01*
X12438200Y21882800D02*
X12438200Y20394800D01*
X12398200Y18314800D02*
X12398200Y16818800D01*
X12398200Y21890800D02*
X12398200Y20394800D01*
X12358200Y18314800D02*
X12358200Y16811800D01*
X12358200Y21897800D02*
X12358200Y20394800D01*
X12318200Y18314800D02*
X12318200Y16804800D01*
X12318200Y21904800D02*
X12318200Y20394800D01*
X12278200Y18314800D02*
X12278200Y16798800D01*
X12278200Y21910800D02*
X12278200Y20394800D01*
X12238200Y18314800D02*
X12238200Y16793800D01*
X12238200Y21915800D02*
X12238200Y20394800D01*
X12198200Y18314800D02*
X12198200Y16789800D01*
X12198200Y21919800D02*
X12198200Y20394800D01*
X12158200Y18314800D02*
X12158200Y16785800D01*
X12158200Y21923800D02*
X12158200Y20394800D01*
X12118200Y21927800D02*
X12118200Y16781800D01*
X12078200Y21930800D02*
X12078200Y16778800D01*
X12038200Y21932800D02*
X12038200Y16776800D01*
X11998200Y21933800D02*
X11998200Y16775800D01*
X11958200Y21934800D02*
X11958200Y16774800D01*
X11918200Y21934800D02*
X11918200Y16774800D01*
X14538200Y19354800D02*
G75*
G03X14538200Y19354800I-2620000J0D01*
G01*
%TO.C,C2*%
X44667000Y53367800D02*
X44682000Y53367800D01*
X42542000Y53367800D02*
X42557000Y53367800D01*
X44667000Y48827800D02*
X44682000Y48827800D01*
X42542000Y48827800D02*
X42557000Y48827800D01*
X44682000Y48827800D02*
X44682000Y53367800D01*
X42542000Y48827800D02*
X42542000Y53367800D01*
%TO.C,C3*%
X45097000Y21328000D02*
X45082000Y21328000D01*
X47222000Y21328000D02*
X47207000Y21328000D01*
X45097000Y25868000D02*
X45082000Y25868000D01*
X47222000Y25868000D02*
X47207000Y25868000D01*
X45082000Y25868000D02*
X45082000Y21328000D01*
X47222000Y25868000D02*
X47222000Y21328000D01*
%TO.C,C4*%
X47637000Y48827800D02*
X47622000Y48827800D01*
X49762000Y48827800D02*
X49747000Y48827800D01*
X47637000Y53367800D02*
X47622000Y53367800D01*
X49762000Y53367800D02*
X49747000Y53367800D01*
X47622000Y53367800D02*
X47622000Y48827800D01*
X49762000Y53367800D02*
X49762000Y48827800D01*
%TO.C,C5*%
X76948159Y23537800D02*
X76948159Y22907800D01*
X76633159Y23222800D02*
X77263159Y23222800D01*
X83374400Y21785800D02*
X83374400Y20981800D01*
X83334400Y22016800D02*
X83334400Y20750800D01*
X83294400Y22185800D02*
X83294400Y20581800D01*
X83254400Y22323800D02*
X83254400Y20443800D01*
X83214400Y22442800D02*
X83214400Y20324800D01*
X83174400Y22548800D02*
X83174400Y20218800D01*
X83134400Y22645800D02*
X83134400Y20121800D01*
X83094400Y22733800D02*
X83094400Y20033800D01*
X83054400Y22815800D02*
X83054400Y19951800D01*
X83014400Y22892800D02*
X83014400Y19874800D01*
X82974400Y22964800D02*
X82974400Y19802800D01*
X82934400Y23033800D02*
X82934400Y19733800D01*
X82894400Y23097800D02*
X82894400Y19669800D01*
X82854400Y23159800D02*
X82854400Y19607800D01*
X82814400Y23217800D02*
X82814400Y19549800D01*
X82774400Y23273800D02*
X82774400Y19493800D01*
X82734400Y23327800D02*
X82734400Y19439800D01*
X82694400Y23378800D02*
X82694400Y19388800D01*
X82654400Y23427800D02*
X82654400Y19339800D01*
X82614400Y23475800D02*
X82614400Y19291800D01*
X82574400Y23520800D02*
X82574400Y19246800D01*
X82534400Y23565800D02*
X82534400Y19201800D01*
X82494400Y23607800D02*
X82494400Y19159800D01*
X82454400Y23648800D02*
X82454400Y19118800D01*
X82414400Y20343800D02*
X82414400Y19078800D01*
X82414400Y23688800D02*
X82414400Y22423800D01*
X82374400Y20343800D02*
X82374400Y19040800D01*
X82374400Y23726800D02*
X82374400Y22423800D01*
X82334400Y20343800D02*
X82334400Y19003800D01*
X82334400Y23763800D02*
X82334400Y22423800D01*
X82294400Y20343800D02*
X82294400Y18967800D01*
X82294400Y23799800D02*
X82294400Y22423800D01*
X82254400Y20343800D02*
X82254400Y18933800D01*
X82254400Y23833800D02*
X82254400Y22423800D01*
X82214400Y20343800D02*
X82214400Y18899800D01*
X82214400Y23867800D02*
X82214400Y22423800D01*
X82174400Y20343800D02*
X82174400Y18867800D01*
X82174400Y23899800D02*
X82174400Y22423800D01*
X82134400Y20343800D02*
X82134400Y18835800D01*
X82134400Y23931800D02*
X82134400Y22423800D01*
X82094400Y20343800D02*
X82094400Y18805800D01*
X82094400Y23961800D02*
X82094400Y22423800D01*
X82054400Y20343800D02*
X82054400Y18776800D01*
X82054400Y23990800D02*
X82054400Y22423800D01*
X82014400Y20343800D02*
X82014400Y18747800D01*
X82014400Y24019800D02*
X82014400Y22423800D01*
X81974400Y20343800D02*
X81974400Y18719800D01*
X81974400Y24047800D02*
X81974400Y22423800D01*
X81934400Y20343800D02*
X81934400Y18693800D01*
X81934400Y24073800D02*
X81934400Y22423800D01*
X81894400Y20343800D02*
X81894400Y18667800D01*
X81894400Y24099800D02*
X81894400Y22423800D01*
X81854400Y20343800D02*
X81854400Y18641800D01*
X81854400Y24125800D02*
X81854400Y22423800D01*
X81814400Y20343800D02*
X81814400Y18617800D01*
X81814400Y24149800D02*
X81814400Y22423800D01*
X81774400Y20343800D02*
X81774400Y18593800D01*
X81774400Y24173800D02*
X81774400Y22423800D01*
X81734400Y20343800D02*
X81734400Y18571800D01*
X81734400Y24195800D02*
X81734400Y22423800D01*
X81694400Y20343800D02*
X81694400Y18549800D01*
X81694400Y24217800D02*
X81694400Y22423800D01*
X81654400Y20343800D02*
X81654400Y18527800D01*
X81654400Y24239800D02*
X81654400Y22423800D01*
X81614400Y20343800D02*
X81614400Y18507800D01*
X81614400Y24259800D02*
X81614400Y22423800D01*
X81574400Y20343800D02*
X81574400Y18487800D01*
X81574400Y24279800D02*
X81574400Y22423800D01*
X81534400Y20343800D02*
X81534400Y18467800D01*
X81534400Y24299800D02*
X81534400Y22423800D01*
X81494400Y20343800D02*
X81494400Y18449800D01*
X81494400Y24317800D02*
X81494400Y22423800D01*
X81454400Y20343800D02*
X81454400Y18431800D01*
X81454400Y24335800D02*
X81454400Y22423800D01*
X81414400Y20343800D02*
X81414400Y18413800D01*
X81414400Y24353800D02*
X81414400Y22423800D01*
X81374400Y20343800D02*
X81374400Y18397800D01*
X81374400Y24369800D02*
X81374400Y22423800D01*
X81334400Y20343800D02*
X81334400Y18381800D01*
X81334400Y24385800D02*
X81334400Y22423800D01*
X81294400Y20343800D02*
X81294400Y18365800D01*
X81294400Y24401800D02*
X81294400Y22423800D01*
X81254400Y20343800D02*
X81254400Y18350800D01*
X81254400Y24416800D02*
X81254400Y22423800D01*
X81214400Y20343800D02*
X81214400Y18336800D01*
X81214400Y24430800D02*
X81214400Y22423800D01*
X81174400Y20343800D02*
X81174400Y18322800D01*
X81174400Y24444800D02*
X81174400Y22423800D01*
X81134400Y20343800D02*
X81134400Y18309800D01*
X81134400Y24457800D02*
X81134400Y22423800D01*
X81094400Y20343800D02*
X81094400Y18297800D01*
X81094400Y24469800D02*
X81094400Y22423800D01*
X81054400Y20343800D02*
X81054400Y18285800D01*
X81054400Y24481800D02*
X81054400Y22423800D01*
X81014400Y20343800D02*
X81014400Y18273800D01*
X81014400Y24493800D02*
X81014400Y22423800D01*
X80974400Y20343800D02*
X80974400Y18262800D01*
X80974400Y24504800D02*
X80974400Y22423800D01*
X80934400Y20343800D02*
X80934400Y18252800D01*
X80934400Y24514800D02*
X80934400Y22423800D01*
X80894400Y20343800D02*
X80894400Y18242800D01*
X80894400Y24524800D02*
X80894400Y22423800D01*
X80854400Y20343800D02*
X80854400Y18233800D01*
X80854400Y24533800D02*
X80854400Y22423800D01*
X80813400Y20343800D02*
X80813400Y18224800D01*
X80813400Y24542800D02*
X80813400Y22423800D01*
X80773400Y20343800D02*
X80773400Y18216800D01*
X80773400Y24550800D02*
X80773400Y22423800D01*
X80733400Y20343800D02*
X80733400Y18208800D01*
X80733400Y24558800D02*
X80733400Y22423800D01*
X80693400Y20343800D02*
X80693400Y18201800D01*
X80693400Y24565800D02*
X80693400Y22423800D01*
X80653400Y20343800D02*
X80653400Y18194800D01*
X80653400Y24572800D02*
X80653400Y22423800D01*
X80613400Y20343800D02*
X80613400Y18188800D01*
X80613400Y24578800D02*
X80613400Y22423800D01*
X80573400Y20343800D02*
X80573400Y18182800D01*
X80573400Y24584800D02*
X80573400Y22423800D01*
X80533400Y20343800D02*
X80533400Y18177800D01*
X80533400Y24589800D02*
X80533400Y22423800D01*
X80493400Y20343800D02*
X80493400Y18172800D01*
X80493400Y24594800D02*
X80493400Y22423800D01*
X80453400Y20343800D02*
X80453400Y18168800D01*
X80453400Y24598800D02*
X80453400Y22423800D01*
X80413400Y20343800D02*
X80413400Y18165800D01*
X80413400Y24601800D02*
X80413400Y22423800D01*
X80373400Y20343800D02*
X80373400Y18161800D01*
X80373400Y24605800D02*
X80373400Y22423800D01*
X80333400Y24607800D02*
X80333400Y18159800D01*
X80293400Y24610800D02*
X80293400Y18156800D01*
X80253400Y24611800D02*
X80253400Y18155800D01*
X80213400Y24613800D02*
X80213400Y18153800D01*
X80173400Y24613800D02*
X80173400Y18153800D01*
X80133400Y24613800D02*
X80133400Y18153800D01*
X83403400Y21383800D02*
G75*
G03X83403400Y21383800I-3270000J0D01*
G01*
%TO.C,C6*%
X82560400Y12990800D02*
X82560400Y12975800D01*
X82560400Y15115800D02*
X82560400Y15100800D01*
X78020400Y12990800D02*
X78020400Y12975800D01*
X78020400Y15115800D02*
X78020400Y15100800D01*
X78020400Y12975800D02*
X82560400Y12975800D01*
X78020400Y15115800D02*
X82560400Y15115800D01*
%TO.C,D1*%
X7083600Y26374800D02*
X4143600Y26374800D01*
X7083600Y26134800D02*
X4143600Y26134800D01*
X7083600Y26254800D02*
X4143600Y26254800D01*
X5613600Y20694800D02*
X5613600Y21714800D01*
X5613600Y28174800D02*
X5613600Y27154800D01*
X7083600Y21714800D02*
X7083600Y27154800D01*
X4143600Y21714800D02*
X7083600Y21714800D01*
X4143600Y27154800D02*
X4143600Y21714800D01*
X7083600Y27154800D02*
X4143600Y27154800D01*
%TO.C,D2*%
X88491400Y55457600D02*
X93931400Y55457600D01*
X88491400Y55697600D02*
X93931400Y55697600D01*
X88491400Y55577600D02*
X93931400Y55577600D01*
X91211400Y64682600D02*
X91211400Y63772600D01*
X91211400Y53122600D02*
X91211400Y54032600D01*
X88491400Y63772600D02*
X88491400Y54032600D01*
X93931400Y63772600D02*
X88491400Y63772600D01*
X93931400Y54032600D02*
X93931400Y63772600D01*
X88491400Y54032600D02*
X93931400Y54032600D01*
%TO.C,D3*%
X91142400Y3850800D02*
X91298400Y3850800D01*
X88826400Y3850800D02*
X88982400Y3850800D01*
X91142237Y6451930D02*
G75*
G02X91142400Y4369839I-1079837J-1041130D01*
G01*
X88982563Y6451930D02*
G75*
G03X88982400Y4369839I1079837J-1041130D01*
G01*
X91141008Y7083135D02*
G75*
G02X91297916Y3850800I-1078608J-1672335D01*
G01*
X88983792Y7083135D02*
G75*
G03X88826884Y3850800I1078608J-1672335D01*
G01*
%TO.C,R1*%
X11685625Y27069880D02*
G75*
G02X11577128Y25298500I1344775J-971380D01*
G01*
%TO.C,R2*%
X91007175Y23412420D02*
G75*
G02X91115672Y25183800I-1344775J971380D01*
G01*
%TO.C,U1*%
X21962000Y43780200D02*
X21962000Y38320200D01*
X72882000Y43780200D02*
X21962000Y43780200D01*
X72882000Y30860200D02*
X72882000Y43780200D01*
X21962000Y30860200D02*
X72882000Y30860200D01*
X21962000Y36320200D02*
X21962000Y30860200D01*
X21962000Y38320200D02*
G75*
G02X21962000Y36320200I0J-1000000D01*
G01*
%TO.C,Y1*%
D12*
X75709590Y36894010D02*
X76185780Y36894010D01*
X75185780Y36560677D02*
X75709590Y36894010D01*
X75185780Y37227343D01*
X76185780Y38084486D02*
X76185780Y37513058D01*
X76185780Y37798772D02*
X75185780Y37798772D01*
X75328638Y37703534D01*
X75423876Y37608296D01*
X75471495Y37513058D01*
%TO.C,C8*%
X78266733Y47083058D02*
X78219114Y47035439D01*
X78076257Y46987820D01*
X77981019Y46987820D01*
X77838161Y47035439D01*
X77742923Y47130677D01*
X77695304Y47225915D01*
X77647685Y47416391D01*
X77647685Y47559248D01*
X77695304Y47749724D01*
X77742923Y47844962D01*
X77838161Y47940200D01*
X77981019Y47987820D01*
X78076257Y47987820D01*
X78219114Y47940200D01*
X78266733Y47892581D01*
X78838161Y47559248D02*
X78742923Y47606867D01*
X78695304Y47654486D01*
X78647685Y47749724D01*
X78647685Y47797343D01*
X78695304Y47892581D01*
X78742923Y47940200D01*
X78838161Y47987820D01*
X79028638Y47987820D01*
X79123876Y47940200D01*
X79171495Y47892581D01*
X79219114Y47797343D01*
X79219114Y47749724D01*
X79171495Y47654486D01*
X79123876Y47606867D01*
X79028638Y47559248D01*
X78838161Y47559248D01*
X78742923Y47511629D01*
X78695304Y47464010D01*
X78647685Y47368772D01*
X78647685Y47178296D01*
X78695304Y47083058D01*
X78742923Y47035439D01*
X78838161Y46987820D01*
X79028638Y46987820D01*
X79123876Y47035439D01*
X79171495Y47083058D01*
X79219114Y47178296D01*
X79219114Y47368772D01*
X79171495Y47464010D01*
X79123876Y47511629D01*
X79028638Y47559248D01*
%TO.C,C7*%
X78266733Y31843058D02*
X78219114Y31795439D01*
X78076257Y31747820D01*
X77981019Y31747820D01*
X77838161Y31795439D01*
X77742923Y31890677D01*
X77695304Y31985915D01*
X77647685Y32176391D01*
X77647685Y32319248D01*
X77695304Y32509724D01*
X77742923Y32604962D01*
X77838161Y32700200D01*
X77981019Y32747820D01*
X78076257Y32747820D01*
X78219114Y32700200D01*
X78266733Y32652581D01*
X78600066Y32747820D02*
X79266733Y32747820D01*
X78838161Y31747820D01*
%TO.C,J1*%
X13408266Y64352420D02*
X13408266Y63638134D01*
X13360647Y63495277D01*
X13265409Y63400039D01*
X13122552Y63352420D01*
X13027314Y63352420D01*
X14408266Y63352420D02*
X13836838Y63352420D01*
X14122552Y63352420D02*
X14122552Y64352420D01*
X14027314Y64209562D01*
X13932076Y64114324D01*
X13836838Y64066705D01*
X1183623Y46588420D02*
X1183623Y47588420D01*
X1516957Y46874134D01*
X1850290Y47588420D01*
X1850290Y46588420D01*
X2326480Y46588420D02*
X2326480Y47588420D01*
X2755052Y46636039D02*
X2897909Y46588420D01*
X3136004Y46588420D01*
X3231242Y46636039D01*
X3278861Y46683658D01*
X3326480Y46778896D01*
X3326480Y46874134D01*
X3278861Y46969372D01*
X3231242Y47016991D01*
X3136004Y47064610D01*
X2945528Y47112229D01*
X2850290Y47159848D01*
X2802671Y47207467D01*
X2755052Y47302705D01*
X2755052Y47397943D01*
X2802671Y47493181D01*
X2850290Y47540800D01*
X2945528Y47588420D01*
X3183623Y47588420D01*
X3326480Y47540800D01*
X3945528Y47588420D02*
X4136004Y47588420D01*
X4231242Y47540800D01*
X4326480Y47445562D01*
X4374100Y47255086D01*
X4374100Y46921753D01*
X4326480Y46731277D01*
X4231242Y46636039D01*
X4136004Y46588420D01*
X3945528Y46588420D01*
X3850290Y46636039D01*
X3755052Y46731277D01*
X3707433Y46921753D01*
X3707433Y47255086D01*
X3755052Y47445562D01*
X3850290Y47540800D01*
X3945528Y47588420D01*
X6088385Y47540800D02*
X5993147Y47588420D01*
X5850290Y47588420D01*
X5707433Y47540800D01*
X5612195Y47445562D01*
X5564576Y47350324D01*
X5516957Y47159848D01*
X5516957Y47016991D01*
X5564576Y46826515D01*
X5612195Y46731277D01*
X5707433Y46636039D01*
X5850290Y46588420D01*
X5945528Y46588420D01*
X6088385Y46636039D01*
X6136004Y46683658D01*
X6136004Y47016991D01*
X5945528Y47016991D01*
X6564576Y46588420D02*
X6564576Y47588420D01*
X7136004Y46588420D01*
X7136004Y47588420D01*
X7612195Y46588420D02*
X7612195Y47588420D01*
X7850290Y47588420D01*
X7993147Y47540800D01*
X8088385Y47445562D01*
X8136004Y47350324D01*
X8183623Y47159848D01*
X8183623Y47016991D01*
X8136004Y46826515D01*
X8088385Y46731277D01*
X7993147Y46636039D01*
X7850290Y46588420D01*
X7612195Y46588420D01*
X1802671Y49176039D02*
X1945528Y49128420D01*
X2183623Y49128420D01*
X2278861Y49176039D01*
X2326480Y49223658D01*
X2374100Y49318896D01*
X2374100Y49414134D01*
X2326480Y49509372D01*
X2278861Y49556991D01*
X2183623Y49604610D01*
X1993147Y49652229D01*
X1897909Y49699848D01*
X1850290Y49747467D01*
X1802671Y49842705D01*
X1802671Y49937943D01*
X1850290Y50033181D01*
X1897909Y50080800D01*
X1993147Y50128420D01*
X2231242Y50128420D01*
X2374100Y50080800D01*
X3374100Y49223658D02*
X3326480Y49176039D01*
X3183623Y49128420D01*
X3088385Y49128420D01*
X2945528Y49176039D01*
X2850290Y49271277D01*
X2802671Y49366515D01*
X2755052Y49556991D01*
X2755052Y49699848D01*
X2802671Y49890324D01*
X2850290Y49985562D01*
X2945528Y50080800D01*
X3088385Y50128420D01*
X3183623Y50128420D01*
X3326480Y50080800D01*
X3374100Y50033181D01*
X3802671Y49128420D02*
X3802671Y50128420D01*
X4374100Y49128420D02*
X3945528Y49699848D01*
X4374100Y50128420D02*
X3802671Y49556991D01*
X6088385Y50080800D02*
X5993147Y50128420D01*
X5850290Y50128420D01*
X5707433Y50080800D01*
X5612195Y49985562D01*
X5564576Y49890324D01*
X5516957Y49699848D01*
X5516957Y49556991D01*
X5564576Y49366515D01*
X5612195Y49271277D01*
X5707433Y49176039D01*
X5850290Y49128420D01*
X5945528Y49128420D01*
X6088385Y49176039D01*
X6136004Y49223658D01*
X6136004Y49556991D01*
X5945528Y49556991D01*
X6564576Y49128420D02*
X6564576Y50128420D01*
X7136004Y49128420D01*
X7136004Y50128420D01*
X7612195Y49128420D02*
X7612195Y50128420D01*
X7850290Y50128420D01*
X7993147Y50080800D01*
X8088385Y49985562D01*
X8136004Y49890324D01*
X8183623Y49699848D01*
X8183623Y49556991D01*
X8136004Y49366515D01*
X8088385Y49271277D01*
X7993147Y49176039D01*
X7850290Y49128420D01*
X7612195Y49128420D01*
X1850290Y53035800D02*
X2850290Y53035800D01*
X2659814Y51668420D02*
X2326480Y52144610D01*
X2088385Y51668420D02*
X2088385Y52668420D01*
X2469338Y52668420D01*
X2564576Y52620800D01*
X2612195Y52573181D01*
X2659814Y52477943D01*
X2659814Y52335086D01*
X2612195Y52239848D01*
X2564576Y52192229D01*
X2469338Y52144610D01*
X2088385Y52144610D01*
X2850290Y53035800D02*
X3802671Y53035800D01*
X3040766Y51716039D02*
X3183623Y51668420D01*
X3421719Y51668420D01*
X3516957Y51716039D01*
X3564576Y51763658D01*
X3612195Y51858896D01*
X3612195Y51954134D01*
X3564576Y52049372D01*
X3516957Y52096991D01*
X3421719Y52144610D01*
X3231242Y52192229D01*
X3136004Y52239848D01*
X3088385Y52287467D01*
X3040766Y52382705D01*
X3040766Y52477943D01*
X3088385Y52573181D01*
X3136004Y52620800D01*
X3231242Y52668420D01*
X3469338Y52668420D01*
X3612195Y52620800D01*
X3802671Y53035800D02*
X4564576Y53035800D01*
X3897909Y52668420D02*
X4469338Y52668420D01*
X4183623Y51668420D02*
X4183623Y52668420D01*
X6088385Y52620800D02*
X5993147Y52668420D01*
X5850290Y52668420D01*
X5707433Y52620800D01*
X5612195Y52525562D01*
X5564576Y52430324D01*
X5516957Y52239848D01*
X5516957Y52096991D01*
X5564576Y51906515D01*
X5612195Y51811277D01*
X5707433Y51716039D01*
X5850290Y51668420D01*
X5945528Y51668420D01*
X6088385Y51716039D01*
X6136004Y51763658D01*
X6136004Y52096991D01*
X5945528Y52096991D01*
X6564576Y51668420D02*
X6564576Y52668420D01*
X7136004Y51668420D01*
X7136004Y52668420D01*
X7612195Y51668420D02*
X7612195Y52668420D01*
X7850290Y52668420D01*
X7993147Y52620800D01*
X8088385Y52525562D01*
X8136004Y52430324D01*
X8183623Y52239848D01*
X8183623Y52096991D01*
X8136004Y51906515D01*
X8088385Y51811277D01*
X7993147Y51716039D01*
X7850290Y51668420D01*
X7612195Y51668420D01*
X2755052Y54208420D02*
X2755052Y55208420D01*
X3326480Y54208420D01*
X3326480Y55208420D01*
X4374100Y54303658D02*
X4326480Y54256039D01*
X4183623Y54208420D01*
X4088385Y54208420D01*
X3945528Y54256039D01*
X3850290Y54351277D01*
X3802671Y54446515D01*
X3755052Y54636991D01*
X3755052Y54779848D01*
X3802671Y54970324D01*
X3850290Y55065562D01*
X3945528Y55160800D01*
X4088385Y55208420D01*
X4183623Y55208420D01*
X4326480Y55160800D01*
X4374100Y55113181D01*
X6088385Y55160800D02*
X5993147Y55208420D01*
X5850290Y55208420D01*
X5707433Y55160800D01*
X5612195Y55065562D01*
X5564576Y54970324D01*
X5516957Y54779848D01*
X5516957Y54636991D01*
X5564576Y54446515D01*
X5612195Y54351277D01*
X5707433Y54256039D01*
X5850290Y54208420D01*
X5945528Y54208420D01*
X6088385Y54256039D01*
X6136004Y54303658D01*
X6136004Y54636991D01*
X5945528Y54636991D01*
X6564576Y54208420D02*
X6564576Y55208420D01*
X7136004Y54208420D01*
X7136004Y55208420D01*
X7612195Y54208420D02*
X7612195Y55208420D01*
X7850290Y55208420D01*
X7993147Y55160800D01*
X8088385Y55065562D01*
X8136004Y54970324D01*
X8183623Y54779848D01*
X8183623Y54636991D01*
X8136004Y54446515D01*
X8088385Y54351277D01*
X7993147Y54256039D01*
X7850290Y54208420D01*
X7612195Y54208420D01*
X1374100Y56748420D02*
X1374100Y57748420D01*
X1707433Y57034134D01*
X2040766Y57748420D01*
X2040766Y56748420D01*
X2707433Y57748420D02*
X2897909Y57748420D01*
X2993147Y57700800D01*
X3088385Y57605562D01*
X3136004Y57415086D01*
X3136004Y57081753D01*
X3088385Y56891277D01*
X2993147Y56796039D01*
X2897909Y56748420D01*
X2707433Y56748420D01*
X2612195Y56796039D01*
X2516957Y56891277D01*
X2469338Y57081753D01*
X2469338Y57415086D01*
X2516957Y57605562D01*
X2612195Y57700800D01*
X2707433Y57748420D01*
X3516957Y56796039D02*
X3659814Y56748420D01*
X3897909Y56748420D01*
X3993147Y56796039D01*
X4040766Y56843658D01*
X4088385Y56938896D01*
X4088385Y57034134D01*
X4040766Y57129372D01*
X3993147Y57176991D01*
X3897909Y57224610D01*
X3707433Y57272229D01*
X3612195Y57319848D01*
X3564576Y57367467D01*
X3516957Y57462705D01*
X3516957Y57557943D01*
X3564576Y57653181D01*
X3612195Y57700800D01*
X3707433Y57748420D01*
X3945528Y57748420D01*
X4088385Y57700800D01*
X4516957Y56748420D02*
X4516957Y57748420D01*
X5612195Y57748420D02*
X5945528Y56748420D01*
X6278861Y57748420D01*
X7183623Y56843658D02*
X7136004Y56796039D01*
X6993147Y56748420D01*
X6897909Y56748420D01*
X6755052Y56796039D01*
X6659814Y56891277D01*
X6612195Y56986515D01*
X6564576Y57176991D01*
X6564576Y57319848D01*
X6612195Y57510324D01*
X6659814Y57605562D01*
X6755052Y57700800D01*
X6897909Y57748420D01*
X6993147Y57748420D01*
X7136004Y57700800D01*
X7183623Y57653181D01*
X8183623Y56843658D02*
X8136004Y56796039D01*
X7993147Y56748420D01*
X7897909Y56748420D01*
X7755052Y56796039D01*
X7659814Y56891277D01*
X7612195Y56986515D01*
X7564576Y57176991D01*
X7564576Y57319848D01*
X7612195Y57510324D01*
X7659814Y57605562D01*
X7755052Y57700800D01*
X7897909Y57748420D01*
X7993147Y57748420D01*
X8136004Y57700800D01*
X8183623Y57653181D01*
%TO.C,J6*%
X73428780Y3626467D02*
X74143066Y3626467D01*
X74285923Y3578848D01*
X74381161Y3483610D01*
X74428780Y3340753D01*
X74428780Y3245515D01*
X73428780Y4531229D02*
X73428780Y4340753D01*
X73476400Y4245515D01*
X73524019Y4197896D01*
X73666876Y4102658D01*
X73857352Y4055039D01*
X74238304Y4055039D01*
X74333542Y4102658D01*
X74381161Y4150277D01*
X74428780Y4245515D01*
X74428780Y4435991D01*
X74381161Y4531229D01*
X74333542Y4578848D01*
X74238304Y4626467D01*
X74000209Y4626467D01*
X73904971Y4578848D01*
X73857352Y4531229D01*
X73809733Y4435991D01*
X73809733Y4245515D01*
X73857352Y4150277D01*
X73904971Y4102658D01*
X74000209Y4055039D01*
X79389257Y7533491D02*
X79389257Y9057300D01*
X76864257Y7533491D02*
X76864257Y9057300D01*
X77626161Y8295396D02*
X76102352Y8295396D01*
%TO.C,J2*%
X89279066Y40647420D02*
X89279066Y39933134D01*
X89231447Y39790277D01*
X89136209Y39695039D01*
X88993352Y39647420D01*
X88898114Y39647420D01*
X89707638Y40552181D02*
X89755257Y40599800D01*
X89850495Y40647420D01*
X90088590Y40647420D01*
X90183828Y40599800D01*
X90231447Y40552181D01*
X90279066Y40456943D01*
X90279066Y40361705D01*
X90231447Y40218848D01*
X89660019Y39647420D01*
X90279066Y39647420D01*
X93136090Y35101943D02*
X94659900Y35101943D01*
X93186090Y37626943D02*
X94709900Y37626943D01*
X93947995Y36865039D02*
X93947995Y38388848D01*
%TO.C,J7*%
X47928680Y3626467D02*
X48642966Y3626467D01*
X48785823Y3578848D01*
X48881061Y3483610D01*
X48928680Y3340753D01*
X48928680Y3245515D01*
X47928680Y4007420D02*
X47928680Y4674086D01*
X48928680Y4245515D01*
X69448680Y7270396D02*
X68448680Y7270396D01*
X68448680Y7651348D01*
X68496300Y7746586D01*
X68543919Y7794205D01*
X68639157Y7841824D01*
X68782014Y7841824D01*
X68877252Y7794205D01*
X68924871Y7746586D01*
X68972490Y7651348D01*
X68972490Y7270396D01*
X69448680Y8270396D02*
X68448680Y8270396D01*
X68448680Y8508491D01*
X68496300Y8651348D01*
X68591538Y8746586D01*
X68686776Y8794205D01*
X68877252Y8841824D01*
X69020109Y8841824D01*
X69210585Y8794205D01*
X69305823Y8746586D01*
X69401061Y8651348D01*
X69448680Y8508491D01*
X69448680Y8270396D01*
X68448680Y9175158D02*
X68448680Y9841824D01*
X69448680Y9413253D01*
X69829633Y11270396D02*
X69782014Y11222777D01*
X69639157Y11127539D01*
X69543919Y11079920D01*
X69401061Y11032300D01*
X69162966Y10984681D01*
X68972490Y10984681D01*
X68734395Y11032300D01*
X68591538Y11079920D01*
X68496300Y11127539D01*
X68353442Y11222777D01*
X68305823Y11270396D01*
X68448680Y11841824D02*
X68448680Y12032300D01*
X68496300Y12127539D01*
X68591538Y12222777D01*
X68782014Y12270396D01*
X69115347Y12270396D01*
X69305823Y12222777D01*
X69401061Y12127539D01*
X69448680Y12032300D01*
X69448680Y11841824D01*
X69401061Y11746586D01*
X69305823Y11651348D01*
X69115347Y11603729D01*
X68782014Y11603729D01*
X68591538Y11651348D01*
X68496300Y11746586D01*
X68448680Y11841824D01*
X69353442Y13270396D02*
X69401061Y13222777D01*
X69448680Y13079920D01*
X69448680Y12984681D01*
X69401061Y12841824D01*
X69305823Y12746586D01*
X69210585Y12698967D01*
X69020109Y12651348D01*
X68877252Y12651348D01*
X68686776Y12698967D01*
X68591538Y12746586D01*
X68496300Y12841824D01*
X68448680Y12984681D01*
X68448680Y13079920D01*
X68496300Y13222777D01*
X68543919Y13270396D01*
X68543919Y13651348D02*
X68496300Y13698967D01*
X68448680Y13794205D01*
X68448680Y14032300D01*
X68496300Y14127539D01*
X68543919Y14175158D01*
X68639157Y14222777D01*
X68734395Y14222777D01*
X68877252Y14175158D01*
X69448680Y13603729D01*
X69448680Y14222777D01*
X69829633Y14556110D02*
X69782014Y14603729D01*
X69639157Y14698967D01*
X69543919Y14746586D01*
X69401061Y14794205D01*
X69162966Y14841824D01*
X68972490Y14841824D01*
X68734395Y14794205D01*
X68591538Y14746586D01*
X68496300Y14698967D01*
X68353442Y14603729D01*
X68305823Y14556110D01*
X66848680Y7270396D02*
X65848680Y7270396D01*
X65848680Y7651348D01*
X65896300Y7746586D01*
X65943919Y7794205D01*
X66039157Y7841824D01*
X66182014Y7841824D01*
X66277252Y7794205D01*
X66324871Y7746586D01*
X66372490Y7651348D01*
X66372490Y7270396D01*
X66848680Y8270396D02*
X65848680Y8270396D01*
X65848680Y8508491D01*
X65896300Y8651348D01*
X65991538Y8746586D01*
X66086776Y8794205D01*
X66277252Y8841824D01*
X66420109Y8841824D01*
X66610585Y8794205D01*
X66705823Y8746586D01*
X66801061Y8651348D01*
X66848680Y8508491D01*
X66848680Y8270396D01*
X65848680Y9698967D02*
X65848680Y9508491D01*
X65896300Y9413253D01*
X65943919Y9365634D01*
X66086776Y9270396D01*
X66277252Y9222777D01*
X66658204Y9222777D01*
X66753442Y9270396D01*
X66801061Y9318015D01*
X66848680Y9413253D01*
X66848680Y9603729D01*
X66801061Y9698967D01*
X66753442Y9746586D01*
X66658204Y9794205D01*
X66420109Y9794205D01*
X66324871Y9746586D01*
X66277252Y9698967D01*
X66229633Y9603729D01*
X66229633Y9413253D01*
X66277252Y9318015D01*
X66324871Y9270396D01*
X66420109Y9222777D01*
X67229633Y11270396D02*
X67182014Y11222777D01*
X67039157Y11127539D01*
X66943919Y11079920D01*
X66801061Y11032300D01*
X66562966Y10984681D01*
X66372490Y10984681D01*
X66134395Y11032300D01*
X65991538Y11079920D01*
X65896300Y11127539D01*
X65753442Y11222777D01*
X65705823Y11270396D01*
X66848680Y11651348D02*
X65848680Y11651348D01*
X66753442Y12698967D02*
X66801061Y12651348D01*
X66848680Y12508491D01*
X66848680Y12413253D01*
X66801061Y12270396D01*
X66705823Y12175158D01*
X66610585Y12127539D01*
X66420109Y12079920D01*
X66277252Y12079920D01*
X66086776Y12127539D01*
X65991538Y12175158D01*
X65896300Y12270396D01*
X65848680Y12413253D01*
X65848680Y12508491D01*
X65896300Y12651348D01*
X65943919Y12698967D01*
X66848680Y13127539D02*
X65848680Y13127539D01*
X65848680Y13508491D01*
X65896300Y13603729D01*
X65943919Y13651348D01*
X66039157Y13698967D01*
X66182014Y13698967D01*
X66277252Y13651348D01*
X66324871Y13603729D01*
X66372490Y13508491D01*
X66372490Y13127539D01*
X66848680Y14651348D02*
X66848680Y14079920D01*
X66848680Y14365634D02*
X65848680Y14365634D01*
X65991538Y14270396D01*
X66086776Y14175158D01*
X66134395Y14079920D01*
X67229633Y14984681D02*
X67182014Y15032300D01*
X67039157Y15127539D01*
X66943919Y15175158D01*
X66801061Y15222777D01*
X66562966Y15270396D01*
X66372490Y15270396D01*
X66134395Y15222777D01*
X65991538Y15175158D01*
X65896300Y15127539D01*
X65753442Y15032300D01*
X65705823Y14984681D01*
X64398680Y7295396D02*
X63398680Y7295396D01*
X63398680Y7676348D01*
X63446300Y7771586D01*
X63493919Y7819205D01*
X63589157Y7866824D01*
X63732014Y7866824D01*
X63827252Y7819205D01*
X63874871Y7771586D01*
X63922490Y7676348D01*
X63922490Y7295396D01*
X64398680Y8295396D02*
X63398680Y8295396D01*
X63398680Y8533491D01*
X63446300Y8676348D01*
X63541538Y8771586D01*
X63636776Y8819205D01*
X63827252Y8866824D01*
X63970109Y8866824D01*
X64160585Y8819205D01*
X64255823Y8771586D01*
X64351061Y8676348D01*
X64398680Y8533491D01*
X64398680Y8295396D01*
X63398680Y9771586D02*
X63398680Y9295396D01*
X63874871Y9247777D01*
X63827252Y9295396D01*
X63779633Y9390634D01*
X63779633Y9628729D01*
X63827252Y9723967D01*
X63874871Y9771586D01*
X63970109Y9819205D01*
X64208204Y9819205D01*
X64303442Y9771586D01*
X64351061Y9723967D01*
X64398680Y9628729D01*
X64398680Y9390634D01*
X64351061Y9295396D01*
X64303442Y9247777D01*
X64779633Y11295396D02*
X64732014Y11247777D01*
X64589157Y11152539D01*
X64493919Y11104920D01*
X64351061Y11057300D01*
X64112966Y11009681D01*
X63922490Y11009681D01*
X63684395Y11057300D01*
X63541538Y11104920D01*
X63446300Y11152539D01*
X63303442Y11247777D01*
X63255823Y11295396D01*
X63398680Y11866824D02*
X63398680Y12057300D01*
X63446300Y12152539D01*
X63541538Y12247777D01*
X63732014Y12295396D01*
X64065347Y12295396D01*
X64255823Y12247777D01*
X64351061Y12152539D01*
X64398680Y12057300D01*
X64398680Y11866824D01*
X64351061Y11771586D01*
X64255823Y11676348D01*
X64065347Y11628729D01*
X63732014Y11628729D01*
X63541538Y11676348D01*
X63446300Y11771586D01*
X63398680Y11866824D01*
X64303442Y13295396D02*
X64351061Y13247777D01*
X64398680Y13104920D01*
X64398680Y13009681D01*
X64351061Y12866824D01*
X64255823Y12771586D01*
X64160585Y12723967D01*
X63970109Y12676348D01*
X63827252Y12676348D01*
X63636776Y12723967D01*
X63541538Y12771586D01*
X63446300Y12866824D01*
X63398680Y13009681D01*
X63398680Y13104920D01*
X63446300Y13247777D01*
X63493919Y13295396D01*
X64398680Y14247777D02*
X64398680Y13676348D01*
X64398680Y13962062D02*
X63398680Y13962062D01*
X63541538Y13866824D01*
X63636776Y13771586D01*
X63684395Y13676348D01*
X64112966Y14628729D02*
X64112966Y15104920D01*
X64398680Y14533491D02*
X63398680Y14866824D01*
X64398680Y15200158D01*
X64779633Y15438253D02*
X64732014Y15485872D01*
X64589157Y15581110D01*
X64493919Y15628729D01*
X64351061Y15676348D01*
X64112966Y15723967D01*
X63922490Y15723967D01*
X63684395Y15676348D01*
X63541538Y15628729D01*
X63446300Y15581110D01*
X63303442Y15485872D01*
X63255823Y15438253D01*
X61858680Y7295396D02*
X60858680Y7295396D01*
X60858680Y7676348D01*
X60906300Y7771586D01*
X60953919Y7819205D01*
X61049157Y7866824D01*
X61192014Y7866824D01*
X61287252Y7819205D01*
X61334871Y7771586D01*
X61382490Y7676348D01*
X61382490Y7295396D01*
X61858680Y8295396D02*
X60858680Y8295396D01*
X60858680Y8533491D01*
X60906300Y8676348D01*
X61001538Y8771586D01*
X61096776Y8819205D01*
X61287252Y8866824D01*
X61430109Y8866824D01*
X61620585Y8819205D01*
X61715823Y8771586D01*
X61811061Y8676348D01*
X61858680Y8533491D01*
X61858680Y8295396D01*
X61192014Y9723967D02*
X61858680Y9723967D01*
X60811061Y9485872D02*
X61525347Y9247777D01*
X61525347Y9866824D01*
X62239633Y11295396D02*
X62192014Y11247777D01*
X62049157Y11152539D01*
X61953919Y11104920D01*
X61811061Y11057300D01*
X61572966Y11009681D01*
X61382490Y11009681D01*
X61144395Y11057300D01*
X61001538Y11104920D01*
X60906300Y11152539D01*
X60763442Y11247777D01*
X60715823Y11295396D01*
X60858680Y11866824D02*
X60858680Y12057300D01*
X60906300Y12152539D01*
X61001538Y12247777D01*
X61192014Y12295396D01*
X61525347Y12295396D01*
X61715823Y12247777D01*
X61811061Y12152539D01*
X61858680Y12057300D01*
X61858680Y11866824D01*
X61811061Y11771586D01*
X61715823Y11676348D01*
X61525347Y11628729D01*
X61192014Y11628729D01*
X61001538Y11676348D01*
X60906300Y11771586D01*
X60858680Y11866824D01*
X61763442Y13295396D02*
X61811061Y13247777D01*
X61858680Y13104920D01*
X61858680Y13009681D01*
X61811061Y12866824D01*
X61715823Y12771586D01*
X61620585Y12723967D01*
X61430109Y12676348D01*
X61287252Y12676348D01*
X61096776Y12723967D01*
X61001538Y12771586D01*
X60906300Y12866824D01*
X60858680Y13009681D01*
X60858680Y13104920D01*
X60906300Y13247777D01*
X60953919Y13295396D01*
X61858680Y14247777D02*
X61858680Y13676348D01*
X61858680Y13962062D02*
X60858680Y13962062D01*
X61001538Y13866824D01*
X61096776Y13771586D01*
X61144395Y13676348D01*
X61334871Y15009681D02*
X61382490Y15152539D01*
X61430109Y15200158D01*
X61525347Y15247777D01*
X61668204Y15247777D01*
X61763442Y15200158D01*
X61811061Y15152539D01*
X61858680Y15057300D01*
X61858680Y14676348D01*
X60858680Y14676348D01*
X60858680Y15009681D01*
X60906300Y15104920D01*
X60953919Y15152539D01*
X61049157Y15200158D01*
X61144395Y15200158D01*
X61239633Y15152539D01*
X61287252Y15104920D01*
X61334871Y15009681D01*
X61334871Y14676348D01*
X62239633Y15581110D02*
X62192014Y15628729D01*
X62049157Y15723967D01*
X61953919Y15771586D01*
X61811061Y15819205D01*
X61572966Y15866824D01*
X61382490Y15866824D01*
X61144395Y15819205D01*
X61001538Y15771586D01*
X60906300Y15723967D01*
X60763442Y15628729D01*
X60715823Y15581110D01*
X59198680Y7220396D02*
X58198680Y7220396D01*
X58198680Y7601348D01*
X58246300Y7696586D01*
X58293919Y7744205D01*
X58389157Y7791824D01*
X58532014Y7791824D01*
X58627252Y7744205D01*
X58674871Y7696586D01*
X58722490Y7601348D01*
X58722490Y7220396D01*
X59198680Y8220396D02*
X58198680Y8220396D01*
X58198680Y8458491D01*
X58246300Y8601348D01*
X58341538Y8696586D01*
X58436776Y8744205D01*
X58627252Y8791824D01*
X58770109Y8791824D01*
X58960585Y8744205D01*
X59055823Y8696586D01*
X59151061Y8601348D01*
X59198680Y8458491D01*
X59198680Y8220396D01*
X58198680Y9125158D02*
X58198680Y9744205D01*
X58579633Y9410872D01*
X58579633Y9553729D01*
X58627252Y9648967D01*
X58674871Y9696586D01*
X58770109Y9744205D01*
X59008204Y9744205D01*
X59103442Y9696586D01*
X59151061Y9648967D01*
X59198680Y9553729D01*
X59198680Y9268015D01*
X59151061Y9172777D01*
X59103442Y9125158D01*
X59579633Y11220396D02*
X59532014Y11172777D01*
X59389157Y11077539D01*
X59293919Y11029920D01*
X59151061Y10982300D01*
X58912966Y10934681D01*
X58722490Y10934681D01*
X58484395Y10982300D01*
X58341538Y11029920D01*
X58246300Y11077539D01*
X58103442Y11172777D01*
X58055823Y11220396D01*
X59198680Y11601348D02*
X58198680Y11601348D01*
X59198680Y12077539D02*
X58198680Y12077539D01*
X59198680Y12648967D01*
X58198680Y12648967D01*
X58198680Y12982300D02*
X58198680Y13553729D01*
X59198680Y13268015D02*
X58198680Y13268015D01*
X59198680Y14410872D02*
X59198680Y13839443D01*
X59198680Y14125158D02*
X58198680Y14125158D01*
X58341538Y14029920D01*
X58436776Y13934681D01*
X58484395Y13839443D01*
X59579633Y14744205D02*
X59532014Y14791824D01*
X59389157Y14887062D01*
X59293919Y14934681D01*
X59151061Y14982300D01*
X58912966Y15029920D01*
X58722490Y15029920D01*
X58484395Y14982300D01*
X58341538Y14934681D01*
X58246300Y14887062D01*
X58103442Y14791824D01*
X58055823Y14744205D01*
X56748680Y7220396D02*
X55748680Y7220396D01*
X55748680Y7601348D01*
X55796300Y7696586D01*
X55843919Y7744205D01*
X55939157Y7791824D01*
X56082014Y7791824D01*
X56177252Y7744205D01*
X56224871Y7696586D01*
X56272490Y7601348D01*
X56272490Y7220396D01*
X56748680Y8220396D02*
X55748680Y8220396D01*
X55748680Y8458491D01*
X55796300Y8601348D01*
X55891538Y8696586D01*
X55986776Y8744205D01*
X56177252Y8791824D01*
X56320109Y8791824D01*
X56510585Y8744205D01*
X56605823Y8696586D01*
X56701061Y8601348D01*
X56748680Y8458491D01*
X56748680Y8220396D01*
X55843919Y9172777D02*
X55796300Y9220396D01*
X55748680Y9315634D01*
X55748680Y9553729D01*
X55796300Y9648967D01*
X55843919Y9696586D01*
X55939157Y9744205D01*
X56034395Y9744205D01*
X56177252Y9696586D01*
X56748680Y9125158D01*
X56748680Y9744205D01*
X57129633Y11220396D02*
X57082014Y11172777D01*
X56939157Y11077539D01*
X56843919Y11029920D01*
X56701061Y10982300D01*
X56462966Y10934681D01*
X56272490Y10934681D01*
X56034395Y10982300D01*
X55891538Y11029920D01*
X55796300Y11077539D01*
X55653442Y11172777D01*
X55605823Y11220396D01*
X56748680Y11601348D02*
X55748680Y11601348D01*
X56748680Y12077539D02*
X55748680Y12077539D01*
X56748680Y12648967D01*
X55748680Y12648967D01*
X55748680Y12982300D02*
X55748680Y13553729D01*
X56748680Y13268015D02*
X55748680Y13268015D01*
X55748680Y14077539D02*
X55748680Y14172777D01*
X55796300Y14268015D01*
X55843919Y14315634D01*
X55939157Y14363253D01*
X56129633Y14410872D01*
X56367728Y14410872D01*
X56558204Y14363253D01*
X56653442Y14315634D01*
X56701061Y14268015D01*
X56748680Y14172777D01*
X56748680Y14077539D01*
X56701061Y13982300D01*
X56653442Y13934681D01*
X56558204Y13887062D01*
X56367728Y13839443D01*
X56129633Y13839443D01*
X55939157Y13887062D01*
X55843919Y13934681D01*
X55796300Y13982300D01*
X55748680Y14077539D01*
X57129633Y14744205D02*
X57082014Y14791824D01*
X56939157Y14887062D01*
X56843919Y14934681D01*
X56701061Y14982300D01*
X56462966Y15029920D01*
X56272490Y15029920D01*
X56034395Y14982300D01*
X55891538Y14934681D01*
X55796300Y14887062D01*
X55653442Y14791824D01*
X55605823Y14744205D01*
X54238680Y7295396D02*
X53238680Y7295396D01*
X53238680Y7676348D01*
X53286300Y7771586D01*
X53333919Y7819205D01*
X53429157Y7866824D01*
X53572014Y7866824D01*
X53667252Y7819205D01*
X53714871Y7771586D01*
X53762490Y7676348D01*
X53762490Y7295396D01*
X54238680Y8295396D02*
X53238680Y8295396D01*
X53238680Y8533491D01*
X53286300Y8676348D01*
X53381538Y8771586D01*
X53476776Y8819205D01*
X53667252Y8866824D01*
X53810109Y8866824D01*
X54000585Y8819205D01*
X54095823Y8771586D01*
X54191061Y8676348D01*
X54238680Y8533491D01*
X54238680Y8295396D01*
X54238680Y9819205D02*
X54238680Y9247777D01*
X54238680Y9533491D02*
X53238680Y9533491D01*
X53381538Y9438253D01*
X53476776Y9343015D01*
X53524395Y9247777D01*
X54619633Y11295396D02*
X54572014Y11247777D01*
X54429157Y11152539D01*
X54333919Y11104920D01*
X54191061Y11057300D01*
X53952966Y11009681D01*
X53762490Y11009681D01*
X53524395Y11057300D01*
X53381538Y11104920D01*
X53286300Y11152539D01*
X53143442Y11247777D01*
X53095823Y11295396D01*
X53238680Y11533491D02*
X53238680Y12104920D01*
X54238680Y11819205D02*
X53238680Y11819205D01*
X53238680Y12343015D02*
X54238680Y13009681D01*
X53238680Y13009681D02*
X54238680Y12343015D01*
X54238680Y13390634D02*
X53238680Y13390634D01*
X53238680Y13628729D01*
X53286300Y13771586D01*
X53381538Y13866824D01*
X53476776Y13914443D01*
X53667252Y13962062D01*
X53810109Y13962062D01*
X54000585Y13914443D01*
X54095823Y13866824D01*
X54191061Y13771586D01*
X54238680Y13628729D01*
X54238680Y13390634D01*
X54619633Y14295396D02*
X54572014Y14343015D01*
X54429157Y14438253D01*
X54333919Y14485872D01*
X54191061Y14533491D01*
X53952966Y14581110D01*
X53762490Y14581110D01*
X53524395Y14533491D01*
X53381538Y14485872D01*
X53286300Y14438253D01*
X53143442Y14343015D01*
X53095823Y14295396D01*
X51673680Y7295396D02*
X50673680Y7295396D01*
X50673680Y7676348D01*
X50721300Y7771586D01*
X50768919Y7819205D01*
X50864157Y7866824D01*
X51007014Y7866824D01*
X51102252Y7819205D01*
X51149871Y7771586D01*
X51197490Y7676348D01*
X51197490Y7295396D01*
X51673680Y8295396D02*
X50673680Y8295396D01*
X50673680Y8533491D01*
X50721300Y8676348D01*
X50816538Y8771586D01*
X50911776Y8819205D01*
X51102252Y8866824D01*
X51245109Y8866824D01*
X51435585Y8819205D01*
X51530823Y8771586D01*
X51626061Y8676348D01*
X51673680Y8533491D01*
X51673680Y8295396D01*
X50673680Y9485872D02*
X50673680Y9581110D01*
X50721300Y9676348D01*
X50768919Y9723967D01*
X50864157Y9771586D01*
X51054633Y9819205D01*
X51292728Y9819205D01*
X51483204Y9771586D01*
X51578442Y9723967D01*
X51626061Y9676348D01*
X51673680Y9581110D01*
X51673680Y9485872D01*
X51626061Y9390634D01*
X51578442Y9343015D01*
X51483204Y9295396D01*
X51292728Y9247777D01*
X51054633Y9247777D01*
X50864157Y9295396D01*
X50768919Y9343015D01*
X50721300Y9390634D01*
X50673680Y9485872D01*
X52054633Y11295396D02*
X52007014Y11247777D01*
X51864157Y11152539D01*
X51768919Y11104920D01*
X51626061Y11057300D01*
X51387966Y11009681D01*
X51197490Y11009681D01*
X50959395Y11057300D01*
X50816538Y11104920D01*
X50721300Y11152539D01*
X50578442Y11247777D01*
X50530823Y11295396D01*
X51673680Y12247777D02*
X51197490Y11914443D01*
X51673680Y11676348D02*
X50673680Y11676348D01*
X50673680Y12057300D01*
X50721300Y12152539D01*
X50768919Y12200158D01*
X50864157Y12247777D01*
X51007014Y12247777D01*
X51102252Y12200158D01*
X51149871Y12152539D01*
X51197490Y12057300D01*
X51197490Y11676348D01*
X50673680Y12581110D02*
X51673680Y13247777D01*
X50673680Y13247777D02*
X51673680Y12581110D01*
X51673680Y13628729D02*
X50673680Y13628729D01*
X50673680Y13866824D01*
X50721300Y14009681D01*
X50816538Y14104920D01*
X50911776Y14152539D01*
X51102252Y14200158D01*
X51245109Y14200158D01*
X51435585Y14152539D01*
X51530823Y14104920D01*
X51626061Y14009681D01*
X51673680Y13866824D01*
X51673680Y13628729D01*
X52054633Y14533491D02*
X52007014Y14581110D01*
X51864157Y14676348D01*
X51768919Y14723967D01*
X51626061Y14771586D01*
X51387966Y14819205D01*
X51197490Y14819205D01*
X50959395Y14771586D01*
X50816538Y14723967D01*
X50721300Y14676348D01*
X50578442Y14581110D01*
X50530823Y14533491D01*
%TO.C,J4*%
X71348780Y74746067D02*
X72063066Y74746067D01*
X72205923Y74698448D01*
X72301161Y74603210D01*
X72348780Y74460353D01*
X72348780Y74365115D01*
X71682114Y75650829D02*
X72348780Y75650829D01*
X71301161Y75412734D02*
X72015447Y75174639D01*
X72015447Y75793686D01*
X52179733Y62743805D02*
X52132114Y62696186D01*
X51989257Y62600948D01*
X51894019Y62553329D01*
X51751161Y62505710D01*
X51513066Y62458091D01*
X51322590Y62458091D01*
X51084495Y62505710D01*
X50941638Y62553329D01*
X50846400Y62600948D01*
X50703542Y62696186D01*
X50655923Y62743805D01*
X50798780Y62981900D02*
X50798780Y63553329D01*
X51798780Y63267615D02*
X50798780Y63267615D01*
X50798780Y64077139D02*
X50798780Y64267615D01*
X50846400Y64362853D01*
X50941638Y64458091D01*
X51132114Y64505710D01*
X51465447Y64505710D01*
X51655923Y64458091D01*
X51751161Y64362853D01*
X51798780Y64267615D01*
X51798780Y64077139D01*
X51751161Y63981900D01*
X51655923Y63886662D01*
X51465447Y63839043D01*
X51132114Y63839043D01*
X50941638Y63886662D01*
X50846400Y63981900D01*
X50798780Y64077139D01*
X51751161Y64886662D02*
X51798780Y65029520D01*
X51798780Y65267615D01*
X51751161Y65362853D01*
X51703542Y65410472D01*
X51608304Y65458091D01*
X51513066Y65458091D01*
X51417828Y65410472D01*
X51370209Y65362853D01*
X51322590Y65267615D01*
X51274971Y65077139D01*
X51227352Y64981900D01*
X51179733Y64934281D01*
X51084495Y64886662D01*
X50989257Y64886662D01*
X50894019Y64934281D01*
X50846400Y64981900D01*
X50798780Y65077139D01*
X50798780Y65315234D01*
X50846400Y65458091D01*
X51703542Y66458091D02*
X51751161Y66410472D01*
X51798780Y66267615D01*
X51798780Y66172377D01*
X51751161Y66029520D01*
X51655923Y65934281D01*
X51560685Y65886662D01*
X51370209Y65839043D01*
X51227352Y65839043D01*
X51036876Y65886662D01*
X50941638Y65934281D01*
X50846400Y66029520D01*
X50798780Y66172377D01*
X50798780Y66267615D01*
X50846400Y66410472D01*
X50894019Y66458091D01*
X50894019Y66839043D02*
X50846400Y66886662D01*
X50798780Y66981900D01*
X50798780Y67219996D01*
X50846400Y67315234D01*
X50894019Y67362853D01*
X50989257Y67410472D01*
X51084495Y67410472D01*
X51227352Y67362853D01*
X51798780Y66791424D01*
X51798780Y67410472D01*
X52179733Y67743805D02*
X52132114Y67791424D01*
X51989257Y67886662D01*
X51894019Y67934281D01*
X51751161Y67981900D01*
X51513066Y68029520D01*
X51322590Y68029520D01*
X51084495Y67981900D01*
X50941638Y67934281D01*
X50846400Y67886662D01*
X50703542Y67791424D01*
X50655923Y67743805D01*
X51798780Y69267615D02*
X50798780Y69267615D01*
X50798780Y69648567D01*
X50846400Y69743805D01*
X50894019Y69791424D01*
X50989257Y69839043D01*
X51132114Y69839043D01*
X51227352Y69791424D01*
X51274971Y69743805D01*
X51322590Y69648567D01*
X51322590Y69267615D01*
X51703542Y70839043D02*
X51751161Y70791424D01*
X51798780Y70648567D01*
X51798780Y70553329D01*
X51751161Y70410472D01*
X51655923Y70315234D01*
X51560685Y70267615D01*
X51370209Y70219996D01*
X51227352Y70219996D01*
X51036876Y70267615D01*
X50941638Y70315234D01*
X50846400Y70410472D01*
X50798780Y70553329D01*
X50798780Y70648567D01*
X50846400Y70791424D01*
X50894019Y70839043D01*
X50798780Y71172377D02*
X50798780Y71839043D01*
X51798780Y71410472D01*
X54719733Y62743805D02*
X54672114Y62696186D01*
X54529257Y62600948D01*
X54434019Y62553329D01*
X54291161Y62505710D01*
X54053066Y62458091D01*
X53862590Y62458091D01*
X53624495Y62505710D01*
X53481638Y62553329D01*
X53386400Y62600948D01*
X53243542Y62696186D01*
X53195923Y62743805D01*
X53338780Y62981900D02*
X53338780Y63553329D01*
X54338780Y63267615D02*
X53338780Y63267615D01*
X53338780Y64077139D02*
X53338780Y64267615D01*
X53386400Y64362853D01*
X53481638Y64458091D01*
X53672114Y64505710D01*
X54005447Y64505710D01*
X54195923Y64458091D01*
X54291161Y64362853D01*
X54338780Y64267615D01*
X54338780Y64077139D01*
X54291161Y63981900D01*
X54195923Y63886662D01*
X54005447Y63839043D01*
X53672114Y63839043D01*
X53481638Y63886662D01*
X53386400Y63981900D01*
X53338780Y64077139D01*
X54291161Y64886662D02*
X54338780Y65029520D01*
X54338780Y65267615D01*
X54291161Y65362853D01*
X54243542Y65410472D01*
X54148304Y65458091D01*
X54053066Y65458091D01*
X53957828Y65410472D01*
X53910209Y65362853D01*
X53862590Y65267615D01*
X53814971Y65077139D01*
X53767352Y64981900D01*
X53719733Y64934281D01*
X53624495Y64886662D01*
X53529257Y64886662D01*
X53434019Y64934281D01*
X53386400Y64981900D01*
X53338780Y65077139D01*
X53338780Y65315234D01*
X53386400Y65458091D01*
X54243542Y66458091D02*
X54291161Y66410472D01*
X54338780Y66267615D01*
X54338780Y66172377D01*
X54291161Y66029520D01*
X54195923Y65934281D01*
X54100685Y65886662D01*
X53910209Y65839043D01*
X53767352Y65839043D01*
X53576876Y65886662D01*
X53481638Y65934281D01*
X53386400Y66029520D01*
X53338780Y66172377D01*
X53338780Y66267615D01*
X53386400Y66410472D01*
X53434019Y66458091D01*
X54338780Y67410472D02*
X54338780Y66839043D01*
X54338780Y67124758D02*
X53338780Y67124758D01*
X53481638Y67029520D01*
X53576876Y66934281D01*
X53624495Y66839043D01*
X54719733Y67743805D02*
X54672114Y67791424D01*
X54529257Y67886662D01*
X54434019Y67934281D01*
X54291161Y67981900D01*
X54053066Y68029520D01*
X53862590Y68029520D01*
X53624495Y67981900D01*
X53481638Y67934281D01*
X53386400Y67886662D01*
X53243542Y67791424D01*
X53195923Y67743805D01*
X54338780Y69267615D02*
X53338780Y69267615D01*
X53338780Y69648567D01*
X53386400Y69743805D01*
X53434019Y69791424D01*
X53529257Y69839043D01*
X53672114Y69839043D01*
X53767352Y69791424D01*
X53814971Y69743805D01*
X53862590Y69648567D01*
X53862590Y69267615D01*
X54243542Y70839043D02*
X54291161Y70791424D01*
X54338780Y70648567D01*
X54338780Y70553329D01*
X54291161Y70410472D01*
X54195923Y70315234D01*
X54100685Y70267615D01*
X53910209Y70219996D01*
X53767352Y70219996D01*
X53576876Y70267615D01*
X53481638Y70315234D01*
X53386400Y70410472D01*
X53338780Y70553329D01*
X53338780Y70648567D01*
X53386400Y70791424D01*
X53434019Y70839043D01*
X53338780Y71696186D02*
X53338780Y71505710D01*
X53386400Y71410472D01*
X53434019Y71362853D01*
X53576876Y71267615D01*
X53767352Y71219996D01*
X54148304Y71219996D01*
X54243542Y71267615D01*
X54291161Y71315234D01*
X54338780Y71410472D01*
X54338780Y71600948D01*
X54291161Y71696186D01*
X54243542Y71743805D01*
X54148304Y71791424D01*
X53910209Y71791424D01*
X53814971Y71743805D01*
X53767352Y71696186D01*
X53719733Y71600948D01*
X53719733Y71410472D01*
X53767352Y71315234D01*
X53814971Y71267615D01*
X53910209Y71219996D01*
X57259733Y65219996D02*
X57212114Y65172377D01*
X57069257Y65077139D01*
X56974019Y65029520D01*
X56831161Y64981900D01*
X56593066Y64934281D01*
X56402590Y64934281D01*
X56164495Y64981900D01*
X56021638Y65029520D01*
X55926400Y65077139D01*
X55783542Y65172377D01*
X55735923Y65219996D01*
X55878780Y65458091D02*
X55878780Y66029520D01*
X56878780Y65743805D02*
X55878780Y65743805D01*
X56878780Y66362853D02*
X55878780Y66362853D01*
X55878780Y66600948D01*
X55926400Y66743805D01*
X56021638Y66839043D01*
X56116876Y66886662D01*
X56307352Y66934281D01*
X56450209Y66934281D01*
X56640685Y66886662D01*
X56735923Y66839043D01*
X56831161Y66743805D01*
X56878780Y66600948D01*
X56878780Y66362853D01*
X56878780Y67362853D02*
X55878780Y67362853D01*
X57259733Y67743805D02*
X57212114Y67791424D01*
X57069257Y67886662D01*
X56974019Y67934281D01*
X56831161Y67981900D01*
X56593066Y68029520D01*
X56402590Y68029520D01*
X56164495Y67981900D01*
X56021638Y67934281D01*
X55926400Y67886662D01*
X55783542Y67791424D01*
X55735923Y67743805D01*
X56878780Y69267615D02*
X55878780Y69267615D01*
X55878780Y69648567D01*
X55926400Y69743805D01*
X55974019Y69791424D01*
X56069257Y69839043D01*
X56212114Y69839043D01*
X56307352Y69791424D01*
X56354971Y69743805D01*
X56402590Y69648567D01*
X56402590Y69267615D01*
X56783542Y70839043D02*
X56831161Y70791424D01*
X56878780Y70648567D01*
X56878780Y70553329D01*
X56831161Y70410472D01*
X56735923Y70315234D01*
X56640685Y70267615D01*
X56450209Y70219996D01*
X56307352Y70219996D01*
X56116876Y70267615D01*
X56021638Y70315234D01*
X55926400Y70410472D01*
X55878780Y70553329D01*
X55878780Y70648567D01*
X55926400Y70791424D01*
X55974019Y70839043D01*
X55878780Y71743805D02*
X55878780Y71267615D01*
X56354971Y71219996D01*
X56307352Y71267615D01*
X56259733Y71362853D01*
X56259733Y71600948D01*
X56307352Y71696186D01*
X56354971Y71743805D01*
X56450209Y71791424D01*
X56688304Y71791424D01*
X56783542Y71743805D01*
X56831161Y71696186D01*
X56878780Y71600948D01*
X56878780Y71362853D01*
X56831161Y71267615D01*
X56783542Y71219996D01*
X59834733Y64648567D02*
X59787114Y64600948D01*
X59644257Y64505710D01*
X59549019Y64458091D01*
X59406161Y64410472D01*
X59168066Y64362853D01*
X58977590Y64362853D01*
X58739495Y64410472D01*
X58596638Y64458091D01*
X58501400Y64505710D01*
X58358542Y64600948D01*
X58310923Y64648567D01*
X58453780Y64886662D02*
X58453780Y65458091D01*
X59453780Y65172377D02*
X58453780Y65172377D01*
X59453780Y65791424D02*
X58453780Y65791424D01*
X58453780Y66029520D01*
X58501400Y66172377D01*
X58596638Y66267615D01*
X58691876Y66315234D01*
X58882352Y66362853D01*
X59025209Y66362853D01*
X59215685Y66315234D01*
X59310923Y66267615D01*
X59406161Y66172377D01*
X59453780Y66029520D01*
X59453780Y65791424D01*
X58453780Y66981900D02*
X58453780Y67172377D01*
X58501400Y67267615D01*
X58596638Y67362853D01*
X58787114Y67410472D01*
X59120447Y67410472D01*
X59310923Y67362853D01*
X59406161Y67267615D01*
X59453780Y67172377D01*
X59453780Y66981900D01*
X59406161Y66886662D01*
X59310923Y66791424D01*
X59120447Y66743805D01*
X58787114Y66743805D01*
X58596638Y66791424D01*
X58501400Y66886662D01*
X58453780Y66981900D01*
X59834733Y67743805D02*
X59787114Y67791424D01*
X59644257Y67886662D01*
X59549019Y67934281D01*
X59406161Y67981900D01*
X59168066Y68029520D01*
X58977590Y68029520D01*
X58739495Y67981900D01*
X58596638Y67934281D01*
X58501400Y67886662D01*
X58358542Y67791424D01*
X58310923Y67743805D01*
X59453780Y69267615D02*
X58453780Y69267615D01*
X58453780Y69648567D01*
X58501400Y69743805D01*
X58549019Y69791424D01*
X58644257Y69839043D01*
X58787114Y69839043D01*
X58882352Y69791424D01*
X58929971Y69743805D01*
X58977590Y69648567D01*
X58977590Y69267615D01*
X59358542Y70839043D02*
X59406161Y70791424D01*
X59453780Y70648567D01*
X59453780Y70553329D01*
X59406161Y70410472D01*
X59310923Y70315234D01*
X59215685Y70267615D01*
X59025209Y70219996D01*
X58882352Y70219996D01*
X58691876Y70267615D01*
X58596638Y70315234D01*
X58501400Y70410472D01*
X58453780Y70553329D01*
X58453780Y70648567D01*
X58501400Y70791424D01*
X58549019Y70839043D01*
X58787114Y71696186D02*
X59453780Y71696186D01*
X58406161Y71458091D02*
X59120447Y71219996D01*
X59120447Y71839043D01*
X62339733Y64600948D02*
X62292114Y64553329D01*
X62149257Y64458091D01*
X62054019Y64410472D01*
X61911161Y64362853D01*
X61673066Y64315234D01*
X61482590Y64315234D01*
X61244495Y64362853D01*
X61101638Y64410472D01*
X61006400Y64458091D01*
X60863542Y64553329D01*
X60815923Y64600948D01*
X60958780Y64839043D02*
X60958780Y65410472D01*
X61958780Y65124758D02*
X60958780Y65124758D01*
X61958780Y65743805D02*
X60958780Y65743805D01*
X61673066Y66077139D01*
X60958780Y66410472D01*
X61958780Y66410472D01*
X61911161Y66839043D02*
X61958780Y66981900D01*
X61958780Y67219996D01*
X61911161Y67315234D01*
X61863542Y67362853D01*
X61768304Y67410472D01*
X61673066Y67410472D01*
X61577828Y67362853D01*
X61530209Y67315234D01*
X61482590Y67219996D01*
X61434971Y67029520D01*
X61387352Y66934281D01*
X61339733Y66886662D01*
X61244495Y66839043D01*
X61149257Y66839043D01*
X61054019Y66886662D01*
X61006400Y66934281D01*
X60958780Y67029520D01*
X60958780Y67267615D01*
X61006400Y67410472D01*
X62339733Y67743805D02*
X62292114Y67791424D01*
X62149257Y67886662D01*
X62054019Y67934281D01*
X61911161Y67981900D01*
X61673066Y68029520D01*
X61482590Y68029520D01*
X61244495Y67981900D01*
X61101638Y67934281D01*
X61006400Y67886662D01*
X60863542Y67791424D01*
X60815923Y67743805D01*
X61958780Y69267615D02*
X60958780Y69267615D01*
X60958780Y69648567D01*
X61006400Y69743805D01*
X61054019Y69791424D01*
X61149257Y69839043D01*
X61292114Y69839043D01*
X61387352Y69791424D01*
X61434971Y69743805D01*
X61482590Y69648567D01*
X61482590Y69267615D01*
X61863542Y70839043D02*
X61911161Y70791424D01*
X61958780Y70648567D01*
X61958780Y70553329D01*
X61911161Y70410472D01*
X61815923Y70315234D01*
X61720685Y70267615D01*
X61530209Y70219996D01*
X61387352Y70219996D01*
X61196876Y70267615D01*
X61101638Y70315234D01*
X61006400Y70410472D01*
X60958780Y70553329D01*
X60958780Y70648567D01*
X61006400Y70791424D01*
X61054019Y70839043D01*
X60958780Y71172377D02*
X60958780Y71791424D01*
X61339733Y71458091D01*
X61339733Y71600948D01*
X61387352Y71696186D01*
X61434971Y71743805D01*
X61530209Y71791424D01*
X61768304Y71791424D01*
X61863542Y71743805D01*
X61911161Y71696186D01*
X61958780Y71600948D01*
X61958780Y71315234D01*
X61911161Y71219996D01*
X61863542Y71172377D01*
X64879733Y64696186D02*
X64832114Y64648567D01*
X64689257Y64553329D01*
X64594019Y64505710D01*
X64451161Y64458091D01*
X64213066Y64410472D01*
X64022590Y64410472D01*
X63784495Y64458091D01*
X63641638Y64505710D01*
X63546400Y64553329D01*
X63403542Y64648567D01*
X63355923Y64696186D01*
X63498780Y64934281D02*
X63498780Y65505710D01*
X64498780Y65219996D02*
X63498780Y65219996D01*
X64403542Y66410472D02*
X64451161Y66362853D01*
X64498780Y66219996D01*
X64498780Y66124758D01*
X64451161Y65981900D01*
X64355923Y65886662D01*
X64260685Y65839043D01*
X64070209Y65791424D01*
X63927352Y65791424D01*
X63736876Y65839043D01*
X63641638Y65886662D01*
X63546400Y65981900D01*
X63498780Y66124758D01*
X63498780Y66219996D01*
X63546400Y66362853D01*
X63594019Y66410472D01*
X64498780Y66839043D02*
X63498780Y66839043D01*
X64498780Y67410472D02*
X63927352Y66981900D01*
X63498780Y67410472D02*
X64070209Y66839043D01*
X64879733Y67743805D02*
X64832114Y67791424D01*
X64689257Y67886662D01*
X64594019Y67934281D01*
X64451161Y67981900D01*
X64213066Y68029520D01*
X64022590Y68029520D01*
X63784495Y67981900D01*
X63641638Y67934281D01*
X63546400Y67886662D01*
X63403542Y67791424D01*
X63355923Y67743805D01*
X64498780Y69267615D02*
X63498780Y69267615D01*
X63498780Y69648567D01*
X63546400Y69743805D01*
X63594019Y69791424D01*
X63689257Y69839043D01*
X63832114Y69839043D01*
X63927352Y69791424D01*
X63974971Y69743805D01*
X64022590Y69648567D01*
X64022590Y69267615D01*
X64403542Y70839043D02*
X64451161Y70791424D01*
X64498780Y70648567D01*
X64498780Y70553329D01*
X64451161Y70410472D01*
X64355923Y70315234D01*
X64260685Y70267615D01*
X64070209Y70219996D01*
X63927352Y70219996D01*
X63736876Y70267615D01*
X63641638Y70315234D01*
X63546400Y70410472D01*
X63498780Y70553329D01*
X63498780Y70648567D01*
X63546400Y70791424D01*
X63594019Y70839043D01*
X63594019Y71219996D02*
X63546400Y71267615D01*
X63498780Y71362853D01*
X63498780Y71600948D01*
X63546400Y71696186D01*
X63594019Y71743805D01*
X63689257Y71791424D01*
X63784495Y71791424D01*
X63927352Y71743805D01*
X64498780Y71172377D01*
X64498780Y71791424D01*
X67419733Y64648567D02*
X67372114Y64600948D01*
X67229257Y64505710D01*
X67134019Y64458091D01*
X66991161Y64410472D01*
X66753066Y64362853D01*
X66562590Y64362853D01*
X66324495Y64410472D01*
X66181638Y64458091D01*
X66086400Y64505710D01*
X65943542Y64600948D01*
X65895923Y64648567D01*
X66991161Y64981900D02*
X67038780Y65124758D01*
X67038780Y65362853D01*
X66991161Y65458091D01*
X66943542Y65505710D01*
X66848304Y65553329D01*
X66753066Y65553329D01*
X66657828Y65505710D01*
X66610209Y65458091D01*
X66562590Y65362853D01*
X66514971Y65172377D01*
X66467352Y65077139D01*
X66419733Y65029520D01*
X66324495Y64981900D01*
X66229257Y64981900D01*
X66134019Y65029520D01*
X66086400Y65077139D01*
X66038780Y65172377D01*
X66038780Y65410472D01*
X66086400Y65553329D01*
X67038780Y65981900D02*
X66038780Y65981900D01*
X66038780Y66219996D01*
X66086400Y66362853D01*
X66181638Y66458091D01*
X66276876Y66505710D01*
X66467352Y66553329D01*
X66610209Y66553329D01*
X66800685Y66505710D01*
X66895923Y66458091D01*
X66991161Y66362853D01*
X67038780Y66219996D01*
X67038780Y65981900D01*
X66753066Y66934281D02*
X66753066Y67410472D01*
X67038780Y66839043D02*
X66038780Y67172377D01*
X67038780Y67505710D01*
X67419733Y67743805D02*
X67372114Y67791424D01*
X67229257Y67886662D01*
X67134019Y67934281D01*
X66991161Y67981900D01*
X66753066Y68029520D01*
X66562590Y68029520D01*
X66324495Y67981900D01*
X66181638Y67934281D01*
X66086400Y67886662D01*
X65943542Y67791424D01*
X65895923Y67743805D01*
X67038780Y69267615D02*
X66038780Y69267615D01*
X66038780Y69648567D01*
X66086400Y69743805D01*
X66134019Y69791424D01*
X66229257Y69839043D01*
X66372114Y69839043D01*
X66467352Y69791424D01*
X66514971Y69743805D01*
X66562590Y69648567D01*
X66562590Y69267615D01*
X66943542Y70839043D02*
X66991161Y70791424D01*
X67038780Y70648567D01*
X67038780Y70553329D01*
X66991161Y70410472D01*
X66895923Y70315234D01*
X66800685Y70267615D01*
X66610209Y70219996D01*
X66467352Y70219996D01*
X66276876Y70267615D01*
X66181638Y70315234D01*
X66086400Y70410472D01*
X66038780Y70553329D01*
X66038780Y70648567D01*
X66086400Y70791424D01*
X66134019Y70839043D01*
X67038780Y71791424D02*
X67038780Y71219996D01*
X67038780Y71505710D02*
X66038780Y71505710D01*
X66181638Y71410472D01*
X66276876Y71315234D01*
X66324495Y71219996D01*
X69959733Y64696186D02*
X69912114Y64648567D01*
X69769257Y64553329D01*
X69674019Y64505710D01*
X69531161Y64458091D01*
X69293066Y64410472D01*
X69102590Y64410472D01*
X68864495Y64458091D01*
X68721638Y64505710D01*
X68626400Y64553329D01*
X68483542Y64648567D01*
X68435923Y64696186D01*
X69531161Y65029520D02*
X69578780Y65172377D01*
X69578780Y65410472D01*
X69531161Y65505710D01*
X69483542Y65553329D01*
X69388304Y65600948D01*
X69293066Y65600948D01*
X69197828Y65553329D01*
X69150209Y65505710D01*
X69102590Y65410472D01*
X69054971Y65219996D01*
X69007352Y65124758D01*
X68959733Y65077139D01*
X68864495Y65029520D01*
X68769257Y65029520D01*
X68674019Y65077139D01*
X68626400Y65124758D01*
X68578780Y65219996D01*
X68578780Y65458091D01*
X68626400Y65600948D01*
X69483542Y66600948D02*
X69531161Y66553329D01*
X69578780Y66410472D01*
X69578780Y66315234D01*
X69531161Y66172377D01*
X69435923Y66077139D01*
X69340685Y66029520D01*
X69150209Y65981900D01*
X69007352Y65981900D01*
X68816876Y66029520D01*
X68721638Y66077139D01*
X68626400Y66172377D01*
X68578780Y66315234D01*
X68578780Y66410472D01*
X68626400Y66553329D01*
X68674019Y66600948D01*
X69578780Y67505710D02*
X69578780Y67029520D01*
X68578780Y67029520D01*
X69959733Y67743805D02*
X69912114Y67791424D01*
X69769257Y67886662D01*
X69674019Y67934281D01*
X69531161Y67981900D01*
X69293066Y68029520D01*
X69102590Y68029520D01*
X68864495Y67981900D01*
X68721638Y67934281D01*
X68626400Y67886662D01*
X68483542Y67791424D01*
X68435923Y67743805D01*
X69578780Y69267615D02*
X68578780Y69267615D01*
X68578780Y69648567D01*
X68626400Y69743805D01*
X68674019Y69791424D01*
X68769257Y69839043D01*
X68912114Y69839043D01*
X69007352Y69791424D01*
X69054971Y69743805D01*
X69102590Y69648567D01*
X69102590Y69267615D01*
X69483542Y70839043D02*
X69531161Y70791424D01*
X69578780Y70648567D01*
X69578780Y70553329D01*
X69531161Y70410472D01*
X69435923Y70315234D01*
X69340685Y70267615D01*
X69150209Y70219996D01*
X69007352Y70219996D01*
X68816876Y70267615D01*
X68721638Y70315234D01*
X68626400Y70410472D01*
X68578780Y70553329D01*
X68578780Y70648567D01*
X68626400Y70791424D01*
X68674019Y70839043D01*
X68578780Y71458091D02*
X68578780Y71553329D01*
X68626400Y71648567D01*
X68674019Y71696186D01*
X68769257Y71743805D01*
X68959733Y71791424D01*
X69197828Y71791424D01*
X69388304Y71743805D01*
X69483542Y71696186D01*
X69531161Y71648567D01*
X69578780Y71553329D01*
X69578780Y71458091D01*
X69531161Y71362853D01*
X69483542Y71315234D01*
X69388304Y71267615D01*
X69197828Y71219996D01*
X68959733Y71219996D01*
X68769257Y71267615D01*
X68674019Y71315234D01*
X68626400Y71362853D01*
X68578780Y71458091D01*
%TO.C,J3*%
X19974380Y74796067D02*
X20688666Y74796067D01*
X20831523Y74748448D01*
X20926761Y74653210D01*
X20974380Y74510353D01*
X20974380Y74415115D01*
X19974380Y75177020D02*
X19974380Y75796067D01*
X20355333Y75462734D01*
X20355333Y75605591D01*
X20402952Y75700829D01*
X20450571Y75748448D01*
X20545809Y75796067D01*
X20783904Y75796067D01*
X20879142Y75748448D01*
X20926761Y75700829D01*
X20974380Y75605591D01*
X20974380Y75319877D01*
X20926761Y75224639D01*
X20879142Y75177020D01*
X41905333Y63841424D02*
X41857714Y63793805D01*
X41714857Y63698567D01*
X41619619Y63650948D01*
X41476761Y63603329D01*
X41238666Y63555710D01*
X41048190Y63555710D01*
X40810095Y63603329D01*
X40667238Y63650948D01*
X40572000Y63698567D01*
X40429142Y63793805D01*
X40381523Y63841424D01*
X41238666Y64174758D02*
X41238666Y64650948D01*
X41524380Y64079520D02*
X40524380Y64412853D01*
X41524380Y64746186D01*
X41524380Y65079520D02*
X40524380Y65079520D01*
X40524380Y65317615D01*
X40572000Y65460472D01*
X40667238Y65555710D01*
X40762476Y65603329D01*
X40952952Y65650948D01*
X41095809Y65650948D01*
X41286285Y65603329D01*
X41381523Y65555710D01*
X41476761Y65460472D01*
X41524380Y65317615D01*
X41524380Y65079520D01*
X41429142Y66650948D02*
X41476761Y66603329D01*
X41524380Y66460472D01*
X41524380Y66365234D01*
X41476761Y66222377D01*
X41381523Y66127139D01*
X41286285Y66079520D01*
X41095809Y66031900D01*
X40952952Y66031900D01*
X40762476Y66079520D01*
X40667238Y66127139D01*
X40572000Y66222377D01*
X40524380Y66365234D01*
X40524380Y66460472D01*
X40572000Y66603329D01*
X40619619Y66650948D01*
X40524380Y66984281D02*
X40524380Y67650948D01*
X41524380Y67222377D01*
X41905333Y67936662D02*
X41857714Y67984281D01*
X41714857Y68079520D01*
X41619619Y68127139D01*
X41476761Y68174758D01*
X41238666Y68222377D01*
X41048190Y68222377D01*
X40810095Y68174758D01*
X40667238Y68127139D01*
X40572000Y68079520D01*
X40429142Y67984281D01*
X40381523Y67936662D01*
X41524380Y69460472D02*
X40524380Y69460472D01*
X40524380Y69841424D01*
X40572000Y69936662D01*
X40619619Y69984281D01*
X40714857Y70031900D01*
X40857714Y70031900D01*
X40952952Y69984281D01*
X41000571Y69936662D01*
X41048190Y69841424D01*
X41048190Y69460472D01*
X41238666Y70412853D02*
X41238666Y70889043D01*
X41524380Y70317615D02*
X40524380Y70650948D01*
X41524380Y70984281D01*
X40524380Y71222377D02*
X40524380Y71889043D01*
X41524380Y71460472D01*
X39365333Y63841424D02*
X39317714Y63793805D01*
X39174857Y63698567D01*
X39079619Y63650948D01*
X38936761Y63603329D01*
X38698666Y63555710D01*
X38508190Y63555710D01*
X38270095Y63603329D01*
X38127238Y63650948D01*
X38032000Y63698567D01*
X37889142Y63793805D01*
X37841523Y63841424D01*
X38698666Y64174758D02*
X38698666Y64650948D01*
X38984380Y64079520D02*
X37984380Y64412853D01*
X38984380Y64746186D01*
X38984380Y65079520D02*
X37984380Y65079520D01*
X37984380Y65317615D01*
X38032000Y65460472D01*
X38127238Y65555710D01*
X38222476Y65603329D01*
X38412952Y65650948D01*
X38555809Y65650948D01*
X38746285Y65603329D01*
X38841523Y65555710D01*
X38936761Y65460472D01*
X38984380Y65317615D01*
X38984380Y65079520D01*
X38889142Y66650948D02*
X38936761Y66603329D01*
X38984380Y66460472D01*
X38984380Y66365234D01*
X38936761Y66222377D01*
X38841523Y66127139D01*
X38746285Y66079520D01*
X38555809Y66031900D01*
X38412952Y66031900D01*
X38222476Y66079520D01*
X38127238Y66127139D01*
X38032000Y66222377D01*
X37984380Y66365234D01*
X37984380Y66460472D01*
X38032000Y66603329D01*
X38079619Y66650948D01*
X37984380Y67508091D02*
X37984380Y67317615D01*
X38032000Y67222377D01*
X38079619Y67174758D01*
X38222476Y67079520D01*
X38412952Y67031900D01*
X38793904Y67031900D01*
X38889142Y67079520D01*
X38936761Y67127139D01*
X38984380Y67222377D01*
X38984380Y67412853D01*
X38936761Y67508091D01*
X38889142Y67555710D01*
X38793904Y67603329D01*
X38555809Y67603329D01*
X38460571Y67555710D01*
X38412952Y67508091D01*
X38365333Y67412853D01*
X38365333Y67222377D01*
X38412952Y67127139D01*
X38460571Y67079520D01*
X38555809Y67031900D01*
X39365333Y67936662D02*
X39317714Y67984281D01*
X39174857Y68079520D01*
X39079619Y68127139D01*
X38936761Y68174758D01*
X38698666Y68222377D01*
X38508190Y68222377D01*
X38270095Y68174758D01*
X38127238Y68127139D01*
X38032000Y68079520D01*
X37889142Y67984281D01*
X37841523Y67936662D01*
X38984380Y69460472D02*
X37984380Y69460472D01*
X37984380Y69841424D01*
X38032000Y69936662D01*
X38079619Y69984281D01*
X38174857Y70031900D01*
X38317714Y70031900D01*
X38412952Y69984281D01*
X38460571Y69936662D01*
X38508190Y69841424D01*
X38508190Y69460472D01*
X38698666Y70412853D02*
X38698666Y70889043D01*
X38984380Y70317615D02*
X37984380Y70650948D01*
X38984380Y70984281D01*
X37984380Y71746186D02*
X37984380Y71555710D01*
X38032000Y71460472D01*
X38079619Y71412853D01*
X38222476Y71317615D01*
X38412952Y71269996D01*
X38793904Y71269996D01*
X38889142Y71317615D01*
X38936761Y71365234D01*
X38984380Y71460472D01*
X38984380Y71650948D01*
X38936761Y71746186D01*
X38889142Y71793805D01*
X38793904Y71841424D01*
X38555809Y71841424D01*
X38460571Y71793805D01*
X38412952Y71746186D01*
X38365333Y71650948D01*
X38365333Y71460472D01*
X38412952Y71365234D01*
X38460571Y71317615D01*
X38555809Y71269996D01*
X36825333Y63841424D02*
X36777714Y63793805D01*
X36634857Y63698567D01*
X36539619Y63650948D01*
X36396761Y63603329D01*
X36158666Y63555710D01*
X35968190Y63555710D01*
X35730095Y63603329D01*
X35587238Y63650948D01*
X35492000Y63698567D01*
X35349142Y63793805D01*
X35301523Y63841424D01*
X36158666Y64174758D02*
X36158666Y64650948D01*
X36444380Y64079520D02*
X35444380Y64412853D01*
X36444380Y64746186D01*
X36444380Y65079520D02*
X35444380Y65079520D01*
X35444380Y65317615D01*
X35492000Y65460472D01*
X35587238Y65555710D01*
X35682476Y65603329D01*
X35872952Y65650948D01*
X36015809Y65650948D01*
X36206285Y65603329D01*
X36301523Y65555710D01*
X36396761Y65460472D01*
X36444380Y65317615D01*
X36444380Y65079520D01*
X36349142Y66650948D02*
X36396761Y66603329D01*
X36444380Y66460472D01*
X36444380Y66365234D01*
X36396761Y66222377D01*
X36301523Y66127139D01*
X36206285Y66079520D01*
X36015809Y66031900D01*
X35872952Y66031900D01*
X35682476Y66079520D01*
X35587238Y66127139D01*
X35492000Y66222377D01*
X35444380Y66365234D01*
X35444380Y66460472D01*
X35492000Y66603329D01*
X35539619Y66650948D01*
X35444380Y67555710D02*
X35444380Y67079520D01*
X35920571Y67031900D01*
X35872952Y67079520D01*
X35825333Y67174758D01*
X35825333Y67412853D01*
X35872952Y67508091D01*
X35920571Y67555710D01*
X36015809Y67603329D01*
X36253904Y67603329D01*
X36349142Y67555710D01*
X36396761Y67508091D01*
X36444380Y67412853D01*
X36444380Y67174758D01*
X36396761Y67079520D01*
X36349142Y67031900D01*
X36825333Y67936662D02*
X36777714Y67984281D01*
X36634857Y68079520D01*
X36539619Y68127139D01*
X36396761Y68174758D01*
X36158666Y68222377D01*
X35968190Y68222377D01*
X35730095Y68174758D01*
X35587238Y68127139D01*
X35492000Y68079520D01*
X35349142Y67984281D01*
X35301523Y67936662D01*
X36444380Y69460472D02*
X35444380Y69460472D01*
X35444380Y69841424D01*
X35492000Y69936662D01*
X35539619Y69984281D01*
X35634857Y70031900D01*
X35777714Y70031900D01*
X35872952Y69984281D01*
X35920571Y69936662D01*
X35968190Y69841424D01*
X35968190Y69460472D01*
X36158666Y70412853D02*
X36158666Y70889043D01*
X36444380Y70317615D02*
X35444380Y70650948D01*
X36444380Y70984281D01*
X35444380Y71793805D02*
X35444380Y71317615D01*
X35920571Y71269996D01*
X35872952Y71317615D01*
X35825333Y71412853D01*
X35825333Y71650948D01*
X35872952Y71746186D01*
X35920571Y71793805D01*
X36015809Y71841424D01*
X36253904Y71841424D01*
X36349142Y71793805D01*
X36396761Y71746186D01*
X36444380Y71650948D01*
X36444380Y71412853D01*
X36396761Y71317615D01*
X36349142Y71269996D01*
X34285333Y63841424D02*
X34237714Y63793805D01*
X34094857Y63698567D01*
X33999619Y63650948D01*
X33856761Y63603329D01*
X33618666Y63555710D01*
X33428190Y63555710D01*
X33190095Y63603329D01*
X33047238Y63650948D01*
X32952000Y63698567D01*
X32809142Y63793805D01*
X32761523Y63841424D01*
X33618666Y64174758D02*
X33618666Y64650948D01*
X33904380Y64079520D02*
X32904380Y64412853D01*
X33904380Y64746186D01*
X33904380Y65079520D02*
X32904380Y65079520D01*
X32904380Y65317615D01*
X32952000Y65460472D01*
X33047238Y65555710D01*
X33142476Y65603329D01*
X33332952Y65650948D01*
X33475809Y65650948D01*
X33666285Y65603329D01*
X33761523Y65555710D01*
X33856761Y65460472D01*
X33904380Y65317615D01*
X33904380Y65079520D01*
X33809142Y66650948D02*
X33856761Y66603329D01*
X33904380Y66460472D01*
X33904380Y66365234D01*
X33856761Y66222377D01*
X33761523Y66127139D01*
X33666285Y66079520D01*
X33475809Y66031900D01*
X33332952Y66031900D01*
X33142476Y66079520D01*
X33047238Y66127139D01*
X32952000Y66222377D01*
X32904380Y66365234D01*
X32904380Y66460472D01*
X32952000Y66603329D01*
X32999619Y66650948D01*
X33237714Y67508091D02*
X33904380Y67508091D01*
X32856761Y67269996D02*
X33571047Y67031900D01*
X33571047Y67650948D01*
X34285333Y67936662D02*
X34237714Y67984281D01*
X34094857Y68079520D01*
X33999619Y68127139D01*
X33856761Y68174758D01*
X33618666Y68222377D01*
X33428190Y68222377D01*
X33190095Y68174758D01*
X33047238Y68127139D01*
X32952000Y68079520D01*
X32809142Y67984281D01*
X32761523Y67936662D01*
X33904380Y69460472D02*
X32904380Y69460472D01*
X32904380Y69841424D01*
X32952000Y69936662D01*
X32999619Y69984281D01*
X33094857Y70031900D01*
X33237714Y70031900D01*
X33332952Y69984281D01*
X33380571Y69936662D01*
X33428190Y69841424D01*
X33428190Y69460472D01*
X33618666Y70412853D02*
X33618666Y70889043D01*
X33904380Y70317615D02*
X32904380Y70650948D01*
X33904380Y70984281D01*
X33237714Y71746186D02*
X33904380Y71746186D01*
X32856761Y71508091D02*
X33571047Y71269996D01*
X33571047Y71889043D01*
X31745333Y63841424D02*
X31697714Y63793805D01*
X31554857Y63698567D01*
X31459619Y63650948D01*
X31316761Y63603329D01*
X31078666Y63555710D01*
X30888190Y63555710D01*
X30650095Y63603329D01*
X30507238Y63650948D01*
X30412000Y63698567D01*
X30269142Y63793805D01*
X30221523Y63841424D01*
X31078666Y64174758D02*
X31078666Y64650948D01*
X31364380Y64079520D02*
X30364380Y64412853D01*
X31364380Y64746186D01*
X31364380Y65079520D02*
X30364380Y65079520D01*
X30364380Y65317615D01*
X30412000Y65460472D01*
X30507238Y65555710D01*
X30602476Y65603329D01*
X30792952Y65650948D01*
X30935809Y65650948D01*
X31126285Y65603329D01*
X31221523Y65555710D01*
X31316761Y65460472D01*
X31364380Y65317615D01*
X31364380Y65079520D01*
X31269142Y66650948D02*
X31316761Y66603329D01*
X31364380Y66460472D01*
X31364380Y66365234D01*
X31316761Y66222377D01*
X31221523Y66127139D01*
X31126285Y66079520D01*
X30935809Y66031900D01*
X30792952Y66031900D01*
X30602476Y66079520D01*
X30507238Y66127139D01*
X30412000Y66222377D01*
X30364380Y66365234D01*
X30364380Y66460472D01*
X30412000Y66603329D01*
X30459619Y66650948D01*
X30364380Y66984281D02*
X30364380Y67603329D01*
X30745333Y67269996D01*
X30745333Y67412853D01*
X30792952Y67508091D01*
X30840571Y67555710D01*
X30935809Y67603329D01*
X31173904Y67603329D01*
X31269142Y67555710D01*
X31316761Y67508091D01*
X31364380Y67412853D01*
X31364380Y67127139D01*
X31316761Y67031900D01*
X31269142Y66984281D01*
X31745333Y67936662D02*
X31697714Y67984281D01*
X31554857Y68079520D01*
X31459619Y68127139D01*
X31316761Y68174758D01*
X31078666Y68222377D01*
X30888190Y68222377D01*
X30650095Y68174758D01*
X30507238Y68127139D01*
X30412000Y68079520D01*
X30269142Y67984281D01*
X30221523Y67936662D01*
X31364380Y69460472D02*
X30364380Y69460472D01*
X30364380Y69841424D01*
X30412000Y69936662D01*
X30459619Y69984281D01*
X30554857Y70031900D01*
X30697714Y70031900D01*
X30792952Y69984281D01*
X30840571Y69936662D01*
X30888190Y69841424D01*
X30888190Y69460472D01*
X31078666Y70412853D02*
X31078666Y70889043D01*
X31364380Y70317615D02*
X30364380Y70650948D01*
X31364380Y70984281D01*
X30364380Y71222377D02*
X30364380Y71841424D01*
X30745333Y71508091D01*
X30745333Y71650948D01*
X30792952Y71746186D01*
X30840571Y71793805D01*
X30935809Y71841424D01*
X31173904Y71841424D01*
X31269142Y71793805D01*
X31316761Y71746186D01*
X31364380Y71650948D01*
X31364380Y71365234D01*
X31316761Y71269996D01*
X31269142Y71222377D01*
X29205333Y63841424D02*
X29157714Y63793805D01*
X29014857Y63698567D01*
X28919619Y63650948D01*
X28776761Y63603329D01*
X28538666Y63555710D01*
X28348190Y63555710D01*
X28110095Y63603329D01*
X27967238Y63650948D01*
X27872000Y63698567D01*
X27729142Y63793805D01*
X27681523Y63841424D01*
X28538666Y64174758D02*
X28538666Y64650948D01*
X28824380Y64079520D02*
X27824380Y64412853D01*
X28824380Y64746186D01*
X28824380Y65079520D02*
X27824380Y65079520D01*
X27824380Y65317615D01*
X27872000Y65460472D01*
X27967238Y65555710D01*
X28062476Y65603329D01*
X28252952Y65650948D01*
X28395809Y65650948D01*
X28586285Y65603329D01*
X28681523Y65555710D01*
X28776761Y65460472D01*
X28824380Y65317615D01*
X28824380Y65079520D01*
X28729142Y66650948D02*
X28776761Y66603329D01*
X28824380Y66460472D01*
X28824380Y66365234D01*
X28776761Y66222377D01*
X28681523Y66127139D01*
X28586285Y66079520D01*
X28395809Y66031900D01*
X28252952Y66031900D01*
X28062476Y66079520D01*
X27967238Y66127139D01*
X27872000Y66222377D01*
X27824380Y66365234D01*
X27824380Y66460472D01*
X27872000Y66603329D01*
X27919619Y66650948D01*
X27919619Y67031900D02*
X27872000Y67079520D01*
X27824380Y67174758D01*
X27824380Y67412853D01*
X27872000Y67508091D01*
X27919619Y67555710D01*
X28014857Y67603329D01*
X28110095Y67603329D01*
X28252952Y67555710D01*
X28824380Y66984281D01*
X28824380Y67603329D01*
X29205333Y67936662D02*
X29157714Y67984281D01*
X29014857Y68079520D01*
X28919619Y68127139D01*
X28776761Y68174758D01*
X28538666Y68222377D01*
X28348190Y68222377D01*
X28110095Y68174758D01*
X27967238Y68127139D01*
X27872000Y68079520D01*
X27729142Y67984281D01*
X27681523Y67936662D01*
X28824380Y69460472D02*
X27824380Y69460472D01*
X27824380Y69841424D01*
X27872000Y69936662D01*
X27919619Y69984281D01*
X28014857Y70031900D01*
X28157714Y70031900D01*
X28252952Y69984281D01*
X28300571Y69936662D01*
X28348190Y69841424D01*
X28348190Y69460472D01*
X28538666Y70412853D02*
X28538666Y70889043D01*
X28824380Y70317615D02*
X27824380Y70650948D01*
X28824380Y70984281D01*
X27919619Y71269996D02*
X27872000Y71317615D01*
X27824380Y71412853D01*
X27824380Y71650948D01*
X27872000Y71746186D01*
X27919619Y71793805D01*
X28014857Y71841424D01*
X28110095Y71841424D01*
X28252952Y71793805D01*
X28824380Y71222377D01*
X28824380Y71841424D01*
X26665333Y63841424D02*
X26617714Y63793805D01*
X26474857Y63698567D01*
X26379619Y63650948D01*
X26236761Y63603329D01*
X25998666Y63555710D01*
X25808190Y63555710D01*
X25570095Y63603329D01*
X25427238Y63650948D01*
X25332000Y63698567D01*
X25189142Y63793805D01*
X25141523Y63841424D01*
X25998666Y64174758D02*
X25998666Y64650948D01*
X26284380Y64079520D02*
X25284380Y64412853D01*
X26284380Y64746186D01*
X26284380Y65079520D02*
X25284380Y65079520D01*
X25284380Y65317615D01*
X25332000Y65460472D01*
X25427238Y65555710D01*
X25522476Y65603329D01*
X25712952Y65650948D01*
X25855809Y65650948D01*
X26046285Y65603329D01*
X26141523Y65555710D01*
X26236761Y65460472D01*
X26284380Y65317615D01*
X26284380Y65079520D01*
X26189142Y66650948D02*
X26236761Y66603329D01*
X26284380Y66460472D01*
X26284380Y66365234D01*
X26236761Y66222377D01*
X26141523Y66127139D01*
X26046285Y66079520D01*
X25855809Y66031900D01*
X25712952Y66031900D01*
X25522476Y66079520D01*
X25427238Y66127139D01*
X25332000Y66222377D01*
X25284380Y66365234D01*
X25284380Y66460472D01*
X25332000Y66603329D01*
X25379619Y66650948D01*
X26284380Y67603329D02*
X26284380Y67031900D01*
X26284380Y67317615D02*
X25284380Y67317615D01*
X25427238Y67222377D01*
X25522476Y67127139D01*
X25570095Y67031900D01*
X26665333Y67936662D02*
X26617714Y67984281D01*
X26474857Y68079520D01*
X26379619Y68127139D01*
X26236761Y68174758D01*
X25998666Y68222377D01*
X25808190Y68222377D01*
X25570095Y68174758D01*
X25427238Y68127139D01*
X25332000Y68079520D01*
X25189142Y67984281D01*
X25141523Y67936662D01*
X26284380Y69460472D02*
X25284380Y69460472D01*
X25284380Y69841424D01*
X25332000Y69936662D01*
X25379619Y69984281D01*
X25474857Y70031900D01*
X25617714Y70031900D01*
X25712952Y69984281D01*
X25760571Y69936662D01*
X25808190Y69841424D01*
X25808190Y69460472D01*
X25998666Y70412853D02*
X25998666Y70889043D01*
X26284380Y70317615D02*
X25284380Y70650948D01*
X26284380Y70984281D01*
X26284380Y71841424D02*
X26284380Y71269996D01*
X26284380Y71555710D02*
X25284380Y71555710D01*
X25427238Y71460472D01*
X25522476Y71365234D01*
X25570095Y71269996D01*
X24125333Y63841424D02*
X24077714Y63793805D01*
X23934857Y63698567D01*
X23839619Y63650948D01*
X23696761Y63603329D01*
X23458666Y63555710D01*
X23268190Y63555710D01*
X23030095Y63603329D01*
X22887238Y63650948D01*
X22792000Y63698567D01*
X22649142Y63793805D01*
X22601523Y63841424D01*
X23458666Y64174758D02*
X23458666Y64650948D01*
X23744380Y64079520D02*
X22744380Y64412853D01*
X23744380Y64746186D01*
X23744380Y65079520D02*
X22744380Y65079520D01*
X22744380Y65317615D01*
X22792000Y65460472D01*
X22887238Y65555710D01*
X22982476Y65603329D01*
X23172952Y65650948D01*
X23315809Y65650948D01*
X23506285Y65603329D01*
X23601523Y65555710D01*
X23696761Y65460472D01*
X23744380Y65317615D01*
X23744380Y65079520D01*
X23649142Y66650948D02*
X23696761Y66603329D01*
X23744380Y66460472D01*
X23744380Y66365234D01*
X23696761Y66222377D01*
X23601523Y66127139D01*
X23506285Y66079520D01*
X23315809Y66031900D01*
X23172952Y66031900D01*
X22982476Y66079520D01*
X22887238Y66127139D01*
X22792000Y66222377D01*
X22744380Y66365234D01*
X22744380Y66460472D01*
X22792000Y66603329D01*
X22839619Y66650948D01*
X22744380Y67269996D02*
X22744380Y67365234D01*
X22792000Y67460472D01*
X22839619Y67508091D01*
X22934857Y67555710D01*
X23125333Y67603329D01*
X23363428Y67603329D01*
X23553904Y67555710D01*
X23649142Y67508091D01*
X23696761Y67460472D01*
X23744380Y67365234D01*
X23744380Y67269996D01*
X23696761Y67174758D01*
X23649142Y67127139D01*
X23553904Y67079520D01*
X23363428Y67031900D01*
X23125333Y67031900D01*
X22934857Y67079520D01*
X22839619Y67127139D01*
X22792000Y67174758D01*
X22744380Y67269996D01*
X24125333Y67936662D02*
X24077714Y67984281D01*
X23934857Y68079520D01*
X23839619Y68127139D01*
X23696761Y68174758D01*
X23458666Y68222377D01*
X23268190Y68222377D01*
X23030095Y68174758D01*
X22887238Y68127139D01*
X22792000Y68079520D01*
X22649142Y67984281D01*
X22601523Y67936662D01*
X23744380Y69460472D02*
X22744380Y69460472D01*
X22744380Y69841424D01*
X22792000Y69936662D01*
X22839619Y69984281D01*
X22934857Y70031900D01*
X23077714Y70031900D01*
X23172952Y69984281D01*
X23220571Y69936662D01*
X23268190Y69841424D01*
X23268190Y69460472D01*
X23458666Y70412853D02*
X23458666Y70889043D01*
X23744380Y70317615D02*
X22744380Y70650948D01*
X23744380Y70984281D01*
X22744380Y71508091D02*
X22744380Y71603329D01*
X22792000Y71698567D01*
X22839619Y71746186D01*
X22934857Y71793805D01*
X23125333Y71841424D01*
X23363428Y71841424D01*
X23553904Y71793805D01*
X23649142Y71746186D01*
X23696761Y71698567D01*
X23744380Y71603329D01*
X23744380Y71508091D01*
X23696761Y71412853D01*
X23649142Y71365234D01*
X23553904Y71317615D01*
X23363428Y71269996D01*
X23125333Y71269996D01*
X22934857Y71317615D01*
X22839619Y71365234D01*
X22792000Y71412853D01*
X22744380Y71508091D01*
%TO.C,J5*%
X19974380Y3676467D02*
X20688666Y3676467D01*
X20831523Y3628848D01*
X20926761Y3533610D01*
X20974380Y3390753D01*
X20974380Y3295515D01*
X19974380Y4628848D02*
X19974380Y4152658D01*
X20450571Y4105039D01*
X20402952Y4152658D01*
X20355333Y4247896D01*
X20355333Y4485991D01*
X20402952Y4581229D01*
X20450571Y4628848D01*
X20545809Y4676467D01*
X20783904Y4676467D01*
X20879142Y4628848D01*
X20926761Y4581229D01*
X20974380Y4485991D01*
X20974380Y4247896D01*
X20926761Y4152658D01*
X20879142Y4105039D01*
X33904380Y7345396D02*
X32904380Y7345396D01*
X32904380Y7726348D01*
X32952000Y7821586D01*
X32999619Y7869205D01*
X33094857Y7916824D01*
X33237714Y7916824D01*
X33332952Y7869205D01*
X33380571Y7821586D01*
X33428190Y7726348D01*
X33428190Y7345396D01*
X33380571Y8678729D02*
X33428190Y8821586D01*
X33475809Y8869205D01*
X33571047Y8916824D01*
X33713904Y8916824D01*
X33809142Y8869205D01*
X33856761Y8821586D01*
X33904380Y8726348D01*
X33904380Y8345396D01*
X32904380Y8345396D01*
X32904380Y8678729D01*
X32952000Y8773967D01*
X32999619Y8821586D01*
X33094857Y8869205D01*
X33190095Y8869205D01*
X33285333Y8821586D01*
X33332952Y8773967D01*
X33380571Y8678729D01*
X33380571Y8345396D01*
X33237714Y9773967D02*
X33904380Y9773967D01*
X32856761Y9535872D02*
X33571047Y9297777D01*
X33571047Y9916824D01*
X34285333Y11345396D02*
X34237714Y11297777D01*
X34094857Y11202539D01*
X33999619Y11154920D01*
X33856761Y11107300D01*
X33618666Y11059681D01*
X33428190Y11059681D01*
X33190095Y11107300D01*
X33047238Y11154920D01*
X32952000Y11202539D01*
X32809142Y11297777D01*
X32761523Y11345396D01*
X32537000Y11488253D02*
X32537000Y12440634D01*
X33856761Y11678729D02*
X33904380Y11821586D01*
X33904380Y12059681D01*
X33856761Y12154920D01*
X33809142Y12202539D01*
X33713904Y12250158D01*
X33618666Y12250158D01*
X33523428Y12202539D01*
X33475809Y12154920D01*
X33428190Y12059681D01*
X33380571Y11869205D01*
X33332952Y11773967D01*
X33285333Y11726348D01*
X33190095Y11678729D01*
X33094857Y11678729D01*
X32999619Y11726348D01*
X32952000Y11773967D01*
X32904380Y11869205D01*
X32904380Y12107300D01*
X32952000Y12250158D01*
X32537000Y12440634D02*
X32537000Y13393015D01*
X33856761Y12631110D02*
X33904380Y12773967D01*
X33904380Y13012062D01*
X33856761Y13107300D01*
X33809142Y13154920D01*
X33713904Y13202539D01*
X33618666Y13202539D01*
X33523428Y13154920D01*
X33475809Y13107300D01*
X33428190Y13012062D01*
X33380571Y12821586D01*
X33332952Y12726348D01*
X33285333Y12678729D01*
X33190095Y12631110D01*
X33094857Y12631110D01*
X32999619Y12678729D01*
X32952000Y12726348D01*
X32904380Y12821586D01*
X32904380Y13059681D01*
X32952000Y13202539D01*
X32537000Y13393015D02*
X32537000Y14059681D01*
X34285333Y13535872D02*
X34237714Y13583491D01*
X34094857Y13678729D01*
X33999619Y13726348D01*
X33856761Y13773967D01*
X33618666Y13821586D01*
X33428190Y13821586D01*
X33190095Y13773967D01*
X33047238Y13726348D01*
X32952000Y13678729D01*
X32809142Y13583491D01*
X32761523Y13535872D01*
X31364380Y7345396D02*
X30364380Y7345396D01*
X30364380Y7726348D01*
X30412000Y7821586D01*
X30459619Y7869205D01*
X30554857Y7916824D01*
X30697714Y7916824D01*
X30792952Y7869205D01*
X30840571Y7821586D01*
X30888190Y7726348D01*
X30888190Y7345396D01*
X30840571Y8678729D02*
X30888190Y8821586D01*
X30935809Y8869205D01*
X31031047Y8916824D01*
X31173904Y8916824D01*
X31269142Y8869205D01*
X31316761Y8821586D01*
X31364380Y8726348D01*
X31364380Y8345396D01*
X30364380Y8345396D01*
X30364380Y8678729D01*
X30412000Y8773967D01*
X30459619Y8821586D01*
X30554857Y8869205D01*
X30650095Y8869205D01*
X30745333Y8821586D01*
X30792952Y8773967D01*
X30840571Y8678729D01*
X30840571Y8345396D01*
X30364380Y9250158D02*
X30364380Y9869205D01*
X30745333Y9535872D01*
X30745333Y9678729D01*
X30792952Y9773967D01*
X30840571Y9821586D01*
X30935809Y9869205D01*
X31173904Y9869205D01*
X31269142Y9821586D01*
X31316761Y9773967D01*
X31364380Y9678729D01*
X31364380Y9393015D01*
X31316761Y9297777D01*
X31269142Y9250158D01*
X31745333Y11345396D02*
X31697714Y11297777D01*
X31554857Y11202539D01*
X31459619Y11154920D01*
X31316761Y11107300D01*
X31078666Y11059681D01*
X30888190Y11059681D01*
X30650095Y11107300D01*
X30507238Y11154920D01*
X30412000Y11202539D01*
X30269142Y11297777D01*
X30221523Y11345396D01*
X30364380Y11916824D02*
X30364380Y12107300D01*
X30412000Y12202539D01*
X30507238Y12297777D01*
X30697714Y12345396D01*
X31031047Y12345396D01*
X31221523Y12297777D01*
X31316761Y12202539D01*
X31364380Y12107300D01*
X31364380Y11916824D01*
X31316761Y11821586D01*
X31221523Y11726348D01*
X31031047Y11678729D01*
X30697714Y11678729D01*
X30507238Y11726348D01*
X30412000Y11821586D01*
X30364380Y11916824D01*
X31269142Y13345396D02*
X31316761Y13297777D01*
X31364380Y13154920D01*
X31364380Y13059681D01*
X31316761Y12916824D01*
X31221523Y12821586D01*
X31126285Y12773967D01*
X30935809Y12726348D01*
X30792952Y12726348D01*
X30602476Y12773967D01*
X30507238Y12821586D01*
X30412000Y12916824D01*
X30364380Y13059681D01*
X30364380Y13154920D01*
X30412000Y13297777D01*
X30459619Y13345396D01*
X30364380Y13964443D02*
X30364380Y14059681D01*
X30412000Y14154920D01*
X30459619Y14202539D01*
X30554857Y14250158D01*
X30745333Y14297777D01*
X30983428Y14297777D01*
X31173904Y14250158D01*
X31269142Y14202539D01*
X31316761Y14154920D01*
X31364380Y14059681D01*
X31364380Y13964443D01*
X31316761Y13869205D01*
X31269142Y13821586D01*
X31173904Y13773967D01*
X30983428Y13726348D01*
X30745333Y13726348D01*
X30554857Y13773967D01*
X30459619Y13821586D01*
X30412000Y13869205D01*
X30364380Y13964443D01*
X30316761Y15440634D02*
X31602476Y14583491D01*
X31078666Y15726348D02*
X31078666Y16202539D01*
X31364380Y15631110D02*
X30364380Y15964443D01*
X31364380Y16297777D01*
X31364380Y16631110D02*
X30364380Y16631110D01*
X31364380Y17107300D02*
X30364380Y17107300D01*
X31364380Y17678729D01*
X30364380Y17678729D01*
X31364380Y18678729D02*
X31364380Y18107300D01*
X31364380Y18393015D02*
X30364380Y18393015D01*
X30507238Y18297777D01*
X30602476Y18202539D01*
X30650095Y18107300D01*
X31745333Y19012062D02*
X31697714Y19059681D01*
X31554857Y19154920D01*
X31459619Y19202539D01*
X31316761Y19250158D01*
X31078666Y19297777D01*
X30888190Y19297777D01*
X30650095Y19250158D01*
X30507238Y19202539D01*
X30412000Y19154920D01*
X30269142Y19059681D01*
X30221523Y19012062D01*
X28794380Y7345396D02*
X27794380Y7345396D01*
X27794380Y7726348D01*
X27842000Y7821586D01*
X27889619Y7869205D01*
X27984857Y7916824D01*
X28127714Y7916824D01*
X28222952Y7869205D01*
X28270571Y7821586D01*
X28318190Y7726348D01*
X28318190Y7345396D01*
X28270571Y8678729D02*
X28318190Y8821586D01*
X28365809Y8869205D01*
X28461047Y8916824D01*
X28603904Y8916824D01*
X28699142Y8869205D01*
X28746761Y8821586D01*
X28794380Y8726348D01*
X28794380Y8345396D01*
X27794380Y8345396D01*
X27794380Y8678729D01*
X27842000Y8773967D01*
X27889619Y8821586D01*
X27984857Y8869205D01*
X28080095Y8869205D01*
X28175333Y8821586D01*
X28222952Y8773967D01*
X28270571Y8678729D01*
X28270571Y8345396D01*
X27889619Y9297777D02*
X27842000Y9345396D01*
X27794380Y9440634D01*
X27794380Y9678729D01*
X27842000Y9773967D01*
X27889619Y9821586D01*
X27984857Y9869205D01*
X28080095Y9869205D01*
X28222952Y9821586D01*
X28794380Y9250158D01*
X28794380Y9869205D01*
X29175333Y11345396D02*
X29127714Y11297777D01*
X28984857Y11202539D01*
X28889619Y11154920D01*
X28746761Y11107300D01*
X28508666Y11059681D01*
X28318190Y11059681D01*
X28080095Y11107300D01*
X27937238Y11154920D01*
X27842000Y11202539D01*
X27699142Y11297777D01*
X27651523Y11345396D01*
X28794380Y11726348D02*
X27794380Y11726348D01*
X28794380Y12202539D02*
X27794380Y12202539D01*
X28794380Y12773967D01*
X27794380Y12773967D01*
X27794380Y13107300D02*
X27794380Y13678729D01*
X28794380Y13393015D02*
X27794380Y13393015D01*
X27889619Y13964443D02*
X27842000Y14012062D01*
X27794380Y14107300D01*
X27794380Y14345396D01*
X27842000Y14440634D01*
X27889619Y14488253D01*
X27984857Y14535872D01*
X28080095Y14535872D01*
X28222952Y14488253D01*
X28794380Y13916824D01*
X28794380Y14535872D01*
X27746761Y15678729D02*
X29032476Y14821586D01*
X28508666Y15964443D02*
X28508666Y16440634D01*
X28794380Y15869205D02*
X27794380Y16202539D01*
X28794380Y16535872D01*
X28794380Y16869205D02*
X27794380Y16869205D01*
X28794380Y17345396D02*
X27794380Y17345396D01*
X28794380Y17916824D01*
X27794380Y17916824D01*
X27794380Y18583491D02*
X27794380Y18678729D01*
X27842000Y18773967D01*
X27889619Y18821586D01*
X27984857Y18869205D01*
X28175333Y18916824D01*
X28413428Y18916824D01*
X28603904Y18869205D01*
X28699142Y18821586D01*
X28746761Y18773967D01*
X28794380Y18678729D01*
X28794380Y18583491D01*
X28746761Y18488253D01*
X28699142Y18440634D01*
X28603904Y18393015D01*
X28413428Y18345396D01*
X28175333Y18345396D01*
X27984857Y18393015D01*
X27889619Y18440634D01*
X27842000Y18488253D01*
X27794380Y18583491D01*
X29175333Y19250158D02*
X29127714Y19297777D01*
X28984857Y19393015D01*
X28889619Y19440634D01*
X28746761Y19488253D01*
X28508666Y19535872D01*
X28318190Y19535872D01*
X28080095Y19488253D01*
X27937238Y19440634D01*
X27842000Y19393015D01*
X27699142Y19297777D01*
X27651523Y19250158D01*
X26284380Y7345396D02*
X25284380Y7345396D01*
X25284380Y7726348D01*
X25332000Y7821586D01*
X25379619Y7869205D01*
X25474857Y7916824D01*
X25617714Y7916824D01*
X25712952Y7869205D01*
X25760571Y7821586D01*
X25808190Y7726348D01*
X25808190Y7345396D01*
X25760571Y8678729D02*
X25808190Y8821586D01*
X25855809Y8869205D01*
X25951047Y8916824D01*
X26093904Y8916824D01*
X26189142Y8869205D01*
X26236761Y8821586D01*
X26284380Y8726348D01*
X26284380Y8345396D01*
X25284380Y8345396D01*
X25284380Y8678729D01*
X25332000Y8773967D01*
X25379619Y8821586D01*
X25474857Y8869205D01*
X25570095Y8869205D01*
X25665333Y8821586D01*
X25712952Y8773967D01*
X25760571Y8678729D01*
X25760571Y8345396D01*
X26284380Y9869205D02*
X26284380Y9297777D01*
X26284380Y9583491D02*
X25284380Y9583491D01*
X25427238Y9488253D01*
X25522476Y9393015D01*
X25570095Y9297777D01*
X26665333Y11345396D02*
X26617714Y11297777D01*
X26474857Y11202539D01*
X26379619Y11154920D01*
X26236761Y11107300D01*
X25998666Y11059681D01*
X25808190Y11059681D01*
X25570095Y11107300D01*
X25427238Y11154920D01*
X25332000Y11202539D01*
X25189142Y11297777D01*
X25141523Y11345396D01*
X25284380Y11583491D02*
X25284380Y12154920D01*
X26284380Y11869205D02*
X25284380Y11869205D01*
X26284380Y13012062D02*
X26284380Y12440634D01*
X26284380Y12726348D02*
X25284380Y12726348D01*
X25427238Y12631110D01*
X25522476Y12535872D01*
X25570095Y12440634D01*
X26665333Y13345396D02*
X26617714Y13393015D01*
X26474857Y13488253D01*
X26379619Y13535872D01*
X26236761Y13583491D01*
X25998666Y13631110D01*
X25808190Y13631110D01*
X25570095Y13583491D01*
X25427238Y13535872D01*
X25332000Y13488253D01*
X25189142Y13393015D01*
X25141523Y13345396D01*
X23744380Y7345396D02*
X22744380Y7345396D01*
X22744380Y7726348D01*
X22792000Y7821586D01*
X22839619Y7869205D01*
X22934857Y7916824D01*
X23077714Y7916824D01*
X23172952Y7869205D01*
X23220571Y7821586D01*
X23268190Y7726348D01*
X23268190Y7345396D01*
X23220571Y8678729D02*
X23268190Y8821586D01*
X23315809Y8869205D01*
X23411047Y8916824D01*
X23553904Y8916824D01*
X23649142Y8869205D01*
X23696761Y8821586D01*
X23744380Y8726348D01*
X23744380Y8345396D01*
X22744380Y8345396D01*
X22744380Y8678729D01*
X22792000Y8773967D01*
X22839619Y8821586D01*
X22934857Y8869205D01*
X23030095Y8869205D01*
X23125333Y8821586D01*
X23172952Y8773967D01*
X23220571Y8678729D01*
X23220571Y8345396D01*
X22744380Y9535872D02*
X22744380Y9631110D01*
X22792000Y9726348D01*
X22839619Y9773967D01*
X22934857Y9821586D01*
X23125333Y9869205D01*
X23363428Y9869205D01*
X23553904Y9821586D01*
X23649142Y9773967D01*
X23696761Y9726348D01*
X23744380Y9631110D01*
X23744380Y9535872D01*
X23696761Y9440634D01*
X23649142Y9393015D01*
X23553904Y9345396D01*
X23363428Y9297777D01*
X23125333Y9297777D01*
X22934857Y9345396D01*
X22839619Y9393015D01*
X22792000Y9440634D01*
X22744380Y9535872D01*
X24125333Y11345396D02*
X24077714Y11297777D01*
X23934857Y11202539D01*
X23839619Y11154920D01*
X23696761Y11107300D01*
X23458666Y11059681D01*
X23268190Y11059681D01*
X23030095Y11107300D01*
X22887238Y11154920D01*
X22792000Y11202539D01*
X22649142Y11297777D01*
X22601523Y11345396D01*
X22744380Y11631110D02*
X23744380Y12297777D01*
X22744380Y12297777D02*
X23744380Y11631110D01*
X23649142Y13250158D02*
X23696761Y13202539D01*
X23744380Y13059681D01*
X23744380Y12964443D01*
X23696761Y12821586D01*
X23601523Y12726348D01*
X23506285Y12678729D01*
X23315809Y12631110D01*
X23172952Y12631110D01*
X22982476Y12678729D01*
X22887238Y12726348D01*
X22792000Y12821586D01*
X22744380Y12964443D01*
X22744380Y13059681D01*
X22792000Y13202539D01*
X22839619Y13250158D01*
X23744380Y13678729D02*
X22744380Y13678729D01*
X23744380Y14250158D02*
X23172952Y13821586D01*
X22744380Y14250158D02*
X23315809Y13678729D01*
X22696761Y15393015D02*
X23982476Y14535872D01*
X22744380Y15583491D02*
X22744380Y16154920D01*
X23744380Y15869205D02*
X22744380Y15869205D01*
X22744380Y16678729D02*
X22744380Y16773967D01*
X22792000Y16869205D01*
X22839619Y16916824D01*
X22934857Y16964443D01*
X23125333Y17012062D01*
X23363428Y17012062D01*
X23553904Y16964443D01*
X23649142Y16916824D01*
X23696761Y16869205D01*
X23744380Y16773967D01*
X23744380Y16678729D01*
X23696761Y16583491D01*
X23649142Y16535872D01*
X23553904Y16488253D01*
X23363428Y16440634D01*
X23125333Y16440634D01*
X22934857Y16488253D01*
X22839619Y16535872D01*
X22792000Y16583491D01*
X22744380Y16678729D01*
X24125333Y17345396D02*
X24077714Y17393015D01*
X23934857Y17488253D01*
X23839619Y17535872D01*
X23696761Y17583491D01*
X23458666Y17631110D01*
X23268190Y17631110D01*
X23030095Y17583491D01*
X22887238Y17535872D01*
X22792000Y17488253D01*
X22649142Y17393015D01*
X22601523Y17345396D01*
%TO.C,SW1*%
X12518361Y6922467D02*
X12565980Y7065324D01*
X12565980Y7303420D01*
X12518361Y7398658D01*
X12470742Y7446277D01*
X12375504Y7493896D01*
X12280266Y7493896D01*
X12185028Y7446277D01*
X12137409Y7398658D01*
X12089790Y7303420D01*
X12042171Y7112943D01*
X11994552Y7017705D01*
X11946933Y6970086D01*
X11851695Y6922467D01*
X11756457Y6922467D01*
X11661219Y6970086D01*
X11613600Y7017705D01*
X11565980Y7112943D01*
X11565980Y7351039D01*
X11613600Y7493896D01*
X11565980Y7827229D02*
X12565980Y8065324D01*
X11851695Y8255800D01*
X12565980Y8446277D01*
X11565980Y8684372D01*
X12565980Y9589134D02*
X12565980Y9017705D01*
X12565980Y9303420D02*
X11565980Y9303420D01*
X11708838Y9208181D01*
X11804076Y9112943D01*
X11851695Y9017705D01*
X3540980Y6253420D02*
X3064790Y5920086D01*
X3540980Y5681991D02*
X2540980Y5681991D01*
X2540980Y6062943D01*
X2588600Y6158181D01*
X2636219Y6205800D01*
X2731457Y6253420D01*
X2874314Y6253420D01*
X2969552Y6205800D01*
X3017171Y6158181D01*
X3064790Y6062943D01*
X3064790Y5681991D01*
X3017171Y6681991D02*
X3017171Y7015324D01*
X3540980Y7158181D02*
X3540980Y6681991D01*
X2540980Y6681991D01*
X2540980Y7158181D01*
X3493361Y7539134D02*
X3540980Y7681991D01*
X3540980Y7920086D01*
X3493361Y8015324D01*
X3445742Y8062943D01*
X3350504Y8110562D01*
X3255266Y8110562D01*
X3160028Y8062943D01*
X3112409Y8015324D01*
X3064790Y7920086D01*
X3017171Y7729610D01*
X2969552Y7634372D01*
X2921933Y7586753D01*
X2826695Y7539134D01*
X2731457Y7539134D01*
X2636219Y7586753D01*
X2588600Y7634372D01*
X2540980Y7729610D01*
X2540980Y7967705D01*
X2588600Y8110562D01*
X3017171Y8539134D02*
X3017171Y8872467D01*
X3540980Y9015324D02*
X3540980Y8539134D01*
X2540980Y8539134D01*
X2540980Y9015324D01*
X2540980Y9301039D02*
X2540980Y9872467D01*
X3540980Y9586753D02*
X2540980Y9586753D01*
%TO.C,C1*%
X11751533Y22747658D02*
X11703914Y22700039D01*
X11561057Y22652420D01*
X11465819Y22652420D01*
X11322961Y22700039D01*
X11227723Y22795277D01*
X11180104Y22890515D01*
X11132485Y23080991D01*
X11132485Y23223848D01*
X11180104Y23414324D01*
X11227723Y23509562D01*
X11322961Y23604800D01*
X11465819Y23652420D01*
X11561057Y23652420D01*
X11703914Y23604800D01*
X11751533Y23557181D01*
X12703914Y22652420D02*
X12132485Y22652420D01*
X12418200Y22652420D02*
X12418200Y23652420D01*
X12322961Y23509562D01*
X12227723Y23414324D01*
X12132485Y23366705D01*
%TO.C,C2*%
X41769142Y50931134D02*
X41816761Y50883515D01*
X41864380Y50740658D01*
X41864380Y50645420D01*
X41816761Y50502562D01*
X41721523Y50407324D01*
X41626285Y50359705D01*
X41435809Y50312086D01*
X41292952Y50312086D01*
X41102476Y50359705D01*
X41007238Y50407324D01*
X40912000Y50502562D01*
X40864380Y50645420D01*
X40864380Y50740658D01*
X40912000Y50883515D01*
X40959619Y50931134D01*
X40959619Y51312086D02*
X40912000Y51359705D01*
X40864380Y51454943D01*
X40864380Y51693039D01*
X40912000Y51788277D01*
X40959619Y51835896D01*
X41054857Y51883515D01*
X41150095Y51883515D01*
X41292952Y51835896D01*
X41864380Y51264467D01*
X41864380Y51883515D01*
%TO.C,C3*%
X48709142Y23431334D02*
X48756761Y23383715D01*
X48804380Y23240858D01*
X48804380Y23145620D01*
X48756761Y23002762D01*
X48661523Y22907524D01*
X48566285Y22859905D01*
X48375809Y22812286D01*
X48232952Y22812286D01*
X48042476Y22859905D01*
X47947238Y22907524D01*
X47852000Y23002762D01*
X47804380Y23145620D01*
X47804380Y23240858D01*
X47852000Y23383715D01*
X47899619Y23431334D01*
X47804380Y23764667D02*
X47804380Y24383715D01*
X48185333Y24050381D01*
X48185333Y24193239D01*
X48232952Y24288477D01*
X48280571Y24336096D01*
X48375809Y24383715D01*
X48613904Y24383715D01*
X48709142Y24336096D01*
X48756761Y24288477D01*
X48804380Y24193239D01*
X48804380Y23907524D01*
X48756761Y23812286D01*
X48709142Y23764667D01*
%TO.C,C4*%
X51249142Y50931134D02*
X51296761Y50883515D01*
X51344380Y50740658D01*
X51344380Y50645420D01*
X51296761Y50502562D01*
X51201523Y50407324D01*
X51106285Y50359705D01*
X50915809Y50312086D01*
X50772952Y50312086D01*
X50582476Y50359705D01*
X50487238Y50407324D01*
X50392000Y50502562D01*
X50344380Y50645420D01*
X50344380Y50740658D01*
X50392000Y50883515D01*
X50439619Y50931134D01*
X50677714Y51788277D02*
X51344380Y51788277D01*
X50296761Y51550181D02*
X51011047Y51312086D01*
X51011047Y51931134D01*
%TO.C,C5*%
X79966733Y25426658D02*
X79919114Y25379039D01*
X79776257Y25331420D01*
X79681019Y25331420D01*
X79538161Y25379039D01*
X79442923Y25474277D01*
X79395304Y25569515D01*
X79347685Y25759991D01*
X79347685Y25902848D01*
X79395304Y26093324D01*
X79442923Y26188562D01*
X79538161Y26283800D01*
X79681019Y26331420D01*
X79776257Y26331420D01*
X79919114Y26283800D01*
X79966733Y26236181D01*
X80871495Y26331420D02*
X80395304Y26331420D01*
X80347685Y25855229D01*
X80395304Y25902848D01*
X80490542Y25950467D01*
X80728638Y25950467D01*
X80823876Y25902848D01*
X80871495Y25855229D01*
X80919114Y25759991D01*
X80919114Y25521896D01*
X80871495Y25426658D01*
X80823876Y25379039D01*
X80728638Y25331420D01*
X80490542Y25331420D01*
X80395304Y25379039D01*
X80347685Y25426658D01*
%TO.C,C6*%
X80123733Y15888658D02*
X80076114Y15841039D01*
X79933257Y15793420D01*
X79838019Y15793420D01*
X79695161Y15841039D01*
X79599923Y15936277D01*
X79552304Y16031515D01*
X79504685Y16221991D01*
X79504685Y16364848D01*
X79552304Y16555324D01*
X79599923Y16650562D01*
X79695161Y16745800D01*
X79838019Y16793420D01*
X79933257Y16793420D01*
X80076114Y16745800D01*
X80123733Y16698181D01*
X80980876Y16793420D02*
X80790400Y16793420D01*
X80695161Y16745800D01*
X80647542Y16698181D01*
X80552304Y16555324D01*
X80504685Y16364848D01*
X80504685Y15983896D01*
X80552304Y15888658D01*
X80599923Y15841039D01*
X80695161Y15793420D01*
X80885638Y15793420D01*
X80980876Y15841039D01*
X81028495Y15888658D01*
X81076114Y15983896D01*
X81076114Y16221991D01*
X81028495Y16317229D01*
X80980876Y16364848D01*
X80885638Y16412467D01*
X80695161Y16412467D01*
X80599923Y16364848D01*
X80552304Y16317229D01*
X80504685Y16221991D01*
%TO.C,D1*%
X8535980Y23696705D02*
X7535980Y23696705D01*
X7535980Y23934800D01*
X7583600Y24077658D01*
X7678838Y24172896D01*
X7774076Y24220515D01*
X7964552Y24268134D01*
X8107409Y24268134D01*
X8297885Y24220515D01*
X8393123Y24172896D01*
X8488361Y24077658D01*
X8535980Y23934800D01*
X8535980Y23696705D01*
X8535980Y25220515D02*
X8535980Y24649086D01*
X8535980Y24934800D02*
X7535980Y24934800D01*
X7678838Y24839562D01*
X7774076Y24744324D01*
X7821695Y24649086D01*
X8165980Y29252896D02*
X7165980Y29252896D01*
X8165980Y29824324D02*
X7594552Y29395753D01*
X7165980Y29824324D02*
X7737409Y29252896D01*
%TO.C,D2*%
X87943780Y58164505D02*
X86943780Y58164505D01*
X86943780Y58402600D01*
X86991400Y58545458D01*
X87086638Y58640696D01*
X87181876Y58688315D01*
X87372352Y58735934D01*
X87515209Y58735934D01*
X87705685Y58688315D01*
X87800923Y58640696D01*
X87896161Y58545458D01*
X87943780Y58402600D01*
X87943780Y58164505D01*
X87039019Y59116886D02*
X86991400Y59164505D01*
X86943780Y59259743D01*
X86943780Y59497839D01*
X86991400Y59593077D01*
X87039019Y59640696D01*
X87134257Y59688315D01*
X87229495Y59688315D01*
X87372352Y59640696D01*
X87943780Y59069267D01*
X87943780Y59688315D01*
X89063780Y51020696D02*
X88063780Y51020696D01*
X89063780Y51592124D02*
X88492352Y51163553D01*
X88063780Y51592124D02*
X88635209Y51020696D01*
%TO.C,D3*%
X87554780Y4672705D02*
X86554780Y4672705D01*
X86554780Y4910800D01*
X86602400Y5053658D01*
X86697638Y5148896D01*
X86792876Y5196515D01*
X86983352Y5244134D01*
X87126209Y5244134D01*
X87316685Y5196515D01*
X87411923Y5148896D01*
X87507161Y5053658D01*
X87554780Y4910800D01*
X87554780Y4672705D01*
X86554780Y5577467D02*
X86554780Y6196515D01*
X86935733Y5863181D01*
X86935733Y6006039D01*
X86983352Y6101277D01*
X87030971Y6148896D01*
X87126209Y6196515D01*
X87364304Y6196515D01*
X87459542Y6148896D01*
X87507161Y6101277D01*
X87554780Y6006039D01*
X87554780Y5720324D01*
X87507161Y5625086D01*
X87459542Y5577467D01*
%TO.C,R1*%
X11593733Y22926120D02*
X11260400Y23402310D01*
X11022304Y22926120D02*
X11022304Y23926120D01*
X11403257Y23926120D01*
X11498495Y23878500D01*
X11546114Y23830881D01*
X11593733Y23735643D01*
X11593733Y23592786D01*
X11546114Y23497548D01*
X11498495Y23449929D01*
X11403257Y23402310D01*
X11022304Y23402310D01*
X12546114Y22926120D02*
X11974685Y22926120D01*
X12260400Y22926120D02*
X12260400Y23926120D01*
X12165161Y23783262D01*
X12069923Y23688024D01*
X11974685Y23640405D01*
%TO.C,R2*%
X90765733Y26651420D02*
X90432400Y27127610D01*
X90194304Y26651420D02*
X90194304Y27651420D01*
X90575257Y27651420D01*
X90670495Y27603800D01*
X90718114Y27556181D01*
X90765733Y27460943D01*
X90765733Y27318086D01*
X90718114Y27222848D01*
X90670495Y27175229D01*
X90575257Y27127610D01*
X90194304Y27127610D01*
X91146685Y27556181D02*
X91194304Y27603800D01*
X91289542Y27651420D01*
X91527638Y27651420D01*
X91622876Y27603800D01*
X91670495Y27556181D01*
X91718114Y27460943D01*
X91718114Y27365705D01*
X91670495Y27222848D01*
X91099066Y26651420D01*
X91718114Y26651420D01*
%TO.C,U1*%
X20414380Y36558296D02*
X21223904Y36558296D01*
X21319142Y36605915D01*
X21366761Y36653534D01*
X21414380Y36748772D01*
X21414380Y36939248D01*
X21366761Y37034486D01*
X21319142Y37082105D01*
X21223904Y37129724D01*
X20414380Y37129724D01*
X21414380Y38129724D02*
X21414380Y37558296D01*
X21414380Y37844010D02*
X20414380Y37844010D01*
X20557238Y37748772D01*
X20652476Y37653534D01*
X20700095Y37558296D01*
%TD*%
%LPC*%
D13*
%TO.C,Y1*%
X78433400Y39870200D03*
X78433400Y34870200D03*
%TD*%
D14*
%TO.C,C8*%
X80933400Y44940200D03*
X75933400Y44940200D03*
%TD*%
%TO.C,C7*%
X80933400Y29700200D03*
X75933400Y29700200D03*
%TD*%
D15*
%TO.C,J1*%
X15011600Y47040800D03*
X12471600Y47040800D03*
X15011600Y49580800D03*
X12471600Y49580800D03*
X15011600Y52120800D03*
X12471600Y52120800D03*
X15011600Y54660800D03*
X12471600Y54660800D03*
X15011600Y57200800D03*
D16*
X12471600Y57200800D03*
%TD*%
D17*
%TO.C,J6*%
X79286400Y3959800D03*
D18*
X76746400Y3959800D03*
%TD*%
D17*
%TO.C,J2*%
X89612400Y35229800D03*
D18*
X89612400Y37769800D03*
%TD*%
D17*
%TO.C,J7*%
X69026300Y3959800D03*
X66486300Y3959800D03*
X63946300Y3959800D03*
X61406300Y3959800D03*
X58866300Y3959800D03*
X56326300Y3959800D03*
X53786300Y3959800D03*
D18*
X51246300Y3959800D03*
%TD*%
D17*
%TO.C,J4*%
X51346400Y75079400D03*
X53886400Y75079400D03*
X56426400Y75079400D03*
X58966400Y75079400D03*
X61506400Y75079400D03*
X64046400Y75079400D03*
X66586400Y75079400D03*
D18*
X69126400Y75079400D03*
%TD*%
D17*
%TO.C,J3*%
X41072000Y75129400D03*
X38532000Y75129400D03*
X35992000Y75129400D03*
X33452000Y75129400D03*
X30912000Y75129400D03*
X28372000Y75129400D03*
X25832000Y75129400D03*
D18*
X23292000Y75129400D03*
%TD*%
D17*
%TO.C,J5*%
X33452000Y4009800D03*
X30912000Y4009800D03*
X28372000Y4009800D03*
X25832000Y4009800D03*
D18*
X23292000Y4009800D03*
%TD*%
D19*
%TO.C,SW1*%
X10113600Y5005800D03*
X5613600Y5005800D03*
X10113600Y11505800D03*
X5613600Y11505800D03*
%TD*%
D14*
%TO.C,C1*%
X13168200Y19354800D03*
D20*
X10668200Y19354800D03*
%TD*%
D14*
%TO.C,C2*%
X43612000Y53597800D03*
X43612000Y48597800D03*
%TD*%
%TO.C,C3*%
X46152000Y21098000D03*
X46152000Y26098000D03*
%TD*%
%TO.C,C4*%
X48692000Y48597800D03*
X48692000Y53597800D03*
%TD*%
%TO.C,C5*%
X81383400Y21383800D03*
D20*
X78883400Y21383800D03*
%TD*%
D14*
%TO.C,C6*%
X82790400Y14045800D03*
X77790400Y14045800D03*
%TD*%
D21*
%TO.C,D1*%
X5613600Y19354800D03*
D22*
X5613600Y29514800D03*
%TD*%
D23*
%TO.C,D2*%
X91211400Y66522600D03*
D24*
X91211400Y51282600D03*
%TD*%
D25*
%TO.C,D3*%
X90062400Y6680800D03*
D26*
X90062400Y4140800D03*
%TD*%
D27*
%TO.C,R1*%
X10490400Y26098500D03*
D14*
X13030400Y26098500D03*
%TD*%
D27*
%TO.C,R2*%
X92202400Y24383800D03*
D14*
X89662400Y24383800D03*
%TD*%
D27*
%TO.C,U1*%
X23292000Y44940200D03*
X71552000Y29700200D03*
X25832000Y44940200D03*
X69012000Y29700200D03*
X28372000Y44940200D03*
X66472000Y29700200D03*
X30912000Y44940200D03*
X63932000Y29700200D03*
X33452000Y44940200D03*
X61392000Y29700200D03*
X35992000Y44940200D03*
X58852000Y29700200D03*
X38532000Y44940200D03*
X56312000Y29700200D03*
X41072000Y44940200D03*
X53772000Y29700200D03*
X43612000Y44940200D03*
X51232000Y29700200D03*
X46152000Y44940200D03*
X48692000Y29700200D03*
X48692000Y44940200D03*
X46152000Y29700200D03*
X51232000Y44940200D03*
X43612000Y29700200D03*
X53772000Y44940200D03*
X41072000Y29700200D03*
X56312000Y44940200D03*
X38532000Y29700200D03*
X58852000Y44940200D03*
X35992000Y29700200D03*
X61392000Y44940200D03*
X33452000Y29700200D03*
X63932000Y44940200D03*
X30912000Y29700200D03*
X66472000Y44940200D03*
X28372000Y29700200D03*
X69012000Y44940200D03*
X25832000Y29700200D03*
X71552000Y44940200D03*
D20*
X23292000Y29700200D03*
%TD*%
M02*
