G04 #@! TF.GenerationSoftware,KiCad,Pcbnew,5.1.4-3.fc30*
G04 #@! TF.CreationDate,2019-09-19T02:51:46+02:00*
G04 #@! TF.ProjectId,avr_dev_board_atmega16,6176725f-6465-4765-9f62-6f6172645f61,1_0*
G04 #@! TF.SameCoordinates,Original*
G04 #@! TF.FileFunction,Copper,L1,Top*
G04 #@! TF.FilePolarity,Positive*
%FSLAX46Y46*%
G04 Gerber Fmt 4.6, Leading zero omitted, Abs format (unit mm)*
G04 Created by KiCad (PCBNEW 5.1.4-3.fc30) date 2019-09-19 02:51:46*
%MOMM*%
%LPD*%
G04 APERTURE LIST*
%ADD10C,1.700000*%
%ADD11C,1.600000*%
%ADD12O,1.727200X1.727200*%
%ADD13R,1.727200X1.727200*%
%ADD14O,1.700000X1.700000*%
%ADD15R,1.700000X1.700000*%
%ADD16C,2.000000*%
%ADD17R,1.600000X1.600000*%
%ADD18O,2.200000X2.200000*%
%ADD19R,2.200000X2.200000*%
%ADD20O,3.200000X3.200000*%
%ADD21R,3.200000X3.200000*%
%ADD22C,1.800000*%
%ADD23R,1.800000X1.800000*%
%ADD24O,1.600000X1.600000*%
%ADD25C,0.400000*%
%ADD26C,1.000000*%
%ADD27C,0.600000*%
%ADD28C,0.500000*%
G04 APERTURE END LIST*
D10*
X118616000Y-86164600D03*
X118616000Y-91164600D03*
D11*
X121116000Y-81094600D03*
X116116000Y-81094600D03*
X121116000Y-96334600D03*
X116116000Y-96334600D03*
D12*
X55194200Y-78994000D03*
X52654200Y-78994000D03*
X55194200Y-76454000D03*
X52654200Y-76454000D03*
X55194200Y-73914000D03*
X52654200Y-73914000D03*
X55194200Y-71374000D03*
X52654200Y-71374000D03*
X55194200Y-68834000D03*
D13*
X52654200Y-68834000D03*
D14*
X119469000Y-122075000D03*
D15*
X116929000Y-122075000D03*
D14*
X129795000Y-90805000D03*
D15*
X129795000Y-88265000D03*
D14*
X109208900Y-122075000D03*
X106668900Y-122075000D03*
X104128900Y-122075000D03*
X101588900Y-122075000D03*
X99048900Y-122075000D03*
X96508900Y-122075000D03*
X93968900Y-122075000D03*
D15*
X91428900Y-122075000D03*
D14*
X91529000Y-50955400D03*
X94069000Y-50955400D03*
X96609000Y-50955400D03*
X99149000Y-50955400D03*
X101689000Y-50955400D03*
X104229000Y-50955400D03*
X106769000Y-50955400D03*
D15*
X109309000Y-50955400D03*
D14*
X81254600Y-50905400D03*
X78714600Y-50905400D03*
X76174600Y-50905400D03*
X73634600Y-50905400D03*
X71094600Y-50905400D03*
X68554600Y-50905400D03*
X66014600Y-50905400D03*
D15*
X63474600Y-50905400D03*
D14*
X73634600Y-122025000D03*
X71094600Y-122025000D03*
X68554600Y-122025000D03*
X66014600Y-122025000D03*
D15*
X63474600Y-122025000D03*
D16*
X50296200Y-121029000D03*
X45796200Y-121029000D03*
X50296200Y-114529000D03*
X45796200Y-114529000D03*
D11*
X53350800Y-106680000D03*
D17*
X50850800Y-106680000D03*
D11*
X83794600Y-72437000D03*
X83794600Y-77437000D03*
X86334600Y-104936800D03*
X86334600Y-99936800D03*
X88874600Y-77437000D03*
X88874600Y-72437000D03*
X121566000Y-104651000D03*
D17*
X119066000Y-104651000D03*
D11*
X122973000Y-111989000D03*
X117973000Y-111989000D03*
D18*
X45796200Y-106680000D03*
D19*
X45796200Y-96520000D03*
D20*
X131394000Y-59512200D03*
D21*
X131394000Y-74752200D03*
D22*
X130245000Y-119354000D03*
D23*
X130245000Y-121894000D03*
D24*
X50673000Y-99936300D03*
D11*
X53213000Y-99936300D03*
D24*
X132385000Y-101651000D03*
D11*
X129845000Y-101651000D03*
D24*
X63474600Y-81094600D03*
X111734600Y-96334600D03*
X66014600Y-81094600D03*
X109194600Y-96334600D03*
X68554600Y-81094600D03*
X106654600Y-96334600D03*
X71094600Y-81094600D03*
X104114600Y-96334600D03*
X73634600Y-81094600D03*
X101574600Y-96334600D03*
X76174600Y-81094600D03*
X99034600Y-96334600D03*
X78714600Y-81094600D03*
X96494600Y-96334600D03*
X81254600Y-81094600D03*
X93954600Y-96334600D03*
X83794600Y-81094600D03*
X91414600Y-96334600D03*
X86334600Y-81094600D03*
X88874600Y-96334600D03*
X88874600Y-81094600D03*
X86334600Y-96334600D03*
X91414600Y-81094600D03*
X83794600Y-96334600D03*
X93954600Y-81094600D03*
X81254600Y-96334600D03*
X96494600Y-81094600D03*
X78714600Y-96334600D03*
X99034600Y-81094600D03*
X76174600Y-96334600D03*
X101574600Y-81094600D03*
X73634600Y-96334600D03*
X104114600Y-81094600D03*
X71094600Y-96334600D03*
X106654600Y-81094600D03*
X68554600Y-96334600D03*
X109194600Y-81094600D03*
X66014600Y-96334600D03*
X111734600Y-81094600D03*
D17*
X63474600Y-96334600D03*
D25*
X53901600Y-97534900D02*
X51873300Y-99563200D01*
X51873300Y-99563200D02*
X51873300Y-99936300D01*
X82594300Y-96334600D02*
X82594300Y-96709800D01*
X82594300Y-96709800D02*
X81769200Y-97534900D01*
X81769200Y-97534900D02*
X53901600Y-97534900D01*
X53901600Y-97534900D02*
X51378200Y-95011500D01*
X51378200Y-95011500D02*
X51378200Y-75930200D01*
X51378200Y-75930200D02*
X52130500Y-75177900D01*
X52130500Y-75177900D02*
X52654200Y-75177900D01*
X52654200Y-73914000D02*
X52654200Y-75177900D01*
X50673000Y-99936300D02*
X51873300Y-99936300D01*
X83794600Y-96334600D02*
X82594300Y-96334600D01*
X50850800Y-106680000D02*
X47296500Y-106680000D01*
X45796200Y-106680000D02*
X47296500Y-106680000D01*
D26*
X88874600Y-82675200D02*
X88874600Y-94834300D01*
X86334600Y-81094600D02*
X87915200Y-82675200D01*
X87915200Y-82675200D02*
X88874600Y-82675200D01*
X88874600Y-82675200D02*
X119535400Y-82675200D01*
X119535400Y-82675200D02*
X121116000Y-81094600D01*
X88874600Y-96334600D02*
X88874600Y-94834300D01*
X130245000Y-121894000D02*
X128644700Y-121894000D01*
X119469000Y-122075000D02*
X128463700Y-122075000D01*
X128463700Y-122075000D02*
X128644700Y-121894000D01*
X55194200Y-71374000D02*
X56758100Y-71374000D01*
X83794600Y-72437000D02*
X57821100Y-72437000D01*
X57821100Y-72437000D02*
X56758100Y-71374000D01*
D27*
X45796200Y-96520000D02*
X45796200Y-73214700D01*
X45796200Y-73214700D02*
X51592500Y-67418400D01*
X51592500Y-67418400D02*
X53778600Y-67418400D01*
X53778600Y-67418400D02*
X55194200Y-68834000D01*
X86334600Y-99936800D02*
X53213500Y-99936800D01*
X53213500Y-99936800D02*
X53213000Y-99936300D01*
X117765700Y-104651000D02*
X113051500Y-99936800D01*
X113051500Y-99936800D02*
X86334600Y-99936800D01*
X119066000Y-104651000D02*
X117765700Y-104651000D01*
X129845000Y-101651000D02*
X122066000Y-101651000D01*
X122066000Y-101651000D02*
X119066000Y-104651000D01*
D25*
X52654200Y-76454000D02*
X53918100Y-76454000D01*
X81254600Y-96334600D02*
X80054300Y-96334600D01*
X80054300Y-96334600D02*
X80054300Y-95959500D01*
X80054300Y-95959500D02*
X66436700Y-82341900D01*
X66436700Y-82341900D02*
X62989200Y-82341900D01*
X62989200Y-82341900D02*
X58371300Y-77724000D01*
X58371300Y-77724000D02*
X54664400Y-77724000D01*
X54664400Y-77724000D02*
X53918100Y-76977700D01*
X53918100Y-76977700D02*
X53918100Y-76454000D01*
X52654200Y-78994000D02*
X53918100Y-78994000D01*
X78714600Y-96334600D02*
X77514300Y-96334600D01*
X77514300Y-96334600D02*
X77514300Y-95959400D01*
X77514300Y-95959400D02*
X76689200Y-95134300D01*
X76689200Y-95134300D02*
X69534700Y-95134300D01*
X69534700Y-95134300D02*
X53918100Y-79517700D01*
X53918100Y-79517700D02*
X53918100Y-78994000D01*
D28*
X114864800Y-95083400D02*
X116116000Y-96334600D01*
X95204900Y-96334600D02*
X95204900Y-95787600D01*
X95204900Y-95787600D02*
X95909100Y-95083400D01*
X95909100Y-95083400D02*
X114864800Y-95083400D01*
X114864800Y-95083400D02*
X114864800Y-94915800D01*
X114864800Y-94915800D02*
X118616000Y-91164600D01*
X93954600Y-96334600D02*
X95204900Y-96334600D01*
X91414600Y-96334600D02*
X92664900Y-96334600D01*
X92664900Y-96334600D02*
X92664900Y-95787600D01*
X92664900Y-95787600D02*
X102287900Y-86164600D01*
X102287900Y-86164600D02*
X118616000Y-86164600D01*
M02*
