M48
; DRILL file {KiCad 5.1.6-c6e7f7d~86~ubuntu18.04.1} date Mon May 25 18:46:26 2020
; FORMAT={-:-/ absolute / inch / decimal}
; #@! TF.CreationDate,2020-05-25T18:46:26+02:00
; #@! TF.GenerationSoftware,Kicad,Pcbnew,5.1.6-c6e7f7d~86~ubuntu18.04.1
FMAT,2
INCH
T1C0.0315
T2C0.0354
T3C0.0394
T4C0.0400
T5C0.0433
T6C0.0630
%
G90
G05
T1
X2.9895Y1.1693
X3.1864Y1.1693
X3.1056Y0.8419
X3.2041Y0.8419
X0.413Y1.0275
X0.513Y1.0275
X0.917Y1.7693
X0.917Y1.1693
X1.017Y1.7693
X1.017Y1.1693
X1.117Y1.7693
X1.117Y1.1693
X1.217Y1.7693
X1.217Y1.1693
X1.317Y1.7693
X1.317Y1.1693
X1.417Y1.7693
X1.417Y1.1693
X1.517Y1.7693
X1.517Y1.1693
X1.617Y1.7693
X1.617Y1.1693
X1.717Y1.7693
X1.717Y1.1693
X1.817Y1.7693
X1.817Y1.1693
X1.917Y1.7693
X1.917Y1.1693
X2.017Y1.7693
X2.017Y1.1693
X2.117Y1.7693
X2.117Y1.1693
X2.217Y1.7693
X2.217Y1.1693
X2.317Y1.7693
X2.317Y1.1693
X2.417Y1.7693
X2.417Y1.1693
X2.517Y1.7693
X2.517Y1.1693
X2.617Y1.7693
X2.617Y1.1693
X2.717Y1.7693
X2.717Y1.1693
X2.817Y1.7693
X2.817Y1.1693
X1.917Y2.1101
X1.917Y1.9133
X1.817Y1.0275
X1.817Y0.8306
X2.9895Y1.7693
X3.1864Y1.7693
X0.42Y0.762
X0.5184Y0.762
X1.717Y2.1101
X1.717Y1.9133
X3.53Y0.96
X3.63Y0.96
X3.0626Y0.553
X3.2595Y0.553
T2
X3.5458Y0.263
X3.5458Y0.163
T3
X0.917Y2.9579
X1.017Y2.9579
X1.117Y2.9579
X1.217Y2.9579
X1.317Y2.9579
X1.417Y2.9579
X1.517Y2.9579
X1.617Y2.9579
X2.0215Y2.9559
X2.1215Y2.9559
X2.2215Y2.9559
X2.3215Y2.9559
X2.4215Y2.9559
X2.5215Y2.9559
X2.6215Y2.9559
X2.7215Y2.9559
X3.0879Y1.5697
X3.0879Y1.3728
X3.0215Y0.1559
X3.1215Y0.1559
X0.917Y0.1579
X1.017Y0.1579
X1.117Y0.1579
X1.217Y0.1579
X1.317Y0.1579
X2.0176Y0.1559
X2.1176Y0.1559
X2.2176Y0.1559
X2.3176Y0.1559
X2.4176Y0.1559
X2.5176Y0.1559
X2.6176Y0.1559
X2.7176Y0.1559
X3.528Y1.487
X3.528Y1.387
T4
X0.491Y2.252
X0.491Y2.152
X0.491Y2.052
X0.491Y1.952
X0.491Y1.852
X0.591Y2.252
X0.591Y2.152
X0.591Y2.052
X0.591Y1.952
X0.591Y1.852
T5
X0.221Y1.162
X0.221Y0.762
X0.221Y0.453
X0.221Y0.1971
X0.3982Y0.453
X0.3982Y0.1971
T6
X3.591Y2.619
X3.591Y2.019
T0
M30
