%TF.GenerationSoftware,KiCad,Pcbnew,5.1.6-c6e7f7d~86~ubuntu18.04.1*%
%TF.CreationDate,2020-05-25T18:46:22+02:00*%
%TF.ProjectId,avr_dev_board_atmega16,6176725f-6465-4765-9f62-6f6172645f61,1_0*%
%TF.SameCoordinates,PX2652348PY7832370*%
%TF.FileFunction,Soldermask,Top*%
%TF.FilePolarity,Negative*%
%FSLAX46Y46*%
G04 Gerber Fmt 4.6, Leading zero omitted, Abs format (unit mm)*
G04 Created by KiCad (PCBNEW 5.1.6-c6e7f7d~86~ubuntu18.04.1) date 2020-05-25 18:46:22*
%MOMM*%
%LPD*%
G01*
G04 APERTURE LIST*
%ADD10C,0.150000*%
G04 APERTURE END LIST*
D10*
G36*
X79399912Y4855873D02*
G01*
X79549212Y4826176D01*
X79713184Y4758256D01*
X79860754Y4659653D01*
X79986253Y4534154D01*
X80084856Y4386584D01*
X80152776Y4222612D01*
X80187400Y4048541D01*
X80187400Y3871059D01*
X80152776Y3696988D01*
X80084856Y3533016D01*
X79986253Y3385446D01*
X79860754Y3259947D01*
X79713184Y3161344D01*
X79549212Y3093424D01*
X79399912Y3063727D01*
X79375142Y3058800D01*
X79197658Y3058800D01*
X79172888Y3063727D01*
X79023588Y3093424D01*
X78859616Y3161344D01*
X78712046Y3259947D01*
X78586547Y3385446D01*
X78487944Y3533016D01*
X78420024Y3696988D01*
X78385400Y3871059D01*
X78385400Y4048541D01*
X78420024Y4222612D01*
X78487944Y4386584D01*
X78586547Y4534154D01*
X78712046Y4659653D01*
X78859616Y4758256D01*
X79023588Y4826176D01*
X79172888Y4855873D01*
X79197658Y4860800D01*
X79375142Y4860800D01*
X79399912Y4855873D01*
G37*
G36*
X77647400Y3058800D02*
G01*
X75845400Y3058800D01*
X75845400Y4860800D01*
X77647400Y4860800D01*
X77647400Y3058800D01*
G37*
G36*
X52147300Y3058800D02*
G01*
X50345300Y3058800D01*
X50345300Y4860800D01*
X52147300Y4860800D01*
X52147300Y3058800D01*
G37*
G36*
X53899812Y4855873D02*
G01*
X54049112Y4826176D01*
X54213084Y4758256D01*
X54360654Y4659653D01*
X54486153Y4534154D01*
X54584756Y4386584D01*
X54652676Y4222612D01*
X54687300Y4048541D01*
X54687300Y3871059D01*
X54652676Y3696988D01*
X54584756Y3533016D01*
X54486153Y3385446D01*
X54360654Y3259947D01*
X54213084Y3161344D01*
X54049112Y3093424D01*
X53899812Y3063727D01*
X53875042Y3058800D01*
X53697558Y3058800D01*
X53672788Y3063727D01*
X53523488Y3093424D01*
X53359516Y3161344D01*
X53211946Y3259947D01*
X53086447Y3385446D01*
X52987844Y3533016D01*
X52919924Y3696988D01*
X52885300Y3871059D01*
X52885300Y4048541D01*
X52919924Y4222612D01*
X52987844Y4386584D01*
X53086447Y4534154D01*
X53211946Y4659653D01*
X53359516Y4758256D01*
X53523488Y4826176D01*
X53672788Y4855873D01*
X53697558Y4860800D01*
X53875042Y4860800D01*
X53899812Y4855873D01*
G37*
G36*
X56439812Y4855873D02*
G01*
X56589112Y4826176D01*
X56753084Y4758256D01*
X56900654Y4659653D01*
X57026153Y4534154D01*
X57124756Y4386584D01*
X57192676Y4222612D01*
X57227300Y4048541D01*
X57227300Y3871059D01*
X57192676Y3696988D01*
X57124756Y3533016D01*
X57026153Y3385446D01*
X56900654Y3259947D01*
X56753084Y3161344D01*
X56589112Y3093424D01*
X56439812Y3063727D01*
X56415042Y3058800D01*
X56237558Y3058800D01*
X56212788Y3063727D01*
X56063488Y3093424D01*
X55899516Y3161344D01*
X55751946Y3259947D01*
X55626447Y3385446D01*
X55527844Y3533016D01*
X55459924Y3696988D01*
X55425300Y3871059D01*
X55425300Y4048541D01*
X55459924Y4222612D01*
X55527844Y4386584D01*
X55626447Y4534154D01*
X55751946Y4659653D01*
X55899516Y4758256D01*
X56063488Y4826176D01*
X56212788Y4855873D01*
X56237558Y4860800D01*
X56415042Y4860800D01*
X56439812Y4855873D01*
G37*
G36*
X58979812Y4855873D02*
G01*
X59129112Y4826176D01*
X59293084Y4758256D01*
X59440654Y4659653D01*
X59566153Y4534154D01*
X59664756Y4386584D01*
X59732676Y4222612D01*
X59767300Y4048541D01*
X59767300Y3871059D01*
X59732676Y3696988D01*
X59664756Y3533016D01*
X59566153Y3385446D01*
X59440654Y3259947D01*
X59293084Y3161344D01*
X59129112Y3093424D01*
X58979812Y3063727D01*
X58955042Y3058800D01*
X58777558Y3058800D01*
X58752788Y3063727D01*
X58603488Y3093424D01*
X58439516Y3161344D01*
X58291946Y3259947D01*
X58166447Y3385446D01*
X58067844Y3533016D01*
X57999924Y3696988D01*
X57965300Y3871059D01*
X57965300Y4048541D01*
X57999924Y4222612D01*
X58067844Y4386584D01*
X58166447Y4534154D01*
X58291946Y4659653D01*
X58439516Y4758256D01*
X58603488Y4826176D01*
X58752788Y4855873D01*
X58777558Y4860800D01*
X58955042Y4860800D01*
X58979812Y4855873D01*
G37*
G36*
X64059812Y4855873D02*
G01*
X64209112Y4826176D01*
X64373084Y4758256D01*
X64520654Y4659653D01*
X64646153Y4534154D01*
X64744756Y4386584D01*
X64812676Y4222612D01*
X64847300Y4048541D01*
X64847300Y3871059D01*
X64812676Y3696988D01*
X64744756Y3533016D01*
X64646153Y3385446D01*
X64520654Y3259947D01*
X64373084Y3161344D01*
X64209112Y3093424D01*
X64059812Y3063727D01*
X64035042Y3058800D01*
X63857558Y3058800D01*
X63832788Y3063727D01*
X63683488Y3093424D01*
X63519516Y3161344D01*
X63371946Y3259947D01*
X63246447Y3385446D01*
X63147844Y3533016D01*
X63079924Y3696988D01*
X63045300Y3871059D01*
X63045300Y4048541D01*
X63079924Y4222612D01*
X63147844Y4386584D01*
X63246447Y4534154D01*
X63371946Y4659653D01*
X63519516Y4758256D01*
X63683488Y4826176D01*
X63832788Y4855873D01*
X63857558Y4860800D01*
X64035042Y4860800D01*
X64059812Y4855873D01*
G37*
G36*
X61519812Y4855873D02*
G01*
X61669112Y4826176D01*
X61833084Y4758256D01*
X61980654Y4659653D01*
X62106153Y4534154D01*
X62204756Y4386584D01*
X62272676Y4222612D01*
X62307300Y4048541D01*
X62307300Y3871059D01*
X62272676Y3696988D01*
X62204756Y3533016D01*
X62106153Y3385446D01*
X61980654Y3259947D01*
X61833084Y3161344D01*
X61669112Y3093424D01*
X61519812Y3063727D01*
X61495042Y3058800D01*
X61317558Y3058800D01*
X61292788Y3063727D01*
X61143488Y3093424D01*
X60979516Y3161344D01*
X60831946Y3259947D01*
X60706447Y3385446D01*
X60607844Y3533016D01*
X60539924Y3696988D01*
X60505300Y3871059D01*
X60505300Y4048541D01*
X60539924Y4222612D01*
X60607844Y4386584D01*
X60706447Y4534154D01*
X60831946Y4659653D01*
X60979516Y4758256D01*
X61143488Y4826176D01*
X61292788Y4855873D01*
X61317558Y4860800D01*
X61495042Y4860800D01*
X61519812Y4855873D01*
G37*
G36*
X69139812Y4855873D02*
G01*
X69289112Y4826176D01*
X69453084Y4758256D01*
X69600654Y4659653D01*
X69726153Y4534154D01*
X69824756Y4386584D01*
X69892676Y4222612D01*
X69927300Y4048541D01*
X69927300Y3871059D01*
X69892676Y3696988D01*
X69824756Y3533016D01*
X69726153Y3385446D01*
X69600654Y3259947D01*
X69453084Y3161344D01*
X69289112Y3093424D01*
X69139812Y3063727D01*
X69115042Y3058800D01*
X68937558Y3058800D01*
X68912788Y3063727D01*
X68763488Y3093424D01*
X68599516Y3161344D01*
X68451946Y3259947D01*
X68326447Y3385446D01*
X68227844Y3533016D01*
X68159924Y3696988D01*
X68125300Y3871059D01*
X68125300Y4048541D01*
X68159924Y4222612D01*
X68227844Y4386584D01*
X68326447Y4534154D01*
X68451946Y4659653D01*
X68599516Y4758256D01*
X68763488Y4826176D01*
X68912788Y4855873D01*
X68937558Y4860800D01*
X69115042Y4860800D01*
X69139812Y4855873D01*
G37*
G36*
X66599812Y4855873D02*
G01*
X66749112Y4826176D01*
X66913084Y4758256D01*
X67060654Y4659653D01*
X67186153Y4534154D01*
X67284756Y4386584D01*
X67352676Y4222612D01*
X67387300Y4048541D01*
X67387300Y3871059D01*
X67352676Y3696988D01*
X67284756Y3533016D01*
X67186153Y3385446D01*
X67060654Y3259947D01*
X66913084Y3161344D01*
X66749112Y3093424D01*
X66599812Y3063727D01*
X66575042Y3058800D01*
X66397558Y3058800D01*
X66372788Y3063727D01*
X66223488Y3093424D01*
X66059516Y3161344D01*
X65911946Y3259947D01*
X65786447Y3385446D01*
X65687844Y3533016D01*
X65619924Y3696988D01*
X65585300Y3871059D01*
X65585300Y4048541D01*
X65619924Y4222612D01*
X65687844Y4386584D01*
X65786447Y4534154D01*
X65911946Y4659653D01*
X66059516Y4758256D01*
X66223488Y4826176D01*
X66372788Y4855873D01*
X66397558Y4860800D01*
X66575042Y4860800D01*
X66599812Y4855873D01*
G37*
G36*
X25945512Y4905873D02*
G01*
X26094812Y4876176D01*
X26258784Y4808256D01*
X26406354Y4709653D01*
X26531853Y4584154D01*
X26630456Y4436584D01*
X26698376Y4272612D01*
X26733000Y4098541D01*
X26733000Y3921059D01*
X26698376Y3746988D01*
X26630456Y3583016D01*
X26531853Y3435446D01*
X26406354Y3309947D01*
X26258784Y3211344D01*
X26094812Y3143424D01*
X25945512Y3113727D01*
X25920742Y3108800D01*
X25743258Y3108800D01*
X25718488Y3113727D01*
X25569188Y3143424D01*
X25405216Y3211344D01*
X25257646Y3309947D01*
X25132147Y3435446D01*
X25033544Y3583016D01*
X24965624Y3746988D01*
X24931000Y3921059D01*
X24931000Y4098541D01*
X24965624Y4272612D01*
X25033544Y4436584D01*
X25132147Y4584154D01*
X25257646Y4709653D01*
X25405216Y4808256D01*
X25569188Y4876176D01*
X25718488Y4905873D01*
X25743258Y4910800D01*
X25920742Y4910800D01*
X25945512Y4905873D01*
G37*
G36*
X33565512Y4905873D02*
G01*
X33714812Y4876176D01*
X33878784Y4808256D01*
X34026354Y4709653D01*
X34151853Y4584154D01*
X34250456Y4436584D01*
X34318376Y4272612D01*
X34353000Y4098541D01*
X34353000Y3921059D01*
X34318376Y3746988D01*
X34250456Y3583016D01*
X34151853Y3435446D01*
X34026354Y3309947D01*
X33878784Y3211344D01*
X33714812Y3143424D01*
X33565512Y3113727D01*
X33540742Y3108800D01*
X33363258Y3108800D01*
X33338488Y3113727D01*
X33189188Y3143424D01*
X33025216Y3211344D01*
X32877646Y3309947D01*
X32752147Y3435446D01*
X32653544Y3583016D01*
X32585624Y3746988D01*
X32551000Y3921059D01*
X32551000Y4098541D01*
X32585624Y4272612D01*
X32653544Y4436584D01*
X32752147Y4584154D01*
X32877646Y4709653D01*
X33025216Y4808256D01*
X33189188Y4876176D01*
X33338488Y4905873D01*
X33363258Y4910800D01*
X33540742Y4910800D01*
X33565512Y4905873D01*
G37*
G36*
X31025512Y4905873D02*
G01*
X31174812Y4876176D01*
X31338784Y4808256D01*
X31486354Y4709653D01*
X31611853Y4584154D01*
X31710456Y4436584D01*
X31778376Y4272612D01*
X31813000Y4098541D01*
X31813000Y3921059D01*
X31778376Y3746988D01*
X31710456Y3583016D01*
X31611853Y3435446D01*
X31486354Y3309947D01*
X31338784Y3211344D01*
X31174812Y3143424D01*
X31025512Y3113727D01*
X31000742Y3108800D01*
X30823258Y3108800D01*
X30798488Y3113727D01*
X30649188Y3143424D01*
X30485216Y3211344D01*
X30337646Y3309947D01*
X30212147Y3435446D01*
X30113544Y3583016D01*
X30045624Y3746988D01*
X30011000Y3921059D01*
X30011000Y4098541D01*
X30045624Y4272612D01*
X30113544Y4436584D01*
X30212147Y4584154D01*
X30337646Y4709653D01*
X30485216Y4808256D01*
X30649188Y4876176D01*
X30798488Y4905873D01*
X30823258Y4910800D01*
X31000742Y4910800D01*
X31025512Y4905873D01*
G37*
G36*
X28485512Y4905873D02*
G01*
X28634812Y4876176D01*
X28798784Y4808256D01*
X28946354Y4709653D01*
X29071853Y4584154D01*
X29170456Y4436584D01*
X29238376Y4272612D01*
X29273000Y4098541D01*
X29273000Y3921059D01*
X29238376Y3746988D01*
X29170456Y3583016D01*
X29071853Y3435446D01*
X28946354Y3309947D01*
X28798784Y3211344D01*
X28634812Y3143424D01*
X28485512Y3113727D01*
X28460742Y3108800D01*
X28283258Y3108800D01*
X28258488Y3113727D01*
X28109188Y3143424D01*
X27945216Y3211344D01*
X27797646Y3309947D01*
X27672147Y3435446D01*
X27573544Y3583016D01*
X27505624Y3746988D01*
X27471000Y3921059D01*
X27471000Y4098541D01*
X27505624Y4272612D01*
X27573544Y4436584D01*
X27672147Y4584154D01*
X27797646Y4709653D01*
X27945216Y4808256D01*
X28109188Y4876176D01*
X28258488Y4905873D01*
X28283258Y4910800D01*
X28460742Y4910800D01*
X28485512Y4905873D01*
G37*
G36*
X24193000Y3108800D02*
G01*
X22391000Y3108800D01*
X22391000Y4910800D01*
X24193000Y4910800D01*
X24193000Y3108800D01*
G37*
G36*
X91013400Y3189800D02*
G01*
X89111400Y3189800D01*
X89111400Y5091800D01*
X91013400Y5091800D01*
X91013400Y3189800D01*
G37*
G36*
X10420164Y6016411D02*
G01*
X10599545Y5942109D01*
X10611435Y5937184D01*
X10759822Y5838035D01*
X10783573Y5822165D01*
X10929965Y5675773D01*
X11044985Y5503633D01*
X11124211Y5312364D01*
X11164600Y5109316D01*
X11164600Y4902284D01*
X11124211Y4699236D01*
X11044985Y4507967D01*
X11044984Y4507965D01*
X10929965Y4335827D01*
X10783573Y4189435D01*
X10611435Y4074416D01*
X10611434Y4074415D01*
X10611433Y4074415D01*
X10420164Y3995189D01*
X10217116Y3954800D01*
X10010084Y3954800D01*
X9807036Y3995189D01*
X9615767Y4074415D01*
X9615766Y4074415D01*
X9615765Y4074416D01*
X9443627Y4189435D01*
X9297235Y4335827D01*
X9182216Y4507965D01*
X9182215Y4507967D01*
X9102989Y4699236D01*
X9062600Y4902284D01*
X9062600Y5109316D01*
X9102989Y5312364D01*
X9182215Y5503633D01*
X9297235Y5675773D01*
X9443627Y5822165D01*
X9467378Y5838035D01*
X9615765Y5937184D01*
X9627655Y5942109D01*
X9807036Y6016411D01*
X10010084Y6056800D01*
X10217116Y6056800D01*
X10420164Y6016411D01*
G37*
G36*
X5920164Y6016411D02*
G01*
X6099545Y5942109D01*
X6111435Y5937184D01*
X6259822Y5838035D01*
X6283573Y5822165D01*
X6429965Y5675773D01*
X6544985Y5503633D01*
X6624211Y5312364D01*
X6664600Y5109316D01*
X6664600Y4902284D01*
X6624211Y4699236D01*
X6544985Y4507967D01*
X6544984Y4507965D01*
X6429965Y4335827D01*
X6283573Y4189435D01*
X6111435Y4074416D01*
X6111434Y4074415D01*
X6111433Y4074415D01*
X5920164Y3995189D01*
X5717116Y3954800D01*
X5510084Y3954800D01*
X5307036Y3995189D01*
X5115767Y4074415D01*
X5115766Y4074415D01*
X5115765Y4074416D01*
X4943627Y4189435D01*
X4797235Y4335827D01*
X4682216Y4507965D01*
X4682215Y4507967D01*
X4602989Y4699236D01*
X4562600Y4902284D01*
X4562600Y5109316D01*
X4602989Y5312364D01*
X4682215Y5503633D01*
X4797235Y5675773D01*
X4943627Y5822165D01*
X4967378Y5838035D01*
X5115765Y5937184D01*
X5127655Y5942109D01*
X5307036Y6016411D01*
X5510084Y6056800D01*
X5717116Y6056800D01*
X5920164Y6016411D01*
G37*
G36*
X90339795Y7595254D02*
G01*
X90512866Y7523566D01*
X90512867Y7523565D01*
X90668627Y7419490D01*
X90801090Y7287027D01*
X90801091Y7287025D01*
X90905166Y7131266D01*
X90976854Y6958195D01*
X91013400Y6774467D01*
X91013400Y6587133D01*
X90976854Y6403405D01*
X90905166Y6230334D01*
X90905165Y6230333D01*
X90801090Y6074573D01*
X90668627Y5942110D01*
X90590218Y5889719D01*
X90512866Y5838034D01*
X90339795Y5766346D01*
X90156067Y5729800D01*
X89968733Y5729800D01*
X89785005Y5766346D01*
X89611934Y5838034D01*
X89534582Y5889719D01*
X89456173Y5942110D01*
X89323710Y6074573D01*
X89219635Y6230333D01*
X89219634Y6230334D01*
X89147946Y6403405D01*
X89111400Y6587133D01*
X89111400Y6774467D01*
X89147946Y6958195D01*
X89219634Y7131266D01*
X89323709Y7287025D01*
X89323710Y7287027D01*
X89456173Y7419490D01*
X89611933Y7523565D01*
X89611934Y7523566D01*
X89785005Y7595254D01*
X89968733Y7631800D01*
X90156067Y7631800D01*
X90339795Y7595254D01*
G37*
G36*
X5920164Y12516411D02*
G01*
X6111433Y12437185D01*
X6111435Y12437184D01*
X6283573Y12322165D01*
X6429965Y12175773D01*
X6544985Y12003633D01*
X6624211Y11812364D01*
X6664600Y11609316D01*
X6664600Y11402284D01*
X6624211Y11199236D01*
X6544985Y11007967D01*
X6544984Y11007965D01*
X6429965Y10835827D01*
X6283573Y10689435D01*
X6111435Y10574416D01*
X6111434Y10574415D01*
X6111433Y10574415D01*
X5920164Y10495189D01*
X5717116Y10454800D01*
X5510084Y10454800D01*
X5307036Y10495189D01*
X5115767Y10574415D01*
X5115766Y10574415D01*
X5115765Y10574416D01*
X4943627Y10689435D01*
X4797235Y10835827D01*
X4682216Y11007965D01*
X4682215Y11007967D01*
X4602989Y11199236D01*
X4562600Y11402284D01*
X4562600Y11609316D01*
X4602989Y11812364D01*
X4682215Y12003633D01*
X4797235Y12175773D01*
X4943627Y12322165D01*
X5115765Y12437184D01*
X5115767Y12437185D01*
X5307036Y12516411D01*
X5510084Y12556800D01*
X5717116Y12556800D01*
X5920164Y12516411D01*
G37*
G36*
X10420164Y12516411D02*
G01*
X10611433Y12437185D01*
X10611435Y12437184D01*
X10783573Y12322165D01*
X10929965Y12175773D01*
X11044985Y12003633D01*
X11124211Y11812364D01*
X11164600Y11609316D01*
X11164600Y11402284D01*
X11124211Y11199236D01*
X11044985Y11007967D01*
X11044984Y11007965D01*
X10929965Y10835827D01*
X10783573Y10689435D01*
X10611435Y10574416D01*
X10611434Y10574415D01*
X10611433Y10574415D01*
X10420164Y10495189D01*
X10217116Y10454800D01*
X10010084Y10454800D01*
X9807036Y10495189D01*
X9615767Y10574415D01*
X9615766Y10574415D01*
X9615765Y10574416D01*
X9443627Y10689435D01*
X9297235Y10835827D01*
X9182216Y11007965D01*
X9182215Y11007967D01*
X9102989Y11199236D01*
X9062600Y11402284D01*
X9062600Y11609316D01*
X9102989Y11812364D01*
X9182215Y12003633D01*
X9297235Y12175773D01*
X9443627Y12322165D01*
X9615765Y12437184D01*
X9615767Y12437185D01*
X9807036Y12516411D01*
X10010084Y12556800D01*
X10217116Y12556800D01*
X10420164Y12516411D01*
G37*
G36*
X83038628Y14864097D02*
G01*
X83193500Y14799947D01*
X83332881Y14706815D01*
X83451415Y14588281D01*
X83544547Y14448900D01*
X83608697Y14294028D01*
X83641400Y14129616D01*
X83641400Y13961984D01*
X83608697Y13797572D01*
X83544547Y13642700D01*
X83451415Y13503319D01*
X83332881Y13384785D01*
X83193500Y13291653D01*
X83038628Y13227503D01*
X82874216Y13194800D01*
X82706584Y13194800D01*
X82542172Y13227503D01*
X82387300Y13291653D01*
X82247919Y13384785D01*
X82129385Y13503319D01*
X82036253Y13642700D01*
X81972103Y13797572D01*
X81939400Y13961984D01*
X81939400Y14129616D01*
X81972103Y14294028D01*
X82036253Y14448900D01*
X82129385Y14588281D01*
X82247919Y14706815D01*
X82387300Y14799947D01*
X82542172Y14864097D01*
X82706584Y14896800D01*
X82874216Y14896800D01*
X83038628Y14864097D01*
G37*
G36*
X78038628Y14864097D02*
G01*
X78193500Y14799947D01*
X78332881Y14706815D01*
X78451415Y14588281D01*
X78544547Y14448900D01*
X78608697Y14294028D01*
X78641400Y14129616D01*
X78641400Y13961984D01*
X78608697Y13797572D01*
X78544547Y13642700D01*
X78451415Y13503319D01*
X78332881Y13384785D01*
X78193500Y13291653D01*
X78038628Y13227503D01*
X77874216Y13194800D01*
X77706584Y13194800D01*
X77542172Y13227503D01*
X77387300Y13291653D01*
X77247919Y13384785D01*
X77129385Y13503319D01*
X77036253Y13642700D01*
X76972103Y13797572D01*
X76939400Y13961984D01*
X76939400Y14129616D01*
X76972103Y14294028D01*
X77036253Y14448900D01*
X77129385Y14588281D01*
X77247919Y14706815D01*
X77387300Y14799947D01*
X77542172Y14864097D01*
X77706584Y14896800D01*
X77874216Y14896800D01*
X78038628Y14864097D01*
G37*
G36*
X5838149Y20483684D02*
G01*
X5949334Y20461568D01*
X6158803Y20374803D01*
X6347320Y20248840D01*
X6507640Y20088520D01*
X6633603Y19900003D01*
X6633604Y19900001D01*
X6720368Y19690533D01*
X6764600Y19468165D01*
X6764600Y19241435D01*
X6720368Y19019067D01*
X6634731Y18812319D01*
X6633603Y18809597D01*
X6507640Y18621080D01*
X6347320Y18460760D01*
X6158803Y18334797D01*
X5949334Y18248032D01*
X5838149Y18225916D01*
X5726965Y18203800D01*
X5500235Y18203800D01*
X5389051Y18225916D01*
X5277866Y18248032D01*
X5068397Y18334797D01*
X4879880Y18460760D01*
X4719560Y18621080D01*
X4593597Y18809597D01*
X4592470Y18812319D01*
X4506832Y19019067D01*
X4462600Y19241435D01*
X4462600Y19468165D01*
X4506832Y19690533D01*
X4593596Y19900001D01*
X4593597Y19900003D01*
X4719560Y20088520D01*
X4879880Y20248840D01*
X5068397Y20374803D01*
X5277866Y20461568D01*
X5389051Y20483684D01*
X5500235Y20505800D01*
X5726965Y20505800D01*
X5838149Y20483684D01*
G37*
G36*
X11519200Y18503800D02*
G01*
X9817200Y18503800D01*
X9817200Y20205800D01*
X11519200Y20205800D01*
X11519200Y18503800D01*
G37*
G36*
X13416428Y20173097D02*
G01*
X13571300Y20108947D01*
X13710681Y20015815D01*
X13829215Y19897281D01*
X13922347Y19757900D01*
X13986497Y19603028D01*
X14019200Y19438616D01*
X14019200Y19270984D01*
X13986497Y19106572D01*
X13922347Y18951700D01*
X13829215Y18812319D01*
X13710681Y18693785D01*
X13571300Y18600653D01*
X13416428Y18536503D01*
X13252016Y18503800D01*
X13084384Y18503800D01*
X12919972Y18536503D01*
X12765100Y18600653D01*
X12625719Y18693785D01*
X12507185Y18812319D01*
X12414053Y18951700D01*
X12349903Y19106572D01*
X12317200Y19270984D01*
X12317200Y19438616D01*
X12349903Y19603028D01*
X12414053Y19757900D01*
X12507185Y19897281D01*
X12625719Y20015815D01*
X12765100Y20108947D01*
X12919972Y20173097D01*
X13084384Y20205800D01*
X13252016Y20205800D01*
X13416428Y20173097D01*
G37*
G36*
X46400228Y21916297D02*
G01*
X46555100Y21852147D01*
X46694481Y21759015D01*
X46813015Y21640481D01*
X46906147Y21501100D01*
X46970297Y21346228D01*
X47003000Y21181816D01*
X47003000Y21014184D01*
X46970297Y20849772D01*
X46906147Y20694900D01*
X46813015Y20555519D01*
X46694481Y20436985D01*
X46555100Y20343853D01*
X46400228Y20279703D01*
X46235816Y20247000D01*
X46068184Y20247000D01*
X45903772Y20279703D01*
X45748900Y20343853D01*
X45609519Y20436985D01*
X45490985Y20555519D01*
X45397853Y20694900D01*
X45333703Y20849772D01*
X45301000Y21014184D01*
X45301000Y21181816D01*
X45333703Y21346228D01*
X45397853Y21501100D01*
X45490985Y21640481D01*
X45609519Y21759015D01*
X45748900Y21852147D01*
X45903772Y21916297D01*
X46068184Y21949000D01*
X46235816Y21949000D01*
X46400228Y21916297D01*
G37*
G36*
X79734400Y20532800D02*
G01*
X78032400Y20532800D01*
X78032400Y22234800D01*
X79734400Y22234800D01*
X79734400Y20532800D01*
G37*
G36*
X81631628Y22202097D02*
G01*
X81786500Y22137947D01*
X81925881Y22044815D01*
X82044415Y21926281D01*
X82137547Y21786900D01*
X82201697Y21632028D01*
X82234400Y21467616D01*
X82234400Y21299984D01*
X82201697Y21135572D01*
X82137547Y20980700D01*
X82044415Y20841319D01*
X81925881Y20722785D01*
X81786500Y20629653D01*
X81631628Y20565503D01*
X81467216Y20532800D01*
X81299584Y20532800D01*
X81135172Y20565503D01*
X80980300Y20629653D01*
X80840919Y20722785D01*
X80722385Y20841319D01*
X80629253Y20980700D01*
X80565103Y21135572D01*
X80532400Y21299984D01*
X80532400Y21467616D01*
X80565103Y21632028D01*
X80629253Y21786900D01*
X80722385Y21926281D01*
X80840919Y22044815D01*
X80980300Y22137947D01*
X81135172Y22202097D01*
X81299584Y22234800D01*
X81467216Y22234800D01*
X81631628Y22202097D01*
G37*
G36*
X92450628Y25202097D02*
G01*
X92605500Y25137947D01*
X92744881Y25044815D01*
X92863415Y24926281D01*
X92956547Y24786900D01*
X93020697Y24632028D01*
X93053400Y24467616D01*
X93053400Y24299984D01*
X93020697Y24135572D01*
X92956547Y23980700D01*
X92863415Y23841319D01*
X92744881Y23722785D01*
X92605500Y23629653D01*
X92450628Y23565503D01*
X92286216Y23532800D01*
X92118584Y23532800D01*
X91954172Y23565503D01*
X91799300Y23629653D01*
X91659919Y23722785D01*
X91541385Y23841319D01*
X91448253Y23980700D01*
X91384103Y24135572D01*
X91351400Y24299984D01*
X91351400Y24467616D01*
X91384103Y24632028D01*
X91448253Y24786900D01*
X91541385Y24926281D01*
X91659919Y25044815D01*
X91799300Y25137947D01*
X91954172Y25202097D01*
X92118584Y25234800D01*
X92286216Y25234800D01*
X92450628Y25202097D01*
G37*
G36*
X89910628Y25202097D02*
G01*
X90065500Y25137947D01*
X90204881Y25044815D01*
X90323415Y24926281D01*
X90416547Y24786900D01*
X90480697Y24632028D01*
X90513400Y24467616D01*
X90513400Y24299984D01*
X90480697Y24135572D01*
X90416547Y23980700D01*
X90323415Y23841319D01*
X90204881Y23722785D01*
X90065500Y23629653D01*
X89910628Y23565503D01*
X89746216Y23532800D01*
X89578584Y23532800D01*
X89414172Y23565503D01*
X89259300Y23629653D01*
X89119919Y23722785D01*
X89001385Y23841319D01*
X88908253Y23980700D01*
X88844103Y24135572D01*
X88811400Y24299984D01*
X88811400Y24467616D01*
X88844103Y24632028D01*
X88908253Y24786900D01*
X89001385Y24926281D01*
X89119919Y25044815D01*
X89259300Y25137947D01*
X89414172Y25202097D01*
X89578584Y25234800D01*
X89746216Y25234800D01*
X89910628Y25202097D01*
G37*
G36*
X46400228Y26916297D02*
G01*
X46555100Y26852147D01*
X46694481Y26759015D01*
X46813015Y26640481D01*
X46906147Y26501100D01*
X46970297Y26346228D01*
X47003000Y26181816D01*
X47003000Y26014184D01*
X46970297Y25849772D01*
X46906147Y25694900D01*
X46813015Y25555519D01*
X46694481Y25436985D01*
X46555100Y25343853D01*
X46400228Y25279703D01*
X46235816Y25247000D01*
X46068184Y25247000D01*
X45903772Y25279703D01*
X45748900Y25343853D01*
X45609519Y25436985D01*
X45490985Y25555519D01*
X45397853Y25694900D01*
X45333703Y25849772D01*
X45301000Y26014184D01*
X45301000Y26181816D01*
X45333703Y26346228D01*
X45397853Y26501100D01*
X45490985Y26640481D01*
X45609519Y26759015D01*
X45748900Y26852147D01*
X45903772Y26916297D01*
X46068184Y26949000D01*
X46235816Y26949000D01*
X46400228Y26916297D01*
G37*
G36*
X10738628Y26916797D02*
G01*
X10893500Y26852647D01*
X11032881Y26759515D01*
X11151415Y26640981D01*
X11244547Y26501600D01*
X11308697Y26346728D01*
X11341400Y26182316D01*
X11341400Y26014684D01*
X11308697Y25850272D01*
X11244547Y25695400D01*
X11151415Y25556019D01*
X11032881Y25437485D01*
X10893500Y25344353D01*
X10738628Y25280203D01*
X10574216Y25247500D01*
X10406584Y25247500D01*
X10242172Y25280203D01*
X10087300Y25344353D01*
X9947919Y25437485D01*
X9829385Y25556019D01*
X9736253Y25695400D01*
X9672103Y25850272D01*
X9639400Y26014684D01*
X9639400Y26182316D01*
X9672103Y26346728D01*
X9736253Y26501600D01*
X9829385Y26640981D01*
X9947919Y26759515D01*
X10087300Y26852647D01*
X10242172Y26916797D01*
X10406584Y26949500D01*
X10574216Y26949500D01*
X10738628Y26916797D01*
G37*
G36*
X13278628Y26916797D02*
G01*
X13433500Y26852647D01*
X13572881Y26759515D01*
X13691415Y26640981D01*
X13784547Y26501600D01*
X13848697Y26346728D01*
X13881400Y26182316D01*
X13881400Y26014684D01*
X13848697Y25850272D01*
X13784547Y25695400D01*
X13691415Y25556019D01*
X13572881Y25437485D01*
X13433500Y25344353D01*
X13278628Y25280203D01*
X13114216Y25247500D01*
X12946584Y25247500D01*
X12782172Y25280203D01*
X12627300Y25344353D01*
X12487919Y25437485D01*
X12369385Y25556019D01*
X12276253Y25695400D01*
X12212103Y25850272D01*
X12179400Y26014684D01*
X12179400Y26182316D01*
X12212103Y26346728D01*
X12276253Y26501600D01*
X12369385Y26640981D01*
X12487919Y26759515D01*
X12627300Y26852647D01*
X12782172Y26916797D01*
X12946584Y26949500D01*
X13114216Y26949500D01*
X13278628Y26916797D01*
G37*
G36*
X6764600Y28363800D02*
G01*
X4462600Y28363800D01*
X4462600Y30665800D01*
X6764600Y30665800D01*
X6764600Y28363800D01*
G37*
G36*
X41320228Y30518497D02*
G01*
X41475100Y30454347D01*
X41614481Y30361215D01*
X41733015Y30242681D01*
X41826147Y30103300D01*
X41890297Y29948428D01*
X41923000Y29784016D01*
X41923000Y29616384D01*
X41890297Y29451972D01*
X41826147Y29297100D01*
X41733015Y29157719D01*
X41614481Y29039185D01*
X41475100Y28946053D01*
X41320228Y28881903D01*
X41155816Y28849200D01*
X40988184Y28849200D01*
X40823772Y28881903D01*
X40668900Y28946053D01*
X40529519Y29039185D01*
X40410985Y29157719D01*
X40317853Y29297100D01*
X40253703Y29451972D01*
X40221000Y29616384D01*
X40221000Y29784016D01*
X40253703Y29948428D01*
X40317853Y30103300D01*
X40410985Y30242681D01*
X40529519Y30361215D01*
X40668900Y30454347D01*
X40823772Y30518497D01*
X40988184Y30551200D01*
X41155816Y30551200D01*
X41320228Y30518497D01*
G37*
G36*
X69260228Y30518497D02*
G01*
X69415100Y30454347D01*
X69554481Y30361215D01*
X69673015Y30242681D01*
X69766147Y30103300D01*
X69830297Y29948428D01*
X69863000Y29784016D01*
X69863000Y29616384D01*
X69830297Y29451972D01*
X69766147Y29297100D01*
X69673015Y29157719D01*
X69554481Y29039185D01*
X69415100Y28946053D01*
X69260228Y28881903D01*
X69095816Y28849200D01*
X68928184Y28849200D01*
X68763772Y28881903D01*
X68608900Y28946053D01*
X68469519Y29039185D01*
X68350985Y29157719D01*
X68257853Y29297100D01*
X68193703Y29451972D01*
X68161000Y29616384D01*
X68161000Y29784016D01*
X68193703Y29948428D01*
X68257853Y30103300D01*
X68350985Y30242681D01*
X68469519Y30361215D01*
X68608900Y30454347D01*
X68763772Y30518497D01*
X68928184Y30551200D01*
X69095816Y30551200D01*
X69260228Y30518497D01*
G37*
G36*
X66720228Y30518497D02*
G01*
X66875100Y30454347D01*
X67014481Y30361215D01*
X67133015Y30242681D01*
X67226147Y30103300D01*
X67290297Y29948428D01*
X67323000Y29784016D01*
X67323000Y29616384D01*
X67290297Y29451972D01*
X67226147Y29297100D01*
X67133015Y29157719D01*
X67014481Y29039185D01*
X66875100Y28946053D01*
X66720228Y28881903D01*
X66555816Y28849200D01*
X66388184Y28849200D01*
X66223772Y28881903D01*
X66068900Y28946053D01*
X65929519Y29039185D01*
X65810985Y29157719D01*
X65717853Y29297100D01*
X65653703Y29451972D01*
X65621000Y29616384D01*
X65621000Y29784016D01*
X65653703Y29948428D01*
X65717853Y30103300D01*
X65810985Y30242681D01*
X65929519Y30361215D01*
X66068900Y30454347D01*
X66223772Y30518497D01*
X66388184Y30551200D01*
X66555816Y30551200D01*
X66720228Y30518497D01*
G37*
G36*
X64180228Y30518497D02*
G01*
X64335100Y30454347D01*
X64474481Y30361215D01*
X64593015Y30242681D01*
X64686147Y30103300D01*
X64750297Y29948428D01*
X64783000Y29784016D01*
X64783000Y29616384D01*
X64750297Y29451972D01*
X64686147Y29297100D01*
X64593015Y29157719D01*
X64474481Y29039185D01*
X64335100Y28946053D01*
X64180228Y28881903D01*
X64015816Y28849200D01*
X63848184Y28849200D01*
X63683772Y28881903D01*
X63528900Y28946053D01*
X63389519Y29039185D01*
X63270985Y29157719D01*
X63177853Y29297100D01*
X63113703Y29451972D01*
X63081000Y29616384D01*
X63081000Y29784016D01*
X63113703Y29948428D01*
X63177853Y30103300D01*
X63270985Y30242681D01*
X63389519Y30361215D01*
X63528900Y30454347D01*
X63683772Y30518497D01*
X63848184Y30551200D01*
X64015816Y30551200D01*
X64180228Y30518497D01*
G37*
G36*
X61640228Y30518497D02*
G01*
X61795100Y30454347D01*
X61934481Y30361215D01*
X62053015Y30242681D01*
X62146147Y30103300D01*
X62210297Y29948428D01*
X62243000Y29784016D01*
X62243000Y29616384D01*
X62210297Y29451972D01*
X62146147Y29297100D01*
X62053015Y29157719D01*
X61934481Y29039185D01*
X61795100Y28946053D01*
X61640228Y28881903D01*
X61475816Y28849200D01*
X61308184Y28849200D01*
X61143772Y28881903D01*
X60988900Y28946053D01*
X60849519Y29039185D01*
X60730985Y29157719D01*
X60637853Y29297100D01*
X60573703Y29451972D01*
X60541000Y29616384D01*
X60541000Y29784016D01*
X60573703Y29948428D01*
X60637853Y30103300D01*
X60730985Y30242681D01*
X60849519Y30361215D01*
X60988900Y30454347D01*
X61143772Y30518497D01*
X61308184Y30551200D01*
X61475816Y30551200D01*
X61640228Y30518497D01*
G37*
G36*
X59100228Y30518497D02*
G01*
X59255100Y30454347D01*
X59394481Y30361215D01*
X59513015Y30242681D01*
X59606147Y30103300D01*
X59670297Y29948428D01*
X59703000Y29784016D01*
X59703000Y29616384D01*
X59670297Y29451972D01*
X59606147Y29297100D01*
X59513015Y29157719D01*
X59394481Y29039185D01*
X59255100Y28946053D01*
X59100228Y28881903D01*
X58935816Y28849200D01*
X58768184Y28849200D01*
X58603772Y28881903D01*
X58448900Y28946053D01*
X58309519Y29039185D01*
X58190985Y29157719D01*
X58097853Y29297100D01*
X58033703Y29451972D01*
X58001000Y29616384D01*
X58001000Y29784016D01*
X58033703Y29948428D01*
X58097853Y30103300D01*
X58190985Y30242681D01*
X58309519Y30361215D01*
X58448900Y30454347D01*
X58603772Y30518497D01*
X58768184Y30551200D01*
X58935816Y30551200D01*
X59100228Y30518497D01*
G37*
G36*
X56560228Y30518497D02*
G01*
X56715100Y30454347D01*
X56854481Y30361215D01*
X56973015Y30242681D01*
X57066147Y30103300D01*
X57130297Y29948428D01*
X57163000Y29784016D01*
X57163000Y29616384D01*
X57130297Y29451972D01*
X57066147Y29297100D01*
X56973015Y29157719D01*
X56854481Y29039185D01*
X56715100Y28946053D01*
X56560228Y28881903D01*
X56395816Y28849200D01*
X56228184Y28849200D01*
X56063772Y28881903D01*
X55908900Y28946053D01*
X55769519Y29039185D01*
X55650985Y29157719D01*
X55557853Y29297100D01*
X55493703Y29451972D01*
X55461000Y29616384D01*
X55461000Y29784016D01*
X55493703Y29948428D01*
X55557853Y30103300D01*
X55650985Y30242681D01*
X55769519Y30361215D01*
X55908900Y30454347D01*
X56063772Y30518497D01*
X56228184Y30551200D01*
X56395816Y30551200D01*
X56560228Y30518497D01*
G37*
G36*
X54020228Y30518497D02*
G01*
X54175100Y30454347D01*
X54314481Y30361215D01*
X54433015Y30242681D01*
X54526147Y30103300D01*
X54590297Y29948428D01*
X54623000Y29784016D01*
X54623000Y29616384D01*
X54590297Y29451972D01*
X54526147Y29297100D01*
X54433015Y29157719D01*
X54314481Y29039185D01*
X54175100Y28946053D01*
X54020228Y28881903D01*
X53855816Y28849200D01*
X53688184Y28849200D01*
X53523772Y28881903D01*
X53368900Y28946053D01*
X53229519Y29039185D01*
X53110985Y29157719D01*
X53017853Y29297100D01*
X52953703Y29451972D01*
X52921000Y29616384D01*
X52921000Y29784016D01*
X52953703Y29948428D01*
X53017853Y30103300D01*
X53110985Y30242681D01*
X53229519Y30361215D01*
X53368900Y30454347D01*
X53523772Y30518497D01*
X53688184Y30551200D01*
X53855816Y30551200D01*
X54020228Y30518497D01*
G37*
G36*
X51480228Y30518497D02*
G01*
X51635100Y30454347D01*
X51774481Y30361215D01*
X51893015Y30242681D01*
X51986147Y30103300D01*
X52050297Y29948428D01*
X52083000Y29784016D01*
X52083000Y29616384D01*
X52050297Y29451972D01*
X51986147Y29297100D01*
X51893015Y29157719D01*
X51774481Y29039185D01*
X51635100Y28946053D01*
X51480228Y28881903D01*
X51315816Y28849200D01*
X51148184Y28849200D01*
X50983772Y28881903D01*
X50828900Y28946053D01*
X50689519Y29039185D01*
X50570985Y29157719D01*
X50477853Y29297100D01*
X50413703Y29451972D01*
X50381000Y29616384D01*
X50381000Y29784016D01*
X50413703Y29948428D01*
X50477853Y30103300D01*
X50570985Y30242681D01*
X50689519Y30361215D01*
X50828900Y30454347D01*
X50983772Y30518497D01*
X51148184Y30551200D01*
X51315816Y30551200D01*
X51480228Y30518497D01*
G37*
G36*
X71800228Y30518497D02*
G01*
X71955100Y30454347D01*
X72094481Y30361215D01*
X72213015Y30242681D01*
X72306147Y30103300D01*
X72370297Y29948428D01*
X72403000Y29784016D01*
X72403000Y29616384D01*
X72370297Y29451972D01*
X72306147Y29297100D01*
X72213015Y29157719D01*
X72094481Y29039185D01*
X71955100Y28946053D01*
X71800228Y28881903D01*
X71635816Y28849200D01*
X71468184Y28849200D01*
X71303772Y28881903D01*
X71148900Y28946053D01*
X71009519Y29039185D01*
X70890985Y29157719D01*
X70797853Y29297100D01*
X70733703Y29451972D01*
X70701000Y29616384D01*
X70701000Y29784016D01*
X70733703Y29948428D01*
X70797853Y30103300D01*
X70890985Y30242681D01*
X71009519Y30361215D01*
X71148900Y30454347D01*
X71303772Y30518497D01*
X71468184Y30551200D01*
X71635816Y30551200D01*
X71800228Y30518497D01*
G37*
G36*
X46400228Y30518497D02*
G01*
X46555100Y30454347D01*
X46694481Y30361215D01*
X46813015Y30242681D01*
X46906147Y30103300D01*
X46970297Y29948428D01*
X47003000Y29784016D01*
X47003000Y29616384D01*
X46970297Y29451972D01*
X46906147Y29297100D01*
X46813015Y29157719D01*
X46694481Y29039185D01*
X46555100Y28946053D01*
X46400228Y28881903D01*
X46235816Y28849200D01*
X46068184Y28849200D01*
X45903772Y28881903D01*
X45748900Y28946053D01*
X45609519Y29039185D01*
X45490985Y29157719D01*
X45397853Y29297100D01*
X45333703Y29451972D01*
X45301000Y29616384D01*
X45301000Y29784016D01*
X45333703Y29948428D01*
X45397853Y30103300D01*
X45490985Y30242681D01*
X45609519Y30361215D01*
X45748900Y30454347D01*
X45903772Y30518497D01*
X46068184Y30551200D01*
X46235816Y30551200D01*
X46400228Y30518497D01*
G37*
G36*
X43860228Y30518497D02*
G01*
X44015100Y30454347D01*
X44154481Y30361215D01*
X44273015Y30242681D01*
X44366147Y30103300D01*
X44430297Y29948428D01*
X44463000Y29784016D01*
X44463000Y29616384D01*
X44430297Y29451972D01*
X44366147Y29297100D01*
X44273015Y29157719D01*
X44154481Y29039185D01*
X44015100Y28946053D01*
X43860228Y28881903D01*
X43695816Y28849200D01*
X43528184Y28849200D01*
X43363772Y28881903D01*
X43208900Y28946053D01*
X43069519Y29039185D01*
X42950985Y29157719D01*
X42857853Y29297100D01*
X42793703Y29451972D01*
X42761000Y29616384D01*
X42761000Y29784016D01*
X42793703Y29948428D01*
X42857853Y30103300D01*
X42950985Y30242681D01*
X43069519Y30361215D01*
X43208900Y30454347D01*
X43363772Y30518497D01*
X43528184Y30551200D01*
X43695816Y30551200D01*
X43860228Y30518497D01*
G37*
G36*
X38780228Y30518497D02*
G01*
X38935100Y30454347D01*
X39074481Y30361215D01*
X39193015Y30242681D01*
X39286147Y30103300D01*
X39350297Y29948428D01*
X39383000Y29784016D01*
X39383000Y29616384D01*
X39350297Y29451972D01*
X39286147Y29297100D01*
X39193015Y29157719D01*
X39074481Y29039185D01*
X38935100Y28946053D01*
X38780228Y28881903D01*
X38615816Y28849200D01*
X38448184Y28849200D01*
X38283772Y28881903D01*
X38128900Y28946053D01*
X37989519Y29039185D01*
X37870985Y29157719D01*
X37777853Y29297100D01*
X37713703Y29451972D01*
X37681000Y29616384D01*
X37681000Y29784016D01*
X37713703Y29948428D01*
X37777853Y30103300D01*
X37870985Y30242681D01*
X37989519Y30361215D01*
X38128900Y30454347D01*
X38283772Y30518497D01*
X38448184Y30551200D01*
X38615816Y30551200D01*
X38780228Y30518497D01*
G37*
G36*
X36240228Y30518497D02*
G01*
X36395100Y30454347D01*
X36534481Y30361215D01*
X36653015Y30242681D01*
X36746147Y30103300D01*
X36810297Y29948428D01*
X36843000Y29784016D01*
X36843000Y29616384D01*
X36810297Y29451972D01*
X36746147Y29297100D01*
X36653015Y29157719D01*
X36534481Y29039185D01*
X36395100Y28946053D01*
X36240228Y28881903D01*
X36075816Y28849200D01*
X35908184Y28849200D01*
X35743772Y28881903D01*
X35588900Y28946053D01*
X35449519Y29039185D01*
X35330985Y29157719D01*
X35237853Y29297100D01*
X35173703Y29451972D01*
X35141000Y29616384D01*
X35141000Y29784016D01*
X35173703Y29948428D01*
X35237853Y30103300D01*
X35330985Y30242681D01*
X35449519Y30361215D01*
X35588900Y30454347D01*
X35743772Y30518497D01*
X35908184Y30551200D01*
X36075816Y30551200D01*
X36240228Y30518497D01*
G37*
G36*
X33700228Y30518497D02*
G01*
X33855100Y30454347D01*
X33994481Y30361215D01*
X34113015Y30242681D01*
X34206147Y30103300D01*
X34270297Y29948428D01*
X34303000Y29784016D01*
X34303000Y29616384D01*
X34270297Y29451972D01*
X34206147Y29297100D01*
X34113015Y29157719D01*
X33994481Y29039185D01*
X33855100Y28946053D01*
X33700228Y28881903D01*
X33535816Y28849200D01*
X33368184Y28849200D01*
X33203772Y28881903D01*
X33048900Y28946053D01*
X32909519Y29039185D01*
X32790985Y29157719D01*
X32697853Y29297100D01*
X32633703Y29451972D01*
X32601000Y29616384D01*
X32601000Y29784016D01*
X32633703Y29948428D01*
X32697853Y30103300D01*
X32790985Y30242681D01*
X32909519Y30361215D01*
X33048900Y30454347D01*
X33203772Y30518497D01*
X33368184Y30551200D01*
X33535816Y30551200D01*
X33700228Y30518497D01*
G37*
G36*
X31160228Y30518497D02*
G01*
X31315100Y30454347D01*
X31454481Y30361215D01*
X31573015Y30242681D01*
X31666147Y30103300D01*
X31730297Y29948428D01*
X31763000Y29784016D01*
X31763000Y29616384D01*
X31730297Y29451972D01*
X31666147Y29297100D01*
X31573015Y29157719D01*
X31454481Y29039185D01*
X31315100Y28946053D01*
X31160228Y28881903D01*
X30995816Y28849200D01*
X30828184Y28849200D01*
X30663772Y28881903D01*
X30508900Y28946053D01*
X30369519Y29039185D01*
X30250985Y29157719D01*
X30157853Y29297100D01*
X30093703Y29451972D01*
X30061000Y29616384D01*
X30061000Y29784016D01*
X30093703Y29948428D01*
X30157853Y30103300D01*
X30250985Y30242681D01*
X30369519Y30361215D01*
X30508900Y30454347D01*
X30663772Y30518497D01*
X30828184Y30551200D01*
X30995816Y30551200D01*
X31160228Y30518497D01*
G37*
G36*
X28620228Y30518497D02*
G01*
X28775100Y30454347D01*
X28914481Y30361215D01*
X29033015Y30242681D01*
X29126147Y30103300D01*
X29190297Y29948428D01*
X29223000Y29784016D01*
X29223000Y29616384D01*
X29190297Y29451972D01*
X29126147Y29297100D01*
X29033015Y29157719D01*
X28914481Y29039185D01*
X28775100Y28946053D01*
X28620228Y28881903D01*
X28455816Y28849200D01*
X28288184Y28849200D01*
X28123772Y28881903D01*
X27968900Y28946053D01*
X27829519Y29039185D01*
X27710985Y29157719D01*
X27617853Y29297100D01*
X27553703Y29451972D01*
X27521000Y29616384D01*
X27521000Y29784016D01*
X27553703Y29948428D01*
X27617853Y30103300D01*
X27710985Y30242681D01*
X27829519Y30361215D01*
X27968900Y30454347D01*
X28123772Y30518497D01*
X28288184Y30551200D01*
X28455816Y30551200D01*
X28620228Y30518497D01*
G37*
G36*
X26080228Y30518497D02*
G01*
X26235100Y30454347D01*
X26374481Y30361215D01*
X26493015Y30242681D01*
X26586147Y30103300D01*
X26650297Y29948428D01*
X26683000Y29784016D01*
X26683000Y29616384D01*
X26650297Y29451972D01*
X26586147Y29297100D01*
X26493015Y29157719D01*
X26374481Y29039185D01*
X26235100Y28946053D01*
X26080228Y28881903D01*
X25915816Y28849200D01*
X25748184Y28849200D01*
X25583772Y28881903D01*
X25428900Y28946053D01*
X25289519Y29039185D01*
X25170985Y29157719D01*
X25077853Y29297100D01*
X25013703Y29451972D01*
X24981000Y29616384D01*
X24981000Y29784016D01*
X25013703Y29948428D01*
X25077853Y30103300D01*
X25170985Y30242681D01*
X25289519Y30361215D01*
X25428900Y30454347D01*
X25583772Y30518497D01*
X25748184Y30551200D01*
X25915816Y30551200D01*
X26080228Y30518497D01*
G37*
G36*
X48940228Y30518497D02*
G01*
X49095100Y30454347D01*
X49234481Y30361215D01*
X49353015Y30242681D01*
X49446147Y30103300D01*
X49510297Y29948428D01*
X49543000Y29784016D01*
X49543000Y29616384D01*
X49510297Y29451972D01*
X49446147Y29297100D01*
X49353015Y29157719D01*
X49234481Y29039185D01*
X49095100Y28946053D01*
X48940228Y28881903D01*
X48775816Y28849200D01*
X48608184Y28849200D01*
X48443772Y28881903D01*
X48288900Y28946053D01*
X48149519Y29039185D01*
X48030985Y29157719D01*
X47937853Y29297100D01*
X47873703Y29451972D01*
X47841000Y29616384D01*
X47841000Y29784016D01*
X47873703Y29948428D01*
X47937853Y30103300D01*
X48030985Y30242681D01*
X48149519Y30361215D01*
X48288900Y30454347D01*
X48443772Y30518497D01*
X48608184Y30551200D01*
X48775816Y30551200D01*
X48940228Y30518497D01*
G37*
G36*
X24143000Y28849200D02*
G01*
X22441000Y28849200D01*
X22441000Y30551200D01*
X24143000Y30551200D01*
X24143000Y28849200D01*
G37*
G36*
X76181628Y30518497D02*
G01*
X76336500Y30454347D01*
X76475881Y30361215D01*
X76594415Y30242681D01*
X76687547Y30103300D01*
X76751697Y29948428D01*
X76784400Y29784016D01*
X76784400Y29616384D01*
X76751697Y29451972D01*
X76687547Y29297100D01*
X76594415Y29157719D01*
X76475881Y29039185D01*
X76336500Y28946053D01*
X76181628Y28881903D01*
X76017216Y28849200D01*
X75849584Y28849200D01*
X75685172Y28881903D01*
X75530300Y28946053D01*
X75390919Y29039185D01*
X75272385Y29157719D01*
X75179253Y29297100D01*
X75115103Y29451972D01*
X75082400Y29616384D01*
X75082400Y29784016D01*
X75115103Y29948428D01*
X75179253Y30103300D01*
X75272385Y30242681D01*
X75390919Y30361215D01*
X75530300Y30454347D01*
X75685172Y30518497D01*
X75849584Y30551200D01*
X76017216Y30551200D01*
X76181628Y30518497D01*
G37*
G36*
X81181628Y30518497D02*
G01*
X81336500Y30454347D01*
X81475881Y30361215D01*
X81594415Y30242681D01*
X81687547Y30103300D01*
X81751697Y29948428D01*
X81784400Y29784016D01*
X81784400Y29616384D01*
X81751697Y29451972D01*
X81687547Y29297100D01*
X81594415Y29157719D01*
X81475881Y29039185D01*
X81336500Y28946053D01*
X81181628Y28881903D01*
X81017216Y28849200D01*
X80849584Y28849200D01*
X80685172Y28881903D01*
X80530300Y28946053D01*
X80390919Y29039185D01*
X80272385Y29157719D01*
X80179253Y29297100D01*
X80115103Y29451972D01*
X80082400Y29616384D01*
X80082400Y29784016D01*
X80115103Y29948428D01*
X80179253Y30103300D01*
X80272385Y30242681D01*
X80390919Y30361215D01*
X80530300Y30454347D01*
X80685172Y30518497D01*
X80849584Y30551200D01*
X81017216Y30551200D01*
X81181628Y30518497D01*
G37*
G36*
X78546912Y35766273D02*
G01*
X78696212Y35736576D01*
X78860184Y35668656D01*
X79007754Y35570053D01*
X79133253Y35444554D01*
X79231856Y35296984D01*
X79299776Y35133012D01*
X79329473Y34983712D01*
X79332800Y34966988D01*
X79334400Y34958941D01*
X79334400Y34781459D01*
X79299776Y34607388D01*
X79231856Y34443416D01*
X79133253Y34295846D01*
X79007754Y34170347D01*
X78860184Y34071744D01*
X78696212Y34003824D01*
X78546912Y33974127D01*
X78522142Y33969200D01*
X78344658Y33969200D01*
X78319888Y33974127D01*
X78170588Y34003824D01*
X78006616Y34071744D01*
X77859046Y34170347D01*
X77733547Y34295846D01*
X77634944Y34443416D01*
X77567024Y34607388D01*
X77532400Y34781459D01*
X77532400Y34958941D01*
X77534001Y34966988D01*
X77537327Y34983712D01*
X77567024Y35133012D01*
X77634944Y35296984D01*
X77733547Y35444554D01*
X77859046Y35570053D01*
X78006616Y35668656D01*
X78170588Y35736576D01*
X78319888Y35766273D01*
X78344658Y35771200D01*
X78522142Y35771200D01*
X78546912Y35766273D01*
G37*
G36*
X89725912Y36125873D02*
G01*
X89875212Y36096176D01*
X90039184Y36028256D01*
X90186754Y35929653D01*
X90312253Y35804154D01*
X90410856Y35656584D01*
X90478776Y35492612D01*
X90508473Y35343312D01*
X90513400Y35318542D01*
X90513400Y35141058D01*
X90511799Y35133011D01*
X90478776Y34966988D01*
X90410856Y34803016D01*
X90312253Y34655446D01*
X90186754Y34529947D01*
X90039184Y34431344D01*
X89875212Y34363424D01*
X89725912Y34333727D01*
X89701142Y34328800D01*
X89523658Y34328800D01*
X89498888Y34333727D01*
X89349588Y34363424D01*
X89185616Y34431344D01*
X89038046Y34529947D01*
X88912547Y34655446D01*
X88813944Y34803016D01*
X88746024Y34966988D01*
X88713001Y35133011D01*
X88711400Y35141058D01*
X88711400Y35318542D01*
X88716327Y35343312D01*
X88746024Y35492612D01*
X88813944Y35656584D01*
X88912547Y35804154D01*
X89038046Y35929653D01*
X89185616Y36028256D01*
X89349588Y36096176D01*
X89498888Y36125873D01*
X89523658Y36130800D01*
X89701142Y36130800D01*
X89725912Y36125873D01*
G37*
G36*
X90513400Y36868800D02*
G01*
X88711400Y36868800D01*
X88711400Y38670800D01*
X90513400Y38670800D01*
X90513400Y36868800D01*
G37*
G36*
X78546912Y40766273D02*
G01*
X78696212Y40736576D01*
X78860184Y40668656D01*
X79007754Y40570053D01*
X79133253Y40444554D01*
X79231856Y40296984D01*
X79299776Y40133012D01*
X79334400Y39958941D01*
X79334400Y39781459D01*
X79299776Y39607388D01*
X79231856Y39443416D01*
X79133253Y39295846D01*
X79007754Y39170347D01*
X78860184Y39071744D01*
X78696212Y39003824D01*
X78546912Y38974127D01*
X78522142Y38969200D01*
X78344658Y38969200D01*
X78319888Y38974127D01*
X78170588Y39003824D01*
X78006616Y39071744D01*
X77859046Y39170347D01*
X77733547Y39295846D01*
X77634944Y39443416D01*
X77567024Y39607388D01*
X77532400Y39781459D01*
X77532400Y39958941D01*
X77567024Y40133012D01*
X77634944Y40296984D01*
X77733547Y40444554D01*
X77859046Y40570053D01*
X78006616Y40668656D01*
X78170588Y40736576D01*
X78319888Y40766273D01*
X78344658Y40771200D01*
X78522142Y40771200D01*
X78546912Y40766273D01*
G37*
G36*
X81181628Y45758497D02*
G01*
X81336500Y45694347D01*
X81475881Y45601215D01*
X81594415Y45482681D01*
X81687547Y45343300D01*
X81751697Y45188428D01*
X81784400Y45024016D01*
X81784400Y44856384D01*
X81751697Y44691972D01*
X81687547Y44537100D01*
X81594415Y44397719D01*
X81475881Y44279185D01*
X81336500Y44186053D01*
X81181628Y44121903D01*
X81017216Y44089200D01*
X80849584Y44089200D01*
X80685172Y44121903D01*
X80530300Y44186053D01*
X80390919Y44279185D01*
X80272385Y44397719D01*
X80179253Y44537100D01*
X80115103Y44691972D01*
X80082400Y44856384D01*
X80082400Y45024016D01*
X80115103Y45188428D01*
X80179253Y45343300D01*
X80272385Y45482681D01*
X80390919Y45601215D01*
X80530300Y45694347D01*
X80685172Y45758497D01*
X80849584Y45791200D01*
X81017216Y45791200D01*
X81181628Y45758497D01*
G37*
G36*
X26080228Y45758497D02*
G01*
X26235100Y45694347D01*
X26374481Y45601215D01*
X26493015Y45482681D01*
X26586147Y45343300D01*
X26650297Y45188428D01*
X26683000Y45024016D01*
X26683000Y44856384D01*
X26650297Y44691972D01*
X26586147Y44537100D01*
X26493015Y44397719D01*
X26374481Y44279185D01*
X26235100Y44186053D01*
X26080228Y44121903D01*
X25915816Y44089200D01*
X25748184Y44089200D01*
X25583772Y44121903D01*
X25428900Y44186053D01*
X25289519Y44279185D01*
X25170985Y44397719D01*
X25077853Y44537100D01*
X25013703Y44691972D01*
X24981000Y44856384D01*
X24981000Y45024016D01*
X25013703Y45188428D01*
X25077853Y45343300D01*
X25170985Y45482681D01*
X25289519Y45601215D01*
X25428900Y45694347D01*
X25583772Y45758497D01*
X25748184Y45791200D01*
X25915816Y45791200D01*
X26080228Y45758497D01*
G37*
G36*
X28620228Y45758497D02*
G01*
X28775100Y45694347D01*
X28914481Y45601215D01*
X29033015Y45482681D01*
X29126147Y45343300D01*
X29190297Y45188428D01*
X29223000Y45024016D01*
X29223000Y44856384D01*
X29190297Y44691972D01*
X29126147Y44537100D01*
X29033015Y44397719D01*
X28914481Y44279185D01*
X28775100Y44186053D01*
X28620228Y44121903D01*
X28455816Y44089200D01*
X28288184Y44089200D01*
X28123772Y44121903D01*
X27968900Y44186053D01*
X27829519Y44279185D01*
X27710985Y44397719D01*
X27617853Y44537100D01*
X27553703Y44691972D01*
X27521000Y44856384D01*
X27521000Y45024016D01*
X27553703Y45188428D01*
X27617853Y45343300D01*
X27710985Y45482681D01*
X27829519Y45601215D01*
X27968900Y45694347D01*
X28123772Y45758497D01*
X28288184Y45791200D01*
X28455816Y45791200D01*
X28620228Y45758497D01*
G37*
G36*
X31160228Y45758497D02*
G01*
X31315100Y45694347D01*
X31454481Y45601215D01*
X31573015Y45482681D01*
X31666147Y45343300D01*
X31730297Y45188428D01*
X31763000Y45024016D01*
X31763000Y44856384D01*
X31730297Y44691972D01*
X31666147Y44537100D01*
X31573015Y44397719D01*
X31454481Y44279185D01*
X31315100Y44186053D01*
X31160228Y44121903D01*
X30995816Y44089200D01*
X30828184Y44089200D01*
X30663772Y44121903D01*
X30508900Y44186053D01*
X30369519Y44279185D01*
X30250985Y44397719D01*
X30157853Y44537100D01*
X30093703Y44691972D01*
X30061000Y44856384D01*
X30061000Y45024016D01*
X30093703Y45188428D01*
X30157853Y45343300D01*
X30250985Y45482681D01*
X30369519Y45601215D01*
X30508900Y45694347D01*
X30663772Y45758497D01*
X30828184Y45791200D01*
X30995816Y45791200D01*
X31160228Y45758497D01*
G37*
G36*
X23540228Y45758497D02*
G01*
X23695100Y45694347D01*
X23834481Y45601215D01*
X23953015Y45482681D01*
X24046147Y45343300D01*
X24110297Y45188428D01*
X24143000Y45024016D01*
X24143000Y44856384D01*
X24110297Y44691972D01*
X24046147Y44537100D01*
X23953015Y44397719D01*
X23834481Y44279185D01*
X23695100Y44186053D01*
X23540228Y44121903D01*
X23375816Y44089200D01*
X23208184Y44089200D01*
X23043772Y44121903D01*
X22888900Y44186053D01*
X22749519Y44279185D01*
X22630985Y44397719D01*
X22537853Y44537100D01*
X22473703Y44691972D01*
X22441000Y44856384D01*
X22441000Y45024016D01*
X22473703Y45188428D01*
X22537853Y45343300D01*
X22630985Y45482681D01*
X22749519Y45601215D01*
X22888900Y45694347D01*
X23043772Y45758497D01*
X23208184Y45791200D01*
X23375816Y45791200D01*
X23540228Y45758497D01*
G37*
G36*
X61640228Y45758497D02*
G01*
X61795100Y45694347D01*
X61934481Y45601215D01*
X62053015Y45482681D01*
X62146147Y45343300D01*
X62210297Y45188428D01*
X62243000Y45024016D01*
X62243000Y44856384D01*
X62210297Y44691972D01*
X62146147Y44537100D01*
X62053015Y44397719D01*
X61934481Y44279185D01*
X61795100Y44186053D01*
X61640228Y44121903D01*
X61475816Y44089200D01*
X61308184Y44089200D01*
X61143772Y44121903D01*
X60988900Y44186053D01*
X60849519Y44279185D01*
X60730985Y44397719D01*
X60637853Y44537100D01*
X60573703Y44691972D01*
X60541000Y44856384D01*
X60541000Y45024016D01*
X60573703Y45188428D01*
X60637853Y45343300D01*
X60730985Y45482681D01*
X60849519Y45601215D01*
X60988900Y45694347D01*
X61143772Y45758497D01*
X61308184Y45791200D01*
X61475816Y45791200D01*
X61640228Y45758497D01*
G37*
G36*
X64180228Y45758497D02*
G01*
X64335100Y45694347D01*
X64474481Y45601215D01*
X64593015Y45482681D01*
X64686147Y45343300D01*
X64750297Y45188428D01*
X64783000Y45024016D01*
X64783000Y44856384D01*
X64750297Y44691972D01*
X64686147Y44537100D01*
X64593015Y44397719D01*
X64474481Y44279185D01*
X64335100Y44186053D01*
X64180228Y44121903D01*
X64015816Y44089200D01*
X63848184Y44089200D01*
X63683772Y44121903D01*
X63528900Y44186053D01*
X63389519Y44279185D01*
X63270985Y44397719D01*
X63177853Y44537100D01*
X63113703Y44691972D01*
X63081000Y44856384D01*
X63081000Y45024016D01*
X63113703Y45188428D01*
X63177853Y45343300D01*
X63270985Y45482681D01*
X63389519Y45601215D01*
X63528900Y45694347D01*
X63683772Y45758497D01*
X63848184Y45791200D01*
X64015816Y45791200D01*
X64180228Y45758497D01*
G37*
G36*
X59100228Y45758497D02*
G01*
X59255100Y45694347D01*
X59394481Y45601215D01*
X59513015Y45482681D01*
X59606147Y45343300D01*
X59670297Y45188428D01*
X59703000Y45024016D01*
X59703000Y44856384D01*
X59670297Y44691972D01*
X59606147Y44537100D01*
X59513015Y44397719D01*
X59394481Y44279185D01*
X59255100Y44186053D01*
X59100228Y44121903D01*
X58935816Y44089200D01*
X58768184Y44089200D01*
X58603772Y44121903D01*
X58448900Y44186053D01*
X58309519Y44279185D01*
X58190985Y44397719D01*
X58097853Y44537100D01*
X58033703Y44691972D01*
X58001000Y44856384D01*
X58001000Y45024016D01*
X58033703Y45188428D01*
X58097853Y45343300D01*
X58190985Y45482681D01*
X58309519Y45601215D01*
X58448900Y45694347D01*
X58603772Y45758497D01*
X58768184Y45791200D01*
X58935816Y45791200D01*
X59100228Y45758497D01*
G37*
G36*
X66720228Y45758497D02*
G01*
X66875100Y45694347D01*
X67014481Y45601215D01*
X67133015Y45482681D01*
X67226147Y45343300D01*
X67290297Y45188428D01*
X67323000Y45024016D01*
X67323000Y44856384D01*
X67290297Y44691972D01*
X67226147Y44537100D01*
X67133015Y44397719D01*
X67014481Y44279185D01*
X66875100Y44186053D01*
X66720228Y44121903D01*
X66555816Y44089200D01*
X66388184Y44089200D01*
X66223772Y44121903D01*
X66068900Y44186053D01*
X65929519Y44279185D01*
X65810985Y44397719D01*
X65717853Y44537100D01*
X65653703Y44691972D01*
X65621000Y44856384D01*
X65621000Y45024016D01*
X65653703Y45188428D01*
X65717853Y45343300D01*
X65810985Y45482681D01*
X65929519Y45601215D01*
X66068900Y45694347D01*
X66223772Y45758497D01*
X66388184Y45791200D01*
X66555816Y45791200D01*
X66720228Y45758497D01*
G37*
G36*
X56560228Y45758497D02*
G01*
X56715100Y45694347D01*
X56854481Y45601215D01*
X56973015Y45482681D01*
X57066147Y45343300D01*
X57130297Y45188428D01*
X57163000Y45024016D01*
X57163000Y44856384D01*
X57130297Y44691972D01*
X57066147Y44537100D01*
X56973015Y44397719D01*
X56854481Y44279185D01*
X56715100Y44186053D01*
X56560228Y44121903D01*
X56395816Y44089200D01*
X56228184Y44089200D01*
X56063772Y44121903D01*
X55908900Y44186053D01*
X55769519Y44279185D01*
X55650985Y44397719D01*
X55557853Y44537100D01*
X55493703Y44691972D01*
X55461000Y44856384D01*
X55461000Y45024016D01*
X55493703Y45188428D01*
X55557853Y45343300D01*
X55650985Y45482681D01*
X55769519Y45601215D01*
X55908900Y45694347D01*
X56063772Y45758497D01*
X56228184Y45791200D01*
X56395816Y45791200D01*
X56560228Y45758497D01*
G37*
G36*
X69260228Y45758497D02*
G01*
X69415100Y45694347D01*
X69554481Y45601215D01*
X69673015Y45482681D01*
X69766147Y45343300D01*
X69830297Y45188428D01*
X69863000Y45024016D01*
X69863000Y44856384D01*
X69830297Y44691972D01*
X69766147Y44537100D01*
X69673015Y44397719D01*
X69554481Y44279185D01*
X69415100Y44186053D01*
X69260228Y44121903D01*
X69095816Y44089200D01*
X68928184Y44089200D01*
X68763772Y44121903D01*
X68608900Y44186053D01*
X68469519Y44279185D01*
X68350985Y44397719D01*
X68257853Y44537100D01*
X68193703Y44691972D01*
X68161000Y44856384D01*
X68161000Y45024016D01*
X68193703Y45188428D01*
X68257853Y45343300D01*
X68350985Y45482681D01*
X68469519Y45601215D01*
X68608900Y45694347D01*
X68763772Y45758497D01*
X68928184Y45791200D01*
X69095816Y45791200D01*
X69260228Y45758497D01*
G37*
G36*
X54020228Y45758497D02*
G01*
X54175100Y45694347D01*
X54314481Y45601215D01*
X54433015Y45482681D01*
X54526147Y45343300D01*
X54590297Y45188428D01*
X54623000Y45024016D01*
X54623000Y44856384D01*
X54590297Y44691972D01*
X54526147Y44537100D01*
X54433015Y44397719D01*
X54314481Y44279185D01*
X54175100Y44186053D01*
X54020228Y44121903D01*
X53855816Y44089200D01*
X53688184Y44089200D01*
X53523772Y44121903D01*
X53368900Y44186053D01*
X53229519Y44279185D01*
X53110985Y44397719D01*
X53017853Y44537100D01*
X52953703Y44691972D01*
X52921000Y44856384D01*
X52921000Y45024016D01*
X52953703Y45188428D01*
X53017853Y45343300D01*
X53110985Y45482681D01*
X53229519Y45601215D01*
X53368900Y45694347D01*
X53523772Y45758497D01*
X53688184Y45791200D01*
X53855816Y45791200D01*
X54020228Y45758497D01*
G37*
G36*
X71800228Y45758497D02*
G01*
X71955100Y45694347D01*
X72094481Y45601215D01*
X72213015Y45482681D01*
X72306147Y45343300D01*
X72370297Y45188428D01*
X72403000Y45024016D01*
X72403000Y44856384D01*
X72370297Y44691972D01*
X72306147Y44537100D01*
X72213015Y44397719D01*
X72094481Y44279185D01*
X71955100Y44186053D01*
X71800228Y44121903D01*
X71635816Y44089200D01*
X71468184Y44089200D01*
X71303772Y44121903D01*
X71148900Y44186053D01*
X71009519Y44279185D01*
X70890985Y44397719D01*
X70797853Y44537100D01*
X70733703Y44691972D01*
X70701000Y44856384D01*
X70701000Y45024016D01*
X70733703Y45188428D01*
X70797853Y45343300D01*
X70890985Y45482681D01*
X71009519Y45601215D01*
X71148900Y45694347D01*
X71303772Y45758497D01*
X71468184Y45791200D01*
X71635816Y45791200D01*
X71800228Y45758497D01*
G37*
G36*
X51480228Y45758497D02*
G01*
X51635100Y45694347D01*
X51774481Y45601215D01*
X51893015Y45482681D01*
X51986147Y45343300D01*
X52050297Y45188428D01*
X52083000Y45024016D01*
X52083000Y44856384D01*
X52050297Y44691972D01*
X51986147Y44537100D01*
X51893015Y44397719D01*
X51774481Y44279185D01*
X51635100Y44186053D01*
X51480228Y44121903D01*
X51315816Y44089200D01*
X51148184Y44089200D01*
X50983772Y44121903D01*
X50828900Y44186053D01*
X50689519Y44279185D01*
X50570985Y44397719D01*
X50477853Y44537100D01*
X50413703Y44691972D01*
X50381000Y44856384D01*
X50381000Y45024016D01*
X50413703Y45188428D01*
X50477853Y45343300D01*
X50570985Y45482681D01*
X50689519Y45601215D01*
X50828900Y45694347D01*
X50983772Y45758497D01*
X51148184Y45791200D01*
X51315816Y45791200D01*
X51480228Y45758497D01*
G37*
G36*
X76181628Y45758497D02*
G01*
X76336500Y45694347D01*
X76475881Y45601215D01*
X76594415Y45482681D01*
X76687547Y45343300D01*
X76751697Y45188428D01*
X76784400Y45024016D01*
X76784400Y44856384D01*
X76751697Y44691972D01*
X76687547Y44537100D01*
X76594415Y44397719D01*
X76475881Y44279185D01*
X76336500Y44186053D01*
X76181628Y44121903D01*
X76017216Y44089200D01*
X75849584Y44089200D01*
X75685172Y44121903D01*
X75530300Y44186053D01*
X75390919Y44279185D01*
X75272385Y44397719D01*
X75179253Y44537100D01*
X75115103Y44691972D01*
X75082400Y44856384D01*
X75082400Y45024016D01*
X75115103Y45188428D01*
X75179253Y45343300D01*
X75272385Y45482681D01*
X75390919Y45601215D01*
X75530300Y45694347D01*
X75685172Y45758497D01*
X75849584Y45791200D01*
X76017216Y45791200D01*
X76181628Y45758497D01*
G37*
G36*
X48940228Y45758497D02*
G01*
X49095100Y45694347D01*
X49234481Y45601215D01*
X49353015Y45482681D01*
X49446147Y45343300D01*
X49510297Y45188428D01*
X49543000Y45024016D01*
X49543000Y44856384D01*
X49510297Y44691972D01*
X49446147Y44537100D01*
X49353015Y44397719D01*
X49234481Y44279185D01*
X49095100Y44186053D01*
X48940228Y44121903D01*
X48775816Y44089200D01*
X48608184Y44089200D01*
X48443772Y44121903D01*
X48288900Y44186053D01*
X48149519Y44279185D01*
X48030985Y44397719D01*
X47937853Y44537100D01*
X47873703Y44691972D01*
X47841000Y44856384D01*
X47841000Y45024016D01*
X47873703Y45188428D01*
X47937853Y45343300D01*
X48030985Y45482681D01*
X48149519Y45601215D01*
X48288900Y45694347D01*
X48443772Y45758497D01*
X48608184Y45791200D01*
X48775816Y45791200D01*
X48940228Y45758497D01*
G37*
G36*
X46400228Y45758497D02*
G01*
X46555100Y45694347D01*
X46694481Y45601215D01*
X46813015Y45482681D01*
X46906147Y45343300D01*
X46970297Y45188428D01*
X47003000Y45024016D01*
X47003000Y44856384D01*
X46970297Y44691972D01*
X46906147Y44537100D01*
X46813015Y44397719D01*
X46694481Y44279185D01*
X46555100Y44186053D01*
X46400228Y44121903D01*
X46235816Y44089200D01*
X46068184Y44089200D01*
X45903772Y44121903D01*
X45748900Y44186053D01*
X45609519Y44279185D01*
X45490985Y44397719D01*
X45397853Y44537100D01*
X45333703Y44691972D01*
X45301000Y44856384D01*
X45301000Y45024016D01*
X45333703Y45188428D01*
X45397853Y45343300D01*
X45490985Y45482681D01*
X45609519Y45601215D01*
X45748900Y45694347D01*
X45903772Y45758497D01*
X46068184Y45791200D01*
X46235816Y45791200D01*
X46400228Y45758497D01*
G37*
G36*
X43860228Y45758497D02*
G01*
X44015100Y45694347D01*
X44154481Y45601215D01*
X44273015Y45482681D01*
X44366147Y45343300D01*
X44430297Y45188428D01*
X44463000Y45024016D01*
X44463000Y44856384D01*
X44430297Y44691972D01*
X44366147Y44537100D01*
X44273015Y44397719D01*
X44154481Y44279185D01*
X44015100Y44186053D01*
X43860228Y44121903D01*
X43695816Y44089200D01*
X43528184Y44089200D01*
X43363772Y44121903D01*
X43208900Y44186053D01*
X43069519Y44279185D01*
X42950985Y44397719D01*
X42857853Y44537100D01*
X42793703Y44691972D01*
X42761000Y44856384D01*
X42761000Y45024016D01*
X42793703Y45188428D01*
X42857853Y45343300D01*
X42950985Y45482681D01*
X43069519Y45601215D01*
X43208900Y45694347D01*
X43363772Y45758497D01*
X43528184Y45791200D01*
X43695816Y45791200D01*
X43860228Y45758497D01*
G37*
G36*
X41320228Y45758497D02*
G01*
X41475100Y45694347D01*
X41614481Y45601215D01*
X41733015Y45482681D01*
X41826147Y45343300D01*
X41890297Y45188428D01*
X41923000Y45024016D01*
X41923000Y44856384D01*
X41890297Y44691972D01*
X41826147Y44537100D01*
X41733015Y44397719D01*
X41614481Y44279185D01*
X41475100Y44186053D01*
X41320228Y44121903D01*
X41155816Y44089200D01*
X40988184Y44089200D01*
X40823772Y44121903D01*
X40668900Y44186053D01*
X40529519Y44279185D01*
X40410985Y44397719D01*
X40317853Y44537100D01*
X40253703Y44691972D01*
X40221000Y44856384D01*
X40221000Y45024016D01*
X40253703Y45188428D01*
X40317853Y45343300D01*
X40410985Y45482681D01*
X40529519Y45601215D01*
X40668900Y45694347D01*
X40823772Y45758497D01*
X40988184Y45791200D01*
X41155816Y45791200D01*
X41320228Y45758497D01*
G37*
G36*
X38780228Y45758497D02*
G01*
X38935100Y45694347D01*
X39074481Y45601215D01*
X39193015Y45482681D01*
X39286147Y45343300D01*
X39350297Y45188428D01*
X39383000Y45024016D01*
X39383000Y44856384D01*
X39350297Y44691972D01*
X39286147Y44537100D01*
X39193015Y44397719D01*
X39074481Y44279185D01*
X38935100Y44186053D01*
X38780228Y44121903D01*
X38615816Y44089200D01*
X38448184Y44089200D01*
X38283772Y44121903D01*
X38128900Y44186053D01*
X37989519Y44279185D01*
X37870985Y44397719D01*
X37777853Y44537100D01*
X37713703Y44691972D01*
X37681000Y44856384D01*
X37681000Y45024016D01*
X37713703Y45188428D01*
X37777853Y45343300D01*
X37870985Y45482681D01*
X37989519Y45601215D01*
X38128900Y45694347D01*
X38283772Y45758497D01*
X38448184Y45791200D01*
X38615816Y45791200D01*
X38780228Y45758497D01*
G37*
G36*
X36240228Y45758497D02*
G01*
X36395100Y45694347D01*
X36534481Y45601215D01*
X36653015Y45482681D01*
X36746147Y45343300D01*
X36810297Y45188428D01*
X36843000Y45024016D01*
X36843000Y44856384D01*
X36810297Y44691972D01*
X36746147Y44537100D01*
X36653015Y44397719D01*
X36534481Y44279185D01*
X36395100Y44186053D01*
X36240228Y44121903D01*
X36075816Y44089200D01*
X35908184Y44089200D01*
X35743772Y44121903D01*
X35588900Y44186053D01*
X35449519Y44279185D01*
X35330985Y44397719D01*
X35237853Y44537100D01*
X35173703Y44691972D01*
X35141000Y44856384D01*
X35141000Y45024016D01*
X35173703Y45188428D01*
X35237853Y45343300D01*
X35330985Y45482681D01*
X35449519Y45601215D01*
X35588900Y45694347D01*
X35743772Y45758497D01*
X35908184Y45791200D01*
X36075816Y45791200D01*
X36240228Y45758497D01*
G37*
G36*
X33700228Y45758497D02*
G01*
X33855100Y45694347D01*
X33994481Y45601215D01*
X34113015Y45482681D01*
X34206147Y45343300D01*
X34270297Y45188428D01*
X34303000Y45024016D01*
X34303000Y44856384D01*
X34270297Y44691972D01*
X34206147Y44537100D01*
X34113015Y44397719D01*
X33994481Y44279185D01*
X33855100Y44186053D01*
X33700228Y44121903D01*
X33535816Y44089200D01*
X33368184Y44089200D01*
X33203772Y44121903D01*
X33048900Y44186053D01*
X32909519Y44279185D01*
X32790985Y44397719D01*
X32697853Y44537100D01*
X32633703Y44691972D01*
X32601000Y44856384D01*
X32601000Y45024016D01*
X32633703Y45188428D01*
X32697853Y45343300D01*
X32790985Y45482681D01*
X32909519Y45601215D01*
X33048900Y45694347D01*
X33203772Y45758497D01*
X33368184Y45791200D01*
X33535816Y45791200D01*
X33700228Y45758497D01*
G37*
G36*
X15278378Y47920253D02*
G01*
X15444824Y47851309D01*
X15594622Y47751217D01*
X15722017Y47623822D01*
X15822109Y47474024D01*
X15891053Y47307578D01*
X15926200Y47130882D01*
X15926200Y46950718D01*
X15891053Y46774022D01*
X15822109Y46607576D01*
X15722017Y46457778D01*
X15594622Y46330383D01*
X15444824Y46230291D01*
X15278378Y46161347D01*
X15101682Y46126200D01*
X14921518Y46126200D01*
X14744822Y46161347D01*
X14578376Y46230291D01*
X14428578Y46330383D01*
X14301183Y46457778D01*
X14201091Y46607576D01*
X14132147Y46774022D01*
X14097000Y46950718D01*
X14097000Y47130882D01*
X14132147Y47307578D01*
X14201091Y47474024D01*
X14301183Y47623822D01*
X14428578Y47751217D01*
X14578376Y47851309D01*
X14744822Y47920253D01*
X14921518Y47955400D01*
X15101682Y47955400D01*
X15278378Y47920253D01*
G37*
G36*
X12738378Y47920253D02*
G01*
X12904824Y47851309D01*
X13054622Y47751217D01*
X13182017Y47623822D01*
X13282109Y47474024D01*
X13351053Y47307578D01*
X13386200Y47130882D01*
X13386200Y46950718D01*
X13351053Y46774022D01*
X13282109Y46607576D01*
X13182017Y46457778D01*
X13054622Y46330383D01*
X12904824Y46230291D01*
X12738378Y46161347D01*
X12561682Y46126200D01*
X12381518Y46126200D01*
X12204822Y46161347D01*
X12038376Y46230291D01*
X11888578Y46330383D01*
X11761183Y46457778D01*
X11661091Y46607576D01*
X11592147Y46774022D01*
X11557000Y46950718D01*
X11557000Y47130882D01*
X11592147Y47307578D01*
X11661091Y47474024D01*
X11761183Y47623822D01*
X11888578Y47751217D01*
X12038376Y47851309D01*
X12204822Y47920253D01*
X12381518Y47955400D01*
X12561682Y47955400D01*
X12738378Y47920253D01*
G37*
G36*
X48940228Y49416097D02*
G01*
X49095100Y49351947D01*
X49234481Y49258815D01*
X49353015Y49140281D01*
X49446147Y49000900D01*
X49510297Y48846028D01*
X49543000Y48681616D01*
X49543000Y48513984D01*
X49510297Y48349572D01*
X49446147Y48194700D01*
X49353015Y48055319D01*
X49234481Y47936785D01*
X49095100Y47843653D01*
X48940228Y47779503D01*
X48775816Y47746800D01*
X48608184Y47746800D01*
X48443772Y47779503D01*
X48288900Y47843653D01*
X48149519Y47936785D01*
X48030985Y48055319D01*
X47937853Y48194700D01*
X47873703Y48349572D01*
X47841000Y48513984D01*
X47841000Y48681616D01*
X47873703Y48846028D01*
X47937853Y49000900D01*
X48030985Y49140281D01*
X48149519Y49258815D01*
X48288900Y49351947D01*
X48443772Y49416097D01*
X48608184Y49448800D01*
X48775816Y49448800D01*
X48940228Y49416097D01*
G37*
G36*
X43860228Y49416097D02*
G01*
X44015100Y49351947D01*
X44154481Y49258815D01*
X44273015Y49140281D01*
X44366147Y49000900D01*
X44430297Y48846028D01*
X44463000Y48681616D01*
X44463000Y48513984D01*
X44430297Y48349572D01*
X44366147Y48194700D01*
X44273015Y48055319D01*
X44154481Y47936785D01*
X44015100Y47843653D01*
X43860228Y47779503D01*
X43695816Y47746800D01*
X43528184Y47746800D01*
X43363772Y47779503D01*
X43208900Y47843653D01*
X43069519Y47936785D01*
X42950985Y48055319D01*
X42857853Y48194700D01*
X42793703Y48349572D01*
X42761000Y48513984D01*
X42761000Y48681616D01*
X42793703Y48846028D01*
X42857853Y49000900D01*
X42950985Y49140281D01*
X43069519Y49258815D01*
X43208900Y49351947D01*
X43363772Y49416097D01*
X43528184Y49448800D01*
X43695816Y49448800D01*
X43860228Y49416097D01*
G37*
G36*
X15278378Y50460253D02*
G01*
X15444824Y50391309D01*
X15594622Y50291217D01*
X15722017Y50163822D01*
X15822109Y50014024D01*
X15891053Y49847578D01*
X15926200Y49670882D01*
X15926200Y49490718D01*
X15891053Y49314022D01*
X15822109Y49147576D01*
X15722017Y48997778D01*
X15594622Y48870383D01*
X15444824Y48770291D01*
X15278378Y48701347D01*
X15101682Y48666200D01*
X14921518Y48666200D01*
X14744822Y48701347D01*
X14578376Y48770291D01*
X14428578Y48870383D01*
X14301183Y48997778D01*
X14201091Y49147576D01*
X14132147Y49314022D01*
X14097000Y49490718D01*
X14097000Y49670882D01*
X14132147Y49847578D01*
X14201091Y50014024D01*
X14301183Y50163822D01*
X14428578Y50291217D01*
X14578376Y50391309D01*
X14744822Y50460253D01*
X14921518Y50495400D01*
X15101682Y50495400D01*
X15278378Y50460253D01*
G37*
G36*
X12738378Y50460253D02*
G01*
X12904824Y50391309D01*
X13054622Y50291217D01*
X13182017Y50163822D01*
X13282109Y50014024D01*
X13351053Y49847578D01*
X13386200Y49670882D01*
X13386200Y49490718D01*
X13351053Y49314022D01*
X13282109Y49147576D01*
X13182017Y48997778D01*
X13054622Y48870383D01*
X12904824Y48770291D01*
X12738378Y48701347D01*
X12561682Y48666200D01*
X12381518Y48666200D01*
X12204822Y48701347D01*
X12038376Y48770291D01*
X11888578Y48870383D01*
X11761183Y48997778D01*
X11661091Y49147576D01*
X11592147Y49314022D01*
X11557000Y49490718D01*
X11557000Y49670882D01*
X11592147Y49847578D01*
X11661091Y50014024D01*
X11761183Y50163822D01*
X11888578Y50291217D01*
X12038376Y50391309D01*
X12204822Y50460253D01*
X12381518Y50495400D01*
X12561682Y50495400D01*
X12738378Y50460253D01*
G37*
G36*
X92862400Y49631600D02*
G01*
X89560400Y49631600D01*
X89560400Y52933600D01*
X92862400Y52933600D01*
X92862400Y49631600D01*
G37*
G36*
X12738378Y53000253D02*
G01*
X12904824Y52931309D01*
X13054622Y52831217D01*
X13182017Y52703822D01*
X13282109Y52554024D01*
X13351053Y52387578D01*
X13386200Y52210882D01*
X13386200Y52030718D01*
X13351053Y51854022D01*
X13282109Y51687576D01*
X13182017Y51537778D01*
X13054622Y51410383D01*
X12904824Y51310291D01*
X12738378Y51241347D01*
X12561682Y51206200D01*
X12381518Y51206200D01*
X12204822Y51241347D01*
X12038376Y51310291D01*
X11888578Y51410383D01*
X11761183Y51537778D01*
X11661091Y51687576D01*
X11592147Y51854022D01*
X11557000Y52030718D01*
X11557000Y52210882D01*
X11592147Y52387578D01*
X11661091Y52554024D01*
X11761183Y52703822D01*
X11888578Y52831217D01*
X12038376Y52931309D01*
X12204822Y53000253D01*
X12381518Y53035400D01*
X12561682Y53035400D01*
X12738378Y53000253D01*
G37*
G36*
X15278378Y53000253D02*
G01*
X15444824Y52931309D01*
X15594622Y52831217D01*
X15722017Y52703822D01*
X15822109Y52554024D01*
X15891053Y52387578D01*
X15926200Y52210882D01*
X15926200Y52030718D01*
X15891053Y51854022D01*
X15822109Y51687576D01*
X15722017Y51537778D01*
X15594622Y51410383D01*
X15444824Y51310291D01*
X15278378Y51241347D01*
X15101682Y51206200D01*
X14921518Y51206200D01*
X14744822Y51241347D01*
X14578376Y51310291D01*
X14428578Y51410383D01*
X14301183Y51537778D01*
X14201091Y51687576D01*
X14132147Y51854022D01*
X14097000Y52030718D01*
X14097000Y52210882D01*
X14132147Y52387578D01*
X14201091Y52554024D01*
X14301183Y52703822D01*
X14428578Y52831217D01*
X14578376Y52931309D01*
X14744822Y53000253D01*
X14921518Y53035400D01*
X15101682Y53035400D01*
X15278378Y53000253D01*
G37*
G36*
X43860228Y54416097D02*
G01*
X44015100Y54351947D01*
X44154481Y54258815D01*
X44273015Y54140281D01*
X44366147Y54000900D01*
X44430297Y53846028D01*
X44463000Y53681616D01*
X44463000Y53513984D01*
X44430297Y53349572D01*
X44366147Y53194700D01*
X44273015Y53055319D01*
X44154481Y52936785D01*
X44015100Y52843653D01*
X43860228Y52779503D01*
X43695816Y52746800D01*
X43528184Y52746800D01*
X43363772Y52779503D01*
X43208900Y52843653D01*
X43069519Y52936785D01*
X42950985Y53055319D01*
X42857853Y53194700D01*
X42793703Y53349572D01*
X42761000Y53513984D01*
X42761000Y53681616D01*
X42793703Y53846028D01*
X42857853Y54000900D01*
X42950985Y54140281D01*
X43069519Y54258815D01*
X43208900Y54351947D01*
X43363772Y54416097D01*
X43528184Y54448800D01*
X43695816Y54448800D01*
X43860228Y54416097D01*
G37*
G36*
X48940228Y54416097D02*
G01*
X49095100Y54351947D01*
X49234481Y54258815D01*
X49353015Y54140281D01*
X49446147Y54000900D01*
X49510297Y53846028D01*
X49543000Y53681616D01*
X49543000Y53513984D01*
X49510297Y53349572D01*
X49446147Y53194700D01*
X49353015Y53055319D01*
X49234481Y52936785D01*
X49095100Y52843653D01*
X48940228Y52779503D01*
X48775816Y52746800D01*
X48608184Y52746800D01*
X48443772Y52779503D01*
X48288900Y52843653D01*
X48149519Y52936785D01*
X48030985Y53055319D01*
X47937853Y53194700D01*
X47873703Y53349572D01*
X47841000Y53513984D01*
X47841000Y53681616D01*
X47873703Y53846028D01*
X47937853Y54000900D01*
X48030985Y54140281D01*
X48149519Y54258815D01*
X48288900Y54351947D01*
X48443772Y54416097D01*
X48608184Y54448800D01*
X48775816Y54448800D01*
X48940228Y54416097D01*
G37*
G36*
X12738378Y55540253D02*
G01*
X12904824Y55471309D01*
X13054622Y55371217D01*
X13182017Y55243822D01*
X13282109Y55094024D01*
X13351053Y54927578D01*
X13386200Y54750882D01*
X13386200Y54570718D01*
X13351053Y54394022D01*
X13282109Y54227576D01*
X13182017Y54077778D01*
X13054622Y53950383D01*
X12904824Y53850291D01*
X12738378Y53781347D01*
X12561682Y53746200D01*
X12381518Y53746200D01*
X12204822Y53781347D01*
X12038376Y53850291D01*
X11888578Y53950383D01*
X11761183Y54077778D01*
X11661091Y54227576D01*
X11592147Y54394022D01*
X11557000Y54570718D01*
X11557000Y54750882D01*
X11592147Y54927578D01*
X11661091Y55094024D01*
X11761183Y55243822D01*
X11888578Y55371217D01*
X12038376Y55471309D01*
X12204822Y55540253D01*
X12381518Y55575400D01*
X12561682Y55575400D01*
X12738378Y55540253D01*
G37*
G36*
X15278378Y55540253D02*
G01*
X15444824Y55471309D01*
X15594622Y55371217D01*
X15722017Y55243822D01*
X15822109Y55094024D01*
X15891053Y54927578D01*
X15926200Y54750882D01*
X15926200Y54570718D01*
X15891053Y54394022D01*
X15822109Y54227576D01*
X15722017Y54077778D01*
X15594622Y53950383D01*
X15444824Y53850291D01*
X15278378Y53781347D01*
X15101682Y53746200D01*
X14921518Y53746200D01*
X14744822Y53781347D01*
X14578376Y53850291D01*
X14428578Y53950383D01*
X14301183Y54077778D01*
X14201091Y54227576D01*
X14132147Y54394022D01*
X14097000Y54570718D01*
X14097000Y54750882D01*
X14132147Y54927578D01*
X14201091Y55094024D01*
X14301183Y55243822D01*
X14428578Y55371217D01*
X14578376Y55471309D01*
X14744822Y55540253D01*
X14921518Y55575400D01*
X15101682Y55575400D01*
X15278378Y55540253D01*
G37*
G36*
X13386200Y56286200D02*
G01*
X11557000Y56286200D01*
X11557000Y58115400D01*
X13386200Y58115400D01*
X13386200Y56286200D01*
G37*
G36*
X15278378Y58080253D02*
G01*
X15444824Y58011309D01*
X15594622Y57911217D01*
X15722017Y57783822D01*
X15822109Y57634024D01*
X15891053Y57467578D01*
X15926200Y57290882D01*
X15926200Y57110718D01*
X15891053Y56934022D01*
X15822109Y56767576D01*
X15722017Y56617778D01*
X15594622Y56490383D01*
X15444824Y56390291D01*
X15278378Y56321347D01*
X15101682Y56286200D01*
X14921518Y56286200D01*
X14744822Y56321347D01*
X14578376Y56390291D01*
X14428578Y56490383D01*
X14301183Y56617778D01*
X14201091Y56767576D01*
X14132147Y56934022D01*
X14097000Y57110718D01*
X14097000Y57290882D01*
X14132147Y57467578D01*
X14201091Y57634024D01*
X14301183Y57783822D01*
X14428578Y57911217D01*
X14578376Y58011309D01*
X14744822Y58080253D01*
X14921518Y58115400D01*
X15101682Y58115400D01*
X15278378Y58080253D01*
G37*
G36*
X91586656Y68131302D02*
G01*
X91692979Y68110153D01*
X91993442Y67985697D01*
X92263851Y67805015D01*
X92493815Y67575051D01*
X92674497Y67304642D01*
X92798953Y67004179D01*
X92862400Y66685209D01*
X92862400Y66359991D01*
X92798953Y66041021D01*
X92674497Y65740558D01*
X92493815Y65470149D01*
X92263851Y65240185D01*
X91993442Y65059503D01*
X91692979Y64935047D01*
X91586656Y64913898D01*
X91374011Y64871600D01*
X91048789Y64871600D01*
X90836144Y64913898D01*
X90729821Y64935047D01*
X90429358Y65059503D01*
X90158949Y65240185D01*
X89928985Y65470149D01*
X89748303Y65740558D01*
X89623847Y66041021D01*
X89560400Y66359991D01*
X89560400Y66685209D01*
X89623847Y67004179D01*
X89748303Y67304642D01*
X89928985Y67575051D01*
X90158949Y67805015D01*
X90429358Y67985697D01*
X90729821Y68110153D01*
X90836144Y68131302D01*
X91048789Y68173600D01*
X91374011Y68173600D01*
X91586656Y68131302D01*
G37*
G36*
X51459912Y75975473D02*
G01*
X51609212Y75945776D01*
X51773184Y75877856D01*
X51920754Y75779253D01*
X52046253Y75653754D01*
X52144856Y75506184D01*
X52212776Y75342212D01*
X52247400Y75168141D01*
X52247400Y74990659D01*
X52212776Y74816588D01*
X52144856Y74652616D01*
X52046253Y74505046D01*
X51920754Y74379547D01*
X51773184Y74280944D01*
X51609212Y74213024D01*
X51459912Y74183327D01*
X51435142Y74178400D01*
X51257658Y74178400D01*
X51232888Y74183327D01*
X51083588Y74213024D01*
X50919616Y74280944D01*
X50772046Y74379547D01*
X50646547Y74505046D01*
X50547944Y74652616D01*
X50480024Y74816588D01*
X50445400Y74990659D01*
X50445400Y75168141D01*
X50480024Y75342212D01*
X50547944Y75506184D01*
X50646547Y75653754D01*
X50772046Y75779253D01*
X50919616Y75877856D01*
X51083588Y75945776D01*
X51232888Y75975473D01*
X51257658Y75980400D01*
X51435142Y75980400D01*
X51459912Y75975473D01*
G37*
G36*
X64159912Y75975473D02*
G01*
X64309212Y75945776D01*
X64473184Y75877856D01*
X64620754Y75779253D01*
X64746253Y75653754D01*
X64844856Y75506184D01*
X64912776Y75342212D01*
X64947400Y75168141D01*
X64947400Y74990659D01*
X64912776Y74816588D01*
X64844856Y74652616D01*
X64746253Y74505046D01*
X64620754Y74379547D01*
X64473184Y74280944D01*
X64309212Y74213024D01*
X64159912Y74183327D01*
X64135142Y74178400D01*
X63957658Y74178400D01*
X63932888Y74183327D01*
X63783588Y74213024D01*
X63619616Y74280944D01*
X63472046Y74379547D01*
X63346547Y74505046D01*
X63247944Y74652616D01*
X63180024Y74816588D01*
X63145400Y74990659D01*
X63145400Y75168141D01*
X63180024Y75342212D01*
X63247944Y75506184D01*
X63346547Y75653754D01*
X63472046Y75779253D01*
X63619616Y75877856D01*
X63783588Y75945776D01*
X63932888Y75975473D01*
X63957658Y75980400D01*
X64135142Y75980400D01*
X64159912Y75975473D01*
G37*
G36*
X53999912Y75975473D02*
G01*
X54149212Y75945776D01*
X54313184Y75877856D01*
X54460754Y75779253D01*
X54586253Y75653754D01*
X54684856Y75506184D01*
X54752776Y75342212D01*
X54787400Y75168141D01*
X54787400Y74990659D01*
X54752776Y74816588D01*
X54684856Y74652616D01*
X54586253Y74505046D01*
X54460754Y74379547D01*
X54313184Y74280944D01*
X54149212Y74213024D01*
X53999912Y74183327D01*
X53975142Y74178400D01*
X53797658Y74178400D01*
X53772888Y74183327D01*
X53623588Y74213024D01*
X53459616Y74280944D01*
X53312046Y74379547D01*
X53186547Y74505046D01*
X53087944Y74652616D01*
X53020024Y74816588D01*
X52985400Y74990659D01*
X52985400Y75168141D01*
X53020024Y75342212D01*
X53087944Y75506184D01*
X53186547Y75653754D01*
X53312046Y75779253D01*
X53459616Y75877856D01*
X53623588Y75945776D01*
X53772888Y75975473D01*
X53797658Y75980400D01*
X53975142Y75980400D01*
X53999912Y75975473D01*
G37*
G36*
X56539912Y75975473D02*
G01*
X56689212Y75945776D01*
X56853184Y75877856D01*
X57000754Y75779253D01*
X57126253Y75653754D01*
X57224856Y75506184D01*
X57292776Y75342212D01*
X57327400Y75168141D01*
X57327400Y74990659D01*
X57292776Y74816588D01*
X57224856Y74652616D01*
X57126253Y74505046D01*
X57000754Y74379547D01*
X56853184Y74280944D01*
X56689212Y74213024D01*
X56539912Y74183327D01*
X56515142Y74178400D01*
X56337658Y74178400D01*
X56312888Y74183327D01*
X56163588Y74213024D01*
X55999616Y74280944D01*
X55852046Y74379547D01*
X55726547Y74505046D01*
X55627944Y74652616D01*
X55560024Y74816588D01*
X55525400Y74990659D01*
X55525400Y75168141D01*
X55560024Y75342212D01*
X55627944Y75506184D01*
X55726547Y75653754D01*
X55852046Y75779253D01*
X55999616Y75877856D01*
X56163588Y75945776D01*
X56312888Y75975473D01*
X56337658Y75980400D01*
X56515142Y75980400D01*
X56539912Y75975473D01*
G37*
G36*
X59079912Y75975473D02*
G01*
X59229212Y75945776D01*
X59393184Y75877856D01*
X59540754Y75779253D01*
X59666253Y75653754D01*
X59764856Y75506184D01*
X59832776Y75342212D01*
X59867400Y75168141D01*
X59867400Y74990659D01*
X59832776Y74816588D01*
X59764856Y74652616D01*
X59666253Y74505046D01*
X59540754Y74379547D01*
X59393184Y74280944D01*
X59229212Y74213024D01*
X59079912Y74183327D01*
X59055142Y74178400D01*
X58877658Y74178400D01*
X58852888Y74183327D01*
X58703588Y74213024D01*
X58539616Y74280944D01*
X58392046Y74379547D01*
X58266547Y74505046D01*
X58167944Y74652616D01*
X58100024Y74816588D01*
X58065400Y74990659D01*
X58065400Y75168141D01*
X58100024Y75342212D01*
X58167944Y75506184D01*
X58266547Y75653754D01*
X58392046Y75779253D01*
X58539616Y75877856D01*
X58703588Y75945776D01*
X58852888Y75975473D01*
X58877658Y75980400D01*
X59055142Y75980400D01*
X59079912Y75975473D01*
G37*
G36*
X61619912Y75975473D02*
G01*
X61769212Y75945776D01*
X61933184Y75877856D01*
X62080754Y75779253D01*
X62206253Y75653754D01*
X62304856Y75506184D01*
X62372776Y75342212D01*
X62407400Y75168141D01*
X62407400Y74990659D01*
X62372776Y74816588D01*
X62304856Y74652616D01*
X62206253Y74505046D01*
X62080754Y74379547D01*
X61933184Y74280944D01*
X61769212Y74213024D01*
X61619912Y74183327D01*
X61595142Y74178400D01*
X61417658Y74178400D01*
X61392888Y74183327D01*
X61243588Y74213024D01*
X61079616Y74280944D01*
X60932046Y74379547D01*
X60806547Y74505046D01*
X60707944Y74652616D01*
X60640024Y74816588D01*
X60605400Y74990659D01*
X60605400Y75168141D01*
X60640024Y75342212D01*
X60707944Y75506184D01*
X60806547Y75653754D01*
X60932046Y75779253D01*
X61079616Y75877856D01*
X61243588Y75945776D01*
X61392888Y75975473D01*
X61417658Y75980400D01*
X61595142Y75980400D01*
X61619912Y75975473D01*
G37*
G36*
X70027400Y74178400D02*
G01*
X68225400Y74178400D01*
X68225400Y75980400D01*
X70027400Y75980400D01*
X70027400Y74178400D01*
G37*
G36*
X66699912Y75975473D02*
G01*
X66849212Y75945776D01*
X67013184Y75877856D01*
X67160754Y75779253D01*
X67286253Y75653754D01*
X67384856Y75506184D01*
X67452776Y75342212D01*
X67487400Y75168141D01*
X67487400Y74990659D01*
X67452776Y74816588D01*
X67384856Y74652616D01*
X67286253Y74505046D01*
X67160754Y74379547D01*
X67013184Y74280944D01*
X66849212Y74213024D01*
X66699912Y74183327D01*
X66675142Y74178400D01*
X66497658Y74178400D01*
X66472888Y74183327D01*
X66323588Y74213024D01*
X66159616Y74280944D01*
X66012046Y74379547D01*
X65886547Y74505046D01*
X65787944Y74652616D01*
X65720024Y74816588D01*
X65685400Y74990659D01*
X65685400Y75168141D01*
X65720024Y75342212D01*
X65787944Y75506184D01*
X65886547Y75653754D01*
X66012046Y75779253D01*
X66159616Y75877856D01*
X66323588Y75945776D01*
X66472888Y75975473D01*
X66497658Y75980400D01*
X66675142Y75980400D01*
X66699912Y75975473D01*
G37*
G36*
X24193000Y74228400D02*
G01*
X22391000Y74228400D01*
X22391000Y76030400D01*
X24193000Y76030400D01*
X24193000Y74228400D01*
G37*
G36*
X41185512Y76025473D02*
G01*
X41334812Y75995776D01*
X41498784Y75927856D01*
X41646354Y75829253D01*
X41771853Y75703754D01*
X41870456Y75556184D01*
X41938376Y75392212D01*
X41973000Y75218141D01*
X41973000Y75040659D01*
X41938376Y74866588D01*
X41870456Y74702616D01*
X41771853Y74555046D01*
X41646354Y74429547D01*
X41498784Y74330944D01*
X41334812Y74263024D01*
X41185512Y74233327D01*
X41160742Y74228400D01*
X40983258Y74228400D01*
X40958488Y74233327D01*
X40809188Y74263024D01*
X40645216Y74330944D01*
X40497646Y74429547D01*
X40372147Y74555046D01*
X40273544Y74702616D01*
X40205624Y74866588D01*
X40171000Y75040659D01*
X40171000Y75218141D01*
X40205624Y75392212D01*
X40273544Y75556184D01*
X40372147Y75703754D01*
X40497646Y75829253D01*
X40645216Y75927856D01*
X40809188Y75995776D01*
X40958488Y76025473D01*
X40983258Y76030400D01*
X41160742Y76030400D01*
X41185512Y76025473D01*
G37*
G36*
X38645512Y76025473D02*
G01*
X38794812Y75995776D01*
X38958784Y75927856D01*
X39106354Y75829253D01*
X39231853Y75703754D01*
X39330456Y75556184D01*
X39398376Y75392212D01*
X39433000Y75218141D01*
X39433000Y75040659D01*
X39398376Y74866588D01*
X39330456Y74702616D01*
X39231853Y74555046D01*
X39106354Y74429547D01*
X38958784Y74330944D01*
X38794812Y74263024D01*
X38645512Y74233327D01*
X38620742Y74228400D01*
X38443258Y74228400D01*
X38418488Y74233327D01*
X38269188Y74263024D01*
X38105216Y74330944D01*
X37957646Y74429547D01*
X37832147Y74555046D01*
X37733544Y74702616D01*
X37665624Y74866588D01*
X37631000Y75040659D01*
X37631000Y75218141D01*
X37665624Y75392212D01*
X37733544Y75556184D01*
X37832147Y75703754D01*
X37957646Y75829253D01*
X38105216Y75927856D01*
X38269188Y75995776D01*
X38418488Y76025473D01*
X38443258Y76030400D01*
X38620742Y76030400D01*
X38645512Y76025473D01*
G37*
G36*
X36105512Y76025473D02*
G01*
X36254812Y75995776D01*
X36418784Y75927856D01*
X36566354Y75829253D01*
X36691853Y75703754D01*
X36790456Y75556184D01*
X36858376Y75392212D01*
X36893000Y75218141D01*
X36893000Y75040659D01*
X36858376Y74866588D01*
X36790456Y74702616D01*
X36691853Y74555046D01*
X36566354Y74429547D01*
X36418784Y74330944D01*
X36254812Y74263024D01*
X36105512Y74233327D01*
X36080742Y74228400D01*
X35903258Y74228400D01*
X35878488Y74233327D01*
X35729188Y74263024D01*
X35565216Y74330944D01*
X35417646Y74429547D01*
X35292147Y74555046D01*
X35193544Y74702616D01*
X35125624Y74866588D01*
X35091000Y75040659D01*
X35091000Y75218141D01*
X35125624Y75392212D01*
X35193544Y75556184D01*
X35292147Y75703754D01*
X35417646Y75829253D01*
X35565216Y75927856D01*
X35729188Y75995776D01*
X35878488Y76025473D01*
X35903258Y76030400D01*
X36080742Y76030400D01*
X36105512Y76025473D01*
G37*
G36*
X33565512Y76025473D02*
G01*
X33714812Y75995776D01*
X33878784Y75927856D01*
X34026354Y75829253D01*
X34151853Y75703754D01*
X34250456Y75556184D01*
X34318376Y75392212D01*
X34353000Y75218141D01*
X34353000Y75040659D01*
X34318376Y74866588D01*
X34250456Y74702616D01*
X34151853Y74555046D01*
X34026354Y74429547D01*
X33878784Y74330944D01*
X33714812Y74263024D01*
X33565512Y74233327D01*
X33540742Y74228400D01*
X33363258Y74228400D01*
X33338488Y74233327D01*
X33189188Y74263024D01*
X33025216Y74330944D01*
X32877646Y74429547D01*
X32752147Y74555046D01*
X32653544Y74702616D01*
X32585624Y74866588D01*
X32551000Y75040659D01*
X32551000Y75218141D01*
X32585624Y75392212D01*
X32653544Y75556184D01*
X32752147Y75703754D01*
X32877646Y75829253D01*
X33025216Y75927856D01*
X33189188Y75995776D01*
X33338488Y76025473D01*
X33363258Y76030400D01*
X33540742Y76030400D01*
X33565512Y76025473D01*
G37*
G36*
X31025512Y76025473D02*
G01*
X31174812Y75995776D01*
X31338784Y75927856D01*
X31486354Y75829253D01*
X31611853Y75703754D01*
X31710456Y75556184D01*
X31778376Y75392212D01*
X31813000Y75218141D01*
X31813000Y75040659D01*
X31778376Y74866588D01*
X31710456Y74702616D01*
X31611853Y74555046D01*
X31486354Y74429547D01*
X31338784Y74330944D01*
X31174812Y74263024D01*
X31025512Y74233327D01*
X31000742Y74228400D01*
X30823258Y74228400D01*
X30798488Y74233327D01*
X30649188Y74263024D01*
X30485216Y74330944D01*
X30337646Y74429547D01*
X30212147Y74555046D01*
X30113544Y74702616D01*
X30045624Y74866588D01*
X30011000Y75040659D01*
X30011000Y75218141D01*
X30045624Y75392212D01*
X30113544Y75556184D01*
X30212147Y75703754D01*
X30337646Y75829253D01*
X30485216Y75927856D01*
X30649188Y75995776D01*
X30798488Y76025473D01*
X30823258Y76030400D01*
X31000742Y76030400D01*
X31025512Y76025473D01*
G37*
G36*
X28485512Y76025473D02*
G01*
X28634812Y75995776D01*
X28798784Y75927856D01*
X28946354Y75829253D01*
X29071853Y75703754D01*
X29170456Y75556184D01*
X29238376Y75392212D01*
X29273000Y75218141D01*
X29273000Y75040659D01*
X29238376Y74866588D01*
X29170456Y74702616D01*
X29071853Y74555046D01*
X28946354Y74429547D01*
X28798784Y74330944D01*
X28634812Y74263024D01*
X28485512Y74233327D01*
X28460742Y74228400D01*
X28283258Y74228400D01*
X28258488Y74233327D01*
X28109188Y74263024D01*
X27945216Y74330944D01*
X27797646Y74429547D01*
X27672147Y74555046D01*
X27573544Y74702616D01*
X27505624Y74866588D01*
X27471000Y75040659D01*
X27471000Y75218141D01*
X27505624Y75392212D01*
X27573544Y75556184D01*
X27672147Y75703754D01*
X27797646Y75829253D01*
X27945216Y75927856D01*
X28109188Y75995776D01*
X28258488Y76025473D01*
X28283258Y76030400D01*
X28460742Y76030400D01*
X28485512Y76025473D01*
G37*
G36*
X25945512Y76025473D02*
G01*
X26094812Y75995776D01*
X26258784Y75927856D01*
X26406354Y75829253D01*
X26531853Y75703754D01*
X26630456Y75556184D01*
X26698376Y75392212D01*
X26733000Y75218141D01*
X26733000Y75040659D01*
X26698376Y74866588D01*
X26630456Y74702616D01*
X26531853Y74555046D01*
X26406354Y74429547D01*
X26258784Y74330944D01*
X26094812Y74263024D01*
X25945512Y74233327D01*
X25920742Y74228400D01*
X25743258Y74228400D01*
X25718488Y74233327D01*
X25569188Y74263024D01*
X25405216Y74330944D01*
X25257646Y74429547D01*
X25132147Y74555046D01*
X25033544Y74702616D01*
X24965624Y74866588D01*
X24931000Y75040659D01*
X24931000Y75218141D01*
X24965624Y75392212D01*
X25033544Y75556184D01*
X25132147Y75703754D01*
X25257646Y75829253D01*
X25405216Y75927856D01*
X25569188Y75995776D01*
X25718488Y76025473D01*
X25743258Y76030400D01*
X25920742Y76030400D01*
X25945512Y76025473D01*
G37*
M02*
