%TF.GenerationSoftware,KiCad,Pcbnew,5.1.4-3.fc30*%
%TF.CreationDate,2019-10-13T14:32:02+02:00*%
%TF.ProjectId,avr_dev_board_atmega16,6176725f-6465-4765-9f62-6f6172645f61,1_0*%
%TF.SameCoordinates,PX2652348PY7832370*%
%TF.FileFunction,Copper,L1,Top*%
%TF.FilePolarity,Positive*%
%FSLAX46Y46*%
G04 Gerber Fmt 4.6, Leading zero omitted, Abs format (unit mm)*
G04 Created by KiCad (PCBNEW 5.1.4-3.fc30) date 2019-10-13 14:32:02*
%MOMM*%
%LPD*%
G04 APERTURE LIST*
%TA.AperFunction,ComponentPad*%
%ADD10C,1.700000*%
%TD*%
%TA.AperFunction,ComponentPad*%
%ADD11C,1.600000*%
%TD*%
%TA.AperFunction,ComponentPad*%
%ADD12O,1.727200X1.727200*%
%TD*%
%TA.AperFunction,ComponentPad*%
%ADD13R,1.727200X1.727200*%
%TD*%
%TA.AperFunction,ComponentPad*%
%ADD14O,1.700000X1.700000*%
%TD*%
%TA.AperFunction,ComponentPad*%
%ADD15R,1.700000X1.700000*%
%TD*%
%TA.AperFunction,ComponentPad*%
%ADD16C,2.000000*%
%TD*%
%TA.AperFunction,ComponentPad*%
%ADD17R,1.600000X1.600000*%
%TD*%
%TA.AperFunction,ComponentPad*%
%ADD18O,2.200000X2.200000*%
%TD*%
%TA.AperFunction,ComponentPad*%
%ADD19R,2.200000X2.200000*%
%TD*%
%TA.AperFunction,ComponentPad*%
%ADD20O,3.200000X3.200000*%
%TD*%
%TA.AperFunction,ComponentPad*%
%ADD21R,3.200000X3.200000*%
%TD*%
%TA.AperFunction,ComponentPad*%
%ADD22C,1.800000*%
%TD*%
%TA.AperFunction,ComponentPad*%
%ADD23R,1.800000X1.800000*%
%TD*%
%TA.AperFunction,ComponentPad*%
%ADD24O,1.600000X1.600000*%
%TD*%
%TA.AperFunction,Conductor*%
%ADD25C,0.400000*%
%TD*%
%TA.AperFunction,Conductor*%
%ADD26C,1.000000*%
%TD*%
%TA.AperFunction,Conductor*%
%ADD27C,0.600000*%
%TD*%
%TA.AperFunction,Conductor*%
%ADD28C,0.500000*%
%TD*%
G04 APERTURE END LIST*
D10*
%TO.P,Y1,2*%
%TO.N,Net-(C8-Pad1)*%
X78433400Y39870200D03*
%TO.P,Y1,1*%
%TO.N,Net-(C7-Pad1)*%
X78433400Y34870200D03*
%TD*%
D11*
%TO.P,C8,2*%
%TO.N,GND*%
X80933400Y44940200D03*
%TO.P,C8,1*%
%TO.N,Net-(C8-Pad1)*%
X75933400Y44940200D03*
%TD*%
%TO.P,C7,2*%
%TO.N,GND*%
X80933400Y29700200D03*
%TO.P,C7,1*%
%TO.N,Net-(C7-Pad1)*%
X75933400Y29700200D03*
%TD*%
D12*
%TO.P,J1,10*%
%TO.N,GND*%
X15011600Y47040800D03*
%TO.P,J1,9*%
%TO.N,/MISO*%
X12471600Y47040800D03*
%TO.P,J1,8*%
%TO.N,GND*%
X15011600Y49580800D03*
%TO.P,J1,7*%
%TO.N,/SCK*%
X12471600Y49580800D03*
%TO.P,J1,6*%
%TO.N,GND*%
X15011600Y52120800D03*
%TO.P,J1,5*%
%TO.N,/RESET*%
X12471600Y52120800D03*
%TO.P,J1,4*%
%TO.N,GND*%
X15011600Y54660800D03*
%TO.P,J1,3*%
%TO.N,Net-(J1-Pad3)*%
X12471600Y54660800D03*
%TO.P,J1,2*%
%TO.N,+5V*%
X15011600Y57200800D03*
D13*
%TO.P,J1,1*%
%TO.N,/MOSI*%
X12471600Y57200800D03*
%TD*%
D14*
%TO.P,J6,2*%
%TO.N,GND*%
X79286400Y3959800D03*
D15*
%TO.P,J6,1*%
%TO.N,+5V*%
X76746400Y3959800D03*
%TD*%
D14*
%TO.P,J2,2*%
%TO.N,GND*%
X89612400Y35229800D03*
D15*
%TO.P,J2,1*%
%TO.N,+5V*%
X89612400Y37769800D03*
%TD*%
D14*
%TO.P,J7,8*%
%TO.N,/PD7*%
X69026300Y3959800D03*
%TO.P,J7,7*%
%TO.N,/PD6*%
X66486300Y3959800D03*
%TO.P,J7,6*%
%TO.N,/PD5*%
X63946300Y3959800D03*
%TO.P,J7,5*%
%TO.N,/PD4*%
X61406300Y3959800D03*
%TO.P,J7,4*%
%TO.N,/PD3*%
X58866300Y3959800D03*
%TO.P,J7,3*%
%TO.N,/PD2*%
X56326300Y3959800D03*
%TO.P,J7,2*%
%TO.N,/PD1*%
X53786300Y3959800D03*
D15*
%TO.P,J7,1*%
%TO.N,/PD0*%
X51246300Y3959800D03*
%TD*%
D14*
%TO.P,J4,8*%
%TO.N,/PC7*%
X51346400Y75079400D03*
%TO.P,J4,7*%
%TO.N,/PC6*%
X53886400Y75079400D03*
%TO.P,J4,6*%
%TO.N,/PC5*%
X56426400Y75079400D03*
%TO.P,J4,5*%
%TO.N,/PC4*%
X58966400Y75079400D03*
%TO.P,J4,4*%
%TO.N,/PC3*%
X61506400Y75079400D03*
%TO.P,J4,3*%
%TO.N,/PC2*%
X64046400Y75079400D03*
%TO.P,J4,2*%
%TO.N,/PC1*%
X66586400Y75079400D03*
D15*
%TO.P,J4,1*%
%TO.N,/PC0*%
X69126400Y75079400D03*
%TD*%
D14*
%TO.P,J3,8*%
%TO.N,/PA7*%
X41072000Y75129400D03*
%TO.P,J3,7*%
%TO.N,/PA6*%
X38532000Y75129400D03*
%TO.P,J3,6*%
%TO.N,/PA5*%
X35992000Y75129400D03*
%TO.P,J3,5*%
%TO.N,/PA4*%
X33452000Y75129400D03*
%TO.P,J3,4*%
%TO.N,/PA3*%
X30912000Y75129400D03*
%TO.P,J3,3*%
%TO.N,/PA2*%
X28372000Y75129400D03*
%TO.P,J3,2*%
%TO.N,/PA1*%
X25832000Y75129400D03*
D15*
%TO.P,J3,1*%
%TO.N,/PA0*%
X23292000Y75129400D03*
%TD*%
D14*
%TO.P,J5,5*%
%TO.N,/PB4*%
X33452000Y4009800D03*
%TO.P,J5,4*%
%TO.N,/PB3*%
X30912000Y4009800D03*
%TO.P,J5,3*%
%TO.N,/PB2*%
X28372000Y4009800D03*
%TO.P,J5,2*%
%TO.N,/PB1*%
X25832000Y4009800D03*
D15*
%TO.P,J5,1*%
%TO.N,/PB0*%
X23292000Y4009800D03*
%TD*%
D16*
%TO.P,SW1,1*%
%TO.N,GND*%
X10113600Y5005800D03*
%TO.P,SW1,2*%
%TO.N,/RESET*%
X5613600Y5005800D03*
%TO.P,SW1,1*%
%TO.N,GND*%
X10113600Y11505800D03*
%TO.P,SW1,2*%
%TO.N,/RESET*%
X5613600Y11505800D03*
%TD*%
D11*
%TO.P,C1,2*%
%TO.N,GND*%
X13168200Y19354800D03*
D17*
%TO.P,C1,1*%
%TO.N,/RESET*%
X10668200Y19354800D03*
%TD*%
D11*
%TO.P,C2,2*%
%TO.N,GND*%
X43612000Y53597800D03*
%TO.P,C2,1*%
%TO.N,Net-(C2-Pad1)*%
X43612000Y48597800D03*
%TD*%
%TO.P,C3,2*%
%TO.N,GND*%
X46152000Y21098000D03*
%TO.P,C3,1*%
%TO.N,+5V*%
X46152000Y26098000D03*
%TD*%
%TO.P,C4,2*%
%TO.N,+5V*%
X48692000Y48597800D03*
%TO.P,C4,1*%
%TO.N,GND*%
X48692000Y53597800D03*
%TD*%
%TO.P,C5,2*%
%TO.N,GND*%
X81383400Y21383800D03*
D17*
%TO.P,C5,1*%
%TO.N,+5V*%
X78883400Y21383800D03*
%TD*%
D11*
%TO.P,C6,2*%
%TO.N,GND*%
X82790400Y14045800D03*
%TO.P,C6,1*%
%TO.N,+5V*%
X77790400Y14045800D03*
%TD*%
D18*
%TO.P,D1,2*%
%TO.N,/RESET*%
X5613600Y19354800D03*
D19*
%TO.P,D1,1*%
%TO.N,+5V*%
X5613600Y29514800D03*
%TD*%
D20*
%TO.P,D2,2*%
%TO.N,GND*%
X91211400Y66522600D03*
D21*
%TO.P,D2,1*%
%TO.N,+5V*%
X91211400Y51282600D03*
%TD*%
D22*
%TO.P,D3,2*%
%TO.N,Net-(D3-Pad2)*%
X90062400Y6680800D03*
D23*
%TO.P,D3,1*%
%TO.N,GND*%
X90062400Y4140800D03*
%TD*%
D24*
%TO.P,R1,2*%
%TO.N,/RESET*%
X10490400Y26098500D03*
D11*
%TO.P,R1,1*%
%TO.N,+5V*%
X13030400Y26098500D03*
%TD*%
D24*
%TO.P,R2,2*%
%TO.N,Net-(D3-Pad2)*%
X92202400Y24383800D03*
D11*
%TO.P,R2,1*%
%TO.N,+5V*%
X89662400Y24383800D03*
%TD*%
D24*
%TO.P,U1,40*%
%TO.N,/PA0*%
X23292000Y44940200D03*
%TO.P,U1,20*%
%TO.N,/PD6*%
X71552000Y29700200D03*
%TO.P,U1,39*%
%TO.N,/PA1*%
X25832000Y44940200D03*
%TO.P,U1,19*%
%TO.N,/PD5*%
X69012000Y29700200D03*
%TO.P,U1,38*%
%TO.N,/PA2*%
X28372000Y44940200D03*
%TO.P,U1,18*%
%TO.N,/PD4*%
X66472000Y29700200D03*
%TO.P,U1,37*%
%TO.N,/PA3*%
X30912000Y44940200D03*
%TO.P,U1,17*%
%TO.N,/PD3*%
X63932000Y29700200D03*
%TO.P,U1,36*%
%TO.N,/PA4*%
X33452000Y44940200D03*
%TO.P,U1,16*%
%TO.N,/PD2*%
X61392000Y29700200D03*
%TO.P,U1,35*%
%TO.N,/PA5*%
X35992000Y44940200D03*
%TO.P,U1,15*%
%TO.N,/PD1*%
X58852000Y29700200D03*
%TO.P,U1,34*%
%TO.N,/PA6*%
X38532000Y44940200D03*
%TO.P,U1,14*%
%TO.N,/PD0*%
X56312000Y29700200D03*
%TO.P,U1,33*%
%TO.N,/PA7*%
X41072000Y44940200D03*
%TO.P,U1,13*%
%TO.N,Net-(C7-Pad1)*%
X53772000Y29700200D03*
%TO.P,U1,32*%
%TO.N,Net-(C2-Pad1)*%
X43612000Y44940200D03*
%TO.P,U1,12*%
%TO.N,Net-(C8-Pad1)*%
X51232000Y29700200D03*
%TO.P,U1,31*%
%TO.N,GND*%
X46152000Y44940200D03*
%TO.P,U1,11*%
X48692000Y29700200D03*
%TO.P,U1,30*%
%TO.N,+5V*%
X48692000Y44940200D03*
%TO.P,U1,10*%
X46152000Y29700200D03*
%TO.P,U1,29*%
%TO.N,/PC7*%
X51232000Y44940200D03*
%TO.P,U1,9*%
%TO.N,/RESET*%
X43612000Y29700200D03*
%TO.P,U1,28*%
%TO.N,/PC6*%
X53772000Y44940200D03*
%TO.P,U1,8*%
%TO.N,/SCK*%
X41072000Y29700200D03*
%TO.P,U1,27*%
%TO.N,/PC5*%
X56312000Y44940200D03*
%TO.P,U1,7*%
%TO.N,/MISO*%
X38532000Y29700200D03*
%TO.P,U1,26*%
%TO.N,/PC4*%
X58852000Y44940200D03*
%TO.P,U1,6*%
%TO.N,/MOSI*%
X35992000Y29700200D03*
%TO.P,U1,25*%
%TO.N,/PC3*%
X61392000Y44940200D03*
%TO.P,U1,5*%
%TO.N,/PB4*%
X33452000Y29700200D03*
%TO.P,U1,24*%
%TO.N,/PC2*%
X63932000Y44940200D03*
%TO.P,U1,4*%
%TO.N,/PB3*%
X30912000Y29700200D03*
%TO.P,U1,23*%
%TO.N,/PC1*%
X66472000Y44940200D03*
%TO.P,U1,3*%
%TO.N,/PB2*%
X28372000Y29700200D03*
%TO.P,U1,22*%
%TO.N,/PC0*%
X69012000Y44940200D03*
%TO.P,U1,2*%
%TO.N,/PB1*%
X25832000Y29700200D03*
%TO.P,U1,21*%
%TO.N,/PD7*%
X71552000Y44940200D03*
D17*
%TO.P,U1,1*%
%TO.N,/PB0*%
X23292000Y29700200D03*
%TD*%
D25*
%TO.N,/RESET*%
X13719000Y28499900D02*
X11690700Y26471600D01*
X11690700Y26471600D02*
X11690700Y26098500D01*
X42411700Y29700200D02*
X42411700Y29325000D01*
X42411700Y29325000D02*
X41586600Y28499900D01*
X41586600Y28499900D02*
X13719000Y28499900D01*
X13719000Y28499900D02*
X11195600Y31023300D01*
X11195600Y31023300D02*
X11195600Y50104600D01*
X11195600Y50104600D02*
X11947900Y50856900D01*
X11947900Y50856900D02*
X12471600Y50856900D01*
X12471600Y52120800D02*
X12471600Y50856900D01*
X10490400Y26098500D02*
X11690700Y26098500D01*
X43612000Y29700200D02*
X42411700Y29700200D01*
X10668200Y19354800D02*
X7113900Y19354800D01*
X5613600Y19354800D02*
X7113900Y19354800D01*
D26*
%TO.N,GND*%
X48692000Y43359600D02*
X48692000Y31200500D01*
X46152000Y44940200D02*
X47732600Y43359600D01*
X47732600Y43359600D02*
X48692000Y43359600D01*
X48692000Y43359600D02*
X79352800Y43359600D01*
X79352800Y43359600D02*
X80933400Y44940200D01*
X48692000Y29700200D02*
X48692000Y31200500D01*
X90062400Y4140800D02*
X88462100Y4140800D01*
X79286400Y3959800D02*
X88281100Y3959800D01*
X88281100Y3959800D02*
X88462100Y4140800D01*
X15011600Y54660800D02*
X16575500Y54660800D01*
X43612000Y53597800D02*
X17638500Y53597800D01*
X17638500Y53597800D02*
X16575500Y54660800D01*
D27*
%TO.N,+5V*%
X5613600Y29514800D02*
X5613600Y52820100D01*
X5613600Y52820100D02*
X11409900Y58616400D01*
X11409900Y58616400D02*
X13596000Y58616400D01*
X13596000Y58616400D02*
X15011600Y57200800D01*
X46152000Y26098000D02*
X13030900Y26098000D01*
X13030900Y26098000D02*
X13030400Y26098500D01*
X77583100Y21383800D02*
X72868900Y26098000D01*
X72868900Y26098000D02*
X46152000Y26098000D01*
X78883400Y21383800D02*
X77583100Y21383800D01*
X89662400Y24383800D02*
X81883400Y24383800D01*
X81883400Y24383800D02*
X78883400Y21383800D01*
D25*
%TO.N,/SCK*%
X12471600Y49580800D02*
X13735500Y49580800D01*
X41072000Y29700200D02*
X39871700Y29700200D01*
X39871700Y29700200D02*
X39871700Y30075300D01*
X39871700Y30075300D02*
X26254100Y43692900D01*
X26254100Y43692900D02*
X22806600Y43692900D01*
X22806600Y43692900D02*
X18188700Y48310800D01*
X18188700Y48310800D02*
X14481800Y48310800D01*
X14481800Y48310800D02*
X13735500Y49057100D01*
X13735500Y49057100D02*
X13735500Y49580800D01*
%TO.N,/MISO*%
X12471600Y47040800D02*
X13735500Y47040800D01*
X38532000Y29700200D02*
X37331700Y29700200D01*
X37331700Y29700200D02*
X37331700Y30075400D01*
X37331700Y30075400D02*
X36506600Y30900500D01*
X36506600Y30900500D02*
X29352100Y30900500D01*
X29352100Y30900500D02*
X13735500Y46517100D01*
X13735500Y46517100D02*
X13735500Y47040800D01*
D28*
%TO.N,Net-(C7-Pad1)*%
X74682200Y30951400D02*
X75933400Y29700200D01*
X55022300Y29700200D02*
X55022300Y30247200D01*
X55022300Y30247200D02*
X55726500Y30951400D01*
X55726500Y30951400D02*
X74682200Y30951400D01*
X74682200Y30951400D02*
X74682200Y31119000D01*
X74682200Y31119000D02*
X78433400Y34870200D01*
X53772000Y29700200D02*
X55022300Y29700200D01*
%TO.N,Net-(C8-Pad1)*%
X51232000Y29700200D02*
X52482300Y29700200D01*
X52482300Y29700200D02*
X52482300Y30247200D01*
X52482300Y30247200D02*
X62105300Y39870200D01*
X62105300Y39870200D02*
X78433400Y39870200D01*
%TD*%
M02*
