G04 #@! TF.GenerationSoftware,KiCad,Pcbnew,5.1.4-3.fc30*
G04 #@! TF.CreationDate,2019-09-18T18:45:05+02:00*
G04 #@! TF.ProjectId,power_supply_5V,706f7765-725f-4737-9570-706c795f3556,1.0*
G04 #@! TF.SameCoordinates,Original*
G04 #@! TF.FileFunction,Other,Fab,Top*
%FSLAX46Y46*%
G04 Gerber Fmt 4.6, Leading zero omitted, Abs format (unit mm)*
G04 Created by KiCad (PCBNEW 5.1.4-3.fc30) date 2019-09-18 18:45:05*
%MOMM*%
%LPD*%
G04 APERTURE LIST*
%ADD10C,0.100000*%
%ADD11C,0.150000*%
G04 APERTURE END LIST*
D10*
X73587600Y-99726000D02*
X73587600Y-86726000D01*
X83587600Y-99726000D02*
X73587600Y-99726000D01*
X83587600Y-86726000D02*
X83587600Y-99726000D01*
X79587600Y-86726000D02*
X83587600Y-86726000D01*
X78587600Y-87726000D02*
X79587600Y-86726000D01*
X77587600Y-86726000D02*
X78587600Y-87726000D01*
X73587600Y-86726000D02*
X77587600Y-86726000D01*
X148844000Y-86512400D02*
X148844000Y-90322400D01*
X148844000Y-90322400D02*
X146304000Y-90322400D01*
X146304000Y-90322400D02*
X146304000Y-85242400D01*
X146304000Y-85242400D02*
X147574000Y-85242400D01*
X147574000Y-85242400D02*
X148844000Y-86512400D01*
X77101700Y-81927700D02*
X77761700Y-81927700D01*
X84721700Y-81927700D02*
X84061700Y-81927700D01*
X77761700Y-83177700D02*
X84061700Y-83177700D01*
X77761700Y-80677700D02*
X77761700Y-83177700D01*
X84061700Y-80677700D02*
X77761700Y-80677700D01*
X84061700Y-83177700D02*
X84061700Y-80677700D01*
X93384500Y-84427390D02*
X93384500Y-82095010D01*
X93384500Y-83261200D02*
G75*
G03X93384500Y-83261200I-1500000J0D01*
G01*
X93385055Y-82095724D02*
G75*
G03X93384500Y-84427390I-1500555J-1165476D01*
G01*
X92828300Y-95850195D02*
X92328300Y-95850195D01*
X92578300Y-95600195D02*
X92578300Y-96100195D01*
X93990800Y-97733800D02*
G75*
G03X93990800Y-97733800I-2500000J0D01*
G01*
X100640200Y-99060000D02*
X100640200Y-94060000D01*
X98140200Y-99060000D02*
X100640200Y-99060000D01*
X98140200Y-94060000D02*
X98140200Y-99060000D01*
X100640200Y-94060000D02*
X98140200Y-94060000D01*
X136428800Y-96139000D02*
X136428800Y-91139000D01*
X133928800Y-96139000D02*
X136428800Y-96139000D01*
X133928800Y-91139000D02*
X133928800Y-96139000D01*
X136428800Y-91139000D02*
X133928800Y-91139000D01*
X128137100Y-91796995D02*
X127637100Y-91796995D01*
X127887100Y-91546995D02*
X127887100Y-92046995D01*
X129299600Y-93680600D02*
G75*
G03X129299600Y-93680600I-2500000J0D01*
G01*
X97144600Y-91078800D02*
X97144600Y-88378800D01*
X96944600Y-91078800D02*
X96944600Y-88378800D01*
X97044600Y-91078800D02*
X97044600Y-88378800D01*
X90144600Y-89728800D02*
X92624600Y-89728800D01*
X100304600Y-89728800D02*
X97824600Y-89728800D01*
X92624600Y-91078800D02*
X97824600Y-91078800D01*
X92624600Y-88378800D02*
X92624600Y-91078800D01*
X97824600Y-88378800D02*
X92624600Y-88378800D01*
X97824600Y-91078800D02*
X97824600Y-88378800D01*
X135408800Y-84909990D02*
X135408800Y-82577610D01*
X135408800Y-83743800D02*
G75*
G03X135408800Y-83743800I-1500000J0D01*
G01*
X135409355Y-82578324D02*
G75*
G03X135408800Y-84909990I-1500555J-1165476D01*
G01*
X121869200Y-83515200D02*
X121209200Y-83515200D01*
X114249200Y-83515200D02*
X114909200Y-83515200D01*
X121209200Y-82265200D02*
X114909200Y-82265200D01*
X121209200Y-84765200D02*
X121209200Y-82265200D01*
X114909200Y-84765200D02*
X121209200Y-84765200D01*
X114909200Y-82265200D02*
X114909200Y-84765200D01*
X113533800Y-90855400D02*
X113533800Y-92125400D01*
X109833800Y-90855400D02*
X109833800Y-92125400D01*
X106683800Y-92125400D02*
X116683800Y-92125400D01*
X116683800Y-90855400D02*
X106683800Y-90855400D01*
X116683800Y-95255400D02*
X116683800Y-90855400D01*
X106683800Y-95255400D02*
X116683800Y-95255400D01*
X106683800Y-90855400D02*
X106683800Y-95255400D01*
D11*
X72754266Y-101178380D02*
X72944742Y-101178380D01*
X73039980Y-101130761D01*
X73087600Y-101083142D01*
X73182838Y-100940285D01*
X73230457Y-100749809D01*
X73230457Y-100368857D01*
X73182838Y-100273619D01*
X73135219Y-100226000D01*
X73039980Y-100178380D01*
X72849504Y-100178380D01*
X72754266Y-100226000D01*
X72706647Y-100273619D01*
X72659028Y-100368857D01*
X72659028Y-100606952D01*
X72706647Y-100702190D01*
X72754266Y-100749809D01*
X72849504Y-100797428D01*
X73039980Y-100797428D01*
X73135219Y-100749809D01*
X73182838Y-100702190D01*
X73230457Y-100606952D01*
X73659028Y-100797428D02*
X74420933Y-100797428D01*
X75420933Y-101178380D02*
X74849504Y-101178380D01*
X75135219Y-101178380D02*
X75135219Y-100178380D01*
X75039980Y-100321238D01*
X74944742Y-100416476D01*
X74849504Y-100464095D01*
X76325695Y-100178380D02*
X75849504Y-100178380D01*
X75801885Y-100654571D01*
X75849504Y-100606952D01*
X75944742Y-100559333D01*
X76182838Y-100559333D01*
X76278076Y-100606952D01*
X76325695Y-100654571D01*
X76373314Y-100749809D01*
X76373314Y-100987904D01*
X76325695Y-101083142D01*
X76278076Y-101130761D01*
X76182838Y-101178380D01*
X75944742Y-101178380D01*
X75849504Y-101130761D01*
X75801885Y-101083142D01*
X76659028Y-100178380D02*
X76992361Y-101178380D01*
X77325695Y-100178380D01*
X78420933Y-101178380D02*
X78420933Y-100511714D01*
X78420933Y-100178380D02*
X78373314Y-100226000D01*
X78420933Y-100273619D01*
X78468552Y-100226000D01*
X78420933Y-100178380D01*
X78420933Y-100273619D01*
X78897123Y-100511714D02*
X78897123Y-101178380D01*
X78897123Y-100606952D02*
X78944742Y-100559333D01*
X79039980Y-100511714D01*
X79182838Y-100511714D01*
X79278076Y-100559333D01*
X79325695Y-100654571D01*
X79325695Y-101178380D01*
X79801885Y-100511714D02*
X79801885Y-101511714D01*
X79801885Y-100559333D02*
X79897123Y-100511714D01*
X80087600Y-100511714D01*
X80182838Y-100559333D01*
X80230457Y-100606952D01*
X80278076Y-100702190D01*
X80278076Y-100987904D01*
X80230457Y-101083142D01*
X80182838Y-101130761D01*
X80087600Y-101178380D01*
X79897123Y-101178380D01*
X79801885Y-101130761D01*
X81135219Y-100511714D02*
X81135219Y-101178380D01*
X80706647Y-100511714D02*
X80706647Y-101035523D01*
X80754266Y-101130761D01*
X80849504Y-101178380D01*
X80992361Y-101178380D01*
X81087600Y-101130761D01*
X81135219Y-101083142D01*
X81468552Y-100511714D02*
X81849504Y-100511714D01*
X81611409Y-100178380D02*
X81611409Y-101035523D01*
X81659028Y-101130761D01*
X81754266Y-101178380D01*
X81849504Y-101178380D01*
X82944742Y-101178380D02*
X82944742Y-100178380D01*
X83182838Y-100178380D01*
X83325695Y-100226000D01*
X83420933Y-100321238D01*
X83468552Y-100416476D01*
X83516171Y-100606952D01*
X83516171Y-100749809D01*
X83468552Y-100940285D01*
X83420933Y-101035523D01*
X83325695Y-101130761D01*
X83182838Y-101178380D01*
X82944742Y-101178380D01*
X84516171Y-101083142D02*
X84468552Y-101130761D01*
X84325695Y-101178380D01*
X84230457Y-101178380D01*
X84087600Y-101130761D01*
X83992361Y-101035523D01*
X83944742Y-100940285D01*
X83897123Y-100749809D01*
X83897123Y-100606952D01*
X83944742Y-100416476D01*
X83992361Y-100321238D01*
X84087600Y-100226000D01*
X84230457Y-100178380D01*
X84325695Y-100178380D01*
X84468552Y-100226000D01*
X84516171Y-100273619D01*
X78254266Y-92678380D02*
X78254266Y-93392666D01*
X78206647Y-93535523D01*
X78111409Y-93630761D01*
X77968552Y-93678380D01*
X77873314Y-93678380D01*
X79254266Y-93678380D02*
X78682838Y-93678380D01*
X78968552Y-93678380D02*
X78968552Y-92678380D01*
X78873314Y-92821238D01*
X78778076Y-92916476D01*
X78682838Y-92964095D01*
X141820428Y-94410019D02*
X141820428Y-93648114D01*
X142201380Y-94029066D02*
X141439476Y-94029066D01*
X141201380Y-92695733D02*
X141201380Y-93171923D01*
X141677571Y-93219542D01*
X141629952Y-93171923D01*
X141582333Y-93076685D01*
X141582333Y-92838590D01*
X141629952Y-92743352D01*
X141677571Y-92695733D01*
X141772809Y-92648114D01*
X142010904Y-92648114D01*
X142106142Y-92695733D01*
X142153761Y-92743352D01*
X142201380Y-92838590D01*
X142201380Y-93076685D01*
X142153761Y-93171923D01*
X142106142Y-93219542D01*
X141201380Y-92362400D02*
X142201380Y-92029066D01*
X141201380Y-91695733D01*
X142201380Y-90457638D02*
X142153761Y-90552876D01*
X142106142Y-90600495D01*
X142010904Y-90648114D01*
X141725190Y-90648114D01*
X141629952Y-90600495D01*
X141582333Y-90552876D01*
X141534714Y-90457638D01*
X141534714Y-90314780D01*
X141582333Y-90219542D01*
X141629952Y-90171923D01*
X141725190Y-90124304D01*
X142010904Y-90124304D01*
X142106142Y-90171923D01*
X142153761Y-90219542D01*
X142201380Y-90314780D01*
X142201380Y-90457638D01*
X141534714Y-89267161D02*
X142201380Y-89267161D01*
X141534714Y-89695733D02*
X142058523Y-89695733D01*
X142153761Y-89648114D01*
X142201380Y-89552876D01*
X142201380Y-89410019D01*
X142153761Y-89314780D01*
X142106142Y-89267161D01*
X141534714Y-88933828D02*
X141534714Y-88552876D01*
X141201380Y-88790971D02*
X142058523Y-88790971D01*
X142153761Y-88743352D01*
X142201380Y-88648114D01*
X142201380Y-88552876D01*
X141534714Y-88219542D02*
X142534714Y-88219542D01*
X141582333Y-88219542D02*
X141534714Y-88124304D01*
X141534714Y-87933828D01*
X141582333Y-87838590D01*
X141629952Y-87790971D01*
X141725190Y-87743352D01*
X142010904Y-87743352D01*
X142106142Y-87790971D01*
X142153761Y-87838590D01*
X142201380Y-87933828D01*
X142201380Y-88124304D01*
X142153761Y-88219542D01*
X141534714Y-86886209D02*
X142201380Y-86886209D01*
X141534714Y-87314780D02*
X142058523Y-87314780D01*
X142153761Y-87267161D01*
X142201380Y-87171923D01*
X142201380Y-87029066D01*
X142153761Y-86933828D01*
X142106142Y-86886209D01*
X141534714Y-86552876D02*
X141534714Y-86171923D01*
X141201380Y-86410019D02*
X142058523Y-86410019D01*
X142153761Y-86362400D01*
X142201380Y-86267161D01*
X142201380Y-86171923D01*
X80792652Y-80010080D02*
X80221223Y-80010080D01*
X80506938Y-80010080D02*
X80506938Y-79010080D01*
X80411700Y-79152938D01*
X80316461Y-79248176D01*
X80221223Y-79295795D01*
X81221223Y-80010080D02*
X81221223Y-79010080D01*
X81316461Y-79629128D02*
X81602176Y-80010080D01*
X81602176Y-79343414D02*
X81221223Y-79724366D01*
X80745033Y-82380080D02*
X80411700Y-81903890D01*
X80173604Y-82380080D02*
X80173604Y-81380080D01*
X80554557Y-81380080D01*
X80649795Y-81427700D01*
X80697414Y-81475319D01*
X80745033Y-81570557D01*
X80745033Y-81713414D01*
X80697414Y-81808652D01*
X80649795Y-81856271D01*
X80554557Y-81903890D01*
X80173604Y-81903890D01*
X81697414Y-82380080D02*
X81125985Y-82380080D01*
X81411700Y-82380080D02*
X81411700Y-81380080D01*
X81316461Y-81522938D01*
X81221223Y-81618176D01*
X81125985Y-81665795D01*
X91241642Y-80753580D02*
X90908309Y-80277390D01*
X90670214Y-80753580D02*
X90670214Y-79753580D01*
X91051166Y-79753580D01*
X91146404Y-79801200D01*
X91194023Y-79848819D01*
X91241642Y-79944057D01*
X91241642Y-80086914D01*
X91194023Y-80182152D01*
X91146404Y-80229771D01*
X91051166Y-80277390D01*
X90670214Y-80277390D01*
X91670214Y-80229771D02*
X92003547Y-80229771D01*
X92146404Y-80753580D02*
X91670214Y-80753580D01*
X91670214Y-79753580D01*
X92146404Y-79753580D01*
X92574976Y-80753580D02*
X92574976Y-79753580D01*
X92813071Y-79753580D01*
X92955928Y-79801200D01*
X93051166Y-79896438D01*
X93098785Y-79991676D01*
X93146404Y-80182152D01*
X93146404Y-80325009D01*
X93098785Y-80515485D01*
X93051166Y-80610723D01*
X92955928Y-80705961D01*
X92813071Y-80753580D01*
X92574976Y-80753580D01*
X88193180Y-100281419D02*
X88193180Y-100852847D01*
X88193180Y-100567133D02*
X87193180Y-100567133D01*
X87336038Y-100662371D01*
X87431276Y-100757609D01*
X87478895Y-100852847D01*
X87193180Y-99662371D02*
X87193180Y-99567133D01*
X87240800Y-99471895D01*
X87288419Y-99424276D01*
X87383657Y-99376657D01*
X87574133Y-99329038D01*
X87812228Y-99329038D01*
X88002704Y-99376657D01*
X88097942Y-99424276D01*
X88145561Y-99471895D01*
X88193180Y-99567133D01*
X88193180Y-99662371D01*
X88145561Y-99757609D01*
X88097942Y-99805228D01*
X88002704Y-99852847D01*
X87812228Y-99900466D01*
X87574133Y-99900466D01*
X87383657Y-99852847D01*
X87288419Y-99805228D01*
X87240800Y-99757609D01*
X87193180Y-99662371D01*
X87526514Y-98471895D02*
X88193180Y-98471895D01*
X87526514Y-98900466D02*
X88050323Y-98900466D01*
X88145561Y-98852847D01*
X88193180Y-98757609D01*
X88193180Y-98614752D01*
X88145561Y-98519514D01*
X88097942Y-98471895D01*
X87145561Y-97281419D02*
X88431276Y-98138561D01*
X88193180Y-96424276D02*
X88193180Y-96995704D01*
X88193180Y-96709990D02*
X87193180Y-96709990D01*
X87336038Y-96805228D01*
X87431276Y-96900466D01*
X87478895Y-96995704D01*
X87193180Y-95567133D02*
X87193180Y-95757609D01*
X87240800Y-95852847D01*
X87288419Y-95900466D01*
X87431276Y-95995704D01*
X87621752Y-96043323D01*
X88002704Y-96043323D01*
X88097942Y-95995704D01*
X88145561Y-95948085D01*
X88193180Y-95852847D01*
X88193180Y-95662371D01*
X88145561Y-95567133D01*
X88097942Y-95519514D01*
X88002704Y-95471895D01*
X87764609Y-95471895D01*
X87669371Y-95519514D01*
X87621752Y-95567133D01*
X87574133Y-95662371D01*
X87574133Y-95852847D01*
X87621752Y-95948085D01*
X87669371Y-95995704D01*
X87764609Y-96043323D01*
X87193180Y-95186180D02*
X88193180Y-94852847D01*
X87193180Y-94519514D01*
X91847942Y-97900466D02*
X91895561Y-97948085D01*
X91943180Y-98090942D01*
X91943180Y-98186180D01*
X91895561Y-98329038D01*
X91800323Y-98424276D01*
X91705085Y-98471895D01*
X91514609Y-98519514D01*
X91371752Y-98519514D01*
X91181276Y-98471895D01*
X91086038Y-98424276D01*
X90990800Y-98329038D01*
X90943180Y-98186180D01*
X90943180Y-98090942D01*
X90990800Y-97948085D01*
X91038419Y-97900466D01*
X91943180Y-96948085D02*
X91943180Y-97519514D01*
X91943180Y-97233800D02*
X90943180Y-97233800D01*
X91086038Y-97329038D01*
X91181276Y-97424276D01*
X91228895Y-97519514D01*
X97342580Y-97679047D02*
X97342580Y-98250476D01*
X97342580Y-97964761D02*
X96342580Y-97964761D01*
X96485438Y-98060000D01*
X96580676Y-98155238D01*
X96628295Y-98250476D01*
X96342580Y-97060000D02*
X96342580Y-96964761D01*
X96390200Y-96869523D01*
X96437819Y-96821904D01*
X96533057Y-96774285D01*
X96723533Y-96726666D01*
X96961628Y-96726666D01*
X97152104Y-96774285D01*
X97247342Y-96821904D01*
X97294961Y-96869523D01*
X97342580Y-96964761D01*
X97342580Y-97060000D01*
X97294961Y-97155238D01*
X97247342Y-97202857D01*
X97152104Y-97250476D01*
X96961628Y-97298095D01*
X96723533Y-97298095D01*
X96533057Y-97250476D01*
X96437819Y-97202857D01*
X96390200Y-97155238D01*
X96342580Y-97060000D01*
X96342580Y-96107619D02*
X96342580Y-96012380D01*
X96390200Y-95917142D01*
X96437819Y-95869523D01*
X96533057Y-95821904D01*
X96723533Y-95774285D01*
X96961628Y-95774285D01*
X97152104Y-95821904D01*
X97247342Y-95869523D01*
X97294961Y-95917142D01*
X97342580Y-96012380D01*
X97342580Y-96107619D01*
X97294961Y-96202857D01*
X97247342Y-96250476D01*
X97152104Y-96298095D01*
X96961628Y-96345714D01*
X96723533Y-96345714D01*
X96533057Y-96298095D01*
X96437819Y-96250476D01*
X96390200Y-96202857D01*
X96342580Y-96107619D01*
X96675914Y-95345714D02*
X97342580Y-95345714D01*
X96771152Y-95345714D02*
X96723533Y-95298095D01*
X96675914Y-95202857D01*
X96675914Y-95060000D01*
X96723533Y-94964761D01*
X96818771Y-94917142D01*
X97342580Y-94917142D01*
X99747342Y-96726666D02*
X99794961Y-96774285D01*
X99842580Y-96917142D01*
X99842580Y-97012380D01*
X99794961Y-97155238D01*
X99699723Y-97250476D01*
X99604485Y-97298095D01*
X99414009Y-97345714D01*
X99271152Y-97345714D01*
X99080676Y-97298095D01*
X98985438Y-97250476D01*
X98890200Y-97155238D01*
X98842580Y-97012380D01*
X98842580Y-96917142D01*
X98890200Y-96774285D01*
X98937819Y-96726666D01*
X98937819Y-96345714D02*
X98890200Y-96298095D01*
X98842580Y-96202857D01*
X98842580Y-95964761D01*
X98890200Y-95869523D01*
X98937819Y-95821904D01*
X99033057Y-95774285D01*
X99128295Y-95774285D01*
X99271152Y-95821904D01*
X99842580Y-96393333D01*
X99842580Y-95774285D01*
X133131180Y-94758047D02*
X133131180Y-95329476D01*
X133131180Y-95043761D02*
X132131180Y-95043761D01*
X132274038Y-95139000D01*
X132369276Y-95234238D01*
X132416895Y-95329476D01*
X132131180Y-94139000D02*
X132131180Y-94043761D01*
X132178800Y-93948523D01*
X132226419Y-93900904D01*
X132321657Y-93853285D01*
X132512133Y-93805666D01*
X132750228Y-93805666D01*
X132940704Y-93853285D01*
X133035942Y-93900904D01*
X133083561Y-93948523D01*
X133131180Y-94043761D01*
X133131180Y-94139000D01*
X133083561Y-94234238D01*
X133035942Y-94281857D01*
X132940704Y-94329476D01*
X132750228Y-94377095D01*
X132512133Y-94377095D01*
X132321657Y-94329476D01*
X132226419Y-94281857D01*
X132178800Y-94234238D01*
X132131180Y-94139000D01*
X132131180Y-93186619D02*
X132131180Y-93091380D01*
X132178800Y-92996142D01*
X132226419Y-92948523D01*
X132321657Y-92900904D01*
X132512133Y-92853285D01*
X132750228Y-92853285D01*
X132940704Y-92900904D01*
X133035942Y-92948523D01*
X133083561Y-92996142D01*
X133131180Y-93091380D01*
X133131180Y-93186619D01*
X133083561Y-93281857D01*
X133035942Y-93329476D01*
X132940704Y-93377095D01*
X132750228Y-93424714D01*
X132512133Y-93424714D01*
X132321657Y-93377095D01*
X132226419Y-93329476D01*
X132178800Y-93281857D01*
X132131180Y-93186619D01*
X132464514Y-92424714D02*
X133131180Y-92424714D01*
X132559752Y-92424714D02*
X132512133Y-92377095D01*
X132464514Y-92281857D01*
X132464514Y-92139000D01*
X132512133Y-92043761D01*
X132607371Y-91996142D01*
X133131180Y-91996142D01*
X135535942Y-93805666D02*
X135583561Y-93853285D01*
X135631180Y-93996142D01*
X135631180Y-94091380D01*
X135583561Y-94234238D01*
X135488323Y-94329476D01*
X135393085Y-94377095D01*
X135202609Y-94424714D01*
X135059752Y-94424714D01*
X134869276Y-94377095D01*
X134774038Y-94329476D01*
X134678800Y-94234238D01*
X134631180Y-94091380D01*
X134631180Y-93996142D01*
X134678800Y-93853285D01*
X134726419Y-93805666D01*
X134631180Y-93472333D02*
X134631180Y-92853285D01*
X135012133Y-93186619D01*
X135012133Y-93043761D01*
X135059752Y-92948523D01*
X135107371Y-92900904D01*
X135202609Y-92853285D01*
X135440704Y-92853285D01*
X135535942Y-92900904D01*
X135583561Y-92948523D01*
X135631180Y-93043761D01*
X135631180Y-93329476D01*
X135583561Y-93424714D01*
X135535942Y-93472333D01*
X123501980Y-96228219D02*
X123501980Y-96799647D01*
X123501980Y-96513933D02*
X122501980Y-96513933D01*
X122644838Y-96609171D01*
X122740076Y-96704409D01*
X122787695Y-96799647D01*
X122501980Y-95609171D02*
X122501980Y-95513933D01*
X122549600Y-95418695D01*
X122597219Y-95371076D01*
X122692457Y-95323457D01*
X122882933Y-95275838D01*
X123121028Y-95275838D01*
X123311504Y-95323457D01*
X123406742Y-95371076D01*
X123454361Y-95418695D01*
X123501980Y-95513933D01*
X123501980Y-95609171D01*
X123454361Y-95704409D01*
X123406742Y-95752028D01*
X123311504Y-95799647D01*
X123121028Y-95847266D01*
X122882933Y-95847266D01*
X122692457Y-95799647D01*
X122597219Y-95752028D01*
X122549600Y-95704409D01*
X122501980Y-95609171D01*
X122835314Y-94418695D02*
X123501980Y-94418695D01*
X122835314Y-94847266D02*
X123359123Y-94847266D01*
X123454361Y-94799647D01*
X123501980Y-94704409D01*
X123501980Y-94561552D01*
X123454361Y-94466314D01*
X123406742Y-94418695D01*
X122454361Y-93228219D02*
X123740076Y-94085361D01*
X123501980Y-92371076D02*
X123501980Y-92942504D01*
X123501980Y-92656790D02*
X122501980Y-92656790D01*
X122644838Y-92752028D01*
X122740076Y-92847266D01*
X122787695Y-92942504D01*
X122501980Y-91513933D02*
X122501980Y-91704409D01*
X122549600Y-91799647D01*
X122597219Y-91847266D01*
X122740076Y-91942504D01*
X122930552Y-91990123D01*
X123311504Y-91990123D01*
X123406742Y-91942504D01*
X123454361Y-91894885D01*
X123501980Y-91799647D01*
X123501980Y-91609171D01*
X123454361Y-91513933D01*
X123406742Y-91466314D01*
X123311504Y-91418695D01*
X123073409Y-91418695D01*
X122978171Y-91466314D01*
X122930552Y-91513933D01*
X122882933Y-91609171D01*
X122882933Y-91799647D01*
X122930552Y-91894885D01*
X122978171Y-91942504D01*
X123073409Y-91990123D01*
X122501980Y-91132980D02*
X123501980Y-90799647D01*
X122501980Y-90466314D01*
X127156742Y-93847266D02*
X127204361Y-93894885D01*
X127251980Y-94037742D01*
X127251980Y-94132980D01*
X127204361Y-94275838D01*
X127109123Y-94371076D01*
X127013885Y-94418695D01*
X126823409Y-94466314D01*
X126680552Y-94466314D01*
X126490076Y-94418695D01*
X126394838Y-94371076D01*
X126299600Y-94275838D01*
X126251980Y-94132980D01*
X126251980Y-94037742D01*
X126299600Y-93894885D01*
X126347219Y-93847266D01*
X126585314Y-92990123D02*
X127251980Y-92990123D01*
X126204361Y-93228219D02*
X126918647Y-93466314D01*
X126918647Y-92847266D01*
X93081742Y-87711180D02*
X92510314Y-87711180D01*
X92796028Y-87711180D02*
X92796028Y-86711180D01*
X92700790Y-86854038D01*
X92605552Y-86949276D01*
X92510314Y-86996895D01*
X93510314Y-87711180D02*
X93510314Y-86711180D01*
X94081742Y-87711180D01*
X94081742Y-86711180D01*
X94986504Y-87044514D02*
X94986504Y-87711180D01*
X94748409Y-86663561D02*
X94510314Y-87377847D01*
X95129361Y-87377847D01*
X95700790Y-86711180D02*
X95796028Y-86711180D01*
X95891266Y-86758800D01*
X95938885Y-86806419D01*
X95986504Y-86901657D01*
X96034123Y-87092133D01*
X96034123Y-87330228D01*
X95986504Y-87520704D01*
X95938885Y-87615942D01*
X95891266Y-87663561D01*
X95796028Y-87711180D01*
X95700790Y-87711180D01*
X95605552Y-87663561D01*
X95557933Y-87615942D01*
X95510314Y-87520704D01*
X95462695Y-87330228D01*
X95462695Y-87092133D01*
X95510314Y-86901657D01*
X95557933Y-86806419D01*
X95605552Y-86758800D01*
X95700790Y-86711180D01*
X96653171Y-86711180D02*
X96748409Y-86711180D01*
X96843647Y-86758800D01*
X96891266Y-86806419D01*
X96938885Y-86901657D01*
X96986504Y-87092133D01*
X96986504Y-87330228D01*
X96938885Y-87520704D01*
X96891266Y-87615942D01*
X96843647Y-87663561D01*
X96748409Y-87711180D01*
X96653171Y-87711180D01*
X96557933Y-87663561D01*
X96510314Y-87615942D01*
X96462695Y-87520704D01*
X96415076Y-87330228D01*
X96415076Y-87092133D01*
X96462695Y-86901657D01*
X96510314Y-86806419D01*
X96557933Y-86758800D01*
X96653171Y-86711180D01*
X97938885Y-87711180D02*
X97367457Y-87711180D01*
X97653171Y-87711180D02*
X97653171Y-86711180D01*
X97557933Y-86854038D01*
X97462695Y-86949276D01*
X97367457Y-86996895D01*
X100042695Y-92281180D02*
X100042695Y-91281180D01*
X100614123Y-92281180D02*
X100185552Y-91709752D01*
X100614123Y-91281180D02*
X100042695Y-91852609D01*
X100042695Y-92281180D02*
X100042695Y-91281180D01*
X100614123Y-92281180D02*
X100185552Y-91709752D01*
X100614123Y-91281180D02*
X100042695Y-91852609D01*
X94096504Y-90181180D02*
X94096504Y-89181180D01*
X94334600Y-89181180D01*
X94477457Y-89228800D01*
X94572695Y-89324038D01*
X94620314Y-89419276D01*
X94667933Y-89609752D01*
X94667933Y-89752609D01*
X94620314Y-89943085D01*
X94572695Y-90038323D01*
X94477457Y-90133561D01*
X94334600Y-90181180D01*
X94096504Y-90181180D01*
X95048885Y-89276419D02*
X95096504Y-89228800D01*
X95191742Y-89181180D01*
X95429838Y-89181180D01*
X95525076Y-89228800D01*
X95572695Y-89276419D01*
X95620314Y-89371657D01*
X95620314Y-89466895D01*
X95572695Y-89609752D01*
X95001266Y-90181180D01*
X95620314Y-90181180D01*
X132242133Y-80283800D02*
X132146895Y-80236180D01*
X132004038Y-80236180D01*
X131861180Y-80283800D01*
X131765942Y-80379038D01*
X131718323Y-80474276D01*
X131670704Y-80664752D01*
X131670704Y-80807609D01*
X131718323Y-80998085D01*
X131765942Y-81093323D01*
X131861180Y-81188561D01*
X132004038Y-81236180D01*
X132099276Y-81236180D01*
X132242133Y-81188561D01*
X132289752Y-81140942D01*
X132289752Y-80807609D01*
X132099276Y-80807609D01*
X133289752Y-81236180D02*
X132956419Y-80759990D01*
X132718323Y-81236180D02*
X132718323Y-80236180D01*
X133099276Y-80236180D01*
X133194514Y-80283800D01*
X133242133Y-80331419D01*
X133289752Y-80426657D01*
X133289752Y-80569514D01*
X133242133Y-80664752D01*
X133194514Y-80712371D01*
X133099276Y-80759990D01*
X132718323Y-80759990D01*
X133718323Y-80712371D02*
X134051657Y-80712371D01*
X134194514Y-81236180D02*
X133718323Y-81236180D01*
X133718323Y-80236180D01*
X134194514Y-80236180D01*
X134623085Y-80712371D02*
X134956419Y-80712371D01*
X135099276Y-81236180D02*
X134623085Y-81236180D01*
X134623085Y-80236180D01*
X135099276Y-80236180D01*
X135527847Y-81236180D02*
X135527847Y-80236180D01*
X136099276Y-81236180D01*
X136099276Y-80236180D01*
X116773485Y-85337580D02*
X117392533Y-85337580D01*
X117059200Y-85718533D01*
X117202057Y-85718533D01*
X117297295Y-85766152D01*
X117344914Y-85813771D01*
X117392533Y-85909009D01*
X117392533Y-86147104D01*
X117344914Y-86242342D01*
X117297295Y-86289961D01*
X117202057Y-86337580D01*
X116916342Y-86337580D01*
X116821104Y-86289961D01*
X116773485Y-86242342D01*
X117725866Y-85337580D02*
X118344914Y-85337580D01*
X118011580Y-85718533D01*
X118154438Y-85718533D01*
X118249676Y-85766152D01*
X118297295Y-85813771D01*
X118344914Y-85909009D01*
X118344914Y-86147104D01*
X118297295Y-86242342D01*
X118249676Y-86289961D01*
X118154438Y-86337580D01*
X117868723Y-86337580D01*
X117773485Y-86289961D01*
X117725866Y-86242342D01*
X118963961Y-85337580D02*
X119059200Y-85337580D01*
X119154438Y-85385200D01*
X119202057Y-85432819D01*
X119249676Y-85528057D01*
X119297295Y-85718533D01*
X119297295Y-85956628D01*
X119249676Y-86147104D01*
X119202057Y-86242342D01*
X119154438Y-86289961D01*
X119059200Y-86337580D01*
X118963961Y-86337580D01*
X118868723Y-86289961D01*
X118821104Y-86242342D01*
X118773485Y-86147104D01*
X118725866Y-85956628D01*
X118725866Y-85718533D01*
X118773485Y-85528057D01*
X118821104Y-85432819D01*
X118868723Y-85385200D01*
X118963961Y-85337580D01*
X117892533Y-83967580D02*
X117559200Y-83491390D01*
X117321104Y-83967580D02*
X117321104Y-82967580D01*
X117702057Y-82967580D01*
X117797295Y-83015200D01*
X117844914Y-83062819D01*
X117892533Y-83158057D01*
X117892533Y-83300914D01*
X117844914Y-83396152D01*
X117797295Y-83443771D01*
X117702057Y-83491390D01*
X117321104Y-83491390D01*
X118273485Y-83062819D02*
X118321104Y-83015200D01*
X118416342Y-82967580D01*
X118654438Y-82967580D01*
X118749676Y-83015200D01*
X118797295Y-83062819D01*
X118844914Y-83158057D01*
X118844914Y-83253295D01*
X118797295Y-83396152D01*
X118225866Y-83967580D01*
X118844914Y-83967580D01*
X110088561Y-96957780D02*
X109612371Y-96957780D01*
X109612371Y-95957780D01*
X110326657Y-95957780D02*
X110993323Y-95957780D01*
X110564752Y-96957780D01*
X111517133Y-96386352D02*
X111421895Y-96338733D01*
X111374276Y-96291114D01*
X111326657Y-96195876D01*
X111326657Y-96148257D01*
X111374276Y-96053019D01*
X111421895Y-96005400D01*
X111517133Y-95957780D01*
X111707609Y-95957780D01*
X111802847Y-96005400D01*
X111850466Y-96053019D01*
X111898085Y-96148257D01*
X111898085Y-96195876D01*
X111850466Y-96291114D01*
X111802847Y-96338733D01*
X111707609Y-96386352D01*
X111517133Y-96386352D01*
X111421895Y-96433971D01*
X111374276Y-96481590D01*
X111326657Y-96576828D01*
X111326657Y-96767304D01*
X111374276Y-96862542D01*
X111421895Y-96910161D01*
X111517133Y-96957780D01*
X111707609Y-96957780D01*
X111802847Y-96910161D01*
X111850466Y-96862542D01*
X111898085Y-96767304D01*
X111898085Y-96576828D01*
X111850466Y-96481590D01*
X111802847Y-96433971D01*
X111707609Y-96386352D01*
X112517133Y-95957780D02*
X112612371Y-95957780D01*
X112707609Y-96005400D01*
X112755228Y-96053019D01*
X112802847Y-96148257D01*
X112850466Y-96338733D01*
X112850466Y-96576828D01*
X112802847Y-96767304D01*
X112755228Y-96862542D01*
X112707609Y-96910161D01*
X112612371Y-96957780D01*
X112517133Y-96957780D01*
X112421895Y-96910161D01*
X112374276Y-96862542D01*
X112326657Y-96767304D01*
X112279038Y-96576828D01*
X112279038Y-96338733D01*
X112326657Y-96148257D01*
X112374276Y-96053019D01*
X112421895Y-96005400D01*
X112517133Y-95957780D01*
X113755228Y-95957780D02*
X113279038Y-95957780D01*
X113231419Y-96433971D01*
X113279038Y-96386352D01*
X113374276Y-96338733D01*
X113612371Y-96338733D01*
X113707609Y-96386352D01*
X113755228Y-96433971D01*
X113802847Y-96529209D01*
X113802847Y-96767304D01*
X113755228Y-96862542D01*
X113707609Y-96910161D01*
X113612371Y-96957780D01*
X113374276Y-96957780D01*
X113279038Y-96910161D01*
X113231419Y-96862542D01*
X110921895Y-89187780D02*
X110921895Y-89997304D01*
X110969514Y-90092542D01*
X111017133Y-90140161D01*
X111112371Y-90187780D01*
X111302847Y-90187780D01*
X111398085Y-90140161D01*
X111445704Y-90092542D01*
X111493323Y-89997304D01*
X111493323Y-89187780D01*
X112493323Y-90187780D02*
X111921895Y-90187780D01*
X112207609Y-90187780D02*
X112207609Y-89187780D01*
X112112371Y-89330638D01*
X112017133Y-89425876D01*
X111921895Y-89473495D01*
M02*
