M48
; DRILL file {KiCad 5.1.6-c6e7f7d~86~ubuntu18.04.1} date Mon May 25 18:50:22 2020
; FORMAT={-:-/ absolute / inch / decimal}
; #@! TF.CreationDate,2020-05-25T18:50:22+02:00
; #@! TF.GenerationSoftware,Kicad,Pcbnew,5.1.6-c6e7f7d~86~ubuntu18.04.1
FMAT,2
INCH
T1C0.0315
T2C0.0354
T3C0.0394
T4C0.0433
T5C0.0600
T6C0.0630
%
G90
G05
T1
X3.602Y-3.7986
X4.798Y-3.288
X3.913Y-3.7031
X5.322Y-3.5881
X5.322Y-3.785
X4.498Y-3.288
X4.9921Y-3.639
X4.9921Y-3.7374
X3.0355Y-3.2255
X3.3355Y-3.2255
X3.913Y-3.9
X3.602Y-3.897
T2
X5.222Y-3.297
X5.322Y-3.297
X3.5675Y-3.278
X3.6675Y-3.278
T3
X5.81Y-3.406
X5.81Y-3.506
T4
X4.297Y-3.701
X4.397Y-3.701
X4.497Y-3.701
X3.549Y-3.5326
X3.949Y-3.5326
T5
X5.91Y-3.406
X5.91Y-3.506
T6
X3.1531Y-3.8081
T3
G00X2.9759Y-3.6998
M15
G01X2.9759Y-3.7589
M16
G05
G00X3.1137Y-3.4538
M15
G01X3.1924Y-3.4538
M16
G05
G00X3.1275Y-3.69
M15
G01X3.1786Y-3.69
M16
G05
G00X3.3302Y-3.6998
M15
G01X3.3302Y-3.7589
M16
G05
T0
M30
