%TF.GenerationSoftware,KiCad,Pcbnew,5.1.6-c6e7f7d~86~ubuntu18.04.1*%
%TF.CreationDate,2020-05-25T18:50:18+02:00*%
%TF.ProjectId,power_supply_5V,706f7765-725f-4737-9570-706c795f3556,1.2*%
%TF.SameCoordinates,Original*%
%TF.FileFunction,Soldermask,Bot*%
%TF.FilePolarity,Negative*%
%FSLAX46Y46*%
G04 Gerber Fmt 4.6, Leading zero omitted, Abs format (unit mm)*
G04 Created by KiCad (PCBNEW 5.1.6-c6e7f7d~86~ubuntu18.04.1) date 2020-05-25 18:50:18*
%MOMM*%
%LPD*%
G01*
G04 APERTURE LIST*
%ADD10C,0.150000*%
G04 APERTURE END LIST*
D10*
G36*
X99638428Y-98241703D02*
G01*
X99793300Y-98305853D01*
X99932681Y-98398985D01*
X100051215Y-98517519D01*
X100144347Y-98656900D01*
X100208497Y-98811772D01*
X100241200Y-98976184D01*
X100241200Y-99143816D01*
X100208497Y-99308228D01*
X100144347Y-99463100D01*
X100051215Y-99602481D01*
X99932681Y-99721015D01*
X99793300Y-99814147D01*
X99638428Y-99878297D01*
X99474016Y-99911000D01*
X99306384Y-99911000D01*
X99141972Y-99878297D01*
X98987100Y-99814147D01*
X98847719Y-99721015D01*
X98729185Y-99602481D01*
X98636053Y-99463100D01*
X98571903Y-99308228D01*
X98539200Y-99143816D01*
X98539200Y-98976184D01*
X98571903Y-98811772D01*
X98636053Y-98656900D01*
X98729185Y-98517519D01*
X98847719Y-98398985D01*
X98987100Y-98305853D01*
X99141972Y-98241703D01*
X99306384Y-98209000D01*
X99474016Y-98209000D01*
X99638428Y-98241703D01*
G37*
G36*
X91739028Y-98165503D02*
G01*
X91893900Y-98229653D01*
X92033281Y-98322785D01*
X92151815Y-98441319D01*
X92244947Y-98580700D01*
X92309097Y-98735572D01*
X92341800Y-98899984D01*
X92341800Y-99067616D01*
X92309097Y-99232028D01*
X92244947Y-99386900D01*
X92151815Y-99526281D01*
X92033281Y-99644815D01*
X91893900Y-99737947D01*
X91739028Y-99802097D01*
X91574616Y-99834800D01*
X91406984Y-99834800D01*
X91242572Y-99802097D01*
X91087700Y-99737947D01*
X90948319Y-99644815D01*
X90829785Y-99526281D01*
X90736653Y-99386900D01*
X90672503Y-99232028D01*
X90639800Y-99067616D01*
X90639800Y-98899984D01*
X90672503Y-98735572D01*
X90736653Y-98580700D01*
X90829785Y-98441319D01*
X90948319Y-98322785D01*
X91087700Y-98229653D01*
X91242572Y-98165503D01*
X91406984Y-98132800D01*
X91574616Y-98132800D01*
X91739028Y-98165503D01*
G37*
G36*
X80335828Y-95907703D02*
G01*
X80490700Y-95971853D01*
X80630081Y-96064985D01*
X80748615Y-96183519D01*
X80841747Y-96322900D01*
X80905897Y-96477772D01*
X80938600Y-96642184D01*
X80938600Y-96809816D01*
X80905897Y-96974228D01*
X80841747Y-97129100D01*
X80748615Y-97268481D01*
X80630081Y-97387015D01*
X80490700Y-97480147D01*
X80335828Y-97544297D01*
X80171416Y-97577000D01*
X80003784Y-97577000D01*
X79839372Y-97544297D01*
X79684500Y-97480147D01*
X79545119Y-97387015D01*
X79426585Y-97268481D01*
X79333453Y-97129100D01*
X79269303Y-96974228D01*
X79236600Y-96809816D01*
X79236600Y-96642184D01*
X79269303Y-96477772D01*
X79333453Y-96322900D01*
X79426585Y-96183519D01*
X79545119Y-96064985D01*
X79684500Y-95971853D01*
X79839372Y-95907703D01*
X80003784Y-95875000D01*
X80171416Y-95875000D01*
X80335828Y-95907703D01*
G37*
G36*
X92341800Y-97334800D02*
G01*
X90639800Y-97334800D01*
X90639800Y-95632800D01*
X92341800Y-95632800D01*
X92341800Y-97334800D01*
G37*
G36*
X135427028Y-95320703D02*
G01*
X135581900Y-95384853D01*
X135721281Y-95477985D01*
X135839815Y-95596519D01*
X135932947Y-95735900D01*
X135997097Y-95890772D01*
X136029800Y-96055184D01*
X136029800Y-96222816D01*
X135997097Y-96387228D01*
X135932947Y-96542100D01*
X135839815Y-96681481D01*
X135721281Y-96800015D01*
X135581900Y-96893147D01*
X135427028Y-96957297D01*
X135262616Y-96990000D01*
X135094984Y-96990000D01*
X134930572Y-96957297D01*
X134775700Y-96893147D01*
X134636319Y-96800015D01*
X134517785Y-96681481D01*
X134424653Y-96542100D01*
X134360503Y-96387228D01*
X134327800Y-96222816D01*
X134327800Y-96055184D01*
X134360503Y-95890772D01*
X134424653Y-95735900D01*
X134517785Y-95596519D01*
X134636319Y-95477985D01*
X134775700Y-95384853D01*
X134930572Y-95320703D01*
X135094984Y-95288000D01*
X135262616Y-95288000D01*
X135427028Y-95320703D01*
G37*
G36*
X84793631Y-92940207D02*
G01*
X84922287Y-92979235D01*
X84991748Y-93000306D01*
X85040381Y-93026301D01*
X85174329Y-93097897D01*
X85334365Y-93229235D01*
X85465703Y-93389271D01*
X85470202Y-93397689D01*
X85563294Y-93571851D01*
X85563294Y-93571852D01*
X85563295Y-93571854D01*
X85623393Y-93769968D01*
X85638600Y-93924370D01*
X85638600Y-95527630D01*
X85623393Y-95682032D01*
X85622569Y-95684747D01*
X85563294Y-95880149D01*
X85548566Y-95907703D01*
X85465703Y-96062729D01*
X85334365Y-96222765D01*
X85174329Y-96354103D01*
X85112356Y-96387228D01*
X84991749Y-96451694D01*
X84991746Y-96451695D01*
X84793632Y-96511793D01*
X84587600Y-96532085D01*
X84381569Y-96511793D01*
X84183455Y-96451695D01*
X84183452Y-96451694D01*
X84062845Y-96387228D01*
X84000872Y-96354103D01*
X83840836Y-96222765D01*
X83709498Y-96062729D01*
X83660924Y-95971853D01*
X83611905Y-95880146D01*
X83551807Y-95682033D01*
X83536600Y-95527631D01*
X83536600Y-93924370D01*
X83551807Y-93769971D01*
X83551807Y-93769969D01*
X83611905Y-93571855D01*
X83611906Y-93571852D01*
X83647121Y-93505970D01*
X83709497Y-93389271D01*
X83840835Y-93229235D01*
X84000871Y-93097897D01*
X84086625Y-93052061D01*
X84183451Y-93000306D01*
X84252912Y-92979235D01*
X84381568Y-92940207D01*
X84587600Y-92919915D01*
X84793631Y-92940207D01*
G37*
G36*
X75793631Y-92940207D02*
G01*
X75922287Y-92979235D01*
X75991748Y-93000306D01*
X76040381Y-93026301D01*
X76174329Y-93097897D01*
X76334365Y-93229235D01*
X76465703Y-93389271D01*
X76470202Y-93397689D01*
X76563294Y-93571851D01*
X76563294Y-93571852D01*
X76563295Y-93571854D01*
X76623393Y-93769968D01*
X76638600Y-93924370D01*
X76638600Y-95527630D01*
X76623393Y-95682032D01*
X76622569Y-95684747D01*
X76563294Y-95880149D01*
X76548566Y-95907703D01*
X76465703Y-96062729D01*
X76334365Y-96222765D01*
X76174329Y-96354103D01*
X76112356Y-96387228D01*
X75991749Y-96451694D01*
X75991746Y-96451695D01*
X75793632Y-96511793D01*
X75587600Y-96532085D01*
X75381569Y-96511793D01*
X75183455Y-96451695D01*
X75183452Y-96451694D01*
X75062845Y-96387228D01*
X75000872Y-96354103D01*
X74840836Y-96222765D01*
X74709498Y-96062729D01*
X74660924Y-95971853D01*
X74611905Y-95880146D01*
X74551807Y-95682033D01*
X74536600Y-95527631D01*
X74536600Y-93924370D01*
X74551807Y-93769971D01*
X74551807Y-93769969D01*
X74611905Y-93571855D01*
X74611906Y-93571852D01*
X74647121Y-93505970D01*
X74709497Y-93389271D01*
X74840835Y-93229235D01*
X75000871Y-93097897D01*
X75086625Y-93052061D01*
X75183451Y-93000306D01*
X75252912Y-92979235D01*
X75381568Y-92940207D01*
X75587600Y-92919915D01*
X75793631Y-92940207D01*
G37*
G36*
X127047828Y-94112303D02*
G01*
X127202700Y-94176453D01*
X127342081Y-94269585D01*
X127460615Y-94388119D01*
X127553747Y-94527500D01*
X127617897Y-94682372D01*
X127650600Y-94846784D01*
X127650600Y-95014416D01*
X127617897Y-95178828D01*
X127553747Y-95333700D01*
X127460615Y-95473081D01*
X127342081Y-95591615D01*
X127202700Y-95684747D01*
X127047828Y-95748897D01*
X126883416Y-95781600D01*
X126715784Y-95781600D01*
X126551372Y-95748897D01*
X126396500Y-95684747D01*
X126257119Y-95591615D01*
X126138585Y-95473081D01*
X126045453Y-95333700D01*
X125981303Y-95178828D01*
X125948600Y-95014416D01*
X125948600Y-94846784D01*
X125981303Y-94682372D01*
X126045453Y-94527500D01*
X126138585Y-94388119D01*
X126257119Y-94269585D01*
X126396500Y-94176453D01*
X126551372Y-94112303D01*
X126715784Y-94079600D01*
X126883416Y-94079600D01*
X127047828Y-94112303D01*
G37*
G36*
X111880519Y-92968920D02*
G01*
X112069680Y-93026301D01*
X112069683Y-93026302D01*
X112162133Y-93075718D01*
X112244012Y-93119483D01*
X112396815Y-93244885D01*
X112522217Y-93397688D01*
X112615399Y-93572019D01*
X112672780Y-93761180D01*
X112687300Y-93908606D01*
X112687300Y-94102193D01*
X112672780Y-94249619D01*
X112630767Y-94388119D01*
X112615398Y-94438783D01*
X112602400Y-94463100D01*
X112522217Y-94613112D01*
X112396815Y-94765915D01*
X112244012Y-94891317D01*
X112069681Y-94984499D01*
X111880520Y-95041880D01*
X111683800Y-95061255D01*
X111487081Y-95041880D01*
X111297920Y-94984499D01*
X111123588Y-94891317D01*
X110970785Y-94765915D01*
X110845383Y-94613112D01*
X110752201Y-94438781D01*
X110694820Y-94249620D01*
X110680300Y-94102194D01*
X110680300Y-93908607D01*
X110694820Y-93761181D01*
X110752201Y-93572020D01*
X110752202Y-93572017D01*
X110844690Y-93398985D01*
X110845383Y-93397688D01*
X110970785Y-93244885D01*
X111123588Y-93119483D01*
X111297919Y-93026301D01*
X111487080Y-92968920D01*
X111683800Y-92949545D01*
X111880519Y-92968920D01*
G37*
G36*
X114420519Y-92968920D02*
G01*
X114609680Y-93026301D01*
X114609683Y-93026302D01*
X114702133Y-93075718D01*
X114784012Y-93119483D01*
X114936815Y-93244885D01*
X115062217Y-93397688D01*
X115155399Y-93572019D01*
X115212780Y-93761180D01*
X115227300Y-93908606D01*
X115227300Y-94102193D01*
X115212780Y-94249619D01*
X115170767Y-94388119D01*
X115155398Y-94438783D01*
X115142400Y-94463100D01*
X115062217Y-94613112D01*
X114936815Y-94765915D01*
X114784012Y-94891317D01*
X114609681Y-94984499D01*
X114420520Y-95041880D01*
X114223800Y-95061255D01*
X114027081Y-95041880D01*
X113837920Y-94984499D01*
X113663588Y-94891317D01*
X113510785Y-94765915D01*
X113385383Y-94613112D01*
X113292201Y-94438781D01*
X113234820Y-94249620D01*
X113220300Y-94102194D01*
X113220300Y-93908607D01*
X113234820Y-93761181D01*
X113292201Y-93572020D01*
X113292202Y-93572017D01*
X113384690Y-93398985D01*
X113385383Y-93397688D01*
X113510785Y-93244885D01*
X113663588Y-93119483D01*
X113837919Y-93026301D01*
X114027080Y-92968920D01*
X114223800Y-92949545D01*
X114420519Y-92968920D01*
G37*
G36*
X110147300Y-95056400D02*
G01*
X108140300Y-95056400D01*
X108140300Y-92954400D01*
X110147300Y-92954400D01*
X110147300Y-95056400D01*
G37*
G36*
X99638428Y-93241703D02*
G01*
X99793300Y-93305853D01*
X99932681Y-93398985D01*
X100051215Y-93517519D01*
X100144347Y-93656900D01*
X100208497Y-93811772D01*
X100241200Y-93976184D01*
X100241200Y-94143816D01*
X100208497Y-94308228D01*
X100144347Y-94463100D01*
X100051215Y-94602481D01*
X99932681Y-94721015D01*
X99793300Y-94814147D01*
X99638428Y-94878297D01*
X99474016Y-94911000D01*
X99306384Y-94911000D01*
X99141972Y-94878297D01*
X98987100Y-94814147D01*
X98847719Y-94721015D01*
X98729185Y-94602481D01*
X98636053Y-94463100D01*
X98571903Y-94308228D01*
X98539200Y-94143816D01*
X98539200Y-93976184D01*
X98571903Y-93811772D01*
X98636053Y-93656900D01*
X98729185Y-93517519D01*
X98847719Y-93398985D01*
X98987100Y-93305853D01*
X99141972Y-93241703D01*
X99306384Y-93209000D01*
X99474016Y-93209000D01*
X99638428Y-93241703D01*
G37*
G36*
X80840697Y-92680069D02*
G01*
X80943632Y-92690207D01*
X81141746Y-92750305D01*
X81141749Y-92750306D01*
X81238575Y-92802061D01*
X81324329Y-92847897D01*
X81484365Y-92979235D01*
X81615703Y-93139271D01*
X81652974Y-93209000D01*
X81713294Y-93321851D01*
X81713295Y-93321854D01*
X81773393Y-93519968D01*
X81793685Y-93726000D01*
X81773393Y-93932032D01*
X81721774Y-94102194D01*
X81713294Y-94130149D01*
X81688544Y-94176452D01*
X81615703Y-94312729D01*
X81484365Y-94472765D01*
X81324329Y-94604103D01*
X81238575Y-94649939D01*
X81141749Y-94701694D01*
X81141746Y-94701695D01*
X80943632Y-94761793D01*
X80840697Y-94771931D01*
X80789231Y-94777000D01*
X79385969Y-94777000D01*
X79334503Y-94771931D01*
X79231568Y-94761793D01*
X79033454Y-94701695D01*
X79033451Y-94701694D01*
X78936625Y-94649939D01*
X78850871Y-94604103D01*
X78690835Y-94472765D01*
X78559497Y-94312729D01*
X78486656Y-94176452D01*
X78461906Y-94130149D01*
X78453426Y-94102194D01*
X78401807Y-93932032D01*
X78381515Y-93726000D01*
X78401807Y-93519968D01*
X78461905Y-93321854D01*
X78461906Y-93321851D01*
X78522226Y-93209000D01*
X78559497Y-93139271D01*
X78690835Y-92979235D01*
X78850871Y-92847897D01*
X78936625Y-92802061D01*
X79033451Y-92750306D01*
X79033454Y-92750305D01*
X79231568Y-92690207D01*
X79334503Y-92680069D01*
X79385969Y-92675000D01*
X80789231Y-92675000D01*
X80840697Y-92680069D01*
G37*
G36*
X127650600Y-93281600D02*
G01*
X125948600Y-93281600D01*
X125948600Y-91579600D01*
X127650600Y-91579600D01*
X127650600Y-93281600D01*
G37*
G36*
X135427028Y-90320703D02*
G01*
X135581900Y-90384853D01*
X135721281Y-90477985D01*
X135839815Y-90596519D01*
X135932947Y-90735900D01*
X135997097Y-90890772D01*
X136029800Y-91055184D01*
X136029800Y-91222816D01*
X135997097Y-91387228D01*
X135932947Y-91542100D01*
X135839815Y-91681481D01*
X135721281Y-91800015D01*
X135581900Y-91893147D01*
X135427028Y-91957297D01*
X135262616Y-91990000D01*
X135094984Y-91990000D01*
X134930572Y-91957297D01*
X134775700Y-91893147D01*
X134636319Y-91800015D01*
X134517785Y-91681481D01*
X134424653Y-91542100D01*
X134360503Y-91387228D01*
X134327800Y-91222816D01*
X134327800Y-91055184D01*
X134360503Y-90890772D01*
X134424653Y-90735900D01*
X134517785Y-90596519D01*
X134636319Y-90477985D01*
X134775700Y-90384853D01*
X134930572Y-90320703D01*
X135094984Y-90288000D01*
X135262616Y-90288000D01*
X135427028Y-90320703D01*
G37*
G36*
X101455600Y-90879800D02*
G01*
X99153600Y-90879800D01*
X99153600Y-88577800D01*
X101455600Y-88577800D01*
X101455600Y-90879800D01*
G37*
G36*
X90369149Y-88599916D02*
G01*
X90480334Y-88622032D01*
X90689803Y-88708797D01*
X90878320Y-88834760D01*
X91038640Y-88995080D01*
X91164603Y-89183597D01*
X91251368Y-89393066D01*
X91295600Y-89615436D01*
X91295600Y-89842164D01*
X91251368Y-90064534D01*
X91164603Y-90274003D01*
X91038640Y-90462520D01*
X90878320Y-90622840D01*
X90689803Y-90748803D01*
X90480334Y-90835568D01*
X90369149Y-90857684D01*
X90257965Y-90879800D01*
X90031235Y-90879800D01*
X89920051Y-90857684D01*
X89808866Y-90835568D01*
X89599397Y-90748803D01*
X89410880Y-90622840D01*
X89250560Y-90462520D01*
X89124597Y-90274003D01*
X89037832Y-90064534D01*
X88993600Y-89842164D01*
X88993600Y-89615436D01*
X89037832Y-89393066D01*
X89124597Y-89183597D01*
X89250560Y-88995080D01*
X89410880Y-88834760D01*
X89599397Y-88708797D01*
X89808866Y-88622032D01*
X89920051Y-88599916D01*
X90031235Y-88577800D01*
X90257965Y-88577800D01*
X90369149Y-88599916D01*
G37*
G36*
X147687512Y-88156327D02*
G01*
X147836812Y-88186024D01*
X148000784Y-88253944D01*
X148148354Y-88352547D01*
X148273853Y-88478046D01*
X148372456Y-88625616D01*
X148440376Y-88789588D01*
X148475000Y-88963659D01*
X148475000Y-89141141D01*
X148440376Y-89315212D01*
X148372456Y-89479184D01*
X148273853Y-89626754D01*
X148148354Y-89752253D01*
X148000784Y-89850856D01*
X147836812Y-89918776D01*
X147687512Y-89948473D01*
X147662742Y-89953400D01*
X147485258Y-89953400D01*
X147460488Y-89948473D01*
X147311188Y-89918776D01*
X147147216Y-89850856D01*
X146999646Y-89752253D01*
X146874147Y-89626754D01*
X146775544Y-89479184D01*
X146707624Y-89315212D01*
X146673000Y-89141141D01*
X146673000Y-88963659D01*
X146707624Y-88789588D01*
X146775544Y-88625616D01*
X146874147Y-88478046D01*
X146999646Y-88352547D01*
X147147216Y-88253944D01*
X147311188Y-88186024D01*
X147460488Y-88156327D01*
X147485258Y-88151400D01*
X147662742Y-88151400D01*
X147687512Y-88156327D01*
G37*
G36*
X150351142Y-88270642D02*
G01*
X150499101Y-88331929D01*
X150632255Y-88420899D01*
X150745501Y-88534145D01*
X150834471Y-88667299D01*
X150895758Y-88815258D01*
X150927000Y-88972325D01*
X150927000Y-89132475D01*
X150895758Y-89289542D01*
X150834471Y-89437501D01*
X150745501Y-89570655D01*
X150632255Y-89683901D01*
X150499101Y-89772871D01*
X150351142Y-89834158D01*
X150194075Y-89865400D01*
X150033925Y-89865400D01*
X149876858Y-89834158D01*
X149728899Y-89772871D01*
X149595745Y-89683901D01*
X149482499Y-89570655D01*
X149393529Y-89437501D01*
X149332242Y-89289542D01*
X149301000Y-89132475D01*
X149301000Y-88972325D01*
X149332242Y-88815258D01*
X149393529Y-88667299D01*
X149482499Y-88534145D01*
X149595745Y-88420899D01*
X149728899Y-88331929D01*
X149876858Y-88270642D01*
X150033925Y-88239400D01*
X150194075Y-88239400D01*
X150351142Y-88270642D01*
G37*
G36*
X82138600Y-88777000D02*
G01*
X78036600Y-88777000D01*
X78036600Y-86675000D01*
X82138600Y-86675000D01*
X82138600Y-88777000D01*
G37*
G36*
X148475000Y-87413400D02*
G01*
X146673000Y-87413400D01*
X146673000Y-85611400D01*
X148475000Y-85611400D01*
X148475000Y-87413400D01*
G37*
G36*
X150351142Y-85730642D02*
G01*
X150499101Y-85791929D01*
X150632255Y-85880899D01*
X150745501Y-85994145D01*
X150834471Y-86127299D01*
X150895758Y-86275258D01*
X150927000Y-86432325D01*
X150927000Y-86592475D01*
X150895758Y-86749542D01*
X150834471Y-86897501D01*
X150745501Y-87030655D01*
X150632255Y-87143901D01*
X150499101Y-87232871D01*
X150351142Y-87294158D01*
X150194075Y-87325400D01*
X150033925Y-87325400D01*
X149876858Y-87294158D01*
X149728899Y-87232871D01*
X149595745Y-87143901D01*
X149482499Y-87030655D01*
X149393529Y-86897501D01*
X149332242Y-86749542D01*
X149301000Y-86592475D01*
X149301000Y-86432325D01*
X149332242Y-86275258D01*
X149393529Y-86127299D01*
X149482499Y-85994145D01*
X149595745Y-85880899D01*
X149728899Y-85791929D01*
X149876858Y-85730642D01*
X150033925Y-85699400D01*
X150194075Y-85699400D01*
X150351142Y-85730642D01*
G37*
G36*
X132916195Y-82829346D02*
G01*
X133089266Y-82901034D01*
X133089267Y-82901035D01*
X133245027Y-83005110D01*
X133377490Y-83137573D01*
X133397510Y-83167535D01*
X133481566Y-83293334D01*
X133553254Y-83466405D01*
X133589800Y-83650133D01*
X133589800Y-83837467D01*
X133553254Y-84021195D01*
X133481566Y-84194266D01*
X133481565Y-84194267D01*
X133377490Y-84350027D01*
X133245027Y-84482490D01*
X133166618Y-84534881D01*
X133089266Y-84586566D01*
X132916195Y-84658254D01*
X132732467Y-84694800D01*
X132545133Y-84694800D01*
X132361405Y-84658254D01*
X132188334Y-84586566D01*
X132110982Y-84534881D01*
X132032573Y-84482490D01*
X131900110Y-84350027D01*
X131796035Y-84194267D01*
X131796034Y-84194266D01*
X131724346Y-84021195D01*
X131687800Y-83837467D01*
X131687800Y-83650133D01*
X131724346Y-83466405D01*
X131796034Y-83293334D01*
X131880090Y-83167535D01*
X131900110Y-83137573D01*
X132032573Y-83005110D01*
X132188333Y-82901035D01*
X132188334Y-82901034D01*
X132361405Y-82829346D01*
X132545133Y-82792800D01*
X132732467Y-82792800D01*
X132916195Y-82829346D01*
G37*
G36*
X136129800Y-84694800D02*
G01*
X134227800Y-84694800D01*
X134227800Y-82792800D01*
X136129800Y-82792800D01*
X136129800Y-84694800D01*
G37*
G36*
X122117428Y-82696903D02*
G01*
X122272300Y-82761053D01*
X122411681Y-82854185D01*
X122530215Y-82972719D01*
X122623347Y-83112100D01*
X122687497Y-83266972D01*
X122720200Y-83431384D01*
X122720200Y-83599016D01*
X122687497Y-83763428D01*
X122623347Y-83918300D01*
X122530215Y-84057681D01*
X122411681Y-84176215D01*
X122272300Y-84269347D01*
X122117428Y-84333497D01*
X121953016Y-84366200D01*
X121785384Y-84366200D01*
X121620972Y-84333497D01*
X121466100Y-84269347D01*
X121326719Y-84176215D01*
X121208185Y-84057681D01*
X121115053Y-83918300D01*
X121050903Y-83763428D01*
X121018200Y-83599016D01*
X121018200Y-83431384D01*
X121050903Y-83266972D01*
X121115053Y-83112100D01*
X121208185Y-82972719D01*
X121326719Y-82854185D01*
X121466100Y-82761053D01*
X121620972Y-82696903D01*
X121785384Y-82664200D01*
X121953016Y-82664200D01*
X122117428Y-82696903D01*
G37*
G36*
X114497428Y-82696903D02*
G01*
X114652300Y-82761053D01*
X114791681Y-82854185D01*
X114910215Y-82972719D01*
X115003347Y-83112100D01*
X115067497Y-83266972D01*
X115100200Y-83431384D01*
X115100200Y-83599016D01*
X115067497Y-83763428D01*
X115003347Y-83918300D01*
X114910215Y-84057681D01*
X114791681Y-84176215D01*
X114652300Y-84269347D01*
X114497428Y-84333497D01*
X114333016Y-84366200D01*
X114165384Y-84366200D01*
X114000972Y-84333497D01*
X113846100Y-84269347D01*
X113706719Y-84176215D01*
X113588185Y-84057681D01*
X113495053Y-83918300D01*
X113430903Y-83763428D01*
X113398200Y-83599016D01*
X113398200Y-83431384D01*
X113430903Y-83266972D01*
X113495053Y-83112100D01*
X113588185Y-82972719D01*
X113706719Y-82854185D01*
X113846100Y-82761053D01*
X114000972Y-82696903D01*
X114165384Y-82664200D01*
X114333016Y-82664200D01*
X114497428Y-82696903D01*
G37*
G36*
X94105500Y-84212200D02*
G01*
X92203500Y-84212200D01*
X92203500Y-82310200D01*
X94105500Y-82310200D01*
X94105500Y-84212200D01*
G37*
G36*
X90891895Y-82346746D02*
G01*
X91064966Y-82418434D01*
X91064967Y-82418435D01*
X91220727Y-82522510D01*
X91353190Y-82654973D01*
X91381208Y-82696905D01*
X91457266Y-82810734D01*
X91528954Y-82983805D01*
X91565500Y-83167533D01*
X91565500Y-83354867D01*
X91528954Y-83538595D01*
X91457266Y-83711666D01*
X91457265Y-83711667D01*
X91353190Y-83867427D01*
X91220727Y-83999890D01*
X91188840Y-84021196D01*
X91064966Y-84103966D01*
X90891895Y-84175654D01*
X90708167Y-84212200D01*
X90520833Y-84212200D01*
X90337105Y-84175654D01*
X90164034Y-84103966D01*
X90040160Y-84021196D01*
X90008273Y-83999890D01*
X89875810Y-83867427D01*
X89771735Y-83711667D01*
X89771734Y-83711666D01*
X89700046Y-83538595D01*
X89663500Y-83354867D01*
X89663500Y-83167533D01*
X89700046Y-82983805D01*
X89771734Y-82810734D01*
X89847792Y-82696905D01*
X89875810Y-82654973D01*
X90008273Y-82522510D01*
X90164033Y-82418435D01*
X90164034Y-82418434D01*
X90337105Y-82346746D01*
X90520833Y-82310200D01*
X90708167Y-82310200D01*
X90891895Y-82346746D01*
G37*
G36*
X77349928Y-81109403D02*
G01*
X77504800Y-81173553D01*
X77644181Y-81266685D01*
X77762715Y-81385219D01*
X77855847Y-81524600D01*
X77919997Y-81679472D01*
X77952700Y-81843884D01*
X77952700Y-82011516D01*
X77919997Y-82175928D01*
X77855847Y-82330800D01*
X77762715Y-82470181D01*
X77644181Y-82588715D01*
X77504800Y-82681847D01*
X77349928Y-82745997D01*
X77185516Y-82778700D01*
X77017884Y-82778700D01*
X76853472Y-82745997D01*
X76698600Y-82681847D01*
X76559219Y-82588715D01*
X76440685Y-82470181D01*
X76347553Y-82330800D01*
X76283403Y-82175928D01*
X76250700Y-82011516D01*
X76250700Y-81843884D01*
X76283403Y-81679472D01*
X76347553Y-81524600D01*
X76440685Y-81385219D01*
X76559219Y-81266685D01*
X76698600Y-81173553D01*
X76853472Y-81109403D01*
X77017884Y-81076700D01*
X77185516Y-81076700D01*
X77349928Y-81109403D01*
G37*
G36*
X84969928Y-81109403D02*
G01*
X85124800Y-81173553D01*
X85264181Y-81266685D01*
X85382715Y-81385219D01*
X85475847Y-81524600D01*
X85539997Y-81679472D01*
X85572700Y-81843884D01*
X85572700Y-82011516D01*
X85539997Y-82175928D01*
X85475847Y-82330800D01*
X85382715Y-82470181D01*
X85264181Y-82588715D01*
X85124800Y-82681847D01*
X84969928Y-82745997D01*
X84805516Y-82778700D01*
X84637884Y-82778700D01*
X84473472Y-82745997D01*
X84318600Y-82681847D01*
X84179219Y-82588715D01*
X84060685Y-82470181D01*
X83967553Y-82330800D01*
X83903403Y-82175928D01*
X83870700Y-82011516D01*
X83870700Y-81843884D01*
X83903403Y-81679472D01*
X83967553Y-81524600D01*
X84060685Y-81385219D01*
X84179219Y-81266685D01*
X84318600Y-81173553D01*
X84473472Y-81109403D01*
X84637884Y-81076700D01*
X84805516Y-81076700D01*
X84969928Y-81109403D01*
G37*
M02*
