G04 #@! TF.GenerationSoftware,KiCad,Pcbnew,5.1.4-3.fc30*
G04 #@! TF.CreationDate,2019-09-18T18:45:05+02:00*
G04 #@! TF.ProjectId,power_supply_5V,706f7765-725f-4737-9570-706c795f3556,1.0*
G04 #@! TF.SameCoordinates,Original*
G04 #@! TF.FileFunction,Copper,L2,Bot*
G04 #@! TF.FilePolarity,Positive*
%FSLAX46Y46*%
G04 Gerber Fmt 4.6, Leading zero omitted, Abs format (unit mm)*
G04 Created by KiCad (PCBNEW 5.1.4-3.fc30) date 2019-09-18 18:45:05*
%MOMM*%
%LPD*%
G04 APERTURE LIST*
%ADD10O,2.000000X3.500000*%
%ADD11O,3.300000X2.000000*%
%ADD12R,4.000000X2.000000*%
%ADD13R,1.700000X1.700000*%
%ADD14O,1.700000X1.700000*%
%ADD15O,1.600000X1.600000*%
%ADD16C,1.600000*%
%ADD17C,1.800000*%
%ADD18R,1.800000X1.800000*%
%ADD19R,1.600000X1.600000*%
%ADD20O,2.200000X2.200000*%
%ADD21R,2.200000X2.200000*%
%ADD22O,1.905000X2.000000*%
%ADD23R,1.905000X2.000000*%
%ADD24C,1.000000*%
G04 APERTURE END LIST*
D10*
X83087600Y-94726000D03*
X74087600Y-94726000D03*
D11*
X78587600Y-93726000D03*
D12*
X78587600Y-87726000D03*
D13*
X147574000Y-86512400D03*
D14*
X147574000Y-89052400D03*
D15*
X77101700Y-81927700D03*
D16*
X84721700Y-81927700D03*
D17*
X90614500Y-83261200D03*
D18*
X93154500Y-83261200D03*
D16*
X91490800Y-98983800D03*
D19*
X91490800Y-96483800D03*
D16*
X99390200Y-99060000D03*
X99390200Y-94060000D03*
X135178800Y-96139000D03*
X135178800Y-91139000D03*
X126799600Y-94930600D03*
D19*
X126799600Y-92430600D03*
D20*
X90144600Y-89728800D03*
D21*
X100304600Y-89728800D03*
D17*
X132638800Y-83743800D03*
D18*
X135178800Y-83743800D03*
D15*
X121869200Y-83515200D03*
D16*
X114249200Y-83515200D03*
D22*
X114223800Y-94005400D03*
X111683800Y-94005400D03*
D23*
X109143800Y-94005400D03*
D24*
X74663300Y-93484700D02*
X74904600Y-93726000D01*
X96966400Y-96483800D02*
X99390200Y-94060000D01*
X91490800Y-96483800D02*
X96966400Y-96483800D01*
X109089200Y-94060000D02*
X109143800Y-94005400D01*
X100288100Y-91845300D02*
X100288100Y-94060000D01*
X100304600Y-89728800D02*
X100304600Y-91828800D01*
X100304600Y-91828800D02*
X100288100Y-91845300D01*
X99390200Y-94060000D02*
X100288100Y-94060000D01*
X100288100Y-94060000D02*
X109089200Y-94060000D01*
X99314000Y-98983800D02*
X99390200Y-99060000D01*
X91490800Y-98983800D02*
X99314000Y-98983800D01*
X146371919Y-89052400D02*
X147574000Y-89052400D01*
X135178800Y-85643800D02*
X138587400Y-89052400D01*
X138587400Y-89052400D02*
X146371919Y-89052400D01*
X135178800Y-83743800D02*
X135178800Y-85643800D01*
X138587400Y-92730400D02*
X138587400Y-89052400D01*
X135178800Y-96139000D02*
X138587400Y-92730400D01*
X128008000Y-96139000D02*
X126799600Y-94930600D01*
X135178800Y-96139000D02*
X128008000Y-96139000D01*
X134378801Y-96938999D02*
X135178800Y-96139000D01*
X130519010Y-100798790D02*
X134378801Y-96938999D01*
X99390200Y-99060000D02*
X101128990Y-100798790D01*
X111683800Y-100543680D02*
X111428690Y-100798790D01*
X101128990Y-100798790D02*
X111428690Y-100798790D01*
X111683800Y-94005400D02*
X111683800Y-100543680D01*
X111428690Y-100798790D02*
X130519010Y-100798790D01*
X83845400Y-98983800D02*
X91490800Y-98983800D01*
X78587600Y-93726000D02*
X83845400Y-98983800D01*
X77937600Y-93726000D02*
X74549000Y-90337400D01*
X78587600Y-93726000D02*
X77937600Y-93726000D01*
X74549000Y-84480400D02*
X75037950Y-83991450D01*
X74549000Y-90337400D02*
X74549000Y-84480400D01*
X77101700Y-81927700D02*
X75037950Y-83991450D01*
X75037950Y-83991450D02*
X74663300Y-84366100D01*
X114249200Y-93980000D02*
X114223800Y-94005400D01*
X114249200Y-83515200D02*
X114249200Y-93980000D01*
X125224800Y-94005400D02*
X126799600Y-92430600D01*
X114223800Y-94005400D02*
X125224800Y-94005400D01*
X133887200Y-92430600D02*
X135178800Y-91139000D01*
X126799600Y-92430600D02*
X133887200Y-92430600D01*
X147574000Y-84662400D02*
X147574000Y-86512400D01*
X117271800Y-80492600D02*
X143404200Y-80492600D01*
X143404200Y-80492600D02*
X147574000Y-84662400D01*
X114249200Y-83515200D02*
X117271800Y-80492600D01*
X89281000Y-81927700D02*
X90614500Y-83261200D01*
X84721700Y-81927700D02*
X89281000Y-81927700D01*
X93154500Y-86718900D02*
X90144600Y-89728800D01*
X93154500Y-83261200D02*
X93154500Y-86718900D01*
X78587600Y-87726000D02*
X88392000Y-87726000D01*
X88392000Y-87976200D02*
X90144600Y-89728800D01*
X88392000Y-87726000D02*
X88392000Y-87976200D01*
X132410200Y-83515200D02*
X132638800Y-83743800D01*
X121869200Y-83515200D02*
X132410200Y-83515200D01*
M02*
