%TF.GenerationSoftware,KiCad,Pcbnew,5.1.6-c6e7f7d~86~ubuntu18.04.1*%
%TF.CreationDate,2020-05-25T18:50:18+02:00*%
%TF.ProjectId,power_supply_5V,706f7765-725f-4737-9570-706c795f3556,1.2*%
%TF.SameCoordinates,Original*%
%TF.FileFunction,Other,User*%
%FSLAX46Y46*%
G04 Gerber Fmt 4.6, Leading zero omitted, Abs format (unit mm)*
G04 Created by KiCad (PCBNEW 5.1.6-c6e7f7d~86~ubuntu18.04.1) date 2020-05-25 18:50:18*
%MOMM*%
%LPD*%
G01*
G04 APERTURE LIST*
%ADD10C,0.050000*%
G04 APERTURE END LIST*
D10*
%TO.C,J1*%
X74087600Y-86226000D02*
X74087600Y-100226000D01*
X74087600Y-100226000D02*
X86087600Y-100226000D01*
X86087600Y-100226000D02*
X86087600Y-86226000D01*
X86087600Y-86226000D02*
X74087600Y-86226000D01*
%TO.C,J2*%
X151374000Y-90862400D02*
X151374000Y-84712400D01*
X143774000Y-90862400D02*
X151374000Y-90862400D01*
X143774000Y-84712400D02*
X143774000Y-90862400D01*
X151374000Y-84712400D02*
X143774000Y-84712400D01*
%TO.C,R1*%
X85771700Y-83427700D02*
X85771700Y-80427700D01*
X85771700Y-80427700D02*
X76051700Y-80427700D01*
X76051700Y-80427700D02*
X76051700Y-83427700D01*
X76051700Y-83427700D02*
X85771700Y-83427700D01*
%TO.C,D1*%
X94304500Y-85511200D02*
X94304500Y-81011200D01*
X94304500Y-81011200D02*
X89454500Y-81011200D01*
X89454500Y-81011200D02*
X89454500Y-85511200D01*
X89454500Y-85511200D02*
X94304500Y-85511200D01*
%TO.C,C1*%
X94240800Y-97733800D02*
G75*
G03*
X94240800Y-97733800I-2750000J0D01*
G01*
%TO.C,C2*%
X100890200Y-93010000D02*
X97890200Y-93010000D01*
X97890200Y-93010000D02*
X97890200Y-100110000D01*
X97890200Y-100110000D02*
X100890200Y-100110000D01*
X100890200Y-100110000D02*
X100890200Y-93010000D01*
%TO.C,C3*%
X136678800Y-90089000D02*
X133678800Y-90089000D01*
X133678800Y-90089000D02*
X133678800Y-97189000D01*
X133678800Y-97189000D02*
X136678800Y-97189000D01*
X136678800Y-97189000D02*
X136678800Y-90089000D01*
%TO.C,C4*%
X129549600Y-93680600D02*
G75*
G03*
X129549600Y-93680600I-2750000J0D01*
G01*
%TO.C,D2*%
X101654600Y-91328800D02*
X101654600Y-88128800D01*
X101654600Y-88128800D02*
X88794600Y-88128800D01*
X88794600Y-88128800D02*
X88794600Y-91328800D01*
X88794600Y-91328800D02*
X101654600Y-91328800D01*
%TO.C,D3*%
X136328800Y-85993800D02*
X136328800Y-81493800D01*
X136328800Y-81493800D02*
X131478800Y-81493800D01*
X131478800Y-81493800D02*
X131478800Y-85993800D01*
X131478800Y-85993800D02*
X136328800Y-85993800D01*
%TO.C,R2*%
X113199200Y-82015200D02*
X113199200Y-85015200D01*
X113199200Y-85015200D02*
X122919200Y-85015200D01*
X122919200Y-85015200D02*
X122919200Y-82015200D01*
X122919200Y-82015200D02*
X113199200Y-82015200D01*
%TO.C,U1*%
X106433800Y-90605400D02*
X106433800Y-95515400D01*
X106433800Y-95515400D02*
X116933800Y-95515400D01*
X116933800Y-95515400D02*
X116933800Y-90605400D01*
X116933800Y-90605400D02*
X106433800Y-90605400D01*
%TD*%
M02*
