G04 #@! TF.GenerationSoftware,KiCad,Pcbnew,5.1.4-3.fc30*
G04 #@! TF.CreationDate,2019-09-18T18:45:05+02:00*
G04 #@! TF.ProjectId,power_supply_5V,706f7765-725f-4737-9570-706c795f3556,1.0*
G04 #@! TF.SameCoordinates,Original*
G04 #@! TF.FileFunction,Soldermask,Bot*
G04 #@! TF.FilePolarity,Negative*
%FSLAX46Y46*%
G04 Gerber Fmt 4.6, Leading zero omitted, Abs format (unit mm)*
G04 Created by KiCad (PCBNEW 5.1.4-3.fc30) date 2019-09-18 18:45:05*
%MOMM*%
%LPD*%
G04 APERTURE LIST*
%ADD10C,0.100000*%
G04 APERTURE END LIST*
D10*
G36*
X99638428Y-98241703D02*
G01*
X99793300Y-98305853D01*
X99932681Y-98398985D01*
X100051215Y-98517519D01*
X100144347Y-98656900D01*
X100208497Y-98811772D01*
X100241200Y-98976184D01*
X100241200Y-99143816D01*
X100208497Y-99308228D01*
X100144347Y-99463100D01*
X100051215Y-99602481D01*
X99932681Y-99721015D01*
X99793300Y-99814147D01*
X99638428Y-99878297D01*
X99474016Y-99911000D01*
X99306384Y-99911000D01*
X99141972Y-99878297D01*
X98987100Y-99814147D01*
X98847719Y-99721015D01*
X98729185Y-99602481D01*
X98636053Y-99463100D01*
X98571903Y-99308228D01*
X98539200Y-99143816D01*
X98539200Y-98976184D01*
X98571903Y-98811772D01*
X98636053Y-98656900D01*
X98729185Y-98517519D01*
X98847719Y-98398985D01*
X98987100Y-98305853D01*
X99141972Y-98241703D01*
X99306384Y-98209000D01*
X99474016Y-98209000D01*
X99638428Y-98241703D01*
X99638428Y-98241703D01*
G37*
G36*
X91739028Y-98165503D02*
G01*
X91893900Y-98229653D01*
X92033281Y-98322785D01*
X92151815Y-98441319D01*
X92244947Y-98580700D01*
X92309097Y-98735572D01*
X92341800Y-98899984D01*
X92341800Y-99067616D01*
X92309097Y-99232028D01*
X92244947Y-99386900D01*
X92151815Y-99526281D01*
X92033281Y-99644815D01*
X91893900Y-99737947D01*
X91739028Y-99802097D01*
X91574616Y-99834800D01*
X91406984Y-99834800D01*
X91242572Y-99802097D01*
X91087700Y-99737947D01*
X90948319Y-99644815D01*
X90829785Y-99526281D01*
X90736653Y-99386900D01*
X90672503Y-99232028D01*
X90639800Y-99067616D01*
X90639800Y-98899984D01*
X90672503Y-98735572D01*
X90736653Y-98580700D01*
X90829785Y-98441319D01*
X90948319Y-98322785D01*
X91087700Y-98229653D01*
X91242572Y-98165503D01*
X91406984Y-98132800D01*
X91574616Y-98132800D01*
X91739028Y-98165503D01*
X91739028Y-98165503D01*
G37*
G36*
X78835828Y-95907703D02*
G01*
X78990700Y-95971853D01*
X79130081Y-96064985D01*
X79248615Y-96183519D01*
X79341747Y-96322900D01*
X79405897Y-96477772D01*
X79438600Y-96642184D01*
X79438600Y-96809816D01*
X79405897Y-96974228D01*
X79341747Y-97129100D01*
X79248615Y-97268481D01*
X79130081Y-97387015D01*
X78990700Y-97480147D01*
X78835828Y-97544297D01*
X78671416Y-97577000D01*
X78503784Y-97577000D01*
X78339372Y-97544297D01*
X78184500Y-97480147D01*
X78045119Y-97387015D01*
X77926585Y-97268481D01*
X77833453Y-97129100D01*
X77769303Y-96974228D01*
X77736600Y-96809816D01*
X77736600Y-96642184D01*
X77769303Y-96477772D01*
X77833453Y-96322900D01*
X77926585Y-96183519D01*
X78045119Y-96064985D01*
X78184500Y-95971853D01*
X78339372Y-95907703D01*
X78503784Y-95875000D01*
X78671416Y-95875000D01*
X78835828Y-95907703D01*
X78835828Y-95907703D01*
G37*
G36*
X92341800Y-97334800D02*
G01*
X90639800Y-97334800D01*
X90639800Y-95632800D01*
X92341800Y-95632800D01*
X92341800Y-97334800D01*
X92341800Y-97334800D01*
G37*
G36*
X135427028Y-95320703D02*
G01*
X135581900Y-95384853D01*
X135721281Y-95477985D01*
X135839815Y-95596519D01*
X135932947Y-95735900D01*
X135997097Y-95890772D01*
X136029800Y-96055184D01*
X136029800Y-96222816D01*
X135997097Y-96387228D01*
X135932947Y-96542100D01*
X135839815Y-96681481D01*
X135721281Y-96800015D01*
X135581900Y-96893147D01*
X135427028Y-96957297D01*
X135262616Y-96990000D01*
X135094984Y-96990000D01*
X134930572Y-96957297D01*
X134775700Y-96893147D01*
X134636319Y-96800015D01*
X134517785Y-96681481D01*
X134424653Y-96542100D01*
X134360503Y-96387228D01*
X134327800Y-96222816D01*
X134327800Y-96055184D01*
X134360503Y-95890772D01*
X134424653Y-95735900D01*
X134517785Y-95596519D01*
X134636319Y-95477985D01*
X134775700Y-95384853D01*
X134930572Y-95320703D01*
X135094984Y-95288000D01*
X135262616Y-95288000D01*
X135427028Y-95320703D01*
X135427028Y-95320703D01*
G37*
G36*
X83293631Y-92940207D02*
G01*
X83422287Y-92979235D01*
X83491748Y-93000306D01*
X83540381Y-93026301D01*
X83674329Y-93097897D01*
X83834365Y-93229235D01*
X83965703Y-93389271D01*
X83970202Y-93397689D01*
X84063294Y-93571851D01*
X84063294Y-93571852D01*
X84063295Y-93571854D01*
X84123393Y-93769968D01*
X84138600Y-93924370D01*
X84138600Y-95527630D01*
X84123393Y-95682032D01*
X84122569Y-95684747D01*
X84063294Y-95880149D01*
X84048566Y-95907703D01*
X83965703Y-96062729D01*
X83834365Y-96222765D01*
X83674329Y-96354103D01*
X83612356Y-96387228D01*
X83491749Y-96451694D01*
X83491746Y-96451695D01*
X83293632Y-96511793D01*
X83087600Y-96532085D01*
X82881569Y-96511793D01*
X82683455Y-96451695D01*
X82683452Y-96451694D01*
X82562845Y-96387228D01*
X82500872Y-96354103D01*
X82340836Y-96222765D01*
X82209498Y-96062729D01*
X82160924Y-95971853D01*
X82111905Y-95880146D01*
X82051807Y-95682033D01*
X82036600Y-95527631D01*
X82036600Y-93924370D01*
X82051807Y-93769971D01*
X82051807Y-93769969D01*
X82111905Y-93571855D01*
X82111906Y-93571852D01*
X82147121Y-93505970D01*
X82209497Y-93389271D01*
X82340835Y-93229235D01*
X82500871Y-93097897D01*
X82586625Y-93052061D01*
X82683451Y-93000306D01*
X82752912Y-92979235D01*
X82881568Y-92940207D01*
X83087600Y-92919915D01*
X83293631Y-92940207D01*
X83293631Y-92940207D01*
G37*
G36*
X74293631Y-92940207D02*
G01*
X74422287Y-92979235D01*
X74491748Y-93000306D01*
X74540381Y-93026301D01*
X74674329Y-93097897D01*
X74834365Y-93229235D01*
X74965703Y-93389271D01*
X74970202Y-93397689D01*
X75063294Y-93571851D01*
X75063294Y-93571852D01*
X75063295Y-93571854D01*
X75123393Y-93769968D01*
X75138600Y-93924370D01*
X75138600Y-95527630D01*
X75123393Y-95682032D01*
X75122569Y-95684747D01*
X75063294Y-95880149D01*
X75048566Y-95907703D01*
X74965703Y-96062729D01*
X74834365Y-96222765D01*
X74674329Y-96354103D01*
X74612356Y-96387228D01*
X74491749Y-96451694D01*
X74491746Y-96451695D01*
X74293632Y-96511793D01*
X74087600Y-96532085D01*
X73881569Y-96511793D01*
X73683455Y-96451695D01*
X73683452Y-96451694D01*
X73562845Y-96387228D01*
X73500872Y-96354103D01*
X73340836Y-96222765D01*
X73209498Y-96062729D01*
X73160924Y-95971853D01*
X73111905Y-95880146D01*
X73051807Y-95682033D01*
X73036600Y-95527631D01*
X73036600Y-93924370D01*
X73051807Y-93769971D01*
X73051807Y-93769969D01*
X73111905Y-93571855D01*
X73111906Y-93571852D01*
X73147121Y-93505970D01*
X73209497Y-93389271D01*
X73340835Y-93229235D01*
X73500871Y-93097897D01*
X73586625Y-93052061D01*
X73683451Y-93000306D01*
X73752912Y-92979235D01*
X73881568Y-92940207D01*
X74087600Y-92919915D01*
X74293631Y-92940207D01*
X74293631Y-92940207D01*
G37*
G36*
X127047828Y-94112303D02*
G01*
X127202700Y-94176453D01*
X127342081Y-94269585D01*
X127460615Y-94388119D01*
X127553747Y-94527500D01*
X127617897Y-94682372D01*
X127650600Y-94846784D01*
X127650600Y-95014416D01*
X127617897Y-95178828D01*
X127553747Y-95333700D01*
X127460615Y-95473081D01*
X127342081Y-95591615D01*
X127202700Y-95684747D01*
X127047828Y-95748897D01*
X126883416Y-95781600D01*
X126715784Y-95781600D01*
X126551372Y-95748897D01*
X126396500Y-95684747D01*
X126257119Y-95591615D01*
X126138585Y-95473081D01*
X126045453Y-95333700D01*
X125981303Y-95178828D01*
X125948600Y-95014416D01*
X125948600Y-94846784D01*
X125981303Y-94682372D01*
X126045453Y-94527500D01*
X126138585Y-94388119D01*
X126257119Y-94269585D01*
X126396500Y-94176453D01*
X126551372Y-94112303D01*
X126715784Y-94079600D01*
X126883416Y-94079600D01*
X127047828Y-94112303D01*
X127047828Y-94112303D01*
G37*
G36*
X111880519Y-92968920D02*
G01*
X112069680Y-93026301D01*
X112069683Y-93026302D01*
X112162133Y-93075718D01*
X112244012Y-93119483D01*
X112396815Y-93244885D01*
X112522217Y-93397688D01*
X112615399Y-93572019D01*
X112672780Y-93761180D01*
X112687300Y-93908606D01*
X112687300Y-94102193D01*
X112672780Y-94249619D01*
X112630767Y-94388119D01*
X112615398Y-94438783D01*
X112602400Y-94463100D01*
X112522217Y-94613112D01*
X112396815Y-94765915D01*
X112244012Y-94891317D01*
X112069681Y-94984499D01*
X111880520Y-95041880D01*
X111683800Y-95061255D01*
X111487081Y-95041880D01*
X111297920Y-94984499D01*
X111123588Y-94891317D01*
X110970785Y-94765915D01*
X110845383Y-94613112D01*
X110752201Y-94438781D01*
X110694820Y-94249620D01*
X110680300Y-94102194D01*
X110680300Y-93908607D01*
X110694820Y-93761181D01*
X110752201Y-93572020D01*
X110752202Y-93572017D01*
X110844690Y-93398985D01*
X110845383Y-93397688D01*
X110970785Y-93244885D01*
X111123588Y-93119483D01*
X111297919Y-93026301D01*
X111487080Y-92968920D01*
X111683800Y-92949545D01*
X111880519Y-92968920D01*
X111880519Y-92968920D01*
G37*
G36*
X114420519Y-92968920D02*
G01*
X114609680Y-93026301D01*
X114609683Y-93026302D01*
X114702133Y-93075718D01*
X114784012Y-93119483D01*
X114936815Y-93244885D01*
X115062217Y-93397688D01*
X115155399Y-93572019D01*
X115212780Y-93761180D01*
X115227300Y-93908606D01*
X115227300Y-94102193D01*
X115212780Y-94249619D01*
X115170767Y-94388119D01*
X115155398Y-94438783D01*
X115142400Y-94463100D01*
X115062217Y-94613112D01*
X114936815Y-94765915D01*
X114784012Y-94891317D01*
X114609681Y-94984499D01*
X114420520Y-95041880D01*
X114223800Y-95061255D01*
X114027081Y-95041880D01*
X113837920Y-94984499D01*
X113663588Y-94891317D01*
X113510785Y-94765915D01*
X113385383Y-94613112D01*
X113292201Y-94438781D01*
X113234820Y-94249620D01*
X113220300Y-94102194D01*
X113220300Y-93908607D01*
X113234820Y-93761181D01*
X113292201Y-93572020D01*
X113292202Y-93572017D01*
X113384690Y-93398985D01*
X113385383Y-93397688D01*
X113510785Y-93244885D01*
X113663588Y-93119483D01*
X113837919Y-93026301D01*
X114027080Y-92968920D01*
X114223800Y-92949545D01*
X114420519Y-92968920D01*
X114420519Y-92968920D01*
G37*
G36*
X110147300Y-95056400D02*
G01*
X108140300Y-95056400D01*
X108140300Y-92954400D01*
X110147300Y-92954400D01*
X110147300Y-95056400D01*
X110147300Y-95056400D01*
G37*
G36*
X99638428Y-93241703D02*
G01*
X99793300Y-93305853D01*
X99932681Y-93398985D01*
X100051215Y-93517519D01*
X100144347Y-93656900D01*
X100208497Y-93811772D01*
X100241200Y-93976184D01*
X100241200Y-94143816D01*
X100208497Y-94308228D01*
X100144347Y-94463100D01*
X100051215Y-94602481D01*
X99932681Y-94721015D01*
X99793300Y-94814147D01*
X99638428Y-94878297D01*
X99474016Y-94911000D01*
X99306384Y-94911000D01*
X99141972Y-94878297D01*
X98987100Y-94814147D01*
X98847719Y-94721015D01*
X98729185Y-94602481D01*
X98636053Y-94463100D01*
X98571903Y-94308228D01*
X98539200Y-94143816D01*
X98539200Y-93976184D01*
X98571903Y-93811772D01*
X98636053Y-93656900D01*
X98729185Y-93517519D01*
X98847719Y-93398985D01*
X98987100Y-93305853D01*
X99141972Y-93241703D01*
X99306384Y-93209000D01*
X99474016Y-93209000D01*
X99638428Y-93241703D01*
X99638428Y-93241703D01*
G37*
G36*
X79340697Y-92680069D02*
G01*
X79443632Y-92690207D01*
X79641746Y-92750305D01*
X79641749Y-92750306D01*
X79738575Y-92802061D01*
X79824329Y-92847897D01*
X79984365Y-92979235D01*
X80115703Y-93139271D01*
X80152974Y-93209000D01*
X80213294Y-93321851D01*
X80213295Y-93321854D01*
X80273393Y-93519968D01*
X80293685Y-93726000D01*
X80273393Y-93932032D01*
X80221774Y-94102194D01*
X80213294Y-94130149D01*
X80188544Y-94176452D01*
X80115703Y-94312729D01*
X79984365Y-94472765D01*
X79824329Y-94604103D01*
X79738575Y-94649939D01*
X79641749Y-94701694D01*
X79641746Y-94701695D01*
X79443632Y-94761793D01*
X79340697Y-94771931D01*
X79289231Y-94777000D01*
X77885969Y-94777000D01*
X77834503Y-94771931D01*
X77731568Y-94761793D01*
X77533454Y-94701695D01*
X77533451Y-94701694D01*
X77436625Y-94649939D01*
X77350871Y-94604103D01*
X77190835Y-94472765D01*
X77059497Y-94312729D01*
X76986656Y-94176452D01*
X76961906Y-94130149D01*
X76953426Y-94102194D01*
X76901807Y-93932032D01*
X76881515Y-93726000D01*
X76901807Y-93519968D01*
X76961905Y-93321854D01*
X76961906Y-93321851D01*
X77022226Y-93209000D01*
X77059497Y-93139271D01*
X77190835Y-92979235D01*
X77350871Y-92847897D01*
X77436625Y-92802061D01*
X77533451Y-92750306D01*
X77533454Y-92750305D01*
X77731568Y-92690207D01*
X77834503Y-92680069D01*
X77885969Y-92675000D01*
X79289231Y-92675000D01*
X79340697Y-92680069D01*
X79340697Y-92680069D01*
G37*
G36*
X127650600Y-93281600D02*
G01*
X125948600Y-93281600D01*
X125948600Y-91579600D01*
X127650600Y-91579600D01*
X127650600Y-93281600D01*
X127650600Y-93281600D01*
G37*
G36*
X135427028Y-90320703D02*
G01*
X135581900Y-90384853D01*
X135721281Y-90477985D01*
X135839815Y-90596519D01*
X135932947Y-90735900D01*
X135997097Y-90890772D01*
X136029800Y-91055184D01*
X136029800Y-91222816D01*
X135997097Y-91387228D01*
X135932947Y-91542100D01*
X135839815Y-91681481D01*
X135721281Y-91800015D01*
X135581900Y-91893147D01*
X135427028Y-91957297D01*
X135262616Y-91990000D01*
X135094984Y-91990000D01*
X134930572Y-91957297D01*
X134775700Y-91893147D01*
X134636319Y-91800015D01*
X134517785Y-91681481D01*
X134424653Y-91542100D01*
X134360503Y-91387228D01*
X134327800Y-91222816D01*
X134327800Y-91055184D01*
X134360503Y-90890772D01*
X134424653Y-90735900D01*
X134517785Y-90596519D01*
X134636319Y-90477985D01*
X134775700Y-90384853D01*
X134930572Y-90320703D01*
X135094984Y-90288000D01*
X135262616Y-90288000D01*
X135427028Y-90320703D01*
X135427028Y-90320703D01*
G37*
G36*
X101455600Y-90879800D02*
G01*
X99153600Y-90879800D01*
X99153600Y-88577800D01*
X101455600Y-88577800D01*
X101455600Y-90879800D01*
X101455600Y-90879800D01*
G37*
G36*
X90313871Y-88588903D02*
G01*
X90370235Y-88594454D01*
X90587200Y-88660270D01*
X90587202Y-88660271D01*
X90787155Y-88767147D01*
X90962418Y-88910982D01*
X91106253Y-89086245D01*
X91213129Y-89286198D01*
X91213130Y-89286200D01*
X91259027Y-89437501D01*
X91278946Y-89503166D01*
X91301169Y-89728800D01*
X91278946Y-89954434D01*
X91213129Y-90171402D01*
X91106253Y-90371355D01*
X90962418Y-90546618D01*
X90787155Y-90690453D01*
X90587202Y-90797329D01*
X90587200Y-90797330D01*
X90370235Y-90863146D01*
X90313871Y-90868697D01*
X90201145Y-90879800D01*
X90088055Y-90879800D01*
X89975329Y-90868697D01*
X89918965Y-90863146D01*
X89702000Y-90797330D01*
X89701998Y-90797329D01*
X89502045Y-90690453D01*
X89326782Y-90546618D01*
X89182947Y-90371355D01*
X89076071Y-90171402D01*
X89010254Y-89954434D01*
X88988031Y-89728800D01*
X89010254Y-89503166D01*
X89030173Y-89437501D01*
X89076070Y-89286200D01*
X89076071Y-89286198D01*
X89182947Y-89086245D01*
X89326782Y-88910982D01*
X89502045Y-88767147D01*
X89701998Y-88660271D01*
X89702000Y-88660270D01*
X89918965Y-88594454D01*
X89975329Y-88588903D01*
X90088055Y-88577800D01*
X90201145Y-88577800D01*
X90313871Y-88588903D01*
X90313871Y-88588903D01*
G37*
G36*
X147684442Y-88157918D02*
G01*
X147750627Y-88164437D01*
X147920466Y-88215957D01*
X148076991Y-88299622D01*
X148112729Y-88328952D01*
X148214186Y-88412214D01*
X148297448Y-88513671D01*
X148326778Y-88549409D01*
X148410443Y-88705934D01*
X148461963Y-88875773D01*
X148479359Y-89052400D01*
X148461963Y-89229027D01*
X148410443Y-89398866D01*
X148326778Y-89555391D01*
X148314251Y-89570655D01*
X148214186Y-89692586D01*
X148116357Y-89772871D01*
X148076991Y-89805178D01*
X147920466Y-89888843D01*
X147750627Y-89940363D01*
X147684442Y-89946882D01*
X147618260Y-89953400D01*
X147529740Y-89953400D01*
X147463558Y-89946882D01*
X147397373Y-89940363D01*
X147227534Y-89888843D01*
X147071009Y-89805178D01*
X147031643Y-89772871D01*
X146933814Y-89692586D01*
X146833749Y-89570655D01*
X146821222Y-89555391D01*
X146737557Y-89398866D01*
X146686037Y-89229027D01*
X146668641Y-89052400D01*
X146686037Y-88875773D01*
X146737557Y-88705934D01*
X146821222Y-88549409D01*
X146850552Y-88513671D01*
X146933814Y-88412214D01*
X147035271Y-88328952D01*
X147071009Y-88299622D01*
X147227534Y-88215957D01*
X147397373Y-88164437D01*
X147463558Y-88157918D01*
X147529740Y-88151400D01*
X147618260Y-88151400D01*
X147684442Y-88157918D01*
X147684442Y-88157918D01*
G37*
G36*
X150351142Y-88270642D02*
G01*
X150499101Y-88331929D01*
X150632255Y-88420899D01*
X150745501Y-88534145D01*
X150834471Y-88667299D01*
X150895758Y-88815258D01*
X150927000Y-88972325D01*
X150927000Y-89132475D01*
X150895758Y-89289542D01*
X150834471Y-89437501D01*
X150745501Y-89570655D01*
X150632255Y-89683901D01*
X150499101Y-89772871D01*
X150351142Y-89834158D01*
X150194075Y-89865400D01*
X150033925Y-89865400D01*
X149876858Y-89834158D01*
X149728899Y-89772871D01*
X149595745Y-89683901D01*
X149482499Y-89570655D01*
X149393529Y-89437501D01*
X149332242Y-89289542D01*
X149301000Y-89132475D01*
X149301000Y-88972325D01*
X149332242Y-88815258D01*
X149393529Y-88667299D01*
X149482499Y-88534145D01*
X149595745Y-88420899D01*
X149728899Y-88331929D01*
X149876858Y-88270642D01*
X150033925Y-88239400D01*
X150194075Y-88239400D01*
X150351142Y-88270642D01*
X150351142Y-88270642D01*
G37*
G36*
X80638600Y-88777000D02*
G01*
X76536600Y-88777000D01*
X76536600Y-86675000D01*
X80638600Y-86675000D01*
X80638600Y-88777000D01*
X80638600Y-88777000D01*
G37*
G36*
X148475000Y-87413400D02*
G01*
X146673000Y-87413400D01*
X146673000Y-85611400D01*
X148475000Y-85611400D01*
X148475000Y-87413400D01*
X148475000Y-87413400D01*
G37*
G36*
X150351142Y-85730642D02*
G01*
X150499101Y-85791929D01*
X150632255Y-85880899D01*
X150745501Y-85994145D01*
X150834471Y-86127299D01*
X150895758Y-86275258D01*
X150927000Y-86432325D01*
X150927000Y-86592475D01*
X150895758Y-86749542D01*
X150834471Y-86897501D01*
X150745501Y-87030655D01*
X150632255Y-87143901D01*
X150499101Y-87232871D01*
X150351142Y-87294158D01*
X150194075Y-87325400D01*
X150033925Y-87325400D01*
X149876858Y-87294158D01*
X149728899Y-87232871D01*
X149595745Y-87143901D01*
X149482499Y-87030655D01*
X149393529Y-86897501D01*
X149332242Y-86749542D01*
X149301000Y-86592475D01*
X149301000Y-86432325D01*
X149332242Y-86275258D01*
X149393529Y-86127299D01*
X149482499Y-85994145D01*
X149595745Y-85880899D01*
X149728899Y-85791929D01*
X149876858Y-85730642D01*
X150033925Y-85699400D01*
X150194075Y-85699400D01*
X150351142Y-85730642D01*
X150351142Y-85730642D01*
G37*
G36*
X132916195Y-82829346D02*
G01*
X133089266Y-82901034D01*
X133089267Y-82901035D01*
X133245027Y-83005110D01*
X133377490Y-83137573D01*
X133397510Y-83167535D01*
X133481566Y-83293334D01*
X133553254Y-83466405D01*
X133589800Y-83650133D01*
X133589800Y-83837467D01*
X133553254Y-84021195D01*
X133481566Y-84194266D01*
X133460225Y-84226205D01*
X133377490Y-84350027D01*
X133245027Y-84482490D01*
X133166618Y-84534881D01*
X133089266Y-84586566D01*
X132916195Y-84658254D01*
X132732467Y-84694800D01*
X132545133Y-84694800D01*
X132361405Y-84658254D01*
X132188334Y-84586566D01*
X132110982Y-84534881D01*
X132032573Y-84482490D01*
X131900110Y-84350027D01*
X131817375Y-84226205D01*
X131796034Y-84194266D01*
X131724346Y-84021195D01*
X131687800Y-83837467D01*
X131687800Y-83650133D01*
X131724346Y-83466405D01*
X131796034Y-83293334D01*
X131880090Y-83167535D01*
X131900110Y-83137573D01*
X132032573Y-83005110D01*
X132188333Y-82901035D01*
X132188334Y-82901034D01*
X132361405Y-82829346D01*
X132545133Y-82792800D01*
X132732467Y-82792800D01*
X132916195Y-82829346D01*
X132916195Y-82829346D01*
G37*
G36*
X136129800Y-84694800D02*
G01*
X134227800Y-84694800D01*
X134227800Y-82792800D01*
X136129800Y-82792800D01*
X136129800Y-84694800D01*
X136129800Y-84694800D01*
G37*
G36*
X122036023Y-82676513D02*
G01*
X122196442Y-82725176D01*
X122235395Y-82745997D01*
X122344278Y-82804196D01*
X122473859Y-82910541D01*
X122580204Y-83040122D01*
X122580205Y-83040124D01*
X122659224Y-83187958D01*
X122707887Y-83348377D01*
X122724317Y-83515200D01*
X122707887Y-83682023D01*
X122659224Y-83842442D01*
X122618677Y-83918300D01*
X122580204Y-83990278D01*
X122473859Y-84119859D01*
X122344278Y-84226204D01*
X122344276Y-84226205D01*
X122196442Y-84305224D01*
X122036023Y-84353887D01*
X121911004Y-84366200D01*
X121827396Y-84366200D01*
X121702377Y-84353887D01*
X121541958Y-84305224D01*
X121394124Y-84226205D01*
X121394122Y-84226204D01*
X121264541Y-84119859D01*
X121158196Y-83990278D01*
X121119723Y-83918300D01*
X121079176Y-83842442D01*
X121030513Y-83682023D01*
X121014083Y-83515200D01*
X121030513Y-83348377D01*
X121079176Y-83187958D01*
X121158195Y-83040124D01*
X121158196Y-83040122D01*
X121264541Y-82910541D01*
X121394122Y-82804196D01*
X121503005Y-82745997D01*
X121541958Y-82725176D01*
X121702377Y-82676513D01*
X121827396Y-82664200D01*
X121911004Y-82664200D01*
X122036023Y-82676513D01*
X122036023Y-82676513D01*
G37*
G36*
X114497428Y-82696903D02*
G01*
X114652300Y-82761053D01*
X114791681Y-82854185D01*
X114910215Y-82972719D01*
X115003347Y-83112100D01*
X115067497Y-83266972D01*
X115100200Y-83431384D01*
X115100200Y-83599016D01*
X115067497Y-83763428D01*
X115003347Y-83918300D01*
X114910215Y-84057681D01*
X114791681Y-84176215D01*
X114652300Y-84269347D01*
X114497428Y-84333497D01*
X114333016Y-84366200D01*
X114165384Y-84366200D01*
X114000972Y-84333497D01*
X113846100Y-84269347D01*
X113706719Y-84176215D01*
X113588185Y-84057681D01*
X113495053Y-83918300D01*
X113430903Y-83763428D01*
X113398200Y-83599016D01*
X113398200Y-83431384D01*
X113430903Y-83266972D01*
X113495053Y-83112100D01*
X113588185Y-82972719D01*
X113706719Y-82854185D01*
X113846100Y-82761053D01*
X114000972Y-82696903D01*
X114165384Y-82664200D01*
X114333016Y-82664200D01*
X114497428Y-82696903D01*
X114497428Y-82696903D01*
G37*
G36*
X94105500Y-84212200D02*
G01*
X92203500Y-84212200D01*
X92203500Y-82310200D01*
X94105500Y-82310200D01*
X94105500Y-84212200D01*
X94105500Y-84212200D01*
G37*
G36*
X90891895Y-82346746D02*
G01*
X91064966Y-82418434D01*
X91064967Y-82418435D01*
X91220727Y-82522510D01*
X91353190Y-82654973D01*
X91381208Y-82696905D01*
X91457266Y-82810734D01*
X91528954Y-82983805D01*
X91565500Y-83167533D01*
X91565500Y-83354867D01*
X91528954Y-83538595D01*
X91457266Y-83711666D01*
X91457265Y-83711667D01*
X91353190Y-83867427D01*
X91220727Y-83999890D01*
X91188840Y-84021196D01*
X91064966Y-84103966D01*
X90891895Y-84175654D01*
X90708167Y-84212200D01*
X90520833Y-84212200D01*
X90337105Y-84175654D01*
X90164034Y-84103966D01*
X90040160Y-84021196D01*
X90008273Y-83999890D01*
X89875810Y-83867427D01*
X89771735Y-83711667D01*
X89771734Y-83711666D01*
X89700046Y-83538595D01*
X89663500Y-83354867D01*
X89663500Y-83167533D01*
X89700046Y-82983805D01*
X89771734Y-82810734D01*
X89847792Y-82696905D01*
X89875810Y-82654973D01*
X90008273Y-82522510D01*
X90164033Y-82418435D01*
X90164034Y-82418434D01*
X90337105Y-82346746D01*
X90520833Y-82310200D01*
X90708167Y-82310200D01*
X90891895Y-82346746D01*
X90891895Y-82346746D01*
G37*
G36*
X77268523Y-81089013D02*
G01*
X77428942Y-81137676D01*
X77496061Y-81173552D01*
X77576778Y-81216696D01*
X77706359Y-81323041D01*
X77812704Y-81452622D01*
X77812705Y-81452624D01*
X77891724Y-81600458D01*
X77940387Y-81760877D01*
X77956817Y-81927700D01*
X77940387Y-82094523D01*
X77891724Y-82254942D01*
X77851177Y-82330800D01*
X77812704Y-82402778D01*
X77706359Y-82532359D01*
X77576778Y-82638704D01*
X77576776Y-82638705D01*
X77428942Y-82717724D01*
X77268523Y-82766387D01*
X77143504Y-82778700D01*
X77059896Y-82778700D01*
X76934877Y-82766387D01*
X76774458Y-82717724D01*
X76626624Y-82638705D01*
X76626622Y-82638704D01*
X76497041Y-82532359D01*
X76390696Y-82402778D01*
X76352223Y-82330800D01*
X76311676Y-82254942D01*
X76263013Y-82094523D01*
X76246583Y-81927700D01*
X76263013Y-81760877D01*
X76311676Y-81600458D01*
X76390695Y-81452624D01*
X76390696Y-81452622D01*
X76497041Y-81323041D01*
X76626622Y-81216696D01*
X76707339Y-81173552D01*
X76774458Y-81137676D01*
X76934877Y-81089013D01*
X77059896Y-81076700D01*
X77143504Y-81076700D01*
X77268523Y-81089013D01*
X77268523Y-81089013D01*
G37*
G36*
X84969928Y-81109403D02*
G01*
X85124800Y-81173553D01*
X85264181Y-81266685D01*
X85382715Y-81385219D01*
X85475847Y-81524600D01*
X85539997Y-81679472D01*
X85572700Y-81843884D01*
X85572700Y-82011516D01*
X85539997Y-82175928D01*
X85475847Y-82330800D01*
X85382715Y-82470181D01*
X85264181Y-82588715D01*
X85124800Y-82681847D01*
X84969928Y-82745997D01*
X84805516Y-82778700D01*
X84637884Y-82778700D01*
X84473472Y-82745997D01*
X84318600Y-82681847D01*
X84179219Y-82588715D01*
X84060685Y-82470181D01*
X83967553Y-82330800D01*
X83903403Y-82175928D01*
X83870700Y-82011516D01*
X83870700Y-81843884D01*
X83903403Y-81679472D01*
X83967553Y-81524600D01*
X84060685Y-81385219D01*
X84179219Y-81266685D01*
X84318600Y-81173553D01*
X84473472Y-81109403D01*
X84637884Y-81076700D01*
X84805516Y-81076700D01*
X84969928Y-81109403D01*
X84969928Y-81109403D01*
G37*
M02*
