%TF.GenerationSoftware,KiCad,Pcbnew,5.1.4-3.fc30*%
%TF.CreationDate,2019-10-13T17:22:03+02:00*%
%TF.ProjectId,high_power_sym_supply,68696768-5f70-46f7-9765-725f73796d5f,1.0*%
%TF.SameCoordinates,PX463f660PY6a95280*%
%TF.FileFunction,Other,Comment*%
%FSLAX46Y46*%
G04 Gerber Fmt 4.6, Leading zero omitted, Abs format (unit mm)*
G04 Created by KiCad (PCBNEW 5.1.4-3.fc30) date 2019-10-13 17:22:03*
%MOMM*%
%LPD*%
G04 APERTURE LIST*
%ADD10C,0.150000*%
G04 APERTURE END LIST*
D10*
X120465714Y17923334D02*
X121132380Y17923334D01*
X120084761Y17685239D02*
X120799047Y17447143D01*
X120799047Y18066191D01*
X120132380Y18351905D02*
X120132380Y18970953D01*
X120513333Y18637620D01*
X120513333Y18780477D01*
X120560952Y18875715D01*
X120608571Y18923334D01*
X120703809Y18970953D01*
X120941904Y18970953D01*
X121037142Y18923334D01*
X121084761Y18875715D01*
X121132380Y18780477D01*
X121132380Y18494762D01*
X121084761Y18399524D01*
X121037142Y18351905D01*
X121084761Y19447143D02*
X121132380Y19447143D01*
X121227619Y19399524D01*
X121275238Y19351905D01*
X121132380Y20399524D02*
X121132380Y19828096D01*
X121132380Y20113810D02*
X120132380Y20113810D01*
X120275238Y20018572D01*
X120370476Y19923334D01*
X120418095Y19828096D01*
X120560952Y20970953D02*
X120513333Y20875715D01*
X120465714Y20828096D01*
X120370476Y20780477D01*
X120322857Y20780477D01*
X120227619Y20828096D01*
X120180000Y20875715D01*
X120132380Y20970953D01*
X120132380Y21161429D01*
X120180000Y21256667D01*
X120227619Y21304286D01*
X120322857Y21351905D01*
X120370476Y21351905D01*
X120465714Y21304286D01*
X120513333Y21256667D01*
X120560952Y21161429D01*
X120560952Y20970953D01*
X120608571Y20875715D01*
X120656190Y20828096D01*
X120751428Y20780477D01*
X120941904Y20780477D01*
X121037142Y20828096D01*
X121084761Y20875715D01*
X121132380Y20970953D01*
X121132380Y21161429D01*
X121084761Y21256667D01*
X121037142Y21304286D01*
X120941904Y21351905D01*
X120751428Y21351905D01*
X120656190Y21304286D01*
X120608571Y21256667D01*
X120560952Y21161429D01*
X120132380Y21970953D02*
X120132380Y22066191D01*
X120180000Y22161429D01*
X120227619Y22209048D01*
X120322857Y22256667D01*
X120513333Y22304286D01*
X120751428Y22304286D01*
X120941904Y22256667D01*
X121037142Y22209048D01*
X121084761Y22161429D01*
X121132380Y22066191D01*
X121132380Y21970953D01*
X121084761Y21875715D01*
X121037142Y21828096D01*
X120941904Y21780477D01*
X120751428Y21732858D01*
X120513333Y21732858D01*
X120322857Y21780477D01*
X120227619Y21828096D01*
X120180000Y21875715D01*
X120132380Y21970953D01*
X121132380Y23494762D02*
X120465714Y23494762D01*
X120560952Y23494762D02*
X120513333Y23542381D01*
X120465714Y23637620D01*
X120465714Y23780477D01*
X120513333Y23875715D01*
X120608571Y23923334D01*
X121132380Y23923334D01*
X120608571Y23923334D02*
X120513333Y23970953D01*
X120465714Y24066191D01*
X120465714Y24209048D01*
X120513333Y24304286D01*
X120608571Y24351905D01*
X121132380Y24351905D01*
X121132380Y24828096D02*
X120465714Y24828096D01*
X120560952Y24828096D02*
X120513333Y24875715D01*
X120465714Y24970953D01*
X120465714Y25113810D01*
X120513333Y25209048D01*
X120608571Y25256667D01*
X121132380Y25256667D01*
X120608571Y25256667D02*
X120513333Y25304286D01*
X120465714Y25399524D01*
X120465714Y25542381D01*
X120513333Y25637620D01*
X120608571Y25685239D01*
X121132380Y25685239D01*
X119380000Y0D02*
X119380000Y43180000D01*
X114300000Y0D02*
X119966421Y0D01*
X114300000Y43180000D02*
X119966421Y43180000D01*
X119380000Y43180000D02*
X119966421Y42053496D01*
X119380000Y43180000D02*
X118793579Y42053496D01*
X119380000Y0D02*
X119966421Y1126504D01*
X119380000Y0D02*
X118793579Y1126504D01*
X53102380Y-6832380D02*
X52530952Y-6832380D01*
X52816666Y-6832380D02*
X52816666Y-5832380D01*
X52721428Y-5975238D01*
X52626190Y-6070476D01*
X52530952Y-6118095D01*
X54054761Y-6832380D02*
X53483333Y-6832380D01*
X53769047Y-6832380D02*
X53769047Y-5832380D01*
X53673809Y-5975238D01*
X53578571Y-6070476D01*
X53483333Y-6118095D01*
X54911904Y-6165714D02*
X54911904Y-6832380D01*
X54673809Y-5784761D02*
X54435714Y-6499047D01*
X55054761Y-6499047D01*
X55483333Y-6784761D02*
X55483333Y-6832380D01*
X55435714Y-6927619D01*
X55388095Y-6975238D01*
X55816666Y-5832380D02*
X56435714Y-5832380D01*
X56102380Y-6213333D01*
X56245238Y-6213333D01*
X56340476Y-6260952D01*
X56388095Y-6308571D01*
X56435714Y-6403809D01*
X56435714Y-6641904D01*
X56388095Y-6737142D01*
X56340476Y-6784761D01*
X56245238Y-6832380D01*
X55959523Y-6832380D01*
X55864285Y-6784761D01*
X55816666Y-6737142D01*
X57054761Y-5832380D02*
X57150000Y-5832380D01*
X57245238Y-5880000D01*
X57292857Y-5927619D01*
X57340476Y-6022857D01*
X57388095Y-6213333D01*
X57388095Y-6451428D01*
X57340476Y-6641904D01*
X57292857Y-6737142D01*
X57245238Y-6784761D01*
X57150000Y-6832380D01*
X57054761Y-6832380D01*
X56959523Y-6784761D01*
X56911904Y-6737142D01*
X56864285Y-6641904D01*
X56816666Y-6451428D01*
X56816666Y-6213333D01*
X56864285Y-6022857D01*
X56911904Y-5927619D01*
X56959523Y-5880000D01*
X57054761Y-5832380D01*
X58007142Y-5832380D02*
X58102380Y-5832380D01*
X58197619Y-5880000D01*
X58245238Y-5927619D01*
X58292857Y-6022857D01*
X58340476Y-6213333D01*
X58340476Y-6451428D01*
X58292857Y-6641904D01*
X58245238Y-6737142D01*
X58197619Y-6784761D01*
X58102380Y-6832380D01*
X58007142Y-6832380D01*
X57911904Y-6784761D01*
X57864285Y-6737142D01*
X57816666Y-6641904D01*
X57769047Y-6451428D01*
X57769047Y-6213333D01*
X57816666Y-6022857D01*
X57864285Y-5927619D01*
X57911904Y-5880000D01*
X58007142Y-5832380D01*
X59530952Y-6832380D02*
X59530952Y-6165714D01*
X59530952Y-6260952D02*
X59578571Y-6213333D01*
X59673809Y-6165714D01*
X59816666Y-6165714D01*
X59911904Y-6213333D01*
X59959523Y-6308571D01*
X59959523Y-6832380D01*
X59959523Y-6308571D02*
X60007142Y-6213333D01*
X60102380Y-6165714D01*
X60245238Y-6165714D01*
X60340476Y-6213333D01*
X60388095Y-6308571D01*
X60388095Y-6832380D01*
X60864285Y-6832380D02*
X60864285Y-6165714D01*
X60864285Y-6260952D02*
X60911904Y-6213333D01*
X61007142Y-6165714D01*
X61150000Y-6165714D01*
X61245238Y-6213333D01*
X61292857Y-6308571D01*
X61292857Y-6832380D01*
X61292857Y-6308571D02*
X61340476Y-6213333D01*
X61435714Y-6165714D01*
X61578571Y-6165714D01*
X61673809Y-6213333D01*
X61721428Y-6308571D01*
X61721428Y-6832380D01*
X0Y-5080000D02*
X114300000Y-5080000D01*
X0Y0D02*
X0Y-5666421D01*
X114300000Y0D02*
X114300000Y-5666421D01*
X114300000Y-5080000D02*
X113173496Y-5666421D01*
X114300000Y-5080000D02*
X113173496Y-4493579D01*
X0Y-5080000D02*
X1126504Y-5666421D01*
X0Y-5080000D02*
X1126504Y-4493579D01*
%TO.C,H1*%
X8280000Y38100000D02*
G75*
G03X8280000Y38100000I-3200000J0D01*
G01*
%TO.C,H4*%
X112420000Y5080000D02*
G75*
G03X112420000Y5080000I-3200000J0D01*
G01*
%TO.C,H3*%
X112420000Y38100000D02*
G75*
G03X112420000Y38100000I-3200000J0D01*
G01*
%TO.C,H2*%
X8280000Y5080000D02*
G75*
G03X8280000Y5080000I-3200000J0D01*
G01*
%TD*%
M02*
