G04 #@! TF.GenerationSoftware,KiCad,Pcbnew,5.1.4-3.fc30*
G04 #@! TF.CreationDate,2019-10-06T04:01:43+02:00*
G04 #@! TF.ProjectId,high_power_sym_supply,68696768-5f70-46f7-9765-725f73796d5f,1.0*
G04 #@! TF.SameCoordinates,Original*
G04 #@! TF.FileFunction,Other,Fab,Top*
%FSLAX46Y46*%
G04 Gerber Fmt 4.6, Leading zero omitted, Abs format (unit mm)*
G04 Created by KiCad (PCBNEW 5.1.4-3.fc30) date 2019-10-06 04:01:43*
%MOMM*%
%LPD*%
G04 APERTURE LIST*
%ADD10C,0.100000*%
%ADD11C,0.120000*%
%ADD12C,0.150000*%
G04 APERTURE END LIST*
D10*
X109452500Y-107227271D02*
X111252500Y-107227271D01*
X110352500Y-108127271D02*
X110352500Y-106327271D01*
X123300000Y-100390000D02*
G75*
G03X123300000Y-100390000I-9000000J0D01*
G01*
X123300000Y-78800000D02*
G75*
G03X123300000Y-78800000I-9000000J0D01*
G01*
X110352500Y-86537271D02*
X110352500Y-84737271D01*
X109452500Y-85637271D02*
X111252500Y-85637271D01*
X132312500Y-107227271D02*
X134112500Y-107227271D01*
X133212500Y-108127271D02*
X133212500Y-106327271D01*
X146160000Y-100390000D02*
G75*
G03X146160000Y-100390000I-9000000J0D01*
G01*
X146160000Y-78800000D02*
G75*
G03X146160000Y-78800000I-9000000J0D01*
G01*
X133212500Y-86537271D02*
X133212500Y-84737271D01*
X132312500Y-85637271D02*
X134112500Y-85637271D01*
X149880000Y-98140000D02*
X149880000Y-105140000D01*
X152380000Y-98140000D02*
X149880000Y-98140000D01*
X152380000Y-105140000D02*
X152380000Y-98140000D01*
X149880000Y-105140000D02*
X152380000Y-105140000D01*
X149880000Y-81010000D02*
X152380000Y-81010000D01*
X152380000Y-81010000D02*
X152380000Y-74010000D01*
X152380000Y-74010000D02*
X149880000Y-74010000D01*
X149880000Y-74010000D02*
X149880000Y-81010000D01*
D11*
X94520000Y-97190000D02*
X101720000Y-97190000D01*
D10*
X95520000Y-101790000D02*
X101720000Y-101790000D01*
X94520000Y-100890000D02*
X95520000Y-101790000D01*
X94520000Y-78590000D02*
X94520000Y-100890000D01*
D11*
X101720000Y-78590000D02*
X94520000Y-78590000D01*
D10*
X101720000Y-101790000D02*
X101720000Y-78590000D01*
X167536190Y-96290000D02*
X165203810Y-96290000D01*
X167870000Y-97790000D02*
G75*
G03X167870000Y-97790000I-1500000J0D01*
G01*
X165204524Y-96289445D02*
G75*
G03X167536190Y-96290000I1165476J-1500555D01*
G01*
X167535476Y-77700555D02*
G75*
G03X165203810Y-77700000I-1165476J1500555D01*
G01*
X167870000Y-76200000D02*
G75*
G03X167870000Y-76200000I-1500000J0D01*
G01*
X165203810Y-77700000D02*
X167536190Y-77700000D01*
X84470000Y-96480000D02*
X84470000Y-81300000D01*
X79830000Y-91840000D02*
X84080000Y-91840000D01*
X77610000Y-95910000D02*
X77610000Y-91400000D01*
X87010000Y-91400000D02*
X87010000Y-96420000D01*
X90050000Y-81240000D02*
X90050000Y-96480000D01*
X84080000Y-92240000D02*
X84080000Y-95540000D01*
X84080000Y-91860000D02*
X84080000Y-92240000D01*
X84080000Y-95920000D02*
X84080000Y-95540000D01*
X88150000Y-92390000D02*
X88780000Y-95440000D01*
X88280000Y-92260000D02*
X88910000Y-95310000D01*
X87260000Y-95920000D02*
X87260000Y-91860000D01*
X89800000Y-95920000D02*
X87260000Y-95920000D01*
X89800000Y-91860000D02*
X89800000Y-95920000D01*
X87260000Y-91860000D02*
X89800000Y-91860000D01*
X87010000Y-96480000D02*
X85480000Y-96480000D01*
X84470000Y-96480000D02*
X79770000Y-96480000D01*
X85480000Y-96480000D02*
X84470000Y-96480000D01*
X83320000Y-95540000D02*
X83320000Y-95160000D01*
X83320000Y-92240000D02*
X83320000Y-92620000D01*
X80150000Y-92240000D02*
X83320000Y-92240000D01*
X80150000Y-95540000D02*
X80150000Y-92240000D01*
X80150000Y-95540000D02*
X83320000Y-95540000D01*
X79510000Y-95920000D02*
X77610000Y-95920000D01*
X79510000Y-91860000D02*
X79510000Y-95920000D01*
X77610000Y-95920000D02*
X77610000Y-96480000D01*
X84080000Y-95920000D02*
X79510000Y-95920000D01*
X77610000Y-91860000D02*
X79510000Y-91860000D01*
X80020000Y-96990000D02*
X78370000Y-96990000D01*
X79770000Y-96480000D02*
X78620000Y-96480000D01*
X80020000Y-96990000D02*
X79770000Y-96480000D01*
X78620000Y-96480000D02*
X77610000Y-96480000D01*
X78370000Y-96990000D02*
X78620000Y-96480000D01*
X85230000Y-96990000D02*
X85480000Y-96480000D01*
X90050000Y-96990000D02*
X85230000Y-96990000D01*
X90050000Y-96480000D02*
X90050000Y-96990000D01*
X90050000Y-96480000D02*
X87010000Y-96480000D01*
X81290000Y-92620000D02*
X84080000Y-92620000D01*
X84080000Y-92620000D02*
X84080000Y-95160000D01*
X81290000Y-95160000D02*
X84080000Y-95160000D01*
X81290000Y-92620000D02*
X81290000Y-95160000D01*
X81290000Y-82540000D02*
X81290000Y-85080000D01*
X81290000Y-85080000D02*
X84080000Y-85080000D01*
X84080000Y-82540000D02*
X84080000Y-85080000D01*
X81290000Y-82540000D02*
X84080000Y-82540000D01*
X81290000Y-87540000D02*
X81290000Y-90080000D01*
X81290000Y-90080000D02*
X84080000Y-90080000D01*
X84080000Y-87540000D02*
X84080000Y-90080000D01*
X81290000Y-87540000D02*
X84080000Y-87540000D01*
X78620000Y-91840000D02*
X77610000Y-91840000D01*
X79770000Y-91840000D02*
X78620000Y-91840000D01*
X77610000Y-86780000D02*
X79510000Y-86780000D01*
X84080000Y-90840000D02*
X79510000Y-90840000D01*
X77610000Y-86780000D02*
X77610000Y-90840000D01*
X77610000Y-90840000D02*
X77610000Y-91400000D01*
X77610000Y-85840000D02*
X79510000Y-85840000D01*
X77610000Y-85840000D02*
X77610000Y-86780000D01*
X84080000Y-81770000D02*
X79510000Y-81770000D01*
X77610000Y-81240000D02*
X77610000Y-81770000D01*
X77610000Y-81770000D02*
X77610000Y-85840000D01*
X79510000Y-86780000D02*
X79510000Y-90840000D01*
X79510000Y-86780000D02*
X84080000Y-86780000D01*
X79510000Y-90840000D02*
X77610000Y-90840000D01*
X79510000Y-85840000D02*
X79510000Y-81770000D01*
X79510000Y-85840000D02*
X84080000Y-85840000D01*
X79510000Y-81770000D02*
X77610000Y-81770000D01*
X80150000Y-90460000D02*
X83320000Y-90460000D01*
X80150000Y-90460000D02*
X80150000Y-87160000D01*
X80150000Y-87160000D02*
X83320000Y-87160000D01*
X80150000Y-85460000D02*
X83320000Y-85460000D01*
X80150000Y-85460000D02*
X80150000Y-82150000D01*
X80150000Y-82150000D02*
X83320000Y-82150000D01*
X83320000Y-82150000D02*
X83320000Y-82540000D01*
X83320000Y-85460000D02*
X83320000Y-85080000D01*
X83320000Y-87160000D02*
X83320000Y-87540000D01*
X83320000Y-90460000D02*
X83320000Y-90080000D01*
X77610000Y-81240000D02*
X84470000Y-81240000D01*
X84470000Y-81240000D02*
X87010000Y-81240000D01*
X87010000Y-81240000D02*
X87010000Y-91400000D01*
X87010000Y-81240000D02*
X90050000Y-81240000D01*
X87260000Y-86780000D02*
X89800000Y-86780000D01*
X89800000Y-86780000D02*
X89800000Y-90840000D01*
X89800000Y-90840000D02*
X87260000Y-90840000D01*
X87260000Y-90840000D02*
X87260000Y-86780000D01*
X87260000Y-85840000D02*
X89800000Y-85840000D01*
X87260000Y-85840000D02*
X87260000Y-81770000D01*
X87260000Y-81770000D02*
X89800000Y-81770000D01*
X89800000Y-85840000D02*
X89800000Y-81770000D01*
X88280000Y-87180000D02*
X88910000Y-90230000D01*
X88150000Y-87310000D02*
X88780000Y-90360000D01*
X88280000Y-82180000D02*
X88910000Y-85230000D01*
X88150000Y-82310000D02*
X88780000Y-85350000D01*
X84080000Y-81770000D02*
X84080000Y-82150000D01*
X84080000Y-85840000D02*
X84080000Y-85460000D01*
X84080000Y-85460000D02*
X84080000Y-82150000D01*
X84080000Y-90840000D02*
X84080000Y-90460000D01*
X84080000Y-86780000D02*
X84080000Y-87160000D01*
X84080000Y-87160000D02*
X84080000Y-90460000D01*
X88888699Y-92317028D02*
G75*
G03X87960000Y-92460000I-408699J-432972D01*
G01*
X88891687Y-95408239D02*
G75*
G03X88830000Y-92260000I-1351687J1548239D01*
G01*
X87998263Y-92417667D02*
G75*
G03X87950000Y-95400000I1901737J-1522333D01*
G01*
X87916004Y-95365620D02*
G75*
G03X88880000Y-95410000I503996J455620D01*
G01*
X87916004Y-90285620D02*
G75*
G03X88880000Y-90330000I503996J455620D01*
G01*
X87998263Y-87337667D02*
G75*
G03X87950000Y-90320000I1901737J-1522333D01*
G01*
X88891687Y-90328239D02*
G75*
G03X88830000Y-87180000I-1351687J1548239D01*
G01*
X88888699Y-87237028D02*
G75*
G03X87960000Y-87380000I-408699J-432972D01*
G01*
X87906005Y-85275532D02*
G75*
G03X88880000Y-85330000I513995J455532D01*
G01*
X87998263Y-82337667D02*
G75*
G03X87950000Y-85320000I1901737J-1522333D01*
G01*
X88891687Y-85328239D02*
G75*
G03X88830000Y-82180000I-1351687J1548239D01*
G01*
X88879005Y-82224574D02*
G75*
G03X87960000Y-82380000I-399005J-435426D01*
G01*
X174010995Y-95415426D02*
G75*
G03X174930000Y-95260000I399005J435426D01*
G01*
X173998313Y-92311761D02*
G75*
G03X174060000Y-95460000I1351687J-1548239D01*
G01*
X174891737Y-95302333D02*
G75*
G03X174940000Y-92320000I-1901737J1522333D01*
G01*
X174983995Y-92364468D02*
G75*
G03X174010000Y-92310000I-513995J-455532D01*
G01*
X174001301Y-90402972D02*
G75*
G03X174930000Y-90260000I408699J432972D01*
G01*
X173998313Y-87311761D02*
G75*
G03X174060000Y-90460000I1351687J-1548239D01*
G01*
X174891737Y-90302333D02*
G75*
G03X174940000Y-87320000I-1901737J1522333D01*
G01*
X174973996Y-87354380D02*
G75*
G03X174010000Y-87310000I-503996J-455620D01*
G01*
X174973996Y-82274380D02*
G75*
G03X174010000Y-82230000I-503996J-455620D01*
G01*
X174891737Y-85222333D02*
G75*
G03X174940000Y-82240000I-1901737J1522333D01*
G01*
X173998313Y-82231761D02*
G75*
G03X174060000Y-85380000I1351687J-1548239D01*
G01*
X174001301Y-85322972D02*
G75*
G03X174930000Y-85180000I408699J432972D01*
G01*
X178810000Y-90480000D02*
X178810000Y-87180000D01*
X178810000Y-90860000D02*
X178810000Y-90480000D01*
X178810000Y-86800000D02*
X178810000Y-87180000D01*
X178810000Y-92180000D02*
X178810000Y-95490000D01*
X178810000Y-91800000D02*
X178810000Y-92180000D01*
X178810000Y-95870000D02*
X178810000Y-95490000D01*
X174740000Y-95330000D02*
X174110000Y-92290000D01*
X174610000Y-95460000D02*
X173980000Y-92410000D01*
X174740000Y-90330000D02*
X174110000Y-87280000D01*
X174610000Y-90460000D02*
X173980000Y-87410000D01*
X173090000Y-91800000D02*
X173090000Y-95870000D01*
X175630000Y-95870000D02*
X173090000Y-95870000D01*
X175630000Y-91800000D02*
X175630000Y-95870000D01*
X175630000Y-91800000D02*
X173090000Y-91800000D01*
X175630000Y-86800000D02*
X175630000Y-90860000D01*
X173090000Y-86800000D02*
X175630000Y-86800000D01*
X173090000Y-90860000D02*
X173090000Y-86800000D01*
X175630000Y-90860000D02*
X173090000Y-90860000D01*
X175880000Y-96400000D02*
X172840000Y-96400000D01*
X175880000Y-96400000D02*
X175880000Y-86240000D01*
X178420000Y-96400000D02*
X175880000Y-96400000D01*
X185280000Y-96400000D02*
X178420000Y-96400000D01*
X179570000Y-87180000D02*
X179570000Y-87560000D01*
X179570000Y-90480000D02*
X179570000Y-90100000D01*
X179570000Y-92180000D02*
X179570000Y-92560000D01*
X179570000Y-95490000D02*
X179570000Y-95100000D01*
X182740000Y-95490000D02*
X179570000Y-95490000D01*
X182740000Y-92180000D02*
X182740000Y-95490000D01*
X182740000Y-92180000D02*
X179570000Y-92180000D01*
X182740000Y-90480000D02*
X179570000Y-90480000D01*
X182740000Y-87180000D02*
X182740000Y-90480000D01*
X182740000Y-87180000D02*
X179570000Y-87180000D01*
X183380000Y-95870000D02*
X185280000Y-95870000D01*
X183380000Y-91800000D02*
X178810000Y-91800000D01*
X183380000Y-91800000D02*
X183380000Y-95870000D01*
X183380000Y-86800000D02*
X185280000Y-86800000D01*
X183380000Y-90860000D02*
X178810000Y-90860000D01*
X183380000Y-90860000D02*
X183380000Y-86800000D01*
X185280000Y-95870000D02*
X185280000Y-91800000D01*
X185280000Y-96400000D02*
X185280000Y-95870000D01*
X178810000Y-95870000D02*
X183380000Y-95870000D01*
X185280000Y-91800000D02*
X185280000Y-90860000D01*
X185280000Y-91800000D02*
X183380000Y-91800000D01*
X185280000Y-86800000D02*
X185280000Y-86240000D01*
X185280000Y-90860000D02*
X185280000Y-86800000D01*
X178810000Y-86800000D02*
X183380000Y-86800000D01*
X185280000Y-90860000D02*
X183380000Y-90860000D01*
X183120000Y-85800000D02*
X184270000Y-85800000D01*
X184270000Y-85800000D02*
X185280000Y-85800000D01*
X181600000Y-90100000D02*
X178810000Y-90100000D01*
X178810000Y-90100000D02*
X178810000Y-87560000D01*
X181600000Y-87560000D02*
X178810000Y-87560000D01*
X181600000Y-90100000D02*
X181600000Y-87560000D01*
X181600000Y-95100000D02*
X178810000Y-95100000D01*
X178810000Y-95100000D02*
X178810000Y-92560000D01*
X181600000Y-92560000D02*
X178810000Y-92560000D01*
X181600000Y-95100000D02*
X181600000Y-92560000D01*
X181600000Y-85020000D02*
X181600000Y-82480000D01*
X181600000Y-82480000D02*
X178810000Y-82480000D01*
X178810000Y-85020000D02*
X178810000Y-82480000D01*
X181600000Y-85020000D02*
X178810000Y-85020000D01*
X172840000Y-81160000D02*
X175880000Y-81160000D01*
X172840000Y-81160000D02*
X172840000Y-80650000D01*
X172840000Y-80650000D02*
X177660000Y-80650000D01*
X177660000Y-80650000D02*
X177410000Y-81160000D01*
X184520000Y-80650000D02*
X184270000Y-81160000D01*
X184270000Y-81160000D02*
X185280000Y-81160000D01*
X182870000Y-80650000D02*
X183120000Y-81160000D01*
X183120000Y-81160000D02*
X184270000Y-81160000D01*
X182870000Y-80650000D02*
X184520000Y-80650000D01*
X185280000Y-85780000D02*
X183380000Y-85780000D01*
X178810000Y-81720000D02*
X183380000Y-81720000D01*
X185280000Y-81720000D02*
X185280000Y-81160000D01*
X183380000Y-85780000D02*
X183380000Y-81720000D01*
X183380000Y-81720000D02*
X185280000Y-81720000D01*
X182740000Y-82100000D02*
X179570000Y-82100000D01*
X182740000Y-82100000D02*
X182740000Y-85400000D01*
X182740000Y-85400000D02*
X179570000Y-85400000D01*
X179570000Y-85400000D02*
X179570000Y-85020000D01*
X179570000Y-82100000D02*
X179570000Y-82480000D01*
X177410000Y-81160000D02*
X178420000Y-81160000D01*
X178420000Y-81160000D02*
X183120000Y-81160000D01*
X175880000Y-81160000D02*
X177410000Y-81160000D01*
X175630000Y-85780000D02*
X173090000Y-85780000D01*
X173090000Y-85780000D02*
X173090000Y-81720000D01*
X173090000Y-81720000D02*
X175630000Y-81720000D01*
X175630000Y-81720000D02*
X175630000Y-85780000D01*
X174610000Y-85380000D02*
X173980000Y-82330000D01*
X174740000Y-85250000D02*
X174110000Y-82200000D01*
X178810000Y-81720000D02*
X178810000Y-82100000D01*
X178810000Y-85780000D02*
X178810000Y-85400000D01*
X178810000Y-85400000D02*
X178810000Y-82100000D01*
X172840000Y-96400000D02*
X172840000Y-81160000D01*
X175880000Y-86240000D02*
X175880000Y-81220000D01*
X185280000Y-81730000D02*
X185280000Y-86240000D01*
X183060000Y-85800000D02*
X178810000Y-85800000D01*
X178420000Y-81160000D02*
X178420000Y-96340000D01*
X158750000Y-93980000D02*
X158750000Y-95910000D01*
X158750000Y-104140000D02*
X158750000Y-102210000D01*
X157500000Y-95910000D02*
X157500000Y-102210000D01*
X160000000Y-95910000D02*
X157500000Y-95910000D01*
X160000000Y-102210000D02*
X160000000Y-95910000D01*
X157500000Y-102210000D02*
X160000000Y-102210000D01*
X157500000Y-83160000D02*
X160000000Y-83160000D01*
X160000000Y-83160000D02*
X160000000Y-76860000D01*
X160000000Y-76860000D02*
X157500000Y-76860000D01*
X157500000Y-76860000D02*
X157500000Y-83160000D01*
X158750000Y-85090000D02*
X158750000Y-83160000D01*
X158750000Y-74930000D02*
X158750000Y-76860000D01*
D12*
X77216190Y-78312380D02*
X77216190Y-77312380D01*
X77549523Y-78026666D01*
X77882857Y-77312380D01*
X77882857Y-78312380D01*
X78263809Y-77312380D02*
X78882857Y-77312380D01*
X78549523Y-77693333D01*
X78692380Y-77693333D01*
X78787619Y-77740952D01*
X78835238Y-77788571D01*
X78882857Y-77883809D01*
X78882857Y-78121904D01*
X78835238Y-78217142D01*
X78787619Y-78264761D01*
X78692380Y-78312380D01*
X78406666Y-78312380D01*
X78311428Y-78264761D01*
X78263809Y-78217142D01*
X79311428Y-78217142D02*
X79359047Y-78264761D01*
X79311428Y-78312380D01*
X79263809Y-78264761D01*
X79311428Y-78217142D01*
X79311428Y-78312380D01*
X79740000Y-77407619D02*
X79787619Y-77360000D01*
X79882857Y-77312380D01*
X80120952Y-77312380D01*
X80216190Y-77360000D01*
X80263809Y-77407619D01*
X80311428Y-77502857D01*
X80311428Y-77598095D01*
X80263809Y-77740952D01*
X79692380Y-78312380D01*
X80311428Y-78312380D01*
X181356190Y-111332380D02*
X181356190Y-110332380D01*
X181689523Y-111046666D01*
X182022857Y-110332380D01*
X182022857Y-111332380D01*
X182403809Y-110332380D02*
X183022857Y-110332380D01*
X182689523Y-110713333D01*
X182832380Y-110713333D01*
X182927619Y-110760952D01*
X182975238Y-110808571D01*
X183022857Y-110903809D01*
X183022857Y-111141904D01*
X182975238Y-111237142D01*
X182927619Y-111284761D01*
X182832380Y-111332380D01*
X182546666Y-111332380D01*
X182451428Y-111284761D01*
X182403809Y-111237142D01*
X183451428Y-111237142D02*
X183499047Y-111284761D01*
X183451428Y-111332380D01*
X183403809Y-111284761D01*
X183451428Y-111237142D01*
X183451428Y-111332380D01*
X183880000Y-110427619D02*
X183927619Y-110380000D01*
X184022857Y-110332380D01*
X184260952Y-110332380D01*
X184356190Y-110380000D01*
X184403809Y-110427619D01*
X184451428Y-110522857D01*
X184451428Y-110618095D01*
X184403809Y-110760952D01*
X183832380Y-111332380D01*
X184451428Y-111332380D01*
X182418095Y-107132380D02*
X182418095Y-106132380D01*
X182418095Y-106608571D02*
X182989523Y-106608571D01*
X182989523Y-107132380D02*
X182989523Y-106132380D01*
X183894285Y-106465714D02*
X183894285Y-107132380D01*
X183656190Y-106084761D02*
X183418095Y-106799047D01*
X184037142Y-106799047D01*
X181356190Y-78312380D02*
X181356190Y-77312380D01*
X181689523Y-78026666D01*
X182022857Y-77312380D01*
X182022857Y-78312380D01*
X182403809Y-77312380D02*
X183022857Y-77312380D01*
X182689523Y-77693333D01*
X182832380Y-77693333D01*
X182927619Y-77740952D01*
X182975238Y-77788571D01*
X183022857Y-77883809D01*
X183022857Y-78121904D01*
X182975238Y-78217142D01*
X182927619Y-78264761D01*
X182832380Y-78312380D01*
X182546666Y-78312380D01*
X182451428Y-78264761D01*
X182403809Y-78217142D01*
X183451428Y-78217142D02*
X183499047Y-78264761D01*
X183451428Y-78312380D01*
X183403809Y-78264761D01*
X183451428Y-78217142D01*
X183451428Y-78312380D01*
X183880000Y-77407619D02*
X183927619Y-77360000D01*
X184022857Y-77312380D01*
X184260952Y-77312380D01*
X184356190Y-77360000D01*
X184403809Y-77407619D01*
X184451428Y-77502857D01*
X184451428Y-77598095D01*
X184403809Y-77740952D01*
X183832380Y-78312380D01*
X184451428Y-78312380D01*
X182418095Y-74112380D02*
X182418095Y-73112380D01*
X182418095Y-73588571D02*
X182989523Y-73588571D01*
X182989523Y-74112380D02*
X182989523Y-73112380D01*
X183370476Y-73112380D02*
X183989523Y-73112380D01*
X183656190Y-73493333D01*
X183799047Y-73493333D01*
X183894285Y-73540952D01*
X183941904Y-73588571D01*
X183989523Y-73683809D01*
X183989523Y-73921904D01*
X183941904Y-74017142D01*
X183894285Y-74064761D01*
X183799047Y-74112380D01*
X183513333Y-74112380D01*
X183418095Y-74064761D01*
X183370476Y-74017142D01*
X77216190Y-111332380D02*
X77216190Y-110332380D01*
X77549523Y-111046666D01*
X77882857Y-110332380D01*
X77882857Y-111332380D01*
X78263809Y-110332380D02*
X78882857Y-110332380D01*
X78549523Y-110713333D01*
X78692380Y-110713333D01*
X78787619Y-110760952D01*
X78835238Y-110808571D01*
X78882857Y-110903809D01*
X78882857Y-111141904D01*
X78835238Y-111237142D01*
X78787619Y-111284761D01*
X78692380Y-111332380D01*
X78406666Y-111332380D01*
X78311428Y-111284761D01*
X78263809Y-111237142D01*
X79311428Y-111237142D02*
X79359047Y-111284761D01*
X79311428Y-111332380D01*
X79263809Y-111284761D01*
X79311428Y-111237142D01*
X79311428Y-111332380D01*
X79740000Y-110427619D02*
X79787619Y-110380000D01*
X79882857Y-110332380D01*
X80120952Y-110332380D01*
X80216190Y-110380000D01*
X80263809Y-110427619D01*
X80311428Y-110522857D01*
X80311428Y-110618095D01*
X80263809Y-110760952D01*
X79692380Y-111332380D01*
X80311428Y-111332380D01*
X78278095Y-107132380D02*
X78278095Y-106132380D01*
X78278095Y-106608571D02*
X78849523Y-106608571D01*
X78849523Y-107132380D02*
X78849523Y-106132380D01*
X79278095Y-106227619D02*
X79325714Y-106180000D01*
X79420952Y-106132380D01*
X79659047Y-106132380D01*
X79754285Y-106180000D01*
X79801904Y-106227619D01*
X79849523Y-106322857D01*
X79849523Y-106418095D01*
X79801904Y-106560952D01*
X79230476Y-107132380D01*
X79849523Y-107132380D01*
X124097619Y-102556666D02*
X124050000Y-102509047D01*
X124002380Y-102413809D01*
X124002380Y-102175714D01*
X124050000Y-102080476D01*
X124097619Y-102032857D01*
X124192857Y-101985238D01*
X124288095Y-101985238D01*
X124430952Y-102032857D01*
X125002380Y-102604285D01*
X125002380Y-101985238D01*
X124097619Y-101604285D02*
X124050000Y-101556666D01*
X124002380Y-101461428D01*
X124002380Y-101223333D01*
X124050000Y-101128095D01*
X124097619Y-101080476D01*
X124192857Y-101032857D01*
X124288095Y-101032857D01*
X124430952Y-101080476D01*
X125002380Y-101651904D01*
X125002380Y-101032857D01*
X124002380Y-100413809D02*
X124002380Y-100318571D01*
X124050000Y-100223333D01*
X124097619Y-100175714D01*
X124192857Y-100128095D01*
X124383333Y-100080476D01*
X124621428Y-100080476D01*
X124811904Y-100128095D01*
X124907142Y-100175714D01*
X124954761Y-100223333D01*
X125002380Y-100318571D01*
X125002380Y-100413809D01*
X124954761Y-100509047D01*
X124907142Y-100556666D01*
X124811904Y-100604285D01*
X124621428Y-100651904D01*
X124383333Y-100651904D01*
X124192857Y-100604285D01*
X124097619Y-100556666D01*
X124050000Y-100509047D01*
X124002380Y-100413809D01*
X124002380Y-99461428D02*
X124002380Y-99366190D01*
X124050000Y-99270952D01*
X124097619Y-99223333D01*
X124192857Y-99175714D01*
X124383333Y-99128095D01*
X124621428Y-99128095D01*
X124811904Y-99175714D01*
X124907142Y-99223333D01*
X124954761Y-99270952D01*
X125002380Y-99366190D01*
X125002380Y-99461428D01*
X124954761Y-99556666D01*
X124907142Y-99604285D01*
X124811904Y-99651904D01*
X124621428Y-99699523D01*
X124383333Y-99699523D01*
X124192857Y-99651904D01*
X124097619Y-99604285D01*
X124050000Y-99556666D01*
X124002380Y-99461428D01*
X124335714Y-98270952D02*
X125002380Y-98270952D01*
X124335714Y-98699523D02*
X124859523Y-98699523D01*
X124954761Y-98651904D01*
X125002380Y-98556666D01*
X125002380Y-98413809D01*
X124954761Y-98318571D01*
X124907142Y-98270952D01*
X114657142Y-100556666D02*
X114704761Y-100604285D01*
X114752380Y-100747142D01*
X114752380Y-100842380D01*
X114704761Y-100985238D01*
X114609523Y-101080476D01*
X114514285Y-101128095D01*
X114323809Y-101175714D01*
X114180952Y-101175714D01*
X113990476Y-101128095D01*
X113895238Y-101080476D01*
X113800000Y-100985238D01*
X113752380Y-100842380D01*
X113752380Y-100747142D01*
X113800000Y-100604285D01*
X113847619Y-100556666D01*
X114752380Y-99604285D02*
X114752380Y-100175714D01*
X114752380Y-99890000D02*
X113752380Y-99890000D01*
X113895238Y-99985238D01*
X113990476Y-100080476D01*
X114038095Y-100175714D01*
X124097619Y-80966666D02*
X124050000Y-80919047D01*
X124002380Y-80823809D01*
X124002380Y-80585714D01*
X124050000Y-80490476D01*
X124097619Y-80442857D01*
X124192857Y-80395238D01*
X124288095Y-80395238D01*
X124430952Y-80442857D01*
X125002380Y-81014285D01*
X125002380Y-80395238D01*
X124097619Y-80014285D02*
X124050000Y-79966666D01*
X124002380Y-79871428D01*
X124002380Y-79633333D01*
X124050000Y-79538095D01*
X124097619Y-79490476D01*
X124192857Y-79442857D01*
X124288095Y-79442857D01*
X124430952Y-79490476D01*
X125002380Y-80061904D01*
X125002380Y-79442857D01*
X124002380Y-78823809D02*
X124002380Y-78728571D01*
X124050000Y-78633333D01*
X124097619Y-78585714D01*
X124192857Y-78538095D01*
X124383333Y-78490476D01*
X124621428Y-78490476D01*
X124811904Y-78538095D01*
X124907142Y-78585714D01*
X124954761Y-78633333D01*
X125002380Y-78728571D01*
X125002380Y-78823809D01*
X124954761Y-78919047D01*
X124907142Y-78966666D01*
X124811904Y-79014285D01*
X124621428Y-79061904D01*
X124383333Y-79061904D01*
X124192857Y-79014285D01*
X124097619Y-78966666D01*
X124050000Y-78919047D01*
X124002380Y-78823809D01*
X124002380Y-77871428D02*
X124002380Y-77776190D01*
X124050000Y-77680952D01*
X124097619Y-77633333D01*
X124192857Y-77585714D01*
X124383333Y-77538095D01*
X124621428Y-77538095D01*
X124811904Y-77585714D01*
X124907142Y-77633333D01*
X124954761Y-77680952D01*
X125002380Y-77776190D01*
X125002380Y-77871428D01*
X124954761Y-77966666D01*
X124907142Y-78014285D01*
X124811904Y-78061904D01*
X124621428Y-78109523D01*
X124383333Y-78109523D01*
X124192857Y-78061904D01*
X124097619Y-78014285D01*
X124050000Y-77966666D01*
X124002380Y-77871428D01*
X124335714Y-76680952D02*
X125002380Y-76680952D01*
X124335714Y-77109523D02*
X124859523Y-77109523D01*
X124954761Y-77061904D01*
X125002380Y-76966666D01*
X125002380Y-76823809D01*
X124954761Y-76728571D01*
X124907142Y-76680952D01*
X114657142Y-78966666D02*
X114704761Y-79014285D01*
X114752380Y-79157142D01*
X114752380Y-79252380D01*
X114704761Y-79395238D01*
X114609523Y-79490476D01*
X114514285Y-79538095D01*
X114323809Y-79585714D01*
X114180952Y-79585714D01*
X113990476Y-79538095D01*
X113895238Y-79490476D01*
X113800000Y-79395238D01*
X113752380Y-79252380D01*
X113752380Y-79157142D01*
X113800000Y-79014285D01*
X113847619Y-78966666D01*
X113847619Y-78585714D02*
X113800000Y-78538095D01*
X113752380Y-78442857D01*
X113752380Y-78204761D01*
X113800000Y-78109523D01*
X113847619Y-78061904D01*
X113942857Y-78014285D01*
X114038095Y-78014285D01*
X114180952Y-78061904D01*
X114752380Y-78633333D01*
X114752380Y-78014285D01*
X146957619Y-102556666D02*
X146910000Y-102509047D01*
X146862380Y-102413809D01*
X146862380Y-102175714D01*
X146910000Y-102080476D01*
X146957619Y-102032857D01*
X147052857Y-101985238D01*
X147148095Y-101985238D01*
X147290952Y-102032857D01*
X147862380Y-102604285D01*
X147862380Y-101985238D01*
X146957619Y-101604285D02*
X146910000Y-101556666D01*
X146862380Y-101461428D01*
X146862380Y-101223333D01*
X146910000Y-101128095D01*
X146957619Y-101080476D01*
X147052857Y-101032857D01*
X147148095Y-101032857D01*
X147290952Y-101080476D01*
X147862380Y-101651904D01*
X147862380Y-101032857D01*
X146862380Y-100413809D02*
X146862380Y-100318571D01*
X146910000Y-100223333D01*
X146957619Y-100175714D01*
X147052857Y-100128095D01*
X147243333Y-100080476D01*
X147481428Y-100080476D01*
X147671904Y-100128095D01*
X147767142Y-100175714D01*
X147814761Y-100223333D01*
X147862380Y-100318571D01*
X147862380Y-100413809D01*
X147814761Y-100509047D01*
X147767142Y-100556666D01*
X147671904Y-100604285D01*
X147481428Y-100651904D01*
X147243333Y-100651904D01*
X147052857Y-100604285D01*
X146957619Y-100556666D01*
X146910000Y-100509047D01*
X146862380Y-100413809D01*
X146862380Y-99461428D02*
X146862380Y-99366190D01*
X146910000Y-99270952D01*
X146957619Y-99223333D01*
X147052857Y-99175714D01*
X147243333Y-99128095D01*
X147481428Y-99128095D01*
X147671904Y-99175714D01*
X147767142Y-99223333D01*
X147814761Y-99270952D01*
X147862380Y-99366190D01*
X147862380Y-99461428D01*
X147814761Y-99556666D01*
X147767142Y-99604285D01*
X147671904Y-99651904D01*
X147481428Y-99699523D01*
X147243333Y-99699523D01*
X147052857Y-99651904D01*
X146957619Y-99604285D01*
X146910000Y-99556666D01*
X146862380Y-99461428D01*
X147195714Y-98270952D02*
X147862380Y-98270952D01*
X147195714Y-98699523D02*
X147719523Y-98699523D01*
X147814761Y-98651904D01*
X147862380Y-98556666D01*
X147862380Y-98413809D01*
X147814761Y-98318571D01*
X147767142Y-98270952D01*
X137517142Y-100556666D02*
X137564761Y-100604285D01*
X137612380Y-100747142D01*
X137612380Y-100842380D01*
X137564761Y-100985238D01*
X137469523Y-101080476D01*
X137374285Y-101128095D01*
X137183809Y-101175714D01*
X137040952Y-101175714D01*
X136850476Y-101128095D01*
X136755238Y-101080476D01*
X136660000Y-100985238D01*
X136612380Y-100842380D01*
X136612380Y-100747142D01*
X136660000Y-100604285D01*
X136707619Y-100556666D01*
X136612380Y-100223333D02*
X136612380Y-99604285D01*
X136993333Y-99937619D01*
X136993333Y-99794761D01*
X137040952Y-99699523D01*
X137088571Y-99651904D01*
X137183809Y-99604285D01*
X137421904Y-99604285D01*
X137517142Y-99651904D01*
X137564761Y-99699523D01*
X137612380Y-99794761D01*
X137612380Y-100080476D01*
X137564761Y-100175714D01*
X137517142Y-100223333D01*
X146957619Y-80966666D02*
X146910000Y-80919047D01*
X146862380Y-80823809D01*
X146862380Y-80585714D01*
X146910000Y-80490476D01*
X146957619Y-80442857D01*
X147052857Y-80395238D01*
X147148095Y-80395238D01*
X147290952Y-80442857D01*
X147862380Y-81014285D01*
X147862380Y-80395238D01*
X146957619Y-80014285D02*
X146910000Y-79966666D01*
X146862380Y-79871428D01*
X146862380Y-79633333D01*
X146910000Y-79538095D01*
X146957619Y-79490476D01*
X147052857Y-79442857D01*
X147148095Y-79442857D01*
X147290952Y-79490476D01*
X147862380Y-80061904D01*
X147862380Y-79442857D01*
X146862380Y-78823809D02*
X146862380Y-78728571D01*
X146910000Y-78633333D01*
X146957619Y-78585714D01*
X147052857Y-78538095D01*
X147243333Y-78490476D01*
X147481428Y-78490476D01*
X147671904Y-78538095D01*
X147767142Y-78585714D01*
X147814761Y-78633333D01*
X147862380Y-78728571D01*
X147862380Y-78823809D01*
X147814761Y-78919047D01*
X147767142Y-78966666D01*
X147671904Y-79014285D01*
X147481428Y-79061904D01*
X147243333Y-79061904D01*
X147052857Y-79014285D01*
X146957619Y-78966666D01*
X146910000Y-78919047D01*
X146862380Y-78823809D01*
X146862380Y-77871428D02*
X146862380Y-77776190D01*
X146910000Y-77680952D01*
X146957619Y-77633333D01*
X147052857Y-77585714D01*
X147243333Y-77538095D01*
X147481428Y-77538095D01*
X147671904Y-77585714D01*
X147767142Y-77633333D01*
X147814761Y-77680952D01*
X147862380Y-77776190D01*
X147862380Y-77871428D01*
X147814761Y-77966666D01*
X147767142Y-78014285D01*
X147671904Y-78061904D01*
X147481428Y-78109523D01*
X147243333Y-78109523D01*
X147052857Y-78061904D01*
X146957619Y-78014285D01*
X146910000Y-77966666D01*
X146862380Y-77871428D01*
X147195714Y-76680952D02*
X147862380Y-76680952D01*
X147195714Y-77109523D02*
X147719523Y-77109523D01*
X147814761Y-77061904D01*
X147862380Y-76966666D01*
X147862380Y-76823809D01*
X147814761Y-76728571D01*
X147767142Y-76680952D01*
X137517142Y-78966666D02*
X137564761Y-79014285D01*
X137612380Y-79157142D01*
X137612380Y-79252380D01*
X137564761Y-79395238D01*
X137469523Y-79490476D01*
X137374285Y-79538095D01*
X137183809Y-79585714D01*
X137040952Y-79585714D01*
X136850476Y-79538095D01*
X136755238Y-79490476D01*
X136660000Y-79395238D01*
X136612380Y-79252380D01*
X136612380Y-79157142D01*
X136660000Y-79014285D01*
X136707619Y-78966666D01*
X136945714Y-78109523D02*
X137612380Y-78109523D01*
X136564761Y-78347619D02*
X137279047Y-78585714D01*
X137279047Y-77966666D01*
X153082380Y-102854285D02*
X153082380Y-102759047D01*
X153130000Y-102663809D01*
X153177619Y-102616190D01*
X153272857Y-102568571D01*
X153463333Y-102520952D01*
X153701428Y-102520952D01*
X153891904Y-102568571D01*
X153987142Y-102616190D01*
X154034761Y-102663809D01*
X154082380Y-102759047D01*
X154082380Y-102854285D01*
X154034761Y-102949523D01*
X153987142Y-102997142D01*
X153891904Y-103044761D01*
X153701428Y-103092380D01*
X153463333Y-103092380D01*
X153272857Y-103044761D01*
X153177619Y-102997142D01*
X153130000Y-102949523D01*
X153082380Y-102854285D01*
X153987142Y-102092380D02*
X154034761Y-102044761D01*
X154082380Y-102092380D01*
X154034761Y-102140000D01*
X153987142Y-102092380D01*
X154082380Y-102092380D01*
X154082380Y-101092380D02*
X154082380Y-101663809D01*
X154082380Y-101378095D02*
X153082380Y-101378095D01*
X153225238Y-101473333D01*
X153320476Y-101568571D01*
X153368095Y-101663809D01*
X153415714Y-100235238D02*
X154082380Y-100235238D01*
X153415714Y-100663809D02*
X153939523Y-100663809D01*
X154034761Y-100616190D01*
X154082380Y-100520952D01*
X154082380Y-100378095D01*
X154034761Y-100282857D01*
X153987142Y-100235238D01*
X151487142Y-101806666D02*
X151534761Y-101854285D01*
X151582380Y-101997142D01*
X151582380Y-102092380D01*
X151534761Y-102235238D01*
X151439523Y-102330476D01*
X151344285Y-102378095D01*
X151153809Y-102425714D01*
X151010952Y-102425714D01*
X150820476Y-102378095D01*
X150725238Y-102330476D01*
X150630000Y-102235238D01*
X150582380Y-102092380D01*
X150582380Y-101997142D01*
X150630000Y-101854285D01*
X150677619Y-101806666D01*
X150582380Y-100901904D02*
X150582380Y-101378095D01*
X151058571Y-101425714D01*
X151010952Y-101378095D01*
X150963333Y-101282857D01*
X150963333Y-101044761D01*
X151010952Y-100949523D01*
X151058571Y-100901904D01*
X151153809Y-100854285D01*
X151391904Y-100854285D01*
X151487142Y-100901904D01*
X151534761Y-100949523D01*
X151582380Y-101044761D01*
X151582380Y-101282857D01*
X151534761Y-101378095D01*
X151487142Y-101425714D01*
X153082380Y-78724285D02*
X153082380Y-78629047D01*
X153130000Y-78533809D01*
X153177619Y-78486190D01*
X153272857Y-78438571D01*
X153463333Y-78390952D01*
X153701428Y-78390952D01*
X153891904Y-78438571D01*
X153987142Y-78486190D01*
X154034761Y-78533809D01*
X154082380Y-78629047D01*
X154082380Y-78724285D01*
X154034761Y-78819523D01*
X153987142Y-78867142D01*
X153891904Y-78914761D01*
X153701428Y-78962380D01*
X153463333Y-78962380D01*
X153272857Y-78914761D01*
X153177619Y-78867142D01*
X153130000Y-78819523D01*
X153082380Y-78724285D01*
X153987142Y-77962380D02*
X154034761Y-77914761D01*
X154082380Y-77962380D01*
X154034761Y-78010000D01*
X153987142Y-77962380D01*
X154082380Y-77962380D01*
X154082380Y-76962380D02*
X154082380Y-77533809D01*
X154082380Y-77248095D02*
X153082380Y-77248095D01*
X153225238Y-77343333D01*
X153320476Y-77438571D01*
X153368095Y-77533809D01*
X153415714Y-76105238D02*
X154082380Y-76105238D01*
X153415714Y-76533809D02*
X153939523Y-76533809D01*
X154034761Y-76486190D01*
X154082380Y-76390952D01*
X154082380Y-76248095D01*
X154034761Y-76152857D01*
X153987142Y-76105238D01*
X151487142Y-77676666D02*
X151534761Y-77724285D01*
X151582380Y-77867142D01*
X151582380Y-77962380D01*
X151534761Y-78105238D01*
X151439523Y-78200476D01*
X151344285Y-78248095D01*
X151153809Y-78295714D01*
X151010952Y-78295714D01*
X150820476Y-78248095D01*
X150725238Y-78200476D01*
X150630000Y-78105238D01*
X150582380Y-77962380D01*
X150582380Y-77867142D01*
X150630000Y-77724285D01*
X150677619Y-77676666D01*
X150582380Y-76819523D02*
X150582380Y-77010000D01*
X150630000Y-77105238D01*
X150677619Y-77152857D01*
X150820476Y-77248095D01*
X151010952Y-77295714D01*
X151391904Y-77295714D01*
X151487142Y-77248095D01*
X151534761Y-77200476D01*
X151582380Y-77105238D01*
X151582380Y-76914761D01*
X151534761Y-76819523D01*
X151487142Y-76771904D01*
X151391904Y-76724285D01*
X151153809Y-76724285D01*
X151058571Y-76771904D01*
X151010952Y-76819523D01*
X150963333Y-76914761D01*
X150963333Y-77105238D01*
X151010952Y-77200476D01*
X151058571Y-77248095D01*
X151153809Y-77295714D01*
X103172380Y-92480476D02*
X102172380Y-92480476D01*
X103172380Y-91909047D02*
X102600952Y-92337619D01*
X102172380Y-91909047D02*
X102743809Y-92480476D01*
X102648571Y-91147142D02*
X102696190Y-91004285D01*
X102743809Y-90956666D01*
X102839047Y-90909047D01*
X102981904Y-90909047D01*
X103077142Y-90956666D01*
X103124761Y-91004285D01*
X103172380Y-91099523D01*
X103172380Y-91480476D01*
X102172380Y-91480476D01*
X102172380Y-91147142D01*
X102220000Y-91051904D01*
X102267619Y-91004285D01*
X102362857Y-90956666D01*
X102458095Y-90956666D01*
X102553333Y-91004285D01*
X102600952Y-91051904D01*
X102648571Y-91147142D01*
X102648571Y-91480476D01*
X102172380Y-90480476D02*
X102981904Y-90480476D01*
X103077142Y-90432857D01*
X103124761Y-90385238D01*
X103172380Y-90290000D01*
X103172380Y-90099523D01*
X103124761Y-90004285D01*
X103077142Y-89956666D01*
X102981904Y-89909047D01*
X102172380Y-89909047D01*
X102505714Y-89004285D02*
X103172380Y-89004285D01*
X102124761Y-89242380D02*
X102839047Y-89480476D01*
X102839047Y-88861428D01*
X102886666Y-88528095D02*
X102886666Y-88051904D01*
X103172380Y-88623333D02*
X102172380Y-88290000D01*
X103172380Y-87956666D01*
X100272380Y-90828095D02*
X99272380Y-90828095D01*
X99272380Y-90590000D01*
X99320000Y-90447142D01*
X99415238Y-90351904D01*
X99510476Y-90304285D01*
X99700952Y-90256666D01*
X99843809Y-90256666D01*
X100034285Y-90304285D01*
X100129523Y-90351904D01*
X100224761Y-90447142D01*
X100272380Y-90590000D01*
X100272380Y-90828095D01*
X100272380Y-89304285D02*
X100272380Y-89875714D01*
X100272380Y-89590000D02*
X99272380Y-89590000D01*
X99415238Y-89685238D01*
X99510476Y-89780476D01*
X99558095Y-89875714D01*
X163862380Y-98742380D02*
X163195714Y-98742380D01*
X163386190Y-98742380D02*
X163290952Y-98694761D01*
X163243333Y-98647142D01*
X163195714Y-98551904D01*
X163195714Y-98456666D01*
X163814761Y-97742380D02*
X163862380Y-97837619D01*
X163862380Y-98028095D01*
X163814761Y-98123333D01*
X163719523Y-98170952D01*
X163338571Y-98170952D01*
X163243333Y-98123333D01*
X163195714Y-98028095D01*
X163195714Y-97837619D01*
X163243333Y-97742380D01*
X163338571Y-97694761D01*
X163433809Y-97694761D01*
X163529047Y-98170952D01*
X163862380Y-96837619D02*
X162862380Y-96837619D01*
X163814761Y-96837619D02*
X163862380Y-96932857D01*
X163862380Y-97123333D01*
X163814761Y-97218571D01*
X163767142Y-97266190D01*
X163671904Y-97313809D01*
X163386190Y-97313809D01*
X163290952Y-97266190D01*
X163243333Y-97218571D01*
X163195714Y-97123333D01*
X163195714Y-96932857D01*
X163243333Y-96837619D01*
X169782380Y-77152380D02*
X169115714Y-77152380D01*
X169306190Y-77152380D02*
X169210952Y-77104761D01*
X169163333Y-77057142D01*
X169115714Y-76961904D01*
X169115714Y-76866666D01*
X169734761Y-76152380D02*
X169782380Y-76247619D01*
X169782380Y-76438095D01*
X169734761Y-76533333D01*
X169639523Y-76580952D01*
X169258571Y-76580952D01*
X169163333Y-76533333D01*
X169115714Y-76438095D01*
X169115714Y-76247619D01*
X169163333Y-76152380D01*
X169258571Y-76104761D01*
X169353809Y-76104761D01*
X169449047Y-76580952D01*
X169782380Y-75247619D02*
X168782380Y-75247619D01*
X169734761Y-75247619D02*
X169782380Y-75342857D01*
X169782380Y-75533333D01*
X169734761Y-75628571D01*
X169687142Y-75676190D01*
X169591904Y-75723809D01*
X169306190Y-75723809D01*
X169210952Y-75676190D01*
X169163333Y-75628571D01*
X169115714Y-75533333D01*
X169115714Y-75342857D01*
X169163333Y-75247619D01*
X76972380Y-91246190D02*
X76448571Y-91246190D01*
X76353333Y-91293809D01*
X76305714Y-91389047D01*
X76305714Y-91579523D01*
X76353333Y-91674761D01*
X76924761Y-91246190D02*
X76972380Y-91341428D01*
X76972380Y-91579523D01*
X76924761Y-91674761D01*
X76829523Y-91722380D01*
X76734285Y-91722380D01*
X76639047Y-91674761D01*
X76591428Y-91579523D01*
X76591428Y-91341428D01*
X76543809Y-91246190D01*
X76924761Y-90341428D02*
X76972380Y-90436666D01*
X76972380Y-90627142D01*
X76924761Y-90722380D01*
X76877142Y-90770000D01*
X76781904Y-90817619D01*
X76496190Y-90817619D01*
X76400952Y-90770000D01*
X76353333Y-90722380D01*
X76305714Y-90627142D01*
X76305714Y-90436666D01*
X76353333Y-90341428D01*
X76972380Y-89150952D02*
X76305714Y-89150952D01*
X75972380Y-89150952D02*
X76020000Y-89198571D01*
X76067619Y-89150952D01*
X76020000Y-89103333D01*
X75972380Y-89150952D01*
X76067619Y-89150952D01*
X76305714Y-88674761D02*
X76972380Y-88674761D01*
X76400952Y-88674761D02*
X76353333Y-88627142D01*
X76305714Y-88531904D01*
X76305714Y-88389047D01*
X76353333Y-88293809D01*
X76448571Y-88246190D01*
X76972380Y-88246190D01*
X76305714Y-87770000D02*
X77305714Y-87770000D01*
X76353333Y-87770000D02*
X76305714Y-87674761D01*
X76305714Y-87484285D01*
X76353333Y-87389047D01*
X76400952Y-87341428D01*
X76496190Y-87293809D01*
X76781904Y-87293809D01*
X76877142Y-87341428D01*
X76924761Y-87389047D01*
X76972380Y-87484285D01*
X76972380Y-87674761D01*
X76924761Y-87770000D01*
X76305714Y-86436666D02*
X76972380Y-86436666D01*
X76305714Y-86865238D02*
X76829523Y-86865238D01*
X76924761Y-86817619D01*
X76972380Y-86722380D01*
X76972380Y-86579523D01*
X76924761Y-86484285D01*
X76877142Y-86436666D01*
X76305714Y-86103333D02*
X76305714Y-85722380D01*
X75972380Y-85960476D02*
X76829523Y-85960476D01*
X76924761Y-85912857D01*
X76972380Y-85817619D01*
X76972380Y-85722380D01*
X85272380Y-89153333D02*
X85986666Y-89153333D01*
X86129523Y-89200952D01*
X86224761Y-89296190D01*
X86272380Y-89439047D01*
X86272380Y-89534285D01*
X86272380Y-88153333D02*
X86272380Y-88724761D01*
X86272380Y-88439047D02*
X85272380Y-88439047D01*
X85415238Y-88534285D01*
X85510476Y-88629523D01*
X85558095Y-88724761D01*
X186822380Y-91846190D02*
X185822380Y-91846190D01*
X186774761Y-91846190D02*
X186822380Y-91941428D01*
X186822380Y-92131904D01*
X186774761Y-92227142D01*
X186727142Y-92274761D01*
X186631904Y-92322380D01*
X186346190Y-92322380D01*
X186250952Y-92274761D01*
X186203333Y-92227142D01*
X186155714Y-92131904D01*
X186155714Y-91941428D01*
X186203333Y-91846190D01*
X186774761Y-90941428D02*
X186822380Y-91036666D01*
X186822380Y-91227142D01*
X186774761Y-91322380D01*
X186727142Y-91370000D01*
X186631904Y-91417619D01*
X186346190Y-91417619D01*
X186250952Y-91370000D01*
X186203333Y-91322380D01*
X186155714Y-91227142D01*
X186155714Y-91036666D01*
X186203333Y-90941428D01*
X186822380Y-89608095D02*
X186774761Y-89703333D01*
X186727142Y-89750952D01*
X186631904Y-89798571D01*
X186346190Y-89798571D01*
X186250952Y-89750952D01*
X186203333Y-89703333D01*
X186155714Y-89608095D01*
X186155714Y-89465238D01*
X186203333Y-89370000D01*
X186250952Y-89322380D01*
X186346190Y-89274761D01*
X186631904Y-89274761D01*
X186727142Y-89322380D01*
X186774761Y-89370000D01*
X186822380Y-89465238D01*
X186822380Y-89608095D01*
X186155714Y-88417619D02*
X186822380Y-88417619D01*
X186155714Y-88846190D02*
X186679523Y-88846190D01*
X186774761Y-88798571D01*
X186822380Y-88703333D01*
X186822380Y-88560476D01*
X186774761Y-88465238D01*
X186727142Y-88417619D01*
X186155714Y-88084285D02*
X186155714Y-87703333D01*
X185822380Y-87941428D02*
X186679523Y-87941428D01*
X186774761Y-87893809D01*
X186822380Y-87798571D01*
X186822380Y-87703333D01*
X186155714Y-87370000D02*
X187155714Y-87370000D01*
X186203333Y-87370000D02*
X186155714Y-87274761D01*
X186155714Y-87084285D01*
X186203333Y-86989047D01*
X186250952Y-86941428D01*
X186346190Y-86893809D01*
X186631904Y-86893809D01*
X186727142Y-86941428D01*
X186774761Y-86989047D01*
X186822380Y-87084285D01*
X186822380Y-87274761D01*
X186774761Y-87370000D01*
X186155714Y-86036666D02*
X186822380Y-86036666D01*
X186155714Y-86465238D02*
X186679523Y-86465238D01*
X186774761Y-86417619D01*
X186822380Y-86322380D01*
X186822380Y-86179523D01*
X186774761Y-86084285D01*
X186727142Y-86036666D01*
X186155714Y-85703333D02*
X186155714Y-85322380D01*
X185822380Y-85560476D02*
X186679523Y-85560476D01*
X186774761Y-85512857D01*
X186822380Y-85417619D01*
X186822380Y-85322380D01*
X176522380Y-89153333D02*
X177236666Y-89153333D01*
X177379523Y-89200952D01*
X177474761Y-89296190D01*
X177522380Y-89439047D01*
X177522380Y-89534285D01*
X176617619Y-88724761D02*
X176570000Y-88677142D01*
X176522380Y-88581904D01*
X176522380Y-88343809D01*
X176570000Y-88248571D01*
X176617619Y-88200952D01*
X176712857Y-88153333D01*
X176808095Y-88153333D01*
X176950952Y-88200952D01*
X177522380Y-88772380D01*
X177522380Y-88153333D01*
X160667619Y-100226666D02*
X160620000Y-100179047D01*
X160572380Y-100083809D01*
X160572380Y-99845714D01*
X160620000Y-99750476D01*
X160667619Y-99702857D01*
X160762857Y-99655238D01*
X160858095Y-99655238D01*
X161000952Y-99702857D01*
X161572380Y-100274285D01*
X161572380Y-99655238D01*
X161572380Y-99226666D02*
X160572380Y-99226666D01*
X161191428Y-99131428D02*
X161572380Y-98845714D01*
X160905714Y-98845714D02*
X161286666Y-99226666D01*
X160667619Y-98464761D02*
X160620000Y-98417142D01*
X160572380Y-98321904D01*
X160572380Y-98083809D01*
X160620000Y-97988571D01*
X160667619Y-97940952D01*
X160762857Y-97893333D01*
X160858095Y-97893333D01*
X161000952Y-97940952D01*
X161572380Y-98512380D01*
X161572380Y-97893333D01*
X159202380Y-99226666D02*
X158726190Y-99560000D01*
X159202380Y-99798095D02*
X158202380Y-99798095D01*
X158202380Y-99417142D01*
X158250000Y-99321904D01*
X158297619Y-99274285D01*
X158392857Y-99226666D01*
X158535714Y-99226666D01*
X158630952Y-99274285D01*
X158678571Y-99321904D01*
X158726190Y-99417142D01*
X158726190Y-99798095D01*
X159202380Y-98274285D02*
X159202380Y-98845714D01*
X159202380Y-98560000D02*
X158202380Y-98560000D01*
X158345238Y-98655238D01*
X158440476Y-98750476D01*
X158488095Y-98845714D01*
X160667619Y-81176666D02*
X160620000Y-81129047D01*
X160572380Y-81033809D01*
X160572380Y-80795714D01*
X160620000Y-80700476D01*
X160667619Y-80652857D01*
X160762857Y-80605238D01*
X160858095Y-80605238D01*
X161000952Y-80652857D01*
X161572380Y-81224285D01*
X161572380Y-80605238D01*
X161572380Y-80176666D02*
X160572380Y-80176666D01*
X161191428Y-80081428D02*
X161572380Y-79795714D01*
X160905714Y-79795714D02*
X161286666Y-80176666D01*
X160667619Y-79414761D02*
X160620000Y-79367142D01*
X160572380Y-79271904D01*
X160572380Y-79033809D01*
X160620000Y-78938571D01*
X160667619Y-78890952D01*
X160762857Y-78843333D01*
X160858095Y-78843333D01*
X161000952Y-78890952D01*
X161572380Y-79462380D01*
X161572380Y-78843333D01*
X159202380Y-80176666D02*
X158726190Y-80510000D01*
X159202380Y-80748095D02*
X158202380Y-80748095D01*
X158202380Y-80367142D01*
X158250000Y-80271904D01*
X158297619Y-80224285D01*
X158392857Y-80176666D01*
X158535714Y-80176666D01*
X158630952Y-80224285D01*
X158678571Y-80271904D01*
X158726190Y-80367142D01*
X158726190Y-80748095D01*
X158297619Y-79795714D02*
X158250000Y-79748095D01*
X158202380Y-79652857D01*
X158202380Y-79414761D01*
X158250000Y-79319523D01*
X158297619Y-79271904D01*
X158392857Y-79224285D01*
X158488095Y-79224285D01*
X158630952Y-79271904D01*
X159202380Y-79843333D01*
X159202380Y-79224285D01*
M02*
