%TF.GenerationSoftware,KiCad,Pcbnew,5.1.4-3.fc30*%
%TF.CreationDate,2019-10-13T17:22:03+02:00*%
%TF.ProjectId,high_power_sym_supply,68696768-5f70-46f7-9765-725f73796d5f,1.0*%
%TF.SameCoordinates,PX463f660PY6a95280*%
%TF.FileFunction,Other,User*%
%FSLAX46Y46*%
G04 Gerber Fmt 4.6, Leading zero omitted, Abs format (unit mm)*
G04 Created by KiCad (PCBNEW 5.1.4-3.fc30) date 2019-10-13 17:22:03*
%MOMM*%
%LPD*%
G04 APERTURE LIST*
%ADD10C,0.050000*%
G04 APERTURE END LIST*
D10*
%TO.C,H1*%
X8530000Y38100000D02*
G75*
G03X8530000Y38100000I-3450000J0D01*
G01*
%TO.C,H4*%
X112670000Y5080000D02*
G75*
G03X112670000Y5080000I-3450000J0D01*
G01*
%TO.C,H3*%
X112670000Y38100000D02*
G75*
G03X112670000Y38100000I-3450000J0D01*
G01*
%TO.C,H2*%
X8530000Y5080000D02*
G75*
G03X8530000Y5080000I-3450000J0D01*
G01*
%TO.C,C1*%
X49890000Y11370000D02*
G75*
G03X49890000Y11370000I-9250000J0D01*
G01*
%TO.C,C2*%
X49890000Y32960000D02*
G75*
G03X49890000Y32960000I-9250000J0D01*
G01*
%TO.C,C3*%
X72750000Y11370000D02*
G75*
G03X72750000Y11370000I-9250000J0D01*
G01*
%TO.C,C4*%
X72750000Y32960000D02*
G75*
G03X72750000Y32960000I-9250000J0D01*
G01*
%TO.C,C5*%
X75970000Y13870000D02*
X75970000Y6370000D01*
X78970000Y13870000D02*
X75970000Y13870000D01*
X78970000Y6370000D02*
X78970000Y13870000D01*
X75970000Y6370000D02*
X78970000Y6370000D01*
%TO.C,C6*%
X75970000Y30500000D02*
X78970000Y30500000D01*
X78970000Y30500000D02*
X78970000Y38000000D01*
X78970000Y38000000D02*
X75970000Y38000000D01*
X75970000Y38000000D02*
X75970000Y30500000D01*
%TO.C,D1*%
X20610000Y9720000D02*
X20610000Y33420000D01*
X20610000Y9720000D02*
X28310000Y9720000D01*
X28310000Y33420000D02*
X20610000Y33420000D01*
X28310000Y33420000D02*
X28310000Y9720000D01*
%TO.C,D2*%
X94960000Y11540000D02*
X94960000Y16390000D01*
X90460000Y11540000D02*
X94960000Y11540000D01*
X90460000Y16390000D02*
X90460000Y11540000D01*
X94960000Y16390000D02*
X90460000Y16390000D01*
%TO.C,D3*%
X90460000Y33140000D02*
X94960000Y33140000D01*
X94960000Y33140000D02*
X94960000Y37990000D01*
X94960000Y37990000D02*
X90460000Y37990000D01*
X90460000Y37990000D02*
X90460000Y33140000D01*
%TO.C,J1*%
X16640000Y30770000D02*
X16640000Y14520000D01*
X16640000Y30770000D02*
X3700000Y30770000D01*
X3700000Y14520000D02*
X16640000Y14520000D01*
X3700000Y14520000D02*
X3700000Y30770000D01*
%TO.C,J2*%
X111870000Y31360000D02*
X111870000Y15110000D01*
X111870000Y31360000D02*
X98930000Y31360000D01*
X98930000Y15110000D02*
X111870000Y15110000D01*
X98930000Y15110000D02*
X98930000Y31360000D01*
%TO.C,R1*%
X83590000Y18830000D02*
X83590000Y6570000D01*
X86590000Y18830000D02*
X83590000Y18830000D01*
X86590000Y6570000D02*
X86590000Y18830000D01*
X83590000Y6570000D02*
X86590000Y6570000D01*
%TO.C,R2*%
X83590000Y25620000D02*
X86590000Y25620000D01*
X86590000Y25620000D02*
X86590000Y37880000D01*
X86590000Y37880000D02*
X83590000Y37880000D01*
X83590000Y37880000D02*
X83590000Y25620000D01*
%TD*%
M02*
