G04 #@! TF.GenerationSoftware,KiCad,Pcbnew,5.1.4-3.fc30*
G04 #@! TF.CreationDate,2019-10-06T03:47:38+02:00*
G04 #@! TF.ProjectId,high_power_sym_supply,68696768-5f70-46f7-9765-725f73796d5f,1.0*
G04 #@! TF.SameCoordinates,Original*
G04 #@! TF.FileFunction,Soldermask,Bot*
G04 #@! TF.FilePolarity,Negative*
%FSLAX46Y46*%
G04 Gerber Fmt 4.6, Leading zero omitted, Abs format (unit mm)*
G04 Created by KiCad (PCBNEW 5.1.4-3.fc30) date 2019-10-06 03:47:38*
%MOMM*%
%LPD*%
G04 APERTURE LIST*
%ADD10C,0.100000*%
G04 APERTURE END LIST*
D10*
G36*
X183255256Y-105071298D02*
G01*
X183361579Y-105092447D01*
X183662042Y-105216903D01*
X183932451Y-105397585D01*
X184162415Y-105627549D01*
X184343097Y-105897958D01*
X184467553Y-106198421D01*
X184531000Y-106517391D01*
X184531000Y-106842609D01*
X184467553Y-107161579D01*
X184343097Y-107462042D01*
X184162415Y-107732451D01*
X183932451Y-107962415D01*
X183662042Y-108143097D01*
X183361579Y-108267553D01*
X183255256Y-108288702D01*
X183042611Y-108331000D01*
X182717389Y-108331000D01*
X182504744Y-108288702D01*
X182398421Y-108267553D01*
X182097958Y-108143097D01*
X181827549Y-107962415D01*
X181597585Y-107732451D01*
X181416903Y-107462042D01*
X181292447Y-107161579D01*
X181229000Y-106842609D01*
X181229000Y-106517391D01*
X181292447Y-106198421D01*
X181416903Y-105897958D01*
X181597585Y-105627549D01*
X181827549Y-105397585D01*
X182097958Y-105216903D01*
X182398421Y-105092447D01*
X182504744Y-105071298D01*
X182717389Y-105029000D01*
X183042611Y-105029000D01*
X183255256Y-105071298D01*
X183255256Y-105071298D01*
G37*
G36*
X78480256Y-105071298D02*
G01*
X78586579Y-105092447D01*
X78887042Y-105216903D01*
X79157451Y-105397585D01*
X79387415Y-105627549D01*
X79568097Y-105897958D01*
X79692553Y-106198421D01*
X79756000Y-106517391D01*
X79756000Y-106842609D01*
X79692553Y-107161579D01*
X79568097Y-107462042D01*
X79387415Y-107732451D01*
X79157451Y-107962415D01*
X78887042Y-108143097D01*
X78586579Y-108267553D01*
X78480256Y-108288702D01*
X78267611Y-108331000D01*
X77942389Y-108331000D01*
X77729744Y-108288702D01*
X77623421Y-108267553D01*
X77322958Y-108143097D01*
X77052549Y-107962415D01*
X76822585Y-107732451D01*
X76641903Y-107462042D01*
X76517447Y-107161579D01*
X76454000Y-106842609D01*
X76454000Y-106517391D01*
X76517447Y-106198421D01*
X76641903Y-105897958D01*
X76822585Y-105627549D01*
X77052549Y-105397585D01*
X77322958Y-105216903D01*
X77623421Y-105092447D01*
X77729744Y-105071298D01*
X77942389Y-105029000D01*
X78267611Y-105029000D01*
X78480256Y-105071298D01*
X78480256Y-105071298D01*
G37*
G36*
X138411000Y-105391000D02*
G01*
X135909000Y-105391000D01*
X135909000Y-102889000D01*
X138411000Y-102889000D01*
X138411000Y-105391000D01*
X138411000Y-105391000D01*
G37*
G36*
X115551000Y-105391000D02*
G01*
X113049000Y-105391000D01*
X113049000Y-102889000D01*
X115551000Y-102889000D01*
X115551000Y-105391000D01*
X115551000Y-105391000D01*
G37*
G36*
X151378228Y-103321703D02*
G01*
X151533100Y-103385853D01*
X151672481Y-103478985D01*
X151791015Y-103597519D01*
X151884147Y-103736900D01*
X151948297Y-103891772D01*
X151981000Y-104056184D01*
X151981000Y-104223816D01*
X151948297Y-104388228D01*
X151884147Y-104543100D01*
X151791015Y-104682481D01*
X151672481Y-104801015D01*
X151533100Y-104894147D01*
X151378228Y-104958297D01*
X151213816Y-104991000D01*
X151046184Y-104991000D01*
X150881772Y-104958297D01*
X150726900Y-104894147D01*
X150587519Y-104801015D01*
X150468985Y-104682481D01*
X150375853Y-104543100D01*
X150311703Y-104388228D01*
X150279000Y-104223816D01*
X150279000Y-104056184D01*
X150311703Y-103891772D01*
X150375853Y-103736900D01*
X150468985Y-103597519D01*
X150587519Y-103478985D01*
X150726900Y-103385853D01*
X150881772Y-103321703D01*
X151046184Y-103289000D01*
X151213816Y-103289000D01*
X151378228Y-103321703D01*
X151378228Y-103321703D01*
G37*
G36*
X158998228Y-103321703D02*
G01*
X159153100Y-103385853D01*
X159292481Y-103478985D01*
X159411015Y-103597519D01*
X159504147Y-103736900D01*
X159568297Y-103891772D01*
X159601000Y-104056184D01*
X159601000Y-104223816D01*
X159568297Y-104388228D01*
X159504147Y-104543100D01*
X159411015Y-104682481D01*
X159292481Y-104801015D01*
X159153100Y-104894147D01*
X158998228Y-104958297D01*
X158833816Y-104991000D01*
X158666184Y-104991000D01*
X158501772Y-104958297D01*
X158346900Y-104894147D01*
X158207519Y-104801015D01*
X158088985Y-104682481D01*
X157995853Y-104543100D01*
X157931703Y-104388228D01*
X157899000Y-104223816D01*
X157899000Y-104056184D01*
X157931703Y-103891772D01*
X157995853Y-103736900D01*
X158088985Y-103597519D01*
X158207519Y-103478985D01*
X158346900Y-103385853D01*
X158501772Y-103321703D01*
X158666184Y-103289000D01*
X158833816Y-103289000D01*
X158998228Y-103321703D01*
X158998228Y-103321703D01*
G37*
G36*
X166647395Y-98145546D02*
G01*
X166820466Y-98217234D01*
X166820467Y-98217235D01*
X166976227Y-98321310D01*
X167108690Y-98453773D01*
X167108691Y-98453775D01*
X167212766Y-98609534D01*
X167284454Y-98782605D01*
X167321000Y-98966333D01*
X167321000Y-99153667D01*
X167284454Y-99337395D01*
X167212766Y-99510466D01*
X167161081Y-99587818D01*
X167108690Y-99666227D01*
X166976227Y-99798690D01*
X166972747Y-99801015D01*
X166820466Y-99902766D01*
X166647395Y-99974454D01*
X166463667Y-100011000D01*
X166276333Y-100011000D01*
X166092605Y-99974454D01*
X165919534Y-99902766D01*
X165767253Y-99801015D01*
X165763773Y-99798690D01*
X165631310Y-99666227D01*
X165578919Y-99587818D01*
X165527234Y-99510466D01*
X165455546Y-99337395D01*
X165419000Y-99153667D01*
X165419000Y-98966333D01*
X165455546Y-98782605D01*
X165527234Y-98609534D01*
X165631309Y-98453775D01*
X165631310Y-98453773D01*
X165763773Y-98321310D01*
X165919533Y-98217235D01*
X165919534Y-98217234D01*
X166092605Y-98145546D01*
X166276333Y-98109000D01*
X166463667Y-98109000D01*
X166647395Y-98145546D01*
X166647395Y-98145546D01*
G37*
G36*
X151378228Y-98321703D02*
G01*
X151533100Y-98385853D01*
X151672481Y-98478985D01*
X151791015Y-98597519D01*
X151884147Y-98736900D01*
X151948297Y-98891772D01*
X151981000Y-99056184D01*
X151981000Y-99223816D01*
X151948297Y-99388228D01*
X151884147Y-99543100D01*
X151791015Y-99682481D01*
X151672481Y-99801015D01*
X151533100Y-99894147D01*
X151378228Y-99958297D01*
X151213816Y-99991000D01*
X151046184Y-99991000D01*
X150881772Y-99958297D01*
X150726900Y-99894147D01*
X150587519Y-99801015D01*
X150468985Y-99682481D01*
X150375853Y-99543100D01*
X150311703Y-99388228D01*
X150279000Y-99223816D01*
X150279000Y-99056184D01*
X150311703Y-98891772D01*
X150375853Y-98736900D01*
X150468985Y-98597519D01*
X150587519Y-98478985D01*
X150726900Y-98385853D01*
X150881772Y-98321703D01*
X151046184Y-98289000D01*
X151213816Y-98289000D01*
X151378228Y-98321703D01*
X151378228Y-98321703D01*
G37*
G36*
X97971000Y-99241000D02*
G01*
X95069000Y-99241000D01*
X95069000Y-96339000D01*
X97971000Y-96339000D01*
X97971000Y-99241000D01*
X97971000Y-99241000D01*
G37*
G36*
X137524903Y-95437075D02*
G01*
X137752571Y-95531378D01*
X137957466Y-95668285D01*
X138131715Y-95842534D01*
X138268622Y-96047429D01*
X138362925Y-96275097D01*
X138411000Y-96516787D01*
X138411000Y-96763213D01*
X138362925Y-97004903D01*
X138268622Y-97232571D01*
X138131715Y-97437466D01*
X137957466Y-97611715D01*
X137752571Y-97748622D01*
X137752570Y-97748623D01*
X137752569Y-97748623D01*
X137524903Y-97842925D01*
X137283214Y-97891000D01*
X137036786Y-97891000D01*
X136795097Y-97842925D01*
X136567431Y-97748623D01*
X136567430Y-97748623D01*
X136567429Y-97748622D01*
X136362534Y-97611715D01*
X136188285Y-97437466D01*
X136051378Y-97232571D01*
X135957075Y-97004903D01*
X135909000Y-96763213D01*
X135909000Y-96516787D01*
X135957075Y-96275097D01*
X136051378Y-96047429D01*
X136188285Y-95842534D01*
X136362534Y-95668285D01*
X136567429Y-95531378D01*
X136795097Y-95437075D01*
X137036786Y-95389000D01*
X137283214Y-95389000D01*
X137524903Y-95437075D01*
X137524903Y-95437075D01*
G37*
G36*
X114664903Y-95437075D02*
G01*
X114892571Y-95531378D01*
X115097466Y-95668285D01*
X115271715Y-95842534D01*
X115408622Y-96047429D01*
X115502925Y-96275097D01*
X115551000Y-96516787D01*
X115551000Y-96763213D01*
X115502925Y-97004903D01*
X115408622Y-97232571D01*
X115271715Y-97437466D01*
X115097466Y-97611715D01*
X114892571Y-97748622D01*
X114892570Y-97748623D01*
X114892569Y-97748623D01*
X114664903Y-97842925D01*
X114423214Y-97891000D01*
X114176786Y-97891000D01*
X113935097Y-97842925D01*
X113707431Y-97748623D01*
X113707430Y-97748623D01*
X113707429Y-97748622D01*
X113502534Y-97611715D01*
X113328285Y-97437466D01*
X113191378Y-97232571D01*
X113097075Y-97004903D01*
X113049000Y-96763213D01*
X113049000Y-96516787D01*
X113097075Y-96275097D01*
X113191378Y-96047429D01*
X113328285Y-95842534D01*
X113502534Y-95668285D01*
X113707429Y-95531378D01*
X113935097Y-95437075D01*
X114176786Y-95389000D01*
X114423214Y-95389000D01*
X114664903Y-95437075D01*
X114664903Y-95437075D01*
G37*
G36*
X167321000Y-97471000D02*
G01*
X165419000Y-97471000D01*
X165419000Y-95569000D01*
X167321000Y-95569000D01*
X167321000Y-97471000D01*
X167321000Y-97471000D01*
G37*
G36*
X181101000Y-94861000D02*
G01*
X177039000Y-94861000D01*
X177039000Y-92779000D01*
X181101000Y-92779000D01*
X181101000Y-94861000D01*
X181101000Y-94861000D01*
G37*
G36*
X84912112Y-92784021D02*
G01*
X85014072Y-92794063D01*
X85210301Y-92853589D01*
X85210303Y-92853590D01*
X85391145Y-92950252D01*
X85549660Y-93080340D01*
X85679748Y-93238855D01*
X85752701Y-93375341D01*
X85776411Y-93419699D01*
X85835937Y-93615928D01*
X85856036Y-93820000D01*
X85835937Y-94024072D01*
X85776411Y-94220301D01*
X85776410Y-94220303D01*
X85679748Y-94401145D01*
X85549660Y-94559660D01*
X85391145Y-94689748D01*
X85240959Y-94770024D01*
X85210301Y-94786411D01*
X85014072Y-94845937D01*
X84912112Y-94855979D01*
X84861133Y-94861000D01*
X82778867Y-94861000D01*
X82727888Y-94855979D01*
X82625928Y-94845937D01*
X82429699Y-94786411D01*
X82399041Y-94770024D01*
X82248855Y-94689748D01*
X82090340Y-94559660D01*
X81960252Y-94401145D01*
X81863590Y-94220303D01*
X81863589Y-94220301D01*
X81804063Y-94024072D01*
X81783964Y-93820000D01*
X81804063Y-93615928D01*
X81863589Y-93419699D01*
X81887299Y-93375341D01*
X81960252Y-93238855D01*
X82090340Y-93080340D01*
X82248855Y-92950252D01*
X82429697Y-92853590D01*
X82429699Y-92853589D01*
X82625928Y-92794063D01*
X82727888Y-92784021D01*
X82778867Y-92779000D01*
X84861133Y-92779000D01*
X84912112Y-92784021D01*
X84912112Y-92784021D01*
G37*
G36*
X158916823Y-93141313D02*
G01*
X159077242Y-93189976D01*
X159168686Y-93238854D01*
X159225078Y-93268996D01*
X159354659Y-93375341D01*
X159461004Y-93504922D01*
X159461005Y-93504924D01*
X159540024Y-93652758D01*
X159588687Y-93813177D01*
X159605117Y-93980000D01*
X159588687Y-94146823D01*
X159540024Y-94307242D01*
X159489832Y-94401145D01*
X159461004Y-94455078D01*
X159354659Y-94584659D01*
X159225078Y-94691004D01*
X159225076Y-94691005D01*
X159077242Y-94770024D01*
X158916823Y-94818687D01*
X158791804Y-94831000D01*
X158708196Y-94831000D01*
X158583177Y-94818687D01*
X158422758Y-94770024D01*
X158274924Y-94691005D01*
X158274922Y-94691004D01*
X158145341Y-94584659D01*
X158038996Y-94455078D01*
X158010168Y-94401145D01*
X157959976Y-94307242D01*
X157911313Y-94146823D01*
X157894883Y-93980000D01*
X157911313Y-93813177D01*
X157959976Y-93652758D01*
X158038995Y-93504924D01*
X158038996Y-93504922D01*
X158145341Y-93375341D01*
X158274922Y-93268996D01*
X158331314Y-93238854D01*
X158422758Y-93189976D01*
X158583177Y-93141313D01*
X158708196Y-93129000D01*
X158791804Y-93129000D01*
X158916823Y-93141313D01*
X158916823Y-93141313D01*
G37*
G36*
X96943241Y-91314760D02*
G01*
X97207305Y-91424139D01*
X97444958Y-91582934D01*
X97647066Y-91785042D01*
X97805861Y-92022695D01*
X97915240Y-92286759D01*
X97971000Y-92567088D01*
X97971000Y-92852912D01*
X97915240Y-93133241D01*
X97805861Y-93397305D01*
X97647066Y-93634958D01*
X97444958Y-93837066D01*
X97207305Y-93995861D01*
X96943241Y-94105240D01*
X96662912Y-94161000D01*
X96377088Y-94161000D01*
X96096759Y-94105240D01*
X95832695Y-93995861D01*
X95595042Y-93837066D01*
X95392934Y-93634958D01*
X95234139Y-93397305D01*
X95124760Y-93133241D01*
X95069000Y-92852912D01*
X95069000Y-92567088D01*
X95124760Y-92286759D01*
X95234139Y-92022695D01*
X95392934Y-91785042D01*
X95595042Y-91582934D01*
X95832695Y-91424139D01*
X96096759Y-91314760D01*
X96377088Y-91259000D01*
X96662912Y-91259000D01*
X96943241Y-91314760D01*
X96943241Y-91314760D01*
G37*
G36*
X180162112Y-87784021D02*
G01*
X180264072Y-87794063D01*
X180460301Y-87853589D01*
X180460303Y-87853590D01*
X180641145Y-87950252D01*
X180799660Y-88080340D01*
X180929747Y-88238854D01*
X181026411Y-88419699D01*
X181085937Y-88615928D01*
X181106036Y-88820000D01*
X181085937Y-89024072D01*
X181026411Y-89220301D01*
X181026410Y-89220303D01*
X180929748Y-89401145D01*
X180799660Y-89559660D01*
X180641145Y-89689748D01*
X180460303Y-89786410D01*
X180460301Y-89786411D01*
X180264072Y-89845937D01*
X180162112Y-89855979D01*
X180111133Y-89861000D01*
X178028867Y-89861000D01*
X177977888Y-89855979D01*
X177875928Y-89845937D01*
X177679699Y-89786411D01*
X177679697Y-89786410D01*
X177498855Y-89689748D01*
X177340340Y-89559660D01*
X177210252Y-89401145D01*
X177113590Y-89220303D01*
X177113589Y-89220301D01*
X177054063Y-89024072D01*
X177033964Y-88820000D01*
X177054063Y-88615928D01*
X177113589Y-88419699D01*
X177210253Y-88238854D01*
X177340340Y-88080340D01*
X177498855Y-87950252D01*
X177679697Y-87853590D01*
X177679699Y-87853589D01*
X177875928Y-87794063D01*
X177977888Y-87784021D01*
X178028867Y-87779000D01*
X180111133Y-87779000D01*
X180162112Y-87784021D01*
X180162112Y-87784021D01*
G37*
G36*
X84912112Y-87784021D02*
G01*
X85014072Y-87794063D01*
X85210301Y-87853589D01*
X85210303Y-87853590D01*
X85391145Y-87950252D01*
X85549660Y-88080340D01*
X85679747Y-88238854D01*
X85776411Y-88419699D01*
X85835937Y-88615928D01*
X85856036Y-88820000D01*
X85835937Y-89024072D01*
X85776411Y-89220301D01*
X85776410Y-89220303D01*
X85679748Y-89401145D01*
X85549660Y-89559660D01*
X85391145Y-89689748D01*
X85210303Y-89786410D01*
X85210301Y-89786411D01*
X85014072Y-89845937D01*
X84912112Y-89855979D01*
X84861133Y-89861000D01*
X82778867Y-89861000D01*
X82727888Y-89855979D01*
X82625928Y-89845937D01*
X82429699Y-89786411D01*
X82429697Y-89786410D01*
X82248855Y-89689748D01*
X82090340Y-89559660D01*
X81960252Y-89401145D01*
X81863590Y-89220303D01*
X81863589Y-89220301D01*
X81804063Y-89024072D01*
X81783964Y-88820000D01*
X81804063Y-88615928D01*
X81863589Y-88419699D01*
X81960253Y-88238854D01*
X82090340Y-88080340D01*
X82248855Y-87950252D01*
X82429697Y-87853590D01*
X82429699Y-87853589D01*
X82625928Y-87794063D01*
X82727888Y-87784021D01*
X82778867Y-87779000D01*
X84861133Y-87779000D01*
X84912112Y-87784021D01*
X84912112Y-87784021D01*
G37*
G36*
X96943241Y-86234760D02*
G01*
X97207305Y-86344139D01*
X97444958Y-86502934D01*
X97647066Y-86705042D01*
X97805861Y-86942695D01*
X97915240Y-87206759D01*
X97971000Y-87487088D01*
X97971000Y-87772912D01*
X97915240Y-88053241D01*
X97805861Y-88317305D01*
X97647066Y-88554958D01*
X97444958Y-88757066D01*
X97207305Y-88915861D01*
X96943241Y-89025240D01*
X96662912Y-89081000D01*
X96377088Y-89081000D01*
X96096759Y-89025240D01*
X95832695Y-88915861D01*
X95595042Y-88757066D01*
X95392934Y-88554958D01*
X95234139Y-88317305D01*
X95124760Y-88053241D01*
X95069000Y-87772912D01*
X95069000Y-87487088D01*
X95124760Y-87206759D01*
X95234139Y-86942695D01*
X95392934Y-86705042D01*
X95595042Y-86502934D01*
X95832695Y-86344139D01*
X96096759Y-86234760D01*
X96377088Y-86179000D01*
X96662912Y-86179000D01*
X96943241Y-86234760D01*
X96943241Y-86234760D01*
G37*
G36*
X158998228Y-84271703D02*
G01*
X159153100Y-84335853D01*
X159292481Y-84428985D01*
X159411015Y-84547519D01*
X159504147Y-84686900D01*
X159568297Y-84841772D01*
X159601000Y-85006184D01*
X159601000Y-85173816D01*
X159568297Y-85338228D01*
X159504147Y-85493100D01*
X159411015Y-85632481D01*
X159292481Y-85751015D01*
X159153100Y-85844147D01*
X158998228Y-85908297D01*
X158833816Y-85941000D01*
X158666184Y-85941000D01*
X158501772Y-85908297D01*
X158346900Y-85844147D01*
X158207519Y-85751015D01*
X158088985Y-85632481D01*
X157995853Y-85493100D01*
X157931703Y-85338228D01*
X157899000Y-85173816D01*
X157899000Y-85006184D01*
X157931703Y-84841772D01*
X157995853Y-84686900D01*
X158088985Y-84547519D01*
X158207519Y-84428985D01*
X158346900Y-84335853D01*
X158501772Y-84271703D01*
X158666184Y-84239000D01*
X158833816Y-84239000D01*
X158998228Y-84271703D01*
X158998228Y-84271703D01*
G37*
G36*
X180162112Y-82784021D02*
G01*
X180264072Y-82794063D01*
X180460301Y-82853589D01*
X180460303Y-82853590D01*
X180641145Y-82950252D01*
X180799660Y-83080340D01*
X180928476Y-83237305D01*
X180929747Y-83238854D01*
X181026411Y-83419699D01*
X181085937Y-83615928D01*
X181106036Y-83820000D01*
X181085937Y-84024072D01*
X181026411Y-84220301D01*
X181026410Y-84220303D01*
X180929748Y-84401145D01*
X180799660Y-84559660D01*
X180641145Y-84689748D01*
X180460303Y-84786410D01*
X180460301Y-84786411D01*
X180264072Y-84845937D01*
X180162112Y-84855979D01*
X180111133Y-84861000D01*
X178028867Y-84861000D01*
X177977888Y-84855979D01*
X177875928Y-84845937D01*
X177679699Y-84786411D01*
X177679697Y-84786410D01*
X177498855Y-84689748D01*
X177340340Y-84559660D01*
X177210252Y-84401145D01*
X177113590Y-84220303D01*
X177113589Y-84220301D01*
X177054063Y-84024072D01*
X177033964Y-83820000D01*
X177054063Y-83615928D01*
X177113589Y-83419699D01*
X177210253Y-83238854D01*
X177211524Y-83237305D01*
X177340340Y-83080340D01*
X177498855Y-82950252D01*
X177679697Y-82853590D01*
X177679699Y-82853589D01*
X177875928Y-82794063D01*
X177977888Y-82784021D01*
X178028867Y-82779000D01*
X180111133Y-82779000D01*
X180162112Y-82784021D01*
X180162112Y-82784021D01*
G37*
G36*
X85851000Y-84861000D02*
G01*
X81789000Y-84861000D01*
X81789000Y-82779000D01*
X85851000Y-82779000D01*
X85851000Y-84861000D01*
X85851000Y-84861000D01*
G37*
G36*
X96943241Y-81154760D02*
G01*
X97207305Y-81264139D01*
X97444958Y-81422934D01*
X97647066Y-81625042D01*
X97805861Y-81862695D01*
X97915240Y-82126759D01*
X97971000Y-82407088D01*
X97971000Y-82692912D01*
X97915240Y-82973241D01*
X97805861Y-83237305D01*
X97647066Y-83474958D01*
X97444958Y-83677066D01*
X97207305Y-83835861D01*
X96943241Y-83945240D01*
X96662912Y-84001000D01*
X96377088Y-84001000D01*
X96096759Y-83945240D01*
X95832695Y-83835861D01*
X95595042Y-83677066D01*
X95392934Y-83474958D01*
X95234139Y-83237305D01*
X95124760Y-82973241D01*
X95069000Y-82692912D01*
X95069000Y-82407088D01*
X95124760Y-82126759D01*
X95234139Y-81862695D01*
X95392934Y-81625042D01*
X95595042Y-81422934D01*
X95832695Y-81264139D01*
X96096759Y-81154760D01*
X96377088Y-81099000D01*
X96662912Y-81099000D01*
X96943241Y-81154760D01*
X96943241Y-81154760D01*
G37*
G36*
X115551000Y-83801000D02*
G01*
X113049000Y-83801000D01*
X113049000Y-81299000D01*
X115551000Y-81299000D01*
X115551000Y-83801000D01*
X115551000Y-83801000D01*
G37*
G36*
X138411000Y-83801000D02*
G01*
X135909000Y-83801000D01*
X135909000Y-81299000D01*
X138411000Y-81299000D01*
X138411000Y-83801000D01*
X138411000Y-83801000D01*
G37*
G36*
X151378228Y-79191703D02*
G01*
X151533100Y-79255853D01*
X151672481Y-79348985D01*
X151791015Y-79467519D01*
X151884147Y-79606900D01*
X151948297Y-79761772D01*
X151981000Y-79926184D01*
X151981000Y-80093816D01*
X151948297Y-80258228D01*
X151884147Y-80413100D01*
X151791015Y-80552481D01*
X151672481Y-80671015D01*
X151533100Y-80764147D01*
X151378228Y-80828297D01*
X151213816Y-80861000D01*
X151046184Y-80861000D01*
X150881772Y-80828297D01*
X150726900Y-80764147D01*
X150587519Y-80671015D01*
X150468985Y-80552481D01*
X150375853Y-80413100D01*
X150311703Y-80258228D01*
X150279000Y-80093816D01*
X150279000Y-79926184D01*
X150311703Y-79761772D01*
X150375853Y-79606900D01*
X150468985Y-79467519D01*
X150587519Y-79348985D01*
X150726900Y-79255853D01*
X150881772Y-79191703D01*
X151046184Y-79159000D01*
X151213816Y-79159000D01*
X151378228Y-79191703D01*
X151378228Y-79191703D01*
G37*
G36*
X167321000Y-78421000D02*
G01*
X165419000Y-78421000D01*
X165419000Y-76519000D01*
X167321000Y-76519000D01*
X167321000Y-78421000D01*
X167321000Y-78421000D01*
G37*
G36*
X137401904Y-73822609D02*
G01*
X137524903Y-73847075D01*
X137752571Y-73941378D01*
X137957466Y-74078285D01*
X138131715Y-74252534D01*
X138266947Y-74454922D01*
X138268623Y-74457431D01*
X138362925Y-74685097D01*
X138411000Y-74926786D01*
X138411000Y-75173214D01*
X138362925Y-75414903D01*
X138305939Y-75552481D01*
X138268622Y-75642571D01*
X138131715Y-75847466D01*
X137957466Y-76021715D01*
X137752571Y-76158622D01*
X137752570Y-76158623D01*
X137752569Y-76158623D01*
X137524903Y-76252925D01*
X137283214Y-76301000D01*
X137036786Y-76301000D01*
X136795097Y-76252925D01*
X136567431Y-76158623D01*
X136567430Y-76158623D01*
X136567429Y-76158622D01*
X136362534Y-76021715D01*
X136188285Y-75847466D01*
X136051378Y-75642571D01*
X136014062Y-75552481D01*
X135957075Y-75414903D01*
X135909000Y-75173214D01*
X135909000Y-74926786D01*
X135957075Y-74685097D01*
X136051377Y-74457431D01*
X136053053Y-74454922D01*
X136188285Y-74252534D01*
X136362534Y-74078285D01*
X136567429Y-73941378D01*
X136795097Y-73847075D01*
X136918096Y-73822609D01*
X137036786Y-73799000D01*
X137283214Y-73799000D01*
X137401904Y-73822609D01*
X137401904Y-73822609D01*
G37*
G36*
X114541904Y-73822609D02*
G01*
X114664903Y-73847075D01*
X114892571Y-73941378D01*
X115097466Y-74078285D01*
X115271715Y-74252534D01*
X115406947Y-74454922D01*
X115408623Y-74457431D01*
X115502925Y-74685097D01*
X115551000Y-74926786D01*
X115551000Y-75173214D01*
X115502925Y-75414903D01*
X115445939Y-75552481D01*
X115408622Y-75642571D01*
X115271715Y-75847466D01*
X115097466Y-76021715D01*
X114892571Y-76158622D01*
X114892570Y-76158623D01*
X114892569Y-76158623D01*
X114664903Y-76252925D01*
X114423214Y-76301000D01*
X114176786Y-76301000D01*
X113935097Y-76252925D01*
X113707431Y-76158623D01*
X113707430Y-76158623D01*
X113707429Y-76158622D01*
X113502534Y-76021715D01*
X113328285Y-75847466D01*
X113191378Y-75642571D01*
X113154062Y-75552481D01*
X113097075Y-75414903D01*
X113049000Y-75173214D01*
X113049000Y-74926786D01*
X113097075Y-74685097D01*
X113191377Y-74457431D01*
X113193053Y-74454922D01*
X113328285Y-74252534D01*
X113502534Y-74078285D01*
X113707429Y-73941378D01*
X113935097Y-73847075D01*
X114058096Y-73822609D01*
X114176786Y-73799000D01*
X114423214Y-73799000D01*
X114541904Y-73822609D01*
X114541904Y-73822609D01*
G37*
G36*
X166647395Y-74015546D02*
G01*
X166820466Y-74087234D01*
X166826572Y-74091314D01*
X166976227Y-74191310D01*
X167108690Y-74323773D01*
X167125536Y-74348985D01*
X167212766Y-74479534D01*
X167284454Y-74652605D01*
X167321000Y-74836333D01*
X167321000Y-75023667D01*
X167284454Y-75207395D01*
X167212766Y-75380466D01*
X167189756Y-75414903D01*
X167108690Y-75536227D01*
X166976227Y-75668690D01*
X166972747Y-75671015D01*
X166820466Y-75772766D01*
X166647395Y-75844454D01*
X166463667Y-75881000D01*
X166276333Y-75881000D01*
X166092605Y-75844454D01*
X165919534Y-75772766D01*
X165767253Y-75671015D01*
X165763773Y-75668690D01*
X165631310Y-75536227D01*
X165550244Y-75414903D01*
X165527234Y-75380466D01*
X165455546Y-75207395D01*
X165419000Y-75023667D01*
X165419000Y-74836333D01*
X165455546Y-74652605D01*
X165527234Y-74479534D01*
X165614464Y-74348985D01*
X165631310Y-74323773D01*
X165763773Y-74191310D01*
X165913428Y-74091314D01*
X165919534Y-74087234D01*
X166092605Y-74015546D01*
X166276333Y-73979000D01*
X166463667Y-73979000D01*
X166647395Y-74015546D01*
X166647395Y-74015546D01*
G37*
G36*
X151378228Y-74191703D02*
G01*
X151533100Y-74255853D01*
X151672481Y-74348985D01*
X151791015Y-74467519D01*
X151884147Y-74606900D01*
X151948297Y-74761772D01*
X151981000Y-74926184D01*
X151981000Y-75093816D01*
X151948297Y-75258228D01*
X151884147Y-75413100D01*
X151791015Y-75552481D01*
X151672481Y-75671015D01*
X151533100Y-75764147D01*
X151378228Y-75828297D01*
X151213816Y-75861000D01*
X151046184Y-75861000D01*
X150881772Y-75828297D01*
X150726900Y-75764147D01*
X150587519Y-75671015D01*
X150468985Y-75552481D01*
X150375853Y-75413100D01*
X150311703Y-75258228D01*
X150279000Y-75093816D01*
X150279000Y-74926184D01*
X150311703Y-74761772D01*
X150375853Y-74606900D01*
X150468985Y-74467519D01*
X150587519Y-74348985D01*
X150726900Y-74255853D01*
X150881772Y-74191703D01*
X151046184Y-74159000D01*
X151213816Y-74159000D01*
X151378228Y-74191703D01*
X151378228Y-74191703D01*
G37*
G36*
X158916823Y-74091313D02*
G01*
X159077242Y-74139976D01*
X159112833Y-74159000D01*
X159225078Y-74218996D01*
X159354659Y-74325341D01*
X159461004Y-74454922D01*
X159461005Y-74454924D01*
X159540024Y-74602758D01*
X159540025Y-74602761D01*
X159541281Y-74606903D01*
X159588687Y-74763177D01*
X159605117Y-74930000D01*
X159588687Y-75096823D01*
X159540024Y-75257242D01*
X159474159Y-75380466D01*
X159461004Y-75405078D01*
X159354659Y-75534659D01*
X159225078Y-75641004D01*
X159225076Y-75641005D01*
X159077242Y-75720024D01*
X158916823Y-75768687D01*
X158791804Y-75781000D01*
X158708196Y-75781000D01*
X158583177Y-75768687D01*
X158422758Y-75720024D01*
X158274924Y-75641005D01*
X158274922Y-75641004D01*
X158145341Y-75534659D01*
X158038996Y-75405078D01*
X158025841Y-75380466D01*
X157959976Y-75257242D01*
X157911313Y-75096823D01*
X157894883Y-74930000D01*
X157911313Y-74763177D01*
X157958719Y-74606903D01*
X157959975Y-74602761D01*
X157959976Y-74602758D01*
X158038995Y-74454924D01*
X158038996Y-74454922D01*
X158145341Y-74325341D01*
X158274922Y-74218996D01*
X158387167Y-74159000D01*
X158422758Y-74139976D01*
X158583177Y-74091313D01*
X158708196Y-74079000D01*
X158791804Y-74079000D01*
X158916823Y-74091313D01*
X158916823Y-74091313D01*
G37*
G36*
X183255256Y-72051298D02*
G01*
X183361579Y-72072447D01*
X183662042Y-72196903D01*
X183932451Y-72377585D01*
X184162415Y-72607549D01*
X184162416Y-72607551D01*
X184343098Y-72877960D01*
X184467553Y-73178422D01*
X184531000Y-73497389D01*
X184531000Y-73822611D01*
X184492622Y-74015547D01*
X184467553Y-74141579D01*
X184343097Y-74442042D01*
X184162415Y-74712451D01*
X183932451Y-74942415D01*
X183662042Y-75123097D01*
X183361579Y-75247553D01*
X183312884Y-75257239D01*
X183042611Y-75311000D01*
X182717389Y-75311000D01*
X182447116Y-75257239D01*
X182398421Y-75247553D01*
X182097958Y-75123097D01*
X181827549Y-74942415D01*
X181597585Y-74712451D01*
X181416903Y-74442042D01*
X181292447Y-74141579D01*
X181267378Y-74015547D01*
X181229000Y-73822611D01*
X181229000Y-73497389D01*
X181292447Y-73178422D01*
X181416902Y-72877960D01*
X181597584Y-72607551D01*
X181597585Y-72607549D01*
X181827549Y-72377585D01*
X182097958Y-72196903D01*
X182398421Y-72072447D01*
X182504744Y-72051298D01*
X182717389Y-72009000D01*
X183042611Y-72009000D01*
X183255256Y-72051298D01*
X183255256Y-72051298D01*
G37*
G36*
X79115256Y-72051298D02*
G01*
X79221579Y-72072447D01*
X79522042Y-72196903D01*
X79792451Y-72377585D01*
X80022415Y-72607549D01*
X80022416Y-72607551D01*
X80203098Y-72877960D01*
X80327553Y-73178422D01*
X80391000Y-73497389D01*
X80391000Y-73822611D01*
X80352622Y-74015547D01*
X80327553Y-74141579D01*
X80203097Y-74442042D01*
X80022415Y-74712451D01*
X79792451Y-74942415D01*
X79522042Y-75123097D01*
X79221579Y-75247553D01*
X79172884Y-75257239D01*
X78902611Y-75311000D01*
X78577389Y-75311000D01*
X78307116Y-75257239D01*
X78258421Y-75247553D01*
X77957958Y-75123097D01*
X77687549Y-74942415D01*
X77457585Y-74712451D01*
X77276903Y-74442042D01*
X77152447Y-74141579D01*
X77127378Y-74015547D01*
X77089000Y-73822611D01*
X77089000Y-73497389D01*
X77152447Y-73178422D01*
X77276902Y-72877960D01*
X77457584Y-72607551D01*
X77457585Y-72607549D01*
X77687549Y-72377585D01*
X77957958Y-72196903D01*
X78258421Y-72072447D01*
X78364744Y-72051298D01*
X78577389Y-72009000D01*
X78902611Y-72009000D01*
X79115256Y-72051298D01*
X79115256Y-72051298D01*
G37*
M02*
