%TF.GenerationSoftware,KiCad,Pcbnew,5.1.4-3.fc30*%
%TF.CreationDate,2019-10-13T17:22:03+02:00*%
%TF.ProjectId,high_power_sym_supply,68696768-5f70-46f7-9765-725f73796d5f,1.0*%
%TF.SameCoordinates,PX463f660PY6a95280*%
%TF.FileFunction,Legend,Top*%
%TF.FilePolarity,Positive*%
%FSLAX46Y46*%
G04 Gerber Fmt 4.6, Leading zero omitted, Abs format (unit mm)*
G04 Created by KiCad (PCBNEW 5.1.4-3.fc30) date 2019-10-13 17:22:03*
%MOMM*%
%LPD*%
G04 APERTURE LIST*
%ADD10C,0.150000*%
%ADD11C,0.300000*%
%ADD12C,0.500000*%
%ADD13C,0.200000*%
%ADD14C,0.400000*%
%ADD15C,0.120000*%
%ADD16C,3.302000*%
%ADD17C,2.502000*%
%ADD18R,2.502000X2.502000*%
%ADD19C,1.702000*%
%ADD20C,2.902000*%
%ADD21R,2.902000X2.902000*%
%ADD22C,1.902000*%
%ADD23R,1.902000X1.902000*%
%ADD24R,4.062000X2.082000*%
%ADD25O,4.062000X2.082000*%
%ADD26O,1.702000X1.702000*%
G04 APERTURE END LIST*
D10*
X35292142Y21772620D02*
X35292142Y22772620D01*
X35720714Y21772620D02*
X35720714Y22296429D01*
X35673095Y22391667D01*
X35577857Y22439286D01*
X35435000Y22439286D01*
X35339761Y22391667D01*
X35292142Y22344048D01*
X36054047Y22439286D02*
X36435000Y22439286D01*
X36196904Y22772620D02*
X36196904Y21915477D01*
X36244523Y21820239D01*
X36339761Y21772620D01*
X36435000Y21772620D01*
X36625476Y22439286D02*
X37006428Y22439286D01*
X36768333Y22772620D02*
X36768333Y21915477D01*
X36815952Y21820239D01*
X36911190Y21772620D01*
X37006428Y21772620D01*
X37339761Y22439286D02*
X37339761Y21439286D01*
X37339761Y22391667D02*
X37435000Y22439286D01*
X37625476Y22439286D01*
X37720714Y22391667D01*
X37768333Y22344048D01*
X37815952Y22248810D01*
X37815952Y21963096D01*
X37768333Y21867858D01*
X37720714Y21820239D01*
X37625476Y21772620D01*
X37435000Y21772620D01*
X37339761Y21820239D01*
X38196904Y21820239D02*
X38292142Y21772620D01*
X38482619Y21772620D01*
X38577857Y21820239D01*
X38625476Y21915477D01*
X38625476Y21963096D01*
X38577857Y22058334D01*
X38482619Y22105953D01*
X38339761Y22105953D01*
X38244523Y22153572D01*
X38196904Y22248810D01*
X38196904Y22296429D01*
X38244523Y22391667D01*
X38339761Y22439286D01*
X38482619Y22439286D01*
X38577857Y22391667D01*
X39054047Y21867858D02*
X39101666Y21820239D01*
X39054047Y21772620D01*
X39006428Y21820239D01*
X39054047Y21867858D01*
X39054047Y21772620D01*
X39054047Y22391667D02*
X39101666Y22344048D01*
X39054047Y22296429D01*
X39006428Y22344048D01*
X39054047Y22391667D01*
X39054047Y22296429D01*
X40244523Y22820239D02*
X39387380Y21534524D01*
X41292142Y22820239D02*
X40435000Y21534524D01*
X42054047Y22439286D02*
X42054047Y21629762D01*
X42006428Y21534524D01*
X41958809Y21486905D01*
X41863571Y21439286D01*
X41720714Y21439286D01*
X41625476Y21486905D01*
X42054047Y21820239D02*
X41958809Y21772620D01*
X41768333Y21772620D01*
X41673095Y21820239D01*
X41625476Y21867858D01*
X41577857Y21963096D01*
X41577857Y22248810D01*
X41625476Y22344048D01*
X41673095Y22391667D01*
X41768333Y22439286D01*
X41958809Y22439286D01*
X42054047Y22391667D01*
X42530238Y21772620D02*
X42530238Y22439286D01*
X42530238Y22772620D02*
X42482619Y22725000D01*
X42530238Y22677381D01*
X42577857Y22725000D01*
X42530238Y22772620D01*
X42530238Y22677381D01*
X42863571Y22439286D02*
X43244523Y22439286D01*
X43006428Y22772620D02*
X43006428Y21915477D01*
X43054047Y21820239D01*
X43149285Y21772620D01*
X43244523Y21772620D01*
X43577857Y21772620D02*
X43577857Y22772620D01*
X44006428Y21772620D02*
X44006428Y22296429D01*
X43958809Y22391667D01*
X43863571Y22439286D01*
X43720714Y22439286D01*
X43625476Y22391667D01*
X43577857Y22344048D01*
X44911190Y22439286D02*
X44911190Y21772620D01*
X44482619Y22439286D02*
X44482619Y21915477D01*
X44530238Y21820239D01*
X44625476Y21772620D01*
X44768333Y21772620D01*
X44863571Y21820239D01*
X44911190Y21867858D01*
X45387380Y21772620D02*
X45387380Y22772620D01*
X45387380Y22391667D02*
X45482619Y22439286D01*
X45673095Y22439286D01*
X45768333Y22391667D01*
X45815952Y22344048D01*
X45863571Y22248810D01*
X45863571Y21963096D01*
X45815952Y21867858D01*
X45768333Y21820239D01*
X45673095Y21772620D01*
X45482619Y21772620D01*
X45387380Y21820239D01*
X46292142Y21867858D02*
X46339761Y21820239D01*
X46292142Y21772620D01*
X46244523Y21820239D01*
X46292142Y21867858D01*
X46292142Y21772620D01*
X47196904Y21820239D02*
X47101666Y21772620D01*
X46911190Y21772620D01*
X46815952Y21820239D01*
X46768333Y21867858D01*
X46720714Y21963096D01*
X46720714Y22248810D01*
X46768333Y22344048D01*
X46815952Y22391667D01*
X46911190Y22439286D01*
X47101666Y22439286D01*
X47196904Y22391667D01*
X47768333Y21772620D02*
X47673095Y21820239D01*
X47625476Y21867858D01*
X47577857Y21963096D01*
X47577857Y22248810D01*
X47625476Y22344048D01*
X47673095Y22391667D01*
X47768333Y22439286D01*
X47911190Y22439286D01*
X48006428Y22391667D01*
X48054047Y22344048D01*
X48101666Y22248810D01*
X48101666Y21963096D01*
X48054047Y21867858D01*
X48006428Y21820239D01*
X47911190Y21772620D01*
X47768333Y21772620D01*
X48530238Y21772620D02*
X48530238Y22439286D01*
X48530238Y22344048D02*
X48577857Y22391667D01*
X48673095Y22439286D01*
X48815952Y22439286D01*
X48911190Y22391667D01*
X48958809Y22296429D01*
X48958809Y21772620D01*
X48958809Y22296429D02*
X49006428Y22391667D01*
X49101666Y22439286D01*
X49244523Y22439286D01*
X49339761Y22391667D01*
X49387380Y22296429D01*
X49387380Y21772620D01*
X50577857Y22820239D02*
X49720714Y21534524D01*
X50911190Y21772620D02*
X50911190Y22439286D01*
X50911190Y22344048D02*
X50958809Y22391667D01*
X51054047Y22439286D01*
X51196904Y22439286D01*
X51292142Y22391667D01*
X51339761Y22296429D01*
X51339761Y21772620D01*
X51339761Y22296429D02*
X51387380Y22391667D01*
X51482619Y22439286D01*
X51625476Y22439286D01*
X51720714Y22391667D01*
X51768333Y22296429D01*
X51768333Y21772620D01*
X52673095Y21772620D02*
X52673095Y22296429D01*
X52625476Y22391667D01*
X52530238Y22439286D01*
X52339761Y22439286D01*
X52244523Y22391667D01*
X52673095Y21820239D02*
X52577857Y21772620D01*
X52339761Y21772620D01*
X52244523Y21820239D01*
X52196904Y21915477D01*
X52196904Y22010715D01*
X52244523Y22105953D01*
X52339761Y22153572D01*
X52577857Y22153572D01*
X52673095Y22201191D01*
X53149285Y22439286D02*
X53149285Y21582143D01*
X53101666Y21486905D01*
X53006428Y21439286D01*
X52958809Y21439286D01*
X53149285Y22772620D02*
X53101666Y22725000D01*
X53149285Y22677381D01*
X53196904Y22725000D01*
X53149285Y22772620D01*
X53149285Y22677381D01*
X53577857Y21820239D02*
X53673095Y21772620D01*
X53863571Y21772620D01*
X53958809Y21820239D01*
X54006428Y21915477D01*
X54006428Y21963096D01*
X53958809Y22058334D01*
X53863571Y22105953D01*
X53720714Y22105953D01*
X53625476Y22153572D01*
X53577857Y22248810D01*
X53577857Y22296429D01*
X53625476Y22391667D01*
X53720714Y22439286D01*
X53863571Y22439286D01*
X53958809Y22391667D01*
X54292142Y22439286D02*
X54673095Y22439286D01*
X54435000Y22772620D02*
X54435000Y21915477D01*
X54482619Y21820239D01*
X54577857Y21772620D01*
X54673095Y21772620D01*
X55387380Y21820239D02*
X55292142Y21772620D01*
X55101666Y21772620D01*
X55006428Y21820239D01*
X54958809Y21915477D01*
X54958809Y22296429D01*
X55006428Y22391667D01*
X55101666Y22439286D01*
X55292142Y22439286D01*
X55387380Y22391667D01*
X55435000Y22296429D01*
X55435000Y22201191D01*
X54958809Y22105953D01*
X55863571Y21772620D02*
X55863571Y22439286D01*
X55863571Y22248810D02*
X55911190Y22344048D01*
X55958809Y22391667D01*
X56054047Y22439286D01*
X56149285Y22439286D01*
X56482619Y21772620D02*
X56482619Y22772620D01*
X56577857Y22153572D02*
X56863571Y21772620D01*
X56863571Y22439286D02*
X56482619Y22058334D01*
X57435000Y21772620D02*
X57339761Y21820239D01*
X57292142Y21915477D01*
X57292142Y22772620D01*
X58196904Y21820239D02*
X58101666Y21772620D01*
X57911190Y21772620D01*
X57815952Y21820239D01*
X57768333Y21915477D01*
X57768333Y22296429D01*
X57815952Y22391667D01*
X57911190Y22439286D01*
X58101666Y22439286D01*
X58196904Y22391667D01*
X58244523Y22296429D01*
X58244523Y22201191D01*
X57768333Y22105953D01*
X58673095Y22439286D02*
X58673095Y21439286D01*
X58673095Y22391667D02*
X58768333Y22439286D01*
X58958809Y22439286D01*
X59054047Y22391667D01*
X59101666Y22344048D01*
X59149285Y22248810D01*
X59149285Y21963096D01*
X59101666Y21867858D01*
X59054047Y21820239D01*
X58958809Y21772620D01*
X58768333Y21772620D01*
X58673095Y21820239D01*
X59577857Y21772620D02*
X59577857Y22772620D01*
X59673095Y22153572D02*
X59958809Y21772620D01*
X59958809Y22439286D02*
X59577857Y22058334D01*
X60815952Y21772620D02*
X60815952Y22296429D01*
X60768333Y22391667D01*
X60673095Y22439286D01*
X60482619Y22439286D01*
X60387380Y22391667D01*
X60815952Y21820239D02*
X60720714Y21772620D01*
X60482619Y21772620D01*
X60387380Y21820239D01*
X60339761Y21915477D01*
X60339761Y22010715D01*
X60387380Y22105953D01*
X60482619Y22153572D01*
X60720714Y22153572D01*
X60815952Y22201191D01*
X62006428Y22820239D02*
X61149285Y21534524D01*
X62482619Y21772620D02*
X62387380Y21820239D01*
X62339761Y21915477D01*
X62339761Y22772620D01*
X63292142Y21772620D02*
X63292142Y22296429D01*
X63244523Y22391667D01*
X63149285Y22439286D01*
X62958809Y22439286D01*
X62863571Y22391667D01*
X63292142Y21820239D02*
X63196904Y21772620D01*
X62958809Y21772620D01*
X62863571Y21820239D01*
X62815952Y21915477D01*
X62815952Y22010715D01*
X62863571Y22105953D01*
X62958809Y22153572D01*
X63196904Y22153572D01*
X63292142Y22201191D01*
X63768333Y21772620D02*
X63768333Y22772620D01*
X63768333Y22391667D02*
X63863571Y22439286D01*
X64054047Y22439286D01*
X64149285Y22391667D01*
X64196904Y22344048D01*
X64244523Y22248810D01*
X64244523Y21963096D01*
X64196904Y21867858D01*
X64149285Y21820239D01*
X64054047Y21772620D01*
X63863571Y21772620D01*
X63768333Y21820239D01*
X65196904Y21772620D02*
X64625476Y21772620D01*
X64911190Y21772620D02*
X64911190Y22772620D01*
X64815952Y22629762D01*
X64720714Y22534524D01*
X64625476Y22486905D01*
X65625476Y21867858D02*
X65673095Y21820239D01*
X65625476Y21772620D01*
X65577857Y21820239D01*
X65625476Y21867858D01*
X65625476Y21772620D01*
X66530238Y22439286D02*
X66530238Y21629762D01*
X66482619Y21534524D01*
X66435000Y21486905D01*
X66339761Y21439286D01*
X66196904Y21439286D01*
X66101666Y21486905D01*
X66530238Y21820239D02*
X66435000Y21772620D01*
X66244523Y21772620D01*
X66149285Y21820239D01*
X66101666Y21867858D01*
X66054047Y21963096D01*
X66054047Y22248810D01*
X66101666Y22344048D01*
X66149285Y22391667D01*
X66244523Y22439286D01*
X66435000Y22439286D01*
X66530238Y22391667D01*
X67006428Y21772620D02*
X67006428Y22439286D01*
X67006428Y22772620D02*
X66958809Y22725000D01*
X67006428Y22677381D01*
X67054047Y22725000D01*
X67006428Y22772620D01*
X67006428Y22677381D01*
X67339761Y22439286D02*
X67720714Y22439286D01*
X67482619Y22772620D02*
X67482619Y21915477D01*
X67530238Y21820239D01*
X67625476Y21772620D01*
X67720714Y21772620D01*
D11*
X97095952Y40274762D02*
X97191190Y40370000D01*
X97381666Y40465239D01*
X97857857Y40465239D01*
X98048333Y40370000D01*
X98143571Y40274762D01*
X98238809Y40084286D01*
X98238809Y39893810D01*
X98143571Y39608096D01*
X97000714Y38465239D01*
X98238809Y38465239D01*
X99476904Y40465239D02*
X99667380Y40465239D01*
X99857857Y40370000D01*
X99953095Y40274762D01*
X100048333Y40084286D01*
X100143571Y39703334D01*
X100143571Y39227143D01*
X100048333Y38846191D01*
X99953095Y38655715D01*
X99857857Y38560477D01*
X99667380Y38465239D01*
X99476904Y38465239D01*
X99286428Y38560477D01*
X99191190Y38655715D01*
X99095952Y38846191D01*
X99000714Y39227143D01*
X99000714Y39703334D01*
X99095952Y40084286D01*
X99191190Y40274762D01*
X99286428Y40370000D01*
X99476904Y40465239D01*
X102048333Y38465239D02*
X100905476Y38465239D01*
X101476904Y38465239D02*
X101476904Y40465239D01*
X101286428Y40179524D01*
X101095952Y39989048D01*
X100905476Y39893810D01*
X103000714Y38465239D02*
X103381666Y38465239D01*
X103572142Y38560477D01*
X103667380Y38655715D01*
X103857857Y38941429D01*
X103953095Y39322381D01*
X103953095Y40084286D01*
X103857857Y40274762D01*
X103762619Y40370000D01*
X103572142Y40465239D01*
X103191190Y40465239D01*
X103000714Y40370000D01*
X102905476Y40274762D01*
X102810238Y40084286D01*
X102810238Y39608096D01*
X102905476Y39417620D01*
X103000714Y39322381D01*
X103191190Y39227143D01*
X103572142Y39227143D01*
X103762619Y39322381D01*
X103857857Y39417620D01*
X103953095Y39608096D01*
D12*
X85891190Y2905239D02*
X85891190Y4238572D01*
X85891190Y3857620D02*
X85986428Y4048096D01*
X86081666Y4143334D01*
X86272142Y4238572D01*
X86462619Y4238572D01*
X87891190Y3000477D02*
X87700714Y2905239D01*
X87319761Y2905239D01*
X87129285Y3000477D01*
X87034047Y3190953D01*
X87034047Y3952858D01*
X87129285Y4143334D01*
X87319761Y4238572D01*
X87700714Y4238572D01*
X87891190Y4143334D01*
X87986428Y3952858D01*
X87986428Y3762381D01*
X87034047Y3571905D01*
X88653095Y4238572D02*
X89129285Y2905239D01*
X89605476Y4238572D01*
X90367380Y3095715D02*
X90462619Y3000477D01*
X90367380Y2905239D01*
X90272142Y3000477D01*
X90367380Y3095715D01*
X90367380Y2905239D01*
X93891190Y2905239D02*
X92748333Y2905239D01*
X93319761Y2905239D02*
X93319761Y4905239D01*
X93129285Y4619524D01*
X92938809Y4429048D01*
X92748333Y4333810D01*
X94748333Y3095715D02*
X94843571Y3000477D01*
X94748333Y2905239D01*
X94653095Y3000477D01*
X94748333Y3095715D01*
X94748333Y2905239D01*
X96081666Y4905239D02*
X96272142Y4905239D01*
X96462619Y4810000D01*
X96557857Y4714762D01*
X96653095Y4524286D01*
X96748333Y4143334D01*
X96748333Y3667143D01*
X96653095Y3286191D01*
X96557857Y3095715D01*
X96462619Y3000477D01*
X96272142Y2905239D01*
X96081666Y2905239D01*
X95891190Y3000477D01*
X95795952Y3095715D01*
X95700714Y3286191D01*
X95605476Y3667143D01*
X95605476Y4143334D01*
X95700714Y4524286D01*
X95795952Y4714762D01*
X95891190Y4810000D01*
X96081666Y4905239D01*
D13*
X10518571Y39900000D02*
X11090000Y39900000D01*
X10404285Y39557143D02*
X10804285Y40757143D01*
X11204285Y39557143D01*
X12290000Y39671429D02*
X12232857Y39614286D01*
X12061428Y39557143D01*
X11947142Y39557143D01*
X11775714Y39614286D01*
X11661428Y39728572D01*
X11604285Y39842858D01*
X11547142Y40071429D01*
X11547142Y40242858D01*
X11604285Y40471429D01*
X11661428Y40585715D01*
X11775714Y40700000D01*
X11947142Y40757143D01*
X12061428Y40757143D01*
X12232857Y40700000D01*
X12290000Y40642858D01*
X13661428Y40814286D02*
X12632857Y39271429D01*
X14061428Y39557143D02*
X14061428Y40757143D01*
X14347142Y40757143D01*
X14518571Y40700000D01*
X14632857Y40585715D01*
X14690000Y40471429D01*
X14747142Y40242858D01*
X14747142Y40071429D01*
X14690000Y39842858D01*
X14632857Y39728572D01*
X14518571Y39614286D01*
X14347142Y39557143D01*
X14061428Y39557143D01*
X15947142Y39671429D02*
X15890000Y39614286D01*
X15718571Y39557143D01*
X15604285Y39557143D01*
X15432857Y39614286D01*
X15318571Y39728572D01*
X15261428Y39842858D01*
X15204285Y40071429D01*
X15204285Y40242858D01*
X15261428Y40471429D01*
X15318571Y40585715D01*
X15432857Y40700000D01*
X15604285Y40757143D01*
X15718571Y40757143D01*
X15890000Y40700000D01*
X15947142Y40642858D01*
X17318571Y39614286D02*
X17432857Y39557143D01*
X17661428Y39557143D01*
X17775714Y39614286D01*
X17832857Y39728572D01*
X17832857Y39785715D01*
X17775714Y39900000D01*
X17661428Y39957143D01*
X17490000Y39957143D01*
X17375714Y40014286D01*
X17318571Y40128572D01*
X17318571Y40185715D01*
X17375714Y40300000D01*
X17490000Y40357143D01*
X17661428Y40357143D01*
X17775714Y40300000D01*
X18861428Y40357143D02*
X18861428Y39557143D01*
X18347142Y40357143D02*
X18347142Y39728572D01*
X18404285Y39614286D01*
X18518571Y39557143D01*
X18690000Y39557143D01*
X18804285Y39614286D01*
X18861428Y39671429D01*
X19432857Y40357143D02*
X19432857Y39157143D01*
X19432857Y40300000D02*
X19547142Y40357143D01*
X19775714Y40357143D01*
X19890000Y40300000D01*
X19947142Y40242858D01*
X20004285Y40128572D01*
X20004285Y39785715D01*
X19947142Y39671429D01*
X19890000Y39614286D01*
X19775714Y39557143D01*
X19547142Y39557143D01*
X19432857Y39614286D01*
X20518571Y40357143D02*
X20518571Y39157143D01*
X20518571Y40300000D02*
X20632857Y40357143D01*
X20861428Y40357143D01*
X20975714Y40300000D01*
X21032857Y40242858D01*
X21090000Y40128572D01*
X21090000Y39785715D01*
X21032857Y39671429D01*
X20975714Y39614286D01*
X20861428Y39557143D01*
X20632857Y39557143D01*
X20518571Y39614286D01*
X21775714Y39557143D02*
X21661428Y39614286D01*
X21604285Y39728572D01*
X21604285Y40757143D01*
X22118571Y40357143D02*
X22404285Y39557143D01*
X22690000Y40357143D02*
X22404285Y39557143D01*
X22290000Y39271429D01*
X22232857Y39214286D01*
X22118571Y39157143D01*
X10518571Y37900000D02*
X11090000Y37900000D01*
X10404285Y37557143D02*
X10804285Y38757143D01*
X11204285Y37557143D01*
X12290000Y37671429D02*
X12232857Y37614286D01*
X12061428Y37557143D01*
X11947142Y37557143D01*
X11775714Y37614286D01*
X11661428Y37728572D01*
X11604285Y37842858D01*
X11547142Y38071429D01*
X11547142Y38242858D01*
X11604285Y38471429D01*
X11661428Y38585715D01*
X11775714Y38700000D01*
X11947142Y38757143D01*
X12061428Y38757143D01*
X12232857Y38700000D01*
X12290000Y38642858D01*
X13718571Y37557143D02*
X13718571Y38357143D01*
X13718571Y38757143D02*
X13661428Y38700000D01*
X13718571Y38642858D01*
X13775714Y38700000D01*
X13718571Y38757143D01*
X13718571Y38642858D01*
X14290000Y38357143D02*
X14290000Y37557143D01*
X14290000Y38242858D02*
X14347142Y38300000D01*
X14461428Y38357143D01*
X14632857Y38357143D01*
X14747142Y38300000D01*
X14804285Y38185715D01*
X14804285Y37557143D01*
X15375714Y38357143D02*
X15375714Y37157143D01*
X15375714Y38300000D02*
X15490000Y38357143D01*
X15718571Y38357143D01*
X15832857Y38300000D01*
X15890000Y38242858D01*
X15947142Y38128572D01*
X15947142Y37785715D01*
X15890000Y37671429D01*
X15832857Y37614286D01*
X15718571Y37557143D01*
X15490000Y37557143D01*
X15375714Y37614286D01*
X16975714Y38357143D02*
X16975714Y37557143D01*
X16461428Y38357143D02*
X16461428Y37728572D01*
X16518571Y37614286D01*
X16632857Y37557143D01*
X16804285Y37557143D01*
X16918571Y37614286D01*
X16975714Y37671429D01*
X17375714Y38357143D02*
X17832857Y38357143D01*
X17547142Y38757143D02*
X17547142Y37728572D01*
X17604285Y37614286D01*
X17718571Y37557143D01*
X17832857Y37557143D01*
X18232857Y37671429D02*
X18290000Y37614286D01*
X18232857Y37557143D01*
X18175714Y37614286D01*
X18232857Y37671429D01*
X18232857Y37557143D01*
X18232857Y38300000D02*
X18290000Y38242858D01*
X18232857Y38185715D01*
X18175714Y38242858D01*
X18232857Y38300000D01*
X18232857Y38185715D01*
X10575714Y35557143D02*
X10575714Y36357143D01*
X10575714Y36242858D02*
X10632857Y36300000D01*
X10747142Y36357143D01*
X10918571Y36357143D01*
X11032857Y36300000D01*
X11090000Y36185715D01*
X11090000Y35557143D01*
X11090000Y36185715D02*
X11147142Y36300000D01*
X11261428Y36357143D01*
X11432857Y36357143D01*
X11547142Y36300000D01*
X11604285Y36185715D01*
X11604285Y35557143D01*
X12690000Y35557143D02*
X12690000Y36185715D01*
X12632857Y36300000D01*
X12518571Y36357143D01*
X12290000Y36357143D01*
X12175714Y36300000D01*
X12690000Y35614286D02*
X12575714Y35557143D01*
X12290000Y35557143D01*
X12175714Y35614286D01*
X12118571Y35728572D01*
X12118571Y35842858D01*
X12175714Y35957143D01*
X12290000Y36014286D01*
X12575714Y36014286D01*
X12690000Y36071429D01*
X13147142Y35557143D02*
X13775714Y36357143D01*
X13147142Y36357143D02*
X13775714Y35557143D01*
X15090000Y36642858D02*
X15147142Y36700000D01*
X15261428Y36757143D01*
X15547142Y36757143D01*
X15661428Y36700000D01*
X15718571Y36642858D01*
X15775714Y36528572D01*
X15775714Y36414286D01*
X15718571Y36242858D01*
X15032857Y35557143D01*
X15775714Y35557143D01*
X16175714Y35557143D02*
X16804285Y36357143D01*
X16175714Y36357143D02*
X16804285Y35557143D01*
X17204285Y36642858D02*
X17261428Y36700000D01*
X17375714Y36757143D01*
X17661428Y36757143D01*
X17775714Y36700000D01*
X17832857Y36642858D01*
X17890000Y36528572D01*
X17890000Y36414286D01*
X17832857Y36242858D01*
X17147142Y35557143D01*
X17890000Y35557143D01*
X18918571Y36357143D02*
X18918571Y35557143D01*
X18632857Y36814286D02*
X18347142Y35957143D01*
X19090000Y35957143D01*
X19375714Y36757143D02*
X19775714Y35557143D01*
X20175714Y36757143D01*
X22004285Y36357143D02*
X22004285Y35557143D01*
X21718571Y36814286D02*
X21432857Y35957143D01*
X22175714Y35957143D01*
X22575714Y35900000D02*
X23147142Y35900000D01*
X22461428Y35557143D02*
X22861428Y36757143D01*
X23261428Y35557143D01*
D10*
X18798214Y4402858D02*
X19012500Y4331429D01*
X19369642Y4331429D01*
X19512500Y4402858D01*
X19583928Y4474286D01*
X19655357Y4617143D01*
X19655357Y4760000D01*
X19583928Y4902858D01*
X19512500Y4974286D01*
X19369642Y5045715D01*
X19083928Y5117143D01*
X18941071Y5188572D01*
X18869642Y5260000D01*
X18798214Y5402858D01*
X18798214Y5545715D01*
X18869642Y5688572D01*
X18941071Y5760000D01*
X19083928Y5831429D01*
X19441071Y5831429D01*
X19655357Y5760000D01*
X21298214Y4188572D02*
X21155357Y4260000D01*
X21012500Y4402858D01*
X20798214Y4617143D01*
X20655357Y4688572D01*
X20512500Y4688572D01*
X20583928Y4331429D02*
X20441071Y4402858D01*
X20298214Y4545715D01*
X20226785Y4831429D01*
X20226785Y5331429D01*
X20298214Y5617143D01*
X20441071Y5760000D01*
X20583928Y5831429D01*
X20869642Y5831429D01*
X21012500Y5760000D01*
X21155357Y5617143D01*
X21226785Y5331429D01*
X21226785Y4831429D01*
X21155357Y4545715D01*
X21012500Y4402858D01*
X20869642Y4331429D01*
X20583928Y4331429D01*
X21726785Y5831429D02*
X22726785Y5831429D01*
X22083928Y4331429D01*
X23298214Y5117143D02*
X23798214Y5117143D01*
X24012500Y4331429D02*
X23298214Y4331429D01*
X23298214Y5831429D01*
X24012500Y5831429D01*
X25655357Y4188572D02*
X25512500Y4260000D01*
X25369642Y4402858D01*
X25155357Y4617143D01*
X25012500Y4688572D01*
X24869642Y4688572D01*
X24941071Y4331429D02*
X24798214Y4402858D01*
X24655357Y4545715D01*
X24583928Y4831429D01*
X24583928Y5331429D01*
X24655357Y5617143D01*
X24798214Y5760000D01*
X24941071Y5831429D01*
X25226785Y5831429D01*
X25369642Y5760000D01*
X25512500Y5617143D01*
X25583928Y5331429D01*
X25583928Y4831429D01*
X25512500Y4545715D01*
X25369642Y4402858D01*
X25226785Y4331429D01*
X24941071Y4331429D01*
X26226785Y5117143D02*
X26726785Y5117143D01*
X26941071Y4331429D02*
X26226785Y4331429D01*
X26226785Y5831429D01*
X26941071Y5831429D01*
X19655357Y3360000D02*
X19512500Y3431429D01*
X19298214Y3431429D01*
X19083928Y3360000D01*
X18941071Y3217143D01*
X18869642Y3074286D01*
X18798214Y2788572D01*
X18798214Y2574286D01*
X18869642Y2288572D01*
X18941071Y2145715D01*
X19083928Y2002858D01*
X19298214Y1931429D01*
X19441071Y1931429D01*
X19655357Y2002858D01*
X19726785Y2074286D01*
X19726785Y2574286D01*
X19441071Y2574286D01*
X20369642Y1931429D02*
X20369642Y3431429D01*
X21226785Y1931429D01*
X21226785Y3431429D01*
X21941071Y3431429D02*
X21941071Y2217143D01*
X22012500Y2074286D01*
X22083928Y2002858D01*
X22226785Y1931429D01*
X22512500Y1931429D01*
X22655357Y2002858D01*
X22726785Y2074286D01*
X22798214Y2217143D01*
X22798214Y3431429D01*
X25441071Y3360000D02*
X25298214Y3431429D01*
X25083928Y3431429D01*
X24869642Y3360000D01*
X24726785Y3217143D01*
X24655357Y3074286D01*
X24583928Y2788572D01*
X24583928Y2574286D01*
X24655357Y2288572D01*
X24726785Y2145715D01*
X24869642Y2002858D01*
X25083928Y1931429D01*
X25226785Y1931429D01*
X25441071Y2002858D01*
X25512500Y2074286D01*
X25512500Y2574286D01*
X25226785Y2574286D01*
X26155357Y1931429D02*
X26155357Y3431429D01*
X26726785Y3431429D01*
X26869642Y3360000D01*
X26941071Y3288572D01*
X27012500Y3145715D01*
X27012500Y2931429D01*
X26941071Y2788572D01*
X26869642Y2717143D01*
X26726785Y2645715D01*
X26155357Y2645715D01*
X28369642Y1931429D02*
X27655357Y1931429D01*
X27655357Y3431429D01*
X28726785Y2931429D02*
X29083928Y1931429D01*
X29441071Y2931429D01*
X29869642Y3431429D02*
X30798214Y3431429D01*
X30298214Y2860000D01*
X30512500Y2860000D01*
X30655357Y2788572D01*
X30726785Y2717143D01*
X30798214Y2574286D01*
X30798214Y2217143D01*
X30726785Y2074286D01*
X30655357Y2002858D01*
X30512500Y1931429D01*
X30083928Y1931429D01*
X29941071Y2002858D01*
X29869642Y2074286D01*
D14*
X91567142Y18835715D02*
X93852857Y18835715D01*
X92710000Y17692858D02*
X92710000Y19978572D01*
X91567142Y30265715D02*
X93852857Y30265715D01*
X103785000Y13417143D02*
X105308809Y13417143D01*
X101213571Y11160000D02*
X101023095Y11255239D01*
X100737380Y11255239D01*
X100451666Y11160000D01*
X100261190Y10969524D01*
X100165952Y10779048D01*
X100070714Y10398096D01*
X100070714Y10112381D01*
X100165952Y9731429D01*
X100261190Y9540953D01*
X100451666Y9350477D01*
X100737380Y9255239D01*
X100927857Y9255239D01*
X101213571Y9350477D01*
X101308809Y9445715D01*
X101308809Y10112381D01*
X100927857Y10112381D01*
X102165952Y9255239D02*
X102165952Y11255239D01*
X103308809Y9255239D01*
X103308809Y11255239D01*
X104261190Y9255239D02*
X104261190Y11255239D01*
X104737380Y11255239D01*
X105023095Y11160000D01*
X105213571Y10969524D01*
X105308809Y10779048D01*
X105404047Y10398096D01*
X105404047Y10112381D01*
X105308809Y9731429D01*
X105213571Y9540953D01*
X105023095Y9350477D01*
X104737380Y9255239D01*
X104261190Y9255239D01*
X103785000Y6617143D02*
X105308809Y6617143D01*
X104546904Y5855239D02*
X104546904Y7379048D01*
X8895952Y10686667D02*
X9848333Y10686667D01*
X8705476Y10115239D02*
X9372142Y12115239D01*
X10038809Y10115239D01*
X11848333Y10305715D02*
X11753095Y10210477D01*
X11467380Y10115239D01*
X11276904Y10115239D01*
X10991190Y10210477D01*
X10800714Y10400953D01*
X10705476Y10591429D01*
X10610238Y10972381D01*
X10610238Y11258096D01*
X10705476Y11639048D01*
X10800714Y11829524D01*
X10991190Y12020000D01*
X11276904Y12115239D01*
X11467380Y12115239D01*
X11753095Y12020000D01*
X11848333Y11924762D01*
X10038809Y8620000D02*
X9848333Y8715239D01*
X9562619Y8715239D01*
X9276904Y8620000D01*
X9086428Y8429524D01*
X8991190Y8239048D01*
X8895952Y7858096D01*
X8895952Y7572381D01*
X8991190Y7191429D01*
X9086428Y7000953D01*
X9276904Y6810477D01*
X9562619Y6715239D01*
X9753095Y6715239D01*
X10038809Y6810477D01*
X10134047Y6905715D01*
X10134047Y7572381D01*
X9753095Y7572381D01*
X10991190Y6715239D02*
X10991190Y8715239D01*
X12134047Y6715239D01*
X12134047Y8715239D01*
X13086428Y6715239D02*
X13086428Y8715239D01*
X13562619Y8715239D01*
X13848333Y8620000D01*
X14038809Y8429524D01*
X14134047Y8239048D01*
X14229285Y7858096D01*
X14229285Y7572381D01*
X14134047Y7191429D01*
X14038809Y7000953D01*
X13848333Y6810477D01*
X13562619Y6715239D01*
X13086428Y6715239D01*
X8895952Y3886667D02*
X9848333Y3886667D01*
X8705476Y3315239D02*
X9372142Y5315239D01*
X10038809Y3315239D01*
X11848333Y3505715D02*
X11753095Y3410477D01*
X11467380Y3315239D01*
X11276904Y3315239D01*
X10991190Y3410477D01*
X10800714Y3600953D01*
X10705476Y3791429D01*
X10610238Y4172381D01*
X10610238Y4458096D01*
X10705476Y4839048D01*
X10800714Y5029524D01*
X10991190Y5220000D01*
X11276904Y5315239D01*
X11467380Y5315239D01*
X11753095Y5220000D01*
X11848333Y5124762D01*
D15*
%TO.C,C1*%
X34625000Y2510560D02*
X36425000Y2510560D01*
X35525000Y1610560D02*
X35525000Y3410560D01*
X40600000Y20490000D02*
X40680000Y20490000D01*
X39826000Y20450000D02*
X41454000Y20450000D01*
X39474000Y20410000D02*
X41806000Y20410000D01*
X39205000Y20370000D02*
X42075000Y20370000D01*
X38979000Y20330000D02*
X42301000Y20330000D01*
X38780000Y20290000D02*
X42500000Y20290000D01*
X38601000Y20250000D02*
X42679000Y20250000D01*
X38437000Y20210000D02*
X42843000Y20210000D01*
X38285000Y20170000D02*
X42995000Y20170000D01*
X38142000Y20130000D02*
X43138000Y20130000D01*
X38008000Y20090000D02*
X43272000Y20090000D01*
X37881000Y20050000D02*
X43399000Y20050000D01*
X37760000Y20010000D02*
X43520000Y20010000D01*
X37644000Y19970000D02*
X43636000Y19970000D01*
X37533000Y19930000D02*
X43747000Y19930000D01*
X37426000Y19890000D02*
X43854000Y19890000D01*
X37323000Y19850000D02*
X43957000Y19850000D01*
X37224000Y19810000D02*
X44056000Y19810000D01*
X37128000Y19770000D02*
X44152000Y19770000D01*
X37035000Y19730000D02*
X44245000Y19730000D01*
X36944000Y19690000D02*
X44336000Y19690000D01*
X36856000Y19650000D02*
X44424000Y19650000D01*
X36771000Y19610000D02*
X44509000Y19610000D01*
X36688000Y19570000D02*
X44592000Y19570000D01*
X36607000Y19531000D02*
X44673000Y19531000D01*
X36527000Y19491000D02*
X44753000Y19491000D01*
X36450000Y19451000D02*
X44830000Y19451000D01*
X36375000Y19411000D02*
X44905000Y19411000D01*
X36301000Y19371000D02*
X44979000Y19371000D01*
X36228000Y19331000D02*
X45052000Y19331000D01*
X36158000Y19291000D02*
X45122000Y19291000D01*
X36088000Y19251000D02*
X45192000Y19251000D01*
X36020000Y19211000D02*
X45260000Y19211000D01*
X35954000Y19171000D02*
X45326000Y19171000D01*
X35888000Y19131000D02*
X45392000Y19131000D01*
X35824000Y19091000D02*
X45456000Y19091000D01*
X35761000Y19051000D02*
X45519000Y19051000D01*
X35699000Y19011000D02*
X45581000Y19011000D01*
X35638000Y18971000D02*
X45642000Y18971000D01*
X35578000Y18931000D02*
X45702000Y18931000D01*
X35520000Y18891000D02*
X45760000Y18891000D01*
X35462000Y18851000D02*
X45818000Y18851000D01*
X35405000Y18811000D02*
X45875000Y18811000D01*
X35349000Y18771000D02*
X45931000Y18771000D01*
X35294000Y18731000D02*
X45986000Y18731000D01*
X35240000Y18691000D02*
X46040000Y18691000D01*
X35186000Y18651000D02*
X46094000Y18651000D01*
X35134000Y18611000D02*
X46146000Y18611000D01*
X35082000Y18571000D02*
X46198000Y18571000D01*
X35031000Y18531000D02*
X46249000Y18531000D01*
X34980000Y18491000D02*
X46300000Y18491000D01*
X34931000Y18451000D02*
X46349000Y18451000D01*
X34882000Y18411000D02*
X46398000Y18411000D01*
X34834000Y18371000D02*
X46446000Y18371000D01*
X34786000Y18331000D02*
X46494000Y18331000D01*
X34739000Y18291000D02*
X46541000Y18291000D01*
X34693000Y18251000D02*
X46587000Y18251000D01*
X34647000Y18211000D02*
X46633000Y18211000D01*
X34602000Y18171000D02*
X46678000Y18171000D01*
X34558000Y18131000D02*
X46722000Y18131000D01*
X34514000Y18091000D02*
X46766000Y18091000D01*
X34470000Y18051000D02*
X46810000Y18051000D01*
X34428000Y18011000D02*
X46852000Y18011000D01*
X34386000Y17971000D02*
X46894000Y17971000D01*
X34344000Y17931000D02*
X46936000Y17931000D01*
X34303000Y17891000D02*
X46977000Y17891000D01*
X34262000Y17851000D02*
X47018000Y17851000D01*
X34222000Y17811000D02*
X47058000Y17811000D01*
X34182000Y17771000D02*
X47098000Y17771000D01*
X34143000Y17731000D02*
X47137000Y17731000D01*
X34104000Y17691000D02*
X47176000Y17691000D01*
X34066000Y17651000D02*
X47214000Y17651000D01*
X34028000Y17611000D02*
X47252000Y17611000D01*
X33991000Y17571000D02*
X47289000Y17571000D01*
X33954000Y17531000D02*
X47326000Y17531000D01*
X33918000Y17491000D02*
X47362000Y17491000D01*
X33882000Y17451000D02*
X47398000Y17451000D01*
X33846000Y17411000D02*
X47434000Y17411000D01*
X33811000Y17371000D02*
X47469000Y17371000D01*
X33776000Y17331000D02*
X47504000Y17331000D01*
X33742000Y17291000D02*
X47538000Y17291000D01*
X33708000Y17251000D02*
X47572000Y17251000D01*
X33675000Y17211000D02*
X47605000Y17211000D01*
X33641000Y17171000D02*
X47639000Y17171000D01*
X33609000Y17131000D02*
X47671000Y17131000D01*
X33576000Y17091000D02*
X47704000Y17091000D01*
X33544000Y17051000D02*
X47736000Y17051000D01*
X33513000Y17011000D02*
X47767000Y17011000D01*
X33481000Y16971000D02*
X47799000Y16971000D01*
X33450000Y16931000D02*
X47830000Y16931000D01*
X33420000Y16891000D02*
X47860000Y16891000D01*
X33390000Y16851000D02*
X47890000Y16851000D01*
X33360000Y16811000D02*
X47920000Y16811000D01*
X33330000Y16771000D02*
X47950000Y16771000D01*
X33301000Y16731000D02*
X47979000Y16731000D01*
X33272000Y16691000D02*
X48008000Y16691000D01*
X33243000Y16651000D02*
X48037000Y16651000D01*
X33215000Y16611000D02*
X48065000Y16611000D01*
X33187000Y16571000D02*
X48093000Y16571000D01*
X42080000Y16531000D02*
X48120000Y16531000D01*
X33160000Y16531000D02*
X39200000Y16531000D01*
X42080000Y16491000D02*
X48148000Y16491000D01*
X33132000Y16491000D02*
X39200000Y16491000D01*
X42080000Y16451000D02*
X48175000Y16451000D01*
X33105000Y16451000D02*
X39200000Y16451000D01*
X42080000Y16411000D02*
X48201000Y16411000D01*
X33079000Y16411000D02*
X39200000Y16411000D01*
X42080000Y16371000D02*
X48228000Y16371000D01*
X33052000Y16371000D02*
X39200000Y16371000D01*
X42080000Y16331000D02*
X48254000Y16331000D01*
X33026000Y16331000D02*
X39200000Y16331000D01*
X42080000Y16291000D02*
X48280000Y16291000D01*
X33000000Y16291000D02*
X39200000Y16291000D01*
X42080000Y16251000D02*
X48305000Y16251000D01*
X32975000Y16251000D02*
X39200000Y16251000D01*
X42080000Y16211000D02*
X48330000Y16211000D01*
X32950000Y16211000D02*
X39200000Y16211000D01*
X42080000Y16171000D02*
X48355000Y16171000D01*
X32925000Y16171000D02*
X39200000Y16171000D01*
X42080000Y16131000D02*
X48380000Y16131000D01*
X32900000Y16131000D02*
X39200000Y16131000D01*
X42080000Y16091000D02*
X48404000Y16091000D01*
X32876000Y16091000D02*
X39200000Y16091000D01*
X42080000Y16051000D02*
X48428000Y16051000D01*
X32852000Y16051000D02*
X39200000Y16051000D01*
X42080000Y16011000D02*
X48452000Y16011000D01*
X32828000Y16011000D02*
X39200000Y16011000D01*
X42080000Y15971000D02*
X48475000Y15971000D01*
X32805000Y15971000D02*
X39200000Y15971000D01*
X42080000Y15931000D02*
X48499000Y15931000D01*
X32781000Y15931000D02*
X39200000Y15931000D01*
X42080000Y15891000D02*
X48522000Y15891000D01*
X32758000Y15891000D02*
X39200000Y15891000D01*
X42080000Y15851000D02*
X48544000Y15851000D01*
X32736000Y15851000D02*
X39200000Y15851000D01*
X42080000Y15811000D02*
X48567000Y15811000D01*
X32713000Y15811000D02*
X39200000Y15811000D01*
X42080000Y15771000D02*
X48589000Y15771000D01*
X32691000Y15771000D02*
X39200000Y15771000D01*
X42080000Y15731000D02*
X48611000Y15731000D01*
X32669000Y15731000D02*
X39200000Y15731000D01*
X42080000Y15691000D02*
X48632000Y15691000D01*
X32648000Y15691000D02*
X39200000Y15691000D01*
X42080000Y15651000D02*
X48654000Y15651000D01*
X32626000Y15651000D02*
X39200000Y15651000D01*
X42080000Y15611000D02*
X48675000Y15611000D01*
X32605000Y15611000D02*
X39200000Y15611000D01*
X42080000Y15571000D02*
X48696000Y15571000D01*
X32584000Y15571000D02*
X39200000Y15571000D01*
X42080000Y15531000D02*
X48716000Y15531000D01*
X32564000Y15531000D02*
X39200000Y15531000D01*
X42080000Y15491000D02*
X48737000Y15491000D01*
X32543000Y15491000D02*
X39200000Y15491000D01*
X42080000Y15451000D02*
X48757000Y15451000D01*
X32523000Y15451000D02*
X39200000Y15451000D01*
X42080000Y15411000D02*
X48777000Y15411000D01*
X32503000Y15411000D02*
X39200000Y15411000D01*
X42080000Y15371000D02*
X48796000Y15371000D01*
X32484000Y15371000D02*
X39200000Y15371000D01*
X42080000Y15331000D02*
X48816000Y15331000D01*
X32464000Y15331000D02*
X39200000Y15331000D01*
X42080000Y15291000D02*
X48835000Y15291000D01*
X32445000Y15291000D02*
X39200000Y15291000D01*
X42080000Y15251000D02*
X48854000Y15251000D01*
X32426000Y15251000D02*
X39200000Y15251000D01*
X42080000Y15211000D02*
X48873000Y15211000D01*
X32407000Y15211000D02*
X39200000Y15211000D01*
X42080000Y15171000D02*
X48891000Y15171000D01*
X32389000Y15171000D02*
X39200000Y15171000D01*
X42080000Y15131000D02*
X48909000Y15131000D01*
X32371000Y15131000D02*
X39200000Y15131000D01*
X42080000Y15091000D02*
X48927000Y15091000D01*
X32353000Y15091000D02*
X39200000Y15091000D01*
X42080000Y15051000D02*
X48945000Y15051000D01*
X32335000Y15051000D02*
X39200000Y15051000D01*
X42080000Y15011000D02*
X48963000Y15011000D01*
X32317000Y15011000D02*
X39200000Y15011000D01*
X42080000Y14971000D02*
X48980000Y14971000D01*
X32300000Y14971000D02*
X39200000Y14971000D01*
X42080000Y14931000D02*
X48997000Y14931000D01*
X32283000Y14931000D02*
X39200000Y14931000D01*
X42080000Y14891000D02*
X49014000Y14891000D01*
X32266000Y14891000D02*
X39200000Y14891000D01*
X42080000Y14851000D02*
X49030000Y14851000D01*
X32250000Y14851000D02*
X39200000Y14851000D01*
X42080000Y14811000D02*
X49047000Y14811000D01*
X32233000Y14811000D02*
X39200000Y14811000D01*
X42080000Y14771000D02*
X49063000Y14771000D01*
X32217000Y14771000D02*
X39200000Y14771000D01*
X42080000Y14731000D02*
X49079000Y14731000D01*
X32201000Y14731000D02*
X39200000Y14731000D01*
X42080000Y14691000D02*
X49095000Y14691000D01*
X32185000Y14691000D02*
X39200000Y14691000D01*
X42080000Y14651000D02*
X49110000Y14651000D01*
X32170000Y14651000D02*
X39200000Y14651000D01*
X42080000Y14611000D02*
X49126000Y14611000D01*
X32154000Y14611000D02*
X39200000Y14611000D01*
X42080000Y14571000D02*
X49141000Y14571000D01*
X32139000Y14571000D02*
X39200000Y14571000D01*
X42080000Y14531000D02*
X49156000Y14531000D01*
X32124000Y14531000D02*
X39200000Y14531000D01*
X42080000Y14491000D02*
X49170000Y14491000D01*
X32110000Y14491000D02*
X39200000Y14491000D01*
X42080000Y14451000D02*
X49185000Y14451000D01*
X32095000Y14451000D02*
X39200000Y14451000D01*
X42080000Y14411000D02*
X49199000Y14411000D01*
X32081000Y14411000D02*
X39200000Y14411000D01*
X42080000Y14371000D02*
X49213000Y14371000D01*
X32067000Y14371000D02*
X39200000Y14371000D01*
X42080000Y14331000D02*
X49227000Y14331000D01*
X32053000Y14331000D02*
X39200000Y14331000D01*
X42080000Y14291000D02*
X49240000Y14291000D01*
X32040000Y14291000D02*
X39200000Y14291000D01*
X42080000Y14251000D02*
X49254000Y14251000D01*
X32026000Y14251000D02*
X39200000Y14251000D01*
X42080000Y14211000D02*
X49267000Y14211000D01*
X32013000Y14211000D02*
X39200000Y14211000D01*
X42080000Y14171000D02*
X49280000Y14171000D01*
X32000000Y14171000D02*
X39200000Y14171000D01*
X42080000Y14131000D02*
X49293000Y14131000D01*
X31987000Y14131000D02*
X39200000Y14131000D01*
X42080000Y14091000D02*
X49305000Y14091000D01*
X31975000Y14091000D02*
X39200000Y14091000D01*
X42080000Y14051000D02*
X49318000Y14051000D01*
X31962000Y14051000D02*
X39200000Y14051000D01*
X42080000Y14011000D02*
X49330000Y14011000D01*
X31950000Y14011000D02*
X39200000Y14011000D01*
X42080000Y13971000D02*
X49342000Y13971000D01*
X31938000Y13971000D02*
X39200000Y13971000D01*
X42080000Y13931000D02*
X49354000Y13931000D01*
X31926000Y13931000D02*
X39200000Y13931000D01*
X42080000Y13891000D02*
X49365000Y13891000D01*
X31915000Y13891000D02*
X39200000Y13891000D01*
X42080000Y13851000D02*
X49377000Y13851000D01*
X31903000Y13851000D02*
X39200000Y13851000D01*
X42080000Y13811000D02*
X49388000Y13811000D01*
X31892000Y13811000D02*
X39200000Y13811000D01*
X42080000Y13771000D02*
X49399000Y13771000D01*
X31881000Y13771000D02*
X39200000Y13771000D01*
X42080000Y13731000D02*
X49410000Y13731000D01*
X31870000Y13731000D02*
X39200000Y13731000D01*
X42080000Y13691000D02*
X49420000Y13691000D01*
X31860000Y13691000D02*
X39200000Y13691000D01*
X31849000Y13651000D02*
X49431000Y13651000D01*
X31839000Y13611000D02*
X49441000Y13611000D01*
X31829000Y13571000D02*
X49451000Y13571000D01*
X31819000Y13531000D02*
X49461000Y13531000D01*
X31809000Y13491000D02*
X49471000Y13491000D01*
X31800000Y13451000D02*
X49480000Y13451000D01*
X31791000Y13411000D02*
X49489000Y13411000D01*
X31782000Y13371000D02*
X49498000Y13371000D01*
X31773000Y13331000D02*
X49507000Y13331000D01*
X31764000Y13291000D02*
X49516000Y13291000D01*
X31755000Y13251000D02*
X49525000Y13251000D01*
X31747000Y13211000D02*
X49533000Y13211000D01*
X31739000Y13171000D02*
X49541000Y13171000D01*
X31731000Y13131000D02*
X49549000Y13131000D01*
X31723000Y13091000D02*
X49557000Y13091000D01*
X31716000Y13051000D02*
X49564000Y13051000D01*
X31708000Y13011000D02*
X49572000Y13011000D01*
X31701000Y12971000D02*
X49579000Y12971000D01*
X31694000Y12931000D02*
X49586000Y12931000D01*
X31687000Y12891000D02*
X49593000Y12891000D01*
X31680000Y12851000D02*
X49600000Y12851000D01*
X31674000Y12811000D02*
X49606000Y12811000D01*
X31668000Y12771000D02*
X49612000Y12771000D01*
X31661000Y12731000D02*
X49619000Y12731000D01*
X31656000Y12691000D02*
X49624000Y12691000D01*
X31650000Y12651000D02*
X49630000Y12651000D01*
X31644000Y12611000D02*
X49636000Y12611000D01*
X31639000Y12571000D02*
X49641000Y12571000D01*
X31634000Y12531000D02*
X49646000Y12531000D01*
X31629000Y12491000D02*
X49651000Y12491000D01*
X31624000Y12451000D02*
X49656000Y12451000D01*
X31619000Y12411000D02*
X49661000Y12411000D01*
X31614000Y12371000D02*
X49666000Y12371000D01*
X31610000Y12331000D02*
X49670000Y12331000D01*
X31606000Y12291000D02*
X49674000Y12291000D01*
X31602000Y12251000D02*
X49678000Y12251000D01*
X31598000Y12211000D02*
X49682000Y12211000D01*
X31595000Y12171000D02*
X49685000Y12171000D01*
X31591000Y12131000D02*
X49689000Y12131000D01*
X31588000Y12091000D02*
X49692000Y12091000D01*
X31585000Y12050000D02*
X49695000Y12050000D01*
X31582000Y12010000D02*
X49698000Y12010000D01*
X31579000Y11970000D02*
X49701000Y11970000D01*
X31577000Y11930000D02*
X49703000Y11930000D01*
X31574000Y11890000D02*
X49706000Y11890000D01*
X31572000Y11850000D02*
X49708000Y11850000D01*
X31570000Y11810000D02*
X49710000Y11810000D01*
X31568000Y11770000D02*
X49712000Y11770000D01*
X31567000Y11730000D02*
X49713000Y11730000D01*
X31565000Y11690000D02*
X49715000Y11690000D01*
X31564000Y11650000D02*
X49716000Y11650000D01*
X31563000Y11610000D02*
X49717000Y11610000D01*
X31562000Y11570000D02*
X49718000Y11570000D01*
X31561000Y11530000D02*
X49719000Y11530000D01*
X31560000Y11490000D02*
X49720000Y11490000D01*
X31560000Y11450000D02*
X49720000Y11450000D01*
X31560000Y11410000D02*
X49720000Y11410000D01*
X31559000Y11370000D02*
X49721000Y11370000D01*
X49760000Y11370000D02*
G75*
G03X49760000Y11370000I-9120000J0D01*
G01*
%TO.C,C2*%
X49760000Y32960000D02*
G75*
G03X49760000Y32960000I-9120000J0D01*
G01*
X31559000Y32960000D02*
X49721000Y32960000D01*
X31560000Y33000000D02*
X49720000Y33000000D01*
X31560000Y33040000D02*
X49720000Y33040000D01*
X31560000Y33080000D02*
X49720000Y33080000D01*
X31561000Y33120000D02*
X49719000Y33120000D01*
X31562000Y33160000D02*
X49718000Y33160000D01*
X31563000Y33200000D02*
X49717000Y33200000D01*
X31564000Y33240000D02*
X49716000Y33240000D01*
X31565000Y33280000D02*
X49715000Y33280000D01*
X31567000Y33320000D02*
X49713000Y33320000D01*
X31568000Y33360000D02*
X49712000Y33360000D01*
X31570000Y33400000D02*
X49710000Y33400000D01*
X31572000Y33440000D02*
X49708000Y33440000D01*
X31574000Y33480000D02*
X49706000Y33480000D01*
X31577000Y33520000D02*
X49703000Y33520000D01*
X31579000Y33560000D02*
X49701000Y33560000D01*
X31582000Y33600000D02*
X49698000Y33600000D01*
X31585000Y33640000D02*
X49695000Y33640000D01*
X31588000Y33681000D02*
X49692000Y33681000D01*
X31591000Y33721000D02*
X49689000Y33721000D01*
X31595000Y33761000D02*
X49685000Y33761000D01*
X31598000Y33801000D02*
X49682000Y33801000D01*
X31602000Y33841000D02*
X49678000Y33841000D01*
X31606000Y33881000D02*
X49674000Y33881000D01*
X31610000Y33921000D02*
X49670000Y33921000D01*
X31614000Y33961000D02*
X49666000Y33961000D01*
X31619000Y34001000D02*
X49661000Y34001000D01*
X31624000Y34041000D02*
X49656000Y34041000D01*
X31629000Y34081000D02*
X49651000Y34081000D01*
X31634000Y34121000D02*
X49646000Y34121000D01*
X31639000Y34161000D02*
X49641000Y34161000D01*
X31644000Y34201000D02*
X49636000Y34201000D01*
X31650000Y34241000D02*
X49630000Y34241000D01*
X31656000Y34281000D02*
X49624000Y34281000D01*
X31661000Y34321000D02*
X49619000Y34321000D01*
X31668000Y34361000D02*
X49612000Y34361000D01*
X31674000Y34401000D02*
X49606000Y34401000D01*
X31680000Y34441000D02*
X49600000Y34441000D01*
X31687000Y34481000D02*
X49593000Y34481000D01*
X31694000Y34521000D02*
X49586000Y34521000D01*
X31701000Y34561000D02*
X49579000Y34561000D01*
X31708000Y34601000D02*
X49572000Y34601000D01*
X31716000Y34641000D02*
X49564000Y34641000D01*
X31723000Y34681000D02*
X49557000Y34681000D01*
X31731000Y34721000D02*
X49549000Y34721000D01*
X31739000Y34761000D02*
X49541000Y34761000D01*
X31747000Y34801000D02*
X49533000Y34801000D01*
X31755000Y34841000D02*
X49525000Y34841000D01*
X31764000Y34881000D02*
X49516000Y34881000D01*
X31773000Y34921000D02*
X49507000Y34921000D01*
X31782000Y34961000D02*
X49498000Y34961000D01*
X31791000Y35001000D02*
X49489000Y35001000D01*
X31800000Y35041000D02*
X49480000Y35041000D01*
X31809000Y35081000D02*
X49471000Y35081000D01*
X31819000Y35121000D02*
X49461000Y35121000D01*
X31829000Y35161000D02*
X49451000Y35161000D01*
X31839000Y35201000D02*
X49441000Y35201000D01*
X31849000Y35241000D02*
X49431000Y35241000D01*
X31860000Y35281000D02*
X39200000Y35281000D01*
X42080000Y35281000D02*
X49420000Y35281000D01*
X31870000Y35321000D02*
X39200000Y35321000D01*
X42080000Y35321000D02*
X49410000Y35321000D01*
X31881000Y35361000D02*
X39200000Y35361000D01*
X42080000Y35361000D02*
X49399000Y35361000D01*
X31892000Y35401000D02*
X39200000Y35401000D01*
X42080000Y35401000D02*
X49388000Y35401000D01*
X31903000Y35441000D02*
X39200000Y35441000D01*
X42080000Y35441000D02*
X49377000Y35441000D01*
X31915000Y35481000D02*
X39200000Y35481000D01*
X42080000Y35481000D02*
X49365000Y35481000D01*
X31926000Y35521000D02*
X39200000Y35521000D01*
X42080000Y35521000D02*
X49354000Y35521000D01*
X31938000Y35561000D02*
X39200000Y35561000D01*
X42080000Y35561000D02*
X49342000Y35561000D01*
X31950000Y35601000D02*
X39200000Y35601000D01*
X42080000Y35601000D02*
X49330000Y35601000D01*
X31962000Y35641000D02*
X39200000Y35641000D01*
X42080000Y35641000D02*
X49318000Y35641000D01*
X31975000Y35681000D02*
X39200000Y35681000D01*
X42080000Y35681000D02*
X49305000Y35681000D01*
X31987000Y35721000D02*
X39200000Y35721000D01*
X42080000Y35721000D02*
X49293000Y35721000D01*
X32000000Y35761000D02*
X39200000Y35761000D01*
X42080000Y35761000D02*
X49280000Y35761000D01*
X32013000Y35801000D02*
X39200000Y35801000D01*
X42080000Y35801000D02*
X49267000Y35801000D01*
X32026000Y35841000D02*
X39200000Y35841000D01*
X42080000Y35841000D02*
X49254000Y35841000D01*
X32040000Y35881000D02*
X39200000Y35881000D01*
X42080000Y35881000D02*
X49240000Y35881000D01*
X32053000Y35921000D02*
X39200000Y35921000D01*
X42080000Y35921000D02*
X49227000Y35921000D01*
X32067000Y35961000D02*
X39200000Y35961000D01*
X42080000Y35961000D02*
X49213000Y35961000D01*
X32081000Y36001000D02*
X39200000Y36001000D01*
X42080000Y36001000D02*
X49199000Y36001000D01*
X32095000Y36041000D02*
X39200000Y36041000D01*
X42080000Y36041000D02*
X49185000Y36041000D01*
X32110000Y36081000D02*
X39200000Y36081000D01*
X42080000Y36081000D02*
X49170000Y36081000D01*
X32124000Y36121000D02*
X39200000Y36121000D01*
X42080000Y36121000D02*
X49156000Y36121000D01*
X32139000Y36161000D02*
X39200000Y36161000D01*
X42080000Y36161000D02*
X49141000Y36161000D01*
X32154000Y36201000D02*
X39200000Y36201000D01*
X42080000Y36201000D02*
X49126000Y36201000D01*
X32170000Y36241000D02*
X39200000Y36241000D01*
X42080000Y36241000D02*
X49110000Y36241000D01*
X32185000Y36281000D02*
X39200000Y36281000D01*
X42080000Y36281000D02*
X49095000Y36281000D01*
X32201000Y36321000D02*
X39200000Y36321000D01*
X42080000Y36321000D02*
X49079000Y36321000D01*
X32217000Y36361000D02*
X39200000Y36361000D01*
X42080000Y36361000D02*
X49063000Y36361000D01*
X32233000Y36401000D02*
X39200000Y36401000D01*
X42080000Y36401000D02*
X49047000Y36401000D01*
X32250000Y36441000D02*
X39200000Y36441000D01*
X42080000Y36441000D02*
X49030000Y36441000D01*
X32266000Y36481000D02*
X39200000Y36481000D01*
X42080000Y36481000D02*
X49014000Y36481000D01*
X32283000Y36521000D02*
X39200000Y36521000D01*
X42080000Y36521000D02*
X48997000Y36521000D01*
X32300000Y36561000D02*
X39200000Y36561000D01*
X42080000Y36561000D02*
X48980000Y36561000D01*
X32317000Y36601000D02*
X39200000Y36601000D01*
X42080000Y36601000D02*
X48963000Y36601000D01*
X32335000Y36641000D02*
X39200000Y36641000D01*
X42080000Y36641000D02*
X48945000Y36641000D01*
X32353000Y36681000D02*
X39200000Y36681000D01*
X42080000Y36681000D02*
X48927000Y36681000D01*
X32371000Y36721000D02*
X39200000Y36721000D01*
X42080000Y36721000D02*
X48909000Y36721000D01*
X32389000Y36761000D02*
X39200000Y36761000D01*
X42080000Y36761000D02*
X48891000Y36761000D01*
X32407000Y36801000D02*
X39200000Y36801000D01*
X42080000Y36801000D02*
X48873000Y36801000D01*
X32426000Y36841000D02*
X39200000Y36841000D01*
X42080000Y36841000D02*
X48854000Y36841000D01*
X32445000Y36881000D02*
X39200000Y36881000D01*
X42080000Y36881000D02*
X48835000Y36881000D01*
X32464000Y36921000D02*
X39200000Y36921000D01*
X42080000Y36921000D02*
X48816000Y36921000D01*
X32484000Y36961000D02*
X39200000Y36961000D01*
X42080000Y36961000D02*
X48796000Y36961000D01*
X32503000Y37001000D02*
X39200000Y37001000D01*
X42080000Y37001000D02*
X48777000Y37001000D01*
X32523000Y37041000D02*
X39200000Y37041000D01*
X42080000Y37041000D02*
X48757000Y37041000D01*
X32543000Y37081000D02*
X39200000Y37081000D01*
X42080000Y37081000D02*
X48737000Y37081000D01*
X32564000Y37121000D02*
X39200000Y37121000D01*
X42080000Y37121000D02*
X48716000Y37121000D01*
X32584000Y37161000D02*
X39200000Y37161000D01*
X42080000Y37161000D02*
X48696000Y37161000D01*
X32605000Y37201000D02*
X39200000Y37201000D01*
X42080000Y37201000D02*
X48675000Y37201000D01*
X32626000Y37241000D02*
X39200000Y37241000D01*
X42080000Y37241000D02*
X48654000Y37241000D01*
X32648000Y37281000D02*
X39200000Y37281000D01*
X42080000Y37281000D02*
X48632000Y37281000D01*
X32669000Y37321000D02*
X39200000Y37321000D01*
X42080000Y37321000D02*
X48611000Y37321000D01*
X32691000Y37361000D02*
X39200000Y37361000D01*
X42080000Y37361000D02*
X48589000Y37361000D01*
X32713000Y37401000D02*
X39200000Y37401000D01*
X42080000Y37401000D02*
X48567000Y37401000D01*
X32736000Y37441000D02*
X39200000Y37441000D01*
X42080000Y37441000D02*
X48544000Y37441000D01*
X32758000Y37481000D02*
X39200000Y37481000D01*
X42080000Y37481000D02*
X48522000Y37481000D01*
X32781000Y37521000D02*
X39200000Y37521000D01*
X42080000Y37521000D02*
X48499000Y37521000D01*
X32805000Y37561000D02*
X39200000Y37561000D01*
X42080000Y37561000D02*
X48475000Y37561000D01*
X32828000Y37601000D02*
X39200000Y37601000D01*
X42080000Y37601000D02*
X48452000Y37601000D01*
X32852000Y37641000D02*
X39200000Y37641000D01*
X42080000Y37641000D02*
X48428000Y37641000D01*
X32876000Y37681000D02*
X39200000Y37681000D01*
X42080000Y37681000D02*
X48404000Y37681000D01*
X32900000Y37721000D02*
X39200000Y37721000D01*
X42080000Y37721000D02*
X48380000Y37721000D01*
X32925000Y37761000D02*
X39200000Y37761000D01*
X42080000Y37761000D02*
X48355000Y37761000D01*
X32950000Y37801000D02*
X39200000Y37801000D01*
X42080000Y37801000D02*
X48330000Y37801000D01*
X32975000Y37841000D02*
X39200000Y37841000D01*
X42080000Y37841000D02*
X48305000Y37841000D01*
X33000000Y37881000D02*
X39200000Y37881000D01*
X42080000Y37881000D02*
X48280000Y37881000D01*
X33026000Y37921000D02*
X39200000Y37921000D01*
X42080000Y37921000D02*
X48254000Y37921000D01*
X33052000Y37961000D02*
X39200000Y37961000D01*
X42080000Y37961000D02*
X48228000Y37961000D01*
X33079000Y38001000D02*
X39200000Y38001000D01*
X42080000Y38001000D02*
X48201000Y38001000D01*
X33105000Y38041000D02*
X39200000Y38041000D01*
X42080000Y38041000D02*
X48175000Y38041000D01*
X33132000Y38081000D02*
X39200000Y38081000D01*
X42080000Y38081000D02*
X48148000Y38081000D01*
X33160000Y38121000D02*
X39200000Y38121000D01*
X42080000Y38121000D02*
X48120000Y38121000D01*
X33187000Y38161000D02*
X48093000Y38161000D01*
X33215000Y38201000D02*
X48065000Y38201000D01*
X33243000Y38241000D02*
X48037000Y38241000D01*
X33272000Y38281000D02*
X48008000Y38281000D01*
X33301000Y38321000D02*
X47979000Y38321000D01*
X33330000Y38361000D02*
X47950000Y38361000D01*
X33360000Y38401000D02*
X47920000Y38401000D01*
X33390000Y38441000D02*
X47890000Y38441000D01*
X33420000Y38481000D02*
X47860000Y38481000D01*
X33450000Y38521000D02*
X47830000Y38521000D01*
X33481000Y38561000D02*
X47799000Y38561000D01*
X33513000Y38601000D02*
X47767000Y38601000D01*
X33544000Y38641000D02*
X47736000Y38641000D01*
X33576000Y38681000D02*
X47704000Y38681000D01*
X33609000Y38721000D02*
X47671000Y38721000D01*
X33641000Y38761000D02*
X47639000Y38761000D01*
X33675000Y38801000D02*
X47605000Y38801000D01*
X33708000Y38841000D02*
X47572000Y38841000D01*
X33742000Y38881000D02*
X47538000Y38881000D01*
X33776000Y38921000D02*
X47504000Y38921000D01*
X33811000Y38961000D02*
X47469000Y38961000D01*
X33846000Y39001000D02*
X47434000Y39001000D01*
X33882000Y39041000D02*
X47398000Y39041000D01*
X33918000Y39081000D02*
X47362000Y39081000D01*
X33954000Y39121000D02*
X47326000Y39121000D01*
X33991000Y39161000D02*
X47289000Y39161000D01*
X34028000Y39201000D02*
X47252000Y39201000D01*
X34066000Y39241000D02*
X47214000Y39241000D01*
X34104000Y39281000D02*
X47176000Y39281000D01*
X34143000Y39321000D02*
X47137000Y39321000D01*
X34182000Y39361000D02*
X47098000Y39361000D01*
X34222000Y39401000D02*
X47058000Y39401000D01*
X34262000Y39441000D02*
X47018000Y39441000D01*
X34303000Y39481000D02*
X46977000Y39481000D01*
X34344000Y39521000D02*
X46936000Y39521000D01*
X34386000Y39561000D02*
X46894000Y39561000D01*
X34428000Y39601000D02*
X46852000Y39601000D01*
X34470000Y39641000D02*
X46810000Y39641000D01*
X34514000Y39681000D02*
X46766000Y39681000D01*
X34558000Y39721000D02*
X46722000Y39721000D01*
X34602000Y39761000D02*
X46678000Y39761000D01*
X34647000Y39801000D02*
X46633000Y39801000D01*
X34693000Y39841000D02*
X46587000Y39841000D01*
X34739000Y39881000D02*
X46541000Y39881000D01*
X34786000Y39921000D02*
X46494000Y39921000D01*
X34834000Y39961000D02*
X46446000Y39961000D01*
X34882000Y40001000D02*
X46398000Y40001000D01*
X34931000Y40041000D02*
X46349000Y40041000D01*
X34980000Y40081000D02*
X46300000Y40081000D01*
X35031000Y40121000D02*
X46249000Y40121000D01*
X35082000Y40161000D02*
X46198000Y40161000D01*
X35134000Y40201000D02*
X46146000Y40201000D01*
X35186000Y40241000D02*
X46094000Y40241000D01*
X35240000Y40281000D02*
X46040000Y40281000D01*
X35294000Y40321000D02*
X45986000Y40321000D01*
X35349000Y40361000D02*
X45931000Y40361000D01*
X35405000Y40401000D02*
X45875000Y40401000D01*
X35462000Y40441000D02*
X45818000Y40441000D01*
X35520000Y40481000D02*
X45760000Y40481000D01*
X35578000Y40521000D02*
X45702000Y40521000D01*
X35638000Y40561000D02*
X45642000Y40561000D01*
X35699000Y40601000D02*
X45581000Y40601000D01*
X35761000Y40641000D02*
X45519000Y40641000D01*
X35824000Y40681000D02*
X45456000Y40681000D01*
X35888000Y40721000D02*
X45392000Y40721000D01*
X35954000Y40761000D02*
X45326000Y40761000D01*
X36020000Y40801000D02*
X45260000Y40801000D01*
X36088000Y40841000D02*
X45192000Y40841000D01*
X36158000Y40881000D02*
X45122000Y40881000D01*
X36228000Y40921000D02*
X45052000Y40921000D01*
X36301000Y40961000D02*
X44979000Y40961000D01*
X36375000Y41001000D02*
X44905000Y41001000D01*
X36450000Y41041000D02*
X44830000Y41041000D01*
X36527000Y41081000D02*
X44753000Y41081000D01*
X36607000Y41121000D02*
X44673000Y41121000D01*
X36688000Y41160000D02*
X44592000Y41160000D01*
X36771000Y41200000D02*
X44509000Y41200000D01*
X36856000Y41240000D02*
X44424000Y41240000D01*
X36944000Y41280000D02*
X44336000Y41280000D01*
X37035000Y41320000D02*
X44245000Y41320000D01*
X37128000Y41360000D02*
X44152000Y41360000D01*
X37224000Y41400000D02*
X44056000Y41400000D01*
X37323000Y41440000D02*
X43957000Y41440000D01*
X37426000Y41480000D02*
X43854000Y41480000D01*
X37533000Y41520000D02*
X43747000Y41520000D01*
X37644000Y41560000D02*
X43636000Y41560000D01*
X37760000Y41600000D02*
X43520000Y41600000D01*
X37881000Y41640000D02*
X43399000Y41640000D01*
X38008000Y41680000D02*
X43272000Y41680000D01*
X38142000Y41720000D02*
X43138000Y41720000D01*
X38285000Y41760000D02*
X42995000Y41760000D01*
X38437000Y41800000D02*
X42843000Y41800000D01*
X38601000Y41840000D02*
X42679000Y41840000D01*
X38780000Y41880000D02*
X42500000Y41880000D01*
X38979000Y41920000D02*
X42301000Y41920000D01*
X39205000Y41960000D02*
X42075000Y41960000D01*
X39474000Y42000000D02*
X41806000Y42000000D01*
X39826000Y42040000D02*
X41454000Y42040000D01*
X40600000Y42080000D02*
X40680000Y42080000D01*
X35525000Y23200560D02*
X35525000Y25000560D01*
X34625000Y24100560D02*
X36425000Y24100560D01*
%TO.C,C3*%
X57485000Y2510560D02*
X59285000Y2510560D01*
X58385000Y1610560D02*
X58385000Y3410560D01*
X63460000Y20490000D02*
X63540000Y20490000D01*
X62686000Y20450000D02*
X64314000Y20450000D01*
X62334000Y20410000D02*
X64666000Y20410000D01*
X62065000Y20370000D02*
X64935000Y20370000D01*
X61839000Y20330000D02*
X65161000Y20330000D01*
X61640000Y20290000D02*
X65360000Y20290000D01*
X61461000Y20250000D02*
X65539000Y20250000D01*
X61297000Y20210000D02*
X65703000Y20210000D01*
X61145000Y20170000D02*
X65855000Y20170000D01*
X61002000Y20130000D02*
X65998000Y20130000D01*
X60868000Y20090000D02*
X66132000Y20090000D01*
X60741000Y20050000D02*
X66259000Y20050000D01*
X60620000Y20010000D02*
X66380000Y20010000D01*
X60504000Y19970000D02*
X66496000Y19970000D01*
X60393000Y19930000D02*
X66607000Y19930000D01*
X60286000Y19890000D02*
X66714000Y19890000D01*
X60183000Y19850000D02*
X66817000Y19850000D01*
X60084000Y19810000D02*
X66916000Y19810000D01*
X59988000Y19770000D02*
X67012000Y19770000D01*
X59895000Y19730000D02*
X67105000Y19730000D01*
X59804000Y19690000D02*
X67196000Y19690000D01*
X59716000Y19650000D02*
X67284000Y19650000D01*
X59631000Y19610000D02*
X67369000Y19610000D01*
X59548000Y19570000D02*
X67452000Y19570000D01*
X59467000Y19531000D02*
X67533000Y19531000D01*
X59387000Y19491000D02*
X67613000Y19491000D01*
X59310000Y19451000D02*
X67690000Y19451000D01*
X59235000Y19411000D02*
X67765000Y19411000D01*
X59161000Y19371000D02*
X67839000Y19371000D01*
X59088000Y19331000D02*
X67912000Y19331000D01*
X59018000Y19291000D02*
X67982000Y19291000D01*
X58948000Y19251000D02*
X68052000Y19251000D01*
X58880000Y19211000D02*
X68120000Y19211000D01*
X58814000Y19171000D02*
X68186000Y19171000D01*
X58748000Y19131000D02*
X68252000Y19131000D01*
X58684000Y19091000D02*
X68316000Y19091000D01*
X58621000Y19051000D02*
X68379000Y19051000D01*
X58559000Y19011000D02*
X68441000Y19011000D01*
X58498000Y18971000D02*
X68502000Y18971000D01*
X58438000Y18931000D02*
X68562000Y18931000D01*
X58380000Y18891000D02*
X68620000Y18891000D01*
X58322000Y18851000D02*
X68678000Y18851000D01*
X58265000Y18811000D02*
X68735000Y18811000D01*
X58209000Y18771000D02*
X68791000Y18771000D01*
X58154000Y18731000D02*
X68846000Y18731000D01*
X58100000Y18691000D02*
X68900000Y18691000D01*
X58046000Y18651000D02*
X68954000Y18651000D01*
X57994000Y18611000D02*
X69006000Y18611000D01*
X57942000Y18571000D02*
X69058000Y18571000D01*
X57891000Y18531000D02*
X69109000Y18531000D01*
X57840000Y18491000D02*
X69160000Y18491000D01*
X57791000Y18451000D02*
X69209000Y18451000D01*
X57742000Y18411000D02*
X69258000Y18411000D01*
X57694000Y18371000D02*
X69306000Y18371000D01*
X57646000Y18331000D02*
X69354000Y18331000D01*
X57599000Y18291000D02*
X69401000Y18291000D01*
X57553000Y18251000D02*
X69447000Y18251000D01*
X57507000Y18211000D02*
X69493000Y18211000D01*
X57462000Y18171000D02*
X69538000Y18171000D01*
X57418000Y18131000D02*
X69582000Y18131000D01*
X57374000Y18091000D02*
X69626000Y18091000D01*
X57330000Y18051000D02*
X69670000Y18051000D01*
X57288000Y18011000D02*
X69712000Y18011000D01*
X57246000Y17971000D02*
X69754000Y17971000D01*
X57204000Y17931000D02*
X69796000Y17931000D01*
X57163000Y17891000D02*
X69837000Y17891000D01*
X57122000Y17851000D02*
X69878000Y17851000D01*
X57082000Y17811000D02*
X69918000Y17811000D01*
X57042000Y17771000D02*
X69958000Y17771000D01*
X57003000Y17731000D02*
X69997000Y17731000D01*
X56964000Y17691000D02*
X70036000Y17691000D01*
X56926000Y17651000D02*
X70074000Y17651000D01*
X56888000Y17611000D02*
X70112000Y17611000D01*
X56851000Y17571000D02*
X70149000Y17571000D01*
X56814000Y17531000D02*
X70186000Y17531000D01*
X56778000Y17491000D02*
X70222000Y17491000D01*
X56742000Y17451000D02*
X70258000Y17451000D01*
X56706000Y17411000D02*
X70294000Y17411000D01*
X56671000Y17371000D02*
X70329000Y17371000D01*
X56636000Y17331000D02*
X70364000Y17331000D01*
X56602000Y17291000D02*
X70398000Y17291000D01*
X56568000Y17251000D02*
X70432000Y17251000D01*
X56535000Y17211000D02*
X70465000Y17211000D01*
X56501000Y17171000D02*
X70499000Y17171000D01*
X56469000Y17131000D02*
X70531000Y17131000D01*
X56436000Y17091000D02*
X70564000Y17091000D01*
X56404000Y17051000D02*
X70596000Y17051000D01*
X56373000Y17011000D02*
X70627000Y17011000D01*
X56341000Y16971000D02*
X70659000Y16971000D01*
X56310000Y16931000D02*
X70690000Y16931000D01*
X56280000Y16891000D02*
X70720000Y16891000D01*
X56250000Y16851000D02*
X70750000Y16851000D01*
X56220000Y16811000D02*
X70780000Y16811000D01*
X56190000Y16771000D02*
X70810000Y16771000D01*
X56161000Y16731000D02*
X70839000Y16731000D01*
X56132000Y16691000D02*
X70868000Y16691000D01*
X56103000Y16651000D02*
X70897000Y16651000D01*
X56075000Y16611000D02*
X70925000Y16611000D01*
X56047000Y16571000D02*
X70953000Y16571000D01*
X64940000Y16531000D02*
X70980000Y16531000D01*
X56020000Y16531000D02*
X62060000Y16531000D01*
X64940000Y16491000D02*
X71008000Y16491000D01*
X55992000Y16491000D02*
X62060000Y16491000D01*
X64940000Y16451000D02*
X71035000Y16451000D01*
X55965000Y16451000D02*
X62060000Y16451000D01*
X64940000Y16411000D02*
X71061000Y16411000D01*
X55939000Y16411000D02*
X62060000Y16411000D01*
X64940000Y16371000D02*
X71088000Y16371000D01*
X55912000Y16371000D02*
X62060000Y16371000D01*
X64940000Y16331000D02*
X71114000Y16331000D01*
X55886000Y16331000D02*
X62060000Y16331000D01*
X64940000Y16291000D02*
X71140000Y16291000D01*
X55860000Y16291000D02*
X62060000Y16291000D01*
X64940000Y16251000D02*
X71165000Y16251000D01*
X55835000Y16251000D02*
X62060000Y16251000D01*
X64940000Y16211000D02*
X71190000Y16211000D01*
X55810000Y16211000D02*
X62060000Y16211000D01*
X64940000Y16171000D02*
X71215000Y16171000D01*
X55785000Y16171000D02*
X62060000Y16171000D01*
X64940000Y16131000D02*
X71240000Y16131000D01*
X55760000Y16131000D02*
X62060000Y16131000D01*
X64940000Y16091000D02*
X71264000Y16091000D01*
X55736000Y16091000D02*
X62060000Y16091000D01*
X64940000Y16051000D02*
X71288000Y16051000D01*
X55712000Y16051000D02*
X62060000Y16051000D01*
X64940000Y16011000D02*
X71312000Y16011000D01*
X55688000Y16011000D02*
X62060000Y16011000D01*
X64940000Y15971000D02*
X71335000Y15971000D01*
X55665000Y15971000D02*
X62060000Y15971000D01*
X64940000Y15931000D02*
X71359000Y15931000D01*
X55641000Y15931000D02*
X62060000Y15931000D01*
X64940000Y15891000D02*
X71382000Y15891000D01*
X55618000Y15891000D02*
X62060000Y15891000D01*
X64940000Y15851000D02*
X71404000Y15851000D01*
X55596000Y15851000D02*
X62060000Y15851000D01*
X64940000Y15811000D02*
X71427000Y15811000D01*
X55573000Y15811000D02*
X62060000Y15811000D01*
X64940000Y15771000D02*
X71449000Y15771000D01*
X55551000Y15771000D02*
X62060000Y15771000D01*
X64940000Y15731000D02*
X71471000Y15731000D01*
X55529000Y15731000D02*
X62060000Y15731000D01*
X64940000Y15691000D02*
X71492000Y15691000D01*
X55508000Y15691000D02*
X62060000Y15691000D01*
X64940000Y15651000D02*
X71514000Y15651000D01*
X55486000Y15651000D02*
X62060000Y15651000D01*
X64940000Y15611000D02*
X71535000Y15611000D01*
X55465000Y15611000D02*
X62060000Y15611000D01*
X64940000Y15571000D02*
X71556000Y15571000D01*
X55444000Y15571000D02*
X62060000Y15571000D01*
X64940000Y15531000D02*
X71576000Y15531000D01*
X55424000Y15531000D02*
X62060000Y15531000D01*
X64940000Y15491000D02*
X71597000Y15491000D01*
X55403000Y15491000D02*
X62060000Y15491000D01*
X64940000Y15451000D02*
X71617000Y15451000D01*
X55383000Y15451000D02*
X62060000Y15451000D01*
X64940000Y15411000D02*
X71637000Y15411000D01*
X55363000Y15411000D02*
X62060000Y15411000D01*
X64940000Y15371000D02*
X71656000Y15371000D01*
X55344000Y15371000D02*
X62060000Y15371000D01*
X64940000Y15331000D02*
X71676000Y15331000D01*
X55324000Y15331000D02*
X62060000Y15331000D01*
X64940000Y15291000D02*
X71695000Y15291000D01*
X55305000Y15291000D02*
X62060000Y15291000D01*
X64940000Y15251000D02*
X71714000Y15251000D01*
X55286000Y15251000D02*
X62060000Y15251000D01*
X64940000Y15211000D02*
X71733000Y15211000D01*
X55267000Y15211000D02*
X62060000Y15211000D01*
X64940000Y15171000D02*
X71751000Y15171000D01*
X55249000Y15171000D02*
X62060000Y15171000D01*
X64940000Y15131000D02*
X71769000Y15131000D01*
X55231000Y15131000D02*
X62060000Y15131000D01*
X64940000Y15091000D02*
X71787000Y15091000D01*
X55213000Y15091000D02*
X62060000Y15091000D01*
X64940000Y15051000D02*
X71805000Y15051000D01*
X55195000Y15051000D02*
X62060000Y15051000D01*
X64940000Y15011000D02*
X71823000Y15011000D01*
X55177000Y15011000D02*
X62060000Y15011000D01*
X64940000Y14971000D02*
X71840000Y14971000D01*
X55160000Y14971000D02*
X62060000Y14971000D01*
X64940000Y14931000D02*
X71857000Y14931000D01*
X55143000Y14931000D02*
X62060000Y14931000D01*
X64940000Y14891000D02*
X71874000Y14891000D01*
X55126000Y14891000D02*
X62060000Y14891000D01*
X64940000Y14851000D02*
X71890000Y14851000D01*
X55110000Y14851000D02*
X62060000Y14851000D01*
X64940000Y14811000D02*
X71907000Y14811000D01*
X55093000Y14811000D02*
X62060000Y14811000D01*
X64940000Y14771000D02*
X71923000Y14771000D01*
X55077000Y14771000D02*
X62060000Y14771000D01*
X64940000Y14731000D02*
X71939000Y14731000D01*
X55061000Y14731000D02*
X62060000Y14731000D01*
X64940000Y14691000D02*
X71955000Y14691000D01*
X55045000Y14691000D02*
X62060000Y14691000D01*
X64940000Y14651000D02*
X71970000Y14651000D01*
X55030000Y14651000D02*
X62060000Y14651000D01*
X64940000Y14611000D02*
X71986000Y14611000D01*
X55014000Y14611000D02*
X62060000Y14611000D01*
X64940000Y14571000D02*
X72001000Y14571000D01*
X54999000Y14571000D02*
X62060000Y14571000D01*
X64940000Y14531000D02*
X72016000Y14531000D01*
X54984000Y14531000D02*
X62060000Y14531000D01*
X64940000Y14491000D02*
X72030000Y14491000D01*
X54970000Y14491000D02*
X62060000Y14491000D01*
X64940000Y14451000D02*
X72045000Y14451000D01*
X54955000Y14451000D02*
X62060000Y14451000D01*
X64940000Y14411000D02*
X72059000Y14411000D01*
X54941000Y14411000D02*
X62060000Y14411000D01*
X64940000Y14371000D02*
X72073000Y14371000D01*
X54927000Y14371000D02*
X62060000Y14371000D01*
X64940000Y14331000D02*
X72087000Y14331000D01*
X54913000Y14331000D02*
X62060000Y14331000D01*
X64940000Y14291000D02*
X72100000Y14291000D01*
X54900000Y14291000D02*
X62060000Y14291000D01*
X64940000Y14251000D02*
X72114000Y14251000D01*
X54886000Y14251000D02*
X62060000Y14251000D01*
X64940000Y14211000D02*
X72127000Y14211000D01*
X54873000Y14211000D02*
X62060000Y14211000D01*
X64940000Y14171000D02*
X72140000Y14171000D01*
X54860000Y14171000D02*
X62060000Y14171000D01*
X64940000Y14131000D02*
X72153000Y14131000D01*
X54847000Y14131000D02*
X62060000Y14131000D01*
X64940000Y14091000D02*
X72165000Y14091000D01*
X54835000Y14091000D02*
X62060000Y14091000D01*
X64940000Y14051000D02*
X72178000Y14051000D01*
X54822000Y14051000D02*
X62060000Y14051000D01*
X64940000Y14011000D02*
X72190000Y14011000D01*
X54810000Y14011000D02*
X62060000Y14011000D01*
X64940000Y13971000D02*
X72202000Y13971000D01*
X54798000Y13971000D02*
X62060000Y13971000D01*
X64940000Y13931000D02*
X72214000Y13931000D01*
X54786000Y13931000D02*
X62060000Y13931000D01*
X64940000Y13891000D02*
X72225000Y13891000D01*
X54775000Y13891000D02*
X62060000Y13891000D01*
X64940000Y13851000D02*
X72237000Y13851000D01*
X54763000Y13851000D02*
X62060000Y13851000D01*
X64940000Y13811000D02*
X72248000Y13811000D01*
X54752000Y13811000D02*
X62060000Y13811000D01*
X64940000Y13771000D02*
X72259000Y13771000D01*
X54741000Y13771000D02*
X62060000Y13771000D01*
X64940000Y13731000D02*
X72270000Y13731000D01*
X54730000Y13731000D02*
X62060000Y13731000D01*
X64940000Y13691000D02*
X72280000Y13691000D01*
X54720000Y13691000D02*
X62060000Y13691000D01*
X54709000Y13651000D02*
X72291000Y13651000D01*
X54699000Y13611000D02*
X72301000Y13611000D01*
X54689000Y13571000D02*
X72311000Y13571000D01*
X54679000Y13531000D02*
X72321000Y13531000D01*
X54669000Y13491000D02*
X72331000Y13491000D01*
X54660000Y13451000D02*
X72340000Y13451000D01*
X54651000Y13411000D02*
X72349000Y13411000D01*
X54642000Y13371000D02*
X72358000Y13371000D01*
X54633000Y13331000D02*
X72367000Y13331000D01*
X54624000Y13291000D02*
X72376000Y13291000D01*
X54615000Y13251000D02*
X72385000Y13251000D01*
X54607000Y13211000D02*
X72393000Y13211000D01*
X54599000Y13171000D02*
X72401000Y13171000D01*
X54591000Y13131000D02*
X72409000Y13131000D01*
X54583000Y13091000D02*
X72417000Y13091000D01*
X54576000Y13051000D02*
X72424000Y13051000D01*
X54568000Y13011000D02*
X72432000Y13011000D01*
X54561000Y12971000D02*
X72439000Y12971000D01*
X54554000Y12931000D02*
X72446000Y12931000D01*
X54547000Y12891000D02*
X72453000Y12891000D01*
X54540000Y12851000D02*
X72460000Y12851000D01*
X54534000Y12811000D02*
X72466000Y12811000D01*
X54528000Y12771000D02*
X72472000Y12771000D01*
X54521000Y12731000D02*
X72479000Y12731000D01*
X54516000Y12691000D02*
X72484000Y12691000D01*
X54510000Y12651000D02*
X72490000Y12651000D01*
X54504000Y12611000D02*
X72496000Y12611000D01*
X54499000Y12571000D02*
X72501000Y12571000D01*
X54494000Y12531000D02*
X72506000Y12531000D01*
X54489000Y12491000D02*
X72511000Y12491000D01*
X54484000Y12451000D02*
X72516000Y12451000D01*
X54479000Y12411000D02*
X72521000Y12411000D01*
X54474000Y12371000D02*
X72526000Y12371000D01*
X54470000Y12331000D02*
X72530000Y12331000D01*
X54466000Y12291000D02*
X72534000Y12291000D01*
X54462000Y12251000D02*
X72538000Y12251000D01*
X54458000Y12211000D02*
X72542000Y12211000D01*
X54455000Y12171000D02*
X72545000Y12171000D01*
X54451000Y12131000D02*
X72549000Y12131000D01*
X54448000Y12091000D02*
X72552000Y12091000D01*
X54445000Y12050000D02*
X72555000Y12050000D01*
X54442000Y12010000D02*
X72558000Y12010000D01*
X54439000Y11970000D02*
X72561000Y11970000D01*
X54437000Y11930000D02*
X72563000Y11930000D01*
X54434000Y11890000D02*
X72566000Y11890000D01*
X54432000Y11850000D02*
X72568000Y11850000D01*
X54430000Y11810000D02*
X72570000Y11810000D01*
X54428000Y11770000D02*
X72572000Y11770000D01*
X54427000Y11730000D02*
X72573000Y11730000D01*
X54425000Y11690000D02*
X72575000Y11690000D01*
X54424000Y11650000D02*
X72576000Y11650000D01*
X54423000Y11610000D02*
X72577000Y11610000D01*
X54422000Y11570000D02*
X72578000Y11570000D01*
X54421000Y11530000D02*
X72579000Y11530000D01*
X54420000Y11490000D02*
X72580000Y11490000D01*
X54420000Y11450000D02*
X72580000Y11450000D01*
X54420000Y11410000D02*
X72580000Y11410000D01*
X54419000Y11370000D02*
X72581000Y11370000D01*
X72620000Y11370000D02*
G75*
G03X72620000Y11370000I-9120000J0D01*
G01*
%TO.C,C4*%
X72620000Y32960000D02*
G75*
G03X72620000Y32960000I-9120000J0D01*
G01*
X54419000Y32960000D02*
X72581000Y32960000D01*
X54420000Y33000000D02*
X72580000Y33000000D01*
X54420000Y33040000D02*
X72580000Y33040000D01*
X54420000Y33080000D02*
X72580000Y33080000D01*
X54421000Y33120000D02*
X72579000Y33120000D01*
X54422000Y33160000D02*
X72578000Y33160000D01*
X54423000Y33200000D02*
X72577000Y33200000D01*
X54424000Y33240000D02*
X72576000Y33240000D01*
X54425000Y33280000D02*
X72575000Y33280000D01*
X54427000Y33320000D02*
X72573000Y33320000D01*
X54428000Y33360000D02*
X72572000Y33360000D01*
X54430000Y33400000D02*
X72570000Y33400000D01*
X54432000Y33440000D02*
X72568000Y33440000D01*
X54434000Y33480000D02*
X72566000Y33480000D01*
X54437000Y33520000D02*
X72563000Y33520000D01*
X54439000Y33560000D02*
X72561000Y33560000D01*
X54442000Y33600000D02*
X72558000Y33600000D01*
X54445000Y33640000D02*
X72555000Y33640000D01*
X54448000Y33681000D02*
X72552000Y33681000D01*
X54451000Y33721000D02*
X72549000Y33721000D01*
X54455000Y33761000D02*
X72545000Y33761000D01*
X54458000Y33801000D02*
X72542000Y33801000D01*
X54462000Y33841000D02*
X72538000Y33841000D01*
X54466000Y33881000D02*
X72534000Y33881000D01*
X54470000Y33921000D02*
X72530000Y33921000D01*
X54474000Y33961000D02*
X72526000Y33961000D01*
X54479000Y34001000D02*
X72521000Y34001000D01*
X54484000Y34041000D02*
X72516000Y34041000D01*
X54489000Y34081000D02*
X72511000Y34081000D01*
X54494000Y34121000D02*
X72506000Y34121000D01*
X54499000Y34161000D02*
X72501000Y34161000D01*
X54504000Y34201000D02*
X72496000Y34201000D01*
X54510000Y34241000D02*
X72490000Y34241000D01*
X54516000Y34281000D02*
X72484000Y34281000D01*
X54521000Y34321000D02*
X72479000Y34321000D01*
X54528000Y34361000D02*
X72472000Y34361000D01*
X54534000Y34401000D02*
X72466000Y34401000D01*
X54540000Y34441000D02*
X72460000Y34441000D01*
X54547000Y34481000D02*
X72453000Y34481000D01*
X54554000Y34521000D02*
X72446000Y34521000D01*
X54561000Y34561000D02*
X72439000Y34561000D01*
X54568000Y34601000D02*
X72432000Y34601000D01*
X54576000Y34641000D02*
X72424000Y34641000D01*
X54583000Y34681000D02*
X72417000Y34681000D01*
X54591000Y34721000D02*
X72409000Y34721000D01*
X54599000Y34761000D02*
X72401000Y34761000D01*
X54607000Y34801000D02*
X72393000Y34801000D01*
X54615000Y34841000D02*
X72385000Y34841000D01*
X54624000Y34881000D02*
X72376000Y34881000D01*
X54633000Y34921000D02*
X72367000Y34921000D01*
X54642000Y34961000D02*
X72358000Y34961000D01*
X54651000Y35001000D02*
X72349000Y35001000D01*
X54660000Y35041000D02*
X72340000Y35041000D01*
X54669000Y35081000D02*
X72331000Y35081000D01*
X54679000Y35121000D02*
X72321000Y35121000D01*
X54689000Y35161000D02*
X72311000Y35161000D01*
X54699000Y35201000D02*
X72301000Y35201000D01*
X54709000Y35241000D02*
X72291000Y35241000D01*
X54720000Y35281000D02*
X62060000Y35281000D01*
X64940000Y35281000D02*
X72280000Y35281000D01*
X54730000Y35321000D02*
X62060000Y35321000D01*
X64940000Y35321000D02*
X72270000Y35321000D01*
X54741000Y35361000D02*
X62060000Y35361000D01*
X64940000Y35361000D02*
X72259000Y35361000D01*
X54752000Y35401000D02*
X62060000Y35401000D01*
X64940000Y35401000D02*
X72248000Y35401000D01*
X54763000Y35441000D02*
X62060000Y35441000D01*
X64940000Y35441000D02*
X72237000Y35441000D01*
X54775000Y35481000D02*
X62060000Y35481000D01*
X64940000Y35481000D02*
X72225000Y35481000D01*
X54786000Y35521000D02*
X62060000Y35521000D01*
X64940000Y35521000D02*
X72214000Y35521000D01*
X54798000Y35561000D02*
X62060000Y35561000D01*
X64940000Y35561000D02*
X72202000Y35561000D01*
X54810000Y35601000D02*
X62060000Y35601000D01*
X64940000Y35601000D02*
X72190000Y35601000D01*
X54822000Y35641000D02*
X62060000Y35641000D01*
X64940000Y35641000D02*
X72178000Y35641000D01*
X54835000Y35681000D02*
X62060000Y35681000D01*
X64940000Y35681000D02*
X72165000Y35681000D01*
X54847000Y35721000D02*
X62060000Y35721000D01*
X64940000Y35721000D02*
X72153000Y35721000D01*
X54860000Y35761000D02*
X62060000Y35761000D01*
X64940000Y35761000D02*
X72140000Y35761000D01*
X54873000Y35801000D02*
X62060000Y35801000D01*
X64940000Y35801000D02*
X72127000Y35801000D01*
X54886000Y35841000D02*
X62060000Y35841000D01*
X64940000Y35841000D02*
X72114000Y35841000D01*
X54900000Y35881000D02*
X62060000Y35881000D01*
X64940000Y35881000D02*
X72100000Y35881000D01*
X54913000Y35921000D02*
X62060000Y35921000D01*
X64940000Y35921000D02*
X72087000Y35921000D01*
X54927000Y35961000D02*
X62060000Y35961000D01*
X64940000Y35961000D02*
X72073000Y35961000D01*
X54941000Y36001000D02*
X62060000Y36001000D01*
X64940000Y36001000D02*
X72059000Y36001000D01*
X54955000Y36041000D02*
X62060000Y36041000D01*
X64940000Y36041000D02*
X72045000Y36041000D01*
X54970000Y36081000D02*
X62060000Y36081000D01*
X64940000Y36081000D02*
X72030000Y36081000D01*
X54984000Y36121000D02*
X62060000Y36121000D01*
X64940000Y36121000D02*
X72016000Y36121000D01*
X54999000Y36161000D02*
X62060000Y36161000D01*
X64940000Y36161000D02*
X72001000Y36161000D01*
X55014000Y36201000D02*
X62060000Y36201000D01*
X64940000Y36201000D02*
X71986000Y36201000D01*
X55030000Y36241000D02*
X62060000Y36241000D01*
X64940000Y36241000D02*
X71970000Y36241000D01*
X55045000Y36281000D02*
X62060000Y36281000D01*
X64940000Y36281000D02*
X71955000Y36281000D01*
X55061000Y36321000D02*
X62060000Y36321000D01*
X64940000Y36321000D02*
X71939000Y36321000D01*
X55077000Y36361000D02*
X62060000Y36361000D01*
X64940000Y36361000D02*
X71923000Y36361000D01*
X55093000Y36401000D02*
X62060000Y36401000D01*
X64940000Y36401000D02*
X71907000Y36401000D01*
X55110000Y36441000D02*
X62060000Y36441000D01*
X64940000Y36441000D02*
X71890000Y36441000D01*
X55126000Y36481000D02*
X62060000Y36481000D01*
X64940000Y36481000D02*
X71874000Y36481000D01*
X55143000Y36521000D02*
X62060000Y36521000D01*
X64940000Y36521000D02*
X71857000Y36521000D01*
X55160000Y36561000D02*
X62060000Y36561000D01*
X64940000Y36561000D02*
X71840000Y36561000D01*
X55177000Y36601000D02*
X62060000Y36601000D01*
X64940000Y36601000D02*
X71823000Y36601000D01*
X55195000Y36641000D02*
X62060000Y36641000D01*
X64940000Y36641000D02*
X71805000Y36641000D01*
X55213000Y36681000D02*
X62060000Y36681000D01*
X64940000Y36681000D02*
X71787000Y36681000D01*
X55231000Y36721000D02*
X62060000Y36721000D01*
X64940000Y36721000D02*
X71769000Y36721000D01*
X55249000Y36761000D02*
X62060000Y36761000D01*
X64940000Y36761000D02*
X71751000Y36761000D01*
X55267000Y36801000D02*
X62060000Y36801000D01*
X64940000Y36801000D02*
X71733000Y36801000D01*
X55286000Y36841000D02*
X62060000Y36841000D01*
X64940000Y36841000D02*
X71714000Y36841000D01*
X55305000Y36881000D02*
X62060000Y36881000D01*
X64940000Y36881000D02*
X71695000Y36881000D01*
X55324000Y36921000D02*
X62060000Y36921000D01*
X64940000Y36921000D02*
X71676000Y36921000D01*
X55344000Y36961000D02*
X62060000Y36961000D01*
X64940000Y36961000D02*
X71656000Y36961000D01*
X55363000Y37001000D02*
X62060000Y37001000D01*
X64940000Y37001000D02*
X71637000Y37001000D01*
X55383000Y37041000D02*
X62060000Y37041000D01*
X64940000Y37041000D02*
X71617000Y37041000D01*
X55403000Y37081000D02*
X62060000Y37081000D01*
X64940000Y37081000D02*
X71597000Y37081000D01*
X55424000Y37121000D02*
X62060000Y37121000D01*
X64940000Y37121000D02*
X71576000Y37121000D01*
X55444000Y37161000D02*
X62060000Y37161000D01*
X64940000Y37161000D02*
X71556000Y37161000D01*
X55465000Y37201000D02*
X62060000Y37201000D01*
X64940000Y37201000D02*
X71535000Y37201000D01*
X55486000Y37241000D02*
X62060000Y37241000D01*
X64940000Y37241000D02*
X71514000Y37241000D01*
X55508000Y37281000D02*
X62060000Y37281000D01*
X64940000Y37281000D02*
X71492000Y37281000D01*
X55529000Y37321000D02*
X62060000Y37321000D01*
X64940000Y37321000D02*
X71471000Y37321000D01*
X55551000Y37361000D02*
X62060000Y37361000D01*
X64940000Y37361000D02*
X71449000Y37361000D01*
X55573000Y37401000D02*
X62060000Y37401000D01*
X64940000Y37401000D02*
X71427000Y37401000D01*
X55596000Y37441000D02*
X62060000Y37441000D01*
X64940000Y37441000D02*
X71404000Y37441000D01*
X55618000Y37481000D02*
X62060000Y37481000D01*
X64940000Y37481000D02*
X71382000Y37481000D01*
X55641000Y37521000D02*
X62060000Y37521000D01*
X64940000Y37521000D02*
X71359000Y37521000D01*
X55665000Y37561000D02*
X62060000Y37561000D01*
X64940000Y37561000D02*
X71335000Y37561000D01*
X55688000Y37601000D02*
X62060000Y37601000D01*
X64940000Y37601000D02*
X71312000Y37601000D01*
X55712000Y37641000D02*
X62060000Y37641000D01*
X64940000Y37641000D02*
X71288000Y37641000D01*
X55736000Y37681000D02*
X62060000Y37681000D01*
X64940000Y37681000D02*
X71264000Y37681000D01*
X55760000Y37721000D02*
X62060000Y37721000D01*
X64940000Y37721000D02*
X71240000Y37721000D01*
X55785000Y37761000D02*
X62060000Y37761000D01*
X64940000Y37761000D02*
X71215000Y37761000D01*
X55810000Y37801000D02*
X62060000Y37801000D01*
X64940000Y37801000D02*
X71190000Y37801000D01*
X55835000Y37841000D02*
X62060000Y37841000D01*
X64940000Y37841000D02*
X71165000Y37841000D01*
X55860000Y37881000D02*
X62060000Y37881000D01*
X64940000Y37881000D02*
X71140000Y37881000D01*
X55886000Y37921000D02*
X62060000Y37921000D01*
X64940000Y37921000D02*
X71114000Y37921000D01*
X55912000Y37961000D02*
X62060000Y37961000D01*
X64940000Y37961000D02*
X71088000Y37961000D01*
X55939000Y38001000D02*
X62060000Y38001000D01*
X64940000Y38001000D02*
X71061000Y38001000D01*
X55965000Y38041000D02*
X62060000Y38041000D01*
X64940000Y38041000D02*
X71035000Y38041000D01*
X55992000Y38081000D02*
X62060000Y38081000D01*
X64940000Y38081000D02*
X71008000Y38081000D01*
X56020000Y38121000D02*
X62060000Y38121000D01*
X64940000Y38121000D02*
X70980000Y38121000D01*
X56047000Y38161000D02*
X70953000Y38161000D01*
X56075000Y38201000D02*
X70925000Y38201000D01*
X56103000Y38241000D02*
X70897000Y38241000D01*
X56132000Y38281000D02*
X70868000Y38281000D01*
X56161000Y38321000D02*
X70839000Y38321000D01*
X56190000Y38361000D02*
X70810000Y38361000D01*
X56220000Y38401000D02*
X70780000Y38401000D01*
X56250000Y38441000D02*
X70750000Y38441000D01*
X56280000Y38481000D02*
X70720000Y38481000D01*
X56310000Y38521000D02*
X70690000Y38521000D01*
X56341000Y38561000D02*
X70659000Y38561000D01*
X56373000Y38601000D02*
X70627000Y38601000D01*
X56404000Y38641000D02*
X70596000Y38641000D01*
X56436000Y38681000D02*
X70564000Y38681000D01*
X56469000Y38721000D02*
X70531000Y38721000D01*
X56501000Y38761000D02*
X70499000Y38761000D01*
X56535000Y38801000D02*
X70465000Y38801000D01*
X56568000Y38841000D02*
X70432000Y38841000D01*
X56602000Y38881000D02*
X70398000Y38881000D01*
X56636000Y38921000D02*
X70364000Y38921000D01*
X56671000Y38961000D02*
X70329000Y38961000D01*
X56706000Y39001000D02*
X70294000Y39001000D01*
X56742000Y39041000D02*
X70258000Y39041000D01*
X56778000Y39081000D02*
X70222000Y39081000D01*
X56814000Y39121000D02*
X70186000Y39121000D01*
X56851000Y39161000D02*
X70149000Y39161000D01*
X56888000Y39201000D02*
X70112000Y39201000D01*
X56926000Y39241000D02*
X70074000Y39241000D01*
X56964000Y39281000D02*
X70036000Y39281000D01*
X57003000Y39321000D02*
X69997000Y39321000D01*
X57042000Y39361000D02*
X69958000Y39361000D01*
X57082000Y39401000D02*
X69918000Y39401000D01*
X57122000Y39441000D02*
X69878000Y39441000D01*
X57163000Y39481000D02*
X69837000Y39481000D01*
X57204000Y39521000D02*
X69796000Y39521000D01*
X57246000Y39561000D02*
X69754000Y39561000D01*
X57288000Y39601000D02*
X69712000Y39601000D01*
X57330000Y39641000D02*
X69670000Y39641000D01*
X57374000Y39681000D02*
X69626000Y39681000D01*
X57418000Y39721000D02*
X69582000Y39721000D01*
X57462000Y39761000D02*
X69538000Y39761000D01*
X57507000Y39801000D02*
X69493000Y39801000D01*
X57553000Y39841000D02*
X69447000Y39841000D01*
X57599000Y39881000D02*
X69401000Y39881000D01*
X57646000Y39921000D02*
X69354000Y39921000D01*
X57694000Y39961000D02*
X69306000Y39961000D01*
X57742000Y40001000D02*
X69258000Y40001000D01*
X57791000Y40041000D02*
X69209000Y40041000D01*
X57840000Y40081000D02*
X69160000Y40081000D01*
X57891000Y40121000D02*
X69109000Y40121000D01*
X57942000Y40161000D02*
X69058000Y40161000D01*
X57994000Y40201000D02*
X69006000Y40201000D01*
X58046000Y40241000D02*
X68954000Y40241000D01*
X58100000Y40281000D02*
X68900000Y40281000D01*
X58154000Y40321000D02*
X68846000Y40321000D01*
X58209000Y40361000D02*
X68791000Y40361000D01*
X58265000Y40401000D02*
X68735000Y40401000D01*
X58322000Y40441000D02*
X68678000Y40441000D01*
X58380000Y40481000D02*
X68620000Y40481000D01*
X58438000Y40521000D02*
X68562000Y40521000D01*
X58498000Y40561000D02*
X68502000Y40561000D01*
X58559000Y40601000D02*
X68441000Y40601000D01*
X58621000Y40641000D02*
X68379000Y40641000D01*
X58684000Y40681000D02*
X68316000Y40681000D01*
X58748000Y40721000D02*
X68252000Y40721000D01*
X58814000Y40761000D02*
X68186000Y40761000D01*
X58880000Y40801000D02*
X68120000Y40801000D01*
X58948000Y40841000D02*
X68052000Y40841000D01*
X59018000Y40881000D02*
X67982000Y40881000D01*
X59088000Y40921000D02*
X67912000Y40921000D01*
X59161000Y40961000D02*
X67839000Y40961000D01*
X59235000Y41001000D02*
X67765000Y41001000D01*
X59310000Y41041000D02*
X67690000Y41041000D01*
X59387000Y41081000D02*
X67613000Y41081000D01*
X59467000Y41121000D02*
X67533000Y41121000D01*
X59548000Y41160000D02*
X67452000Y41160000D01*
X59631000Y41200000D02*
X67369000Y41200000D01*
X59716000Y41240000D02*
X67284000Y41240000D01*
X59804000Y41280000D02*
X67196000Y41280000D01*
X59895000Y41320000D02*
X67105000Y41320000D01*
X59988000Y41360000D02*
X67012000Y41360000D01*
X60084000Y41400000D02*
X66916000Y41400000D01*
X60183000Y41440000D02*
X66817000Y41440000D01*
X60286000Y41480000D02*
X66714000Y41480000D01*
X60393000Y41520000D02*
X66607000Y41520000D01*
X60504000Y41560000D02*
X66496000Y41560000D01*
X60620000Y41600000D02*
X66380000Y41600000D01*
X60741000Y41640000D02*
X66259000Y41640000D01*
X60868000Y41680000D02*
X66132000Y41680000D01*
X61002000Y41720000D02*
X65998000Y41720000D01*
X61145000Y41760000D02*
X65855000Y41760000D01*
X61297000Y41800000D02*
X65703000Y41800000D01*
X61461000Y41840000D02*
X65539000Y41840000D01*
X61640000Y41880000D02*
X65360000Y41880000D01*
X61839000Y41920000D02*
X65161000Y41920000D01*
X62065000Y41960000D02*
X64935000Y41960000D01*
X62334000Y42000000D02*
X64666000Y42000000D01*
X62686000Y42040000D02*
X64314000Y42040000D01*
X63460000Y42080000D02*
X63540000Y42080000D01*
X58385000Y23200560D02*
X58385000Y25000560D01*
X57485000Y24100560D02*
X59285000Y24100560D01*
%TO.C,C5*%
X76100000Y13740000D02*
X78840000Y13740000D01*
X76100000Y6500000D02*
X78840000Y6500000D01*
X78840000Y6500000D02*
X78840000Y13740000D01*
X76100000Y6500000D02*
X76100000Y13740000D01*
%TO.C,C6*%
X76100000Y30630000D02*
X76100000Y37870000D01*
X78840000Y30630000D02*
X78840000Y37870000D01*
X76100000Y30630000D02*
X78840000Y30630000D01*
X76100000Y37870000D02*
X78840000Y37870000D01*
%TO.C,D1*%
X21160000Y14570000D02*
X20760000Y14570000D01*
X20560000Y9670000D02*
X20560000Y10870000D01*
X21860000Y9670000D02*
X20560000Y9670000D01*
X24760000Y14570000D02*
X28160000Y14570000D01*
X20760000Y9870000D02*
X28160000Y9870000D01*
X20760000Y33270000D02*
X20760000Y9870000D01*
X28160000Y33270000D02*
X20760000Y33270000D01*
X28160000Y9870000D02*
X28160000Y33270000D01*
%TO.C,D2*%
X91630000Y15530000D02*
X91474000Y15530000D01*
X93946000Y15530000D02*
X93790000Y15530000D01*
X91630163Y12928870D02*
G75*
G02X91630000Y15010961I1079837J1041130D01*
G01*
X93789837Y12928870D02*
G75*
G03X93790000Y15010961I-1079837J1041130D01*
G01*
X91631392Y12297665D02*
G75*
G02X91474484Y15530000I1078608J1672335D01*
G01*
X93788608Y12297665D02*
G75*
G03X93945516Y15530000I-1078608J1672335D01*
G01*
%TO.C,D3*%
X91631392Y37232335D02*
G75*
G03X91474484Y34000000I1078608J-1672335D01*
G01*
X93788608Y37232335D02*
G75*
G02X93945516Y34000000I-1078608J-1672335D01*
G01*
X91630163Y36601130D02*
G75*
G03X91630000Y34519039I1079837J-1041130D01*
G01*
X93789837Y36601130D02*
G75*
G02X93790000Y34519039I-1079837J-1041130D01*
G01*
X91474000Y34000000D02*
X91630000Y34000000D01*
X93790000Y34000000D02*
X93946000Y34000000D01*
%TO.C,J1*%
X16460000Y30590000D02*
X3860000Y30590000D01*
X3860000Y30590000D02*
X3860000Y15190000D01*
X3860000Y15190000D02*
X4810000Y15190000D01*
X4810000Y15190000D02*
X4510000Y14690000D01*
X4510000Y14690000D02*
X6510000Y14690000D01*
X6510000Y14690000D02*
X6260000Y15190000D01*
X6260000Y15190000D02*
X11660000Y15190000D01*
X11660000Y15190000D02*
X11410000Y14690000D01*
X11410000Y14690000D02*
X16460000Y14690000D01*
X16460000Y14690000D02*
X16460000Y30590000D01*
%TO.C,J2*%
X99110000Y31190000D02*
X99110000Y15290000D01*
X104160000Y31190000D02*
X99110000Y31190000D01*
X103910000Y30690000D02*
X104160000Y31190000D01*
X109310000Y30690000D02*
X103910000Y30690000D01*
X109060000Y31190000D02*
X109310000Y30690000D01*
X111060000Y31190000D02*
X109060000Y31190000D01*
X110760000Y30690000D02*
X111060000Y31190000D01*
X111710000Y30690000D02*
X110760000Y30690000D01*
X111710000Y15290000D02*
X111710000Y30690000D01*
X99110000Y15290000D02*
X111710000Y15290000D01*
%TO.C,R1*%
X85090000Y16740000D02*
X85090000Y15970000D01*
X85090000Y8660000D02*
X85090000Y9430000D01*
X83720000Y15970000D02*
X83720000Y9430000D01*
X86460000Y15970000D02*
X83720000Y15970000D01*
X86460000Y9430000D02*
X86460000Y15970000D01*
X83720000Y9430000D02*
X86460000Y9430000D01*
%TO.C,R2*%
X83720000Y28480000D02*
X86460000Y28480000D01*
X86460000Y28480000D02*
X86460000Y35020000D01*
X86460000Y35020000D02*
X83720000Y35020000D01*
X83720000Y35020000D02*
X83720000Y28480000D01*
X85090000Y27710000D02*
X85090000Y28480000D01*
X85090000Y35790000D02*
X85090000Y35020000D01*
%TO.C,H1*%
D10*
X4318095Y41847620D02*
X4318095Y42847620D01*
X4318095Y42371429D02*
X4889523Y42371429D01*
X4889523Y41847620D02*
X4889523Y42847620D01*
X5889523Y41847620D02*
X5318095Y41847620D01*
X5603809Y41847620D02*
X5603809Y42847620D01*
X5508571Y42704762D01*
X5413333Y42609524D01*
X5318095Y42561905D01*
%TO.C,H4*%
X108458095Y8827620D02*
X108458095Y9827620D01*
X108458095Y9351429D02*
X109029523Y9351429D01*
X109029523Y8827620D02*
X109029523Y9827620D01*
X109934285Y9494286D02*
X109934285Y8827620D01*
X109696190Y9875239D02*
X109458095Y9160953D01*
X110077142Y9160953D01*
%TO.C,H3*%
X108458095Y41847620D02*
X108458095Y42847620D01*
X108458095Y42371429D02*
X109029523Y42371429D01*
X109029523Y41847620D02*
X109029523Y42847620D01*
X109410476Y42847620D02*
X110029523Y42847620D01*
X109696190Y42466667D01*
X109839047Y42466667D01*
X109934285Y42419048D01*
X109981904Y42371429D01*
X110029523Y42276191D01*
X110029523Y42038096D01*
X109981904Y41942858D01*
X109934285Y41895239D01*
X109839047Y41847620D01*
X109553333Y41847620D01*
X109458095Y41895239D01*
X109410476Y41942858D01*
%TO.C,H2*%
X4318095Y8827620D02*
X4318095Y9827620D01*
X4318095Y9351429D02*
X4889523Y9351429D01*
X4889523Y8827620D02*
X4889523Y9827620D01*
X5318095Y9732381D02*
X5365714Y9780000D01*
X5460952Y9827620D01*
X5699047Y9827620D01*
X5794285Y9780000D01*
X5841904Y9732381D01*
X5889523Y9637143D01*
X5889523Y9541905D01*
X5841904Y9399048D01*
X5270476Y8827620D01*
X5889523Y8827620D01*
%TO.C,C1*%
X30747142Y11203334D02*
X30794761Y11155715D01*
X30842380Y11012858D01*
X30842380Y10917620D01*
X30794761Y10774762D01*
X30699523Y10679524D01*
X30604285Y10631905D01*
X30413809Y10584286D01*
X30270952Y10584286D01*
X30080476Y10631905D01*
X29985238Y10679524D01*
X29890000Y10774762D01*
X29842380Y10917620D01*
X29842380Y11012858D01*
X29890000Y11155715D01*
X29937619Y11203334D01*
X30842380Y12155715D02*
X30842380Y11584286D01*
X30842380Y11870000D02*
X29842380Y11870000D01*
X29985238Y11774762D01*
X30080476Y11679524D01*
X30128095Y11584286D01*
%TO.C,C2*%
X30747142Y32793334D02*
X30794761Y32745715D01*
X30842380Y32602858D01*
X30842380Y32507620D01*
X30794761Y32364762D01*
X30699523Y32269524D01*
X30604285Y32221905D01*
X30413809Y32174286D01*
X30270952Y32174286D01*
X30080476Y32221905D01*
X29985238Y32269524D01*
X29890000Y32364762D01*
X29842380Y32507620D01*
X29842380Y32602858D01*
X29890000Y32745715D01*
X29937619Y32793334D01*
X29937619Y33174286D02*
X29890000Y33221905D01*
X29842380Y33317143D01*
X29842380Y33555239D01*
X29890000Y33650477D01*
X29937619Y33698096D01*
X30032857Y33745715D01*
X30128095Y33745715D01*
X30270952Y33698096D01*
X30842380Y33126667D01*
X30842380Y33745715D01*
%TO.C,C3*%
X53607142Y11203334D02*
X53654761Y11155715D01*
X53702380Y11012858D01*
X53702380Y10917620D01*
X53654761Y10774762D01*
X53559523Y10679524D01*
X53464285Y10631905D01*
X53273809Y10584286D01*
X53130952Y10584286D01*
X52940476Y10631905D01*
X52845238Y10679524D01*
X52750000Y10774762D01*
X52702380Y10917620D01*
X52702380Y11012858D01*
X52750000Y11155715D01*
X52797619Y11203334D01*
X52702380Y11536667D02*
X52702380Y12155715D01*
X53083333Y11822381D01*
X53083333Y11965239D01*
X53130952Y12060477D01*
X53178571Y12108096D01*
X53273809Y12155715D01*
X53511904Y12155715D01*
X53607142Y12108096D01*
X53654761Y12060477D01*
X53702380Y11965239D01*
X53702380Y11679524D01*
X53654761Y11584286D01*
X53607142Y11536667D01*
%TO.C,C4*%
X53607142Y32793334D02*
X53654761Y32745715D01*
X53702380Y32602858D01*
X53702380Y32507620D01*
X53654761Y32364762D01*
X53559523Y32269524D01*
X53464285Y32221905D01*
X53273809Y32174286D01*
X53130952Y32174286D01*
X52940476Y32221905D01*
X52845238Y32269524D01*
X52750000Y32364762D01*
X52702380Y32507620D01*
X52702380Y32602858D01*
X52750000Y32745715D01*
X52797619Y32793334D01*
X53035714Y33650477D02*
X53702380Y33650477D01*
X52654761Y33412381D02*
X53369047Y33174286D01*
X53369047Y33793334D01*
%TO.C,C5*%
X75327142Y9953334D02*
X75374761Y9905715D01*
X75422380Y9762858D01*
X75422380Y9667620D01*
X75374761Y9524762D01*
X75279523Y9429524D01*
X75184285Y9381905D01*
X74993809Y9334286D01*
X74850952Y9334286D01*
X74660476Y9381905D01*
X74565238Y9429524D01*
X74470000Y9524762D01*
X74422380Y9667620D01*
X74422380Y9762858D01*
X74470000Y9905715D01*
X74517619Y9953334D01*
X74422380Y10858096D02*
X74422380Y10381905D01*
X74898571Y10334286D01*
X74850952Y10381905D01*
X74803333Y10477143D01*
X74803333Y10715239D01*
X74850952Y10810477D01*
X74898571Y10858096D01*
X74993809Y10905715D01*
X75231904Y10905715D01*
X75327142Y10858096D01*
X75374761Y10810477D01*
X75422380Y10715239D01*
X75422380Y10477143D01*
X75374761Y10381905D01*
X75327142Y10334286D01*
%TO.C,C6*%
X75327142Y34083334D02*
X75374761Y34035715D01*
X75422380Y33892858D01*
X75422380Y33797620D01*
X75374761Y33654762D01*
X75279523Y33559524D01*
X75184285Y33511905D01*
X74993809Y33464286D01*
X74850952Y33464286D01*
X74660476Y33511905D01*
X74565238Y33559524D01*
X74470000Y33654762D01*
X74422380Y33797620D01*
X74422380Y33892858D01*
X74470000Y34035715D01*
X74517619Y34083334D01*
X74422380Y34940477D02*
X74422380Y34750000D01*
X74470000Y34654762D01*
X74517619Y34607143D01*
X74660476Y34511905D01*
X74850952Y34464286D01*
X75231904Y34464286D01*
X75327142Y34511905D01*
X75374761Y34559524D01*
X75422380Y34654762D01*
X75422380Y34845239D01*
X75374761Y34940477D01*
X75327142Y34988096D01*
X75231904Y35035715D01*
X74993809Y35035715D01*
X74898571Y34988096D01*
X74850952Y34940477D01*
X74803333Y34845239D01*
X74803333Y34654762D01*
X74850952Y34559524D01*
X74898571Y34511905D01*
X74993809Y34464286D01*
%TO.C,D1*%
X20212380Y21031905D02*
X19212380Y21031905D01*
X19212380Y21270000D01*
X19260000Y21412858D01*
X19355238Y21508096D01*
X19450476Y21555715D01*
X19640952Y21603334D01*
X19783809Y21603334D01*
X19974285Y21555715D01*
X20069523Y21508096D01*
X20164761Y21412858D01*
X20212380Y21270000D01*
X20212380Y21031905D01*
X20212380Y22555715D02*
X20212380Y21984286D01*
X20212380Y22270000D02*
X19212380Y22270000D01*
X19355238Y22174762D01*
X19450476Y22079524D01*
X19498095Y21984286D01*
%TO.C,D2*%
X96122380Y13231905D02*
X95122380Y13231905D01*
X95122380Y13470000D01*
X95170000Y13612858D01*
X95265238Y13708096D01*
X95360476Y13755715D01*
X95550952Y13803334D01*
X95693809Y13803334D01*
X95884285Y13755715D01*
X95979523Y13708096D01*
X96074761Y13612858D01*
X96122380Y13470000D01*
X96122380Y13231905D01*
X95217619Y14184286D02*
X95170000Y14231905D01*
X95122380Y14327143D01*
X95122380Y14565239D01*
X95170000Y14660477D01*
X95217619Y14708096D01*
X95312857Y14755715D01*
X95408095Y14755715D01*
X95550952Y14708096D01*
X96122380Y14136667D01*
X96122380Y14755715D01*
%TO.C,D3*%
X90202380Y34821905D02*
X89202380Y34821905D01*
X89202380Y35060000D01*
X89250000Y35202858D01*
X89345238Y35298096D01*
X89440476Y35345715D01*
X89630952Y35393334D01*
X89773809Y35393334D01*
X89964285Y35345715D01*
X90059523Y35298096D01*
X90154761Y35202858D01*
X90202380Y35060000D01*
X90202380Y34821905D01*
X89202380Y35726667D02*
X89202380Y36345715D01*
X89583333Y36012381D01*
X89583333Y36155239D01*
X89630952Y36250477D01*
X89678571Y36298096D01*
X89773809Y36345715D01*
X90011904Y36345715D01*
X90107142Y36298096D01*
X90154761Y36250477D01*
X90202380Y36155239D01*
X90202380Y35869524D01*
X90154761Y35774286D01*
X90107142Y35726667D01*
%TO.C,J1*%
X16712380Y22606667D02*
X17426666Y22606667D01*
X17569523Y22559048D01*
X17664761Y22463810D01*
X17712380Y22320953D01*
X17712380Y22225715D01*
X17712380Y23606667D02*
X17712380Y23035239D01*
X17712380Y23320953D02*
X16712380Y23320953D01*
X16855238Y23225715D01*
X16950476Y23130477D01*
X16998095Y23035239D01*
%TO.C,J2*%
X97762380Y22606667D02*
X98476666Y22606667D01*
X98619523Y22559048D01*
X98714761Y22463810D01*
X98762380Y22320953D01*
X98762380Y22225715D01*
X97857619Y23035239D02*
X97810000Y23082858D01*
X97762380Y23178096D01*
X97762380Y23416191D01*
X97810000Y23511429D01*
X97857619Y23559048D01*
X97952857Y23606667D01*
X98048095Y23606667D01*
X98190952Y23559048D01*
X98762380Y22987620D01*
X98762380Y23606667D01*
%TO.C,R1*%
X83172380Y12533334D02*
X82696190Y12200000D01*
X83172380Y11961905D02*
X82172380Y11961905D01*
X82172380Y12342858D01*
X82220000Y12438096D01*
X82267619Y12485715D01*
X82362857Y12533334D01*
X82505714Y12533334D01*
X82600952Y12485715D01*
X82648571Y12438096D01*
X82696190Y12342858D01*
X82696190Y11961905D01*
X83172380Y13485715D02*
X83172380Y12914286D01*
X83172380Y13200000D02*
X82172380Y13200000D01*
X82315238Y13104762D01*
X82410476Y13009524D01*
X82458095Y12914286D01*
%TO.C,R2*%
X83172380Y31583334D02*
X82696190Y31250000D01*
X83172380Y31011905D02*
X82172380Y31011905D01*
X82172380Y31392858D01*
X82220000Y31488096D01*
X82267619Y31535715D01*
X82362857Y31583334D01*
X82505714Y31583334D01*
X82600952Y31535715D01*
X82648571Y31488096D01*
X82696190Y31392858D01*
X82696190Y31011905D01*
X82267619Y31964286D02*
X82220000Y32011905D01*
X82172380Y32107143D01*
X82172380Y32345239D01*
X82220000Y32440477D01*
X82267619Y32488096D01*
X82362857Y32535715D01*
X82458095Y32535715D01*
X82600952Y32488096D01*
X83172380Y31916667D01*
X83172380Y32535715D01*
%TD*%
%LPC*%
D16*
%TO.C,H1*%
X5080000Y38100000D03*
%TD*%
%TO.C,H4*%
X109220000Y5080000D03*
%TD*%
%TO.C,H3*%
X109220000Y38100000D03*
%TD*%
%TO.C,H2*%
X5080000Y5080000D03*
%TD*%
D17*
%TO.C,C1*%
X40640000Y15120000D03*
D18*
X40640000Y7620000D03*
%TD*%
%TO.C,C2*%
X40640000Y29210000D03*
D17*
X40640000Y36710000D03*
%TD*%
%TO.C,C3*%
X63500000Y15120000D03*
D18*
X63500000Y7620000D03*
%TD*%
%TO.C,C4*%
X63500000Y29210000D03*
D17*
X63500000Y36710000D03*
%TD*%
D19*
%TO.C,C5*%
X77470000Y12620000D03*
X77470000Y7620000D03*
%TD*%
%TO.C,C6*%
X77470000Y31750000D03*
X77470000Y36750000D03*
%TD*%
D20*
%TO.C,D1*%
X22860000Y29210000D03*
X22860000Y24130000D03*
X22860000Y19050000D03*
D21*
X22860000Y13970000D03*
%TD*%
D22*
%TO.C,D2*%
X92710000Y12700000D03*
D23*
X92710000Y15240000D03*
%TD*%
%TO.C,D3*%
X92710000Y34290000D03*
D22*
X92710000Y36830000D03*
%TD*%
D24*
%TO.C,J1*%
X10160000Y27940000D03*
D25*
X10160000Y22940000D03*
X10160000Y17940000D03*
%TD*%
%TO.C,J2*%
X105410000Y27940000D03*
X105410000Y22940000D03*
D24*
X105410000Y17940000D03*
%TD*%
D26*
%TO.C,R1*%
X85090000Y17780000D03*
D19*
X85090000Y7620000D03*
%TD*%
%TO.C,R2*%
X85090000Y26670000D03*
D26*
X85090000Y36830000D03*
%TD*%
M02*
