G04 #@! TF.GenerationSoftware,KiCad,Pcbnew,5.1.4-3.fc30*
G04 #@! TF.CreationDate,2019-10-06T03:47:38+02:00*
G04 #@! TF.ProjectId,high_power_sym_supply,68696768-5f70-46f7-9765-725f73796d5f,1.0*
G04 #@! TF.SameCoordinates,Original*
G04 #@! TF.FileFunction,Copper,L2,Bot*
G04 #@! TF.FilePolarity,Positive*
%FSLAX46Y46*%
G04 Gerber Fmt 4.6, Leading zero omitted, Abs format (unit mm)*
G04 Created by KiCad (PCBNEW 5.1.4-3.fc30) date 2019-10-06 03:47:38*
%MOMM*%
%LPD*%
G04 APERTURE LIST*
%ADD10C,2.400000*%
%ADD11R,2.400000X2.400000*%
%ADD12C,1.600000*%
%ADD13C,2.800000*%
%ADD14R,2.800000X2.800000*%
%ADD15C,1.800000*%
%ADD16R,1.800000X1.800000*%
%ADD17R,3.960000X1.980000*%
%ADD18O,3.960000X1.980000*%
%ADD19O,1.600000X1.600000*%
%ADD20C,1.300000*%
G04 APERTURE END LIST*
D10*
X114300000Y-96640000D03*
D11*
X114300000Y-104140000D03*
X114300000Y-82550000D03*
D10*
X114300000Y-75050000D03*
X137160000Y-96640000D03*
D11*
X137160000Y-104140000D03*
X137160000Y-82550000D03*
D10*
X137160000Y-75050000D03*
D12*
X151130000Y-99140000D03*
X151130000Y-104140000D03*
X151130000Y-80010000D03*
X151130000Y-75010000D03*
D13*
X96520000Y-82550000D03*
X96520000Y-87630000D03*
X96520000Y-92710000D03*
D14*
X96520000Y-97790000D03*
D15*
X166370000Y-99060000D03*
D16*
X166370000Y-96520000D03*
X166370000Y-77470000D03*
D15*
X166370000Y-74930000D03*
D17*
X83820000Y-83820000D03*
D18*
X83820000Y-88820000D03*
X83820000Y-93820000D03*
X179070000Y-83820000D03*
X179070000Y-88820000D03*
D17*
X179070000Y-93820000D03*
D19*
X158750000Y-93980000D03*
D12*
X158750000Y-104140000D03*
X158750000Y-85090000D03*
D19*
X158750000Y-74930000D03*
D20*
X179070000Y-88820000D02*
X171870000Y-88820000D01*
X171870000Y-88820000D02*
X166370000Y-94320000D01*
X166370000Y-96520000D02*
X166370000Y-94320000D01*
X160060000Y-90210000D02*
X151130000Y-99140000D01*
X158750000Y-85090000D02*
X158750000Y-88900000D01*
X158750000Y-88900000D02*
X160060000Y-90210000D01*
X160060000Y-90210000D02*
X164170000Y-94320000D01*
X164170000Y-94320000D02*
X166370000Y-94320000D01*
X158750000Y-85090000D02*
X155387600Y-85090000D01*
X155387600Y-85090000D02*
X151130000Y-80832400D01*
X138410000Y-82550000D02*
X137160000Y-83800000D01*
X137160000Y-83800000D02*
X137160000Y-96640000D01*
X138410000Y-82550000D02*
X139660000Y-82550000D01*
X137160000Y-82550000D02*
X138410000Y-82550000D01*
X151130000Y-80832400D02*
X141377600Y-80832400D01*
X141377600Y-80832400D02*
X139660000Y-82550000D01*
X151130000Y-80832400D02*
X151130000Y-80010000D01*
X114300000Y-82550000D02*
X137160000Y-82550000D01*
X108505000Y-90845000D02*
X114300000Y-96640000D01*
X87100000Y-88820000D02*
X88450000Y-90170000D01*
X88450000Y-90170000D02*
X107830000Y-90170000D01*
X107830000Y-90170000D02*
X108505000Y-90845000D01*
X114300000Y-85050000D02*
X108505000Y-90845000D01*
X114300000Y-82550000D02*
X114300000Y-85050000D01*
X83820000Y-88820000D02*
X87100000Y-88820000D01*
X137160000Y-104140000D02*
X114300000Y-104140000D01*
X151130000Y-104140000D02*
X137160000Y-104140000D01*
X158750000Y-104140000D02*
X151130000Y-104140000D01*
X96520000Y-97790000D02*
X99220000Y-97790000D01*
X99220000Y-97790000D02*
X105570000Y-104140000D01*
X105570000Y-104140000D02*
X114300000Y-104140000D01*
X179070000Y-93820000D02*
X179070000Y-96110000D01*
X179070000Y-96110000D02*
X171040000Y-104140000D01*
X171040000Y-104140000D02*
X158750000Y-104140000D01*
X166370000Y-77470000D02*
X168570000Y-77470000D01*
X179070000Y-83820000D02*
X179070000Y-81530000D01*
X179070000Y-81530000D02*
X172630000Y-81530000D01*
X172630000Y-81530000D02*
X168570000Y-77470000D01*
X137160000Y-75050000D02*
X151090000Y-75050000D01*
X151090000Y-75050000D02*
X151130000Y-75010000D01*
X114300000Y-75050000D02*
X137160000Y-75050000D01*
X166370000Y-77470000D02*
X153590000Y-77470000D01*
X153590000Y-77470000D02*
X151130000Y-75010000D01*
X114300000Y-75050000D02*
X104020000Y-75050000D01*
X104020000Y-75050000D02*
X96520000Y-82550000D01*
X83820000Y-83820000D02*
X92710000Y-83820000D01*
X92710000Y-83820000D02*
X96520000Y-87630000D01*
X83820000Y-93820000D02*
X95410000Y-93820000D01*
X95410000Y-93820000D02*
X96520000Y-92710000D01*
X158750000Y-93980000D02*
X160850000Y-93980000D01*
X160850000Y-93980000D02*
X160850000Y-94111300D01*
X160850000Y-94111300D02*
X165798700Y-99060000D01*
X165798700Y-99060000D02*
X166370000Y-99060000D01*
X158750000Y-74930000D02*
X166370000Y-74930000D01*
M02*
