M48
; DRILL file {KiCad 5.1.6-c6e7f7d~86~ubuntu18.04.1} date Mon May 25 18:49:08 2020
; FORMAT={-:-/ absolute / inch / decimal}
; #@! TF.CreationDate,2020-05-25T18:49:08+02:00
; #@! TF.GenerationSoftware,Kicad,Pcbnew,5.1.6-c6e7f7d~86~ubuntu18.04.1
FMAT,2
INCH
T1C0.0315
T2C0.0354
T3C0.0472
T4C0.0520
T5C0.0551
T6C0.1260
%
G90
G05
T1
X3.35Y1.05
X3.35Y0.3
X3.05Y1.4469
X3.05Y1.25
X3.05Y0.4969
X3.05Y0.3
X3.35Y1.45
X3.35Y0.7
T2
X3.65Y0.6
X3.65Y0.5
X3.65Y1.45
X3.65Y1.35
T3
X2.5Y1.4453
X2.5Y1.15
X2.5Y0.5953
X2.5Y0.3
X1.6Y1.4453
X1.6Y1.15
X1.6Y0.5953
X1.6Y0.3
T4
X4.15Y1.1
X4.15Y0.9031
X4.15Y0.7063
X0.4Y1.1
X0.4Y0.9031
X0.4Y0.7063
T5
X0.9Y1.15
X0.9Y0.95
X0.9Y0.75
X0.9Y0.55
T6
X4.3Y0.2
X4.3Y1.5
X0.2Y0.2
X0.2Y1.5
T0
M30
