%TF.GenerationSoftware,KiCad,Pcbnew,5.1.4-3.fc30*%
%TF.CreationDate,2019-10-13T17:22:03+02:00*%
%TF.ProjectId,high_power_sym_supply,68696768-5f70-46f7-9765-725f73796d5f,1.0*%
%TF.SameCoordinates,PX463f660PY6a95280*%
%TF.FileFunction,Other,Fab,Top*%
%FSLAX46Y46*%
G04 Gerber Fmt 4.6, Leading zero omitted, Abs format (unit mm)*
G04 Created by KiCad (PCBNEW 5.1.4-3.fc30) date 2019-10-13 17:22:03*
%MOMM*%
%LPD*%
G04 APERTURE LIST*
%ADD10C,0.100000*%
%ADD11C,0.120000*%
%ADD12C,0.150000*%
G04 APERTURE END LIST*
D10*
%TO.C,C1*%
X35792500Y4532729D02*
X37592500Y4532729D01*
X36692500Y3632729D02*
X36692500Y5432729D01*
X49640000Y11370000D02*
G75*
G03X49640000Y11370000I-9000000J0D01*
G01*
%TO.C,C2*%
X49640000Y32960000D02*
G75*
G03X49640000Y32960000I-9000000J0D01*
G01*
X36692500Y25222729D02*
X36692500Y27022729D01*
X35792500Y26122729D02*
X37592500Y26122729D01*
%TO.C,C3*%
X58652500Y4532729D02*
X60452500Y4532729D01*
X59552500Y3632729D02*
X59552500Y5432729D01*
X72500000Y11370000D02*
G75*
G03X72500000Y11370000I-9000000J0D01*
G01*
%TO.C,C4*%
X72500000Y32960000D02*
G75*
G03X72500000Y32960000I-9000000J0D01*
G01*
X59552500Y25222729D02*
X59552500Y27022729D01*
X58652500Y26122729D02*
X60452500Y26122729D01*
%TO.C,C5*%
X76220000Y13620000D02*
X76220000Y6620000D01*
X78720000Y13620000D02*
X76220000Y13620000D01*
X78720000Y6620000D02*
X78720000Y13620000D01*
X76220000Y6620000D02*
X78720000Y6620000D01*
%TO.C,C6*%
X76220000Y30750000D02*
X78720000Y30750000D01*
X78720000Y30750000D02*
X78720000Y37750000D01*
X78720000Y37750000D02*
X76220000Y37750000D01*
X76220000Y37750000D02*
X76220000Y30750000D01*
D11*
%TO.C,D1*%
X20860000Y14570000D02*
X28060000Y14570000D01*
D10*
X21860000Y9970000D02*
X28060000Y9970000D01*
X20860000Y10870000D02*
X21860000Y9970000D01*
X20860000Y33170000D02*
X20860000Y10870000D01*
D11*
X28060000Y33170000D02*
X20860000Y33170000D01*
D10*
X28060000Y9970000D02*
X28060000Y33170000D01*
%TO.C,D2*%
X93876190Y15470000D02*
X91543810Y15470000D01*
X94210000Y13970000D02*
G75*
G03X94210000Y13970000I-1500000J0D01*
G01*
X91544524Y15470555D02*
G75*
G03X93876190Y15470000I1165476J-1500555D01*
G01*
%TO.C,D3*%
X93875476Y34059445D02*
G75*
G03X91543810Y34060000I-1165476J1500555D01*
G01*
X94210000Y35560000D02*
G75*
G03X94210000Y35560000I-1500000J0D01*
G01*
X91543810Y34060000D02*
X93876190Y34060000D01*
%TO.C,J1*%
X10810000Y15280000D02*
X10810000Y30460000D01*
X6170000Y19920000D02*
X10420000Y19920000D01*
X3950000Y15850000D02*
X3950000Y20360000D01*
X13350000Y20360000D02*
X13350000Y15340000D01*
X16390000Y30520000D02*
X16390000Y15280000D01*
X10420000Y19520000D02*
X10420000Y16220000D01*
X10420000Y19900000D02*
X10420000Y19520000D01*
X10420000Y15840000D02*
X10420000Y16220000D01*
X14490000Y19370000D02*
X15120000Y16320000D01*
X14620000Y19500000D02*
X15250000Y16450000D01*
X13600000Y15840000D02*
X13600000Y19900000D01*
X16140000Y15840000D02*
X13600000Y15840000D01*
X16140000Y19900000D02*
X16140000Y15840000D01*
X13600000Y19900000D02*
X16140000Y19900000D01*
X13350000Y15280000D02*
X11820000Y15280000D01*
X10810000Y15280000D02*
X6110000Y15280000D01*
X11820000Y15280000D02*
X10810000Y15280000D01*
X9660000Y16220000D02*
X9660000Y16600000D01*
X9660000Y19520000D02*
X9660000Y19140000D01*
X6490000Y19520000D02*
X9660000Y19520000D01*
X6490000Y16220000D02*
X6490000Y19520000D01*
X6490000Y16220000D02*
X9660000Y16220000D01*
X5850000Y15840000D02*
X3950000Y15840000D01*
X5850000Y19900000D02*
X5850000Y15840000D01*
X3950000Y15840000D02*
X3950000Y15280000D01*
X10420000Y15840000D02*
X5850000Y15840000D01*
X3950000Y19900000D02*
X5850000Y19900000D01*
X6360000Y14770000D02*
X4710000Y14770000D01*
X6110000Y15280000D02*
X4960000Y15280000D01*
X6360000Y14770000D02*
X6110000Y15280000D01*
X4960000Y15280000D02*
X3950000Y15280000D01*
X4710000Y14770000D02*
X4960000Y15280000D01*
X11570000Y14770000D02*
X11820000Y15280000D01*
X16390000Y14770000D02*
X11570000Y14770000D01*
X16390000Y15280000D02*
X16390000Y14770000D01*
X16390000Y15280000D02*
X13350000Y15280000D01*
X7630000Y19140000D02*
X10420000Y19140000D01*
X10420000Y19140000D02*
X10420000Y16600000D01*
X7630000Y16600000D02*
X10420000Y16600000D01*
X7630000Y19140000D02*
X7630000Y16600000D01*
X7630000Y29220000D02*
X7630000Y26680000D01*
X7630000Y26680000D02*
X10420000Y26680000D01*
X10420000Y29220000D02*
X10420000Y26680000D01*
X7630000Y29220000D02*
X10420000Y29220000D01*
X7630000Y24220000D02*
X7630000Y21680000D01*
X7630000Y21680000D02*
X10420000Y21680000D01*
X10420000Y24220000D02*
X10420000Y21680000D01*
X7630000Y24220000D02*
X10420000Y24220000D01*
X4960000Y19920000D02*
X3950000Y19920000D01*
X6110000Y19920000D02*
X4960000Y19920000D01*
X3950000Y24980000D02*
X5850000Y24980000D01*
X10420000Y20920000D02*
X5850000Y20920000D01*
X3950000Y24980000D02*
X3950000Y20920000D01*
X3950000Y20920000D02*
X3950000Y20360000D01*
X3950000Y25920000D02*
X5850000Y25920000D01*
X3950000Y25920000D02*
X3950000Y24980000D01*
X10420000Y29990000D02*
X5850000Y29990000D01*
X3950000Y30520000D02*
X3950000Y29990000D01*
X3950000Y29990000D02*
X3950000Y25920000D01*
X5850000Y24980000D02*
X5850000Y20920000D01*
X5850000Y24980000D02*
X10420000Y24980000D01*
X5850000Y20920000D02*
X3950000Y20920000D01*
X5850000Y25920000D02*
X5850000Y29990000D01*
X5850000Y25920000D02*
X10420000Y25920000D01*
X5850000Y29990000D02*
X3950000Y29990000D01*
X6490000Y21300000D02*
X9660000Y21300000D01*
X6490000Y21300000D02*
X6490000Y24600000D01*
X6490000Y24600000D02*
X9660000Y24600000D01*
X6490000Y26300000D02*
X9660000Y26300000D01*
X6490000Y26300000D02*
X6490000Y29610000D01*
X6490000Y29610000D02*
X9660000Y29610000D01*
X9660000Y29610000D02*
X9660000Y29220000D01*
X9660000Y26300000D02*
X9660000Y26680000D01*
X9660000Y24600000D02*
X9660000Y24220000D01*
X9660000Y21300000D02*
X9660000Y21680000D01*
X3950000Y30520000D02*
X10810000Y30520000D01*
X10810000Y30520000D02*
X13350000Y30520000D01*
X13350000Y30520000D02*
X13350000Y20360000D01*
X13350000Y30520000D02*
X16390000Y30520000D01*
X13600000Y24980000D02*
X16140000Y24980000D01*
X16140000Y24980000D02*
X16140000Y20920000D01*
X16140000Y20920000D02*
X13600000Y20920000D01*
X13600000Y20920000D02*
X13600000Y24980000D01*
X13600000Y25920000D02*
X16140000Y25920000D01*
X13600000Y25920000D02*
X13600000Y29990000D01*
X13600000Y29990000D02*
X16140000Y29990000D01*
X16140000Y25920000D02*
X16140000Y29990000D01*
X14620000Y24580000D02*
X15250000Y21530000D01*
X14490000Y24450000D02*
X15120000Y21400000D01*
X14620000Y29580000D02*
X15250000Y26530000D01*
X14490000Y29450000D02*
X15120000Y26410000D01*
X10420000Y29990000D02*
X10420000Y29610000D01*
X10420000Y25920000D02*
X10420000Y26300000D01*
X10420000Y26300000D02*
X10420000Y29610000D01*
X10420000Y20920000D02*
X10420000Y21300000D01*
X10420000Y24980000D02*
X10420000Y24600000D01*
X10420000Y24600000D02*
X10420000Y21300000D01*
X15228699Y19442972D02*
G75*
G03X14300000Y19300000I-408699J-432972D01*
G01*
X15231687Y16351761D02*
G75*
G03X15170000Y19500000I-1351687J1548239D01*
G01*
X14338263Y19342333D02*
G75*
G03X14290000Y16360000I1901737J-1522333D01*
G01*
X14256004Y16394380D02*
G75*
G03X15220000Y16350000I503996J455620D01*
G01*
X14256004Y21474380D02*
G75*
G03X15220000Y21430000I503996J455620D01*
G01*
X14338263Y24422333D02*
G75*
G03X14290000Y21440000I1901737J-1522333D01*
G01*
X15231687Y21431761D02*
G75*
G03X15170000Y24580000I-1351687J1548239D01*
G01*
X15228699Y24522972D02*
G75*
G03X14300000Y24380000I-408699J-432972D01*
G01*
X14246005Y26484468D02*
G75*
G03X15220000Y26430000I513995J455532D01*
G01*
X14338263Y29422333D02*
G75*
G03X14290000Y26440000I1901737J-1522333D01*
G01*
X15231687Y26431761D02*
G75*
G03X15170000Y29580000I-1351687J1548239D01*
G01*
X15219005Y29535426D02*
G75*
G03X14300000Y29380000I-399005J-435426D01*
G01*
%TO.C,J2*%
X100350995Y16344574D02*
G75*
G03X101270000Y16500000I399005J435426D01*
G01*
X100338313Y19448239D02*
G75*
G03X100400000Y16300000I1351687J-1548239D01*
G01*
X101231737Y16457667D02*
G75*
G03X101280000Y19440000I-1901737J1522333D01*
G01*
X101323995Y19395532D02*
G75*
G03X100350000Y19450000I-513995J-455532D01*
G01*
X100341301Y21357028D02*
G75*
G03X101270000Y21500000I408699J432972D01*
G01*
X100338313Y24448239D02*
G75*
G03X100400000Y21300000I1351687J-1548239D01*
G01*
X101231737Y21457667D02*
G75*
G03X101280000Y24440000I-1901737J1522333D01*
G01*
X101313996Y24405620D02*
G75*
G03X100350000Y24450000I-503996J-455620D01*
G01*
X101313996Y29485620D02*
G75*
G03X100350000Y29530000I-503996J-455620D01*
G01*
X101231737Y26537667D02*
G75*
G03X101280000Y29520000I-1901737J1522333D01*
G01*
X100338313Y29528239D02*
G75*
G03X100400000Y26380000I1351687J-1548239D01*
G01*
X100341301Y26437028D02*
G75*
G03X101270000Y26580000I408699J432972D01*
G01*
X105150000Y21280000D02*
X105150000Y24580000D01*
X105150000Y20900000D02*
X105150000Y21280000D01*
X105150000Y24960000D02*
X105150000Y24580000D01*
X105150000Y19580000D02*
X105150000Y16270000D01*
X105150000Y19960000D02*
X105150000Y19580000D01*
X105150000Y15890000D02*
X105150000Y16270000D01*
X101080000Y16430000D02*
X100450000Y19470000D01*
X100950000Y16300000D02*
X100320000Y19350000D01*
X101080000Y21430000D02*
X100450000Y24480000D01*
X100950000Y21300000D02*
X100320000Y24350000D01*
X99430000Y19960000D02*
X99430000Y15890000D01*
X101970000Y15890000D02*
X99430000Y15890000D01*
X101970000Y19960000D02*
X101970000Y15890000D01*
X101970000Y19960000D02*
X99430000Y19960000D01*
X101970000Y24960000D02*
X101970000Y20900000D01*
X99430000Y24960000D02*
X101970000Y24960000D01*
X99430000Y20900000D02*
X99430000Y24960000D01*
X101970000Y20900000D02*
X99430000Y20900000D01*
X102220000Y15360000D02*
X99180000Y15360000D01*
X102220000Y15360000D02*
X102220000Y25520000D01*
X104760000Y15360000D02*
X102220000Y15360000D01*
X111620000Y15360000D02*
X104760000Y15360000D01*
X105910000Y24580000D02*
X105910000Y24200000D01*
X105910000Y21280000D02*
X105910000Y21660000D01*
X105910000Y19580000D02*
X105910000Y19200000D01*
X105910000Y16270000D02*
X105910000Y16660000D01*
X109080000Y16270000D02*
X105910000Y16270000D01*
X109080000Y19580000D02*
X109080000Y16270000D01*
X109080000Y19580000D02*
X105910000Y19580000D01*
X109080000Y21280000D02*
X105910000Y21280000D01*
X109080000Y24580000D02*
X109080000Y21280000D01*
X109080000Y24580000D02*
X105910000Y24580000D01*
X109720000Y15890000D02*
X111620000Y15890000D01*
X109720000Y19960000D02*
X105150000Y19960000D01*
X109720000Y19960000D02*
X109720000Y15890000D01*
X109720000Y24960000D02*
X111620000Y24960000D01*
X109720000Y20900000D02*
X105150000Y20900000D01*
X109720000Y20900000D02*
X109720000Y24960000D01*
X111620000Y15890000D02*
X111620000Y19960000D01*
X111620000Y15360000D02*
X111620000Y15890000D01*
X105150000Y15890000D02*
X109720000Y15890000D01*
X111620000Y19960000D02*
X111620000Y20900000D01*
X111620000Y19960000D02*
X109720000Y19960000D01*
X111620000Y24960000D02*
X111620000Y25520000D01*
X111620000Y20900000D02*
X111620000Y24960000D01*
X105150000Y24960000D02*
X109720000Y24960000D01*
X111620000Y20900000D02*
X109720000Y20900000D01*
X109460000Y25960000D02*
X110610000Y25960000D01*
X110610000Y25960000D02*
X111620000Y25960000D01*
X107940000Y21660000D02*
X105150000Y21660000D01*
X105150000Y21660000D02*
X105150000Y24200000D01*
X107940000Y24200000D02*
X105150000Y24200000D01*
X107940000Y21660000D02*
X107940000Y24200000D01*
X107940000Y16660000D02*
X105150000Y16660000D01*
X105150000Y16660000D02*
X105150000Y19200000D01*
X107940000Y19200000D02*
X105150000Y19200000D01*
X107940000Y16660000D02*
X107940000Y19200000D01*
X107940000Y26740000D02*
X107940000Y29280000D01*
X107940000Y29280000D02*
X105150000Y29280000D01*
X105150000Y26740000D02*
X105150000Y29280000D01*
X107940000Y26740000D02*
X105150000Y26740000D01*
X99180000Y30600000D02*
X102220000Y30600000D01*
X99180000Y30600000D02*
X99180000Y31110000D01*
X99180000Y31110000D02*
X104000000Y31110000D01*
X104000000Y31110000D02*
X103750000Y30600000D01*
X110860000Y31110000D02*
X110610000Y30600000D01*
X110610000Y30600000D02*
X111620000Y30600000D01*
X109210000Y31110000D02*
X109460000Y30600000D01*
X109460000Y30600000D02*
X110610000Y30600000D01*
X109210000Y31110000D02*
X110860000Y31110000D01*
X111620000Y25980000D02*
X109720000Y25980000D01*
X105150000Y30040000D02*
X109720000Y30040000D01*
X111620000Y30040000D02*
X111620000Y30600000D01*
X109720000Y25980000D02*
X109720000Y30040000D01*
X109720000Y30040000D02*
X111620000Y30040000D01*
X109080000Y29660000D02*
X105910000Y29660000D01*
X109080000Y29660000D02*
X109080000Y26360000D01*
X109080000Y26360000D02*
X105910000Y26360000D01*
X105910000Y26360000D02*
X105910000Y26740000D01*
X105910000Y29660000D02*
X105910000Y29280000D01*
X103750000Y30600000D02*
X104760000Y30600000D01*
X104760000Y30600000D02*
X109460000Y30600000D01*
X102220000Y30600000D02*
X103750000Y30600000D01*
X101970000Y25980000D02*
X99430000Y25980000D01*
X99430000Y25980000D02*
X99430000Y30040000D01*
X99430000Y30040000D02*
X101970000Y30040000D01*
X101970000Y30040000D02*
X101970000Y25980000D01*
X100950000Y26380000D02*
X100320000Y29430000D01*
X101080000Y26510000D02*
X100450000Y29560000D01*
X105150000Y30040000D02*
X105150000Y29660000D01*
X105150000Y25980000D02*
X105150000Y26360000D01*
X105150000Y26360000D02*
X105150000Y29660000D01*
X99180000Y15360000D02*
X99180000Y30600000D01*
X102220000Y25520000D02*
X102220000Y30540000D01*
X111620000Y30030000D02*
X111620000Y25520000D01*
X109400000Y25960000D02*
X105150000Y25960000D01*
X104760000Y30600000D02*
X104760000Y15420000D01*
%TO.C,R1*%
X85090000Y17780000D02*
X85090000Y15850000D01*
X85090000Y7620000D02*
X85090000Y9550000D01*
X83840000Y15850000D02*
X83840000Y9550000D01*
X86340000Y15850000D02*
X83840000Y15850000D01*
X86340000Y9550000D02*
X86340000Y15850000D01*
X83840000Y9550000D02*
X86340000Y9550000D01*
%TO.C,R2*%
X83840000Y28600000D02*
X86340000Y28600000D01*
X86340000Y28600000D02*
X86340000Y34900000D01*
X86340000Y34900000D02*
X83840000Y34900000D01*
X83840000Y34900000D02*
X83840000Y28600000D01*
X85090000Y26670000D02*
X85090000Y28600000D01*
X85090000Y36830000D02*
X85090000Y34900000D01*
%TD*%
%TO.C,H1*%
D12*
X3556190Y33447620D02*
X3556190Y34447620D01*
X3889523Y33733334D01*
X4222857Y34447620D01*
X4222857Y33447620D01*
X4603809Y34447620D02*
X5222857Y34447620D01*
X4889523Y34066667D01*
X5032380Y34066667D01*
X5127619Y34019048D01*
X5175238Y33971429D01*
X5222857Y33876191D01*
X5222857Y33638096D01*
X5175238Y33542858D01*
X5127619Y33495239D01*
X5032380Y33447620D01*
X4746666Y33447620D01*
X4651428Y33495239D01*
X4603809Y33542858D01*
X5651428Y33542858D02*
X5699047Y33495239D01*
X5651428Y33447620D01*
X5603809Y33495239D01*
X5651428Y33542858D01*
X5651428Y33447620D01*
X6080000Y34352381D02*
X6127619Y34400000D01*
X6222857Y34447620D01*
X6460952Y34447620D01*
X6556190Y34400000D01*
X6603809Y34352381D01*
X6651428Y34257143D01*
X6651428Y34161905D01*
X6603809Y34019048D01*
X6032380Y33447620D01*
X6651428Y33447620D01*
%TO.C,H4*%
X107696190Y427620D02*
X107696190Y1427620D01*
X108029523Y713334D01*
X108362857Y1427620D01*
X108362857Y427620D01*
X108743809Y1427620D02*
X109362857Y1427620D01*
X109029523Y1046667D01*
X109172380Y1046667D01*
X109267619Y999048D01*
X109315238Y951429D01*
X109362857Y856191D01*
X109362857Y618096D01*
X109315238Y522858D01*
X109267619Y475239D01*
X109172380Y427620D01*
X108886666Y427620D01*
X108791428Y475239D01*
X108743809Y522858D01*
X109791428Y522858D02*
X109839047Y475239D01*
X109791428Y427620D01*
X109743809Y475239D01*
X109791428Y522858D01*
X109791428Y427620D01*
X110220000Y1332381D02*
X110267619Y1380000D01*
X110362857Y1427620D01*
X110600952Y1427620D01*
X110696190Y1380000D01*
X110743809Y1332381D01*
X110791428Y1237143D01*
X110791428Y1141905D01*
X110743809Y999048D01*
X110172380Y427620D01*
X110791428Y427620D01*
X108758095Y4627620D02*
X108758095Y5627620D01*
X108758095Y5151429D02*
X109329523Y5151429D01*
X109329523Y4627620D02*
X109329523Y5627620D01*
X110234285Y5294286D02*
X110234285Y4627620D01*
X109996190Y5675239D02*
X109758095Y4960953D01*
X110377142Y4960953D01*
%TO.C,H3*%
X107696190Y33447620D02*
X107696190Y34447620D01*
X108029523Y33733334D01*
X108362857Y34447620D01*
X108362857Y33447620D01*
X108743809Y34447620D02*
X109362857Y34447620D01*
X109029523Y34066667D01*
X109172380Y34066667D01*
X109267619Y34019048D01*
X109315238Y33971429D01*
X109362857Y33876191D01*
X109362857Y33638096D01*
X109315238Y33542858D01*
X109267619Y33495239D01*
X109172380Y33447620D01*
X108886666Y33447620D01*
X108791428Y33495239D01*
X108743809Y33542858D01*
X109791428Y33542858D02*
X109839047Y33495239D01*
X109791428Y33447620D01*
X109743809Y33495239D01*
X109791428Y33542858D01*
X109791428Y33447620D01*
X110220000Y34352381D02*
X110267619Y34400000D01*
X110362857Y34447620D01*
X110600952Y34447620D01*
X110696190Y34400000D01*
X110743809Y34352381D01*
X110791428Y34257143D01*
X110791428Y34161905D01*
X110743809Y34019048D01*
X110172380Y33447620D01*
X110791428Y33447620D01*
X108758095Y37647620D02*
X108758095Y38647620D01*
X108758095Y38171429D02*
X109329523Y38171429D01*
X109329523Y37647620D02*
X109329523Y38647620D01*
X109710476Y38647620D02*
X110329523Y38647620D01*
X109996190Y38266667D01*
X110139047Y38266667D01*
X110234285Y38219048D01*
X110281904Y38171429D01*
X110329523Y38076191D01*
X110329523Y37838096D01*
X110281904Y37742858D01*
X110234285Y37695239D01*
X110139047Y37647620D01*
X109853333Y37647620D01*
X109758095Y37695239D01*
X109710476Y37742858D01*
%TO.C,H2*%
X3556190Y427620D02*
X3556190Y1427620D01*
X3889523Y713334D01*
X4222857Y1427620D01*
X4222857Y427620D01*
X4603809Y1427620D02*
X5222857Y1427620D01*
X4889523Y1046667D01*
X5032380Y1046667D01*
X5127619Y999048D01*
X5175238Y951429D01*
X5222857Y856191D01*
X5222857Y618096D01*
X5175238Y522858D01*
X5127619Y475239D01*
X5032380Y427620D01*
X4746666Y427620D01*
X4651428Y475239D01*
X4603809Y522858D01*
X5651428Y522858D02*
X5699047Y475239D01*
X5651428Y427620D01*
X5603809Y475239D01*
X5651428Y522858D01*
X5651428Y427620D01*
X6080000Y1332381D02*
X6127619Y1380000D01*
X6222857Y1427620D01*
X6460952Y1427620D01*
X6556190Y1380000D01*
X6603809Y1332381D01*
X6651428Y1237143D01*
X6651428Y1141905D01*
X6603809Y999048D01*
X6032380Y427620D01*
X6651428Y427620D01*
X4618095Y4627620D02*
X4618095Y5627620D01*
X4618095Y5151429D02*
X5189523Y5151429D01*
X5189523Y4627620D02*
X5189523Y5627620D01*
X5618095Y5532381D02*
X5665714Y5580000D01*
X5760952Y5627620D01*
X5999047Y5627620D01*
X6094285Y5580000D01*
X6141904Y5532381D01*
X6189523Y5437143D01*
X6189523Y5341905D01*
X6141904Y5199048D01*
X5570476Y4627620D01*
X6189523Y4627620D01*
%TO.C,C1*%
X50437619Y9203334D02*
X50390000Y9250953D01*
X50342380Y9346191D01*
X50342380Y9584286D01*
X50390000Y9679524D01*
X50437619Y9727143D01*
X50532857Y9774762D01*
X50628095Y9774762D01*
X50770952Y9727143D01*
X51342380Y9155715D01*
X51342380Y9774762D01*
X50437619Y10155715D02*
X50390000Y10203334D01*
X50342380Y10298572D01*
X50342380Y10536667D01*
X50390000Y10631905D01*
X50437619Y10679524D01*
X50532857Y10727143D01*
X50628095Y10727143D01*
X50770952Y10679524D01*
X51342380Y10108096D01*
X51342380Y10727143D01*
X50342380Y11346191D02*
X50342380Y11441429D01*
X50390000Y11536667D01*
X50437619Y11584286D01*
X50532857Y11631905D01*
X50723333Y11679524D01*
X50961428Y11679524D01*
X51151904Y11631905D01*
X51247142Y11584286D01*
X51294761Y11536667D01*
X51342380Y11441429D01*
X51342380Y11346191D01*
X51294761Y11250953D01*
X51247142Y11203334D01*
X51151904Y11155715D01*
X50961428Y11108096D01*
X50723333Y11108096D01*
X50532857Y11155715D01*
X50437619Y11203334D01*
X50390000Y11250953D01*
X50342380Y11346191D01*
X50342380Y12298572D02*
X50342380Y12393810D01*
X50390000Y12489048D01*
X50437619Y12536667D01*
X50532857Y12584286D01*
X50723333Y12631905D01*
X50961428Y12631905D01*
X51151904Y12584286D01*
X51247142Y12536667D01*
X51294761Y12489048D01*
X51342380Y12393810D01*
X51342380Y12298572D01*
X51294761Y12203334D01*
X51247142Y12155715D01*
X51151904Y12108096D01*
X50961428Y12060477D01*
X50723333Y12060477D01*
X50532857Y12108096D01*
X50437619Y12155715D01*
X50390000Y12203334D01*
X50342380Y12298572D01*
X50675714Y13489048D02*
X51342380Y13489048D01*
X50675714Y13060477D02*
X51199523Y13060477D01*
X51294761Y13108096D01*
X51342380Y13203334D01*
X51342380Y13346191D01*
X51294761Y13441429D01*
X51247142Y13489048D01*
X40997142Y11203334D02*
X41044761Y11155715D01*
X41092380Y11012858D01*
X41092380Y10917620D01*
X41044761Y10774762D01*
X40949523Y10679524D01*
X40854285Y10631905D01*
X40663809Y10584286D01*
X40520952Y10584286D01*
X40330476Y10631905D01*
X40235238Y10679524D01*
X40140000Y10774762D01*
X40092380Y10917620D01*
X40092380Y11012858D01*
X40140000Y11155715D01*
X40187619Y11203334D01*
X41092380Y12155715D02*
X41092380Y11584286D01*
X41092380Y11870000D02*
X40092380Y11870000D01*
X40235238Y11774762D01*
X40330476Y11679524D01*
X40378095Y11584286D01*
%TO.C,C2*%
X50437619Y30793334D02*
X50390000Y30840953D01*
X50342380Y30936191D01*
X50342380Y31174286D01*
X50390000Y31269524D01*
X50437619Y31317143D01*
X50532857Y31364762D01*
X50628095Y31364762D01*
X50770952Y31317143D01*
X51342380Y30745715D01*
X51342380Y31364762D01*
X50437619Y31745715D02*
X50390000Y31793334D01*
X50342380Y31888572D01*
X50342380Y32126667D01*
X50390000Y32221905D01*
X50437619Y32269524D01*
X50532857Y32317143D01*
X50628095Y32317143D01*
X50770952Y32269524D01*
X51342380Y31698096D01*
X51342380Y32317143D01*
X50342380Y32936191D02*
X50342380Y33031429D01*
X50390000Y33126667D01*
X50437619Y33174286D01*
X50532857Y33221905D01*
X50723333Y33269524D01*
X50961428Y33269524D01*
X51151904Y33221905D01*
X51247142Y33174286D01*
X51294761Y33126667D01*
X51342380Y33031429D01*
X51342380Y32936191D01*
X51294761Y32840953D01*
X51247142Y32793334D01*
X51151904Y32745715D01*
X50961428Y32698096D01*
X50723333Y32698096D01*
X50532857Y32745715D01*
X50437619Y32793334D01*
X50390000Y32840953D01*
X50342380Y32936191D01*
X50342380Y33888572D02*
X50342380Y33983810D01*
X50390000Y34079048D01*
X50437619Y34126667D01*
X50532857Y34174286D01*
X50723333Y34221905D01*
X50961428Y34221905D01*
X51151904Y34174286D01*
X51247142Y34126667D01*
X51294761Y34079048D01*
X51342380Y33983810D01*
X51342380Y33888572D01*
X51294761Y33793334D01*
X51247142Y33745715D01*
X51151904Y33698096D01*
X50961428Y33650477D01*
X50723333Y33650477D01*
X50532857Y33698096D01*
X50437619Y33745715D01*
X50390000Y33793334D01*
X50342380Y33888572D01*
X50675714Y35079048D02*
X51342380Y35079048D01*
X50675714Y34650477D02*
X51199523Y34650477D01*
X51294761Y34698096D01*
X51342380Y34793334D01*
X51342380Y34936191D01*
X51294761Y35031429D01*
X51247142Y35079048D01*
X40997142Y32793334D02*
X41044761Y32745715D01*
X41092380Y32602858D01*
X41092380Y32507620D01*
X41044761Y32364762D01*
X40949523Y32269524D01*
X40854285Y32221905D01*
X40663809Y32174286D01*
X40520952Y32174286D01*
X40330476Y32221905D01*
X40235238Y32269524D01*
X40140000Y32364762D01*
X40092380Y32507620D01*
X40092380Y32602858D01*
X40140000Y32745715D01*
X40187619Y32793334D01*
X40187619Y33174286D02*
X40140000Y33221905D01*
X40092380Y33317143D01*
X40092380Y33555239D01*
X40140000Y33650477D01*
X40187619Y33698096D01*
X40282857Y33745715D01*
X40378095Y33745715D01*
X40520952Y33698096D01*
X41092380Y33126667D01*
X41092380Y33745715D01*
%TO.C,C3*%
X73297619Y9203334D02*
X73250000Y9250953D01*
X73202380Y9346191D01*
X73202380Y9584286D01*
X73250000Y9679524D01*
X73297619Y9727143D01*
X73392857Y9774762D01*
X73488095Y9774762D01*
X73630952Y9727143D01*
X74202380Y9155715D01*
X74202380Y9774762D01*
X73297619Y10155715D02*
X73250000Y10203334D01*
X73202380Y10298572D01*
X73202380Y10536667D01*
X73250000Y10631905D01*
X73297619Y10679524D01*
X73392857Y10727143D01*
X73488095Y10727143D01*
X73630952Y10679524D01*
X74202380Y10108096D01*
X74202380Y10727143D01*
X73202380Y11346191D02*
X73202380Y11441429D01*
X73250000Y11536667D01*
X73297619Y11584286D01*
X73392857Y11631905D01*
X73583333Y11679524D01*
X73821428Y11679524D01*
X74011904Y11631905D01*
X74107142Y11584286D01*
X74154761Y11536667D01*
X74202380Y11441429D01*
X74202380Y11346191D01*
X74154761Y11250953D01*
X74107142Y11203334D01*
X74011904Y11155715D01*
X73821428Y11108096D01*
X73583333Y11108096D01*
X73392857Y11155715D01*
X73297619Y11203334D01*
X73250000Y11250953D01*
X73202380Y11346191D01*
X73202380Y12298572D02*
X73202380Y12393810D01*
X73250000Y12489048D01*
X73297619Y12536667D01*
X73392857Y12584286D01*
X73583333Y12631905D01*
X73821428Y12631905D01*
X74011904Y12584286D01*
X74107142Y12536667D01*
X74154761Y12489048D01*
X74202380Y12393810D01*
X74202380Y12298572D01*
X74154761Y12203334D01*
X74107142Y12155715D01*
X74011904Y12108096D01*
X73821428Y12060477D01*
X73583333Y12060477D01*
X73392857Y12108096D01*
X73297619Y12155715D01*
X73250000Y12203334D01*
X73202380Y12298572D01*
X73535714Y13489048D02*
X74202380Y13489048D01*
X73535714Y13060477D02*
X74059523Y13060477D01*
X74154761Y13108096D01*
X74202380Y13203334D01*
X74202380Y13346191D01*
X74154761Y13441429D01*
X74107142Y13489048D01*
X63857142Y11203334D02*
X63904761Y11155715D01*
X63952380Y11012858D01*
X63952380Y10917620D01*
X63904761Y10774762D01*
X63809523Y10679524D01*
X63714285Y10631905D01*
X63523809Y10584286D01*
X63380952Y10584286D01*
X63190476Y10631905D01*
X63095238Y10679524D01*
X63000000Y10774762D01*
X62952380Y10917620D01*
X62952380Y11012858D01*
X63000000Y11155715D01*
X63047619Y11203334D01*
X62952380Y11536667D02*
X62952380Y12155715D01*
X63333333Y11822381D01*
X63333333Y11965239D01*
X63380952Y12060477D01*
X63428571Y12108096D01*
X63523809Y12155715D01*
X63761904Y12155715D01*
X63857142Y12108096D01*
X63904761Y12060477D01*
X63952380Y11965239D01*
X63952380Y11679524D01*
X63904761Y11584286D01*
X63857142Y11536667D01*
%TO.C,C4*%
X73297619Y30793334D02*
X73250000Y30840953D01*
X73202380Y30936191D01*
X73202380Y31174286D01*
X73250000Y31269524D01*
X73297619Y31317143D01*
X73392857Y31364762D01*
X73488095Y31364762D01*
X73630952Y31317143D01*
X74202380Y30745715D01*
X74202380Y31364762D01*
X73297619Y31745715D02*
X73250000Y31793334D01*
X73202380Y31888572D01*
X73202380Y32126667D01*
X73250000Y32221905D01*
X73297619Y32269524D01*
X73392857Y32317143D01*
X73488095Y32317143D01*
X73630952Y32269524D01*
X74202380Y31698096D01*
X74202380Y32317143D01*
X73202380Y32936191D02*
X73202380Y33031429D01*
X73250000Y33126667D01*
X73297619Y33174286D01*
X73392857Y33221905D01*
X73583333Y33269524D01*
X73821428Y33269524D01*
X74011904Y33221905D01*
X74107142Y33174286D01*
X74154761Y33126667D01*
X74202380Y33031429D01*
X74202380Y32936191D01*
X74154761Y32840953D01*
X74107142Y32793334D01*
X74011904Y32745715D01*
X73821428Y32698096D01*
X73583333Y32698096D01*
X73392857Y32745715D01*
X73297619Y32793334D01*
X73250000Y32840953D01*
X73202380Y32936191D01*
X73202380Y33888572D02*
X73202380Y33983810D01*
X73250000Y34079048D01*
X73297619Y34126667D01*
X73392857Y34174286D01*
X73583333Y34221905D01*
X73821428Y34221905D01*
X74011904Y34174286D01*
X74107142Y34126667D01*
X74154761Y34079048D01*
X74202380Y33983810D01*
X74202380Y33888572D01*
X74154761Y33793334D01*
X74107142Y33745715D01*
X74011904Y33698096D01*
X73821428Y33650477D01*
X73583333Y33650477D01*
X73392857Y33698096D01*
X73297619Y33745715D01*
X73250000Y33793334D01*
X73202380Y33888572D01*
X73535714Y35079048D02*
X74202380Y35079048D01*
X73535714Y34650477D02*
X74059523Y34650477D01*
X74154761Y34698096D01*
X74202380Y34793334D01*
X74202380Y34936191D01*
X74154761Y35031429D01*
X74107142Y35079048D01*
X63857142Y32793334D02*
X63904761Y32745715D01*
X63952380Y32602858D01*
X63952380Y32507620D01*
X63904761Y32364762D01*
X63809523Y32269524D01*
X63714285Y32221905D01*
X63523809Y32174286D01*
X63380952Y32174286D01*
X63190476Y32221905D01*
X63095238Y32269524D01*
X63000000Y32364762D01*
X62952380Y32507620D01*
X62952380Y32602858D01*
X63000000Y32745715D01*
X63047619Y32793334D01*
X63285714Y33650477D02*
X63952380Y33650477D01*
X62904761Y33412381D02*
X63619047Y33174286D01*
X63619047Y33793334D01*
%TO.C,C5*%
X79422380Y8905715D02*
X79422380Y9000953D01*
X79470000Y9096191D01*
X79517619Y9143810D01*
X79612857Y9191429D01*
X79803333Y9239048D01*
X80041428Y9239048D01*
X80231904Y9191429D01*
X80327142Y9143810D01*
X80374761Y9096191D01*
X80422380Y9000953D01*
X80422380Y8905715D01*
X80374761Y8810477D01*
X80327142Y8762858D01*
X80231904Y8715239D01*
X80041428Y8667620D01*
X79803333Y8667620D01*
X79612857Y8715239D01*
X79517619Y8762858D01*
X79470000Y8810477D01*
X79422380Y8905715D01*
X80327142Y9667620D02*
X80374761Y9715239D01*
X80422380Y9667620D01*
X80374761Y9620000D01*
X80327142Y9667620D01*
X80422380Y9667620D01*
X80422380Y10667620D02*
X80422380Y10096191D01*
X80422380Y10381905D02*
X79422380Y10381905D01*
X79565238Y10286667D01*
X79660476Y10191429D01*
X79708095Y10096191D01*
X79755714Y11524762D02*
X80422380Y11524762D01*
X79755714Y11096191D02*
X80279523Y11096191D01*
X80374761Y11143810D01*
X80422380Y11239048D01*
X80422380Y11381905D01*
X80374761Y11477143D01*
X80327142Y11524762D01*
X77827142Y9953334D02*
X77874761Y9905715D01*
X77922380Y9762858D01*
X77922380Y9667620D01*
X77874761Y9524762D01*
X77779523Y9429524D01*
X77684285Y9381905D01*
X77493809Y9334286D01*
X77350952Y9334286D01*
X77160476Y9381905D01*
X77065238Y9429524D01*
X76970000Y9524762D01*
X76922380Y9667620D01*
X76922380Y9762858D01*
X76970000Y9905715D01*
X77017619Y9953334D01*
X76922380Y10858096D02*
X76922380Y10381905D01*
X77398571Y10334286D01*
X77350952Y10381905D01*
X77303333Y10477143D01*
X77303333Y10715239D01*
X77350952Y10810477D01*
X77398571Y10858096D01*
X77493809Y10905715D01*
X77731904Y10905715D01*
X77827142Y10858096D01*
X77874761Y10810477D01*
X77922380Y10715239D01*
X77922380Y10477143D01*
X77874761Y10381905D01*
X77827142Y10334286D01*
%TO.C,C6*%
X79422380Y33035715D02*
X79422380Y33130953D01*
X79470000Y33226191D01*
X79517619Y33273810D01*
X79612857Y33321429D01*
X79803333Y33369048D01*
X80041428Y33369048D01*
X80231904Y33321429D01*
X80327142Y33273810D01*
X80374761Y33226191D01*
X80422380Y33130953D01*
X80422380Y33035715D01*
X80374761Y32940477D01*
X80327142Y32892858D01*
X80231904Y32845239D01*
X80041428Y32797620D01*
X79803333Y32797620D01*
X79612857Y32845239D01*
X79517619Y32892858D01*
X79470000Y32940477D01*
X79422380Y33035715D01*
X80327142Y33797620D02*
X80374761Y33845239D01*
X80422380Y33797620D01*
X80374761Y33750000D01*
X80327142Y33797620D01*
X80422380Y33797620D01*
X80422380Y34797620D02*
X80422380Y34226191D01*
X80422380Y34511905D02*
X79422380Y34511905D01*
X79565238Y34416667D01*
X79660476Y34321429D01*
X79708095Y34226191D01*
X79755714Y35654762D02*
X80422380Y35654762D01*
X79755714Y35226191D02*
X80279523Y35226191D01*
X80374761Y35273810D01*
X80422380Y35369048D01*
X80422380Y35511905D01*
X80374761Y35607143D01*
X80327142Y35654762D01*
X77827142Y34083334D02*
X77874761Y34035715D01*
X77922380Y33892858D01*
X77922380Y33797620D01*
X77874761Y33654762D01*
X77779523Y33559524D01*
X77684285Y33511905D01*
X77493809Y33464286D01*
X77350952Y33464286D01*
X77160476Y33511905D01*
X77065238Y33559524D01*
X76970000Y33654762D01*
X76922380Y33797620D01*
X76922380Y33892858D01*
X76970000Y34035715D01*
X77017619Y34083334D01*
X76922380Y34940477D02*
X76922380Y34750000D01*
X76970000Y34654762D01*
X77017619Y34607143D01*
X77160476Y34511905D01*
X77350952Y34464286D01*
X77731904Y34464286D01*
X77827142Y34511905D01*
X77874761Y34559524D01*
X77922380Y34654762D01*
X77922380Y34845239D01*
X77874761Y34940477D01*
X77827142Y34988096D01*
X77731904Y35035715D01*
X77493809Y35035715D01*
X77398571Y34988096D01*
X77350952Y34940477D01*
X77303333Y34845239D01*
X77303333Y34654762D01*
X77350952Y34559524D01*
X77398571Y34511905D01*
X77493809Y34464286D01*
%TO.C,D1*%
X29512380Y19279524D02*
X28512380Y19279524D01*
X29512380Y19850953D02*
X28940952Y19422381D01*
X28512380Y19850953D02*
X29083809Y19279524D01*
X28988571Y20612858D02*
X29036190Y20755715D01*
X29083809Y20803334D01*
X29179047Y20850953D01*
X29321904Y20850953D01*
X29417142Y20803334D01*
X29464761Y20755715D01*
X29512380Y20660477D01*
X29512380Y20279524D01*
X28512380Y20279524D01*
X28512380Y20612858D01*
X28560000Y20708096D01*
X28607619Y20755715D01*
X28702857Y20803334D01*
X28798095Y20803334D01*
X28893333Y20755715D01*
X28940952Y20708096D01*
X28988571Y20612858D01*
X28988571Y20279524D01*
X28512380Y21279524D02*
X29321904Y21279524D01*
X29417142Y21327143D01*
X29464761Y21374762D01*
X29512380Y21470000D01*
X29512380Y21660477D01*
X29464761Y21755715D01*
X29417142Y21803334D01*
X29321904Y21850953D01*
X28512380Y21850953D01*
X28845714Y22755715D02*
X29512380Y22755715D01*
X28464761Y22517620D02*
X29179047Y22279524D01*
X29179047Y22898572D01*
X29226666Y23231905D02*
X29226666Y23708096D01*
X29512380Y23136667D02*
X28512380Y23470000D01*
X29512380Y23803334D01*
X26612380Y20931905D02*
X25612380Y20931905D01*
X25612380Y21170000D01*
X25660000Y21312858D01*
X25755238Y21408096D01*
X25850476Y21455715D01*
X26040952Y21503334D01*
X26183809Y21503334D01*
X26374285Y21455715D01*
X26469523Y21408096D01*
X26564761Y21312858D01*
X26612380Y21170000D01*
X26612380Y20931905D01*
X26612380Y22455715D02*
X26612380Y21884286D01*
X26612380Y22170000D02*
X25612380Y22170000D01*
X25755238Y22074762D01*
X25850476Y21979524D01*
X25898095Y21884286D01*
%TO.C,D2*%
X90202380Y13017620D02*
X89535714Y13017620D01*
X89726190Y13017620D02*
X89630952Y13065239D01*
X89583333Y13112858D01*
X89535714Y13208096D01*
X89535714Y13303334D01*
X90154761Y14017620D02*
X90202380Y13922381D01*
X90202380Y13731905D01*
X90154761Y13636667D01*
X90059523Y13589048D01*
X89678571Y13589048D01*
X89583333Y13636667D01*
X89535714Y13731905D01*
X89535714Y13922381D01*
X89583333Y14017620D01*
X89678571Y14065239D01*
X89773809Y14065239D01*
X89869047Y13589048D01*
X90202380Y14922381D02*
X89202380Y14922381D01*
X90154761Y14922381D02*
X90202380Y14827143D01*
X90202380Y14636667D01*
X90154761Y14541429D01*
X90107142Y14493810D01*
X90011904Y14446191D01*
X89726190Y14446191D01*
X89630952Y14493810D01*
X89583333Y14541429D01*
X89535714Y14636667D01*
X89535714Y14827143D01*
X89583333Y14922381D01*
%TO.C,D3*%
X96122380Y34607620D02*
X95455714Y34607620D01*
X95646190Y34607620D02*
X95550952Y34655239D01*
X95503333Y34702858D01*
X95455714Y34798096D01*
X95455714Y34893334D01*
X96074761Y35607620D02*
X96122380Y35512381D01*
X96122380Y35321905D01*
X96074761Y35226667D01*
X95979523Y35179048D01*
X95598571Y35179048D01*
X95503333Y35226667D01*
X95455714Y35321905D01*
X95455714Y35512381D01*
X95503333Y35607620D01*
X95598571Y35655239D01*
X95693809Y35655239D01*
X95789047Y35179048D01*
X96122380Y36512381D02*
X95122380Y36512381D01*
X96074761Y36512381D02*
X96122380Y36417143D01*
X96122380Y36226667D01*
X96074761Y36131429D01*
X96027142Y36083810D01*
X95931904Y36036191D01*
X95646190Y36036191D01*
X95550952Y36083810D01*
X95503333Y36131429D01*
X95455714Y36226667D01*
X95455714Y36417143D01*
X95503333Y36512381D01*
%TO.C,J1*%
X3312380Y20513810D02*
X2788571Y20513810D01*
X2693333Y20466191D01*
X2645714Y20370953D01*
X2645714Y20180477D01*
X2693333Y20085239D01*
X3264761Y20513810D02*
X3312380Y20418572D01*
X3312380Y20180477D01*
X3264761Y20085239D01*
X3169523Y20037620D01*
X3074285Y20037620D01*
X2979047Y20085239D01*
X2931428Y20180477D01*
X2931428Y20418572D01*
X2883809Y20513810D01*
X3264761Y21418572D02*
X3312380Y21323334D01*
X3312380Y21132858D01*
X3264761Y21037620D01*
X3217142Y20990000D01*
X3121904Y20942381D01*
X2836190Y20942381D01*
X2740952Y20990000D01*
X2693333Y21037620D01*
X2645714Y21132858D01*
X2645714Y21323334D01*
X2693333Y21418572D01*
X3312380Y22609048D02*
X2645714Y22609048D01*
X2312380Y22609048D02*
X2360000Y22561429D01*
X2407619Y22609048D01*
X2360000Y22656667D01*
X2312380Y22609048D01*
X2407619Y22609048D01*
X2645714Y23085239D02*
X3312380Y23085239D01*
X2740952Y23085239D02*
X2693333Y23132858D01*
X2645714Y23228096D01*
X2645714Y23370953D01*
X2693333Y23466191D01*
X2788571Y23513810D01*
X3312380Y23513810D01*
X2645714Y23990000D02*
X3645714Y23990000D01*
X2693333Y23990000D02*
X2645714Y24085239D01*
X2645714Y24275715D01*
X2693333Y24370953D01*
X2740952Y24418572D01*
X2836190Y24466191D01*
X3121904Y24466191D01*
X3217142Y24418572D01*
X3264761Y24370953D01*
X3312380Y24275715D01*
X3312380Y24085239D01*
X3264761Y23990000D01*
X2645714Y25323334D02*
X3312380Y25323334D01*
X2645714Y24894762D02*
X3169523Y24894762D01*
X3264761Y24942381D01*
X3312380Y25037620D01*
X3312380Y25180477D01*
X3264761Y25275715D01*
X3217142Y25323334D01*
X2645714Y25656667D02*
X2645714Y26037620D01*
X2312380Y25799524D02*
X3169523Y25799524D01*
X3264761Y25847143D01*
X3312380Y25942381D01*
X3312380Y26037620D01*
X11612380Y22606667D02*
X12326666Y22606667D01*
X12469523Y22559048D01*
X12564761Y22463810D01*
X12612380Y22320953D01*
X12612380Y22225715D01*
X12612380Y23606667D02*
X12612380Y23035239D01*
X12612380Y23320953D02*
X11612380Y23320953D01*
X11755238Y23225715D01*
X11850476Y23130477D01*
X11898095Y23035239D01*
%TO.C,J2*%
X113162380Y19913810D02*
X112162380Y19913810D01*
X113114761Y19913810D02*
X113162380Y19818572D01*
X113162380Y19628096D01*
X113114761Y19532858D01*
X113067142Y19485239D01*
X112971904Y19437620D01*
X112686190Y19437620D01*
X112590952Y19485239D01*
X112543333Y19532858D01*
X112495714Y19628096D01*
X112495714Y19818572D01*
X112543333Y19913810D01*
X113114761Y20818572D02*
X113162380Y20723334D01*
X113162380Y20532858D01*
X113114761Y20437620D01*
X113067142Y20390000D01*
X112971904Y20342381D01*
X112686190Y20342381D01*
X112590952Y20390000D01*
X112543333Y20437620D01*
X112495714Y20532858D01*
X112495714Y20723334D01*
X112543333Y20818572D01*
X113162380Y22151905D02*
X113114761Y22056667D01*
X113067142Y22009048D01*
X112971904Y21961429D01*
X112686190Y21961429D01*
X112590952Y22009048D01*
X112543333Y22056667D01*
X112495714Y22151905D01*
X112495714Y22294762D01*
X112543333Y22390000D01*
X112590952Y22437620D01*
X112686190Y22485239D01*
X112971904Y22485239D01*
X113067142Y22437620D01*
X113114761Y22390000D01*
X113162380Y22294762D01*
X113162380Y22151905D01*
X112495714Y23342381D02*
X113162380Y23342381D01*
X112495714Y22913810D02*
X113019523Y22913810D01*
X113114761Y22961429D01*
X113162380Y23056667D01*
X113162380Y23199524D01*
X113114761Y23294762D01*
X113067142Y23342381D01*
X112495714Y23675715D02*
X112495714Y24056667D01*
X112162380Y23818572D02*
X113019523Y23818572D01*
X113114761Y23866191D01*
X113162380Y23961429D01*
X113162380Y24056667D01*
X112495714Y24390000D02*
X113495714Y24390000D01*
X112543333Y24390000D02*
X112495714Y24485239D01*
X112495714Y24675715D01*
X112543333Y24770953D01*
X112590952Y24818572D01*
X112686190Y24866191D01*
X112971904Y24866191D01*
X113067142Y24818572D01*
X113114761Y24770953D01*
X113162380Y24675715D01*
X113162380Y24485239D01*
X113114761Y24390000D01*
X112495714Y25723334D02*
X113162380Y25723334D01*
X112495714Y25294762D02*
X113019523Y25294762D01*
X113114761Y25342381D01*
X113162380Y25437620D01*
X113162380Y25580477D01*
X113114761Y25675715D01*
X113067142Y25723334D01*
X112495714Y26056667D02*
X112495714Y26437620D01*
X112162380Y26199524D02*
X113019523Y26199524D01*
X113114761Y26247143D01*
X113162380Y26342381D01*
X113162380Y26437620D01*
X102862380Y22606667D02*
X103576666Y22606667D01*
X103719523Y22559048D01*
X103814761Y22463810D01*
X103862380Y22320953D01*
X103862380Y22225715D01*
X102957619Y23035239D02*
X102910000Y23082858D01*
X102862380Y23178096D01*
X102862380Y23416191D01*
X102910000Y23511429D01*
X102957619Y23559048D01*
X103052857Y23606667D01*
X103148095Y23606667D01*
X103290952Y23559048D01*
X103862380Y22987620D01*
X103862380Y23606667D01*
%TO.C,R1*%
X87007619Y11533334D02*
X86960000Y11580953D01*
X86912380Y11676191D01*
X86912380Y11914286D01*
X86960000Y12009524D01*
X87007619Y12057143D01*
X87102857Y12104762D01*
X87198095Y12104762D01*
X87340952Y12057143D01*
X87912380Y11485715D01*
X87912380Y12104762D01*
X87912380Y12533334D02*
X86912380Y12533334D01*
X87531428Y12628572D02*
X87912380Y12914286D01*
X87245714Y12914286D02*
X87626666Y12533334D01*
X87007619Y13295239D02*
X86960000Y13342858D01*
X86912380Y13438096D01*
X86912380Y13676191D01*
X86960000Y13771429D01*
X87007619Y13819048D01*
X87102857Y13866667D01*
X87198095Y13866667D01*
X87340952Y13819048D01*
X87912380Y13247620D01*
X87912380Y13866667D01*
X85542380Y12533334D02*
X85066190Y12200000D01*
X85542380Y11961905D02*
X84542380Y11961905D01*
X84542380Y12342858D01*
X84590000Y12438096D01*
X84637619Y12485715D01*
X84732857Y12533334D01*
X84875714Y12533334D01*
X84970952Y12485715D01*
X85018571Y12438096D01*
X85066190Y12342858D01*
X85066190Y11961905D01*
X85542380Y13485715D02*
X85542380Y12914286D01*
X85542380Y13200000D02*
X84542380Y13200000D01*
X84685238Y13104762D01*
X84780476Y13009524D01*
X84828095Y12914286D01*
%TO.C,R2*%
X87007619Y30583334D02*
X86960000Y30630953D01*
X86912380Y30726191D01*
X86912380Y30964286D01*
X86960000Y31059524D01*
X87007619Y31107143D01*
X87102857Y31154762D01*
X87198095Y31154762D01*
X87340952Y31107143D01*
X87912380Y30535715D01*
X87912380Y31154762D01*
X87912380Y31583334D02*
X86912380Y31583334D01*
X87531428Y31678572D02*
X87912380Y31964286D01*
X87245714Y31964286D02*
X87626666Y31583334D01*
X87007619Y32345239D02*
X86960000Y32392858D01*
X86912380Y32488096D01*
X86912380Y32726191D01*
X86960000Y32821429D01*
X87007619Y32869048D01*
X87102857Y32916667D01*
X87198095Y32916667D01*
X87340952Y32869048D01*
X87912380Y32297620D01*
X87912380Y32916667D01*
X85542380Y31583334D02*
X85066190Y31250000D01*
X85542380Y31011905D02*
X84542380Y31011905D01*
X84542380Y31392858D01*
X84590000Y31488096D01*
X84637619Y31535715D01*
X84732857Y31583334D01*
X84875714Y31583334D01*
X84970952Y31535715D01*
X85018571Y31488096D01*
X85066190Y31392858D01*
X85066190Y31011905D01*
X84637619Y31964286D02*
X84590000Y32011905D01*
X84542380Y32107143D01*
X84542380Y32345239D01*
X84590000Y32440477D01*
X84637619Y32488096D01*
X84732857Y32535715D01*
X84828095Y32535715D01*
X84970952Y32488096D01*
X85542380Y31916667D01*
X85542380Y32535715D01*
%TD*%
M02*
