%TF.GenerationSoftware,KiCad,Pcbnew,5.1.6-c6e7f7d~86~ubuntu18.04.1*%
%TF.CreationDate,2020-05-25T18:49:05+02:00*%
%TF.ProjectId,high_power_sym_supply,68696768-5f70-46f7-9765-725f73796d5f,1.0*%
%TF.SameCoordinates,PX463f660PY6a95280*%
%TF.FileFunction,Copper,L2,Bot*%
%TF.FilePolarity,Positive*%
%FSLAX46Y46*%
G04 Gerber Fmt 4.6, Leading zero omitted, Abs format (unit mm)*
G04 Created by KiCad (PCBNEW 5.1.6-c6e7f7d~86~ubuntu18.04.1) date 2020-05-25 18:49:05*
%MOMM*%
%LPD*%
G01*
G04 APERTURE LIST*
%TA.AperFunction,ComponentPad*%
%ADD10C,2.400000*%
%TD*%
%TA.AperFunction,ComponentPad*%
%ADD11R,2.400000X2.400000*%
%TD*%
%TA.AperFunction,ComponentPad*%
%ADD12C,1.600000*%
%TD*%
%TA.AperFunction,ComponentPad*%
%ADD13C,2.800000*%
%TD*%
%TA.AperFunction,ComponentPad*%
%ADD14R,2.800000X2.800000*%
%TD*%
%TA.AperFunction,ComponentPad*%
%ADD15C,1.800000*%
%TD*%
%TA.AperFunction,ComponentPad*%
%ADD16R,1.800000X1.800000*%
%TD*%
%TA.AperFunction,ComponentPad*%
%ADD17R,3.960000X1.980000*%
%TD*%
%TA.AperFunction,ComponentPad*%
%ADD18O,3.960000X1.980000*%
%TD*%
%TA.AperFunction,ComponentPad*%
%ADD19O,1.600000X1.600000*%
%TD*%
%TA.AperFunction,Conductor*%
%ADD20C,1.300000*%
%TD*%
G04 APERTURE END LIST*
D10*
%TO.P,C1,2*%
%TO.N,GND*%
X40640000Y15120000D03*
D11*
%TO.P,C1,1*%
%TO.N,Net-(C1-Pad1)*%
X40640000Y7620000D03*
%TD*%
%TO.P,C2,1*%
%TO.N,GND*%
X40640000Y29210000D03*
D10*
%TO.P,C2,2*%
%TO.N,Net-(C2-Pad2)*%
X40640000Y36710000D03*
%TD*%
%TO.P,C3,2*%
%TO.N,GND*%
X63500000Y15120000D03*
D11*
%TO.P,C3,1*%
%TO.N,Net-(C1-Pad1)*%
X63500000Y7620000D03*
%TD*%
%TO.P,C4,1*%
%TO.N,GND*%
X63500000Y29210000D03*
D10*
%TO.P,C4,2*%
%TO.N,Net-(C2-Pad2)*%
X63500000Y36710000D03*
%TD*%
D12*
%TO.P,C5,2*%
%TO.N,GND*%
X77470000Y12620000D03*
%TO.P,C5,1*%
%TO.N,Net-(C1-Pad1)*%
X77470000Y7620000D03*
%TD*%
%TO.P,C6,1*%
%TO.N,GND*%
X77470000Y31750000D03*
%TO.P,C6,2*%
%TO.N,Net-(C2-Pad2)*%
X77470000Y36750000D03*
%TD*%
D13*
%TO.P,D1,4*%
%TO.N,Net-(C2-Pad2)*%
X22860000Y29210000D03*
%TO.P,D1,3*%
%TO.N,Net-(D1-Pad3)*%
X22860000Y24130000D03*
%TO.P,D1,2*%
%TO.N,Net-(D1-Pad2)*%
X22860000Y19050000D03*
D14*
%TO.P,D1,1*%
%TO.N,Net-(C1-Pad1)*%
X22860000Y13970000D03*
%TD*%
D15*
%TO.P,D2,2*%
%TO.N,Net-(D2-Pad2)*%
X92710000Y12700000D03*
D16*
%TO.P,D2,1*%
%TO.N,GND*%
X92710000Y15240000D03*
%TD*%
%TO.P,D3,1*%
%TO.N,Net-(C2-Pad2)*%
X92710000Y34290000D03*
D15*
%TO.P,D3,2*%
%TO.N,Net-(D3-Pad2)*%
X92710000Y36830000D03*
%TD*%
D17*
%TO.P,J1,1*%
%TO.N,Net-(D1-Pad3)*%
X10160000Y27940000D03*
D18*
%TO.P,J1,2*%
%TO.N,GND*%
X10160000Y22940000D03*
%TO.P,J1,3*%
%TO.N,Net-(D1-Pad2)*%
X10160000Y17940000D03*
%TD*%
%TO.P,J2,3*%
%TO.N,Net-(C2-Pad2)*%
X105410000Y27940000D03*
%TO.P,J2,2*%
%TO.N,GND*%
X105410000Y22940000D03*
D17*
%TO.P,J2,1*%
%TO.N,Net-(C1-Pad1)*%
X105410000Y17940000D03*
%TD*%
D19*
%TO.P,R1,2*%
%TO.N,Net-(D2-Pad2)*%
X85090000Y17780000D03*
D12*
%TO.P,R1,1*%
%TO.N,Net-(C1-Pad1)*%
X85090000Y7620000D03*
%TD*%
%TO.P,R2,1*%
%TO.N,GND*%
X85090000Y26670000D03*
D19*
%TO.P,R2,2*%
%TO.N,Net-(D3-Pad2)*%
X85090000Y36830000D03*
%TD*%
D20*
%TO.N,GND*%
X105410000Y22940000D02*
X98210000Y22940000D01*
X98210000Y22940000D02*
X92710000Y17440000D01*
X92710000Y15240000D02*
X92710000Y17440000D01*
X86400000Y21550000D02*
X77470000Y12620000D01*
X85090000Y26670000D02*
X85090000Y22860000D01*
X85090000Y22860000D02*
X86400000Y21550000D01*
X86400000Y21550000D02*
X90510000Y17440000D01*
X90510000Y17440000D02*
X92710000Y17440000D01*
X85090000Y26670000D02*
X81727600Y26670000D01*
X81727600Y26670000D02*
X77470000Y30927600D01*
X64750000Y29210000D02*
X63500000Y27960000D01*
X63500000Y27960000D02*
X63500000Y15120000D01*
X64750000Y29210000D02*
X66000000Y29210000D01*
X63500000Y29210000D02*
X64750000Y29210000D01*
X77470000Y30927600D02*
X67717600Y30927600D01*
X67717600Y30927600D02*
X66000000Y29210000D01*
X77470000Y30927600D02*
X77470000Y31750000D01*
X40640000Y29210000D02*
X63500000Y29210000D01*
X34845000Y20915000D02*
X40640000Y15120000D01*
X13440000Y22940000D02*
X14790000Y21590000D01*
X14790000Y21590000D02*
X34170000Y21590000D01*
X34170000Y21590000D02*
X34845000Y20915000D01*
X40640000Y26710000D02*
X34845000Y20915000D01*
X40640000Y29210000D02*
X40640000Y26710000D01*
X10160000Y22940000D02*
X13440000Y22940000D01*
%TO.N,Net-(C1-Pad1)*%
X63500000Y7620000D02*
X40640000Y7620000D01*
X77470000Y7620000D02*
X63500000Y7620000D01*
X85090000Y7620000D02*
X77470000Y7620000D01*
X22860000Y13970000D02*
X25560000Y13970000D01*
X25560000Y13970000D02*
X31910000Y7620000D01*
X31910000Y7620000D02*
X40640000Y7620000D01*
X105410000Y17940000D02*
X105410000Y15650000D01*
X105410000Y15650000D02*
X97380000Y7620000D01*
X97380000Y7620000D02*
X85090000Y7620000D01*
%TO.N,Net-(C2-Pad2)*%
X92710000Y34290000D02*
X94910000Y34290000D01*
X105410000Y27940000D02*
X105410000Y30230000D01*
X105410000Y30230000D02*
X98970000Y30230000D01*
X98970000Y30230000D02*
X94910000Y34290000D01*
X63500000Y36710000D02*
X77430000Y36710000D01*
X77430000Y36710000D02*
X77470000Y36750000D01*
X40640000Y36710000D02*
X63500000Y36710000D01*
X92710000Y34290000D02*
X79930000Y34290000D01*
X79930000Y34290000D02*
X77470000Y36750000D01*
X40640000Y36710000D02*
X30360000Y36710000D01*
X30360000Y36710000D02*
X22860000Y29210000D01*
%TO.N,Net-(D1-Pad3)*%
X10160000Y27940000D02*
X19050000Y27940000D01*
X19050000Y27940000D02*
X22860000Y24130000D01*
%TO.N,Net-(D1-Pad2)*%
X10160000Y17940000D02*
X21750000Y17940000D01*
X21750000Y17940000D02*
X22860000Y19050000D01*
%TO.N,Net-(D2-Pad2)*%
X85090000Y17780000D02*
X87190000Y17780000D01*
X87190000Y17780000D02*
X87190000Y17648700D01*
X87190000Y17648700D02*
X92138700Y12700000D01*
X92138700Y12700000D02*
X92710000Y12700000D01*
%TO.N,Net-(D3-Pad2)*%
X85090000Y36830000D02*
X92710000Y36830000D01*
%TD*%
M02*
