G04 #@! TF.GenerationSoftware,KiCad,Pcbnew,5.1.4-3.fc30*
G04 #@! TF.CreationDate,2019-10-06T04:01:43+02:00*
G04 #@! TF.ProjectId,high_power_sym_supply,68696768-5f70-46f7-9765-725f73796d5f,1.0*
G04 #@! TF.SameCoordinates,Original*
G04 #@! TF.FileFunction,Other,User*
%FSLAX46Y46*%
G04 Gerber Fmt 4.6, Leading zero omitted, Abs format (unit mm)*
G04 Created by KiCad (PCBNEW 5.1.4-3.fc30) date 2019-10-06 04:01:43*
%MOMM*%
%LPD*%
G04 APERTURE LIST*
%ADD10C,0.050000*%
G04 APERTURE END LIST*
D10*
X82190000Y-73660000D02*
G75*
G03X82190000Y-73660000I-3450000J0D01*
G01*
X186330000Y-106680000D02*
G75*
G03X186330000Y-106680000I-3450000J0D01*
G01*
X186330000Y-73660000D02*
G75*
G03X186330000Y-73660000I-3450000J0D01*
G01*
X82190000Y-106680000D02*
G75*
G03X82190000Y-106680000I-3450000J0D01*
G01*
X123550000Y-100390000D02*
G75*
G03X123550000Y-100390000I-9250000J0D01*
G01*
X123550000Y-78800000D02*
G75*
G03X123550000Y-78800000I-9250000J0D01*
G01*
X146410000Y-100390000D02*
G75*
G03X146410000Y-100390000I-9250000J0D01*
G01*
X146410000Y-78800000D02*
G75*
G03X146410000Y-78800000I-9250000J0D01*
G01*
X149630000Y-97890000D02*
X149630000Y-105390000D01*
X152630000Y-97890000D02*
X149630000Y-97890000D01*
X152630000Y-105390000D02*
X152630000Y-97890000D01*
X149630000Y-105390000D02*
X152630000Y-105390000D01*
X149630000Y-81260000D02*
X152630000Y-81260000D01*
X152630000Y-81260000D02*
X152630000Y-73760000D01*
X152630000Y-73760000D02*
X149630000Y-73760000D01*
X149630000Y-73760000D02*
X149630000Y-81260000D01*
X94270000Y-102040000D02*
X94270000Y-78340000D01*
X94270000Y-102040000D02*
X101970000Y-102040000D01*
X101970000Y-78340000D02*
X94270000Y-78340000D01*
X101970000Y-78340000D02*
X101970000Y-102040000D01*
X168620000Y-100220000D02*
X168620000Y-95370000D01*
X164120000Y-100220000D02*
X168620000Y-100220000D01*
X164120000Y-95370000D02*
X164120000Y-100220000D01*
X168620000Y-95370000D02*
X164120000Y-95370000D01*
X164120000Y-78620000D02*
X168620000Y-78620000D01*
X168620000Y-78620000D02*
X168620000Y-73770000D01*
X168620000Y-73770000D02*
X164120000Y-73770000D01*
X164120000Y-73770000D02*
X164120000Y-78620000D01*
X90300000Y-80990000D02*
X90300000Y-97240000D01*
X90300000Y-80990000D02*
X77360000Y-80990000D01*
X77360000Y-97240000D02*
X90300000Y-97240000D01*
X77360000Y-97240000D02*
X77360000Y-80990000D01*
X185530000Y-80400000D02*
X185530000Y-96650000D01*
X185530000Y-80400000D02*
X172590000Y-80400000D01*
X172590000Y-96650000D02*
X185530000Y-96650000D01*
X172590000Y-96650000D02*
X172590000Y-80400000D01*
X157250000Y-92930000D02*
X157250000Y-105190000D01*
X160250000Y-92930000D02*
X157250000Y-92930000D01*
X160250000Y-105190000D02*
X160250000Y-92930000D01*
X157250000Y-105190000D02*
X160250000Y-105190000D01*
X157250000Y-86140000D02*
X160250000Y-86140000D01*
X160250000Y-86140000D02*
X160250000Y-73880000D01*
X160250000Y-73880000D02*
X157250000Y-73880000D01*
X157250000Y-73880000D02*
X157250000Y-86140000D01*
M02*
