%TF.GenerationSoftware,KiCad,Pcbnew,5.1.4-3.fc30*%
%TF.CreationDate,2019-10-13T17:22:03+02:00*%
%TF.ProjectId,high_power_sym_supply,68696768-5f70-46f7-9765-725f73796d5f,1.0*%
%TF.SameCoordinates,PX463f660PY6a95280*%
%TF.FileFunction,Soldermask,Bot*%
%TF.FilePolarity,Negative*%
%FSLAX46Y46*%
G04 Gerber Fmt 4.6, Leading zero omitted, Abs format (unit mm)*
G04 Created by KiCad (PCBNEW 5.1.4-3.fc30) date 2019-10-13 17:22:03*
%MOMM*%
%LPD*%
G04 APERTURE LIST*
%ADD10C,0.150000*%
G04 APERTURE END LIST*
D10*
G36*
X109595256Y6688702D02*
G01*
X109701579Y6667553D01*
X110002042Y6543097D01*
X110272451Y6362415D01*
X110502415Y6132451D01*
X110683097Y5862042D01*
X110807553Y5561579D01*
X110871000Y5242609D01*
X110871000Y4917391D01*
X110807553Y4598421D01*
X110683097Y4297958D01*
X110502415Y4027549D01*
X110272451Y3797585D01*
X110002042Y3616903D01*
X109701579Y3492447D01*
X109595256Y3471298D01*
X109382611Y3429000D01*
X109057389Y3429000D01*
X108844744Y3471298D01*
X108738421Y3492447D01*
X108437958Y3616903D01*
X108167549Y3797585D01*
X107937585Y4027549D01*
X107756903Y4297958D01*
X107632447Y4598421D01*
X107569000Y4917391D01*
X107569000Y5242609D01*
X107632447Y5561579D01*
X107756903Y5862042D01*
X107937585Y6132451D01*
X108167549Y6362415D01*
X108437958Y6543097D01*
X108738421Y6667553D01*
X108844744Y6688702D01*
X109057389Y6731000D01*
X109382611Y6731000D01*
X109595256Y6688702D01*
X109595256Y6688702D01*
G37*
G36*
X5455256Y6688702D02*
G01*
X5561579Y6667553D01*
X5862042Y6543097D01*
X6132451Y6362415D01*
X6362415Y6132451D01*
X6543097Y5862042D01*
X6667553Y5561579D01*
X6731000Y5242609D01*
X6731000Y4917391D01*
X6667553Y4598421D01*
X6543097Y4297958D01*
X6362415Y4027549D01*
X6132451Y3797585D01*
X5862042Y3616903D01*
X5561579Y3492447D01*
X5455256Y3471298D01*
X5242611Y3429000D01*
X4917389Y3429000D01*
X4704744Y3471298D01*
X4598421Y3492447D01*
X4297958Y3616903D01*
X4027549Y3797585D01*
X3797585Y4027549D01*
X3616903Y4297958D01*
X3492447Y4598421D01*
X3429000Y4917391D01*
X3429000Y5242609D01*
X3492447Y5561579D01*
X3616903Y5862042D01*
X3797585Y6132451D01*
X4027549Y6362415D01*
X4297958Y6543097D01*
X4598421Y6667553D01*
X4704744Y6688702D01*
X4917389Y6731000D01*
X5242611Y6731000D01*
X5455256Y6688702D01*
X5455256Y6688702D01*
G37*
G36*
X64751000Y6369000D02*
G01*
X62249000Y6369000D01*
X62249000Y8871000D01*
X64751000Y8871000D01*
X64751000Y6369000D01*
X64751000Y6369000D01*
G37*
G36*
X41891000Y6369000D02*
G01*
X39389000Y6369000D01*
X39389000Y8871000D01*
X41891000Y8871000D01*
X41891000Y6369000D01*
X41891000Y6369000D01*
G37*
G36*
X77718228Y8438297D02*
G01*
X77873100Y8374147D01*
X78012481Y8281015D01*
X78131015Y8162481D01*
X78224147Y8023100D01*
X78288297Y7868228D01*
X78321000Y7703816D01*
X78321000Y7536184D01*
X78288297Y7371772D01*
X78224147Y7216900D01*
X78131015Y7077519D01*
X78012481Y6958985D01*
X77873100Y6865853D01*
X77718228Y6801703D01*
X77553816Y6769000D01*
X77386184Y6769000D01*
X77221772Y6801703D01*
X77066900Y6865853D01*
X76927519Y6958985D01*
X76808985Y7077519D01*
X76715853Y7216900D01*
X76651703Y7371772D01*
X76619000Y7536184D01*
X76619000Y7703816D01*
X76651703Y7868228D01*
X76715853Y8023100D01*
X76808985Y8162481D01*
X76927519Y8281015D01*
X77066900Y8374147D01*
X77221772Y8438297D01*
X77386184Y8471000D01*
X77553816Y8471000D01*
X77718228Y8438297D01*
X77718228Y8438297D01*
G37*
G36*
X85338228Y8438297D02*
G01*
X85493100Y8374147D01*
X85632481Y8281015D01*
X85751015Y8162481D01*
X85844147Y8023100D01*
X85908297Y7868228D01*
X85941000Y7703816D01*
X85941000Y7536184D01*
X85908297Y7371772D01*
X85844147Y7216900D01*
X85751015Y7077519D01*
X85632481Y6958985D01*
X85493100Y6865853D01*
X85338228Y6801703D01*
X85173816Y6769000D01*
X85006184Y6769000D01*
X84841772Y6801703D01*
X84686900Y6865853D01*
X84547519Y6958985D01*
X84428985Y7077519D01*
X84335853Y7216900D01*
X84271703Y7371772D01*
X84239000Y7536184D01*
X84239000Y7703816D01*
X84271703Y7868228D01*
X84335853Y8023100D01*
X84428985Y8162481D01*
X84547519Y8281015D01*
X84686900Y8374147D01*
X84841772Y8438297D01*
X85006184Y8471000D01*
X85173816Y8471000D01*
X85338228Y8438297D01*
X85338228Y8438297D01*
G37*
G36*
X92987395Y13614454D02*
G01*
X93160466Y13542766D01*
X93160467Y13542765D01*
X93316227Y13438690D01*
X93448690Y13306227D01*
X93448691Y13306225D01*
X93552766Y13150466D01*
X93624454Y12977395D01*
X93661000Y12793667D01*
X93661000Y12606333D01*
X93624454Y12422605D01*
X93552766Y12249534D01*
X93501081Y12172182D01*
X93448690Y12093773D01*
X93316227Y11961310D01*
X93312747Y11958985D01*
X93160466Y11857234D01*
X92987395Y11785546D01*
X92803667Y11749000D01*
X92616333Y11749000D01*
X92432605Y11785546D01*
X92259534Y11857234D01*
X92107253Y11958985D01*
X92103773Y11961310D01*
X91971310Y12093773D01*
X91918919Y12172182D01*
X91867234Y12249534D01*
X91795546Y12422605D01*
X91759000Y12606333D01*
X91759000Y12793667D01*
X91795546Y12977395D01*
X91867234Y13150466D01*
X91971309Y13306225D01*
X91971310Y13306227D01*
X92103773Y13438690D01*
X92259533Y13542765D01*
X92259534Y13542766D01*
X92432605Y13614454D01*
X92616333Y13651000D01*
X92803667Y13651000D01*
X92987395Y13614454D01*
X92987395Y13614454D01*
G37*
G36*
X77718228Y13438297D02*
G01*
X77873100Y13374147D01*
X78012481Y13281015D01*
X78131015Y13162481D01*
X78224147Y13023100D01*
X78288297Y12868228D01*
X78321000Y12703816D01*
X78321000Y12536184D01*
X78288297Y12371772D01*
X78224147Y12216900D01*
X78131015Y12077519D01*
X78012481Y11958985D01*
X77873100Y11865853D01*
X77718228Y11801703D01*
X77553816Y11769000D01*
X77386184Y11769000D01*
X77221772Y11801703D01*
X77066900Y11865853D01*
X76927519Y11958985D01*
X76808985Y12077519D01*
X76715853Y12216900D01*
X76651703Y12371772D01*
X76619000Y12536184D01*
X76619000Y12703816D01*
X76651703Y12868228D01*
X76715853Y13023100D01*
X76808985Y13162481D01*
X76927519Y13281015D01*
X77066900Y13374147D01*
X77221772Y13438297D01*
X77386184Y13471000D01*
X77553816Y13471000D01*
X77718228Y13438297D01*
X77718228Y13438297D01*
G37*
G36*
X24311000Y12519000D02*
G01*
X21409000Y12519000D01*
X21409000Y15421000D01*
X24311000Y15421000D01*
X24311000Y12519000D01*
X24311000Y12519000D01*
G37*
G36*
X63864903Y16322925D02*
G01*
X64092571Y16228622D01*
X64297466Y16091715D01*
X64471715Y15917466D01*
X64608622Y15712571D01*
X64702925Y15484903D01*
X64751000Y15243213D01*
X64751000Y14996787D01*
X64702925Y14755097D01*
X64608622Y14527429D01*
X64471715Y14322534D01*
X64297466Y14148285D01*
X64092571Y14011378D01*
X64092570Y14011377D01*
X64092569Y14011377D01*
X63864903Y13917075D01*
X63623214Y13869000D01*
X63376786Y13869000D01*
X63135097Y13917075D01*
X62907431Y14011377D01*
X62907430Y14011377D01*
X62907429Y14011378D01*
X62702534Y14148285D01*
X62528285Y14322534D01*
X62391378Y14527429D01*
X62297075Y14755097D01*
X62249000Y14996787D01*
X62249000Y15243213D01*
X62297075Y15484903D01*
X62391378Y15712571D01*
X62528285Y15917466D01*
X62702534Y16091715D01*
X62907429Y16228622D01*
X63135097Y16322925D01*
X63376786Y16371000D01*
X63623214Y16371000D01*
X63864903Y16322925D01*
X63864903Y16322925D01*
G37*
G36*
X41004903Y16322925D02*
G01*
X41232571Y16228622D01*
X41437466Y16091715D01*
X41611715Y15917466D01*
X41748622Y15712571D01*
X41842925Y15484903D01*
X41891000Y15243213D01*
X41891000Y14996787D01*
X41842925Y14755097D01*
X41748622Y14527429D01*
X41611715Y14322534D01*
X41437466Y14148285D01*
X41232571Y14011378D01*
X41232570Y14011377D01*
X41232569Y14011377D01*
X41004903Y13917075D01*
X40763214Y13869000D01*
X40516786Y13869000D01*
X40275097Y13917075D01*
X40047431Y14011377D01*
X40047430Y14011377D01*
X40047429Y14011378D01*
X39842534Y14148285D01*
X39668285Y14322534D01*
X39531378Y14527429D01*
X39437075Y14755097D01*
X39389000Y14996787D01*
X39389000Y15243213D01*
X39437075Y15484903D01*
X39531378Y15712571D01*
X39668285Y15917466D01*
X39842534Y16091715D01*
X40047429Y16228622D01*
X40275097Y16322925D01*
X40516786Y16371000D01*
X40763214Y16371000D01*
X41004903Y16322925D01*
X41004903Y16322925D01*
G37*
G36*
X93661000Y14289000D02*
G01*
X91759000Y14289000D01*
X91759000Y16191000D01*
X93661000Y16191000D01*
X93661000Y14289000D01*
X93661000Y14289000D01*
G37*
G36*
X107441000Y16899000D02*
G01*
X103379000Y16899000D01*
X103379000Y18981000D01*
X107441000Y18981000D01*
X107441000Y16899000D01*
X107441000Y16899000D01*
G37*
G36*
X11252112Y18975979D02*
G01*
X11354072Y18965937D01*
X11550301Y18906411D01*
X11550303Y18906410D01*
X11731145Y18809748D01*
X11889660Y18679660D01*
X12019748Y18521145D01*
X12092701Y18384659D01*
X12116411Y18340301D01*
X12175937Y18144072D01*
X12196036Y17940000D01*
X12175937Y17735928D01*
X12116411Y17539699D01*
X12116410Y17539697D01*
X12019748Y17358855D01*
X11889660Y17200340D01*
X11731145Y17070252D01*
X11580959Y16989976D01*
X11550301Y16973589D01*
X11354072Y16914063D01*
X11252112Y16904021D01*
X11201133Y16899000D01*
X9118867Y16899000D01*
X9067888Y16904021D01*
X8965928Y16914063D01*
X8769699Y16973589D01*
X8739041Y16989976D01*
X8588855Y17070252D01*
X8430340Y17200340D01*
X8300252Y17358855D01*
X8203590Y17539697D01*
X8203589Y17539699D01*
X8144063Y17735928D01*
X8123964Y17940000D01*
X8144063Y18144072D01*
X8203589Y18340301D01*
X8227299Y18384659D01*
X8300252Y18521145D01*
X8430340Y18679660D01*
X8588855Y18809748D01*
X8769697Y18906410D01*
X8769699Y18906411D01*
X8965928Y18965937D01*
X9067888Y18975979D01*
X9118867Y18981000D01*
X11201133Y18981000D01*
X11252112Y18975979D01*
X11252112Y18975979D01*
G37*
G36*
X85256823Y18618687D02*
G01*
X85417242Y18570024D01*
X85508686Y18521146D01*
X85565078Y18491004D01*
X85694659Y18384659D01*
X85801004Y18255078D01*
X85801005Y18255076D01*
X85880024Y18107242D01*
X85928687Y17946823D01*
X85945117Y17780000D01*
X85928687Y17613177D01*
X85880024Y17452758D01*
X85829832Y17358855D01*
X85801004Y17304922D01*
X85694659Y17175341D01*
X85565078Y17068996D01*
X85565076Y17068995D01*
X85417242Y16989976D01*
X85256823Y16941313D01*
X85131804Y16929000D01*
X85048196Y16929000D01*
X84923177Y16941313D01*
X84762758Y16989976D01*
X84614924Y17068995D01*
X84614922Y17068996D01*
X84485341Y17175341D01*
X84378996Y17304922D01*
X84350168Y17358855D01*
X84299976Y17452758D01*
X84251313Y17613177D01*
X84234883Y17780000D01*
X84251313Y17946823D01*
X84299976Y18107242D01*
X84378995Y18255076D01*
X84378996Y18255078D01*
X84485341Y18384659D01*
X84614922Y18491004D01*
X84671314Y18521146D01*
X84762758Y18570024D01*
X84923177Y18618687D01*
X85048196Y18631000D01*
X85131804Y18631000D01*
X85256823Y18618687D01*
X85256823Y18618687D01*
G37*
G36*
X23283241Y20445240D02*
G01*
X23547305Y20335861D01*
X23784958Y20177066D01*
X23987066Y19974958D01*
X24145861Y19737305D01*
X24255240Y19473241D01*
X24311000Y19192912D01*
X24311000Y18907088D01*
X24255240Y18626759D01*
X24145861Y18362695D01*
X23987066Y18125042D01*
X23784958Y17922934D01*
X23547305Y17764139D01*
X23283241Y17654760D01*
X23002912Y17599000D01*
X22717088Y17599000D01*
X22436759Y17654760D01*
X22172695Y17764139D01*
X21935042Y17922934D01*
X21732934Y18125042D01*
X21574139Y18362695D01*
X21464760Y18626759D01*
X21409000Y18907088D01*
X21409000Y19192912D01*
X21464760Y19473241D01*
X21574139Y19737305D01*
X21732934Y19974958D01*
X21935042Y20177066D01*
X22172695Y20335861D01*
X22436759Y20445240D01*
X22717088Y20501000D01*
X23002912Y20501000D01*
X23283241Y20445240D01*
X23283241Y20445240D01*
G37*
G36*
X106502112Y23975979D02*
G01*
X106604072Y23965937D01*
X106800301Y23906411D01*
X106800303Y23906410D01*
X106981145Y23809748D01*
X107139660Y23679660D01*
X107269747Y23521146D01*
X107366411Y23340301D01*
X107425937Y23144072D01*
X107446036Y22940000D01*
X107425937Y22735928D01*
X107366411Y22539699D01*
X107366410Y22539697D01*
X107269748Y22358855D01*
X107139660Y22200340D01*
X106981145Y22070252D01*
X106800303Y21973590D01*
X106800301Y21973589D01*
X106604072Y21914063D01*
X106502112Y21904021D01*
X106451133Y21899000D01*
X104368867Y21899000D01*
X104317888Y21904021D01*
X104215928Y21914063D01*
X104019699Y21973589D01*
X104019697Y21973590D01*
X103838855Y22070252D01*
X103680340Y22200340D01*
X103550252Y22358855D01*
X103453590Y22539697D01*
X103453589Y22539699D01*
X103394063Y22735928D01*
X103373964Y22940000D01*
X103394063Y23144072D01*
X103453589Y23340301D01*
X103550253Y23521146D01*
X103680340Y23679660D01*
X103838855Y23809748D01*
X104019697Y23906410D01*
X104019699Y23906411D01*
X104215928Y23965937D01*
X104317888Y23975979D01*
X104368867Y23981000D01*
X106451133Y23981000D01*
X106502112Y23975979D01*
X106502112Y23975979D01*
G37*
G36*
X11252112Y23975979D02*
G01*
X11354072Y23965937D01*
X11550301Y23906411D01*
X11550303Y23906410D01*
X11731145Y23809748D01*
X11889660Y23679660D01*
X12019747Y23521146D01*
X12116411Y23340301D01*
X12175937Y23144072D01*
X12196036Y22940000D01*
X12175937Y22735928D01*
X12116411Y22539699D01*
X12116410Y22539697D01*
X12019748Y22358855D01*
X11889660Y22200340D01*
X11731145Y22070252D01*
X11550303Y21973590D01*
X11550301Y21973589D01*
X11354072Y21914063D01*
X11252112Y21904021D01*
X11201133Y21899000D01*
X9118867Y21899000D01*
X9067888Y21904021D01*
X8965928Y21914063D01*
X8769699Y21973589D01*
X8769697Y21973590D01*
X8588855Y22070252D01*
X8430340Y22200340D01*
X8300252Y22358855D01*
X8203590Y22539697D01*
X8203589Y22539699D01*
X8144063Y22735928D01*
X8123964Y22940000D01*
X8144063Y23144072D01*
X8203589Y23340301D01*
X8300253Y23521146D01*
X8430340Y23679660D01*
X8588855Y23809748D01*
X8769697Y23906410D01*
X8769699Y23906411D01*
X8965928Y23965937D01*
X9067888Y23975979D01*
X9118867Y23981000D01*
X11201133Y23981000D01*
X11252112Y23975979D01*
X11252112Y23975979D01*
G37*
G36*
X23283241Y25525240D02*
G01*
X23547305Y25415861D01*
X23784958Y25257066D01*
X23987066Y25054958D01*
X24145861Y24817305D01*
X24255240Y24553241D01*
X24311000Y24272912D01*
X24311000Y23987088D01*
X24255240Y23706759D01*
X24145861Y23442695D01*
X23987066Y23205042D01*
X23784958Y23002934D01*
X23547305Y22844139D01*
X23283241Y22734760D01*
X23002912Y22679000D01*
X22717088Y22679000D01*
X22436759Y22734760D01*
X22172695Y22844139D01*
X21935042Y23002934D01*
X21732934Y23205042D01*
X21574139Y23442695D01*
X21464760Y23706759D01*
X21409000Y23987088D01*
X21409000Y24272912D01*
X21464760Y24553241D01*
X21574139Y24817305D01*
X21732934Y25054958D01*
X21935042Y25257066D01*
X22172695Y25415861D01*
X22436759Y25525240D01*
X22717088Y25581000D01*
X23002912Y25581000D01*
X23283241Y25525240D01*
X23283241Y25525240D01*
G37*
G36*
X85338228Y27488297D02*
G01*
X85493100Y27424147D01*
X85632481Y27331015D01*
X85751015Y27212481D01*
X85844147Y27073100D01*
X85908297Y26918228D01*
X85941000Y26753816D01*
X85941000Y26586184D01*
X85908297Y26421772D01*
X85844147Y26266900D01*
X85751015Y26127519D01*
X85632481Y26008985D01*
X85493100Y25915853D01*
X85338228Y25851703D01*
X85173816Y25819000D01*
X85006184Y25819000D01*
X84841772Y25851703D01*
X84686900Y25915853D01*
X84547519Y26008985D01*
X84428985Y26127519D01*
X84335853Y26266900D01*
X84271703Y26421772D01*
X84239000Y26586184D01*
X84239000Y26753816D01*
X84271703Y26918228D01*
X84335853Y27073100D01*
X84428985Y27212481D01*
X84547519Y27331015D01*
X84686900Y27424147D01*
X84841772Y27488297D01*
X85006184Y27521000D01*
X85173816Y27521000D01*
X85338228Y27488297D01*
X85338228Y27488297D01*
G37*
G36*
X106502112Y28975979D02*
G01*
X106604072Y28965937D01*
X106800301Y28906411D01*
X106800303Y28906410D01*
X106981145Y28809748D01*
X107139660Y28679660D01*
X107268476Y28522695D01*
X107269747Y28521146D01*
X107366411Y28340301D01*
X107425937Y28144072D01*
X107446036Y27940000D01*
X107425937Y27735928D01*
X107366411Y27539699D01*
X107366410Y27539697D01*
X107269748Y27358855D01*
X107139660Y27200340D01*
X106981145Y27070252D01*
X106800303Y26973590D01*
X106800301Y26973589D01*
X106604072Y26914063D01*
X106502112Y26904021D01*
X106451133Y26899000D01*
X104368867Y26899000D01*
X104317888Y26904021D01*
X104215928Y26914063D01*
X104019699Y26973589D01*
X104019697Y26973590D01*
X103838855Y27070252D01*
X103680340Y27200340D01*
X103550252Y27358855D01*
X103453590Y27539697D01*
X103453589Y27539699D01*
X103394063Y27735928D01*
X103373964Y27940000D01*
X103394063Y28144072D01*
X103453589Y28340301D01*
X103550253Y28521146D01*
X103551524Y28522695D01*
X103680340Y28679660D01*
X103838855Y28809748D01*
X104019697Y28906410D01*
X104019699Y28906411D01*
X104215928Y28965937D01*
X104317888Y28975979D01*
X104368867Y28981000D01*
X106451133Y28981000D01*
X106502112Y28975979D01*
X106502112Y28975979D01*
G37*
G36*
X12191000Y26899000D02*
G01*
X8129000Y26899000D01*
X8129000Y28981000D01*
X12191000Y28981000D01*
X12191000Y26899000D01*
X12191000Y26899000D01*
G37*
G36*
X23283241Y30605240D02*
G01*
X23547305Y30495861D01*
X23784958Y30337066D01*
X23987066Y30134958D01*
X24145861Y29897305D01*
X24255240Y29633241D01*
X24311000Y29352912D01*
X24311000Y29067088D01*
X24255240Y28786759D01*
X24145861Y28522695D01*
X23987066Y28285042D01*
X23784958Y28082934D01*
X23547305Y27924139D01*
X23283241Y27814760D01*
X23002912Y27759000D01*
X22717088Y27759000D01*
X22436759Y27814760D01*
X22172695Y27924139D01*
X21935042Y28082934D01*
X21732934Y28285042D01*
X21574139Y28522695D01*
X21464760Y28786759D01*
X21409000Y29067088D01*
X21409000Y29352912D01*
X21464760Y29633241D01*
X21574139Y29897305D01*
X21732934Y30134958D01*
X21935042Y30337066D01*
X22172695Y30495861D01*
X22436759Y30605240D01*
X22717088Y30661000D01*
X23002912Y30661000D01*
X23283241Y30605240D01*
X23283241Y30605240D01*
G37*
G36*
X41891000Y27959000D02*
G01*
X39389000Y27959000D01*
X39389000Y30461000D01*
X41891000Y30461000D01*
X41891000Y27959000D01*
X41891000Y27959000D01*
G37*
G36*
X64751000Y27959000D02*
G01*
X62249000Y27959000D01*
X62249000Y30461000D01*
X64751000Y30461000D01*
X64751000Y27959000D01*
X64751000Y27959000D01*
G37*
G36*
X77718228Y32568297D02*
G01*
X77873100Y32504147D01*
X78012481Y32411015D01*
X78131015Y32292481D01*
X78224147Y32153100D01*
X78288297Y31998228D01*
X78321000Y31833816D01*
X78321000Y31666184D01*
X78288297Y31501772D01*
X78224147Y31346900D01*
X78131015Y31207519D01*
X78012481Y31088985D01*
X77873100Y30995853D01*
X77718228Y30931703D01*
X77553816Y30899000D01*
X77386184Y30899000D01*
X77221772Y30931703D01*
X77066900Y30995853D01*
X76927519Y31088985D01*
X76808985Y31207519D01*
X76715853Y31346900D01*
X76651703Y31501772D01*
X76619000Y31666184D01*
X76619000Y31833816D01*
X76651703Y31998228D01*
X76715853Y32153100D01*
X76808985Y32292481D01*
X76927519Y32411015D01*
X77066900Y32504147D01*
X77221772Y32568297D01*
X77386184Y32601000D01*
X77553816Y32601000D01*
X77718228Y32568297D01*
X77718228Y32568297D01*
G37*
G36*
X93661000Y33339000D02*
G01*
X91759000Y33339000D01*
X91759000Y35241000D01*
X93661000Y35241000D01*
X93661000Y33339000D01*
X93661000Y33339000D01*
G37*
G36*
X63741904Y37937391D02*
G01*
X63864903Y37912925D01*
X64092571Y37818622D01*
X64297466Y37681715D01*
X64471715Y37507466D01*
X64606947Y37305078D01*
X64608623Y37302569D01*
X64702925Y37074903D01*
X64751000Y36833214D01*
X64751000Y36586786D01*
X64702925Y36345097D01*
X64645939Y36207519D01*
X64608622Y36117429D01*
X64471715Y35912534D01*
X64297466Y35738285D01*
X64092571Y35601378D01*
X64092570Y35601377D01*
X64092569Y35601377D01*
X63864903Y35507075D01*
X63623214Y35459000D01*
X63376786Y35459000D01*
X63135097Y35507075D01*
X62907431Y35601377D01*
X62907430Y35601377D01*
X62907429Y35601378D01*
X62702534Y35738285D01*
X62528285Y35912534D01*
X62391378Y36117429D01*
X62354062Y36207519D01*
X62297075Y36345097D01*
X62249000Y36586786D01*
X62249000Y36833214D01*
X62297075Y37074903D01*
X62391377Y37302569D01*
X62393053Y37305078D01*
X62528285Y37507466D01*
X62702534Y37681715D01*
X62907429Y37818622D01*
X63135097Y37912925D01*
X63258096Y37937391D01*
X63376786Y37961000D01*
X63623214Y37961000D01*
X63741904Y37937391D01*
X63741904Y37937391D01*
G37*
G36*
X40881904Y37937391D02*
G01*
X41004903Y37912925D01*
X41232571Y37818622D01*
X41437466Y37681715D01*
X41611715Y37507466D01*
X41746947Y37305078D01*
X41748623Y37302569D01*
X41842925Y37074903D01*
X41891000Y36833214D01*
X41891000Y36586786D01*
X41842925Y36345097D01*
X41785939Y36207519D01*
X41748622Y36117429D01*
X41611715Y35912534D01*
X41437466Y35738285D01*
X41232571Y35601378D01*
X41232570Y35601377D01*
X41232569Y35601377D01*
X41004903Y35507075D01*
X40763214Y35459000D01*
X40516786Y35459000D01*
X40275097Y35507075D01*
X40047431Y35601377D01*
X40047430Y35601377D01*
X40047429Y35601378D01*
X39842534Y35738285D01*
X39668285Y35912534D01*
X39531378Y36117429D01*
X39494062Y36207519D01*
X39437075Y36345097D01*
X39389000Y36586786D01*
X39389000Y36833214D01*
X39437075Y37074903D01*
X39531377Y37302569D01*
X39533053Y37305078D01*
X39668285Y37507466D01*
X39842534Y37681715D01*
X40047429Y37818622D01*
X40275097Y37912925D01*
X40398096Y37937391D01*
X40516786Y37961000D01*
X40763214Y37961000D01*
X40881904Y37937391D01*
X40881904Y37937391D01*
G37*
G36*
X92987395Y37744454D02*
G01*
X93160466Y37672766D01*
X93166572Y37668686D01*
X93316227Y37568690D01*
X93448690Y37436227D01*
X93465536Y37411015D01*
X93552766Y37280466D01*
X93624454Y37107395D01*
X93661000Y36923667D01*
X93661000Y36736333D01*
X93624454Y36552605D01*
X93552766Y36379534D01*
X93529756Y36345097D01*
X93448690Y36223773D01*
X93316227Y36091310D01*
X93312747Y36088985D01*
X93160466Y35987234D01*
X92987395Y35915546D01*
X92803667Y35879000D01*
X92616333Y35879000D01*
X92432605Y35915546D01*
X92259534Y35987234D01*
X92107253Y36088985D01*
X92103773Y36091310D01*
X91971310Y36223773D01*
X91890244Y36345097D01*
X91867234Y36379534D01*
X91795546Y36552605D01*
X91759000Y36736333D01*
X91759000Y36923667D01*
X91795546Y37107395D01*
X91867234Y37280466D01*
X91954464Y37411015D01*
X91971310Y37436227D01*
X92103773Y37568690D01*
X92253428Y37668686D01*
X92259534Y37672766D01*
X92432605Y37744454D01*
X92616333Y37781000D01*
X92803667Y37781000D01*
X92987395Y37744454D01*
X92987395Y37744454D01*
G37*
G36*
X77718228Y37568297D02*
G01*
X77873100Y37504147D01*
X78012481Y37411015D01*
X78131015Y37292481D01*
X78224147Y37153100D01*
X78288297Y36998228D01*
X78321000Y36833816D01*
X78321000Y36666184D01*
X78288297Y36501772D01*
X78224147Y36346900D01*
X78131015Y36207519D01*
X78012481Y36088985D01*
X77873100Y35995853D01*
X77718228Y35931703D01*
X77553816Y35899000D01*
X77386184Y35899000D01*
X77221772Y35931703D01*
X77066900Y35995853D01*
X76927519Y36088985D01*
X76808985Y36207519D01*
X76715853Y36346900D01*
X76651703Y36501772D01*
X76619000Y36666184D01*
X76619000Y36833816D01*
X76651703Y36998228D01*
X76715853Y37153100D01*
X76808985Y37292481D01*
X76927519Y37411015D01*
X77066900Y37504147D01*
X77221772Y37568297D01*
X77386184Y37601000D01*
X77553816Y37601000D01*
X77718228Y37568297D01*
X77718228Y37568297D01*
G37*
G36*
X85256823Y37668687D02*
G01*
X85417242Y37620024D01*
X85452833Y37601000D01*
X85565078Y37541004D01*
X85694659Y37434659D01*
X85801004Y37305078D01*
X85801005Y37305076D01*
X85880024Y37157242D01*
X85880025Y37157239D01*
X85881281Y37153097D01*
X85928687Y36996823D01*
X85945117Y36830000D01*
X85928687Y36663177D01*
X85880024Y36502758D01*
X85814159Y36379534D01*
X85801004Y36354922D01*
X85694659Y36225341D01*
X85565078Y36118996D01*
X85565076Y36118995D01*
X85417242Y36039976D01*
X85256823Y35991313D01*
X85131804Y35979000D01*
X85048196Y35979000D01*
X84923177Y35991313D01*
X84762758Y36039976D01*
X84614924Y36118995D01*
X84614922Y36118996D01*
X84485341Y36225341D01*
X84378996Y36354922D01*
X84365841Y36379534D01*
X84299976Y36502758D01*
X84251313Y36663177D01*
X84234883Y36830000D01*
X84251313Y36996823D01*
X84298719Y37153097D01*
X84299975Y37157239D01*
X84299976Y37157242D01*
X84378995Y37305076D01*
X84378996Y37305078D01*
X84485341Y37434659D01*
X84614922Y37541004D01*
X84727167Y37601000D01*
X84762758Y37620024D01*
X84923177Y37668687D01*
X85048196Y37681000D01*
X85131804Y37681000D01*
X85256823Y37668687D01*
X85256823Y37668687D01*
G37*
G36*
X109595256Y39708702D02*
G01*
X109701579Y39687553D01*
X110002042Y39563097D01*
X110272451Y39382415D01*
X110502415Y39152451D01*
X110502416Y39152449D01*
X110683098Y38882040D01*
X110807553Y38581578D01*
X110871000Y38262611D01*
X110871000Y37937389D01*
X110832622Y37744453D01*
X110807553Y37618421D01*
X110683097Y37317958D01*
X110502415Y37047549D01*
X110272451Y36817585D01*
X110002042Y36636903D01*
X109701579Y36512447D01*
X109652884Y36502761D01*
X109382611Y36449000D01*
X109057389Y36449000D01*
X108787116Y36502761D01*
X108738421Y36512447D01*
X108437958Y36636903D01*
X108167549Y36817585D01*
X107937585Y37047549D01*
X107756903Y37317958D01*
X107632447Y37618421D01*
X107607378Y37744453D01*
X107569000Y37937389D01*
X107569000Y38262611D01*
X107632447Y38581578D01*
X107756902Y38882040D01*
X107937584Y39152449D01*
X107937585Y39152451D01*
X108167549Y39382415D01*
X108437958Y39563097D01*
X108738421Y39687553D01*
X108844744Y39708702D01*
X109057389Y39751000D01*
X109382611Y39751000D01*
X109595256Y39708702D01*
X109595256Y39708702D01*
G37*
G36*
X5455256Y39708702D02*
G01*
X5561579Y39687553D01*
X5862042Y39563097D01*
X6132451Y39382415D01*
X6362415Y39152451D01*
X6362416Y39152449D01*
X6543098Y38882040D01*
X6667553Y38581578D01*
X6731000Y38262611D01*
X6731000Y37937389D01*
X6692622Y37744453D01*
X6667553Y37618421D01*
X6543097Y37317958D01*
X6362415Y37047549D01*
X6132451Y36817585D01*
X5862042Y36636903D01*
X5561579Y36512447D01*
X5512884Y36502761D01*
X5242611Y36449000D01*
X4917389Y36449000D01*
X4647116Y36502761D01*
X4598421Y36512447D01*
X4297958Y36636903D01*
X4027549Y36817585D01*
X3797585Y37047549D01*
X3616903Y37317958D01*
X3492447Y37618421D01*
X3467378Y37744453D01*
X3429000Y37937389D01*
X3429000Y38262611D01*
X3492447Y38581578D01*
X3616902Y38882040D01*
X3797584Y39152449D01*
X3797585Y39152451D01*
X4027549Y39382415D01*
X4297958Y39563097D01*
X4598421Y39687553D01*
X4704744Y39708702D01*
X4917389Y39751000D01*
X5242611Y39751000D01*
X5455256Y39708702D01*
X5455256Y39708702D01*
G37*
M02*
