G04 #@! TF.GenerationSoftware,KiCad,Pcbnew,5.1.4-3.fc30*
G04 #@! TF.CreationDate,2019-10-05T18:17:08+02:00*
G04 #@! TF.ProjectId,high_power_sym_supply,68696768-5f70-46f7-9765-725f73796d5f,1.0*
G04 #@! TF.SameCoordinates,Original*
G04 #@! TF.FileFunction,Legend,Top*
G04 #@! TF.FilePolarity,Positive*
%FSLAX46Y46*%
G04 Gerber Fmt 4.6, Leading zero omitted, Abs format (unit mm)*
G04 Created by KiCad (PCBNEW 5.1.4-3.fc30) date 2019-10-05 18:17:08*
%MOMM*%
%LPD*%
G04 APERTURE LIST*
%ADD10C,0.150000*%
%ADD11C,0.300000*%
%ADD12C,0.500000*%
%ADD13C,0.400000*%
%ADD14C,0.120000*%
G04 APERTURE END LIST*
D10*
X108952142Y-89987380D02*
X108952142Y-88987380D01*
X109380714Y-89987380D02*
X109380714Y-89463571D01*
X109333095Y-89368333D01*
X109237857Y-89320714D01*
X109095000Y-89320714D01*
X108999761Y-89368333D01*
X108952142Y-89415952D01*
X109714047Y-89320714D02*
X110095000Y-89320714D01*
X109856904Y-88987380D02*
X109856904Y-89844523D01*
X109904523Y-89939761D01*
X109999761Y-89987380D01*
X110095000Y-89987380D01*
X110285476Y-89320714D02*
X110666428Y-89320714D01*
X110428333Y-88987380D02*
X110428333Y-89844523D01*
X110475952Y-89939761D01*
X110571190Y-89987380D01*
X110666428Y-89987380D01*
X110999761Y-89320714D02*
X110999761Y-90320714D01*
X110999761Y-89368333D02*
X111095000Y-89320714D01*
X111285476Y-89320714D01*
X111380714Y-89368333D01*
X111428333Y-89415952D01*
X111475952Y-89511190D01*
X111475952Y-89796904D01*
X111428333Y-89892142D01*
X111380714Y-89939761D01*
X111285476Y-89987380D01*
X111095000Y-89987380D01*
X110999761Y-89939761D01*
X111856904Y-89939761D02*
X111952142Y-89987380D01*
X112142619Y-89987380D01*
X112237857Y-89939761D01*
X112285476Y-89844523D01*
X112285476Y-89796904D01*
X112237857Y-89701666D01*
X112142619Y-89654047D01*
X111999761Y-89654047D01*
X111904523Y-89606428D01*
X111856904Y-89511190D01*
X111856904Y-89463571D01*
X111904523Y-89368333D01*
X111999761Y-89320714D01*
X112142619Y-89320714D01*
X112237857Y-89368333D01*
X112714047Y-89892142D02*
X112761666Y-89939761D01*
X112714047Y-89987380D01*
X112666428Y-89939761D01*
X112714047Y-89892142D01*
X112714047Y-89987380D01*
X112714047Y-89368333D02*
X112761666Y-89415952D01*
X112714047Y-89463571D01*
X112666428Y-89415952D01*
X112714047Y-89368333D01*
X112714047Y-89463571D01*
X113904523Y-88939761D02*
X113047380Y-90225476D01*
X114952142Y-88939761D02*
X114095000Y-90225476D01*
X115714047Y-89320714D02*
X115714047Y-90130238D01*
X115666428Y-90225476D01*
X115618809Y-90273095D01*
X115523571Y-90320714D01*
X115380714Y-90320714D01*
X115285476Y-90273095D01*
X115714047Y-89939761D02*
X115618809Y-89987380D01*
X115428333Y-89987380D01*
X115333095Y-89939761D01*
X115285476Y-89892142D01*
X115237857Y-89796904D01*
X115237857Y-89511190D01*
X115285476Y-89415952D01*
X115333095Y-89368333D01*
X115428333Y-89320714D01*
X115618809Y-89320714D01*
X115714047Y-89368333D01*
X116190238Y-89987380D02*
X116190238Y-89320714D01*
X116190238Y-88987380D02*
X116142619Y-89035000D01*
X116190238Y-89082619D01*
X116237857Y-89035000D01*
X116190238Y-88987380D01*
X116190238Y-89082619D01*
X116523571Y-89320714D02*
X116904523Y-89320714D01*
X116666428Y-88987380D02*
X116666428Y-89844523D01*
X116714047Y-89939761D01*
X116809285Y-89987380D01*
X116904523Y-89987380D01*
X117237857Y-89987380D02*
X117237857Y-88987380D01*
X117666428Y-89987380D02*
X117666428Y-89463571D01*
X117618809Y-89368333D01*
X117523571Y-89320714D01*
X117380714Y-89320714D01*
X117285476Y-89368333D01*
X117237857Y-89415952D01*
X118571190Y-89320714D02*
X118571190Y-89987380D01*
X118142619Y-89320714D02*
X118142619Y-89844523D01*
X118190238Y-89939761D01*
X118285476Y-89987380D01*
X118428333Y-89987380D01*
X118523571Y-89939761D01*
X118571190Y-89892142D01*
X119047380Y-89987380D02*
X119047380Y-88987380D01*
X119047380Y-89368333D02*
X119142619Y-89320714D01*
X119333095Y-89320714D01*
X119428333Y-89368333D01*
X119475952Y-89415952D01*
X119523571Y-89511190D01*
X119523571Y-89796904D01*
X119475952Y-89892142D01*
X119428333Y-89939761D01*
X119333095Y-89987380D01*
X119142619Y-89987380D01*
X119047380Y-89939761D01*
X119952142Y-89892142D02*
X119999761Y-89939761D01*
X119952142Y-89987380D01*
X119904523Y-89939761D01*
X119952142Y-89892142D01*
X119952142Y-89987380D01*
X120856904Y-89939761D02*
X120761666Y-89987380D01*
X120571190Y-89987380D01*
X120475952Y-89939761D01*
X120428333Y-89892142D01*
X120380714Y-89796904D01*
X120380714Y-89511190D01*
X120428333Y-89415952D01*
X120475952Y-89368333D01*
X120571190Y-89320714D01*
X120761666Y-89320714D01*
X120856904Y-89368333D01*
X121428333Y-89987380D02*
X121333095Y-89939761D01*
X121285476Y-89892142D01*
X121237857Y-89796904D01*
X121237857Y-89511190D01*
X121285476Y-89415952D01*
X121333095Y-89368333D01*
X121428333Y-89320714D01*
X121571190Y-89320714D01*
X121666428Y-89368333D01*
X121714047Y-89415952D01*
X121761666Y-89511190D01*
X121761666Y-89796904D01*
X121714047Y-89892142D01*
X121666428Y-89939761D01*
X121571190Y-89987380D01*
X121428333Y-89987380D01*
X122190238Y-89987380D02*
X122190238Y-89320714D01*
X122190238Y-89415952D02*
X122237857Y-89368333D01*
X122333095Y-89320714D01*
X122475952Y-89320714D01*
X122571190Y-89368333D01*
X122618809Y-89463571D01*
X122618809Y-89987380D01*
X122618809Y-89463571D02*
X122666428Y-89368333D01*
X122761666Y-89320714D01*
X122904523Y-89320714D01*
X122999761Y-89368333D01*
X123047380Y-89463571D01*
X123047380Y-89987380D01*
X124237857Y-88939761D02*
X123380714Y-90225476D01*
X124571190Y-89987380D02*
X124571190Y-89320714D01*
X124571190Y-89415952D02*
X124618809Y-89368333D01*
X124714047Y-89320714D01*
X124856904Y-89320714D01*
X124952142Y-89368333D01*
X124999761Y-89463571D01*
X124999761Y-89987380D01*
X124999761Y-89463571D02*
X125047380Y-89368333D01*
X125142619Y-89320714D01*
X125285476Y-89320714D01*
X125380714Y-89368333D01*
X125428333Y-89463571D01*
X125428333Y-89987380D01*
X126333095Y-89987380D02*
X126333095Y-89463571D01*
X126285476Y-89368333D01*
X126190238Y-89320714D01*
X125999761Y-89320714D01*
X125904523Y-89368333D01*
X126333095Y-89939761D02*
X126237857Y-89987380D01*
X125999761Y-89987380D01*
X125904523Y-89939761D01*
X125856904Y-89844523D01*
X125856904Y-89749285D01*
X125904523Y-89654047D01*
X125999761Y-89606428D01*
X126237857Y-89606428D01*
X126333095Y-89558809D01*
X126809285Y-89320714D02*
X126809285Y-90177857D01*
X126761666Y-90273095D01*
X126666428Y-90320714D01*
X126618809Y-90320714D01*
X126809285Y-88987380D02*
X126761666Y-89035000D01*
X126809285Y-89082619D01*
X126856904Y-89035000D01*
X126809285Y-88987380D01*
X126809285Y-89082619D01*
X127237857Y-89939761D02*
X127333095Y-89987380D01*
X127523571Y-89987380D01*
X127618809Y-89939761D01*
X127666428Y-89844523D01*
X127666428Y-89796904D01*
X127618809Y-89701666D01*
X127523571Y-89654047D01*
X127380714Y-89654047D01*
X127285476Y-89606428D01*
X127237857Y-89511190D01*
X127237857Y-89463571D01*
X127285476Y-89368333D01*
X127380714Y-89320714D01*
X127523571Y-89320714D01*
X127618809Y-89368333D01*
X127952142Y-89320714D02*
X128333095Y-89320714D01*
X128095000Y-88987380D02*
X128095000Y-89844523D01*
X128142619Y-89939761D01*
X128237857Y-89987380D01*
X128333095Y-89987380D01*
X129047380Y-89939761D02*
X128952142Y-89987380D01*
X128761666Y-89987380D01*
X128666428Y-89939761D01*
X128618809Y-89844523D01*
X128618809Y-89463571D01*
X128666428Y-89368333D01*
X128761666Y-89320714D01*
X128952142Y-89320714D01*
X129047380Y-89368333D01*
X129095000Y-89463571D01*
X129095000Y-89558809D01*
X128618809Y-89654047D01*
X129523571Y-89987380D02*
X129523571Y-89320714D01*
X129523571Y-89511190D02*
X129571190Y-89415952D01*
X129618809Y-89368333D01*
X129714047Y-89320714D01*
X129809285Y-89320714D01*
X130142619Y-89987380D02*
X130142619Y-88987380D01*
X130237857Y-89606428D02*
X130523571Y-89987380D01*
X130523571Y-89320714D02*
X130142619Y-89701666D01*
X131095000Y-89987380D02*
X130999761Y-89939761D01*
X130952142Y-89844523D01*
X130952142Y-88987380D01*
X131856904Y-89939761D02*
X131761666Y-89987380D01*
X131571190Y-89987380D01*
X131475952Y-89939761D01*
X131428333Y-89844523D01*
X131428333Y-89463571D01*
X131475952Y-89368333D01*
X131571190Y-89320714D01*
X131761666Y-89320714D01*
X131856904Y-89368333D01*
X131904523Y-89463571D01*
X131904523Y-89558809D01*
X131428333Y-89654047D01*
X132333095Y-89320714D02*
X132333095Y-90320714D01*
X132333095Y-89368333D02*
X132428333Y-89320714D01*
X132618809Y-89320714D01*
X132714047Y-89368333D01*
X132761666Y-89415952D01*
X132809285Y-89511190D01*
X132809285Y-89796904D01*
X132761666Y-89892142D01*
X132714047Y-89939761D01*
X132618809Y-89987380D01*
X132428333Y-89987380D01*
X132333095Y-89939761D01*
X133237857Y-89987380D02*
X133237857Y-88987380D01*
X133333095Y-89606428D02*
X133618809Y-89987380D01*
X133618809Y-89320714D02*
X133237857Y-89701666D01*
X134475952Y-89987380D02*
X134475952Y-89463571D01*
X134428333Y-89368333D01*
X134333095Y-89320714D01*
X134142619Y-89320714D01*
X134047380Y-89368333D01*
X134475952Y-89939761D02*
X134380714Y-89987380D01*
X134142619Y-89987380D01*
X134047380Y-89939761D01*
X133999761Y-89844523D01*
X133999761Y-89749285D01*
X134047380Y-89654047D01*
X134142619Y-89606428D01*
X134380714Y-89606428D01*
X134475952Y-89558809D01*
X135666428Y-88939761D02*
X134809285Y-90225476D01*
X136142619Y-89987380D02*
X136047380Y-89939761D01*
X135999761Y-89844523D01*
X135999761Y-88987380D01*
X136952142Y-89987380D02*
X136952142Y-89463571D01*
X136904523Y-89368333D01*
X136809285Y-89320714D01*
X136618809Y-89320714D01*
X136523571Y-89368333D01*
X136952142Y-89939761D02*
X136856904Y-89987380D01*
X136618809Y-89987380D01*
X136523571Y-89939761D01*
X136475952Y-89844523D01*
X136475952Y-89749285D01*
X136523571Y-89654047D01*
X136618809Y-89606428D01*
X136856904Y-89606428D01*
X136952142Y-89558809D01*
X137428333Y-89987380D02*
X137428333Y-88987380D01*
X137428333Y-89368333D02*
X137523571Y-89320714D01*
X137714047Y-89320714D01*
X137809285Y-89368333D01*
X137856904Y-89415952D01*
X137904523Y-89511190D01*
X137904523Y-89796904D01*
X137856904Y-89892142D01*
X137809285Y-89939761D01*
X137714047Y-89987380D01*
X137523571Y-89987380D01*
X137428333Y-89939761D01*
X138856904Y-89987380D02*
X138285476Y-89987380D01*
X138571190Y-89987380D02*
X138571190Y-88987380D01*
X138475952Y-89130238D01*
X138380714Y-89225476D01*
X138285476Y-89273095D01*
X139285476Y-89892142D02*
X139333095Y-89939761D01*
X139285476Y-89987380D01*
X139237857Y-89939761D01*
X139285476Y-89892142D01*
X139285476Y-89987380D01*
X140190238Y-89320714D02*
X140190238Y-90130238D01*
X140142619Y-90225476D01*
X140095000Y-90273095D01*
X139999761Y-90320714D01*
X139856904Y-90320714D01*
X139761666Y-90273095D01*
X140190238Y-89939761D02*
X140095000Y-89987380D01*
X139904523Y-89987380D01*
X139809285Y-89939761D01*
X139761666Y-89892142D01*
X139714047Y-89796904D01*
X139714047Y-89511190D01*
X139761666Y-89415952D01*
X139809285Y-89368333D01*
X139904523Y-89320714D01*
X140095000Y-89320714D01*
X140190238Y-89368333D01*
X140666428Y-89987380D02*
X140666428Y-89320714D01*
X140666428Y-88987380D02*
X140618809Y-89035000D01*
X140666428Y-89082619D01*
X140714047Y-89035000D01*
X140666428Y-88987380D01*
X140666428Y-89082619D01*
X140999761Y-89320714D02*
X141380714Y-89320714D01*
X141142619Y-88987380D02*
X141142619Y-89844523D01*
X141190238Y-89939761D01*
X141285476Y-89987380D01*
X141380714Y-89987380D01*
D11*
X170755952Y-71485238D02*
X170851190Y-71390000D01*
X171041666Y-71294761D01*
X171517857Y-71294761D01*
X171708333Y-71390000D01*
X171803571Y-71485238D01*
X171898809Y-71675714D01*
X171898809Y-71866190D01*
X171803571Y-72151904D01*
X170660714Y-73294761D01*
X171898809Y-73294761D01*
X173136904Y-71294761D02*
X173327380Y-71294761D01*
X173517857Y-71390000D01*
X173613095Y-71485238D01*
X173708333Y-71675714D01*
X173803571Y-72056666D01*
X173803571Y-72532857D01*
X173708333Y-72913809D01*
X173613095Y-73104285D01*
X173517857Y-73199523D01*
X173327380Y-73294761D01*
X173136904Y-73294761D01*
X172946428Y-73199523D01*
X172851190Y-73104285D01*
X172755952Y-72913809D01*
X172660714Y-72532857D01*
X172660714Y-72056666D01*
X172755952Y-71675714D01*
X172851190Y-71485238D01*
X172946428Y-71390000D01*
X173136904Y-71294761D01*
X175708333Y-73294761D02*
X174565476Y-73294761D01*
X175136904Y-73294761D02*
X175136904Y-71294761D01*
X174946428Y-71580476D01*
X174755952Y-71770952D01*
X174565476Y-71866190D01*
X176660714Y-73294761D02*
X177041666Y-73294761D01*
X177232142Y-73199523D01*
X177327380Y-73104285D01*
X177517857Y-72818571D01*
X177613095Y-72437619D01*
X177613095Y-71675714D01*
X177517857Y-71485238D01*
X177422619Y-71390000D01*
X177232142Y-71294761D01*
X176851190Y-71294761D01*
X176660714Y-71390000D01*
X176565476Y-71485238D01*
X176470238Y-71675714D01*
X176470238Y-72151904D01*
X176565476Y-72342380D01*
X176660714Y-72437619D01*
X176851190Y-72532857D01*
X177232142Y-72532857D01*
X177422619Y-72437619D01*
X177517857Y-72342380D01*
X177613095Y-72151904D01*
D12*
X159551190Y-108854761D02*
X159551190Y-107521428D01*
X159551190Y-107902380D02*
X159646428Y-107711904D01*
X159741666Y-107616666D01*
X159932142Y-107521428D01*
X160122619Y-107521428D01*
X161551190Y-108759523D02*
X161360714Y-108854761D01*
X160979761Y-108854761D01*
X160789285Y-108759523D01*
X160694047Y-108569047D01*
X160694047Y-107807142D01*
X160789285Y-107616666D01*
X160979761Y-107521428D01*
X161360714Y-107521428D01*
X161551190Y-107616666D01*
X161646428Y-107807142D01*
X161646428Y-107997619D01*
X160694047Y-108188095D01*
X162313095Y-107521428D02*
X162789285Y-108854761D01*
X163265476Y-107521428D01*
X164027380Y-108664285D02*
X164122619Y-108759523D01*
X164027380Y-108854761D01*
X163932142Y-108759523D01*
X164027380Y-108664285D01*
X164027380Y-108854761D01*
X167551190Y-108854761D02*
X166408333Y-108854761D01*
X166979761Y-108854761D02*
X166979761Y-106854761D01*
X166789285Y-107140476D01*
X166598809Y-107330952D01*
X166408333Y-107426190D01*
X168408333Y-108664285D02*
X168503571Y-108759523D01*
X168408333Y-108854761D01*
X168313095Y-108759523D01*
X168408333Y-108664285D01*
X168408333Y-108854761D01*
X169741666Y-106854761D02*
X169932142Y-106854761D01*
X170122619Y-106950000D01*
X170217857Y-107045238D01*
X170313095Y-107235714D01*
X170408333Y-107616666D01*
X170408333Y-108092857D01*
X170313095Y-108473809D01*
X170217857Y-108664285D01*
X170122619Y-108759523D01*
X169932142Y-108854761D01*
X169741666Y-108854761D01*
X169551190Y-108759523D01*
X169455952Y-108664285D01*
X169360714Y-108473809D01*
X169265476Y-108092857D01*
X169265476Y-107616666D01*
X169360714Y-107235714D01*
X169455952Y-107045238D01*
X169551190Y-106950000D01*
X169741666Y-106854761D01*
D11*
X76680714Y-72635000D02*
X77395000Y-72635000D01*
X76537857Y-73063571D02*
X77037857Y-71563571D01*
X77537857Y-73063571D01*
X78895000Y-72920714D02*
X78823571Y-72992142D01*
X78609285Y-73063571D01*
X78466428Y-73063571D01*
X78252142Y-72992142D01*
X78109285Y-72849285D01*
X78037857Y-72706428D01*
X77966428Y-72420714D01*
X77966428Y-72206428D01*
X78037857Y-71920714D01*
X78109285Y-71777857D01*
X78252142Y-71635000D01*
X78466428Y-71563571D01*
X78609285Y-71563571D01*
X78823571Y-71635000D01*
X78895000Y-71706428D01*
X80609285Y-71492142D02*
X79323571Y-73420714D01*
X81109285Y-73063571D02*
X81109285Y-71563571D01*
X81466428Y-71563571D01*
X81680714Y-71635000D01*
X81823571Y-71777857D01*
X81895000Y-71920714D01*
X81966428Y-72206428D01*
X81966428Y-72420714D01*
X81895000Y-72706428D01*
X81823571Y-72849285D01*
X81680714Y-72992142D01*
X81466428Y-73063571D01*
X81109285Y-73063571D01*
X83466428Y-72920714D02*
X83395000Y-72992142D01*
X83180714Y-73063571D01*
X83037857Y-73063571D01*
X82823571Y-72992142D01*
X82680714Y-72849285D01*
X82609285Y-72706428D01*
X82537857Y-72420714D01*
X82537857Y-72206428D01*
X82609285Y-71920714D01*
X82680714Y-71777857D01*
X82823571Y-71635000D01*
X83037857Y-71563571D01*
X83180714Y-71563571D01*
X83395000Y-71635000D01*
X83466428Y-71706428D01*
X85180714Y-72992142D02*
X85323571Y-73063571D01*
X85609285Y-73063571D01*
X85752142Y-72992142D01*
X85823571Y-72849285D01*
X85823571Y-72777857D01*
X85752142Y-72635000D01*
X85609285Y-72563571D01*
X85395000Y-72563571D01*
X85252142Y-72492142D01*
X85180714Y-72349285D01*
X85180714Y-72277857D01*
X85252142Y-72135000D01*
X85395000Y-72063571D01*
X85609285Y-72063571D01*
X85752142Y-72135000D01*
X87109285Y-72063571D02*
X87109285Y-73063571D01*
X86466428Y-72063571D02*
X86466428Y-72849285D01*
X86537857Y-72992142D01*
X86680714Y-73063571D01*
X86895000Y-73063571D01*
X87037857Y-72992142D01*
X87109285Y-72920714D01*
X87823571Y-72063571D02*
X87823571Y-73563571D01*
X87823571Y-72135000D02*
X87966428Y-72063571D01*
X88252142Y-72063571D01*
X88395000Y-72135000D01*
X88466428Y-72206428D01*
X88537857Y-72349285D01*
X88537857Y-72777857D01*
X88466428Y-72920714D01*
X88395000Y-72992142D01*
X88252142Y-73063571D01*
X87966428Y-73063571D01*
X87823571Y-72992142D01*
X89180714Y-72063571D02*
X89180714Y-73563571D01*
X89180714Y-72135000D02*
X89323571Y-72063571D01*
X89609285Y-72063571D01*
X89752142Y-72135000D01*
X89823571Y-72206428D01*
X89895000Y-72349285D01*
X89895000Y-72777857D01*
X89823571Y-72920714D01*
X89752142Y-72992142D01*
X89609285Y-73063571D01*
X89323571Y-73063571D01*
X89180714Y-72992142D01*
X90752142Y-73063571D02*
X90609285Y-72992142D01*
X90537857Y-72849285D01*
X90537857Y-71563571D01*
X91180714Y-72063571D02*
X91537857Y-73063571D01*
X91895000Y-72063571D02*
X91537857Y-73063571D01*
X91395000Y-73420714D01*
X91323571Y-73492142D01*
X91180714Y-73563571D01*
X76680714Y-75185000D02*
X77395000Y-75185000D01*
X76537857Y-75613571D02*
X77037857Y-74113571D01*
X77537857Y-75613571D01*
X78895000Y-75470714D02*
X78823571Y-75542142D01*
X78609285Y-75613571D01*
X78466428Y-75613571D01*
X78252142Y-75542142D01*
X78109285Y-75399285D01*
X78037857Y-75256428D01*
X77966428Y-74970714D01*
X77966428Y-74756428D01*
X78037857Y-74470714D01*
X78109285Y-74327857D01*
X78252142Y-74185000D01*
X78466428Y-74113571D01*
X78609285Y-74113571D01*
X78823571Y-74185000D01*
X78895000Y-74256428D01*
X80680714Y-75613571D02*
X80680714Y-74613571D01*
X80680714Y-74113571D02*
X80609285Y-74185000D01*
X80680714Y-74256428D01*
X80752142Y-74185000D01*
X80680714Y-74113571D01*
X80680714Y-74256428D01*
X81395000Y-74613571D02*
X81395000Y-75613571D01*
X81395000Y-74756428D02*
X81466428Y-74685000D01*
X81609285Y-74613571D01*
X81823571Y-74613571D01*
X81966428Y-74685000D01*
X82037857Y-74827857D01*
X82037857Y-75613571D01*
X82752142Y-74613571D02*
X82752142Y-76113571D01*
X82752142Y-74685000D02*
X82895000Y-74613571D01*
X83180714Y-74613571D01*
X83323571Y-74685000D01*
X83395000Y-74756428D01*
X83466428Y-74899285D01*
X83466428Y-75327857D01*
X83395000Y-75470714D01*
X83323571Y-75542142D01*
X83180714Y-75613571D01*
X82895000Y-75613571D01*
X82752142Y-75542142D01*
X84752142Y-74613571D02*
X84752142Y-75613571D01*
X84109285Y-74613571D02*
X84109285Y-75399285D01*
X84180714Y-75542142D01*
X84323571Y-75613571D01*
X84537857Y-75613571D01*
X84680714Y-75542142D01*
X84752142Y-75470714D01*
X85252142Y-74613571D02*
X85823571Y-74613571D01*
X85466428Y-74113571D02*
X85466428Y-75399285D01*
X85537857Y-75542142D01*
X85680714Y-75613571D01*
X85823571Y-75613571D01*
X87466428Y-75613571D02*
X87466428Y-74613571D01*
X87466428Y-74756428D02*
X87537857Y-74685000D01*
X87680714Y-74613571D01*
X87895000Y-74613571D01*
X88037857Y-74685000D01*
X88109285Y-74827857D01*
X88109285Y-75613571D01*
X88109285Y-74827857D02*
X88180714Y-74685000D01*
X88323571Y-74613571D01*
X88537857Y-74613571D01*
X88680714Y-74685000D01*
X88752142Y-74827857D01*
X88752142Y-75613571D01*
X90109285Y-75613571D02*
X90109285Y-74827857D01*
X90037857Y-74685000D01*
X89895000Y-74613571D01*
X89609285Y-74613571D01*
X89466428Y-74685000D01*
X90109285Y-75542142D02*
X89966428Y-75613571D01*
X89609285Y-75613571D01*
X89466428Y-75542142D01*
X89395000Y-75399285D01*
X89395000Y-75256428D01*
X89466428Y-75113571D01*
X89609285Y-75042142D01*
X89966428Y-75042142D01*
X90109285Y-74970714D01*
X90680714Y-75613571D02*
X91466428Y-74613571D01*
X90680714Y-74613571D02*
X91466428Y-75613571D01*
X93109285Y-74256428D02*
X93180714Y-74185000D01*
X93323571Y-74113571D01*
X93680714Y-74113571D01*
X93823571Y-74185000D01*
X93895000Y-74256428D01*
X93966428Y-74399285D01*
X93966428Y-74542142D01*
X93895000Y-74756428D01*
X93037857Y-75613571D01*
X93966428Y-75613571D01*
X94466428Y-75613571D02*
X95252142Y-74613571D01*
X94466428Y-74613571D02*
X95252142Y-75613571D01*
X95752142Y-74256428D02*
X95823571Y-74185000D01*
X95966428Y-74113571D01*
X96323571Y-74113571D01*
X96466428Y-74185000D01*
X96537857Y-74256428D01*
X96609285Y-74399285D01*
X96609285Y-74542142D01*
X96537857Y-74756428D01*
X95680714Y-75613571D01*
X96609285Y-75613571D01*
X97895000Y-74613571D02*
X97895000Y-75613571D01*
X97537857Y-74042142D02*
X97180714Y-75113571D01*
X98109285Y-75113571D01*
X98466428Y-74113571D02*
X98966428Y-75613571D01*
X99466428Y-74113571D01*
X101752142Y-74613571D02*
X101752142Y-75613571D01*
X101395000Y-74042142D02*
X101037857Y-75113571D01*
X101966428Y-75113571D01*
X102466428Y-75185000D02*
X103180714Y-75185000D01*
X102323571Y-75613571D02*
X102823571Y-74113571D01*
X103323571Y-75613571D01*
D10*
X88013214Y-104817142D02*
X88227500Y-104888571D01*
X88584642Y-104888571D01*
X88727500Y-104817142D01*
X88798928Y-104745714D01*
X88870357Y-104602857D01*
X88870357Y-104460000D01*
X88798928Y-104317142D01*
X88727500Y-104245714D01*
X88584642Y-104174285D01*
X88298928Y-104102857D01*
X88156071Y-104031428D01*
X88084642Y-103960000D01*
X88013214Y-103817142D01*
X88013214Y-103674285D01*
X88084642Y-103531428D01*
X88156071Y-103460000D01*
X88298928Y-103388571D01*
X88656071Y-103388571D01*
X88870357Y-103460000D01*
X90513214Y-105031428D02*
X90370357Y-104960000D01*
X90227500Y-104817142D01*
X90013214Y-104602857D01*
X89870357Y-104531428D01*
X89727500Y-104531428D01*
X89798928Y-104888571D02*
X89656071Y-104817142D01*
X89513214Y-104674285D01*
X89441785Y-104388571D01*
X89441785Y-103888571D01*
X89513214Y-103602857D01*
X89656071Y-103460000D01*
X89798928Y-103388571D01*
X90084642Y-103388571D01*
X90227500Y-103460000D01*
X90370357Y-103602857D01*
X90441785Y-103888571D01*
X90441785Y-104388571D01*
X90370357Y-104674285D01*
X90227500Y-104817142D01*
X90084642Y-104888571D01*
X89798928Y-104888571D01*
X90941785Y-103388571D02*
X91941785Y-103388571D01*
X91298928Y-104888571D01*
X92513214Y-104102857D02*
X93013214Y-104102857D01*
X93227500Y-104888571D02*
X92513214Y-104888571D01*
X92513214Y-103388571D01*
X93227500Y-103388571D01*
X94870357Y-105031428D02*
X94727500Y-104960000D01*
X94584642Y-104817142D01*
X94370357Y-104602857D01*
X94227500Y-104531428D01*
X94084642Y-104531428D01*
X94156071Y-104888571D02*
X94013214Y-104817142D01*
X93870357Y-104674285D01*
X93798928Y-104388571D01*
X93798928Y-103888571D01*
X93870357Y-103602857D01*
X94013214Y-103460000D01*
X94156071Y-103388571D01*
X94441785Y-103388571D01*
X94584642Y-103460000D01*
X94727500Y-103602857D01*
X94798928Y-103888571D01*
X94798928Y-104388571D01*
X94727500Y-104674285D01*
X94584642Y-104817142D01*
X94441785Y-104888571D01*
X94156071Y-104888571D01*
X95441785Y-104102857D02*
X95941785Y-104102857D01*
X96156071Y-104888571D02*
X95441785Y-104888571D01*
X95441785Y-103388571D01*
X96156071Y-103388571D01*
X88870357Y-105860000D02*
X88727500Y-105788571D01*
X88513214Y-105788571D01*
X88298928Y-105860000D01*
X88156071Y-106002857D01*
X88084642Y-106145714D01*
X88013214Y-106431428D01*
X88013214Y-106645714D01*
X88084642Y-106931428D01*
X88156071Y-107074285D01*
X88298928Y-107217142D01*
X88513214Y-107288571D01*
X88656071Y-107288571D01*
X88870357Y-107217142D01*
X88941785Y-107145714D01*
X88941785Y-106645714D01*
X88656071Y-106645714D01*
X89584642Y-107288571D02*
X89584642Y-105788571D01*
X90441785Y-107288571D01*
X90441785Y-105788571D01*
X91156071Y-105788571D02*
X91156071Y-107002857D01*
X91227500Y-107145714D01*
X91298928Y-107217142D01*
X91441785Y-107288571D01*
X91727500Y-107288571D01*
X91870357Y-107217142D01*
X91941785Y-107145714D01*
X92013214Y-107002857D01*
X92013214Y-105788571D01*
X94656071Y-105860000D02*
X94513214Y-105788571D01*
X94298928Y-105788571D01*
X94084642Y-105860000D01*
X93941785Y-106002857D01*
X93870357Y-106145714D01*
X93798928Y-106431428D01*
X93798928Y-106645714D01*
X93870357Y-106931428D01*
X93941785Y-107074285D01*
X94084642Y-107217142D01*
X94298928Y-107288571D01*
X94441785Y-107288571D01*
X94656071Y-107217142D01*
X94727500Y-107145714D01*
X94727500Y-106645714D01*
X94441785Y-106645714D01*
X95370357Y-107288571D02*
X95370357Y-105788571D01*
X95941785Y-105788571D01*
X96084642Y-105860000D01*
X96156071Y-105931428D01*
X96227500Y-106074285D01*
X96227500Y-106288571D01*
X96156071Y-106431428D01*
X96084642Y-106502857D01*
X95941785Y-106574285D01*
X95370357Y-106574285D01*
X97584642Y-107288571D02*
X96870357Y-107288571D01*
X96870357Y-105788571D01*
X97941785Y-106288571D02*
X98298928Y-107288571D01*
X98656071Y-106288571D01*
X99084642Y-105788571D02*
X100013214Y-105788571D01*
X99513214Y-106360000D01*
X99727500Y-106360000D01*
X99870357Y-106431428D01*
X99941785Y-106502857D01*
X100013214Y-106645714D01*
X100013214Y-107002857D01*
X99941785Y-107145714D01*
X99870357Y-107217142D01*
X99727500Y-107288571D01*
X99298928Y-107288571D01*
X99156071Y-107217142D01*
X99084642Y-107145714D01*
D13*
X165227142Y-92924285D02*
X167512857Y-92924285D01*
X166370000Y-94067142D02*
X166370000Y-91781428D01*
X165227142Y-81494285D02*
X167512857Y-81494285D01*
X183160000Y-98342857D02*
X184683809Y-98342857D01*
X180588571Y-100600000D02*
X180398095Y-100504761D01*
X180112380Y-100504761D01*
X179826666Y-100600000D01*
X179636190Y-100790476D01*
X179540952Y-100980952D01*
X179445714Y-101361904D01*
X179445714Y-101647619D01*
X179540952Y-102028571D01*
X179636190Y-102219047D01*
X179826666Y-102409523D01*
X180112380Y-102504761D01*
X180302857Y-102504761D01*
X180588571Y-102409523D01*
X180683809Y-102314285D01*
X180683809Y-101647619D01*
X180302857Y-101647619D01*
X181540952Y-102504761D02*
X181540952Y-100504761D01*
X182683809Y-102504761D01*
X182683809Y-100504761D01*
X183636190Y-102504761D02*
X183636190Y-100504761D01*
X184112380Y-100504761D01*
X184398095Y-100600000D01*
X184588571Y-100790476D01*
X184683809Y-100980952D01*
X184779047Y-101361904D01*
X184779047Y-101647619D01*
X184683809Y-102028571D01*
X184588571Y-102219047D01*
X184398095Y-102409523D01*
X184112380Y-102504761D01*
X183636190Y-102504761D01*
X183160000Y-105142857D02*
X184683809Y-105142857D01*
X183921904Y-105904761D02*
X183921904Y-104380952D01*
X76840952Y-101073333D02*
X77793333Y-101073333D01*
X76650476Y-101644761D02*
X77317142Y-99644761D01*
X77983809Y-101644761D01*
X79793333Y-101454285D02*
X79698095Y-101549523D01*
X79412380Y-101644761D01*
X79221904Y-101644761D01*
X78936190Y-101549523D01*
X78745714Y-101359047D01*
X78650476Y-101168571D01*
X78555238Y-100787619D01*
X78555238Y-100501904D01*
X78650476Y-100120952D01*
X78745714Y-99930476D01*
X78936190Y-99740000D01*
X79221904Y-99644761D01*
X79412380Y-99644761D01*
X79698095Y-99740000D01*
X79793333Y-99835238D01*
X77983809Y-103140000D02*
X77793333Y-103044761D01*
X77507619Y-103044761D01*
X77221904Y-103140000D01*
X77031428Y-103330476D01*
X76936190Y-103520952D01*
X76840952Y-103901904D01*
X76840952Y-104187619D01*
X76936190Y-104568571D01*
X77031428Y-104759047D01*
X77221904Y-104949523D01*
X77507619Y-105044761D01*
X77698095Y-105044761D01*
X77983809Y-104949523D01*
X78079047Y-104854285D01*
X78079047Y-104187619D01*
X77698095Y-104187619D01*
X78936190Y-105044761D02*
X78936190Y-103044761D01*
X80079047Y-105044761D01*
X80079047Y-103044761D01*
X81031428Y-105044761D02*
X81031428Y-103044761D01*
X81507619Y-103044761D01*
X81793333Y-103140000D01*
X81983809Y-103330476D01*
X82079047Y-103520952D01*
X82174285Y-103901904D01*
X82174285Y-104187619D01*
X82079047Y-104568571D01*
X81983809Y-104759047D01*
X81793333Y-104949523D01*
X81507619Y-105044761D01*
X81031428Y-105044761D01*
X76840952Y-107873333D02*
X77793333Y-107873333D01*
X76650476Y-108444761D02*
X77317142Y-106444761D01*
X77983809Y-108444761D01*
X79793333Y-108254285D02*
X79698095Y-108349523D01*
X79412380Y-108444761D01*
X79221904Y-108444761D01*
X78936190Y-108349523D01*
X78745714Y-108159047D01*
X78650476Y-107968571D01*
X78555238Y-107587619D01*
X78555238Y-107301904D01*
X78650476Y-106920952D01*
X78745714Y-106730476D01*
X78936190Y-106540000D01*
X79221904Y-106444761D01*
X79412380Y-106444761D01*
X79698095Y-106540000D01*
X79793333Y-106635238D01*
D14*
X108285000Y-109249440D02*
X110085000Y-109249440D01*
X109185000Y-110149440D02*
X109185000Y-108349440D01*
X114260000Y-91270000D02*
X114340000Y-91270000D01*
X113486000Y-91310000D02*
X115114000Y-91310000D01*
X113134000Y-91350000D02*
X115466000Y-91350000D01*
X112865000Y-91390000D02*
X115735000Y-91390000D01*
X112639000Y-91430000D02*
X115961000Y-91430000D01*
X112440000Y-91470000D02*
X116160000Y-91470000D01*
X112261000Y-91510000D02*
X116339000Y-91510000D01*
X112097000Y-91550000D02*
X116503000Y-91550000D01*
X111945000Y-91590000D02*
X116655000Y-91590000D01*
X111802000Y-91630000D02*
X116798000Y-91630000D01*
X111668000Y-91670000D02*
X116932000Y-91670000D01*
X111541000Y-91710000D02*
X117059000Y-91710000D01*
X111420000Y-91750000D02*
X117180000Y-91750000D01*
X111304000Y-91790000D02*
X117296000Y-91790000D01*
X111193000Y-91830000D02*
X117407000Y-91830000D01*
X111086000Y-91870000D02*
X117514000Y-91870000D01*
X110983000Y-91910000D02*
X117617000Y-91910000D01*
X110884000Y-91950000D02*
X117716000Y-91950000D01*
X110788000Y-91990000D02*
X117812000Y-91990000D01*
X110695000Y-92030000D02*
X117905000Y-92030000D01*
X110604000Y-92070000D02*
X117996000Y-92070000D01*
X110516000Y-92110000D02*
X118084000Y-92110000D01*
X110431000Y-92150000D02*
X118169000Y-92150000D01*
X110348000Y-92190000D02*
X118252000Y-92190000D01*
X110267000Y-92229000D02*
X118333000Y-92229000D01*
X110187000Y-92269000D02*
X118413000Y-92269000D01*
X110110000Y-92309000D02*
X118490000Y-92309000D01*
X110035000Y-92349000D02*
X118565000Y-92349000D01*
X109961000Y-92389000D02*
X118639000Y-92389000D01*
X109888000Y-92429000D02*
X118712000Y-92429000D01*
X109818000Y-92469000D02*
X118782000Y-92469000D01*
X109748000Y-92509000D02*
X118852000Y-92509000D01*
X109680000Y-92549000D02*
X118920000Y-92549000D01*
X109614000Y-92589000D02*
X118986000Y-92589000D01*
X109548000Y-92629000D02*
X119052000Y-92629000D01*
X109484000Y-92669000D02*
X119116000Y-92669000D01*
X109421000Y-92709000D02*
X119179000Y-92709000D01*
X109359000Y-92749000D02*
X119241000Y-92749000D01*
X109298000Y-92789000D02*
X119302000Y-92789000D01*
X109238000Y-92829000D02*
X119362000Y-92829000D01*
X109180000Y-92869000D02*
X119420000Y-92869000D01*
X109122000Y-92909000D02*
X119478000Y-92909000D01*
X109065000Y-92949000D02*
X119535000Y-92949000D01*
X109009000Y-92989000D02*
X119591000Y-92989000D01*
X108954000Y-93029000D02*
X119646000Y-93029000D01*
X108900000Y-93069000D02*
X119700000Y-93069000D01*
X108846000Y-93109000D02*
X119754000Y-93109000D01*
X108794000Y-93149000D02*
X119806000Y-93149000D01*
X108742000Y-93189000D02*
X119858000Y-93189000D01*
X108691000Y-93229000D02*
X119909000Y-93229000D01*
X108640000Y-93269000D02*
X119960000Y-93269000D01*
X108591000Y-93309000D02*
X120009000Y-93309000D01*
X108542000Y-93349000D02*
X120058000Y-93349000D01*
X108494000Y-93389000D02*
X120106000Y-93389000D01*
X108446000Y-93429000D02*
X120154000Y-93429000D01*
X108399000Y-93469000D02*
X120201000Y-93469000D01*
X108353000Y-93509000D02*
X120247000Y-93509000D01*
X108307000Y-93549000D02*
X120293000Y-93549000D01*
X108262000Y-93589000D02*
X120338000Y-93589000D01*
X108218000Y-93629000D02*
X120382000Y-93629000D01*
X108174000Y-93669000D02*
X120426000Y-93669000D01*
X108130000Y-93709000D02*
X120470000Y-93709000D01*
X108088000Y-93749000D02*
X120512000Y-93749000D01*
X108046000Y-93789000D02*
X120554000Y-93789000D01*
X108004000Y-93829000D02*
X120596000Y-93829000D01*
X107963000Y-93869000D02*
X120637000Y-93869000D01*
X107922000Y-93909000D02*
X120678000Y-93909000D01*
X107882000Y-93949000D02*
X120718000Y-93949000D01*
X107842000Y-93989000D02*
X120758000Y-93989000D01*
X107803000Y-94029000D02*
X120797000Y-94029000D01*
X107764000Y-94069000D02*
X120836000Y-94069000D01*
X107726000Y-94109000D02*
X120874000Y-94109000D01*
X107688000Y-94149000D02*
X120912000Y-94149000D01*
X107651000Y-94189000D02*
X120949000Y-94189000D01*
X107614000Y-94229000D02*
X120986000Y-94229000D01*
X107578000Y-94269000D02*
X121022000Y-94269000D01*
X107542000Y-94309000D02*
X121058000Y-94309000D01*
X107506000Y-94349000D02*
X121094000Y-94349000D01*
X107471000Y-94389000D02*
X121129000Y-94389000D01*
X107436000Y-94429000D02*
X121164000Y-94429000D01*
X107402000Y-94469000D02*
X121198000Y-94469000D01*
X107368000Y-94509000D02*
X121232000Y-94509000D01*
X107335000Y-94549000D02*
X121265000Y-94549000D01*
X107301000Y-94589000D02*
X121299000Y-94589000D01*
X107269000Y-94629000D02*
X121331000Y-94629000D01*
X107236000Y-94669000D02*
X121364000Y-94669000D01*
X107204000Y-94709000D02*
X121396000Y-94709000D01*
X107173000Y-94749000D02*
X121427000Y-94749000D01*
X107141000Y-94789000D02*
X121459000Y-94789000D01*
X107110000Y-94829000D02*
X121490000Y-94829000D01*
X107080000Y-94869000D02*
X121520000Y-94869000D01*
X107050000Y-94909000D02*
X121550000Y-94909000D01*
X107020000Y-94949000D02*
X121580000Y-94949000D01*
X106990000Y-94989000D02*
X121610000Y-94989000D01*
X106961000Y-95029000D02*
X121639000Y-95029000D01*
X106932000Y-95069000D02*
X121668000Y-95069000D01*
X106903000Y-95109000D02*
X121697000Y-95109000D01*
X106875000Y-95149000D02*
X121725000Y-95149000D01*
X106847000Y-95189000D02*
X121753000Y-95189000D01*
X115740000Y-95229000D02*
X121780000Y-95229000D01*
X106820000Y-95229000D02*
X112860000Y-95229000D01*
X115740000Y-95269000D02*
X121808000Y-95269000D01*
X106792000Y-95269000D02*
X112860000Y-95269000D01*
X115740000Y-95309000D02*
X121835000Y-95309000D01*
X106765000Y-95309000D02*
X112860000Y-95309000D01*
X115740000Y-95349000D02*
X121861000Y-95349000D01*
X106739000Y-95349000D02*
X112860000Y-95349000D01*
X115740000Y-95389000D02*
X121888000Y-95389000D01*
X106712000Y-95389000D02*
X112860000Y-95389000D01*
X115740000Y-95429000D02*
X121914000Y-95429000D01*
X106686000Y-95429000D02*
X112860000Y-95429000D01*
X115740000Y-95469000D02*
X121940000Y-95469000D01*
X106660000Y-95469000D02*
X112860000Y-95469000D01*
X115740000Y-95509000D02*
X121965000Y-95509000D01*
X106635000Y-95509000D02*
X112860000Y-95509000D01*
X115740000Y-95549000D02*
X121990000Y-95549000D01*
X106610000Y-95549000D02*
X112860000Y-95549000D01*
X115740000Y-95589000D02*
X122015000Y-95589000D01*
X106585000Y-95589000D02*
X112860000Y-95589000D01*
X115740000Y-95629000D02*
X122040000Y-95629000D01*
X106560000Y-95629000D02*
X112860000Y-95629000D01*
X115740000Y-95669000D02*
X122064000Y-95669000D01*
X106536000Y-95669000D02*
X112860000Y-95669000D01*
X115740000Y-95709000D02*
X122088000Y-95709000D01*
X106512000Y-95709000D02*
X112860000Y-95709000D01*
X115740000Y-95749000D02*
X122112000Y-95749000D01*
X106488000Y-95749000D02*
X112860000Y-95749000D01*
X115740000Y-95789000D02*
X122135000Y-95789000D01*
X106465000Y-95789000D02*
X112860000Y-95789000D01*
X115740000Y-95829000D02*
X122159000Y-95829000D01*
X106441000Y-95829000D02*
X112860000Y-95829000D01*
X115740000Y-95869000D02*
X122182000Y-95869000D01*
X106418000Y-95869000D02*
X112860000Y-95869000D01*
X115740000Y-95909000D02*
X122204000Y-95909000D01*
X106396000Y-95909000D02*
X112860000Y-95909000D01*
X115740000Y-95949000D02*
X122227000Y-95949000D01*
X106373000Y-95949000D02*
X112860000Y-95949000D01*
X115740000Y-95989000D02*
X122249000Y-95989000D01*
X106351000Y-95989000D02*
X112860000Y-95989000D01*
X115740000Y-96029000D02*
X122271000Y-96029000D01*
X106329000Y-96029000D02*
X112860000Y-96029000D01*
X115740000Y-96069000D02*
X122292000Y-96069000D01*
X106308000Y-96069000D02*
X112860000Y-96069000D01*
X115740000Y-96109000D02*
X122314000Y-96109000D01*
X106286000Y-96109000D02*
X112860000Y-96109000D01*
X115740000Y-96149000D02*
X122335000Y-96149000D01*
X106265000Y-96149000D02*
X112860000Y-96149000D01*
X115740000Y-96189000D02*
X122356000Y-96189000D01*
X106244000Y-96189000D02*
X112860000Y-96189000D01*
X115740000Y-96229000D02*
X122376000Y-96229000D01*
X106224000Y-96229000D02*
X112860000Y-96229000D01*
X115740000Y-96269000D02*
X122397000Y-96269000D01*
X106203000Y-96269000D02*
X112860000Y-96269000D01*
X115740000Y-96309000D02*
X122417000Y-96309000D01*
X106183000Y-96309000D02*
X112860000Y-96309000D01*
X115740000Y-96349000D02*
X122437000Y-96349000D01*
X106163000Y-96349000D02*
X112860000Y-96349000D01*
X115740000Y-96389000D02*
X122456000Y-96389000D01*
X106144000Y-96389000D02*
X112860000Y-96389000D01*
X115740000Y-96429000D02*
X122476000Y-96429000D01*
X106124000Y-96429000D02*
X112860000Y-96429000D01*
X115740000Y-96469000D02*
X122495000Y-96469000D01*
X106105000Y-96469000D02*
X112860000Y-96469000D01*
X115740000Y-96509000D02*
X122514000Y-96509000D01*
X106086000Y-96509000D02*
X112860000Y-96509000D01*
X115740000Y-96549000D02*
X122533000Y-96549000D01*
X106067000Y-96549000D02*
X112860000Y-96549000D01*
X115740000Y-96589000D02*
X122551000Y-96589000D01*
X106049000Y-96589000D02*
X112860000Y-96589000D01*
X115740000Y-96629000D02*
X122569000Y-96629000D01*
X106031000Y-96629000D02*
X112860000Y-96629000D01*
X115740000Y-96669000D02*
X122587000Y-96669000D01*
X106013000Y-96669000D02*
X112860000Y-96669000D01*
X115740000Y-96709000D02*
X122605000Y-96709000D01*
X105995000Y-96709000D02*
X112860000Y-96709000D01*
X115740000Y-96749000D02*
X122623000Y-96749000D01*
X105977000Y-96749000D02*
X112860000Y-96749000D01*
X115740000Y-96789000D02*
X122640000Y-96789000D01*
X105960000Y-96789000D02*
X112860000Y-96789000D01*
X115740000Y-96829000D02*
X122657000Y-96829000D01*
X105943000Y-96829000D02*
X112860000Y-96829000D01*
X115740000Y-96869000D02*
X122674000Y-96869000D01*
X105926000Y-96869000D02*
X112860000Y-96869000D01*
X115740000Y-96909000D02*
X122690000Y-96909000D01*
X105910000Y-96909000D02*
X112860000Y-96909000D01*
X115740000Y-96949000D02*
X122707000Y-96949000D01*
X105893000Y-96949000D02*
X112860000Y-96949000D01*
X115740000Y-96989000D02*
X122723000Y-96989000D01*
X105877000Y-96989000D02*
X112860000Y-96989000D01*
X115740000Y-97029000D02*
X122739000Y-97029000D01*
X105861000Y-97029000D02*
X112860000Y-97029000D01*
X115740000Y-97069000D02*
X122755000Y-97069000D01*
X105845000Y-97069000D02*
X112860000Y-97069000D01*
X115740000Y-97109000D02*
X122770000Y-97109000D01*
X105830000Y-97109000D02*
X112860000Y-97109000D01*
X115740000Y-97149000D02*
X122786000Y-97149000D01*
X105814000Y-97149000D02*
X112860000Y-97149000D01*
X115740000Y-97189000D02*
X122801000Y-97189000D01*
X105799000Y-97189000D02*
X112860000Y-97189000D01*
X115740000Y-97229000D02*
X122816000Y-97229000D01*
X105784000Y-97229000D02*
X112860000Y-97229000D01*
X115740000Y-97269000D02*
X122830000Y-97269000D01*
X105770000Y-97269000D02*
X112860000Y-97269000D01*
X115740000Y-97309000D02*
X122845000Y-97309000D01*
X105755000Y-97309000D02*
X112860000Y-97309000D01*
X115740000Y-97349000D02*
X122859000Y-97349000D01*
X105741000Y-97349000D02*
X112860000Y-97349000D01*
X115740000Y-97389000D02*
X122873000Y-97389000D01*
X105727000Y-97389000D02*
X112860000Y-97389000D01*
X115740000Y-97429000D02*
X122887000Y-97429000D01*
X105713000Y-97429000D02*
X112860000Y-97429000D01*
X115740000Y-97469000D02*
X122900000Y-97469000D01*
X105700000Y-97469000D02*
X112860000Y-97469000D01*
X115740000Y-97509000D02*
X122914000Y-97509000D01*
X105686000Y-97509000D02*
X112860000Y-97509000D01*
X115740000Y-97549000D02*
X122927000Y-97549000D01*
X105673000Y-97549000D02*
X112860000Y-97549000D01*
X115740000Y-97589000D02*
X122940000Y-97589000D01*
X105660000Y-97589000D02*
X112860000Y-97589000D01*
X115740000Y-97629000D02*
X122953000Y-97629000D01*
X105647000Y-97629000D02*
X112860000Y-97629000D01*
X115740000Y-97669000D02*
X122965000Y-97669000D01*
X105635000Y-97669000D02*
X112860000Y-97669000D01*
X115740000Y-97709000D02*
X122978000Y-97709000D01*
X105622000Y-97709000D02*
X112860000Y-97709000D01*
X115740000Y-97749000D02*
X122990000Y-97749000D01*
X105610000Y-97749000D02*
X112860000Y-97749000D01*
X115740000Y-97789000D02*
X123002000Y-97789000D01*
X105598000Y-97789000D02*
X112860000Y-97789000D01*
X115740000Y-97829000D02*
X123014000Y-97829000D01*
X105586000Y-97829000D02*
X112860000Y-97829000D01*
X115740000Y-97869000D02*
X123025000Y-97869000D01*
X105575000Y-97869000D02*
X112860000Y-97869000D01*
X115740000Y-97909000D02*
X123037000Y-97909000D01*
X105563000Y-97909000D02*
X112860000Y-97909000D01*
X115740000Y-97949000D02*
X123048000Y-97949000D01*
X105552000Y-97949000D02*
X112860000Y-97949000D01*
X115740000Y-97989000D02*
X123059000Y-97989000D01*
X105541000Y-97989000D02*
X112860000Y-97989000D01*
X115740000Y-98029000D02*
X123070000Y-98029000D01*
X105530000Y-98029000D02*
X112860000Y-98029000D01*
X115740000Y-98069000D02*
X123080000Y-98069000D01*
X105520000Y-98069000D02*
X112860000Y-98069000D01*
X105509000Y-98109000D02*
X123091000Y-98109000D01*
X105499000Y-98149000D02*
X123101000Y-98149000D01*
X105489000Y-98189000D02*
X123111000Y-98189000D01*
X105479000Y-98229000D02*
X123121000Y-98229000D01*
X105469000Y-98269000D02*
X123131000Y-98269000D01*
X105460000Y-98309000D02*
X123140000Y-98309000D01*
X105451000Y-98349000D02*
X123149000Y-98349000D01*
X105442000Y-98389000D02*
X123158000Y-98389000D01*
X105433000Y-98429000D02*
X123167000Y-98429000D01*
X105424000Y-98469000D02*
X123176000Y-98469000D01*
X105415000Y-98509000D02*
X123185000Y-98509000D01*
X105407000Y-98549000D02*
X123193000Y-98549000D01*
X105399000Y-98589000D02*
X123201000Y-98589000D01*
X105391000Y-98629000D02*
X123209000Y-98629000D01*
X105383000Y-98669000D02*
X123217000Y-98669000D01*
X105376000Y-98709000D02*
X123224000Y-98709000D01*
X105368000Y-98749000D02*
X123232000Y-98749000D01*
X105361000Y-98789000D02*
X123239000Y-98789000D01*
X105354000Y-98829000D02*
X123246000Y-98829000D01*
X105347000Y-98869000D02*
X123253000Y-98869000D01*
X105340000Y-98909000D02*
X123260000Y-98909000D01*
X105334000Y-98949000D02*
X123266000Y-98949000D01*
X105328000Y-98989000D02*
X123272000Y-98989000D01*
X105321000Y-99029000D02*
X123279000Y-99029000D01*
X105316000Y-99069000D02*
X123284000Y-99069000D01*
X105310000Y-99109000D02*
X123290000Y-99109000D01*
X105304000Y-99149000D02*
X123296000Y-99149000D01*
X105299000Y-99189000D02*
X123301000Y-99189000D01*
X105294000Y-99229000D02*
X123306000Y-99229000D01*
X105289000Y-99269000D02*
X123311000Y-99269000D01*
X105284000Y-99309000D02*
X123316000Y-99309000D01*
X105279000Y-99349000D02*
X123321000Y-99349000D01*
X105274000Y-99389000D02*
X123326000Y-99389000D01*
X105270000Y-99429000D02*
X123330000Y-99429000D01*
X105266000Y-99469000D02*
X123334000Y-99469000D01*
X105262000Y-99509000D02*
X123338000Y-99509000D01*
X105258000Y-99549000D02*
X123342000Y-99549000D01*
X105255000Y-99589000D02*
X123345000Y-99589000D01*
X105251000Y-99629000D02*
X123349000Y-99629000D01*
X105248000Y-99669000D02*
X123352000Y-99669000D01*
X105245000Y-99710000D02*
X123355000Y-99710000D01*
X105242000Y-99750000D02*
X123358000Y-99750000D01*
X105239000Y-99790000D02*
X123361000Y-99790000D01*
X105237000Y-99830000D02*
X123363000Y-99830000D01*
X105234000Y-99870000D02*
X123366000Y-99870000D01*
X105232000Y-99910000D02*
X123368000Y-99910000D01*
X105230000Y-99950000D02*
X123370000Y-99950000D01*
X105228000Y-99990000D02*
X123372000Y-99990000D01*
X105227000Y-100030000D02*
X123373000Y-100030000D01*
X105225000Y-100070000D02*
X123375000Y-100070000D01*
X105224000Y-100110000D02*
X123376000Y-100110000D01*
X105223000Y-100150000D02*
X123377000Y-100150000D01*
X105222000Y-100190000D02*
X123378000Y-100190000D01*
X105221000Y-100230000D02*
X123379000Y-100230000D01*
X105220000Y-100270000D02*
X123380000Y-100270000D01*
X105220000Y-100310000D02*
X123380000Y-100310000D01*
X105220000Y-100350000D02*
X123380000Y-100350000D01*
X105219000Y-100390000D02*
X123381000Y-100390000D01*
X123420000Y-100390000D02*
G75*
G03X123420000Y-100390000I-9120000J0D01*
G01*
X123420000Y-78800000D02*
G75*
G03X123420000Y-78800000I-9120000J0D01*
G01*
X105219000Y-78800000D02*
X123381000Y-78800000D01*
X105220000Y-78760000D02*
X123380000Y-78760000D01*
X105220000Y-78720000D02*
X123380000Y-78720000D01*
X105220000Y-78680000D02*
X123380000Y-78680000D01*
X105221000Y-78640000D02*
X123379000Y-78640000D01*
X105222000Y-78600000D02*
X123378000Y-78600000D01*
X105223000Y-78560000D02*
X123377000Y-78560000D01*
X105224000Y-78520000D02*
X123376000Y-78520000D01*
X105225000Y-78480000D02*
X123375000Y-78480000D01*
X105227000Y-78440000D02*
X123373000Y-78440000D01*
X105228000Y-78400000D02*
X123372000Y-78400000D01*
X105230000Y-78360000D02*
X123370000Y-78360000D01*
X105232000Y-78320000D02*
X123368000Y-78320000D01*
X105234000Y-78280000D02*
X123366000Y-78280000D01*
X105237000Y-78240000D02*
X123363000Y-78240000D01*
X105239000Y-78200000D02*
X123361000Y-78200000D01*
X105242000Y-78160000D02*
X123358000Y-78160000D01*
X105245000Y-78120000D02*
X123355000Y-78120000D01*
X105248000Y-78079000D02*
X123352000Y-78079000D01*
X105251000Y-78039000D02*
X123349000Y-78039000D01*
X105255000Y-77999000D02*
X123345000Y-77999000D01*
X105258000Y-77959000D02*
X123342000Y-77959000D01*
X105262000Y-77919000D02*
X123338000Y-77919000D01*
X105266000Y-77879000D02*
X123334000Y-77879000D01*
X105270000Y-77839000D02*
X123330000Y-77839000D01*
X105274000Y-77799000D02*
X123326000Y-77799000D01*
X105279000Y-77759000D02*
X123321000Y-77759000D01*
X105284000Y-77719000D02*
X123316000Y-77719000D01*
X105289000Y-77679000D02*
X123311000Y-77679000D01*
X105294000Y-77639000D02*
X123306000Y-77639000D01*
X105299000Y-77599000D02*
X123301000Y-77599000D01*
X105304000Y-77559000D02*
X123296000Y-77559000D01*
X105310000Y-77519000D02*
X123290000Y-77519000D01*
X105316000Y-77479000D02*
X123284000Y-77479000D01*
X105321000Y-77439000D02*
X123279000Y-77439000D01*
X105328000Y-77399000D02*
X123272000Y-77399000D01*
X105334000Y-77359000D02*
X123266000Y-77359000D01*
X105340000Y-77319000D02*
X123260000Y-77319000D01*
X105347000Y-77279000D02*
X123253000Y-77279000D01*
X105354000Y-77239000D02*
X123246000Y-77239000D01*
X105361000Y-77199000D02*
X123239000Y-77199000D01*
X105368000Y-77159000D02*
X123232000Y-77159000D01*
X105376000Y-77119000D02*
X123224000Y-77119000D01*
X105383000Y-77079000D02*
X123217000Y-77079000D01*
X105391000Y-77039000D02*
X123209000Y-77039000D01*
X105399000Y-76999000D02*
X123201000Y-76999000D01*
X105407000Y-76959000D02*
X123193000Y-76959000D01*
X105415000Y-76919000D02*
X123185000Y-76919000D01*
X105424000Y-76879000D02*
X123176000Y-76879000D01*
X105433000Y-76839000D02*
X123167000Y-76839000D01*
X105442000Y-76799000D02*
X123158000Y-76799000D01*
X105451000Y-76759000D02*
X123149000Y-76759000D01*
X105460000Y-76719000D02*
X123140000Y-76719000D01*
X105469000Y-76679000D02*
X123131000Y-76679000D01*
X105479000Y-76639000D02*
X123121000Y-76639000D01*
X105489000Y-76599000D02*
X123111000Y-76599000D01*
X105499000Y-76559000D02*
X123101000Y-76559000D01*
X105509000Y-76519000D02*
X123091000Y-76519000D01*
X105520000Y-76479000D02*
X112860000Y-76479000D01*
X115740000Y-76479000D02*
X123080000Y-76479000D01*
X105530000Y-76439000D02*
X112860000Y-76439000D01*
X115740000Y-76439000D02*
X123070000Y-76439000D01*
X105541000Y-76399000D02*
X112860000Y-76399000D01*
X115740000Y-76399000D02*
X123059000Y-76399000D01*
X105552000Y-76359000D02*
X112860000Y-76359000D01*
X115740000Y-76359000D02*
X123048000Y-76359000D01*
X105563000Y-76319000D02*
X112860000Y-76319000D01*
X115740000Y-76319000D02*
X123037000Y-76319000D01*
X105575000Y-76279000D02*
X112860000Y-76279000D01*
X115740000Y-76279000D02*
X123025000Y-76279000D01*
X105586000Y-76239000D02*
X112860000Y-76239000D01*
X115740000Y-76239000D02*
X123014000Y-76239000D01*
X105598000Y-76199000D02*
X112860000Y-76199000D01*
X115740000Y-76199000D02*
X123002000Y-76199000D01*
X105610000Y-76159000D02*
X112860000Y-76159000D01*
X115740000Y-76159000D02*
X122990000Y-76159000D01*
X105622000Y-76119000D02*
X112860000Y-76119000D01*
X115740000Y-76119000D02*
X122978000Y-76119000D01*
X105635000Y-76079000D02*
X112860000Y-76079000D01*
X115740000Y-76079000D02*
X122965000Y-76079000D01*
X105647000Y-76039000D02*
X112860000Y-76039000D01*
X115740000Y-76039000D02*
X122953000Y-76039000D01*
X105660000Y-75999000D02*
X112860000Y-75999000D01*
X115740000Y-75999000D02*
X122940000Y-75999000D01*
X105673000Y-75959000D02*
X112860000Y-75959000D01*
X115740000Y-75959000D02*
X122927000Y-75959000D01*
X105686000Y-75919000D02*
X112860000Y-75919000D01*
X115740000Y-75919000D02*
X122914000Y-75919000D01*
X105700000Y-75879000D02*
X112860000Y-75879000D01*
X115740000Y-75879000D02*
X122900000Y-75879000D01*
X105713000Y-75839000D02*
X112860000Y-75839000D01*
X115740000Y-75839000D02*
X122887000Y-75839000D01*
X105727000Y-75799000D02*
X112860000Y-75799000D01*
X115740000Y-75799000D02*
X122873000Y-75799000D01*
X105741000Y-75759000D02*
X112860000Y-75759000D01*
X115740000Y-75759000D02*
X122859000Y-75759000D01*
X105755000Y-75719000D02*
X112860000Y-75719000D01*
X115740000Y-75719000D02*
X122845000Y-75719000D01*
X105770000Y-75679000D02*
X112860000Y-75679000D01*
X115740000Y-75679000D02*
X122830000Y-75679000D01*
X105784000Y-75639000D02*
X112860000Y-75639000D01*
X115740000Y-75639000D02*
X122816000Y-75639000D01*
X105799000Y-75599000D02*
X112860000Y-75599000D01*
X115740000Y-75599000D02*
X122801000Y-75599000D01*
X105814000Y-75559000D02*
X112860000Y-75559000D01*
X115740000Y-75559000D02*
X122786000Y-75559000D01*
X105830000Y-75519000D02*
X112860000Y-75519000D01*
X115740000Y-75519000D02*
X122770000Y-75519000D01*
X105845000Y-75479000D02*
X112860000Y-75479000D01*
X115740000Y-75479000D02*
X122755000Y-75479000D01*
X105861000Y-75439000D02*
X112860000Y-75439000D01*
X115740000Y-75439000D02*
X122739000Y-75439000D01*
X105877000Y-75399000D02*
X112860000Y-75399000D01*
X115740000Y-75399000D02*
X122723000Y-75399000D01*
X105893000Y-75359000D02*
X112860000Y-75359000D01*
X115740000Y-75359000D02*
X122707000Y-75359000D01*
X105910000Y-75319000D02*
X112860000Y-75319000D01*
X115740000Y-75319000D02*
X122690000Y-75319000D01*
X105926000Y-75279000D02*
X112860000Y-75279000D01*
X115740000Y-75279000D02*
X122674000Y-75279000D01*
X105943000Y-75239000D02*
X112860000Y-75239000D01*
X115740000Y-75239000D02*
X122657000Y-75239000D01*
X105960000Y-75199000D02*
X112860000Y-75199000D01*
X115740000Y-75199000D02*
X122640000Y-75199000D01*
X105977000Y-75159000D02*
X112860000Y-75159000D01*
X115740000Y-75159000D02*
X122623000Y-75159000D01*
X105995000Y-75119000D02*
X112860000Y-75119000D01*
X115740000Y-75119000D02*
X122605000Y-75119000D01*
X106013000Y-75079000D02*
X112860000Y-75079000D01*
X115740000Y-75079000D02*
X122587000Y-75079000D01*
X106031000Y-75039000D02*
X112860000Y-75039000D01*
X115740000Y-75039000D02*
X122569000Y-75039000D01*
X106049000Y-74999000D02*
X112860000Y-74999000D01*
X115740000Y-74999000D02*
X122551000Y-74999000D01*
X106067000Y-74959000D02*
X112860000Y-74959000D01*
X115740000Y-74959000D02*
X122533000Y-74959000D01*
X106086000Y-74919000D02*
X112860000Y-74919000D01*
X115740000Y-74919000D02*
X122514000Y-74919000D01*
X106105000Y-74879000D02*
X112860000Y-74879000D01*
X115740000Y-74879000D02*
X122495000Y-74879000D01*
X106124000Y-74839000D02*
X112860000Y-74839000D01*
X115740000Y-74839000D02*
X122476000Y-74839000D01*
X106144000Y-74799000D02*
X112860000Y-74799000D01*
X115740000Y-74799000D02*
X122456000Y-74799000D01*
X106163000Y-74759000D02*
X112860000Y-74759000D01*
X115740000Y-74759000D02*
X122437000Y-74759000D01*
X106183000Y-74719000D02*
X112860000Y-74719000D01*
X115740000Y-74719000D02*
X122417000Y-74719000D01*
X106203000Y-74679000D02*
X112860000Y-74679000D01*
X115740000Y-74679000D02*
X122397000Y-74679000D01*
X106224000Y-74639000D02*
X112860000Y-74639000D01*
X115740000Y-74639000D02*
X122376000Y-74639000D01*
X106244000Y-74599000D02*
X112860000Y-74599000D01*
X115740000Y-74599000D02*
X122356000Y-74599000D01*
X106265000Y-74559000D02*
X112860000Y-74559000D01*
X115740000Y-74559000D02*
X122335000Y-74559000D01*
X106286000Y-74519000D02*
X112860000Y-74519000D01*
X115740000Y-74519000D02*
X122314000Y-74519000D01*
X106308000Y-74479000D02*
X112860000Y-74479000D01*
X115740000Y-74479000D02*
X122292000Y-74479000D01*
X106329000Y-74439000D02*
X112860000Y-74439000D01*
X115740000Y-74439000D02*
X122271000Y-74439000D01*
X106351000Y-74399000D02*
X112860000Y-74399000D01*
X115740000Y-74399000D02*
X122249000Y-74399000D01*
X106373000Y-74359000D02*
X112860000Y-74359000D01*
X115740000Y-74359000D02*
X122227000Y-74359000D01*
X106396000Y-74319000D02*
X112860000Y-74319000D01*
X115740000Y-74319000D02*
X122204000Y-74319000D01*
X106418000Y-74279000D02*
X112860000Y-74279000D01*
X115740000Y-74279000D02*
X122182000Y-74279000D01*
X106441000Y-74239000D02*
X112860000Y-74239000D01*
X115740000Y-74239000D02*
X122159000Y-74239000D01*
X106465000Y-74199000D02*
X112860000Y-74199000D01*
X115740000Y-74199000D02*
X122135000Y-74199000D01*
X106488000Y-74159000D02*
X112860000Y-74159000D01*
X115740000Y-74159000D02*
X122112000Y-74159000D01*
X106512000Y-74119000D02*
X112860000Y-74119000D01*
X115740000Y-74119000D02*
X122088000Y-74119000D01*
X106536000Y-74079000D02*
X112860000Y-74079000D01*
X115740000Y-74079000D02*
X122064000Y-74079000D01*
X106560000Y-74039000D02*
X112860000Y-74039000D01*
X115740000Y-74039000D02*
X122040000Y-74039000D01*
X106585000Y-73999000D02*
X112860000Y-73999000D01*
X115740000Y-73999000D02*
X122015000Y-73999000D01*
X106610000Y-73959000D02*
X112860000Y-73959000D01*
X115740000Y-73959000D02*
X121990000Y-73959000D01*
X106635000Y-73919000D02*
X112860000Y-73919000D01*
X115740000Y-73919000D02*
X121965000Y-73919000D01*
X106660000Y-73879000D02*
X112860000Y-73879000D01*
X115740000Y-73879000D02*
X121940000Y-73879000D01*
X106686000Y-73839000D02*
X112860000Y-73839000D01*
X115740000Y-73839000D02*
X121914000Y-73839000D01*
X106712000Y-73799000D02*
X112860000Y-73799000D01*
X115740000Y-73799000D02*
X121888000Y-73799000D01*
X106739000Y-73759000D02*
X112860000Y-73759000D01*
X115740000Y-73759000D02*
X121861000Y-73759000D01*
X106765000Y-73719000D02*
X112860000Y-73719000D01*
X115740000Y-73719000D02*
X121835000Y-73719000D01*
X106792000Y-73679000D02*
X112860000Y-73679000D01*
X115740000Y-73679000D02*
X121808000Y-73679000D01*
X106820000Y-73639000D02*
X112860000Y-73639000D01*
X115740000Y-73639000D02*
X121780000Y-73639000D01*
X106847000Y-73599000D02*
X121753000Y-73599000D01*
X106875000Y-73559000D02*
X121725000Y-73559000D01*
X106903000Y-73519000D02*
X121697000Y-73519000D01*
X106932000Y-73479000D02*
X121668000Y-73479000D01*
X106961000Y-73439000D02*
X121639000Y-73439000D01*
X106990000Y-73399000D02*
X121610000Y-73399000D01*
X107020000Y-73359000D02*
X121580000Y-73359000D01*
X107050000Y-73319000D02*
X121550000Y-73319000D01*
X107080000Y-73279000D02*
X121520000Y-73279000D01*
X107110000Y-73239000D02*
X121490000Y-73239000D01*
X107141000Y-73199000D02*
X121459000Y-73199000D01*
X107173000Y-73159000D02*
X121427000Y-73159000D01*
X107204000Y-73119000D02*
X121396000Y-73119000D01*
X107236000Y-73079000D02*
X121364000Y-73079000D01*
X107269000Y-73039000D02*
X121331000Y-73039000D01*
X107301000Y-72999000D02*
X121299000Y-72999000D01*
X107335000Y-72959000D02*
X121265000Y-72959000D01*
X107368000Y-72919000D02*
X121232000Y-72919000D01*
X107402000Y-72879000D02*
X121198000Y-72879000D01*
X107436000Y-72839000D02*
X121164000Y-72839000D01*
X107471000Y-72799000D02*
X121129000Y-72799000D01*
X107506000Y-72759000D02*
X121094000Y-72759000D01*
X107542000Y-72719000D02*
X121058000Y-72719000D01*
X107578000Y-72679000D02*
X121022000Y-72679000D01*
X107614000Y-72639000D02*
X120986000Y-72639000D01*
X107651000Y-72599000D02*
X120949000Y-72599000D01*
X107688000Y-72559000D02*
X120912000Y-72559000D01*
X107726000Y-72519000D02*
X120874000Y-72519000D01*
X107764000Y-72479000D02*
X120836000Y-72479000D01*
X107803000Y-72439000D02*
X120797000Y-72439000D01*
X107842000Y-72399000D02*
X120758000Y-72399000D01*
X107882000Y-72359000D02*
X120718000Y-72359000D01*
X107922000Y-72319000D02*
X120678000Y-72319000D01*
X107963000Y-72279000D02*
X120637000Y-72279000D01*
X108004000Y-72239000D02*
X120596000Y-72239000D01*
X108046000Y-72199000D02*
X120554000Y-72199000D01*
X108088000Y-72159000D02*
X120512000Y-72159000D01*
X108130000Y-72119000D02*
X120470000Y-72119000D01*
X108174000Y-72079000D02*
X120426000Y-72079000D01*
X108218000Y-72039000D02*
X120382000Y-72039000D01*
X108262000Y-71999000D02*
X120338000Y-71999000D01*
X108307000Y-71959000D02*
X120293000Y-71959000D01*
X108353000Y-71919000D02*
X120247000Y-71919000D01*
X108399000Y-71879000D02*
X120201000Y-71879000D01*
X108446000Y-71839000D02*
X120154000Y-71839000D01*
X108494000Y-71799000D02*
X120106000Y-71799000D01*
X108542000Y-71759000D02*
X120058000Y-71759000D01*
X108591000Y-71719000D02*
X120009000Y-71719000D01*
X108640000Y-71679000D02*
X119960000Y-71679000D01*
X108691000Y-71639000D02*
X119909000Y-71639000D01*
X108742000Y-71599000D02*
X119858000Y-71599000D01*
X108794000Y-71559000D02*
X119806000Y-71559000D01*
X108846000Y-71519000D02*
X119754000Y-71519000D01*
X108900000Y-71479000D02*
X119700000Y-71479000D01*
X108954000Y-71439000D02*
X119646000Y-71439000D01*
X109009000Y-71399000D02*
X119591000Y-71399000D01*
X109065000Y-71359000D02*
X119535000Y-71359000D01*
X109122000Y-71319000D02*
X119478000Y-71319000D01*
X109180000Y-71279000D02*
X119420000Y-71279000D01*
X109238000Y-71239000D02*
X119362000Y-71239000D01*
X109298000Y-71199000D02*
X119302000Y-71199000D01*
X109359000Y-71159000D02*
X119241000Y-71159000D01*
X109421000Y-71119000D02*
X119179000Y-71119000D01*
X109484000Y-71079000D02*
X119116000Y-71079000D01*
X109548000Y-71039000D02*
X119052000Y-71039000D01*
X109614000Y-70999000D02*
X118986000Y-70999000D01*
X109680000Y-70959000D02*
X118920000Y-70959000D01*
X109748000Y-70919000D02*
X118852000Y-70919000D01*
X109818000Y-70879000D02*
X118782000Y-70879000D01*
X109888000Y-70839000D02*
X118712000Y-70839000D01*
X109961000Y-70799000D02*
X118639000Y-70799000D01*
X110035000Y-70759000D02*
X118565000Y-70759000D01*
X110110000Y-70719000D02*
X118490000Y-70719000D01*
X110187000Y-70679000D02*
X118413000Y-70679000D01*
X110267000Y-70639000D02*
X118333000Y-70639000D01*
X110348000Y-70600000D02*
X118252000Y-70600000D01*
X110431000Y-70560000D02*
X118169000Y-70560000D01*
X110516000Y-70520000D02*
X118084000Y-70520000D01*
X110604000Y-70480000D02*
X117996000Y-70480000D01*
X110695000Y-70440000D02*
X117905000Y-70440000D01*
X110788000Y-70400000D02*
X117812000Y-70400000D01*
X110884000Y-70360000D02*
X117716000Y-70360000D01*
X110983000Y-70320000D02*
X117617000Y-70320000D01*
X111086000Y-70280000D02*
X117514000Y-70280000D01*
X111193000Y-70240000D02*
X117407000Y-70240000D01*
X111304000Y-70200000D02*
X117296000Y-70200000D01*
X111420000Y-70160000D02*
X117180000Y-70160000D01*
X111541000Y-70120000D02*
X117059000Y-70120000D01*
X111668000Y-70080000D02*
X116932000Y-70080000D01*
X111802000Y-70040000D02*
X116798000Y-70040000D01*
X111945000Y-70000000D02*
X116655000Y-70000000D01*
X112097000Y-69960000D02*
X116503000Y-69960000D01*
X112261000Y-69920000D02*
X116339000Y-69920000D01*
X112440000Y-69880000D02*
X116160000Y-69880000D01*
X112639000Y-69840000D02*
X115961000Y-69840000D01*
X112865000Y-69800000D02*
X115735000Y-69800000D01*
X113134000Y-69760000D02*
X115466000Y-69760000D01*
X113486000Y-69720000D02*
X115114000Y-69720000D01*
X114260000Y-69680000D02*
X114340000Y-69680000D01*
X109185000Y-88559440D02*
X109185000Y-86759440D01*
X108285000Y-87659440D02*
X110085000Y-87659440D01*
X131145000Y-109249440D02*
X132945000Y-109249440D01*
X132045000Y-110149440D02*
X132045000Y-108349440D01*
X137120000Y-91270000D02*
X137200000Y-91270000D01*
X136346000Y-91310000D02*
X137974000Y-91310000D01*
X135994000Y-91350000D02*
X138326000Y-91350000D01*
X135725000Y-91390000D02*
X138595000Y-91390000D01*
X135499000Y-91430000D02*
X138821000Y-91430000D01*
X135300000Y-91470000D02*
X139020000Y-91470000D01*
X135121000Y-91510000D02*
X139199000Y-91510000D01*
X134957000Y-91550000D02*
X139363000Y-91550000D01*
X134805000Y-91590000D02*
X139515000Y-91590000D01*
X134662000Y-91630000D02*
X139658000Y-91630000D01*
X134528000Y-91670000D02*
X139792000Y-91670000D01*
X134401000Y-91710000D02*
X139919000Y-91710000D01*
X134280000Y-91750000D02*
X140040000Y-91750000D01*
X134164000Y-91790000D02*
X140156000Y-91790000D01*
X134053000Y-91830000D02*
X140267000Y-91830000D01*
X133946000Y-91870000D02*
X140374000Y-91870000D01*
X133843000Y-91910000D02*
X140477000Y-91910000D01*
X133744000Y-91950000D02*
X140576000Y-91950000D01*
X133648000Y-91990000D02*
X140672000Y-91990000D01*
X133555000Y-92030000D02*
X140765000Y-92030000D01*
X133464000Y-92070000D02*
X140856000Y-92070000D01*
X133376000Y-92110000D02*
X140944000Y-92110000D01*
X133291000Y-92150000D02*
X141029000Y-92150000D01*
X133208000Y-92190000D02*
X141112000Y-92190000D01*
X133127000Y-92229000D02*
X141193000Y-92229000D01*
X133047000Y-92269000D02*
X141273000Y-92269000D01*
X132970000Y-92309000D02*
X141350000Y-92309000D01*
X132895000Y-92349000D02*
X141425000Y-92349000D01*
X132821000Y-92389000D02*
X141499000Y-92389000D01*
X132748000Y-92429000D02*
X141572000Y-92429000D01*
X132678000Y-92469000D02*
X141642000Y-92469000D01*
X132608000Y-92509000D02*
X141712000Y-92509000D01*
X132540000Y-92549000D02*
X141780000Y-92549000D01*
X132474000Y-92589000D02*
X141846000Y-92589000D01*
X132408000Y-92629000D02*
X141912000Y-92629000D01*
X132344000Y-92669000D02*
X141976000Y-92669000D01*
X132281000Y-92709000D02*
X142039000Y-92709000D01*
X132219000Y-92749000D02*
X142101000Y-92749000D01*
X132158000Y-92789000D02*
X142162000Y-92789000D01*
X132098000Y-92829000D02*
X142222000Y-92829000D01*
X132040000Y-92869000D02*
X142280000Y-92869000D01*
X131982000Y-92909000D02*
X142338000Y-92909000D01*
X131925000Y-92949000D02*
X142395000Y-92949000D01*
X131869000Y-92989000D02*
X142451000Y-92989000D01*
X131814000Y-93029000D02*
X142506000Y-93029000D01*
X131760000Y-93069000D02*
X142560000Y-93069000D01*
X131706000Y-93109000D02*
X142614000Y-93109000D01*
X131654000Y-93149000D02*
X142666000Y-93149000D01*
X131602000Y-93189000D02*
X142718000Y-93189000D01*
X131551000Y-93229000D02*
X142769000Y-93229000D01*
X131500000Y-93269000D02*
X142820000Y-93269000D01*
X131451000Y-93309000D02*
X142869000Y-93309000D01*
X131402000Y-93349000D02*
X142918000Y-93349000D01*
X131354000Y-93389000D02*
X142966000Y-93389000D01*
X131306000Y-93429000D02*
X143014000Y-93429000D01*
X131259000Y-93469000D02*
X143061000Y-93469000D01*
X131213000Y-93509000D02*
X143107000Y-93509000D01*
X131167000Y-93549000D02*
X143153000Y-93549000D01*
X131122000Y-93589000D02*
X143198000Y-93589000D01*
X131078000Y-93629000D02*
X143242000Y-93629000D01*
X131034000Y-93669000D02*
X143286000Y-93669000D01*
X130990000Y-93709000D02*
X143330000Y-93709000D01*
X130948000Y-93749000D02*
X143372000Y-93749000D01*
X130906000Y-93789000D02*
X143414000Y-93789000D01*
X130864000Y-93829000D02*
X143456000Y-93829000D01*
X130823000Y-93869000D02*
X143497000Y-93869000D01*
X130782000Y-93909000D02*
X143538000Y-93909000D01*
X130742000Y-93949000D02*
X143578000Y-93949000D01*
X130702000Y-93989000D02*
X143618000Y-93989000D01*
X130663000Y-94029000D02*
X143657000Y-94029000D01*
X130624000Y-94069000D02*
X143696000Y-94069000D01*
X130586000Y-94109000D02*
X143734000Y-94109000D01*
X130548000Y-94149000D02*
X143772000Y-94149000D01*
X130511000Y-94189000D02*
X143809000Y-94189000D01*
X130474000Y-94229000D02*
X143846000Y-94229000D01*
X130438000Y-94269000D02*
X143882000Y-94269000D01*
X130402000Y-94309000D02*
X143918000Y-94309000D01*
X130366000Y-94349000D02*
X143954000Y-94349000D01*
X130331000Y-94389000D02*
X143989000Y-94389000D01*
X130296000Y-94429000D02*
X144024000Y-94429000D01*
X130262000Y-94469000D02*
X144058000Y-94469000D01*
X130228000Y-94509000D02*
X144092000Y-94509000D01*
X130195000Y-94549000D02*
X144125000Y-94549000D01*
X130161000Y-94589000D02*
X144159000Y-94589000D01*
X130129000Y-94629000D02*
X144191000Y-94629000D01*
X130096000Y-94669000D02*
X144224000Y-94669000D01*
X130064000Y-94709000D02*
X144256000Y-94709000D01*
X130033000Y-94749000D02*
X144287000Y-94749000D01*
X130001000Y-94789000D02*
X144319000Y-94789000D01*
X129970000Y-94829000D02*
X144350000Y-94829000D01*
X129940000Y-94869000D02*
X144380000Y-94869000D01*
X129910000Y-94909000D02*
X144410000Y-94909000D01*
X129880000Y-94949000D02*
X144440000Y-94949000D01*
X129850000Y-94989000D02*
X144470000Y-94989000D01*
X129821000Y-95029000D02*
X144499000Y-95029000D01*
X129792000Y-95069000D02*
X144528000Y-95069000D01*
X129763000Y-95109000D02*
X144557000Y-95109000D01*
X129735000Y-95149000D02*
X144585000Y-95149000D01*
X129707000Y-95189000D02*
X144613000Y-95189000D01*
X138600000Y-95229000D02*
X144640000Y-95229000D01*
X129680000Y-95229000D02*
X135720000Y-95229000D01*
X138600000Y-95269000D02*
X144668000Y-95269000D01*
X129652000Y-95269000D02*
X135720000Y-95269000D01*
X138600000Y-95309000D02*
X144695000Y-95309000D01*
X129625000Y-95309000D02*
X135720000Y-95309000D01*
X138600000Y-95349000D02*
X144721000Y-95349000D01*
X129599000Y-95349000D02*
X135720000Y-95349000D01*
X138600000Y-95389000D02*
X144748000Y-95389000D01*
X129572000Y-95389000D02*
X135720000Y-95389000D01*
X138600000Y-95429000D02*
X144774000Y-95429000D01*
X129546000Y-95429000D02*
X135720000Y-95429000D01*
X138600000Y-95469000D02*
X144800000Y-95469000D01*
X129520000Y-95469000D02*
X135720000Y-95469000D01*
X138600000Y-95509000D02*
X144825000Y-95509000D01*
X129495000Y-95509000D02*
X135720000Y-95509000D01*
X138600000Y-95549000D02*
X144850000Y-95549000D01*
X129470000Y-95549000D02*
X135720000Y-95549000D01*
X138600000Y-95589000D02*
X144875000Y-95589000D01*
X129445000Y-95589000D02*
X135720000Y-95589000D01*
X138600000Y-95629000D02*
X144900000Y-95629000D01*
X129420000Y-95629000D02*
X135720000Y-95629000D01*
X138600000Y-95669000D02*
X144924000Y-95669000D01*
X129396000Y-95669000D02*
X135720000Y-95669000D01*
X138600000Y-95709000D02*
X144948000Y-95709000D01*
X129372000Y-95709000D02*
X135720000Y-95709000D01*
X138600000Y-95749000D02*
X144972000Y-95749000D01*
X129348000Y-95749000D02*
X135720000Y-95749000D01*
X138600000Y-95789000D02*
X144995000Y-95789000D01*
X129325000Y-95789000D02*
X135720000Y-95789000D01*
X138600000Y-95829000D02*
X145019000Y-95829000D01*
X129301000Y-95829000D02*
X135720000Y-95829000D01*
X138600000Y-95869000D02*
X145042000Y-95869000D01*
X129278000Y-95869000D02*
X135720000Y-95869000D01*
X138600000Y-95909000D02*
X145064000Y-95909000D01*
X129256000Y-95909000D02*
X135720000Y-95909000D01*
X138600000Y-95949000D02*
X145087000Y-95949000D01*
X129233000Y-95949000D02*
X135720000Y-95949000D01*
X138600000Y-95989000D02*
X145109000Y-95989000D01*
X129211000Y-95989000D02*
X135720000Y-95989000D01*
X138600000Y-96029000D02*
X145131000Y-96029000D01*
X129189000Y-96029000D02*
X135720000Y-96029000D01*
X138600000Y-96069000D02*
X145152000Y-96069000D01*
X129168000Y-96069000D02*
X135720000Y-96069000D01*
X138600000Y-96109000D02*
X145174000Y-96109000D01*
X129146000Y-96109000D02*
X135720000Y-96109000D01*
X138600000Y-96149000D02*
X145195000Y-96149000D01*
X129125000Y-96149000D02*
X135720000Y-96149000D01*
X138600000Y-96189000D02*
X145216000Y-96189000D01*
X129104000Y-96189000D02*
X135720000Y-96189000D01*
X138600000Y-96229000D02*
X145236000Y-96229000D01*
X129084000Y-96229000D02*
X135720000Y-96229000D01*
X138600000Y-96269000D02*
X145257000Y-96269000D01*
X129063000Y-96269000D02*
X135720000Y-96269000D01*
X138600000Y-96309000D02*
X145277000Y-96309000D01*
X129043000Y-96309000D02*
X135720000Y-96309000D01*
X138600000Y-96349000D02*
X145297000Y-96349000D01*
X129023000Y-96349000D02*
X135720000Y-96349000D01*
X138600000Y-96389000D02*
X145316000Y-96389000D01*
X129004000Y-96389000D02*
X135720000Y-96389000D01*
X138600000Y-96429000D02*
X145336000Y-96429000D01*
X128984000Y-96429000D02*
X135720000Y-96429000D01*
X138600000Y-96469000D02*
X145355000Y-96469000D01*
X128965000Y-96469000D02*
X135720000Y-96469000D01*
X138600000Y-96509000D02*
X145374000Y-96509000D01*
X128946000Y-96509000D02*
X135720000Y-96509000D01*
X138600000Y-96549000D02*
X145393000Y-96549000D01*
X128927000Y-96549000D02*
X135720000Y-96549000D01*
X138600000Y-96589000D02*
X145411000Y-96589000D01*
X128909000Y-96589000D02*
X135720000Y-96589000D01*
X138600000Y-96629000D02*
X145429000Y-96629000D01*
X128891000Y-96629000D02*
X135720000Y-96629000D01*
X138600000Y-96669000D02*
X145447000Y-96669000D01*
X128873000Y-96669000D02*
X135720000Y-96669000D01*
X138600000Y-96709000D02*
X145465000Y-96709000D01*
X128855000Y-96709000D02*
X135720000Y-96709000D01*
X138600000Y-96749000D02*
X145483000Y-96749000D01*
X128837000Y-96749000D02*
X135720000Y-96749000D01*
X138600000Y-96789000D02*
X145500000Y-96789000D01*
X128820000Y-96789000D02*
X135720000Y-96789000D01*
X138600000Y-96829000D02*
X145517000Y-96829000D01*
X128803000Y-96829000D02*
X135720000Y-96829000D01*
X138600000Y-96869000D02*
X145534000Y-96869000D01*
X128786000Y-96869000D02*
X135720000Y-96869000D01*
X138600000Y-96909000D02*
X145550000Y-96909000D01*
X128770000Y-96909000D02*
X135720000Y-96909000D01*
X138600000Y-96949000D02*
X145567000Y-96949000D01*
X128753000Y-96949000D02*
X135720000Y-96949000D01*
X138600000Y-96989000D02*
X145583000Y-96989000D01*
X128737000Y-96989000D02*
X135720000Y-96989000D01*
X138600000Y-97029000D02*
X145599000Y-97029000D01*
X128721000Y-97029000D02*
X135720000Y-97029000D01*
X138600000Y-97069000D02*
X145615000Y-97069000D01*
X128705000Y-97069000D02*
X135720000Y-97069000D01*
X138600000Y-97109000D02*
X145630000Y-97109000D01*
X128690000Y-97109000D02*
X135720000Y-97109000D01*
X138600000Y-97149000D02*
X145646000Y-97149000D01*
X128674000Y-97149000D02*
X135720000Y-97149000D01*
X138600000Y-97189000D02*
X145661000Y-97189000D01*
X128659000Y-97189000D02*
X135720000Y-97189000D01*
X138600000Y-97229000D02*
X145676000Y-97229000D01*
X128644000Y-97229000D02*
X135720000Y-97229000D01*
X138600000Y-97269000D02*
X145690000Y-97269000D01*
X128630000Y-97269000D02*
X135720000Y-97269000D01*
X138600000Y-97309000D02*
X145705000Y-97309000D01*
X128615000Y-97309000D02*
X135720000Y-97309000D01*
X138600000Y-97349000D02*
X145719000Y-97349000D01*
X128601000Y-97349000D02*
X135720000Y-97349000D01*
X138600000Y-97389000D02*
X145733000Y-97389000D01*
X128587000Y-97389000D02*
X135720000Y-97389000D01*
X138600000Y-97429000D02*
X145747000Y-97429000D01*
X128573000Y-97429000D02*
X135720000Y-97429000D01*
X138600000Y-97469000D02*
X145760000Y-97469000D01*
X128560000Y-97469000D02*
X135720000Y-97469000D01*
X138600000Y-97509000D02*
X145774000Y-97509000D01*
X128546000Y-97509000D02*
X135720000Y-97509000D01*
X138600000Y-97549000D02*
X145787000Y-97549000D01*
X128533000Y-97549000D02*
X135720000Y-97549000D01*
X138600000Y-97589000D02*
X145800000Y-97589000D01*
X128520000Y-97589000D02*
X135720000Y-97589000D01*
X138600000Y-97629000D02*
X145813000Y-97629000D01*
X128507000Y-97629000D02*
X135720000Y-97629000D01*
X138600000Y-97669000D02*
X145825000Y-97669000D01*
X128495000Y-97669000D02*
X135720000Y-97669000D01*
X138600000Y-97709000D02*
X145838000Y-97709000D01*
X128482000Y-97709000D02*
X135720000Y-97709000D01*
X138600000Y-97749000D02*
X145850000Y-97749000D01*
X128470000Y-97749000D02*
X135720000Y-97749000D01*
X138600000Y-97789000D02*
X145862000Y-97789000D01*
X128458000Y-97789000D02*
X135720000Y-97789000D01*
X138600000Y-97829000D02*
X145874000Y-97829000D01*
X128446000Y-97829000D02*
X135720000Y-97829000D01*
X138600000Y-97869000D02*
X145885000Y-97869000D01*
X128435000Y-97869000D02*
X135720000Y-97869000D01*
X138600000Y-97909000D02*
X145897000Y-97909000D01*
X128423000Y-97909000D02*
X135720000Y-97909000D01*
X138600000Y-97949000D02*
X145908000Y-97949000D01*
X128412000Y-97949000D02*
X135720000Y-97949000D01*
X138600000Y-97989000D02*
X145919000Y-97989000D01*
X128401000Y-97989000D02*
X135720000Y-97989000D01*
X138600000Y-98029000D02*
X145930000Y-98029000D01*
X128390000Y-98029000D02*
X135720000Y-98029000D01*
X138600000Y-98069000D02*
X145940000Y-98069000D01*
X128380000Y-98069000D02*
X135720000Y-98069000D01*
X128369000Y-98109000D02*
X145951000Y-98109000D01*
X128359000Y-98149000D02*
X145961000Y-98149000D01*
X128349000Y-98189000D02*
X145971000Y-98189000D01*
X128339000Y-98229000D02*
X145981000Y-98229000D01*
X128329000Y-98269000D02*
X145991000Y-98269000D01*
X128320000Y-98309000D02*
X146000000Y-98309000D01*
X128311000Y-98349000D02*
X146009000Y-98349000D01*
X128302000Y-98389000D02*
X146018000Y-98389000D01*
X128293000Y-98429000D02*
X146027000Y-98429000D01*
X128284000Y-98469000D02*
X146036000Y-98469000D01*
X128275000Y-98509000D02*
X146045000Y-98509000D01*
X128267000Y-98549000D02*
X146053000Y-98549000D01*
X128259000Y-98589000D02*
X146061000Y-98589000D01*
X128251000Y-98629000D02*
X146069000Y-98629000D01*
X128243000Y-98669000D02*
X146077000Y-98669000D01*
X128236000Y-98709000D02*
X146084000Y-98709000D01*
X128228000Y-98749000D02*
X146092000Y-98749000D01*
X128221000Y-98789000D02*
X146099000Y-98789000D01*
X128214000Y-98829000D02*
X146106000Y-98829000D01*
X128207000Y-98869000D02*
X146113000Y-98869000D01*
X128200000Y-98909000D02*
X146120000Y-98909000D01*
X128194000Y-98949000D02*
X146126000Y-98949000D01*
X128188000Y-98989000D02*
X146132000Y-98989000D01*
X128181000Y-99029000D02*
X146139000Y-99029000D01*
X128176000Y-99069000D02*
X146144000Y-99069000D01*
X128170000Y-99109000D02*
X146150000Y-99109000D01*
X128164000Y-99149000D02*
X146156000Y-99149000D01*
X128159000Y-99189000D02*
X146161000Y-99189000D01*
X128154000Y-99229000D02*
X146166000Y-99229000D01*
X128149000Y-99269000D02*
X146171000Y-99269000D01*
X128144000Y-99309000D02*
X146176000Y-99309000D01*
X128139000Y-99349000D02*
X146181000Y-99349000D01*
X128134000Y-99389000D02*
X146186000Y-99389000D01*
X128130000Y-99429000D02*
X146190000Y-99429000D01*
X128126000Y-99469000D02*
X146194000Y-99469000D01*
X128122000Y-99509000D02*
X146198000Y-99509000D01*
X128118000Y-99549000D02*
X146202000Y-99549000D01*
X128115000Y-99589000D02*
X146205000Y-99589000D01*
X128111000Y-99629000D02*
X146209000Y-99629000D01*
X128108000Y-99669000D02*
X146212000Y-99669000D01*
X128105000Y-99710000D02*
X146215000Y-99710000D01*
X128102000Y-99750000D02*
X146218000Y-99750000D01*
X128099000Y-99790000D02*
X146221000Y-99790000D01*
X128097000Y-99830000D02*
X146223000Y-99830000D01*
X128094000Y-99870000D02*
X146226000Y-99870000D01*
X128092000Y-99910000D02*
X146228000Y-99910000D01*
X128090000Y-99950000D02*
X146230000Y-99950000D01*
X128088000Y-99990000D02*
X146232000Y-99990000D01*
X128087000Y-100030000D02*
X146233000Y-100030000D01*
X128085000Y-100070000D02*
X146235000Y-100070000D01*
X128084000Y-100110000D02*
X146236000Y-100110000D01*
X128083000Y-100150000D02*
X146237000Y-100150000D01*
X128082000Y-100190000D02*
X146238000Y-100190000D01*
X128081000Y-100230000D02*
X146239000Y-100230000D01*
X128080000Y-100270000D02*
X146240000Y-100270000D01*
X128080000Y-100310000D02*
X146240000Y-100310000D01*
X128080000Y-100350000D02*
X146240000Y-100350000D01*
X128079000Y-100390000D02*
X146241000Y-100390000D01*
X146280000Y-100390000D02*
G75*
G03X146280000Y-100390000I-9120000J0D01*
G01*
X146280000Y-78800000D02*
G75*
G03X146280000Y-78800000I-9120000J0D01*
G01*
X128079000Y-78800000D02*
X146241000Y-78800000D01*
X128080000Y-78760000D02*
X146240000Y-78760000D01*
X128080000Y-78720000D02*
X146240000Y-78720000D01*
X128080000Y-78680000D02*
X146240000Y-78680000D01*
X128081000Y-78640000D02*
X146239000Y-78640000D01*
X128082000Y-78600000D02*
X146238000Y-78600000D01*
X128083000Y-78560000D02*
X146237000Y-78560000D01*
X128084000Y-78520000D02*
X146236000Y-78520000D01*
X128085000Y-78480000D02*
X146235000Y-78480000D01*
X128087000Y-78440000D02*
X146233000Y-78440000D01*
X128088000Y-78400000D02*
X146232000Y-78400000D01*
X128090000Y-78360000D02*
X146230000Y-78360000D01*
X128092000Y-78320000D02*
X146228000Y-78320000D01*
X128094000Y-78280000D02*
X146226000Y-78280000D01*
X128097000Y-78240000D02*
X146223000Y-78240000D01*
X128099000Y-78200000D02*
X146221000Y-78200000D01*
X128102000Y-78160000D02*
X146218000Y-78160000D01*
X128105000Y-78120000D02*
X146215000Y-78120000D01*
X128108000Y-78079000D02*
X146212000Y-78079000D01*
X128111000Y-78039000D02*
X146209000Y-78039000D01*
X128115000Y-77999000D02*
X146205000Y-77999000D01*
X128118000Y-77959000D02*
X146202000Y-77959000D01*
X128122000Y-77919000D02*
X146198000Y-77919000D01*
X128126000Y-77879000D02*
X146194000Y-77879000D01*
X128130000Y-77839000D02*
X146190000Y-77839000D01*
X128134000Y-77799000D02*
X146186000Y-77799000D01*
X128139000Y-77759000D02*
X146181000Y-77759000D01*
X128144000Y-77719000D02*
X146176000Y-77719000D01*
X128149000Y-77679000D02*
X146171000Y-77679000D01*
X128154000Y-77639000D02*
X146166000Y-77639000D01*
X128159000Y-77599000D02*
X146161000Y-77599000D01*
X128164000Y-77559000D02*
X146156000Y-77559000D01*
X128170000Y-77519000D02*
X146150000Y-77519000D01*
X128176000Y-77479000D02*
X146144000Y-77479000D01*
X128181000Y-77439000D02*
X146139000Y-77439000D01*
X128188000Y-77399000D02*
X146132000Y-77399000D01*
X128194000Y-77359000D02*
X146126000Y-77359000D01*
X128200000Y-77319000D02*
X146120000Y-77319000D01*
X128207000Y-77279000D02*
X146113000Y-77279000D01*
X128214000Y-77239000D02*
X146106000Y-77239000D01*
X128221000Y-77199000D02*
X146099000Y-77199000D01*
X128228000Y-77159000D02*
X146092000Y-77159000D01*
X128236000Y-77119000D02*
X146084000Y-77119000D01*
X128243000Y-77079000D02*
X146077000Y-77079000D01*
X128251000Y-77039000D02*
X146069000Y-77039000D01*
X128259000Y-76999000D02*
X146061000Y-76999000D01*
X128267000Y-76959000D02*
X146053000Y-76959000D01*
X128275000Y-76919000D02*
X146045000Y-76919000D01*
X128284000Y-76879000D02*
X146036000Y-76879000D01*
X128293000Y-76839000D02*
X146027000Y-76839000D01*
X128302000Y-76799000D02*
X146018000Y-76799000D01*
X128311000Y-76759000D02*
X146009000Y-76759000D01*
X128320000Y-76719000D02*
X146000000Y-76719000D01*
X128329000Y-76679000D02*
X145991000Y-76679000D01*
X128339000Y-76639000D02*
X145981000Y-76639000D01*
X128349000Y-76599000D02*
X145971000Y-76599000D01*
X128359000Y-76559000D02*
X145961000Y-76559000D01*
X128369000Y-76519000D02*
X145951000Y-76519000D01*
X128380000Y-76479000D02*
X135720000Y-76479000D01*
X138600000Y-76479000D02*
X145940000Y-76479000D01*
X128390000Y-76439000D02*
X135720000Y-76439000D01*
X138600000Y-76439000D02*
X145930000Y-76439000D01*
X128401000Y-76399000D02*
X135720000Y-76399000D01*
X138600000Y-76399000D02*
X145919000Y-76399000D01*
X128412000Y-76359000D02*
X135720000Y-76359000D01*
X138600000Y-76359000D02*
X145908000Y-76359000D01*
X128423000Y-76319000D02*
X135720000Y-76319000D01*
X138600000Y-76319000D02*
X145897000Y-76319000D01*
X128435000Y-76279000D02*
X135720000Y-76279000D01*
X138600000Y-76279000D02*
X145885000Y-76279000D01*
X128446000Y-76239000D02*
X135720000Y-76239000D01*
X138600000Y-76239000D02*
X145874000Y-76239000D01*
X128458000Y-76199000D02*
X135720000Y-76199000D01*
X138600000Y-76199000D02*
X145862000Y-76199000D01*
X128470000Y-76159000D02*
X135720000Y-76159000D01*
X138600000Y-76159000D02*
X145850000Y-76159000D01*
X128482000Y-76119000D02*
X135720000Y-76119000D01*
X138600000Y-76119000D02*
X145838000Y-76119000D01*
X128495000Y-76079000D02*
X135720000Y-76079000D01*
X138600000Y-76079000D02*
X145825000Y-76079000D01*
X128507000Y-76039000D02*
X135720000Y-76039000D01*
X138600000Y-76039000D02*
X145813000Y-76039000D01*
X128520000Y-75999000D02*
X135720000Y-75999000D01*
X138600000Y-75999000D02*
X145800000Y-75999000D01*
X128533000Y-75959000D02*
X135720000Y-75959000D01*
X138600000Y-75959000D02*
X145787000Y-75959000D01*
X128546000Y-75919000D02*
X135720000Y-75919000D01*
X138600000Y-75919000D02*
X145774000Y-75919000D01*
X128560000Y-75879000D02*
X135720000Y-75879000D01*
X138600000Y-75879000D02*
X145760000Y-75879000D01*
X128573000Y-75839000D02*
X135720000Y-75839000D01*
X138600000Y-75839000D02*
X145747000Y-75839000D01*
X128587000Y-75799000D02*
X135720000Y-75799000D01*
X138600000Y-75799000D02*
X145733000Y-75799000D01*
X128601000Y-75759000D02*
X135720000Y-75759000D01*
X138600000Y-75759000D02*
X145719000Y-75759000D01*
X128615000Y-75719000D02*
X135720000Y-75719000D01*
X138600000Y-75719000D02*
X145705000Y-75719000D01*
X128630000Y-75679000D02*
X135720000Y-75679000D01*
X138600000Y-75679000D02*
X145690000Y-75679000D01*
X128644000Y-75639000D02*
X135720000Y-75639000D01*
X138600000Y-75639000D02*
X145676000Y-75639000D01*
X128659000Y-75599000D02*
X135720000Y-75599000D01*
X138600000Y-75599000D02*
X145661000Y-75599000D01*
X128674000Y-75559000D02*
X135720000Y-75559000D01*
X138600000Y-75559000D02*
X145646000Y-75559000D01*
X128690000Y-75519000D02*
X135720000Y-75519000D01*
X138600000Y-75519000D02*
X145630000Y-75519000D01*
X128705000Y-75479000D02*
X135720000Y-75479000D01*
X138600000Y-75479000D02*
X145615000Y-75479000D01*
X128721000Y-75439000D02*
X135720000Y-75439000D01*
X138600000Y-75439000D02*
X145599000Y-75439000D01*
X128737000Y-75399000D02*
X135720000Y-75399000D01*
X138600000Y-75399000D02*
X145583000Y-75399000D01*
X128753000Y-75359000D02*
X135720000Y-75359000D01*
X138600000Y-75359000D02*
X145567000Y-75359000D01*
X128770000Y-75319000D02*
X135720000Y-75319000D01*
X138600000Y-75319000D02*
X145550000Y-75319000D01*
X128786000Y-75279000D02*
X135720000Y-75279000D01*
X138600000Y-75279000D02*
X145534000Y-75279000D01*
X128803000Y-75239000D02*
X135720000Y-75239000D01*
X138600000Y-75239000D02*
X145517000Y-75239000D01*
X128820000Y-75199000D02*
X135720000Y-75199000D01*
X138600000Y-75199000D02*
X145500000Y-75199000D01*
X128837000Y-75159000D02*
X135720000Y-75159000D01*
X138600000Y-75159000D02*
X145483000Y-75159000D01*
X128855000Y-75119000D02*
X135720000Y-75119000D01*
X138600000Y-75119000D02*
X145465000Y-75119000D01*
X128873000Y-75079000D02*
X135720000Y-75079000D01*
X138600000Y-75079000D02*
X145447000Y-75079000D01*
X128891000Y-75039000D02*
X135720000Y-75039000D01*
X138600000Y-75039000D02*
X145429000Y-75039000D01*
X128909000Y-74999000D02*
X135720000Y-74999000D01*
X138600000Y-74999000D02*
X145411000Y-74999000D01*
X128927000Y-74959000D02*
X135720000Y-74959000D01*
X138600000Y-74959000D02*
X145393000Y-74959000D01*
X128946000Y-74919000D02*
X135720000Y-74919000D01*
X138600000Y-74919000D02*
X145374000Y-74919000D01*
X128965000Y-74879000D02*
X135720000Y-74879000D01*
X138600000Y-74879000D02*
X145355000Y-74879000D01*
X128984000Y-74839000D02*
X135720000Y-74839000D01*
X138600000Y-74839000D02*
X145336000Y-74839000D01*
X129004000Y-74799000D02*
X135720000Y-74799000D01*
X138600000Y-74799000D02*
X145316000Y-74799000D01*
X129023000Y-74759000D02*
X135720000Y-74759000D01*
X138600000Y-74759000D02*
X145297000Y-74759000D01*
X129043000Y-74719000D02*
X135720000Y-74719000D01*
X138600000Y-74719000D02*
X145277000Y-74719000D01*
X129063000Y-74679000D02*
X135720000Y-74679000D01*
X138600000Y-74679000D02*
X145257000Y-74679000D01*
X129084000Y-74639000D02*
X135720000Y-74639000D01*
X138600000Y-74639000D02*
X145236000Y-74639000D01*
X129104000Y-74599000D02*
X135720000Y-74599000D01*
X138600000Y-74599000D02*
X145216000Y-74599000D01*
X129125000Y-74559000D02*
X135720000Y-74559000D01*
X138600000Y-74559000D02*
X145195000Y-74559000D01*
X129146000Y-74519000D02*
X135720000Y-74519000D01*
X138600000Y-74519000D02*
X145174000Y-74519000D01*
X129168000Y-74479000D02*
X135720000Y-74479000D01*
X138600000Y-74479000D02*
X145152000Y-74479000D01*
X129189000Y-74439000D02*
X135720000Y-74439000D01*
X138600000Y-74439000D02*
X145131000Y-74439000D01*
X129211000Y-74399000D02*
X135720000Y-74399000D01*
X138600000Y-74399000D02*
X145109000Y-74399000D01*
X129233000Y-74359000D02*
X135720000Y-74359000D01*
X138600000Y-74359000D02*
X145087000Y-74359000D01*
X129256000Y-74319000D02*
X135720000Y-74319000D01*
X138600000Y-74319000D02*
X145064000Y-74319000D01*
X129278000Y-74279000D02*
X135720000Y-74279000D01*
X138600000Y-74279000D02*
X145042000Y-74279000D01*
X129301000Y-74239000D02*
X135720000Y-74239000D01*
X138600000Y-74239000D02*
X145019000Y-74239000D01*
X129325000Y-74199000D02*
X135720000Y-74199000D01*
X138600000Y-74199000D02*
X144995000Y-74199000D01*
X129348000Y-74159000D02*
X135720000Y-74159000D01*
X138600000Y-74159000D02*
X144972000Y-74159000D01*
X129372000Y-74119000D02*
X135720000Y-74119000D01*
X138600000Y-74119000D02*
X144948000Y-74119000D01*
X129396000Y-74079000D02*
X135720000Y-74079000D01*
X138600000Y-74079000D02*
X144924000Y-74079000D01*
X129420000Y-74039000D02*
X135720000Y-74039000D01*
X138600000Y-74039000D02*
X144900000Y-74039000D01*
X129445000Y-73999000D02*
X135720000Y-73999000D01*
X138600000Y-73999000D02*
X144875000Y-73999000D01*
X129470000Y-73959000D02*
X135720000Y-73959000D01*
X138600000Y-73959000D02*
X144850000Y-73959000D01*
X129495000Y-73919000D02*
X135720000Y-73919000D01*
X138600000Y-73919000D02*
X144825000Y-73919000D01*
X129520000Y-73879000D02*
X135720000Y-73879000D01*
X138600000Y-73879000D02*
X144800000Y-73879000D01*
X129546000Y-73839000D02*
X135720000Y-73839000D01*
X138600000Y-73839000D02*
X144774000Y-73839000D01*
X129572000Y-73799000D02*
X135720000Y-73799000D01*
X138600000Y-73799000D02*
X144748000Y-73799000D01*
X129599000Y-73759000D02*
X135720000Y-73759000D01*
X138600000Y-73759000D02*
X144721000Y-73759000D01*
X129625000Y-73719000D02*
X135720000Y-73719000D01*
X138600000Y-73719000D02*
X144695000Y-73719000D01*
X129652000Y-73679000D02*
X135720000Y-73679000D01*
X138600000Y-73679000D02*
X144668000Y-73679000D01*
X129680000Y-73639000D02*
X135720000Y-73639000D01*
X138600000Y-73639000D02*
X144640000Y-73639000D01*
X129707000Y-73599000D02*
X144613000Y-73599000D01*
X129735000Y-73559000D02*
X144585000Y-73559000D01*
X129763000Y-73519000D02*
X144557000Y-73519000D01*
X129792000Y-73479000D02*
X144528000Y-73479000D01*
X129821000Y-73439000D02*
X144499000Y-73439000D01*
X129850000Y-73399000D02*
X144470000Y-73399000D01*
X129880000Y-73359000D02*
X144440000Y-73359000D01*
X129910000Y-73319000D02*
X144410000Y-73319000D01*
X129940000Y-73279000D02*
X144380000Y-73279000D01*
X129970000Y-73239000D02*
X144350000Y-73239000D01*
X130001000Y-73199000D02*
X144319000Y-73199000D01*
X130033000Y-73159000D02*
X144287000Y-73159000D01*
X130064000Y-73119000D02*
X144256000Y-73119000D01*
X130096000Y-73079000D02*
X144224000Y-73079000D01*
X130129000Y-73039000D02*
X144191000Y-73039000D01*
X130161000Y-72999000D02*
X144159000Y-72999000D01*
X130195000Y-72959000D02*
X144125000Y-72959000D01*
X130228000Y-72919000D02*
X144092000Y-72919000D01*
X130262000Y-72879000D02*
X144058000Y-72879000D01*
X130296000Y-72839000D02*
X144024000Y-72839000D01*
X130331000Y-72799000D02*
X143989000Y-72799000D01*
X130366000Y-72759000D02*
X143954000Y-72759000D01*
X130402000Y-72719000D02*
X143918000Y-72719000D01*
X130438000Y-72679000D02*
X143882000Y-72679000D01*
X130474000Y-72639000D02*
X143846000Y-72639000D01*
X130511000Y-72599000D02*
X143809000Y-72599000D01*
X130548000Y-72559000D02*
X143772000Y-72559000D01*
X130586000Y-72519000D02*
X143734000Y-72519000D01*
X130624000Y-72479000D02*
X143696000Y-72479000D01*
X130663000Y-72439000D02*
X143657000Y-72439000D01*
X130702000Y-72399000D02*
X143618000Y-72399000D01*
X130742000Y-72359000D02*
X143578000Y-72359000D01*
X130782000Y-72319000D02*
X143538000Y-72319000D01*
X130823000Y-72279000D02*
X143497000Y-72279000D01*
X130864000Y-72239000D02*
X143456000Y-72239000D01*
X130906000Y-72199000D02*
X143414000Y-72199000D01*
X130948000Y-72159000D02*
X143372000Y-72159000D01*
X130990000Y-72119000D02*
X143330000Y-72119000D01*
X131034000Y-72079000D02*
X143286000Y-72079000D01*
X131078000Y-72039000D02*
X143242000Y-72039000D01*
X131122000Y-71999000D02*
X143198000Y-71999000D01*
X131167000Y-71959000D02*
X143153000Y-71959000D01*
X131213000Y-71919000D02*
X143107000Y-71919000D01*
X131259000Y-71879000D02*
X143061000Y-71879000D01*
X131306000Y-71839000D02*
X143014000Y-71839000D01*
X131354000Y-71799000D02*
X142966000Y-71799000D01*
X131402000Y-71759000D02*
X142918000Y-71759000D01*
X131451000Y-71719000D02*
X142869000Y-71719000D01*
X131500000Y-71679000D02*
X142820000Y-71679000D01*
X131551000Y-71639000D02*
X142769000Y-71639000D01*
X131602000Y-71599000D02*
X142718000Y-71599000D01*
X131654000Y-71559000D02*
X142666000Y-71559000D01*
X131706000Y-71519000D02*
X142614000Y-71519000D01*
X131760000Y-71479000D02*
X142560000Y-71479000D01*
X131814000Y-71439000D02*
X142506000Y-71439000D01*
X131869000Y-71399000D02*
X142451000Y-71399000D01*
X131925000Y-71359000D02*
X142395000Y-71359000D01*
X131982000Y-71319000D02*
X142338000Y-71319000D01*
X132040000Y-71279000D02*
X142280000Y-71279000D01*
X132098000Y-71239000D02*
X142222000Y-71239000D01*
X132158000Y-71199000D02*
X142162000Y-71199000D01*
X132219000Y-71159000D02*
X142101000Y-71159000D01*
X132281000Y-71119000D02*
X142039000Y-71119000D01*
X132344000Y-71079000D02*
X141976000Y-71079000D01*
X132408000Y-71039000D02*
X141912000Y-71039000D01*
X132474000Y-70999000D02*
X141846000Y-70999000D01*
X132540000Y-70959000D02*
X141780000Y-70959000D01*
X132608000Y-70919000D02*
X141712000Y-70919000D01*
X132678000Y-70879000D02*
X141642000Y-70879000D01*
X132748000Y-70839000D02*
X141572000Y-70839000D01*
X132821000Y-70799000D02*
X141499000Y-70799000D01*
X132895000Y-70759000D02*
X141425000Y-70759000D01*
X132970000Y-70719000D02*
X141350000Y-70719000D01*
X133047000Y-70679000D02*
X141273000Y-70679000D01*
X133127000Y-70639000D02*
X141193000Y-70639000D01*
X133208000Y-70600000D02*
X141112000Y-70600000D01*
X133291000Y-70560000D02*
X141029000Y-70560000D01*
X133376000Y-70520000D02*
X140944000Y-70520000D01*
X133464000Y-70480000D02*
X140856000Y-70480000D01*
X133555000Y-70440000D02*
X140765000Y-70440000D01*
X133648000Y-70400000D02*
X140672000Y-70400000D01*
X133744000Y-70360000D02*
X140576000Y-70360000D01*
X133843000Y-70320000D02*
X140477000Y-70320000D01*
X133946000Y-70280000D02*
X140374000Y-70280000D01*
X134053000Y-70240000D02*
X140267000Y-70240000D01*
X134164000Y-70200000D02*
X140156000Y-70200000D01*
X134280000Y-70160000D02*
X140040000Y-70160000D01*
X134401000Y-70120000D02*
X139919000Y-70120000D01*
X134528000Y-70080000D02*
X139792000Y-70080000D01*
X134662000Y-70040000D02*
X139658000Y-70040000D01*
X134805000Y-70000000D02*
X139515000Y-70000000D01*
X134957000Y-69960000D02*
X139363000Y-69960000D01*
X135121000Y-69920000D02*
X139199000Y-69920000D01*
X135300000Y-69880000D02*
X139020000Y-69880000D01*
X135499000Y-69840000D02*
X138821000Y-69840000D01*
X135725000Y-69800000D02*
X138595000Y-69800000D01*
X135994000Y-69760000D02*
X138326000Y-69760000D01*
X136346000Y-69720000D02*
X137974000Y-69720000D01*
X137120000Y-69680000D02*
X137200000Y-69680000D01*
X132045000Y-88559440D02*
X132045000Y-86759440D01*
X131145000Y-87659440D02*
X132945000Y-87659440D01*
X149760000Y-98020000D02*
X152500000Y-98020000D01*
X149760000Y-105260000D02*
X152500000Y-105260000D01*
X152500000Y-105260000D02*
X152500000Y-98020000D01*
X149760000Y-105260000D02*
X149760000Y-98020000D01*
X149760000Y-81130000D02*
X149760000Y-73890000D01*
X152500000Y-81130000D02*
X152500000Y-73890000D01*
X149760000Y-81130000D02*
X152500000Y-81130000D01*
X149760000Y-73890000D02*
X152500000Y-73890000D01*
X94820000Y-97190000D02*
X94420000Y-97190000D01*
X94220000Y-102090000D02*
X94220000Y-100890000D01*
X95520000Y-102090000D02*
X94220000Y-102090000D01*
X98420000Y-97190000D02*
X101820000Y-97190000D01*
X94420000Y-101890000D02*
X101820000Y-101890000D01*
X94420000Y-78490000D02*
X94420000Y-101890000D01*
X101820000Y-78490000D02*
X94420000Y-78490000D01*
X101820000Y-101890000D02*
X101820000Y-78490000D01*
X165290000Y-96230000D02*
X165134000Y-96230000D01*
X167606000Y-96230000D02*
X167450000Y-96230000D01*
X165290163Y-98831130D02*
G75*
G02X165290000Y-96749039I1079837J1041130D01*
G01*
X167449837Y-98831130D02*
G75*
G03X167450000Y-96749039I-1079837J1041130D01*
G01*
X165291392Y-99462335D02*
G75*
G02X165134484Y-96230000I1078608J1672335D01*
G01*
X167448608Y-99462335D02*
G75*
G03X167605516Y-96230000I-1078608J1672335D01*
G01*
X165291392Y-74527665D02*
G75*
G03X165134484Y-77760000I1078608J-1672335D01*
G01*
X167448608Y-74527665D02*
G75*
G02X167605516Y-77760000I-1078608J-1672335D01*
G01*
X165290163Y-75158870D02*
G75*
G03X165290000Y-77240961I1079837J-1041130D01*
G01*
X167449837Y-75158870D02*
G75*
G02X167450000Y-77240961I-1079837J-1041130D01*
G01*
X165134000Y-77760000D02*
X165290000Y-77760000D01*
X167450000Y-77760000D02*
X167606000Y-77760000D01*
X90120000Y-81170000D02*
X77520000Y-81170000D01*
X77520000Y-81170000D02*
X77520000Y-96570000D01*
X77520000Y-96570000D02*
X78470000Y-96570000D01*
X78470000Y-96570000D02*
X78170000Y-97070000D01*
X78170000Y-97070000D02*
X80170000Y-97070000D01*
X80170000Y-97070000D02*
X79920000Y-96570000D01*
X79920000Y-96570000D02*
X85320000Y-96570000D01*
X85320000Y-96570000D02*
X85070000Y-97070000D01*
X85070000Y-97070000D02*
X90120000Y-97070000D01*
X90120000Y-97070000D02*
X90120000Y-81170000D01*
X172770000Y-80570000D02*
X172770000Y-96470000D01*
X177820000Y-80570000D02*
X172770000Y-80570000D01*
X177570000Y-81070000D02*
X177820000Y-80570000D01*
X182970000Y-81070000D02*
X177570000Y-81070000D01*
X182720000Y-80570000D02*
X182970000Y-81070000D01*
X184720000Y-80570000D02*
X182720000Y-80570000D01*
X184420000Y-81070000D02*
X184720000Y-80570000D01*
X185370000Y-81070000D02*
X184420000Y-81070000D01*
X185370000Y-96470000D02*
X185370000Y-81070000D01*
X172770000Y-96470000D02*
X185370000Y-96470000D01*
X158750000Y-95020000D02*
X158750000Y-95790000D01*
X158750000Y-103100000D02*
X158750000Y-102330000D01*
X157380000Y-95790000D02*
X157380000Y-102330000D01*
X160120000Y-95790000D02*
X157380000Y-95790000D01*
X160120000Y-102330000D02*
X160120000Y-95790000D01*
X157380000Y-102330000D02*
X160120000Y-102330000D01*
X157380000Y-83280000D02*
X160120000Y-83280000D01*
X160120000Y-83280000D02*
X160120000Y-76740000D01*
X160120000Y-76740000D02*
X157380000Y-76740000D01*
X157380000Y-76740000D02*
X157380000Y-83280000D01*
X158750000Y-84050000D02*
X158750000Y-83280000D01*
X158750000Y-75970000D02*
X158750000Y-76740000D01*
D10*
X104407142Y-100556666D02*
X104454761Y-100604285D01*
X104502380Y-100747142D01*
X104502380Y-100842380D01*
X104454761Y-100985238D01*
X104359523Y-101080476D01*
X104264285Y-101128095D01*
X104073809Y-101175714D01*
X103930952Y-101175714D01*
X103740476Y-101128095D01*
X103645238Y-101080476D01*
X103550000Y-100985238D01*
X103502380Y-100842380D01*
X103502380Y-100747142D01*
X103550000Y-100604285D01*
X103597619Y-100556666D01*
X104502380Y-99604285D02*
X104502380Y-100175714D01*
X104502380Y-99890000D02*
X103502380Y-99890000D01*
X103645238Y-99985238D01*
X103740476Y-100080476D01*
X103788095Y-100175714D01*
X104407142Y-78966666D02*
X104454761Y-79014285D01*
X104502380Y-79157142D01*
X104502380Y-79252380D01*
X104454761Y-79395238D01*
X104359523Y-79490476D01*
X104264285Y-79538095D01*
X104073809Y-79585714D01*
X103930952Y-79585714D01*
X103740476Y-79538095D01*
X103645238Y-79490476D01*
X103550000Y-79395238D01*
X103502380Y-79252380D01*
X103502380Y-79157142D01*
X103550000Y-79014285D01*
X103597619Y-78966666D01*
X103597619Y-78585714D02*
X103550000Y-78538095D01*
X103502380Y-78442857D01*
X103502380Y-78204761D01*
X103550000Y-78109523D01*
X103597619Y-78061904D01*
X103692857Y-78014285D01*
X103788095Y-78014285D01*
X103930952Y-78061904D01*
X104502380Y-78633333D01*
X104502380Y-78014285D01*
X127267142Y-100556666D02*
X127314761Y-100604285D01*
X127362380Y-100747142D01*
X127362380Y-100842380D01*
X127314761Y-100985238D01*
X127219523Y-101080476D01*
X127124285Y-101128095D01*
X126933809Y-101175714D01*
X126790952Y-101175714D01*
X126600476Y-101128095D01*
X126505238Y-101080476D01*
X126410000Y-100985238D01*
X126362380Y-100842380D01*
X126362380Y-100747142D01*
X126410000Y-100604285D01*
X126457619Y-100556666D01*
X126362380Y-100223333D02*
X126362380Y-99604285D01*
X126743333Y-99937619D01*
X126743333Y-99794761D01*
X126790952Y-99699523D01*
X126838571Y-99651904D01*
X126933809Y-99604285D01*
X127171904Y-99604285D01*
X127267142Y-99651904D01*
X127314761Y-99699523D01*
X127362380Y-99794761D01*
X127362380Y-100080476D01*
X127314761Y-100175714D01*
X127267142Y-100223333D01*
X127267142Y-78966666D02*
X127314761Y-79014285D01*
X127362380Y-79157142D01*
X127362380Y-79252380D01*
X127314761Y-79395238D01*
X127219523Y-79490476D01*
X127124285Y-79538095D01*
X126933809Y-79585714D01*
X126790952Y-79585714D01*
X126600476Y-79538095D01*
X126505238Y-79490476D01*
X126410000Y-79395238D01*
X126362380Y-79252380D01*
X126362380Y-79157142D01*
X126410000Y-79014285D01*
X126457619Y-78966666D01*
X126695714Y-78109523D02*
X127362380Y-78109523D01*
X126314761Y-78347619D02*
X127029047Y-78585714D01*
X127029047Y-77966666D01*
X148987142Y-101806666D02*
X149034761Y-101854285D01*
X149082380Y-101997142D01*
X149082380Y-102092380D01*
X149034761Y-102235238D01*
X148939523Y-102330476D01*
X148844285Y-102378095D01*
X148653809Y-102425714D01*
X148510952Y-102425714D01*
X148320476Y-102378095D01*
X148225238Y-102330476D01*
X148130000Y-102235238D01*
X148082380Y-102092380D01*
X148082380Y-101997142D01*
X148130000Y-101854285D01*
X148177619Y-101806666D01*
X148082380Y-100901904D02*
X148082380Y-101378095D01*
X148558571Y-101425714D01*
X148510952Y-101378095D01*
X148463333Y-101282857D01*
X148463333Y-101044761D01*
X148510952Y-100949523D01*
X148558571Y-100901904D01*
X148653809Y-100854285D01*
X148891904Y-100854285D01*
X148987142Y-100901904D01*
X149034761Y-100949523D01*
X149082380Y-101044761D01*
X149082380Y-101282857D01*
X149034761Y-101378095D01*
X148987142Y-101425714D01*
X148987142Y-77676666D02*
X149034761Y-77724285D01*
X149082380Y-77867142D01*
X149082380Y-77962380D01*
X149034761Y-78105238D01*
X148939523Y-78200476D01*
X148844285Y-78248095D01*
X148653809Y-78295714D01*
X148510952Y-78295714D01*
X148320476Y-78248095D01*
X148225238Y-78200476D01*
X148130000Y-78105238D01*
X148082380Y-77962380D01*
X148082380Y-77867142D01*
X148130000Y-77724285D01*
X148177619Y-77676666D01*
X148082380Y-76819523D02*
X148082380Y-77010000D01*
X148130000Y-77105238D01*
X148177619Y-77152857D01*
X148320476Y-77248095D01*
X148510952Y-77295714D01*
X148891904Y-77295714D01*
X148987142Y-77248095D01*
X149034761Y-77200476D01*
X149082380Y-77105238D01*
X149082380Y-76914761D01*
X149034761Y-76819523D01*
X148987142Y-76771904D01*
X148891904Y-76724285D01*
X148653809Y-76724285D01*
X148558571Y-76771904D01*
X148510952Y-76819523D01*
X148463333Y-76914761D01*
X148463333Y-77105238D01*
X148510952Y-77200476D01*
X148558571Y-77248095D01*
X148653809Y-77295714D01*
X93872380Y-90728095D02*
X92872380Y-90728095D01*
X92872380Y-90490000D01*
X92920000Y-90347142D01*
X93015238Y-90251904D01*
X93110476Y-90204285D01*
X93300952Y-90156666D01*
X93443809Y-90156666D01*
X93634285Y-90204285D01*
X93729523Y-90251904D01*
X93824761Y-90347142D01*
X93872380Y-90490000D01*
X93872380Y-90728095D01*
X93872380Y-89204285D02*
X93872380Y-89775714D01*
X93872380Y-89490000D02*
X92872380Y-89490000D01*
X93015238Y-89585238D01*
X93110476Y-89680476D01*
X93158095Y-89775714D01*
X169782380Y-98528095D02*
X168782380Y-98528095D01*
X168782380Y-98290000D01*
X168830000Y-98147142D01*
X168925238Y-98051904D01*
X169020476Y-98004285D01*
X169210952Y-97956666D01*
X169353809Y-97956666D01*
X169544285Y-98004285D01*
X169639523Y-98051904D01*
X169734761Y-98147142D01*
X169782380Y-98290000D01*
X169782380Y-98528095D01*
X168877619Y-97575714D02*
X168830000Y-97528095D01*
X168782380Y-97432857D01*
X168782380Y-97194761D01*
X168830000Y-97099523D01*
X168877619Y-97051904D01*
X168972857Y-97004285D01*
X169068095Y-97004285D01*
X169210952Y-97051904D01*
X169782380Y-97623333D01*
X169782380Y-97004285D01*
X163862380Y-76938095D02*
X162862380Y-76938095D01*
X162862380Y-76700000D01*
X162910000Y-76557142D01*
X163005238Y-76461904D01*
X163100476Y-76414285D01*
X163290952Y-76366666D01*
X163433809Y-76366666D01*
X163624285Y-76414285D01*
X163719523Y-76461904D01*
X163814761Y-76557142D01*
X163862380Y-76700000D01*
X163862380Y-76938095D01*
X162862380Y-76033333D02*
X162862380Y-75414285D01*
X163243333Y-75747619D01*
X163243333Y-75604761D01*
X163290952Y-75509523D01*
X163338571Y-75461904D01*
X163433809Y-75414285D01*
X163671904Y-75414285D01*
X163767142Y-75461904D01*
X163814761Y-75509523D01*
X163862380Y-75604761D01*
X163862380Y-75890476D01*
X163814761Y-75985714D01*
X163767142Y-76033333D01*
X90372380Y-89153333D02*
X91086666Y-89153333D01*
X91229523Y-89200952D01*
X91324761Y-89296190D01*
X91372380Y-89439047D01*
X91372380Y-89534285D01*
X91372380Y-88153333D02*
X91372380Y-88724761D01*
X91372380Y-88439047D02*
X90372380Y-88439047D01*
X90515238Y-88534285D01*
X90610476Y-88629523D01*
X90658095Y-88724761D01*
X171422380Y-89153333D02*
X172136666Y-89153333D01*
X172279523Y-89200952D01*
X172374761Y-89296190D01*
X172422380Y-89439047D01*
X172422380Y-89534285D01*
X171517619Y-88724761D02*
X171470000Y-88677142D01*
X171422380Y-88581904D01*
X171422380Y-88343809D01*
X171470000Y-88248571D01*
X171517619Y-88200952D01*
X171612857Y-88153333D01*
X171708095Y-88153333D01*
X171850952Y-88200952D01*
X172422380Y-88772380D01*
X172422380Y-88153333D01*
X156832380Y-99226666D02*
X156356190Y-99560000D01*
X156832380Y-99798095D02*
X155832380Y-99798095D01*
X155832380Y-99417142D01*
X155880000Y-99321904D01*
X155927619Y-99274285D01*
X156022857Y-99226666D01*
X156165714Y-99226666D01*
X156260952Y-99274285D01*
X156308571Y-99321904D01*
X156356190Y-99417142D01*
X156356190Y-99798095D01*
X156832380Y-98274285D02*
X156832380Y-98845714D01*
X156832380Y-98560000D02*
X155832380Y-98560000D01*
X155975238Y-98655238D01*
X156070476Y-98750476D01*
X156118095Y-98845714D01*
X156832380Y-80176666D02*
X156356190Y-80510000D01*
X156832380Y-80748095D02*
X155832380Y-80748095D01*
X155832380Y-80367142D01*
X155880000Y-80271904D01*
X155927619Y-80224285D01*
X156022857Y-80176666D01*
X156165714Y-80176666D01*
X156260952Y-80224285D01*
X156308571Y-80271904D01*
X156356190Y-80367142D01*
X156356190Y-80748095D01*
X155927619Y-79795714D02*
X155880000Y-79748095D01*
X155832380Y-79652857D01*
X155832380Y-79414761D01*
X155880000Y-79319523D01*
X155927619Y-79271904D01*
X156022857Y-79224285D01*
X156118095Y-79224285D01*
X156260952Y-79271904D01*
X156832380Y-79843333D01*
X156832380Y-79224285D01*
M02*
