%TF.GenerationSoftware,KiCad,Pcbnew,5.1.4-3.fc30*%
%TF.CreationDate,2019-10-13T17:27:32+02:00*%
%TF.ProjectId,LED_line,4c45445f-6c69-46e6-952e-6b696361645f,rev?*%
%TF.SameCoordinates,PX4531a5cPY39f1340*%
%TF.FileFunction,Other,User*%
%FSLAX46Y46*%
G04 Gerber Fmt 4.6, Leading zero omitted, Abs format (unit mm)*
G04 Created by KiCad (PCBNEW 5.1.4-3.fc30) date 2019-10-13 17:27:32*
%MOMM*%
%LPD*%
G04 APERTURE LIST*
%ADD10C,0.120000*%
%ADD11C,0.050000*%
G04 APERTURE END LIST*
D10*
%TO.C,J9*%
X85888700Y-4545200D02*
X85888700Y-10070200D01*
X88888700Y-4560200D02*
X88888700Y-10085200D01*
X88888700Y-4545200D02*
X85888700Y-4545200D01*
X88888700Y-10085200D02*
X85888700Y-10085200D01*
%TO.C,J1*%
X16280000Y-4545200D02*
X16280000Y-10070200D01*
X19280000Y-4560200D02*
X19280000Y-10085200D01*
X19280000Y-4545200D02*
X16280000Y-4545200D01*
X19280000Y-10085200D02*
X16280000Y-10085200D01*
D11*
%TO.C,D1*%
X2029900Y-44293300D02*
X2029900Y-49143300D01*
X6529900Y-44293300D02*
X2029900Y-44293300D01*
X6529900Y-49143300D02*
X6529900Y-44293300D01*
X2029900Y-49143300D02*
X6529900Y-49143300D01*
%TO.C,D2*%
X14963942Y-44293300D02*
X14963942Y-49143300D01*
X19463942Y-44293300D02*
X14963942Y-44293300D01*
X19463942Y-49143300D02*
X19463942Y-44293300D01*
X14963942Y-49143300D02*
X19463942Y-49143300D01*
%TO.C,D3*%
X27897984Y-44293300D02*
X27897984Y-49143300D01*
X32397984Y-44293300D02*
X27897984Y-44293300D01*
X32397984Y-49143300D02*
X32397984Y-44293300D01*
X27897984Y-49143300D02*
X32397984Y-49143300D01*
%TO.C,D4*%
X40832026Y-44293300D02*
X40832026Y-49143300D01*
X45332026Y-44293300D02*
X40832026Y-44293300D01*
X45332026Y-49143300D02*
X45332026Y-44293300D01*
X40832026Y-49143300D02*
X45332026Y-49143300D01*
%TO.C,D5*%
X53766068Y-44293300D02*
X53766068Y-49143300D01*
X58266068Y-44293300D02*
X53766068Y-44293300D01*
X58266068Y-49143300D02*
X58266068Y-44293300D01*
X53766068Y-49143300D02*
X58266068Y-49143300D01*
%TO.C,D6*%
X66700110Y-44293300D02*
X66700110Y-49143300D01*
X71200110Y-44293300D02*
X66700110Y-44293300D01*
X71200110Y-49143300D02*
X71200110Y-44293300D01*
X66700110Y-49143300D02*
X71200110Y-49143300D01*
%TO.C,D7*%
X79634152Y-44293300D02*
X79634152Y-49143300D01*
X84134152Y-44293300D02*
X79634152Y-44293300D01*
X84134152Y-49143300D02*
X84134152Y-44293300D01*
X79634152Y-49143300D02*
X84134152Y-49143300D01*
%TO.C,D8*%
X92568200Y-44293300D02*
X92568200Y-49143300D01*
X97068200Y-44293300D02*
X92568200Y-44293300D01*
X97068200Y-49143300D02*
X97068200Y-44293300D01*
X92568200Y-49143300D02*
X97068200Y-49143300D01*
D10*
%TO.C,J2*%
X23720385Y-4545200D02*
X23720385Y-10070200D01*
X26720385Y-4560200D02*
X26720385Y-10085200D01*
X26720385Y-4545200D02*
X23720385Y-4545200D01*
X26720385Y-10085200D02*
X23720385Y-10085200D01*
%TO.C,J3*%
X31160770Y-4545200D02*
X31160770Y-10070200D01*
X34160770Y-4560200D02*
X34160770Y-10085200D01*
X34160770Y-4545200D02*
X31160770Y-4545200D01*
X34160770Y-10085200D02*
X31160770Y-10085200D01*
%TO.C,J4*%
X38601155Y-4545200D02*
X38601155Y-10070200D01*
X41601155Y-4560200D02*
X41601155Y-10085200D01*
X41601155Y-4545200D02*
X38601155Y-4545200D01*
X41601155Y-10085200D02*
X38601155Y-10085200D01*
%TO.C,J5*%
X46041540Y-4545200D02*
X46041540Y-10070200D01*
X49041540Y-4560200D02*
X49041540Y-10085200D01*
X49041540Y-4545200D02*
X46041540Y-4545200D01*
X49041540Y-10085200D02*
X46041540Y-10085200D01*
%TO.C,J6*%
X53481925Y-4545200D02*
X53481925Y-10070200D01*
X56481925Y-4560200D02*
X56481925Y-10085200D01*
X56481925Y-4545200D02*
X53481925Y-4545200D01*
X56481925Y-10085200D02*
X53481925Y-10085200D01*
%TO.C,J7*%
X60922310Y-4545200D02*
X60922310Y-10070200D01*
X63922310Y-4560200D02*
X63922310Y-10085200D01*
X63922310Y-4545200D02*
X60922310Y-4545200D01*
X63922310Y-10085200D02*
X60922310Y-10085200D01*
%TO.C,J8*%
X68362700Y-4545200D02*
X68362700Y-10070200D01*
X71362700Y-4560200D02*
X71362700Y-10085200D01*
X71362700Y-4545200D02*
X68362700Y-4545200D01*
X71362700Y-10085200D02*
X68362700Y-10085200D01*
D11*
%TO.C,R1*%
X5304500Y-38694400D02*
X5304500Y-29174400D01*
X3204500Y-38694400D02*
X5304500Y-38694400D01*
X3204500Y-29174400D02*
X3204500Y-38694400D01*
X5304500Y-29174400D02*
X3204500Y-29174400D01*
%TO.C,R2*%
X18245800Y-38694400D02*
X18245800Y-29174400D01*
X16145800Y-38694400D02*
X18245800Y-38694400D01*
X16145800Y-29174400D02*
X16145800Y-38694400D01*
X18245800Y-29174400D02*
X16145800Y-29174400D01*
%TO.C,R3*%
X31187100Y-38694400D02*
X31187100Y-29174400D01*
X29087100Y-38694400D02*
X31187100Y-38694400D01*
X29087100Y-29174400D02*
X29087100Y-38694400D01*
X31187100Y-29174400D02*
X29087100Y-29174400D01*
%TO.C,R4*%
X44128400Y-38694400D02*
X44128400Y-29174400D01*
X42028400Y-38694400D02*
X44128400Y-38694400D01*
X42028400Y-29174400D02*
X42028400Y-38694400D01*
X44128400Y-29174400D02*
X42028400Y-29174400D01*
%TO.C,R5*%
X57069700Y-38694400D02*
X57069700Y-29174400D01*
X54969700Y-38694400D02*
X57069700Y-38694400D01*
X54969700Y-29174400D02*
X54969700Y-38694400D01*
X57069700Y-29174400D02*
X54969700Y-29174400D01*
%TO.C,R6*%
X70011000Y-38694400D02*
X70011000Y-29174400D01*
X67911000Y-38694400D02*
X70011000Y-38694400D01*
X67911000Y-29174400D02*
X67911000Y-38694400D01*
X70011000Y-29174400D02*
X67911000Y-29174400D01*
%TO.C,R7*%
X82952300Y-38694400D02*
X82952300Y-29174400D01*
X80852300Y-38694400D02*
X82952300Y-38694400D01*
X80852300Y-29174400D02*
X80852300Y-38694400D01*
X82952300Y-29174400D02*
X80852300Y-29174400D01*
%TO.C,R8*%
X95893600Y-38694400D02*
X95893600Y-29174400D01*
X93793600Y-38694400D02*
X95893600Y-38694400D01*
X93793600Y-29174400D02*
X93793600Y-38694400D01*
X95893600Y-29174400D02*
X93793600Y-29174400D01*
%TD*%
M02*
