G04 #@! TF.GenerationSoftware,KiCad,Pcbnew,5.1.4-3.fc30*
G04 #@! TF.CreationDate,2019-09-15T18:20:23+02:00*
G04 #@! TF.ProjectId,LED_line,4c45445f-6c69-46e6-952e-6b696361645f,rev?*
G04 #@! TF.SameCoordinates,Original*
G04 #@! TF.FileFunction,Drawing*
%FSLAX46Y46*%
G04 Gerber Fmt 4.6, Leading zero omitted, Abs format (unit mm)*
G04 Created by KiCad (PCBNEW 5.1.4-3.fc30) date 2019-09-15 18:20:23*
%MOMM*%
%LPD*%
G04 APERTURE LIST*
%ADD10C,0.150000*%
G04 APERTURE END LIST*
D10*
X178336480Y-89363047D02*
X178336480Y-89839238D01*
X178812671Y-89886857D01*
X178765052Y-89839238D01*
X178717433Y-89744000D01*
X178717433Y-89505904D01*
X178765052Y-89410666D01*
X178812671Y-89363047D01*
X178907909Y-89315428D01*
X179146004Y-89315428D01*
X179241242Y-89363047D01*
X179288861Y-89410666D01*
X179336480Y-89505904D01*
X179336480Y-89744000D01*
X179288861Y-89839238D01*
X179241242Y-89886857D01*
X178336480Y-88696380D02*
X178336480Y-88601142D01*
X178384100Y-88505904D01*
X178431719Y-88458285D01*
X178526957Y-88410666D01*
X178717433Y-88363047D01*
X178955528Y-88363047D01*
X179146004Y-88410666D01*
X179241242Y-88458285D01*
X179288861Y-88505904D01*
X179336480Y-88601142D01*
X179336480Y-88696380D01*
X179288861Y-88791619D01*
X179241242Y-88839238D01*
X179146004Y-88886857D01*
X178955528Y-88934476D01*
X178717433Y-88934476D01*
X178526957Y-88886857D01*
X178431719Y-88839238D01*
X178384100Y-88791619D01*
X178336480Y-88696380D01*
X179288861Y-87886857D02*
X179336480Y-87886857D01*
X179431719Y-87934476D01*
X179479338Y-87982095D01*
X178336480Y-87267809D02*
X178336480Y-87172571D01*
X178384100Y-87077333D01*
X178431719Y-87029714D01*
X178526957Y-86982095D01*
X178717433Y-86934476D01*
X178955528Y-86934476D01*
X179146004Y-86982095D01*
X179241242Y-87029714D01*
X179288861Y-87077333D01*
X179336480Y-87172571D01*
X179336480Y-87267809D01*
X179288861Y-87363047D01*
X179241242Y-87410666D01*
X179146004Y-87458285D01*
X178955528Y-87505904D01*
X178717433Y-87505904D01*
X178526957Y-87458285D01*
X178431719Y-87410666D01*
X178384100Y-87363047D01*
X178336480Y-87267809D01*
X178336480Y-86315428D02*
X178336480Y-86220190D01*
X178384100Y-86124952D01*
X178431719Y-86077333D01*
X178526957Y-86029714D01*
X178717433Y-85982095D01*
X178955528Y-85982095D01*
X179146004Y-86029714D01*
X179241242Y-86077333D01*
X179288861Y-86124952D01*
X179336480Y-86220190D01*
X179336480Y-86315428D01*
X179288861Y-86410666D01*
X179241242Y-86458285D01*
X179146004Y-86505904D01*
X178955528Y-86553523D01*
X178717433Y-86553523D01*
X178526957Y-86505904D01*
X178431719Y-86458285D01*
X178384100Y-86410666D01*
X178336480Y-86315428D01*
X178336480Y-85363047D02*
X178336480Y-85267809D01*
X178384100Y-85172571D01*
X178431719Y-85124952D01*
X178526957Y-85077333D01*
X178717433Y-85029714D01*
X178955528Y-85029714D01*
X179146004Y-85077333D01*
X179241242Y-85124952D01*
X179288861Y-85172571D01*
X179336480Y-85267809D01*
X179336480Y-85363047D01*
X179288861Y-85458285D01*
X179241242Y-85505904D01*
X179146004Y-85553523D01*
X178955528Y-85601142D01*
X178717433Y-85601142D01*
X178526957Y-85553523D01*
X178431719Y-85505904D01*
X178384100Y-85458285D01*
X178336480Y-85363047D01*
X179336480Y-83839238D02*
X178669814Y-83839238D01*
X178765052Y-83839238D02*
X178717433Y-83791619D01*
X178669814Y-83696380D01*
X178669814Y-83553523D01*
X178717433Y-83458285D01*
X178812671Y-83410666D01*
X179336480Y-83410666D01*
X178812671Y-83410666D02*
X178717433Y-83363047D01*
X178669814Y-83267809D01*
X178669814Y-83124952D01*
X178717433Y-83029714D01*
X178812671Y-82982095D01*
X179336480Y-82982095D01*
X179336480Y-82505904D02*
X178669814Y-82505904D01*
X178765052Y-82505904D02*
X178717433Y-82458285D01*
X178669814Y-82363047D01*
X178669814Y-82220190D01*
X178717433Y-82124952D01*
X178812671Y-82077333D01*
X179336480Y-82077333D01*
X178812671Y-82077333D02*
X178717433Y-82029714D01*
X178669814Y-81934476D01*
X178669814Y-81791619D01*
X178717433Y-81696380D01*
X178812671Y-81648761D01*
X179336480Y-81648761D01*
X177584100Y-110744000D02*
X177584100Y-60744000D01*
X172466000Y-110744000D02*
X178170521Y-110744000D01*
X172466000Y-60744000D02*
X178170521Y-60744000D01*
X177584100Y-60744000D02*
X178170521Y-61870504D01*
X177584100Y-60744000D02*
X176997679Y-61870504D01*
X177584100Y-110744000D02*
X178170521Y-109617496D01*
X177584100Y-110744000D02*
X176997679Y-109617496D01*
X118418380Y-114655380D02*
X117846952Y-114655380D01*
X118132666Y-114655380D02*
X118132666Y-113655380D01*
X118037428Y-113798238D01*
X117942190Y-113893476D01*
X117846952Y-113941095D01*
X119037428Y-113655380D02*
X119132666Y-113655380D01*
X119227904Y-113703000D01*
X119275523Y-113750619D01*
X119323142Y-113845857D01*
X119370761Y-114036333D01*
X119370761Y-114274428D01*
X119323142Y-114464904D01*
X119275523Y-114560142D01*
X119227904Y-114607761D01*
X119132666Y-114655380D01*
X119037428Y-114655380D01*
X118942190Y-114607761D01*
X118894571Y-114560142D01*
X118846952Y-114464904D01*
X118799333Y-114274428D01*
X118799333Y-114036333D01*
X118846952Y-113845857D01*
X118894571Y-113750619D01*
X118942190Y-113703000D01*
X119037428Y-113655380D01*
X119989809Y-113655380D02*
X120085047Y-113655380D01*
X120180285Y-113703000D01*
X120227904Y-113750619D01*
X120275523Y-113845857D01*
X120323142Y-114036333D01*
X120323142Y-114274428D01*
X120275523Y-114464904D01*
X120227904Y-114560142D01*
X120180285Y-114607761D01*
X120085047Y-114655380D01*
X119989809Y-114655380D01*
X119894571Y-114607761D01*
X119846952Y-114560142D01*
X119799333Y-114464904D01*
X119751714Y-114274428D01*
X119751714Y-114036333D01*
X119799333Y-113845857D01*
X119846952Y-113750619D01*
X119894571Y-113703000D01*
X119989809Y-113655380D01*
X120799333Y-114607761D02*
X120799333Y-114655380D01*
X120751714Y-114750619D01*
X120704095Y-114798238D01*
X121418380Y-113655380D02*
X121513619Y-113655380D01*
X121608857Y-113703000D01*
X121656476Y-113750619D01*
X121704095Y-113845857D01*
X121751714Y-114036333D01*
X121751714Y-114274428D01*
X121704095Y-114464904D01*
X121656476Y-114560142D01*
X121608857Y-114607761D01*
X121513619Y-114655380D01*
X121418380Y-114655380D01*
X121323142Y-114607761D01*
X121275523Y-114560142D01*
X121227904Y-114464904D01*
X121180285Y-114274428D01*
X121180285Y-114036333D01*
X121227904Y-113845857D01*
X121275523Y-113750619D01*
X121323142Y-113703000D01*
X121418380Y-113655380D01*
X122370761Y-113655380D02*
X122466000Y-113655380D01*
X122561238Y-113703000D01*
X122608857Y-113750619D01*
X122656476Y-113845857D01*
X122704095Y-114036333D01*
X122704095Y-114274428D01*
X122656476Y-114464904D01*
X122608857Y-114560142D01*
X122561238Y-114607761D01*
X122466000Y-114655380D01*
X122370761Y-114655380D01*
X122275523Y-114607761D01*
X122227904Y-114560142D01*
X122180285Y-114464904D01*
X122132666Y-114274428D01*
X122132666Y-114036333D01*
X122180285Y-113845857D01*
X122227904Y-113750619D01*
X122275523Y-113703000D01*
X122370761Y-113655380D01*
X123323142Y-113655380D02*
X123418380Y-113655380D01*
X123513619Y-113703000D01*
X123561238Y-113750619D01*
X123608857Y-113845857D01*
X123656476Y-114036333D01*
X123656476Y-114274428D01*
X123608857Y-114464904D01*
X123561238Y-114560142D01*
X123513619Y-114607761D01*
X123418380Y-114655380D01*
X123323142Y-114655380D01*
X123227904Y-114607761D01*
X123180285Y-114560142D01*
X123132666Y-114464904D01*
X123085047Y-114274428D01*
X123085047Y-114036333D01*
X123132666Y-113845857D01*
X123180285Y-113750619D01*
X123227904Y-113703000D01*
X123323142Y-113655380D01*
X124846952Y-114655380D02*
X124846952Y-113988714D01*
X124846952Y-114083952D02*
X124894571Y-114036333D01*
X124989809Y-113988714D01*
X125132666Y-113988714D01*
X125227904Y-114036333D01*
X125275523Y-114131571D01*
X125275523Y-114655380D01*
X125275523Y-114131571D02*
X125323142Y-114036333D01*
X125418380Y-113988714D01*
X125561238Y-113988714D01*
X125656476Y-114036333D01*
X125704095Y-114131571D01*
X125704095Y-114655380D01*
X126180285Y-114655380D02*
X126180285Y-113988714D01*
X126180285Y-114083952D02*
X126227904Y-114036333D01*
X126323142Y-113988714D01*
X126466000Y-113988714D01*
X126561238Y-114036333D01*
X126608857Y-114131571D01*
X126608857Y-114655380D01*
X126608857Y-114131571D02*
X126656476Y-114036333D01*
X126751714Y-113988714D01*
X126894571Y-113988714D01*
X126989809Y-114036333D01*
X127037428Y-114131571D01*
X127037428Y-114655380D01*
X72466000Y-112903000D02*
X172466000Y-112903000D01*
X72466000Y-110744000D02*
X72466000Y-113489421D01*
X172466000Y-110744000D02*
X172466000Y-113489421D01*
X172466000Y-112903000D02*
X171339496Y-113489421D01*
X172466000Y-112903000D02*
X171339496Y-112316579D01*
X72466000Y-112903000D02*
X73592504Y-113489421D01*
X72466000Y-112903000D02*
X73592504Y-112316579D01*
M02*
