%TF.GenerationSoftware,KiCad,Pcbnew,5.1.4-3.fc30*%
%TF.CreationDate,2019-10-13T17:27:32+02:00*%
%TF.ProjectId,LED_line,4c45445f-6c69-46e6-952e-6b696361645f,rev?*%
%TF.SameCoordinates,PX4531a5cPY39f1340*%
%TF.FileFunction,Soldermask,Top*%
%TF.FilePolarity,Negative*%
%FSLAX46Y46*%
G04 Gerber Fmt 4.6, Leading zero omitted, Abs format (unit mm)*
G04 Created by KiCad (PCBNEW 5.1.4-3.fc30) date 2019-10-13 17:27:32*
%MOMM*%
%LPD*%
G04 APERTURE LIST*
%ADD10C,0.150000*%
G04 APERTURE END LIST*
D10*
G36*
X5230900Y-48944300D02*
G01*
X3328900Y-48944300D01*
X3328900Y-47042300D01*
X5230900Y-47042300D01*
X5230900Y-48944300D01*
X5230900Y-48944300D01*
G37*
G36*
X18164942Y-48944300D02*
G01*
X16262942Y-48944300D01*
X16262942Y-47042300D01*
X18164942Y-47042300D01*
X18164942Y-48944300D01*
X18164942Y-48944300D01*
G37*
G36*
X31098984Y-48944300D02*
G01*
X29196984Y-48944300D01*
X29196984Y-47042300D01*
X31098984Y-47042300D01*
X31098984Y-48944300D01*
X31098984Y-48944300D01*
G37*
G36*
X44033026Y-48944300D02*
G01*
X42131026Y-48944300D01*
X42131026Y-47042300D01*
X44033026Y-47042300D01*
X44033026Y-48944300D01*
X44033026Y-48944300D01*
G37*
G36*
X56967068Y-48944300D02*
G01*
X55065068Y-48944300D01*
X55065068Y-47042300D01*
X56967068Y-47042300D01*
X56967068Y-48944300D01*
X56967068Y-48944300D01*
G37*
G36*
X69901110Y-48944300D02*
G01*
X67999110Y-48944300D01*
X67999110Y-47042300D01*
X69901110Y-47042300D01*
X69901110Y-48944300D01*
X69901110Y-48944300D01*
G37*
G36*
X95769200Y-48944300D02*
G01*
X93867200Y-48944300D01*
X93867200Y-47042300D01*
X95769200Y-47042300D01*
X95769200Y-48944300D01*
X95769200Y-48944300D01*
G37*
G36*
X82835152Y-48944300D02*
G01*
X80933152Y-48944300D01*
X80933152Y-47042300D01*
X82835152Y-47042300D01*
X82835152Y-48944300D01*
X82835152Y-48944300D01*
G37*
G36*
X17491337Y-44538846D02*
G01*
X17664408Y-44610534D01*
X17664409Y-44610535D01*
X17820169Y-44714610D01*
X17952632Y-44847073D01*
X17952633Y-44847075D01*
X18056708Y-45002834D01*
X18128396Y-45175905D01*
X18164942Y-45359633D01*
X18164942Y-45546967D01*
X18128396Y-45730695D01*
X18056708Y-45903766D01*
X18056707Y-45903767D01*
X17952632Y-46059527D01*
X17820169Y-46191990D01*
X17741760Y-46244381D01*
X17664408Y-46296066D01*
X17491337Y-46367754D01*
X17307609Y-46404300D01*
X17120275Y-46404300D01*
X16936547Y-46367754D01*
X16763476Y-46296066D01*
X16686124Y-46244381D01*
X16607715Y-46191990D01*
X16475252Y-46059527D01*
X16371177Y-45903767D01*
X16371176Y-45903766D01*
X16299488Y-45730695D01*
X16262942Y-45546967D01*
X16262942Y-45359633D01*
X16299488Y-45175905D01*
X16371176Y-45002834D01*
X16475251Y-44847075D01*
X16475252Y-44847073D01*
X16607715Y-44714610D01*
X16763475Y-44610535D01*
X16763476Y-44610534D01*
X16936547Y-44538846D01*
X17120275Y-44502300D01*
X17307609Y-44502300D01*
X17491337Y-44538846D01*
X17491337Y-44538846D01*
G37*
G36*
X4557295Y-44538846D02*
G01*
X4730366Y-44610534D01*
X4730367Y-44610535D01*
X4886127Y-44714610D01*
X5018590Y-44847073D01*
X5018591Y-44847075D01*
X5122666Y-45002834D01*
X5194354Y-45175905D01*
X5230900Y-45359633D01*
X5230900Y-45546967D01*
X5194354Y-45730695D01*
X5122666Y-45903766D01*
X5122665Y-45903767D01*
X5018590Y-46059527D01*
X4886127Y-46191990D01*
X4807718Y-46244381D01*
X4730366Y-46296066D01*
X4557295Y-46367754D01*
X4373567Y-46404300D01*
X4186233Y-46404300D01*
X4002505Y-46367754D01*
X3829434Y-46296066D01*
X3752082Y-46244381D01*
X3673673Y-46191990D01*
X3541210Y-46059527D01*
X3437135Y-45903767D01*
X3437134Y-45903766D01*
X3365446Y-45730695D01*
X3328900Y-45546967D01*
X3328900Y-45359633D01*
X3365446Y-45175905D01*
X3437134Y-45002834D01*
X3541209Y-44847075D01*
X3541210Y-44847073D01*
X3673673Y-44714610D01*
X3829433Y-44610535D01*
X3829434Y-44610534D01*
X4002505Y-44538846D01*
X4186233Y-44502300D01*
X4373567Y-44502300D01*
X4557295Y-44538846D01*
X4557295Y-44538846D01*
G37*
G36*
X30425379Y-44538846D02*
G01*
X30598450Y-44610534D01*
X30598451Y-44610535D01*
X30754211Y-44714610D01*
X30886674Y-44847073D01*
X30886675Y-44847075D01*
X30990750Y-45002834D01*
X31062438Y-45175905D01*
X31098984Y-45359633D01*
X31098984Y-45546967D01*
X31062438Y-45730695D01*
X30990750Y-45903766D01*
X30990749Y-45903767D01*
X30886674Y-46059527D01*
X30754211Y-46191990D01*
X30675802Y-46244381D01*
X30598450Y-46296066D01*
X30425379Y-46367754D01*
X30241651Y-46404300D01*
X30054317Y-46404300D01*
X29870589Y-46367754D01*
X29697518Y-46296066D01*
X29620166Y-46244381D01*
X29541757Y-46191990D01*
X29409294Y-46059527D01*
X29305219Y-45903767D01*
X29305218Y-45903766D01*
X29233530Y-45730695D01*
X29196984Y-45546967D01*
X29196984Y-45359633D01*
X29233530Y-45175905D01*
X29305218Y-45002834D01*
X29409293Y-44847075D01*
X29409294Y-44847073D01*
X29541757Y-44714610D01*
X29697517Y-44610535D01*
X29697518Y-44610534D01*
X29870589Y-44538846D01*
X30054317Y-44502300D01*
X30241651Y-44502300D01*
X30425379Y-44538846D01*
X30425379Y-44538846D01*
G37*
G36*
X43359421Y-44538846D02*
G01*
X43532492Y-44610534D01*
X43532493Y-44610535D01*
X43688253Y-44714610D01*
X43820716Y-44847073D01*
X43820717Y-44847075D01*
X43924792Y-45002834D01*
X43996480Y-45175905D01*
X44033026Y-45359633D01*
X44033026Y-45546967D01*
X43996480Y-45730695D01*
X43924792Y-45903766D01*
X43924791Y-45903767D01*
X43820716Y-46059527D01*
X43688253Y-46191990D01*
X43609844Y-46244381D01*
X43532492Y-46296066D01*
X43359421Y-46367754D01*
X43175693Y-46404300D01*
X42988359Y-46404300D01*
X42804631Y-46367754D01*
X42631560Y-46296066D01*
X42554208Y-46244381D01*
X42475799Y-46191990D01*
X42343336Y-46059527D01*
X42239261Y-45903767D01*
X42239260Y-45903766D01*
X42167572Y-45730695D01*
X42131026Y-45546967D01*
X42131026Y-45359633D01*
X42167572Y-45175905D01*
X42239260Y-45002834D01*
X42343335Y-44847075D01*
X42343336Y-44847073D01*
X42475799Y-44714610D01*
X42631559Y-44610535D01*
X42631560Y-44610534D01*
X42804631Y-44538846D01*
X42988359Y-44502300D01*
X43175693Y-44502300D01*
X43359421Y-44538846D01*
X43359421Y-44538846D01*
G37*
G36*
X82161547Y-44538846D02*
G01*
X82334618Y-44610534D01*
X82334619Y-44610535D01*
X82490379Y-44714610D01*
X82622842Y-44847073D01*
X82622843Y-44847075D01*
X82726918Y-45002834D01*
X82798606Y-45175905D01*
X82835152Y-45359633D01*
X82835152Y-45546967D01*
X82798606Y-45730695D01*
X82726918Y-45903766D01*
X82726917Y-45903767D01*
X82622842Y-46059527D01*
X82490379Y-46191990D01*
X82411970Y-46244381D01*
X82334618Y-46296066D01*
X82161547Y-46367754D01*
X81977819Y-46404300D01*
X81790485Y-46404300D01*
X81606757Y-46367754D01*
X81433686Y-46296066D01*
X81356334Y-46244381D01*
X81277925Y-46191990D01*
X81145462Y-46059527D01*
X81041387Y-45903767D01*
X81041386Y-45903766D01*
X80969698Y-45730695D01*
X80933152Y-45546967D01*
X80933152Y-45359633D01*
X80969698Y-45175905D01*
X81041386Y-45002834D01*
X81145461Y-44847075D01*
X81145462Y-44847073D01*
X81277925Y-44714610D01*
X81433685Y-44610535D01*
X81433686Y-44610534D01*
X81606757Y-44538846D01*
X81790485Y-44502300D01*
X81977819Y-44502300D01*
X82161547Y-44538846D01*
X82161547Y-44538846D01*
G37*
G36*
X95095595Y-44538846D02*
G01*
X95268666Y-44610534D01*
X95268667Y-44610535D01*
X95424427Y-44714610D01*
X95556890Y-44847073D01*
X95556891Y-44847075D01*
X95660966Y-45002834D01*
X95732654Y-45175905D01*
X95769200Y-45359633D01*
X95769200Y-45546967D01*
X95732654Y-45730695D01*
X95660966Y-45903766D01*
X95660965Y-45903767D01*
X95556890Y-46059527D01*
X95424427Y-46191990D01*
X95346018Y-46244381D01*
X95268666Y-46296066D01*
X95095595Y-46367754D01*
X94911867Y-46404300D01*
X94724533Y-46404300D01*
X94540805Y-46367754D01*
X94367734Y-46296066D01*
X94290382Y-46244381D01*
X94211973Y-46191990D01*
X94079510Y-46059527D01*
X93975435Y-45903767D01*
X93975434Y-45903766D01*
X93903746Y-45730695D01*
X93867200Y-45546967D01*
X93867200Y-45359633D01*
X93903746Y-45175905D01*
X93975434Y-45002834D01*
X94079509Y-44847075D01*
X94079510Y-44847073D01*
X94211973Y-44714610D01*
X94367733Y-44610535D01*
X94367734Y-44610534D01*
X94540805Y-44538846D01*
X94724533Y-44502300D01*
X94911867Y-44502300D01*
X95095595Y-44538846D01*
X95095595Y-44538846D01*
G37*
G36*
X69227505Y-44538846D02*
G01*
X69400576Y-44610534D01*
X69400577Y-44610535D01*
X69556337Y-44714610D01*
X69688800Y-44847073D01*
X69688801Y-44847075D01*
X69792876Y-45002834D01*
X69864564Y-45175905D01*
X69901110Y-45359633D01*
X69901110Y-45546967D01*
X69864564Y-45730695D01*
X69792876Y-45903766D01*
X69792875Y-45903767D01*
X69688800Y-46059527D01*
X69556337Y-46191990D01*
X69477928Y-46244381D01*
X69400576Y-46296066D01*
X69227505Y-46367754D01*
X69043777Y-46404300D01*
X68856443Y-46404300D01*
X68672715Y-46367754D01*
X68499644Y-46296066D01*
X68422292Y-46244381D01*
X68343883Y-46191990D01*
X68211420Y-46059527D01*
X68107345Y-45903767D01*
X68107344Y-45903766D01*
X68035656Y-45730695D01*
X67999110Y-45546967D01*
X67999110Y-45359633D01*
X68035656Y-45175905D01*
X68107344Y-45002834D01*
X68211419Y-44847075D01*
X68211420Y-44847073D01*
X68343883Y-44714610D01*
X68499643Y-44610535D01*
X68499644Y-44610534D01*
X68672715Y-44538846D01*
X68856443Y-44502300D01*
X69043777Y-44502300D01*
X69227505Y-44538846D01*
X69227505Y-44538846D01*
G37*
G36*
X56293463Y-44538846D02*
G01*
X56466534Y-44610534D01*
X56466535Y-44610535D01*
X56622295Y-44714610D01*
X56754758Y-44847073D01*
X56754759Y-44847075D01*
X56858834Y-45002834D01*
X56930522Y-45175905D01*
X56967068Y-45359633D01*
X56967068Y-45546967D01*
X56930522Y-45730695D01*
X56858834Y-45903766D01*
X56858833Y-45903767D01*
X56754758Y-46059527D01*
X56622295Y-46191990D01*
X56543886Y-46244381D01*
X56466534Y-46296066D01*
X56293463Y-46367754D01*
X56109735Y-46404300D01*
X55922401Y-46404300D01*
X55738673Y-46367754D01*
X55565602Y-46296066D01*
X55488250Y-46244381D01*
X55409841Y-46191990D01*
X55277378Y-46059527D01*
X55173303Y-45903767D01*
X55173302Y-45903766D01*
X55101614Y-45730695D01*
X55065068Y-45546967D01*
X55065068Y-45359633D01*
X55101614Y-45175905D01*
X55173302Y-45002834D01*
X55277377Y-44847075D01*
X55277378Y-44847073D01*
X55409841Y-44714610D01*
X55565601Y-44610535D01*
X55565602Y-44610534D01*
X55738673Y-44538846D01*
X55922401Y-44502300D01*
X56109735Y-44502300D01*
X56293463Y-44538846D01*
X56293463Y-44538846D01*
G37*
G36*
X4328165Y-36997022D02*
G01*
X4401722Y-37004267D01*
X4543286Y-37047210D01*
X4673752Y-37116946D01*
X4703540Y-37141392D01*
X4788107Y-37210793D01*
X4857508Y-37295360D01*
X4881954Y-37325148D01*
X4951690Y-37455614D01*
X4994633Y-37597178D01*
X5009133Y-37744400D01*
X4994633Y-37891622D01*
X4951690Y-38033186D01*
X4881954Y-38163652D01*
X4857508Y-38193440D01*
X4788107Y-38278007D01*
X4703540Y-38347408D01*
X4673752Y-38371854D01*
X4543286Y-38441590D01*
X4401722Y-38484533D01*
X4328165Y-38491778D01*
X4291388Y-38495400D01*
X4217612Y-38495400D01*
X4180835Y-38491778D01*
X4107278Y-38484533D01*
X3965714Y-38441590D01*
X3835248Y-38371854D01*
X3805460Y-38347408D01*
X3720893Y-38278007D01*
X3651492Y-38193440D01*
X3627046Y-38163652D01*
X3557310Y-38033186D01*
X3514367Y-37891622D01*
X3499867Y-37744400D01*
X3514367Y-37597178D01*
X3557310Y-37455614D01*
X3627046Y-37325148D01*
X3651492Y-37295360D01*
X3720893Y-37210793D01*
X3805460Y-37141392D01*
X3835248Y-37116946D01*
X3965714Y-37047210D01*
X4107278Y-37004267D01*
X4180835Y-36997022D01*
X4217612Y-36993400D01*
X4291388Y-36993400D01*
X4328165Y-36997022D01*
X4328165Y-36997022D01*
G37*
G36*
X43152065Y-36997022D02*
G01*
X43225622Y-37004267D01*
X43367186Y-37047210D01*
X43497652Y-37116946D01*
X43527440Y-37141392D01*
X43612007Y-37210793D01*
X43681408Y-37295360D01*
X43705854Y-37325148D01*
X43775590Y-37455614D01*
X43818533Y-37597178D01*
X43833033Y-37744400D01*
X43818533Y-37891622D01*
X43775590Y-38033186D01*
X43705854Y-38163652D01*
X43681408Y-38193440D01*
X43612007Y-38278007D01*
X43527440Y-38347408D01*
X43497652Y-38371854D01*
X43367186Y-38441590D01*
X43225622Y-38484533D01*
X43152065Y-38491778D01*
X43115288Y-38495400D01*
X43041512Y-38495400D01*
X43004735Y-38491778D01*
X42931178Y-38484533D01*
X42789614Y-38441590D01*
X42659148Y-38371854D01*
X42629360Y-38347408D01*
X42544793Y-38278007D01*
X42475392Y-38193440D01*
X42450946Y-38163652D01*
X42381210Y-38033186D01*
X42338267Y-37891622D01*
X42323767Y-37744400D01*
X42338267Y-37597178D01*
X42381210Y-37455614D01*
X42450946Y-37325148D01*
X42475392Y-37295360D01*
X42544793Y-37210793D01*
X42629360Y-37141392D01*
X42659148Y-37116946D01*
X42789614Y-37047210D01*
X42931178Y-37004267D01*
X43004735Y-36997022D01*
X43041512Y-36993400D01*
X43115288Y-36993400D01*
X43152065Y-36997022D01*
X43152065Y-36997022D01*
G37*
G36*
X17269465Y-36997022D02*
G01*
X17343022Y-37004267D01*
X17484586Y-37047210D01*
X17615052Y-37116946D01*
X17644840Y-37141392D01*
X17729407Y-37210793D01*
X17798808Y-37295360D01*
X17823254Y-37325148D01*
X17892990Y-37455614D01*
X17935933Y-37597178D01*
X17950433Y-37744400D01*
X17935933Y-37891622D01*
X17892990Y-38033186D01*
X17823254Y-38163652D01*
X17798808Y-38193440D01*
X17729407Y-38278007D01*
X17644840Y-38347408D01*
X17615052Y-38371854D01*
X17484586Y-38441590D01*
X17343022Y-38484533D01*
X17269465Y-38491778D01*
X17232688Y-38495400D01*
X17158912Y-38495400D01*
X17122135Y-38491778D01*
X17048578Y-38484533D01*
X16907014Y-38441590D01*
X16776548Y-38371854D01*
X16746760Y-38347408D01*
X16662193Y-38278007D01*
X16592792Y-38193440D01*
X16568346Y-38163652D01*
X16498610Y-38033186D01*
X16455667Y-37891622D01*
X16441167Y-37744400D01*
X16455667Y-37597178D01*
X16498610Y-37455614D01*
X16568346Y-37325148D01*
X16592792Y-37295360D01*
X16662193Y-37210793D01*
X16746760Y-37141392D01*
X16776548Y-37116946D01*
X16907014Y-37047210D01*
X17048578Y-37004267D01*
X17122135Y-36997022D01*
X17158912Y-36993400D01*
X17232688Y-36993400D01*
X17269465Y-36997022D01*
X17269465Y-36997022D01*
G37*
G36*
X94917265Y-36997022D02*
G01*
X94990822Y-37004267D01*
X95132386Y-37047210D01*
X95262852Y-37116946D01*
X95292640Y-37141392D01*
X95377207Y-37210793D01*
X95446608Y-37295360D01*
X95471054Y-37325148D01*
X95540790Y-37455614D01*
X95583733Y-37597178D01*
X95598233Y-37744400D01*
X95583733Y-37891622D01*
X95540790Y-38033186D01*
X95471054Y-38163652D01*
X95446608Y-38193440D01*
X95377207Y-38278007D01*
X95292640Y-38347408D01*
X95262852Y-38371854D01*
X95132386Y-38441590D01*
X94990822Y-38484533D01*
X94917265Y-38491778D01*
X94880488Y-38495400D01*
X94806712Y-38495400D01*
X94769935Y-38491778D01*
X94696378Y-38484533D01*
X94554814Y-38441590D01*
X94424348Y-38371854D01*
X94394560Y-38347408D01*
X94309993Y-38278007D01*
X94240592Y-38193440D01*
X94216146Y-38163652D01*
X94146410Y-38033186D01*
X94103467Y-37891622D01*
X94088967Y-37744400D01*
X94103467Y-37597178D01*
X94146410Y-37455614D01*
X94216146Y-37325148D01*
X94240592Y-37295360D01*
X94309993Y-37210793D01*
X94394560Y-37141392D01*
X94424348Y-37116946D01*
X94554814Y-37047210D01*
X94696378Y-37004267D01*
X94769935Y-36997022D01*
X94806712Y-36993400D01*
X94880488Y-36993400D01*
X94917265Y-36997022D01*
X94917265Y-36997022D01*
G37*
G36*
X81975965Y-36997022D02*
G01*
X82049522Y-37004267D01*
X82191086Y-37047210D01*
X82321552Y-37116946D01*
X82351340Y-37141392D01*
X82435907Y-37210793D01*
X82505308Y-37295360D01*
X82529754Y-37325148D01*
X82599490Y-37455614D01*
X82642433Y-37597178D01*
X82656933Y-37744400D01*
X82642433Y-37891622D01*
X82599490Y-38033186D01*
X82529754Y-38163652D01*
X82505308Y-38193440D01*
X82435907Y-38278007D01*
X82351340Y-38347408D01*
X82321552Y-38371854D01*
X82191086Y-38441590D01*
X82049522Y-38484533D01*
X81975965Y-38491778D01*
X81939188Y-38495400D01*
X81865412Y-38495400D01*
X81828635Y-38491778D01*
X81755078Y-38484533D01*
X81613514Y-38441590D01*
X81483048Y-38371854D01*
X81453260Y-38347408D01*
X81368693Y-38278007D01*
X81299292Y-38193440D01*
X81274846Y-38163652D01*
X81205110Y-38033186D01*
X81162167Y-37891622D01*
X81147667Y-37744400D01*
X81162167Y-37597178D01*
X81205110Y-37455614D01*
X81274846Y-37325148D01*
X81299292Y-37295360D01*
X81368693Y-37210793D01*
X81453260Y-37141392D01*
X81483048Y-37116946D01*
X81613514Y-37047210D01*
X81755078Y-37004267D01*
X81828635Y-36997022D01*
X81865412Y-36993400D01*
X81939188Y-36993400D01*
X81975965Y-36997022D01*
X81975965Y-36997022D01*
G37*
G36*
X69034665Y-36997022D02*
G01*
X69108222Y-37004267D01*
X69249786Y-37047210D01*
X69380252Y-37116946D01*
X69410040Y-37141392D01*
X69494607Y-37210793D01*
X69564008Y-37295360D01*
X69588454Y-37325148D01*
X69658190Y-37455614D01*
X69701133Y-37597178D01*
X69715633Y-37744400D01*
X69701133Y-37891622D01*
X69658190Y-38033186D01*
X69588454Y-38163652D01*
X69564008Y-38193440D01*
X69494607Y-38278007D01*
X69410040Y-38347408D01*
X69380252Y-38371854D01*
X69249786Y-38441590D01*
X69108222Y-38484533D01*
X69034665Y-38491778D01*
X68997888Y-38495400D01*
X68924112Y-38495400D01*
X68887335Y-38491778D01*
X68813778Y-38484533D01*
X68672214Y-38441590D01*
X68541748Y-38371854D01*
X68511960Y-38347408D01*
X68427393Y-38278007D01*
X68357992Y-38193440D01*
X68333546Y-38163652D01*
X68263810Y-38033186D01*
X68220867Y-37891622D01*
X68206367Y-37744400D01*
X68220867Y-37597178D01*
X68263810Y-37455614D01*
X68333546Y-37325148D01*
X68357992Y-37295360D01*
X68427393Y-37210793D01*
X68511960Y-37141392D01*
X68541748Y-37116946D01*
X68672214Y-37047210D01*
X68813778Y-37004267D01*
X68887335Y-36997022D01*
X68924112Y-36993400D01*
X68997888Y-36993400D01*
X69034665Y-36997022D01*
X69034665Y-36997022D01*
G37*
G36*
X56093365Y-36997022D02*
G01*
X56166922Y-37004267D01*
X56308486Y-37047210D01*
X56438952Y-37116946D01*
X56468740Y-37141392D01*
X56553307Y-37210793D01*
X56622708Y-37295360D01*
X56647154Y-37325148D01*
X56716890Y-37455614D01*
X56759833Y-37597178D01*
X56774333Y-37744400D01*
X56759833Y-37891622D01*
X56716890Y-38033186D01*
X56647154Y-38163652D01*
X56622708Y-38193440D01*
X56553307Y-38278007D01*
X56468740Y-38347408D01*
X56438952Y-38371854D01*
X56308486Y-38441590D01*
X56166922Y-38484533D01*
X56093365Y-38491778D01*
X56056588Y-38495400D01*
X55982812Y-38495400D01*
X55946035Y-38491778D01*
X55872478Y-38484533D01*
X55730914Y-38441590D01*
X55600448Y-38371854D01*
X55570660Y-38347408D01*
X55486093Y-38278007D01*
X55416692Y-38193440D01*
X55392246Y-38163652D01*
X55322510Y-38033186D01*
X55279567Y-37891622D01*
X55265067Y-37744400D01*
X55279567Y-37597178D01*
X55322510Y-37455614D01*
X55392246Y-37325148D01*
X55416692Y-37295360D01*
X55486093Y-37210793D01*
X55570660Y-37141392D01*
X55600448Y-37116946D01*
X55730914Y-37047210D01*
X55872478Y-37004267D01*
X55946035Y-36997022D01*
X55982812Y-36993400D01*
X56056588Y-36993400D01*
X56093365Y-36997022D01*
X56093365Y-36997022D01*
G37*
G36*
X30210765Y-36997022D02*
G01*
X30284322Y-37004267D01*
X30425886Y-37047210D01*
X30556352Y-37116946D01*
X30586140Y-37141392D01*
X30670707Y-37210793D01*
X30740108Y-37295360D01*
X30764554Y-37325148D01*
X30834290Y-37455614D01*
X30877233Y-37597178D01*
X30891733Y-37744400D01*
X30877233Y-37891622D01*
X30834290Y-38033186D01*
X30764554Y-38163652D01*
X30740108Y-38193440D01*
X30670707Y-38278007D01*
X30586140Y-38347408D01*
X30556352Y-38371854D01*
X30425886Y-38441590D01*
X30284322Y-38484533D01*
X30210765Y-38491778D01*
X30173988Y-38495400D01*
X30100212Y-38495400D01*
X30063435Y-38491778D01*
X29989878Y-38484533D01*
X29848314Y-38441590D01*
X29717848Y-38371854D01*
X29688060Y-38347408D01*
X29603493Y-38278007D01*
X29534092Y-38193440D01*
X29509646Y-38163652D01*
X29439910Y-38033186D01*
X29396967Y-37891622D01*
X29382467Y-37744400D01*
X29396967Y-37597178D01*
X29439910Y-37455614D01*
X29509646Y-37325148D01*
X29534092Y-37295360D01*
X29603493Y-37210793D01*
X29688060Y-37141392D01*
X29717848Y-37116946D01*
X29848314Y-37047210D01*
X29989878Y-37004267D01*
X30063435Y-36997022D01*
X30100212Y-36993400D01*
X30173988Y-36993400D01*
X30210765Y-36997022D01*
X30210765Y-36997022D01*
G37*
G36*
X95062659Y-29402260D02*
G01*
X95199332Y-29458872D01*
X95322335Y-29541060D01*
X95426940Y-29645665D01*
X95509128Y-29768668D01*
X95565740Y-29905341D01*
X95594600Y-30050433D01*
X95594600Y-30198367D01*
X95565740Y-30343459D01*
X95509128Y-30480132D01*
X95426940Y-30603135D01*
X95322335Y-30707740D01*
X95199332Y-30789928D01*
X95199331Y-30789929D01*
X95199330Y-30789929D01*
X95062659Y-30846540D01*
X94917568Y-30875400D01*
X94769632Y-30875400D01*
X94624541Y-30846540D01*
X94487870Y-30789929D01*
X94487869Y-30789929D01*
X94487868Y-30789928D01*
X94364865Y-30707740D01*
X94260260Y-30603135D01*
X94178072Y-30480132D01*
X94121460Y-30343459D01*
X94092600Y-30198367D01*
X94092600Y-30050433D01*
X94121460Y-29905341D01*
X94178072Y-29768668D01*
X94260260Y-29645665D01*
X94364865Y-29541060D01*
X94487868Y-29458872D01*
X94624541Y-29402260D01*
X94769632Y-29373400D01*
X94917568Y-29373400D01*
X95062659Y-29402260D01*
X95062659Y-29402260D01*
G37*
G36*
X17414859Y-29402260D02*
G01*
X17551532Y-29458872D01*
X17674535Y-29541060D01*
X17779140Y-29645665D01*
X17861328Y-29768668D01*
X17917940Y-29905341D01*
X17946800Y-30050433D01*
X17946800Y-30198367D01*
X17917940Y-30343459D01*
X17861328Y-30480132D01*
X17779140Y-30603135D01*
X17674535Y-30707740D01*
X17551532Y-30789928D01*
X17551531Y-30789929D01*
X17551530Y-30789929D01*
X17414859Y-30846540D01*
X17269768Y-30875400D01*
X17121832Y-30875400D01*
X16976741Y-30846540D01*
X16840070Y-30789929D01*
X16840069Y-30789929D01*
X16840068Y-30789928D01*
X16717065Y-30707740D01*
X16612460Y-30603135D01*
X16530272Y-30480132D01*
X16473660Y-30343459D01*
X16444800Y-30198367D01*
X16444800Y-30050433D01*
X16473660Y-29905341D01*
X16530272Y-29768668D01*
X16612460Y-29645665D01*
X16717065Y-29541060D01*
X16840068Y-29458872D01*
X16976741Y-29402260D01*
X17121832Y-29373400D01*
X17269768Y-29373400D01*
X17414859Y-29402260D01*
X17414859Y-29402260D01*
G37*
G36*
X30356159Y-29402260D02*
G01*
X30492832Y-29458872D01*
X30615835Y-29541060D01*
X30720440Y-29645665D01*
X30802628Y-29768668D01*
X30859240Y-29905341D01*
X30888100Y-30050433D01*
X30888100Y-30198367D01*
X30859240Y-30343459D01*
X30802628Y-30480132D01*
X30720440Y-30603135D01*
X30615835Y-30707740D01*
X30492832Y-30789928D01*
X30492831Y-30789929D01*
X30492830Y-30789929D01*
X30356159Y-30846540D01*
X30211068Y-30875400D01*
X30063132Y-30875400D01*
X29918041Y-30846540D01*
X29781370Y-30789929D01*
X29781369Y-30789929D01*
X29781368Y-30789928D01*
X29658365Y-30707740D01*
X29553760Y-30603135D01*
X29471572Y-30480132D01*
X29414960Y-30343459D01*
X29386100Y-30198367D01*
X29386100Y-30050433D01*
X29414960Y-29905341D01*
X29471572Y-29768668D01*
X29553760Y-29645665D01*
X29658365Y-29541060D01*
X29781368Y-29458872D01*
X29918041Y-29402260D01*
X30063132Y-29373400D01*
X30211068Y-29373400D01*
X30356159Y-29402260D01*
X30356159Y-29402260D01*
G37*
G36*
X4473559Y-29402260D02*
G01*
X4610232Y-29458872D01*
X4733235Y-29541060D01*
X4837840Y-29645665D01*
X4920028Y-29768668D01*
X4976640Y-29905341D01*
X5005500Y-30050433D01*
X5005500Y-30198367D01*
X4976640Y-30343459D01*
X4920028Y-30480132D01*
X4837840Y-30603135D01*
X4733235Y-30707740D01*
X4610232Y-30789928D01*
X4610231Y-30789929D01*
X4610230Y-30789929D01*
X4473559Y-30846540D01*
X4328468Y-30875400D01*
X4180532Y-30875400D01*
X4035441Y-30846540D01*
X3898770Y-30789929D01*
X3898769Y-30789929D01*
X3898768Y-30789928D01*
X3775765Y-30707740D01*
X3671160Y-30603135D01*
X3588972Y-30480132D01*
X3532360Y-30343459D01*
X3503500Y-30198367D01*
X3503500Y-30050433D01*
X3532360Y-29905341D01*
X3588972Y-29768668D01*
X3671160Y-29645665D01*
X3775765Y-29541060D01*
X3898768Y-29458872D01*
X4035441Y-29402260D01*
X4180532Y-29373400D01*
X4328468Y-29373400D01*
X4473559Y-29402260D01*
X4473559Y-29402260D01*
G37*
G36*
X56238759Y-29402260D02*
G01*
X56375432Y-29458872D01*
X56498435Y-29541060D01*
X56603040Y-29645665D01*
X56685228Y-29768668D01*
X56741840Y-29905341D01*
X56770700Y-30050433D01*
X56770700Y-30198367D01*
X56741840Y-30343459D01*
X56685228Y-30480132D01*
X56603040Y-30603135D01*
X56498435Y-30707740D01*
X56375432Y-30789928D01*
X56375431Y-30789929D01*
X56375430Y-30789929D01*
X56238759Y-30846540D01*
X56093668Y-30875400D01*
X55945732Y-30875400D01*
X55800641Y-30846540D01*
X55663970Y-30789929D01*
X55663969Y-30789929D01*
X55663968Y-30789928D01*
X55540965Y-30707740D01*
X55436360Y-30603135D01*
X55354172Y-30480132D01*
X55297560Y-30343459D01*
X55268700Y-30198367D01*
X55268700Y-30050433D01*
X55297560Y-29905341D01*
X55354172Y-29768668D01*
X55436360Y-29645665D01*
X55540965Y-29541060D01*
X55663968Y-29458872D01*
X55800641Y-29402260D01*
X55945732Y-29373400D01*
X56093668Y-29373400D01*
X56238759Y-29402260D01*
X56238759Y-29402260D01*
G37*
G36*
X69180059Y-29402260D02*
G01*
X69316732Y-29458872D01*
X69439735Y-29541060D01*
X69544340Y-29645665D01*
X69626528Y-29768668D01*
X69683140Y-29905341D01*
X69712000Y-30050433D01*
X69712000Y-30198367D01*
X69683140Y-30343459D01*
X69626528Y-30480132D01*
X69544340Y-30603135D01*
X69439735Y-30707740D01*
X69316732Y-30789928D01*
X69316731Y-30789929D01*
X69316730Y-30789929D01*
X69180059Y-30846540D01*
X69034968Y-30875400D01*
X68887032Y-30875400D01*
X68741941Y-30846540D01*
X68605270Y-30789929D01*
X68605269Y-30789929D01*
X68605268Y-30789928D01*
X68482265Y-30707740D01*
X68377660Y-30603135D01*
X68295472Y-30480132D01*
X68238860Y-30343459D01*
X68210000Y-30198367D01*
X68210000Y-30050433D01*
X68238860Y-29905341D01*
X68295472Y-29768668D01*
X68377660Y-29645665D01*
X68482265Y-29541060D01*
X68605268Y-29458872D01*
X68741941Y-29402260D01*
X68887032Y-29373400D01*
X69034968Y-29373400D01*
X69180059Y-29402260D01*
X69180059Y-29402260D01*
G37*
G36*
X82121359Y-29402260D02*
G01*
X82258032Y-29458872D01*
X82381035Y-29541060D01*
X82485640Y-29645665D01*
X82567828Y-29768668D01*
X82624440Y-29905341D01*
X82653300Y-30050433D01*
X82653300Y-30198367D01*
X82624440Y-30343459D01*
X82567828Y-30480132D01*
X82485640Y-30603135D01*
X82381035Y-30707740D01*
X82258032Y-30789928D01*
X82258031Y-30789929D01*
X82258030Y-30789929D01*
X82121359Y-30846540D01*
X81976268Y-30875400D01*
X81828332Y-30875400D01*
X81683241Y-30846540D01*
X81546570Y-30789929D01*
X81546569Y-30789929D01*
X81546568Y-30789928D01*
X81423565Y-30707740D01*
X81318960Y-30603135D01*
X81236772Y-30480132D01*
X81180160Y-30343459D01*
X81151300Y-30198367D01*
X81151300Y-30050433D01*
X81180160Y-29905341D01*
X81236772Y-29768668D01*
X81318960Y-29645665D01*
X81423565Y-29541060D01*
X81546568Y-29458872D01*
X81683241Y-29402260D01*
X81828332Y-29373400D01*
X81976268Y-29373400D01*
X82121359Y-29402260D01*
X82121359Y-29402260D01*
G37*
G36*
X43297459Y-29402260D02*
G01*
X43434132Y-29458872D01*
X43557135Y-29541060D01*
X43661740Y-29645665D01*
X43743928Y-29768668D01*
X43800540Y-29905341D01*
X43829400Y-30050433D01*
X43829400Y-30198367D01*
X43800540Y-30343459D01*
X43743928Y-30480132D01*
X43661740Y-30603135D01*
X43557135Y-30707740D01*
X43434132Y-30789928D01*
X43434131Y-30789929D01*
X43434130Y-30789929D01*
X43297459Y-30846540D01*
X43152368Y-30875400D01*
X43004432Y-30875400D01*
X42859341Y-30846540D01*
X42722670Y-30789929D01*
X42722669Y-30789929D01*
X42722668Y-30789928D01*
X42599665Y-30707740D01*
X42495060Y-30603135D01*
X42412872Y-30480132D01*
X42356260Y-30343459D01*
X42327400Y-30198367D01*
X42327400Y-30050433D01*
X42356260Y-29905341D01*
X42412872Y-29768668D01*
X42495060Y-29645665D01*
X42599665Y-29541060D01*
X42722668Y-29458872D01*
X42859341Y-29402260D01*
X43004432Y-29373400D01*
X43152368Y-29373400D01*
X43297459Y-29402260D01*
X43297459Y-29402260D01*
G37*
G36*
X40338297Y-7803442D02*
G01*
X40486256Y-7864729D01*
X40619410Y-7953699D01*
X40732656Y-8066945D01*
X40821626Y-8200099D01*
X40882913Y-8348058D01*
X40914155Y-8505125D01*
X40914155Y-8665275D01*
X40882913Y-8822342D01*
X40821626Y-8970301D01*
X40732656Y-9103455D01*
X40619410Y-9216701D01*
X40486256Y-9305671D01*
X40338297Y-9366958D01*
X40181230Y-9398200D01*
X40021080Y-9398200D01*
X39864013Y-9366958D01*
X39716054Y-9305671D01*
X39582900Y-9216701D01*
X39469654Y-9103455D01*
X39380684Y-8970301D01*
X39319397Y-8822342D01*
X39288155Y-8665275D01*
X39288155Y-8505125D01*
X39319397Y-8348058D01*
X39380684Y-8200099D01*
X39469654Y-8066945D01*
X39582900Y-7953699D01*
X39716054Y-7864729D01*
X39864013Y-7803442D01*
X40021080Y-7772200D01*
X40181230Y-7772200D01*
X40338297Y-7803442D01*
X40338297Y-7803442D01*
G37*
G36*
X87625842Y-7803442D02*
G01*
X87773801Y-7864729D01*
X87906955Y-7953699D01*
X88020201Y-8066945D01*
X88109171Y-8200099D01*
X88170458Y-8348058D01*
X88201700Y-8505125D01*
X88201700Y-8665275D01*
X88170458Y-8822342D01*
X88109171Y-8970301D01*
X88020201Y-9103455D01*
X87906955Y-9216701D01*
X87773801Y-9305671D01*
X87625842Y-9366958D01*
X87468775Y-9398200D01*
X87308625Y-9398200D01*
X87151558Y-9366958D01*
X87003599Y-9305671D01*
X86870445Y-9216701D01*
X86757199Y-9103455D01*
X86668229Y-8970301D01*
X86606942Y-8822342D01*
X86575700Y-8665275D01*
X86575700Y-8505125D01*
X86606942Y-8348058D01*
X86668229Y-8200099D01*
X86757199Y-8066945D01*
X86870445Y-7953699D01*
X87003599Y-7864729D01*
X87151558Y-7803442D01*
X87308625Y-7772200D01*
X87468775Y-7772200D01*
X87625842Y-7803442D01*
X87625842Y-7803442D01*
G37*
G36*
X32897912Y-7803442D02*
G01*
X33045871Y-7864729D01*
X33179025Y-7953699D01*
X33292271Y-8066945D01*
X33381241Y-8200099D01*
X33442528Y-8348058D01*
X33473770Y-8505125D01*
X33473770Y-8665275D01*
X33442528Y-8822342D01*
X33381241Y-8970301D01*
X33292271Y-9103455D01*
X33179025Y-9216701D01*
X33045871Y-9305671D01*
X32897912Y-9366958D01*
X32740845Y-9398200D01*
X32580695Y-9398200D01*
X32423628Y-9366958D01*
X32275669Y-9305671D01*
X32142515Y-9216701D01*
X32029269Y-9103455D01*
X31940299Y-8970301D01*
X31879012Y-8822342D01*
X31847770Y-8665275D01*
X31847770Y-8505125D01*
X31879012Y-8348058D01*
X31940299Y-8200099D01*
X32029269Y-8066945D01*
X32142515Y-7953699D01*
X32275669Y-7864729D01*
X32423628Y-7803442D01*
X32580695Y-7772200D01*
X32740845Y-7772200D01*
X32897912Y-7803442D01*
X32897912Y-7803442D01*
G37*
G36*
X47778682Y-7803442D02*
G01*
X47926641Y-7864729D01*
X48059795Y-7953699D01*
X48173041Y-8066945D01*
X48262011Y-8200099D01*
X48323298Y-8348058D01*
X48354540Y-8505125D01*
X48354540Y-8665275D01*
X48323298Y-8822342D01*
X48262011Y-8970301D01*
X48173041Y-9103455D01*
X48059795Y-9216701D01*
X47926641Y-9305671D01*
X47778682Y-9366958D01*
X47621615Y-9398200D01*
X47461465Y-9398200D01*
X47304398Y-9366958D01*
X47156439Y-9305671D01*
X47023285Y-9216701D01*
X46910039Y-9103455D01*
X46821069Y-8970301D01*
X46759782Y-8822342D01*
X46728540Y-8665275D01*
X46728540Y-8505125D01*
X46759782Y-8348058D01*
X46821069Y-8200099D01*
X46910039Y-8066945D01*
X47023285Y-7953699D01*
X47156439Y-7864729D01*
X47304398Y-7803442D01*
X47461465Y-7772200D01*
X47621615Y-7772200D01*
X47778682Y-7803442D01*
X47778682Y-7803442D01*
G37*
G36*
X18017142Y-7803442D02*
G01*
X18165101Y-7864729D01*
X18298255Y-7953699D01*
X18411501Y-8066945D01*
X18500471Y-8200099D01*
X18561758Y-8348058D01*
X18593000Y-8505125D01*
X18593000Y-8665275D01*
X18561758Y-8822342D01*
X18500471Y-8970301D01*
X18411501Y-9103455D01*
X18298255Y-9216701D01*
X18165101Y-9305671D01*
X18017142Y-9366958D01*
X17860075Y-9398200D01*
X17699925Y-9398200D01*
X17542858Y-9366958D01*
X17394899Y-9305671D01*
X17261745Y-9216701D01*
X17148499Y-9103455D01*
X17059529Y-8970301D01*
X16998242Y-8822342D01*
X16967000Y-8665275D01*
X16967000Y-8505125D01*
X16998242Y-8348058D01*
X17059529Y-8200099D01*
X17148499Y-8066945D01*
X17261745Y-7953699D01*
X17394899Y-7864729D01*
X17542858Y-7803442D01*
X17699925Y-7772200D01*
X17860075Y-7772200D01*
X18017142Y-7803442D01*
X18017142Y-7803442D01*
G37*
G36*
X55219067Y-7803442D02*
G01*
X55367026Y-7864729D01*
X55500180Y-7953699D01*
X55613426Y-8066945D01*
X55702396Y-8200099D01*
X55763683Y-8348058D01*
X55794925Y-8505125D01*
X55794925Y-8665275D01*
X55763683Y-8822342D01*
X55702396Y-8970301D01*
X55613426Y-9103455D01*
X55500180Y-9216701D01*
X55367026Y-9305671D01*
X55219067Y-9366958D01*
X55062000Y-9398200D01*
X54901850Y-9398200D01*
X54744783Y-9366958D01*
X54596824Y-9305671D01*
X54463670Y-9216701D01*
X54350424Y-9103455D01*
X54261454Y-8970301D01*
X54200167Y-8822342D01*
X54168925Y-8665275D01*
X54168925Y-8505125D01*
X54200167Y-8348058D01*
X54261454Y-8200099D01*
X54350424Y-8066945D01*
X54463670Y-7953699D01*
X54596824Y-7864729D01*
X54744783Y-7803442D01*
X54901850Y-7772200D01*
X55062000Y-7772200D01*
X55219067Y-7803442D01*
X55219067Y-7803442D01*
G37*
G36*
X25457527Y-7803442D02*
G01*
X25605486Y-7864729D01*
X25738640Y-7953699D01*
X25851886Y-8066945D01*
X25940856Y-8200099D01*
X26002143Y-8348058D01*
X26033385Y-8505125D01*
X26033385Y-8665275D01*
X26002143Y-8822342D01*
X25940856Y-8970301D01*
X25851886Y-9103455D01*
X25738640Y-9216701D01*
X25605486Y-9305671D01*
X25457527Y-9366958D01*
X25300460Y-9398200D01*
X25140310Y-9398200D01*
X24983243Y-9366958D01*
X24835284Y-9305671D01*
X24702130Y-9216701D01*
X24588884Y-9103455D01*
X24499914Y-8970301D01*
X24438627Y-8822342D01*
X24407385Y-8665275D01*
X24407385Y-8505125D01*
X24438627Y-8348058D01*
X24499914Y-8200099D01*
X24588884Y-8066945D01*
X24702130Y-7953699D01*
X24835284Y-7864729D01*
X24983243Y-7803442D01*
X25140310Y-7772200D01*
X25300460Y-7772200D01*
X25457527Y-7803442D01*
X25457527Y-7803442D01*
G37*
G36*
X70099842Y-7803442D02*
G01*
X70247801Y-7864729D01*
X70380955Y-7953699D01*
X70494201Y-8066945D01*
X70583171Y-8200099D01*
X70644458Y-8348058D01*
X70675700Y-8505125D01*
X70675700Y-8665275D01*
X70644458Y-8822342D01*
X70583171Y-8970301D01*
X70494201Y-9103455D01*
X70380955Y-9216701D01*
X70247801Y-9305671D01*
X70099842Y-9366958D01*
X69942775Y-9398200D01*
X69782625Y-9398200D01*
X69625558Y-9366958D01*
X69477599Y-9305671D01*
X69344445Y-9216701D01*
X69231199Y-9103455D01*
X69142229Y-8970301D01*
X69080942Y-8822342D01*
X69049700Y-8665275D01*
X69049700Y-8505125D01*
X69080942Y-8348058D01*
X69142229Y-8200099D01*
X69231199Y-8066945D01*
X69344445Y-7953699D01*
X69477599Y-7864729D01*
X69625558Y-7803442D01*
X69782625Y-7772200D01*
X69942775Y-7772200D01*
X70099842Y-7803442D01*
X70099842Y-7803442D01*
G37*
G36*
X62659452Y-7803442D02*
G01*
X62807411Y-7864729D01*
X62940565Y-7953699D01*
X63053811Y-8066945D01*
X63142781Y-8200099D01*
X63204068Y-8348058D01*
X63235310Y-8505125D01*
X63235310Y-8665275D01*
X63204068Y-8822342D01*
X63142781Y-8970301D01*
X63053811Y-9103455D01*
X62940565Y-9216701D01*
X62807411Y-9305671D01*
X62659452Y-9366958D01*
X62502385Y-9398200D01*
X62342235Y-9398200D01*
X62185168Y-9366958D01*
X62037209Y-9305671D01*
X61904055Y-9216701D01*
X61790809Y-9103455D01*
X61701839Y-8970301D01*
X61640552Y-8822342D01*
X61609310Y-8665275D01*
X61609310Y-8505125D01*
X61640552Y-8348058D01*
X61701839Y-8200099D01*
X61790809Y-8066945D01*
X61904055Y-7953699D01*
X62037209Y-7864729D01*
X62185168Y-7803442D01*
X62342235Y-7772200D01*
X62502385Y-7772200D01*
X62659452Y-7803442D01*
X62659452Y-7803442D01*
G37*
G36*
X55219067Y-5263442D02*
G01*
X55367026Y-5324729D01*
X55500180Y-5413699D01*
X55613426Y-5526945D01*
X55702396Y-5660099D01*
X55763683Y-5808058D01*
X55794925Y-5965125D01*
X55794925Y-6125275D01*
X55763683Y-6282342D01*
X55702396Y-6430301D01*
X55613426Y-6563455D01*
X55500180Y-6676701D01*
X55367026Y-6765671D01*
X55219067Y-6826958D01*
X55062000Y-6858200D01*
X54901850Y-6858200D01*
X54744783Y-6826958D01*
X54596824Y-6765671D01*
X54463670Y-6676701D01*
X54350424Y-6563455D01*
X54261454Y-6430301D01*
X54200167Y-6282342D01*
X54168925Y-6125275D01*
X54168925Y-5965125D01*
X54200167Y-5808058D01*
X54261454Y-5660099D01*
X54350424Y-5526945D01*
X54463670Y-5413699D01*
X54596824Y-5324729D01*
X54744783Y-5263442D01*
X54901850Y-5232200D01*
X55062000Y-5232200D01*
X55219067Y-5263442D01*
X55219067Y-5263442D01*
G37*
G36*
X62659452Y-5263442D02*
G01*
X62807411Y-5324729D01*
X62940565Y-5413699D01*
X63053811Y-5526945D01*
X63142781Y-5660099D01*
X63204068Y-5808058D01*
X63235310Y-5965125D01*
X63235310Y-6125275D01*
X63204068Y-6282342D01*
X63142781Y-6430301D01*
X63053811Y-6563455D01*
X62940565Y-6676701D01*
X62807411Y-6765671D01*
X62659452Y-6826958D01*
X62502385Y-6858200D01*
X62342235Y-6858200D01*
X62185168Y-6826958D01*
X62037209Y-6765671D01*
X61904055Y-6676701D01*
X61790809Y-6563455D01*
X61701839Y-6430301D01*
X61640552Y-6282342D01*
X61609310Y-6125275D01*
X61609310Y-5965125D01*
X61640552Y-5808058D01*
X61701839Y-5660099D01*
X61790809Y-5526945D01*
X61904055Y-5413699D01*
X62037209Y-5324729D01*
X62185168Y-5263442D01*
X62342235Y-5232200D01*
X62502385Y-5232200D01*
X62659452Y-5263442D01*
X62659452Y-5263442D01*
G37*
G36*
X18017142Y-5263442D02*
G01*
X18165101Y-5324729D01*
X18298255Y-5413699D01*
X18411501Y-5526945D01*
X18500471Y-5660099D01*
X18561758Y-5808058D01*
X18593000Y-5965125D01*
X18593000Y-6125275D01*
X18561758Y-6282342D01*
X18500471Y-6430301D01*
X18411501Y-6563455D01*
X18298255Y-6676701D01*
X18165101Y-6765671D01*
X18017142Y-6826958D01*
X17860075Y-6858200D01*
X17699925Y-6858200D01*
X17542858Y-6826958D01*
X17394899Y-6765671D01*
X17261745Y-6676701D01*
X17148499Y-6563455D01*
X17059529Y-6430301D01*
X16998242Y-6282342D01*
X16967000Y-6125275D01*
X16967000Y-5965125D01*
X16998242Y-5808058D01*
X17059529Y-5660099D01*
X17148499Y-5526945D01*
X17261745Y-5413699D01*
X17394899Y-5324729D01*
X17542858Y-5263442D01*
X17699925Y-5232200D01*
X17860075Y-5232200D01*
X18017142Y-5263442D01*
X18017142Y-5263442D01*
G37*
G36*
X87625842Y-5263442D02*
G01*
X87773801Y-5324729D01*
X87906955Y-5413699D01*
X88020201Y-5526945D01*
X88109171Y-5660099D01*
X88170458Y-5808058D01*
X88201700Y-5965125D01*
X88201700Y-6125275D01*
X88170458Y-6282342D01*
X88109171Y-6430301D01*
X88020201Y-6563455D01*
X87906955Y-6676701D01*
X87773801Y-6765671D01*
X87625842Y-6826958D01*
X87468775Y-6858200D01*
X87308625Y-6858200D01*
X87151558Y-6826958D01*
X87003599Y-6765671D01*
X86870445Y-6676701D01*
X86757199Y-6563455D01*
X86668229Y-6430301D01*
X86606942Y-6282342D01*
X86575700Y-6125275D01*
X86575700Y-5965125D01*
X86606942Y-5808058D01*
X86668229Y-5660099D01*
X86757199Y-5526945D01*
X86870445Y-5413699D01*
X87003599Y-5324729D01*
X87151558Y-5263442D01*
X87308625Y-5232200D01*
X87468775Y-5232200D01*
X87625842Y-5263442D01*
X87625842Y-5263442D01*
G37*
G36*
X25457527Y-5263442D02*
G01*
X25605486Y-5324729D01*
X25738640Y-5413699D01*
X25851886Y-5526945D01*
X25940856Y-5660099D01*
X26002143Y-5808058D01*
X26033385Y-5965125D01*
X26033385Y-6125275D01*
X26002143Y-6282342D01*
X25940856Y-6430301D01*
X25851886Y-6563455D01*
X25738640Y-6676701D01*
X25605486Y-6765671D01*
X25457527Y-6826958D01*
X25300460Y-6858200D01*
X25140310Y-6858200D01*
X24983243Y-6826958D01*
X24835284Y-6765671D01*
X24702130Y-6676701D01*
X24588884Y-6563455D01*
X24499914Y-6430301D01*
X24438627Y-6282342D01*
X24407385Y-6125275D01*
X24407385Y-5965125D01*
X24438627Y-5808058D01*
X24499914Y-5660099D01*
X24588884Y-5526945D01*
X24702130Y-5413699D01*
X24835284Y-5324729D01*
X24983243Y-5263442D01*
X25140310Y-5232200D01*
X25300460Y-5232200D01*
X25457527Y-5263442D01*
X25457527Y-5263442D01*
G37*
G36*
X32897912Y-5263442D02*
G01*
X33045871Y-5324729D01*
X33179025Y-5413699D01*
X33292271Y-5526945D01*
X33381241Y-5660099D01*
X33442528Y-5808058D01*
X33473770Y-5965125D01*
X33473770Y-6125275D01*
X33442528Y-6282342D01*
X33381241Y-6430301D01*
X33292271Y-6563455D01*
X33179025Y-6676701D01*
X33045871Y-6765671D01*
X32897912Y-6826958D01*
X32740845Y-6858200D01*
X32580695Y-6858200D01*
X32423628Y-6826958D01*
X32275669Y-6765671D01*
X32142515Y-6676701D01*
X32029269Y-6563455D01*
X31940299Y-6430301D01*
X31879012Y-6282342D01*
X31847770Y-6125275D01*
X31847770Y-5965125D01*
X31879012Y-5808058D01*
X31940299Y-5660099D01*
X32029269Y-5526945D01*
X32142515Y-5413699D01*
X32275669Y-5324729D01*
X32423628Y-5263442D01*
X32580695Y-5232200D01*
X32740845Y-5232200D01*
X32897912Y-5263442D01*
X32897912Y-5263442D01*
G37*
G36*
X40338297Y-5263442D02*
G01*
X40486256Y-5324729D01*
X40619410Y-5413699D01*
X40732656Y-5526945D01*
X40821626Y-5660099D01*
X40882913Y-5808058D01*
X40914155Y-5965125D01*
X40914155Y-6125275D01*
X40882913Y-6282342D01*
X40821626Y-6430301D01*
X40732656Y-6563455D01*
X40619410Y-6676701D01*
X40486256Y-6765671D01*
X40338297Y-6826958D01*
X40181230Y-6858200D01*
X40021080Y-6858200D01*
X39864013Y-6826958D01*
X39716054Y-6765671D01*
X39582900Y-6676701D01*
X39469654Y-6563455D01*
X39380684Y-6430301D01*
X39319397Y-6282342D01*
X39288155Y-6125275D01*
X39288155Y-5965125D01*
X39319397Y-5808058D01*
X39380684Y-5660099D01*
X39469654Y-5526945D01*
X39582900Y-5413699D01*
X39716054Y-5324729D01*
X39864013Y-5263442D01*
X40021080Y-5232200D01*
X40181230Y-5232200D01*
X40338297Y-5263442D01*
X40338297Y-5263442D01*
G37*
G36*
X47778682Y-5263442D02*
G01*
X47926641Y-5324729D01*
X48059795Y-5413699D01*
X48173041Y-5526945D01*
X48262011Y-5660099D01*
X48323298Y-5808058D01*
X48354540Y-5965125D01*
X48354540Y-6125275D01*
X48323298Y-6282342D01*
X48262011Y-6430301D01*
X48173041Y-6563455D01*
X48059795Y-6676701D01*
X47926641Y-6765671D01*
X47778682Y-6826958D01*
X47621615Y-6858200D01*
X47461465Y-6858200D01*
X47304398Y-6826958D01*
X47156439Y-6765671D01*
X47023285Y-6676701D01*
X46910039Y-6563455D01*
X46821069Y-6430301D01*
X46759782Y-6282342D01*
X46728540Y-6125275D01*
X46728540Y-5965125D01*
X46759782Y-5808058D01*
X46821069Y-5660099D01*
X46910039Y-5526945D01*
X47023285Y-5413699D01*
X47156439Y-5324729D01*
X47304398Y-5263442D01*
X47461465Y-5232200D01*
X47621615Y-5232200D01*
X47778682Y-5263442D01*
X47778682Y-5263442D01*
G37*
G36*
X70099842Y-5263442D02*
G01*
X70247801Y-5324729D01*
X70380955Y-5413699D01*
X70494201Y-5526945D01*
X70583171Y-5660099D01*
X70644458Y-5808058D01*
X70675700Y-5965125D01*
X70675700Y-6125275D01*
X70644458Y-6282342D01*
X70583171Y-6430301D01*
X70494201Y-6563455D01*
X70380955Y-6676701D01*
X70247801Y-6765671D01*
X70099842Y-6826958D01*
X69942775Y-6858200D01*
X69782625Y-6858200D01*
X69625558Y-6826958D01*
X69477599Y-6765671D01*
X69344445Y-6676701D01*
X69231199Y-6563455D01*
X69142229Y-6430301D01*
X69080942Y-6282342D01*
X69049700Y-6125275D01*
X69049700Y-5965125D01*
X69080942Y-5808058D01*
X69142229Y-5660099D01*
X69231199Y-5526945D01*
X69344445Y-5413699D01*
X69477599Y-5324729D01*
X69625558Y-5263442D01*
X69782625Y-5232200D01*
X69942775Y-5232200D01*
X70099842Y-5263442D01*
X70099842Y-5263442D01*
G37*
M02*
