%TF.GenerationSoftware,KiCad,Pcbnew,5.1.4-3.fc30*%
%TF.CreationDate,2019-10-13T17:27:32+02:00*%
%TF.ProjectId,LED_line,4c45445f-6c69-46e6-952e-6b696361645f,rev?*%
%TF.SameCoordinates,PX4531a5cPY39f1340*%
%TF.FileFunction,Copper,L2,Bot*%
%TF.FilePolarity,Positive*%
%FSLAX46Y46*%
G04 Gerber Fmt 4.6, Leading zero omitted, Abs format (unit mm)*
G04 Created by KiCad (PCBNEW 5.1.4-3.fc30) date 2019-10-13 17:27:32*
%MOMM*%
%LPD*%
G04 APERTURE LIST*
%TA.AperFunction,ComponentPad*%
%ADD10C,1.524000*%
%TD*%
%TA.AperFunction,ComponentPad*%
%ADD11C,1.800000*%
%TD*%
%TA.AperFunction,ComponentPad*%
%ADD12R,1.800000X1.800000*%
%TD*%
%TA.AperFunction,ComponentPad*%
%ADD13O,1.400000X1.400000*%
%TD*%
%TA.AperFunction,ComponentPad*%
%ADD14C,1.400000*%
%TD*%
%TA.AperFunction,Conductor*%
%ADD15C,1.000000*%
%TD*%
G04 APERTURE END LIST*
D10*
%TO.P,J9,1*%
%TO.N,Net-(D1-Pad1)*%
X87388700Y-8585200D03*
%TD*%
%TO.P,J1,1*%
%TO.N,Net-(J1-Pad1)*%
X17780000Y-8585200D03*
%TD*%
D11*
%TO.P,D1,2*%
%TO.N,Net-(D1-Pad2)*%
X4279900Y-45453300D03*
D12*
%TO.P,D1,1*%
%TO.N,Net-(D1-Pad1)*%
X4279900Y-47993300D03*
%TD*%
D11*
%TO.P,D2,2*%
%TO.N,Net-(D2-Pad2)*%
X17213942Y-45453300D03*
D12*
%TO.P,D2,1*%
%TO.N,Net-(D1-Pad1)*%
X17213942Y-47993300D03*
%TD*%
D11*
%TO.P,D3,2*%
%TO.N,Net-(D3-Pad2)*%
X30147984Y-45453300D03*
D12*
%TO.P,D3,1*%
%TO.N,Net-(D1-Pad1)*%
X30147984Y-47993300D03*
%TD*%
D11*
%TO.P,D4,2*%
%TO.N,Net-(D4-Pad2)*%
X43082026Y-45453300D03*
D12*
%TO.P,D4,1*%
%TO.N,Net-(D1-Pad1)*%
X43082026Y-47993300D03*
%TD*%
D11*
%TO.P,D5,2*%
%TO.N,Net-(D5-Pad2)*%
X56016068Y-45453300D03*
D12*
%TO.P,D5,1*%
%TO.N,Net-(D1-Pad1)*%
X56016068Y-47993300D03*
%TD*%
D11*
%TO.P,D6,2*%
%TO.N,Net-(D6-Pad2)*%
X68950110Y-45453300D03*
D12*
%TO.P,D6,1*%
%TO.N,Net-(D1-Pad1)*%
X68950110Y-47993300D03*
%TD*%
D11*
%TO.P,D7,2*%
%TO.N,Net-(D7-Pad2)*%
X81884152Y-45453300D03*
D12*
%TO.P,D7,1*%
%TO.N,Net-(D1-Pad1)*%
X81884152Y-47993300D03*
%TD*%
D11*
%TO.P,D8,2*%
%TO.N,Net-(D8-Pad2)*%
X94818200Y-45453300D03*
D12*
%TO.P,D8,1*%
%TO.N,Net-(D1-Pad1)*%
X94818200Y-47993300D03*
%TD*%
D10*
%TO.P,J2,1*%
%TO.N,Net-(J2-Pad1)*%
X25220385Y-8585200D03*
%TD*%
%TO.P,J3,1*%
%TO.N,Net-(J3-Pad1)*%
X32660770Y-8585200D03*
%TD*%
%TO.P,J4,1*%
%TO.N,Net-(J4-Pad1)*%
X40101155Y-8585200D03*
%TD*%
%TO.P,J5,1*%
%TO.N,Net-(J5-Pad1)*%
X47541540Y-8585200D03*
%TD*%
%TO.P,J6,1*%
%TO.N,Net-(J6-Pad1)*%
X54981925Y-8585200D03*
%TD*%
%TO.P,J7,1*%
%TO.N,Net-(J7-Pad1)*%
X62422310Y-8585200D03*
%TD*%
%TO.P,J8,1*%
%TO.N,Net-(J8-Pad1)*%
X69862700Y-8585200D03*
%TD*%
D13*
%TO.P,R1,2*%
%TO.N,Net-(D1-Pad2)*%
X4254500Y-37744400D03*
D14*
%TO.P,R1,1*%
%TO.N,Net-(J1-Pad1)*%
X4254500Y-30124400D03*
%TD*%
D13*
%TO.P,R2,2*%
%TO.N,Net-(D2-Pad2)*%
X17195800Y-37744400D03*
D14*
%TO.P,R2,1*%
%TO.N,Net-(J2-Pad1)*%
X17195800Y-30124400D03*
%TD*%
D13*
%TO.P,R3,2*%
%TO.N,Net-(D3-Pad2)*%
X30137100Y-37744400D03*
D14*
%TO.P,R3,1*%
%TO.N,Net-(J3-Pad1)*%
X30137100Y-30124400D03*
%TD*%
D13*
%TO.P,R4,2*%
%TO.N,Net-(D4-Pad2)*%
X43078400Y-37744400D03*
D14*
%TO.P,R4,1*%
%TO.N,Net-(J4-Pad1)*%
X43078400Y-30124400D03*
%TD*%
D13*
%TO.P,R5,2*%
%TO.N,Net-(D5-Pad2)*%
X56019700Y-37744400D03*
D14*
%TO.P,R5,1*%
%TO.N,Net-(J5-Pad1)*%
X56019700Y-30124400D03*
%TD*%
D13*
%TO.P,R6,2*%
%TO.N,Net-(D6-Pad2)*%
X68961000Y-37744400D03*
D14*
%TO.P,R6,1*%
%TO.N,Net-(J6-Pad1)*%
X68961000Y-30124400D03*
%TD*%
D13*
%TO.P,R7,2*%
%TO.N,Net-(D7-Pad2)*%
X81902300Y-37744400D03*
D14*
%TO.P,R7,1*%
%TO.N,Net-(J7-Pad1)*%
X81902300Y-30124400D03*
%TD*%
D13*
%TO.P,R8,2*%
%TO.N,Net-(D8-Pad2)*%
X94843600Y-37744400D03*
D14*
%TO.P,R8,1*%
%TO.N,Net-(J8-Pad1)*%
X94843600Y-30124400D03*
%TD*%
D15*
%TO.N,Net-(D1-Pad2)*%
X4254500Y-45427900D02*
X4279900Y-45453300D01*
X4254500Y-37744400D02*
X4254500Y-45427900D01*
%TO.N,Net-(D2-Pad2)*%
X17195800Y-45435158D02*
X17213942Y-45453300D01*
X17195800Y-37744400D02*
X17195800Y-45435158D01*
%TO.N,Net-(D3-Pad2)*%
X30137100Y-45442416D02*
X30147984Y-45453300D01*
X30137100Y-37744400D02*
X30137100Y-45442416D01*
%TO.N,Net-(D4-Pad2)*%
X43078400Y-45449674D02*
X43082026Y-45453300D01*
X43078400Y-37744400D02*
X43078400Y-45449674D01*
%TO.N,Net-(D5-Pad2)*%
X56019700Y-45449668D02*
X56016068Y-45453300D01*
X56019700Y-37744400D02*
X56019700Y-45449668D01*
%TO.N,Net-(D6-Pad2)*%
X68961000Y-45442410D02*
X68950110Y-45453300D01*
X68961000Y-37744400D02*
X68961000Y-45442410D01*
%TO.N,Net-(D7-Pad2)*%
X81902300Y-45435152D02*
X81884152Y-45453300D01*
X81902300Y-37744400D02*
X81902300Y-45435152D01*
%TO.N,Net-(D8-Pad2)*%
X94843600Y-45427900D02*
X94818200Y-45453300D01*
X94843600Y-37744400D02*
X94843600Y-45427900D01*
%TO.N,Net-(J1-Pad1)*%
X4254500Y-22110700D02*
X17780000Y-8585200D01*
X4254500Y-30124400D02*
X4254500Y-22110700D01*
%TO.N,Net-(J2-Pad1)*%
X17195800Y-16609785D02*
X25220385Y-8585200D01*
X17195800Y-30124400D02*
X17195800Y-16609785D01*
%TO.N,Net-(J3-Pad1)*%
X30137100Y-11108870D02*
X32660770Y-8585200D01*
X30137100Y-30124400D02*
X30137100Y-11108870D01*
%TO.N,Net-(J4-Pad1)*%
X43078400Y-11562445D02*
X40101155Y-8585200D01*
X43078400Y-30124400D02*
X43078400Y-11562445D01*
%TO.N,Net-(J5-Pad1)*%
X56019700Y-17063360D02*
X47541540Y-8585200D01*
X56019700Y-30124400D02*
X56019700Y-17063360D01*
%TO.N,Net-(J6-Pad1)*%
X68961000Y-29134451D02*
X59575700Y-19749151D01*
X68961000Y-30124400D02*
X68961000Y-29134451D01*
X59575700Y-13178975D02*
X54981925Y-8585200D01*
X59575700Y-19749151D02*
X59575700Y-13178975D01*
%TO.N,Net-(J7-Pad1)*%
X81902300Y-30124400D02*
X74625200Y-30124400D01*
X62422310Y-17921510D02*
X62422310Y-8585200D01*
X74625200Y-30124400D02*
X62422310Y-17921510D01*
%TO.N,Net-(J8-Pad1)*%
X70624699Y-9347199D02*
X69862700Y-8585200D01*
X91401900Y-30124400D02*
X70624699Y-9347199D01*
X94843600Y-30124400D02*
X91401900Y-30124400D01*
%TO.N,Net-(D1-Pad1)*%
X4279900Y-47993300D02*
X17213942Y-47993300D01*
X17213942Y-47993300D02*
X30147984Y-47993300D01*
X30147984Y-47993300D02*
X43082026Y-47993300D01*
X44982026Y-47993300D02*
X56016068Y-47993300D01*
X43082026Y-47993300D02*
X44982026Y-47993300D01*
X56016068Y-47993300D02*
X68950110Y-47993300D01*
X68950110Y-47993300D02*
X81884152Y-47993300D01*
X81884152Y-47993300D02*
X94818200Y-47993300D01*
X96718200Y-47993300D02*
X98602800Y-46108700D01*
X94818200Y-47993300D02*
X96718200Y-47993300D01*
X98602800Y-46108700D02*
X98602800Y-12458700D01*
X98602800Y-12458700D02*
X94678500Y-8534400D01*
X94627700Y-8585200D02*
X87388700Y-8585200D01*
X94678500Y-8534400D02*
X94627700Y-8585200D01*
%TD*%
M02*
