G04 #@! TF.GenerationSoftware,KiCad,Pcbnew,5.1.4-3.fc30*
G04 #@! TF.CreationDate,2019-09-15T18:20:23+02:00*
G04 #@! TF.ProjectId,LED_line,4c45445f-6c69-46e6-952e-6b696361645f,rev?*
G04 #@! TF.SameCoordinates,Original*
G04 #@! TF.FileFunction,Legend,Top*
G04 #@! TF.FilePolarity,Positive*
%FSLAX46Y46*%
G04 Gerber Fmt 4.6, Leading zero omitted, Abs format (unit mm)*
G04 Created by KiCad (PCBNEW 5.1.4-3.fc30) date 2019-09-15 18:20:23*
%MOMM*%
%LPD*%
G04 APERTURE LIST*
%ADD10C,0.300000*%
%ADD11C,0.120000*%
%ADD12C,0.150000*%
G04 APERTURE END LIST*
D10*
X111262542Y-79627542D02*
X109833971Y-79627542D01*
X109833971Y-76627542D01*
X112262542Y-78056114D02*
X113262542Y-78056114D01*
X113691114Y-79627542D02*
X112262542Y-79627542D01*
X112262542Y-76627542D01*
X113691114Y-76627542D01*
X114976828Y-79627542D02*
X114976828Y-76627542D01*
X115691114Y-76627542D01*
X116119685Y-76770400D01*
X116405400Y-77056114D01*
X116548257Y-77341828D01*
X116691114Y-77913257D01*
X116691114Y-78341828D01*
X116548257Y-78913257D01*
X116405400Y-79198971D01*
X116119685Y-79484685D01*
X115691114Y-79627542D01*
X114976828Y-79627542D01*
X120119685Y-79484685D02*
X120405400Y-79627542D01*
X120976828Y-79627542D01*
X121262542Y-79484685D01*
X121405400Y-79198971D01*
X121405400Y-79056114D01*
X121262542Y-78770400D01*
X120976828Y-78627542D01*
X120548257Y-78627542D01*
X120262542Y-78484685D01*
X120119685Y-78198971D01*
X120119685Y-78056114D01*
X120262542Y-77770400D01*
X120548257Y-77627542D01*
X120976828Y-77627542D01*
X121262542Y-77770400D01*
X122262542Y-77627542D02*
X123405400Y-77627542D01*
X122691114Y-76627542D02*
X122691114Y-79198971D01*
X122833971Y-79484685D01*
X123119685Y-79627542D01*
X123405400Y-79627542D01*
X124405400Y-79627542D02*
X124405400Y-77627542D01*
X124405400Y-78198971D02*
X124548257Y-77913257D01*
X124691114Y-77770400D01*
X124976828Y-77627542D01*
X125262542Y-77627542D01*
X126262542Y-79627542D02*
X126262542Y-77627542D01*
X126262542Y-76627542D02*
X126119685Y-76770400D01*
X126262542Y-76913257D01*
X126405400Y-76770400D01*
X126262542Y-76627542D01*
X126262542Y-76913257D01*
X127691114Y-77627542D02*
X127691114Y-80627542D01*
X127691114Y-77770400D02*
X127976828Y-77627542D01*
X128548257Y-77627542D01*
X128833971Y-77770400D01*
X128976828Y-77913257D01*
X129119685Y-78198971D01*
X129119685Y-79056114D01*
X128976828Y-79341828D01*
X128833971Y-79484685D01*
X128548257Y-79627542D01*
X127976828Y-79627542D01*
X127691114Y-79484685D01*
X107762542Y-84427542D02*
X107762542Y-81427542D01*
X107762542Y-82570400D02*
X108048257Y-82427542D01*
X108619685Y-82427542D01*
X108905400Y-82570400D01*
X109048257Y-82713257D01*
X109191114Y-82998971D01*
X109191114Y-83856114D01*
X109048257Y-84141828D01*
X108905400Y-84284685D01*
X108619685Y-84427542D01*
X108048257Y-84427542D01*
X107762542Y-84284685D01*
X110191114Y-82427542D02*
X110905400Y-84427542D01*
X111619685Y-82427542D02*
X110905400Y-84427542D01*
X110619685Y-85141828D01*
X110476828Y-85284685D01*
X110191114Y-85427542D01*
X114905400Y-84284685D02*
X115333971Y-84427542D01*
X116048257Y-84427542D01*
X116333971Y-84284685D01*
X116476828Y-84141828D01*
X116619685Y-83856114D01*
X116619685Y-83570400D01*
X116476828Y-83284685D01*
X116333971Y-83141828D01*
X116048257Y-82998971D01*
X115476828Y-82856114D01*
X115191114Y-82713257D01*
X115048257Y-82570400D01*
X114905400Y-82284685D01*
X114905400Y-81998971D01*
X115048257Y-81713257D01*
X115191114Y-81570400D01*
X115476828Y-81427542D01*
X116191114Y-81427542D01*
X116619685Y-81570400D01*
X119905400Y-84713257D02*
X119619685Y-84570400D01*
X119333971Y-84284685D01*
X118905400Y-83856114D01*
X118619685Y-83713257D01*
X118333971Y-83713257D01*
X118476828Y-84427542D02*
X118191114Y-84284685D01*
X117905400Y-83998971D01*
X117762542Y-83427542D01*
X117762542Y-82427542D01*
X117905400Y-81856114D01*
X118191114Y-81570400D01*
X118476828Y-81427542D01*
X119048257Y-81427542D01*
X119333971Y-81570400D01*
X119619685Y-81856114D01*
X119762542Y-82427542D01*
X119762542Y-83427542D01*
X119619685Y-83998971D01*
X119333971Y-84284685D01*
X119048257Y-84427542D01*
X118476828Y-84427542D01*
X120762542Y-81427542D02*
X122762542Y-81427542D01*
X121476828Y-84427542D01*
X123905400Y-82856114D02*
X124905400Y-82856114D01*
X125333971Y-84427542D02*
X123905400Y-84427542D01*
X123905400Y-81427542D01*
X125333971Y-81427542D01*
X128619685Y-84713257D02*
X128333971Y-84570400D01*
X128048257Y-84284685D01*
X127619685Y-83856114D01*
X127333971Y-83713257D01*
X127048257Y-83713257D01*
X127191114Y-84427542D02*
X126905400Y-84284685D01*
X126619685Y-83998971D01*
X126476828Y-83427542D01*
X126476828Y-82427542D01*
X126619685Y-81856114D01*
X126905400Y-81570400D01*
X127191114Y-81427542D01*
X127762542Y-81427542D01*
X128048257Y-81570400D01*
X128333971Y-81856114D01*
X128476828Y-82427542D01*
X128476828Y-83427542D01*
X128333971Y-83998971D01*
X128048257Y-84284685D01*
X127762542Y-84427542D01*
X127191114Y-84427542D01*
X129762542Y-82856114D02*
X130762542Y-82856114D01*
X131191114Y-84427542D02*
X129762542Y-84427542D01*
X129762542Y-81427542D01*
X131191114Y-81427542D01*
D11*
X158468800Y-65302000D02*
X158468800Y-66842000D01*
X161468800Y-65302000D02*
X158468800Y-65302000D01*
X161443800Y-70842000D02*
X161443800Y-69092000D01*
X161443800Y-70842000D02*
X158443800Y-70842000D01*
X88860100Y-65302000D02*
X88860100Y-66842000D01*
X91860100Y-65302000D02*
X88860100Y-65302000D01*
X91835100Y-70842000D02*
X91835100Y-69092000D01*
X91835100Y-70842000D02*
X88835100Y-70842000D01*
X77915000Y-109040100D02*
X78071000Y-109040100D01*
X75599000Y-109040100D02*
X75755000Y-109040100D01*
X77914837Y-106438970D02*
G75*
G02X77915000Y-108521061I-1079837J-1041130D01*
G01*
X75755163Y-106438970D02*
G75*
G03X75755000Y-108521061I1079837J-1041130D01*
G01*
X77913608Y-105807765D02*
G75*
G02X78070516Y-109040100I-1078608J-1672335D01*
G01*
X75756392Y-105807765D02*
G75*
G03X75599484Y-109040100I1078608J-1672335D01*
G01*
X90849042Y-109040100D02*
X91005042Y-109040100D01*
X88533042Y-109040100D02*
X88689042Y-109040100D01*
X90848879Y-106438970D02*
G75*
G02X90849042Y-108521061I-1079837J-1041130D01*
G01*
X88689205Y-106438970D02*
G75*
G03X88689042Y-108521061I1079837J-1041130D01*
G01*
X90847650Y-105807765D02*
G75*
G02X91004558Y-109040100I-1078608J-1672335D01*
G01*
X88690434Y-105807765D02*
G75*
G03X88533526Y-109040100I1078608J-1672335D01*
G01*
X103783084Y-109040100D02*
X103939084Y-109040100D01*
X101467084Y-109040100D02*
X101623084Y-109040100D01*
X103782921Y-106438970D02*
G75*
G02X103783084Y-108521061I-1079837J-1041130D01*
G01*
X101623247Y-106438970D02*
G75*
G03X101623084Y-108521061I1079837J-1041130D01*
G01*
X103781692Y-105807765D02*
G75*
G02X103938600Y-109040100I-1078608J-1672335D01*
G01*
X101624476Y-105807765D02*
G75*
G03X101467568Y-109040100I1078608J-1672335D01*
G01*
X116717126Y-109040100D02*
X116873126Y-109040100D01*
X114401126Y-109040100D02*
X114557126Y-109040100D01*
X116716963Y-106438970D02*
G75*
G02X116717126Y-108521061I-1079837J-1041130D01*
G01*
X114557289Y-106438970D02*
G75*
G03X114557126Y-108521061I1079837J-1041130D01*
G01*
X116715734Y-105807765D02*
G75*
G02X116872642Y-109040100I-1078608J-1672335D01*
G01*
X114558518Y-105807765D02*
G75*
G03X114401610Y-109040100I1078608J-1672335D01*
G01*
X129651168Y-109040100D02*
X129807168Y-109040100D01*
X127335168Y-109040100D02*
X127491168Y-109040100D01*
X129651005Y-106438970D02*
G75*
G02X129651168Y-108521061I-1079837J-1041130D01*
G01*
X127491331Y-106438970D02*
G75*
G03X127491168Y-108521061I1079837J-1041130D01*
G01*
X129649776Y-105807765D02*
G75*
G02X129806684Y-109040100I-1078608J-1672335D01*
G01*
X127492560Y-105807765D02*
G75*
G03X127335652Y-109040100I1078608J-1672335D01*
G01*
X142585210Y-109040100D02*
X142741210Y-109040100D01*
X140269210Y-109040100D02*
X140425210Y-109040100D01*
X142585047Y-106438970D02*
G75*
G02X142585210Y-108521061I-1079837J-1041130D01*
G01*
X140425373Y-106438970D02*
G75*
G03X140425210Y-108521061I1079837J-1041130D01*
G01*
X142583818Y-105807765D02*
G75*
G02X142740726Y-109040100I-1078608J-1672335D01*
G01*
X140426602Y-105807765D02*
G75*
G03X140269694Y-109040100I1078608J-1672335D01*
G01*
X155519252Y-109040100D02*
X155675252Y-109040100D01*
X153203252Y-109040100D02*
X153359252Y-109040100D01*
X155519089Y-106438970D02*
G75*
G02X155519252Y-108521061I-1079837J-1041130D01*
G01*
X153359415Y-106438970D02*
G75*
G03X153359252Y-108521061I1079837J-1041130D01*
G01*
X155517860Y-105807765D02*
G75*
G02X155674768Y-109040100I-1078608J-1672335D01*
G01*
X153360644Y-105807765D02*
G75*
G03X153203736Y-109040100I1078608J-1672335D01*
G01*
X168453300Y-109040100D02*
X168609300Y-109040100D01*
X166137300Y-109040100D02*
X166293300Y-109040100D01*
X168453137Y-106438970D02*
G75*
G02X168453300Y-108521061I-1079837J-1041130D01*
G01*
X166293463Y-106438970D02*
G75*
G03X166293300Y-108521061I1079837J-1041130D01*
G01*
X168451908Y-105807765D02*
G75*
G02X168608816Y-109040100I-1078608J-1672335D01*
G01*
X166294692Y-105807765D02*
G75*
G03X166137784Y-109040100I1078608J-1672335D01*
G01*
X96300485Y-65302000D02*
X96300485Y-66842000D01*
X99300485Y-65302000D02*
X96300485Y-65302000D01*
X99275485Y-70842000D02*
X99275485Y-69092000D01*
X99275485Y-70842000D02*
X96275485Y-70842000D01*
X103740870Y-65302000D02*
X103740870Y-66842000D01*
X106740870Y-65302000D02*
X103740870Y-65302000D01*
X106715870Y-70842000D02*
X106715870Y-69092000D01*
X106715870Y-70842000D02*
X103715870Y-70842000D01*
X111181255Y-65302000D02*
X111181255Y-66842000D01*
X114181255Y-65302000D02*
X111181255Y-65302000D01*
X114156255Y-70842000D02*
X114156255Y-69092000D01*
X114156255Y-70842000D02*
X111156255Y-70842000D01*
X118621640Y-65302000D02*
X118621640Y-66842000D01*
X121621640Y-65302000D02*
X118621640Y-65302000D01*
X121596640Y-70842000D02*
X121596640Y-69092000D01*
X121596640Y-70842000D02*
X118596640Y-70842000D01*
X126062025Y-65302000D02*
X126062025Y-66842000D01*
X129062025Y-65302000D02*
X126062025Y-65302000D01*
X129037025Y-70842000D02*
X129037025Y-69092000D01*
X129037025Y-70842000D02*
X126037025Y-70842000D01*
X133502410Y-65302000D02*
X133502410Y-66842000D01*
X136502410Y-65302000D02*
X133502410Y-65302000D01*
X136477410Y-70842000D02*
X136477410Y-69092000D01*
X136477410Y-70842000D02*
X133477410Y-70842000D01*
X140942800Y-65302000D02*
X140942800Y-66842000D01*
X143942800Y-65302000D02*
X140942800Y-65302000D01*
X143917800Y-70842000D02*
X143917800Y-69092000D01*
X143917800Y-70842000D02*
X140917800Y-70842000D01*
X76809600Y-97561200D02*
X76809600Y-96611200D01*
X76809600Y-91821200D02*
X76809600Y-92771200D01*
X77729600Y-96611200D02*
X77729600Y-92771200D01*
X75889600Y-96611200D02*
X77729600Y-96611200D01*
X75889600Y-92771200D02*
X75889600Y-96611200D01*
X77729600Y-92771200D02*
X75889600Y-92771200D01*
X89750900Y-97561200D02*
X89750900Y-96611200D01*
X89750900Y-91821200D02*
X89750900Y-92771200D01*
X90670900Y-96611200D02*
X90670900Y-92771200D01*
X88830900Y-96611200D02*
X90670900Y-96611200D01*
X88830900Y-92771200D02*
X88830900Y-96611200D01*
X90670900Y-92771200D02*
X88830900Y-92771200D01*
X102692200Y-97561200D02*
X102692200Y-96611200D01*
X102692200Y-91821200D02*
X102692200Y-92771200D01*
X103612200Y-96611200D02*
X103612200Y-92771200D01*
X101772200Y-96611200D02*
X103612200Y-96611200D01*
X101772200Y-92771200D02*
X101772200Y-96611200D01*
X103612200Y-92771200D02*
X101772200Y-92771200D01*
X115633500Y-97561200D02*
X115633500Y-96611200D01*
X115633500Y-91821200D02*
X115633500Y-92771200D01*
X116553500Y-96611200D02*
X116553500Y-92771200D01*
X114713500Y-96611200D02*
X116553500Y-96611200D01*
X114713500Y-92771200D02*
X114713500Y-96611200D01*
X116553500Y-92771200D02*
X114713500Y-92771200D01*
X128574800Y-97561200D02*
X128574800Y-96611200D01*
X128574800Y-91821200D02*
X128574800Y-92771200D01*
X129494800Y-96611200D02*
X129494800Y-92771200D01*
X127654800Y-96611200D02*
X129494800Y-96611200D01*
X127654800Y-92771200D02*
X127654800Y-96611200D01*
X129494800Y-92771200D02*
X127654800Y-92771200D01*
X141516100Y-97561200D02*
X141516100Y-96611200D01*
X141516100Y-91821200D02*
X141516100Y-92771200D01*
X142436100Y-96611200D02*
X142436100Y-92771200D01*
X140596100Y-96611200D02*
X142436100Y-96611200D01*
X140596100Y-92771200D02*
X140596100Y-96611200D01*
X142436100Y-92771200D02*
X140596100Y-92771200D01*
X154457400Y-97561200D02*
X154457400Y-96611200D01*
X154457400Y-91821200D02*
X154457400Y-92771200D01*
X155377400Y-96611200D02*
X155377400Y-92771200D01*
X153537400Y-96611200D02*
X155377400Y-96611200D01*
X153537400Y-92771200D02*
X153537400Y-96611200D01*
X155377400Y-92771200D02*
X153537400Y-92771200D01*
X167398700Y-97561200D02*
X167398700Y-96611200D01*
X167398700Y-91821200D02*
X167398700Y-92771200D01*
X168318700Y-96611200D02*
X168318700Y-92771200D01*
X166478700Y-96611200D02*
X168318700Y-96611200D01*
X166478700Y-92771200D02*
X166478700Y-96611200D01*
X168318700Y-92771200D02*
X166478700Y-92771200D01*
D12*
X159110466Y-71219380D02*
X159110466Y-71933666D01*
X159062847Y-72076523D01*
X158967609Y-72171761D01*
X158824752Y-72219380D01*
X158729514Y-72219380D01*
X159634276Y-72219380D02*
X159824752Y-72219380D01*
X159919990Y-72171761D01*
X159967609Y-72124142D01*
X160062847Y-71981285D01*
X160110466Y-71790809D01*
X160110466Y-71409857D01*
X160062847Y-71314619D01*
X160015228Y-71267000D01*
X159919990Y-71219380D01*
X159729514Y-71219380D01*
X159634276Y-71267000D01*
X159586657Y-71314619D01*
X159539038Y-71409857D01*
X159539038Y-71647952D01*
X159586657Y-71743190D01*
X159634276Y-71790809D01*
X159729514Y-71838428D01*
X159919990Y-71838428D01*
X160015228Y-71790809D01*
X160062847Y-71743190D01*
X160110466Y-71647952D01*
X89501766Y-71219380D02*
X89501766Y-71933666D01*
X89454147Y-72076523D01*
X89358909Y-72171761D01*
X89216052Y-72219380D01*
X89120814Y-72219380D01*
X90501766Y-72219380D02*
X89930338Y-72219380D01*
X90216052Y-72219380D02*
X90216052Y-71219380D01*
X90120814Y-71362238D01*
X90025576Y-71457476D01*
X89930338Y-71505095D01*
X74327380Y-108218195D02*
X73327380Y-108218195D01*
X73327380Y-107980100D01*
X73375000Y-107837242D01*
X73470238Y-107742004D01*
X73565476Y-107694385D01*
X73755952Y-107646766D01*
X73898809Y-107646766D01*
X74089285Y-107694385D01*
X74184523Y-107742004D01*
X74279761Y-107837242D01*
X74327380Y-107980100D01*
X74327380Y-108218195D01*
X74327380Y-106694385D02*
X74327380Y-107265814D01*
X74327380Y-106980100D02*
X73327380Y-106980100D01*
X73470238Y-107075338D01*
X73565476Y-107170576D01*
X73613095Y-107265814D01*
X87261422Y-108218195D02*
X86261422Y-108218195D01*
X86261422Y-107980100D01*
X86309042Y-107837242D01*
X86404280Y-107742004D01*
X86499518Y-107694385D01*
X86689994Y-107646766D01*
X86832851Y-107646766D01*
X87023327Y-107694385D01*
X87118565Y-107742004D01*
X87213803Y-107837242D01*
X87261422Y-107980100D01*
X87261422Y-108218195D01*
X86356661Y-107265814D02*
X86309042Y-107218195D01*
X86261422Y-107122957D01*
X86261422Y-106884861D01*
X86309042Y-106789623D01*
X86356661Y-106742004D01*
X86451899Y-106694385D01*
X86547137Y-106694385D01*
X86689994Y-106742004D01*
X87261422Y-107313433D01*
X87261422Y-106694385D01*
X100195464Y-108218195D02*
X99195464Y-108218195D01*
X99195464Y-107980100D01*
X99243084Y-107837242D01*
X99338322Y-107742004D01*
X99433560Y-107694385D01*
X99624036Y-107646766D01*
X99766893Y-107646766D01*
X99957369Y-107694385D01*
X100052607Y-107742004D01*
X100147845Y-107837242D01*
X100195464Y-107980100D01*
X100195464Y-108218195D01*
X99195464Y-107313433D02*
X99195464Y-106694385D01*
X99576417Y-107027719D01*
X99576417Y-106884861D01*
X99624036Y-106789623D01*
X99671655Y-106742004D01*
X99766893Y-106694385D01*
X100004988Y-106694385D01*
X100100226Y-106742004D01*
X100147845Y-106789623D01*
X100195464Y-106884861D01*
X100195464Y-107170576D01*
X100147845Y-107265814D01*
X100100226Y-107313433D01*
X113129506Y-108218195D02*
X112129506Y-108218195D01*
X112129506Y-107980100D01*
X112177126Y-107837242D01*
X112272364Y-107742004D01*
X112367602Y-107694385D01*
X112558078Y-107646766D01*
X112700935Y-107646766D01*
X112891411Y-107694385D01*
X112986649Y-107742004D01*
X113081887Y-107837242D01*
X113129506Y-107980100D01*
X113129506Y-108218195D01*
X112462840Y-106789623D02*
X113129506Y-106789623D01*
X112081887Y-107027719D02*
X112796173Y-107265814D01*
X112796173Y-106646766D01*
X126063548Y-108218195D02*
X125063548Y-108218195D01*
X125063548Y-107980100D01*
X125111168Y-107837242D01*
X125206406Y-107742004D01*
X125301644Y-107694385D01*
X125492120Y-107646766D01*
X125634977Y-107646766D01*
X125825453Y-107694385D01*
X125920691Y-107742004D01*
X126015929Y-107837242D01*
X126063548Y-107980100D01*
X126063548Y-108218195D01*
X125063548Y-106742004D02*
X125063548Y-107218195D01*
X125539739Y-107265814D01*
X125492120Y-107218195D01*
X125444501Y-107122957D01*
X125444501Y-106884861D01*
X125492120Y-106789623D01*
X125539739Y-106742004D01*
X125634977Y-106694385D01*
X125873072Y-106694385D01*
X125968310Y-106742004D01*
X126015929Y-106789623D01*
X126063548Y-106884861D01*
X126063548Y-107122957D01*
X126015929Y-107218195D01*
X125968310Y-107265814D01*
X138997590Y-108218195D02*
X137997590Y-108218195D01*
X137997590Y-107980100D01*
X138045210Y-107837242D01*
X138140448Y-107742004D01*
X138235686Y-107694385D01*
X138426162Y-107646766D01*
X138569019Y-107646766D01*
X138759495Y-107694385D01*
X138854733Y-107742004D01*
X138949971Y-107837242D01*
X138997590Y-107980100D01*
X138997590Y-108218195D01*
X137997590Y-106789623D02*
X137997590Y-106980100D01*
X138045210Y-107075338D01*
X138092829Y-107122957D01*
X138235686Y-107218195D01*
X138426162Y-107265814D01*
X138807114Y-107265814D01*
X138902352Y-107218195D01*
X138949971Y-107170576D01*
X138997590Y-107075338D01*
X138997590Y-106884861D01*
X138949971Y-106789623D01*
X138902352Y-106742004D01*
X138807114Y-106694385D01*
X138569019Y-106694385D01*
X138473781Y-106742004D01*
X138426162Y-106789623D01*
X138378543Y-106884861D01*
X138378543Y-107075338D01*
X138426162Y-107170576D01*
X138473781Y-107218195D01*
X138569019Y-107265814D01*
X151931632Y-108218195D02*
X150931632Y-108218195D01*
X150931632Y-107980100D01*
X150979252Y-107837242D01*
X151074490Y-107742004D01*
X151169728Y-107694385D01*
X151360204Y-107646766D01*
X151503061Y-107646766D01*
X151693537Y-107694385D01*
X151788775Y-107742004D01*
X151884013Y-107837242D01*
X151931632Y-107980100D01*
X151931632Y-108218195D01*
X150931632Y-107313433D02*
X150931632Y-106646766D01*
X151931632Y-107075338D01*
X164865680Y-108218195D02*
X163865680Y-108218195D01*
X163865680Y-107980100D01*
X163913300Y-107837242D01*
X164008538Y-107742004D01*
X164103776Y-107694385D01*
X164294252Y-107646766D01*
X164437109Y-107646766D01*
X164627585Y-107694385D01*
X164722823Y-107742004D01*
X164818061Y-107837242D01*
X164865680Y-107980100D01*
X164865680Y-108218195D01*
X164294252Y-107075338D02*
X164246633Y-107170576D01*
X164199014Y-107218195D01*
X164103776Y-107265814D01*
X164056157Y-107265814D01*
X163960919Y-107218195D01*
X163913300Y-107170576D01*
X163865680Y-107075338D01*
X163865680Y-106884861D01*
X163913300Y-106789623D01*
X163960919Y-106742004D01*
X164056157Y-106694385D01*
X164103776Y-106694385D01*
X164199014Y-106742004D01*
X164246633Y-106789623D01*
X164294252Y-106884861D01*
X164294252Y-107075338D01*
X164341871Y-107170576D01*
X164389490Y-107218195D01*
X164484728Y-107265814D01*
X164675204Y-107265814D01*
X164770442Y-107218195D01*
X164818061Y-107170576D01*
X164865680Y-107075338D01*
X164865680Y-106884861D01*
X164818061Y-106789623D01*
X164770442Y-106742004D01*
X164675204Y-106694385D01*
X164484728Y-106694385D01*
X164389490Y-106742004D01*
X164341871Y-106789623D01*
X164294252Y-106884861D01*
X96942151Y-71219380D02*
X96942151Y-71933666D01*
X96894532Y-72076523D01*
X96799294Y-72171761D01*
X96656437Y-72219380D01*
X96561199Y-72219380D01*
X97370723Y-71314619D02*
X97418342Y-71267000D01*
X97513580Y-71219380D01*
X97751675Y-71219380D01*
X97846913Y-71267000D01*
X97894532Y-71314619D01*
X97942151Y-71409857D01*
X97942151Y-71505095D01*
X97894532Y-71647952D01*
X97323104Y-72219380D01*
X97942151Y-72219380D01*
X104382536Y-71219380D02*
X104382536Y-71933666D01*
X104334917Y-72076523D01*
X104239679Y-72171761D01*
X104096822Y-72219380D01*
X104001584Y-72219380D01*
X104763489Y-71219380D02*
X105382536Y-71219380D01*
X105049203Y-71600333D01*
X105192060Y-71600333D01*
X105287298Y-71647952D01*
X105334917Y-71695571D01*
X105382536Y-71790809D01*
X105382536Y-72028904D01*
X105334917Y-72124142D01*
X105287298Y-72171761D01*
X105192060Y-72219380D01*
X104906346Y-72219380D01*
X104811108Y-72171761D01*
X104763489Y-72124142D01*
X111822921Y-71219380D02*
X111822921Y-71933666D01*
X111775302Y-72076523D01*
X111680064Y-72171761D01*
X111537207Y-72219380D01*
X111441969Y-72219380D01*
X112727683Y-71552714D02*
X112727683Y-72219380D01*
X112489588Y-71171761D02*
X112251493Y-71886047D01*
X112870540Y-71886047D01*
X119263306Y-71219380D02*
X119263306Y-71933666D01*
X119215687Y-72076523D01*
X119120449Y-72171761D01*
X118977592Y-72219380D01*
X118882354Y-72219380D01*
X120215687Y-71219380D02*
X119739497Y-71219380D01*
X119691878Y-71695571D01*
X119739497Y-71647952D01*
X119834735Y-71600333D01*
X120072830Y-71600333D01*
X120168068Y-71647952D01*
X120215687Y-71695571D01*
X120263306Y-71790809D01*
X120263306Y-72028904D01*
X120215687Y-72124142D01*
X120168068Y-72171761D01*
X120072830Y-72219380D01*
X119834735Y-72219380D01*
X119739497Y-72171761D01*
X119691878Y-72124142D01*
X126703691Y-71219380D02*
X126703691Y-71933666D01*
X126656072Y-72076523D01*
X126560834Y-72171761D01*
X126417977Y-72219380D01*
X126322739Y-72219380D01*
X127608453Y-71219380D02*
X127417977Y-71219380D01*
X127322739Y-71267000D01*
X127275120Y-71314619D01*
X127179882Y-71457476D01*
X127132263Y-71647952D01*
X127132263Y-72028904D01*
X127179882Y-72124142D01*
X127227501Y-72171761D01*
X127322739Y-72219380D01*
X127513215Y-72219380D01*
X127608453Y-72171761D01*
X127656072Y-72124142D01*
X127703691Y-72028904D01*
X127703691Y-71790809D01*
X127656072Y-71695571D01*
X127608453Y-71647952D01*
X127513215Y-71600333D01*
X127322739Y-71600333D01*
X127227501Y-71647952D01*
X127179882Y-71695571D01*
X127132263Y-71790809D01*
X134144076Y-71219380D02*
X134144076Y-71933666D01*
X134096457Y-72076523D01*
X134001219Y-72171761D01*
X133858362Y-72219380D01*
X133763124Y-72219380D01*
X134525029Y-71219380D02*
X135191695Y-71219380D01*
X134763124Y-72219380D01*
X141584466Y-71219380D02*
X141584466Y-71933666D01*
X141536847Y-72076523D01*
X141441609Y-72171761D01*
X141298752Y-72219380D01*
X141203514Y-72219380D01*
X142203514Y-71647952D02*
X142108276Y-71600333D01*
X142060657Y-71552714D01*
X142013038Y-71457476D01*
X142013038Y-71409857D01*
X142060657Y-71314619D01*
X142108276Y-71267000D01*
X142203514Y-71219380D01*
X142393990Y-71219380D01*
X142489228Y-71267000D01*
X142536847Y-71314619D01*
X142584466Y-71409857D01*
X142584466Y-71457476D01*
X142536847Y-71552714D01*
X142489228Y-71600333D01*
X142393990Y-71647952D01*
X142203514Y-71647952D01*
X142108276Y-71695571D01*
X142060657Y-71743190D01*
X142013038Y-71838428D01*
X142013038Y-72028904D01*
X142060657Y-72124142D01*
X142108276Y-72171761D01*
X142203514Y-72219380D01*
X142393990Y-72219380D01*
X142489228Y-72171761D01*
X142536847Y-72124142D01*
X142584466Y-72028904D01*
X142584466Y-71838428D01*
X142536847Y-71743190D01*
X142489228Y-71695571D01*
X142393990Y-71647952D01*
X79181980Y-94857866D02*
X78705790Y-95191200D01*
X79181980Y-95429295D02*
X78181980Y-95429295D01*
X78181980Y-95048342D01*
X78229600Y-94953104D01*
X78277219Y-94905485D01*
X78372457Y-94857866D01*
X78515314Y-94857866D01*
X78610552Y-94905485D01*
X78658171Y-94953104D01*
X78705790Y-95048342D01*
X78705790Y-95429295D01*
X79181980Y-93905485D02*
X79181980Y-94476914D01*
X79181980Y-94191200D02*
X78181980Y-94191200D01*
X78324838Y-94286438D01*
X78420076Y-94381676D01*
X78467695Y-94476914D01*
X92123280Y-94857866D02*
X91647090Y-95191200D01*
X92123280Y-95429295D02*
X91123280Y-95429295D01*
X91123280Y-95048342D01*
X91170900Y-94953104D01*
X91218519Y-94905485D01*
X91313757Y-94857866D01*
X91456614Y-94857866D01*
X91551852Y-94905485D01*
X91599471Y-94953104D01*
X91647090Y-95048342D01*
X91647090Y-95429295D01*
X91218519Y-94476914D02*
X91170900Y-94429295D01*
X91123280Y-94334057D01*
X91123280Y-94095961D01*
X91170900Y-94000723D01*
X91218519Y-93953104D01*
X91313757Y-93905485D01*
X91408995Y-93905485D01*
X91551852Y-93953104D01*
X92123280Y-94524533D01*
X92123280Y-93905485D01*
X105064580Y-94857866D02*
X104588390Y-95191200D01*
X105064580Y-95429295D02*
X104064580Y-95429295D01*
X104064580Y-95048342D01*
X104112200Y-94953104D01*
X104159819Y-94905485D01*
X104255057Y-94857866D01*
X104397914Y-94857866D01*
X104493152Y-94905485D01*
X104540771Y-94953104D01*
X104588390Y-95048342D01*
X104588390Y-95429295D01*
X104064580Y-94524533D02*
X104064580Y-93905485D01*
X104445533Y-94238819D01*
X104445533Y-94095961D01*
X104493152Y-94000723D01*
X104540771Y-93953104D01*
X104636009Y-93905485D01*
X104874104Y-93905485D01*
X104969342Y-93953104D01*
X105016961Y-94000723D01*
X105064580Y-94095961D01*
X105064580Y-94381676D01*
X105016961Y-94476914D01*
X104969342Y-94524533D01*
X118005880Y-94857866D02*
X117529690Y-95191200D01*
X118005880Y-95429295D02*
X117005880Y-95429295D01*
X117005880Y-95048342D01*
X117053500Y-94953104D01*
X117101119Y-94905485D01*
X117196357Y-94857866D01*
X117339214Y-94857866D01*
X117434452Y-94905485D01*
X117482071Y-94953104D01*
X117529690Y-95048342D01*
X117529690Y-95429295D01*
X117339214Y-94000723D02*
X118005880Y-94000723D01*
X116958261Y-94238819D02*
X117672547Y-94476914D01*
X117672547Y-93857866D01*
X130947180Y-94857866D02*
X130470990Y-95191200D01*
X130947180Y-95429295D02*
X129947180Y-95429295D01*
X129947180Y-95048342D01*
X129994800Y-94953104D01*
X130042419Y-94905485D01*
X130137657Y-94857866D01*
X130280514Y-94857866D01*
X130375752Y-94905485D01*
X130423371Y-94953104D01*
X130470990Y-95048342D01*
X130470990Y-95429295D01*
X129947180Y-93953104D02*
X129947180Y-94429295D01*
X130423371Y-94476914D01*
X130375752Y-94429295D01*
X130328133Y-94334057D01*
X130328133Y-94095961D01*
X130375752Y-94000723D01*
X130423371Y-93953104D01*
X130518609Y-93905485D01*
X130756704Y-93905485D01*
X130851942Y-93953104D01*
X130899561Y-94000723D01*
X130947180Y-94095961D01*
X130947180Y-94334057D01*
X130899561Y-94429295D01*
X130851942Y-94476914D01*
X143888480Y-94857866D02*
X143412290Y-95191200D01*
X143888480Y-95429295D02*
X142888480Y-95429295D01*
X142888480Y-95048342D01*
X142936100Y-94953104D01*
X142983719Y-94905485D01*
X143078957Y-94857866D01*
X143221814Y-94857866D01*
X143317052Y-94905485D01*
X143364671Y-94953104D01*
X143412290Y-95048342D01*
X143412290Y-95429295D01*
X142888480Y-94000723D02*
X142888480Y-94191200D01*
X142936100Y-94286438D01*
X142983719Y-94334057D01*
X143126576Y-94429295D01*
X143317052Y-94476914D01*
X143698004Y-94476914D01*
X143793242Y-94429295D01*
X143840861Y-94381676D01*
X143888480Y-94286438D01*
X143888480Y-94095961D01*
X143840861Y-94000723D01*
X143793242Y-93953104D01*
X143698004Y-93905485D01*
X143459909Y-93905485D01*
X143364671Y-93953104D01*
X143317052Y-94000723D01*
X143269433Y-94095961D01*
X143269433Y-94286438D01*
X143317052Y-94381676D01*
X143364671Y-94429295D01*
X143459909Y-94476914D01*
X156829780Y-94857866D02*
X156353590Y-95191200D01*
X156829780Y-95429295D02*
X155829780Y-95429295D01*
X155829780Y-95048342D01*
X155877400Y-94953104D01*
X155925019Y-94905485D01*
X156020257Y-94857866D01*
X156163114Y-94857866D01*
X156258352Y-94905485D01*
X156305971Y-94953104D01*
X156353590Y-95048342D01*
X156353590Y-95429295D01*
X155829780Y-94524533D02*
X155829780Y-93857866D01*
X156829780Y-94286438D01*
X169771080Y-94857866D02*
X169294890Y-95191200D01*
X169771080Y-95429295D02*
X168771080Y-95429295D01*
X168771080Y-95048342D01*
X168818700Y-94953104D01*
X168866319Y-94905485D01*
X168961557Y-94857866D01*
X169104414Y-94857866D01*
X169199652Y-94905485D01*
X169247271Y-94953104D01*
X169294890Y-95048342D01*
X169294890Y-95429295D01*
X169199652Y-94286438D02*
X169152033Y-94381676D01*
X169104414Y-94429295D01*
X169009176Y-94476914D01*
X168961557Y-94476914D01*
X168866319Y-94429295D01*
X168818700Y-94381676D01*
X168771080Y-94286438D01*
X168771080Y-94095961D01*
X168818700Y-94000723D01*
X168866319Y-93953104D01*
X168961557Y-93905485D01*
X169009176Y-93905485D01*
X169104414Y-93953104D01*
X169152033Y-94000723D01*
X169199652Y-94095961D01*
X169199652Y-94286438D01*
X169247271Y-94381676D01*
X169294890Y-94429295D01*
X169390128Y-94476914D01*
X169580604Y-94476914D01*
X169675842Y-94429295D01*
X169723461Y-94381676D01*
X169771080Y-94286438D01*
X169771080Y-94095961D01*
X169723461Y-94000723D01*
X169675842Y-93953104D01*
X169580604Y-93905485D01*
X169390128Y-93905485D01*
X169294890Y-93953104D01*
X169247271Y-94000723D01*
X169199652Y-94095961D01*
M02*
