%TF.GenerationSoftware,KiCad,Pcbnew,5.1.4-3.fc30*%
%TF.CreationDate,2019-10-13T17:27:32+02:00*%
%TF.ProjectId,LED_line,4c45445f-6c69-46e6-952e-6b696361645f,rev?*%
%TF.SameCoordinates,PX4531a5cPY39f1340*%
%TF.FileFunction,Drawing*%
%FSLAX46Y46*%
G04 Gerber Fmt 4.6, Leading zero omitted, Abs format (unit mm)*
G04 Created by KiCad (PCBNEW 5.1.4-3.fc30) date 2019-10-13 17:27:32*
%MOMM*%
%LPD*%
G04 APERTURE LIST*
%ADD10C,0.150000*%
G04 APERTURE END LIST*
D10*
X105781380Y-28606247D02*
X105781380Y-29082438D01*
X106257571Y-29130057D01*
X106209952Y-29082438D01*
X106162333Y-28987200D01*
X106162333Y-28749104D01*
X106209952Y-28653866D01*
X106257571Y-28606247D01*
X106352809Y-28558628D01*
X106590904Y-28558628D01*
X106686142Y-28606247D01*
X106733761Y-28653866D01*
X106781380Y-28749104D01*
X106781380Y-28987200D01*
X106733761Y-29082438D01*
X106686142Y-29130057D01*
X105781380Y-27939580D02*
X105781380Y-27844342D01*
X105829000Y-27749104D01*
X105876619Y-27701485D01*
X105971857Y-27653866D01*
X106162333Y-27606247D01*
X106400428Y-27606247D01*
X106590904Y-27653866D01*
X106686142Y-27701485D01*
X106733761Y-27749104D01*
X106781380Y-27844342D01*
X106781380Y-27939580D01*
X106733761Y-28034819D01*
X106686142Y-28082438D01*
X106590904Y-28130057D01*
X106400428Y-28177676D01*
X106162333Y-28177676D01*
X105971857Y-28130057D01*
X105876619Y-28082438D01*
X105829000Y-28034819D01*
X105781380Y-27939580D01*
X106733761Y-27130057D02*
X106781380Y-27130057D01*
X106876619Y-27177676D01*
X106924238Y-27225295D01*
X105781380Y-26511009D02*
X105781380Y-26415771D01*
X105829000Y-26320533D01*
X105876619Y-26272914D01*
X105971857Y-26225295D01*
X106162333Y-26177676D01*
X106400428Y-26177676D01*
X106590904Y-26225295D01*
X106686142Y-26272914D01*
X106733761Y-26320533D01*
X106781380Y-26415771D01*
X106781380Y-26511009D01*
X106733761Y-26606247D01*
X106686142Y-26653866D01*
X106590904Y-26701485D01*
X106400428Y-26749104D01*
X106162333Y-26749104D01*
X105971857Y-26701485D01*
X105876619Y-26653866D01*
X105829000Y-26606247D01*
X105781380Y-26511009D01*
X105781380Y-25558628D02*
X105781380Y-25463390D01*
X105829000Y-25368152D01*
X105876619Y-25320533D01*
X105971857Y-25272914D01*
X106162333Y-25225295D01*
X106400428Y-25225295D01*
X106590904Y-25272914D01*
X106686142Y-25320533D01*
X106733761Y-25368152D01*
X106781380Y-25463390D01*
X106781380Y-25558628D01*
X106733761Y-25653866D01*
X106686142Y-25701485D01*
X106590904Y-25749104D01*
X106400428Y-25796723D01*
X106162333Y-25796723D01*
X105971857Y-25749104D01*
X105876619Y-25701485D01*
X105829000Y-25653866D01*
X105781380Y-25558628D01*
X105781380Y-24606247D02*
X105781380Y-24511009D01*
X105829000Y-24415771D01*
X105876619Y-24368152D01*
X105971857Y-24320533D01*
X106162333Y-24272914D01*
X106400428Y-24272914D01*
X106590904Y-24320533D01*
X106686142Y-24368152D01*
X106733761Y-24415771D01*
X106781380Y-24511009D01*
X106781380Y-24606247D01*
X106733761Y-24701485D01*
X106686142Y-24749104D01*
X106590904Y-24796723D01*
X106400428Y-24844342D01*
X106162333Y-24844342D01*
X105971857Y-24796723D01*
X105876619Y-24749104D01*
X105829000Y-24701485D01*
X105781380Y-24606247D01*
X106781380Y-23082438D02*
X106114714Y-23082438D01*
X106209952Y-23082438D02*
X106162333Y-23034819D01*
X106114714Y-22939580D01*
X106114714Y-22796723D01*
X106162333Y-22701485D01*
X106257571Y-22653866D01*
X106781380Y-22653866D01*
X106257571Y-22653866D02*
X106162333Y-22606247D01*
X106114714Y-22511009D01*
X106114714Y-22368152D01*
X106162333Y-22272914D01*
X106257571Y-22225295D01*
X106781380Y-22225295D01*
X106781380Y-21749104D02*
X106114714Y-21749104D01*
X106209952Y-21749104D02*
X106162333Y-21701485D01*
X106114714Y-21606247D01*
X106114714Y-21463390D01*
X106162333Y-21368152D01*
X106257571Y-21320533D01*
X106781380Y-21320533D01*
X106257571Y-21320533D02*
X106162333Y-21272914D01*
X106114714Y-21177676D01*
X106114714Y-21034819D01*
X106162333Y-20939580D01*
X106257571Y-20891961D01*
X106781380Y-20891961D01*
X105029000Y-49987200D02*
X105029000Y12800D01*
X99910900Y-49987200D02*
X105615421Y-49987200D01*
X99910900Y12800D02*
X105615421Y12800D01*
X105029000Y12800D02*
X105615421Y-1113704D01*
X105029000Y12800D02*
X104442579Y-1113704D01*
X105029000Y-49987200D02*
X105615421Y-48860696D01*
X105029000Y-49987200D02*
X104442579Y-48860696D01*
X45863280Y-53898580D02*
X45291852Y-53898580D01*
X45577566Y-53898580D02*
X45577566Y-52898580D01*
X45482328Y-53041438D01*
X45387090Y-53136676D01*
X45291852Y-53184295D01*
X46482328Y-52898580D02*
X46577566Y-52898580D01*
X46672804Y-52946200D01*
X46720423Y-52993819D01*
X46768042Y-53089057D01*
X46815661Y-53279533D01*
X46815661Y-53517628D01*
X46768042Y-53708104D01*
X46720423Y-53803342D01*
X46672804Y-53850961D01*
X46577566Y-53898580D01*
X46482328Y-53898580D01*
X46387090Y-53850961D01*
X46339471Y-53803342D01*
X46291852Y-53708104D01*
X46244233Y-53517628D01*
X46244233Y-53279533D01*
X46291852Y-53089057D01*
X46339471Y-52993819D01*
X46387090Y-52946200D01*
X46482328Y-52898580D01*
X47434709Y-52898580D02*
X47529947Y-52898580D01*
X47625185Y-52946200D01*
X47672804Y-52993819D01*
X47720423Y-53089057D01*
X47768042Y-53279533D01*
X47768042Y-53517628D01*
X47720423Y-53708104D01*
X47672804Y-53803342D01*
X47625185Y-53850961D01*
X47529947Y-53898580D01*
X47434709Y-53898580D01*
X47339471Y-53850961D01*
X47291852Y-53803342D01*
X47244233Y-53708104D01*
X47196614Y-53517628D01*
X47196614Y-53279533D01*
X47244233Y-53089057D01*
X47291852Y-52993819D01*
X47339471Y-52946200D01*
X47434709Y-52898580D01*
X48244233Y-53850961D02*
X48244233Y-53898580D01*
X48196614Y-53993819D01*
X48148995Y-54041438D01*
X48863280Y-52898580D02*
X48958519Y-52898580D01*
X49053757Y-52946200D01*
X49101376Y-52993819D01*
X49148995Y-53089057D01*
X49196614Y-53279533D01*
X49196614Y-53517628D01*
X49148995Y-53708104D01*
X49101376Y-53803342D01*
X49053757Y-53850961D01*
X48958519Y-53898580D01*
X48863280Y-53898580D01*
X48768042Y-53850961D01*
X48720423Y-53803342D01*
X48672804Y-53708104D01*
X48625185Y-53517628D01*
X48625185Y-53279533D01*
X48672804Y-53089057D01*
X48720423Y-52993819D01*
X48768042Y-52946200D01*
X48863280Y-52898580D01*
X49815661Y-52898580D02*
X49910900Y-52898580D01*
X50006138Y-52946200D01*
X50053757Y-52993819D01*
X50101376Y-53089057D01*
X50148995Y-53279533D01*
X50148995Y-53517628D01*
X50101376Y-53708104D01*
X50053757Y-53803342D01*
X50006138Y-53850961D01*
X49910900Y-53898580D01*
X49815661Y-53898580D01*
X49720423Y-53850961D01*
X49672804Y-53803342D01*
X49625185Y-53708104D01*
X49577566Y-53517628D01*
X49577566Y-53279533D01*
X49625185Y-53089057D01*
X49672804Y-52993819D01*
X49720423Y-52946200D01*
X49815661Y-52898580D01*
X50768042Y-52898580D02*
X50863280Y-52898580D01*
X50958519Y-52946200D01*
X51006138Y-52993819D01*
X51053757Y-53089057D01*
X51101376Y-53279533D01*
X51101376Y-53517628D01*
X51053757Y-53708104D01*
X51006138Y-53803342D01*
X50958519Y-53850961D01*
X50863280Y-53898580D01*
X50768042Y-53898580D01*
X50672804Y-53850961D01*
X50625185Y-53803342D01*
X50577566Y-53708104D01*
X50529947Y-53517628D01*
X50529947Y-53279533D01*
X50577566Y-53089057D01*
X50625185Y-52993819D01*
X50672804Y-52946200D01*
X50768042Y-52898580D01*
X52291852Y-53898580D02*
X52291852Y-53231914D01*
X52291852Y-53327152D02*
X52339471Y-53279533D01*
X52434709Y-53231914D01*
X52577566Y-53231914D01*
X52672804Y-53279533D01*
X52720423Y-53374771D01*
X52720423Y-53898580D01*
X52720423Y-53374771D02*
X52768042Y-53279533D01*
X52863280Y-53231914D01*
X53006138Y-53231914D01*
X53101376Y-53279533D01*
X53148995Y-53374771D01*
X53148995Y-53898580D01*
X53625185Y-53898580D02*
X53625185Y-53231914D01*
X53625185Y-53327152D02*
X53672804Y-53279533D01*
X53768042Y-53231914D01*
X53910900Y-53231914D01*
X54006138Y-53279533D01*
X54053757Y-53374771D01*
X54053757Y-53898580D01*
X54053757Y-53374771D02*
X54101376Y-53279533D01*
X54196614Y-53231914D01*
X54339471Y-53231914D01*
X54434709Y-53279533D01*
X54482328Y-53374771D01*
X54482328Y-53898580D01*
X-89100Y-52146200D02*
X99910900Y-52146200D01*
X-89100Y-49987200D02*
X-89100Y-52732621D01*
X99910900Y-49987200D02*
X99910900Y-52732621D01*
X99910900Y-52146200D02*
X98784396Y-52732621D01*
X99910900Y-52146200D02*
X98784396Y-51559779D01*
X-89100Y-52146200D02*
X1037404Y-52732621D01*
X-89100Y-52146200D02*
X1037404Y-51559779D01*
M02*
