M48
; DRILL file {KiCad 5.1.4-3.fc30} date nie, 15 wrz 2019, 18:20:35
; FORMAT={-:-/ absolute / inch / decimal}
; #@! TF.CreationDate,2019-09-15T18:20:35+02:00
; #@! TF.GenerationSoftware,Kicad,Pcbnew,5.1.4-3.fc30
; #@! TF.FileFunction,Plated,1,2,PTH
FMAT,2
INCH
T1C0.0276
T2C0.0300
T3C0.0354
%
G90
G05
T1
X6.5905Y-3.878
X6.081Y-3.578
X6.081Y-3.878
X4.043Y-3.578
X5.5715Y-3.578
X5.5715Y-3.878
X5.062Y-3.578
X5.062Y-3.878
X3.024Y-3.578
X3.024Y-3.878
X3.5335Y-3.578
X3.5335Y-3.878
X4.5525Y-3.578
X4.5525Y-3.878
X6.5905Y-3.578
X4.043Y-3.878
T2
X5.607Y-2.73
X3.8494Y-2.73
X4.4353Y-2.73
X5.0211Y-2.73
X3.5565Y-2.73
X4.7282Y-2.73
X5.3141Y-2.73
X6.297Y-2.73
X4.1424Y-2.73
T3
X4.0434Y-4.1815
X4.0434Y-4.2815
X5.5711Y-4.1815
X5.5711Y-4.2815
X3.025Y-4.1815
X3.025Y-4.2815
X5.0619Y-4.1815
X5.0619Y-4.2815
X6.0803Y-4.1815
X6.0803Y-4.2815
X4.5526Y-4.1815
X4.5526Y-4.2815
X3.5342Y-4.1815
X3.5342Y-4.2815
X6.5895Y-4.1815
X6.5895Y-4.2815
T0
M30
