G04 #@! TF.GenerationSoftware,KiCad,Pcbnew,5.1.4-3.fc30*
G04 #@! TF.CreationDate,2019-09-15T16:21:58+02:00*
G04 #@! TF.ProjectId,LED_line,4c45445f-6c69-46e6-952e-6b696361645f,rev?*
G04 #@! TF.SameCoordinates,Original*
G04 #@! TF.FileFunction,Other,User*
%FSLAX46Y46*%
G04 Gerber Fmt 4.6, Leading zero omitted, Abs format (unit mm)*
G04 Created by KiCad (PCBNEW 5.1.4-3.fc30) date 2019-09-15 16:21:58*
%MOMM*%
%LPD*%
G04 APERTURE LIST*
%ADD10C,0.120000*%
%ADD11C,0.050000*%
G04 APERTURE END LIST*
D10*
X158443800Y-65302000D02*
X158443800Y-70827000D01*
X161443800Y-65317000D02*
X161443800Y-70842000D01*
X161443800Y-65302000D02*
X158443800Y-65302000D01*
X161443800Y-70842000D02*
X158443800Y-70842000D01*
X88835100Y-65302000D02*
X88835100Y-70827000D01*
X91835100Y-65317000D02*
X91835100Y-70842000D01*
X91835100Y-65302000D02*
X88835100Y-65302000D01*
X91835100Y-70842000D02*
X88835100Y-70842000D01*
D11*
X74585000Y-105050100D02*
X74585000Y-109900100D01*
X79085000Y-105050100D02*
X74585000Y-105050100D01*
X79085000Y-109900100D02*
X79085000Y-105050100D01*
X74585000Y-109900100D02*
X79085000Y-109900100D01*
X87519042Y-105050100D02*
X87519042Y-109900100D01*
X92019042Y-105050100D02*
X87519042Y-105050100D01*
X92019042Y-109900100D02*
X92019042Y-105050100D01*
X87519042Y-109900100D02*
X92019042Y-109900100D01*
X100453084Y-105050100D02*
X100453084Y-109900100D01*
X104953084Y-105050100D02*
X100453084Y-105050100D01*
X104953084Y-109900100D02*
X104953084Y-105050100D01*
X100453084Y-109900100D02*
X104953084Y-109900100D01*
X113387126Y-105050100D02*
X113387126Y-109900100D01*
X117887126Y-105050100D02*
X113387126Y-105050100D01*
X117887126Y-109900100D02*
X117887126Y-105050100D01*
X113387126Y-109900100D02*
X117887126Y-109900100D01*
X126321168Y-105050100D02*
X126321168Y-109900100D01*
X130821168Y-105050100D02*
X126321168Y-105050100D01*
X130821168Y-109900100D02*
X130821168Y-105050100D01*
X126321168Y-109900100D02*
X130821168Y-109900100D01*
X139255210Y-105050100D02*
X139255210Y-109900100D01*
X143755210Y-105050100D02*
X139255210Y-105050100D01*
X143755210Y-109900100D02*
X143755210Y-105050100D01*
X139255210Y-109900100D02*
X143755210Y-109900100D01*
X152189252Y-105050100D02*
X152189252Y-109900100D01*
X156689252Y-105050100D02*
X152189252Y-105050100D01*
X156689252Y-109900100D02*
X156689252Y-105050100D01*
X152189252Y-109900100D02*
X156689252Y-109900100D01*
X165123300Y-105050100D02*
X165123300Y-109900100D01*
X169623300Y-105050100D02*
X165123300Y-105050100D01*
X169623300Y-109900100D02*
X169623300Y-105050100D01*
X165123300Y-109900100D02*
X169623300Y-109900100D01*
D10*
X96275485Y-65302000D02*
X96275485Y-70827000D01*
X99275485Y-65317000D02*
X99275485Y-70842000D01*
X99275485Y-65302000D02*
X96275485Y-65302000D01*
X99275485Y-70842000D02*
X96275485Y-70842000D01*
X103715870Y-65302000D02*
X103715870Y-70827000D01*
X106715870Y-65317000D02*
X106715870Y-70842000D01*
X106715870Y-65302000D02*
X103715870Y-65302000D01*
X106715870Y-70842000D02*
X103715870Y-70842000D01*
X111156255Y-65302000D02*
X111156255Y-70827000D01*
X114156255Y-65317000D02*
X114156255Y-70842000D01*
X114156255Y-65302000D02*
X111156255Y-65302000D01*
X114156255Y-70842000D02*
X111156255Y-70842000D01*
X118596640Y-65302000D02*
X118596640Y-70827000D01*
X121596640Y-65317000D02*
X121596640Y-70842000D01*
X121596640Y-65302000D02*
X118596640Y-65302000D01*
X121596640Y-70842000D02*
X118596640Y-70842000D01*
X126037025Y-65302000D02*
X126037025Y-70827000D01*
X129037025Y-65317000D02*
X129037025Y-70842000D01*
X129037025Y-65302000D02*
X126037025Y-65302000D01*
X129037025Y-70842000D02*
X126037025Y-70842000D01*
X133477410Y-65302000D02*
X133477410Y-70827000D01*
X136477410Y-65317000D02*
X136477410Y-70842000D01*
X136477410Y-65302000D02*
X133477410Y-65302000D01*
X136477410Y-70842000D02*
X133477410Y-70842000D01*
X140917800Y-65302000D02*
X140917800Y-70827000D01*
X143917800Y-65317000D02*
X143917800Y-70842000D01*
X143917800Y-65302000D02*
X140917800Y-65302000D01*
X143917800Y-70842000D02*
X140917800Y-70842000D01*
D11*
X77859600Y-99451200D02*
X77859600Y-89931200D01*
X75759600Y-99451200D02*
X77859600Y-99451200D01*
X75759600Y-89931200D02*
X75759600Y-99451200D01*
X77859600Y-89931200D02*
X75759600Y-89931200D01*
X90800900Y-99451200D02*
X90800900Y-89931200D01*
X88700900Y-99451200D02*
X90800900Y-99451200D01*
X88700900Y-89931200D02*
X88700900Y-99451200D01*
X90800900Y-89931200D02*
X88700900Y-89931200D01*
X103742200Y-99451200D02*
X103742200Y-89931200D01*
X101642200Y-99451200D02*
X103742200Y-99451200D01*
X101642200Y-89931200D02*
X101642200Y-99451200D01*
X103742200Y-89931200D02*
X101642200Y-89931200D01*
X116683500Y-99451200D02*
X116683500Y-89931200D01*
X114583500Y-99451200D02*
X116683500Y-99451200D01*
X114583500Y-89931200D02*
X114583500Y-99451200D01*
X116683500Y-89931200D02*
X114583500Y-89931200D01*
X129624800Y-99451200D02*
X129624800Y-89931200D01*
X127524800Y-99451200D02*
X129624800Y-99451200D01*
X127524800Y-89931200D02*
X127524800Y-99451200D01*
X129624800Y-89931200D02*
X127524800Y-89931200D01*
X142566100Y-99451200D02*
X142566100Y-89931200D01*
X140466100Y-99451200D02*
X142566100Y-99451200D01*
X140466100Y-89931200D02*
X140466100Y-99451200D01*
X142566100Y-89931200D02*
X140466100Y-89931200D01*
X155507400Y-99451200D02*
X155507400Y-89931200D01*
X153407400Y-99451200D02*
X155507400Y-99451200D01*
X153407400Y-89931200D02*
X153407400Y-99451200D01*
X155507400Y-89931200D02*
X153407400Y-89931200D01*
X168448700Y-99451200D02*
X168448700Y-89931200D01*
X166348700Y-99451200D02*
X168448700Y-99451200D01*
X166348700Y-89931200D02*
X166348700Y-99451200D01*
X168448700Y-89931200D02*
X166348700Y-89931200D01*
M02*
