G04 #@! TF.GenerationSoftware,KiCad,Pcbnew,5.1.4-3.fc30*
G04 #@! TF.CreationDate,2019-09-15T18:20:23+02:00*
G04 #@! TF.ProjectId,LED_line,4c45445f-6c69-46e6-952e-6b696361645f,rev?*
G04 #@! TF.SameCoordinates,Original*
G04 #@! TF.FileFunction,Copper,L2,Bot*
G04 #@! TF.FilePolarity,Positive*
%FSLAX46Y46*%
G04 Gerber Fmt 4.6, Leading zero omitted, Abs format (unit mm)*
G04 Created by KiCad (PCBNEW 5.1.4-3.fc30) date 2019-09-15 18:20:23*
%MOMM*%
%LPD*%
G04 APERTURE LIST*
%ADD10C,1.524000*%
%ADD11C,1.800000*%
%ADD12R,1.800000X1.800000*%
%ADD13O,1.400000X1.400000*%
%ADD14C,1.400000*%
%ADD15C,1.000000*%
G04 APERTURE END LIST*
D10*
X159943800Y-69342000D03*
X90335100Y-69342000D03*
D11*
X76835000Y-106210100D03*
D12*
X76835000Y-108750100D03*
D11*
X89769042Y-106210100D03*
D12*
X89769042Y-108750100D03*
D11*
X102703084Y-106210100D03*
D12*
X102703084Y-108750100D03*
D11*
X115637126Y-106210100D03*
D12*
X115637126Y-108750100D03*
D11*
X128571168Y-106210100D03*
D12*
X128571168Y-108750100D03*
D11*
X141505210Y-106210100D03*
D12*
X141505210Y-108750100D03*
D11*
X154439252Y-106210100D03*
D12*
X154439252Y-108750100D03*
D11*
X167373300Y-106210100D03*
D12*
X167373300Y-108750100D03*
D10*
X97775485Y-69342000D03*
X105215870Y-69342000D03*
X112656255Y-69342000D03*
X120096640Y-69342000D03*
X127537025Y-69342000D03*
X134977410Y-69342000D03*
X142417800Y-69342000D03*
D13*
X76809600Y-98501200D03*
D14*
X76809600Y-90881200D03*
D13*
X89750900Y-98501200D03*
D14*
X89750900Y-90881200D03*
D13*
X102692200Y-98501200D03*
D14*
X102692200Y-90881200D03*
D13*
X115633500Y-98501200D03*
D14*
X115633500Y-90881200D03*
D13*
X128574800Y-98501200D03*
D14*
X128574800Y-90881200D03*
D13*
X141516100Y-98501200D03*
D14*
X141516100Y-90881200D03*
D13*
X154457400Y-98501200D03*
D14*
X154457400Y-90881200D03*
D13*
X167398700Y-98501200D03*
D14*
X167398700Y-90881200D03*
D15*
X76809600Y-106184700D02*
X76835000Y-106210100D01*
X76809600Y-98501200D02*
X76809600Y-106184700D01*
X89750900Y-106191958D02*
X89769042Y-106210100D01*
X89750900Y-98501200D02*
X89750900Y-106191958D01*
X102692200Y-106199216D02*
X102703084Y-106210100D01*
X102692200Y-98501200D02*
X102692200Y-106199216D01*
X115633500Y-106206474D02*
X115637126Y-106210100D01*
X115633500Y-98501200D02*
X115633500Y-106206474D01*
X128574800Y-106206468D02*
X128571168Y-106210100D01*
X128574800Y-98501200D02*
X128574800Y-106206468D01*
X141516100Y-106199210D02*
X141505210Y-106210100D01*
X141516100Y-98501200D02*
X141516100Y-106199210D01*
X154457400Y-106191952D02*
X154439252Y-106210100D01*
X154457400Y-98501200D02*
X154457400Y-106191952D01*
X167398700Y-106184700D02*
X167373300Y-106210100D01*
X167398700Y-98501200D02*
X167398700Y-106184700D01*
X76809600Y-82867500D02*
X90335100Y-69342000D01*
X76809600Y-90881200D02*
X76809600Y-82867500D01*
X89750900Y-77366585D02*
X97775485Y-69342000D01*
X89750900Y-90881200D02*
X89750900Y-77366585D01*
X102692200Y-71865670D02*
X105215870Y-69342000D01*
X102692200Y-90881200D02*
X102692200Y-71865670D01*
X115633500Y-72319245D02*
X112656255Y-69342000D01*
X115633500Y-90881200D02*
X115633500Y-72319245D01*
X128574800Y-77820160D02*
X120096640Y-69342000D01*
X128574800Y-90881200D02*
X128574800Y-77820160D01*
X141516100Y-89891251D02*
X132130800Y-80505951D01*
X141516100Y-90881200D02*
X141516100Y-89891251D01*
X132130800Y-73935775D02*
X127537025Y-69342000D01*
X132130800Y-80505951D02*
X132130800Y-73935775D01*
X154457400Y-90881200D02*
X147180300Y-90881200D01*
X134977410Y-78678310D02*
X134977410Y-69342000D01*
X147180300Y-90881200D02*
X134977410Y-78678310D01*
X143179799Y-70103999D02*
X142417800Y-69342000D01*
X163957000Y-90881200D02*
X143179799Y-70103999D01*
X167398700Y-90881200D02*
X163957000Y-90881200D01*
X76835000Y-108750100D02*
X89769042Y-108750100D01*
X89769042Y-108750100D02*
X102703084Y-108750100D01*
X102703084Y-108750100D02*
X115637126Y-108750100D01*
X117537126Y-108750100D02*
X128571168Y-108750100D01*
X115637126Y-108750100D02*
X117537126Y-108750100D01*
X128571168Y-108750100D02*
X141505210Y-108750100D01*
X141505210Y-108750100D02*
X154439252Y-108750100D01*
X154439252Y-108750100D02*
X167373300Y-108750100D01*
X169273300Y-108750100D02*
X171157900Y-106865500D01*
X167373300Y-108750100D02*
X169273300Y-108750100D01*
X171157900Y-106865500D02*
X171157900Y-73215500D01*
X171157900Y-73215500D02*
X167233600Y-69291200D01*
X167182800Y-69342000D02*
X159943800Y-69342000D01*
X167233600Y-69291200D02*
X167182800Y-69342000D01*
M02*
