%TF.GenerationSoftware,KiCad,Pcbnew,5.1.4-3.fc31*%
%TF.CreationDate,2019-11-20T03:39:40+01:00*%
%TF.ProjectId,microUSB-to-pcb-adapter,6d696372-6f55-4534-922d-746f2d706362,1.0*%
%TF.SameCoordinates,PX5ad6650PY59a0560*%
%TF.FileFunction,Other,Fab,Top*%
%FSLAX46Y46*%
G04 Gerber Fmt 4.6, Leading zero omitted, Abs format (unit mm)*
G04 Created by KiCad (PCBNEW 5.1.4-3.fc31) date 2019-11-20 03:39:40*
%MOMM*%
%LPD*%
G04 APERTURE LIST*
%ADD10C,0.100000*%
%ADD11C,0.150000*%
G04 APERTURE END LIST*
D10*
%TO.C,J1*%
X-110000Y13410000D02*
X-110000Y6910000D01*
X-810000Y13910000D02*
X4190000Y13910000D01*
X4190000Y13910000D02*
X4190000Y6410000D01*
X4190000Y6410000D02*
X-810000Y6410000D01*
X-810000Y6410000D02*
X-810000Y13910000D01*
%TD*%
%TO.C,J1*%
D11*
X6437380Y5636191D02*
X7246904Y5636191D01*
X7342142Y5683810D01*
X7389761Y5731429D01*
X7437380Y5826667D01*
X7437380Y6017143D01*
X7389761Y6112381D01*
X7342142Y6160000D01*
X7246904Y6207620D01*
X6437380Y6207620D01*
X7389761Y6636191D02*
X7437380Y6779048D01*
X7437380Y7017143D01*
X7389761Y7112381D01*
X7342142Y7160000D01*
X7246904Y7207620D01*
X7151666Y7207620D01*
X7056428Y7160000D01*
X7008809Y7112381D01*
X6961190Y7017143D01*
X6913571Y6826667D01*
X6865952Y6731429D01*
X6818333Y6683810D01*
X6723095Y6636191D01*
X6627857Y6636191D01*
X6532619Y6683810D01*
X6485000Y6731429D01*
X6437380Y6826667D01*
X6437380Y7064762D01*
X6485000Y7207620D01*
X6913571Y7969524D02*
X6961190Y8112381D01*
X7008809Y8160000D01*
X7104047Y8207620D01*
X7246904Y8207620D01*
X7342142Y8160000D01*
X7389761Y8112381D01*
X7437380Y8017143D01*
X7437380Y7636191D01*
X6437380Y7636191D01*
X6437380Y7969524D01*
X6485000Y8064762D01*
X6532619Y8112381D01*
X6627857Y8160000D01*
X6723095Y8160000D01*
X6818333Y8112381D01*
X6865952Y8064762D01*
X6913571Y7969524D01*
X6913571Y7636191D01*
X7532619Y8398096D02*
X7532619Y9160000D01*
X6913571Y9731429D02*
X6961190Y9874286D01*
X7008809Y9921905D01*
X7104047Y9969524D01*
X7246904Y9969524D01*
X7342142Y9921905D01*
X7389761Y9874286D01*
X7437380Y9779048D01*
X7437380Y9398096D01*
X6437380Y9398096D01*
X6437380Y9731429D01*
X6485000Y9826667D01*
X6532619Y9874286D01*
X6627857Y9921905D01*
X6723095Y9921905D01*
X6818333Y9874286D01*
X6865952Y9826667D01*
X6913571Y9731429D01*
X6913571Y9398096D01*
X7532619Y10160000D02*
X7532619Y10921905D01*
X7437380Y11160000D02*
X6437380Y11160000D01*
X7151666Y11493334D01*
X6437380Y11826667D01*
X7437380Y11826667D01*
X7437380Y12302858D02*
X6770714Y12302858D01*
X6437380Y12302858D02*
X6485000Y12255239D01*
X6532619Y12302858D01*
X6485000Y12350477D01*
X6437380Y12302858D01*
X6532619Y12302858D01*
X7389761Y13207620D02*
X7437380Y13112381D01*
X7437380Y12921905D01*
X7389761Y12826667D01*
X7342142Y12779048D01*
X7246904Y12731429D01*
X6961190Y12731429D01*
X6865952Y12779048D01*
X6818333Y12826667D01*
X6770714Y12921905D01*
X6770714Y13112381D01*
X6818333Y13207620D01*
X7437380Y13636191D02*
X6770714Y13636191D01*
X6961190Y13636191D02*
X6865952Y13683810D01*
X6818333Y13731429D01*
X6770714Y13826667D01*
X6770714Y13921905D01*
X7437380Y14398096D02*
X7389761Y14302858D01*
X7342142Y14255239D01*
X7246904Y14207620D01*
X6961190Y14207620D01*
X6865952Y14255239D01*
X6818333Y14302858D01*
X6770714Y14398096D01*
X6770714Y14540953D01*
X6818333Y14636191D01*
X6865952Y14683810D01*
X6961190Y14731429D01*
X7246904Y14731429D01*
X7342142Y14683810D01*
X7389761Y14636191D01*
X7437380Y14540953D01*
X7437380Y14398096D01*
X792380Y9826667D02*
X1506666Y9826667D01*
X1649523Y9779048D01*
X1744761Y9683810D01*
X1792380Y9540953D01*
X1792380Y9445715D01*
X1792380Y10826667D02*
X1792380Y10255239D01*
X1792380Y10540953D02*
X792380Y10540953D01*
X935238Y10445715D01*
X1030476Y10350477D01*
X1078095Y10255239D01*
%TD*%
M02*
