%TF.GenerationSoftware,KiCad,Pcbnew,5.1.4-3.fc31*%
%TF.CreationDate,2019-11-20T03:39:40+01:00*%
%TF.ProjectId,microUSB-to-pcb-adapter,6d696372-6f55-4534-922d-746f2d706362,1.0*%
%TF.SameCoordinates,PX5ad6650PY59a0560*%
%TF.FileFunction,Legend,Top*%
%TF.FilePolarity,Positive*%
%FSLAX46Y46*%
G04 Gerber Fmt 4.6, Leading zero omitted, Abs format (unit mm)*
G04 Created by KiCad (PCBNEW 5.1.4-3.fc31) date 2019-11-20 03:39:40*
%MOMM*%
%LPD*%
G04 APERTURE LIST*
%ADD10C,0.150000*%
%ADD11C,0.120000*%
%ADD12R,2.002000X1.277000*%
%ADD13R,2.002000X2.477000*%
%ADD14R,2.202000X1.577000*%
%ADD15R,1.482000X0.552000*%
%ADD16R,1.802000X1.802000*%
%ADD17O,1.802000X1.802000*%
G04 APERTURE END LIST*
D10*
X9294761Y5621977D02*
X9342380Y5764834D01*
X9342380Y6002929D01*
X9294761Y6098167D01*
X9247142Y6145786D01*
X9151904Y6193405D01*
X9056666Y6193405D01*
X8961428Y6145786D01*
X8913809Y6098167D01*
X8866190Y6002929D01*
X8818571Y5812453D01*
X8770952Y5717215D01*
X8723333Y5669596D01*
X8628095Y5621977D01*
X8532857Y5621977D01*
X8437619Y5669596D01*
X8390000Y5717215D01*
X8342380Y5812453D01*
X8342380Y6050548D01*
X8390000Y6193405D01*
X9342380Y6621977D02*
X8342380Y6621977D01*
X8818571Y6621977D02*
X8818571Y7193405D01*
X9342380Y7193405D02*
X8342380Y7193405D01*
X9342380Y7669596D02*
X8342380Y7669596D01*
X8818571Y8145786D02*
X8818571Y8479120D01*
X9342380Y8621977D02*
X9342380Y8145786D01*
X8342380Y8145786D01*
X8342380Y8621977D01*
X9342380Y9526739D02*
X9342380Y9050548D01*
X8342380Y9050548D01*
X9342380Y9860072D02*
X8342380Y9860072D01*
X8342380Y10098167D01*
X8390000Y10241024D01*
X8485238Y10336262D01*
X8580476Y10383881D01*
X8770952Y10431500D01*
X8913809Y10431500D01*
X9104285Y10383881D01*
X9199523Y10336262D01*
X9294761Y10241024D01*
X9342380Y10098167D01*
X9342380Y9860072D01*
X10930000Y6193405D02*
X10882380Y6098167D01*
X10882380Y5955310D01*
X10930000Y5812453D01*
X11025238Y5717215D01*
X11120476Y5669596D01*
X11310952Y5621977D01*
X11453809Y5621977D01*
X11644285Y5669596D01*
X11739523Y5717215D01*
X11834761Y5812453D01*
X11882380Y5955310D01*
X11882380Y6050548D01*
X11834761Y6193405D01*
X11787142Y6241024D01*
X11453809Y6241024D01*
X11453809Y6050548D01*
X11882380Y6669596D02*
X10882380Y6669596D01*
X11882380Y7241024D01*
X10882380Y7241024D01*
X11882380Y7717215D02*
X10882380Y7717215D01*
X10882380Y7955310D01*
X10930000Y8098167D01*
X11025238Y8193405D01*
X11120476Y8241024D01*
X11310952Y8288643D01*
X11453809Y8288643D01*
X11644285Y8241024D01*
X11739523Y8193405D01*
X11834761Y8098167D01*
X11882380Y7955310D01*
X11882380Y7717215D01*
X14422380Y5669596D02*
X13422380Y5669596D01*
X14422380Y6145786D02*
X13422380Y6145786D01*
X13422380Y6383881D01*
X13470000Y6526739D01*
X13565238Y6621977D01*
X13660476Y6669596D01*
X13850952Y6717215D01*
X13993809Y6717215D01*
X14184285Y6669596D01*
X14279523Y6621977D01*
X14374761Y6526739D01*
X14422380Y6383881D01*
X14422380Y6145786D01*
X16962380Y5723048D02*
X15962380Y5723048D01*
X15962380Y5961143D01*
X16010000Y6104000D01*
X16105238Y6199239D01*
X16200476Y6246858D01*
X16390952Y6294477D01*
X16533809Y6294477D01*
X16724285Y6246858D01*
X16819523Y6199239D01*
X16914761Y6104000D01*
X16962380Y5961143D01*
X16962380Y5723048D01*
X16581428Y6723048D02*
X16581428Y7484953D01*
X16962380Y7104000D02*
X16200476Y7104000D01*
X19502380Y5669596D02*
X18502380Y5669596D01*
X18502380Y5907691D01*
X18550000Y6050548D01*
X18645238Y6145786D01*
X18740476Y6193405D01*
X18930952Y6241024D01*
X19073809Y6241024D01*
X19264285Y6193405D01*
X19359523Y6145786D01*
X19454761Y6050548D01*
X19502380Y5907691D01*
X19502380Y5669596D01*
X19121428Y6669596D02*
X19121428Y7431500D01*
X21042380Y5780739D02*
X22042380Y6114072D01*
X21042380Y6447405D01*
X21518571Y7114072D02*
X21566190Y7256929D01*
X21613809Y7304548D01*
X21709047Y7352167D01*
X21851904Y7352167D01*
X21947142Y7304548D01*
X21994761Y7256929D01*
X22042380Y7161691D01*
X22042380Y6780739D01*
X21042380Y6780739D01*
X21042380Y7114072D01*
X21090000Y7209310D01*
X21137619Y7256929D01*
X21232857Y7304548D01*
X21328095Y7304548D01*
X21423333Y7256929D01*
X21470952Y7209310D01*
X21518571Y7114072D01*
X21518571Y6780739D01*
X21042380Y7780739D02*
X21851904Y7780739D01*
X21947142Y7828358D01*
X21994761Y7875977D01*
X22042380Y7971215D01*
X22042380Y8161691D01*
X21994761Y8256929D01*
X21947142Y8304548D01*
X21851904Y8352167D01*
X21042380Y8352167D01*
X21994761Y8780739D02*
X22042380Y8923596D01*
X22042380Y9161691D01*
X21994761Y9256929D01*
X21947142Y9304548D01*
X21851904Y9352167D01*
X21756666Y9352167D01*
X21661428Y9304548D01*
X21613809Y9256929D01*
X21566190Y9161691D01*
X21518571Y8971215D01*
X21470952Y8875977D01*
X21423333Y8828358D01*
X21328095Y8780739D01*
X21232857Y8780739D01*
X21137619Y8828358D01*
X21090000Y8875977D01*
X21042380Y8971215D01*
X21042380Y9209310D01*
X21090000Y9352167D01*
X8723547Y13326620D02*
X8806880Y13993286D01*
X8794976Y13898048D02*
X8848547Y13945667D01*
X8949738Y13993286D01*
X9092595Y13993286D01*
X9181880Y13945667D01*
X9217595Y13850429D01*
X9152119Y13326620D01*
X9217595Y13850429D02*
X9277119Y13945667D01*
X9378309Y13993286D01*
X9521166Y13993286D01*
X9610452Y13945667D01*
X9646166Y13850429D01*
X9580690Y13326620D01*
X10056880Y13326620D02*
X10140214Y13993286D01*
X10181880Y14326620D02*
X10128309Y14279000D01*
X10169976Y14231381D01*
X10223547Y14279000D01*
X10181880Y14326620D01*
X10169976Y14231381D01*
X10967595Y13374239D02*
X10866404Y13326620D01*
X10675928Y13326620D01*
X10586642Y13374239D01*
X10544976Y13421858D01*
X10509261Y13517096D01*
X10544976Y13802810D01*
X10604500Y13898048D01*
X10658071Y13945667D01*
X10759261Y13993286D01*
X10949738Y13993286D01*
X11039023Y13945667D01*
X11390214Y13326620D02*
X11473547Y13993286D01*
X11449738Y13802810D02*
X11509261Y13898048D01*
X11562833Y13945667D01*
X11664023Y13993286D01*
X11759261Y13993286D01*
X12152119Y13326620D02*
X12062833Y13374239D01*
X12021166Y13421858D01*
X11985452Y13517096D01*
X12021166Y13802810D01*
X12080690Y13898048D01*
X12134261Y13945667D01*
X12235452Y13993286D01*
X12378309Y13993286D01*
X12467595Y13945667D01*
X12509261Y13898048D01*
X12544976Y13802810D01*
X12509261Y13517096D01*
X12449738Y13421858D01*
X12396166Y13374239D01*
X12294976Y13326620D01*
X12152119Y13326620D01*
X13039023Y14326620D02*
X12937833Y13517096D01*
X12973547Y13421858D01*
X13015214Y13374239D01*
X13104500Y13326620D01*
X13294976Y13326620D01*
X13396166Y13374239D01*
X13449738Y13421858D01*
X13509261Y13517096D01*
X13610452Y14326620D01*
X13919976Y13374239D02*
X14056880Y13326620D01*
X14294976Y13326620D01*
X14396166Y13374239D01*
X14449738Y13421858D01*
X14509261Y13517096D01*
X14521166Y13612334D01*
X14485452Y13707572D01*
X14443785Y13755191D01*
X14354500Y13802810D01*
X14169976Y13850429D01*
X14080690Y13898048D01*
X14039023Y13945667D01*
X14003309Y14040905D01*
X14015214Y14136143D01*
X14074738Y14231381D01*
X14128309Y14279000D01*
X14229500Y14326620D01*
X14467595Y14326620D01*
X14604500Y14279000D01*
X15312833Y13850429D02*
X15449738Y13802810D01*
X15491404Y13755191D01*
X15527119Y13659953D01*
X15509261Y13517096D01*
X15449738Y13421858D01*
X15396166Y13374239D01*
X15294976Y13326620D01*
X14914023Y13326620D01*
X15039023Y14326620D01*
X15372357Y14326620D01*
X15461642Y14279000D01*
X15503309Y14231381D01*
X15539023Y14136143D01*
X15527119Y14040905D01*
X15467595Y13945667D01*
X15414023Y13898048D01*
X15312833Y13850429D01*
X14979500Y13850429D01*
X16616404Y13993286D02*
X16997357Y13993286D01*
X16800928Y14326620D02*
X16693785Y13469477D01*
X16729500Y13374239D01*
X16818785Y13326620D01*
X16914023Y13326620D01*
X17390214Y13326620D02*
X17300928Y13374239D01*
X17259261Y13421858D01*
X17223547Y13517096D01*
X17259261Y13802810D01*
X17318785Y13898048D01*
X17372357Y13945667D01*
X17473547Y13993286D01*
X17616404Y13993286D01*
X17705690Y13945667D01*
X17747357Y13898048D01*
X17783071Y13802810D01*
X17747357Y13517096D01*
X17687833Y13421858D01*
X17634261Y13374239D01*
X17533071Y13326620D01*
X17390214Y13326620D01*
X18914023Y13326620D02*
X19039023Y14326620D01*
X19419976Y14326620D01*
X19509261Y14279000D01*
X19550928Y14231381D01*
X19586642Y14136143D01*
X19568785Y13993286D01*
X19509261Y13898048D01*
X19455690Y13850429D01*
X19354500Y13802810D01*
X18973547Y13802810D01*
X20497357Y13421858D02*
X20443785Y13374239D01*
X20294976Y13326620D01*
X20199738Y13326620D01*
X20062833Y13374239D01*
X19979500Y13469477D01*
X19943785Y13564715D01*
X19919976Y13755191D01*
X19937833Y13898048D01*
X20009261Y14088524D01*
X20068785Y14183762D01*
X20175928Y14279000D01*
X20324738Y14326620D01*
X20419976Y14326620D01*
X20556880Y14279000D01*
X20598547Y14231381D01*
X21312833Y13850429D02*
X21449738Y13802810D01*
X21491404Y13755191D01*
X21527119Y13659953D01*
X21509261Y13517096D01*
X21449738Y13421858D01*
X21396166Y13374239D01*
X21294976Y13326620D01*
X20914023Y13326620D01*
X21039023Y14326620D01*
X21372357Y14326620D01*
X21461642Y14279000D01*
X21503309Y14231381D01*
X21539023Y14136143D01*
X21527119Y14040905D01*
X21467595Y13945667D01*
X21414023Y13898048D01*
X21312833Y13850429D01*
X20979500Y13850429D01*
X8711642Y11962334D02*
X9187833Y11962334D01*
X8580690Y11676620D02*
X9039023Y12676620D01*
X9247357Y11676620D01*
X10009261Y11676620D02*
X10134261Y12676620D01*
X10015214Y11724239D02*
X9914023Y11676620D01*
X9723547Y11676620D01*
X9634261Y11724239D01*
X9592595Y11771858D01*
X9556880Y11867096D01*
X9592595Y12152810D01*
X9652119Y12248048D01*
X9705690Y12295667D01*
X9806880Y12343286D01*
X9997357Y12343286D01*
X10086642Y12295667D01*
X10914023Y11676620D02*
X10979500Y12200429D01*
X10943785Y12295667D01*
X10854500Y12343286D01*
X10664023Y12343286D01*
X10562833Y12295667D01*
X10919976Y11724239D02*
X10818785Y11676620D01*
X10580690Y11676620D01*
X10491404Y11724239D01*
X10455690Y11819477D01*
X10467595Y11914715D01*
X10527119Y12009953D01*
X10628309Y12057572D01*
X10866404Y12057572D01*
X10967595Y12105191D01*
X11473547Y12343286D02*
X11348547Y11343286D01*
X11467595Y12295667D02*
X11568785Y12343286D01*
X11759261Y12343286D01*
X11848547Y12295667D01*
X11890214Y12248048D01*
X11925928Y12152810D01*
X11890214Y11867096D01*
X11830690Y11771858D01*
X11777119Y11724239D01*
X11675928Y11676620D01*
X11485452Y11676620D01*
X11396166Y11724239D01*
X12235452Y12343286D02*
X12616404Y12343286D01*
X12419976Y12676620D02*
X12312833Y11819477D01*
X12348547Y11724239D01*
X12437833Y11676620D01*
X12533071Y11676620D01*
X13253309Y11724239D02*
X13152119Y11676620D01*
X12961642Y11676620D01*
X12872357Y11724239D01*
X12836642Y11819477D01*
X12884261Y12200429D01*
X12943785Y12295667D01*
X13044976Y12343286D01*
X13235452Y12343286D01*
X13324738Y12295667D01*
X13360452Y12200429D01*
X13348547Y12105191D01*
X12860452Y12009953D01*
X13723547Y11676620D02*
X13806880Y12343286D01*
X13783071Y12152810D02*
X13842595Y12248048D01*
X13896166Y12295667D01*
X13997357Y12343286D01*
X14092595Y12343286D01*
X15104500Y11676620D02*
X15229500Y12676620D01*
X15181880Y12295667D02*
X15283071Y12343286D01*
X15473547Y12343286D01*
X15562833Y12295667D01*
X15604500Y12248048D01*
X15640214Y12152810D01*
X15604500Y11867096D01*
X15544976Y11771858D01*
X15491404Y11724239D01*
X15390214Y11676620D01*
X15199738Y11676620D01*
X15110452Y11724239D01*
X15997357Y12343286D02*
X16152119Y11676620D01*
X16473547Y12343286D02*
X16152119Y11676620D01*
X16027119Y11438524D01*
X15973547Y11390905D01*
X15872357Y11343286D01*
X17491404Y11724239D02*
X17628309Y11676620D01*
X17866404Y11676620D01*
X17967595Y11724239D01*
X18021166Y11771858D01*
X18080690Y11867096D01*
X18092595Y11962334D01*
X18056880Y12057572D01*
X18015214Y12105191D01*
X17925928Y12152810D01*
X17741404Y12200429D01*
X17652119Y12248048D01*
X17610452Y12295667D01*
X17574738Y12390905D01*
X17586642Y12486143D01*
X17646166Y12581381D01*
X17699738Y12629000D01*
X17800928Y12676620D01*
X18039023Y12676620D01*
X18175928Y12629000D01*
X19140214Y11581381D02*
X19050928Y11629000D01*
X18967595Y11724239D01*
X18842595Y11867096D01*
X18753309Y11914715D01*
X18658071Y11914715D01*
X18675928Y11676620D02*
X18586642Y11724239D01*
X18503309Y11819477D01*
X18479500Y12009953D01*
X18521166Y12343286D01*
X18592595Y12533762D01*
X18699738Y12629000D01*
X18800928Y12676620D01*
X18991404Y12676620D01*
X19080690Y12629000D01*
X19164023Y12533762D01*
X19187833Y12343286D01*
X19146166Y12009953D01*
X19074738Y11819477D01*
X18967595Y11724239D01*
X18866404Y11676620D01*
X18675928Y11676620D01*
X19562833Y12676620D02*
X20229500Y12676620D01*
X19675928Y11676620D01*
X20550928Y12200429D02*
X20884261Y12200429D01*
X20961642Y11676620D02*
X20485452Y11676620D01*
X20610452Y12676620D01*
X21086642Y12676620D01*
X22044976Y11581381D02*
X21955690Y11629000D01*
X21872357Y11724239D01*
X21747357Y11867096D01*
X21658071Y11914715D01*
X21562833Y11914715D01*
X21580690Y11676620D02*
X21491404Y11724239D01*
X21408071Y11819477D01*
X21384261Y12009953D01*
X21425928Y12343286D01*
X21497357Y12533762D01*
X21604500Y12629000D01*
X21705690Y12676620D01*
X21896166Y12676620D01*
X21985452Y12629000D01*
X22068785Y12533762D01*
X22092595Y12343286D01*
X22050928Y12009953D01*
X21979500Y11819477D01*
X21872357Y11724239D01*
X21771166Y11676620D01*
X21580690Y11676620D01*
X22503309Y12200429D02*
X22836642Y12200429D01*
X22914023Y11676620D02*
X22437833Y11676620D01*
X22562833Y12676620D01*
X23039023Y12676620D01*
X9080476Y4992620D02*
X8890000Y4992620D01*
X8794761Y4945000D01*
X8747142Y4897381D01*
X8651904Y4754524D01*
X8604285Y4564048D01*
X8604285Y4183096D01*
X8651904Y4087858D01*
X8699523Y4040239D01*
X8794761Y3992620D01*
X8985238Y3992620D01*
X9080476Y4040239D01*
X9128095Y4087858D01*
X9175714Y4183096D01*
X9175714Y4421191D01*
X9128095Y4516429D01*
X9080476Y4564048D01*
X8985238Y4611667D01*
X8794761Y4611667D01*
X8699523Y4564048D01*
X8651904Y4516429D01*
X8604285Y4421191D01*
X11668095Y4992620D02*
X11191904Y4992620D01*
X11144285Y4516429D01*
X11191904Y4564048D01*
X11287142Y4611667D01*
X11525238Y4611667D01*
X11620476Y4564048D01*
X11668095Y4516429D01*
X11715714Y4421191D01*
X11715714Y4183096D01*
X11668095Y4087858D01*
X11620476Y4040239D01*
X11525238Y3992620D01*
X11287142Y3992620D01*
X11191904Y4040239D01*
X11144285Y4087858D01*
X14160476Y4659286D02*
X14160476Y3992620D01*
X13922380Y5040239D02*
X13684285Y4325953D01*
X14303333Y4325953D01*
X16176666Y4992620D02*
X16795714Y4992620D01*
X16462380Y4611667D01*
X16605238Y4611667D01*
X16700476Y4564048D01*
X16748095Y4516429D01*
X16795714Y4421191D01*
X16795714Y4183096D01*
X16748095Y4087858D01*
X16700476Y4040239D01*
X16605238Y3992620D01*
X16319523Y3992620D01*
X16224285Y4040239D01*
X16176666Y4087858D01*
X18764285Y4897381D02*
X18811904Y4945000D01*
X18907142Y4992620D01*
X19145238Y4992620D01*
X19240476Y4945000D01*
X19288095Y4897381D01*
X19335714Y4802143D01*
X19335714Y4706905D01*
X19288095Y4564048D01*
X18716666Y3992620D01*
X19335714Y3992620D01*
X21875714Y3992620D02*
X21304285Y3992620D01*
X21590000Y3992620D02*
X21590000Y4992620D01*
X21494761Y4849762D01*
X21399523Y4754524D01*
X21304285Y4706905D01*
D11*
%TO.C,J1*%
X-60000Y13970000D02*
X200000Y13970000D01*
X2480000Y13970000D02*
X4250000Y13970000D01*
X4250000Y13970000D02*
X4250000Y13590000D01*
X4250000Y6350000D02*
X2480000Y6350000D01*
X200000Y6350000D02*
X-60000Y6350000D01*
X4250000Y6350000D02*
X4250000Y6730000D01*
D10*
X5292380Y9826667D02*
X6006666Y9826667D01*
X6149523Y9779048D01*
X6244761Y9683810D01*
X6292380Y9540953D01*
X6292380Y9445715D01*
X6292380Y10826667D02*
X6292380Y10255239D01*
X6292380Y10540953D02*
X5292380Y10540953D01*
X5435238Y10445715D01*
X5530476Y10350477D01*
X5578095Y10255239D01*
%TD*%
%LPC*%
D12*
%TO.C,J1*%
X1340000Y9320000D03*
X1340000Y11000000D03*
D13*
X1340000Y7250000D03*
X1340000Y13070000D03*
D14*
X3640000Y7697500D03*
X3640000Y12622500D03*
D15*
X4000000Y8860000D03*
X4000000Y9510000D03*
X4000000Y10160000D03*
X4000000Y10810000D03*
X4000000Y11460000D03*
%TD*%
D16*
%TO.C,J2*%
X21590000Y2540000D03*
D17*
X19050000Y2540000D03*
X16510000Y2540000D03*
X13970000Y2540000D03*
X11430000Y2540000D03*
X8890000Y2540000D03*
%TD*%
M02*
