%TF.GenerationSoftware,KiCad,Pcbnew,5.1.4-3.fc31*%
%TF.CreationDate,2019-11-19T11:19:27+01:00*%
%TF.ProjectId,microUSB-to-pcb-adapter,6d696372-6f55-4534-922d-746f2d706362,rev?*%
%TF.SameCoordinates,PX5ad6650PY59a0560*%
%TF.FileFunction,Copper,L1,Top*%
%TF.FilePolarity,Positive*%
%FSLAX46Y46*%
G04 Gerber Fmt 4.6, Leading zero omitted, Abs format (unit mm)*
G04 Created by KiCad (PCBNEW 5.1.4-3.fc31) date 2019-11-19 11:19:27*
%MOMM*%
%LPD*%
G04 APERTURE LIST*
%TA.AperFunction,SMDPad,CuDef*%
%ADD10R,1.900000X1.175000*%
%TD*%
%TA.AperFunction,SMDPad,CuDef*%
%ADD11R,1.900000X2.375000*%
%TD*%
%TA.AperFunction,SMDPad,CuDef*%
%ADD12R,2.100000X1.475000*%
%TD*%
%TA.AperFunction,SMDPad,CuDef*%
%ADD13R,1.380000X0.450000*%
%TD*%
%TA.AperFunction,ComponentPad*%
%ADD14R,1.700000X1.700000*%
%TD*%
%TA.AperFunction,ComponentPad*%
%ADD15O,1.700000X1.700000*%
%TD*%
%TA.AperFunction,Conductor*%
%ADD16C,0.350000*%
%TD*%
%TA.AperFunction,Conductor*%
%ADD17C,0.254000*%
%TD*%
G04 APERTURE END LIST*
D10*
%TO.P,J1,6*%
%TO.N,Net-(J1-Pad6)*%
X1340000Y9320000D03*
X1340000Y11000000D03*
D11*
X1340000Y7250000D03*
X1340000Y13070000D03*
D12*
X3640000Y7697500D03*
X3640000Y12622500D03*
D13*
%TO.P,J1,5*%
%TO.N,Net-(J1-Pad5)*%
X4000000Y8860000D03*
%TO.P,J1,4*%
%TO.N,Net-(J1-Pad4)*%
X4000000Y9510000D03*
%TO.P,J1,3*%
%TO.N,Net-(J1-Pad3)*%
X4000000Y10160000D03*
%TO.P,J1,2*%
%TO.N,Net-(J1-Pad2)*%
X4000000Y10810000D03*
%TO.P,J1,1*%
%TO.N,Net-(J1-Pad1)*%
X4000000Y11460000D03*
%TD*%
D14*
%TO.P,J2,1*%
%TO.N,Net-(J1-Pad1)*%
X21590000Y2540000D03*
D15*
%TO.P,J2,2*%
%TO.N,Net-(J1-Pad2)*%
X19050000Y2540000D03*
%TO.P,J2,3*%
%TO.N,Net-(J1-Pad3)*%
X16510000Y2540000D03*
%TO.P,J2,4*%
%TO.N,Net-(J1-Pad4)*%
X13970000Y2540000D03*
%TO.P,J2,5*%
%TO.N,Net-(J1-Pad5)*%
X11430000Y2540000D03*
%TO.P,J2,6*%
%TO.N,Net-(J1-Pad6)*%
X8890000Y2540000D03*
%TD*%
D16*
%TO.N,Net-(J1-Pad6)*%
X4002500Y7660000D02*
X7580000Y7660000D01*
X8890000Y6350000D02*
X8890000Y2540000D01*
X7580000Y7660000D02*
X8890000Y6350000D01*
X1702500Y7660000D02*
X1302500Y7260000D01*
X4002500Y7660000D02*
X1702500Y7660000D01*
X1302500Y7260000D02*
X1302500Y9160000D01*
X1302500Y10192500D02*
X1302500Y13060000D01*
X1302500Y10192500D02*
X1302500Y11160000D01*
X1302500Y9160000D02*
X1302500Y10192500D01*
X3602500Y13060000D02*
X4002500Y12660000D01*
X1302500Y13060000D02*
X3602500Y13060000D01*
%TO.N,Net-(J1-Pad2)*%
X4002500Y10810000D02*
X17130000Y10810000D01*
X17130000Y10810000D02*
X19050000Y8890000D01*
X19050000Y8890000D02*
X19050000Y2540000D01*
%TO.N,Net-(J1-Pad1)*%
X4002500Y11460000D02*
X20290000Y11460000D01*
X21590000Y10160000D02*
X21590000Y2540000D01*
X20290000Y11460000D02*
X21590000Y10160000D01*
%TO.N,Net-(J1-Pad5)*%
X4002500Y8860000D02*
X10190000Y8860000D01*
X11430000Y7620000D02*
X11430000Y2540000D01*
X10190000Y8860000D02*
X11430000Y7620000D01*
%TO.N,Net-(J1-Pad4)*%
X4002500Y9510000D02*
X13350000Y9510000D01*
X13970000Y8890000D02*
X13970000Y2540000D01*
X13350000Y9510000D02*
X13970000Y8890000D01*
%TO.N,Net-(J1-Pad3)*%
X16510000Y8890000D02*
X16510000Y2540000D01*
X4002500Y10160000D02*
X15240000Y10160000D01*
X15240000Y10160000D02*
X16510000Y8890000D01*
%TD*%
D17*
%TO.N,Net-(J1-Pad6)*%
G36*
X23470001Y660000D02*
G01*
X660000Y660000D01*
X660000Y2183109D01*
X7448519Y2183109D01*
X7545843Y1908748D01*
X7694822Y1658645D01*
X7889731Y1442412D01*
X8123080Y1268359D01*
X8385901Y1143175D01*
X8533110Y1098524D01*
X8763000Y1219845D01*
X8763000Y2413000D01*
X7569186Y2413000D01*
X7448519Y2183109D01*
X660000Y2183109D01*
X660000Y2896891D01*
X7448519Y2896891D01*
X7569186Y2667000D01*
X8763000Y2667000D01*
X8763000Y3860155D01*
X8533110Y3981476D01*
X8385901Y3936825D01*
X8123080Y3811641D01*
X7889731Y3637588D01*
X7694822Y3421355D01*
X7545843Y3171252D01*
X7448519Y2896891D01*
X660000Y2896891D01*
X660000Y5425677D01*
X1054250Y5427500D01*
X1213000Y5586250D01*
X1213000Y7123000D01*
X1193000Y7123000D01*
X1193000Y7377000D01*
X1213000Y7377000D01*
X1213000Y9193000D01*
X1193000Y9193000D01*
X1193000Y9447000D01*
X1213000Y9447000D01*
X1213000Y10873000D01*
X1193000Y10873000D01*
X1193000Y11127000D01*
X1213000Y11127000D01*
X1213000Y12943000D01*
X1193000Y12943000D01*
X1193000Y13197000D01*
X1213000Y13197000D01*
X1213000Y13217000D01*
X1467000Y13217000D01*
X1467000Y13197000D01*
X1487000Y13197000D01*
X1487000Y12943000D01*
X1467000Y12943000D01*
X1467000Y11127000D01*
X1487000Y11127000D01*
X1487000Y10873000D01*
X1467000Y10873000D01*
X1467000Y9447000D01*
X1487000Y9447000D01*
X1487000Y9193000D01*
X1467000Y9193000D01*
X1467000Y7377000D01*
X1487000Y7377000D01*
X1487000Y7123000D01*
X1467000Y7123000D01*
X1467000Y5586250D01*
X1625750Y5427500D01*
X2290000Y5424428D01*
X2414482Y5436688D01*
X2534180Y5472998D01*
X2644494Y5531963D01*
X2741185Y5611315D01*
X2820537Y5708006D01*
X2879502Y5818320D01*
X2915812Y5938018D01*
X2928072Y6062500D01*
X2927184Y6323283D01*
X3354250Y6325000D01*
X3513000Y6483750D01*
X3513000Y7570500D01*
X3767000Y7570500D01*
X3767000Y6483750D01*
X3925750Y6325000D01*
X4690000Y6321928D01*
X4814482Y6334188D01*
X4934180Y6370498D01*
X5044494Y6429463D01*
X5141185Y6508815D01*
X5220537Y6605506D01*
X5279502Y6715820D01*
X5315812Y6835518D01*
X5328072Y6960000D01*
X5325000Y7411750D01*
X5166250Y7570500D01*
X3767000Y7570500D01*
X3513000Y7570500D01*
X3493000Y7570500D01*
X3493000Y7824500D01*
X3513000Y7824500D01*
X3513000Y7844500D01*
X3767000Y7844500D01*
X3767000Y7824500D01*
X5166250Y7824500D01*
X5325000Y7983250D01*
X5325454Y8050000D01*
X9854488Y8050000D01*
X10620000Y7284487D01*
X10620001Y3790870D01*
X10600986Y3780706D01*
X10374866Y3595134D01*
X10189294Y3369014D01*
X10154799Y3304477D01*
X10085178Y3421355D01*
X9890269Y3637588D01*
X9656920Y3811641D01*
X9394099Y3936825D01*
X9246890Y3981476D01*
X9017000Y3860155D01*
X9017000Y2667000D01*
X9037000Y2667000D01*
X9037000Y2413000D01*
X9017000Y2413000D01*
X9017000Y1219845D01*
X9246890Y1098524D01*
X9394099Y1143175D01*
X9656920Y1268359D01*
X9890269Y1442412D01*
X10085178Y1658645D01*
X10154799Y1775523D01*
X10189294Y1710986D01*
X10374866Y1484866D01*
X10600986Y1299294D01*
X10858966Y1161401D01*
X11138889Y1076487D01*
X11357050Y1055000D01*
X11502950Y1055000D01*
X11721111Y1076487D01*
X12001034Y1161401D01*
X12259014Y1299294D01*
X12485134Y1484866D01*
X12670706Y1710986D01*
X12700000Y1765791D01*
X12729294Y1710986D01*
X12914866Y1484866D01*
X13140986Y1299294D01*
X13398966Y1161401D01*
X13678889Y1076487D01*
X13897050Y1055000D01*
X14042950Y1055000D01*
X14261111Y1076487D01*
X14541034Y1161401D01*
X14799014Y1299294D01*
X15025134Y1484866D01*
X15210706Y1710986D01*
X15240000Y1765791D01*
X15269294Y1710986D01*
X15454866Y1484866D01*
X15680986Y1299294D01*
X15938966Y1161401D01*
X16218889Y1076487D01*
X16437050Y1055000D01*
X16582950Y1055000D01*
X16801111Y1076487D01*
X17081034Y1161401D01*
X17339014Y1299294D01*
X17565134Y1484866D01*
X17750706Y1710986D01*
X17780000Y1765791D01*
X17809294Y1710986D01*
X17994866Y1484866D01*
X18220986Y1299294D01*
X18478966Y1161401D01*
X18758889Y1076487D01*
X18977050Y1055000D01*
X19122950Y1055000D01*
X19341111Y1076487D01*
X19621034Y1161401D01*
X19879014Y1299294D01*
X20105134Y1484866D01*
X20129607Y1514687D01*
X20150498Y1445820D01*
X20209463Y1335506D01*
X20288815Y1238815D01*
X20385506Y1159463D01*
X20495820Y1100498D01*
X20615518Y1064188D01*
X20740000Y1051928D01*
X22440000Y1051928D01*
X22564482Y1064188D01*
X22684180Y1100498D01*
X22794494Y1159463D01*
X22891185Y1238815D01*
X22970537Y1335506D01*
X23029502Y1445820D01*
X23065812Y1565518D01*
X23078072Y1690000D01*
X23078072Y3390000D01*
X23065812Y3514482D01*
X23029502Y3634180D01*
X22970537Y3744494D01*
X22891185Y3841185D01*
X22794494Y3920537D01*
X22684180Y3979502D01*
X22564482Y4015812D01*
X22440000Y4028072D01*
X22400000Y4028072D01*
X22400000Y10120212D01*
X22403919Y10160000D01*
X22400000Y10199791D01*
X22388280Y10318788D01*
X22345286Y10460518D01*
X22341963Y10471474D01*
X22266749Y10612189D01*
X22239413Y10645498D01*
X22165528Y10735528D01*
X22134619Y10760894D01*
X20890899Y12004613D01*
X20865528Y12035528D01*
X20742189Y12136749D01*
X20601473Y12211963D01*
X20448788Y12258280D01*
X20329791Y12270000D01*
X20329788Y12270000D01*
X20290000Y12273919D01*
X20250212Y12270000D01*
X5325454Y12270000D01*
X5325000Y12336750D01*
X5166250Y12495500D01*
X3767000Y12495500D01*
X3767000Y12475500D01*
X3513000Y12475500D01*
X3513000Y12495500D01*
X3493000Y12495500D01*
X3493000Y12749500D01*
X3513000Y12749500D01*
X3513000Y13836250D01*
X3767000Y13836250D01*
X3767000Y12749500D01*
X5166250Y12749500D01*
X5325000Y12908250D01*
X5328072Y13360000D01*
X5315812Y13484482D01*
X5279502Y13604180D01*
X5220537Y13714494D01*
X5141185Y13811185D01*
X5044494Y13890537D01*
X4934180Y13949502D01*
X4814482Y13985812D01*
X4690000Y13998072D01*
X3925750Y13995000D01*
X3767000Y13836250D01*
X3513000Y13836250D01*
X3354250Y13995000D01*
X2927184Y13996717D01*
X2928072Y14257500D01*
X2915812Y14381982D01*
X2879502Y14501680D01*
X2837638Y14580000D01*
X23470000Y14580000D01*
X23470001Y660000D01*
X23470001Y660000D01*
G37*
X23470001Y660000D02*
X660000Y660000D01*
X660000Y2183109D01*
X7448519Y2183109D01*
X7545843Y1908748D01*
X7694822Y1658645D01*
X7889731Y1442412D01*
X8123080Y1268359D01*
X8385901Y1143175D01*
X8533110Y1098524D01*
X8763000Y1219845D01*
X8763000Y2413000D01*
X7569186Y2413000D01*
X7448519Y2183109D01*
X660000Y2183109D01*
X660000Y2896891D01*
X7448519Y2896891D01*
X7569186Y2667000D01*
X8763000Y2667000D01*
X8763000Y3860155D01*
X8533110Y3981476D01*
X8385901Y3936825D01*
X8123080Y3811641D01*
X7889731Y3637588D01*
X7694822Y3421355D01*
X7545843Y3171252D01*
X7448519Y2896891D01*
X660000Y2896891D01*
X660000Y5425677D01*
X1054250Y5427500D01*
X1213000Y5586250D01*
X1213000Y7123000D01*
X1193000Y7123000D01*
X1193000Y7377000D01*
X1213000Y7377000D01*
X1213000Y9193000D01*
X1193000Y9193000D01*
X1193000Y9447000D01*
X1213000Y9447000D01*
X1213000Y10873000D01*
X1193000Y10873000D01*
X1193000Y11127000D01*
X1213000Y11127000D01*
X1213000Y12943000D01*
X1193000Y12943000D01*
X1193000Y13197000D01*
X1213000Y13197000D01*
X1213000Y13217000D01*
X1467000Y13217000D01*
X1467000Y13197000D01*
X1487000Y13197000D01*
X1487000Y12943000D01*
X1467000Y12943000D01*
X1467000Y11127000D01*
X1487000Y11127000D01*
X1487000Y10873000D01*
X1467000Y10873000D01*
X1467000Y9447000D01*
X1487000Y9447000D01*
X1487000Y9193000D01*
X1467000Y9193000D01*
X1467000Y7377000D01*
X1487000Y7377000D01*
X1487000Y7123000D01*
X1467000Y7123000D01*
X1467000Y5586250D01*
X1625750Y5427500D01*
X2290000Y5424428D01*
X2414482Y5436688D01*
X2534180Y5472998D01*
X2644494Y5531963D01*
X2741185Y5611315D01*
X2820537Y5708006D01*
X2879502Y5818320D01*
X2915812Y5938018D01*
X2928072Y6062500D01*
X2927184Y6323283D01*
X3354250Y6325000D01*
X3513000Y6483750D01*
X3513000Y7570500D01*
X3767000Y7570500D01*
X3767000Y6483750D01*
X3925750Y6325000D01*
X4690000Y6321928D01*
X4814482Y6334188D01*
X4934180Y6370498D01*
X5044494Y6429463D01*
X5141185Y6508815D01*
X5220537Y6605506D01*
X5279502Y6715820D01*
X5315812Y6835518D01*
X5328072Y6960000D01*
X5325000Y7411750D01*
X5166250Y7570500D01*
X3767000Y7570500D01*
X3513000Y7570500D01*
X3493000Y7570500D01*
X3493000Y7824500D01*
X3513000Y7824500D01*
X3513000Y7844500D01*
X3767000Y7844500D01*
X3767000Y7824500D01*
X5166250Y7824500D01*
X5325000Y7983250D01*
X5325454Y8050000D01*
X9854488Y8050000D01*
X10620000Y7284487D01*
X10620001Y3790870D01*
X10600986Y3780706D01*
X10374866Y3595134D01*
X10189294Y3369014D01*
X10154799Y3304477D01*
X10085178Y3421355D01*
X9890269Y3637588D01*
X9656920Y3811641D01*
X9394099Y3936825D01*
X9246890Y3981476D01*
X9017000Y3860155D01*
X9017000Y2667000D01*
X9037000Y2667000D01*
X9037000Y2413000D01*
X9017000Y2413000D01*
X9017000Y1219845D01*
X9246890Y1098524D01*
X9394099Y1143175D01*
X9656920Y1268359D01*
X9890269Y1442412D01*
X10085178Y1658645D01*
X10154799Y1775523D01*
X10189294Y1710986D01*
X10374866Y1484866D01*
X10600986Y1299294D01*
X10858966Y1161401D01*
X11138889Y1076487D01*
X11357050Y1055000D01*
X11502950Y1055000D01*
X11721111Y1076487D01*
X12001034Y1161401D01*
X12259014Y1299294D01*
X12485134Y1484866D01*
X12670706Y1710986D01*
X12700000Y1765791D01*
X12729294Y1710986D01*
X12914866Y1484866D01*
X13140986Y1299294D01*
X13398966Y1161401D01*
X13678889Y1076487D01*
X13897050Y1055000D01*
X14042950Y1055000D01*
X14261111Y1076487D01*
X14541034Y1161401D01*
X14799014Y1299294D01*
X15025134Y1484866D01*
X15210706Y1710986D01*
X15240000Y1765791D01*
X15269294Y1710986D01*
X15454866Y1484866D01*
X15680986Y1299294D01*
X15938966Y1161401D01*
X16218889Y1076487D01*
X16437050Y1055000D01*
X16582950Y1055000D01*
X16801111Y1076487D01*
X17081034Y1161401D01*
X17339014Y1299294D01*
X17565134Y1484866D01*
X17750706Y1710986D01*
X17780000Y1765791D01*
X17809294Y1710986D01*
X17994866Y1484866D01*
X18220986Y1299294D01*
X18478966Y1161401D01*
X18758889Y1076487D01*
X18977050Y1055000D01*
X19122950Y1055000D01*
X19341111Y1076487D01*
X19621034Y1161401D01*
X19879014Y1299294D01*
X20105134Y1484866D01*
X20129607Y1514687D01*
X20150498Y1445820D01*
X20209463Y1335506D01*
X20288815Y1238815D01*
X20385506Y1159463D01*
X20495820Y1100498D01*
X20615518Y1064188D01*
X20740000Y1051928D01*
X22440000Y1051928D01*
X22564482Y1064188D01*
X22684180Y1100498D01*
X22794494Y1159463D01*
X22891185Y1238815D01*
X22970537Y1335506D01*
X23029502Y1445820D01*
X23065812Y1565518D01*
X23078072Y1690000D01*
X23078072Y3390000D01*
X23065812Y3514482D01*
X23029502Y3634180D01*
X22970537Y3744494D01*
X22891185Y3841185D01*
X22794494Y3920537D01*
X22684180Y3979502D01*
X22564482Y4015812D01*
X22440000Y4028072D01*
X22400000Y4028072D01*
X22400000Y10120212D01*
X22403919Y10160000D01*
X22400000Y10199791D01*
X22388280Y10318788D01*
X22345286Y10460518D01*
X22341963Y10471474D01*
X22266749Y10612189D01*
X22239413Y10645498D01*
X22165528Y10735528D01*
X22134619Y10760894D01*
X20890899Y12004613D01*
X20865528Y12035528D01*
X20742189Y12136749D01*
X20601473Y12211963D01*
X20448788Y12258280D01*
X20329791Y12270000D01*
X20329788Y12270000D01*
X20290000Y12273919D01*
X20250212Y12270000D01*
X5325454Y12270000D01*
X5325000Y12336750D01*
X5166250Y12495500D01*
X3767000Y12495500D01*
X3767000Y12475500D01*
X3513000Y12475500D01*
X3513000Y12495500D01*
X3493000Y12495500D01*
X3493000Y12749500D01*
X3513000Y12749500D01*
X3513000Y13836250D01*
X3767000Y13836250D01*
X3767000Y12749500D01*
X5166250Y12749500D01*
X5325000Y12908250D01*
X5328072Y13360000D01*
X5315812Y13484482D01*
X5279502Y13604180D01*
X5220537Y13714494D01*
X5141185Y13811185D01*
X5044494Y13890537D01*
X4934180Y13949502D01*
X4814482Y13985812D01*
X4690000Y13998072D01*
X3925750Y13995000D01*
X3767000Y13836250D01*
X3513000Y13836250D01*
X3354250Y13995000D01*
X2927184Y13996717D01*
X2928072Y14257500D01*
X2915812Y14381982D01*
X2879502Y14501680D01*
X2837638Y14580000D01*
X23470000Y14580000D01*
X23470001Y660000D01*
%TD*%
M02*
