%TF.GenerationSoftware,KiCad,Pcbnew,5.1.4-3.fc31*%
%TF.CreationDate,2019-11-19T11:19:27+01:00*%
%TF.ProjectId,microUSB-to-pcb-adapter,6d696372-6f55-4534-922d-746f2d706362,rev?*%
%TF.SameCoordinates,PX5ad6650PY59a0560*%
%TF.FileFunction,Soldermask,Top*%
%TF.FilePolarity,Negative*%
%FSLAX46Y46*%
G04 Gerber Fmt 4.6, Leading zero omitted, Abs format (unit mm)*
G04 Created by KiCad (PCBNEW 5.1.4-3.fc31) date 2019-11-19 11:19:27*
%MOMM*%
%LPD*%
G04 APERTURE LIST*
%ADD10C,0.150000*%
G04 APERTURE END LIST*
D10*
G36*
X19160443Y3434481D02*
G01*
X19226627Y3427963D01*
X19396466Y3376443D01*
X19552991Y3292778D01*
X19588729Y3263448D01*
X19690186Y3180186D01*
X19773448Y3078729D01*
X19802778Y3042991D01*
X19886443Y2886466D01*
X19937963Y2716627D01*
X19955359Y2540000D01*
X19937963Y2363373D01*
X19886443Y2193534D01*
X19802778Y2037009D01*
X19773448Y2001271D01*
X19690186Y1899814D01*
X19588729Y1816552D01*
X19552991Y1787222D01*
X19396466Y1703557D01*
X19226627Y1652037D01*
X19160443Y1645519D01*
X19094260Y1639000D01*
X19005740Y1639000D01*
X18939557Y1645519D01*
X18873373Y1652037D01*
X18703534Y1703557D01*
X18547009Y1787222D01*
X18511271Y1816552D01*
X18409814Y1899814D01*
X18326552Y2001271D01*
X18297222Y2037009D01*
X18213557Y2193534D01*
X18162037Y2363373D01*
X18144641Y2540000D01*
X18162037Y2716627D01*
X18213557Y2886466D01*
X18297222Y3042991D01*
X18326552Y3078729D01*
X18409814Y3180186D01*
X18511271Y3263448D01*
X18547009Y3292778D01*
X18703534Y3376443D01*
X18873373Y3427963D01*
X18939557Y3434481D01*
X19005740Y3441000D01*
X19094260Y3441000D01*
X19160443Y3434481D01*
X19160443Y3434481D01*
G37*
G36*
X9000443Y3434481D02*
G01*
X9066627Y3427963D01*
X9236466Y3376443D01*
X9392991Y3292778D01*
X9428729Y3263448D01*
X9530186Y3180186D01*
X9613448Y3078729D01*
X9642778Y3042991D01*
X9726443Y2886466D01*
X9777963Y2716627D01*
X9795359Y2540000D01*
X9777963Y2363373D01*
X9726443Y2193534D01*
X9642778Y2037009D01*
X9613448Y2001271D01*
X9530186Y1899814D01*
X9428729Y1816552D01*
X9392991Y1787222D01*
X9236466Y1703557D01*
X9066627Y1652037D01*
X9000443Y1645519D01*
X8934260Y1639000D01*
X8845740Y1639000D01*
X8779557Y1645519D01*
X8713373Y1652037D01*
X8543534Y1703557D01*
X8387009Y1787222D01*
X8351271Y1816552D01*
X8249814Y1899814D01*
X8166552Y2001271D01*
X8137222Y2037009D01*
X8053557Y2193534D01*
X8002037Y2363373D01*
X7984641Y2540000D01*
X8002037Y2716627D01*
X8053557Y2886466D01*
X8137222Y3042991D01*
X8166552Y3078729D01*
X8249814Y3180186D01*
X8351271Y3263448D01*
X8387009Y3292778D01*
X8543534Y3376443D01*
X8713373Y3427963D01*
X8779557Y3434481D01*
X8845740Y3441000D01*
X8934260Y3441000D01*
X9000443Y3434481D01*
X9000443Y3434481D01*
G37*
G36*
X11540443Y3434481D02*
G01*
X11606627Y3427963D01*
X11776466Y3376443D01*
X11932991Y3292778D01*
X11968729Y3263448D01*
X12070186Y3180186D01*
X12153448Y3078729D01*
X12182778Y3042991D01*
X12266443Y2886466D01*
X12317963Y2716627D01*
X12335359Y2540000D01*
X12317963Y2363373D01*
X12266443Y2193534D01*
X12182778Y2037009D01*
X12153448Y2001271D01*
X12070186Y1899814D01*
X11968729Y1816552D01*
X11932991Y1787222D01*
X11776466Y1703557D01*
X11606627Y1652037D01*
X11540443Y1645519D01*
X11474260Y1639000D01*
X11385740Y1639000D01*
X11319557Y1645519D01*
X11253373Y1652037D01*
X11083534Y1703557D01*
X10927009Y1787222D01*
X10891271Y1816552D01*
X10789814Y1899814D01*
X10706552Y2001271D01*
X10677222Y2037009D01*
X10593557Y2193534D01*
X10542037Y2363373D01*
X10524641Y2540000D01*
X10542037Y2716627D01*
X10593557Y2886466D01*
X10677222Y3042991D01*
X10706552Y3078729D01*
X10789814Y3180186D01*
X10891271Y3263448D01*
X10927009Y3292778D01*
X11083534Y3376443D01*
X11253373Y3427963D01*
X11319557Y3434481D01*
X11385740Y3441000D01*
X11474260Y3441000D01*
X11540443Y3434481D01*
X11540443Y3434481D01*
G37*
G36*
X14080443Y3434481D02*
G01*
X14146627Y3427963D01*
X14316466Y3376443D01*
X14472991Y3292778D01*
X14508729Y3263448D01*
X14610186Y3180186D01*
X14693448Y3078729D01*
X14722778Y3042991D01*
X14806443Y2886466D01*
X14857963Y2716627D01*
X14875359Y2540000D01*
X14857963Y2363373D01*
X14806443Y2193534D01*
X14722778Y2037009D01*
X14693448Y2001271D01*
X14610186Y1899814D01*
X14508729Y1816552D01*
X14472991Y1787222D01*
X14316466Y1703557D01*
X14146627Y1652037D01*
X14080443Y1645519D01*
X14014260Y1639000D01*
X13925740Y1639000D01*
X13859557Y1645519D01*
X13793373Y1652037D01*
X13623534Y1703557D01*
X13467009Y1787222D01*
X13431271Y1816552D01*
X13329814Y1899814D01*
X13246552Y2001271D01*
X13217222Y2037009D01*
X13133557Y2193534D01*
X13082037Y2363373D01*
X13064641Y2540000D01*
X13082037Y2716627D01*
X13133557Y2886466D01*
X13217222Y3042991D01*
X13246552Y3078729D01*
X13329814Y3180186D01*
X13431271Y3263448D01*
X13467009Y3292778D01*
X13623534Y3376443D01*
X13793373Y3427963D01*
X13859557Y3434481D01*
X13925740Y3441000D01*
X14014260Y3441000D01*
X14080443Y3434481D01*
X14080443Y3434481D01*
G37*
G36*
X16620443Y3434481D02*
G01*
X16686627Y3427963D01*
X16856466Y3376443D01*
X17012991Y3292778D01*
X17048729Y3263448D01*
X17150186Y3180186D01*
X17233448Y3078729D01*
X17262778Y3042991D01*
X17346443Y2886466D01*
X17397963Y2716627D01*
X17415359Y2540000D01*
X17397963Y2363373D01*
X17346443Y2193534D01*
X17262778Y2037009D01*
X17233448Y2001271D01*
X17150186Y1899814D01*
X17048729Y1816552D01*
X17012991Y1787222D01*
X16856466Y1703557D01*
X16686627Y1652037D01*
X16620443Y1645519D01*
X16554260Y1639000D01*
X16465740Y1639000D01*
X16399557Y1645519D01*
X16333373Y1652037D01*
X16163534Y1703557D01*
X16007009Y1787222D01*
X15971271Y1816552D01*
X15869814Y1899814D01*
X15786552Y2001271D01*
X15757222Y2037009D01*
X15673557Y2193534D01*
X15622037Y2363373D01*
X15604641Y2540000D01*
X15622037Y2716627D01*
X15673557Y2886466D01*
X15757222Y3042991D01*
X15786552Y3078729D01*
X15869814Y3180186D01*
X15971271Y3263448D01*
X16007009Y3292778D01*
X16163534Y3376443D01*
X16333373Y3427963D01*
X16399557Y3434481D01*
X16465740Y3441000D01*
X16554260Y3441000D01*
X16620443Y3434481D01*
X16620443Y3434481D01*
G37*
G36*
X22491000Y1639000D02*
G01*
X20689000Y1639000D01*
X20689000Y3441000D01*
X22491000Y3441000D01*
X22491000Y1639000D01*
X22491000Y1639000D01*
G37*
G36*
X2341000Y13535999D02*
G01*
X2343402Y13511613D01*
X2350515Y13488164D01*
X2362066Y13466553D01*
X2377611Y13447611D01*
X2396553Y13432066D01*
X2418164Y13420515D01*
X2441613Y13413402D01*
X2465999Y13411000D01*
X4741000Y13411000D01*
X4741000Y6909000D01*
X2465999Y6909000D01*
X2441613Y6906598D01*
X2418164Y6899485D01*
X2396553Y6887934D01*
X2377611Y6872389D01*
X2362066Y6853447D01*
X2350515Y6831836D01*
X2343402Y6808387D01*
X2341000Y6784001D01*
X2341000Y6011500D01*
X339000Y6011500D01*
X339000Y9958500D01*
X2341000Y9958500D01*
X2341000Y8610999D01*
X2343402Y8586613D01*
X2350515Y8563164D01*
X2362066Y8541553D01*
X2377611Y8522611D01*
X2396553Y8507066D01*
X2418164Y8495515D01*
X2441613Y8488402D01*
X2465999Y8486000D01*
X3134001Y8486000D01*
X3158387Y8488402D01*
X3181836Y8495515D01*
X3203447Y8507066D01*
X3222389Y8522611D01*
X3237934Y8541553D01*
X3249485Y8563164D01*
X3256598Y8586613D01*
X3259000Y8610999D01*
X3259000Y11709001D01*
X3256598Y11733387D01*
X3249485Y11756836D01*
X3237934Y11778447D01*
X3222389Y11797389D01*
X3203447Y11812934D01*
X3181836Y11824485D01*
X3158387Y11831598D01*
X3134001Y11834000D01*
X2465999Y11834000D01*
X2441613Y11831598D01*
X2418164Y11824485D01*
X2396553Y11812934D01*
X2377611Y11797389D01*
X2362066Y11778447D01*
X2350515Y11756836D01*
X2343402Y11733387D01*
X2341000Y11709001D01*
X2341000Y10361500D01*
X339000Y10361500D01*
X339000Y14308500D01*
X2341000Y14308500D01*
X2341000Y13535999D01*
X2341000Y13535999D01*
G37*
M02*
