%TF.GenerationSoftware,KiCad,Pcbnew,5.1.4-3.fc31*%
%TF.CreationDate,2019-11-19T11:19:27+01:00*%
%TF.ProjectId,microUSB-to-pcb-adapter,6d696372-6f55-4534-922d-746f2d706362,rev?*%
%TF.SameCoordinates,PX5ad6650PY59a0560*%
%TF.FileFunction,Other,Fab,Top*%
%FSLAX46Y46*%
G04 Gerber Fmt 4.6, Leading zero omitted, Abs format (unit mm)*
G04 Created by KiCad (PCBNEW 5.1.4-3.fc31) date 2019-11-19 11:19:27*
%MOMM*%
%LPD*%
G04 APERTURE LIST*
%ADD10C,0.100000*%
%ADD11C,0.150000*%
G04 APERTURE END LIST*
D10*
%TO.C,J1*%
X-110000Y13410000D02*
X-110000Y6910000D01*
X-810000Y13910000D02*
X4190000Y13910000D01*
X4190000Y13910000D02*
X4190000Y6410000D01*
X4190000Y6410000D02*
X-810000Y6410000D01*
X-810000Y6410000D02*
X-810000Y13910000D01*
%TD*%
%TO.C,J1*%
D11*
X-2607620Y5636191D02*
X-1798096Y5636191D01*
X-1702858Y5683810D01*
X-1655239Y5731429D01*
X-1607620Y5826667D01*
X-1607620Y6017143D01*
X-1655239Y6112381D01*
X-1702858Y6160000D01*
X-1798096Y6207620D01*
X-2607620Y6207620D01*
X-1655239Y6636191D02*
X-1607620Y6779048D01*
X-1607620Y7017143D01*
X-1655239Y7112381D01*
X-1702858Y7160000D01*
X-1798096Y7207620D01*
X-1893334Y7207620D01*
X-1988572Y7160000D01*
X-2036191Y7112381D01*
X-2083810Y7017143D01*
X-2131429Y6826667D01*
X-2179048Y6731429D01*
X-2226667Y6683810D01*
X-2321905Y6636191D01*
X-2417143Y6636191D01*
X-2512381Y6683810D01*
X-2560000Y6731429D01*
X-2607620Y6826667D01*
X-2607620Y7064762D01*
X-2560000Y7207620D01*
X-2131429Y7969524D02*
X-2083810Y8112381D01*
X-2036191Y8160000D01*
X-1940953Y8207620D01*
X-1798096Y8207620D01*
X-1702858Y8160000D01*
X-1655239Y8112381D01*
X-1607620Y8017143D01*
X-1607620Y7636191D01*
X-2607620Y7636191D01*
X-2607620Y7969524D01*
X-2560000Y8064762D01*
X-2512381Y8112381D01*
X-2417143Y8160000D01*
X-2321905Y8160000D01*
X-2226667Y8112381D01*
X-2179048Y8064762D01*
X-2131429Y7969524D01*
X-2131429Y7636191D01*
X-1512381Y8398096D02*
X-1512381Y9160000D01*
X-2131429Y9731429D02*
X-2083810Y9874286D01*
X-2036191Y9921905D01*
X-1940953Y9969524D01*
X-1798096Y9969524D01*
X-1702858Y9921905D01*
X-1655239Y9874286D01*
X-1607620Y9779048D01*
X-1607620Y9398096D01*
X-2607620Y9398096D01*
X-2607620Y9731429D01*
X-2560000Y9826667D01*
X-2512381Y9874286D01*
X-2417143Y9921905D01*
X-2321905Y9921905D01*
X-2226667Y9874286D01*
X-2179048Y9826667D01*
X-2131429Y9731429D01*
X-2131429Y9398096D01*
X-1512381Y10160000D02*
X-1512381Y10921905D01*
X-1607620Y11160000D02*
X-2607620Y11160000D01*
X-1893334Y11493334D01*
X-2607620Y11826667D01*
X-1607620Y11826667D01*
X-1607620Y12302858D02*
X-2274286Y12302858D01*
X-2607620Y12302858D02*
X-2560000Y12255239D01*
X-2512381Y12302858D01*
X-2560000Y12350477D01*
X-2607620Y12302858D01*
X-2512381Y12302858D01*
X-1655239Y13207620D02*
X-1607620Y13112381D01*
X-1607620Y12921905D01*
X-1655239Y12826667D01*
X-1702858Y12779048D01*
X-1798096Y12731429D01*
X-2083810Y12731429D01*
X-2179048Y12779048D01*
X-2226667Y12826667D01*
X-2274286Y12921905D01*
X-2274286Y13112381D01*
X-2226667Y13207620D01*
X-1607620Y13636191D02*
X-2274286Y13636191D01*
X-2083810Y13636191D02*
X-2179048Y13683810D01*
X-2226667Y13731429D01*
X-2274286Y13826667D01*
X-2274286Y13921905D01*
X-1607620Y14398096D02*
X-1655239Y14302858D01*
X-1702858Y14255239D01*
X-1798096Y14207620D01*
X-2083810Y14207620D01*
X-2179048Y14255239D01*
X-2226667Y14302858D01*
X-2274286Y14398096D01*
X-2274286Y14540953D01*
X-2226667Y14636191D01*
X-2179048Y14683810D01*
X-2083810Y14731429D01*
X-1798096Y14731429D01*
X-1702858Y14683810D01*
X-1655239Y14636191D01*
X-1607620Y14540953D01*
X-1607620Y14398096D01*
X792380Y9826667D02*
X1506666Y9826667D01*
X1649523Y9779048D01*
X1744761Y9683810D01*
X1792380Y9540953D01*
X1792380Y9445715D01*
X1792380Y10826667D02*
X1792380Y10255239D01*
X1792380Y10540953D02*
X792380Y10540953D01*
X935238Y10445715D01*
X1030476Y10350477D01*
X1078095Y10255239D01*
%TD*%
M02*
