%TF.GenerationSoftware,KiCad,Pcbnew,5.1.4-3.fc31*%
%TF.CreationDate,2019-11-19T11:19:27+01:00*%
%TF.ProjectId,microUSB-to-pcb-adapter,6d696372-6f55-4534-922d-746f2d706362,rev?*%
%TF.SameCoordinates,PX5ad6650PY59a0560*%
%TF.FileFunction,Other,Fab,Bot*%
%FSLAX46Y46*%
G04 Gerber Fmt 4.6, Leading zero omitted, Abs format (unit mm)*
G04 Created by KiCad (PCBNEW 5.1.4-3.fc31) date 2019-11-19 11:19:27*
%MOMM*%
%LPD*%
G04 APERTURE LIST*
%ADD10C,0.100000*%
%ADD11C,0.150000*%
G04 APERTURE END LIST*
D10*
%TO.C,J2*%
X22860000Y1905000D02*
X22860000Y3810000D01*
X22860000Y3810000D02*
X7620000Y3810000D01*
X7620000Y3810000D02*
X7620000Y1270000D01*
X7620000Y1270000D02*
X22225000Y1270000D01*
X22225000Y1270000D02*
X22860000Y1905000D01*
%TD*%
%TO.C,J2*%
D11*
X20668571Y4627620D02*
X20668571Y5627620D01*
X20287619Y5627620D01*
X20192380Y5580000D01*
X20144761Y5532381D01*
X20097142Y5437143D01*
X20097142Y5294286D01*
X20144761Y5199048D01*
X20192380Y5151429D01*
X20287619Y5103810D01*
X20668571Y5103810D01*
X19097142Y4722858D02*
X19144761Y4675239D01*
X19287619Y4627620D01*
X19382857Y4627620D01*
X19525714Y4675239D01*
X19620952Y4770477D01*
X19668571Y4865715D01*
X19716190Y5056191D01*
X19716190Y5199048D01*
X19668571Y5389524D01*
X19620952Y5484762D01*
X19525714Y5580000D01*
X19382857Y5627620D01*
X19287619Y5627620D01*
X19144761Y5580000D01*
X19097142Y5532381D01*
X18335238Y5151429D02*
X18192380Y5103810D01*
X18144761Y5056191D01*
X18097142Y4960953D01*
X18097142Y4818096D01*
X18144761Y4722858D01*
X18192380Y4675239D01*
X18287619Y4627620D01*
X18668571Y4627620D01*
X18668571Y5627620D01*
X18335238Y5627620D01*
X18240000Y5580000D01*
X18192380Y5532381D01*
X18144761Y5437143D01*
X18144761Y5341905D01*
X18192380Y5246667D01*
X18240000Y5199048D01*
X18335238Y5151429D01*
X18668571Y5151429D01*
X16906666Y4627620D02*
X16906666Y5627620D01*
X16525714Y5627620D01*
X16430476Y5580000D01*
X16382857Y5532381D01*
X16335238Y5437143D01*
X16335238Y5294286D01*
X16382857Y5199048D01*
X16430476Y5151429D01*
X16525714Y5103810D01*
X16906666Y5103810D01*
X15906666Y4627620D02*
X15906666Y5294286D01*
X15906666Y5627620D02*
X15954285Y5580000D01*
X15906666Y5532381D01*
X15859047Y5580000D01*
X15906666Y5627620D01*
X15906666Y5532381D01*
X15430476Y5294286D02*
X15430476Y4627620D01*
X15430476Y5199048D02*
X15382857Y5246667D01*
X15287619Y5294286D01*
X15144761Y5294286D01*
X15049523Y5246667D01*
X15001904Y5151429D01*
X15001904Y4627620D01*
X14525714Y4627620D02*
X14525714Y5627620D01*
X14525714Y5151429D02*
X13954285Y5151429D01*
X13954285Y4627620D02*
X13954285Y5627620D01*
X13097142Y4675239D02*
X13192380Y4627620D01*
X13382857Y4627620D01*
X13478095Y4675239D01*
X13525714Y4770477D01*
X13525714Y5151429D01*
X13478095Y5246667D01*
X13382857Y5294286D01*
X13192380Y5294286D01*
X13097142Y5246667D01*
X13049523Y5151429D01*
X13049523Y5056191D01*
X13525714Y4960953D01*
X12192380Y4627620D02*
X12192380Y5151429D01*
X12240000Y5246667D01*
X12335238Y5294286D01*
X12525714Y5294286D01*
X12620952Y5246667D01*
X12192380Y4675239D02*
X12287619Y4627620D01*
X12525714Y4627620D01*
X12620952Y4675239D01*
X12668571Y4770477D01*
X12668571Y4865715D01*
X12620952Y4960953D01*
X12525714Y5008572D01*
X12287619Y5008572D01*
X12192380Y5056191D01*
X11287619Y4627620D02*
X11287619Y5627620D01*
X11287619Y4675239D02*
X11382857Y4627620D01*
X11573333Y4627620D01*
X11668571Y4675239D01*
X11716190Y4722858D01*
X11763809Y4818096D01*
X11763809Y5103810D01*
X11716190Y5199048D01*
X11668571Y5246667D01*
X11573333Y5294286D01*
X11382857Y5294286D01*
X11287619Y5246667D01*
X10430476Y4675239D02*
X10525714Y4627620D01*
X10716190Y4627620D01*
X10811428Y4675239D01*
X10859047Y4770477D01*
X10859047Y5151429D01*
X10811428Y5246667D01*
X10716190Y5294286D01*
X10525714Y5294286D01*
X10430476Y5246667D01*
X10382857Y5151429D01*
X10382857Y5056191D01*
X10859047Y4960953D01*
X9954285Y4627620D02*
X9954285Y5294286D01*
X9954285Y5103810D02*
X9906666Y5199048D01*
X9859047Y5246667D01*
X9763809Y5294286D01*
X9668571Y5294286D01*
X15573333Y3087620D02*
X15573333Y2373334D01*
X15620952Y2230477D01*
X15716190Y2135239D01*
X15859047Y2087620D01*
X15954285Y2087620D01*
X15144761Y2992381D02*
X15097142Y3040000D01*
X15001904Y3087620D01*
X14763809Y3087620D01*
X14668571Y3040000D01*
X14620952Y2992381D01*
X14573333Y2897143D01*
X14573333Y2801905D01*
X14620952Y2659048D01*
X15192380Y2087620D01*
X14573333Y2087620D01*
%TD*%
M02*
