%TF.GenerationSoftware,KiCad,Pcbnew,5.1.4-3.fc31*%
%TF.CreationDate,2019-11-21T06:36:37+01:00*%
%TF.ProjectId,microUSB-to-pcb-power-adapter,6d696372-6f55-4534-922d-746f2d706362,0.5*%
%TF.SameCoordinates,Original*%
%TF.FileFunction,Soldermask,Top*%
%TF.FilePolarity,Negative*%
%FSLAX46Y46*%
G04 Gerber Fmt 4.6, Leading zero omitted, Abs format (unit mm)*
G04 Created by KiCad (PCBNEW 5.1.4-3.fc31) date 2019-11-21 06:36:37*
%MOMM*%
%LPD*%
G04 APERTURE LIST*
%ADD10C,0.150000*%
G04 APERTURE END LIST*
D10*
G36*
X106481000Y-85524001D02*
G01*
X106483402Y-85548387D01*
X106490515Y-85571836D01*
X106502066Y-85593447D01*
X106517611Y-85612389D01*
X106536553Y-85627934D01*
X106558164Y-85639485D01*
X106581613Y-85646598D01*
X106605999Y-85649000D01*
X108881000Y-85649000D01*
X108881000Y-92151000D01*
X106605999Y-92151000D01*
X106581613Y-92153402D01*
X106558164Y-92160515D01*
X106536553Y-92172066D01*
X106517611Y-92187611D01*
X106502066Y-92206553D01*
X106490515Y-92228164D01*
X106483402Y-92251613D01*
X106481000Y-92275999D01*
X106481000Y-93048500D01*
X104479000Y-93048500D01*
X104479000Y-89101500D01*
X106481000Y-89101500D01*
X106481000Y-90449001D01*
X106483402Y-90473387D01*
X106490515Y-90496836D01*
X106502066Y-90518447D01*
X106517611Y-90537389D01*
X106536553Y-90552934D01*
X106558164Y-90564485D01*
X106581613Y-90571598D01*
X106605999Y-90574000D01*
X107274001Y-90574000D01*
X107298387Y-90571598D01*
X107321836Y-90564485D01*
X107343447Y-90552934D01*
X107362389Y-90537389D01*
X107377934Y-90518447D01*
X107389485Y-90496836D01*
X107396598Y-90473387D01*
X107399000Y-90449001D01*
X107399000Y-87350999D01*
X107396598Y-87326613D01*
X107389485Y-87303164D01*
X107377934Y-87281553D01*
X107362389Y-87262611D01*
X107343447Y-87247066D01*
X107321836Y-87235515D01*
X107298387Y-87228402D01*
X107274001Y-87226000D01*
X106605999Y-87226000D01*
X106581613Y-87228402D01*
X106558164Y-87235515D01*
X106536553Y-87247066D01*
X106517611Y-87262611D01*
X106502066Y-87281553D01*
X106490515Y-87303164D01*
X106483402Y-87326613D01*
X106481000Y-87350999D01*
X106481000Y-88698500D01*
X104479000Y-88698500D01*
X104479000Y-84751500D01*
X106481000Y-84751500D01*
X106481000Y-85524001D01*
X106481000Y-85524001D01*
G37*
G36*
X124555025Y-89274000D02*
G01*
X124636627Y-89282037D01*
X124806466Y-89333557D01*
X124962991Y-89417222D01*
X124998729Y-89446552D01*
X125100186Y-89529814D01*
X125183448Y-89631271D01*
X125212778Y-89667009D01*
X125296443Y-89823534D01*
X125347963Y-89993373D01*
X125365359Y-90170000D01*
X125347963Y-90346627D01*
X125296443Y-90516466D01*
X125296442Y-90516468D01*
X125266974Y-90571598D01*
X125212778Y-90672991D01*
X125183448Y-90708729D01*
X125100186Y-90810186D01*
X124998729Y-90893448D01*
X124962991Y-90922778D01*
X124806466Y-91006443D01*
X124636627Y-91057963D01*
X124570442Y-91064482D01*
X124504260Y-91071000D01*
X124415740Y-91071000D01*
X124349558Y-91064482D01*
X124283373Y-91057963D01*
X124113534Y-91006443D01*
X123957009Y-90922778D01*
X123921271Y-90893448D01*
X123819814Y-90810186D01*
X123736552Y-90708729D01*
X123707222Y-90672991D01*
X123653026Y-90571598D01*
X123623558Y-90516468D01*
X123623557Y-90516466D01*
X123572037Y-90346627D01*
X123554641Y-90170000D01*
X123572037Y-89993373D01*
X123623557Y-89823534D01*
X123707222Y-89667009D01*
X123736552Y-89631271D01*
X123819814Y-89529814D01*
X123921271Y-89446552D01*
X123957009Y-89417222D01*
X124113534Y-89333557D01*
X124283373Y-89282037D01*
X124364975Y-89274000D01*
X124415740Y-89269000D01*
X124504260Y-89269000D01*
X124555025Y-89274000D01*
X124555025Y-89274000D01*
G37*
G36*
X122015025Y-89274000D02*
G01*
X122096627Y-89282037D01*
X122266466Y-89333557D01*
X122422991Y-89417222D01*
X122458729Y-89446552D01*
X122560186Y-89529814D01*
X122643448Y-89631271D01*
X122672778Y-89667009D01*
X122756443Y-89823534D01*
X122807963Y-89993373D01*
X122825359Y-90170000D01*
X122807963Y-90346627D01*
X122756443Y-90516466D01*
X122756442Y-90516468D01*
X122726974Y-90571598D01*
X122672778Y-90672991D01*
X122643448Y-90708729D01*
X122560186Y-90810186D01*
X122458729Y-90893448D01*
X122422991Y-90922778D01*
X122266466Y-91006443D01*
X122096627Y-91057963D01*
X122030442Y-91064482D01*
X121964260Y-91071000D01*
X121875740Y-91071000D01*
X121809558Y-91064482D01*
X121743373Y-91057963D01*
X121573534Y-91006443D01*
X121417009Y-90922778D01*
X121381271Y-90893448D01*
X121279814Y-90810186D01*
X121196552Y-90708729D01*
X121167222Y-90672991D01*
X121113026Y-90571598D01*
X121083558Y-90516468D01*
X121083557Y-90516466D01*
X121032037Y-90346627D01*
X121014641Y-90170000D01*
X121032037Y-89993373D01*
X121083557Y-89823534D01*
X121167222Y-89667009D01*
X121196552Y-89631271D01*
X121279814Y-89529814D01*
X121381271Y-89446552D01*
X121417009Y-89417222D01*
X121573534Y-89333557D01*
X121743373Y-89282037D01*
X121824975Y-89274000D01*
X121875740Y-89269000D01*
X121964260Y-89269000D01*
X122015025Y-89274000D01*
X122015025Y-89274000D01*
G37*
G36*
X119475025Y-89274000D02*
G01*
X119556627Y-89282037D01*
X119726466Y-89333557D01*
X119882991Y-89417222D01*
X119918729Y-89446552D01*
X120020186Y-89529814D01*
X120103448Y-89631271D01*
X120132778Y-89667009D01*
X120216443Y-89823534D01*
X120267963Y-89993373D01*
X120285359Y-90170000D01*
X120267963Y-90346627D01*
X120216443Y-90516466D01*
X120216442Y-90516468D01*
X120186974Y-90571598D01*
X120132778Y-90672991D01*
X120103448Y-90708729D01*
X120020186Y-90810186D01*
X119918729Y-90893448D01*
X119882991Y-90922778D01*
X119726466Y-91006443D01*
X119556627Y-91057963D01*
X119490442Y-91064482D01*
X119424260Y-91071000D01*
X119335740Y-91071000D01*
X119269558Y-91064482D01*
X119203373Y-91057963D01*
X119033534Y-91006443D01*
X118877009Y-90922778D01*
X118841271Y-90893448D01*
X118739814Y-90810186D01*
X118656552Y-90708729D01*
X118627222Y-90672991D01*
X118573026Y-90571598D01*
X118543558Y-90516468D01*
X118543557Y-90516466D01*
X118492037Y-90346627D01*
X118474641Y-90170000D01*
X118492037Y-89993373D01*
X118543557Y-89823534D01*
X118627222Y-89667009D01*
X118656552Y-89631271D01*
X118739814Y-89529814D01*
X118841271Y-89446552D01*
X118877009Y-89417222D01*
X119033534Y-89333557D01*
X119203373Y-89282037D01*
X119284975Y-89274000D01*
X119335740Y-89269000D01*
X119424260Y-89269000D01*
X119475025Y-89274000D01*
X119475025Y-89274000D01*
G37*
G36*
X124570442Y-86735518D02*
G01*
X124636627Y-86742037D01*
X124806466Y-86793557D01*
X124962991Y-86877222D01*
X124998729Y-86906552D01*
X125100186Y-86989814D01*
X125183448Y-87091271D01*
X125212778Y-87127009D01*
X125212779Y-87127011D01*
X125267027Y-87228500D01*
X125296443Y-87283534D01*
X125347963Y-87453373D01*
X125365359Y-87630000D01*
X125347963Y-87806627D01*
X125296443Y-87976466D01*
X125212778Y-88132991D01*
X125183448Y-88168729D01*
X125100186Y-88270186D01*
X124998729Y-88353448D01*
X124962991Y-88382778D01*
X124806466Y-88466443D01*
X124636627Y-88517963D01*
X124570442Y-88524482D01*
X124504260Y-88531000D01*
X124415740Y-88531000D01*
X124349558Y-88524482D01*
X124283373Y-88517963D01*
X124113534Y-88466443D01*
X123957009Y-88382778D01*
X123921271Y-88353448D01*
X123819814Y-88270186D01*
X123736552Y-88168729D01*
X123707222Y-88132991D01*
X123623557Y-87976466D01*
X123572037Y-87806627D01*
X123554641Y-87630000D01*
X123572037Y-87453373D01*
X123623557Y-87283534D01*
X123652974Y-87228500D01*
X123707221Y-87127011D01*
X123707222Y-87127009D01*
X123736552Y-87091271D01*
X123819814Y-86989814D01*
X123921271Y-86906552D01*
X123957009Y-86877222D01*
X124113534Y-86793557D01*
X124283373Y-86742037D01*
X124349558Y-86735518D01*
X124415740Y-86729000D01*
X124504260Y-86729000D01*
X124570442Y-86735518D01*
X124570442Y-86735518D01*
G37*
G36*
X120281000Y-88531000D02*
G01*
X118479000Y-88531000D01*
X118479000Y-86729000D01*
X120281000Y-86729000D01*
X120281000Y-88531000D01*
X120281000Y-88531000D01*
G37*
G36*
X122030442Y-86735518D02*
G01*
X122096627Y-86742037D01*
X122266466Y-86793557D01*
X122422991Y-86877222D01*
X122458729Y-86906552D01*
X122560186Y-86989814D01*
X122643448Y-87091271D01*
X122672778Y-87127009D01*
X122672779Y-87127011D01*
X122727027Y-87228500D01*
X122756443Y-87283534D01*
X122807963Y-87453373D01*
X122825359Y-87630000D01*
X122807963Y-87806627D01*
X122756443Y-87976466D01*
X122672778Y-88132991D01*
X122643448Y-88168729D01*
X122560186Y-88270186D01*
X122458729Y-88353448D01*
X122422991Y-88382778D01*
X122266466Y-88466443D01*
X122096627Y-88517963D01*
X122030442Y-88524482D01*
X121964260Y-88531000D01*
X121875740Y-88531000D01*
X121809558Y-88524482D01*
X121743373Y-88517963D01*
X121573534Y-88466443D01*
X121417009Y-88382778D01*
X121381271Y-88353448D01*
X121279814Y-88270186D01*
X121196552Y-88168729D01*
X121167222Y-88132991D01*
X121083557Y-87976466D01*
X121032037Y-87806627D01*
X121014641Y-87630000D01*
X121032037Y-87453373D01*
X121083557Y-87283534D01*
X121112974Y-87228500D01*
X121167221Y-87127011D01*
X121167222Y-87127009D01*
X121196552Y-87091271D01*
X121279814Y-86989814D01*
X121381271Y-86906552D01*
X121417009Y-86877222D01*
X121573534Y-86793557D01*
X121743373Y-86742037D01*
X121809558Y-86735518D01*
X121875740Y-86729000D01*
X121964260Y-86729000D01*
X122030442Y-86735518D01*
X122030442Y-86735518D01*
G37*
M02*
