%TF.GenerationSoftware,KiCad,Pcbnew,5.1.4-3.fc31*%
%TF.CreationDate,2019-11-20T15:40:34+01:00*%
%TF.ProjectId,microUSB-to-pcb-power-adapter,6d696372-6f55-4534-922d-746f2d706362,0.5*%
%TF.SameCoordinates,Original*%
%TF.FileFunction,Other,Comment*%
%FSLAX46Y46*%
G04 Gerber Fmt 4.6, Leading zero omitted, Abs format (unit mm)*
G04 Created by KiCad (PCBNEW 5.1.4-3.fc31) date 2019-11-20 15:40:34*
%MOMM*%
%LPD*%
G04 APERTURE LIST*
%ADD10C,0.150000*%
%ADD11C,0.120000*%
G04 APERTURE END LIST*
D10*
X134437380Y-92471428D02*
X134437380Y-93042857D01*
X134437380Y-92757142D02*
X133437380Y-92757142D01*
X133580238Y-92852380D01*
X133675476Y-92947619D01*
X133723095Y-93042857D01*
X133437380Y-91852380D02*
X133437380Y-91757142D01*
X133485000Y-91661904D01*
X133532619Y-91614285D01*
X133627857Y-91566666D01*
X133818333Y-91519047D01*
X134056428Y-91519047D01*
X134246904Y-91566666D01*
X134342142Y-91614285D01*
X134389761Y-91661904D01*
X134437380Y-91757142D01*
X134437380Y-91852380D01*
X134389761Y-91947619D01*
X134342142Y-91995238D01*
X134246904Y-92042857D01*
X134056428Y-92090476D01*
X133818333Y-92090476D01*
X133627857Y-92042857D01*
X133532619Y-91995238D01*
X133485000Y-91947619D01*
X133437380Y-91852380D01*
X134389761Y-91042857D02*
X134437380Y-91042857D01*
X134532619Y-91090476D01*
X134580238Y-91138095D01*
X134437380Y-90090476D02*
X134437380Y-90661904D01*
X134437380Y-90376190D02*
X133437380Y-90376190D01*
X133580238Y-90471428D01*
X133675476Y-90566666D01*
X133723095Y-90661904D01*
X133437380Y-89233333D02*
X133437380Y-89423809D01*
X133485000Y-89519047D01*
X133532619Y-89566666D01*
X133675476Y-89661904D01*
X133865952Y-89709523D01*
X134246904Y-89709523D01*
X134342142Y-89661904D01*
X134389761Y-89614285D01*
X134437380Y-89519047D01*
X134437380Y-89328571D01*
X134389761Y-89233333D01*
X134342142Y-89185714D01*
X134246904Y-89138095D01*
X134008809Y-89138095D01*
X133913571Y-89185714D01*
X133865952Y-89233333D01*
X133818333Y-89328571D01*
X133818333Y-89519047D01*
X133865952Y-89614285D01*
X133913571Y-89661904D01*
X134008809Y-89709523D01*
X133437380Y-88519047D02*
X133437380Y-88423809D01*
X133485000Y-88328571D01*
X133532619Y-88280952D01*
X133627857Y-88233333D01*
X133818333Y-88185714D01*
X134056428Y-88185714D01*
X134246904Y-88233333D01*
X134342142Y-88280952D01*
X134389761Y-88328571D01*
X134437380Y-88423809D01*
X134437380Y-88519047D01*
X134389761Y-88614285D01*
X134342142Y-88661904D01*
X134246904Y-88709523D01*
X134056428Y-88757142D01*
X133818333Y-88757142D01*
X133627857Y-88709523D01*
X133532619Y-88661904D01*
X133485000Y-88614285D01*
X133437380Y-88519047D01*
X134437380Y-86995238D02*
X133770714Y-86995238D01*
X133865952Y-86995238D02*
X133818333Y-86947619D01*
X133770714Y-86852380D01*
X133770714Y-86709523D01*
X133818333Y-86614285D01*
X133913571Y-86566666D01*
X134437380Y-86566666D01*
X133913571Y-86566666D02*
X133818333Y-86519047D01*
X133770714Y-86423809D01*
X133770714Y-86280952D01*
X133818333Y-86185714D01*
X133913571Y-86138095D01*
X134437380Y-86138095D01*
X134437380Y-85661904D02*
X133770714Y-85661904D01*
X133865952Y-85661904D02*
X133818333Y-85614285D01*
X133770714Y-85519047D01*
X133770714Y-85376190D01*
X133818333Y-85280952D01*
X133913571Y-85233333D01*
X134437380Y-85233333D01*
X133913571Y-85233333D02*
X133818333Y-85185714D01*
X133770714Y-85090476D01*
X133770714Y-84947619D01*
X133818333Y-84852380D01*
X133913571Y-84804761D01*
X134437380Y-84804761D01*
D11*
X132715000Y-93980000D02*
X132715000Y-83820000D01*
X116205000Y-93980000D02*
X133301421Y-93980000D01*
X116205000Y-83820000D02*
X133301421Y-83820000D01*
X132715000Y-83820000D02*
X133301421Y-84946504D01*
X132715000Y-83820000D02*
X132128579Y-84946504D01*
X132715000Y-93980000D02*
X133301421Y-92853496D01*
X132715000Y-93980000D02*
X132128579Y-92853496D01*
D10*
X130262380Y-92614285D02*
X130262380Y-91947619D01*
X131262380Y-92376190D01*
X131214761Y-91519047D02*
X131262380Y-91519047D01*
X131357619Y-91566666D01*
X131405238Y-91614285D01*
X130262380Y-90661904D02*
X130262380Y-90852380D01*
X130310000Y-90947619D01*
X130357619Y-90995238D01*
X130500476Y-91090476D01*
X130690952Y-91138095D01*
X131071904Y-91138095D01*
X131167142Y-91090476D01*
X131214761Y-91042857D01*
X131262380Y-90947619D01*
X131262380Y-90757142D01*
X131214761Y-90661904D01*
X131167142Y-90614285D01*
X131071904Y-90566666D01*
X130833809Y-90566666D01*
X130738571Y-90614285D01*
X130690952Y-90661904D01*
X130643333Y-90757142D01*
X130643333Y-90947619D01*
X130690952Y-91042857D01*
X130738571Y-91090476D01*
X130833809Y-91138095D01*
X130357619Y-90185714D02*
X130310000Y-90138095D01*
X130262380Y-90042857D01*
X130262380Y-89804761D01*
X130310000Y-89709523D01*
X130357619Y-89661904D01*
X130452857Y-89614285D01*
X130548095Y-89614285D01*
X130690952Y-89661904D01*
X131262380Y-90233333D01*
X131262380Y-89614285D01*
X130262380Y-88995238D02*
X130262380Y-88900000D01*
X130310000Y-88804761D01*
X130357619Y-88757142D01*
X130452857Y-88709523D01*
X130643333Y-88661904D01*
X130881428Y-88661904D01*
X131071904Y-88709523D01*
X131167142Y-88757142D01*
X131214761Y-88804761D01*
X131262380Y-88900000D01*
X131262380Y-88995238D01*
X131214761Y-89090476D01*
X131167142Y-89138095D01*
X131071904Y-89185714D01*
X130881428Y-89233333D01*
X130643333Y-89233333D01*
X130452857Y-89185714D01*
X130357619Y-89138095D01*
X130310000Y-89090476D01*
X130262380Y-88995238D01*
X131262380Y-87471428D02*
X130595714Y-87471428D01*
X130690952Y-87471428D02*
X130643333Y-87423809D01*
X130595714Y-87328571D01*
X130595714Y-87185714D01*
X130643333Y-87090476D01*
X130738571Y-87042857D01*
X131262380Y-87042857D01*
X130738571Y-87042857D02*
X130643333Y-86995238D01*
X130595714Y-86900000D01*
X130595714Y-86757142D01*
X130643333Y-86661904D01*
X130738571Y-86614285D01*
X131262380Y-86614285D01*
X131262380Y-86138095D02*
X130595714Y-86138095D01*
X130690952Y-86138095D02*
X130643333Y-86090476D01*
X130595714Y-85995238D01*
X130595714Y-85852380D01*
X130643333Y-85757142D01*
X130738571Y-85709523D01*
X131262380Y-85709523D01*
X130738571Y-85709523D02*
X130643333Y-85661904D01*
X130595714Y-85566666D01*
X130595714Y-85423809D01*
X130643333Y-85328571D01*
X130738571Y-85280952D01*
X131262380Y-85280952D01*
D11*
X129540000Y-92710000D02*
X129540000Y-85090000D01*
X127000000Y-92710000D02*
X130126421Y-92710000D01*
X127000000Y-85090000D02*
X130126421Y-85090000D01*
X129540000Y-85090000D02*
X130126421Y-86216504D01*
X129540000Y-85090000D02*
X128953579Y-86216504D01*
X129540000Y-92710000D02*
X130126421Y-91583496D01*
X129540000Y-92710000D02*
X128953579Y-91583496D01*
D10*
X106601071Y-96972380D02*
X106029642Y-96972380D01*
X106315357Y-96972380D02*
X106315357Y-95972380D01*
X106220119Y-96115238D01*
X106124880Y-96210476D01*
X106029642Y-96258095D01*
X106982023Y-96067619D02*
X107029642Y-96020000D01*
X107124880Y-95972380D01*
X107362976Y-95972380D01*
X107458214Y-96020000D01*
X107505833Y-96067619D01*
X107553452Y-96162857D01*
X107553452Y-96258095D01*
X107505833Y-96400952D01*
X106934404Y-96972380D01*
X107553452Y-96972380D01*
X108029642Y-96924761D02*
X108029642Y-96972380D01*
X107982023Y-97067619D01*
X107934404Y-97115238D01*
X108648690Y-95972380D02*
X108743928Y-95972380D01*
X108839166Y-96020000D01*
X108886785Y-96067619D01*
X108934404Y-96162857D01*
X108982023Y-96353333D01*
X108982023Y-96591428D01*
X108934404Y-96781904D01*
X108886785Y-96877142D01*
X108839166Y-96924761D01*
X108743928Y-96972380D01*
X108648690Y-96972380D01*
X108553452Y-96924761D01*
X108505833Y-96877142D01*
X108458214Y-96781904D01*
X108410595Y-96591428D01*
X108410595Y-96353333D01*
X108458214Y-96162857D01*
X108505833Y-96067619D01*
X108553452Y-96020000D01*
X108648690Y-95972380D01*
X109839166Y-95972380D02*
X109648690Y-95972380D01*
X109553452Y-96020000D01*
X109505833Y-96067619D01*
X109410595Y-96210476D01*
X109362976Y-96400952D01*
X109362976Y-96781904D01*
X109410595Y-96877142D01*
X109458214Y-96924761D01*
X109553452Y-96972380D01*
X109743928Y-96972380D01*
X109839166Y-96924761D01*
X109886785Y-96877142D01*
X109934404Y-96781904D01*
X109934404Y-96543809D01*
X109886785Y-96448571D01*
X109839166Y-96400952D01*
X109743928Y-96353333D01*
X109553452Y-96353333D01*
X109458214Y-96400952D01*
X109410595Y-96448571D01*
X109362976Y-96543809D01*
X110839166Y-95972380D02*
X110362976Y-95972380D01*
X110315357Y-96448571D01*
X110362976Y-96400952D01*
X110458214Y-96353333D01*
X110696309Y-96353333D01*
X110791547Y-96400952D01*
X110839166Y-96448571D01*
X110886785Y-96543809D01*
X110886785Y-96781904D01*
X110839166Y-96877142D01*
X110791547Y-96924761D01*
X110696309Y-96972380D01*
X110458214Y-96972380D01*
X110362976Y-96924761D01*
X110315357Y-96877142D01*
X112077261Y-96972380D02*
X112077261Y-96305714D01*
X112077261Y-96400952D02*
X112124880Y-96353333D01*
X112220119Y-96305714D01*
X112362976Y-96305714D01*
X112458214Y-96353333D01*
X112505833Y-96448571D01*
X112505833Y-96972380D01*
X112505833Y-96448571D02*
X112553452Y-96353333D01*
X112648690Y-96305714D01*
X112791547Y-96305714D01*
X112886785Y-96353333D01*
X112934404Y-96448571D01*
X112934404Y-96972380D01*
X113410595Y-96972380D02*
X113410595Y-96305714D01*
X113410595Y-96400952D02*
X113458214Y-96353333D01*
X113553452Y-96305714D01*
X113696309Y-96305714D01*
X113791547Y-96353333D01*
X113839166Y-96448571D01*
X113839166Y-96972380D01*
X113839166Y-96448571D02*
X113886785Y-96353333D01*
X113982023Y-96305714D01*
X114124880Y-96305714D01*
X114220119Y-96353333D01*
X114267738Y-96448571D01*
X114267738Y-96972380D01*
D11*
X104140000Y-95250000D02*
X116205000Y-95250000D01*
X104140000Y-93980000D02*
X104140000Y-95836421D01*
X116205000Y-93980000D02*
X116205000Y-95836421D01*
X116205000Y-95250000D02*
X115078496Y-95836421D01*
X116205000Y-95250000D02*
X115078496Y-94663579D01*
X104140000Y-95250000D02*
X105266504Y-95836421D01*
X104140000Y-95250000D02*
X105266504Y-94663579D01*
D10*
X119475714Y-95972380D02*
X120142380Y-95972380D01*
X119713809Y-96972380D01*
X120570952Y-96924761D02*
X120570952Y-96972380D01*
X120523333Y-97067619D01*
X120475714Y-97115238D01*
X121428095Y-95972380D02*
X121237619Y-95972380D01*
X121142380Y-96020000D01*
X121094761Y-96067619D01*
X120999523Y-96210476D01*
X120951904Y-96400952D01*
X120951904Y-96781904D01*
X120999523Y-96877142D01*
X121047142Y-96924761D01*
X121142380Y-96972380D01*
X121332857Y-96972380D01*
X121428095Y-96924761D01*
X121475714Y-96877142D01*
X121523333Y-96781904D01*
X121523333Y-96543809D01*
X121475714Y-96448571D01*
X121428095Y-96400952D01*
X121332857Y-96353333D01*
X121142380Y-96353333D01*
X121047142Y-96400952D01*
X120999523Y-96448571D01*
X120951904Y-96543809D01*
X121904285Y-96067619D02*
X121951904Y-96020000D01*
X122047142Y-95972380D01*
X122285238Y-95972380D01*
X122380476Y-96020000D01*
X122428095Y-96067619D01*
X122475714Y-96162857D01*
X122475714Y-96258095D01*
X122428095Y-96400952D01*
X121856666Y-96972380D01*
X122475714Y-96972380D01*
X123094761Y-95972380D02*
X123190000Y-95972380D01*
X123285238Y-96020000D01*
X123332857Y-96067619D01*
X123380476Y-96162857D01*
X123428095Y-96353333D01*
X123428095Y-96591428D01*
X123380476Y-96781904D01*
X123332857Y-96877142D01*
X123285238Y-96924761D01*
X123190000Y-96972380D01*
X123094761Y-96972380D01*
X122999523Y-96924761D01*
X122951904Y-96877142D01*
X122904285Y-96781904D01*
X122856666Y-96591428D01*
X122856666Y-96353333D01*
X122904285Y-96162857D01*
X122951904Y-96067619D01*
X122999523Y-96020000D01*
X123094761Y-95972380D01*
X124618571Y-96972380D02*
X124618571Y-96305714D01*
X124618571Y-96400952D02*
X124666190Y-96353333D01*
X124761428Y-96305714D01*
X124904285Y-96305714D01*
X124999523Y-96353333D01*
X125047142Y-96448571D01*
X125047142Y-96972380D01*
X125047142Y-96448571D02*
X125094761Y-96353333D01*
X125190000Y-96305714D01*
X125332857Y-96305714D01*
X125428095Y-96353333D01*
X125475714Y-96448571D01*
X125475714Y-96972380D01*
X125951904Y-96972380D02*
X125951904Y-96305714D01*
X125951904Y-96400952D02*
X125999523Y-96353333D01*
X126094761Y-96305714D01*
X126237619Y-96305714D01*
X126332857Y-96353333D01*
X126380476Y-96448571D01*
X126380476Y-96972380D01*
X126380476Y-96448571D02*
X126428095Y-96353333D01*
X126523333Y-96305714D01*
X126666190Y-96305714D01*
X126761428Y-96353333D01*
X126809047Y-96448571D01*
X126809047Y-96972380D01*
D11*
X119380000Y-95250000D02*
X127000000Y-95250000D01*
X119380000Y-92710000D02*
X119380000Y-95836421D01*
X127000000Y-92710000D02*
X127000000Y-95836421D01*
X127000000Y-95250000D02*
X125873496Y-95836421D01*
X127000000Y-95250000D02*
X125873496Y-94663579D01*
X119380000Y-95250000D02*
X120506504Y-95836421D01*
X119380000Y-95250000D02*
X120506504Y-94663579D01*
D10*
X111427142Y-98607619D02*
X111474761Y-98560000D01*
X111570000Y-98512380D01*
X111808095Y-98512380D01*
X111903333Y-98560000D01*
X111950952Y-98607619D01*
X111998571Y-98702857D01*
X111998571Y-98798095D01*
X111950952Y-98940952D01*
X111379523Y-99512380D01*
X111998571Y-99512380D01*
X112379523Y-98607619D02*
X112427142Y-98560000D01*
X112522380Y-98512380D01*
X112760476Y-98512380D01*
X112855714Y-98560000D01*
X112903333Y-98607619D01*
X112950952Y-98702857D01*
X112950952Y-98798095D01*
X112903333Y-98940952D01*
X112331904Y-99512380D01*
X112950952Y-99512380D01*
X113427142Y-99464761D02*
X113427142Y-99512380D01*
X113379523Y-99607619D01*
X113331904Y-99655238D01*
X113998571Y-98940952D02*
X113903333Y-98893333D01*
X113855714Y-98845714D01*
X113808095Y-98750476D01*
X113808095Y-98702857D01*
X113855714Y-98607619D01*
X113903333Y-98560000D01*
X113998571Y-98512380D01*
X114189047Y-98512380D01*
X114284285Y-98560000D01*
X114331904Y-98607619D01*
X114379523Y-98702857D01*
X114379523Y-98750476D01*
X114331904Y-98845714D01*
X114284285Y-98893333D01*
X114189047Y-98940952D01*
X113998571Y-98940952D01*
X113903333Y-98988571D01*
X113855714Y-99036190D01*
X113808095Y-99131428D01*
X113808095Y-99321904D01*
X113855714Y-99417142D01*
X113903333Y-99464761D01*
X113998571Y-99512380D01*
X114189047Y-99512380D01*
X114284285Y-99464761D01*
X114331904Y-99417142D01*
X114379523Y-99321904D01*
X114379523Y-99131428D01*
X114331904Y-99036190D01*
X114284285Y-98988571D01*
X114189047Y-98940952D01*
X115236666Y-98512380D02*
X115046190Y-98512380D01*
X114950952Y-98560000D01*
X114903333Y-98607619D01*
X114808095Y-98750476D01*
X114760476Y-98940952D01*
X114760476Y-99321904D01*
X114808095Y-99417142D01*
X114855714Y-99464761D01*
X114950952Y-99512380D01*
X115141428Y-99512380D01*
X115236666Y-99464761D01*
X115284285Y-99417142D01*
X115331904Y-99321904D01*
X115331904Y-99083809D01*
X115284285Y-98988571D01*
X115236666Y-98940952D01*
X115141428Y-98893333D01*
X114950952Y-98893333D01*
X114855714Y-98940952D01*
X114808095Y-98988571D01*
X114760476Y-99083809D01*
X115950952Y-98512380D02*
X116046190Y-98512380D01*
X116141428Y-98560000D01*
X116189047Y-98607619D01*
X116236666Y-98702857D01*
X116284285Y-98893333D01*
X116284285Y-99131428D01*
X116236666Y-99321904D01*
X116189047Y-99417142D01*
X116141428Y-99464761D01*
X116046190Y-99512380D01*
X115950952Y-99512380D01*
X115855714Y-99464761D01*
X115808095Y-99417142D01*
X115760476Y-99321904D01*
X115712857Y-99131428D01*
X115712857Y-98893333D01*
X115760476Y-98702857D01*
X115808095Y-98607619D01*
X115855714Y-98560000D01*
X115950952Y-98512380D01*
X117474761Y-99512380D02*
X117474761Y-98845714D01*
X117474761Y-98940952D02*
X117522380Y-98893333D01*
X117617619Y-98845714D01*
X117760476Y-98845714D01*
X117855714Y-98893333D01*
X117903333Y-98988571D01*
X117903333Y-99512380D01*
X117903333Y-98988571D02*
X117950952Y-98893333D01*
X118046190Y-98845714D01*
X118189047Y-98845714D01*
X118284285Y-98893333D01*
X118331904Y-98988571D01*
X118331904Y-99512380D01*
X118808095Y-99512380D02*
X118808095Y-98845714D01*
X118808095Y-98940952D02*
X118855714Y-98893333D01*
X118950952Y-98845714D01*
X119093809Y-98845714D01*
X119189047Y-98893333D01*
X119236666Y-98988571D01*
X119236666Y-99512380D01*
X119236666Y-98988571D02*
X119284285Y-98893333D01*
X119379523Y-98845714D01*
X119522380Y-98845714D01*
X119617619Y-98893333D01*
X119665238Y-98988571D01*
X119665238Y-99512380D01*
D11*
X104140000Y-97790000D02*
X127000000Y-97790000D01*
X104140000Y-93980000D02*
X104140000Y-98376421D01*
X127000000Y-93980000D02*
X127000000Y-98376421D01*
X127000000Y-97790000D02*
X125873496Y-98376421D01*
X127000000Y-97790000D02*
X125873496Y-97203579D01*
X104140000Y-97790000D02*
X105266504Y-98376421D01*
X104140000Y-97790000D02*
X105266504Y-97203579D01*
M02*
