%TF.GenerationSoftware,KiCad,Pcbnew,5.1.4-3.fc31*%
%TF.CreationDate,2019-11-21T06:36:37+01:00*%
%TF.ProjectId,microUSB-to-pcb-power-adapter,6d696372-6f55-4534-922d-746f2d706362,0.5*%
%TF.SameCoordinates,Original*%
%TF.FileFunction,Legend,Top*%
%TF.FilePolarity,Positive*%
%FSLAX46Y46*%
G04 Gerber Fmt 4.6, Leading zero omitted, Abs format (unit mm)*
G04 Created by KiCad (PCBNEW 5.1.4-3.fc31) date 2019-11-21 06:36:37*
%MOMM*%
%LPD*%
G04 APERTURE LIST*
%ADD10C,0.150000*%
%ADD11C,0.100000*%
%ADD12C,0.120000*%
%ADD13O,1.802000X1.802000*%
%ADD14R,1.802000X1.802000*%
%ADD15R,1.482000X0.552000*%
%ADD16R,2.202000X1.577000*%
%ADD17R,2.002000X2.477000*%
%ADD18R,2.002000X1.277000*%
G04 APERTURE END LIST*
D10*
X116459047Y-90241428D02*
X117220952Y-90241428D01*
X116459047Y-87701428D02*
X117220952Y-87701428D01*
X116840000Y-88082380D02*
X116840000Y-87320476D01*
D11*
X111837904Y-91509523D02*
X111037904Y-91509523D01*
X111609333Y-91242857D01*
X111037904Y-90976190D01*
X111837904Y-90976190D01*
X111837904Y-90595238D02*
X111304571Y-90595238D01*
X111037904Y-90595238D02*
X111076000Y-90633333D01*
X111114095Y-90595238D01*
X111076000Y-90557142D01*
X111037904Y-90595238D01*
X111114095Y-90595238D01*
X111799809Y-89871428D02*
X111837904Y-89947619D01*
X111837904Y-90100000D01*
X111799809Y-90176190D01*
X111761714Y-90214285D01*
X111685523Y-90252380D01*
X111456952Y-90252380D01*
X111380761Y-90214285D01*
X111342666Y-90176190D01*
X111304571Y-90100000D01*
X111304571Y-89947619D01*
X111342666Y-89871428D01*
X111837904Y-89528571D02*
X111304571Y-89528571D01*
X111456952Y-89528571D02*
X111380761Y-89490476D01*
X111342666Y-89452380D01*
X111304571Y-89376190D01*
X111304571Y-89300000D01*
X111837904Y-88919047D02*
X111799809Y-88995238D01*
X111761714Y-89033333D01*
X111685523Y-89071428D01*
X111456952Y-89071428D01*
X111380761Y-89033333D01*
X111342666Y-88995238D01*
X111304571Y-88919047D01*
X111304571Y-88804761D01*
X111342666Y-88728571D01*
X111380761Y-88690476D01*
X111456952Y-88652380D01*
X111685523Y-88652380D01*
X111761714Y-88690476D01*
X111799809Y-88728571D01*
X111837904Y-88804761D01*
X111837904Y-88919047D01*
X111037904Y-88309523D02*
X111685523Y-88309523D01*
X111761714Y-88271428D01*
X111799809Y-88233333D01*
X111837904Y-88157142D01*
X111837904Y-88004761D01*
X111799809Y-87928571D01*
X111761714Y-87890476D01*
X111685523Y-87852380D01*
X111037904Y-87852380D01*
X111799809Y-87509523D02*
X111837904Y-87395238D01*
X111837904Y-87204761D01*
X111799809Y-87128571D01*
X111761714Y-87090476D01*
X111685523Y-87052380D01*
X111609333Y-87052380D01*
X111533142Y-87090476D01*
X111495047Y-87128571D01*
X111456952Y-87204761D01*
X111418857Y-87357142D01*
X111380761Y-87433333D01*
X111342666Y-87471428D01*
X111266476Y-87509523D01*
X111190285Y-87509523D01*
X111114095Y-87471428D01*
X111076000Y-87433333D01*
X111037904Y-87357142D01*
X111037904Y-87166666D01*
X111076000Y-87052380D01*
X111418857Y-86442857D02*
X111456952Y-86328571D01*
X111495047Y-86290476D01*
X111571238Y-86252380D01*
X111685523Y-86252380D01*
X111761714Y-86290476D01*
X111799809Y-86328571D01*
X111837904Y-86404761D01*
X111837904Y-86709523D01*
X111037904Y-86709523D01*
X111037904Y-86442857D01*
X111076000Y-86366666D01*
X111114095Y-86328571D01*
X111190285Y-86290476D01*
X111266476Y-86290476D01*
X111342666Y-86328571D01*
X111380761Y-86366666D01*
X111418857Y-86442857D01*
X111418857Y-86709523D01*
X112604571Y-93014285D02*
X113404571Y-93014285D01*
X112642666Y-93014285D02*
X112604571Y-92938095D01*
X112604571Y-92785714D01*
X112642666Y-92709523D01*
X112680761Y-92671428D01*
X112756952Y-92633333D01*
X112985523Y-92633333D01*
X113061714Y-92671428D01*
X113099809Y-92709523D01*
X113137904Y-92785714D01*
X113137904Y-92938095D01*
X113099809Y-93014285D01*
X113137904Y-92176190D02*
X113099809Y-92252380D01*
X113061714Y-92290476D01*
X112985523Y-92328571D01*
X112756952Y-92328571D01*
X112680761Y-92290476D01*
X112642666Y-92252380D01*
X112604571Y-92176190D01*
X112604571Y-92061904D01*
X112642666Y-91985714D01*
X112680761Y-91947619D01*
X112756952Y-91909523D01*
X112985523Y-91909523D01*
X113061714Y-91947619D01*
X113099809Y-91985714D01*
X113137904Y-92061904D01*
X113137904Y-92176190D01*
X112604571Y-91642857D02*
X113137904Y-91490476D01*
X112756952Y-91338095D01*
X113137904Y-91185714D01*
X112604571Y-91033333D01*
X113099809Y-90423809D02*
X113137904Y-90500000D01*
X113137904Y-90652380D01*
X113099809Y-90728571D01*
X113023619Y-90766666D01*
X112718857Y-90766666D01*
X112642666Y-90728571D01*
X112604571Y-90652380D01*
X112604571Y-90500000D01*
X112642666Y-90423809D01*
X112718857Y-90385714D01*
X112795047Y-90385714D01*
X112871238Y-90766666D01*
X113137904Y-90042857D02*
X112604571Y-90042857D01*
X112756952Y-90042857D02*
X112680761Y-90004761D01*
X112642666Y-89966666D01*
X112604571Y-89890476D01*
X112604571Y-89814285D01*
X113137904Y-88595238D02*
X112718857Y-88595238D01*
X112642666Y-88633333D01*
X112604571Y-88709523D01*
X112604571Y-88861904D01*
X112642666Y-88938095D01*
X113099809Y-88595238D02*
X113137904Y-88671428D01*
X113137904Y-88861904D01*
X113099809Y-88938095D01*
X113023619Y-88976190D01*
X112947428Y-88976190D01*
X112871238Y-88938095D01*
X112833142Y-88861904D01*
X112833142Y-88671428D01*
X112795047Y-88595238D01*
X113137904Y-87871428D02*
X112337904Y-87871428D01*
X113099809Y-87871428D02*
X113137904Y-87947619D01*
X113137904Y-88100000D01*
X113099809Y-88176190D01*
X113061714Y-88214285D01*
X112985523Y-88252380D01*
X112756952Y-88252380D01*
X112680761Y-88214285D01*
X112642666Y-88176190D01*
X112604571Y-88100000D01*
X112604571Y-87947619D01*
X112642666Y-87871428D01*
X113137904Y-87147619D02*
X112718857Y-87147619D01*
X112642666Y-87185714D01*
X112604571Y-87261904D01*
X112604571Y-87414285D01*
X112642666Y-87490476D01*
X113099809Y-87147619D02*
X113137904Y-87223809D01*
X113137904Y-87414285D01*
X113099809Y-87490476D01*
X113023619Y-87528571D01*
X112947428Y-87528571D01*
X112871238Y-87490476D01*
X112833142Y-87414285D01*
X112833142Y-87223809D01*
X112795047Y-87147619D01*
X112604571Y-86766666D02*
X113404571Y-86766666D01*
X112642666Y-86766666D02*
X112604571Y-86690476D01*
X112604571Y-86538095D01*
X112642666Y-86461904D01*
X112680761Y-86423809D01*
X112756952Y-86385714D01*
X112985523Y-86385714D01*
X113061714Y-86423809D01*
X113099809Y-86461904D01*
X113137904Y-86538095D01*
X113137904Y-86690476D01*
X113099809Y-86766666D01*
X112604571Y-86157142D02*
X112604571Y-85852380D01*
X112337904Y-86042857D02*
X113023619Y-86042857D01*
X113099809Y-86004761D01*
X113137904Y-85928571D01*
X113137904Y-85852380D01*
X113099809Y-85280952D02*
X113137904Y-85357142D01*
X113137904Y-85509523D01*
X113099809Y-85585714D01*
X113023619Y-85623809D01*
X112718857Y-85623809D01*
X112642666Y-85585714D01*
X112604571Y-85509523D01*
X112604571Y-85357142D01*
X112642666Y-85280952D01*
X112718857Y-85242857D01*
X112795047Y-85242857D01*
X112871238Y-85623809D01*
X113137904Y-84900000D02*
X112604571Y-84900000D01*
X112756952Y-84900000D02*
X112680761Y-84861904D01*
X112642666Y-84823809D01*
X112604571Y-84747619D01*
X112604571Y-84671428D01*
X114399809Y-91071428D02*
X114437904Y-90957142D01*
X114437904Y-90766666D01*
X114399809Y-90690476D01*
X114361714Y-90652380D01*
X114285523Y-90614285D01*
X114209333Y-90614285D01*
X114133142Y-90652380D01*
X114095047Y-90690476D01*
X114056952Y-90766666D01*
X114018857Y-90919047D01*
X113980761Y-90995238D01*
X113942666Y-91033333D01*
X113866476Y-91071428D01*
X113790285Y-91071428D01*
X113714095Y-91033333D01*
X113676000Y-90995238D01*
X113637904Y-90919047D01*
X113637904Y-90728571D01*
X113676000Y-90614285D01*
X114514095Y-89738095D02*
X114476000Y-89814285D01*
X114399809Y-89890476D01*
X114285523Y-90004761D01*
X114247428Y-90080952D01*
X114247428Y-90157142D01*
X114437904Y-90119047D02*
X114399809Y-90195238D01*
X114323619Y-90271428D01*
X114171238Y-90309523D01*
X113904571Y-90309523D01*
X113752190Y-90271428D01*
X113676000Y-90195238D01*
X113637904Y-90119047D01*
X113637904Y-89966666D01*
X113676000Y-89890476D01*
X113752190Y-89814285D01*
X113904571Y-89776190D01*
X114171238Y-89776190D01*
X114323619Y-89814285D01*
X114399809Y-89890476D01*
X114437904Y-89966666D01*
X114437904Y-90119047D01*
X113637904Y-89509523D02*
X113637904Y-88976190D01*
X114437904Y-89319047D01*
X114018857Y-88671428D02*
X114018857Y-88404761D01*
X114437904Y-88290476D02*
X114437904Y-88671428D01*
X113637904Y-88671428D01*
X113637904Y-88290476D01*
X114514095Y-87414285D02*
X114476000Y-87490476D01*
X114399809Y-87566666D01*
X114285523Y-87680952D01*
X114247428Y-87757142D01*
X114247428Y-87833333D01*
X114437904Y-87795238D02*
X114399809Y-87871428D01*
X114323619Y-87947619D01*
X114171238Y-87985714D01*
X113904571Y-87985714D01*
X113752190Y-87947619D01*
X113676000Y-87871428D01*
X113637904Y-87795238D01*
X113637904Y-87642857D01*
X113676000Y-87566666D01*
X113752190Y-87490476D01*
X113904571Y-87452380D01*
X114171238Y-87452380D01*
X114323619Y-87490476D01*
X114399809Y-87566666D01*
X114437904Y-87642857D01*
X114437904Y-87795238D01*
X114018857Y-87109523D02*
X114018857Y-86842857D01*
X114437904Y-86728571D02*
X114437904Y-87109523D01*
X113637904Y-87109523D01*
X113637904Y-86728571D01*
D12*
%TO.C,J1*%
X108390000Y-92710000D02*
X108390000Y-92330000D01*
X104340000Y-92710000D02*
X104080000Y-92710000D01*
X108390000Y-92710000D02*
X106620000Y-92710000D01*
X108390000Y-85090000D02*
X108390000Y-85470000D01*
X106620000Y-85090000D02*
X108390000Y-85090000D01*
X104080000Y-85090000D02*
X104340000Y-85090000D01*
D10*
X109432380Y-89233333D02*
X110146666Y-89233333D01*
X110289523Y-89280952D01*
X110384761Y-89376190D01*
X110432380Y-89519047D01*
X110432380Y-89614285D01*
X110432380Y-88233333D02*
X110432380Y-88804761D01*
X110432380Y-88519047D02*
X109432380Y-88519047D01*
X109575238Y-88614285D01*
X109670476Y-88709523D01*
X109718095Y-88804761D01*
%TD*%
%LPC*%
D13*
%TO.C,J2*%
X124460000Y-90170000D03*
X124460000Y-87630000D03*
X121920000Y-90170000D03*
X121920000Y-87630000D03*
X119380000Y-90170000D03*
D14*
X119380000Y-87630000D03*
%TD*%
D15*
%TO.C,J1*%
X108140000Y-87600000D03*
X108140000Y-88250000D03*
X108140000Y-88900000D03*
X108140000Y-89550000D03*
X108140000Y-90200000D03*
D16*
X107780000Y-86437500D03*
X107780000Y-91362500D03*
D17*
X105480000Y-85990000D03*
X105480000Y-91810000D03*
D18*
X105480000Y-88060000D03*
X105480000Y-89740000D03*
%TD*%
M02*
