%TF.GenerationSoftware,KiCad,Pcbnew,5.1.4-3.fc31*%
%TF.CreationDate,2019-11-21T18:34:14+01:00*%
%TF.ProjectId,barrel-jack-to-pcb,62617272-656c-42d6-9a61-636b2d746f2d,1.0*%
%TF.SameCoordinates,PX68c4118PY55fe290*%
%TF.FileFunction,Legend,Bot*%
%TF.FilePolarity,Positive*%
%FSLAX46Y46*%
G04 Gerber Fmt 4.6, Leading zero omitted, Abs format (unit mm)*
G04 Created by KiCad (PCBNEW 5.1.4-3.fc31) date 2019-11-21 18:34:14*
%MOMM*%
%LPD*%
G04 APERTURE LIST*
%ADD10C,0.120000*%
%ADD11C,0.150000*%
%ADD12R,2.102000X4.102000*%
%ADD13O,2.102000X3.402000*%
%ADD14O,3.602000X2.102000*%
%ADD15C,1.702000*%
%ADD16R,1.802000X1.802000*%
%ADD17O,1.802000X1.802000*%
G04 APERTURE END LIST*
D10*
%TO.C,J2*%
X20895000Y8950000D02*
X26095000Y8950000D01*
X20895000Y6350000D02*
X20895000Y8950000D01*
X26095000Y3750000D02*
X26095000Y8950000D01*
X20895000Y6350000D02*
X23495000Y6350000D01*
X23495000Y6350000D02*
X23495000Y3750000D01*
X23495000Y3750000D02*
X26095000Y3750000D01*
X20895000Y5080000D02*
X20895000Y3750000D01*
X20895000Y3750000D02*
X22225000Y3750000D01*
D11*
X23828333Y3297620D02*
X23828333Y2583334D01*
X23875952Y2440477D01*
X23971190Y2345239D01*
X24114047Y2297620D01*
X24209285Y2297620D01*
X23399761Y3202381D02*
X23352142Y3250000D01*
X23256904Y3297620D01*
X23018809Y3297620D01*
X22923571Y3250000D01*
X22875952Y3202381D01*
X22828333Y3107143D01*
X22828333Y3011905D01*
X22875952Y2869048D01*
X23447380Y2297620D01*
X22828333Y2297620D01*
%TD*%
%LPC*%
D12*
%TO.C,J1*%
X12700000Y6350000D03*
D13*
X6700000Y6350000D03*
D14*
X5700000Y10850000D03*
X5700000Y1850000D03*
D15*
X3700000Y6350000D03*
%TD*%
D16*
%TO.C,J2*%
X22225000Y5080000D03*
D17*
X24765000Y5080000D03*
X22225000Y7620000D03*
X24765000Y7620000D03*
%TD*%
M02*
