%TF.GenerationSoftware,KiCad,Pcbnew,5.1.4-3.fc31*%
%TF.CreationDate,2019-11-21T18:34:14+01:00*%
%TF.ProjectId,barrel-jack-to-pcb,62617272-656c-42d6-9a61-636b2d746f2d,1.0*%
%TF.SameCoordinates,PX68c4118PY55fe290*%
%TF.FileFunction,Soldermask,Bot*%
%TF.FilePolarity,Negative*%
%FSLAX46Y46*%
G04 Gerber Fmt 4.6, Leading zero omitted, Abs format (unit mm)*
G04 Created by KiCad (PCBNEW 5.1.4-3.fc31) date 2019-11-21 18:34:14*
%MOMM*%
%LPD*%
G04 APERTURE LIST*
%ADD10C,0.150000*%
G04 APERTURE END LIST*
D10*
G36*
X6553097Y2895931D02*
G01*
X6656032Y2885793D01*
X6854146Y2825695D01*
X6854149Y2825694D01*
X6950975Y2773939D01*
X7036729Y2728103D01*
X7196765Y2596765D01*
X7328103Y2436729D01*
X7373939Y2350975D01*
X7425694Y2254149D01*
X7425695Y2254146D01*
X7485793Y2056032D01*
X7506085Y1850000D01*
X7485793Y1643968D01*
X7425695Y1445854D01*
X7425694Y1445851D01*
X7373939Y1349025D01*
X7328103Y1263271D01*
X7196765Y1103235D01*
X7036729Y971897D01*
X6950975Y926061D01*
X6854149Y874306D01*
X6854146Y874305D01*
X6656032Y814207D01*
X6553097Y804069D01*
X6501631Y799000D01*
X4898369Y799000D01*
X4846903Y804069D01*
X4743968Y814207D01*
X4545854Y874305D01*
X4545851Y874306D01*
X4449025Y926061D01*
X4363271Y971897D01*
X4203235Y1103235D01*
X4071897Y1263271D01*
X4026061Y1349025D01*
X3974306Y1445851D01*
X3974305Y1445854D01*
X3914207Y1643968D01*
X3893915Y1850000D01*
X3914207Y2056032D01*
X3974305Y2254146D01*
X3974306Y2254149D01*
X4026061Y2350975D01*
X4071897Y2436729D01*
X4203235Y2596765D01*
X4363271Y2728103D01*
X4449025Y2773939D01*
X4545851Y2825694D01*
X4545854Y2825695D01*
X4743968Y2885793D01*
X4846903Y2895931D01*
X4898369Y2901000D01*
X6501631Y2901000D01*
X6553097Y2895931D01*
X6553097Y2895931D01*
G37*
G36*
X24875442Y5974482D02*
G01*
X24941627Y5967963D01*
X25111466Y5916443D01*
X25267991Y5832778D01*
X25298768Y5807520D01*
X25405186Y5720186D01*
X25488448Y5618729D01*
X25517778Y5582991D01*
X25601443Y5426466D01*
X25652963Y5256627D01*
X25670359Y5080000D01*
X25652963Y4903373D01*
X25601443Y4733534D01*
X25601442Y4733532D01*
X25596510Y4724305D01*
X25517778Y4577009D01*
X25488448Y4541271D01*
X25405186Y4439814D01*
X25303729Y4356552D01*
X25267991Y4327222D01*
X25111466Y4243557D01*
X24941627Y4192037D01*
X24875442Y4185518D01*
X24809260Y4179000D01*
X24720740Y4179000D01*
X24654558Y4185518D01*
X24588373Y4192037D01*
X24418534Y4243557D01*
X24262009Y4327222D01*
X24226271Y4356552D01*
X24124814Y4439814D01*
X24041552Y4541271D01*
X24012222Y4577009D01*
X23933490Y4724305D01*
X23928558Y4733532D01*
X23928557Y4733534D01*
X23877037Y4903373D01*
X23859641Y5080000D01*
X23877037Y5256627D01*
X23928557Y5426466D01*
X24012222Y5582991D01*
X24041552Y5618729D01*
X24124814Y5720186D01*
X24231232Y5807520D01*
X24262009Y5832778D01*
X24418534Y5916443D01*
X24588373Y5967963D01*
X24654558Y5974482D01*
X24720740Y5981000D01*
X24809260Y5981000D01*
X24875442Y5974482D01*
X24875442Y5974482D01*
G37*
G36*
X23126000Y4179000D02*
G01*
X21324000Y4179000D01*
X21324000Y5981000D01*
X23126000Y5981000D01*
X23126000Y4179000D01*
X23126000Y4179000D01*
G37*
G36*
X13751000Y4299000D02*
G01*
X11649000Y4299000D01*
X11649000Y8401000D01*
X13751000Y8401000D01*
X13751000Y4299000D01*
X13751000Y4299000D01*
G37*
G36*
X6906032Y8035793D02*
G01*
X7104146Y7975695D01*
X7104149Y7975694D01*
X7200975Y7923939D01*
X7286729Y7878103D01*
X7446765Y7746765D01*
X7578103Y7586729D01*
X7623939Y7500975D01*
X7675694Y7404149D01*
X7675695Y7404146D01*
X7735793Y7206032D01*
X7751000Y7051630D01*
X7751000Y5648370D01*
X7735793Y5493968D01*
X7715316Y5426466D01*
X7675694Y5295851D01*
X7654728Y5256627D01*
X7578103Y5113271D01*
X7446765Y4953235D01*
X7286729Y4821897D01*
X7170030Y4759521D01*
X7104148Y4724306D01*
X7104145Y4724305D01*
X6906031Y4664207D01*
X6700000Y4643915D01*
X6493968Y4664207D01*
X6295854Y4724305D01*
X6295851Y4724306D01*
X6199025Y4776061D01*
X6113271Y4821897D01*
X5953235Y4953235D01*
X5821897Y5113271D01*
X5759521Y5229970D01*
X5724306Y5295852D01*
X5724305Y5295855D01*
X5664207Y5493969D01*
X5649000Y5648371D01*
X5649000Y7051631D01*
X5664207Y7206030D01*
X5724305Y7404147D01*
X5799184Y7544235D01*
X5821898Y7586729D01*
X5953236Y7746765D01*
X6113272Y7878103D01*
X6199026Y7923939D01*
X6295852Y7975694D01*
X6295855Y7975695D01*
X6493969Y8035793D01*
X6700000Y8056085D01*
X6906032Y8035793D01*
X6906032Y8035793D01*
G37*
G36*
X3948228Y7168297D02*
G01*
X4103100Y7104147D01*
X4242481Y7011015D01*
X4361015Y6892481D01*
X4454147Y6753100D01*
X4518297Y6598228D01*
X4551000Y6433816D01*
X4551000Y6266184D01*
X4518297Y6101772D01*
X4454147Y5946900D01*
X4361015Y5807519D01*
X4242481Y5688985D01*
X4103100Y5595853D01*
X3948228Y5531703D01*
X3783816Y5499000D01*
X3616184Y5499000D01*
X3451772Y5531703D01*
X3296900Y5595853D01*
X3157519Y5688985D01*
X3038985Y5807519D01*
X2945853Y5946900D01*
X2881703Y6101772D01*
X2849000Y6266184D01*
X2849000Y6433816D01*
X2881703Y6598228D01*
X2945853Y6753100D01*
X3038985Y6892481D01*
X3157519Y7011015D01*
X3296900Y7104147D01*
X3451772Y7168297D01*
X3616184Y7201000D01*
X3783816Y7201000D01*
X3948228Y7168297D01*
X3948228Y7168297D01*
G37*
G36*
X22335443Y8514481D02*
G01*
X22401627Y8507963D01*
X22571466Y8456443D01*
X22727991Y8372778D01*
X22763729Y8343448D01*
X22865186Y8260186D01*
X22948448Y8158729D01*
X22977778Y8122991D01*
X22977779Y8122989D01*
X23056511Y7975694D01*
X23061443Y7966466D01*
X23112963Y7796627D01*
X23130359Y7620000D01*
X23112963Y7443373D01*
X23061443Y7273534D01*
X22977778Y7117009D01*
X22967223Y7104148D01*
X22865186Y6979814D01*
X22763729Y6896552D01*
X22727991Y6867222D01*
X22571466Y6783557D01*
X22401627Y6732037D01*
X22335443Y6725519D01*
X22269260Y6719000D01*
X22180740Y6719000D01*
X22114557Y6725519D01*
X22048373Y6732037D01*
X21878534Y6783557D01*
X21722009Y6867222D01*
X21686271Y6896552D01*
X21584814Y6979814D01*
X21482777Y7104148D01*
X21472222Y7117009D01*
X21388557Y7273534D01*
X21337037Y7443373D01*
X21319641Y7620000D01*
X21337037Y7796627D01*
X21388557Y7966466D01*
X21393490Y7975694D01*
X21472221Y8122989D01*
X21472222Y8122991D01*
X21501552Y8158729D01*
X21584814Y8260186D01*
X21686271Y8343448D01*
X21722009Y8372778D01*
X21878534Y8456443D01*
X22048373Y8507963D01*
X22114557Y8514481D01*
X22180740Y8521000D01*
X22269260Y8521000D01*
X22335443Y8514481D01*
X22335443Y8514481D01*
G37*
G36*
X24875443Y8514481D02*
G01*
X24941627Y8507963D01*
X25111466Y8456443D01*
X25267991Y8372778D01*
X25303729Y8343448D01*
X25405186Y8260186D01*
X25488448Y8158729D01*
X25517778Y8122991D01*
X25517779Y8122989D01*
X25596511Y7975694D01*
X25601443Y7966466D01*
X25652963Y7796627D01*
X25670359Y7620000D01*
X25652963Y7443373D01*
X25601443Y7273534D01*
X25517778Y7117009D01*
X25507223Y7104148D01*
X25405186Y6979814D01*
X25303729Y6896552D01*
X25267991Y6867222D01*
X25111466Y6783557D01*
X24941627Y6732037D01*
X24875443Y6725519D01*
X24809260Y6719000D01*
X24720740Y6719000D01*
X24654557Y6725519D01*
X24588373Y6732037D01*
X24418534Y6783557D01*
X24262009Y6867222D01*
X24226271Y6896552D01*
X24124814Y6979814D01*
X24022777Y7104148D01*
X24012222Y7117009D01*
X23928557Y7273534D01*
X23877037Y7443373D01*
X23859641Y7620000D01*
X23877037Y7796627D01*
X23928557Y7966466D01*
X23933490Y7975694D01*
X24012221Y8122989D01*
X24012222Y8122991D01*
X24041552Y8158729D01*
X24124814Y8260186D01*
X24226271Y8343448D01*
X24262009Y8372778D01*
X24418534Y8456443D01*
X24588373Y8507963D01*
X24654557Y8514481D01*
X24720740Y8521000D01*
X24809260Y8521000D01*
X24875443Y8514481D01*
X24875443Y8514481D01*
G37*
G36*
X6553097Y11895931D02*
G01*
X6656032Y11885793D01*
X6854146Y11825695D01*
X6854149Y11825694D01*
X6950975Y11773939D01*
X7036729Y11728103D01*
X7196765Y11596765D01*
X7328103Y11436729D01*
X7373939Y11350975D01*
X7425694Y11254149D01*
X7425695Y11254146D01*
X7485793Y11056032D01*
X7506085Y10850000D01*
X7485793Y10643968D01*
X7425695Y10445854D01*
X7425694Y10445851D01*
X7373939Y10349025D01*
X7328103Y10263271D01*
X7196765Y10103235D01*
X7036729Y9971897D01*
X6950975Y9926061D01*
X6854149Y9874306D01*
X6854146Y9874305D01*
X6656032Y9814207D01*
X6553097Y9804069D01*
X6501631Y9799000D01*
X4898369Y9799000D01*
X4846903Y9804069D01*
X4743968Y9814207D01*
X4545854Y9874305D01*
X4545851Y9874306D01*
X4449025Y9926061D01*
X4363271Y9971897D01*
X4203235Y10103235D01*
X4071897Y10263271D01*
X4026061Y10349025D01*
X3974306Y10445851D01*
X3974305Y10445854D01*
X3914207Y10643968D01*
X3893915Y10850000D01*
X3914207Y11056032D01*
X3974305Y11254146D01*
X3974306Y11254149D01*
X4026061Y11350975D01*
X4071897Y11436729D01*
X4203235Y11596765D01*
X4363271Y11728103D01*
X4449025Y11773939D01*
X4545851Y11825694D01*
X4545854Y11825695D01*
X4743968Y11885793D01*
X4846903Y11895931D01*
X4898369Y11901000D01*
X6501631Y11901000D01*
X6553097Y11895931D01*
X6553097Y11895931D01*
G37*
M02*
