%TF.GenerationSoftware,KiCad,Pcbnew,5.1.4-3.fc31*%
%TF.CreationDate,2019-11-21T18:34:14+01:00*%
%TF.ProjectId,barrel-jack-to-pcb,62617272-656c-42d6-9a61-636b2d746f2d,1.0*%
%TF.SameCoordinates,PX68c4118PY55fe290*%
%TF.FileFunction,Legend,Top*%
%TF.FilePolarity,Positive*%
%FSLAX46Y46*%
G04 Gerber Fmt 4.6, Leading zero omitted, Abs format (unit mm)*
G04 Created by KiCad (PCBNEW 5.1.4-3.fc31) date 2019-11-21 18:34:14*
%MOMM*%
%LPD*%
G04 APERTURE LIST*
%ADD10C,0.150000*%
%ADD11C,0.120000*%
%ADD12R,2.102000X4.102000*%
%ADD13O,2.102000X3.402000*%
%ADD14O,3.602000X2.102000*%
%ADD15C,1.702000*%
%ADD16R,1.802000X1.802000*%
%ADD17O,1.802000X1.802000*%
G04 APERTURE END LIST*
D10*
X17597380Y2469048D02*
X16597380Y2469048D01*
X16978333Y2469048D02*
X16930714Y2564286D01*
X16930714Y2754762D01*
X16978333Y2850000D01*
X17025952Y2897620D01*
X17121190Y2945239D01*
X17406904Y2945239D01*
X17502142Y2897620D01*
X17549761Y2850000D01*
X17597380Y2754762D01*
X17597380Y2564286D01*
X17549761Y2469048D01*
X16930714Y3278572D02*
X17597380Y3516667D01*
X16930714Y3754762D02*
X17597380Y3516667D01*
X17835476Y3421429D01*
X17883095Y3373810D01*
X17930714Y3278572D01*
X17549761Y4850000D02*
X17597380Y4992858D01*
X17597380Y5230953D01*
X17549761Y5326191D01*
X17502142Y5373810D01*
X17406904Y5421429D01*
X17311666Y5421429D01*
X17216428Y5373810D01*
X17168809Y5326191D01*
X17121190Y5230953D01*
X17073571Y5040477D01*
X17025952Y4945239D01*
X16978333Y4897620D01*
X16883095Y4850000D01*
X16787857Y4850000D01*
X16692619Y4897620D01*
X16645000Y4945239D01*
X16597380Y5040477D01*
X16597380Y5278572D01*
X16645000Y5421429D01*
X17692619Y6516667D02*
X17645000Y6421429D01*
X17549761Y6326191D01*
X17406904Y6183334D01*
X17359285Y6088096D01*
X17359285Y5992858D01*
X17597380Y6040477D02*
X17549761Y5945239D01*
X17454523Y5850000D01*
X17264047Y5802381D01*
X16930714Y5802381D01*
X16740238Y5850000D01*
X16645000Y5945239D01*
X16597380Y6040477D01*
X16597380Y6230953D01*
X16645000Y6326191D01*
X16740238Y6421429D01*
X16930714Y6469048D01*
X17264047Y6469048D01*
X17454523Y6421429D01*
X17549761Y6326191D01*
X17597380Y6230953D01*
X17597380Y6040477D01*
X16597380Y6802381D02*
X16597380Y7469048D01*
X17597380Y7040477D01*
X17073571Y7850000D02*
X17073571Y8183334D01*
X17597380Y8326191D02*
X17597380Y7850000D01*
X16597380Y7850000D01*
X16597380Y8326191D01*
X17692619Y9421429D02*
X17645000Y9326191D01*
X17549761Y9230953D01*
X17406904Y9088096D01*
X17359285Y8992858D01*
X17359285Y8897620D01*
X17597380Y8945239D02*
X17549761Y8850000D01*
X17454523Y8754762D01*
X17264047Y8707143D01*
X16930714Y8707143D01*
X16740238Y8754762D01*
X16645000Y8850000D01*
X16597380Y8945239D01*
X16597380Y9135715D01*
X16645000Y9230953D01*
X16740238Y9326191D01*
X16930714Y9373810D01*
X17264047Y9373810D01*
X17454523Y9326191D01*
X17549761Y9230953D01*
X17597380Y9135715D01*
X17597380Y8945239D01*
X17073571Y9802381D02*
X17073571Y10135715D01*
X17597380Y10278572D02*
X17597380Y9802381D01*
X16597380Y9802381D01*
X16597380Y10278572D01*
X24384047Y10088572D02*
X25145952Y10088572D01*
X21844047Y10088572D02*
X22605952Y10088572D01*
X22225000Y9707620D02*
X22225000Y10469524D01*
D11*
%TO.C,J1*%
X7750000Y11460000D02*
X13810000Y11460000D01*
X13810000Y11460000D02*
X13810000Y8650000D01*
X13810000Y4050000D02*
X13810000Y1240000D01*
X13810000Y1240000D02*
X7750000Y1240000D01*
X3650000Y1240000D02*
X590000Y1240000D01*
X590000Y1240000D02*
X590000Y11460000D01*
X590000Y11460000D02*
X3650000Y11460000D01*
X14000000Y7350000D02*
X14000000Y5350000D01*
D10*
X14452380Y6016667D02*
X15166666Y6016667D01*
X15309523Y5969048D01*
X15404761Y5873810D01*
X15452380Y5730953D01*
X15452380Y5635715D01*
X15452380Y7016667D02*
X15452380Y6445239D01*
X15452380Y6730953D02*
X14452380Y6730953D01*
X14595238Y6635715D01*
X14690476Y6540477D01*
X14738095Y6445239D01*
%TD*%
%LPC*%
D12*
%TO.C,J1*%
X12700000Y6350000D03*
D13*
X6700000Y6350000D03*
D14*
X5700000Y10850000D03*
X5700000Y1850000D03*
D15*
X3700000Y6350000D03*
%TD*%
D16*
%TO.C,J2*%
X22225000Y5080000D03*
D17*
X24765000Y5080000D03*
X22225000Y7620000D03*
X24765000Y7620000D03*
%TD*%
M02*
