%TF.GenerationSoftware,KiCad,Pcbnew,5.1.6-c6e7f7d~86~ubuntu18.04.1*%
%TF.CreationDate,2020-05-25T18:42:42+02:00*%
%TF.ProjectId,atmega_prog_adapter_v1,61746d65-6761-45f7-9072-6f675f616461,1.0*%
%TF.SameCoordinates,PX60e4b00PY60e4b00*%
%TF.FileFunction,OtherDrawing,Comment*%
%FSLAX46Y46*%
G04 Gerber Fmt 4.6, Leading zero omitted, Abs format (unit mm)*
G04 Created by KiCad (PCBNEW 5.1.6-c6e7f7d~86~ubuntu18.04.1) date 2020-05-25 18:42:42*
%MOMM*%
%LPD*%
G01*
G04 APERTURE LIST*
%ADD10C,0.150000*%
G04 APERTURE END LIST*
D10*
X89652380Y12319524D02*
X89652380Y12938572D01*
X90033333Y12605239D01*
X90033333Y12748096D01*
X90080952Y12843334D01*
X90128571Y12890953D01*
X90223809Y12938572D01*
X90461904Y12938572D01*
X90557142Y12890953D01*
X90604761Y12843334D01*
X90652380Y12748096D01*
X90652380Y12462381D01*
X90604761Y12367143D01*
X90557142Y12319524D01*
X89652380Y13271905D02*
X89652380Y13890953D01*
X90033333Y13557620D01*
X90033333Y13700477D01*
X90080952Y13795715D01*
X90128571Y13843334D01*
X90223809Y13890953D01*
X90461904Y13890953D01*
X90557142Y13843334D01*
X90604761Y13795715D01*
X90652380Y13700477D01*
X90652380Y13414762D01*
X90604761Y13319524D01*
X90557142Y13271905D01*
X90604761Y14367143D02*
X90652380Y14367143D01*
X90747619Y14319524D01*
X90795238Y14271905D01*
X89652380Y14986191D02*
X89652380Y15081429D01*
X89700000Y15176667D01*
X89747619Y15224286D01*
X89842857Y15271905D01*
X90033333Y15319524D01*
X90271428Y15319524D01*
X90461904Y15271905D01*
X90557142Y15224286D01*
X90604761Y15176667D01*
X90652380Y15081429D01*
X90652380Y14986191D01*
X90604761Y14890953D01*
X90557142Y14843334D01*
X90461904Y14795715D01*
X90271428Y14748096D01*
X90033333Y14748096D01*
X89842857Y14795715D01*
X89747619Y14843334D01*
X89700000Y14890953D01*
X89652380Y14986191D01*
X89747619Y15700477D02*
X89700000Y15748096D01*
X89652380Y15843334D01*
X89652380Y16081429D01*
X89700000Y16176667D01*
X89747619Y16224286D01*
X89842857Y16271905D01*
X89938095Y16271905D01*
X90080952Y16224286D01*
X90652380Y15652858D01*
X90652380Y16271905D01*
X89652380Y16890953D02*
X89652380Y16986191D01*
X89700000Y17081429D01*
X89747619Y17129048D01*
X89842857Y17176667D01*
X90033333Y17224286D01*
X90271428Y17224286D01*
X90461904Y17176667D01*
X90557142Y17129048D01*
X90604761Y17081429D01*
X90652380Y16986191D01*
X90652380Y16890953D01*
X90604761Y16795715D01*
X90557142Y16748096D01*
X90461904Y16700477D01*
X90271428Y16652858D01*
X90033333Y16652858D01*
X89842857Y16700477D01*
X89747619Y16748096D01*
X89700000Y16795715D01*
X89652380Y16890953D01*
X90652380Y18414762D02*
X89985714Y18414762D01*
X90080952Y18414762D02*
X90033333Y18462381D01*
X89985714Y18557620D01*
X89985714Y18700477D01*
X90033333Y18795715D01*
X90128571Y18843334D01*
X90652380Y18843334D01*
X90128571Y18843334D02*
X90033333Y18890953D01*
X89985714Y18986191D01*
X89985714Y19129048D01*
X90033333Y19224286D01*
X90128571Y19271905D01*
X90652380Y19271905D01*
X90652380Y19748096D02*
X89985714Y19748096D01*
X90080952Y19748096D02*
X90033333Y19795715D01*
X89985714Y19890953D01*
X89985714Y20033810D01*
X90033333Y20129048D01*
X90128571Y20176667D01*
X90652380Y20176667D01*
X90128571Y20176667D02*
X90033333Y20224286D01*
X89985714Y20319524D01*
X89985714Y20462381D01*
X90033333Y20557620D01*
X90128571Y20605239D01*
X90652380Y20605239D01*
X88900000Y0D02*
X88900000Y33020000D01*
X83820000Y0D02*
X89486421Y0D01*
X83820000Y33020000D02*
X89486421Y33020000D01*
X88900000Y33020000D02*
X89486421Y31893496D01*
X88900000Y33020000D02*
X88313579Y31893496D01*
X88900000Y0D02*
X89486421Y1126504D01*
X88900000Y0D02*
X88313579Y1126504D01*
X37957619Y-6260952D02*
X37862380Y-6213333D01*
X37814761Y-6165714D01*
X37767142Y-6070476D01*
X37767142Y-6022857D01*
X37814761Y-5927619D01*
X37862380Y-5880000D01*
X37957619Y-5832380D01*
X38148095Y-5832380D01*
X38243333Y-5880000D01*
X38290952Y-5927619D01*
X38338571Y-6022857D01*
X38338571Y-6070476D01*
X38290952Y-6165714D01*
X38243333Y-6213333D01*
X38148095Y-6260952D01*
X37957619Y-6260952D01*
X37862380Y-6308571D01*
X37814761Y-6356190D01*
X37767142Y-6451428D01*
X37767142Y-6641904D01*
X37814761Y-6737142D01*
X37862380Y-6784761D01*
X37957619Y-6832380D01*
X38148095Y-6832380D01*
X38243333Y-6784761D01*
X38290952Y-6737142D01*
X38338571Y-6641904D01*
X38338571Y-6451428D01*
X38290952Y-6356190D01*
X38243333Y-6308571D01*
X38148095Y-6260952D01*
X38671904Y-5832380D02*
X39290952Y-5832380D01*
X38957619Y-6213333D01*
X39100476Y-6213333D01*
X39195714Y-6260952D01*
X39243333Y-6308571D01*
X39290952Y-6403809D01*
X39290952Y-6641904D01*
X39243333Y-6737142D01*
X39195714Y-6784761D01*
X39100476Y-6832380D01*
X38814761Y-6832380D01*
X38719523Y-6784761D01*
X38671904Y-6737142D01*
X39767142Y-6784761D02*
X39767142Y-6832380D01*
X39719523Y-6927619D01*
X39671904Y-6975238D01*
X40338571Y-6260952D02*
X40243333Y-6213333D01*
X40195714Y-6165714D01*
X40148095Y-6070476D01*
X40148095Y-6022857D01*
X40195714Y-5927619D01*
X40243333Y-5880000D01*
X40338571Y-5832380D01*
X40529047Y-5832380D01*
X40624285Y-5880000D01*
X40671904Y-5927619D01*
X40719523Y-6022857D01*
X40719523Y-6070476D01*
X40671904Y-6165714D01*
X40624285Y-6213333D01*
X40529047Y-6260952D01*
X40338571Y-6260952D01*
X40243333Y-6308571D01*
X40195714Y-6356190D01*
X40148095Y-6451428D01*
X40148095Y-6641904D01*
X40195714Y-6737142D01*
X40243333Y-6784761D01*
X40338571Y-6832380D01*
X40529047Y-6832380D01*
X40624285Y-6784761D01*
X40671904Y-6737142D01*
X40719523Y-6641904D01*
X40719523Y-6451428D01*
X40671904Y-6356190D01*
X40624285Y-6308571D01*
X40529047Y-6260952D01*
X41100476Y-5927619D02*
X41148095Y-5880000D01*
X41243333Y-5832380D01*
X41481428Y-5832380D01*
X41576666Y-5880000D01*
X41624285Y-5927619D01*
X41671904Y-6022857D01*
X41671904Y-6118095D01*
X41624285Y-6260952D01*
X41052857Y-6832380D01*
X41671904Y-6832380D01*
X42290952Y-5832380D02*
X42386190Y-5832380D01*
X42481428Y-5880000D01*
X42529047Y-5927619D01*
X42576666Y-6022857D01*
X42624285Y-6213333D01*
X42624285Y-6451428D01*
X42576666Y-6641904D01*
X42529047Y-6737142D01*
X42481428Y-6784761D01*
X42386190Y-6832380D01*
X42290952Y-6832380D01*
X42195714Y-6784761D01*
X42148095Y-6737142D01*
X42100476Y-6641904D01*
X42052857Y-6451428D01*
X42052857Y-6213333D01*
X42100476Y-6022857D01*
X42148095Y-5927619D01*
X42195714Y-5880000D01*
X42290952Y-5832380D01*
X43814761Y-6832380D02*
X43814761Y-6165714D01*
X43814761Y-6260952D02*
X43862380Y-6213333D01*
X43957619Y-6165714D01*
X44100476Y-6165714D01*
X44195714Y-6213333D01*
X44243333Y-6308571D01*
X44243333Y-6832380D01*
X44243333Y-6308571D02*
X44290952Y-6213333D01*
X44386190Y-6165714D01*
X44529047Y-6165714D01*
X44624285Y-6213333D01*
X44671904Y-6308571D01*
X44671904Y-6832380D01*
X45148095Y-6832380D02*
X45148095Y-6165714D01*
X45148095Y-6260952D02*
X45195714Y-6213333D01*
X45290952Y-6165714D01*
X45433809Y-6165714D01*
X45529047Y-6213333D01*
X45576666Y-6308571D01*
X45576666Y-6832380D01*
X45576666Y-6308571D02*
X45624285Y-6213333D01*
X45719523Y-6165714D01*
X45862380Y-6165714D01*
X45957619Y-6213333D01*
X46005238Y-6308571D01*
X46005238Y-6832380D01*
X0Y-5080000D02*
X83820000Y-5080000D01*
X0Y0D02*
X0Y-5666421D01*
X83820000Y0D02*
X83820000Y-5666421D01*
X83820000Y-5080000D02*
X82693496Y-5666421D01*
X83820000Y-5080000D02*
X82693496Y-4493579D01*
X0Y-5080000D02*
X1126504Y-5666421D01*
X0Y-5080000D02*
X1126504Y-4493579D01*
M02*
