%TF.GenerationSoftware,KiCad,Pcbnew,5.1.6-c6e7f7d~86~ubuntu18.04.1*%
%TF.CreationDate,2020-05-25T18:42:42+02:00*%
%TF.ProjectId,atmega_prog_adapter_v1,61746d65-6761-45f7-9072-6f675f616461,1.0*%
%TF.SameCoordinates,PX60e4b00PY60e4b00*%
%TF.FileFunction,Copper,L2,Bot*%
%TF.FilePolarity,Positive*%
%FSLAX46Y46*%
G04 Gerber Fmt 4.6, Leading zero omitted, Abs format (unit mm)*
G04 Created by KiCad (PCBNEW 5.1.6-c6e7f7d~86~ubuntu18.04.1) date 2020-05-25 18:42:42*
%MOMM*%
%LPD*%
G01*
G04 APERTURE LIST*
%TA.AperFunction,ComponentPad*%
%ADD10C,1.600000*%
%TD*%
%TA.AperFunction,ComponentPad*%
%ADD11R,1.800000X1.800000*%
%TD*%
%TA.AperFunction,ComponentPad*%
%ADD12C,1.800000*%
%TD*%
%TA.AperFunction,ComponentPad*%
%ADD13R,1.727200X1.727200*%
%TD*%
%TA.AperFunction,ComponentPad*%
%ADD14O,1.727200X1.727200*%
%TD*%
%TA.AperFunction,ComponentPad*%
%ADD15O,1.600000X1.600000*%
%TD*%
%TA.AperFunction,ComponentPad*%
%ADD16R,1.440000X2.000000*%
%TD*%
%TA.AperFunction,ComponentPad*%
%ADD17O,1.440000X2.000000*%
%TD*%
%TA.AperFunction,Conductor*%
%ADD18C,0.350000*%
%TD*%
G04 APERTURE END LIST*
D10*
%TO.P,C1,1*%
%TO.N,Net-(C1-Pad1)*%
X45720000Y27940000D03*
%TO.P,C1,2*%
%TO.N,GND*%
X43220000Y27940000D03*
%TD*%
D11*
%TO.P,D1,1*%
%TO.N,GND*%
X39370000Y27940000D03*
D12*
%TO.P,D1,2*%
%TO.N,Net-(D1-Pad2)*%
X36830000Y27940000D03*
%TD*%
D13*
%TO.P,J1,1*%
%TO.N,/MOSI*%
X5080000Y20320000D03*
D14*
%TO.P,J1,2*%
%TO.N,Net-(C1-Pad1)*%
X7620000Y20320000D03*
%TO.P,J1,3*%
%TO.N,Net-(J1-Pad3)*%
X5080000Y17780000D03*
%TO.P,J1,4*%
%TO.N,GND*%
X7620000Y17780000D03*
%TO.P,J1,5*%
%TO.N,/RESET*%
X5080000Y15240000D03*
%TO.P,J1,6*%
%TO.N,GND*%
X7620000Y15240000D03*
%TO.P,J1,7*%
%TO.N,/SCK*%
X5080000Y12700000D03*
%TO.P,J1,8*%
%TO.N,GND*%
X7620000Y12700000D03*
%TO.P,J1,9*%
%TO.N,/MISO*%
X5080000Y10160000D03*
%TO.P,J1,10*%
%TO.N,GND*%
X7620000Y10160000D03*
%TD*%
D10*
%TO.P,R1,1*%
%TO.N,Net-(C1-Pad1)*%
X50800000Y27940000D03*
D15*
%TO.P,R1,2*%
%TO.N,/RESET*%
X58420000Y27940000D03*
%TD*%
%TO.P,R2,2*%
%TO.N,Net-(R2-Pad2)*%
X25400000Y27940000D03*
D10*
%TO.P,R2,1*%
%TO.N,Net-(D1-Pad2)*%
X33020000Y27940000D03*
%TD*%
D16*
%TO.P,U1,1*%
%TO.N,/RESET*%
X58420000Y17780000D03*
D17*
%TO.P,U1,28*%
%TO.N,Net-(U1-Pad28)*%
X58420000Y7620000D03*
%TO.P,U1,2*%
%TO.N,Net-(U1-Pad2)*%
X55880000Y17780000D03*
%TO.P,U1,27*%
%TO.N,Net-(U1-Pad27)*%
X55880000Y7620000D03*
%TO.P,U1,3*%
%TO.N,Net-(U1-Pad3)*%
X53340000Y17780000D03*
%TO.P,U1,26*%
%TO.N,Net-(U1-Pad26)*%
X53340000Y7620000D03*
%TO.P,U1,4*%
%TO.N,Net-(U1-Pad4)*%
X50800000Y17780000D03*
%TO.P,U1,25*%
%TO.N,Net-(U1-Pad25)*%
X50800000Y7620000D03*
%TO.P,U1,5*%
%TO.N,Net-(U1-Pad5)*%
X48260000Y17780000D03*
%TO.P,U1,24*%
%TO.N,Net-(U1-Pad24)*%
X48260000Y7620000D03*
%TO.P,U1,6*%
%TO.N,Net-(U1-Pad6)*%
X45720000Y17780000D03*
%TO.P,U1,23*%
%TO.N,Net-(U1-Pad23)*%
X45720000Y7620000D03*
%TO.P,U1,7*%
%TO.N,Net-(C1-Pad1)*%
X43180000Y17780000D03*
%TO.P,U1,22*%
%TO.N,GND*%
X43180000Y7620000D03*
%TO.P,U1,8*%
X40640000Y17780000D03*
%TO.P,U1,21*%
%TO.N,Net-(C1-Pad1)*%
X40640000Y7620000D03*
%TO.P,U1,9*%
%TO.N,Net-(U1-Pad9)*%
X38100000Y17780000D03*
%TO.P,U1,20*%
%TO.N,Net-(C1-Pad1)*%
X38100000Y7620000D03*
%TO.P,U1,10*%
%TO.N,Net-(U1-Pad10)*%
X35560000Y17780000D03*
%TO.P,U1,19*%
%TO.N,/SCK*%
X35560000Y7620000D03*
%TO.P,U1,11*%
%TO.N,Net-(U1-Pad11)*%
X33020000Y17780000D03*
%TO.P,U1,18*%
%TO.N,/MISO*%
X33020000Y7620000D03*
%TO.P,U1,12*%
%TO.N,Net-(U1-Pad12)*%
X30480000Y17780000D03*
%TO.P,U1,17*%
%TO.N,/MOSI*%
X30480000Y7620000D03*
%TO.P,U1,13*%
%TO.N,Net-(U1-Pad13)*%
X27940000Y17780000D03*
%TO.P,U1,16*%
%TO.N,Net-(U1-Pad16)*%
X27940000Y7620000D03*
%TO.P,U1,14*%
%TO.N,Net-(R2-Pad2)*%
X25400000Y17780000D03*
%TO.P,U1,15*%
%TO.N,Net-(U1-Pad15)*%
X25400000Y7620000D03*
%TD*%
D18*
%TO.N,Net-(C1-Pad1)*%
X40640000Y7620000D02*
X41735300Y7620000D01*
X43180000Y17780000D02*
X42084700Y17780000D01*
X41735300Y7620000D02*
X41735300Y17430600D01*
X41735300Y17430600D02*
X42084700Y17780000D01*
X38100000Y7620000D02*
X37004700Y7620000D01*
X37004700Y7620000D02*
X37004700Y8030700D01*
X37004700Y8030700D02*
X30083100Y14952300D01*
X30083100Y14952300D02*
X24304600Y14952300D01*
X24304600Y14952300D02*
X18936900Y20320000D01*
X18936900Y20320000D02*
X7620000Y20320000D01*
%TO.N,GND*%
X7620000Y10160000D02*
X8858900Y10160000D01*
X39544700Y6872200D02*
X39544700Y17780000D01*
X43180000Y7620000D02*
X41797700Y6237700D01*
X41797700Y6237700D02*
X40179200Y6237700D01*
X40179200Y6237700D02*
X39544700Y6872200D01*
X8858900Y10160000D02*
X12774300Y6244600D01*
X12774300Y6244600D02*
X38917100Y6244600D01*
X38917100Y6244600D02*
X39544700Y6872200D01*
X7620000Y12700000D02*
X7620000Y10160000D01*
X7620000Y15240000D02*
X7620000Y17780000D01*
X7620000Y12700000D02*
X7620000Y15240000D01*
X39370000Y27940000D02*
X39370000Y26664700D01*
X40640000Y17780000D02*
X39544700Y17780000D01*
X39544700Y17780000D02*
X39544700Y26490000D01*
X39544700Y26490000D02*
X39370000Y26664700D01*
%TO.N,/MOSI*%
X6318900Y20320000D02*
X6318900Y19855300D01*
X6318900Y19855300D02*
X7093100Y19081100D01*
X7093100Y19081100D02*
X18334300Y19081100D01*
X18334300Y19081100D02*
X29384700Y8030700D01*
X29384700Y8030700D02*
X29384700Y7620000D01*
X5080000Y20320000D02*
X6318900Y20320000D01*
X30480000Y7620000D02*
X29384700Y7620000D01*
%TO.N,Net-(R2-Pad2)*%
X25400000Y17780000D02*
X25400000Y27940000D01*
%TD*%
M02*
