%TF.GenerationSoftware,KiCad,Pcbnew,5.1.6-c6e7f7d~86~ubuntu18.04.1*%
%TF.CreationDate,2020-05-25T18:42:42+02:00*%
%TF.ProjectId,atmega_prog_adapter_v1,61746d65-6761-45f7-9072-6f675f616461,1.0*%
%TF.SameCoordinates,PX60e4b00PY60e4b00*%
%TF.FileFunction,Soldermask,Bot*%
%TF.FilePolarity,Negative*%
%FSLAX46Y46*%
G04 Gerber Fmt 4.6, Leading zero omitted, Abs format (unit mm)*
G04 Created by KiCad (PCBNEW 5.1.6-c6e7f7d~86~ubuntu18.04.1) date 2020-05-25 18:42:42*
%MOMM*%
%LPD*%
G01*
G04 APERTURE LIST*
%ADD10C,0.150000*%
G04 APERTURE END LIST*
D10*
G36*
X25551142Y8659844D02*
G01*
X25696476Y8615757D01*
X25696479Y8615756D01*
X25830416Y8544165D01*
X25947817Y8447817D01*
X26044165Y8330416D01*
X26115756Y8196479D01*
X26115757Y8196476D01*
X26159844Y8051142D01*
X26171000Y7937872D01*
X26171000Y7302128D01*
X26159844Y7188858D01*
X26115757Y7043525D01*
X26115756Y7043521D01*
X26044165Y6909584D01*
X26044164Y6909583D01*
X25947817Y6792183D01*
X25848268Y6710486D01*
X25830415Y6695835D01*
X25696478Y6624244D01*
X25696475Y6624243D01*
X25551141Y6580156D01*
X25400000Y6565270D01*
X25248858Y6580156D01*
X25103524Y6624243D01*
X25103521Y6624244D01*
X24969584Y6695835D01*
X24948531Y6713113D01*
X24852183Y6792183D01*
X24755836Y6909584D01*
X24684245Y7043521D01*
X24684244Y7043522D01*
X24684243Y7043525D01*
X24640156Y7188859D01*
X24629000Y7302129D01*
X24629000Y7937872D01*
X24640156Y8051142D01*
X24684243Y8196476D01*
X24684243Y8196477D01*
X24755837Y8330418D01*
X24852184Y8447817D01*
X24969585Y8544165D01*
X25103522Y8615756D01*
X25103525Y8615757D01*
X25248859Y8659844D01*
X25400000Y8674730D01*
X25551142Y8659844D01*
G37*
G36*
X28091142Y8659844D02*
G01*
X28236476Y8615757D01*
X28236479Y8615756D01*
X28370416Y8544165D01*
X28487817Y8447817D01*
X28584165Y8330416D01*
X28655756Y8196479D01*
X28655757Y8196476D01*
X28699844Y8051142D01*
X28711000Y7937872D01*
X28711000Y7302128D01*
X28699844Y7188858D01*
X28655757Y7043525D01*
X28655756Y7043521D01*
X28584165Y6909584D01*
X28584164Y6909583D01*
X28487817Y6792183D01*
X28388268Y6710486D01*
X28370415Y6695835D01*
X28236478Y6624244D01*
X28236475Y6624243D01*
X28091141Y6580156D01*
X27940000Y6565270D01*
X27788858Y6580156D01*
X27643524Y6624243D01*
X27643521Y6624244D01*
X27509584Y6695835D01*
X27488531Y6713113D01*
X27392183Y6792183D01*
X27295836Y6909584D01*
X27224245Y7043521D01*
X27224244Y7043522D01*
X27224243Y7043525D01*
X27180156Y7188859D01*
X27169000Y7302129D01*
X27169000Y7937872D01*
X27180156Y8051142D01*
X27224243Y8196476D01*
X27224243Y8196477D01*
X27295837Y8330418D01*
X27392184Y8447817D01*
X27509585Y8544165D01*
X27643522Y8615756D01*
X27643525Y8615757D01*
X27788859Y8659844D01*
X27940000Y8674730D01*
X28091142Y8659844D01*
G37*
G36*
X58571142Y8659844D02*
G01*
X58716476Y8615757D01*
X58716479Y8615756D01*
X58850416Y8544165D01*
X58967817Y8447817D01*
X59064165Y8330416D01*
X59135756Y8196479D01*
X59135757Y8196476D01*
X59179844Y8051142D01*
X59191000Y7937872D01*
X59191000Y7302128D01*
X59179844Y7188858D01*
X59135757Y7043525D01*
X59135756Y7043521D01*
X59064165Y6909584D01*
X59064164Y6909583D01*
X58967817Y6792183D01*
X58868268Y6710486D01*
X58850415Y6695835D01*
X58716478Y6624244D01*
X58716475Y6624243D01*
X58571141Y6580156D01*
X58420000Y6565270D01*
X58268858Y6580156D01*
X58123524Y6624243D01*
X58123521Y6624244D01*
X57989584Y6695835D01*
X57968531Y6713113D01*
X57872183Y6792183D01*
X57775836Y6909584D01*
X57704245Y7043521D01*
X57704244Y7043522D01*
X57704243Y7043525D01*
X57660156Y7188859D01*
X57649000Y7302129D01*
X57649000Y7937872D01*
X57660156Y8051142D01*
X57704243Y8196476D01*
X57704243Y8196477D01*
X57775837Y8330418D01*
X57872184Y8447817D01*
X57989585Y8544165D01*
X58123522Y8615756D01*
X58123525Y8615757D01*
X58268859Y8659844D01*
X58420000Y8674730D01*
X58571142Y8659844D01*
G37*
G36*
X56031142Y8659844D02*
G01*
X56176476Y8615757D01*
X56176479Y8615756D01*
X56310416Y8544165D01*
X56427817Y8447817D01*
X56524165Y8330416D01*
X56595756Y8196479D01*
X56595757Y8196476D01*
X56639844Y8051142D01*
X56651000Y7937872D01*
X56651000Y7302128D01*
X56639844Y7188858D01*
X56595757Y7043525D01*
X56595756Y7043521D01*
X56524165Y6909584D01*
X56524164Y6909583D01*
X56427817Y6792183D01*
X56328268Y6710486D01*
X56310415Y6695835D01*
X56176478Y6624244D01*
X56176475Y6624243D01*
X56031141Y6580156D01*
X55880000Y6565270D01*
X55728858Y6580156D01*
X55583524Y6624243D01*
X55583521Y6624244D01*
X55449584Y6695835D01*
X55428531Y6713113D01*
X55332183Y6792183D01*
X55235836Y6909584D01*
X55164245Y7043521D01*
X55164244Y7043522D01*
X55164243Y7043525D01*
X55120156Y7188859D01*
X55109000Y7302129D01*
X55109000Y7937872D01*
X55120156Y8051142D01*
X55164243Y8196476D01*
X55164243Y8196477D01*
X55235837Y8330418D01*
X55332184Y8447817D01*
X55449585Y8544165D01*
X55583522Y8615756D01*
X55583525Y8615757D01*
X55728859Y8659844D01*
X55880000Y8674730D01*
X56031142Y8659844D01*
G37*
G36*
X53491142Y8659844D02*
G01*
X53636476Y8615757D01*
X53636479Y8615756D01*
X53770416Y8544165D01*
X53887817Y8447817D01*
X53984165Y8330416D01*
X54055756Y8196479D01*
X54055757Y8196476D01*
X54099844Y8051142D01*
X54111000Y7937872D01*
X54111000Y7302128D01*
X54099844Y7188858D01*
X54055757Y7043525D01*
X54055756Y7043521D01*
X53984165Y6909584D01*
X53984164Y6909583D01*
X53887817Y6792183D01*
X53788268Y6710486D01*
X53770415Y6695835D01*
X53636478Y6624244D01*
X53636475Y6624243D01*
X53491141Y6580156D01*
X53340000Y6565270D01*
X53188858Y6580156D01*
X53043524Y6624243D01*
X53043521Y6624244D01*
X52909584Y6695835D01*
X52888531Y6713113D01*
X52792183Y6792183D01*
X52695836Y6909584D01*
X52624245Y7043521D01*
X52624244Y7043522D01*
X52624243Y7043525D01*
X52580156Y7188859D01*
X52569000Y7302129D01*
X52569000Y7937872D01*
X52580156Y8051142D01*
X52624243Y8196476D01*
X52624243Y8196477D01*
X52695837Y8330418D01*
X52792184Y8447817D01*
X52909585Y8544165D01*
X53043522Y8615756D01*
X53043525Y8615757D01*
X53188859Y8659844D01*
X53340000Y8674730D01*
X53491142Y8659844D01*
G37*
G36*
X50951142Y8659844D02*
G01*
X51096476Y8615757D01*
X51096479Y8615756D01*
X51230416Y8544165D01*
X51347817Y8447817D01*
X51444165Y8330416D01*
X51515756Y8196479D01*
X51515757Y8196476D01*
X51559844Y8051142D01*
X51571000Y7937872D01*
X51571000Y7302128D01*
X51559844Y7188858D01*
X51515757Y7043525D01*
X51515756Y7043521D01*
X51444165Y6909584D01*
X51444164Y6909583D01*
X51347817Y6792183D01*
X51248268Y6710486D01*
X51230415Y6695835D01*
X51096478Y6624244D01*
X51096475Y6624243D01*
X50951141Y6580156D01*
X50800000Y6565270D01*
X50648858Y6580156D01*
X50503524Y6624243D01*
X50503521Y6624244D01*
X50369584Y6695835D01*
X50348531Y6713113D01*
X50252183Y6792183D01*
X50155836Y6909584D01*
X50084245Y7043521D01*
X50084244Y7043522D01*
X50084243Y7043525D01*
X50040156Y7188859D01*
X50029000Y7302129D01*
X50029000Y7937872D01*
X50040156Y8051142D01*
X50084243Y8196476D01*
X50084243Y8196477D01*
X50155837Y8330418D01*
X50252184Y8447817D01*
X50369585Y8544165D01*
X50503522Y8615756D01*
X50503525Y8615757D01*
X50648859Y8659844D01*
X50800000Y8674730D01*
X50951142Y8659844D01*
G37*
G36*
X48411142Y8659844D02*
G01*
X48556476Y8615757D01*
X48556479Y8615756D01*
X48690416Y8544165D01*
X48807817Y8447817D01*
X48904165Y8330416D01*
X48975756Y8196479D01*
X48975757Y8196476D01*
X49019844Y8051142D01*
X49031000Y7937872D01*
X49031000Y7302128D01*
X49019844Y7188858D01*
X48975757Y7043525D01*
X48975756Y7043521D01*
X48904165Y6909584D01*
X48904164Y6909583D01*
X48807817Y6792183D01*
X48708268Y6710486D01*
X48690415Y6695835D01*
X48556478Y6624244D01*
X48556475Y6624243D01*
X48411141Y6580156D01*
X48260000Y6565270D01*
X48108858Y6580156D01*
X47963524Y6624243D01*
X47963521Y6624244D01*
X47829584Y6695835D01*
X47808531Y6713113D01*
X47712183Y6792183D01*
X47615836Y6909584D01*
X47544245Y7043521D01*
X47544244Y7043522D01*
X47544243Y7043525D01*
X47500156Y7188859D01*
X47489000Y7302129D01*
X47489000Y7937872D01*
X47500156Y8051142D01*
X47544243Y8196476D01*
X47544243Y8196477D01*
X47615837Y8330418D01*
X47712184Y8447817D01*
X47829585Y8544165D01*
X47963522Y8615756D01*
X47963525Y8615757D01*
X48108859Y8659844D01*
X48260000Y8674730D01*
X48411142Y8659844D01*
G37*
G36*
X45871142Y8659844D02*
G01*
X46016476Y8615757D01*
X46016479Y8615756D01*
X46150416Y8544165D01*
X46267817Y8447817D01*
X46364165Y8330416D01*
X46435756Y8196479D01*
X46435757Y8196476D01*
X46479844Y8051142D01*
X46491000Y7937872D01*
X46491000Y7302128D01*
X46479844Y7188858D01*
X46435757Y7043525D01*
X46435756Y7043521D01*
X46364165Y6909584D01*
X46364164Y6909583D01*
X46267817Y6792183D01*
X46168268Y6710486D01*
X46150415Y6695835D01*
X46016478Y6624244D01*
X46016475Y6624243D01*
X45871141Y6580156D01*
X45720000Y6565270D01*
X45568858Y6580156D01*
X45423524Y6624243D01*
X45423521Y6624244D01*
X45289584Y6695835D01*
X45268531Y6713113D01*
X45172183Y6792183D01*
X45075836Y6909584D01*
X45004245Y7043521D01*
X45004244Y7043522D01*
X45004243Y7043525D01*
X44960156Y7188859D01*
X44949000Y7302129D01*
X44949000Y7937872D01*
X44960156Y8051142D01*
X45004243Y8196476D01*
X45004243Y8196477D01*
X45075837Y8330418D01*
X45172184Y8447817D01*
X45289585Y8544165D01*
X45423522Y8615756D01*
X45423525Y8615757D01*
X45568859Y8659844D01*
X45720000Y8674730D01*
X45871142Y8659844D01*
G37*
G36*
X40791142Y8659844D02*
G01*
X40936476Y8615757D01*
X40936479Y8615756D01*
X41070416Y8544165D01*
X41187817Y8447817D01*
X41284165Y8330416D01*
X41355756Y8196479D01*
X41355757Y8196476D01*
X41399844Y8051142D01*
X41411000Y7937872D01*
X41411000Y7302128D01*
X41399844Y7188858D01*
X41355757Y7043525D01*
X41355756Y7043521D01*
X41284165Y6909584D01*
X41284164Y6909583D01*
X41187817Y6792183D01*
X41088268Y6710486D01*
X41070415Y6695835D01*
X40936478Y6624244D01*
X40936475Y6624243D01*
X40791141Y6580156D01*
X40640000Y6565270D01*
X40488858Y6580156D01*
X40343524Y6624243D01*
X40343521Y6624244D01*
X40209584Y6695835D01*
X40188531Y6713113D01*
X40092183Y6792183D01*
X39995836Y6909584D01*
X39924245Y7043521D01*
X39924244Y7043522D01*
X39924243Y7043525D01*
X39880156Y7188859D01*
X39869000Y7302129D01*
X39869000Y7937872D01*
X39880156Y8051142D01*
X39924243Y8196476D01*
X39924243Y8196477D01*
X39995837Y8330418D01*
X40092184Y8447817D01*
X40209585Y8544165D01*
X40343522Y8615756D01*
X40343525Y8615757D01*
X40488859Y8659844D01*
X40640000Y8674730D01*
X40791142Y8659844D01*
G37*
G36*
X38251142Y8659844D02*
G01*
X38396476Y8615757D01*
X38396479Y8615756D01*
X38530416Y8544165D01*
X38647817Y8447817D01*
X38744165Y8330416D01*
X38815756Y8196479D01*
X38815757Y8196476D01*
X38859844Y8051142D01*
X38871000Y7937872D01*
X38871000Y7302128D01*
X38859844Y7188858D01*
X38815757Y7043525D01*
X38815756Y7043521D01*
X38744165Y6909584D01*
X38744164Y6909583D01*
X38647817Y6792183D01*
X38548268Y6710486D01*
X38530415Y6695835D01*
X38396478Y6624244D01*
X38396475Y6624243D01*
X38251141Y6580156D01*
X38100000Y6565270D01*
X37948858Y6580156D01*
X37803524Y6624243D01*
X37803521Y6624244D01*
X37669584Y6695835D01*
X37648531Y6713113D01*
X37552183Y6792183D01*
X37455836Y6909584D01*
X37384245Y7043521D01*
X37384244Y7043522D01*
X37384243Y7043525D01*
X37340156Y7188859D01*
X37329000Y7302129D01*
X37329000Y7937872D01*
X37340156Y8051142D01*
X37384243Y8196476D01*
X37384243Y8196477D01*
X37455837Y8330418D01*
X37552184Y8447817D01*
X37669585Y8544165D01*
X37803522Y8615756D01*
X37803525Y8615757D01*
X37948859Y8659844D01*
X38100000Y8674730D01*
X38251142Y8659844D01*
G37*
G36*
X35711142Y8659844D02*
G01*
X35856476Y8615757D01*
X35856479Y8615756D01*
X35990416Y8544165D01*
X36107817Y8447817D01*
X36204165Y8330416D01*
X36275756Y8196479D01*
X36275757Y8196476D01*
X36319844Y8051142D01*
X36331000Y7937872D01*
X36331000Y7302128D01*
X36319844Y7188858D01*
X36275757Y7043525D01*
X36275756Y7043521D01*
X36204165Y6909584D01*
X36204164Y6909583D01*
X36107817Y6792183D01*
X36008268Y6710486D01*
X35990415Y6695835D01*
X35856478Y6624244D01*
X35856475Y6624243D01*
X35711141Y6580156D01*
X35560000Y6565270D01*
X35408858Y6580156D01*
X35263524Y6624243D01*
X35263521Y6624244D01*
X35129584Y6695835D01*
X35108531Y6713113D01*
X35012183Y6792183D01*
X34915836Y6909584D01*
X34844245Y7043521D01*
X34844244Y7043522D01*
X34844243Y7043525D01*
X34800156Y7188859D01*
X34789000Y7302129D01*
X34789000Y7937872D01*
X34800156Y8051142D01*
X34844243Y8196476D01*
X34844243Y8196477D01*
X34915837Y8330418D01*
X35012184Y8447817D01*
X35129585Y8544165D01*
X35263522Y8615756D01*
X35263525Y8615757D01*
X35408859Y8659844D01*
X35560000Y8674730D01*
X35711142Y8659844D01*
G37*
G36*
X33171142Y8659844D02*
G01*
X33316476Y8615757D01*
X33316479Y8615756D01*
X33450416Y8544165D01*
X33567817Y8447817D01*
X33664165Y8330416D01*
X33735756Y8196479D01*
X33735757Y8196476D01*
X33779844Y8051142D01*
X33791000Y7937872D01*
X33791000Y7302128D01*
X33779844Y7188858D01*
X33735757Y7043525D01*
X33735756Y7043521D01*
X33664165Y6909584D01*
X33664164Y6909583D01*
X33567817Y6792183D01*
X33468268Y6710486D01*
X33450415Y6695835D01*
X33316478Y6624244D01*
X33316475Y6624243D01*
X33171141Y6580156D01*
X33020000Y6565270D01*
X32868858Y6580156D01*
X32723524Y6624243D01*
X32723521Y6624244D01*
X32589584Y6695835D01*
X32568531Y6713113D01*
X32472183Y6792183D01*
X32375836Y6909584D01*
X32304245Y7043521D01*
X32304244Y7043522D01*
X32304243Y7043525D01*
X32260156Y7188859D01*
X32249000Y7302129D01*
X32249000Y7937872D01*
X32260156Y8051142D01*
X32304243Y8196476D01*
X32304243Y8196477D01*
X32375837Y8330418D01*
X32472184Y8447817D01*
X32589585Y8544165D01*
X32723522Y8615756D01*
X32723525Y8615757D01*
X32868859Y8659844D01*
X33020000Y8674730D01*
X33171142Y8659844D01*
G37*
G36*
X30631142Y8659844D02*
G01*
X30776476Y8615757D01*
X30776479Y8615756D01*
X30910416Y8544165D01*
X31027817Y8447817D01*
X31124165Y8330416D01*
X31195756Y8196479D01*
X31195757Y8196476D01*
X31239844Y8051142D01*
X31251000Y7937872D01*
X31251000Y7302128D01*
X31239844Y7188858D01*
X31195757Y7043525D01*
X31195756Y7043521D01*
X31124165Y6909584D01*
X31124164Y6909583D01*
X31027817Y6792183D01*
X30928268Y6710486D01*
X30910415Y6695835D01*
X30776478Y6624244D01*
X30776475Y6624243D01*
X30631141Y6580156D01*
X30480000Y6565270D01*
X30328858Y6580156D01*
X30183524Y6624243D01*
X30183521Y6624244D01*
X30049584Y6695835D01*
X30028531Y6713113D01*
X29932183Y6792183D01*
X29835836Y6909584D01*
X29764245Y7043521D01*
X29764244Y7043522D01*
X29764243Y7043525D01*
X29720156Y7188859D01*
X29709000Y7302129D01*
X29709000Y7937872D01*
X29720156Y8051142D01*
X29764243Y8196476D01*
X29764243Y8196477D01*
X29835837Y8330418D01*
X29932184Y8447817D01*
X30049585Y8544165D01*
X30183522Y8615756D01*
X30183525Y8615757D01*
X30328859Y8659844D01*
X30480000Y8674730D01*
X30631142Y8659844D01*
G37*
G36*
X43331142Y8659844D02*
G01*
X43476476Y8615757D01*
X43476479Y8615756D01*
X43610416Y8544165D01*
X43727817Y8447817D01*
X43824165Y8330416D01*
X43895756Y8196479D01*
X43895757Y8196476D01*
X43939844Y8051142D01*
X43951000Y7937872D01*
X43951000Y7302128D01*
X43939844Y7188858D01*
X43895757Y7043525D01*
X43895756Y7043521D01*
X43824165Y6909584D01*
X43824164Y6909583D01*
X43727817Y6792183D01*
X43628268Y6710486D01*
X43610415Y6695835D01*
X43476478Y6624244D01*
X43476475Y6624243D01*
X43331141Y6580156D01*
X43180000Y6565270D01*
X43028858Y6580156D01*
X42883524Y6624243D01*
X42883521Y6624244D01*
X42749584Y6695835D01*
X42728531Y6713113D01*
X42632183Y6792183D01*
X42535836Y6909584D01*
X42464245Y7043521D01*
X42464244Y7043522D01*
X42464243Y7043525D01*
X42420156Y7188859D01*
X42409000Y7302129D01*
X42409000Y7937872D01*
X42420156Y8051142D01*
X42464243Y8196476D01*
X42464243Y8196477D01*
X42535837Y8330418D01*
X42632184Y8447817D01*
X42749585Y8544165D01*
X42883522Y8615756D01*
X42883525Y8615757D01*
X43028859Y8659844D01*
X43180000Y8674730D01*
X43331142Y8659844D01*
G37*
G36*
X5346778Y11039453D02*
G01*
X5513224Y10970509D01*
X5663022Y10870417D01*
X5790417Y10743022D01*
X5890509Y10593224D01*
X5959453Y10426778D01*
X5994600Y10250082D01*
X5994600Y10069918D01*
X5959453Y9893222D01*
X5890509Y9726776D01*
X5790417Y9576978D01*
X5663022Y9449583D01*
X5513224Y9349491D01*
X5346778Y9280547D01*
X5170082Y9245400D01*
X4989918Y9245400D01*
X4813222Y9280547D01*
X4646776Y9349491D01*
X4496978Y9449583D01*
X4369583Y9576978D01*
X4269491Y9726776D01*
X4200547Y9893222D01*
X4165400Y10069918D01*
X4165400Y10250082D01*
X4200547Y10426778D01*
X4269491Y10593224D01*
X4369583Y10743022D01*
X4496978Y10870417D01*
X4646776Y10970509D01*
X4813222Y11039453D01*
X4989918Y11074600D01*
X5170082Y11074600D01*
X5346778Y11039453D01*
G37*
G36*
X7886778Y11039453D02*
G01*
X8053224Y10970509D01*
X8203022Y10870417D01*
X8330417Y10743022D01*
X8430509Y10593224D01*
X8499453Y10426778D01*
X8534600Y10250082D01*
X8534600Y10069918D01*
X8499453Y9893222D01*
X8430509Y9726776D01*
X8330417Y9576978D01*
X8203022Y9449583D01*
X8053224Y9349491D01*
X7886778Y9280547D01*
X7710082Y9245400D01*
X7529918Y9245400D01*
X7353222Y9280547D01*
X7186776Y9349491D01*
X7036978Y9449583D01*
X6909583Y9576978D01*
X6809491Y9726776D01*
X6740547Y9893222D01*
X6705400Y10069918D01*
X6705400Y10250082D01*
X6740547Y10426778D01*
X6809491Y10593224D01*
X6909583Y10743022D01*
X7036978Y10870417D01*
X7186776Y10970509D01*
X7353222Y11039453D01*
X7529918Y11074600D01*
X7710082Y11074600D01*
X7886778Y11039453D01*
G37*
G36*
X5346778Y13579453D02*
G01*
X5513224Y13510509D01*
X5663022Y13410417D01*
X5790417Y13283022D01*
X5890509Y13133224D01*
X5959453Y12966778D01*
X5994600Y12790082D01*
X5994600Y12609918D01*
X5959453Y12433222D01*
X5890509Y12266776D01*
X5790417Y12116978D01*
X5663022Y11989583D01*
X5513224Y11889491D01*
X5346778Y11820547D01*
X5170082Y11785400D01*
X4989918Y11785400D01*
X4813222Y11820547D01*
X4646776Y11889491D01*
X4496978Y11989583D01*
X4369583Y12116978D01*
X4269491Y12266776D01*
X4200547Y12433222D01*
X4165400Y12609918D01*
X4165400Y12790082D01*
X4200547Y12966778D01*
X4269491Y13133224D01*
X4369583Y13283022D01*
X4496978Y13410417D01*
X4646776Y13510509D01*
X4813222Y13579453D01*
X4989918Y13614600D01*
X5170082Y13614600D01*
X5346778Y13579453D01*
G37*
G36*
X7886778Y13579453D02*
G01*
X8053224Y13510509D01*
X8203022Y13410417D01*
X8330417Y13283022D01*
X8430509Y13133224D01*
X8499453Y12966778D01*
X8534600Y12790082D01*
X8534600Y12609918D01*
X8499453Y12433222D01*
X8430509Y12266776D01*
X8330417Y12116978D01*
X8203022Y11989583D01*
X8053224Y11889491D01*
X7886778Y11820547D01*
X7710082Y11785400D01*
X7529918Y11785400D01*
X7353222Y11820547D01*
X7186776Y11889491D01*
X7036978Y11989583D01*
X6909583Y12116978D01*
X6809491Y12266776D01*
X6740547Y12433222D01*
X6705400Y12609918D01*
X6705400Y12790082D01*
X6740547Y12966778D01*
X6809491Y13133224D01*
X6909583Y13283022D01*
X7036978Y13410417D01*
X7186776Y13510509D01*
X7353222Y13579453D01*
X7529918Y13614600D01*
X7710082Y13614600D01*
X7886778Y13579453D01*
G37*
G36*
X5346778Y16119453D02*
G01*
X5513224Y16050509D01*
X5663022Y15950417D01*
X5790417Y15823022D01*
X5890509Y15673224D01*
X5959453Y15506778D01*
X5994600Y15330082D01*
X5994600Y15149918D01*
X5959453Y14973222D01*
X5890509Y14806776D01*
X5790417Y14656978D01*
X5663022Y14529583D01*
X5513224Y14429491D01*
X5346778Y14360547D01*
X5170082Y14325400D01*
X4989918Y14325400D01*
X4813222Y14360547D01*
X4646776Y14429491D01*
X4496978Y14529583D01*
X4369583Y14656978D01*
X4269491Y14806776D01*
X4200547Y14973222D01*
X4165400Y15149918D01*
X4165400Y15330082D01*
X4200547Y15506778D01*
X4269491Y15673224D01*
X4369583Y15823022D01*
X4496978Y15950417D01*
X4646776Y16050509D01*
X4813222Y16119453D01*
X4989918Y16154600D01*
X5170082Y16154600D01*
X5346778Y16119453D01*
G37*
G36*
X7886778Y16119453D02*
G01*
X8053224Y16050509D01*
X8203022Y15950417D01*
X8330417Y15823022D01*
X8430509Y15673224D01*
X8499453Y15506778D01*
X8534600Y15330082D01*
X8534600Y15149918D01*
X8499453Y14973222D01*
X8430509Y14806776D01*
X8330417Y14656978D01*
X8203022Y14529583D01*
X8053224Y14429491D01*
X7886778Y14360547D01*
X7710082Y14325400D01*
X7529918Y14325400D01*
X7353222Y14360547D01*
X7186776Y14429491D01*
X7036978Y14529583D01*
X6909583Y14656978D01*
X6809491Y14806776D01*
X6740547Y14973222D01*
X6705400Y15149918D01*
X6705400Y15330082D01*
X6740547Y15506778D01*
X6809491Y15673224D01*
X6909583Y15823022D01*
X7036978Y15950417D01*
X7186776Y16050509D01*
X7353222Y16119453D01*
X7529918Y16154600D01*
X7710082Y16154600D01*
X7886778Y16119453D01*
G37*
G36*
X28091142Y18819844D02*
G01*
X28236476Y18775757D01*
X28236479Y18775756D01*
X28370416Y18704165D01*
X28487817Y18607817D01*
X28584165Y18490416D01*
X28655756Y18356479D01*
X28655757Y18356476D01*
X28699844Y18211142D01*
X28711000Y18097872D01*
X28711000Y17462128D01*
X28699844Y17348858D01*
X28699212Y17346776D01*
X28655756Y17203521D01*
X28584165Y17069584D01*
X28584164Y17069583D01*
X28487817Y16952183D01*
X28424897Y16900547D01*
X28370415Y16855835D01*
X28236478Y16784244D01*
X28236475Y16784243D01*
X28091141Y16740156D01*
X27940000Y16725270D01*
X27788858Y16740156D01*
X27643524Y16784243D01*
X27643521Y16784244D01*
X27509584Y16855835D01*
X27455101Y16900548D01*
X27392183Y16952183D01*
X27295836Y17069584D01*
X27295835Y17069585D01*
X27224244Y17203522D01*
X27224243Y17203525D01*
X27180156Y17348859D01*
X27169000Y17462129D01*
X27169000Y18097872D01*
X27180156Y18211142D01*
X27224243Y18356476D01*
X27224243Y18356477D01*
X27295837Y18490418D01*
X27392184Y18607817D01*
X27509585Y18704165D01*
X27643522Y18775756D01*
X27643525Y18775757D01*
X27788859Y18819844D01*
X27940000Y18834730D01*
X28091142Y18819844D01*
G37*
G36*
X30631142Y18819844D02*
G01*
X30776476Y18775757D01*
X30776479Y18775756D01*
X30910416Y18704165D01*
X31027817Y18607817D01*
X31124165Y18490416D01*
X31195756Y18356479D01*
X31195757Y18356476D01*
X31239844Y18211142D01*
X31251000Y18097872D01*
X31251000Y17462128D01*
X31239844Y17348858D01*
X31239212Y17346776D01*
X31195756Y17203521D01*
X31124165Y17069584D01*
X31124164Y17069583D01*
X31027817Y16952183D01*
X30964897Y16900547D01*
X30910415Y16855835D01*
X30776478Y16784244D01*
X30776475Y16784243D01*
X30631141Y16740156D01*
X30480000Y16725270D01*
X30328858Y16740156D01*
X30183524Y16784243D01*
X30183521Y16784244D01*
X30049584Y16855835D01*
X29995101Y16900548D01*
X29932183Y16952183D01*
X29835836Y17069584D01*
X29835835Y17069585D01*
X29764244Y17203522D01*
X29764243Y17203525D01*
X29720156Y17348859D01*
X29709000Y17462129D01*
X29709000Y18097872D01*
X29720156Y18211142D01*
X29764243Y18356476D01*
X29764243Y18356477D01*
X29835837Y18490418D01*
X29932184Y18607817D01*
X30049585Y18704165D01*
X30183522Y18775756D01*
X30183525Y18775757D01*
X30328859Y18819844D01*
X30480000Y18834730D01*
X30631142Y18819844D01*
G37*
G36*
X33171142Y18819844D02*
G01*
X33316476Y18775757D01*
X33316479Y18775756D01*
X33450416Y18704165D01*
X33567817Y18607817D01*
X33664165Y18490416D01*
X33735756Y18356479D01*
X33735757Y18356476D01*
X33779844Y18211142D01*
X33791000Y18097872D01*
X33791000Y17462128D01*
X33779844Y17348858D01*
X33779212Y17346776D01*
X33735756Y17203521D01*
X33664165Y17069584D01*
X33664164Y17069583D01*
X33567817Y16952183D01*
X33504897Y16900547D01*
X33450415Y16855835D01*
X33316478Y16784244D01*
X33316475Y16784243D01*
X33171141Y16740156D01*
X33020000Y16725270D01*
X32868858Y16740156D01*
X32723524Y16784243D01*
X32723521Y16784244D01*
X32589584Y16855835D01*
X32535101Y16900548D01*
X32472183Y16952183D01*
X32375836Y17069584D01*
X32375835Y17069585D01*
X32304244Y17203522D01*
X32304243Y17203525D01*
X32260156Y17348859D01*
X32249000Y17462129D01*
X32249000Y18097872D01*
X32260156Y18211142D01*
X32304243Y18356476D01*
X32304243Y18356477D01*
X32375837Y18490418D01*
X32472184Y18607817D01*
X32589585Y18704165D01*
X32723522Y18775756D01*
X32723525Y18775757D01*
X32868859Y18819844D01*
X33020000Y18834730D01*
X33171142Y18819844D01*
G37*
G36*
X38251142Y18819844D02*
G01*
X38396476Y18775757D01*
X38396479Y18775756D01*
X38530416Y18704165D01*
X38647817Y18607817D01*
X38744165Y18490416D01*
X38815756Y18356479D01*
X38815757Y18356476D01*
X38859844Y18211142D01*
X38871000Y18097872D01*
X38871000Y17462128D01*
X38859844Y17348858D01*
X38859212Y17346776D01*
X38815756Y17203521D01*
X38744165Y17069584D01*
X38744164Y17069583D01*
X38647817Y16952183D01*
X38584897Y16900547D01*
X38530415Y16855835D01*
X38396478Y16784244D01*
X38396475Y16784243D01*
X38251141Y16740156D01*
X38100000Y16725270D01*
X37948858Y16740156D01*
X37803524Y16784243D01*
X37803521Y16784244D01*
X37669584Y16855835D01*
X37615101Y16900548D01*
X37552183Y16952183D01*
X37455836Y17069584D01*
X37455835Y17069585D01*
X37384244Y17203522D01*
X37384243Y17203525D01*
X37340156Y17348859D01*
X37329000Y17462129D01*
X37329000Y18097872D01*
X37340156Y18211142D01*
X37384243Y18356476D01*
X37384243Y18356477D01*
X37455837Y18490418D01*
X37552184Y18607817D01*
X37669585Y18704165D01*
X37803522Y18775756D01*
X37803525Y18775757D01*
X37948859Y18819844D01*
X38100000Y18834730D01*
X38251142Y18819844D01*
G37*
G36*
X35711142Y18819844D02*
G01*
X35856476Y18775757D01*
X35856479Y18775756D01*
X35990416Y18704165D01*
X36107817Y18607817D01*
X36204165Y18490416D01*
X36275756Y18356479D01*
X36275757Y18356476D01*
X36319844Y18211142D01*
X36331000Y18097872D01*
X36331000Y17462128D01*
X36319844Y17348858D01*
X36319212Y17346776D01*
X36275756Y17203521D01*
X36204165Y17069584D01*
X36204164Y17069583D01*
X36107817Y16952183D01*
X36044897Y16900547D01*
X35990415Y16855835D01*
X35856478Y16784244D01*
X35856475Y16784243D01*
X35711141Y16740156D01*
X35560000Y16725270D01*
X35408858Y16740156D01*
X35263524Y16784243D01*
X35263521Y16784244D01*
X35129584Y16855835D01*
X35075101Y16900548D01*
X35012183Y16952183D01*
X34915836Y17069584D01*
X34915835Y17069585D01*
X34844244Y17203522D01*
X34844243Y17203525D01*
X34800156Y17348859D01*
X34789000Y17462129D01*
X34789000Y18097872D01*
X34800156Y18211142D01*
X34844243Y18356476D01*
X34844243Y18356477D01*
X34915837Y18490418D01*
X35012184Y18607817D01*
X35129585Y18704165D01*
X35263522Y18775756D01*
X35263525Y18775757D01*
X35408859Y18819844D01*
X35560000Y18834730D01*
X35711142Y18819844D01*
G37*
G36*
X25551142Y18819844D02*
G01*
X25696476Y18775757D01*
X25696479Y18775756D01*
X25830416Y18704165D01*
X25947817Y18607817D01*
X26044165Y18490416D01*
X26115756Y18356479D01*
X26115757Y18356476D01*
X26159844Y18211142D01*
X26171000Y18097872D01*
X26171000Y17462128D01*
X26159844Y17348858D01*
X26159212Y17346776D01*
X26115756Y17203521D01*
X26044165Y17069584D01*
X26044164Y17069583D01*
X25947817Y16952183D01*
X25884897Y16900547D01*
X25830415Y16855835D01*
X25696478Y16784244D01*
X25696475Y16784243D01*
X25551141Y16740156D01*
X25400000Y16725270D01*
X25248858Y16740156D01*
X25103524Y16784243D01*
X25103521Y16784244D01*
X24969584Y16855835D01*
X24915101Y16900548D01*
X24852183Y16952183D01*
X24755836Y17069584D01*
X24755835Y17069585D01*
X24684244Y17203522D01*
X24684243Y17203525D01*
X24640156Y17348859D01*
X24629000Y17462129D01*
X24629000Y18097872D01*
X24640156Y18211142D01*
X24684243Y18356476D01*
X24684243Y18356477D01*
X24755837Y18490418D01*
X24852184Y18607817D01*
X24969585Y18704165D01*
X25103522Y18775756D01*
X25103525Y18775757D01*
X25248859Y18819844D01*
X25400000Y18834730D01*
X25551142Y18819844D01*
G37*
G36*
X48411142Y18819844D02*
G01*
X48556476Y18775757D01*
X48556479Y18775756D01*
X48690416Y18704165D01*
X48807817Y18607817D01*
X48904165Y18490416D01*
X48975756Y18356479D01*
X48975757Y18356476D01*
X49019844Y18211142D01*
X49031000Y18097872D01*
X49031000Y17462128D01*
X49019844Y17348858D01*
X49019212Y17346776D01*
X48975756Y17203521D01*
X48904165Y17069584D01*
X48904164Y17069583D01*
X48807817Y16952183D01*
X48744897Y16900547D01*
X48690415Y16855835D01*
X48556478Y16784244D01*
X48556475Y16784243D01*
X48411141Y16740156D01*
X48260000Y16725270D01*
X48108858Y16740156D01*
X47963524Y16784243D01*
X47963521Y16784244D01*
X47829584Y16855835D01*
X47775101Y16900548D01*
X47712183Y16952183D01*
X47615836Y17069584D01*
X47615835Y17069585D01*
X47544244Y17203522D01*
X47544243Y17203525D01*
X47500156Y17348859D01*
X47489000Y17462129D01*
X47489000Y18097872D01*
X47500156Y18211142D01*
X47544243Y18356476D01*
X47544243Y18356477D01*
X47615837Y18490418D01*
X47712184Y18607817D01*
X47829585Y18704165D01*
X47963522Y18775756D01*
X47963525Y18775757D01*
X48108859Y18819844D01*
X48260000Y18834730D01*
X48411142Y18819844D01*
G37*
G36*
X40791142Y18819844D02*
G01*
X40936476Y18775757D01*
X40936479Y18775756D01*
X41070416Y18704165D01*
X41187817Y18607817D01*
X41284165Y18490416D01*
X41355756Y18356479D01*
X41355757Y18356476D01*
X41399844Y18211142D01*
X41411000Y18097872D01*
X41411000Y17462128D01*
X41399844Y17348858D01*
X41399212Y17346776D01*
X41355756Y17203521D01*
X41284165Y17069584D01*
X41284164Y17069583D01*
X41187817Y16952183D01*
X41124897Y16900547D01*
X41070415Y16855835D01*
X40936478Y16784244D01*
X40936475Y16784243D01*
X40791141Y16740156D01*
X40640000Y16725270D01*
X40488858Y16740156D01*
X40343524Y16784243D01*
X40343521Y16784244D01*
X40209584Y16855835D01*
X40155101Y16900548D01*
X40092183Y16952183D01*
X39995836Y17069584D01*
X39995835Y17069585D01*
X39924244Y17203522D01*
X39924243Y17203525D01*
X39880156Y17348859D01*
X39869000Y17462129D01*
X39869000Y18097872D01*
X39880156Y18211142D01*
X39924243Y18356476D01*
X39924243Y18356477D01*
X39995837Y18490418D01*
X40092184Y18607817D01*
X40209585Y18704165D01*
X40343522Y18775756D01*
X40343525Y18775757D01*
X40488859Y18819844D01*
X40640000Y18834730D01*
X40791142Y18819844D01*
G37*
G36*
X45871142Y18819844D02*
G01*
X46016476Y18775757D01*
X46016479Y18775756D01*
X46150416Y18704165D01*
X46267817Y18607817D01*
X46364165Y18490416D01*
X46435756Y18356479D01*
X46435757Y18356476D01*
X46479844Y18211142D01*
X46491000Y18097872D01*
X46491000Y17462128D01*
X46479844Y17348858D01*
X46479212Y17346776D01*
X46435756Y17203521D01*
X46364165Y17069584D01*
X46364164Y17069583D01*
X46267817Y16952183D01*
X46204897Y16900547D01*
X46150415Y16855835D01*
X46016478Y16784244D01*
X46016475Y16784243D01*
X45871141Y16740156D01*
X45720000Y16725270D01*
X45568858Y16740156D01*
X45423524Y16784243D01*
X45423521Y16784244D01*
X45289584Y16855835D01*
X45235101Y16900548D01*
X45172183Y16952183D01*
X45075836Y17069584D01*
X45075835Y17069585D01*
X45004244Y17203522D01*
X45004243Y17203525D01*
X44960156Y17348859D01*
X44949000Y17462129D01*
X44949000Y18097872D01*
X44960156Y18211142D01*
X45004243Y18356476D01*
X45004243Y18356477D01*
X45075837Y18490418D01*
X45172184Y18607817D01*
X45289585Y18704165D01*
X45423522Y18775756D01*
X45423525Y18775757D01*
X45568859Y18819844D01*
X45720000Y18834730D01*
X45871142Y18819844D01*
G37*
G36*
X43331142Y18819844D02*
G01*
X43476476Y18775757D01*
X43476479Y18775756D01*
X43610416Y18704165D01*
X43727817Y18607817D01*
X43824165Y18490416D01*
X43895756Y18356479D01*
X43895757Y18356476D01*
X43939844Y18211142D01*
X43951000Y18097872D01*
X43951000Y17462128D01*
X43939844Y17348858D01*
X43939212Y17346776D01*
X43895756Y17203521D01*
X43824165Y17069584D01*
X43824164Y17069583D01*
X43727817Y16952183D01*
X43664897Y16900547D01*
X43610415Y16855835D01*
X43476478Y16784244D01*
X43476475Y16784243D01*
X43331141Y16740156D01*
X43180000Y16725270D01*
X43028858Y16740156D01*
X42883524Y16784243D01*
X42883521Y16784244D01*
X42749584Y16855835D01*
X42695101Y16900548D01*
X42632183Y16952183D01*
X42535836Y17069584D01*
X42535835Y17069585D01*
X42464244Y17203522D01*
X42464243Y17203525D01*
X42420156Y17348859D01*
X42409000Y17462129D01*
X42409000Y18097872D01*
X42420156Y18211142D01*
X42464243Y18356476D01*
X42464243Y18356477D01*
X42535837Y18490418D01*
X42632184Y18607817D01*
X42749585Y18704165D01*
X42883522Y18775756D01*
X42883525Y18775757D01*
X43028859Y18819844D01*
X43180000Y18834730D01*
X43331142Y18819844D01*
G37*
G36*
X53491142Y18819844D02*
G01*
X53636476Y18775757D01*
X53636479Y18775756D01*
X53770416Y18704165D01*
X53887817Y18607817D01*
X53984165Y18490416D01*
X54055756Y18356479D01*
X54055757Y18356476D01*
X54099844Y18211142D01*
X54111000Y18097872D01*
X54111000Y17462128D01*
X54099844Y17348858D01*
X54099212Y17346776D01*
X54055756Y17203521D01*
X53984165Y17069584D01*
X53984164Y17069583D01*
X53887817Y16952183D01*
X53824897Y16900547D01*
X53770415Y16855835D01*
X53636478Y16784244D01*
X53636475Y16784243D01*
X53491141Y16740156D01*
X53340000Y16725270D01*
X53188858Y16740156D01*
X53043524Y16784243D01*
X53043521Y16784244D01*
X52909584Y16855835D01*
X52855101Y16900548D01*
X52792183Y16952183D01*
X52695836Y17069584D01*
X52695835Y17069585D01*
X52624244Y17203522D01*
X52624243Y17203525D01*
X52580156Y17348859D01*
X52569000Y17462129D01*
X52569000Y18097872D01*
X52580156Y18211142D01*
X52624243Y18356476D01*
X52624243Y18356477D01*
X52695837Y18490418D01*
X52792184Y18607817D01*
X52909585Y18704165D01*
X53043522Y18775756D01*
X53043525Y18775757D01*
X53188859Y18819844D01*
X53340000Y18834730D01*
X53491142Y18819844D01*
G37*
G36*
X56031142Y18819844D02*
G01*
X56176476Y18775757D01*
X56176479Y18775756D01*
X56310416Y18704165D01*
X56427817Y18607817D01*
X56524165Y18490416D01*
X56595756Y18356479D01*
X56595757Y18356476D01*
X56639844Y18211142D01*
X56651000Y18097872D01*
X56651000Y17462128D01*
X56639844Y17348858D01*
X56639212Y17346776D01*
X56595756Y17203521D01*
X56524165Y17069584D01*
X56524164Y17069583D01*
X56427817Y16952183D01*
X56364897Y16900547D01*
X56310415Y16855835D01*
X56176478Y16784244D01*
X56176475Y16784243D01*
X56031141Y16740156D01*
X55880000Y16725270D01*
X55728858Y16740156D01*
X55583524Y16784243D01*
X55583521Y16784244D01*
X55449584Y16855835D01*
X55395101Y16900548D01*
X55332183Y16952183D01*
X55235836Y17069584D01*
X55235835Y17069585D01*
X55164244Y17203522D01*
X55164243Y17203525D01*
X55120156Y17348859D01*
X55109000Y17462129D01*
X55109000Y18097872D01*
X55120156Y18211142D01*
X55164243Y18356476D01*
X55164243Y18356477D01*
X55235837Y18490418D01*
X55332184Y18607817D01*
X55449585Y18704165D01*
X55583522Y18775756D01*
X55583525Y18775757D01*
X55728859Y18819844D01*
X55880000Y18834730D01*
X56031142Y18819844D01*
G37*
G36*
X50951142Y18819844D02*
G01*
X51096476Y18775757D01*
X51096479Y18775756D01*
X51230416Y18704165D01*
X51347817Y18607817D01*
X51444165Y18490416D01*
X51515756Y18356479D01*
X51515757Y18356476D01*
X51559844Y18211142D01*
X51571000Y18097872D01*
X51571000Y17462128D01*
X51559844Y17348858D01*
X51559212Y17346776D01*
X51515756Y17203521D01*
X51444165Y17069584D01*
X51444164Y17069583D01*
X51347817Y16952183D01*
X51284897Y16900547D01*
X51230415Y16855835D01*
X51096478Y16784244D01*
X51096475Y16784243D01*
X50951141Y16740156D01*
X50800000Y16725270D01*
X50648858Y16740156D01*
X50503524Y16784243D01*
X50503521Y16784244D01*
X50369584Y16855835D01*
X50315101Y16900548D01*
X50252183Y16952183D01*
X50155836Y17069584D01*
X50155835Y17069585D01*
X50084244Y17203522D01*
X50084243Y17203525D01*
X50040156Y17348859D01*
X50029000Y17462129D01*
X50029000Y18097872D01*
X50040156Y18211142D01*
X50084243Y18356476D01*
X50084243Y18356477D01*
X50155837Y18490418D01*
X50252184Y18607817D01*
X50369585Y18704165D01*
X50503522Y18775756D01*
X50503525Y18775757D01*
X50648859Y18819844D01*
X50800000Y18834730D01*
X50951142Y18819844D01*
G37*
G36*
X59191000Y16729000D02*
G01*
X57649000Y16729000D01*
X57649000Y18831000D01*
X59191000Y18831000D01*
X59191000Y16729000D01*
G37*
G36*
X5346778Y18659453D02*
G01*
X5513224Y18590509D01*
X5663022Y18490417D01*
X5790417Y18363022D01*
X5890509Y18213224D01*
X5959453Y18046778D01*
X5994600Y17870082D01*
X5994600Y17689918D01*
X5959453Y17513222D01*
X5890509Y17346776D01*
X5790417Y17196978D01*
X5663022Y17069583D01*
X5513224Y16969491D01*
X5346778Y16900547D01*
X5170082Y16865400D01*
X4989918Y16865400D01*
X4813222Y16900547D01*
X4646776Y16969491D01*
X4496978Y17069583D01*
X4369583Y17196978D01*
X4269491Y17346776D01*
X4200547Y17513222D01*
X4165400Y17689918D01*
X4165400Y17870082D01*
X4200547Y18046778D01*
X4269491Y18213224D01*
X4369583Y18363022D01*
X4496978Y18490417D01*
X4646776Y18590509D01*
X4813222Y18659453D01*
X4989918Y18694600D01*
X5170082Y18694600D01*
X5346778Y18659453D01*
G37*
G36*
X7886778Y18659453D02*
G01*
X8053224Y18590509D01*
X8203022Y18490417D01*
X8330417Y18363022D01*
X8430509Y18213224D01*
X8499453Y18046778D01*
X8534600Y17870082D01*
X8534600Y17689918D01*
X8499453Y17513222D01*
X8430509Y17346776D01*
X8330417Y17196978D01*
X8203022Y17069583D01*
X8053224Y16969491D01*
X7886778Y16900547D01*
X7710082Y16865400D01*
X7529918Y16865400D01*
X7353222Y16900547D01*
X7186776Y16969491D01*
X7036978Y17069583D01*
X6909583Y17196978D01*
X6809491Y17346776D01*
X6740547Y17513222D01*
X6705400Y17689918D01*
X6705400Y17870082D01*
X6740547Y18046778D01*
X6809491Y18213224D01*
X6909583Y18363022D01*
X7036978Y18490417D01*
X7186776Y18590509D01*
X7353222Y18659453D01*
X7529918Y18694600D01*
X7710082Y18694600D01*
X7886778Y18659453D01*
G37*
G36*
X7886778Y21199453D02*
G01*
X8053224Y21130509D01*
X8203022Y21030417D01*
X8330417Y20903022D01*
X8430509Y20753224D01*
X8499453Y20586778D01*
X8534600Y20410082D01*
X8534600Y20229918D01*
X8499453Y20053222D01*
X8430509Y19886776D01*
X8330417Y19736978D01*
X8203022Y19609583D01*
X8053224Y19509491D01*
X7886778Y19440547D01*
X7710082Y19405400D01*
X7529918Y19405400D01*
X7353222Y19440547D01*
X7186776Y19509491D01*
X7036978Y19609583D01*
X6909583Y19736978D01*
X6809491Y19886776D01*
X6740547Y20053222D01*
X6705400Y20229918D01*
X6705400Y20410082D01*
X6740547Y20586778D01*
X6809491Y20753224D01*
X6909583Y20903022D01*
X7036978Y21030417D01*
X7186776Y21130509D01*
X7353222Y21199453D01*
X7529918Y21234600D01*
X7710082Y21234600D01*
X7886778Y21199453D01*
G37*
G36*
X5994600Y19405400D02*
G01*
X4165400Y19405400D01*
X4165400Y21234600D01*
X5994600Y21234600D01*
X5994600Y19405400D01*
G37*
G36*
X40321000Y26989000D02*
G01*
X38419000Y26989000D01*
X38419000Y28891000D01*
X40321000Y28891000D01*
X40321000Y26989000D01*
G37*
G36*
X37107395Y28854454D02*
G01*
X37280466Y28782766D01*
X37280467Y28782765D01*
X37436227Y28678690D01*
X37568690Y28546227D01*
X37611284Y28482480D01*
X37672766Y28390466D01*
X37744454Y28217395D01*
X37781000Y28033667D01*
X37781000Y27846333D01*
X37744454Y27662605D01*
X37672766Y27489534D01*
X37672765Y27489533D01*
X37568690Y27333773D01*
X37436227Y27201310D01*
X37413092Y27185852D01*
X37280466Y27097234D01*
X37107395Y27025546D01*
X36923667Y26989000D01*
X36736333Y26989000D01*
X36552605Y27025546D01*
X36379534Y27097234D01*
X36246908Y27185852D01*
X36223773Y27201310D01*
X36091310Y27333773D01*
X35987235Y27489533D01*
X35987234Y27489534D01*
X35915546Y27662605D01*
X35879000Y27846333D01*
X35879000Y28033667D01*
X35915546Y28217395D01*
X35987234Y28390466D01*
X36048716Y28482480D01*
X36091310Y28546227D01*
X36223773Y28678690D01*
X36379533Y28782765D01*
X36379534Y28782766D01*
X36552605Y28854454D01*
X36736333Y28891000D01*
X36923667Y28891000D01*
X37107395Y28854454D01*
G37*
G36*
X45968228Y28758297D02*
G01*
X46123100Y28694147D01*
X46262481Y28601015D01*
X46381015Y28482481D01*
X46474147Y28343100D01*
X46538297Y28188228D01*
X46571000Y28023816D01*
X46571000Y27856184D01*
X46538297Y27691772D01*
X46474147Y27536900D01*
X46381015Y27397519D01*
X46262481Y27278985D01*
X46123100Y27185853D01*
X45968228Y27121703D01*
X45803816Y27089000D01*
X45636184Y27089000D01*
X45471772Y27121703D01*
X45316900Y27185853D01*
X45177519Y27278985D01*
X45058985Y27397519D01*
X44965853Y27536900D01*
X44901703Y27691772D01*
X44869000Y27856184D01*
X44869000Y28023816D01*
X44901703Y28188228D01*
X44965853Y28343100D01*
X45058985Y28482481D01*
X45177519Y28601015D01*
X45316900Y28694147D01*
X45471772Y28758297D01*
X45636184Y28791000D01*
X45803816Y28791000D01*
X45968228Y28758297D01*
G37*
G36*
X58668228Y28758297D02*
G01*
X58823100Y28694147D01*
X58962481Y28601015D01*
X59081015Y28482481D01*
X59174147Y28343100D01*
X59238297Y28188228D01*
X59271000Y28023816D01*
X59271000Y27856184D01*
X59238297Y27691772D01*
X59174147Y27536900D01*
X59081015Y27397519D01*
X58962481Y27278985D01*
X58823100Y27185853D01*
X58668228Y27121703D01*
X58503816Y27089000D01*
X58336184Y27089000D01*
X58171772Y27121703D01*
X58016900Y27185853D01*
X57877519Y27278985D01*
X57758985Y27397519D01*
X57665853Y27536900D01*
X57601703Y27691772D01*
X57569000Y27856184D01*
X57569000Y28023816D01*
X57601703Y28188228D01*
X57665853Y28343100D01*
X57758985Y28482481D01*
X57877519Y28601015D01*
X58016900Y28694147D01*
X58171772Y28758297D01*
X58336184Y28791000D01*
X58503816Y28791000D01*
X58668228Y28758297D01*
G37*
G36*
X51048228Y28758297D02*
G01*
X51203100Y28694147D01*
X51342481Y28601015D01*
X51461015Y28482481D01*
X51554147Y28343100D01*
X51618297Y28188228D01*
X51651000Y28023816D01*
X51651000Y27856184D01*
X51618297Y27691772D01*
X51554147Y27536900D01*
X51461015Y27397519D01*
X51342481Y27278985D01*
X51203100Y27185853D01*
X51048228Y27121703D01*
X50883816Y27089000D01*
X50716184Y27089000D01*
X50551772Y27121703D01*
X50396900Y27185853D01*
X50257519Y27278985D01*
X50138985Y27397519D01*
X50045853Y27536900D01*
X49981703Y27691772D01*
X49949000Y27856184D01*
X49949000Y28023816D01*
X49981703Y28188228D01*
X50045853Y28343100D01*
X50138985Y28482481D01*
X50257519Y28601015D01*
X50396900Y28694147D01*
X50551772Y28758297D01*
X50716184Y28791000D01*
X50883816Y28791000D01*
X51048228Y28758297D01*
G37*
G36*
X43468228Y28758297D02*
G01*
X43623100Y28694147D01*
X43762481Y28601015D01*
X43881015Y28482481D01*
X43974147Y28343100D01*
X44038297Y28188228D01*
X44071000Y28023816D01*
X44071000Y27856184D01*
X44038297Y27691772D01*
X43974147Y27536900D01*
X43881015Y27397519D01*
X43762481Y27278985D01*
X43623100Y27185853D01*
X43468228Y27121703D01*
X43303816Y27089000D01*
X43136184Y27089000D01*
X42971772Y27121703D01*
X42816900Y27185853D01*
X42677519Y27278985D01*
X42558985Y27397519D01*
X42465853Y27536900D01*
X42401703Y27691772D01*
X42369000Y27856184D01*
X42369000Y28023816D01*
X42401703Y28188228D01*
X42465853Y28343100D01*
X42558985Y28482481D01*
X42677519Y28601015D01*
X42816900Y28694147D01*
X42971772Y28758297D01*
X43136184Y28791000D01*
X43303816Y28791000D01*
X43468228Y28758297D01*
G37*
G36*
X33268228Y28758297D02*
G01*
X33423100Y28694147D01*
X33562481Y28601015D01*
X33681015Y28482481D01*
X33774147Y28343100D01*
X33838297Y28188228D01*
X33871000Y28023816D01*
X33871000Y27856184D01*
X33838297Y27691772D01*
X33774147Y27536900D01*
X33681015Y27397519D01*
X33562481Y27278985D01*
X33423100Y27185853D01*
X33268228Y27121703D01*
X33103816Y27089000D01*
X32936184Y27089000D01*
X32771772Y27121703D01*
X32616900Y27185853D01*
X32477519Y27278985D01*
X32358985Y27397519D01*
X32265853Y27536900D01*
X32201703Y27691772D01*
X32169000Y27856184D01*
X32169000Y28023816D01*
X32201703Y28188228D01*
X32265853Y28343100D01*
X32358985Y28482481D01*
X32477519Y28601015D01*
X32616900Y28694147D01*
X32771772Y28758297D01*
X32936184Y28791000D01*
X33103816Y28791000D01*
X33268228Y28758297D01*
G37*
G36*
X25648228Y28758297D02*
G01*
X25803100Y28694147D01*
X25942481Y28601015D01*
X26061015Y28482481D01*
X26154147Y28343100D01*
X26218297Y28188228D01*
X26251000Y28023816D01*
X26251000Y27856184D01*
X26218297Y27691772D01*
X26154147Y27536900D01*
X26061015Y27397519D01*
X25942481Y27278985D01*
X25803100Y27185853D01*
X25648228Y27121703D01*
X25483816Y27089000D01*
X25316184Y27089000D01*
X25151772Y27121703D01*
X24996900Y27185853D01*
X24857519Y27278985D01*
X24738985Y27397519D01*
X24645853Y27536900D01*
X24581703Y27691772D01*
X24549000Y27856184D01*
X24549000Y28023816D01*
X24581703Y28188228D01*
X24645853Y28343100D01*
X24738985Y28482481D01*
X24857519Y28601015D01*
X24996900Y28694147D01*
X25151772Y28758297D01*
X25316184Y28791000D01*
X25483816Y28791000D01*
X25648228Y28758297D01*
G37*
M02*
