%TF.GenerationSoftware,KiCad,Pcbnew,5.1.4-3.fc30*%
%TF.CreationDate,2019-10-13T14:29:48+02:00*%
%TF.ProjectId,atmega_prog_adapter_v1,61746d65-6761-45f7-9072-6f675f616461,1.0*%
%TF.SameCoordinates,Original*%
%TF.FileFunction,Other,Fab,Top*%
%FSLAX46Y46*%
G04 Gerber Fmt 4.6, Leading zero omitted, Abs format (unit mm)*
G04 Created by KiCad (PCBNEW 5.1.4-3.fc30) date 2019-10-13 14:29:48*
%MOMM*%
%LPD*%
G04 APERTURE LIST*
%ADD10C,0.100000*%
%ADD11C,0.150000*%
%ADD12C,0.090000*%
G04 APERTURE END LIST*
D10*
%TO.C,C1*%
X148570000Y-74910000D02*
X148570000Y-72410000D01*
X148570000Y-72410000D02*
X143570000Y-72410000D01*
X143570000Y-72410000D02*
X143570000Y-74910000D01*
X143570000Y-74910000D02*
X148570000Y-74910000D01*
%TO.C,D1*%
X141200555Y-72494524D02*
G75*
G03X141200000Y-74826190I-1500555J-1165476D01*
G01*
X141200000Y-73660000D02*
G75*
G03X141200000Y-73660000I-1500000J0D01*
G01*
X141200000Y-74826190D02*
X141200000Y-72493810D01*
%TO.C,J1*%
X112375000Y-76180000D02*
X112375000Y-96540000D01*
X111825000Y-76720000D02*
X111825000Y-95980000D01*
X103525000Y-76180000D02*
X103525000Y-96540000D01*
X104075000Y-76720000D02*
X104075000Y-84110000D01*
X104075000Y-88610000D02*
X104075000Y-95980000D01*
X104075000Y-84110000D02*
X103525000Y-84110000D01*
X104075000Y-88610000D02*
X103525000Y-88610000D01*
X112375000Y-76180000D02*
X103525000Y-76180000D01*
X111825000Y-76720000D02*
X104075000Y-76720000D01*
X112375000Y-96540000D02*
X103525000Y-96540000D01*
X111825000Y-95980000D02*
X104075000Y-95980000D01*
X112375000Y-76180000D02*
X111825000Y-76720000D01*
X112375000Y-96540000D02*
X111825000Y-95980000D01*
X103525000Y-76180000D02*
X104075000Y-76720000D01*
X103525000Y-96540000D02*
X104075000Y-95980000D01*
%TO.C,R1*%
X153060000Y-72410000D02*
X153060000Y-74910000D01*
X153060000Y-74910000D02*
X159360000Y-74910000D01*
X159360000Y-74910000D02*
X159360000Y-72410000D01*
X159360000Y-72410000D02*
X153060000Y-72410000D01*
X152400000Y-73660000D02*
X153060000Y-73660000D01*
X160020000Y-73660000D02*
X159360000Y-73660000D01*
%TO.C,R2*%
X127000000Y-73660000D02*
X127660000Y-73660000D01*
X134620000Y-73660000D02*
X133960000Y-73660000D01*
X127660000Y-74910000D02*
X133960000Y-74910000D01*
X127660000Y-72410000D02*
X127660000Y-74910000D01*
X133960000Y-72410000D02*
X127660000Y-72410000D01*
X133960000Y-74910000D02*
X133960000Y-72410000D01*
%TO.C,U1*%
X181480000Y-78820000D02*
X182880000Y-80120000D01*
X182880000Y-80120000D02*
X182880000Y-82120000D01*
X182880000Y-82120000D02*
X181480000Y-83420000D01*
X181480000Y-83420000D02*
X181480000Y-78820000D01*
X181480000Y-78820000D02*
X177880000Y-78820000D01*
X177880000Y-78820000D02*
X177880000Y-83420000D01*
X177880000Y-83420000D02*
X181480000Y-83420000D01*
X177880000Y-78820000D02*
X175880000Y-80320000D01*
X177880000Y-83420000D02*
X175880000Y-81920000D01*
X169770000Y-80320000D02*
X175880000Y-80320000D01*
X175880000Y-80320000D02*
X175880000Y-81920000D01*
X175880000Y-81920000D02*
X170580000Y-81920000D01*
X120080000Y-97800000D02*
X120080000Y-80000000D01*
X120080000Y-80000000D02*
X169420000Y-80000000D01*
X169420000Y-80000000D02*
X170580000Y-80970000D01*
X170580000Y-80970000D02*
X170580000Y-97800000D01*
X170580000Y-97800000D02*
X120080000Y-97800000D01*
%TD*%
%TO.C,C1*%
D11*
X144950952Y-71612380D02*
X144379523Y-71612380D01*
X144665238Y-71612380D02*
X144665238Y-70612380D01*
X144570000Y-70755238D01*
X144474761Y-70850476D01*
X144379523Y-70898095D01*
X145570000Y-70612380D02*
X145665238Y-70612380D01*
X145760476Y-70660000D01*
X145808095Y-70707619D01*
X145855714Y-70802857D01*
X145903333Y-70993333D01*
X145903333Y-71231428D01*
X145855714Y-71421904D01*
X145808095Y-71517142D01*
X145760476Y-71564761D01*
X145665238Y-71612380D01*
X145570000Y-71612380D01*
X145474761Y-71564761D01*
X145427142Y-71517142D01*
X145379523Y-71421904D01*
X145331904Y-71231428D01*
X145331904Y-70993333D01*
X145379523Y-70802857D01*
X145427142Y-70707619D01*
X145474761Y-70660000D01*
X145570000Y-70612380D01*
X146522380Y-70612380D02*
X146617619Y-70612380D01*
X146712857Y-70660000D01*
X146760476Y-70707619D01*
X146808095Y-70802857D01*
X146855714Y-70993333D01*
X146855714Y-71231428D01*
X146808095Y-71421904D01*
X146760476Y-71517142D01*
X146712857Y-71564761D01*
X146617619Y-71612380D01*
X146522380Y-71612380D01*
X146427142Y-71564761D01*
X146379523Y-71517142D01*
X146331904Y-71421904D01*
X146284285Y-71231428D01*
X146284285Y-70993333D01*
X146331904Y-70802857D01*
X146379523Y-70707619D01*
X146427142Y-70660000D01*
X146522380Y-70612380D01*
X147284285Y-70945714D02*
X147284285Y-71612380D01*
X147284285Y-71040952D02*
X147331904Y-70993333D01*
X147427142Y-70945714D01*
X147570000Y-70945714D01*
X147665238Y-70993333D01*
X147712857Y-71088571D01*
X147712857Y-71612380D01*
X145903333Y-74017142D02*
X145855714Y-74064761D01*
X145712857Y-74112380D01*
X145617619Y-74112380D01*
X145474761Y-74064761D01*
X145379523Y-73969523D01*
X145331904Y-73874285D01*
X145284285Y-73683809D01*
X145284285Y-73540952D01*
X145331904Y-73350476D01*
X145379523Y-73255238D01*
X145474761Y-73160000D01*
X145617619Y-73112380D01*
X145712857Y-73112380D01*
X145855714Y-73160000D01*
X145903333Y-73207619D01*
X146855714Y-74112380D02*
X146284285Y-74112380D01*
X146570000Y-74112380D02*
X146570000Y-73112380D01*
X146474761Y-73255238D01*
X146379523Y-73350476D01*
X146284285Y-73398095D01*
%TO.C,D1*%
X137342857Y-70676190D02*
X137342857Y-71152380D01*
X137009523Y-70152380D02*
X137342857Y-70676190D01*
X137676190Y-70152380D01*
X138009523Y-70628571D02*
X138342857Y-70628571D01*
X138485714Y-71152380D02*
X138009523Y-71152380D01*
X138009523Y-70152380D01*
X138485714Y-70152380D01*
X139390476Y-71152380D02*
X138914285Y-71152380D01*
X138914285Y-70152380D01*
X140200000Y-71152380D02*
X139723809Y-71152380D01*
X139723809Y-70152380D01*
X140723809Y-70152380D02*
X140914285Y-70152380D01*
X141009523Y-70200000D01*
X141104761Y-70295238D01*
X141152380Y-70485714D01*
X141152380Y-70819047D01*
X141104761Y-71009523D01*
X141009523Y-71104761D01*
X140914285Y-71152380D01*
X140723809Y-71152380D01*
X140628571Y-71104761D01*
X140533333Y-71009523D01*
X140485714Y-70819047D01*
X140485714Y-70485714D01*
X140533333Y-70295238D01*
X140628571Y-70200000D01*
X140723809Y-70152380D01*
X141485714Y-70152380D02*
X141723809Y-71152380D01*
X141914285Y-70438095D01*
X142104761Y-71152380D01*
X142342857Y-70152380D01*
%TO.C,J1*%
X103378571Y-98210666D02*
X103854761Y-98210666D01*
X103283333Y-98496380D02*
X103616666Y-97496380D01*
X103950000Y-98496380D01*
X104140476Y-97496380D02*
X104473809Y-98496380D01*
X104807142Y-97496380D01*
X105711904Y-98496380D02*
X105378571Y-98020190D01*
X105140476Y-98496380D02*
X105140476Y-97496380D01*
X105521428Y-97496380D01*
X105616666Y-97544000D01*
X105664285Y-97591619D01*
X105711904Y-97686857D01*
X105711904Y-97829714D01*
X105664285Y-97924952D01*
X105616666Y-97972571D01*
X105521428Y-98020190D01*
X105140476Y-98020190D01*
X106140476Y-98115428D02*
X106902380Y-98115428D01*
X107378571Y-98496380D02*
X107378571Y-97496380D01*
X107807142Y-98448761D02*
X107950000Y-98496380D01*
X108188095Y-98496380D01*
X108283333Y-98448761D01*
X108330952Y-98401142D01*
X108378571Y-98305904D01*
X108378571Y-98210666D01*
X108330952Y-98115428D01*
X108283333Y-98067809D01*
X108188095Y-98020190D01*
X107997619Y-97972571D01*
X107902380Y-97924952D01*
X107854761Y-97877333D01*
X107807142Y-97782095D01*
X107807142Y-97686857D01*
X107854761Y-97591619D01*
X107902380Y-97544000D01*
X107997619Y-97496380D01*
X108235714Y-97496380D01*
X108378571Y-97544000D01*
X108807142Y-98496380D02*
X108807142Y-97496380D01*
X109188095Y-97496380D01*
X109283333Y-97544000D01*
X109330952Y-97591619D01*
X109378571Y-97686857D01*
X109378571Y-97829714D01*
X109330952Y-97924952D01*
X109283333Y-97972571D01*
X109188095Y-98020190D01*
X108807142Y-98020190D01*
X109807142Y-98115428D02*
X110569047Y-98115428D01*
X111569047Y-98496380D02*
X110997619Y-98496380D01*
X111283333Y-98496380D02*
X111283333Y-97496380D01*
X111188095Y-97639238D01*
X111092857Y-97734476D01*
X110997619Y-97782095D01*
X112188095Y-97496380D02*
X112283333Y-97496380D01*
X112378571Y-97544000D01*
X112426190Y-97591619D01*
X112473809Y-97686857D01*
X112521428Y-97877333D01*
X112521428Y-98115428D01*
X112473809Y-98305904D01*
X112426190Y-98401142D01*
X112378571Y-98448761D01*
X112283333Y-98496380D01*
X112188095Y-98496380D01*
X112092857Y-98448761D01*
X112045238Y-98401142D01*
X111997619Y-98305904D01*
X111950000Y-98115428D01*
X111950000Y-97877333D01*
X111997619Y-97686857D01*
X112045238Y-97591619D01*
X112092857Y-97544000D01*
X112188095Y-97496380D01*
X107616666Y-85812380D02*
X107616666Y-86526666D01*
X107569047Y-86669523D01*
X107473809Y-86764761D01*
X107330952Y-86812380D01*
X107235714Y-86812380D01*
X108616666Y-86812380D02*
X108045238Y-86812380D01*
X108330952Y-86812380D02*
X108330952Y-85812380D01*
X108235714Y-85955238D01*
X108140476Y-86050476D01*
X108045238Y-86098095D01*
%TO.C,R1*%
X155614761Y-76482380D02*
X155043333Y-76482380D01*
X155329047Y-76482380D02*
X155329047Y-75482380D01*
X155233809Y-75625238D01*
X155138571Y-75720476D01*
X155043333Y-75768095D01*
X156233809Y-75482380D02*
X156329047Y-75482380D01*
X156424285Y-75530000D01*
X156471904Y-75577619D01*
X156519523Y-75672857D01*
X156567142Y-75863333D01*
X156567142Y-76101428D01*
X156519523Y-76291904D01*
X156471904Y-76387142D01*
X156424285Y-76434761D01*
X156329047Y-76482380D01*
X156233809Y-76482380D01*
X156138571Y-76434761D01*
X156090952Y-76387142D01*
X156043333Y-76291904D01*
X155995714Y-76101428D01*
X155995714Y-75863333D01*
X156043333Y-75672857D01*
X156090952Y-75577619D01*
X156138571Y-75530000D01*
X156233809Y-75482380D01*
X156995714Y-76482380D02*
X156995714Y-75482380D01*
X157090952Y-76101428D02*
X157376666Y-76482380D01*
X157376666Y-75815714D02*
X156995714Y-76196666D01*
X156043333Y-74112380D02*
X155710000Y-73636190D01*
X155471904Y-74112380D02*
X155471904Y-73112380D01*
X155852857Y-73112380D01*
X155948095Y-73160000D01*
X155995714Y-73207619D01*
X156043333Y-73302857D01*
X156043333Y-73445714D01*
X155995714Y-73540952D01*
X155948095Y-73588571D01*
X155852857Y-73636190D01*
X155471904Y-73636190D01*
X156995714Y-74112380D02*
X156424285Y-74112380D01*
X156710000Y-74112380D02*
X156710000Y-73112380D01*
X156614761Y-73255238D01*
X156519523Y-73350476D01*
X156424285Y-73398095D01*
%TO.C,R2*%
X130048095Y-71075714D02*
X130048095Y-71742380D01*
X129810000Y-70694761D02*
X129571904Y-71409047D01*
X130190952Y-71409047D01*
X130476666Y-70742380D02*
X131143333Y-70742380D01*
X130714761Y-71742380D01*
X131714761Y-70742380D02*
X131810000Y-70742380D01*
X131905238Y-70790000D01*
X131952857Y-70837619D01*
X132000476Y-70932857D01*
X132048095Y-71123333D01*
X132048095Y-71361428D01*
X132000476Y-71551904D01*
X131952857Y-71647142D01*
X131905238Y-71694761D01*
X131810000Y-71742380D01*
X131714761Y-71742380D01*
X131619523Y-71694761D01*
X131571904Y-71647142D01*
X131524285Y-71551904D01*
X131476666Y-71361428D01*
X131476666Y-71123333D01*
X131524285Y-70932857D01*
X131571904Y-70837619D01*
X131619523Y-70790000D01*
X131714761Y-70742380D01*
X130643333Y-74112380D02*
X130310000Y-73636190D01*
X130071904Y-74112380D02*
X130071904Y-73112380D01*
X130452857Y-73112380D01*
X130548095Y-73160000D01*
X130595714Y-73207619D01*
X130643333Y-73302857D01*
X130643333Y-73445714D01*
X130595714Y-73540952D01*
X130548095Y-73588571D01*
X130452857Y-73636190D01*
X130071904Y-73636190D01*
X131024285Y-73207619D02*
X131071904Y-73160000D01*
X131167142Y-73112380D01*
X131405238Y-73112380D01*
X131500476Y-73160000D01*
X131548095Y-73207619D01*
X131595714Y-73302857D01*
X131595714Y-73398095D01*
X131548095Y-73540952D01*
X130976666Y-74112380D01*
X131595714Y-74112380D01*
%TO.C,U1*%
D12*
X119180000Y-98271428D02*
X119180000Y-97985714D01*
X119351428Y-98328571D02*
X118751428Y-98128571D01*
X119351428Y-97928571D01*
X118751428Y-97814285D02*
X118751428Y-97471428D01*
X119351428Y-97642857D02*
X118751428Y-97642857D01*
X119351428Y-97271428D02*
X118951428Y-97271428D01*
X119008571Y-97271428D02*
X118980000Y-97242857D01*
X118951428Y-97185714D01*
X118951428Y-97100000D01*
X118980000Y-97042857D01*
X119037142Y-97014285D01*
X119351428Y-97014285D01*
X119037142Y-97014285D02*
X118980000Y-96985714D01*
X118951428Y-96928571D01*
X118951428Y-96842857D01*
X118980000Y-96785714D01*
X119037142Y-96757142D01*
X119351428Y-96757142D01*
X119322857Y-96242857D02*
X119351428Y-96300000D01*
X119351428Y-96414285D01*
X119322857Y-96471428D01*
X119265714Y-96500000D01*
X119037142Y-96500000D01*
X118980000Y-96471428D01*
X118951428Y-96414285D01*
X118951428Y-96300000D01*
X118980000Y-96242857D01*
X119037142Y-96214285D01*
X119094285Y-96214285D01*
X119151428Y-96500000D01*
X118951428Y-95700000D02*
X119437142Y-95700000D01*
X119494285Y-95728571D01*
X119522857Y-95757142D01*
X119551428Y-95814285D01*
X119551428Y-95900000D01*
X119522857Y-95957142D01*
X119322857Y-95700000D02*
X119351428Y-95757142D01*
X119351428Y-95871428D01*
X119322857Y-95928571D01*
X119294285Y-95957142D01*
X119237142Y-95985714D01*
X119065714Y-95985714D01*
X119008571Y-95957142D01*
X118980000Y-95928571D01*
X118951428Y-95871428D01*
X118951428Y-95757142D01*
X118980000Y-95700000D01*
X119351428Y-95157142D02*
X119037142Y-95157142D01*
X118980000Y-95185714D01*
X118951428Y-95242857D01*
X118951428Y-95357142D01*
X118980000Y-95414285D01*
X119322857Y-95157142D02*
X119351428Y-95214285D01*
X119351428Y-95357142D01*
X119322857Y-95414285D01*
X119265714Y-95442857D01*
X119208571Y-95442857D01*
X119151428Y-95414285D01*
X119122857Y-95357142D01*
X119122857Y-95214285D01*
X119094285Y-95157142D01*
X118951428Y-94614285D02*
X119351428Y-94614285D01*
X118722857Y-94757142D02*
X119151428Y-94900000D01*
X119151428Y-94528571D01*
X119008571Y-94214285D02*
X118980000Y-94271428D01*
X118951428Y-94300000D01*
X118894285Y-94328571D01*
X118865714Y-94328571D01*
X118808571Y-94300000D01*
X118780000Y-94271428D01*
X118751428Y-94214285D01*
X118751428Y-94100000D01*
X118780000Y-94042857D01*
X118808571Y-94014285D01*
X118865714Y-93985714D01*
X118894285Y-93985714D01*
X118951428Y-94014285D01*
X118980000Y-94042857D01*
X119008571Y-94100000D01*
X119008571Y-94214285D01*
X119037142Y-94271428D01*
X119065714Y-94300000D01*
X119122857Y-94328571D01*
X119237142Y-94328571D01*
X119294285Y-94300000D01*
X119322857Y-94271428D01*
X119351428Y-94214285D01*
X119351428Y-94100000D01*
X119322857Y-94042857D01*
X119294285Y-94014285D01*
X119237142Y-93985714D01*
X119122857Y-93985714D01*
X119065714Y-94014285D01*
X119037142Y-94042857D01*
X119008571Y-94100000D01*
X119180000Y-93757142D02*
X119180000Y-93471428D01*
X119351428Y-93814285D02*
X118751428Y-93614285D01*
X119351428Y-93414285D01*
X118722857Y-92785714D02*
X119494285Y-93300000D01*
X119351428Y-92585714D02*
X118751428Y-92585714D01*
X118751428Y-92357142D01*
X118780000Y-92300000D01*
X118808571Y-92271428D01*
X118865714Y-92242857D01*
X118951428Y-92242857D01*
X119008571Y-92271428D01*
X119037142Y-92300000D01*
X119065714Y-92357142D01*
X119065714Y-92585714D01*
X119180000Y-92014285D02*
X119180000Y-91728571D01*
X119351428Y-92071428D02*
X118751428Y-91871428D01*
X119351428Y-91671428D01*
X118722857Y-91042857D02*
X119494285Y-91557142D01*
X119008571Y-90757142D02*
X118980000Y-90814285D01*
X118951428Y-90842857D01*
X118894285Y-90871428D01*
X118865714Y-90871428D01*
X118808571Y-90842857D01*
X118780000Y-90814285D01*
X118751428Y-90757142D01*
X118751428Y-90642857D01*
X118780000Y-90585714D01*
X118808571Y-90557142D01*
X118865714Y-90528571D01*
X118894285Y-90528571D01*
X118951428Y-90557142D01*
X118980000Y-90585714D01*
X119008571Y-90642857D01*
X119008571Y-90757142D01*
X119037142Y-90814285D01*
X119065714Y-90842857D01*
X119122857Y-90871428D01*
X119237142Y-90871428D01*
X119294285Y-90842857D01*
X119322857Y-90814285D01*
X119351428Y-90757142D01*
X119351428Y-90642857D01*
X119322857Y-90585714D01*
X119294285Y-90557142D01*
X119237142Y-90528571D01*
X119122857Y-90528571D01*
X119065714Y-90557142D01*
X119037142Y-90585714D01*
X119008571Y-90642857D01*
X119008571Y-90185714D02*
X118980000Y-90242857D01*
X118951428Y-90271428D01*
X118894285Y-90300000D01*
X118865714Y-90300000D01*
X118808571Y-90271428D01*
X118780000Y-90242857D01*
X118751428Y-90185714D01*
X118751428Y-90071428D01*
X118780000Y-90014285D01*
X118808571Y-89985714D01*
X118865714Y-89957142D01*
X118894285Y-89957142D01*
X118951428Y-89985714D01*
X118980000Y-90014285D01*
X119008571Y-90071428D01*
X119008571Y-90185714D01*
X119037142Y-90242857D01*
X119065714Y-90271428D01*
X119122857Y-90300000D01*
X119237142Y-90300000D01*
X119294285Y-90271428D01*
X119322857Y-90242857D01*
X119351428Y-90185714D01*
X119351428Y-90071428D01*
X119322857Y-90014285D01*
X119294285Y-89985714D01*
X119237142Y-89957142D01*
X119122857Y-89957142D01*
X119065714Y-89985714D01*
X119037142Y-90014285D01*
X119008571Y-90071428D01*
X119180000Y-89728571D02*
X119180000Y-89442857D01*
X119351428Y-89785714D02*
X118751428Y-89585714D01*
X119351428Y-89385714D01*
X118722857Y-88757142D02*
X119494285Y-89271428D01*
X119351428Y-88557142D02*
X118751428Y-88557142D01*
X118751428Y-88328571D01*
X118780000Y-88271428D01*
X118808571Y-88242857D01*
X118865714Y-88214285D01*
X118951428Y-88214285D01*
X119008571Y-88242857D01*
X119037142Y-88271428D01*
X119065714Y-88328571D01*
X119065714Y-88557142D01*
X119180000Y-87985714D02*
X119180000Y-87700000D01*
X119351428Y-88042857D02*
X118751428Y-87842857D01*
X119351428Y-87642857D01*
X118722857Y-87014285D02*
X119494285Y-87528571D01*
X119351428Y-86500000D02*
X119351428Y-86842857D01*
X119351428Y-86671428D02*
X118751428Y-86671428D01*
X118837142Y-86728571D01*
X118894285Y-86785714D01*
X118922857Y-86842857D01*
X118751428Y-85985714D02*
X118751428Y-86100000D01*
X118780000Y-86157142D01*
X118808571Y-86185714D01*
X118894285Y-86242857D01*
X119008571Y-86271428D01*
X119237142Y-86271428D01*
X119294285Y-86242857D01*
X119322857Y-86214285D01*
X119351428Y-86157142D01*
X119351428Y-86042857D01*
X119322857Y-85985714D01*
X119294285Y-85957142D01*
X119237142Y-85928571D01*
X119094285Y-85928571D01*
X119037142Y-85957142D01*
X119008571Y-85985714D01*
X118980000Y-86042857D01*
X118980000Y-86157142D01*
X119008571Y-86214285D01*
X119037142Y-86242857D01*
X119094285Y-86271428D01*
X119008571Y-85585714D02*
X118980000Y-85642857D01*
X118951428Y-85671428D01*
X118894285Y-85700000D01*
X118865714Y-85700000D01*
X118808571Y-85671428D01*
X118780000Y-85642857D01*
X118751428Y-85585714D01*
X118751428Y-85471428D01*
X118780000Y-85414285D01*
X118808571Y-85385714D01*
X118865714Y-85357142D01*
X118894285Y-85357142D01*
X118951428Y-85385714D01*
X118980000Y-85414285D01*
X119008571Y-85471428D01*
X119008571Y-85585714D01*
X119037142Y-85642857D01*
X119065714Y-85671428D01*
X119122857Y-85700000D01*
X119237142Y-85700000D01*
X119294285Y-85671428D01*
X119322857Y-85642857D01*
X119351428Y-85585714D01*
X119351428Y-85471428D01*
X119322857Y-85414285D01*
X119294285Y-85385714D01*
X119237142Y-85357142D01*
X119122857Y-85357142D01*
X119065714Y-85385714D01*
X119037142Y-85414285D01*
X119008571Y-85471428D01*
X119180000Y-85128571D02*
X119180000Y-84842857D01*
X119351428Y-85185714D02*
X118751428Y-84985714D01*
X119351428Y-84785714D01*
X118722857Y-84157142D02*
X119494285Y-84671428D01*
X119351428Y-83957142D02*
X118751428Y-83957142D01*
X118751428Y-83728571D01*
X118780000Y-83671428D01*
X118808571Y-83642857D01*
X118865714Y-83614285D01*
X118951428Y-83614285D01*
X119008571Y-83642857D01*
X119037142Y-83671428D01*
X119065714Y-83728571D01*
X119065714Y-83957142D01*
X119180000Y-83385714D02*
X119180000Y-83100000D01*
X119351428Y-83442857D02*
X118751428Y-83242857D01*
X119351428Y-83042857D01*
X118722857Y-82414285D02*
X119494285Y-82928571D01*
X118751428Y-82271428D02*
X118751428Y-81900000D01*
X118980000Y-82100000D01*
X118980000Y-82014285D01*
X119008571Y-81957142D01*
X119037142Y-81928571D01*
X119094285Y-81900000D01*
X119237142Y-81900000D01*
X119294285Y-81928571D01*
X119322857Y-81957142D01*
X119351428Y-82014285D01*
X119351428Y-82185714D01*
X119322857Y-82242857D01*
X119294285Y-82271428D01*
X118808571Y-81671428D02*
X118780000Y-81642857D01*
X118751428Y-81585714D01*
X118751428Y-81442857D01*
X118780000Y-81385714D01*
X118808571Y-81357142D01*
X118865714Y-81328571D01*
X118922857Y-81328571D01*
X119008571Y-81357142D01*
X119351428Y-81700000D01*
X119351428Y-81328571D01*
X119008571Y-80985714D02*
X118980000Y-81042857D01*
X118951428Y-81071428D01*
X118894285Y-81100000D01*
X118865714Y-81100000D01*
X118808571Y-81071428D01*
X118780000Y-81042857D01*
X118751428Y-80985714D01*
X118751428Y-80871428D01*
X118780000Y-80814285D01*
X118808571Y-80785714D01*
X118865714Y-80757142D01*
X118894285Y-80757142D01*
X118951428Y-80785714D01*
X118980000Y-80814285D01*
X119008571Y-80871428D01*
X119008571Y-80985714D01*
X119037142Y-81042857D01*
X119065714Y-81071428D01*
X119122857Y-81100000D01*
X119237142Y-81100000D01*
X119294285Y-81071428D01*
X119322857Y-81042857D01*
X119351428Y-80985714D01*
X119351428Y-80871428D01*
X119322857Y-80814285D01*
X119294285Y-80785714D01*
X119237142Y-80757142D01*
X119122857Y-80757142D01*
X119065714Y-80785714D01*
X119037142Y-80814285D01*
X119008571Y-80871428D01*
X118722857Y-80071428D02*
X119494285Y-80585714D01*
X119351428Y-79871428D02*
X118751428Y-79871428D01*
X118751428Y-79642857D01*
X118780000Y-79585714D01*
X118808571Y-79557142D01*
X118865714Y-79528571D01*
X118951428Y-79528571D01*
X119008571Y-79557142D01*
X119037142Y-79585714D01*
X119065714Y-79642857D01*
X119065714Y-79871428D01*
D11*
X144782380Y-89661904D02*
X145591904Y-89661904D01*
X145687142Y-89614285D01*
X145734761Y-89566666D01*
X145782380Y-89471428D01*
X145782380Y-89280952D01*
X145734761Y-89185714D01*
X145687142Y-89138095D01*
X145591904Y-89090476D01*
X144782380Y-89090476D01*
X145782380Y-88090476D02*
X145782380Y-88661904D01*
X145782380Y-88376190D02*
X144782380Y-88376190D01*
X144925238Y-88471428D01*
X145020476Y-88566666D01*
X145068095Y-88661904D01*
%TD*%
M02*
