G04 #@! TF.GenerationSoftware,KiCad,Pcbnew,5.1.4-3.fc30*
G04 #@! TF.CreationDate,2019-09-24T14:13:47+02:00*
G04 #@! TF.ProjectId,atmega_prog_adapter_v1,61746d65-6761-45f7-9072-6f675f616461,1.0*
G04 #@! TF.SameCoordinates,Original*
G04 #@! TF.FileFunction,Copper,L1,Top*
G04 #@! TF.FilePolarity,Positive*
%FSLAX46Y46*%
G04 Gerber Fmt 4.6, Leading zero omitted, Abs format (unit mm)*
G04 Created by KiCad (PCBNEW 5.1.4-3.fc30) date 2019-09-24 14:13:47*
%MOMM*%
%LPD*%
G04 APERTURE LIST*
%ADD10C,1.600000*%
%ADD11R,1.800000X1.800000*%
%ADD12C,1.800000*%
%ADD13R,1.727200X1.727200*%
%ADD14O,1.727200X1.727200*%
%ADD15O,1.600000X1.600000*%
%ADD16R,1.440000X2.000000*%
%ADD17O,1.440000X2.000000*%
%ADD18C,0.350000*%
%ADD19C,0.254000*%
G04 APERTURE END LIST*
D10*
X147320000Y-73660000D03*
X144820000Y-73660000D03*
D11*
X140970000Y-73660000D03*
D12*
X138430000Y-73660000D03*
D13*
X106680000Y-81280000D03*
D14*
X109220000Y-81280000D03*
X106680000Y-83820000D03*
X109220000Y-83820000D03*
X106680000Y-86360000D03*
X109220000Y-86360000D03*
X106680000Y-88900000D03*
X109220000Y-88900000D03*
X106680000Y-91440000D03*
X109220000Y-91440000D03*
D10*
X152400000Y-73660000D03*
D15*
X160020000Y-73660000D03*
X127000000Y-73660000D03*
D10*
X134620000Y-73660000D03*
D16*
X160020000Y-83820000D03*
D17*
X160020000Y-93980000D03*
X157480000Y-83820000D03*
X157480000Y-93980000D03*
X154940000Y-83820000D03*
X154940000Y-93980000D03*
X152400000Y-83820000D03*
X152400000Y-93980000D03*
X149860000Y-83820000D03*
X149860000Y-93980000D03*
X147320000Y-83820000D03*
X147320000Y-93980000D03*
X144780000Y-83820000D03*
X144780000Y-93980000D03*
X142240000Y-83820000D03*
X142240000Y-93980000D03*
X139700000Y-83820000D03*
X139700000Y-93980000D03*
X137160000Y-83820000D03*
X137160000Y-93980000D03*
X134620000Y-83820000D03*
X134620000Y-93980000D03*
X132080000Y-83820000D03*
X132080000Y-93980000D03*
X129540000Y-83820000D03*
X129540000Y-93980000D03*
X127000000Y-83820000D03*
X127000000Y-93980000D03*
D18*
X144780000Y-83820000D02*
X144780000Y-76200000D01*
X144780000Y-76200000D02*
X147320000Y-73660000D01*
X152400000Y-73660000D02*
X147320000Y-73660000D01*
X139700000Y-93980000D02*
X142240000Y-93980000D01*
X140970000Y-73660000D02*
X144820000Y-73660000D01*
X134620000Y-73660000D02*
X138430000Y-73660000D01*
X160020000Y-73660000D02*
X160020000Y-74835300D01*
X159472400Y-83820000D02*
X159472400Y-75382900D01*
X159472400Y-75382900D02*
X160020000Y-74835300D01*
X159472400Y-83820000D02*
X158924700Y-83820000D01*
X160020000Y-83820000D02*
X159472400Y-83820000D01*
X106680000Y-86360000D02*
X107918900Y-86360000D01*
X158924700Y-83820000D02*
X158924700Y-84230700D01*
X158924700Y-84230700D02*
X157878200Y-85277200D01*
X157878200Y-85277200D02*
X126628100Y-85277200D01*
X126628100Y-85277200D02*
X126440900Y-85090000D01*
X126440900Y-85090000D02*
X108675500Y-85090000D01*
X108675500Y-85090000D02*
X107918900Y-85846600D01*
X107918900Y-85846600D02*
X107918900Y-86360000D01*
X106680000Y-88900000D02*
X107918900Y-88900000D01*
X137160000Y-93980000D02*
X136064700Y-93980000D01*
X136064700Y-93980000D02*
X136064700Y-93569300D01*
X136064700Y-93569300D02*
X130125400Y-87630000D01*
X130125400Y-87630000D02*
X108675500Y-87630000D01*
X108675500Y-87630000D02*
X107918900Y-88386600D01*
X107918900Y-88386600D02*
X107918900Y-88900000D01*
X107918900Y-91440000D02*
X107918900Y-90926600D01*
X107918900Y-90926600D02*
X108675500Y-90170000D01*
X108675500Y-90170000D02*
X130125400Y-90170000D01*
X130125400Y-90170000D02*
X133524700Y-93569300D01*
X133524700Y-93569300D02*
X133524700Y-93980000D01*
X106680000Y-91440000D02*
X107918900Y-91440000D01*
X134620000Y-93980000D02*
X133524700Y-93980000D01*
D19*
G36*
X184760001Y-100940000D02*
G01*
X102260000Y-100940000D01*
X102260000Y-83820000D01*
X105174149Y-83820000D01*
X105203084Y-84113777D01*
X105288775Y-84396264D01*
X105427931Y-84656606D01*
X105615203Y-84884797D01*
X105843394Y-85072069D01*
X105876940Y-85090000D01*
X105843394Y-85107931D01*
X105615203Y-85295203D01*
X105427931Y-85523394D01*
X105288775Y-85783736D01*
X105203084Y-86066223D01*
X105174149Y-86360000D01*
X105203084Y-86653777D01*
X105288775Y-86936264D01*
X105427931Y-87196606D01*
X105615203Y-87424797D01*
X105843394Y-87612069D01*
X105876940Y-87630000D01*
X105843394Y-87647931D01*
X105615203Y-87835203D01*
X105427931Y-88063394D01*
X105288775Y-88323736D01*
X105203084Y-88606223D01*
X105174149Y-88900000D01*
X105203084Y-89193777D01*
X105288775Y-89476264D01*
X105427931Y-89736606D01*
X105615203Y-89964797D01*
X105843394Y-90152069D01*
X105876940Y-90170000D01*
X105843394Y-90187931D01*
X105615203Y-90375203D01*
X105427931Y-90603394D01*
X105288775Y-90863736D01*
X105203084Y-91146223D01*
X105174149Y-91440000D01*
X105203084Y-91733777D01*
X105288775Y-92016264D01*
X105427931Y-92276606D01*
X105615203Y-92504797D01*
X105843394Y-92692069D01*
X106103736Y-92831225D01*
X106386223Y-92916916D01*
X106606381Y-92938600D01*
X106753619Y-92938600D01*
X106973777Y-92916916D01*
X107256264Y-92831225D01*
X107516606Y-92692069D01*
X107744797Y-92504797D01*
X107932069Y-92276606D01*
X107945601Y-92251289D01*
X107958691Y-92250000D01*
X107963176Y-92249558D01*
X108113146Y-92450293D01*
X108331512Y-92646817D01*
X108584022Y-92796964D01*
X108860973Y-92894963D01*
X109093000Y-92774464D01*
X109093000Y-91567000D01*
X109347000Y-91567000D01*
X109347000Y-92774464D01*
X109579027Y-92894963D01*
X109855978Y-92796964D01*
X110108488Y-92646817D01*
X110326854Y-92450293D01*
X110502684Y-92214944D01*
X110629222Y-91949814D01*
X110674958Y-91799026D01*
X110553817Y-91567000D01*
X109347000Y-91567000D01*
X109093000Y-91567000D01*
X109073000Y-91567000D01*
X109073000Y-91313000D01*
X109093000Y-91313000D01*
X109093000Y-91293000D01*
X109347000Y-91293000D01*
X109347000Y-91313000D01*
X110553817Y-91313000D01*
X110674958Y-91080974D01*
X110644331Y-90980000D01*
X129789888Y-90980000D01*
X131358904Y-92549017D01*
X131323561Y-92567908D01*
X131117236Y-92737235D01*
X130947908Y-92943560D01*
X130822086Y-93178955D01*
X130810000Y-93218798D01*
X130797914Y-93178955D01*
X130672092Y-92943560D01*
X130502765Y-92737235D01*
X130296440Y-92567908D01*
X130061045Y-92442086D01*
X129805626Y-92364606D01*
X129540000Y-92338444D01*
X129274375Y-92364606D01*
X129018956Y-92442086D01*
X128783561Y-92567908D01*
X128577236Y-92737235D01*
X128407908Y-92943560D01*
X128282086Y-93178955D01*
X128270000Y-93218798D01*
X128257914Y-93178955D01*
X128132092Y-92943560D01*
X127962765Y-92737235D01*
X127756440Y-92567908D01*
X127521045Y-92442086D01*
X127265626Y-92364606D01*
X127000000Y-92338444D01*
X126734375Y-92364606D01*
X126478956Y-92442086D01*
X126243561Y-92567908D01*
X126037236Y-92737235D01*
X125867908Y-92943560D01*
X125742086Y-93178955D01*
X125664606Y-93434374D01*
X125645000Y-93633436D01*
X125645000Y-94326563D01*
X125664606Y-94525625D01*
X125742086Y-94781044D01*
X125867908Y-95016439D01*
X126037235Y-95222764D01*
X126243560Y-95392092D01*
X126478955Y-95517914D01*
X126734374Y-95595394D01*
X127000000Y-95621556D01*
X127265625Y-95595394D01*
X127521044Y-95517914D01*
X127756439Y-95392092D01*
X127962764Y-95222765D01*
X128132092Y-95016440D01*
X128257914Y-94781045D01*
X128270000Y-94741202D01*
X128282086Y-94781044D01*
X128407908Y-95016439D01*
X128577235Y-95222764D01*
X128783560Y-95392092D01*
X129018955Y-95517914D01*
X129274374Y-95595394D01*
X129540000Y-95621556D01*
X129805625Y-95595394D01*
X130061044Y-95517914D01*
X130296439Y-95392092D01*
X130502764Y-95222765D01*
X130672092Y-95016440D01*
X130797914Y-94781045D01*
X130810000Y-94741202D01*
X130822086Y-94781044D01*
X130947908Y-95016439D01*
X131117235Y-95222764D01*
X131323560Y-95392092D01*
X131558955Y-95517914D01*
X131814374Y-95595394D01*
X132080000Y-95621556D01*
X132345625Y-95595394D01*
X132601044Y-95517914D01*
X132836439Y-95392092D01*
X133042764Y-95222765D01*
X133212092Y-95016440D01*
X133337914Y-94781045D01*
X133341041Y-94770735D01*
X133360775Y-94776722D01*
X133362086Y-94781044D01*
X133487908Y-95016439D01*
X133657235Y-95222764D01*
X133863560Y-95392092D01*
X134098955Y-95517914D01*
X134354374Y-95595394D01*
X134620000Y-95621556D01*
X134885625Y-95595394D01*
X135141044Y-95517914D01*
X135376439Y-95392092D01*
X135582764Y-95222765D01*
X135752092Y-95016440D01*
X135877914Y-94781045D01*
X135881041Y-94770735D01*
X135900775Y-94776722D01*
X135902086Y-94781044D01*
X136027908Y-95016439D01*
X136197235Y-95222764D01*
X136403560Y-95392092D01*
X136638955Y-95517914D01*
X136894374Y-95595394D01*
X137160000Y-95621556D01*
X137425625Y-95595394D01*
X137681044Y-95517914D01*
X137916439Y-95392092D01*
X138122764Y-95222765D01*
X138292092Y-95016440D01*
X138417914Y-94781045D01*
X138430000Y-94741202D01*
X138442086Y-94781044D01*
X138567908Y-95016439D01*
X138737235Y-95222764D01*
X138943560Y-95392092D01*
X139178955Y-95517914D01*
X139434374Y-95595394D01*
X139700000Y-95621556D01*
X139965625Y-95595394D01*
X140221044Y-95517914D01*
X140456439Y-95392092D01*
X140662764Y-95222765D01*
X140832092Y-95016440D01*
X140953127Y-94790000D01*
X140986873Y-94790000D01*
X141107908Y-95016439D01*
X141277235Y-95222764D01*
X141483560Y-95392092D01*
X141718955Y-95517914D01*
X141974374Y-95595394D01*
X142240000Y-95621556D01*
X142505625Y-95595394D01*
X142761044Y-95517914D01*
X142996439Y-95392092D01*
X143202764Y-95222765D01*
X143372092Y-95016440D01*
X143497914Y-94781045D01*
X143511505Y-94736241D01*
X143576744Y-94895869D01*
X143723916Y-95118395D01*
X143911673Y-95307933D01*
X144132799Y-95457199D01*
X144378797Y-95560458D01*
X144443528Y-95572559D01*
X144653000Y-95449489D01*
X144653000Y-94107000D01*
X144633000Y-94107000D01*
X144633000Y-93853000D01*
X144653000Y-93853000D01*
X144653000Y-92510511D01*
X144907000Y-92510511D01*
X144907000Y-93853000D01*
X144927000Y-93853000D01*
X144927000Y-94107000D01*
X144907000Y-94107000D01*
X144907000Y-95449489D01*
X145116472Y-95572559D01*
X145181203Y-95560458D01*
X145427201Y-95457199D01*
X145648327Y-95307933D01*
X145836084Y-95118395D01*
X145983256Y-94895869D01*
X146048495Y-94736241D01*
X146062086Y-94781044D01*
X146187908Y-95016439D01*
X146357235Y-95222764D01*
X146563560Y-95392092D01*
X146798955Y-95517914D01*
X147054374Y-95595394D01*
X147320000Y-95621556D01*
X147585625Y-95595394D01*
X147841044Y-95517914D01*
X148076439Y-95392092D01*
X148282764Y-95222765D01*
X148452092Y-95016440D01*
X148577914Y-94781045D01*
X148590000Y-94741202D01*
X148602086Y-94781044D01*
X148727908Y-95016439D01*
X148897235Y-95222764D01*
X149103560Y-95392092D01*
X149338955Y-95517914D01*
X149594374Y-95595394D01*
X149860000Y-95621556D01*
X150125625Y-95595394D01*
X150381044Y-95517914D01*
X150616439Y-95392092D01*
X150822764Y-95222765D01*
X150992092Y-95016440D01*
X151117914Y-94781045D01*
X151130000Y-94741202D01*
X151142086Y-94781044D01*
X151267908Y-95016439D01*
X151437235Y-95222764D01*
X151643560Y-95392092D01*
X151878955Y-95517914D01*
X152134374Y-95595394D01*
X152400000Y-95621556D01*
X152665625Y-95595394D01*
X152921044Y-95517914D01*
X153156439Y-95392092D01*
X153362764Y-95222765D01*
X153532092Y-95016440D01*
X153657914Y-94781045D01*
X153670000Y-94741202D01*
X153682086Y-94781044D01*
X153807908Y-95016439D01*
X153977235Y-95222764D01*
X154183560Y-95392092D01*
X154418955Y-95517914D01*
X154674374Y-95595394D01*
X154940000Y-95621556D01*
X155205625Y-95595394D01*
X155461044Y-95517914D01*
X155696439Y-95392092D01*
X155902764Y-95222765D01*
X156072092Y-95016440D01*
X156197914Y-94781045D01*
X156210000Y-94741202D01*
X156222086Y-94781044D01*
X156347908Y-95016439D01*
X156517235Y-95222764D01*
X156723560Y-95392092D01*
X156958955Y-95517914D01*
X157214374Y-95595394D01*
X157480000Y-95621556D01*
X157745625Y-95595394D01*
X158001044Y-95517914D01*
X158236439Y-95392092D01*
X158442764Y-95222765D01*
X158612092Y-95016440D01*
X158737914Y-94781045D01*
X158750000Y-94741202D01*
X158762086Y-94781044D01*
X158887908Y-95016439D01*
X159057235Y-95222764D01*
X159263560Y-95392092D01*
X159498955Y-95517914D01*
X159754374Y-95595394D01*
X160020000Y-95621556D01*
X160285625Y-95595394D01*
X160541044Y-95517914D01*
X160776439Y-95392092D01*
X160982764Y-95222765D01*
X161152092Y-95016440D01*
X161277914Y-94781045D01*
X161355394Y-94525626D01*
X161375000Y-94326564D01*
X161375000Y-93633437D01*
X161355394Y-93434375D01*
X161277914Y-93178955D01*
X161152092Y-92943560D01*
X160982765Y-92737235D01*
X160776440Y-92567908D01*
X160541045Y-92442086D01*
X160285626Y-92364606D01*
X160020000Y-92338444D01*
X159754375Y-92364606D01*
X159498956Y-92442086D01*
X159263561Y-92567908D01*
X159057236Y-92737235D01*
X158887908Y-92943560D01*
X158762086Y-93178955D01*
X158750000Y-93218798D01*
X158737914Y-93178955D01*
X158612092Y-92943560D01*
X158442765Y-92737235D01*
X158236440Y-92567908D01*
X158001045Y-92442086D01*
X157745626Y-92364606D01*
X157480000Y-92338444D01*
X157214375Y-92364606D01*
X156958956Y-92442086D01*
X156723561Y-92567908D01*
X156517236Y-92737235D01*
X156347908Y-92943560D01*
X156222086Y-93178955D01*
X156210000Y-93218798D01*
X156197914Y-93178955D01*
X156072092Y-92943560D01*
X155902765Y-92737235D01*
X155696440Y-92567908D01*
X155461045Y-92442086D01*
X155205626Y-92364606D01*
X154940000Y-92338444D01*
X154674375Y-92364606D01*
X154418956Y-92442086D01*
X154183561Y-92567908D01*
X153977236Y-92737235D01*
X153807908Y-92943560D01*
X153682086Y-93178955D01*
X153670000Y-93218798D01*
X153657914Y-93178955D01*
X153532092Y-92943560D01*
X153362765Y-92737235D01*
X153156440Y-92567908D01*
X152921045Y-92442086D01*
X152665626Y-92364606D01*
X152400000Y-92338444D01*
X152134375Y-92364606D01*
X151878956Y-92442086D01*
X151643561Y-92567908D01*
X151437236Y-92737235D01*
X151267908Y-92943560D01*
X151142086Y-93178955D01*
X151130000Y-93218798D01*
X151117914Y-93178955D01*
X150992092Y-92943560D01*
X150822765Y-92737235D01*
X150616440Y-92567908D01*
X150381045Y-92442086D01*
X150125626Y-92364606D01*
X149860000Y-92338444D01*
X149594375Y-92364606D01*
X149338956Y-92442086D01*
X149103561Y-92567908D01*
X148897236Y-92737235D01*
X148727908Y-92943560D01*
X148602086Y-93178955D01*
X148590000Y-93218798D01*
X148577914Y-93178955D01*
X148452092Y-92943560D01*
X148282765Y-92737235D01*
X148076440Y-92567908D01*
X147841045Y-92442086D01*
X147585626Y-92364606D01*
X147320000Y-92338444D01*
X147054375Y-92364606D01*
X146798956Y-92442086D01*
X146563561Y-92567908D01*
X146357236Y-92737235D01*
X146187908Y-92943560D01*
X146062086Y-93178955D01*
X146048495Y-93223759D01*
X145983256Y-93064131D01*
X145836084Y-92841605D01*
X145648327Y-92652067D01*
X145427201Y-92502801D01*
X145181203Y-92399542D01*
X145116472Y-92387441D01*
X144907000Y-92510511D01*
X144653000Y-92510511D01*
X144443528Y-92387441D01*
X144378797Y-92399542D01*
X144132799Y-92502801D01*
X143911673Y-92652067D01*
X143723916Y-92841605D01*
X143576744Y-93064131D01*
X143511505Y-93223759D01*
X143497914Y-93178955D01*
X143372092Y-92943560D01*
X143202765Y-92737235D01*
X142996440Y-92567908D01*
X142761045Y-92442086D01*
X142505626Y-92364606D01*
X142240000Y-92338444D01*
X141974375Y-92364606D01*
X141718956Y-92442086D01*
X141483561Y-92567908D01*
X141277236Y-92737235D01*
X141107908Y-92943560D01*
X140986873Y-93170000D01*
X140953127Y-93170000D01*
X140832092Y-92943560D01*
X140662765Y-92737235D01*
X140456440Y-92567908D01*
X140221045Y-92442086D01*
X139965626Y-92364606D01*
X139700000Y-92338444D01*
X139434375Y-92364606D01*
X139178956Y-92442086D01*
X138943561Y-92567908D01*
X138737236Y-92737235D01*
X138567908Y-92943560D01*
X138442086Y-93178955D01*
X138430000Y-93218798D01*
X138417914Y-93178955D01*
X138292092Y-92943560D01*
X138122765Y-92737235D01*
X137916440Y-92567908D01*
X137681045Y-92442086D01*
X137425626Y-92364606D01*
X137160000Y-92338444D01*
X136894375Y-92364606D01*
X136638956Y-92442086D01*
X136403561Y-92567908D01*
X136296601Y-92655688D01*
X130726300Y-87085388D01*
X130700928Y-87054472D01*
X130577589Y-86953251D01*
X130436873Y-86878037D01*
X130284188Y-86831720D01*
X130165191Y-86820000D01*
X130165188Y-86820000D01*
X130125400Y-86816081D01*
X130085612Y-86820000D01*
X110644331Y-86820000D01*
X110674958Y-86719026D01*
X110553817Y-86487000D01*
X109347000Y-86487000D01*
X109347000Y-86507000D01*
X109093000Y-86507000D01*
X109093000Y-86487000D01*
X109073000Y-86487000D01*
X109073000Y-86233000D01*
X109093000Y-86233000D01*
X109093000Y-86213000D01*
X109347000Y-86213000D01*
X109347000Y-86233000D01*
X110553817Y-86233000D01*
X110674958Y-86000974D01*
X110644331Y-85900000D01*
X126110173Y-85900000D01*
X126175911Y-85953949D01*
X126316627Y-86029163D01*
X126469312Y-86075480D01*
X126588309Y-86087200D01*
X126588312Y-86087200D01*
X126628100Y-86091119D01*
X126667888Y-86087200D01*
X157838412Y-86087200D01*
X157878200Y-86091119D01*
X157917988Y-86087200D01*
X157917991Y-86087200D01*
X158036988Y-86075480D01*
X158189673Y-86029163D01*
X158330389Y-85953949D01*
X158453728Y-85852728D01*
X158479099Y-85821813D01*
X158948679Y-85352233D01*
X159055820Y-85409502D01*
X159175518Y-85445812D01*
X159300000Y-85458072D01*
X160740000Y-85458072D01*
X160864482Y-85445812D01*
X160984180Y-85409502D01*
X161094494Y-85350537D01*
X161191185Y-85271185D01*
X161270537Y-85174494D01*
X161329502Y-85064180D01*
X161365812Y-84944482D01*
X161378072Y-84820000D01*
X161378072Y-82820000D01*
X161365812Y-82695518D01*
X161329502Y-82575820D01*
X161270537Y-82465506D01*
X161191185Y-82368815D01*
X161094494Y-82289463D01*
X160984180Y-82230498D01*
X160864482Y-82194188D01*
X160740000Y-82181928D01*
X160282400Y-82181928D01*
X160282400Y-75718412D01*
X160564617Y-75436195D01*
X160595528Y-75410828D01*
X160651119Y-75343090D01*
X160696749Y-75287490D01*
X160771962Y-75146774D01*
X160771963Y-75146773D01*
X160818280Y-74994088D01*
X160830000Y-74875091D01*
X160830000Y-74875089D01*
X160832514Y-74849566D01*
X161039608Y-74679608D01*
X161218932Y-74461101D01*
X161352182Y-74211808D01*
X161434236Y-73941309D01*
X161461943Y-73660000D01*
X161434236Y-73378691D01*
X161352182Y-73108192D01*
X161218932Y-72858899D01*
X161039608Y-72640392D01*
X160821101Y-72461068D01*
X160571808Y-72327818D01*
X160301309Y-72245764D01*
X160090492Y-72225000D01*
X159949508Y-72225000D01*
X159738691Y-72245764D01*
X159468192Y-72327818D01*
X159218899Y-72461068D01*
X159000392Y-72640392D01*
X158821068Y-72858899D01*
X158687818Y-73108192D01*
X158605764Y-73378691D01*
X158578057Y-73660000D01*
X158605764Y-73941309D01*
X158687818Y-74211808D01*
X158821068Y-74461101D01*
X159000392Y-74679608D01*
X159016753Y-74693035D01*
X158927783Y-74782005D01*
X158896873Y-74807372D01*
X158871508Y-74838280D01*
X158795651Y-74930711D01*
X158727194Y-75058787D01*
X158720438Y-75071427D01*
X158685740Y-75185812D01*
X158674121Y-75224113D01*
X158658481Y-75382900D01*
X158662401Y-75422698D01*
X158662400Y-82815206D01*
X158661928Y-82820000D01*
X158661928Y-82876796D01*
X158612092Y-82783560D01*
X158442765Y-82577235D01*
X158236440Y-82407908D01*
X158001045Y-82282086D01*
X157745626Y-82204606D01*
X157480000Y-82178444D01*
X157214375Y-82204606D01*
X156958956Y-82282086D01*
X156723561Y-82407908D01*
X156517236Y-82577235D01*
X156347908Y-82783560D01*
X156222086Y-83018955D01*
X156210000Y-83058798D01*
X156197914Y-83018955D01*
X156072092Y-82783560D01*
X155902765Y-82577235D01*
X155696440Y-82407908D01*
X155461045Y-82282086D01*
X155205626Y-82204606D01*
X154940000Y-82178444D01*
X154674375Y-82204606D01*
X154418956Y-82282086D01*
X154183561Y-82407908D01*
X153977236Y-82577235D01*
X153807908Y-82783560D01*
X153682086Y-83018955D01*
X153670000Y-83058798D01*
X153657914Y-83018955D01*
X153532092Y-82783560D01*
X153362765Y-82577235D01*
X153156440Y-82407908D01*
X152921045Y-82282086D01*
X152665626Y-82204606D01*
X152400000Y-82178444D01*
X152134375Y-82204606D01*
X151878956Y-82282086D01*
X151643561Y-82407908D01*
X151437236Y-82577235D01*
X151267908Y-82783560D01*
X151142086Y-83018955D01*
X151130000Y-83058798D01*
X151117914Y-83018955D01*
X150992092Y-82783560D01*
X150822765Y-82577235D01*
X150616440Y-82407908D01*
X150381045Y-82282086D01*
X150125626Y-82204606D01*
X149860000Y-82178444D01*
X149594375Y-82204606D01*
X149338956Y-82282086D01*
X149103561Y-82407908D01*
X148897236Y-82577235D01*
X148727908Y-82783560D01*
X148602086Y-83018955D01*
X148590000Y-83058798D01*
X148577914Y-83018955D01*
X148452092Y-82783560D01*
X148282765Y-82577235D01*
X148076440Y-82407908D01*
X147841045Y-82282086D01*
X147585626Y-82204606D01*
X147320000Y-82178444D01*
X147054375Y-82204606D01*
X146798956Y-82282086D01*
X146563561Y-82407908D01*
X146357236Y-82577235D01*
X146187908Y-82783560D01*
X146062086Y-83018955D01*
X146050000Y-83058798D01*
X146037914Y-83018955D01*
X145912092Y-82783560D01*
X145742765Y-82577235D01*
X145590000Y-82451864D01*
X145590000Y-76535512D01*
X147055093Y-75070420D01*
X147178665Y-75095000D01*
X147461335Y-75095000D01*
X147738574Y-75039853D01*
X147999727Y-74931680D01*
X148234759Y-74774637D01*
X148434637Y-74574759D01*
X148504635Y-74470000D01*
X151215365Y-74470000D01*
X151285363Y-74574759D01*
X151485241Y-74774637D01*
X151720273Y-74931680D01*
X151981426Y-75039853D01*
X152258665Y-75095000D01*
X152541335Y-75095000D01*
X152818574Y-75039853D01*
X153079727Y-74931680D01*
X153314759Y-74774637D01*
X153514637Y-74574759D01*
X153671680Y-74339727D01*
X153779853Y-74078574D01*
X153835000Y-73801335D01*
X153835000Y-73518665D01*
X153779853Y-73241426D01*
X153671680Y-72980273D01*
X153514637Y-72745241D01*
X153314759Y-72545363D01*
X153079727Y-72388320D01*
X152818574Y-72280147D01*
X152541335Y-72225000D01*
X152258665Y-72225000D01*
X151981426Y-72280147D01*
X151720273Y-72388320D01*
X151485241Y-72545363D01*
X151285363Y-72745241D01*
X151215365Y-72850000D01*
X148504635Y-72850000D01*
X148434637Y-72745241D01*
X148234759Y-72545363D01*
X147999727Y-72388320D01*
X147738574Y-72280147D01*
X147461335Y-72225000D01*
X147178665Y-72225000D01*
X146901426Y-72280147D01*
X146640273Y-72388320D01*
X146405241Y-72545363D01*
X146205363Y-72745241D01*
X146071308Y-72945869D01*
X146056671Y-72918486D01*
X145812702Y-72846903D01*
X144999605Y-73660000D01*
X145013748Y-73674143D01*
X144834143Y-73853748D01*
X144820000Y-73839605D01*
X144006903Y-74652702D01*
X144078486Y-74896671D01*
X144333996Y-75017571D01*
X144608184Y-75086300D01*
X144741611Y-75092877D01*
X144235383Y-75599105D01*
X144204473Y-75624472D01*
X144179108Y-75655380D01*
X144103251Y-75747811D01*
X144056601Y-75835089D01*
X144028038Y-75888527D01*
X143999140Y-75983792D01*
X143981721Y-76041213D01*
X143966081Y-76200000D01*
X143970001Y-76239798D01*
X143970000Y-82451864D01*
X143817236Y-82577235D01*
X143647908Y-82783560D01*
X143522086Y-83018955D01*
X143508495Y-83063759D01*
X143443256Y-82904131D01*
X143296084Y-82681605D01*
X143108327Y-82492067D01*
X142887201Y-82342801D01*
X142641203Y-82239542D01*
X142576472Y-82227441D01*
X142367000Y-82350511D01*
X142367000Y-83693000D01*
X142387000Y-83693000D01*
X142387000Y-83947000D01*
X142367000Y-83947000D01*
X142367000Y-83967000D01*
X142113000Y-83967000D01*
X142113000Y-83947000D01*
X142093000Y-83947000D01*
X142093000Y-83693000D01*
X142113000Y-83693000D01*
X142113000Y-82350511D01*
X141903528Y-82227441D01*
X141838797Y-82239542D01*
X141592799Y-82342801D01*
X141371673Y-82492067D01*
X141183916Y-82681605D01*
X141036744Y-82904131D01*
X140971505Y-83063759D01*
X140957914Y-83018955D01*
X140832092Y-82783560D01*
X140662765Y-82577235D01*
X140456440Y-82407908D01*
X140221045Y-82282086D01*
X139965626Y-82204606D01*
X139700000Y-82178444D01*
X139434375Y-82204606D01*
X139178956Y-82282086D01*
X138943561Y-82407908D01*
X138737236Y-82577235D01*
X138567908Y-82783560D01*
X138442086Y-83018955D01*
X138430000Y-83058798D01*
X138417914Y-83018955D01*
X138292092Y-82783560D01*
X138122765Y-82577235D01*
X137916440Y-82407908D01*
X137681045Y-82282086D01*
X137425626Y-82204606D01*
X137160000Y-82178444D01*
X136894375Y-82204606D01*
X136638956Y-82282086D01*
X136403561Y-82407908D01*
X136197236Y-82577235D01*
X136027908Y-82783560D01*
X135902086Y-83018955D01*
X135890000Y-83058798D01*
X135877914Y-83018955D01*
X135752092Y-82783560D01*
X135582765Y-82577235D01*
X135376440Y-82407908D01*
X135141045Y-82282086D01*
X134885626Y-82204606D01*
X134620000Y-82178444D01*
X134354375Y-82204606D01*
X134098956Y-82282086D01*
X133863561Y-82407908D01*
X133657236Y-82577235D01*
X133487908Y-82783560D01*
X133362086Y-83018955D01*
X133350000Y-83058798D01*
X133337914Y-83018955D01*
X133212092Y-82783560D01*
X133042765Y-82577235D01*
X132836440Y-82407908D01*
X132601045Y-82282086D01*
X132345626Y-82204606D01*
X132080000Y-82178444D01*
X131814375Y-82204606D01*
X131558956Y-82282086D01*
X131323561Y-82407908D01*
X131117236Y-82577235D01*
X130947908Y-82783560D01*
X130822086Y-83018955D01*
X130810000Y-83058798D01*
X130797914Y-83018955D01*
X130672092Y-82783560D01*
X130502765Y-82577235D01*
X130296440Y-82407908D01*
X130061045Y-82282086D01*
X129805626Y-82204606D01*
X129540000Y-82178444D01*
X129274375Y-82204606D01*
X129018956Y-82282086D01*
X128783561Y-82407908D01*
X128577236Y-82577235D01*
X128407908Y-82783560D01*
X128282086Y-83018955D01*
X128270000Y-83058798D01*
X128257914Y-83018955D01*
X128132092Y-82783560D01*
X127962765Y-82577235D01*
X127756440Y-82407908D01*
X127521045Y-82282086D01*
X127265626Y-82204606D01*
X127000000Y-82178444D01*
X126734375Y-82204606D01*
X126478956Y-82282086D01*
X126243561Y-82407908D01*
X126037236Y-82577235D01*
X125867908Y-82783560D01*
X125742086Y-83018955D01*
X125664606Y-83274374D01*
X125645000Y-83473436D01*
X125645000Y-84166563D01*
X125656173Y-84280000D01*
X110644331Y-84280000D01*
X110674958Y-84179026D01*
X110553817Y-83947000D01*
X109347000Y-83947000D01*
X109347000Y-83967000D01*
X109093000Y-83967000D01*
X109093000Y-83947000D01*
X109073000Y-83947000D01*
X109073000Y-83693000D01*
X109093000Y-83693000D01*
X109093000Y-83673000D01*
X109347000Y-83673000D01*
X109347000Y-83693000D01*
X110553817Y-83693000D01*
X110674958Y-83460974D01*
X110629222Y-83310186D01*
X110502684Y-83045056D01*
X110326854Y-82809707D01*
X110108488Y-82613183D01*
X110012090Y-82555863D01*
X110056606Y-82532069D01*
X110284797Y-82344797D01*
X110472069Y-82116606D01*
X110611225Y-81856264D01*
X110696916Y-81573777D01*
X110725851Y-81280000D01*
X110696916Y-80986223D01*
X110611225Y-80703736D01*
X110472069Y-80443394D01*
X110284797Y-80215203D01*
X110056606Y-80027931D01*
X109796264Y-79888775D01*
X109513777Y-79803084D01*
X109293619Y-79781400D01*
X109146381Y-79781400D01*
X108926223Y-79803084D01*
X108643736Y-79888775D01*
X108383394Y-80027931D01*
X108155203Y-80215203D01*
X108148586Y-80223265D01*
X108133102Y-80172220D01*
X108074137Y-80061906D01*
X107994785Y-79965215D01*
X107898094Y-79885863D01*
X107787780Y-79826898D01*
X107668082Y-79790588D01*
X107543600Y-79778328D01*
X105816400Y-79778328D01*
X105691918Y-79790588D01*
X105572220Y-79826898D01*
X105461906Y-79885863D01*
X105365215Y-79965215D01*
X105285863Y-80061906D01*
X105226898Y-80172220D01*
X105190588Y-80291918D01*
X105178328Y-80416400D01*
X105178328Y-82143600D01*
X105190588Y-82268082D01*
X105226898Y-82387780D01*
X105285863Y-82498094D01*
X105365215Y-82594785D01*
X105461906Y-82674137D01*
X105572220Y-82733102D01*
X105623265Y-82748586D01*
X105615203Y-82755203D01*
X105427931Y-82983394D01*
X105288775Y-83243736D01*
X105203084Y-83526223D01*
X105174149Y-83820000D01*
X102260000Y-83820000D01*
X102260000Y-73660000D01*
X125558057Y-73660000D01*
X125585764Y-73941309D01*
X125667818Y-74211808D01*
X125801068Y-74461101D01*
X125980392Y-74679608D01*
X126198899Y-74858932D01*
X126448192Y-74992182D01*
X126718691Y-75074236D01*
X126929508Y-75095000D01*
X127070492Y-75095000D01*
X127281309Y-75074236D01*
X127551808Y-74992182D01*
X127801101Y-74858932D01*
X128019608Y-74679608D01*
X128198932Y-74461101D01*
X128332182Y-74211808D01*
X128414236Y-73941309D01*
X128441943Y-73660000D01*
X128428023Y-73518665D01*
X133185000Y-73518665D01*
X133185000Y-73801335D01*
X133240147Y-74078574D01*
X133348320Y-74339727D01*
X133505363Y-74574759D01*
X133705241Y-74774637D01*
X133940273Y-74931680D01*
X134201426Y-75039853D01*
X134478665Y-75095000D01*
X134761335Y-75095000D01*
X135038574Y-75039853D01*
X135299727Y-74931680D01*
X135534759Y-74774637D01*
X135734637Y-74574759D01*
X135804635Y-74470000D01*
X137125096Y-74470000D01*
X137237688Y-74638505D01*
X137451495Y-74852312D01*
X137702905Y-75020299D01*
X137982257Y-75136011D01*
X138278816Y-75195000D01*
X138581184Y-75195000D01*
X138877743Y-75136011D01*
X139157095Y-75020299D01*
X139408505Y-74852312D01*
X139474944Y-74785873D01*
X139480498Y-74804180D01*
X139539463Y-74914494D01*
X139618815Y-75011185D01*
X139715506Y-75090537D01*
X139825820Y-75149502D01*
X139945518Y-75185812D01*
X140070000Y-75198072D01*
X140684250Y-75195000D01*
X140843000Y-75036250D01*
X140843000Y-73787000D01*
X141097000Y-73787000D01*
X141097000Y-75036250D01*
X141255750Y-75195000D01*
X141870000Y-75198072D01*
X141994482Y-75185812D01*
X142114180Y-75149502D01*
X142224494Y-75090537D01*
X142321185Y-75011185D01*
X142400537Y-74914494D01*
X142459502Y-74804180D01*
X142495812Y-74684482D01*
X142508072Y-74560000D01*
X142505000Y-73945750D01*
X142346250Y-73787000D01*
X141097000Y-73787000D01*
X140843000Y-73787000D01*
X140823000Y-73787000D01*
X140823000Y-73730512D01*
X143379783Y-73730512D01*
X143421213Y-74010130D01*
X143516397Y-74276292D01*
X143583329Y-74401514D01*
X143827298Y-74473097D01*
X144640395Y-73660000D01*
X143827298Y-72846903D01*
X143583329Y-72918486D01*
X143462429Y-73173996D01*
X143393700Y-73448184D01*
X143379783Y-73730512D01*
X140823000Y-73730512D01*
X140823000Y-73533000D01*
X140843000Y-73533000D01*
X140843000Y-72283750D01*
X141097000Y-72283750D01*
X141097000Y-73533000D01*
X142346250Y-73533000D01*
X142505000Y-73374250D01*
X142508072Y-72760000D01*
X142498942Y-72667298D01*
X144006903Y-72667298D01*
X144820000Y-73480395D01*
X145633097Y-72667298D01*
X145561514Y-72423329D01*
X145306004Y-72302429D01*
X145031816Y-72233700D01*
X144749488Y-72219783D01*
X144469870Y-72261213D01*
X144203708Y-72356397D01*
X144078486Y-72423329D01*
X144006903Y-72667298D01*
X142498942Y-72667298D01*
X142495812Y-72635518D01*
X142459502Y-72515820D01*
X142400537Y-72405506D01*
X142321185Y-72308815D01*
X142224494Y-72229463D01*
X142114180Y-72170498D01*
X141994482Y-72134188D01*
X141870000Y-72121928D01*
X141255750Y-72125000D01*
X141097000Y-72283750D01*
X140843000Y-72283750D01*
X140684250Y-72125000D01*
X140070000Y-72121928D01*
X139945518Y-72134188D01*
X139825820Y-72170498D01*
X139715506Y-72229463D01*
X139618815Y-72308815D01*
X139539463Y-72405506D01*
X139480498Y-72515820D01*
X139474944Y-72534127D01*
X139408505Y-72467688D01*
X139157095Y-72299701D01*
X138877743Y-72183989D01*
X138581184Y-72125000D01*
X138278816Y-72125000D01*
X137982257Y-72183989D01*
X137702905Y-72299701D01*
X137451495Y-72467688D01*
X137237688Y-72681495D01*
X137125096Y-72850000D01*
X135804635Y-72850000D01*
X135734637Y-72745241D01*
X135534759Y-72545363D01*
X135299727Y-72388320D01*
X135038574Y-72280147D01*
X134761335Y-72225000D01*
X134478665Y-72225000D01*
X134201426Y-72280147D01*
X133940273Y-72388320D01*
X133705241Y-72545363D01*
X133505363Y-72745241D01*
X133348320Y-72980273D01*
X133240147Y-73241426D01*
X133185000Y-73518665D01*
X128428023Y-73518665D01*
X128414236Y-73378691D01*
X128332182Y-73108192D01*
X128198932Y-72858899D01*
X128019608Y-72640392D01*
X127801101Y-72461068D01*
X127551808Y-72327818D01*
X127281309Y-72245764D01*
X127070492Y-72225000D01*
X126929508Y-72225000D01*
X126718691Y-72245764D01*
X126448192Y-72327818D01*
X126198899Y-72461068D01*
X125980392Y-72640392D01*
X125801068Y-72858899D01*
X125667818Y-73108192D01*
X125585764Y-73378691D01*
X125558057Y-73660000D01*
X102260000Y-73660000D01*
X102260000Y-69240000D01*
X184760000Y-69240000D01*
X184760001Y-100940000D01*
X184760001Y-100940000D01*
G37*
X184760001Y-100940000D02*
X102260000Y-100940000D01*
X102260000Y-83820000D01*
X105174149Y-83820000D01*
X105203084Y-84113777D01*
X105288775Y-84396264D01*
X105427931Y-84656606D01*
X105615203Y-84884797D01*
X105843394Y-85072069D01*
X105876940Y-85090000D01*
X105843394Y-85107931D01*
X105615203Y-85295203D01*
X105427931Y-85523394D01*
X105288775Y-85783736D01*
X105203084Y-86066223D01*
X105174149Y-86360000D01*
X105203084Y-86653777D01*
X105288775Y-86936264D01*
X105427931Y-87196606D01*
X105615203Y-87424797D01*
X105843394Y-87612069D01*
X105876940Y-87630000D01*
X105843394Y-87647931D01*
X105615203Y-87835203D01*
X105427931Y-88063394D01*
X105288775Y-88323736D01*
X105203084Y-88606223D01*
X105174149Y-88900000D01*
X105203084Y-89193777D01*
X105288775Y-89476264D01*
X105427931Y-89736606D01*
X105615203Y-89964797D01*
X105843394Y-90152069D01*
X105876940Y-90170000D01*
X105843394Y-90187931D01*
X105615203Y-90375203D01*
X105427931Y-90603394D01*
X105288775Y-90863736D01*
X105203084Y-91146223D01*
X105174149Y-91440000D01*
X105203084Y-91733777D01*
X105288775Y-92016264D01*
X105427931Y-92276606D01*
X105615203Y-92504797D01*
X105843394Y-92692069D01*
X106103736Y-92831225D01*
X106386223Y-92916916D01*
X106606381Y-92938600D01*
X106753619Y-92938600D01*
X106973777Y-92916916D01*
X107256264Y-92831225D01*
X107516606Y-92692069D01*
X107744797Y-92504797D01*
X107932069Y-92276606D01*
X107945601Y-92251289D01*
X107958691Y-92250000D01*
X107963176Y-92249558D01*
X108113146Y-92450293D01*
X108331512Y-92646817D01*
X108584022Y-92796964D01*
X108860973Y-92894963D01*
X109093000Y-92774464D01*
X109093000Y-91567000D01*
X109347000Y-91567000D01*
X109347000Y-92774464D01*
X109579027Y-92894963D01*
X109855978Y-92796964D01*
X110108488Y-92646817D01*
X110326854Y-92450293D01*
X110502684Y-92214944D01*
X110629222Y-91949814D01*
X110674958Y-91799026D01*
X110553817Y-91567000D01*
X109347000Y-91567000D01*
X109093000Y-91567000D01*
X109073000Y-91567000D01*
X109073000Y-91313000D01*
X109093000Y-91313000D01*
X109093000Y-91293000D01*
X109347000Y-91293000D01*
X109347000Y-91313000D01*
X110553817Y-91313000D01*
X110674958Y-91080974D01*
X110644331Y-90980000D01*
X129789888Y-90980000D01*
X131358904Y-92549017D01*
X131323561Y-92567908D01*
X131117236Y-92737235D01*
X130947908Y-92943560D01*
X130822086Y-93178955D01*
X130810000Y-93218798D01*
X130797914Y-93178955D01*
X130672092Y-92943560D01*
X130502765Y-92737235D01*
X130296440Y-92567908D01*
X130061045Y-92442086D01*
X129805626Y-92364606D01*
X129540000Y-92338444D01*
X129274375Y-92364606D01*
X129018956Y-92442086D01*
X128783561Y-92567908D01*
X128577236Y-92737235D01*
X128407908Y-92943560D01*
X128282086Y-93178955D01*
X128270000Y-93218798D01*
X128257914Y-93178955D01*
X128132092Y-92943560D01*
X127962765Y-92737235D01*
X127756440Y-92567908D01*
X127521045Y-92442086D01*
X127265626Y-92364606D01*
X127000000Y-92338444D01*
X126734375Y-92364606D01*
X126478956Y-92442086D01*
X126243561Y-92567908D01*
X126037236Y-92737235D01*
X125867908Y-92943560D01*
X125742086Y-93178955D01*
X125664606Y-93434374D01*
X125645000Y-93633436D01*
X125645000Y-94326563D01*
X125664606Y-94525625D01*
X125742086Y-94781044D01*
X125867908Y-95016439D01*
X126037235Y-95222764D01*
X126243560Y-95392092D01*
X126478955Y-95517914D01*
X126734374Y-95595394D01*
X127000000Y-95621556D01*
X127265625Y-95595394D01*
X127521044Y-95517914D01*
X127756439Y-95392092D01*
X127962764Y-95222765D01*
X128132092Y-95016440D01*
X128257914Y-94781045D01*
X128270000Y-94741202D01*
X128282086Y-94781044D01*
X128407908Y-95016439D01*
X128577235Y-95222764D01*
X128783560Y-95392092D01*
X129018955Y-95517914D01*
X129274374Y-95595394D01*
X129540000Y-95621556D01*
X129805625Y-95595394D01*
X130061044Y-95517914D01*
X130296439Y-95392092D01*
X130502764Y-95222765D01*
X130672092Y-95016440D01*
X130797914Y-94781045D01*
X130810000Y-94741202D01*
X130822086Y-94781044D01*
X130947908Y-95016439D01*
X131117235Y-95222764D01*
X131323560Y-95392092D01*
X131558955Y-95517914D01*
X131814374Y-95595394D01*
X132080000Y-95621556D01*
X132345625Y-95595394D01*
X132601044Y-95517914D01*
X132836439Y-95392092D01*
X133042764Y-95222765D01*
X133212092Y-95016440D01*
X133337914Y-94781045D01*
X133341041Y-94770735D01*
X133360775Y-94776722D01*
X133362086Y-94781044D01*
X133487908Y-95016439D01*
X133657235Y-95222764D01*
X133863560Y-95392092D01*
X134098955Y-95517914D01*
X134354374Y-95595394D01*
X134620000Y-95621556D01*
X134885625Y-95595394D01*
X135141044Y-95517914D01*
X135376439Y-95392092D01*
X135582764Y-95222765D01*
X135752092Y-95016440D01*
X135877914Y-94781045D01*
X135881041Y-94770735D01*
X135900775Y-94776722D01*
X135902086Y-94781044D01*
X136027908Y-95016439D01*
X136197235Y-95222764D01*
X136403560Y-95392092D01*
X136638955Y-95517914D01*
X136894374Y-95595394D01*
X137160000Y-95621556D01*
X137425625Y-95595394D01*
X137681044Y-95517914D01*
X137916439Y-95392092D01*
X138122764Y-95222765D01*
X138292092Y-95016440D01*
X138417914Y-94781045D01*
X138430000Y-94741202D01*
X138442086Y-94781044D01*
X138567908Y-95016439D01*
X138737235Y-95222764D01*
X138943560Y-95392092D01*
X139178955Y-95517914D01*
X139434374Y-95595394D01*
X139700000Y-95621556D01*
X139965625Y-95595394D01*
X140221044Y-95517914D01*
X140456439Y-95392092D01*
X140662764Y-95222765D01*
X140832092Y-95016440D01*
X140953127Y-94790000D01*
X140986873Y-94790000D01*
X141107908Y-95016439D01*
X141277235Y-95222764D01*
X141483560Y-95392092D01*
X141718955Y-95517914D01*
X141974374Y-95595394D01*
X142240000Y-95621556D01*
X142505625Y-95595394D01*
X142761044Y-95517914D01*
X142996439Y-95392092D01*
X143202764Y-95222765D01*
X143372092Y-95016440D01*
X143497914Y-94781045D01*
X143511505Y-94736241D01*
X143576744Y-94895869D01*
X143723916Y-95118395D01*
X143911673Y-95307933D01*
X144132799Y-95457199D01*
X144378797Y-95560458D01*
X144443528Y-95572559D01*
X144653000Y-95449489D01*
X144653000Y-94107000D01*
X144633000Y-94107000D01*
X144633000Y-93853000D01*
X144653000Y-93853000D01*
X144653000Y-92510511D01*
X144907000Y-92510511D01*
X144907000Y-93853000D01*
X144927000Y-93853000D01*
X144927000Y-94107000D01*
X144907000Y-94107000D01*
X144907000Y-95449489D01*
X145116472Y-95572559D01*
X145181203Y-95560458D01*
X145427201Y-95457199D01*
X145648327Y-95307933D01*
X145836084Y-95118395D01*
X145983256Y-94895869D01*
X146048495Y-94736241D01*
X146062086Y-94781044D01*
X146187908Y-95016439D01*
X146357235Y-95222764D01*
X146563560Y-95392092D01*
X146798955Y-95517914D01*
X147054374Y-95595394D01*
X147320000Y-95621556D01*
X147585625Y-95595394D01*
X147841044Y-95517914D01*
X148076439Y-95392092D01*
X148282764Y-95222765D01*
X148452092Y-95016440D01*
X148577914Y-94781045D01*
X148590000Y-94741202D01*
X148602086Y-94781044D01*
X148727908Y-95016439D01*
X148897235Y-95222764D01*
X149103560Y-95392092D01*
X149338955Y-95517914D01*
X149594374Y-95595394D01*
X149860000Y-95621556D01*
X150125625Y-95595394D01*
X150381044Y-95517914D01*
X150616439Y-95392092D01*
X150822764Y-95222765D01*
X150992092Y-95016440D01*
X151117914Y-94781045D01*
X151130000Y-94741202D01*
X151142086Y-94781044D01*
X151267908Y-95016439D01*
X151437235Y-95222764D01*
X151643560Y-95392092D01*
X151878955Y-95517914D01*
X152134374Y-95595394D01*
X152400000Y-95621556D01*
X152665625Y-95595394D01*
X152921044Y-95517914D01*
X153156439Y-95392092D01*
X153362764Y-95222765D01*
X153532092Y-95016440D01*
X153657914Y-94781045D01*
X153670000Y-94741202D01*
X153682086Y-94781044D01*
X153807908Y-95016439D01*
X153977235Y-95222764D01*
X154183560Y-95392092D01*
X154418955Y-95517914D01*
X154674374Y-95595394D01*
X154940000Y-95621556D01*
X155205625Y-95595394D01*
X155461044Y-95517914D01*
X155696439Y-95392092D01*
X155902764Y-95222765D01*
X156072092Y-95016440D01*
X156197914Y-94781045D01*
X156210000Y-94741202D01*
X156222086Y-94781044D01*
X156347908Y-95016439D01*
X156517235Y-95222764D01*
X156723560Y-95392092D01*
X156958955Y-95517914D01*
X157214374Y-95595394D01*
X157480000Y-95621556D01*
X157745625Y-95595394D01*
X158001044Y-95517914D01*
X158236439Y-95392092D01*
X158442764Y-95222765D01*
X158612092Y-95016440D01*
X158737914Y-94781045D01*
X158750000Y-94741202D01*
X158762086Y-94781044D01*
X158887908Y-95016439D01*
X159057235Y-95222764D01*
X159263560Y-95392092D01*
X159498955Y-95517914D01*
X159754374Y-95595394D01*
X160020000Y-95621556D01*
X160285625Y-95595394D01*
X160541044Y-95517914D01*
X160776439Y-95392092D01*
X160982764Y-95222765D01*
X161152092Y-95016440D01*
X161277914Y-94781045D01*
X161355394Y-94525626D01*
X161375000Y-94326564D01*
X161375000Y-93633437D01*
X161355394Y-93434375D01*
X161277914Y-93178955D01*
X161152092Y-92943560D01*
X160982765Y-92737235D01*
X160776440Y-92567908D01*
X160541045Y-92442086D01*
X160285626Y-92364606D01*
X160020000Y-92338444D01*
X159754375Y-92364606D01*
X159498956Y-92442086D01*
X159263561Y-92567908D01*
X159057236Y-92737235D01*
X158887908Y-92943560D01*
X158762086Y-93178955D01*
X158750000Y-93218798D01*
X158737914Y-93178955D01*
X158612092Y-92943560D01*
X158442765Y-92737235D01*
X158236440Y-92567908D01*
X158001045Y-92442086D01*
X157745626Y-92364606D01*
X157480000Y-92338444D01*
X157214375Y-92364606D01*
X156958956Y-92442086D01*
X156723561Y-92567908D01*
X156517236Y-92737235D01*
X156347908Y-92943560D01*
X156222086Y-93178955D01*
X156210000Y-93218798D01*
X156197914Y-93178955D01*
X156072092Y-92943560D01*
X155902765Y-92737235D01*
X155696440Y-92567908D01*
X155461045Y-92442086D01*
X155205626Y-92364606D01*
X154940000Y-92338444D01*
X154674375Y-92364606D01*
X154418956Y-92442086D01*
X154183561Y-92567908D01*
X153977236Y-92737235D01*
X153807908Y-92943560D01*
X153682086Y-93178955D01*
X153670000Y-93218798D01*
X153657914Y-93178955D01*
X153532092Y-92943560D01*
X153362765Y-92737235D01*
X153156440Y-92567908D01*
X152921045Y-92442086D01*
X152665626Y-92364606D01*
X152400000Y-92338444D01*
X152134375Y-92364606D01*
X151878956Y-92442086D01*
X151643561Y-92567908D01*
X151437236Y-92737235D01*
X151267908Y-92943560D01*
X151142086Y-93178955D01*
X151130000Y-93218798D01*
X151117914Y-93178955D01*
X150992092Y-92943560D01*
X150822765Y-92737235D01*
X150616440Y-92567908D01*
X150381045Y-92442086D01*
X150125626Y-92364606D01*
X149860000Y-92338444D01*
X149594375Y-92364606D01*
X149338956Y-92442086D01*
X149103561Y-92567908D01*
X148897236Y-92737235D01*
X148727908Y-92943560D01*
X148602086Y-93178955D01*
X148590000Y-93218798D01*
X148577914Y-93178955D01*
X148452092Y-92943560D01*
X148282765Y-92737235D01*
X148076440Y-92567908D01*
X147841045Y-92442086D01*
X147585626Y-92364606D01*
X147320000Y-92338444D01*
X147054375Y-92364606D01*
X146798956Y-92442086D01*
X146563561Y-92567908D01*
X146357236Y-92737235D01*
X146187908Y-92943560D01*
X146062086Y-93178955D01*
X146048495Y-93223759D01*
X145983256Y-93064131D01*
X145836084Y-92841605D01*
X145648327Y-92652067D01*
X145427201Y-92502801D01*
X145181203Y-92399542D01*
X145116472Y-92387441D01*
X144907000Y-92510511D01*
X144653000Y-92510511D01*
X144443528Y-92387441D01*
X144378797Y-92399542D01*
X144132799Y-92502801D01*
X143911673Y-92652067D01*
X143723916Y-92841605D01*
X143576744Y-93064131D01*
X143511505Y-93223759D01*
X143497914Y-93178955D01*
X143372092Y-92943560D01*
X143202765Y-92737235D01*
X142996440Y-92567908D01*
X142761045Y-92442086D01*
X142505626Y-92364606D01*
X142240000Y-92338444D01*
X141974375Y-92364606D01*
X141718956Y-92442086D01*
X141483561Y-92567908D01*
X141277236Y-92737235D01*
X141107908Y-92943560D01*
X140986873Y-93170000D01*
X140953127Y-93170000D01*
X140832092Y-92943560D01*
X140662765Y-92737235D01*
X140456440Y-92567908D01*
X140221045Y-92442086D01*
X139965626Y-92364606D01*
X139700000Y-92338444D01*
X139434375Y-92364606D01*
X139178956Y-92442086D01*
X138943561Y-92567908D01*
X138737236Y-92737235D01*
X138567908Y-92943560D01*
X138442086Y-93178955D01*
X138430000Y-93218798D01*
X138417914Y-93178955D01*
X138292092Y-92943560D01*
X138122765Y-92737235D01*
X137916440Y-92567908D01*
X137681045Y-92442086D01*
X137425626Y-92364606D01*
X137160000Y-92338444D01*
X136894375Y-92364606D01*
X136638956Y-92442086D01*
X136403561Y-92567908D01*
X136296601Y-92655688D01*
X130726300Y-87085388D01*
X130700928Y-87054472D01*
X130577589Y-86953251D01*
X130436873Y-86878037D01*
X130284188Y-86831720D01*
X130165191Y-86820000D01*
X130165188Y-86820000D01*
X130125400Y-86816081D01*
X130085612Y-86820000D01*
X110644331Y-86820000D01*
X110674958Y-86719026D01*
X110553817Y-86487000D01*
X109347000Y-86487000D01*
X109347000Y-86507000D01*
X109093000Y-86507000D01*
X109093000Y-86487000D01*
X109073000Y-86487000D01*
X109073000Y-86233000D01*
X109093000Y-86233000D01*
X109093000Y-86213000D01*
X109347000Y-86213000D01*
X109347000Y-86233000D01*
X110553817Y-86233000D01*
X110674958Y-86000974D01*
X110644331Y-85900000D01*
X126110173Y-85900000D01*
X126175911Y-85953949D01*
X126316627Y-86029163D01*
X126469312Y-86075480D01*
X126588309Y-86087200D01*
X126588312Y-86087200D01*
X126628100Y-86091119D01*
X126667888Y-86087200D01*
X157838412Y-86087200D01*
X157878200Y-86091119D01*
X157917988Y-86087200D01*
X157917991Y-86087200D01*
X158036988Y-86075480D01*
X158189673Y-86029163D01*
X158330389Y-85953949D01*
X158453728Y-85852728D01*
X158479099Y-85821813D01*
X158948679Y-85352233D01*
X159055820Y-85409502D01*
X159175518Y-85445812D01*
X159300000Y-85458072D01*
X160740000Y-85458072D01*
X160864482Y-85445812D01*
X160984180Y-85409502D01*
X161094494Y-85350537D01*
X161191185Y-85271185D01*
X161270537Y-85174494D01*
X161329502Y-85064180D01*
X161365812Y-84944482D01*
X161378072Y-84820000D01*
X161378072Y-82820000D01*
X161365812Y-82695518D01*
X161329502Y-82575820D01*
X161270537Y-82465506D01*
X161191185Y-82368815D01*
X161094494Y-82289463D01*
X160984180Y-82230498D01*
X160864482Y-82194188D01*
X160740000Y-82181928D01*
X160282400Y-82181928D01*
X160282400Y-75718412D01*
X160564617Y-75436195D01*
X160595528Y-75410828D01*
X160651119Y-75343090D01*
X160696749Y-75287490D01*
X160771962Y-75146774D01*
X160771963Y-75146773D01*
X160818280Y-74994088D01*
X160830000Y-74875091D01*
X160830000Y-74875089D01*
X160832514Y-74849566D01*
X161039608Y-74679608D01*
X161218932Y-74461101D01*
X161352182Y-74211808D01*
X161434236Y-73941309D01*
X161461943Y-73660000D01*
X161434236Y-73378691D01*
X161352182Y-73108192D01*
X161218932Y-72858899D01*
X161039608Y-72640392D01*
X160821101Y-72461068D01*
X160571808Y-72327818D01*
X160301309Y-72245764D01*
X160090492Y-72225000D01*
X159949508Y-72225000D01*
X159738691Y-72245764D01*
X159468192Y-72327818D01*
X159218899Y-72461068D01*
X159000392Y-72640392D01*
X158821068Y-72858899D01*
X158687818Y-73108192D01*
X158605764Y-73378691D01*
X158578057Y-73660000D01*
X158605764Y-73941309D01*
X158687818Y-74211808D01*
X158821068Y-74461101D01*
X159000392Y-74679608D01*
X159016753Y-74693035D01*
X158927783Y-74782005D01*
X158896873Y-74807372D01*
X158871508Y-74838280D01*
X158795651Y-74930711D01*
X158727194Y-75058787D01*
X158720438Y-75071427D01*
X158685740Y-75185812D01*
X158674121Y-75224113D01*
X158658481Y-75382900D01*
X158662401Y-75422698D01*
X158662400Y-82815206D01*
X158661928Y-82820000D01*
X158661928Y-82876796D01*
X158612092Y-82783560D01*
X158442765Y-82577235D01*
X158236440Y-82407908D01*
X158001045Y-82282086D01*
X157745626Y-82204606D01*
X157480000Y-82178444D01*
X157214375Y-82204606D01*
X156958956Y-82282086D01*
X156723561Y-82407908D01*
X156517236Y-82577235D01*
X156347908Y-82783560D01*
X156222086Y-83018955D01*
X156210000Y-83058798D01*
X156197914Y-83018955D01*
X156072092Y-82783560D01*
X155902765Y-82577235D01*
X155696440Y-82407908D01*
X155461045Y-82282086D01*
X155205626Y-82204606D01*
X154940000Y-82178444D01*
X154674375Y-82204606D01*
X154418956Y-82282086D01*
X154183561Y-82407908D01*
X153977236Y-82577235D01*
X153807908Y-82783560D01*
X153682086Y-83018955D01*
X153670000Y-83058798D01*
X153657914Y-83018955D01*
X153532092Y-82783560D01*
X153362765Y-82577235D01*
X153156440Y-82407908D01*
X152921045Y-82282086D01*
X152665626Y-82204606D01*
X152400000Y-82178444D01*
X152134375Y-82204606D01*
X151878956Y-82282086D01*
X151643561Y-82407908D01*
X151437236Y-82577235D01*
X151267908Y-82783560D01*
X151142086Y-83018955D01*
X151130000Y-83058798D01*
X151117914Y-83018955D01*
X150992092Y-82783560D01*
X150822765Y-82577235D01*
X150616440Y-82407908D01*
X150381045Y-82282086D01*
X150125626Y-82204606D01*
X149860000Y-82178444D01*
X149594375Y-82204606D01*
X149338956Y-82282086D01*
X149103561Y-82407908D01*
X148897236Y-82577235D01*
X148727908Y-82783560D01*
X148602086Y-83018955D01*
X148590000Y-83058798D01*
X148577914Y-83018955D01*
X148452092Y-82783560D01*
X148282765Y-82577235D01*
X148076440Y-82407908D01*
X147841045Y-82282086D01*
X147585626Y-82204606D01*
X147320000Y-82178444D01*
X147054375Y-82204606D01*
X146798956Y-82282086D01*
X146563561Y-82407908D01*
X146357236Y-82577235D01*
X146187908Y-82783560D01*
X146062086Y-83018955D01*
X146050000Y-83058798D01*
X146037914Y-83018955D01*
X145912092Y-82783560D01*
X145742765Y-82577235D01*
X145590000Y-82451864D01*
X145590000Y-76535512D01*
X147055093Y-75070420D01*
X147178665Y-75095000D01*
X147461335Y-75095000D01*
X147738574Y-75039853D01*
X147999727Y-74931680D01*
X148234759Y-74774637D01*
X148434637Y-74574759D01*
X148504635Y-74470000D01*
X151215365Y-74470000D01*
X151285363Y-74574759D01*
X151485241Y-74774637D01*
X151720273Y-74931680D01*
X151981426Y-75039853D01*
X152258665Y-75095000D01*
X152541335Y-75095000D01*
X152818574Y-75039853D01*
X153079727Y-74931680D01*
X153314759Y-74774637D01*
X153514637Y-74574759D01*
X153671680Y-74339727D01*
X153779853Y-74078574D01*
X153835000Y-73801335D01*
X153835000Y-73518665D01*
X153779853Y-73241426D01*
X153671680Y-72980273D01*
X153514637Y-72745241D01*
X153314759Y-72545363D01*
X153079727Y-72388320D01*
X152818574Y-72280147D01*
X152541335Y-72225000D01*
X152258665Y-72225000D01*
X151981426Y-72280147D01*
X151720273Y-72388320D01*
X151485241Y-72545363D01*
X151285363Y-72745241D01*
X151215365Y-72850000D01*
X148504635Y-72850000D01*
X148434637Y-72745241D01*
X148234759Y-72545363D01*
X147999727Y-72388320D01*
X147738574Y-72280147D01*
X147461335Y-72225000D01*
X147178665Y-72225000D01*
X146901426Y-72280147D01*
X146640273Y-72388320D01*
X146405241Y-72545363D01*
X146205363Y-72745241D01*
X146071308Y-72945869D01*
X146056671Y-72918486D01*
X145812702Y-72846903D01*
X144999605Y-73660000D01*
X145013748Y-73674143D01*
X144834143Y-73853748D01*
X144820000Y-73839605D01*
X144006903Y-74652702D01*
X144078486Y-74896671D01*
X144333996Y-75017571D01*
X144608184Y-75086300D01*
X144741611Y-75092877D01*
X144235383Y-75599105D01*
X144204473Y-75624472D01*
X144179108Y-75655380D01*
X144103251Y-75747811D01*
X144056601Y-75835089D01*
X144028038Y-75888527D01*
X143999140Y-75983792D01*
X143981721Y-76041213D01*
X143966081Y-76200000D01*
X143970001Y-76239798D01*
X143970000Y-82451864D01*
X143817236Y-82577235D01*
X143647908Y-82783560D01*
X143522086Y-83018955D01*
X143508495Y-83063759D01*
X143443256Y-82904131D01*
X143296084Y-82681605D01*
X143108327Y-82492067D01*
X142887201Y-82342801D01*
X142641203Y-82239542D01*
X142576472Y-82227441D01*
X142367000Y-82350511D01*
X142367000Y-83693000D01*
X142387000Y-83693000D01*
X142387000Y-83947000D01*
X142367000Y-83947000D01*
X142367000Y-83967000D01*
X142113000Y-83967000D01*
X142113000Y-83947000D01*
X142093000Y-83947000D01*
X142093000Y-83693000D01*
X142113000Y-83693000D01*
X142113000Y-82350511D01*
X141903528Y-82227441D01*
X141838797Y-82239542D01*
X141592799Y-82342801D01*
X141371673Y-82492067D01*
X141183916Y-82681605D01*
X141036744Y-82904131D01*
X140971505Y-83063759D01*
X140957914Y-83018955D01*
X140832092Y-82783560D01*
X140662765Y-82577235D01*
X140456440Y-82407908D01*
X140221045Y-82282086D01*
X139965626Y-82204606D01*
X139700000Y-82178444D01*
X139434375Y-82204606D01*
X139178956Y-82282086D01*
X138943561Y-82407908D01*
X138737236Y-82577235D01*
X138567908Y-82783560D01*
X138442086Y-83018955D01*
X138430000Y-83058798D01*
X138417914Y-83018955D01*
X138292092Y-82783560D01*
X138122765Y-82577235D01*
X137916440Y-82407908D01*
X137681045Y-82282086D01*
X137425626Y-82204606D01*
X137160000Y-82178444D01*
X136894375Y-82204606D01*
X136638956Y-82282086D01*
X136403561Y-82407908D01*
X136197236Y-82577235D01*
X136027908Y-82783560D01*
X135902086Y-83018955D01*
X135890000Y-83058798D01*
X135877914Y-83018955D01*
X135752092Y-82783560D01*
X135582765Y-82577235D01*
X135376440Y-82407908D01*
X135141045Y-82282086D01*
X134885626Y-82204606D01*
X134620000Y-82178444D01*
X134354375Y-82204606D01*
X134098956Y-82282086D01*
X133863561Y-82407908D01*
X133657236Y-82577235D01*
X133487908Y-82783560D01*
X133362086Y-83018955D01*
X133350000Y-83058798D01*
X133337914Y-83018955D01*
X133212092Y-82783560D01*
X133042765Y-82577235D01*
X132836440Y-82407908D01*
X132601045Y-82282086D01*
X132345626Y-82204606D01*
X132080000Y-82178444D01*
X131814375Y-82204606D01*
X131558956Y-82282086D01*
X131323561Y-82407908D01*
X131117236Y-82577235D01*
X130947908Y-82783560D01*
X130822086Y-83018955D01*
X130810000Y-83058798D01*
X130797914Y-83018955D01*
X130672092Y-82783560D01*
X130502765Y-82577235D01*
X130296440Y-82407908D01*
X130061045Y-82282086D01*
X129805626Y-82204606D01*
X129540000Y-82178444D01*
X129274375Y-82204606D01*
X129018956Y-82282086D01*
X128783561Y-82407908D01*
X128577236Y-82577235D01*
X128407908Y-82783560D01*
X128282086Y-83018955D01*
X128270000Y-83058798D01*
X128257914Y-83018955D01*
X128132092Y-82783560D01*
X127962765Y-82577235D01*
X127756440Y-82407908D01*
X127521045Y-82282086D01*
X127265626Y-82204606D01*
X127000000Y-82178444D01*
X126734375Y-82204606D01*
X126478956Y-82282086D01*
X126243561Y-82407908D01*
X126037236Y-82577235D01*
X125867908Y-82783560D01*
X125742086Y-83018955D01*
X125664606Y-83274374D01*
X125645000Y-83473436D01*
X125645000Y-84166563D01*
X125656173Y-84280000D01*
X110644331Y-84280000D01*
X110674958Y-84179026D01*
X110553817Y-83947000D01*
X109347000Y-83947000D01*
X109347000Y-83967000D01*
X109093000Y-83967000D01*
X109093000Y-83947000D01*
X109073000Y-83947000D01*
X109073000Y-83693000D01*
X109093000Y-83693000D01*
X109093000Y-83673000D01*
X109347000Y-83673000D01*
X109347000Y-83693000D01*
X110553817Y-83693000D01*
X110674958Y-83460974D01*
X110629222Y-83310186D01*
X110502684Y-83045056D01*
X110326854Y-82809707D01*
X110108488Y-82613183D01*
X110012090Y-82555863D01*
X110056606Y-82532069D01*
X110284797Y-82344797D01*
X110472069Y-82116606D01*
X110611225Y-81856264D01*
X110696916Y-81573777D01*
X110725851Y-81280000D01*
X110696916Y-80986223D01*
X110611225Y-80703736D01*
X110472069Y-80443394D01*
X110284797Y-80215203D01*
X110056606Y-80027931D01*
X109796264Y-79888775D01*
X109513777Y-79803084D01*
X109293619Y-79781400D01*
X109146381Y-79781400D01*
X108926223Y-79803084D01*
X108643736Y-79888775D01*
X108383394Y-80027931D01*
X108155203Y-80215203D01*
X108148586Y-80223265D01*
X108133102Y-80172220D01*
X108074137Y-80061906D01*
X107994785Y-79965215D01*
X107898094Y-79885863D01*
X107787780Y-79826898D01*
X107668082Y-79790588D01*
X107543600Y-79778328D01*
X105816400Y-79778328D01*
X105691918Y-79790588D01*
X105572220Y-79826898D01*
X105461906Y-79885863D01*
X105365215Y-79965215D01*
X105285863Y-80061906D01*
X105226898Y-80172220D01*
X105190588Y-80291918D01*
X105178328Y-80416400D01*
X105178328Y-82143600D01*
X105190588Y-82268082D01*
X105226898Y-82387780D01*
X105285863Y-82498094D01*
X105365215Y-82594785D01*
X105461906Y-82674137D01*
X105572220Y-82733102D01*
X105623265Y-82748586D01*
X105615203Y-82755203D01*
X105427931Y-82983394D01*
X105288775Y-83243736D01*
X105203084Y-83526223D01*
X105174149Y-83820000D01*
X102260000Y-83820000D01*
X102260000Y-73660000D01*
X125558057Y-73660000D01*
X125585764Y-73941309D01*
X125667818Y-74211808D01*
X125801068Y-74461101D01*
X125980392Y-74679608D01*
X126198899Y-74858932D01*
X126448192Y-74992182D01*
X126718691Y-75074236D01*
X126929508Y-75095000D01*
X127070492Y-75095000D01*
X127281309Y-75074236D01*
X127551808Y-74992182D01*
X127801101Y-74858932D01*
X128019608Y-74679608D01*
X128198932Y-74461101D01*
X128332182Y-74211808D01*
X128414236Y-73941309D01*
X128441943Y-73660000D01*
X128428023Y-73518665D01*
X133185000Y-73518665D01*
X133185000Y-73801335D01*
X133240147Y-74078574D01*
X133348320Y-74339727D01*
X133505363Y-74574759D01*
X133705241Y-74774637D01*
X133940273Y-74931680D01*
X134201426Y-75039853D01*
X134478665Y-75095000D01*
X134761335Y-75095000D01*
X135038574Y-75039853D01*
X135299727Y-74931680D01*
X135534759Y-74774637D01*
X135734637Y-74574759D01*
X135804635Y-74470000D01*
X137125096Y-74470000D01*
X137237688Y-74638505D01*
X137451495Y-74852312D01*
X137702905Y-75020299D01*
X137982257Y-75136011D01*
X138278816Y-75195000D01*
X138581184Y-75195000D01*
X138877743Y-75136011D01*
X139157095Y-75020299D01*
X139408505Y-74852312D01*
X139474944Y-74785873D01*
X139480498Y-74804180D01*
X139539463Y-74914494D01*
X139618815Y-75011185D01*
X139715506Y-75090537D01*
X139825820Y-75149502D01*
X139945518Y-75185812D01*
X140070000Y-75198072D01*
X140684250Y-75195000D01*
X140843000Y-75036250D01*
X140843000Y-73787000D01*
X141097000Y-73787000D01*
X141097000Y-75036250D01*
X141255750Y-75195000D01*
X141870000Y-75198072D01*
X141994482Y-75185812D01*
X142114180Y-75149502D01*
X142224494Y-75090537D01*
X142321185Y-75011185D01*
X142400537Y-74914494D01*
X142459502Y-74804180D01*
X142495812Y-74684482D01*
X142508072Y-74560000D01*
X142505000Y-73945750D01*
X142346250Y-73787000D01*
X141097000Y-73787000D01*
X140843000Y-73787000D01*
X140823000Y-73787000D01*
X140823000Y-73730512D01*
X143379783Y-73730512D01*
X143421213Y-74010130D01*
X143516397Y-74276292D01*
X143583329Y-74401514D01*
X143827298Y-74473097D01*
X144640395Y-73660000D01*
X143827298Y-72846903D01*
X143583329Y-72918486D01*
X143462429Y-73173996D01*
X143393700Y-73448184D01*
X143379783Y-73730512D01*
X140823000Y-73730512D01*
X140823000Y-73533000D01*
X140843000Y-73533000D01*
X140843000Y-72283750D01*
X141097000Y-72283750D01*
X141097000Y-73533000D01*
X142346250Y-73533000D01*
X142505000Y-73374250D01*
X142508072Y-72760000D01*
X142498942Y-72667298D01*
X144006903Y-72667298D01*
X144820000Y-73480395D01*
X145633097Y-72667298D01*
X145561514Y-72423329D01*
X145306004Y-72302429D01*
X145031816Y-72233700D01*
X144749488Y-72219783D01*
X144469870Y-72261213D01*
X144203708Y-72356397D01*
X144078486Y-72423329D01*
X144006903Y-72667298D01*
X142498942Y-72667298D01*
X142495812Y-72635518D01*
X142459502Y-72515820D01*
X142400537Y-72405506D01*
X142321185Y-72308815D01*
X142224494Y-72229463D01*
X142114180Y-72170498D01*
X141994482Y-72134188D01*
X141870000Y-72121928D01*
X141255750Y-72125000D01*
X141097000Y-72283750D01*
X140843000Y-72283750D01*
X140684250Y-72125000D01*
X140070000Y-72121928D01*
X139945518Y-72134188D01*
X139825820Y-72170498D01*
X139715506Y-72229463D01*
X139618815Y-72308815D01*
X139539463Y-72405506D01*
X139480498Y-72515820D01*
X139474944Y-72534127D01*
X139408505Y-72467688D01*
X139157095Y-72299701D01*
X138877743Y-72183989D01*
X138581184Y-72125000D01*
X138278816Y-72125000D01*
X137982257Y-72183989D01*
X137702905Y-72299701D01*
X137451495Y-72467688D01*
X137237688Y-72681495D01*
X137125096Y-72850000D01*
X135804635Y-72850000D01*
X135734637Y-72745241D01*
X135534759Y-72545363D01*
X135299727Y-72388320D01*
X135038574Y-72280147D01*
X134761335Y-72225000D01*
X134478665Y-72225000D01*
X134201426Y-72280147D01*
X133940273Y-72388320D01*
X133705241Y-72545363D01*
X133505363Y-72745241D01*
X133348320Y-72980273D01*
X133240147Y-73241426D01*
X133185000Y-73518665D01*
X128428023Y-73518665D01*
X128414236Y-73378691D01*
X128332182Y-73108192D01*
X128198932Y-72858899D01*
X128019608Y-72640392D01*
X127801101Y-72461068D01*
X127551808Y-72327818D01*
X127281309Y-72245764D01*
X127070492Y-72225000D01*
X126929508Y-72225000D01*
X126718691Y-72245764D01*
X126448192Y-72327818D01*
X126198899Y-72461068D01*
X125980392Y-72640392D01*
X125801068Y-72858899D01*
X125667818Y-73108192D01*
X125585764Y-73378691D01*
X125558057Y-73660000D01*
X102260000Y-73660000D01*
X102260000Y-69240000D01*
X184760000Y-69240000D01*
X184760001Y-100940000D01*
G36*
X133898904Y-92549017D02*
G01*
X133863561Y-92567908D01*
X133756601Y-92655688D01*
X130726300Y-89625388D01*
X130700928Y-89594472D01*
X130577589Y-89493251D01*
X130436873Y-89418037D01*
X130284188Y-89371720D01*
X130165191Y-89360000D01*
X130165188Y-89360000D01*
X130125400Y-89356081D01*
X130085612Y-89360000D01*
X110644331Y-89360000D01*
X110674958Y-89259026D01*
X110553817Y-89027000D01*
X109347000Y-89027000D01*
X109347000Y-89047000D01*
X109093000Y-89047000D01*
X109093000Y-89027000D01*
X109073000Y-89027000D01*
X109073000Y-88773000D01*
X109093000Y-88773000D01*
X109093000Y-88753000D01*
X109347000Y-88753000D01*
X109347000Y-88773000D01*
X110553817Y-88773000D01*
X110674958Y-88540974D01*
X110644331Y-88440000D01*
X129789888Y-88440000D01*
X133898904Y-92549017D01*
X133898904Y-92549017D01*
G37*
X133898904Y-92549017D02*
X133863561Y-92567908D01*
X133756601Y-92655688D01*
X130726300Y-89625388D01*
X130700928Y-89594472D01*
X130577589Y-89493251D01*
X130436873Y-89418037D01*
X130284188Y-89371720D01*
X130165191Y-89360000D01*
X130165188Y-89360000D01*
X130125400Y-89356081D01*
X130085612Y-89360000D01*
X110644331Y-89360000D01*
X110674958Y-89259026D01*
X110553817Y-89027000D01*
X109347000Y-89027000D01*
X109347000Y-89047000D01*
X109093000Y-89047000D01*
X109093000Y-89027000D01*
X109073000Y-89027000D01*
X109073000Y-88773000D01*
X109093000Y-88773000D01*
X109093000Y-88753000D01*
X109347000Y-88753000D01*
X109347000Y-88773000D01*
X110553817Y-88773000D01*
X110674958Y-88540974D01*
X110644331Y-88440000D01*
X129789888Y-88440000D01*
X133898904Y-92549017D01*
M02*
