%TF.GenerationSoftware,KiCad,Pcbnew,5.1.6-c6e7f7d~86~ubuntu18.04.1*%
%TF.CreationDate,2020-05-25T18:42:42+02:00*%
%TF.ProjectId,atmega_prog_adapter_v1,61746d65-6761-45f7-9072-6f675f616461,1.0*%
%TF.SameCoordinates,PX60e4b00PY60e4b00*%
%TF.FileFunction,Legend,Top*%
%TF.FilePolarity,Positive*%
%FSLAX46Y46*%
G04 Gerber Fmt 4.6, Leading zero omitted, Abs format (unit mm)*
G04 Created by KiCad (PCBNEW 5.1.6-c6e7f7d~86~ubuntu18.04.1) date 2020-05-25 18:42:42*
%MOMM*%
%LPD*%
G01*
G04 APERTURE LIST*
%ADD10C,0.300000*%
%ADD11C,0.120000*%
%ADD12C,0.150000*%
%ADD13C,1.702000*%
%ADD14R,1.902000X1.902000*%
%ADD15C,1.902000*%
%ADD16R,1.829200X1.829200*%
%ADD17O,1.829200X1.829200*%
%ADD18O,1.702000X1.702000*%
%ADD19R,1.542000X2.102000*%
%ADD20O,1.542000X2.102000*%
G04 APERTURE END LIST*
D10*
X77009523Y9811429D02*
X77104761Y10097143D01*
X77104761Y10573334D01*
X77009523Y10763810D01*
X76914285Y10859048D01*
X76723809Y10954286D01*
X76533333Y10954286D01*
X76342857Y10859048D01*
X76247619Y10763810D01*
X76152380Y10573334D01*
X76057142Y10192381D01*
X75961904Y10001905D01*
X75866666Y9906667D01*
X75676190Y9811429D01*
X75485714Y9811429D01*
X75295238Y9906667D01*
X75200000Y10001905D01*
X75104761Y10192381D01*
X75104761Y10668572D01*
X75200000Y10954286D01*
X77295238Y13144762D02*
X77200000Y12954286D01*
X77009523Y12763810D01*
X76723809Y12478096D01*
X76628571Y12287620D01*
X76628571Y12097143D01*
X77104761Y12192381D02*
X77009523Y12001905D01*
X76819047Y11811429D01*
X76438095Y11716191D01*
X75771428Y11716191D01*
X75390476Y11811429D01*
X75200000Y12001905D01*
X75104761Y12192381D01*
X75104761Y12573334D01*
X75200000Y12763810D01*
X75390476Y12954286D01*
X75771428Y13049524D01*
X76438095Y13049524D01*
X76819047Y12954286D01*
X77009523Y12763810D01*
X77104761Y12573334D01*
X77104761Y12192381D01*
X75104761Y13716191D02*
X75104761Y15049524D01*
X77104761Y14192381D01*
X76057142Y15811429D02*
X76057142Y16478096D01*
X77104761Y16763810D02*
X77104761Y15811429D01*
X75104761Y15811429D01*
X75104761Y16763810D01*
X77295238Y18954286D02*
X77200000Y18763810D01*
X77009523Y18573334D01*
X76723809Y18287620D01*
X76628571Y18097143D01*
X76628571Y17906667D01*
X77104761Y18001905D02*
X77009523Y17811429D01*
X76819047Y17620953D01*
X76438095Y17525715D01*
X75771428Y17525715D01*
X75390476Y17620953D01*
X75200000Y17811429D01*
X75104761Y18001905D01*
X75104761Y18382858D01*
X75200000Y18573334D01*
X75390476Y18763810D01*
X75771428Y18859048D01*
X76438095Y18859048D01*
X76819047Y18763810D01*
X77009523Y18573334D01*
X77104761Y18382858D01*
X77104761Y18001905D01*
X76057142Y19716191D02*
X76057142Y20382858D01*
X77104761Y20668572D02*
X77104761Y19716191D01*
X75104761Y19716191D01*
X75104761Y20668572D01*
D11*
%TO.C,C1*%
X41850000Y26570000D02*
X41850000Y29310000D01*
X47090000Y26570000D02*
X47090000Y29310000D01*
X47090000Y29310000D02*
X41850000Y29310000D01*
X47090000Y26570000D02*
X41850000Y26570000D01*
%TO.C,D1*%
X39660000Y29020000D02*
X39660000Y29176000D01*
X39660000Y26704000D02*
X39660000Y26860000D01*
X36427665Y26861392D02*
G75*
G03*
X39660000Y26704484I1672335J1078608D01*
G01*
X36427665Y29018608D02*
G75*
G02*
X39660000Y29175516I1672335J-1078608D01*
G01*
X37058870Y26860163D02*
G75*
G03*
X39140961Y26860000I1041130J1079837D01*
G01*
X37058870Y29019837D02*
G75*
G02*
X39140961Y29020000I1041130J-1079837D01*
G01*
%TO.C,J1*%
X1425000Y25920000D02*
X3965000Y25920000D01*
X1425000Y25920000D02*
X1425000Y23380000D01*
X1675000Y25670000D02*
X11025000Y25670000D01*
X1675000Y4810000D02*
X1675000Y25670000D01*
X11025000Y4810000D02*
X1675000Y4810000D01*
X11025000Y25670000D02*
X11025000Y4810000D01*
%TO.C,R1*%
X57880000Y26570000D02*
X57880000Y26900000D01*
X51340000Y26570000D02*
X57880000Y26570000D01*
X51340000Y26900000D02*
X51340000Y26570000D01*
X57880000Y29310000D02*
X57880000Y28980000D01*
X51340000Y29310000D02*
X57880000Y29310000D01*
X51340000Y28980000D02*
X51340000Y29310000D01*
%TO.C,R2*%
X32480000Y26900000D02*
X32480000Y26570000D01*
X32480000Y26570000D02*
X25940000Y26570000D01*
X25940000Y26570000D02*
X25940000Y26900000D01*
X32480000Y28980000D02*
X32480000Y29310000D01*
X32480000Y29310000D02*
X25940000Y29310000D01*
X25940000Y29310000D02*
X25940000Y28980000D01*
%TO.C,U1*%
X57150000Y22730000D02*
X59690000Y22730000D01*
X69080000Y19430000D02*
X66820000Y19430000D01*
X69080000Y21700000D02*
X67220000Y21700000D01*
X69080000Y3700000D02*
X69080000Y21700000D01*
X18380000Y3700000D02*
X69080000Y3700000D01*
X18380000Y21700000D02*
X18380000Y3700000D01*
X62320000Y21700000D02*
X18380000Y21700000D01*
X65670000Y20980000D02*
G75*
G03*
X65670000Y20980000I-900000J0D01*
G01*
X67320000Y20980000D02*
G75*
G03*
X67320000Y20980000I-2550000J0D01*
G01*
%TO.C,C1*%
D12*
X44303333Y25082858D02*
X44255714Y25035239D01*
X44112857Y24987620D01*
X44017619Y24987620D01*
X43874761Y25035239D01*
X43779523Y25130477D01*
X43731904Y25225715D01*
X43684285Y25416191D01*
X43684285Y25559048D01*
X43731904Y25749524D01*
X43779523Y25844762D01*
X43874761Y25940000D01*
X44017619Y25987620D01*
X44112857Y25987620D01*
X44255714Y25940000D01*
X44303333Y25892381D01*
X45255714Y24987620D02*
X44684285Y24987620D01*
X44970000Y24987620D02*
X44970000Y25987620D01*
X44874761Y25844762D01*
X44779523Y25749524D01*
X44684285Y25701905D01*
%TO.C,D1*%
X37361904Y24527620D02*
X37361904Y25527620D01*
X37600000Y25527620D01*
X37742857Y25480000D01*
X37838095Y25384762D01*
X37885714Y25289524D01*
X37933333Y25099048D01*
X37933333Y24956191D01*
X37885714Y24765715D01*
X37838095Y24670477D01*
X37742857Y24575239D01*
X37600000Y24527620D01*
X37361904Y24527620D01*
X38885714Y24527620D02*
X38314285Y24527620D01*
X38600000Y24527620D02*
X38600000Y25527620D01*
X38504761Y25384762D01*
X38409523Y25289524D01*
X38314285Y25241905D01*
%TO.C,J1*%
X6016666Y27471620D02*
X6016666Y26757334D01*
X5969047Y26614477D01*
X5873809Y26519239D01*
X5730952Y26471620D01*
X5635714Y26471620D01*
X7016666Y26471620D02*
X6445238Y26471620D01*
X6730952Y26471620D02*
X6730952Y27471620D01*
X6635714Y27328762D01*
X6540476Y27233524D01*
X6445238Y27185905D01*
%TO.C,R1*%
X54443333Y29857620D02*
X54110000Y30333810D01*
X53871904Y29857620D02*
X53871904Y30857620D01*
X54252857Y30857620D01*
X54348095Y30810000D01*
X54395714Y30762381D01*
X54443333Y30667143D01*
X54443333Y30524286D01*
X54395714Y30429048D01*
X54348095Y30381429D01*
X54252857Y30333810D01*
X53871904Y30333810D01*
X55395714Y29857620D02*
X54824285Y29857620D01*
X55110000Y29857620D02*
X55110000Y30857620D01*
X55014761Y30714762D01*
X54919523Y30619524D01*
X54824285Y30571905D01*
%TO.C,R2*%
X29043333Y25117620D02*
X28710000Y25593810D01*
X28471904Y25117620D02*
X28471904Y26117620D01*
X28852857Y26117620D01*
X28948095Y26070000D01*
X28995714Y26022381D01*
X29043333Y25927143D01*
X29043333Y25784286D01*
X28995714Y25689048D01*
X28948095Y25641429D01*
X28852857Y25593810D01*
X28471904Y25593810D01*
X29424285Y26022381D02*
X29471904Y26070000D01*
X29567142Y26117620D01*
X29805238Y26117620D01*
X29900476Y26070000D01*
X29948095Y26022381D01*
X29995714Y25927143D01*
X29995714Y25831905D01*
X29948095Y25689048D01*
X29376666Y25117620D01*
X29995714Y25117620D01*
%TO.C,U1*%
X69432380Y11938096D02*
X70241904Y11938096D01*
X70337142Y11985715D01*
X70384761Y12033334D01*
X70432380Y12128572D01*
X70432380Y12319048D01*
X70384761Y12414286D01*
X70337142Y12461905D01*
X70241904Y12509524D01*
X69432380Y12509524D01*
X70432380Y13509524D02*
X70432380Y12938096D01*
X70432380Y13223810D02*
X69432380Y13223810D01*
X69575238Y13128572D01*
X69670476Y13033334D01*
X69718095Y12938096D01*
%TD*%
%LPC*%
D13*
%TO.C,C1*%
X45720000Y27940000D03*
X43220000Y27940000D03*
%TD*%
D14*
%TO.C,D1*%
X39370000Y27940000D03*
D15*
X36830000Y27940000D03*
%TD*%
D16*
%TO.C,J1*%
X5080000Y20320000D03*
D17*
X7620000Y20320000D03*
X5080000Y17780000D03*
X7620000Y17780000D03*
X5080000Y15240000D03*
X7620000Y15240000D03*
X5080000Y12700000D03*
X7620000Y12700000D03*
X5080000Y10160000D03*
X7620000Y10160000D03*
%TD*%
D13*
%TO.C,R1*%
X50800000Y27940000D03*
D18*
X58420000Y27940000D03*
%TD*%
%TO.C,R2*%
X25400000Y27940000D03*
D13*
X33020000Y27940000D03*
%TD*%
D19*
%TO.C,U1*%
X58420000Y17780000D03*
D20*
X58420000Y7620000D03*
X55880000Y17780000D03*
X55880000Y7620000D03*
X53340000Y17780000D03*
X53340000Y7620000D03*
X50800000Y17780000D03*
X50800000Y7620000D03*
X48260000Y17780000D03*
X48260000Y7620000D03*
X45720000Y17780000D03*
X45720000Y7620000D03*
X43180000Y17780000D03*
X43180000Y7620000D03*
X40640000Y17780000D03*
X40640000Y7620000D03*
X38100000Y17780000D03*
X38100000Y7620000D03*
X35560000Y17780000D03*
X35560000Y7620000D03*
X33020000Y17780000D03*
X33020000Y7620000D03*
X30480000Y17780000D03*
X30480000Y7620000D03*
X27940000Y17780000D03*
X27940000Y7620000D03*
X25400000Y17780000D03*
X25400000Y7620000D03*
%TD*%
M02*
