%TF.GenerationSoftware,KiCad,Pcbnew,5.1.6-c6e7f7d~86~ubuntu18.04.1*%
%TF.CreationDate,2020-05-25T18:42:42+02:00*%
%TF.ProjectId,atmega_prog_adapter_v1,61746d65-6761-45f7-9072-6f675f616461,1.0*%
%TF.SameCoordinates,PX60e4b00PY60e4b00*%
%TF.FileFunction,Legend,Bot*%
%TF.FilePolarity,Positive*%
%FSLAX46Y46*%
G04 Gerber Fmt 4.6, Leading zero omitted, Abs format (unit mm)*
G04 Created by KiCad (PCBNEW 5.1.6-c6e7f7d~86~ubuntu18.04.1) date 2020-05-25 18:42:42*
%MOMM*%
%LPD*%
G01*
G04 APERTURE LIST*
%ADD10C,1.702000*%
%ADD11R,1.902000X1.902000*%
%ADD12C,1.902000*%
%ADD13R,1.829200X1.829200*%
%ADD14O,1.829200X1.829200*%
%ADD15O,1.702000X1.702000*%
%ADD16R,1.542000X2.102000*%
%ADD17O,1.542000X2.102000*%
G04 APERTURE END LIST*
%LPC*%
D10*
%TO.C,C1*%
X45720000Y27940000D03*
X43220000Y27940000D03*
%TD*%
D11*
%TO.C,D1*%
X39370000Y27940000D03*
D12*
X36830000Y27940000D03*
%TD*%
D13*
%TO.C,J1*%
X5080000Y20320000D03*
D14*
X7620000Y20320000D03*
X5080000Y17780000D03*
X7620000Y17780000D03*
X5080000Y15240000D03*
X7620000Y15240000D03*
X5080000Y12700000D03*
X7620000Y12700000D03*
X5080000Y10160000D03*
X7620000Y10160000D03*
%TD*%
D10*
%TO.C,R1*%
X50800000Y27940000D03*
D15*
X58420000Y27940000D03*
%TD*%
%TO.C,R2*%
X25400000Y27940000D03*
D10*
X33020000Y27940000D03*
%TD*%
D16*
%TO.C,U1*%
X58420000Y17780000D03*
D17*
X58420000Y7620000D03*
X55880000Y17780000D03*
X55880000Y7620000D03*
X53340000Y17780000D03*
X53340000Y7620000D03*
X50800000Y17780000D03*
X50800000Y7620000D03*
X48260000Y17780000D03*
X48260000Y7620000D03*
X45720000Y17780000D03*
X45720000Y7620000D03*
X43180000Y17780000D03*
X43180000Y7620000D03*
X40640000Y17780000D03*
X40640000Y7620000D03*
X38100000Y17780000D03*
X38100000Y7620000D03*
X35560000Y17780000D03*
X35560000Y7620000D03*
X33020000Y17780000D03*
X33020000Y7620000D03*
X30480000Y17780000D03*
X30480000Y7620000D03*
X27940000Y17780000D03*
X27940000Y7620000D03*
X25400000Y17780000D03*
X25400000Y7620000D03*
%TD*%
M02*
