%TF.GenerationSoftware,KiCad,Pcbnew,5.1.6-c6e7f7d~86~ubuntu18.04.1*%
%TF.CreationDate,2020-05-25T18:42:42+02:00*%
%TF.ProjectId,atmega_prog_adapter_v1,61746d65-6761-45f7-9072-6f675f616461,1.0*%
%TF.SameCoordinates,PX60e4b00PY60e4b00*%
%TF.FileFunction,Other,User*%
%FSLAX46Y46*%
G04 Gerber Fmt 4.6, Leading zero omitted, Abs format (unit mm)*
G04 Created by KiCad (PCBNEW 5.1.6-c6e7f7d~86~ubuntu18.04.1) date 2020-05-25 18:42:42*
%MOMM*%
%LPD*%
G01*
G04 APERTURE LIST*
%ADD10C,0.050000*%
G04 APERTURE END LIST*
D10*
%TO.C,C1*%
X41720000Y26440000D02*
X47220000Y26440000D01*
X41720000Y29440000D02*
X41720000Y26440000D01*
X47220000Y29440000D02*
X41720000Y29440000D01*
X47220000Y26440000D02*
X47220000Y29440000D01*
%TO.C,D1*%
X35670000Y25690000D02*
X40520000Y25690000D01*
X35670000Y30190000D02*
X35670000Y25690000D01*
X40520000Y30190000D02*
X35670000Y30190000D01*
X40520000Y25690000D02*
X40520000Y30190000D01*
%TO.C,J1*%
X1670000Y25670000D02*
X11030000Y25670000D01*
X1670000Y4810000D02*
X1670000Y25670000D01*
X11030000Y4810000D02*
X1670000Y4810000D01*
X11030000Y25670000D02*
X11030000Y4810000D01*
%TO.C,R1*%
X59470000Y29440000D02*
X49750000Y29440000D01*
X59470000Y26440000D02*
X59470000Y29440000D01*
X49750000Y26440000D02*
X59470000Y26440000D01*
X49750000Y29440000D02*
X49750000Y26440000D01*
%TO.C,R2*%
X34070000Y26440000D02*
X34070000Y29440000D01*
X34070000Y29440000D02*
X24350000Y29440000D01*
X24350000Y29440000D02*
X24350000Y26440000D01*
X24350000Y26440000D02*
X34070000Y26440000D01*
%TO.C,U1*%
X61820000Y23280000D02*
X81780000Y23280000D01*
X61820000Y22100000D02*
X61820000Y23280000D01*
X17980000Y22100000D02*
X61820000Y22100000D01*
X17980000Y3300000D02*
X17980000Y22100000D01*
X69480000Y3300000D02*
X17980000Y3300000D01*
X69480000Y17680000D02*
X69480000Y3300000D01*
X81780000Y17680000D02*
X69480000Y17680000D01*
X81780000Y23280000D02*
X81780000Y17680000D01*
%TD*%
M02*
