M48
; DRILL file {KiCad 5.1.6-c6e7f7d~86~ubuntu18.04.1} date Mon May 25 18:42:52 2020
; FORMAT={-:-/ absolute / inch / decimal}
; #@! TF.CreationDate,2020-05-25T18:42:52+02:00
; #@! TF.GenerationSoftware,Kicad,Pcbnew,5.1.6-c6e7f7d~86~ubuntu18.04.1
FMAT,2
INCH
T1C0.0315
T2C0.0354
T3C0.0394
T4C0.0400
%
G90
G05
T1
X2.0Y1.1
X2.3Y1.1
X1.7016Y1.1
X1.8Y1.1
X1.0Y1.1
X1.3Y1.1
T2
X1.45Y1.1
X1.55Y1.1
T3
X1.0Y0.7
X1.0Y0.3
X1.1Y0.7
X1.1Y0.3
X1.2Y0.7
X1.2Y0.3
X1.3Y0.7
X1.3Y0.3
X1.4Y0.7
X1.4Y0.3
X1.5Y0.7
X1.5Y0.3
X1.6Y0.7
X1.6Y0.3
X1.7Y0.7
X1.7Y0.3
X1.8Y0.7
X1.8Y0.3
X1.9Y0.7
X1.9Y0.3
X2.0Y0.7
X2.0Y0.3
X2.1Y0.7
X2.1Y0.3
X2.2Y0.7
X2.2Y0.3
X2.3Y0.7
X2.3Y0.3
T4
X0.2Y0.8
X0.2Y0.7
X0.2Y0.6
X0.2Y0.5
X0.2Y0.4
X0.3Y0.8
X0.3Y0.7
X0.3Y0.6
X0.3Y0.5
X0.3Y0.4
T0
M30
