%TF.GenerationSoftware,KiCad,Pcbnew,5.1.4-3.fc30*%
%TF.CreationDate,2019-10-13T14:29:48+02:00*%
%TF.ProjectId,atmega_prog_adapter_v1,61746d65-6761-45f7-9072-6f675f616461,1.0*%
%TF.SameCoordinates,Original*%
%TF.FileFunction,Drawing*%
%FSLAX46Y46*%
G04 Gerber Fmt 4.6, Leading zero omitted, Abs format (unit mm)*
G04 Created by KiCad (PCBNEW 5.1.4-3.fc30) date 2019-10-13 14:29:48*
%MOMM*%
%LPD*%
G04 APERTURE LIST*
%ADD10C,0.150000*%
G04 APERTURE END LIST*
D10*
X191252380Y-89280476D02*
X191252380Y-88661428D01*
X191633333Y-88994761D01*
X191633333Y-88851904D01*
X191680952Y-88756666D01*
X191728571Y-88709047D01*
X191823809Y-88661428D01*
X192061904Y-88661428D01*
X192157142Y-88709047D01*
X192204761Y-88756666D01*
X192252380Y-88851904D01*
X192252380Y-89137619D01*
X192204761Y-89232857D01*
X192157142Y-89280476D01*
X191252380Y-88328095D02*
X191252380Y-87709047D01*
X191633333Y-88042380D01*
X191633333Y-87899523D01*
X191680952Y-87804285D01*
X191728571Y-87756666D01*
X191823809Y-87709047D01*
X192061904Y-87709047D01*
X192157142Y-87756666D01*
X192204761Y-87804285D01*
X192252380Y-87899523D01*
X192252380Y-88185238D01*
X192204761Y-88280476D01*
X192157142Y-88328095D01*
X192204761Y-87232857D02*
X192252380Y-87232857D01*
X192347619Y-87280476D01*
X192395238Y-87328095D01*
X191252380Y-86613809D02*
X191252380Y-86518571D01*
X191300000Y-86423333D01*
X191347619Y-86375714D01*
X191442857Y-86328095D01*
X191633333Y-86280476D01*
X191871428Y-86280476D01*
X192061904Y-86328095D01*
X192157142Y-86375714D01*
X192204761Y-86423333D01*
X192252380Y-86518571D01*
X192252380Y-86613809D01*
X192204761Y-86709047D01*
X192157142Y-86756666D01*
X192061904Y-86804285D01*
X191871428Y-86851904D01*
X191633333Y-86851904D01*
X191442857Y-86804285D01*
X191347619Y-86756666D01*
X191300000Y-86709047D01*
X191252380Y-86613809D01*
X191347619Y-85899523D02*
X191300000Y-85851904D01*
X191252380Y-85756666D01*
X191252380Y-85518571D01*
X191300000Y-85423333D01*
X191347619Y-85375714D01*
X191442857Y-85328095D01*
X191538095Y-85328095D01*
X191680952Y-85375714D01*
X192252380Y-85947142D01*
X192252380Y-85328095D01*
X191252380Y-84709047D02*
X191252380Y-84613809D01*
X191300000Y-84518571D01*
X191347619Y-84470952D01*
X191442857Y-84423333D01*
X191633333Y-84375714D01*
X191871428Y-84375714D01*
X192061904Y-84423333D01*
X192157142Y-84470952D01*
X192204761Y-84518571D01*
X192252380Y-84613809D01*
X192252380Y-84709047D01*
X192204761Y-84804285D01*
X192157142Y-84851904D01*
X192061904Y-84899523D01*
X191871428Y-84947142D01*
X191633333Y-84947142D01*
X191442857Y-84899523D01*
X191347619Y-84851904D01*
X191300000Y-84804285D01*
X191252380Y-84709047D01*
X192252380Y-83185238D02*
X191585714Y-83185238D01*
X191680952Y-83185238D02*
X191633333Y-83137619D01*
X191585714Y-83042380D01*
X191585714Y-82899523D01*
X191633333Y-82804285D01*
X191728571Y-82756666D01*
X192252380Y-82756666D01*
X191728571Y-82756666D02*
X191633333Y-82709047D01*
X191585714Y-82613809D01*
X191585714Y-82470952D01*
X191633333Y-82375714D01*
X191728571Y-82328095D01*
X192252380Y-82328095D01*
X192252380Y-81851904D02*
X191585714Y-81851904D01*
X191680952Y-81851904D02*
X191633333Y-81804285D01*
X191585714Y-81709047D01*
X191585714Y-81566190D01*
X191633333Y-81470952D01*
X191728571Y-81423333D01*
X192252380Y-81423333D01*
X191728571Y-81423333D02*
X191633333Y-81375714D01*
X191585714Y-81280476D01*
X191585714Y-81137619D01*
X191633333Y-81042380D01*
X191728571Y-80994761D01*
X192252380Y-80994761D01*
X190500000Y-101600000D02*
X190500000Y-68580000D01*
X185420000Y-101600000D02*
X191086421Y-101600000D01*
X185420000Y-68580000D02*
X191086421Y-68580000D01*
X190500000Y-68580000D02*
X191086421Y-69706504D01*
X190500000Y-68580000D02*
X189913579Y-69706504D01*
X190500000Y-101600000D02*
X191086421Y-100473496D01*
X190500000Y-101600000D02*
X189913579Y-100473496D01*
X139557619Y-107860952D02*
X139462380Y-107813333D01*
X139414761Y-107765714D01*
X139367142Y-107670476D01*
X139367142Y-107622857D01*
X139414761Y-107527619D01*
X139462380Y-107480000D01*
X139557619Y-107432380D01*
X139748095Y-107432380D01*
X139843333Y-107480000D01*
X139890952Y-107527619D01*
X139938571Y-107622857D01*
X139938571Y-107670476D01*
X139890952Y-107765714D01*
X139843333Y-107813333D01*
X139748095Y-107860952D01*
X139557619Y-107860952D01*
X139462380Y-107908571D01*
X139414761Y-107956190D01*
X139367142Y-108051428D01*
X139367142Y-108241904D01*
X139414761Y-108337142D01*
X139462380Y-108384761D01*
X139557619Y-108432380D01*
X139748095Y-108432380D01*
X139843333Y-108384761D01*
X139890952Y-108337142D01*
X139938571Y-108241904D01*
X139938571Y-108051428D01*
X139890952Y-107956190D01*
X139843333Y-107908571D01*
X139748095Y-107860952D01*
X140271904Y-107432380D02*
X140890952Y-107432380D01*
X140557619Y-107813333D01*
X140700476Y-107813333D01*
X140795714Y-107860952D01*
X140843333Y-107908571D01*
X140890952Y-108003809D01*
X140890952Y-108241904D01*
X140843333Y-108337142D01*
X140795714Y-108384761D01*
X140700476Y-108432380D01*
X140414761Y-108432380D01*
X140319523Y-108384761D01*
X140271904Y-108337142D01*
X141367142Y-108384761D02*
X141367142Y-108432380D01*
X141319523Y-108527619D01*
X141271904Y-108575238D01*
X141938571Y-107860952D02*
X141843333Y-107813333D01*
X141795714Y-107765714D01*
X141748095Y-107670476D01*
X141748095Y-107622857D01*
X141795714Y-107527619D01*
X141843333Y-107480000D01*
X141938571Y-107432380D01*
X142129047Y-107432380D01*
X142224285Y-107480000D01*
X142271904Y-107527619D01*
X142319523Y-107622857D01*
X142319523Y-107670476D01*
X142271904Y-107765714D01*
X142224285Y-107813333D01*
X142129047Y-107860952D01*
X141938571Y-107860952D01*
X141843333Y-107908571D01*
X141795714Y-107956190D01*
X141748095Y-108051428D01*
X141748095Y-108241904D01*
X141795714Y-108337142D01*
X141843333Y-108384761D01*
X141938571Y-108432380D01*
X142129047Y-108432380D01*
X142224285Y-108384761D01*
X142271904Y-108337142D01*
X142319523Y-108241904D01*
X142319523Y-108051428D01*
X142271904Y-107956190D01*
X142224285Y-107908571D01*
X142129047Y-107860952D01*
X142700476Y-107527619D02*
X142748095Y-107480000D01*
X142843333Y-107432380D01*
X143081428Y-107432380D01*
X143176666Y-107480000D01*
X143224285Y-107527619D01*
X143271904Y-107622857D01*
X143271904Y-107718095D01*
X143224285Y-107860952D01*
X142652857Y-108432380D01*
X143271904Y-108432380D01*
X143890952Y-107432380D02*
X143986190Y-107432380D01*
X144081428Y-107480000D01*
X144129047Y-107527619D01*
X144176666Y-107622857D01*
X144224285Y-107813333D01*
X144224285Y-108051428D01*
X144176666Y-108241904D01*
X144129047Y-108337142D01*
X144081428Y-108384761D01*
X143986190Y-108432380D01*
X143890952Y-108432380D01*
X143795714Y-108384761D01*
X143748095Y-108337142D01*
X143700476Y-108241904D01*
X143652857Y-108051428D01*
X143652857Y-107813333D01*
X143700476Y-107622857D01*
X143748095Y-107527619D01*
X143795714Y-107480000D01*
X143890952Y-107432380D01*
X145414761Y-108432380D02*
X145414761Y-107765714D01*
X145414761Y-107860952D02*
X145462380Y-107813333D01*
X145557619Y-107765714D01*
X145700476Y-107765714D01*
X145795714Y-107813333D01*
X145843333Y-107908571D01*
X145843333Y-108432380D01*
X145843333Y-107908571D02*
X145890952Y-107813333D01*
X145986190Y-107765714D01*
X146129047Y-107765714D01*
X146224285Y-107813333D01*
X146271904Y-107908571D01*
X146271904Y-108432380D01*
X146748095Y-108432380D02*
X146748095Y-107765714D01*
X146748095Y-107860952D02*
X146795714Y-107813333D01*
X146890952Y-107765714D01*
X147033809Y-107765714D01*
X147129047Y-107813333D01*
X147176666Y-107908571D01*
X147176666Y-108432380D01*
X147176666Y-107908571D02*
X147224285Y-107813333D01*
X147319523Y-107765714D01*
X147462380Y-107765714D01*
X147557619Y-107813333D01*
X147605238Y-107908571D01*
X147605238Y-108432380D01*
X101600000Y-106680000D02*
X185420000Y-106680000D01*
X101600000Y-101600000D02*
X101600000Y-107266421D01*
X185420000Y-101600000D02*
X185420000Y-107266421D01*
X185420000Y-106680000D02*
X184293496Y-107266421D01*
X185420000Y-106680000D02*
X184293496Y-106093579D01*
X101600000Y-106680000D02*
X102726504Y-107266421D01*
X101600000Y-106680000D02*
X102726504Y-106093579D01*
M02*
