%TF.GenerationSoftware,KiCad,Pcbnew,5.1.6-c6e7f7d~86~ubuntu18.04.1*%
%TF.CreationDate,2020-05-25T18:43:36+02:00*%
%TF.ProjectId,atmega_prog_adapter_v2,61746d65-6761-45f7-9072-6f675f616461,1.0*%
%TF.SameCoordinates,PX54c81a0PY68290a0*%
%TF.FileFunction,OtherDrawing,Comment*%
%FSLAX46Y46*%
G04 Gerber Fmt 4.6, Leading zero omitted, Abs format (unit mm)*
G04 Created by KiCad (PCBNEW 5.1.6-c6e7f7d~86~ubuntu18.04.1) date 2020-05-25 18:43:36*
%MOMM*%
%LPD*%
G01*
G04 APERTURE LIST*
%ADD10C,0.150000*%
G04 APERTURE END LIST*
D10*
X87445714Y17923334D02*
X88112380Y17923334D01*
X87064761Y17685239D02*
X87779047Y17447143D01*
X87779047Y18066191D01*
X87112380Y18351905D02*
X87112380Y18970953D01*
X87493333Y18637620D01*
X87493333Y18780477D01*
X87540952Y18875715D01*
X87588571Y18923334D01*
X87683809Y18970953D01*
X87921904Y18970953D01*
X88017142Y18923334D01*
X88064761Y18875715D01*
X88112380Y18780477D01*
X88112380Y18494762D01*
X88064761Y18399524D01*
X88017142Y18351905D01*
X88064761Y19447143D02*
X88112380Y19447143D01*
X88207619Y19399524D01*
X88255238Y19351905D01*
X88112380Y20399524D02*
X88112380Y19828096D01*
X88112380Y20113810D02*
X87112380Y20113810D01*
X87255238Y20018572D01*
X87350476Y19923334D01*
X87398095Y19828096D01*
X87540952Y20970953D02*
X87493333Y20875715D01*
X87445714Y20828096D01*
X87350476Y20780477D01*
X87302857Y20780477D01*
X87207619Y20828096D01*
X87160000Y20875715D01*
X87112380Y20970953D01*
X87112380Y21161429D01*
X87160000Y21256667D01*
X87207619Y21304286D01*
X87302857Y21351905D01*
X87350476Y21351905D01*
X87445714Y21304286D01*
X87493333Y21256667D01*
X87540952Y21161429D01*
X87540952Y20970953D01*
X87588571Y20875715D01*
X87636190Y20828096D01*
X87731428Y20780477D01*
X87921904Y20780477D01*
X88017142Y20828096D01*
X88064761Y20875715D01*
X88112380Y20970953D01*
X88112380Y21161429D01*
X88064761Y21256667D01*
X88017142Y21304286D01*
X87921904Y21351905D01*
X87731428Y21351905D01*
X87636190Y21304286D01*
X87588571Y21256667D01*
X87540952Y21161429D01*
X87112380Y21970953D02*
X87112380Y22066191D01*
X87160000Y22161429D01*
X87207619Y22209048D01*
X87302857Y22256667D01*
X87493333Y22304286D01*
X87731428Y22304286D01*
X87921904Y22256667D01*
X88017142Y22209048D01*
X88064761Y22161429D01*
X88112380Y22066191D01*
X88112380Y21970953D01*
X88064761Y21875715D01*
X88017142Y21828096D01*
X87921904Y21780477D01*
X87731428Y21732858D01*
X87493333Y21732858D01*
X87302857Y21780477D01*
X87207619Y21828096D01*
X87160000Y21875715D01*
X87112380Y21970953D01*
X88112380Y23494762D02*
X87445714Y23494762D01*
X87540952Y23494762D02*
X87493333Y23542381D01*
X87445714Y23637620D01*
X87445714Y23780477D01*
X87493333Y23875715D01*
X87588571Y23923334D01*
X88112380Y23923334D01*
X87588571Y23923334D02*
X87493333Y23970953D01*
X87445714Y24066191D01*
X87445714Y24209048D01*
X87493333Y24304286D01*
X87588571Y24351905D01*
X88112380Y24351905D01*
X88112380Y24828096D02*
X87445714Y24828096D01*
X87540952Y24828096D02*
X87493333Y24875715D01*
X87445714Y24970953D01*
X87445714Y25113810D01*
X87493333Y25209048D01*
X87588571Y25256667D01*
X88112380Y25256667D01*
X87588571Y25256667D02*
X87493333Y25304286D01*
X87445714Y25399524D01*
X87445714Y25542381D01*
X87493333Y25637620D01*
X87588571Y25685239D01*
X88112380Y25685239D01*
X86360000Y0D02*
X86360000Y43180000D01*
X81280000Y0D02*
X86946421Y0D01*
X81280000Y43180000D02*
X86946421Y43180000D01*
X86360000Y43180000D02*
X86946421Y42053496D01*
X86360000Y43180000D02*
X85773579Y42053496D01*
X86360000Y0D02*
X86946421Y1126504D01*
X86360000Y0D02*
X85773579Y1126504D01*
X36687619Y-6260952D02*
X36592380Y-6213333D01*
X36544761Y-6165714D01*
X36497142Y-6070476D01*
X36497142Y-6022857D01*
X36544761Y-5927619D01*
X36592380Y-5880000D01*
X36687619Y-5832380D01*
X36878095Y-5832380D01*
X36973333Y-5880000D01*
X37020952Y-5927619D01*
X37068571Y-6022857D01*
X37068571Y-6070476D01*
X37020952Y-6165714D01*
X36973333Y-6213333D01*
X36878095Y-6260952D01*
X36687619Y-6260952D01*
X36592380Y-6308571D01*
X36544761Y-6356190D01*
X36497142Y-6451428D01*
X36497142Y-6641904D01*
X36544761Y-6737142D01*
X36592380Y-6784761D01*
X36687619Y-6832380D01*
X36878095Y-6832380D01*
X36973333Y-6784761D01*
X37020952Y-6737142D01*
X37068571Y-6641904D01*
X37068571Y-6451428D01*
X37020952Y-6356190D01*
X36973333Y-6308571D01*
X36878095Y-6260952D01*
X38020952Y-6832380D02*
X37449523Y-6832380D01*
X37735238Y-6832380D02*
X37735238Y-5832380D01*
X37640000Y-5975238D01*
X37544761Y-6070476D01*
X37449523Y-6118095D01*
X38497142Y-6784761D02*
X38497142Y-6832380D01*
X38449523Y-6927619D01*
X38401904Y-6975238D01*
X38878095Y-5927619D02*
X38925714Y-5880000D01*
X39020952Y-5832380D01*
X39259047Y-5832380D01*
X39354285Y-5880000D01*
X39401904Y-5927619D01*
X39449523Y-6022857D01*
X39449523Y-6118095D01*
X39401904Y-6260952D01*
X38830476Y-6832380D01*
X39449523Y-6832380D01*
X40020952Y-6260952D02*
X39925714Y-6213333D01*
X39878095Y-6165714D01*
X39830476Y-6070476D01*
X39830476Y-6022857D01*
X39878095Y-5927619D01*
X39925714Y-5880000D01*
X40020952Y-5832380D01*
X40211428Y-5832380D01*
X40306666Y-5880000D01*
X40354285Y-5927619D01*
X40401904Y-6022857D01*
X40401904Y-6070476D01*
X40354285Y-6165714D01*
X40306666Y-6213333D01*
X40211428Y-6260952D01*
X40020952Y-6260952D01*
X39925714Y-6308571D01*
X39878095Y-6356190D01*
X39830476Y-6451428D01*
X39830476Y-6641904D01*
X39878095Y-6737142D01*
X39925714Y-6784761D01*
X40020952Y-6832380D01*
X40211428Y-6832380D01*
X40306666Y-6784761D01*
X40354285Y-6737142D01*
X40401904Y-6641904D01*
X40401904Y-6451428D01*
X40354285Y-6356190D01*
X40306666Y-6308571D01*
X40211428Y-6260952D01*
X41020952Y-5832380D02*
X41116190Y-5832380D01*
X41211428Y-5880000D01*
X41259047Y-5927619D01*
X41306666Y-6022857D01*
X41354285Y-6213333D01*
X41354285Y-6451428D01*
X41306666Y-6641904D01*
X41259047Y-6737142D01*
X41211428Y-6784761D01*
X41116190Y-6832380D01*
X41020952Y-6832380D01*
X40925714Y-6784761D01*
X40878095Y-6737142D01*
X40830476Y-6641904D01*
X40782857Y-6451428D01*
X40782857Y-6213333D01*
X40830476Y-6022857D01*
X40878095Y-5927619D01*
X40925714Y-5880000D01*
X41020952Y-5832380D01*
X42544761Y-6832380D02*
X42544761Y-6165714D01*
X42544761Y-6260952D02*
X42592380Y-6213333D01*
X42687619Y-6165714D01*
X42830476Y-6165714D01*
X42925714Y-6213333D01*
X42973333Y-6308571D01*
X42973333Y-6832380D01*
X42973333Y-6308571D02*
X43020952Y-6213333D01*
X43116190Y-6165714D01*
X43259047Y-6165714D01*
X43354285Y-6213333D01*
X43401904Y-6308571D01*
X43401904Y-6832380D01*
X43878095Y-6832380D02*
X43878095Y-6165714D01*
X43878095Y-6260952D02*
X43925714Y-6213333D01*
X44020952Y-6165714D01*
X44163809Y-6165714D01*
X44259047Y-6213333D01*
X44306666Y-6308571D01*
X44306666Y-6832380D01*
X44306666Y-6308571D02*
X44354285Y-6213333D01*
X44449523Y-6165714D01*
X44592380Y-6165714D01*
X44687619Y-6213333D01*
X44735238Y-6308571D01*
X44735238Y-6832380D01*
X0Y-5080000D02*
X81280000Y-5080000D01*
X0Y0D02*
X0Y-5666421D01*
X81280000Y0D02*
X81280000Y-5666421D01*
X81280000Y-5080000D02*
X80153496Y-5666421D01*
X81280000Y-5080000D02*
X80153496Y-4493579D01*
X0Y-5080000D02*
X1126504Y-5666421D01*
X0Y-5080000D02*
X1126504Y-4493579D01*
M02*
