%TF.GenerationSoftware,KiCad,Pcbnew,5.1.6-c6e7f7d~86~ubuntu18.04.1*%
%TF.CreationDate,2020-05-25T18:43:36+02:00*%
%TF.ProjectId,atmega_prog_adapter_v2,61746d65-6761-45f7-9072-6f675f616461,1.0*%
%TF.SameCoordinates,PX54c81a0PY68290a0*%
%TF.FileFunction,Soldermask,Top*%
%TF.FilePolarity,Negative*%
%FSLAX46Y46*%
G04 Gerber Fmt 4.6, Leading zero omitted, Abs format (unit mm)*
G04 Created by KiCad (PCBNEW 5.1.6-c6e7f7d~86~ubuntu18.04.1) date 2020-05-25 18:43:36*
%MOMM*%
%LPD*%
G01*
G04 APERTURE LIST*
%ADD10C,0.150000*%
G04 APERTURE END LIST*
D10*
G36*
X42118228Y4628297D02*
G01*
X42273100Y4564147D01*
X42412481Y4471015D01*
X42531015Y4352481D01*
X42624147Y4213100D01*
X42688297Y4058228D01*
X42721000Y3893816D01*
X42721000Y3726184D01*
X42688297Y3561772D01*
X42624147Y3406900D01*
X42531015Y3267519D01*
X42412481Y3148985D01*
X42273100Y3055853D01*
X42118228Y2991703D01*
X41953816Y2959000D01*
X41786184Y2959000D01*
X41621772Y2991703D01*
X41466900Y3055853D01*
X41327519Y3148985D01*
X41208985Y3267519D01*
X41115853Y3406900D01*
X41051703Y3561772D01*
X41019000Y3726184D01*
X41019000Y3893816D01*
X41051703Y4058228D01*
X41115853Y4213100D01*
X41208985Y4352481D01*
X41327519Y4471015D01*
X41466900Y4564147D01*
X41621772Y4628297D01*
X41786184Y4661000D01*
X41953816Y4661000D01*
X42118228Y4628297D01*
G37*
G36*
X39618228Y4628297D02*
G01*
X39773100Y4564147D01*
X39912481Y4471015D01*
X40031015Y4352481D01*
X40124147Y4213100D01*
X40188297Y4058228D01*
X40221000Y3893816D01*
X40221000Y3726184D01*
X40188297Y3561772D01*
X40124147Y3406900D01*
X40031015Y3267519D01*
X39912481Y3148985D01*
X39773100Y3055853D01*
X39618228Y2991703D01*
X39453816Y2959000D01*
X39286184Y2959000D01*
X39121772Y2991703D01*
X38966900Y3055853D01*
X38827519Y3148985D01*
X38708985Y3267519D01*
X38615853Y3406900D01*
X38551703Y3561772D01*
X38519000Y3726184D01*
X38519000Y3893816D01*
X38551703Y4058228D01*
X38615853Y4213100D01*
X38708985Y4352481D01*
X38827519Y4471015D01*
X38966900Y4564147D01*
X39121772Y4628297D01*
X39286184Y4661000D01*
X39453816Y4661000D01*
X39618228Y4628297D01*
G37*
G36*
X26821142Y12619844D02*
G01*
X26966476Y12575757D01*
X26966479Y12575756D01*
X27100416Y12504165D01*
X27217817Y12407817D01*
X27314165Y12290416D01*
X27385756Y12156479D01*
X27385757Y12156476D01*
X27429844Y12011142D01*
X27441000Y11897872D01*
X27441000Y11262128D01*
X27429844Y11148858D01*
X27385757Y11003525D01*
X27385756Y11003521D01*
X27314165Y10869584D01*
X27314164Y10869583D01*
X27217817Y10752183D01*
X27118268Y10670486D01*
X27100415Y10655835D01*
X26966478Y10584244D01*
X26966475Y10584243D01*
X26821141Y10540156D01*
X26670000Y10525270D01*
X26518858Y10540156D01*
X26373524Y10584243D01*
X26373521Y10584244D01*
X26239584Y10655835D01*
X26218531Y10673113D01*
X26122183Y10752183D01*
X26025836Y10869584D01*
X25954245Y11003521D01*
X25954244Y11003522D01*
X25954243Y11003525D01*
X25910156Y11148859D01*
X25899000Y11262129D01*
X25899000Y11897872D01*
X25910156Y12011142D01*
X25954243Y12156476D01*
X25954243Y12156477D01*
X26025837Y12290418D01*
X26122184Y12407817D01*
X26239585Y12504165D01*
X26373522Y12575756D01*
X26373525Y12575757D01*
X26518859Y12619844D01*
X26670000Y12634730D01*
X26821142Y12619844D01*
G37*
G36*
X31901142Y12619844D02*
G01*
X32046476Y12575757D01*
X32046479Y12575756D01*
X32180416Y12504165D01*
X32297817Y12407817D01*
X32394165Y12290416D01*
X32465756Y12156479D01*
X32465757Y12156476D01*
X32509844Y12011142D01*
X32521000Y11897872D01*
X32521000Y11262128D01*
X32509844Y11148858D01*
X32465757Y11003525D01*
X32465756Y11003521D01*
X32394165Y10869584D01*
X32394164Y10869583D01*
X32297817Y10752183D01*
X32198268Y10670486D01*
X32180415Y10655835D01*
X32046478Y10584244D01*
X32046475Y10584243D01*
X31901141Y10540156D01*
X31750000Y10525270D01*
X31598858Y10540156D01*
X31453524Y10584243D01*
X31453521Y10584244D01*
X31319584Y10655835D01*
X31298531Y10673113D01*
X31202183Y10752183D01*
X31105836Y10869584D01*
X31034245Y11003521D01*
X31034244Y11003522D01*
X31034243Y11003525D01*
X30990156Y11148859D01*
X30979000Y11262129D01*
X30979000Y11897872D01*
X30990156Y12011142D01*
X31034243Y12156476D01*
X31034243Y12156477D01*
X31105837Y12290418D01*
X31202184Y12407817D01*
X31319585Y12504165D01*
X31453522Y12575756D01*
X31453525Y12575757D01*
X31598859Y12619844D01*
X31750000Y12634730D01*
X31901142Y12619844D01*
G37*
G36*
X34441142Y12619844D02*
G01*
X34586476Y12575757D01*
X34586479Y12575756D01*
X34720416Y12504165D01*
X34837817Y12407817D01*
X34934165Y12290416D01*
X35005756Y12156479D01*
X35005757Y12156476D01*
X35049844Y12011142D01*
X35061000Y11897872D01*
X35061000Y11262128D01*
X35049844Y11148858D01*
X35005757Y11003525D01*
X35005756Y11003521D01*
X34934165Y10869584D01*
X34934164Y10869583D01*
X34837817Y10752183D01*
X34738268Y10670486D01*
X34720415Y10655835D01*
X34586478Y10584244D01*
X34586475Y10584243D01*
X34441141Y10540156D01*
X34290000Y10525270D01*
X34138858Y10540156D01*
X33993524Y10584243D01*
X33993521Y10584244D01*
X33859584Y10655835D01*
X33838531Y10673113D01*
X33742183Y10752183D01*
X33645836Y10869584D01*
X33574245Y11003521D01*
X33574244Y11003522D01*
X33574243Y11003525D01*
X33530156Y11148859D01*
X33519000Y11262129D01*
X33519000Y11897872D01*
X33530156Y12011142D01*
X33574243Y12156476D01*
X33574243Y12156477D01*
X33645837Y12290418D01*
X33742184Y12407817D01*
X33859585Y12504165D01*
X33993522Y12575756D01*
X33993525Y12575757D01*
X34138859Y12619844D01*
X34290000Y12634730D01*
X34441142Y12619844D01*
G37*
G36*
X36981142Y12619844D02*
G01*
X37126476Y12575757D01*
X37126479Y12575756D01*
X37260416Y12504165D01*
X37377817Y12407817D01*
X37474165Y12290416D01*
X37545756Y12156479D01*
X37545757Y12156476D01*
X37589844Y12011142D01*
X37601000Y11897872D01*
X37601000Y11262128D01*
X37589844Y11148858D01*
X37545757Y11003525D01*
X37545756Y11003521D01*
X37474165Y10869584D01*
X37474164Y10869583D01*
X37377817Y10752183D01*
X37278268Y10670486D01*
X37260415Y10655835D01*
X37126478Y10584244D01*
X37126475Y10584243D01*
X36981141Y10540156D01*
X36830000Y10525270D01*
X36678858Y10540156D01*
X36533524Y10584243D01*
X36533521Y10584244D01*
X36399584Y10655835D01*
X36378531Y10673113D01*
X36282183Y10752183D01*
X36185836Y10869584D01*
X36114245Y11003521D01*
X36114244Y11003522D01*
X36114243Y11003525D01*
X36070156Y11148859D01*
X36059000Y11262129D01*
X36059000Y11897872D01*
X36070156Y12011142D01*
X36114243Y12156476D01*
X36114243Y12156477D01*
X36185837Y12290418D01*
X36282184Y12407817D01*
X36399585Y12504165D01*
X36533522Y12575756D01*
X36533525Y12575757D01*
X36678859Y12619844D01*
X36830000Y12634730D01*
X36981142Y12619844D01*
G37*
G36*
X39521142Y12619844D02*
G01*
X39666476Y12575757D01*
X39666479Y12575756D01*
X39800416Y12504165D01*
X39917817Y12407817D01*
X40014165Y12290416D01*
X40085756Y12156479D01*
X40085757Y12156476D01*
X40129844Y12011142D01*
X40141000Y11897872D01*
X40141000Y11262128D01*
X40129844Y11148858D01*
X40085757Y11003525D01*
X40085756Y11003521D01*
X40014165Y10869584D01*
X40014164Y10869583D01*
X39917817Y10752183D01*
X39818268Y10670486D01*
X39800415Y10655835D01*
X39666478Y10584244D01*
X39666475Y10584243D01*
X39521141Y10540156D01*
X39370000Y10525270D01*
X39218858Y10540156D01*
X39073524Y10584243D01*
X39073521Y10584244D01*
X38939584Y10655835D01*
X38918531Y10673113D01*
X38822183Y10752183D01*
X38725836Y10869584D01*
X38654245Y11003521D01*
X38654244Y11003522D01*
X38654243Y11003525D01*
X38610156Y11148859D01*
X38599000Y11262129D01*
X38599000Y11897872D01*
X38610156Y12011142D01*
X38654243Y12156476D01*
X38654243Y12156477D01*
X38725837Y12290418D01*
X38822184Y12407817D01*
X38939585Y12504165D01*
X39073522Y12575756D01*
X39073525Y12575757D01*
X39218859Y12619844D01*
X39370000Y12634730D01*
X39521142Y12619844D01*
G37*
G36*
X29361142Y12619844D02*
G01*
X29506476Y12575757D01*
X29506479Y12575756D01*
X29640416Y12504165D01*
X29757817Y12407817D01*
X29854165Y12290416D01*
X29925756Y12156479D01*
X29925757Y12156476D01*
X29969844Y12011142D01*
X29981000Y11897872D01*
X29981000Y11262128D01*
X29969844Y11148858D01*
X29925757Y11003525D01*
X29925756Y11003521D01*
X29854165Y10869584D01*
X29854164Y10869583D01*
X29757817Y10752183D01*
X29658268Y10670486D01*
X29640415Y10655835D01*
X29506478Y10584244D01*
X29506475Y10584243D01*
X29361141Y10540156D01*
X29210000Y10525270D01*
X29058858Y10540156D01*
X28913524Y10584243D01*
X28913521Y10584244D01*
X28779584Y10655835D01*
X28758531Y10673113D01*
X28662183Y10752183D01*
X28565836Y10869584D01*
X28494245Y11003521D01*
X28494244Y11003522D01*
X28494243Y11003525D01*
X28450156Y11148859D01*
X28439000Y11262129D01*
X28439000Y11897872D01*
X28450156Y12011142D01*
X28494243Y12156476D01*
X28494243Y12156477D01*
X28565837Y12290418D01*
X28662184Y12407817D01*
X28779585Y12504165D01*
X28913522Y12575756D01*
X28913525Y12575757D01*
X29058859Y12619844D01*
X29210000Y12634730D01*
X29361142Y12619844D01*
G37*
G36*
X44601142Y12619844D02*
G01*
X44746476Y12575757D01*
X44746479Y12575756D01*
X44880416Y12504165D01*
X44997817Y12407817D01*
X45094165Y12290416D01*
X45165756Y12156479D01*
X45165757Y12156476D01*
X45209844Y12011142D01*
X45221000Y11897872D01*
X45221000Y11262128D01*
X45209844Y11148858D01*
X45165757Y11003525D01*
X45165756Y11003521D01*
X45094165Y10869584D01*
X45094164Y10869583D01*
X44997817Y10752183D01*
X44898268Y10670486D01*
X44880415Y10655835D01*
X44746478Y10584244D01*
X44746475Y10584243D01*
X44601141Y10540156D01*
X44450000Y10525270D01*
X44298858Y10540156D01*
X44153524Y10584243D01*
X44153521Y10584244D01*
X44019584Y10655835D01*
X43998531Y10673113D01*
X43902183Y10752183D01*
X43805836Y10869584D01*
X43734245Y11003521D01*
X43734244Y11003522D01*
X43734243Y11003525D01*
X43690156Y11148859D01*
X43679000Y11262129D01*
X43679000Y11897872D01*
X43690156Y12011142D01*
X43734243Y12156476D01*
X43734243Y12156477D01*
X43805837Y12290418D01*
X43902184Y12407817D01*
X44019585Y12504165D01*
X44153522Y12575756D01*
X44153525Y12575757D01*
X44298859Y12619844D01*
X44450000Y12634730D01*
X44601142Y12619844D01*
G37*
G36*
X49681142Y12619844D02*
G01*
X49826476Y12575757D01*
X49826479Y12575756D01*
X49960416Y12504165D01*
X50077817Y12407817D01*
X50174165Y12290416D01*
X50245756Y12156479D01*
X50245757Y12156476D01*
X50289844Y12011142D01*
X50301000Y11897872D01*
X50301000Y11262128D01*
X50289844Y11148858D01*
X50245757Y11003525D01*
X50245756Y11003521D01*
X50174165Y10869584D01*
X50174164Y10869583D01*
X50077817Y10752183D01*
X49978268Y10670486D01*
X49960415Y10655835D01*
X49826478Y10584244D01*
X49826475Y10584243D01*
X49681141Y10540156D01*
X49530000Y10525270D01*
X49378858Y10540156D01*
X49233524Y10584243D01*
X49233521Y10584244D01*
X49099584Y10655835D01*
X49078531Y10673113D01*
X48982183Y10752183D01*
X48885836Y10869584D01*
X48814245Y11003521D01*
X48814244Y11003522D01*
X48814243Y11003525D01*
X48770156Y11148859D01*
X48759000Y11262129D01*
X48759000Y11897872D01*
X48770156Y12011142D01*
X48814243Y12156476D01*
X48814243Y12156477D01*
X48885837Y12290418D01*
X48982184Y12407817D01*
X49099585Y12504165D01*
X49233522Y12575756D01*
X49233525Y12575757D01*
X49378859Y12619844D01*
X49530000Y12634730D01*
X49681142Y12619844D01*
G37*
G36*
X52221142Y12619844D02*
G01*
X52366476Y12575757D01*
X52366479Y12575756D01*
X52500416Y12504165D01*
X52617817Y12407817D01*
X52714165Y12290416D01*
X52785756Y12156479D01*
X52785757Y12156476D01*
X52829844Y12011142D01*
X52841000Y11897872D01*
X52841000Y11262128D01*
X52829844Y11148858D01*
X52785757Y11003525D01*
X52785756Y11003521D01*
X52714165Y10869584D01*
X52714164Y10869583D01*
X52617817Y10752183D01*
X52518268Y10670486D01*
X52500415Y10655835D01*
X52366478Y10584244D01*
X52366475Y10584243D01*
X52221141Y10540156D01*
X52070000Y10525270D01*
X51918858Y10540156D01*
X51773524Y10584243D01*
X51773521Y10584244D01*
X51639584Y10655835D01*
X51618531Y10673113D01*
X51522183Y10752183D01*
X51425836Y10869584D01*
X51354245Y11003521D01*
X51354244Y11003522D01*
X51354243Y11003525D01*
X51310156Y11148859D01*
X51299000Y11262129D01*
X51299000Y11897872D01*
X51310156Y12011142D01*
X51354243Y12156476D01*
X51354243Y12156477D01*
X51425837Y12290418D01*
X51522184Y12407817D01*
X51639585Y12504165D01*
X51773522Y12575756D01*
X51773525Y12575757D01*
X51918859Y12619844D01*
X52070000Y12634730D01*
X52221142Y12619844D01*
G37*
G36*
X54761142Y12619844D02*
G01*
X54906476Y12575757D01*
X54906479Y12575756D01*
X55040416Y12504165D01*
X55157817Y12407817D01*
X55254165Y12290416D01*
X55325756Y12156479D01*
X55325757Y12156476D01*
X55369844Y12011142D01*
X55381000Y11897872D01*
X55381000Y11262128D01*
X55369844Y11148858D01*
X55325757Y11003525D01*
X55325756Y11003521D01*
X55254165Y10869584D01*
X55254164Y10869583D01*
X55157817Y10752183D01*
X55058268Y10670486D01*
X55040415Y10655835D01*
X54906478Y10584244D01*
X54906475Y10584243D01*
X54761141Y10540156D01*
X54610000Y10525270D01*
X54458858Y10540156D01*
X54313524Y10584243D01*
X54313521Y10584244D01*
X54179584Y10655835D01*
X54158531Y10673113D01*
X54062183Y10752183D01*
X53965836Y10869584D01*
X53894245Y11003521D01*
X53894244Y11003522D01*
X53894243Y11003525D01*
X53850156Y11148859D01*
X53839000Y11262129D01*
X53839000Y11897872D01*
X53850156Y12011142D01*
X53894243Y12156476D01*
X53894243Y12156477D01*
X53965837Y12290418D01*
X54062184Y12407817D01*
X54179585Y12504165D01*
X54313522Y12575756D01*
X54313525Y12575757D01*
X54458859Y12619844D01*
X54610000Y12634730D01*
X54761142Y12619844D01*
G37*
G36*
X57301142Y12619844D02*
G01*
X57446476Y12575757D01*
X57446479Y12575756D01*
X57580416Y12504165D01*
X57697817Y12407817D01*
X57794165Y12290416D01*
X57865756Y12156479D01*
X57865757Y12156476D01*
X57909844Y12011142D01*
X57921000Y11897872D01*
X57921000Y11262128D01*
X57909844Y11148858D01*
X57865757Y11003525D01*
X57865756Y11003521D01*
X57794165Y10869584D01*
X57794164Y10869583D01*
X57697817Y10752183D01*
X57598268Y10670486D01*
X57580415Y10655835D01*
X57446478Y10584244D01*
X57446475Y10584243D01*
X57301141Y10540156D01*
X57150000Y10525270D01*
X56998858Y10540156D01*
X56853524Y10584243D01*
X56853521Y10584244D01*
X56719584Y10655835D01*
X56698531Y10673113D01*
X56602183Y10752183D01*
X56505836Y10869584D01*
X56434245Y11003521D01*
X56434244Y11003522D01*
X56434243Y11003525D01*
X56390156Y11148859D01*
X56379000Y11262129D01*
X56379000Y11897872D01*
X56390156Y12011142D01*
X56434243Y12156476D01*
X56434243Y12156477D01*
X56505837Y12290418D01*
X56602184Y12407817D01*
X56719585Y12504165D01*
X56853522Y12575756D01*
X56853525Y12575757D01*
X56998859Y12619844D01*
X57150000Y12634730D01*
X57301142Y12619844D01*
G37*
G36*
X24281142Y12619844D02*
G01*
X24426476Y12575757D01*
X24426479Y12575756D01*
X24560416Y12504165D01*
X24677817Y12407817D01*
X24774165Y12290416D01*
X24845756Y12156479D01*
X24845757Y12156476D01*
X24889844Y12011142D01*
X24901000Y11897872D01*
X24901000Y11262128D01*
X24889844Y11148858D01*
X24845757Y11003525D01*
X24845756Y11003521D01*
X24774165Y10869584D01*
X24774164Y10869583D01*
X24677817Y10752183D01*
X24578268Y10670486D01*
X24560415Y10655835D01*
X24426478Y10584244D01*
X24426475Y10584243D01*
X24281141Y10540156D01*
X24130000Y10525270D01*
X23978858Y10540156D01*
X23833524Y10584243D01*
X23833521Y10584244D01*
X23699584Y10655835D01*
X23678531Y10673113D01*
X23582183Y10752183D01*
X23485836Y10869584D01*
X23414245Y11003521D01*
X23414244Y11003522D01*
X23414243Y11003525D01*
X23370156Y11148859D01*
X23359000Y11262129D01*
X23359000Y11897872D01*
X23370156Y12011142D01*
X23414243Y12156476D01*
X23414243Y12156477D01*
X23485837Y12290418D01*
X23582184Y12407817D01*
X23699585Y12504165D01*
X23833522Y12575756D01*
X23833525Y12575757D01*
X23978859Y12619844D01*
X24130000Y12634730D01*
X24281142Y12619844D01*
G37*
G36*
X42061142Y12619844D02*
G01*
X42206476Y12575757D01*
X42206479Y12575756D01*
X42340416Y12504165D01*
X42457817Y12407817D01*
X42554165Y12290416D01*
X42625756Y12156479D01*
X42625757Y12156476D01*
X42669844Y12011142D01*
X42681000Y11897872D01*
X42681000Y11262128D01*
X42669844Y11148858D01*
X42625757Y11003525D01*
X42625756Y11003521D01*
X42554165Y10869584D01*
X42554164Y10869583D01*
X42457817Y10752183D01*
X42358268Y10670486D01*
X42340415Y10655835D01*
X42206478Y10584244D01*
X42206475Y10584243D01*
X42061141Y10540156D01*
X41910000Y10525270D01*
X41758858Y10540156D01*
X41613524Y10584243D01*
X41613521Y10584244D01*
X41479584Y10655835D01*
X41458531Y10673113D01*
X41362183Y10752183D01*
X41265836Y10869584D01*
X41194245Y11003521D01*
X41194244Y11003522D01*
X41194243Y11003525D01*
X41150156Y11148859D01*
X41139000Y11262129D01*
X41139000Y11897872D01*
X41150156Y12011142D01*
X41194243Y12156476D01*
X41194243Y12156477D01*
X41265837Y12290418D01*
X41362184Y12407817D01*
X41479585Y12504165D01*
X41613522Y12575756D01*
X41613525Y12575757D01*
X41758859Y12619844D01*
X41910000Y12634730D01*
X42061142Y12619844D01*
G37*
G36*
X47141142Y12619844D02*
G01*
X47286476Y12575757D01*
X47286479Y12575756D01*
X47420416Y12504165D01*
X47537817Y12407817D01*
X47634165Y12290416D01*
X47705756Y12156479D01*
X47705757Y12156476D01*
X47749844Y12011142D01*
X47761000Y11897872D01*
X47761000Y11262128D01*
X47749844Y11148858D01*
X47705757Y11003525D01*
X47705756Y11003521D01*
X47634165Y10869584D01*
X47634164Y10869583D01*
X47537817Y10752183D01*
X47438268Y10670486D01*
X47420415Y10655835D01*
X47286478Y10584244D01*
X47286475Y10584243D01*
X47141141Y10540156D01*
X46990000Y10525270D01*
X46838858Y10540156D01*
X46693524Y10584243D01*
X46693521Y10584244D01*
X46559584Y10655835D01*
X46538531Y10673113D01*
X46442183Y10752183D01*
X46345836Y10869584D01*
X46274245Y11003521D01*
X46274244Y11003522D01*
X46274243Y11003525D01*
X46230156Y11148859D01*
X46219000Y11262129D01*
X46219000Y11897872D01*
X46230156Y12011142D01*
X46274243Y12156476D01*
X46274243Y12156477D01*
X46345837Y12290418D01*
X46442184Y12407817D01*
X46559585Y12504165D01*
X46693522Y12575756D01*
X46693525Y12575757D01*
X46838859Y12619844D01*
X46990000Y12634730D01*
X47141142Y12619844D01*
G37*
G36*
X5346778Y13524453D02*
G01*
X5513224Y13455509D01*
X5663022Y13355417D01*
X5790417Y13228022D01*
X5890509Y13078224D01*
X5959453Y12911778D01*
X5994600Y12735082D01*
X5994600Y12554918D01*
X5959453Y12378222D01*
X5890509Y12211776D01*
X5790417Y12061978D01*
X5663022Y11934583D01*
X5513224Y11834491D01*
X5346778Y11765547D01*
X5170082Y11730400D01*
X4989918Y11730400D01*
X4813222Y11765547D01*
X4646776Y11834491D01*
X4496978Y11934583D01*
X4369583Y12061978D01*
X4269491Y12211776D01*
X4200547Y12378222D01*
X4165400Y12554918D01*
X4165400Y12735082D01*
X4200547Y12911778D01*
X4269491Y13078224D01*
X4369583Y13228022D01*
X4496978Y13355417D01*
X4646776Y13455509D01*
X4813222Y13524453D01*
X4989918Y13559600D01*
X5170082Y13559600D01*
X5346778Y13524453D01*
G37*
G36*
X7886778Y13524453D02*
G01*
X8053224Y13455509D01*
X8203022Y13355417D01*
X8330417Y13228022D01*
X8430509Y13078224D01*
X8499453Y12911778D01*
X8534600Y12735082D01*
X8534600Y12554918D01*
X8499453Y12378222D01*
X8430509Y12211776D01*
X8330417Y12061978D01*
X8203022Y11934583D01*
X8053224Y11834491D01*
X7886778Y11765547D01*
X7710082Y11730400D01*
X7529918Y11730400D01*
X7353222Y11765547D01*
X7186776Y11834491D01*
X7036978Y11934583D01*
X6909583Y12061978D01*
X6809491Y12211776D01*
X6740547Y12378222D01*
X6705400Y12554918D01*
X6705400Y12735082D01*
X6740547Y12911778D01*
X6809491Y13078224D01*
X6909583Y13228022D01*
X7036978Y13355417D01*
X7186776Y13455509D01*
X7353222Y13524453D01*
X7529918Y13559600D01*
X7710082Y13559600D01*
X7886778Y13524453D01*
G37*
G36*
X5346778Y16064453D02*
G01*
X5513224Y15995509D01*
X5663022Y15895417D01*
X5790417Y15768022D01*
X5890509Y15618224D01*
X5959453Y15451778D01*
X5994600Y15275082D01*
X5994600Y15094918D01*
X5959453Y14918222D01*
X5890509Y14751776D01*
X5790417Y14601978D01*
X5663022Y14474583D01*
X5513224Y14374491D01*
X5346778Y14305547D01*
X5170082Y14270400D01*
X4989918Y14270400D01*
X4813222Y14305547D01*
X4646776Y14374491D01*
X4496978Y14474583D01*
X4369583Y14601978D01*
X4269491Y14751776D01*
X4200547Y14918222D01*
X4165400Y15094918D01*
X4165400Y15275082D01*
X4200547Y15451778D01*
X4269491Y15618224D01*
X4369583Y15768022D01*
X4496978Y15895417D01*
X4646776Y15995509D01*
X4813222Y16064453D01*
X4989918Y16099600D01*
X5170082Y16099600D01*
X5346778Y16064453D01*
G37*
G36*
X7886778Y16064453D02*
G01*
X8053224Y15995509D01*
X8203022Y15895417D01*
X8330417Y15768022D01*
X8430509Y15618224D01*
X8499453Y15451778D01*
X8534600Y15275082D01*
X8534600Y15094918D01*
X8499453Y14918222D01*
X8430509Y14751776D01*
X8330417Y14601978D01*
X8203022Y14474583D01*
X8053224Y14374491D01*
X7886778Y14305547D01*
X7710082Y14270400D01*
X7529918Y14270400D01*
X7353222Y14305547D01*
X7186776Y14374491D01*
X7036978Y14474583D01*
X6909583Y14601978D01*
X6809491Y14751776D01*
X6740547Y14918222D01*
X6705400Y15094918D01*
X6705400Y15275082D01*
X6740547Y15451778D01*
X6809491Y15618224D01*
X6909583Y15768022D01*
X7036978Y15895417D01*
X7186776Y15995509D01*
X7353222Y16064453D01*
X7529918Y16099600D01*
X7710082Y16099600D01*
X7886778Y16064453D01*
G37*
G36*
X7886778Y18604453D02*
G01*
X8053224Y18535509D01*
X8203022Y18435417D01*
X8330417Y18308022D01*
X8430509Y18158224D01*
X8499453Y17991778D01*
X8534600Y17815082D01*
X8534600Y17634918D01*
X8499453Y17458222D01*
X8430509Y17291776D01*
X8330417Y17141978D01*
X8203022Y17014583D01*
X8053224Y16914491D01*
X7886778Y16845547D01*
X7710082Y16810400D01*
X7529918Y16810400D01*
X7353222Y16845547D01*
X7186776Y16914491D01*
X7036978Y17014583D01*
X6909583Y17141978D01*
X6809491Y17291776D01*
X6740547Y17458222D01*
X6705400Y17634918D01*
X6705400Y17815082D01*
X6740547Y17991778D01*
X6809491Y18158224D01*
X6909583Y18308022D01*
X7036978Y18435417D01*
X7186776Y18535509D01*
X7353222Y18604453D01*
X7529918Y18639600D01*
X7710082Y18639600D01*
X7886778Y18604453D01*
G37*
G36*
X5346778Y18604453D02*
G01*
X5513224Y18535509D01*
X5663022Y18435417D01*
X5790417Y18308022D01*
X5890509Y18158224D01*
X5959453Y17991778D01*
X5994600Y17815082D01*
X5994600Y17634918D01*
X5959453Y17458222D01*
X5890509Y17291776D01*
X5790417Y17141978D01*
X5663022Y17014583D01*
X5513224Y16914491D01*
X5346778Y16845547D01*
X5170082Y16810400D01*
X4989918Y16810400D01*
X4813222Y16845547D01*
X4646776Y16914491D01*
X4496978Y17014583D01*
X4369583Y17141978D01*
X4269491Y17291776D01*
X4200547Y17458222D01*
X4165400Y17634918D01*
X4165400Y17815082D01*
X4200547Y17991778D01*
X4269491Y18158224D01*
X4369583Y18308022D01*
X4496978Y18435417D01*
X4646776Y18535509D01*
X4813222Y18604453D01*
X4989918Y18639600D01*
X5170082Y18639600D01*
X5346778Y18604453D01*
G37*
G36*
X7886778Y21144453D02*
G01*
X8053224Y21075509D01*
X8203022Y20975417D01*
X8330417Y20848022D01*
X8430509Y20698224D01*
X8499453Y20531778D01*
X8534600Y20355082D01*
X8534600Y20174918D01*
X8499453Y19998222D01*
X8430509Y19831776D01*
X8330417Y19681978D01*
X8203022Y19554583D01*
X8053224Y19454491D01*
X7886778Y19385547D01*
X7710082Y19350400D01*
X7529918Y19350400D01*
X7353222Y19385547D01*
X7186776Y19454491D01*
X7036978Y19554583D01*
X6909583Y19681978D01*
X6809491Y19831776D01*
X6740547Y19998222D01*
X6705400Y20174918D01*
X6705400Y20355082D01*
X6740547Y20531778D01*
X6809491Y20698224D01*
X6909583Y20848022D01*
X7036978Y20975417D01*
X7186776Y21075509D01*
X7353222Y21144453D01*
X7529918Y21179600D01*
X7710082Y21179600D01*
X7886778Y21144453D01*
G37*
G36*
X5346778Y21144453D02*
G01*
X5513224Y21075509D01*
X5663022Y20975417D01*
X5790417Y20848022D01*
X5890509Y20698224D01*
X5959453Y20531778D01*
X5994600Y20355082D01*
X5994600Y20174918D01*
X5959453Y19998222D01*
X5890509Y19831776D01*
X5790417Y19681978D01*
X5663022Y19554583D01*
X5513224Y19454491D01*
X5346778Y19385547D01*
X5170082Y19350400D01*
X4989918Y19350400D01*
X4813222Y19385547D01*
X4646776Y19454491D01*
X4496978Y19554583D01*
X4369583Y19681978D01*
X4269491Y19831776D01*
X4200547Y19998222D01*
X4165400Y20174918D01*
X4165400Y20355082D01*
X4200547Y20531778D01*
X4269491Y20698224D01*
X4369583Y20848022D01*
X4496978Y20975417D01*
X4646776Y21075509D01*
X4813222Y21144453D01*
X4989918Y21179600D01*
X5170082Y21179600D01*
X5346778Y21144453D01*
G37*
G36*
X31901142Y22779844D02*
G01*
X32046476Y22735757D01*
X32046479Y22735756D01*
X32180416Y22664165D01*
X32297817Y22567817D01*
X32394165Y22450416D01*
X32465756Y22316479D01*
X32465757Y22316476D01*
X32509844Y22171142D01*
X32521000Y22057872D01*
X32521000Y21422128D01*
X32509844Y21308858D01*
X32465757Y21163525D01*
X32465756Y21163521D01*
X32394165Y21029584D01*
X32394164Y21029583D01*
X32297817Y20912183D01*
X32219635Y20848022D01*
X32180415Y20815835D01*
X32046478Y20744244D01*
X32046475Y20744243D01*
X31901141Y20700156D01*
X31750000Y20685270D01*
X31598858Y20700156D01*
X31453524Y20744243D01*
X31453521Y20744244D01*
X31319584Y20815835D01*
X31280363Y20848023D01*
X31202183Y20912183D01*
X31105836Y21029584D01*
X31081289Y21075508D01*
X31034244Y21163522D01*
X31029367Y21179600D01*
X30990156Y21308859D01*
X30979000Y21422129D01*
X30979000Y22057872D01*
X30990156Y22171142D01*
X31034243Y22316476D01*
X31034243Y22316477D01*
X31105837Y22450418D01*
X31202184Y22567817D01*
X31319585Y22664165D01*
X31453522Y22735756D01*
X31453525Y22735757D01*
X31598859Y22779844D01*
X31750000Y22794730D01*
X31901142Y22779844D01*
G37*
G36*
X29361142Y22779844D02*
G01*
X29506476Y22735757D01*
X29506479Y22735756D01*
X29640416Y22664165D01*
X29757817Y22567817D01*
X29854165Y22450416D01*
X29925756Y22316479D01*
X29925757Y22316476D01*
X29969844Y22171142D01*
X29981000Y22057872D01*
X29981000Y21422128D01*
X29969844Y21308858D01*
X29925757Y21163525D01*
X29925756Y21163521D01*
X29854165Y21029584D01*
X29854164Y21029583D01*
X29757817Y20912183D01*
X29679635Y20848022D01*
X29640415Y20815835D01*
X29506478Y20744244D01*
X29506475Y20744243D01*
X29361141Y20700156D01*
X29210000Y20685270D01*
X29058858Y20700156D01*
X28913524Y20744243D01*
X28913521Y20744244D01*
X28779584Y20815835D01*
X28740363Y20848023D01*
X28662183Y20912183D01*
X28565836Y21029584D01*
X28541289Y21075508D01*
X28494244Y21163522D01*
X28489367Y21179600D01*
X28450156Y21308859D01*
X28439000Y21422129D01*
X28439000Y22057872D01*
X28450156Y22171142D01*
X28494243Y22316476D01*
X28494243Y22316477D01*
X28565837Y22450418D01*
X28662184Y22567817D01*
X28779585Y22664165D01*
X28913522Y22735756D01*
X28913525Y22735757D01*
X29058859Y22779844D01*
X29210000Y22794730D01*
X29361142Y22779844D01*
G37*
G36*
X42061142Y22779844D02*
G01*
X42206476Y22735757D01*
X42206479Y22735756D01*
X42340416Y22664165D01*
X42457817Y22567817D01*
X42554165Y22450416D01*
X42625756Y22316479D01*
X42625757Y22316476D01*
X42669844Y22171142D01*
X42681000Y22057872D01*
X42681000Y21422128D01*
X42669844Y21308858D01*
X42625757Y21163525D01*
X42625756Y21163521D01*
X42554165Y21029584D01*
X42554164Y21029583D01*
X42457817Y20912183D01*
X42379635Y20848022D01*
X42340415Y20815835D01*
X42206478Y20744244D01*
X42206475Y20744243D01*
X42061141Y20700156D01*
X41910000Y20685270D01*
X41758858Y20700156D01*
X41613524Y20744243D01*
X41613521Y20744244D01*
X41479584Y20815835D01*
X41440363Y20848023D01*
X41362183Y20912183D01*
X41265836Y21029584D01*
X41241289Y21075508D01*
X41194244Y21163522D01*
X41189367Y21179600D01*
X41150156Y21308859D01*
X41139000Y21422129D01*
X41139000Y22057872D01*
X41150156Y22171142D01*
X41194243Y22316476D01*
X41194243Y22316477D01*
X41265837Y22450418D01*
X41362184Y22567817D01*
X41479585Y22664165D01*
X41613522Y22735756D01*
X41613525Y22735757D01*
X41758859Y22779844D01*
X41910000Y22794730D01*
X42061142Y22779844D01*
G37*
G36*
X26821142Y22779844D02*
G01*
X26966476Y22735757D01*
X26966479Y22735756D01*
X27100416Y22664165D01*
X27217817Y22567817D01*
X27314165Y22450416D01*
X27385756Y22316479D01*
X27385757Y22316476D01*
X27429844Y22171142D01*
X27441000Y22057872D01*
X27441000Y21422128D01*
X27429844Y21308858D01*
X27385757Y21163525D01*
X27385756Y21163521D01*
X27314165Y21029584D01*
X27314164Y21029583D01*
X27217817Y20912183D01*
X27139635Y20848022D01*
X27100415Y20815835D01*
X26966478Y20744244D01*
X26966475Y20744243D01*
X26821141Y20700156D01*
X26670000Y20685270D01*
X26518858Y20700156D01*
X26373524Y20744243D01*
X26373521Y20744244D01*
X26239584Y20815835D01*
X26200363Y20848023D01*
X26122183Y20912183D01*
X26025836Y21029584D01*
X26001289Y21075508D01*
X25954244Y21163522D01*
X25949367Y21179600D01*
X25910156Y21308859D01*
X25899000Y21422129D01*
X25899000Y22057872D01*
X25910156Y22171142D01*
X25954243Y22316476D01*
X25954243Y22316477D01*
X26025837Y22450418D01*
X26122184Y22567817D01*
X26239585Y22664165D01*
X26373522Y22735756D01*
X26373525Y22735757D01*
X26518859Y22779844D01*
X26670000Y22794730D01*
X26821142Y22779844D01*
G37*
G36*
X24281142Y22779844D02*
G01*
X24426476Y22735757D01*
X24426479Y22735756D01*
X24560416Y22664165D01*
X24677817Y22567817D01*
X24774165Y22450416D01*
X24845756Y22316479D01*
X24845757Y22316476D01*
X24889844Y22171142D01*
X24901000Y22057872D01*
X24901000Y21422128D01*
X24889844Y21308858D01*
X24845757Y21163525D01*
X24845756Y21163521D01*
X24774165Y21029584D01*
X24774164Y21029583D01*
X24677817Y20912183D01*
X24599635Y20848022D01*
X24560415Y20815835D01*
X24426478Y20744244D01*
X24426475Y20744243D01*
X24281141Y20700156D01*
X24130000Y20685270D01*
X23978858Y20700156D01*
X23833524Y20744243D01*
X23833521Y20744244D01*
X23699584Y20815835D01*
X23660363Y20848023D01*
X23582183Y20912183D01*
X23485836Y21029584D01*
X23461289Y21075508D01*
X23414244Y21163522D01*
X23409367Y21179600D01*
X23370156Y21308859D01*
X23359000Y21422129D01*
X23359000Y22057872D01*
X23370156Y22171142D01*
X23414243Y22316476D01*
X23414243Y22316477D01*
X23485837Y22450418D01*
X23582184Y22567817D01*
X23699585Y22664165D01*
X23833522Y22735756D01*
X23833525Y22735757D01*
X23978859Y22779844D01*
X24130000Y22794730D01*
X24281142Y22779844D01*
G37*
G36*
X34441142Y22779844D02*
G01*
X34586476Y22735757D01*
X34586479Y22735756D01*
X34720416Y22664165D01*
X34837817Y22567817D01*
X34934165Y22450416D01*
X35005756Y22316479D01*
X35005757Y22316476D01*
X35049844Y22171142D01*
X35061000Y22057872D01*
X35061000Y21422128D01*
X35049844Y21308858D01*
X35005757Y21163525D01*
X35005756Y21163521D01*
X34934165Y21029584D01*
X34934164Y21029583D01*
X34837817Y20912183D01*
X34759635Y20848022D01*
X34720415Y20815835D01*
X34586478Y20744244D01*
X34586475Y20744243D01*
X34441141Y20700156D01*
X34290000Y20685270D01*
X34138858Y20700156D01*
X33993524Y20744243D01*
X33993521Y20744244D01*
X33859584Y20815835D01*
X33820363Y20848023D01*
X33742183Y20912183D01*
X33645836Y21029584D01*
X33621289Y21075508D01*
X33574244Y21163522D01*
X33569367Y21179600D01*
X33530156Y21308859D01*
X33519000Y21422129D01*
X33519000Y22057872D01*
X33530156Y22171142D01*
X33574243Y22316476D01*
X33574243Y22316477D01*
X33645837Y22450418D01*
X33742184Y22567817D01*
X33859585Y22664165D01*
X33993522Y22735756D01*
X33993525Y22735757D01*
X34138859Y22779844D01*
X34290000Y22794730D01*
X34441142Y22779844D01*
G37*
G36*
X49681142Y22779844D02*
G01*
X49826476Y22735757D01*
X49826479Y22735756D01*
X49960416Y22664165D01*
X50077817Y22567817D01*
X50174165Y22450416D01*
X50245756Y22316479D01*
X50245757Y22316476D01*
X50289844Y22171142D01*
X50301000Y22057872D01*
X50301000Y21422128D01*
X50289844Y21308858D01*
X50245757Y21163525D01*
X50245756Y21163521D01*
X50174165Y21029584D01*
X50174164Y21029583D01*
X50077817Y20912183D01*
X49999635Y20848022D01*
X49960415Y20815835D01*
X49826478Y20744244D01*
X49826475Y20744243D01*
X49681141Y20700156D01*
X49530000Y20685270D01*
X49378858Y20700156D01*
X49233524Y20744243D01*
X49233521Y20744244D01*
X49099584Y20815835D01*
X49060363Y20848023D01*
X48982183Y20912183D01*
X48885836Y21029584D01*
X48861289Y21075508D01*
X48814244Y21163522D01*
X48809367Y21179600D01*
X48770156Y21308859D01*
X48759000Y21422129D01*
X48759000Y22057872D01*
X48770156Y22171142D01*
X48814243Y22316476D01*
X48814243Y22316477D01*
X48885837Y22450418D01*
X48982184Y22567817D01*
X49099585Y22664165D01*
X49233522Y22735756D01*
X49233525Y22735757D01*
X49378859Y22779844D01*
X49530000Y22794730D01*
X49681142Y22779844D01*
G37*
G36*
X52221142Y22779844D02*
G01*
X52366476Y22735757D01*
X52366479Y22735756D01*
X52500416Y22664165D01*
X52617817Y22567817D01*
X52714165Y22450416D01*
X52785756Y22316479D01*
X52785757Y22316476D01*
X52829844Y22171142D01*
X52841000Y22057872D01*
X52841000Y21422128D01*
X52829844Y21308858D01*
X52785757Y21163525D01*
X52785756Y21163521D01*
X52714165Y21029584D01*
X52714164Y21029583D01*
X52617817Y20912183D01*
X52539635Y20848022D01*
X52500415Y20815835D01*
X52366478Y20744244D01*
X52366475Y20744243D01*
X52221141Y20700156D01*
X52070000Y20685270D01*
X51918858Y20700156D01*
X51773524Y20744243D01*
X51773521Y20744244D01*
X51639584Y20815835D01*
X51600363Y20848023D01*
X51522183Y20912183D01*
X51425836Y21029584D01*
X51401289Y21075508D01*
X51354244Y21163522D01*
X51349367Y21179600D01*
X51310156Y21308859D01*
X51299000Y21422129D01*
X51299000Y22057872D01*
X51310156Y22171142D01*
X51354243Y22316476D01*
X51354243Y22316477D01*
X51425837Y22450418D01*
X51522184Y22567817D01*
X51639585Y22664165D01*
X51773522Y22735756D01*
X51773525Y22735757D01*
X51918859Y22779844D01*
X52070000Y22794730D01*
X52221142Y22779844D01*
G37*
G36*
X47141142Y22779844D02*
G01*
X47286476Y22735757D01*
X47286479Y22735756D01*
X47420416Y22664165D01*
X47537817Y22567817D01*
X47634165Y22450416D01*
X47705756Y22316479D01*
X47705757Y22316476D01*
X47749844Y22171142D01*
X47761000Y22057872D01*
X47761000Y21422128D01*
X47749844Y21308858D01*
X47705757Y21163525D01*
X47705756Y21163521D01*
X47634165Y21029584D01*
X47634164Y21029583D01*
X47537817Y20912183D01*
X47459635Y20848022D01*
X47420415Y20815835D01*
X47286478Y20744244D01*
X47286475Y20744243D01*
X47141141Y20700156D01*
X46990000Y20685270D01*
X46838858Y20700156D01*
X46693524Y20744243D01*
X46693521Y20744244D01*
X46559584Y20815835D01*
X46520363Y20848023D01*
X46442183Y20912183D01*
X46345836Y21029584D01*
X46321289Y21075508D01*
X46274244Y21163522D01*
X46269367Y21179600D01*
X46230156Y21308859D01*
X46219000Y21422129D01*
X46219000Y22057872D01*
X46230156Y22171142D01*
X46274243Y22316476D01*
X46274243Y22316477D01*
X46345837Y22450418D01*
X46442184Y22567817D01*
X46559585Y22664165D01*
X46693522Y22735756D01*
X46693525Y22735757D01*
X46838859Y22779844D01*
X46990000Y22794730D01*
X47141142Y22779844D01*
G37*
G36*
X44601142Y22779844D02*
G01*
X44746476Y22735757D01*
X44746479Y22735756D01*
X44880416Y22664165D01*
X44997817Y22567817D01*
X45094165Y22450416D01*
X45165756Y22316479D01*
X45165757Y22316476D01*
X45209844Y22171142D01*
X45221000Y22057872D01*
X45221000Y21422128D01*
X45209844Y21308858D01*
X45165757Y21163525D01*
X45165756Y21163521D01*
X45094165Y21029584D01*
X45094164Y21029583D01*
X44997817Y20912183D01*
X44919635Y20848022D01*
X44880415Y20815835D01*
X44746478Y20744244D01*
X44746475Y20744243D01*
X44601141Y20700156D01*
X44450000Y20685270D01*
X44298858Y20700156D01*
X44153524Y20744243D01*
X44153521Y20744244D01*
X44019584Y20815835D01*
X43980363Y20848023D01*
X43902183Y20912183D01*
X43805836Y21029584D01*
X43781289Y21075508D01*
X43734244Y21163522D01*
X43729367Y21179600D01*
X43690156Y21308859D01*
X43679000Y21422129D01*
X43679000Y22057872D01*
X43690156Y22171142D01*
X43734243Y22316476D01*
X43734243Y22316477D01*
X43805837Y22450418D01*
X43902184Y22567817D01*
X44019585Y22664165D01*
X44153522Y22735756D01*
X44153525Y22735757D01*
X44298859Y22779844D01*
X44450000Y22794730D01*
X44601142Y22779844D01*
G37*
G36*
X39521142Y22779844D02*
G01*
X39666476Y22735757D01*
X39666479Y22735756D01*
X39800416Y22664165D01*
X39917817Y22567817D01*
X40014165Y22450416D01*
X40085756Y22316479D01*
X40085757Y22316476D01*
X40129844Y22171142D01*
X40141000Y22057872D01*
X40141000Y21422128D01*
X40129844Y21308858D01*
X40085757Y21163525D01*
X40085756Y21163521D01*
X40014165Y21029584D01*
X40014164Y21029583D01*
X39917817Y20912183D01*
X39839635Y20848022D01*
X39800415Y20815835D01*
X39666478Y20744244D01*
X39666475Y20744243D01*
X39521141Y20700156D01*
X39370000Y20685270D01*
X39218858Y20700156D01*
X39073524Y20744243D01*
X39073521Y20744244D01*
X38939584Y20815835D01*
X38900363Y20848023D01*
X38822183Y20912183D01*
X38725836Y21029584D01*
X38701289Y21075508D01*
X38654244Y21163522D01*
X38649367Y21179600D01*
X38610156Y21308859D01*
X38599000Y21422129D01*
X38599000Y22057872D01*
X38610156Y22171142D01*
X38654243Y22316476D01*
X38654243Y22316477D01*
X38725837Y22450418D01*
X38822184Y22567817D01*
X38939585Y22664165D01*
X39073522Y22735756D01*
X39073525Y22735757D01*
X39218859Y22779844D01*
X39370000Y22794730D01*
X39521142Y22779844D01*
G37*
G36*
X54761142Y22779844D02*
G01*
X54906476Y22735757D01*
X54906479Y22735756D01*
X55040416Y22664165D01*
X55157817Y22567817D01*
X55254165Y22450416D01*
X55325756Y22316479D01*
X55325757Y22316476D01*
X55369844Y22171142D01*
X55381000Y22057872D01*
X55381000Y21422128D01*
X55369844Y21308858D01*
X55325757Y21163525D01*
X55325756Y21163521D01*
X55254165Y21029584D01*
X55254164Y21029583D01*
X55157817Y20912183D01*
X55079635Y20848022D01*
X55040415Y20815835D01*
X54906478Y20744244D01*
X54906475Y20744243D01*
X54761141Y20700156D01*
X54610000Y20685270D01*
X54458858Y20700156D01*
X54313524Y20744243D01*
X54313521Y20744244D01*
X54179584Y20815835D01*
X54140363Y20848023D01*
X54062183Y20912183D01*
X53965836Y21029584D01*
X53941289Y21075508D01*
X53894244Y21163522D01*
X53889367Y21179600D01*
X53850156Y21308859D01*
X53839000Y21422129D01*
X53839000Y22057872D01*
X53850156Y22171142D01*
X53894243Y22316476D01*
X53894243Y22316477D01*
X53965837Y22450418D01*
X54062184Y22567817D01*
X54179585Y22664165D01*
X54313522Y22735756D01*
X54313525Y22735757D01*
X54458859Y22779844D01*
X54610000Y22794730D01*
X54761142Y22779844D01*
G37*
G36*
X36981142Y22779844D02*
G01*
X37126476Y22735757D01*
X37126479Y22735756D01*
X37260416Y22664165D01*
X37377817Y22567817D01*
X37474165Y22450416D01*
X37545756Y22316479D01*
X37545757Y22316476D01*
X37589844Y22171142D01*
X37601000Y22057872D01*
X37601000Y21422128D01*
X37589844Y21308858D01*
X37545757Y21163525D01*
X37545756Y21163521D01*
X37474165Y21029584D01*
X37474164Y21029583D01*
X37377817Y20912183D01*
X37299635Y20848022D01*
X37260415Y20815835D01*
X37126478Y20744244D01*
X37126475Y20744243D01*
X36981141Y20700156D01*
X36830000Y20685270D01*
X36678858Y20700156D01*
X36533524Y20744243D01*
X36533521Y20744244D01*
X36399584Y20815835D01*
X36360363Y20848023D01*
X36282183Y20912183D01*
X36185836Y21029584D01*
X36161289Y21075508D01*
X36114244Y21163522D01*
X36109367Y21179600D01*
X36070156Y21308859D01*
X36059000Y21422129D01*
X36059000Y22057872D01*
X36070156Y22171142D01*
X36114243Y22316476D01*
X36114243Y22316477D01*
X36185837Y22450418D01*
X36282184Y22567817D01*
X36399585Y22664165D01*
X36533522Y22735756D01*
X36533525Y22735757D01*
X36678859Y22779844D01*
X36830000Y22794730D01*
X36981142Y22779844D01*
G37*
G36*
X57921000Y20689000D02*
G01*
X56379000Y20689000D01*
X56379000Y22791000D01*
X57921000Y22791000D01*
X57921000Y20689000D01*
G37*
G36*
X5994600Y21890400D02*
G01*
X4165400Y21890400D01*
X4165400Y23719600D01*
X5994600Y23719600D01*
X5994600Y21890400D01*
G37*
G36*
X7886778Y23684453D02*
G01*
X8053224Y23615509D01*
X8203022Y23515417D01*
X8330417Y23388022D01*
X8430509Y23238224D01*
X8499453Y23071778D01*
X8534600Y22895082D01*
X8534600Y22714918D01*
X8499453Y22538222D01*
X8430509Y22371776D01*
X8330417Y22221978D01*
X8203022Y22094583D01*
X8053224Y21994491D01*
X7886778Y21925547D01*
X7710082Y21890400D01*
X7529918Y21890400D01*
X7353222Y21925547D01*
X7186776Y21994491D01*
X7036978Y22094583D01*
X6909583Y22221978D01*
X6809491Y22371776D01*
X6740547Y22538222D01*
X6705400Y22714918D01*
X6705400Y22895082D01*
X6740547Y23071778D01*
X6809491Y23238224D01*
X6909583Y23388022D01*
X7036978Y23515417D01*
X7186776Y23615509D01*
X7353222Y23684453D01*
X7529918Y23719600D01*
X7710082Y23719600D01*
X7886778Y23684453D01*
G37*
G36*
X30673512Y30106073D02*
G01*
X30822812Y30076376D01*
X30986784Y30008456D01*
X31134354Y29909853D01*
X31259853Y29784354D01*
X31358456Y29636784D01*
X31426376Y29472812D01*
X31461000Y29298741D01*
X31461000Y29121259D01*
X31426376Y28947188D01*
X31358456Y28783216D01*
X31259853Y28635646D01*
X31134354Y28510147D01*
X30986784Y28411544D01*
X30822812Y28343624D01*
X30673512Y28313927D01*
X30648742Y28309000D01*
X30471258Y28309000D01*
X30446488Y28313927D01*
X30297188Y28343624D01*
X30133216Y28411544D01*
X29985646Y28510147D01*
X29860147Y28635646D01*
X29761544Y28783216D01*
X29693624Y28947188D01*
X29659000Y29121259D01*
X29659000Y29298741D01*
X29693624Y29472812D01*
X29761544Y29636784D01*
X29860147Y29784354D01*
X29985646Y29909853D01*
X30133216Y30008456D01*
X30297188Y30076376D01*
X30446488Y30106073D01*
X30471258Y30111000D01*
X30648742Y30111000D01*
X30673512Y30106073D01*
G37*
G36*
X35673512Y30106073D02*
G01*
X35822812Y30076376D01*
X35986784Y30008456D01*
X36134354Y29909853D01*
X36259853Y29784354D01*
X36358456Y29636784D01*
X36426376Y29472812D01*
X36461000Y29298741D01*
X36461000Y29121259D01*
X36426376Y28947188D01*
X36358456Y28783216D01*
X36259853Y28635646D01*
X36134354Y28510147D01*
X35986784Y28411544D01*
X35822812Y28343624D01*
X35673512Y28313927D01*
X35648742Y28309000D01*
X35471258Y28309000D01*
X35446488Y28313927D01*
X35297188Y28343624D01*
X35133216Y28411544D01*
X34985646Y28510147D01*
X34860147Y28635646D01*
X34761544Y28783216D01*
X34693624Y28947188D01*
X34659000Y29121259D01*
X34659000Y29298741D01*
X34693624Y29472812D01*
X34761544Y29636784D01*
X34860147Y29784354D01*
X34985646Y29909853D01*
X35133216Y30008456D01*
X35297188Y30076376D01*
X35446488Y30106073D01*
X35471258Y30111000D01*
X35648742Y30111000D01*
X35673512Y30106073D01*
G37*
G36*
X24298228Y30028297D02*
G01*
X24453100Y29964147D01*
X24592481Y29871015D01*
X24711015Y29752481D01*
X24804147Y29613100D01*
X24868297Y29458228D01*
X24901000Y29293816D01*
X24901000Y29126184D01*
X24868297Y28961772D01*
X24804147Y28806900D01*
X24711015Y28667519D01*
X24592481Y28548985D01*
X24453100Y28455853D01*
X24298228Y28391703D01*
X24133816Y28359000D01*
X23966184Y28359000D01*
X23801772Y28391703D01*
X23646900Y28455853D01*
X23507519Y28548985D01*
X23388985Y28667519D01*
X23295853Y28806900D01*
X23231703Y28961772D01*
X23199000Y29126184D01*
X23199000Y29293816D01*
X23231703Y29458228D01*
X23295853Y29613100D01*
X23388985Y29752481D01*
X23507519Y29871015D01*
X23646900Y29964147D01*
X23801772Y30028297D01*
X23966184Y30061000D01*
X24133816Y30061000D01*
X24298228Y30028297D01*
G37*
G36*
X19298228Y30028297D02*
G01*
X19453100Y29964147D01*
X19592481Y29871015D01*
X19711015Y29752481D01*
X19804147Y29613100D01*
X19868297Y29458228D01*
X19901000Y29293816D01*
X19901000Y29126184D01*
X19868297Y28961772D01*
X19804147Y28806900D01*
X19711015Y28667519D01*
X19592481Y28548985D01*
X19453100Y28455853D01*
X19298228Y28391703D01*
X19133816Y28359000D01*
X18966184Y28359000D01*
X18801772Y28391703D01*
X18646900Y28455853D01*
X18507519Y28548985D01*
X18388985Y28667519D01*
X18295853Y28806900D01*
X18231703Y28961772D01*
X18199000Y29126184D01*
X18199000Y29293816D01*
X18231703Y29458228D01*
X18295853Y29613100D01*
X18388985Y29752481D01*
X18507519Y29871015D01*
X18646900Y29964147D01*
X18801772Y30028297D01*
X18966184Y30061000D01*
X19133816Y30061000D01*
X19298228Y30028297D01*
G37*
G36*
X42238228Y30028297D02*
G01*
X42393100Y29964147D01*
X42532481Y29871015D01*
X42651015Y29752481D01*
X42744147Y29613100D01*
X42808297Y29458228D01*
X42841000Y29293816D01*
X42841000Y29126184D01*
X42808297Y28961772D01*
X42744147Y28806900D01*
X42651015Y28667519D01*
X42532481Y28548985D01*
X42393100Y28455853D01*
X42238228Y28391703D01*
X42073816Y28359000D01*
X41906184Y28359000D01*
X41741772Y28391703D01*
X41586900Y28455853D01*
X41447519Y28548985D01*
X41328985Y28667519D01*
X41235853Y28806900D01*
X41171703Y28961772D01*
X41139000Y29126184D01*
X41139000Y29293816D01*
X41171703Y29458228D01*
X41235853Y29613100D01*
X41328985Y29752481D01*
X41447519Y29871015D01*
X41586900Y29964147D01*
X41741772Y30028297D01*
X41906184Y30061000D01*
X42073816Y30061000D01*
X42238228Y30028297D01*
G37*
G36*
X47238228Y30028297D02*
G01*
X47393100Y29964147D01*
X47532481Y29871015D01*
X47651015Y29752481D01*
X47744147Y29613100D01*
X47808297Y29458228D01*
X47841000Y29293816D01*
X47841000Y29126184D01*
X47808297Y28961772D01*
X47744147Y28806900D01*
X47651015Y28667519D01*
X47532481Y28548985D01*
X47393100Y28455853D01*
X47238228Y28391703D01*
X47073816Y28359000D01*
X46906184Y28359000D01*
X46741772Y28391703D01*
X46586900Y28455853D01*
X46447519Y28548985D01*
X46328985Y28667519D01*
X46235853Y28806900D01*
X46171703Y28961772D01*
X46139000Y29126184D01*
X46139000Y29293816D01*
X46171703Y29458228D01*
X46235853Y29613100D01*
X46328985Y29752481D01*
X46447519Y29871015D01*
X46586900Y29964147D01*
X46741772Y30028297D01*
X46906184Y30061000D01*
X47073816Y30061000D01*
X47238228Y30028297D01*
G37*
G36*
X52318228Y30028297D02*
G01*
X52473100Y29964147D01*
X52612481Y29871015D01*
X52731015Y29752481D01*
X52824147Y29613100D01*
X52888297Y29458228D01*
X52921000Y29293816D01*
X52921000Y29126184D01*
X52888297Y28961772D01*
X52824147Y28806900D01*
X52731015Y28667519D01*
X52612481Y28548985D01*
X52473100Y28455853D01*
X52318228Y28391703D01*
X52153816Y28359000D01*
X51986184Y28359000D01*
X51821772Y28391703D01*
X51666900Y28455853D01*
X51527519Y28548985D01*
X51408985Y28667519D01*
X51315853Y28806900D01*
X51251703Y28961772D01*
X51219000Y29126184D01*
X51219000Y29293816D01*
X51251703Y29458228D01*
X51315853Y29613100D01*
X51408985Y29752481D01*
X51527519Y29871015D01*
X51666900Y29964147D01*
X51821772Y30028297D01*
X51986184Y30061000D01*
X52153816Y30061000D01*
X52318228Y30028297D01*
G37*
G36*
X59938228Y30028297D02*
G01*
X60093100Y29964147D01*
X60232481Y29871015D01*
X60351015Y29752481D01*
X60444147Y29613100D01*
X60508297Y29458228D01*
X60541000Y29293816D01*
X60541000Y29126184D01*
X60508297Y28961772D01*
X60444147Y28806900D01*
X60351015Y28667519D01*
X60232481Y28548985D01*
X60093100Y28455853D01*
X59938228Y28391703D01*
X59773816Y28359000D01*
X59606184Y28359000D01*
X59441772Y28391703D01*
X59286900Y28455853D01*
X59147519Y28548985D01*
X59028985Y28667519D01*
X58935853Y28806900D01*
X58871703Y28961772D01*
X58839000Y29126184D01*
X58839000Y29293816D01*
X58871703Y29458228D01*
X58935853Y29613100D01*
X59028985Y29752481D01*
X59147519Y29871015D01*
X59286900Y29964147D01*
X59441772Y30028297D01*
X59606184Y30061000D01*
X59773816Y30061000D01*
X59938228Y30028297D01*
G37*
G36*
X39051000Y34609000D02*
G01*
X37149000Y34609000D01*
X37149000Y36511000D01*
X39051000Y36511000D01*
X39051000Y34609000D01*
G37*
G36*
X35837395Y36474454D02*
G01*
X36010466Y36402766D01*
X36010467Y36402765D01*
X36166227Y36298690D01*
X36298690Y36166227D01*
X36341284Y36102480D01*
X36402766Y36010466D01*
X36474454Y35837395D01*
X36511000Y35653667D01*
X36511000Y35466333D01*
X36474454Y35282605D01*
X36402766Y35109534D01*
X36402765Y35109533D01*
X36298690Y34953773D01*
X36166227Y34821310D01*
X36143092Y34805852D01*
X36010466Y34717234D01*
X35837395Y34645546D01*
X35653667Y34609000D01*
X35466333Y34609000D01*
X35282605Y34645546D01*
X35109534Y34717234D01*
X34976908Y34805852D01*
X34953773Y34821310D01*
X34821310Y34953773D01*
X34717235Y35109533D01*
X34717234Y35109534D01*
X34645546Y35282605D01*
X34609000Y35466333D01*
X34609000Y35653667D01*
X34645546Y35837395D01*
X34717234Y36010466D01*
X34778716Y36102480D01*
X34821310Y36166227D01*
X34953773Y36298690D01*
X35109533Y36402765D01*
X35109534Y36402766D01*
X35282605Y36474454D01*
X35466333Y36511000D01*
X35653667Y36511000D01*
X35837395Y36474454D01*
G37*
G36*
X31998228Y36378297D02*
G01*
X32153100Y36314147D01*
X32292481Y36221015D01*
X32411015Y36102481D01*
X32504147Y35963100D01*
X32568297Y35808228D01*
X32601000Y35643816D01*
X32601000Y35476184D01*
X32568297Y35311772D01*
X32504147Y35156900D01*
X32411015Y35017519D01*
X32292481Y34898985D01*
X32153100Y34805853D01*
X31998228Y34741703D01*
X31833816Y34709000D01*
X31666184Y34709000D01*
X31501772Y34741703D01*
X31346900Y34805853D01*
X31207519Y34898985D01*
X31088985Y35017519D01*
X30995853Y35156900D01*
X30931703Y35311772D01*
X30899000Y35476184D01*
X30899000Y35643816D01*
X30931703Y35808228D01*
X30995853Y35963100D01*
X31088985Y36102481D01*
X31207519Y36221015D01*
X31346900Y36314147D01*
X31501772Y36378297D01*
X31666184Y36411000D01*
X31833816Y36411000D01*
X31998228Y36378297D01*
G37*
G36*
X24378228Y36378297D02*
G01*
X24533100Y36314147D01*
X24672481Y36221015D01*
X24791015Y36102481D01*
X24884147Y35963100D01*
X24948297Y35808228D01*
X24981000Y35643816D01*
X24981000Y35476184D01*
X24948297Y35311772D01*
X24884147Y35156900D01*
X24791015Y35017519D01*
X24672481Y34898985D01*
X24533100Y34805853D01*
X24378228Y34741703D01*
X24213816Y34709000D01*
X24046184Y34709000D01*
X23881772Y34741703D01*
X23726900Y34805853D01*
X23587519Y34898985D01*
X23468985Y35017519D01*
X23375853Y35156900D01*
X23311703Y35311772D01*
X23279000Y35476184D01*
X23279000Y35643816D01*
X23311703Y35808228D01*
X23375853Y35963100D01*
X23468985Y36102481D01*
X23587519Y36221015D01*
X23726900Y36314147D01*
X23881772Y36378297D01*
X24046184Y36411000D01*
X24213816Y36411000D01*
X24378228Y36378297D01*
G37*
M02*
