G04 #@! TF.GenerationSoftware,KiCad,Pcbnew,5.1.4-3.fc30*
G04 #@! TF.CreationDate,2019-09-25T04:41:54+02:00*
G04 #@! TF.ProjectId,atmega_prog_adapter_v2,61746d65-6761-45f7-9072-6f675f616461,1.0*
G04 #@! TF.SameCoordinates,Original*
G04 #@! TF.FileFunction,Drawing*
%FSLAX46Y46*%
G04 Gerber Fmt 4.6, Leading zero omitted, Abs format (unit mm)*
G04 Created by KiCad (PCBNEW 5.1.4-3.fc30) date 2019-09-25 04:41:54*
%MOMM*%
%LPD*%
G04 APERTURE LIST*
%ADD10C,0.150000*%
G04 APERTURE END LIST*
D10*
X176345714Y-91296666D02*
X177012380Y-91296666D01*
X175964761Y-91534761D02*
X176679047Y-91772857D01*
X176679047Y-91153809D01*
X176012380Y-90868095D02*
X176012380Y-90249047D01*
X176393333Y-90582380D01*
X176393333Y-90439523D01*
X176440952Y-90344285D01*
X176488571Y-90296666D01*
X176583809Y-90249047D01*
X176821904Y-90249047D01*
X176917142Y-90296666D01*
X176964761Y-90344285D01*
X177012380Y-90439523D01*
X177012380Y-90725238D01*
X176964761Y-90820476D01*
X176917142Y-90868095D01*
X176964761Y-89772857D02*
X177012380Y-89772857D01*
X177107619Y-89820476D01*
X177155238Y-89868095D01*
X177012380Y-88820476D02*
X177012380Y-89391904D01*
X177012380Y-89106190D02*
X176012380Y-89106190D01*
X176155238Y-89201428D01*
X176250476Y-89296666D01*
X176298095Y-89391904D01*
X176440952Y-88249047D02*
X176393333Y-88344285D01*
X176345714Y-88391904D01*
X176250476Y-88439523D01*
X176202857Y-88439523D01*
X176107619Y-88391904D01*
X176060000Y-88344285D01*
X176012380Y-88249047D01*
X176012380Y-88058571D01*
X176060000Y-87963333D01*
X176107619Y-87915714D01*
X176202857Y-87868095D01*
X176250476Y-87868095D01*
X176345714Y-87915714D01*
X176393333Y-87963333D01*
X176440952Y-88058571D01*
X176440952Y-88249047D01*
X176488571Y-88344285D01*
X176536190Y-88391904D01*
X176631428Y-88439523D01*
X176821904Y-88439523D01*
X176917142Y-88391904D01*
X176964761Y-88344285D01*
X177012380Y-88249047D01*
X177012380Y-88058571D01*
X176964761Y-87963333D01*
X176917142Y-87915714D01*
X176821904Y-87868095D01*
X176631428Y-87868095D01*
X176536190Y-87915714D01*
X176488571Y-87963333D01*
X176440952Y-88058571D01*
X176012380Y-87249047D02*
X176012380Y-87153809D01*
X176060000Y-87058571D01*
X176107619Y-87010952D01*
X176202857Y-86963333D01*
X176393333Y-86915714D01*
X176631428Y-86915714D01*
X176821904Y-86963333D01*
X176917142Y-87010952D01*
X176964761Y-87058571D01*
X177012380Y-87153809D01*
X177012380Y-87249047D01*
X176964761Y-87344285D01*
X176917142Y-87391904D01*
X176821904Y-87439523D01*
X176631428Y-87487142D01*
X176393333Y-87487142D01*
X176202857Y-87439523D01*
X176107619Y-87391904D01*
X176060000Y-87344285D01*
X176012380Y-87249047D01*
X177012380Y-85725238D02*
X176345714Y-85725238D01*
X176440952Y-85725238D02*
X176393333Y-85677619D01*
X176345714Y-85582380D01*
X176345714Y-85439523D01*
X176393333Y-85344285D01*
X176488571Y-85296666D01*
X177012380Y-85296666D01*
X176488571Y-85296666D02*
X176393333Y-85249047D01*
X176345714Y-85153809D01*
X176345714Y-85010952D01*
X176393333Y-84915714D01*
X176488571Y-84868095D01*
X177012380Y-84868095D01*
X177012380Y-84391904D02*
X176345714Y-84391904D01*
X176440952Y-84391904D02*
X176393333Y-84344285D01*
X176345714Y-84249047D01*
X176345714Y-84106190D01*
X176393333Y-84010952D01*
X176488571Y-83963333D01*
X177012380Y-83963333D01*
X176488571Y-83963333D02*
X176393333Y-83915714D01*
X176345714Y-83820476D01*
X176345714Y-83677619D01*
X176393333Y-83582380D01*
X176488571Y-83534761D01*
X177012380Y-83534761D01*
X175260000Y-109220000D02*
X175260000Y-66040000D01*
X170180000Y-109220000D02*
X175846421Y-109220000D01*
X170180000Y-66040000D02*
X175846421Y-66040000D01*
X175260000Y-66040000D02*
X175846421Y-67166504D01*
X175260000Y-66040000D02*
X174673579Y-67166504D01*
X175260000Y-109220000D02*
X175846421Y-108093496D01*
X175260000Y-109220000D02*
X174673579Y-108093496D01*
X125587619Y-115480952D02*
X125492380Y-115433333D01*
X125444761Y-115385714D01*
X125397142Y-115290476D01*
X125397142Y-115242857D01*
X125444761Y-115147619D01*
X125492380Y-115100000D01*
X125587619Y-115052380D01*
X125778095Y-115052380D01*
X125873333Y-115100000D01*
X125920952Y-115147619D01*
X125968571Y-115242857D01*
X125968571Y-115290476D01*
X125920952Y-115385714D01*
X125873333Y-115433333D01*
X125778095Y-115480952D01*
X125587619Y-115480952D01*
X125492380Y-115528571D01*
X125444761Y-115576190D01*
X125397142Y-115671428D01*
X125397142Y-115861904D01*
X125444761Y-115957142D01*
X125492380Y-116004761D01*
X125587619Y-116052380D01*
X125778095Y-116052380D01*
X125873333Y-116004761D01*
X125920952Y-115957142D01*
X125968571Y-115861904D01*
X125968571Y-115671428D01*
X125920952Y-115576190D01*
X125873333Y-115528571D01*
X125778095Y-115480952D01*
X126920952Y-116052380D02*
X126349523Y-116052380D01*
X126635238Y-116052380D02*
X126635238Y-115052380D01*
X126540000Y-115195238D01*
X126444761Y-115290476D01*
X126349523Y-115338095D01*
X127397142Y-116004761D02*
X127397142Y-116052380D01*
X127349523Y-116147619D01*
X127301904Y-116195238D01*
X127778095Y-115147619D02*
X127825714Y-115100000D01*
X127920952Y-115052380D01*
X128159047Y-115052380D01*
X128254285Y-115100000D01*
X128301904Y-115147619D01*
X128349523Y-115242857D01*
X128349523Y-115338095D01*
X128301904Y-115480952D01*
X127730476Y-116052380D01*
X128349523Y-116052380D01*
X128920952Y-115480952D02*
X128825714Y-115433333D01*
X128778095Y-115385714D01*
X128730476Y-115290476D01*
X128730476Y-115242857D01*
X128778095Y-115147619D01*
X128825714Y-115100000D01*
X128920952Y-115052380D01*
X129111428Y-115052380D01*
X129206666Y-115100000D01*
X129254285Y-115147619D01*
X129301904Y-115242857D01*
X129301904Y-115290476D01*
X129254285Y-115385714D01*
X129206666Y-115433333D01*
X129111428Y-115480952D01*
X128920952Y-115480952D01*
X128825714Y-115528571D01*
X128778095Y-115576190D01*
X128730476Y-115671428D01*
X128730476Y-115861904D01*
X128778095Y-115957142D01*
X128825714Y-116004761D01*
X128920952Y-116052380D01*
X129111428Y-116052380D01*
X129206666Y-116004761D01*
X129254285Y-115957142D01*
X129301904Y-115861904D01*
X129301904Y-115671428D01*
X129254285Y-115576190D01*
X129206666Y-115528571D01*
X129111428Y-115480952D01*
X129920952Y-115052380D02*
X130016190Y-115052380D01*
X130111428Y-115100000D01*
X130159047Y-115147619D01*
X130206666Y-115242857D01*
X130254285Y-115433333D01*
X130254285Y-115671428D01*
X130206666Y-115861904D01*
X130159047Y-115957142D01*
X130111428Y-116004761D01*
X130016190Y-116052380D01*
X129920952Y-116052380D01*
X129825714Y-116004761D01*
X129778095Y-115957142D01*
X129730476Y-115861904D01*
X129682857Y-115671428D01*
X129682857Y-115433333D01*
X129730476Y-115242857D01*
X129778095Y-115147619D01*
X129825714Y-115100000D01*
X129920952Y-115052380D01*
X131444761Y-116052380D02*
X131444761Y-115385714D01*
X131444761Y-115480952D02*
X131492380Y-115433333D01*
X131587619Y-115385714D01*
X131730476Y-115385714D01*
X131825714Y-115433333D01*
X131873333Y-115528571D01*
X131873333Y-116052380D01*
X131873333Y-115528571D02*
X131920952Y-115433333D01*
X132016190Y-115385714D01*
X132159047Y-115385714D01*
X132254285Y-115433333D01*
X132301904Y-115528571D01*
X132301904Y-116052380D01*
X132778095Y-116052380D02*
X132778095Y-115385714D01*
X132778095Y-115480952D02*
X132825714Y-115433333D01*
X132920952Y-115385714D01*
X133063809Y-115385714D01*
X133159047Y-115433333D01*
X133206666Y-115528571D01*
X133206666Y-116052380D01*
X133206666Y-115528571D02*
X133254285Y-115433333D01*
X133349523Y-115385714D01*
X133492380Y-115385714D01*
X133587619Y-115433333D01*
X133635238Y-115528571D01*
X133635238Y-116052380D01*
X88900000Y-114300000D02*
X170180000Y-114300000D01*
X88900000Y-109220000D02*
X88900000Y-114886421D01*
X170180000Y-109220000D02*
X170180000Y-114886421D01*
X170180000Y-114300000D02*
X169053496Y-114886421D01*
X170180000Y-114300000D02*
X169053496Y-113713579D01*
X88900000Y-114300000D02*
X90026504Y-114886421D01*
X88900000Y-114300000D02*
X90026504Y-113713579D01*
M02*
