%TF.GenerationSoftware,KiCad,Pcbnew,5.1.6-c6e7f7d~86~ubuntu18.04.1*%
%TF.CreationDate,2020-05-25T18:43:36+02:00*%
%TF.ProjectId,atmega_prog_adapter_v2,61746d65-6761-45f7-9072-6f675f616461,1.0*%
%TF.SameCoordinates,PX54c81a0PY68290a0*%
%TF.FileFunction,Copper,L1,Top*%
%TF.FilePolarity,Positive*%
%FSLAX46Y46*%
G04 Gerber Fmt 4.6, Leading zero omitted, Abs format (unit mm)*
G04 Created by KiCad (PCBNEW 5.1.6-c6e7f7d~86~ubuntu18.04.1) date 2020-05-25 18:43:36*
%MOMM*%
%LPD*%
G01*
G04 APERTURE LIST*
%TA.AperFunction,ComponentPad*%
%ADD10C,1.600000*%
%TD*%
%TA.AperFunction,ComponentPad*%
%ADD11R,1.800000X1.800000*%
%TD*%
%TA.AperFunction,ComponentPad*%
%ADD12C,1.800000*%
%TD*%
%TA.AperFunction,ComponentPad*%
%ADD13R,1.727200X1.727200*%
%TD*%
%TA.AperFunction,ComponentPad*%
%ADD14O,1.727200X1.727200*%
%TD*%
%TA.AperFunction,ComponentPad*%
%ADD15O,1.600000X1.600000*%
%TD*%
%TA.AperFunction,ComponentPad*%
%ADD16R,1.440000X2.000000*%
%TD*%
%TA.AperFunction,ComponentPad*%
%ADD17O,1.440000X2.000000*%
%TD*%
%TA.AperFunction,ComponentPad*%
%ADD18C,1.700000*%
%TD*%
%TA.AperFunction,Conductor*%
%ADD19C,0.350000*%
%TD*%
%TA.AperFunction,Conductor*%
%ADD20C,0.254000*%
%TD*%
G04 APERTURE END LIST*
D10*
%TO.P,C1,1*%
%TO.N,Net-(C1-Pad1)*%
X39370000Y3810000D03*
%TO.P,C1,2*%
%TO.N,GND*%
X41870000Y3810000D03*
%TD*%
%TO.P,C2,1*%
%TO.N,GND*%
X46990000Y29210000D03*
%TO.P,C2,2*%
%TO.N,/XTAL1*%
X41990000Y29210000D03*
%TD*%
%TO.P,C3,2*%
%TO.N,/XTAL2*%
X24050000Y29210000D03*
%TO.P,C3,1*%
%TO.N,GND*%
X19050000Y29210000D03*
%TD*%
D11*
%TO.P,D1,1*%
%TO.N,GND*%
X38100000Y35560000D03*
D12*
%TO.P,D1,2*%
%TO.N,Net-(D1-Pad2)*%
X35560000Y35560000D03*
%TD*%
D13*
%TO.P,J1,1*%
%TO.N,/MOSI*%
X5080000Y22805000D03*
D14*
%TO.P,J1,2*%
%TO.N,Net-(C1-Pad1)*%
X7620000Y22805000D03*
%TO.P,J1,3*%
%TO.N,Net-(J1-Pad3)*%
X5080000Y20265000D03*
%TO.P,J1,4*%
%TO.N,GND*%
X7620000Y20265000D03*
%TO.P,J1,5*%
%TO.N,/RESET*%
X5080000Y17725000D03*
%TO.P,J1,6*%
%TO.N,GND*%
X7620000Y17725000D03*
%TO.P,J1,7*%
%TO.N,/SCK*%
X5080000Y15185000D03*
%TO.P,J1,8*%
%TO.N,GND*%
X7620000Y15185000D03*
%TO.P,J1,9*%
%TO.N,/MISO*%
X5080000Y12645000D03*
%TO.P,J1,10*%
%TO.N,GND*%
X7620000Y12645000D03*
%TD*%
D10*
%TO.P,R1,1*%
%TO.N,Net-(C1-Pad1)*%
X52070000Y29210000D03*
D15*
%TO.P,R1,2*%
%TO.N,/RESET*%
X59690000Y29210000D03*
%TD*%
%TO.P,R2,2*%
%TO.N,Net-(R2-Pad2)*%
X24130000Y35560000D03*
D10*
%TO.P,R2,1*%
%TO.N,Net-(D1-Pad2)*%
X31750000Y35560000D03*
%TD*%
D16*
%TO.P,U1,1*%
%TO.N,/RESET*%
X57150000Y21740000D03*
D17*
%TO.P,U1,28*%
%TO.N,Net-(U1-Pad28)*%
X57150000Y11580000D03*
%TO.P,U1,2*%
%TO.N,Net-(U1-Pad2)*%
X54610000Y21740000D03*
%TO.P,U1,27*%
%TO.N,Net-(U1-Pad27)*%
X54610000Y11580000D03*
%TO.P,U1,3*%
%TO.N,Net-(U1-Pad3)*%
X52070000Y21740000D03*
%TO.P,U1,26*%
%TO.N,Net-(U1-Pad26)*%
X52070000Y11580000D03*
%TO.P,U1,4*%
%TO.N,Net-(U1-Pad4)*%
X49530000Y21740000D03*
%TO.P,U1,25*%
%TO.N,Net-(U1-Pad25)*%
X49530000Y11580000D03*
%TO.P,U1,5*%
%TO.N,Net-(U1-Pad5)*%
X46990000Y21740000D03*
%TO.P,U1,24*%
%TO.N,Net-(U1-Pad24)*%
X46990000Y11580000D03*
%TO.P,U1,6*%
%TO.N,Net-(U1-Pad6)*%
X44450000Y21740000D03*
%TO.P,U1,23*%
%TO.N,Net-(U1-Pad23)*%
X44450000Y11580000D03*
%TO.P,U1,7*%
%TO.N,Net-(C1-Pad1)*%
X41910000Y21740000D03*
%TO.P,U1,22*%
%TO.N,GND*%
X41910000Y11580000D03*
%TO.P,U1,8*%
X39370000Y21740000D03*
%TO.P,U1,21*%
%TO.N,Net-(C1-Pad1)*%
X39370000Y11580000D03*
%TO.P,U1,9*%
%TO.N,/XTAL1*%
X36830000Y21740000D03*
%TO.P,U1,20*%
%TO.N,Net-(C1-Pad1)*%
X36830000Y11580000D03*
%TO.P,U1,10*%
%TO.N,/XTAL2*%
X34290000Y21740000D03*
%TO.P,U1,19*%
%TO.N,/SCK*%
X34290000Y11580000D03*
%TO.P,U1,11*%
%TO.N,Net-(U1-Pad11)*%
X31750000Y21740000D03*
%TO.P,U1,18*%
%TO.N,/MISO*%
X31750000Y11580000D03*
%TO.P,U1,12*%
%TO.N,Net-(U1-Pad12)*%
X29210000Y21740000D03*
%TO.P,U1,17*%
%TO.N,/MOSI*%
X29210000Y11580000D03*
%TO.P,U1,13*%
%TO.N,Net-(U1-Pad13)*%
X26670000Y21740000D03*
%TO.P,U1,16*%
%TO.N,Net-(U1-Pad16)*%
X26670000Y11580000D03*
%TO.P,U1,14*%
%TO.N,Net-(R2-Pad2)*%
X24130000Y21740000D03*
%TO.P,U1,15*%
%TO.N,Net-(U1-Pad15)*%
X24130000Y11580000D03*
%TD*%
D18*
%TO.P,Y1,1*%
%TO.N,/XTAL1*%
X35560000Y29210000D03*
%TO.P,Y1,2*%
%TO.N,/XTAL2*%
X30560000Y29210000D03*
%TD*%
D19*
%TO.N,Net-(C1-Pad1)*%
X41910000Y21740000D02*
X43005300Y21740000D01*
X43005300Y21740000D02*
X43005300Y22150700D01*
X43005300Y22150700D02*
X50064600Y29210000D01*
X50064600Y29210000D02*
X52070000Y29210000D01*
X36830000Y11580000D02*
X39370000Y11580000D01*
%TO.N,GND*%
X19050000Y29210000D02*
X17803900Y29210000D01*
X17803900Y29210000D02*
X8858900Y20265000D01*
X7620000Y20265000D02*
X8858900Y20265000D01*
X38100000Y35560000D02*
X36707200Y34167200D01*
X36707200Y34167200D02*
X24007200Y34167200D01*
X24007200Y34167200D02*
X19050000Y29210000D01*
X41910000Y11580000D02*
X41910000Y3850000D01*
X41910000Y3850000D02*
X41870000Y3810000D01*
%TO.N,/XTAL1*%
X36830000Y29210000D02*
X41990000Y29210000D01*
X35560000Y29210000D02*
X36830000Y29210000D01*
X36830000Y29210000D02*
X36830000Y21740000D01*
%TO.N,/XTAL2*%
X30560000Y29210000D02*
X24050000Y29210000D01*
%TO.N,Net-(D1-Pad2)*%
X31750000Y35560000D02*
X35560000Y35560000D01*
%TO.N,/RESET*%
X5080000Y17725000D02*
X6318900Y17725000D01*
X57150000Y21740000D02*
X56054700Y21740000D01*
X56054700Y21740000D02*
X56054700Y21329300D01*
X56054700Y21329300D02*
X53720400Y18995000D01*
X53720400Y18995000D02*
X7075500Y18995000D01*
X7075500Y18995000D02*
X6318900Y18238400D01*
X6318900Y18238400D02*
X6318900Y17725000D01*
%TO.N,/SCK*%
X5080000Y15185000D02*
X6318900Y15185000D01*
X34290000Y11580000D02*
X33194700Y11580000D01*
X33194700Y11580000D02*
X33194700Y11990700D01*
X33194700Y11990700D02*
X28730400Y16455000D01*
X28730400Y16455000D02*
X7075500Y16455000D01*
X7075500Y16455000D02*
X6318900Y15698400D01*
X6318900Y15698400D02*
X6318900Y15185000D01*
%TO.N,/MISO*%
X6318900Y12645000D02*
X6318900Y13158400D01*
X6318900Y13158400D02*
X7075500Y13915000D01*
X7075500Y13915000D02*
X28730400Y13915000D01*
X28730400Y13915000D02*
X30654700Y11990700D01*
X30654700Y11990700D02*
X30654700Y11580000D01*
X5080000Y12645000D02*
X6318900Y12645000D01*
X31750000Y11580000D02*
X30654700Y11580000D01*
%TD*%
D20*
%TO.N,GND*%
G36*
X80620001Y660000D02*
G01*
X660000Y660000D01*
X660000Y3951335D01*
X37935000Y3951335D01*
X37935000Y3668665D01*
X37990147Y3391426D01*
X38098320Y3130273D01*
X38255363Y2895241D01*
X38455241Y2695363D01*
X38690273Y2538320D01*
X38951426Y2430147D01*
X39228665Y2375000D01*
X39511335Y2375000D01*
X39788574Y2430147D01*
X40049727Y2538320D01*
X40284759Y2695363D01*
X40406694Y2817298D01*
X41056903Y2817298D01*
X41128486Y2573329D01*
X41383996Y2452429D01*
X41658184Y2383700D01*
X41940512Y2369783D01*
X42220130Y2411213D01*
X42486292Y2506397D01*
X42611514Y2573329D01*
X42683097Y2817298D01*
X41870000Y3630395D01*
X41056903Y2817298D01*
X40406694Y2817298D01*
X40484637Y2895241D01*
X40618692Y3095869D01*
X40633329Y3068486D01*
X40877298Y2996903D01*
X41690395Y3810000D01*
X42049605Y3810000D01*
X42862702Y2996903D01*
X43106671Y3068486D01*
X43227571Y3323996D01*
X43296300Y3598184D01*
X43310217Y3880512D01*
X43268787Y4160130D01*
X43173603Y4426292D01*
X43106671Y4551514D01*
X42862702Y4623097D01*
X42049605Y3810000D01*
X41690395Y3810000D01*
X40877298Y4623097D01*
X40633329Y4551514D01*
X40619676Y4522659D01*
X40484637Y4724759D01*
X40406694Y4802702D01*
X41056903Y4802702D01*
X41870000Y3989605D01*
X42683097Y4802702D01*
X42611514Y5046671D01*
X42356004Y5167571D01*
X42081816Y5236300D01*
X41799488Y5250217D01*
X41519870Y5208787D01*
X41253708Y5113603D01*
X41128486Y5046671D01*
X41056903Y4802702D01*
X40406694Y4802702D01*
X40284759Y4924637D01*
X40049727Y5081680D01*
X39788574Y5189853D01*
X39511335Y5245000D01*
X39228665Y5245000D01*
X38951426Y5189853D01*
X38690273Y5081680D01*
X38455241Y4924637D01*
X38255363Y4724759D01*
X38098320Y4489727D01*
X37990147Y4228574D01*
X37935000Y3951335D01*
X660000Y3951335D01*
X660000Y23668600D01*
X3578328Y23668600D01*
X3578328Y21941400D01*
X3590588Y21816918D01*
X3626898Y21697220D01*
X3685863Y21586906D01*
X3765215Y21490215D01*
X3861906Y21410863D01*
X3972220Y21351898D01*
X4030023Y21334364D01*
X3915961Y21220302D01*
X3751958Y20974853D01*
X3638990Y20702125D01*
X3581400Y20412599D01*
X3581400Y20117401D01*
X3638990Y19827875D01*
X3751958Y19555147D01*
X3915961Y19309698D01*
X4124698Y19100961D01*
X4283281Y18995000D01*
X4124698Y18889039D01*
X3915961Y18680302D01*
X3751958Y18434853D01*
X3638990Y18162125D01*
X3581400Y17872599D01*
X3581400Y17577401D01*
X3638990Y17287875D01*
X3751958Y17015147D01*
X3915961Y16769698D01*
X4124698Y16560961D01*
X4283281Y16455000D01*
X4124698Y16349039D01*
X3915961Y16140302D01*
X3751958Y15894853D01*
X3638990Y15622125D01*
X3581400Y15332599D01*
X3581400Y15037401D01*
X3638990Y14747875D01*
X3751958Y14475147D01*
X3915961Y14229698D01*
X4124698Y14020961D01*
X4283281Y13915000D01*
X4124698Y13809039D01*
X3915961Y13600302D01*
X3751958Y13354853D01*
X3638990Y13082125D01*
X3581400Y12792599D01*
X3581400Y12497401D01*
X3638990Y12207875D01*
X3751958Y11935147D01*
X3915961Y11689698D01*
X4124698Y11480961D01*
X4370147Y11316958D01*
X4642875Y11203990D01*
X4932401Y11146400D01*
X5227599Y11146400D01*
X5517125Y11203990D01*
X5789853Y11316958D01*
X6035302Y11480961D01*
X6244039Y11689698D01*
X6339889Y11833148D01*
X6358691Y11835000D01*
X6363176Y11835442D01*
X6513146Y11634707D01*
X6731512Y11438183D01*
X6984022Y11288036D01*
X7260973Y11190037D01*
X7493000Y11310536D01*
X7493000Y12518000D01*
X7747000Y12518000D01*
X7747000Y11310536D01*
X7979027Y11190037D01*
X8255978Y11288036D01*
X8508488Y11438183D01*
X8726854Y11634707D01*
X8902684Y11870056D01*
X9029222Y12135186D01*
X9074958Y12285974D01*
X8953817Y12518000D01*
X7747000Y12518000D01*
X7493000Y12518000D01*
X7473000Y12518000D01*
X7473000Y12772000D01*
X7493000Y12772000D01*
X7493000Y12792000D01*
X7747000Y12792000D01*
X7747000Y12772000D01*
X8953817Y12772000D01*
X9074958Y13004026D01*
X9044331Y13105000D01*
X23584796Y13105000D01*
X23373561Y12992092D01*
X23167236Y12822765D01*
X22997908Y12616440D01*
X22872086Y12381045D01*
X22794606Y12125626D01*
X22775000Y11926564D01*
X22775000Y11233437D01*
X22794606Y11034375D01*
X22872086Y10778956D01*
X22997908Y10543561D01*
X23167235Y10337236D01*
X23373560Y10167908D01*
X23608955Y10042086D01*
X23864374Y9964606D01*
X24130000Y9938444D01*
X24395625Y9964606D01*
X24651044Y10042086D01*
X24886439Y10167908D01*
X25092764Y10337235D01*
X25262092Y10543560D01*
X25387914Y10778955D01*
X25400000Y10818798D01*
X25412086Y10778956D01*
X25537908Y10543561D01*
X25707235Y10337236D01*
X25913560Y10167908D01*
X26148955Y10042086D01*
X26404374Y9964606D01*
X26670000Y9938444D01*
X26935625Y9964606D01*
X27191044Y10042086D01*
X27426439Y10167908D01*
X27632764Y10337235D01*
X27802092Y10543560D01*
X27927914Y10778955D01*
X27940000Y10818798D01*
X27952086Y10778956D01*
X28077908Y10543561D01*
X28247235Y10337236D01*
X28453560Y10167908D01*
X28688955Y10042086D01*
X28944374Y9964606D01*
X29210000Y9938444D01*
X29475625Y9964606D01*
X29731044Y10042086D01*
X29966439Y10167908D01*
X30172764Y10337235D01*
X30342092Y10543560D01*
X30467914Y10778955D01*
X30471041Y10789265D01*
X30490775Y10783278D01*
X30492086Y10778956D01*
X30617908Y10543561D01*
X30787235Y10337236D01*
X30993560Y10167908D01*
X31228955Y10042086D01*
X31484374Y9964606D01*
X31750000Y9938444D01*
X32015625Y9964606D01*
X32271044Y10042086D01*
X32506439Y10167908D01*
X32712764Y10337235D01*
X32882092Y10543560D01*
X33007914Y10778955D01*
X33011041Y10789265D01*
X33030775Y10783278D01*
X33032086Y10778956D01*
X33157908Y10543561D01*
X33327235Y10337236D01*
X33533560Y10167908D01*
X33768955Y10042086D01*
X34024374Y9964606D01*
X34290000Y9938444D01*
X34555625Y9964606D01*
X34811044Y10042086D01*
X35046439Y10167908D01*
X35252764Y10337235D01*
X35422092Y10543560D01*
X35547914Y10778955D01*
X35560000Y10818798D01*
X35572086Y10778956D01*
X35697908Y10543561D01*
X35867235Y10337236D01*
X36073560Y10167908D01*
X36308955Y10042086D01*
X36564374Y9964606D01*
X36830000Y9938444D01*
X37095625Y9964606D01*
X37351044Y10042086D01*
X37586439Y10167908D01*
X37792764Y10337235D01*
X37962092Y10543560D01*
X38083127Y10770000D01*
X38116873Y10770000D01*
X38237908Y10543561D01*
X38407235Y10337236D01*
X38613560Y10167908D01*
X38848955Y10042086D01*
X39104374Y9964606D01*
X39370000Y9938444D01*
X39635625Y9964606D01*
X39891044Y10042086D01*
X40126439Y10167908D01*
X40332764Y10337235D01*
X40502092Y10543560D01*
X40627914Y10778955D01*
X40641505Y10823759D01*
X40706744Y10664131D01*
X40853916Y10441605D01*
X41041673Y10252067D01*
X41262799Y10102801D01*
X41508797Y9999542D01*
X41573528Y9987441D01*
X41783000Y10110511D01*
X41783000Y11453000D01*
X41763000Y11453000D01*
X41763000Y11707000D01*
X41783000Y11707000D01*
X41783000Y13049489D01*
X42037000Y13049489D01*
X42037000Y11707000D01*
X42057000Y11707000D01*
X42057000Y11453000D01*
X42037000Y11453000D01*
X42037000Y10110511D01*
X42246472Y9987441D01*
X42311203Y9999542D01*
X42557201Y10102801D01*
X42778327Y10252067D01*
X42966084Y10441605D01*
X43113256Y10664131D01*
X43178495Y10823759D01*
X43192086Y10778956D01*
X43317908Y10543561D01*
X43487235Y10337236D01*
X43693560Y10167908D01*
X43928955Y10042086D01*
X44184374Y9964606D01*
X44450000Y9938444D01*
X44715625Y9964606D01*
X44971044Y10042086D01*
X45206439Y10167908D01*
X45412764Y10337235D01*
X45582092Y10543560D01*
X45707914Y10778955D01*
X45720000Y10818798D01*
X45732086Y10778956D01*
X45857908Y10543561D01*
X46027235Y10337236D01*
X46233560Y10167908D01*
X46468955Y10042086D01*
X46724374Y9964606D01*
X46990000Y9938444D01*
X47255625Y9964606D01*
X47511044Y10042086D01*
X47746439Y10167908D01*
X47952764Y10337235D01*
X48122092Y10543560D01*
X48247914Y10778955D01*
X48260000Y10818798D01*
X48272086Y10778956D01*
X48397908Y10543561D01*
X48567235Y10337236D01*
X48773560Y10167908D01*
X49008955Y10042086D01*
X49264374Y9964606D01*
X49530000Y9938444D01*
X49795625Y9964606D01*
X50051044Y10042086D01*
X50286439Y10167908D01*
X50492764Y10337235D01*
X50662092Y10543560D01*
X50787914Y10778955D01*
X50800000Y10818798D01*
X50812086Y10778956D01*
X50937908Y10543561D01*
X51107235Y10337236D01*
X51313560Y10167908D01*
X51548955Y10042086D01*
X51804374Y9964606D01*
X52070000Y9938444D01*
X52335625Y9964606D01*
X52591044Y10042086D01*
X52826439Y10167908D01*
X53032764Y10337235D01*
X53202092Y10543560D01*
X53327914Y10778955D01*
X53340000Y10818798D01*
X53352086Y10778956D01*
X53477908Y10543561D01*
X53647235Y10337236D01*
X53853560Y10167908D01*
X54088955Y10042086D01*
X54344374Y9964606D01*
X54610000Y9938444D01*
X54875625Y9964606D01*
X55131044Y10042086D01*
X55366439Y10167908D01*
X55572764Y10337235D01*
X55742092Y10543560D01*
X55867914Y10778955D01*
X55880000Y10818798D01*
X55892086Y10778956D01*
X56017908Y10543561D01*
X56187235Y10337236D01*
X56393560Y10167908D01*
X56628955Y10042086D01*
X56884374Y9964606D01*
X57150000Y9938444D01*
X57415625Y9964606D01*
X57671044Y10042086D01*
X57906439Y10167908D01*
X58112764Y10337235D01*
X58282092Y10543560D01*
X58407914Y10778955D01*
X58485394Y11034374D01*
X58505000Y11233436D01*
X58505000Y11926563D01*
X58485394Y12125625D01*
X58407914Y12381045D01*
X58282092Y12616440D01*
X58112765Y12822765D01*
X57906440Y12992092D01*
X57671045Y13117914D01*
X57415626Y13195394D01*
X57150000Y13221556D01*
X56884375Y13195394D01*
X56628956Y13117914D01*
X56393561Y12992092D01*
X56187236Y12822765D01*
X56017908Y12616440D01*
X55892086Y12381045D01*
X55880000Y12341202D01*
X55867914Y12381045D01*
X55742092Y12616440D01*
X55572765Y12822765D01*
X55366440Y12992092D01*
X55131045Y13117914D01*
X54875626Y13195394D01*
X54610000Y13221556D01*
X54344375Y13195394D01*
X54088956Y13117914D01*
X53853561Y12992092D01*
X53647236Y12822765D01*
X53477908Y12616440D01*
X53352086Y12381045D01*
X53340000Y12341202D01*
X53327914Y12381045D01*
X53202092Y12616440D01*
X53032765Y12822765D01*
X52826440Y12992092D01*
X52591045Y13117914D01*
X52335626Y13195394D01*
X52070000Y13221556D01*
X51804375Y13195394D01*
X51548956Y13117914D01*
X51313561Y12992092D01*
X51107236Y12822765D01*
X50937908Y12616440D01*
X50812086Y12381045D01*
X50800000Y12341202D01*
X50787914Y12381045D01*
X50662092Y12616440D01*
X50492765Y12822765D01*
X50286440Y12992092D01*
X50051045Y13117914D01*
X49795626Y13195394D01*
X49530000Y13221556D01*
X49264375Y13195394D01*
X49008956Y13117914D01*
X48773561Y12992092D01*
X48567236Y12822765D01*
X48397908Y12616440D01*
X48272086Y12381045D01*
X48260000Y12341202D01*
X48247914Y12381045D01*
X48122092Y12616440D01*
X47952765Y12822765D01*
X47746440Y12992092D01*
X47511045Y13117914D01*
X47255626Y13195394D01*
X46990000Y13221556D01*
X46724375Y13195394D01*
X46468956Y13117914D01*
X46233561Y12992092D01*
X46027236Y12822765D01*
X45857908Y12616440D01*
X45732086Y12381045D01*
X45720000Y12341202D01*
X45707914Y12381045D01*
X45582092Y12616440D01*
X45412765Y12822765D01*
X45206440Y12992092D01*
X44971045Y13117914D01*
X44715626Y13195394D01*
X44450000Y13221556D01*
X44184375Y13195394D01*
X43928956Y13117914D01*
X43693561Y12992092D01*
X43487236Y12822765D01*
X43317908Y12616440D01*
X43192086Y12381045D01*
X43178495Y12336241D01*
X43113256Y12495869D01*
X42966084Y12718395D01*
X42778327Y12907933D01*
X42557201Y13057199D01*
X42311203Y13160458D01*
X42246472Y13172559D01*
X42037000Y13049489D01*
X41783000Y13049489D01*
X41573528Y13172559D01*
X41508797Y13160458D01*
X41262799Y13057199D01*
X41041673Y12907933D01*
X40853916Y12718395D01*
X40706744Y12495869D01*
X40641505Y12336241D01*
X40627914Y12381045D01*
X40502092Y12616440D01*
X40332765Y12822765D01*
X40126440Y12992092D01*
X39891045Y13117914D01*
X39635626Y13195394D01*
X39370000Y13221556D01*
X39104375Y13195394D01*
X38848956Y13117914D01*
X38613561Y12992092D01*
X38407236Y12822765D01*
X38237908Y12616440D01*
X38116873Y12390000D01*
X38083127Y12390000D01*
X37962092Y12616440D01*
X37792765Y12822765D01*
X37586440Y12992092D01*
X37351045Y13117914D01*
X37095626Y13195394D01*
X36830000Y13221556D01*
X36564375Y13195394D01*
X36308956Y13117914D01*
X36073561Y12992092D01*
X35867236Y12822765D01*
X35697908Y12616440D01*
X35572086Y12381045D01*
X35560000Y12341202D01*
X35547914Y12381045D01*
X35422092Y12616440D01*
X35252765Y12822765D01*
X35046440Y12992092D01*
X34811045Y13117914D01*
X34555626Y13195394D01*
X34290000Y13221556D01*
X34024375Y13195394D01*
X33768956Y13117914D01*
X33533561Y12992092D01*
X33426601Y12904312D01*
X29331300Y16999612D01*
X29305928Y17030528D01*
X29182589Y17131749D01*
X29041873Y17206963D01*
X28889188Y17253280D01*
X28770191Y17265000D01*
X28770188Y17265000D01*
X28730400Y17268919D01*
X28690612Y17265000D01*
X9044331Y17265000D01*
X9074958Y17365974D01*
X8953817Y17598000D01*
X7747000Y17598000D01*
X7747000Y17578000D01*
X7493000Y17578000D01*
X7493000Y17598000D01*
X7473000Y17598000D01*
X7473000Y17852000D01*
X7493000Y17852000D01*
X7493000Y17872000D01*
X7747000Y17872000D01*
X7747000Y17852000D01*
X8953817Y17852000D01*
X9074958Y18084026D01*
X9044331Y18185000D01*
X53680612Y18185000D01*
X53720400Y18181081D01*
X53760188Y18185000D01*
X53760191Y18185000D01*
X53879188Y18196720D01*
X54031873Y18243037D01*
X54172589Y18318251D01*
X54295928Y18419472D01*
X54321300Y18450387D01*
X56078679Y20207767D01*
X56185820Y20150498D01*
X56305518Y20114188D01*
X56430000Y20101928D01*
X57870000Y20101928D01*
X57994482Y20114188D01*
X58114180Y20150498D01*
X58224494Y20209463D01*
X58321185Y20288815D01*
X58400537Y20385506D01*
X58459502Y20495820D01*
X58495812Y20615518D01*
X58508072Y20740000D01*
X58508072Y22740000D01*
X58495812Y22864482D01*
X58459502Y22984180D01*
X58400537Y23094494D01*
X58321185Y23191185D01*
X58224494Y23270537D01*
X58114180Y23329502D01*
X57994482Y23365812D01*
X57870000Y23378072D01*
X56430000Y23378072D01*
X56305518Y23365812D01*
X56185820Y23329502D01*
X56075506Y23270537D01*
X55978815Y23191185D01*
X55899463Y23094494D01*
X55840498Y22984180D01*
X55804188Y22864482D01*
X55791928Y22740000D01*
X55791928Y22683204D01*
X55742092Y22776440D01*
X55572765Y22982765D01*
X55366440Y23152092D01*
X55131045Y23277914D01*
X54875626Y23355394D01*
X54610000Y23381556D01*
X54344375Y23355394D01*
X54088956Y23277914D01*
X53853561Y23152092D01*
X53647236Y22982765D01*
X53477908Y22776440D01*
X53352086Y22541045D01*
X53340000Y22501202D01*
X53327914Y22541045D01*
X53202092Y22776440D01*
X53032765Y22982765D01*
X52826440Y23152092D01*
X52591045Y23277914D01*
X52335626Y23355394D01*
X52070000Y23381556D01*
X51804375Y23355394D01*
X51548956Y23277914D01*
X51313561Y23152092D01*
X51107236Y22982765D01*
X50937908Y22776440D01*
X50812086Y22541045D01*
X50800000Y22501202D01*
X50787914Y22541045D01*
X50662092Y22776440D01*
X50492765Y22982765D01*
X50286440Y23152092D01*
X50051045Y23277914D01*
X49795626Y23355394D01*
X49530000Y23381556D01*
X49264375Y23355394D01*
X49008956Y23277914D01*
X48773561Y23152092D01*
X48567236Y22982765D01*
X48397908Y22776440D01*
X48272086Y22541045D01*
X48260000Y22501202D01*
X48247914Y22541045D01*
X48122092Y22776440D01*
X47952765Y22982765D01*
X47746440Y23152092D01*
X47511045Y23277914D01*
X47255626Y23355394D01*
X46990000Y23381556D01*
X46724375Y23355394D01*
X46468956Y23277914D01*
X46233561Y23152092D01*
X46027236Y22982765D01*
X45857908Y22776440D01*
X45732086Y22541045D01*
X45720000Y22501202D01*
X45707914Y22541045D01*
X45582092Y22776440D01*
X45412765Y22982765D01*
X45206440Y23152092D01*
X45171096Y23170984D01*
X50400113Y28400000D01*
X50885365Y28400000D01*
X50955363Y28295241D01*
X51155241Y28095363D01*
X51390273Y27938320D01*
X51651426Y27830147D01*
X51928665Y27775000D01*
X52211335Y27775000D01*
X52488574Y27830147D01*
X52749727Y27938320D01*
X52984759Y28095363D01*
X53184637Y28295241D01*
X53341680Y28530273D01*
X53449853Y28791426D01*
X53505000Y29068665D01*
X53505000Y29351335D01*
X58255000Y29351335D01*
X58255000Y29068665D01*
X58310147Y28791426D01*
X58418320Y28530273D01*
X58575363Y28295241D01*
X58775241Y28095363D01*
X59010273Y27938320D01*
X59271426Y27830147D01*
X59548665Y27775000D01*
X59831335Y27775000D01*
X60108574Y27830147D01*
X60369727Y27938320D01*
X60604759Y28095363D01*
X60804637Y28295241D01*
X60961680Y28530273D01*
X61069853Y28791426D01*
X61125000Y29068665D01*
X61125000Y29351335D01*
X61069853Y29628574D01*
X60961680Y29889727D01*
X60804637Y30124759D01*
X60604759Y30324637D01*
X60369727Y30481680D01*
X60108574Y30589853D01*
X59831335Y30645000D01*
X59548665Y30645000D01*
X59271426Y30589853D01*
X59010273Y30481680D01*
X58775241Y30324637D01*
X58575363Y30124759D01*
X58418320Y29889727D01*
X58310147Y29628574D01*
X58255000Y29351335D01*
X53505000Y29351335D01*
X53449853Y29628574D01*
X53341680Y29889727D01*
X53184637Y30124759D01*
X52984759Y30324637D01*
X52749727Y30481680D01*
X52488574Y30589853D01*
X52211335Y30645000D01*
X51928665Y30645000D01*
X51651426Y30589853D01*
X51390273Y30481680D01*
X51155241Y30324637D01*
X50955363Y30124759D01*
X50885365Y30020000D01*
X50104388Y30020000D01*
X50064600Y30023919D01*
X50024812Y30020000D01*
X50024809Y30020000D01*
X49905812Y30008280D01*
X49753127Y29961963D01*
X49612411Y29886749D01*
X49489072Y29785528D01*
X49463705Y29754618D01*
X48270768Y28561681D01*
X48347571Y28723996D01*
X48416300Y28998184D01*
X48430217Y29280512D01*
X48388787Y29560130D01*
X48293603Y29826292D01*
X48226671Y29951514D01*
X47982702Y30023097D01*
X47169605Y29210000D01*
X47183748Y29195857D01*
X47004143Y29016252D01*
X46990000Y29030395D01*
X46176903Y28217298D01*
X46248486Y27973329D01*
X46503996Y27852429D01*
X46778184Y27783700D01*
X47060512Y27769783D01*
X47340130Y27811213D01*
X47606292Y27906397D01*
X47626039Y27916952D01*
X42773400Y23064312D01*
X42666440Y23152092D01*
X42431045Y23277914D01*
X42175626Y23355394D01*
X41910000Y23381556D01*
X41644375Y23355394D01*
X41388956Y23277914D01*
X41153561Y23152092D01*
X40947236Y22982765D01*
X40777908Y22776440D01*
X40652086Y22541045D01*
X40638495Y22496241D01*
X40573256Y22655869D01*
X40426084Y22878395D01*
X40238327Y23067933D01*
X40017201Y23217199D01*
X39771203Y23320458D01*
X39706472Y23332559D01*
X39497000Y23209489D01*
X39497000Y21867000D01*
X39517000Y21867000D01*
X39517000Y21613000D01*
X39497000Y21613000D01*
X39497000Y20270511D01*
X39706472Y20147441D01*
X39771203Y20159542D01*
X40017201Y20262801D01*
X40238327Y20412067D01*
X40426084Y20601605D01*
X40573256Y20824131D01*
X40638495Y20983759D01*
X40652086Y20938956D01*
X40777908Y20703561D01*
X40947235Y20497236D01*
X41153560Y20327908D01*
X41388955Y20202086D01*
X41644374Y20124606D01*
X41910000Y20098444D01*
X42175625Y20124606D01*
X42431044Y20202086D01*
X42666439Y20327908D01*
X42872764Y20497235D01*
X43042092Y20703560D01*
X43167914Y20938955D01*
X43169225Y20943278D01*
X43188959Y20949265D01*
X43192086Y20938956D01*
X43317908Y20703561D01*
X43487235Y20497236D01*
X43693560Y20327908D01*
X43928955Y20202086D01*
X44184374Y20124606D01*
X44450000Y20098444D01*
X44715625Y20124606D01*
X44971044Y20202086D01*
X45206439Y20327908D01*
X45412764Y20497235D01*
X45582092Y20703560D01*
X45707914Y20938955D01*
X45720000Y20978798D01*
X45732086Y20938956D01*
X45857908Y20703561D01*
X46027235Y20497236D01*
X46233560Y20327908D01*
X46468955Y20202086D01*
X46724374Y20124606D01*
X46990000Y20098444D01*
X47255625Y20124606D01*
X47511044Y20202086D01*
X47746439Y20327908D01*
X47952764Y20497235D01*
X48122092Y20703560D01*
X48247914Y20938955D01*
X48260000Y20978798D01*
X48272086Y20938956D01*
X48397908Y20703561D01*
X48567235Y20497236D01*
X48773560Y20327908D01*
X49008955Y20202086D01*
X49264374Y20124606D01*
X49530000Y20098444D01*
X49795625Y20124606D01*
X50051044Y20202086D01*
X50286439Y20327908D01*
X50492764Y20497235D01*
X50662092Y20703560D01*
X50787914Y20938955D01*
X50800000Y20978798D01*
X50812086Y20938956D01*
X50937908Y20703561D01*
X51107235Y20497236D01*
X51313560Y20327908D01*
X51548955Y20202086D01*
X51804374Y20124606D01*
X52070000Y20098444D01*
X52335625Y20124606D01*
X52591044Y20202086D01*
X52826439Y20327908D01*
X53032764Y20497235D01*
X53202092Y20703560D01*
X53327914Y20938955D01*
X53340000Y20978798D01*
X53352086Y20938956D01*
X53477908Y20703561D01*
X53647235Y20497236D01*
X53853560Y20327908D01*
X53888904Y20309016D01*
X53384888Y19805000D01*
X9044331Y19805000D01*
X9074958Y19905974D01*
X8953817Y20138000D01*
X7747000Y20138000D01*
X7747000Y20118000D01*
X7493000Y20118000D01*
X7493000Y20138000D01*
X7473000Y20138000D01*
X7473000Y20392000D01*
X7493000Y20392000D01*
X7493000Y20412000D01*
X7747000Y20412000D01*
X7747000Y20392000D01*
X8953817Y20392000D01*
X9074958Y20624026D01*
X9029222Y20774814D01*
X8902684Y21039944D01*
X8726854Y21275293D01*
X8508488Y21471817D01*
X8409897Y21530441D01*
X8575302Y21640961D01*
X8784039Y21849698D01*
X8942307Y22086564D01*
X22775000Y22086564D01*
X22775000Y21393437D01*
X22794606Y21194375D01*
X22872086Y20938956D01*
X22997908Y20703561D01*
X23167235Y20497236D01*
X23373560Y20327908D01*
X23608955Y20202086D01*
X23864374Y20124606D01*
X24130000Y20098444D01*
X24395625Y20124606D01*
X24651044Y20202086D01*
X24886439Y20327908D01*
X25092764Y20497235D01*
X25262092Y20703560D01*
X25387914Y20938955D01*
X25400000Y20978798D01*
X25412086Y20938956D01*
X25537908Y20703561D01*
X25707235Y20497236D01*
X25913560Y20327908D01*
X26148955Y20202086D01*
X26404374Y20124606D01*
X26670000Y20098444D01*
X26935625Y20124606D01*
X27191044Y20202086D01*
X27426439Y20327908D01*
X27632764Y20497235D01*
X27802092Y20703560D01*
X27927914Y20938955D01*
X27940000Y20978798D01*
X27952086Y20938956D01*
X28077908Y20703561D01*
X28247235Y20497236D01*
X28453560Y20327908D01*
X28688955Y20202086D01*
X28944374Y20124606D01*
X29210000Y20098444D01*
X29475625Y20124606D01*
X29731044Y20202086D01*
X29966439Y20327908D01*
X30172764Y20497235D01*
X30342092Y20703560D01*
X30467914Y20938955D01*
X30480000Y20978798D01*
X30492086Y20938956D01*
X30617908Y20703561D01*
X30787235Y20497236D01*
X30993560Y20327908D01*
X31228955Y20202086D01*
X31484374Y20124606D01*
X31750000Y20098444D01*
X32015625Y20124606D01*
X32271044Y20202086D01*
X32506439Y20327908D01*
X32712764Y20497235D01*
X32882092Y20703560D01*
X33007914Y20938955D01*
X33020000Y20978798D01*
X33032086Y20938956D01*
X33157908Y20703561D01*
X33327235Y20497236D01*
X33533560Y20327908D01*
X33768955Y20202086D01*
X34024374Y20124606D01*
X34290000Y20098444D01*
X34555625Y20124606D01*
X34811044Y20202086D01*
X35046439Y20327908D01*
X35252764Y20497235D01*
X35422092Y20703560D01*
X35547914Y20938955D01*
X35560000Y20978798D01*
X35572086Y20938956D01*
X35697908Y20703561D01*
X35867235Y20497236D01*
X36073560Y20327908D01*
X36308955Y20202086D01*
X36564374Y20124606D01*
X36830000Y20098444D01*
X37095625Y20124606D01*
X37351044Y20202086D01*
X37586439Y20327908D01*
X37792764Y20497235D01*
X37962092Y20703560D01*
X38087914Y20938955D01*
X38101505Y20983759D01*
X38166744Y20824131D01*
X38313916Y20601605D01*
X38501673Y20412067D01*
X38722799Y20262801D01*
X38968797Y20159542D01*
X39033528Y20147441D01*
X39243000Y20270511D01*
X39243000Y21613000D01*
X39223000Y21613000D01*
X39223000Y21867000D01*
X39243000Y21867000D01*
X39243000Y23209489D01*
X39033528Y23332559D01*
X38968797Y23320458D01*
X38722799Y23217199D01*
X38501673Y23067933D01*
X38313916Y22878395D01*
X38166744Y22655869D01*
X38101505Y22496241D01*
X38087914Y22541045D01*
X37962092Y22776440D01*
X37792765Y22982765D01*
X37640000Y23108136D01*
X37640000Y28400000D01*
X40805365Y28400000D01*
X40875363Y28295241D01*
X41075241Y28095363D01*
X41310273Y27938320D01*
X41571426Y27830147D01*
X41848665Y27775000D01*
X42131335Y27775000D01*
X42408574Y27830147D01*
X42669727Y27938320D01*
X42904759Y28095363D01*
X43104637Y28295241D01*
X43261680Y28530273D01*
X43369853Y28791426D01*
X43425000Y29068665D01*
X43425000Y29139488D01*
X45549783Y29139488D01*
X45591213Y28859870D01*
X45686397Y28593708D01*
X45753329Y28468486D01*
X45997298Y28396903D01*
X46810395Y29210000D01*
X45997298Y30023097D01*
X45753329Y29951514D01*
X45632429Y29696004D01*
X45563700Y29421816D01*
X45549783Y29139488D01*
X43425000Y29139488D01*
X43425000Y29351335D01*
X43369853Y29628574D01*
X43261680Y29889727D01*
X43104637Y30124759D01*
X43026694Y30202702D01*
X46176903Y30202702D01*
X46990000Y29389605D01*
X47803097Y30202702D01*
X47731514Y30446671D01*
X47476004Y30567571D01*
X47201816Y30636300D01*
X46919488Y30650217D01*
X46639870Y30608787D01*
X46373708Y30513603D01*
X46248486Y30446671D01*
X46176903Y30202702D01*
X43026694Y30202702D01*
X42904759Y30324637D01*
X42669727Y30481680D01*
X42408574Y30589853D01*
X42131335Y30645000D01*
X41848665Y30645000D01*
X41571426Y30589853D01*
X41310273Y30481680D01*
X41075241Y30324637D01*
X40875363Y30124759D01*
X40805365Y30020000D01*
X36869791Y30020000D01*
X36830000Y30023919D01*
X36803870Y30021346D01*
X36713475Y30156632D01*
X36506632Y30363475D01*
X36263411Y30525990D01*
X35993158Y30637932D01*
X35706260Y30695000D01*
X35413740Y30695000D01*
X35126842Y30637932D01*
X34856589Y30525990D01*
X34613368Y30363475D01*
X34406525Y30156632D01*
X34244010Y29913411D01*
X34132068Y29643158D01*
X34075000Y29356260D01*
X34075000Y29063740D01*
X34132068Y28776842D01*
X34244010Y28506589D01*
X34406525Y28263368D01*
X34613368Y28056525D01*
X34856589Y27894010D01*
X35126842Y27782068D01*
X35413740Y27725000D01*
X35706260Y27725000D01*
X35993158Y27782068D01*
X36020000Y27793186D01*
X36020001Y23108136D01*
X35867236Y22982765D01*
X35697908Y22776440D01*
X35572086Y22541045D01*
X35560000Y22501202D01*
X35547914Y22541045D01*
X35422092Y22776440D01*
X35252765Y22982765D01*
X35046440Y23152092D01*
X34811045Y23277914D01*
X34555626Y23355394D01*
X34290000Y23381556D01*
X34024375Y23355394D01*
X33768956Y23277914D01*
X33533561Y23152092D01*
X33327236Y22982765D01*
X33157908Y22776440D01*
X33032086Y22541045D01*
X33020000Y22501202D01*
X33007914Y22541045D01*
X32882092Y22776440D01*
X32712765Y22982765D01*
X32506440Y23152092D01*
X32271045Y23277914D01*
X32015626Y23355394D01*
X31750000Y23381556D01*
X31484375Y23355394D01*
X31228956Y23277914D01*
X30993561Y23152092D01*
X30787236Y22982765D01*
X30617908Y22776440D01*
X30492086Y22541045D01*
X30480000Y22501202D01*
X30467914Y22541045D01*
X30342092Y22776440D01*
X30172765Y22982765D01*
X29966440Y23152092D01*
X29731045Y23277914D01*
X29475626Y23355394D01*
X29210000Y23381556D01*
X28944375Y23355394D01*
X28688956Y23277914D01*
X28453561Y23152092D01*
X28247236Y22982765D01*
X28077908Y22776440D01*
X27952086Y22541045D01*
X27940000Y22501202D01*
X27927914Y22541045D01*
X27802092Y22776440D01*
X27632765Y22982765D01*
X27426440Y23152092D01*
X27191045Y23277914D01*
X26935626Y23355394D01*
X26670000Y23381556D01*
X26404375Y23355394D01*
X26148956Y23277914D01*
X25913561Y23152092D01*
X25707236Y22982765D01*
X25537908Y22776440D01*
X25412086Y22541045D01*
X25400000Y22501202D01*
X25387914Y22541045D01*
X25262092Y22776440D01*
X25092765Y22982765D01*
X24886440Y23152092D01*
X24651045Y23277914D01*
X24395626Y23355394D01*
X24130000Y23381556D01*
X23864375Y23355394D01*
X23608956Y23277914D01*
X23373561Y23152092D01*
X23167236Y22982765D01*
X22997908Y22776440D01*
X22872086Y22541045D01*
X22794606Y22285626D01*
X22775000Y22086564D01*
X8942307Y22086564D01*
X8948042Y22095147D01*
X9061010Y22367875D01*
X9118600Y22657401D01*
X9118600Y22952599D01*
X9061010Y23242125D01*
X8948042Y23514853D01*
X8784039Y23760302D01*
X8575302Y23969039D01*
X8329853Y24133042D01*
X8057125Y24246010D01*
X7767599Y24303600D01*
X7472401Y24303600D01*
X7182875Y24246010D01*
X6910147Y24133042D01*
X6664698Y23969039D01*
X6550636Y23854977D01*
X6533102Y23912780D01*
X6474137Y24023094D01*
X6394785Y24119785D01*
X6298094Y24199137D01*
X6187780Y24258102D01*
X6068082Y24294412D01*
X5943600Y24306672D01*
X4216400Y24306672D01*
X4091918Y24294412D01*
X3972220Y24258102D01*
X3861906Y24199137D01*
X3765215Y24119785D01*
X3685863Y24023094D01*
X3626898Y23912780D01*
X3590588Y23793082D01*
X3578328Y23668600D01*
X660000Y23668600D01*
X660000Y28217298D01*
X18236903Y28217298D01*
X18308486Y27973329D01*
X18563996Y27852429D01*
X18838184Y27783700D01*
X19120512Y27769783D01*
X19400130Y27811213D01*
X19666292Y27906397D01*
X19791514Y27973329D01*
X19863097Y28217298D01*
X19050000Y29030395D01*
X18236903Y28217298D01*
X660000Y28217298D01*
X660000Y29139488D01*
X17609783Y29139488D01*
X17651213Y28859870D01*
X17746397Y28593708D01*
X17813329Y28468486D01*
X18057298Y28396903D01*
X18870395Y29210000D01*
X19229605Y29210000D01*
X20042702Y28396903D01*
X20286671Y28468486D01*
X20407571Y28723996D01*
X20476300Y28998184D01*
X20490217Y29280512D01*
X20479724Y29351335D01*
X22615000Y29351335D01*
X22615000Y29068665D01*
X22670147Y28791426D01*
X22778320Y28530273D01*
X22935363Y28295241D01*
X23135241Y28095363D01*
X23370273Y27938320D01*
X23631426Y27830147D01*
X23908665Y27775000D01*
X24191335Y27775000D01*
X24468574Y27830147D01*
X24729727Y27938320D01*
X24964759Y28095363D01*
X25164637Y28295241D01*
X25234635Y28400000D01*
X29315230Y28400000D01*
X29406525Y28263368D01*
X29613368Y28056525D01*
X29856589Y27894010D01*
X30126842Y27782068D01*
X30413740Y27725000D01*
X30706260Y27725000D01*
X30993158Y27782068D01*
X31263411Y27894010D01*
X31506632Y28056525D01*
X31713475Y28263368D01*
X31875990Y28506589D01*
X31987932Y28776842D01*
X32045000Y29063740D01*
X32045000Y29356260D01*
X31987932Y29643158D01*
X31875990Y29913411D01*
X31713475Y30156632D01*
X31506632Y30363475D01*
X31263411Y30525990D01*
X30993158Y30637932D01*
X30706260Y30695000D01*
X30413740Y30695000D01*
X30126842Y30637932D01*
X29856589Y30525990D01*
X29613368Y30363475D01*
X29406525Y30156632D01*
X29315230Y30020000D01*
X25234635Y30020000D01*
X25164637Y30124759D01*
X24964759Y30324637D01*
X24729727Y30481680D01*
X24468574Y30589853D01*
X24191335Y30645000D01*
X23908665Y30645000D01*
X23631426Y30589853D01*
X23370273Y30481680D01*
X23135241Y30324637D01*
X22935363Y30124759D01*
X22778320Y29889727D01*
X22670147Y29628574D01*
X22615000Y29351335D01*
X20479724Y29351335D01*
X20448787Y29560130D01*
X20353603Y29826292D01*
X20286671Y29951514D01*
X20042702Y30023097D01*
X19229605Y29210000D01*
X18870395Y29210000D01*
X18057298Y30023097D01*
X17813329Y29951514D01*
X17692429Y29696004D01*
X17623700Y29421816D01*
X17609783Y29139488D01*
X660000Y29139488D01*
X660000Y30202702D01*
X18236903Y30202702D01*
X19050000Y29389605D01*
X19863097Y30202702D01*
X19791514Y30446671D01*
X19536004Y30567571D01*
X19261816Y30636300D01*
X18979488Y30650217D01*
X18699870Y30608787D01*
X18433708Y30513603D01*
X18308486Y30446671D01*
X18236903Y30202702D01*
X660000Y30202702D01*
X660000Y35701335D01*
X22695000Y35701335D01*
X22695000Y35418665D01*
X22750147Y35141426D01*
X22858320Y34880273D01*
X23015363Y34645241D01*
X23215241Y34445363D01*
X23450273Y34288320D01*
X23711426Y34180147D01*
X23988665Y34125000D01*
X24271335Y34125000D01*
X24548574Y34180147D01*
X24809727Y34288320D01*
X25044759Y34445363D01*
X25244637Y34645241D01*
X25401680Y34880273D01*
X25509853Y35141426D01*
X25565000Y35418665D01*
X25565000Y35701335D01*
X30315000Y35701335D01*
X30315000Y35418665D01*
X30370147Y35141426D01*
X30478320Y34880273D01*
X30635363Y34645241D01*
X30835241Y34445363D01*
X31070273Y34288320D01*
X31331426Y34180147D01*
X31608665Y34125000D01*
X31891335Y34125000D01*
X32168574Y34180147D01*
X32429727Y34288320D01*
X32664759Y34445363D01*
X32864637Y34645241D01*
X32934635Y34750000D01*
X34255096Y34750000D01*
X34367688Y34581495D01*
X34581495Y34367688D01*
X34832905Y34199701D01*
X35112257Y34083989D01*
X35408816Y34025000D01*
X35711184Y34025000D01*
X36007743Y34083989D01*
X36287095Y34199701D01*
X36538505Y34367688D01*
X36604944Y34434127D01*
X36610498Y34415820D01*
X36669463Y34305506D01*
X36748815Y34208815D01*
X36845506Y34129463D01*
X36955820Y34070498D01*
X37075518Y34034188D01*
X37200000Y34021928D01*
X37814250Y34025000D01*
X37973000Y34183750D01*
X37973000Y35433000D01*
X38227000Y35433000D01*
X38227000Y34183750D01*
X38385750Y34025000D01*
X39000000Y34021928D01*
X39124482Y34034188D01*
X39244180Y34070498D01*
X39354494Y34129463D01*
X39451185Y34208815D01*
X39530537Y34305506D01*
X39589502Y34415820D01*
X39625812Y34535518D01*
X39638072Y34660000D01*
X39635000Y35274250D01*
X39476250Y35433000D01*
X38227000Y35433000D01*
X37973000Y35433000D01*
X37953000Y35433000D01*
X37953000Y35687000D01*
X37973000Y35687000D01*
X37973000Y36936250D01*
X38227000Y36936250D01*
X38227000Y35687000D01*
X39476250Y35687000D01*
X39635000Y35845750D01*
X39638072Y36460000D01*
X39625812Y36584482D01*
X39589502Y36704180D01*
X39530537Y36814494D01*
X39451185Y36911185D01*
X39354494Y36990537D01*
X39244180Y37049502D01*
X39124482Y37085812D01*
X39000000Y37098072D01*
X38385750Y37095000D01*
X38227000Y36936250D01*
X37973000Y36936250D01*
X37814250Y37095000D01*
X37200000Y37098072D01*
X37075518Y37085812D01*
X36955820Y37049502D01*
X36845506Y36990537D01*
X36748815Y36911185D01*
X36669463Y36814494D01*
X36610498Y36704180D01*
X36604944Y36685873D01*
X36538505Y36752312D01*
X36287095Y36920299D01*
X36007743Y37036011D01*
X35711184Y37095000D01*
X35408816Y37095000D01*
X35112257Y37036011D01*
X34832905Y36920299D01*
X34581495Y36752312D01*
X34367688Y36538505D01*
X34255096Y36370000D01*
X32934635Y36370000D01*
X32864637Y36474759D01*
X32664759Y36674637D01*
X32429727Y36831680D01*
X32168574Y36939853D01*
X31891335Y36995000D01*
X31608665Y36995000D01*
X31331426Y36939853D01*
X31070273Y36831680D01*
X30835241Y36674637D01*
X30635363Y36474759D01*
X30478320Y36239727D01*
X30370147Y35978574D01*
X30315000Y35701335D01*
X25565000Y35701335D01*
X25509853Y35978574D01*
X25401680Y36239727D01*
X25244637Y36474759D01*
X25044759Y36674637D01*
X24809727Y36831680D01*
X24548574Y36939853D01*
X24271335Y36995000D01*
X23988665Y36995000D01*
X23711426Y36939853D01*
X23450273Y36831680D01*
X23215241Y36674637D01*
X23015363Y36474759D01*
X22858320Y36239727D01*
X22750147Y35978574D01*
X22695000Y35701335D01*
X660000Y35701335D01*
X660000Y42520000D01*
X80620000Y42520000D01*
X80620001Y660000D01*
G37*
X80620001Y660000D02*
X660000Y660000D01*
X660000Y3951335D01*
X37935000Y3951335D01*
X37935000Y3668665D01*
X37990147Y3391426D01*
X38098320Y3130273D01*
X38255363Y2895241D01*
X38455241Y2695363D01*
X38690273Y2538320D01*
X38951426Y2430147D01*
X39228665Y2375000D01*
X39511335Y2375000D01*
X39788574Y2430147D01*
X40049727Y2538320D01*
X40284759Y2695363D01*
X40406694Y2817298D01*
X41056903Y2817298D01*
X41128486Y2573329D01*
X41383996Y2452429D01*
X41658184Y2383700D01*
X41940512Y2369783D01*
X42220130Y2411213D01*
X42486292Y2506397D01*
X42611514Y2573329D01*
X42683097Y2817298D01*
X41870000Y3630395D01*
X41056903Y2817298D01*
X40406694Y2817298D01*
X40484637Y2895241D01*
X40618692Y3095869D01*
X40633329Y3068486D01*
X40877298Y2996903D01*
X41690395Y3810000D01*
X42049605Y3810000D01*
X42862702Y2996903D01*
X43106671Y3068486D01*
X43227571Y3323996D01*
X43296300Y3598184D01*
X43310217Y3880512D01*
X43268787Y4160130D01*
X43173603Y4426292D01*
X43106671Y4551514D01*
X42862702Y4623097D01*
X42049605Y3810000D01*
X41690395Y3810000D01*
X40877298Y4623097D01*
X40633329Y4551514D01*
X40619676Y4522659D01*
X40484637Y4724759D01*
X40406694Y4802702D01*
X41056903Y4802702D01*
X41870000Y3989605D01*
X42683097Y4802702D01*
X42611514Y5046671D01*
X42356004Y5167571D01*
X42081816Y5236300D01*
X41799488Y5250217D01*
X41519870Y5208787D01*
X41253708Y5113603D01*
X41128486Y5046671D01*
X41056903Y4802702D01*
X40406694Y4802702D01*
X40284759Y4924637D01*
X40049727Y5081680D01*
X39788574Y5189853D01*
X39511335Y5245000D01*
X39228665Y5245000D01*
X38951426Y5189853D01*
X38690273Y5081680D01*
X38455241Y4924637D01*
X38255363Y4724759D01*
X38098320Y4489727D01*
X37990147Y4228574D01*
X37935000Y3951335D01*
X660000Y3951335D01*
X660000Y23668600D01*
X3578328Y23668600D01*
X3578328Y21941400D01*
X3590588Y21816918D01*
X3626898Y21697220D01*
X3685863Y21586906D01*
X3765215Y21490215D01*
X3861906Y21410863D01*
X3972220Y21351898D01*
X4030023Y21334364D01*
X3915961Y21220302D01*
X3751958Y20974853D01*
X3638990Y20702125D01*
X3581400Y20412599D01*
X3581400Y20117401D01*
X3638990Y19827875D01*
X3751958Y19555147D01*
X3915961Y19309698D01*
X4124698Y19100961D01*
X4283281Y18995000D01*
X4124698Y18889039D01*
X3915961Y18680302D01*
X3751958Y18434853D01*
X3638990Y18162125D01*
X3581400Y17872599D01*
X3581400Y17577401D01*
X3638990Y17287875D01*
X3751958Y17015147D01*
X3915961Y16769698D01*
X4124698Y16560961D01*
X4283281Y16455000D01*
X4124698Y16349039D01*
X3915961Y16140302D01*
X3751958Y15894853D01*
X3638990Y15622125D01*
X3581400Y15332599D01*
X3581400Y15037401D01*
X3638990Y14747875D01*
X3751958Y14475147D01*
X3915961Y14229698D01*
X4124698Y14020961D01*
X4283281Y13915000D01*
X4124698Y13809039D01*
X3915961Y13600302D01*
X3751958Y13354853D01*
X3638990Y13082125D01*
X3581400Y12792599D01*
X3581400Y12497401D01*
X3638990Y12207875D01*
X3751958Y11935147D01*
X3915961Y11689698D01*
X4124698Y11480961D01*
X4370147Y11316958D01*
X4642875Y11203990D01*
X4932401Y11146400D01*
X5227599Y11146400D01*
X5517125Y11203990D01*
X5789853Y11316958D01*
X6035302Y11480961D01*
X6244039Y11689698D01*
X6339889Y11833148D01*
X6358691Y11835000D01*
X6363176Y11835442D01*
X6513146Y11634707D01*
X6731512Y11438183D01*
X6984022Y11288036D01*
X7260973Y11190037D01*
X7493000Y11310536D01*
X7493000Y12518000D01*
X7747000Y12518000D01*
X7747000Y11310536D01*
X7979027Y11190037D01*
X8255978Y11288036D01*
X8508488Y11438183D01*
X8726854Y11634707D01*
X8902684Y11870056D01*
X9029222Y12135186D01*
X9074958Y12285974D01*
X8953817Y12518000D01*
X7747000Y12518000D01*
X7493000Y12518000D01*
X7473000Y12518000D01*
X7473000Y12772000D01*
X7493000Y12772000D01*
X7493000Y12792000D01*
X7747000Y12792000D01*
X7747000Y12772000D01*
X8953817Y12772000D01*
X9074958Y13004026D01*
X9044331Y13105000D01*
X23584796Y13105000D01*
X23373561Y12992092D01*
X23167236Y12822765D01*
X22997908Y12616440D01*
X22872086Y12381045D01*
X22794606Y12125626D01*
X22775000Y11926564D01*
X22775000Y11233437D01*
X22794606Y11034375D01*
X22872086Y10778956D01*
X22997908Y10543561D01*
X23167235Y10337236D01*
X23373560Y10167908D01*
X23608955Y10042086D01*
X23864374Y9964606D01*
X24130000Y9938444D01*
X24395625Y9964606D01*
X24651044Y10042086D01*
X24886439Y10167908D01*
X25092764Y10337235D01*
X25262092Y10543560D01*
X25387914Y10778955D01*
X25400000Y10818798D01*
X25412086Y10778956D01*
X25537908Y10543561D01*
X25707235Y10337236D01*
X25913560Y10167908D01*
X26148955Y10042086D01*
X26404374Y9964606D01*
X26670000Y9938444D01*
X26935625Y9964606D01*
X27191044Y10042086D01*
X27426439Y10167908D01*
X27632764Y10337235D01*
X27802092Y10543560D01*
X27927914Y10778955D01*
X27940000Y10818798D01*
X27952086Y10778956D01*
X28077908Y10543561D01*
X28247235Y10337236D01*
X28453560Y10167908D01*
X28688955Y10042086D01*
X28944374Y9964606D01*
X29210000Y9938444D01*
X29475625Y9964606D01*
X29731044Y10042086D01*
X29966439Y10167908D01*
X30172764Y10337235D01*
X30342092Y10543560D01*
X30467914Y10778955D01*
X30471041Y10789265D01*
X30490775Y10783278D01*
X30492086Y10778956D01*
X30617908Y10543561D01*
X30787235Y10337236D01*
X30993560Y10167908D01*
X31228955Y10042086D01*
X31484374Y9964606D01*
X31750000Y9938444D01*
X32015625Y9964606D01*
X32271044Y10042086D01*
X32506439Y10167908D01*
X32712764Y10337235D01*
X32882092Y10543560D01*
X33007914Y10778955D01*
X33011041Y10789265D01*
X33030775Y10783278D01*
X33032086Y10778956D01*
X33157908Y10543561D01*
X33327235Y10337236D01*
X33533560Y10167908D01*
X33768955Y10042086D01*
X34024374Y9964606D01*
X34290000Y9938444D01*
X34555625Y9964606D01*
X34811044Y10042086D01*
X35046439Y10167908D01*
X35252764Y10337235D01*
X35422092Y10543560D01*
X35547914Y10778955D01*
X35560000Y10818798D01*
X35572086Y10778956D01*
X35697908Y10543561D01*
X35867235Y10337236D01*
X36073560Y10167908D01*
X36308955Y10042086D01*
X36564374Y9964606D01*
X36830000Y9938444D01*
X37095625Y9964606D01*
X37351044Y10042086D01*
X37586439Y10167908D01*
X37792764Y10337235D01*
X37962092Y10543560D01*
X38083127Y10770000D01*
X38116873Y10770000D01*
X38237908Y10543561D01*
X38407235Y10337236D01*
X38613560Y10167908D01*
X38848955Y10042086D01*
X39104374Y9964606D01*
X39370000Y9938444D01*
X39635625Y9964606D01*
X39891044Y10042086D01*
X40126439Y10167908D01*
X40332764Y10337235D01*
X40502092Y10543560D01*
X40627914Y10778955D01*
X40641505Y10823759D01*
X40706744Y10664131D01*
X40853916Y10441605D01*
X41041673Y10252067D01*
X41262799Y10102801D01*
X41508797Y9999542D01*
X41573528Y9987441D01*
X41783000Y10110511D01*
X41783000Y11453000D01*
X41763000Y11453000D01*
X41763000Y11707000D01*
X41783000Y11707000D01*
X41783000Y13049489D01*
X42037000Y13049489D01*
X42037000Y11707000D01*
X42057000Y11707000D01*
X42057000Y11453000D01*
X42037000Y11453000D01*
X42037000Y10110511D01*
X42246472Y9987441D01*
X42311203Y9999542D01*
X42557201Y10102801D01*
X42778327Y10252067D01*
X42966084Y10441605D01*
X43113256Y10664131D01*
X43178495Y10823759D01*
X43192086Y10778956D01*
X43317908Y10543561D01*
X43487235Y10337236D01*
X43693560Y10167908D01*
X43928955Y10042086D01*
X44184374Y9964606D01*
X44450000Y9938444D01*
X44715625Y9964606D01*
X44971044Y10042086D01*
X45206439Y10167908D01*
X45412764Y10337235D01*
X45582092Y10543560D01*
X45707914Y10778955D01*
X45720000Y10818798D01*
X45732086Y10778956D01*
X45857908Y10543561D01*
X46027235Y10337236D01*
X46233560Y10167908D01*
X46468955Y10042086D01*
X46724374Y9964606D01*
X46990000Y9938444D01*
X47255625Y9964606D01*
X47511044Y10042086D01*
X47746439Y10167908D01*
X47952764Y10337235D01*
X48122092Y10543560D01*
X48247914Y10778955D01*
X48260000Y10818798D01*
X48272086Y10778956D01*
X48397908Y10543561D01*
X48567235Y10337236D01*
X48773560Y10167908D01*
X49008955Y10042086D01*
X49264374Y9964606D01*
X49530000Y9938444D01*
X49795625Y9964606D01*
X50051044Y10042086D01*
X50286439Y10167908D01*
X50492764Y10337235D01*
X50662092Y10543560D01*
X50787914Y10778955D01*
X50800000Y10818798D01*
X50812086Y10778956D01*
X50937908Y10543561D01*
X51107235Y10337236D01*
X51313560Y10167908D01*
X51548955Y10042086D01*
X51804374Y9964606D01*
X52070000Y9938444D01*
X52335625Y9964606D01*
X52591044Y10042086D01*
X52826439Y10167908D01*
X53032764Y10337235D01*
X53202092Y10543560D01*
X53327914Y10778955D01*
X53340000Y10818798D01*
X53352086Y10778956D01*
X53477908Y10543561D01*
X53647235Y10337236D01*
X53853560Y10167908D01*
X54088955Y10042086D01*
X54344374Y9964606D01*
X54610000Y9938444D01*
X54875625Y9964606D01*
X55131044Y10042086D01*
X55366439Y10167908D01*
X55572764Y10337235D01*
X55742092Y10543560D01*
X55867914Y10778955D01*
X55880000Y10818798D01*
X55892086Y10778956D01*
X56017908Y10543561D01*
X56187235Y10337236D01*
X56393560Y10167908D01*
X56628955Y10042086D01*
X56884374Y9964606D01*
X57150000Y9938444D01*
X57415625Y9964606D01*
X57671044Y10042086D01*
X57906439Y10167908D01*
X58112764Y10337235D01*
X58282092Y10543560D01*
X58407914Y10778955D01*
X58485394Y11034374D01*
X58505000Y11233436D01*
X58505000Y11926563D01*
X58485394Y12125625D01*
X58407914Y12381045D01*
X58282092Y12616440D01*
X58112765Y12822765D01*
X57906440Y12992092D01*
X57671045Y13117914D01*
X57415626Y13195394D01*
X57150000Y13221556D01*
X56884375Y13195394D01*
X56628956Y13117914D01*
X56393561Y12992092D01*
X56187236Y12822765D01*
X56017908Y12616440D01*
X55892086Y12381045D01*
X55880000Y12341202D01*
X55867914Y12381045D01*
X55742092Y12616440D01*
X55572765Y12822765D01*
X55366440Y12992092D01*
X55131045Y13117914D01*
X54875626Y13195394D01*
X54610000Y13221556D01*
X54344375Y13195394D01*
X54088956Y13117914D01*
X53853561Y12992092D01*
X53647236Y12822765D01*
X53477908Y12616440D01*
X53352086Y12381045D01*
X53340000Y12341202D01*
X53327914Y12381045D01*
X53202092Y12616440D01*
X53032765Y12822765D01*
X52826440Y12992092D01*
X52591045Y13117914D01*
X52335626Y13195394D01*
X52070000Y13221556D01*
X51804375Y13195394D01*
X51548956Y13117914D01*
X51313561Y12992092D01*
X51107236Y12822765D01*
X50937908Y12616440D01*
X50812086Y12381045D01*
X50800000Y12341202D01*
X50787914Y12381045D01*
X50662092Y12616440D01*
X50492765Y12822765D01*
X50286440Y12992092D01*
X50051045Y13117914D01*
X49795626Y13195394D01*
X49530000Y13221556D01*
X49264375Y13195394D01*
X49008956Y13117914D01*
X48773561Y12992092D01*
X48567236Y12822765D01*
X48397908Y12616440D01*
X48272086Y12381045D01*
X48260000Y12341202D01*
X48247914Y12381045D01*
X48122092Y12616440D01*
X47952765Y12822765D01*
X47746440Y12992092D01*
X47511045Y13117914D01*
X47255626Y13195394D01*
X46990000Y13221556D01*
X46724375Y13195394D01*
X46468956Y13117914D01*
X46233561Y12992092D01*
X46027236Y12822765D01*
X45857908Y12616440D01*
X45732086Y12381045D01*
X45720000Y12341202D01*
X45707914Y12381045D01*
X45582092Y12616440D01*
X45412765Y12822765D01*
X45206440Y12992092D01*
X44971045Y13117914D01*
X44715626Y13195394D01*
X44450000Y13221556D01*
X44184375Y13195394D01*
X43928956Y13117914D01*
X43693561Y12992092D01*
X43487236Y12822765D01*
X43317908Y12616440D01*
X43192086Y12381045D01*
X43178495Y12336241D01*
X43113256Y12495869D01*
X42966084Y12718395D01*
X42778327Y12907933D01*
X42557201Y13057199D01*
X42311203Y13160458D01*
X42246472Y13172559D01*
X42037000Y13049489D01*
X41783000Y13049489D01*
X41573528Y13172559D01*
X41508797Y13160458D01*
X41262799Y13057199D01*
X41041673Y12907933D01*
X40853916Y12718395D01*
X40706744Y12495869D01*
X40641505Y12336241D01*
X40627914Y12381045D01*
X40502092Y12616440D01*
X40332765Y12822765D01*
X40126440Y12992092D01*
X39891045Y13117914D01*
X39635626Y13195394D01*
X39370000Y13221556D01*
X39104375Y13195394D01*
X38848956Y13117914D01*
X38613561Y12992092D01*
X38407236Y12822765D01*
X38237908Y12616440D01*
X38116873Y12390000D01*
X38083127Y12390000D01*
X37962092Y12616440D01*
X37792765Y12822765D01*
X37586440Y12992092D01*
X37351045Y13117914D01*
X37095626Y13195394D01*
X36830000Y13221556D01*
X36564375Y13195394D01*
X36308956Y13117914D01*
X36073561Y12992092D01*
X35867236Y12822765D01*
X35697908Y12616440D01*
X35572086Y12381045D01*
X35560000Y12341202D01*
X35547914Y12381045D01*
X35422092Y12616440D01*
X35252765Y12822765D01*
X35046440Y12992092D01*
X34811045Y13117914D01*
X34555626Y13195394D01*
X34290000Y13221556D01*
X34024375Y13195394D01*
X33768956Y13117914D01*
X33533561Y12992092D01*
X33426601Y12904312D01*
X29331300Y16999612D01*
X29305928Y17030528D01*
X29182589Y17131749D01*
X29041873Y17206963D01*
X28889188Y17253280D01*
X28770191Y17265000D01*
X28770188Y17265000D01*
X28730400Y17268919D01*
X28690612Y17265000D01*
X9044331Y17265000D01*
X9074958Y17365974D01*
X8953817Y17598000D01*
X7747000Y17598000D01*
X7747000Y17578000D01*
X7493000Y17578000D01*
X7493000Y17598000D01*
X7473000Y17598000D01*
X7473000Y17852000D01*
X7493000Y17852000D01*
X7493000Y17872000D01*
X7747000Y17872000D01*
X7747000Y17852000D01*
X8953817Y17852000D01*
X9074958Y18084026D01*
X9044331Y18185000D01*
X53680612Y18185000D01*
X53720400Y18181081D01*
X53760188Y18185000D01*
X53760191Y18185000D01*
X53879188Y18196720D01*
X54031873Y18243037D01*
X54172589Y18318251D01*
X54295928Y18419472D01*
X54321300Y18450387D01*
X56078679Y20207767D01*
X56185820Y20150498D01*
X56305518Y20114188D01*
X56430000Y20101928D01*
X57870000Y20101928D01*
X57994482Y20114188D01*
X58114180Y20150498D01*
X58224494Y20209463D01*
X58321185Y20288815D01*
X58400537Y20385506D01*
X58459502Y20495820D01*
X58495812Y20615518D01*
X58508072Y20740000D01*
X58508072Y22740000D01*
X58495812Y22864482D01*
X58459502Y22984180D01*
X58400537Y23094494D01*
X58321185Y23191185D01*
X58224494Y23270537D01*
X58114180Y23329502D01*
X57994482Y23365812D01*
X57870000Y23378072D01*
X56430000Y23378072D01*
X56305518Y23365812D01*
X56185820Y23329502D01*
X56075506Y23270537D01*
X55978815Y23191185D01*
X55899463Y23094494D01*
X55840498Y22984180D01*
X55804188Y22864482D01*
X55791928Y22740000D01*
X55791928Y22683204D01*
X55742092Y22776440D01*
X55572765Y22982765D01*
X55366440Y23152092D01*
X55131045Y23277914D01*
X54875626Y23355394D01*
X54610000Y23381556D01*
X54344375Y23355394D01*
X54088956Y23277914D01*
X53853561Y23152092D01*
X53647236Y22982765D01*
X53477908Y22776440D01*
X53352086Y22541045D01*
X53340000Y22501202D01*
X53327914Y22541045D01*
X53202092Y22776440D01*
X53032765Y22982765D01*
X52826440Y23152092D01*
X52591045Y23277914D01*
X52335626Y23355394D01*
X52070000Y23381556D01*
X51804375Y23355394D01*
X51548956Y23277914D01*
X51313561Y23152092D01*
X51107236Y22982765D01*
X50937908Y22776440D01*
X50812086Y22541045D01*
X50800000Y22501202D01*
X50787914Y22541045D01*
X50662092Y22776440D01*
X50492765Y22982765D01*
X50286440Y23152092D01*
X50051045Y23277914D01*
X49795626Y23355394D01*
X49530000Y23381556D01*
X49264375Y23355394D01*
X49008956Y23277914D01*
X48773561Y23152092D01*
X48567236Y22982765D01*
X48397908Y22776440D01*
X48272086Y22541045D01*
X48260000Y22501202D01*
X48247914Y22541045D01*
X48122092Y22776440D01*
X47952765Y22982765D01*
X47746440Y23152092D01*
X47511045Y23277914D01*
X47255626Y23355394D01*
X46990000Y23381556D01*
X46724375Y23355394D01*
X46468956Y23277914D01*
X46233561Y23152092D01*
X46027236Y22982765D01*
X45857908Y22776440D01*
X45732086Y22541045D01*
X45720000Y22501202D01*
X45707914Y22541045D01*
X45582092Y22776440D01*
X45412765Y22982765D01*
X45206440Y23152092D01*
X45171096Y23170984D01*
X50400113Y28400000D01*
X50885365Y28400000D01*
X50955363Y28295241D01*
X51155241Y28095363D01*
X51390273Y27938320D01*
X51651426Y27830147D01*
X51928665Y27775000D01*
X52211335Y27775000D01*
X52488574Y27830147D01*
X52749727Y27938320D01*
X52984759Y28095363D01*
X53184637Y28295241D01*
X53341680Y28530273D01*
X53449853Y28791426D01*
X53505000Y29068665D01*
X53505000Y29351335D01*
X58255000Y29351335D01*
X58255000Y29068665D01*
X58310147Y28791426D01*
X58418320Y28530273D01*
X58575363Y28295241D01*
X58775241Y28095363D01*
X59010273Y27938320D01*
X59271426Y27830147D01*
X59548665Y27775000D01*
X59831335Y27775000D01*
X60108574Y27830147D01*
X60369727Y27938320D01*
X60604759Y28095363D01*
X60804637Y28295241D01*
X60961680Y28530273D01*
X61069853Y28791426D01*
X61125000Y29068665D01*
X61125000Y29351335D01*
X61069853Y29628574D01*
X60961680Y29889727D01*
X60804637Y30124759D01*
X60604759Y30324637D01*
X60369727Y30481680D01*
X60108574Y30589853D01*
X59831335Y30645000D01*
X59548665Y30645000D01*
X59271426Y30589853D01*
X59010273Y30481680D01*
X58775241Y30324637D01*
X58575363Y30124759D01*
X58418320Y29889727D01*
X58310147Y29628574D01*
X58255000Y29351335D01*
X53505000Y29351335D01*
X53449853Y29628574D01*
X53341680Y29889727D01*
X53184637Y30124759D01*
X52984759Y30324637D01*
X52749727Y30481680D01*
X52488574Y30589853D01*
X52211335Y30645000D01*
X51928665Y30645000D01*
X51651426Y30589853D01*
X51390273Y30481680D01*
X51155241Y30324637D01*
X50955363Y30124759D01*
X50885365Y30020000D01*
X50104388Y30020000D01*
X50064600Y30023919D01*
X50024812Y30020000D01*
X50024809Y30020000D01*
X49905812Y30008280D01*
X49753127Y29961963D01*
X49612411Y29886749D01*
X49489072Y29785528D01*
X49463705Y29754618D01*
X48270768Y28561681D01*
X48347571Y28723996D01*
X48416300Y28998184D01*
X48430217Y29280512D01*
X48388787Y29560130D01*
X48293603Y29826292D01*
X48226671Y29951514D01*
X47982702Y30023097D01*
X47169605Y29210000D01*
X47183748Y29195857D01*
X47004143Y29016252D01*
X46990000Y29030395D01*
X46176903Y28217298D01*
X46248486Y27973329D01*
X46503996Y27852429D01*
X46778184Y27783700D01*
X47060512Y27769783D01*
X47340130Y27811213D01*
X47606292Y27906397D01*
X47626039Y27916952D01*
X42773400Y23064312D01*
X42666440Y23152092D01*
X42431045Y23277914D01*
X42175626Y23355394D01*
X41910000Y23381556D01*
X41644375Y23355394D01*
X41388956Y23277914D01*
X41153561Y23152092D01*
X40947236Y22982765D01*
X40777908Y22776440D01*
X40652086Y22541045D01*
X40638495Y22496241D01*
X40573256Y22655869D01*
X40426084Y22878395D01*
X40238327Y23067933D01*
X40017201Y23217199D01*
X39771203Y23320458D01*
X39706472Y23332559D01*
X39497000Y23209489D01*
X39497000Y21867000D01*
X39517000Y21867000D01*
X39517000Y21613000D01*
X39497000Y21613000D01*
X39497000Y20270511D01*
X39706472Y20147441D01*
X39771203Y20159542D01*
X40017201Y20262801D01*
X40238327Y20412067D01*
X40426084Y20601605D01*
X40573256Y20824131D01*
X40638495Y20983759D01*
X40652086Y20938956D01*
X40777908Y20703561D01*
X40947235Y20497236D01*
X41153560Y20327908D01*
X41388955Y20202086D01*
X41644374Y20124606D01*
X41910000Y20098444D01*
X42175625Y20124606D01*
X42431044Y20202086D01*
X42666439Y20327908D01*
X42872764Y20497235D01*
X43042092Y20703560D01*
X43167914Y20938955D01*
X43169225Y20943278D01*
X43188959Y20949265D01*
X43192086Y20938956D01*
X43317908Y20703561D01*
X43487235Y20497236D01*
X43693560Y20327908D01*
X43928955Y20202086D01*
X44184374Y20124606D01*
X44450000Y20098444D01*
X44715625Y20124606D01*
X44971044Y20202086D01*
X45206439Y20327908D01*
X45412764Y20497235D01*
X45582092Y20703560D01*
X45707914Y20938955D01*
X45720000Y20978798D01*
X45732086Y20938956D01*
X45857908Y20703561D01*
X46027235Y20497236D01*
X46233560Y20327908D01*
X46468955Y20202086D01*
X46724374Y20124606D01*
X46990000Y20098444D01*
X47255625Y20124606D01*
X47511044Y20202086D01*
X47746439Y20327908D01*
X47952764Y20497235D01*
X48122092Y20703560D01*
X48247914Y20938955D01*
X48260000Y20978798D01*
X48272086Y20938956D01*
X48397908Y20703561D01*
X48567235Y20497236D01*
X48773560Y20327908D01*
X49008955Y20202086D01*
X49264374Y20124606D01*
X49530000Y20098444D01*
X49795625Y20124606D01*
X50051044Y20202086D01*
X50286439Y20327908D01*
X50492764Y20497235D01*
X50662092Y20703560D01*
X50787914Y20938955D01*
X50800000Y20978798D01*
X50812086Y20938956D01*
X50937908Y20703561D01*
X51107235Y20497236D01*
X51313560Y20327908D01*
X51548955Y20202086D01*
X51804374Y20124606D01*
X52070000Y20098444D01*
X52335625Y20124606D01*
X52591044Y20202086D01*
X52826439Y20327908D01*
X53032764Y20497235D01*
X53202092Y20703560D01*
X53327914Y20938955D01*
X53340000Y20978798D01*
X53352086Y20938956D01*
X53477908Y20703561D01*
X53647235Y20497236D01*
X53853560Y20327908D01*
X53888904Y20309016D01*
X53384888Y19805000D01*
X9044331Y19805000D01*
X9074958Y19905974D01*
X8953817Y20138000D01*
X7747000Y20138000D01*
X7747000Y20118000D01*
X7493000Y20118000D01*
X7493000Y20138000D01*
X7473000Y20138000D01*
X7473000Y20392000D01*
X7493000Y20392000D01*
X7493000Y20412000D01*
X7747000Y20412000D01*
X7747000Y20392000D01*
X8953817Y20392000D01*
X9074958Y20624026D01*
X9029222Y20774814D01*
X8902684Y21039944D01*
X8726854Y21275293D01*
X8508488Y21471817D01*
X8409897Y21530441D01*
X8575302Y21640961D01*
X8784039Y21849698D01*
X8942307Y22086564D01*
X22775000Y22086564D01*
X22775000Y21393437D01*
X22794606Y21194375D01*
X22872086Y20938956D01*
X22997908Y20703561D01*
X23167235Y20497236D01*
X23373560Y20327908D01*
X23608955Y20202086D01*
X23864374Y20124606D01*
X24130000Y20098444D01*
X24395625Y20124606D01*
X24651044Y20202086D01*
X24886439Y20327908D01*
X25092764Y20497235D01*
X25262092Y20703560D01*
X25387914Y20938955D01*
X25400000Y20978798D01*
X25412086Y20938956D01*
X25537908Y20703561D01*
X25707235Y20497236D01*
X25913560Y20327908D01*
X26148955Y20202086D01*
X26404374Y20124606D01*
X26670000Y20098444D01*
X26935625Y20124606D01*
X27191044Y20202086D01*
X27426439Y20327908D01*
X27632764Y20497235D01*
X27802092Y20703560D01*
X27927914Y20938955D01*
X27940000Y20978798D01*
X27952086Y20938956D01*
X28077908Y20703561D01*
X28247235Y20497236D01*
X28453560Y20327908D01*
X28688955Y20202086D01*
X28944374Y20124606D01*
X29210000Y20098444D01*
X29475625Y20124606D01*
X29731044Y20202086D01*
X29966439Y20327908D01*
X30172764Y20497235D01*
X30342092Y20703560D01*
X30467914Y20938955D01*
X30480000Y20978798D01*
X30492086Y20938956D01*
X30617908Y20703561D01*
X30787235Y20497236D01*
X30993560Y20327908D01*
X31228955Y20202086D01*
X31484374Y20124606D01*
X31750000Y20098444D01*
X32015625Y20124606D01*
X32271044Y20202086D01*
X32506439Y20327908D01*
X32712764Y20497235D01*
X32882092Y20703560D01*
X33007914Y20938955D01*
X33020000Y20978798D01*
X33032086Y20938956D01*
X33157908Y20703561D01*
X33327235Y20497236D01*
X33533560Y20327908D01*
X33768955Y20202086D01*
X34024374Y20124606D01*
X34290000Y20098444D01*
X34555625Y20124606D01*
X34811044Y20202086D01*
X35046439Y20327908D01*
X35252764Y20497235D01*
X35422092Y20703560D01*
X35547914Y20938955D01*
X35560000Y20978798D01*
X35572086Y20938956D01*
X35697908Y20703561D01*
X35867235Y20497236D01*
X36073560Y20327908D01*
X36308955Y20202086D01*
X36564374Y20124606D01*
X36830000Y20098444D01*
X37095625Y20124606D01*
X37351044Y20202086D01*
X37586439Y20327908D01*
X37792764Y20497235D01*
X37962092Y20703560D01*
X38087914Y20938955D01*
X38101505Y20983759D01*
X38166744Y20824131D01*
X38313916Y20601605D01*
X38501673Y20412067D01*
X38722799Y20262801D01*
X38968797Y20159542D01*
X39033528Y20147441D01*
X39243000Y20270511D01*
X39243000Y21613000D01*
X39223000Y21613000D01*
X39223000Y21867000D01*
X39243000Y21867000D01*
X39243000Y23209489D01*
X39033528Y23332559D01*
X38968797Y23320458D01*
X38722799Y23217199D01*
X38501673Y23067933D01*
X38313916Y22878395D01*
X38166744Y22655869D01*
X38101505Y22496241D01*
X38087914Y22541045D01*
X37962092Y22776440D01*
X37792765Y22982765D01*
X37640000Y23108136D01*
X37640000Y28400000D01*
X40805365Y28400000D01*
X40875363Y28295241D01*
X41075241Y28095363D01*
X41310273Y27938320D01*
X41571426Y27830147D01*
X41848665Y27775000D01*
X42131335Y27775000D01*
X42408574Y27830147D01*
X42669727Y27938320D01*
X42904759Y28095363D01*
X43104637Y28295241D01*
X43261680Y28530273D01*
X43369853Y28791426D01*
X43425000Y29068665D01*
X43425000Y29139488D01*
X45549783Y29139488D01*
X45591213Y28859870D01*
X45686397Y28593708D01*
X45753329Y28468486D01*
X45997298Y28396903D01*
X46810395Y29210000D01*
X45997298Y30023097D01*
X45753329Y29951514D01*
X45632429Y29696004D01*
X45563700Y29421816D01*
X45549783Y29139488D01*
X43425000Y29139488D01*
X43425000Y29351335D01*
X43369853Y29628574D01*
X43261680Y29889727D01*
X43104637Y30124759D01*
X43026694Y30202702D01*
X46176903Y30202702D01*
X46990000Y29389605D01*
X47803097Y30202702D01*
X47731514Y30446671D01*
X47476004Y30567571D01*
X47201816Y30636300D01*
X46919488Y30650217D01*
X46639870Y30608787D01*
X46373708Y30513603D01*
X46248486Y30446671D01*
X46176903Y30202702D01*
X43026694Y30202702D01*
X42904759Y30324637D01*
X42669727Y30481680D01*
X42408574Y30589853D01*
X42131335Y30645000D01*
X41848665Y30645000D01*
X41571426Y30589853D01*
X41310273Y30481680D01*
X41075241Y30324637D01*
X40875363Y30124759D01*
X40805365Y30020000D01*
X36869791Y30020000D01*
X36830000Y30023919D01*
X36803870Y30021346D01*
X36713475Y30156632D01*
X36506632Y30363475D01*
X36263411Y30525990D01*
X35993158Y30637932D01*
X35706260Y30695000D01*
X35413740Y30695000D01*
X35126842Y30637932D01*
X34856589Y30525990D01*
X34613368Y30363475D01*
X34406525Y30156632D01*
X34244010Y29913411D01*
X34132068Y29643158D01*
X34075000Y29356260D01*
X34075000Y29063740D01*
X34132068Y28776842D01*
X34244010Y28506589D01*
X34406525Y28263368D01*
X34613368Y28056525D01*
X34856589Y27894010D01*
X35126842Y27782068D01*
X35413740Y27725000D01*
X35706260Y27725000D01*
X35993158Y27782068D01*
X36020000Y27793186D01*
X36020001Y23108136D01*
X35867236Y22982765D01*
X35697908Y22776440D01*
X35572086Y22541045D01*
X35560000Y22501202D01*
X35547914Y22541045D01*
X35422092Y22776440D01*
X35252765Y22982765D01*
X35046440Y23152092D01*
X34811045Y23277914D01*
X34555626Y23355394D01*
X34290000Y23381556D01*
X34024375Y23355394D01*
X33768956Y23277914D01*
X33533561Y23152092D01*
X33327236Y22982765D01*
X33157908Y22776440D01*
X33032086Y22541045D01*
X33020000Y22501202D01*
X33007914Y22541045D01*
X32882092Y22776440D01*
X32712765Y22982765D01*
X32506440Y23152092D01*
X32271045Y23277914D01*
X32015626Y23355394D01*
X31750000Y23381556D01*
X31484375Y23355394D01*
X31228956Y23277914D01*
X30993561Y23152092D01*
X30787236Y22982765D01*
X30617908Y22776440D01*
X30492086Y22541045D01*
X30480000Y22501202D01*
X30467914Y22541045D01*
X30342092Y22776440D01*
X30172765Y22982765D01*
X29966440Y23152092D01*
X29731045Y23277914D01*
X29475626Y23355394D01*
X29210000Y23381556D01*
X28944375Y23355394D01*
X28688956Y23277914D01*
X28453561Y23152092D01*
X28247236Y22982765D01*
X28077908Y22776440D01*
X27952086Y22541045D01*
X27940000Y22501202D01*
X27927914Y22541045D01*
X27802092Y22776440D01*
X27632765Y22982765D01*
X27426440Y23152092D01*
X27191045Y23277914D01*
X26935626Y23355394D01*
X26670000Y23381556D01*
X26404375Y23355394D01*
X26148956Y23277914D01*
X25913561Y23152092D01*
X25707236Y22982765D01*
X25537908Y22776440D01*
X25412086Y22541045D01*
X25400000Y22501202D01*
X25387914Y22541045D01*
X25262092Y22776440D01*
X25092765Y22982765D01*
X24886440Y23152092D01*
X24651045Y23277914D01*
X24395626Y23355394D01*
X24130000Y23381556D01*
X23864375Y23355394D01*
X23608956Y23277914D01*
X23373561Y23152092D01*
X23167236Y22982765D01*
X22997908Y22776440D01*
X22872086Y22541045D01*
X22794606Y22285626D01*
X22775000Y22086564D01*
X8942307Y22086564D01*
X8948042Y22095147D01*
X9061010Y22367875D01*
X9118600Y22657401D01*
X9118600Y22952599D01*
X9061010Y23242125D01*
X8948042Y23514853D01*
X8784039Y23760302D01*
X8575302Y23969039D01*
X8329853Y24133042D01*
X8057125Y24246010D01*
X7767599Y24303600D01*
X7472401Y24303600D01*
X7182875Y24246010D01*
X6910147Y24133042D01*
X6664698Y23969039D01*
X6550636Y23854977D01*
X6533102Y23912780D01*
X6474137Y24023094D01*
X6394785Y24119785D01*
X6298094Y24199137D01*
X6187780Y24258102D01*
X6068082Y24294412D01*
X5943600Y24306672D01*
X4216400Y24306672D01*
X4091918Y24294412D01*
X3972220Y24258102D01*
X3861906Y24199137D01*
X3765215Y24119785D01*
X3685863Y24023094D01*
X3626898Y23912780D01*
X3590588Y23793082D01*
X3578328Y23668600D01*
X660000Y23668600D01*
X660000Y28217298D01*
X18236903Y28217298D01*
X18308486Y27973329D01*
X18563996Y27852429D01*
X18838184Y27783700D01*
X19120512Y27769783D01*
X19400130Y27811213D01*
X19666292Y27906397D01*
X19791514Y27973329D01*
X19863097Y28217298D01*
X19050000Y29030395D01*
X18236903Y28217298D01*
X660000Y28217298D01*
X660000Y29139488D01*
X17609783Y29139488D01*
X17651213Y28859870D01*
X17746397Y28593708D01*
X17813329Y28468486D01*
X18057298Y28396903D01*
X18870395Y29210000D01*
X19229605Y29210000D01*
X20042702Y28396903D01*
X20286671Y28468486D01*
X20407571Y28723996D01*
X20476300Y28998184D01*
X20490217Y29280512D01*
X20479724Y29351335D01*
X22615000Y29351335D01*
X22615000Y29068665D01*
X22670147Y28791426D01*
X22778320Y28530273D01*
X22935363Y28295241D01*
X23135241Y28095363D01*
X23370273Y27938320D01*
X23631426Y27830147D01*
X23908665Y27775000D01*
X24191335Y27775000D01*
X24468574Y27830147D01*
X24729727Y27938320D01*
X24964759Y28095363D01*
X25164637Y28295241D01*
X25234635Y28400000D01*
X29315230Y28400000D01*
X29406525Y28263368D01*
X29613368Y28056525D01*
X29856589Y27894010D01*
X30126842Y27782068D01*
X30413740Y27725000D01*
X30706260Y27725000D01*
X30993158Y27782068D01*
X31263411Y27894010D01*
X31506632Y28056525D01*
X31713475Y28263368D01*
X31875990Y28506589D01*
X31987932Y28776842D01*
X32045000Y29063740D01*
X32045000Y29356260D01*
X31987932Y29643158D01*
X31875990Y29913411D01*
X31713475Y30156632D01*
X31506632Y30363475D01*
X31263411Y30525990D01*
X30993158Y30637932D01*
X30706260Y30695000D01*
X30413740Y30695000D01*
X30126842Y30637932D01*
X29856589Y30525990D01*
X29613368Y30363475D01*
X29406525Y30156632D01*
X29315230Y30020000D01*
X25234635Y30020000D01*
X25164637Y30124759D01*
X24964759Y30324637D01*
X24729727Y30481680D01*
X24468574Y30589853D01*
X24191335Y30645000D01*
X23908665Y30645000D01*
X23631426Y30589853D01*
X23370273Y30481680D01*
X23135241Y30324637D01*
X22935363Y30124759D01*
X22778320Y29889727D01*
X22670147Y29628574D01*
X22615000Y29351335D01*
X20479724Y29351335D01*
X20448787Y29560130D01*
X20353603Y29826292D01*
X20286671Y29951514D01*
X20042702Y30023097D01*
X19229605Y29210000D01*
X18870395Y29210000D01*
X18057298Y30023097D01*
X17813329Y29951514D01*
X17692429Y29696004D01*
X17623700Y29421816D01*
X17609783Y29139488D01*
X660000Y29139488D01*
X660000Y30202702D01*
X18236903Y30202702D01*
X19050000Y29389605D01*
X19863097Y30202702D01*
X19791514Y30446671D01*
X19536004Y30567571D01*
X19261816Y30636300D01*
X18979488Y30650217D01*
X18699870Y30608787D01*
X18433708Y30513603D01*
X18308486Y30446671D01*
X18236903Y30202702D01*
X660000Y30202702D01*
X660000Y35701335D01*
X22695000Y35701335D01*
X22695000Y35418665D01*
X22750147Y35141426D01*
X22858320Y34880273D01*
X23015363Y34645241D01*
X23215241Y34445363D01*
X23450273Y34288320D01*
X23711426Y34180147D01*
X23988665Y34125000D01*
X24271335Y34125000D01*
X24548574Y34180147D01*
X24809727Y34288320D01*
X25044759Y34445363D01*
X25244637Y34645241D01*
X25401680Y34880273D01*
X25509853Y35141426D01*
X25565000Y35418665D01*
X25565000Y35701335D01*
X30315000Y35701335D01*
X30315000Y35418665D01*
X30370147Y35141426D01*
X30478320Y34880273D01*
X30635363Y34645241D01*
X30835241Y34445363D01*
X31070273Y34288320D01*
X31331426Y34180147D01*
X31608665Y34125000D01*
X31891335Y34125000D01*
X32168574Y34180147D01*
X32429727Y34288320D01*
X32664759Y34445363D01*
X32864637Y34645241D01*
X32934635Y34750000D01*
X34255096Y34750000D01*
X34367688Y34581495D01*
X34581495Y34367688D01*
X34832905Y34199701D01*
X35112257Y34083989D01*
X35408816Y34025000D01*
X35711184Y34025000D01*
X36007743Y34083989D01*
X36287095Y34199701D01*
X36538505Y34367688D01*
X36604944Y34434127D01*
X36610498Y34415820D01*
X36669463Y34305506D01*
X36748815Y34208815D01*
X36845506Y34129463D01*
X36955820Y34070498D01*
X37075518Y34034188D01*
X37200000Y34021928D01*
X37814250Y34025000D01*
X37973000Y34183750D01*
X37973000Y35433000D01*
X38227000Y35433000D01*
X38227000Y34183750D01*
X38385750Y34025000D01*
X39000000Y34021928D01*
X39124482Y34034188D01*
X39244180Y34070498D01*
X39354494Y34129463D01*
X39451185Y34208815D01*
X39530537Y34305506D01*
X39589502Y34415820D01*
X39625812Y34535518D01*
X39638072Y34660000D01*
X39635000Y35274250D01*
X39476250Y35433000D01*
X38227000Y35433000D01*
X37973000Y35433000D01*
X37953000Y35433000D01*
X37953000Y35687000D01*
X37973000Y35687000D01*
X37973000Y36936250D01*
X38227000Y36936250D01*
X38227000Y35687000D01*
X39476250Y35687000D01*
X39635000Y35845750D01*
X39638072Y36460000D01*
X39625812Y36584482D01*
X39589502Y36704180D01*
X39530537Y36814494D01*
X39451185Y36911185D01*
X39354494Y36990537D01*
X39244180Y37049502D01*
X39124482Y37085812D01*
X39000000Y37098072D01*
X38385750Y37095000D01*
X38227000Y36936250D01*
X37973000Y36936250D01*
X37814250Y37095000D01*
X37200000Y37098072D01*
X37075518Y37085812D01*
X36955820Y37049502D01*
X36845506Y36990537D01*
X36748815Y36911185D01*
X36669463Y36814494D01*
X36610498Y36704180D01*
X36604944Y36685873D01*
X36538505Y36752312D01*
X36287095Y36920299D01*
X36007743Y37036011D01*
X35711184Y37095000D01*
X35408816Y37095000D01*
X35112257Y37036011D01*
X34832905Y36920299D01*
X34581495Y36752312D01*
X34367688Y36538505D01*
X34255096Y36370000D01*
X32934635Y36370000D01*
X32864637Y36474759D01*
X32664759Y36674637D01*
X32429727Y36831680D01*
X32168574Y36939853D01*
X31891335Y36995000D01*
X31608665Y36995000D01*
X31331426Y36939853D01*
X31070273Y36831680D01*
X30835241Y36674637D01*
X30635363Y36474759D01*
X30478320Y36239727D01*
X30370147Y35978574D01*
X30315000Y35701335D01*
X25565000Y35701335D01*
X25509853Y35978574D01*
X25401680Y36239727D01*
X25244637Y36474759D01*
X25044759Y36674637D01*
X24809727Y36831680D01*
X24548574Y36939853D01*
X24271335Y36995000D01*
X23988665Y36995000D01*
X23711426Y36939853D01*
X23450273Y36831680D01*
X23215241Y36674637D01*
X23015363Y36474759D01*
X22858320Y36239727D01*
X22750147Y35978574D01*
X22695000Y35701335D01*
X660000Y35701335D01*
X660000Y42520000D01*
X80620000Y42520000D01*
X80620001Y660000D01*
G36*
X31028904Y13010983D02*
G01*
X30993561Y12992092D01*
X30886601Y12904312D01*
X29331299Y14459613D01*
X29305928Y14490528D01*
X29182589Y14591749D01*
X29041873Y14666963D01*
X28889188Y14713280D01*
X28770191Y14725000D01*
X28770188Y14725000D01*
X28730400Y14728919D01*
X28690612Y14725000D01*
X9044331Y14725000D01*
X9074958Y14825974D01*
X8953817Y15058000D01*
X7747000Y15058000D01*
X7747000Y15038000D01*
X7493000Y15038000D01*
X7493000Y15058000D01*
X7473000Y15058000D01*
X7473000Y15312000D01*
X7493000Y15312000D01*
X7493000Y15332000D01*
X7747000Y15332000D01*
X7747000Y15312000D01*
X8953817Y15312000D01*
X9074958Y15544026D01*
X9044331Y15645000D01*
X28394888Y15645000D01*
X31028904Y13010983D01*
G37*
X31028904Y13010983D02*
X30993561Y12992092D01*
X30886601Y12904312D01*
X29331299Y14459613D01*
X29305928Y14490528D01*
X29182589Y14591749D01*
X29041873Y14666963D01*
X28889188Y14713280D01*
X28770191Y14725000D01*
X28770188Y14725000D01*
X28730400Y14728919D01*
X28690612Y14725000D01*
X9044331Y14725000D01*
X9074958Y14825974D01*
X8953817Y15058000D01*
X7747000Y15058000D01*
X7747000Y15038000D01*
X7493000Y15038000D01*
X7493000Y15058000D01*
X7473000Y15058000D01*
X7473000Y15312000D01*
X7493000Y15312000D01*
X7493000Y15332000D01*
X7747000Y15332000D01*
X7747000Y15312000D01*
X8953817Y15312000D01*
X9074958Y15544026D01*
X9044331Y15645000D01*
X28394888Y15645000D01*
X31028904Y13010983D01*
%TD*%
M02*
