G04 #@! TF.GenerationSoftware,KiCad,Pcbnew,5.1.4-3.fc30*
G04 #@! TF.CreationDate,2019-09-25T04:41:54+02:00*
G04 #@! TF.ProjectId,atmega_prog_adapter_v2,61746d65-6761-45f7-9072-6f675f616461,1.0*
G04 #@! TF.SameCoordinates,Original*
G04 #@! TF.FileFunction,Copper,L2,Bot*
G04 #@! TF.FilePolarity,Positive*
%FSLAX46Y46*%
G04 Gerber Fmt 4.6, Leading zero omitted, Abs format (unit mm)*
G04 Created by KiCad (PCBNEW 5.1.4-3.fc30) date 2019-09-25 04:41:54*
%MOMM*%
%LPD*%
G04 APERTURE LIST*
%ADD10C,1.600000*%
%ADD11R,1.800000X1.800000*%
%ADD12C,1.800000*%
%ADD13R,1.727200X1.727200*%
%ADD14O,1.727200X1.727200*%
%ADD15O,1.600000X1.600000*%
%ADD16R,1.440000X2.000000*%
%ADD17O,1.440000X2.000000*%
%ADD18C,1.700000*%
%ADD19C,0.350000*%
G04 APERTURE END LIST*
D10*
X128270000Y-105410000D03*
X130770000Y-105410000D03*
X135890000Y-80010000D03*
X130890000Y-80010000D03*
X112950000Y-80010000D03*
X107950000Y-80010000D03*
D11*
X127000000Y-73660000D03*
D12*
X124460000Y-73660000D03*
D13*
X93980000Y-86415000D03*
D14*
X96520000Y-86415000D03*
X93980000Y-88955000D03*
X96520000Y-88955000D03*
X93980000Y-91495000D03*
X96520000Y-91495000D03*
X93980000Y-94035000D03*
X96520000Y-94035000D03*
X93980000Y-96575000D03*
X96520000Y-96575000D03*
D10*
X140970000Y-80010000D03*
D15*
X148590000Y-80010000D03*
X113030000Y-73660000D03*
D10*
X120650000Y-73660000D03*
D16*
X146050000Y-87480000D03*
D17*
X146050000Y-97640000D03*
X143510000Y-87480000D03*
X143510000Y-97640000D03*
X140970000Y-87480000D03*
X140970000Y-97640000D03*
X138430000Y-87480000D03*
X138430000Y-97640000D03*
X135890000Y-87480000D03*
X135890000Y-97640000D03*
X133350000Y-87480000D03*
X133350000Y-97640000D03*
X130810000Y-87480000D03*
X130810000Y-97640000D03*
X128270000Y-87480000D03*
X128270000Y-97640000D03*
X125730000Y-87480000D03*
X125730000Y-97640000D03*
X123190000Y-87480000D03*
X123190000Y-97640000D03*
X120650000Y-87480000D03*
X120650000Y-97640000D03*
X118110000Y-87480000D03*
X118110000Y-97640000D03*
X115570000Y-87480000D03*
X115570000Y-97640000D03*
X113030000Y-87480000D03*
X113030000Y-97640000D03*
D18*
X124460000Y-80010000D03*
X119460000Y-80010000D03*
D19*
X130810000Y-87480000D02*
X129714700Y-87480000D01*
X128270000Y-97640000D02*
X129365300Y-97640000D01*
X129714700Y-87480000D02*
X129714700Y-97290600D01*
X129714700Y-97290600D02*
X129365300Y-97640000D01*
X128270000Y-97640000D02*
X128270000Y-105410000D01*
X124634700Y-97640000D02*
X124634700Y-97229300D01*
X124634700Y-97229300D02*
X121266000Y-93860600D01*
X121266000Y-93860600D02*
X114870200Y-93860600D01*
X114870200Y-93860600D02*
X107424600Y-86415000D01*
X107424600Y-86415000D02*
X96520000Y-86415000D01*
X125730000Y-97640000D02*
X124634700Y-97640000D01*
X131905300Y-86084400D02*
X130213300Y-86084400D01*
X130213300Y-86084400D02*
X128817700Y-87480000D01*
X134625300Y-80010000D02*
X134625300Y-83364400D01*
X134625300Y-83364400D02*
X131905300Y-86084400D01*
X131905300Y-86084400D02*
X131905300Y-97640000D01*
X130810000Y-97640000D02*
X131905300Y-97640000D01*
X134625300Y-80010000D02*
X135890000Y-80010000D01*
X128275300Y-73660000D02*
X134625300Y-80010000D01*
X128270000Y-87480000D02*
X128817700Y-87480000D01*
X127000000Y-73660000D02*
X128275300Y-73660000D01*
X96520000Y-91495000D02*
X96520000Y-88955000D01*
X96520000Y-94035000D02*
X96520000Y-91495000D01*
X96520000Y-96575000D02*
X96520000Y-94035000D01*
X119460000Y-80010000D02*
X123190000Y-83740000D01*
X123190000Y-83740000D02*
X123190000Y-87480000D01*
X95218900Y-86415000D02*
X95218900Y-86879700D01*
X95218900Y-86879700D02*
X95993100Y-87653900D01*
X95993100Y-87653900D02*
X107439300Y-87653900D01*
X107439300Y-87653900D02*
X117014700Y-97229300D01*
X117014700Y-97229300D02*
X117014700Y-97640000D01*
X93980000Y-86415000D02*
X95218900Y-86415000D01*
X118110000Y-97640000D02*
X117014700Y-97640000D01*
X148590000Y-80010000D02*
X148590000Y-81185300D01*
X146050000Y-87480000D02*
X146050000Y-83725300D01*
X146050000Y-83725300D02*
X148590000Y-81185300D01*
X113030000Y-73660000D02*
X113030000Y-74835300D01*
X113030000Y-87480000D02*
X111934700Y-87480000D01*
X111934700Y-87480000D02*
X111740000Y-87285300D01*
X111740000Y-87285300D02*
X111740000Y-76125300D01*
X111740000Y-76125300D02*
X113030000Y-74835300D01*
M02*
