%TF.GenerationSoftware,KiCad,Pcbnew,5.1.4-3.fc30*%
%TF.CreationDate,2019-10-13T14:30:26+02:00*%
%TF.ProjectId,atmega_prog_adapter_v2,61746d65-6761-45f7-9072-6f675f616461,1.0*%
%TF.SameCoordinates,Original*%
%TF.FileFunction,Other,User*%
%FSLAX46Y46*%
G04 Gerber Fmt 4.6, Leading zero omitted, Abs format (unit mm)*
G04 Created by KiCad (PCBNEW 5.1.4-3.fc30) date 2019-10-13 14:30:26*
%MOMM*%
%LPD*%
G04 APERTURE LIST*
%ADD10C,0.050000*%
G04 APERTURE END LIST*
D10*
%TO.C,C1*%
X126770000Y-103910000D02*
X126770000Y-106910000D01*
X126770000Y-106910000D02*
X132270000Y-106910000D01*
X132270000Y-106910000D02*
X132270000Y-103910000D01*
X132270000Y-103910000D02*
X126770000Y-103910000D01*
%TO.C,C2*%
X136940000Y-81510000D02*
X136940000Y-78510000D01*
X136940000Y-78510000D02*
X129840000Y-78510000D01*
X129840000Y-78510000D02*
X129840000Y-81510000D01*
X129840000Y-81510000D02*
X136940000Y-81510000D01*
%TO.C,C3*%
X114000000Y-78510000D02*
X106900000Y-78510000D01*
X114000000Y-81510000D02*
X114000000Y-78510000D01*
X106900000Y-81510000D02*
X114000000Y-81510000D01*
X106900000Y-78510000D02*
X106900000Y-81510000D01*
%TO.C,D1*%
X128150000Y-75910000D02*
X128150000Y-71410000D01*
X128150000Y-71410000D02*
X123300000Y-71410000D01*
X123300000Y-71410000D02*
X123300000Y-75910000D01*
X123300000Y-75910000D02*
X128150000Y-75910000D01*
%TO.C,J1*%
X99930000Y-81065000D02*
X99930000Y-101925000D01*
X99930000Y-101925000D02*
X90570000Y-101925000D01*
X90570000Y-101925000D02*
X90570000Y-81065000D01*
X90570000Y-81065000D02*
X99930000Y-81065000D01*
%TO.C,R1*%
X139920000Y-78510000D02*
X139920000Y-81510000D01*
X139920000Y-81510000D02*
X149640000Y-81510000D01*
X149640000Y-81510000D02*
X149640000Y-78510000D01*
X149640000Y-78510000D02*
X139920000Y-78510000D01*
%TO.C,R2*%
X111980000Y-75160000D02*
X121700000Y-75160000D01*
X111980000Y-72160000D02*
X111980000Y-75160000D01*
X121700000Y-72160000D02*
X111980000Y-72160000D01*
X121700000Y-75160000D02*
X121700000Y-72160000D01*
%TO.C,U1*%
X169410000Y-81980000D02*
X169410000Y-87580000D01*
X169410000Y-87580000D02*
X157110000Y-87580000D01*
X157110000Y-87580000D02*
X157110000Y-101960000D01*
X157110000Y-101960000D02*
X105610000Y-101960000D01*
X105610000Y-101960000D02*
X105610000Y-83160000D01*
X105610000Y-83160000D02*
X149450000Y-83160000D01*
X149450000Y-83160000D02*
X149450000Y-81980000D01*
X149450000Y-81980000D02*
X169410000Y-81980000D01*
%TO.C,Y1*%
X125960000Y-81710000D02*
X125960000Y-78310000D01*
X125960000Y-78310000D02*
X117960000Y-78310000D01*
X117960000Y-78310000D02*
X117960000Y-81710000D01*
X117960000Y-81710000D02*
X125960000Y-81710000D01*
%TD*%
M02*
