%TF.GenerationSoftware,KiCad,Pcbnew,5.1.6-c6e7f7d~86~ubuntu18.04.1*%
%TF.CreationDate,2020-05-25T18:43:36+02:00*%
%TF.ProjectId,atmega_prog_adapter_v2,61746d65-6761-45f7-9072-6f675f616461,1.0*%
%TF.SameCoordinates,PX54c81a0PY68290a0*%
%TF.FileFunction,Copper,L2,Bot*%
%TF.FilePolarity,Positive*%
%FSLAX46Y46*%
G04 Gerber Fmt 4.6, Leading zero omitted, Abs format (unit mm)*
G04 Created by KiCad (PCBNEW 5.1.6-c6e7f7d~86~ubuntu18.04.1) date 2020-05-25 18:43:36*
%MOMM*%
%LPD*%
G01*
G04 APERTURE LIST*
%TA.AperFunction,ComponentPad*%
%ADD10C,1.600000*%
%TD*%
%TA.AperFunction,ComponentPad*%
%ADD11R,1.800000X1.800000*%
%TD*%
%TA.AperFunction,ComponentPad*%
%ADD12C,1.800000*%
%TD*%
%TA.AperFunction,ComponentPad*%
%ADD13R,1.727200X1.727200*%
%TD*%
%TA.AperFunction,ComponentPad*%
%ADD14O,1.727200X1.727200*%
%TD*%
%TA.AperFunction,ComponentPad*%
%ADD15O,1.600000X1.600000*%
%TD*%
%TA.AperFunction,ComponentPad*%
%ADD16R,1.440000X2.000000*%
%TD*%
%TA.AperFunction,ComponentPad*%
%ADD17O,1.440000X2.000000*%
%TD*%
%TA.AperFunction,ComponentPad*%
%ADD18C,1.700000*%
%TD*%
%TA.AperFunction,Conductor*%
%ADD19C,0.350000*%
%TD*%
G04 APERTURE END LIST*
D10*
%TO.P,C1,1*%
%TO.N,Net-(C1-Pad1)*%
X39370000Y3810000D03*
%TO.P,C1,2*%
%TO.N,GND*%
X41870000Y3810000D03*
%TD*%
%TO.P,C2,1*%
%TO.N,GND*%
X46990000Y29210000D03*
%TO.P,C2,2*%
%TO.N,/XTAL1*%
X41990000Y29210000D03*
%TD*%
%TO.P,C3,2*%
%TO.N,/XTAL2*%
X24050000Y29210000D03*
%TO.P,C3,1*%
%TO.N,GND*%
X19050000Y29210000D03*
%TD*%
D11*
%TO.P,D1,1*%
%TO.N,GND*%
X38100000Y35560000D03*
D12*
%TO.P,D1,2*%
%TO.N,Net-(D1-Pad2)*%
X35560000Y35560000D03*
%TD*%
D13*
%TO.P,J1,1*%
%TO.N,/MOSI*%
X5080000Y22805000D03*
D14*
%TO.P,J1,2*%
%TO.N,Net-(C1-Pad1)*%
X7620000Y22805000D03*
%TO.P,J1,3*%
%TO.N,Net-(J1-Pad3)*%
X5080000Y20265000D03*
%TO.P,J1,4*%
%TO.N,GND*%
X7620000Y20265000D03*
%TO.P,J1,5*%
%TO.N,/RESET*%
X5080000Y17725000D03*
%TO.P,J1,6*%
%TO.N,GND*%
X7620000Y17725000D03*
%TO.P,J1,7*%
%TO.N,/SCK*%
X5080000Y15185000D03*
%TO.P,J1,8*%
%TO.N,GND*%
X7620000Y15185000D03*
%TO.P,J1,9*%
%TO.N,/MISO*%
X5080000Y12645000D03*
%TO.P,J1,10*%
%TO.N,GND*%
X7620000Y12645000D03*
%TD*%
D10*
%TO.P,R1,1*%
%TO.N,Net-(C1-Pad1)*%
X52070000Y29210000D03*
D15*
%TO.P,R1,2*%
%TO.N,/RESET*%
X59690000Y29210000D03*
%TD*%
%TO.P,R2,2*%
%TO.N,Net-(R2-Pad2)*%
X24130000Y35560000D03*
D10*
%TO.P,R2,1*%
%TO.N,Net-(D1-Pad2)*%
X31750000Y35560000D03*
%TD*%
D16*
%TO.P,U1,1*%
%TO.N,/RESET*%
X57150000Y21740000D03*
D17*
%TO.P,U1,28*%
%TO.N,Net-(U1-Pad28)*%
X57150000Y11580000D03*
%TO.P,U1,2*%
%TO.N,Net-(U1-Pad2)*%
X54610000Y21740000D03*
%TO.P,U1,27*%
%TO.N,Net-(U1-Pad27)*%
X54610000Y11580000D03*
%TO.P,U1,3*%
%TO.N,Net-(U1-Pad3)*%
X52070000Y21740000D03*
%TO.P,U1,26*%
%TO.N,Net-(U1-Pad26)*%
X52070000Y11580000D03*
%TO.P,U1,4*%
%TO.N,Net-(U1-Pad4)*%
X49530000Y21740000D03*
%TO.P,U1,25*%
%TO.N,Net-(U1-Pad25)*%
X49530000Y11580000D03*
%TO.P,U1,5*%
%TO.N,Net-(U1-Pad5)*%
X46990000Y21740000D03*
%TO.P,U1,24*%
%TO.N,Net-(U1-Pad24)*%
X46990000Y11580000D03*
%TO.P,U1,6*%
%TO.N,Net-(U1-Pad6)*%
X44450000Y21740000D03*
%TO.P,U1,23*%
%TO.N,Net-(U1-Pad23)*%
X44450000Y11580000D03*
%TO.P,U1,7*%
%TO.N,Net-(C1-Pad1)*%
X41910000Y21740000D03*
%TO.P,U1,22*%
%TO.N,GND*%
X41910000Y11580000D03*
%TO.P,U1,8*%
X39370000Y21740000D03*
%TO.P,U1,21*%
%TO.N,Net-(C1-Pad1)*%
X39370000Y11580000D03*
%TO.P,U1,9*%
%TO.N,/XTAL1*%
X36830000Y21740000D03*
%TO.P,U1,20*%
%TO.N,Net-(C1-Pad1)*%
X36830000Y11580000D03*
%TO.P,U1,10*%
%TO.N,/XTAL2*%
X34290000Y21740000D03*
%TO.P,U1,19*%
%TO.N,/SCK*%
X34290000Y11580000D03*
%TO.P,U1,11*%
%TO.N,Net-(U1-Pad11)*%
X31750000Y21740000D03*
%TO.P,U1,18*%
%TO.N,/MISO*%
X31750000Y11580000D03*
%TO.P,U1,12*%
%TO.N,Net-(U1-Pad12)*%
X29210000Y21740000D03*
%TO.P,U1,17*%
%TO.N,/MOSI*%
X29210000Y11580000D03*
%TO.P,U1,13*%
%TO.N,Net-(U1-Pad13)*%
X26670000Y21740000D03*
%TO.P,U1,16*%
%TO.N,Net-(U1-Pad16)*%
X26670000Y11580000D03*
%TO.P,U1,14*%
%TO.N,Net-(R2-Pad2)*%
X24130000Y21740000D03*
%TO.P,U1,15*%
%TO.N,Net-(U1-Pad15)*%
X24130000Y11580000D03*
%TD*%
D18*
%TO.P,Y1,1*%
%TO.N,/XTAL1*%
X35560000Y29210000D03*
%TO.P,Y1,2*%
%TO.N,/XTAL2*%
X30560000Y29210000D03*
%TD*%
D19*
%TO.N,Net-(C1-Pad1)*%
X41910000Y21740000D02*
X40814700Y21740000D01*
X39370000Y11580000D02*
X40465300Y11580000D01*
X40814700Y21740000D02*
X40814700Y11929400D01*
X40814700Y11929400D02*
X40465300Y11580000D01*
X39370000Y11580000D02*
X39370000Y3810000D01*
X35734700Y11580000D02*
X35734700Y11990700D01*
X35734700Y11990700D02*
X32366000Y15359400D01*
X32366000Y15359400D02*
X25970200Y15359400D01*
X25970200Y15359400D02*
X18524600Y22805000D01*
X18524600Y22805000D02*
X7620000Y22805000D01*
X36830000Y11580000D02*
X35734700Y11580000D01*
%TO.N,GND*%
X43005300Y23135600D02*
X41313300Y23135600D01*
X41313300Y23135600D02*
X39917700Y21740000D01*
X45725300Y29210000D02*
X45725300Y25855600D01*
X45725300Y25855600D02*
X43005300Y23135600D01*
X43005300Y23135600D02*
X43005300Y11580000D01*
X41910000Y11580000D02*
X43005300Y11580000D01*
X45725300Y29210000D02*
X46990000Y29210000D01*
X39375300Y35560000D02*
X45725300Y29210000D01*
X39370000Y21740000D02*
X39917700Y21740000D01*
X38100000Y35560000D02*
X39375300Y35560000D01*
X7620000Y17725000D02*
X7620000Y20265000D01*
X7620000Y15185000D02*
X7620000Y17725000D01*
X7620000Y12645000D02*
X7620000Y15185000D01*
%TO.N,/XTAL2*%
X30560000Y29210000D02*
X34290000Y25480000D01*
X34290000Y25480000D02*
X34290000Y21740000D01*
%TO.N,/MOSI*%
X6318900Y22805000D02*
X6318900Y22340300D01*
X6318900Y22340300D02*
X7093100Y21566100D01*
X7093100Y21566100D02*
X18539300Y21566100D01*
X18539300Y21566100D02*
X28114700Y11990700D01*
X28114700Y11990700D02*
X28114700Y11580000D01*
X5080000Y22805000D02*
X6318900Y22805000D01*
X29210000Y11580000D02*
X28114700Y11580000D01*
%TO.N,/RESET*%
X59690000Y29210000D02*
X59690000Y28034700D01*
X57150000Y21740000D02*
X57150000Y25494700D01*
X57150000Y25494700D02*
X59690000Y28034700D01*
%TO.N,Net-(R2-Pad2)*%
X24130000Y35560000D02*
X24130000Y34384700D01*
X24130000Y21740000D02*
X23034700Y21740000D01*
X23034700Y21740000D02*
X22840000Y21934700D01*
X22840000Y21934700D02*
X22840000Y33094700D01*
X22840000Y33094700D02*
X24130000Y34384700D01*
%TD*%
M02*
