M48
; DRILL file {KiCad 5.1.6-c6e7f7d~86~ubuntu18.04.1} date Mon May 25 18:43:41 2020
; FORMAT={-:-/ absolute / inch / decimal}
; #@! TF.CreationDate,2020-05-25T18:43:41+02:00
; #@! TF.GenerationSoftware,Kicad,Pcbnew,5.1.6-c6e7f7d~86~ubuntu18.04.1
FMAT,2
INCH
T1C0.0315
T2C0.0354
T3C0.0394
T4C0.0400
%
G90
G05
T1
X1.55Y0.15
X1.6484Y0.15
X1.6531Y1.15
X1.85Y1.15
X2.05Y1.15
X2.35Y1.15
X0.75Y1.15
X0.9469Y1.15
X0.95Y1.4
X1.25Y1.4
T2
X1.4Y1.4
X1.5Y1.4
T3
X0.95Y0.8559
X0.95Y0.4559
X1.05Y0.8559
X1.05Y0.4559
X1.15Y0.8559
X1.15Y0.4559
X1.25Y0.8559
X1.25Y0.4559
X1.35Y0.8559
X1.35Y0.4559
X1.45Y0.8559
X1.45Y0.4559
X1.55Y0.8559
X1.55Y0.4559
X1.65Y0.8559
X1.65Y0.4559
X1.75Y0.8559
X1.75Y0.4559
X1.85Y0.8559
X1.85Y0.4559
X1.95Y0.8559
X1.95Y0.4559
X2.05Y0.8559
X2.05Y0.4559
X2.15Y0.8559
X2.15Y0.4559
X2.25Y0.8559
X2.25Y0.4559
X1.2031Y1.15
X1.4Y1.15
T4
X0.2Y0.8978
X0.2Y0.7978
X0.2Y0.6978
X0.2Y0.5978
X0.2Y0.4978
X0.3Y0.8978
X0.3Y0.7978
X0.3Y0.6978
X0.3Y0.5978
X0.3Y0.4978
T0
M30
