%TF.GenerationSoftware,KiCad,Pcbnew,5.1.6-c6e7f7d~86~ubuntu18.04.1*%
%TF.CreationDate,2020-05-25T18:43:36+02:00*%
%TF.ProjectId,atmega_prog_adapter_v2,61746d65-6761-45f7-9072-6f675f616461,1.0*%
%TF.SameCoordinates,PX54c81a0PY68290a0*%
%TF.FileFunction,Legend,Bot*%
%TF.FilePolarity,Positive*%
%FSLAX46Y46*%
G04 Gerber Fmt 4.6, Leading zero omitted, Abs format (unit mm)*
G04 Created by KiCad (PCBNEW 5.1.6-c6e7f7d~86~ubuntu18.04.1) date 2020-05-25 18:43:36*
%MOMM*%
%LPD*%
G01*
G04 APERTURE LIST*
%ADD10C,1.702000*%
%ADD11R,1.902000X1.902000*%
%ADD12C,1.902000*%
%ADD13R,1.829200X1.829200*%
%ADD14O,1.829200X1.829200*%
%ADD15O,1.702000X1.702000*%
%ADD16R,1.542000X2.102000*%
%ADD17O,1.542000X2.102000*%
%ADD18C,1.802000*%
G04 APERTURE END LIST*
%LPC*%
D10*
%TO.C,C1*%
X39370000Y3810000D03*
X41870000Y3810000D03*
%TD*%
%TO.C,C2*%
X46990000Y29210000D03*
X41990000Y29210000D03*
%TD*%
%TO.C,C3*%
X24050000Y29210000D03*
X19050000Y29210000D03*
%TD*%
D11*
%TO.C,D1*%
X38100000Y35560000D03*
D12*
X35560000Y35560000D03*
%TD*%
D13*
%TO.C,J1*%
X5080000Y22805000D03*
D14*
X7620000Y22805000D03*
X5080000Y20265000D03*
X7620000Y20265000D03*
X5080000Y17725000D03*
X7620000Y17725000D03*
X5080000Y15185000D03*
X7620000Y15185000D03*
X5080000Y12645000D03*
X7620000Y12645000D03*
%TD*%
D10*
%TO.C,R1*%
X52070000Y29210000D03*
D15*
X59690000Y29210000D03*
%TD*%
%TO.C,R2*%
X24130000Y35560000D03*
D10*
X31750000Y35560000D03*
%TD*%
D16*
%TO.C,U1*%
X57150000Y21740000D03*
D17*
X57150000Y11580000D03*
X54610000Y21740000D03*
X54610000Y11580000D03*
X52070000Y21740000D03*
X52070000Y11580000D03*
X49530000Y21740000D03*
X49530000Y11580000D03*
X46990000Y21740000D03*
X46990000Y11580000D03*
X44450000Y21740000D03*
X44450000Y11580000D03*
X41910000Y21740000D03*
X41910000Y11580000D03*
X39370000Y21740000D03*
X39370000Y11580000D03*
X36830000Y21740000D03*
X36830000Y11580000D03*
X34290000Y21740000D03*
X34290000Y11580000D03*
X31750000Y21740000D03*
X31750000Y11580000D03*
X29210000Y21740000D03*
X29210000Y11580000D03*
X26670000Y21740000D03*
X26670000Y11580000D03*
X24130000Y21740000D03*
X24130000Y11580000D03*
%TD*%
D18*
%TO.C,Y1*%
X35560000Y29210000D03*
X30560000Y29210000D03*
%TD*%
M02*
