G04 #@! TF.GenerationSoftware,KiCad,Pcbnew,5.1.4-3.fc30*
G04 #@! TF.CreationDate,2019-09-25T04:41:54+02:00*
G04 #@! TF.ProjectId,atmega_prog_adapter_v2,61746d65-6761-45f7-9072-6f675f616461,1.0*
G04 #@! TF.SameCoordinates,Original*
G04 #@! TF.FileFunction,Legend,Top*
G04 #@! TF.FilePolarity,Positive*
%FSLAX46Y46*%
G04 Gerber Fmt 4.6, Leading zero omitted, Abs format (unit mm)*
G04 Created by KiCad (PCBNEW 5.1.4-3.fc30) date 2019-09-25 04:41:54*
%MOMM*%
%LPD*%
G04 APERTURE LIST*
%ADD10C,0.150000*%
%ADD11C,0.200000*%
%ADD12C,0.300000*%
%ADD13C,0.120000*%
G04 APERTURE END LIST*
D10*
X152783214Y-74321428D02*
X152854642Y-74250000D01*
X152997500Y-74178571D01*
X153354642Y-74178571D01*
X153497500Y-74250000D01*
X153568928Y-74321428D01*
X153640357Y-74464285D01*
X153640357Y-74607142D01*
X153568928Y-74821428D01*
X152711785Y-75678571D01*
X153640357Y-75678571D01*
X154568928Y-74178571D02*
X154711785Y-74178571D01*
X154854642Y-74250000D01*
X154926071Y-74321428D01*
X154997500Y-74464285D01*
X155068928Y-74750000D01*
X155068928Y-75107142D01*
X154997500Y-75392857D01*
X154926071Y-75535714D01*
X154854642Y-75607142D01*
X154711785Y-75678571D01*
X154568928Y-75678571D01*
X154426071Y-75607142D01*
X154354642Y-75535714D01*
X154283214Y-75392857D01*
X154211785Y-75107142D01*
X154211785Y-74750000D01*
X154283214Y-74464285D01*
X154354642Y-74321428D01*
X154426071Y-74250000D01*
X154568928Y-74178571D01*
X156497500Y-75678571D02*
X155640357Y-75678571D01*
X156068928Y-75678571D02*
X156068928Y-74178571D01*
X155926071Y-74392857D01*
X155783214Y-74535714D01*
X155640357Y-74607142D01*
X157211785Y-75678571D02*
X157497500Y-75678571D01*
X157640357Y-75607142D01*
X157711785Y-75535714D01*
X157854642Y-75321428D01*
X157926071Y-75035714D01*
X157926071Y-74464285D01*
X157854642Y-74321428D01*
X157783214Y-74250000D01*
X157640357Y-74178571D01*
X157354642Y-74178571D01*
X157211785Y-74250000D01*
X157140357Y-74321428D01*
X157068928Y-74464285D01*
X157068928Y-74821428D01*
X157140357Y-74964285D01*
X157211785Y-75035714D01*
X157354642Y-75107142D01*
X157640357Y-75107142D01*
X157783214Y-75035714D01*
X157854642Y-74964285D01*
X157926071Y-74821428D01*
X159711785Y-75678571D02*
X159711785Y-74678571D01*
X159711785Y-74964285D02*
X159783214Y-74821428D01*
X159854642Y-74750000D01*
X159997500Y-74678571D01*
X160140357Y-74678571D01*
X161211785Y-75607142D02*
X161068928Y-75678571D01*
X160783214Y-75678571D01*
X160640357Y-75607142D01*
X160568928Y-75464285D01*
X160568928Y-74892857D01*
X160640357Y-74750000D01*
X160783214Y-74678571D01*
X161068928Y-74678571D01*
X161211785Y-74750000D01*
X161283214Y-74892857D01*
X161283214Y-75035714D01*
X160568928Y-75178571D01*
X161783214Y-74678571D02*
X162140357Y-75678571D01*
X162497500Y-74678571D01*
X163068928Y-75535714D02*
X163140357Y-75607142D01*
X163068928Y-75678571D01*
X162997500Y-75607142D01*
X163068928Y-75535714D01*
X163068928Y-75678571D01*
X164568928Y-75678571D02*
X163711785Y-75678571D01*
X164140357Y-75678571D02*
X164140357Y-74178571D01*
X163997500Y-74392857D01*
X163854642Y-74535714D01*
X163711785Y-74607142D01*
X165211785Y-75535714D02*
X165283214Y-75607142D01*
X165211785Y-75678571D01*
X165140357Y-75607142D01*
X165211785Y-75535714D01*
X165211785Y-75678571D01*
X166211785Y-74178571D02*
X166354642Y-74178571D01*
X166497500Y-74250000D01*
X166568928Y-74321428D01*
X166640357Y-74464285D01*
X166711785Y-74750000D01*
X166711785Y-75107142D01*
X166640357Y-75392857D01*
X166568928Y-75535714D01*
X166497500Y-75607142D01*
X166354642Y-75678571D01*
X166211785Y-75678571D01*
X166068928Y-75607142D01*
X165997500Y-75535714D01*
X165926071Y-75392857D01*
X165854642Y-75107142D01*
X165854642Y-74750000D01*
X165926071Y-74464285D01*
X165997500Y-74321428D01*
X166068928Y-74250000D01*
X166211785Y-74178571D01*
X153640357Y-76650000D02*
X153497500Y-76578571D01*
X153283214Y-76578571D01*
X153068928Y-76650000D01*
X152926071Y-76792857D01*
X152854642Y-76935714D01*
X152783214Y-77221428D01*
X152783214Y-77435714D01*
X152854642Y-77721428D01*
X152926071Y-77864285D01*
X153068928Y-78007142D01*
X153283214Y-78078571D01*
X153426071Y-78078571D01*
X153640357Y-78007142D01*
X153711785Y-77935714D01*
X153711785Y-77435714D01*
X153426071Y-77435714D01*
X154354642Y-78078571D02*
X154354642Y-76578571D01*
X155211785Y-78078571D01*
X155211785Y-76578571D01*
X155926071Y-76578571D02*
X155926071Y-77792857D01*
X155997500Y-77935714D01*
X156068928Y-78007142D01*
X156211785Y-78078571D01*
X156497500Y-78078571D01*
X156640357Y-78007142D01*
X156711785Y-77935714D01*
X156783214Y-77792857D01*
X156783214Y-76578571D01*
X159426071Y-76650000D02*
X159283214Y-76578571D01*
X159068928Y-76578571D01*
X158854642Y-76650000D01*
X158711785Y-76792857D01*
X158640357Y-76935714D01*
X158568928Y-77221428D01*
X158568928Y-77435714D01*
X158640357Y-77721428D01*
X158711785Y-77864285D01*
X158854642Y-78007142D01*
X159068928Y-78078571D01*
X159211785Y-78078571D01*
X159426071Y-78007142D01*
X159497500Y-77935714D01*
X159497500Y-77435714D01*
X159211785Y-77435714D01*
X160140357Y-78078571D02*
X160140357Y-76578571D01*
X160711785Y-76578571D01*
X160854642Y-76650000D01*
X160926071Y-76721428D01*
X160997500Y-76864285D01*
X160997500Y-77078571D01*
X160926071Y-77221428D01*
X160854642Y-77292857D01*
X160711785Y-77364285D01*
X160140357Y-77364285D01*
X162354642Y-78078571D02*
X161640357Y-78078571D01*
X161640357Y-76578571D01*
X162711785Y-77078571D02*
X163068928Y-78078571D01*
X163426071Y-77078571D01*
X163854642Y-76578571D02*
X164783214Y-76578571D01*
X164283214Y-77150000D01*
X164497500Y-77150000D01*
X164640357Y-77221428D01*
X164711785Y-77292857D01*
X164783214Y-77435714D01*
X164783214Y-77792857D01*
X164711785Y-77935714D01*
X164640357Y-78007142D01*
X164497500Y-78078571D01*
X164068928Y-78078571D01*
X163926071Y-78007142D01*
X163854642Y-77935714D01*
D11*
X129898571Y-70320000D02*
X130470000Y-70320000D01*
X129784285Y-70662857D02*
X130184285Y-69462857D01*
X130584285Y-70662857D01*
X130812857Y-69462857D02*
X131498571Y-69462857D01*
X131155714Y-70662857D02*
X131155714Y-69462857D01*
X131898571Y-70662857D02*
X131898571Y-69862857D01*
X131898571Y-69977142D02*
X131955714Y-69920000D01*
X132070000Y-69862857D01*
X132241428Y-69862857D01*
X132355714Y-69920000D01*
X132412857Y-70034285D01*
X132412857Y-70662857D01*
X132412857Y-70034285D02*
X132470000Y-69920000D01*
X132584285Y-69862857D01*
X132755714Y-69862857D01*
X132870000Y-69920000D01*
X132927142Y-70034285D01*
X132927142Y-70662857D01*
X133955714Y-70605714D02*
X133841428Y-70662857D01*
X133612857Y-70662857D01*
X133498571Y-70605714D01*
X133441428Y-70491428D01*
X133441428Y-70034285D01*
X133498571Y-69920000D01*
X133612857Y-69862857D01*
X133841428Y-69862857D01*
X133955714Y-69920000D01*
X134012857Y-70034285D01*
X134012857Y-70148571D01*
X133441428Y-70262857D01*
X135041428Y-69862857D02*
X135041428Y-70834285D01*
X134984285Y-70948571D01*
X134927142Y-71005714D01*
X134812857Y-71062857D01*
X134641428Y-71062857D01*
X134527142Y-71005714D01*
X135041428Y-70605714D02*
X134927142Y-70662857D01*
X134698571Y-70662857D01*
X134584285Y-70605714D01*
X134527142Y-70548571D01*
X134470000Y-70434285D01*
X134470000Y-70091428D01*
X134527142Y-69977142D01*
X134584285Y-69920000D01*
X134698571Y-69862857D01*
X134927142Y-69862857D01*
X135041428Y-69920000D01*
X136127142Y-70662857D02*
X136127142Y-70034285D01*
X136070000Y-69920000D01*
X135955714Y-69862857D01*
X135727142Y-69862857D01*
X135612857Y-69920000D01*
X136127142Y-70605714D02*
X136012857Y-70662857D01*
X135727142Y-70662857D01*
X135612857Y-70605714D01*
X135555714Y-70491428D01*
X135555714Y-70377142D01*
X135612857Y-70262857D01*
X135727142Y-70205714D01*
X136012857Y-70205714D01*
X136127142Y-70148571D01*
X137555714Y-70320000D02*
X138127142Y-70320000D01*
X137441428Y-70662857D02*
X137841428Y-69462857D01*
X138241428Y-70662857D01*
X139155714Y-70662857D02*
X139155714Y-69462857D01*
X139155714Y-70605714D02*
X139041428Y-70662857D01*
X138812857Y-70662857D01*
X138698571Y-70605714D01*
X138641428Y-70548571D01*
X138584285Y-70434285D01*
X138584285Y-70091428D01*
X138641428Y-69977142D01*
X138698571Y-69920000D01*
X138812857Y-69862857D01*
X139041428Y-69862857D01*
X139155714Y-69920000D01*
X140241428Y-70662857D02*
X140241428Y-70034285D01*
X140184285Y-69920000D01*
X140070000Y-69862857D01*
X139841428Y-69862857D01*
X139727142Y-69920000D01*
X140241428Y-70605714D02*
X140127142Y-70662857D01*
X139841428Y-70662857D01*
X139727142Y-70605714D01*
X139670000Y-70491428D01*
X139670000Y-70377142D01*
X139727142Y-70262857D01*
X139841428Y-70205714D01*
X140127142Y-70205714D01*
X140241428Y-70148571D01*
X140812857Y-69862857D02*
X140812857Y-71062857D01*
X140812857Y-69920000D02*
X140927142Y-69862857D01*
X141155714Y-69862857D01*
X141270000Y-69920000D01*
X141327142Y-69977142D01*
X141384285Y-70091428D01*
X141384285Y-70434285D01*
X141327142Y-70548571D01*
X141270000Y-70605714D01*
X141155714Y-70662857D01*
X140927142Y-70662857D01*
X140812857Y-70605714D01*
X141727142Y-69862857D02*
X142184285Y-69862857D01*
X141898571Y-69462857D02*
X141898571Y-70491428D01*
X141955714Y-70605714D01*
X142070000Y-70662857D01*
X142184285Y-70662857D01*
X143041428Y-70605714D02*
X142927142Y-70662857D01*
X142698571Y-70662857D01*
X142584285Y-70605714D01*
X142527142Y-70491428D01*
X142527142Y-70034285D01*
X142584285Y-69920000D01*
X142698571Y-69862857D01*
X142927142Y-69862857D01*
X143041428Y-69920000D01*
X143098571Y-70034285D01*
X143098571Y-70148571D01*
X142527142Y-70262857D01*
X143612857Y-70662857D02*
X143612857Y-69862857D01*
X143612857Y-70091428D02*
X143670000Y-69977142D01*
X143727142Y-69920000D01*
X143841428Y-69862857D01*
X143955714Y-69862857D01*
X145155714Y-69862857D02*
X145441428Y-70662857D01*
X145727142Y-69862857D01*
X146127142Y-69577142D02*
X146184285Y-69520000D01*
X146298571Y-69462857D01*
X146584285Y-69462857D01*
X146698571Y-69520000D01*
X146755714Y-69577142D01*
X146812857Y-69691428D01*
X146812857Y-69805714D01*
X146755714Y-69977142D01*
X146070000Y-70662857D01*
X146812857Y-70662857D01*
X129898571Y-72320000D02*
X130470000Y-72320000D01*
X129784285Y-72662857D02*
X130184285Y-71462857D01*
X130584285Y-72662857D01*
X130812857Y-71462857D02*
X131498571Y-71462857D01*
X131155714Y-72662857D02*
X131155714Y-71462857D01*
X131898571Y-72662857D02*
X131898571Y-71862857D01*
X131898571Y-71977142D02*
X131955714Y-71920000D01*
X132070000Y-71862857D01*
X132241428Y-71862857D01*
X132355714Y-71920000D01*
X132412857Y-72034285D01*
X132412857Y-72662857D01*
X132412857Y-72034285D02*
X132470000Y-71920000D01*
X132584285Y-71862857D01*
X132755714Y-71862857D01*
X132870000Y-71920000D01*
X132927142Y-72034285D01*
X132927142Y-72662857D01*
X133955714Y-72605714D02*
X133841428Y-72662857D01*
X133612857Y-72662857D01*
X133498571Y-72605714D01*
X133441428Y-72491428D01*
X133441428Y-72034285D01*
X133498571Y-71920000D01*
X133612857Y-71862857D01*
X133841428Y-71862857D01*
X133955714Y-71920000D01*
X134012857Y-72034285D01*
X134012857Y-72148571D01*
X133441428Y-72262857D01*
X135041428Y-71862857D02*
X135041428Y-72834285D01*
X134984285Y-72948571D01*
X134927142Y-73005714D01*
X134812857Y-73062857D01*
X134641428Y-73062857D01*
X134527142Y-73005714D01*
X135041428Y-72605714D02*
X134927142Y-72662857D01*
X134698571Y-72662857D01*
X134584285Y-72605714D01*
X134527142Y-72548571D01*
X134470000Y-72434285D01*
X134470000Y-72091428D01*
X134527142Y-71977142D01*
X134584285Y-71920000D01*
X134698571Y-71862857D01*
X134927142Y-71862857D01*
X135041428Y-71920000D01*
X136127142Y-72662857D02*
X136127142Y-72034285D01*
X136070000Y-71920000D01*
X135955714Y-71862857D01*
X135727142Y-71862857D01*
X135612857Y-71920000D01*
X136127142Y-72605714D02*
X136012857Y-72662857D01*
X135727142Y-72662857D01*
X135612857Y-72605714D01*
X135555714Y-72491428D01*
X135555714Y-72377142D01*
X135612857Y-72262857D01*
X135727142Y-72205714D01*
X136012857Y-72205714D01*
X136127142Y-72148571D01*
X137212857Y-71862857D02*
X137212857Y-72662857D01*
X136927142Y-71405714D02*
X136641428Y-72262857D01*
X137384285Y-72262857D01*
X138012857Y-71977142D02*
X137898571Y-71920000D01*
X137841428Y-71862857D01*
X137784285Y-71748571D01*
X137784285Y-71691428D01*
X137841428Y-71577142D01*
X137898571Y-71520000D01*
X138012857Y-71462857D01*
X138241428Y-71462857D01*
X138355714Y-71520000D01*
X138412857Y-71577142D01*
X138470000Y-71691428D01*
X138470000Y-71748571D01*
X138412857Y-71862857D01*
X138355714Y-71920000D01*
X138241428Y-71977142D01*
X138012857Y-71977142D01*
X137898571Y-72034285D01*
X137841428Y-72091428D01*
X137784285Y-72205714D01*
X137784285Y-72434285D01*
X137841428Y-72548571D01*
X137898571Y-72605714D01*
X138012857Y-72662857D01*
X138241428Y-72662857D01*
X138355714Y-72605714D01*
X138412857Y-72548571D01*
X138470000Y-72434285D01*
X138470000Y-72205714D01*
X138412857Y-72091428D01*
X138355714Y-72034285D01*
X138241428Y-71977142D01*
X138927142Y-72320000D02*
X139498571Y-72320000D01*
X138812857Y-72662857D02*
X139212857Y-71462857D01*
X139612857Y-72662857D01*
X140870000Y-71405714D02*
X139841428Y-72948571D01*
X141270000Y-72662857D02*
X141270000Y-71462857D01*
X141727142Y-71462857D01*
X141841428Y-71520000D01*
X141898571Y-71577142D01*
X141955714Y-71691428D01*
X141955714Y-71862857D01*
X141898571Y-71977142D01*
X141841428Y-72034285D01*
X141727142Y-72091428D01*
X141270000Y-72091428D01*
X142412857Y-72320000D02*
X142984285Y-72320000D01*
X142298571Y-72662857D02*
X142698571Y-71462857D01*
X143098571Y-72662857D01*
X144355714Y-71405714D02*
X143327142Y-72948571D01*
X144927142Y-71977142D02*
X144812857Y-71920000D01*
X144755714Y-71862857D01*
X144698571Y-71748571D01*
X144698571Y-71691428D01*
X144755714Y-71577142D01*
X144812857Y-71520000D01*
X144927142Y-71462857D01*
X145155714Y-71462857D01*
X145270000Y-71520000D01*
X145327142Y-71577142D01*
X145384285Y-71691428D01*
X145384285Y-71748571D01*
X145327142Y-71862857D01*
X145270000Y-71920000D01*
X145155714Y-71977142D01*
X144927142Y-71977142D01*
X144812857Y-72034285D01*
X144755714Y-72091428D01*
X144698571Y-72205714D01*
X144698571Y-72434285D01*
X144755714Y-72548571D01*
X144812857Y-72605714D01*
X144927142Y-72662857D01*
X145155714Y-72662857D01*
X145270000Y-72605714D01*
X145327142Y-72548571D01*
X145384285Y-72434285D01*
X145384285Y-72205714D01*
X145327142Y-72091428D01*
X145270000Y-72034285D01*
X145155714Y-71977142D01*
X146070000Y-71977142D02*
X145955714Y-71920000D01*
X145898571Y-71862857D01*
X145841428Y-71748571D01*
X145841428Y-71691428D01*
X145898571Y-71577142D01*
X145955714Y-71520000D01*
X146070000Y-71462857D01*
X146298571Y-71462857D01*
X146412857Y-71520000D01*
X146470000Y-71577142D01*
X146527142Y-71691428D01*
X146527142Y-71748571D01*
X146470000Y-71862857D01*
X146412857Y-71920000D01*
X146298571Y-71977142D01*
X146070000Y-71977142D01*
X145955714Y-72034285D01*
X145898571Y-72091428D01*
X145841428Y-72205714D01*
X145841428Y-72434285D01*
X145898571Y-72548571D01*
X145955714Y-72605714D01*
X146070000Y-72662857D01*
X146298571Y-72662857D01*
X146412857Y-72605714D01*
X146470000Y-72548571D01*
X146527142Y-72434285D01*
X146527142Y-72205714D01*
X146470000Y-72091428D01*
X146412857Y-72034285D01*
X146298571Y-71977142D01*
X146984285Y-72320000D02*
X147555714Y-72320000D01*
X146870000Y-72662857D02*
X147270000Y-71462857D01*
X147670000Y-72662857D01*
X148927142Y-71405714D02*
X147898571Y-72948571D01*
X149327142Y-72662857D02*
X149327142Y-71462857D01*
X149784285Y-71462857D01*
X149898571Y-71520000D01*
X149955714Y-71577142D01*
X150012857Y-71691428D01*
X150012857Y-71862857D01*
X149955714Y-71977142D01*
X149898571Y-72034285D01*
X149784285Y-72091428D01*
X149327142Y-72091428D01*
X150470000Y-72320000D02*
X151041428Y-72320000D01*
X150355714Y-72662857D02*
X150755714Y-71462857D01*
X151155714Y-72662857D01*
X152412857Y-71405714D02*
X151384285Y-72948571D01*
X153441428Y-72662857D02*
X152755714Y-72662857D01*
X153098571Y-72662857D02*
X153098571Y-71462857D01*
X152984285Y-71634285D01*
X152870000Y-71748571D01*
X152755714Y-71805714D01*
X154470000Y-71462857D02*
X154241428Y-71462857D01*
X154127142Y-71520000D01*
X154070000Y-71577142D01*
X153955714Y-71748571D01*
X153898571Y-71977142D01*
X153898571Y-72434285D01*
X153955714Y-72548571D01*
X154012857Y-72605714D01*
X154127142Y-72662857D01*
X154355714Y-72662857D01*
X154470000Y-72605714D01*
X154527142Y-72548571D01*
X154584285Y-72434285D01*
X154584285Y-72148571D01*
X154527142Y-72034285D01*
X154470000Y-71977142D01*
X154355714Y-71920000D01*
X154127142Y-71920000D01*
X154012857Y-71977142D01*
X153955714Y-72034285D01*
X153898571Y-72148571D01*
X155270000Y-71977142D02*
X155155714Y-71920000D01*
X155098571Y-71862857D01*
X155041428Y-71748571D01*
X155041428Y-71691428D01*
X155098571Y-71577142D01*
X155155714Y-71520000D01*
X155270000Y-71462857D01*
X155498571Y-71462857D01*
X155612857Y-71520000D01*
X155670000Y-71577142D01*
X155727142Y-71691428D01*
X155727142Y-71748571D01*
X155670000Y-71862857D01*
X155612857Y-71920000D01*
X155498571Y-71977142D01*
X155270000Y-71977142D01*
X155155714Y-72034285D01*
X155098571Y-72091428D01*
X155041428Y-72205714D01*
X155041428Y-72434285D01*
X155098571Y-72548571D01*
X155155714Y-72605714D01*
X155270000Y-72662857D01*
X155498571Y-72662857D01*
X155612857Y-72605714D01*
X155670000Y-72548571D01*
X155727142Y-72434285D01*
X155727142Y-72205714D01*
X155670000Y-72091428D01*
X155612857Y-72034285D01*
X155498571Y-71977142D01*
X156184285Y-72320000D02*
X156755714Y-72320000D01*
X156070000Y-72662857D02*
X156470000Y-71462857D01*
X156870000Y-72662857D01*
X158127142Y-71405714D02*
X157098571Y-72948571D01*
X158527142Y-72662857D02*
X158527142Y-71462857D01*
X158984285Y-71462857D01*
X159098571Y-71520000D01*
X159155714Y-71577142D01*
X159212857Y-71691428D01*
X159212857Y-71862857D01*
X159155714Y-71977142D01*
X159098571Y-72034285D01*
X158984285Y-72091428D01*
X158527142Y-72091428D01*
X159670000Y-72320000D02*
X160241428Y-72320000D01*
X159555714Y-72662857D02*
X159955714Y-71462857D01*
X160355714Y-72662857D01*
X161612857Y-71405714D02*
X160584285Y-72948571D01*
X161898571Y-71462857D02*
X162641428Y-71462857D01*
X162241428Y-71920000D01*
X162412857Y-71920000D01*
X162527142Y-71977142D01*
X162584285Y-72034285D01*
X162641428Y-72148571D01*
X162641428Y-72434285D01*
X162584285Y-72548571D01*
X162527142Y-72605714D01*
X162412857Y-72662857D01*
X162070000Y-72662857D01*
X161955714Y-72605714D01*
X161898571Y-72548571D01*
X163098571Y-71577142D02*
X163155714Y-71520000D01*
X163270000Y-71462857D01*
X163555714Y-71462857D01*
X163670000Y-71520000D01*
X163727142Y-71577142D01*
X163784285Y-71691428D01*
X163784285Y-71805714D01*
X163727142Y-71977142D01*
X163041428Y-72662857D01*
X163784285Y-72662857D01*
X164470000Y-71977142D02*
X164355714Y-71920000D01*
X164298571Y-71862857D01*
X164241428Y-71748571D01*
X164241428Y-71691428D01*
X164298571Y-71577142D01*
X164355714Y-71520000D01*
X164470000Y-71462857D01*
X164698571Y-71462857D01*
X164812857Y-71520000D01*
X164870000Y-71577142D01*
X164927142Y-71691428D01*
X164927142Y-71748571D01*
X164870000Y-71862857D01*
X164812857Y-71920000D01*
X164698571Y-71977142D01*
X164470000Y-71977142D01*
X164355714Y-72034285D01*
X164298571Y-72091428D01*
X164241428Y-72205714D01*
X164241428Y-72434285D01*
X164298571Y-72548571D01*
X164355714Y-72605714D01*
X164470000Y-72662857D01*
X164698571Y-72662857D01*
X164812857Y-72605714D01*
X164870000Y-72548571D01*
X164927142Y-72434285D01*
X164927142Y-72205714D01*
X164870000Y-72091428D01*
X164812857Y-72034285D01*
X164698571Y-71977142D01*
X166298571Y-71405714D02*
X165270000Y-72948571D01*
X166698571Y-72662857D02*
X166698571Y-71462857D01*
X167155714Y-71462857D01*
X167270000Y-71520000D01*
X167327142Y-71577142D01*
X167384285Y-71691428D01*
X167384285Y-71862857D01*
X167327142Y-71977142D01*
X167270000Y-72034285D01*
X167155714Y-72091428D01*
X166698571Y-72091428D01*
D12*
X93631428Y-74469523D02*
X93917142Y-74564761D01*
X94393333Y-74564761D01*
X94583809Y-74469523D01*
X94679047Y-74374285D01*
X94774285Y-74183809D01*
X94774285Y-73993333D01*
X94679047Y-73802857D01*
X94583809Y-73707619D01*
X94393333Y-73612380D01*
X94012380Y-73517142D01*
X93821904Y-73421904D01*
X93726666Y-73326666D01*
X93631428Y-73136190D01*
X93631428Y-72945714D01*
X93726666Y-72755238D01*
X93821904Y-72660000D01*
X94012380Y-72564761D01*
X94488571Y-72564761D01*
X94774285Y-72660000D01*
X96964761Y-74755238D02*
X96774285Y-74660000D01*
X96583809Y-74469523D01*
X96298095Y-74183809D01*
X96107619Y-74088571D01*
X95917142Y-74088571D01*
X96012380Y-74564761D02*
X95821904Y-74469523D01*
X95631428Y-74279047D01*
X95536190Y-73898095D01*
X95536190Y-73231428D01*
X95631428Y-72850476D01*
X95821904Y-72660000D01*
X96012380Y-72564761D01*
X96393333Y-72564761D01*
X96583809Y-72660000D01*
X96774285Y-72850476D01*
X96869523Y-73231428D01*
X96869523Y-73898095D01*
X96774285Y-74279047D01*
X96583809Y-74469523D01*
X96393333Y-74564761D01*
X96012380Y-74564761D01*
X97536190Y-72564761D02*
X98869523Y-72564761D01*
X98012380Y-74564761D01*
X99631428Y-73517142D02*
X100298095Y-73517142D01*
X100583809Y-74564761D02*
X99631428Y-74564761D01*
X99631428Y-72564761D01*
X100583809Y-72564761D01*
X102774285Y-74755238D02*
X102583809Y-74660000D01*
X102393333Y-74469523D01*
X102107619Y-74183809D01*
X101917142Y-74088571D01*
X101726666Y-74088571D01*
X101821904Y-74564761D02*
X101631428Y-74469523D01*
X101440952Y-74279047D01*
X101345714Y-73898095D01*
X101345714Y-73231428D01*
X101440952Y-72850476D01*
X101631428Y-72660000D01*
X101821904Y-72564761D01*
X102202857Y-72564761D01*
X102393333Y-72660000D01*
X102583809Y-72850476D01*
X102679047Y-73231428D01*
X102679047Y-73898095D01*
X102583809Y-74279047D01*
X102393333Y-74469523D01*
X102202857Y-74564761D01*
X101821904Y-74564761D01*
X103536190Y-73517142D02*
X104202857Y-73517142D01*
X104488571Y-74564761D02*
X103536190Y-74564761D01*
X103536190Y-72564761D01*
X104488571Y-72564761D01*
D13*
X126900000Y-104040000D02*
X132140000Y-104040000D01*
X126900000Y-106780000D02*
X132140000Y-106780000D01*
X126900000Y-104040000D02*
X126900000Y-106780000D01*
X132140000Y-104040000D02*
X132140000Y-106780000D01*
X136510000Y-81380000D02*
X130270000Y-81380000D01*
X136510000Y-78640000D02*
X130270000Y-78640000D01*
X136510000Y-81380000D02*
X136510000Y-80935000D01*
X136510000Y-79085000D02*
X136510000Y-78640000D01*
X130270000Y-81380000D02*
X130270000Y-80935000D01*
X130270000Y-79085000D02*
X130270000Y-78640000D01*
X113570000Y-80935000D02*
X113570000Y-81380000D01*
X113570000Y-78640000D02*
X113570000Y-79085000D01*
X107330000Y-80935000D02*
X107330000Y-81380000D01*
X107330000Y-78640000D02*
X107330000Y-79085000D01*
X107330000Y-81380000D02*
X113570000Y-81380000D01*
X107330000Y-78640000D02*
X113570000Y-78640000D01*
X124057665Y-74738608D02*
G75*
G03X127290000Y-74895516I1672335J1078608D01*
G01*
X124057665Y-72581392D02*
G75*
G02X127290000Y-72424484I1672335J-1078608D01*
G01*
X124688870Y-74739837D02*
G75*
G03X126770961Y-74740000I1041130J1079837D01*
G01*
X124688870Y-72580163D02*
G75*
G02X126770961Y-72580000I1041130J-1079837D01*
G01*
X127290000Y-74896000D02*
X127290000Y-74740000D01*
X127290000Y-72580000D02*
X127290000Y-72424000D01*
X99925000Y-81065000D02*
X99925000Y-101925000D01*
X99925000Y-101925000D02*
X90575000Y-101925000D01*
X90575000Y-101925000D02*
X90575000Y-81065000D01*
X90575000Y-81065000D02*
X99925000Y-81065000D01*
X90325000Y-80815000D02*
X90325000Y-83355000D01*
X90325000Y-80815000D02*
X92865000Y-80815000D01*
X141510000Y-78970000D02*
X141510000Y-78640000D01*
X141510000Y-78640000D02*
X148050000Y-78640000D01*
X148050000Y-78640000D02*
X148050000Y-78970000D01*
X141510000Y-81050000D02*
X141510000Y-81380000D01*
X141510000Y-81380000D02*
X148050000Y-81380000D01*
X148050000Y-81380000D02*
X148050000Y-81050000D01*
X113570000Y-72290000D02*
X113570000Y-72620000D01*
X120110000Y-72290000D02*
X113570000Y-72290000D01*
X120110000Y-72620000D02*
X120110000Y-72290000D01*
X113570000Y-75030000D02*
X113570000Y-74700000D01*
X120110000Y-75030000D02*
X113570000Y-75030000D01*
X120110000Y-74700000D02*
X120110000Y-75030000D01*
X154950000Y-84280000D02*
G75*
G03X154950000Y-84280000I-2550000J0D01*
G01*
X153300000Y-84280000D02*
G75*
G03X153300000Y-84280000I-900000J0D01*
G01*
X149950000Y-83560000D02*
X106010000Y-83560000D01*
X106010000Y-83560000D02*
X106010000Y-101560000D01*
X106010000Y-101560000D02*
X156710000Y-101560000D01*
X156710000Y-101560000D02*
X156710000Y-83560000D01*
X156710000Y-83560000D02*
X154850000Y-83560000D01*
X156710000Y-85830000D02*
X154450000Y-85830000D01*
X144780000Y-82530000D02*
X147320000Y-82530000D01*
X124210000Y-81460000D02*
X119710000Y-81460000D01*
X124210000Y-78560000D02*
X119710000Y-78560000D01*
X124210000Y-78560000D02*
G75*
G02X124210000Y-81460000I0J-1450000D01*
G01*
X119710000Y-78560000D02*
G75*
G03X119710000Y-81460000I0J-1450000D01*
G01*
D10*
X129353333Y-103267142D02*
X129305714Y-103314761D01*
X129162857Y-103362380D01*
X129067619Y-103362380D01*
X128924761Y-103314761D01*
X128829523Y-103219523D01*
X128781904Y-103124285D01*
X128734285Y-102933809D01*
X128734285Y-102790952D01*
X128781904Y-102600476D01*
X128829523Y-102505238D01*
X128924761Y-102410000D01*
X129067619Y-102362380D01*
X129162857Y-102362380D01*
X129305714Y-102410000D01*
X129353333Y-102457619D01*
X130305714Y-103362380D02*
X129734285Y-103362380D01*
X130020000Y-103362380D02*
X130020000Y-102362380D01*
X129924761Y-102505238D01*
X129829523Y-102600476D01*
X129734285Y-102648095D01*
X133223333Y-82867142D02*
X133175714Y-82914761D01*
X133032857Y-82962380D01*
X132937619Y-82962380D01*
X132794761Y-82914761D01*
X132699523Y-82819523D01*
X132651904Y-82724285D01*
X132604285Y-82533809D01*
X132604285Y-82390952D01*
X132651904Y-82200476D01*
X132699523Y-82105238D01*
X132794761Y-82010000D01*
X132937619Y-81962380D01*
X133032857Y-81962380D01*
X133175714Y-82010000D01*
X133223333Y-82057619D01*
X133604285Y-82057619D02*
X133651904Y-82010000D01*
X133747142Y-81962380D01*
X133985238Y-81962380D01*
X134080476Y-82010000D01*
X134128095Y-82057619D01*
X134175714Y-82152857D01*
X134175714Y-82248095D01*
X134128095Y-82390952D01*
X133556666Y-82962380D01*
X134175714Y-82962380D01*
X110283333Y-77867142D02*
X110235714Y-77914761D01*
X110092857Y-77962380D01*
X109997619Y-77962380D01*
X109854761Y-77914761D01*
X109759523Y-77819523D01*
X109711904Y-77724285D01*
X109664285Y-77533809D01*
X109664285Y-77390952D01*
X109711904Y-77200476D01*
X109759523Y-77105238D01*
X109854761Y-77010000D01*
X109997619Y-76962380D01*
X110092857Y-76962380D01*
X110235714Y-77010000D01*
X110283333Y-77057619D01*
X110616666Y-76962380D02*
X111235714Y-76962380D01*
X110902380Y-77343333D01*
X111045238Y-77343333D01*
X111140476Y-77390952D01*
X111188095Y-77438571D01*
X111235714Y-77533809D01*
X111235714Y-77771904D01*
X111188095Y-77867142D01*
X111140476Y-77914761D01*
X111045238Y-77962380D01*
X110759523Y-77962380D01*
X110664285Y-77914761D01*
X110616666Y-77867142D01*
X124991904Y-77072380D02*
X124991904Y-76072380D01*
X125230000Y-76072380D01*
X125372857Y-76120000D01*
X125468095Y-76215238D01*
X125515714Y-76310476D01*
X125563333Y-76500952D01*
X125563333Y-76643809D01*
X125515714Y-76834285D01*
X125468095Y-76929523D01*
X125372857Y-77024761D01*
X125230000Y-77072380D01*
X124991904Y-77072380D01*
X126515714Y-77072380D02*
X125944285Y-77072380D01*
X126230000Y-77072380D02*
X126230000Y-76072380D01*
X126134761Y-76215238D01*
X126039523Y-76310476D01*
X125944285Y-76358095D01*
X94916666Y-79263380D02*
X94916666Y-79977666D01*
X94869047Y-80120523D01*
X94773809Y-80215761D01*
X94630952Y-80263380D01*
X94535714Y-80263380D01*
X95916666Y-80263380D02*
X95345238Y-80263380D01*
X95630952Y-80263380D02*
X95630952Y-79263380D01*
X95535714Y-79406238D01*
X95440476Y-79501476D01*
X95345238Y-79549095D01*
X144613333Y-78092380D02*
X144280000Y-77616190D01*
X144041904Y-78092380D02*
X144041904Y-77092380D01*
X144422857Y-77092380D01*
X144518095Y-77140000D01*
X144565714Y-77187619D01*
X144613333Y-77282857D01*
X144613333Y-77425714D01*
X144565714Y-77520952D01*
X144518095Y-77568571D01*
X144422857Y-77616190D01*
X144041904Y-77616190D01*
X145565714Y-78092380D02*
X144994285Y-78092380D01*
X145280000Y-78092380D02*
X145280000Y-77092380D01*
X145184761Y-77235238D01*
X145089523Y-77330476D01*
X144994285Y-77378095D01*
X116673333Y-76482380D02*
X116340000Y-76006190D01*
X116101904Y-76482380D02*
X116101904Y-75482380D01*
X116482857Y-75482380D01*
X116578095Y-75530000D01*
X116625714Y-75577619D01*
X116673333Y-75672857D01*
X116673333Y-75815714D01*
X116625714Y-75910952D01*
X116578095Y-75958571D01*
X116482857Y-76006190D01*
X116101904Y-76006190D01*
X117054285Y-75577619D02*
X117101904Y-75530000D01*
X117197142Y-75482380D01*
X117435238Y-75482380D01*
X117530476Y-75530000D01*
X117578095Y-75577619D01*
X117625714Y-75672857D01*
X117625714Y-75768095D01*
X117578095Y-75910952D01*
X117006666Y-76482380D01*
X117625714Y-76482380D01*
X157062380Y-93321904D02*
X157871904Y-93321904D01*
X157967142Y-93274285D01*
X158014761Y-93226666D01*
X158062380Y-93131428D01*
X158062380Y-92940952D01*
X158014761Y-92845714D01*
X157967142Y-92798095D01*
X157871904Y-92750476D01*
X157062380Y-92750476D01*
X158062380Y-91750476D02*
X158062380Y-92321904D01*
X158062380Y-92036190D02*
X157062380Y-92036190D01*
X157205238Y-92131428D01*
X157300476Y-92226666D01*
X157348095Y-92321904D01*
X121483809Y-82436190D02*
X121483809Y-82912380D01*
X121150476Y-81912380D02*
X121483809Y-82436190D01*
X121817142Y-81912380D01*
X122674285Y-82912380D02*
X122102857Y-82912380D01*
X122388571Y-82912380D02*
X122388571Y-81912380D01*
X122293333Y-82055238D01*
X122198095Y-82150476D01*
X122102857Y-82198095D01*
M02*
