%TF.GenerationSoftware,KiCad,Pcbnew,5.1.4-3.fc30*%
%TF.CreationDate,2019-10-13T14:30:26+02:00*%
%TF.ProjectId,atmega_prog_adapter_v2,61746d65-6761-45f7-9072-6f675f616461,1.0*%
%TF.SameCoordinates,Original*%
%TF.FileFunction,Copper,L2,Bot*%
%TF.FilePolarity,Positive*%
%FSLAX46Y46*%
G04 Gerber Fmt 4.6, Leading zero omitted, Abs format (unit mm)*
G04 Created by KiCad (PCBNEW 5.1.4-3.fc30) date 2019-10-13 14:30:26*
%MOMM*%
%LPD*%
G04 APERTURE LIST*
%TA.AperFunction,ComponentPad*%
%ADD10C,1.600000*%
%TD*%
%TA.AperFunction,ComponentPad*%
%ADD11R,1.800000X1.800000*%
%TD*%
%TA.AperFunction,ComponentPad*%
%ADD12C,1.800000*%
%TD*%
%TA.AperFunction,ComponentPad*%
%ADD13R,1.727200X1.727200*%
%TD*%
%TA.AperFunction,ComponentPad*%
%ADD14O,1.727200X1.727200*%
%TD*%
%TA.AperFunction,ComponentPad*%
%ADD15O,1.600000X1.600000*%
%TD*%
%TA.AperFunction,ComponentPad*%
%ADD16R,1.440000X2.000000*%
%TD*%
%TA.AperFunction,ComponentPad*%
%ADD17O,1.440000X2.000000*%
%TD*%
%TA.AperFunction,ComponentPad*%
%ADD18C,1.700000*%
%TD*%
%TA.AperFunction,Conductor*%
%ADD19C,0.350000*%
%TD*%
G04 APERTURE END LIST*
D10*
%TO.P,C1,1*%
%TO.N,Net-(C1-Pad1)*%
X128270000Y-105410000D03*
%TO.P,C1,2*%
%TO.N,GND*%
X130770000Y-105410000D03*
%TD*%
%TO.P,C2,1*%
%TO.N,GND*%
X135890000Y-80010000D03*
%TO.P,C2,2*%
%TO.N,/XTAL1*%
X130890000Y-80010000D03*
%TD*%
%TO.P,C3,2*%
%TO.N,/XTAL2*%
X112950000Y-80010000D03*
%TO.P,C3,1*%
%TO.N,GND*%
X107950000Y-80010000D03*
%TD*%
D11*
%TO.P,D1,1*%
%TO.N,GND*%
X127000000Y-73660000D03*
D12*
%TO.P,D1,2*%
%TO.N,Net-(D1-Pad2)*%
X124460000Y-73660000D03*
%TD*%
D13*
%TO.P,J1,1*%
%TO.N,/MOSI*%
X93980000Y-86415000D03*
D14*
%TO.P,J1,2*%
%TO.N,Net-(C1-Pad1)*%
X96520000Y-86415000D03*
%TO.P,J1,3*%
%TO.N,Net-(J1-Pad3)*%
X93980000Y-88955000D03*
%TO.P,J1,4*%
%TO.N,GND*%
X96520000Y-88955000D03*
%TO.P,J1,5*%
%TO.N,/RESET*%
X93980000Y-91495000D03*
%TO.P,J1,6*%
%TO.N,GND*%
X96520000Y-91495000D03*
%TO.P,J1,7*%
%TO.N,/SCK*%
X93980000Y-94035000D03*
%TO.P,J1,8*%
%TO.N,GND*%
X96520000Y-94035000D03*
%TO.P,J1,9*%
%TO.N,/MISO*%
X93980000Y-96575000D03*
%TO.P,J1,10*%
%TO.N,GND*%
X96520000Y-96575000D03*
%TD*%
D10*
%TO.P,R1,1*%
%TO.N,Net-(C1-Pad1)*%
X140970000Y-80010000D03*
D15*
%TO.P,R1,2*%
%TO.N,/RESET*%
X148590000Y-80010000D03*
%TD*%
%TO.P,R2,2*%
%TO.N,Net-(R2-Pad2)*%
X113030000Y-73660000D03*
D10*
%TO.P,R2,1*%
%TO.N,Net-(D1-Pad2)*%
X120650000Y-73660000D03*
%TD*%
D16*
%TO.P,U1,1*%
%TO.N,/RESET*%
X146050000Y-87480000D03*
D17*
%TO.P,U1,28*%
%TO.N,Net-(U1-Pad28)*%
X146050000Y-97640000D03*
%TO.P,U1,2*%
%TO.N,Net-(U1-Pad2)*%
X143510000Y-87480000D03*
%TO.P,U1,27*%
%TO.N,Net-(U1-Pad27)*%
X143510000Y-97640000D03*
%TO.P,U1,3*%
%TO.N,Net-(U1-Pad3)*%
X140970000Y-87480000D03*
%TO.P,U1,26*%
%TO.N,Net-(U1-Pad26)*%
X140970000Y-97640000D03*
%TO.P,U1,4*%
%TO.N,Net-(U1-Pad4)*%
X138430000Y-87480000D03*
%TO.P,U1,25*%
%TO.N,Net-(U1-Pad25)*%
X138430000Y-97640000D03*
%TO.P,U1,5*%
%TO.N,Net-(U1-Pad5)*%
X135890000Y-87480000D03*
%TO.P,U1,24*%
%TO.N,Net-(U1-Pad24)*%
X135890000Y-97640000D03*
%TO.P,U1,6*%
%TO.N,Net-(U1-Pad6)*%
X133350000Y-87480000D03*
%TO.P,U1,23*%
%TO.N,Net-(U1-Pad23)*%
X133350000Y-97640000D03*
%TO.P,U1,7*%
%TO.N,Net-(C1-Pad1)*%
X130810000Y-87480000D03*
%TO.P,U1,22*%
%TO.N,GND*%
X130810000Y-97640000D03*
%TO.P,U1,8*%
X128270000Y-87480000D03*
%TO.P,U1,21*%
%TO.N,Net-(C1-Pad1)*%
X128270000Y-97640000D03*
%TO.P,U1,9*%
%TO.N,/XTAL1*%
X125730000Y-87480000D03*
%TO.P,U1,20*%
%TO.N,Net-(C1-Pad1)*%
X125730000Y-97640000D03*
%TO.P,U1,10*%
%TO.N,/XTAL2*%
X123190000Y-87480000D03*
%TO.P,U1,19*%
%TO.N,/SCK*%
X123190000Y-97640000D03*
%TO.P,U1,11*%
%TO.N,Net-(U1-Pad11)*%
X120650000Y-87480000D03*
%TO.P,U1,18*%
%TO.N,/MISO*%
X120650000Y-97640000D03*
%TO.P,U1,12*%
%TO.N,Net-(U1-Pad12)*%
X118110000Y-87480000D03*
%TO.P,U1,17*%
%TO.N,/MOSI*%
X118110000Y-97640000D03*
%TO.P,U1,13*%
%TO.N,Net-(U1-Pad13)*%
X115570000Y-87480000D03*
%TO.P,U1,16*%
%TO.N,Net-(U1-Pad16)*%
X115570000Y-97640000D03*
%TO.P,U1,14*%
%TO.N,Net-(R2-Pad2)*%
X113030000Y-87480000D03*
%TO.P,U1,15*%
%TO.N,Net-(U1-Pad15)*%
X113030000Y-97640000D03*
%TD*%
D18*
%TO.P,Y1,1*%
%TO.N,/XTAL1*%
X124460000Y-80010000D03*
%TO.P,Y1,2*%
%TO.N,/XTAL2*%
X119460000Y-80010000D03*
%TD*%
D19*
%TO.N,Net-(C1-Pad1)*%
X130810000Y-87480000D02*
X129714700Y-87480000D01*
X128270000Y-97640000D02*
X129365300Y-97640000D01*
X129714700Y-87480000D02*
X129714700Y-97290600D01*
X129714700Y-97290600D02*
X129365300Y-97640000D01*
X128270000Y-97640000D02*
X128270000Y-105410000D01*
X124634700Y-97640000D02*
X124634700Y-97229300D01*
X124634700Y-97229300D02*
X121266000Y-93860600D01*
X121266000Y-93860600D02*
X114870200Y-93860600D01*
X114870200Y-93860600D02*
X107424600Y-86415000D01*
X107424600Y-86415000D02*
X96520000Y-86415000D01*
X125730000Y-97640000D02*
X124634700Y-97640000D01*
%TO.N,GND*%
X131905300Y-86084400D02*
X130213300Y-86084400D01*
X130213300Y-86084400D02*
X128817700Y-87480000D01*
X134625300Y-80010000D02*
X134625300Y-83364400D01*
X134625300Y-83364400D02*
X131905300Y-86084400D01*
X131905300Y-86084400D02*
X131905300Y-97640000D01*
X130810000Y-97640000D02*
X131905300Y-97640000D01*
X134625300Y-80010000D02*
X135890000Y-80010000D01*
X128275300Y-73660000D02*
X134625300Y-80010000D01*
X128270000Y-87480000D02*
X128817700Y-87480000D01*
X127000000Y-73660000D02*
X128275300Y-73660000D01*
X96520000Y-91495000D02*
X96520000Y-88955000D01*
X96520000Y-94035000D02*
X96520000Y-91495000D01*
X96520000Y-96575000D02*
X96520000Y-94035000D01*
%TO.N,/XTAL2*%
X119460000Y-80010000D02*
X123190000Y-83740000D01*
X123190000Y-83740000D02*
X123190000Y-87480000D01*
%TO.N,/MOSI*%
X95218900Y-86415000D02*
X95218900Y-86879700D01*
X95218900Y-86879700D02*
X95993100Y-87653900D01*
X95993100Y-87653900D02*
X107439300Y-87653900D01*
X107439300Y-87653900D02*
X117014700Y-97229300D01*
X117014700Y-97229300D02*
X117014700Y-97640000D01*
X93980000Y-86415000D02*
X95218900Y-86415000D01*
X118110000Y-97640000D02*
X117014700Y-97640000D01*
%TO.N,/RESET*%
X148590000Y-80010000D02*
X148590000Y-81185300D01*
X146050000Y-87480000D02*
X146050000Y-83725300D01*
X146050000Y-83725300D02*
X148590000Y-81185300D01*
%TO.N,Net-(R2-Pad2)*%
X113030000Y-73660000D02*
X113030000Y-74835300D01*
X113030000Y-87480000D02*
X111934700Y-87480000D01*
X111934700Y-87480000D02*
X111740000Y-87285300D01*
X111740000Y-87285300D02*
X111740000Y-76125300D01*
X111740000Y-76125300D02*
X113030000Y-74835300D01*
%TD*%
M02*
