G04 #@! TF.GenerationSoftware,KiCad,Pcbnew,5.1.4-3.fc30*
G04 #@! TF.CreationDate,2019-09-24T15:10:09+02:00*
G04 #@! TF.ProjectId,atmega_prog_adapter_v2,61746d65-6761-45f7-9072-6f675f616461,1.0*
G04 #@! TF.SameCoordinates,Original*
G04 #@! TF.FileFunction,Copper,L2,Bot*
G04 #@! TF.FilePolarity,Positive*
%FSLAX46Y46*%
G04 Gerber Fmt 4.6, Leading zero omitted, Abs format (unit mm)*
G04 Created by KiCad (PCBNEW 5.1.4-3.fc30) date 2019-09-24 15:10:09*
%MOMM*%
%LPD*%
G04 APERTURE LIST*
%ADD10C,1.600000*%
%ADD11R,1.800000X1.800000*%
%ADD12C,1.800000*%
%ADD13R,1.727200X1.727200*%
%ADD14O,1.727200X1.727200*%
%ADD15O,1.600000X1.600000*%
%ADD16R,1.440000X2.000000*%
%ADD17O,1.440000X2.000000*%
%ADD18C,1.700000*%
%ADD19C,0.350000*%
G04 APERTURE END LIST*
D10*
X128270000Y-105410000D03*
X130770000Y-105410000D03*
X137160000Y-80010000D03*
X132160000Y-80010000D03*
X119300000Y-80010000D03*
X114300000Y-80010000D03*
D11*
X127000000Y-73660000D03*
D12*
X124460000Y-73660000D03*
D13*
X93980000Y-86415000D03*
D14*
X96520000Y-86415000D03*
X93980000Y-88955000D03*
X96520000Y-88955000D03*
X93980000Y-91495000D03*
X96520000Y-91495000D03*
X93980000Y-94035000D03*
X96520000Y-94035000D03*
X93980000Y-96575000D03*
X96520000Y-96575000D03*
D10*
X140970000Y-80010000D03*
D15*
X148590000Y-80010000D03*
X113030000Y-73660000D03*
D10*
X120650000Y-73660000D03*
D16*
X146050000Y-87480000D03*
D17*
X146050000Y-97640000D03*
X143510000Y-87480000D03*
X143510000Y-97640000D03*
X140970000Y-87480000D03*
X140970000Y-97640000D03*
X138430000Y-87480000D03*
X138430000Y-97640000D03*
X135890000Y-87480000D03*
X135890000Y-97640000D03*
X133350000Y-87480000D03*
X133350000Y-97640000D03*
X130810000Y-87480000D03*
X130810000Y-97640000D03*
X128270000Y-87480000D03*
X128270000Y-97640000D03*
X125730000Y-87480000D03*
X125730000Y-97640000D03*
X123190000Y-87480000D03*
X123190000Y-97640000D03*
X120650000Y-87480000D03*
X120650000Y-97640000D03*
X118110000Y-87480000D03*
X118110000Y-97640000D03*
X115570000Y-87480000D03*
X115570000Y-97640000D03*
X113030000Y-87480000D03*
X113030000Y-97640000D03*
D18*
X128270000Y-80010000D03*
X123270000Y-80010000D03*
D19*
X121605000Y-93440000D02*
X127000000Y-88045000D01*
X127000000Y-88045000D02*
X127000000Y-86880700D01*
X127000000Y-86880700D02*
X127795600Y-86085100D01*
X127795600Y-86085100D02*
X129415100Y-86085100D01*
X129415100Y-86085100D02*
X130810000Y-87480000D01*
X96520000Y-86415000D02*
X108282100Y-86415000D01*
X108282100Y-86415000D02*
X115307100Y-93440000D01*
X115307100Y-93440000D02*
X121605000Y-93440000D01*
X124634700Y-97640000D02*
X124634700Y-96469700D01*
X124634700Y-96469700D02*
X121605000Y-93440000D01*
X125730000Y-97640000D02*
X124634700Y-97640000D01*
X128270000Y-97640000D02*
X128270000Y-105410000D01*
X128270000Y-87480000D02*
X129365300Y-87480000D01*
X130810000Y-97640000D02*
X129714700Y-97640000D01*
X129365300Y-87480000D02*
X129365300Y-97290600D01*
X129365300Y-97290600D02*
X129714700Y-97640000D01*
X114300000Y-80010000D02*
X118881700Y-75428300D01*
X118881700Y-75428300D02*
X125231700Y-75428300D01*
X125231700Y-75428300D02*
X127000000Y-73660000D01*
X96520000Y-91495000D02*
X96520000Y-88955000D01*
X96520000Y-94035000D02*
X96520000Y-91495000D01*
X96520000Y-96575000D02*
X96520000Y-94035000D01*
X125730000Y-87480000D02*
X125730000Y-82550000D01*
X125730000Y-82550000D02*
X128270000Y-80010000D01*
X123190000Y-80090000D02*
X123270000Y-80010000D01*
X123190000Y-87480000D02*
X123190000Y-80090000D01*
X123190000Y-80090000D02*
X119380000Y-80090000D01*
X119380000Y-80090000D02*
X119300000Y-80010000D01*
X95218900Y-86415000D02*
X95218900Y-86879700D01*
X95218900Y-86879700D02*
X95993100Y-87653900D01*
X95993100Y-87653900D02*
X107439300Y-87653900D01*
X107439300Y-87653900D02*
X117014700Y-97229300D01*
X117014700Y-97229300D02*
X117014700Y-97640000D01*
X93980000Y-86415000D02*
X95218900Y-86415000D01*
X118110000Y-97640000D02*
X117014700Y-97640000D01*
X148590000Y-80010000D02*
X148590000Y-81185300D01*
X146050000Y-87480000D02*
X146050000Y-83725300D01*
X146050000Y-83725300D02*
X148590000Y-81185300D01*
X113030000Y-87480000D02*
X113030000Y-73660000D01*
M02*
