%TF.GenerationSoftware,KiCad,Pcbnew,5.1.6-c6e7f7d~86~ubuntu18.04.1*%
%TF.CreationDate,2020-05-25T18:43:36+02:00*%
%TF.ProjectId,atmega_prog_adapter_v2,61746d65-6761-45f7-9072-6f675f616461,1.0*%
%TF.SameCoordinates,PX54c81a0PY68290a0*%
%TF.FileFunction,Other,User*%
%FSLAX46Y46*%
G04 Gerber Fmt 4.6, Leading zero omitted, Abs format (unit mm)*
G04 Created by KiCad (PCBNEW 5.1.6-c6e7f7d~86~ubuntu18.04.1) date 2020-05-25 18:43:36*
%MOMM*%
%LPD*%
G01*
G04 APERTURE LIST*
%ADD10C,0.050000*%
G04 APERTURE END LIST*
D10*
%TO.C,C1*%
X43370000Y5310000D02*
X37870000Y5310000D01*
X43370000Y2310000D02*
X43370000Y5310000D01*
X37870000Y2310000D02*
X43370000Y2310000D01*
X37870000Y5310000D02*
X37870000Y2310000D01*
%TO.C,C2*%
X40940000Y27710000D02*
X48040000Y27710000D01*
X40940000Y30710000D02*
X40940000Y27710000D01*
X48040000Y30710000D02*
X40940000Y30710000D01*
X48040000Y27710000D02*
X48040000Y30710000D01*
%TO.C,C3*%
X18000000Y30710000D02*
X18000000Y27710000D01*
X18000000Y27710000D02*
X25100000Y27710000D01*
X25100000Y27710000D02*
X25100000Y30710000D01*
X25100000Y30710000D02*
X18000000Y30710000D01*
%TO.C,D1*%
X34400000Y33310000D02*
X39250000Y33310000D01*
X34400000Y37810000D02*
X34400000Y33310000D01*
X39250000Y37810000D02*
X34400000Y37810000D01*
X39250000Y33310000D02*
X39250000Y37810000D01*
%TO.C,J1*%
X1670000Y28155000D02*
X11030000Y28155000D01*
X1670000Y7295000D02*
X1670000Y28155000D01*
X11030000Y7295000D02*
X1670000Y7295000D01*
X11030000Y28155000D02*
X11030000Y7295000D01*
%TO.C,R1*%
X60740000Y30710000D02*
X51020000Y30710000D01*
X60740000Y27710000D02*
X60740000Y30710000D01*
X51020000Y27710000D02*
X60740000Y27710000D01*
X51020000Y30710000D02*
X51020000Y27710000D01*
%TO.C,R2*%
X32800000Y34060000D02*
X32800000Y37060000D01*
X32800000Y37060000D02*
X23080000Y37060000D01*
X23080000Y37060000D02*
X23080000Y34060000D01*
X23080000Y34060000D02*
X32800000Y34060000D01*
%TO.C,U1*%
X60550000Y27240000D02*
X80510000Y27240000D01*
X60550000Y26060000D02*
X60550000Y27240000D01*
X16710000Y26060000D02*
X60550000Y26060000D01*
X16710000Y7260000D02*
X16710000Y26060000D01*
X68210000Y7260000D02*
X16710000Y7260000D01*
X68210000Y21640000D02*
X68210000Y7260000D01*
X80510000Y21640000D02*
X68210000Y21640000D01*
X80510000Y27240000D02*
X80510000Y21640000D01*
%TO.C,Y1*%
X29060000Y27510000D02*
X37060000Y27510000D01*
X29060000Y30910000D02*
X29060000Y27510000D01*
X37060000Y30910000D02*
X29060000Y30910000D01*
X37060000Y27510000D02*
X37060000Y30910000D01*
%TD*%
M02*
